<svg width="1024" height="1024" fill="none" xmlns="http://www.w3.org/2000/svg"><g clip-path="url(#a)"><path d="M512 1024c282.77 0 512-229.23 512-512S794.77 0 512 0 0 229.23 0 512s229.23 512 512 512Z" fill="#8C72BD"/><path d="M458.641 291.589h-117.55c-18.94 0-34.29 15.35-34.29 34.29v391.83c0 18.94 15.35 34.29 34.29 34.29h117.55c18.94 0 34.29-15.35 34.29-34.29v-391.83c0-18.94-15.35-34.29-34.29-34.29Zm-122.45 107.75h127.35v244.9h-127.35v-244.9Zm4.9-78.37h117.55c2.71 0 4.9 2.19 4.9 4.9v44.08h-127.35v-44.08c0-2.71 2.19-4.9 4.9-4.9Zm117.55 401.63h-117.55c-2.71 0-4.9-2.19-4.9-4.9v-44.08h127.35v44.08c0 2.71-2.19 4.9-4.9 4.9Zm307.84-36.73-81.28-386.54c-3.84-18.54-21.99-30.46-40.53-26.61-.07.01-.13.03-.2.04l-114.64 24.64c-18.46 4.06-30.22 22.22-26.38 40.73l81.28 386.47a34.322 34.322 0 0 0 14.94 21.8 33.824 33.824 0 0 0 18.54 5.53c2.47.01 4.93-.25 7.35-.78l114.64-24.61c18.39-4.1 30.09-22.2 26.28-40.65v-.02Zm-202.8-204.05 124.24-26.69 34.58 164.47-124.26 26.62-34.55-164.4h-.01Zm-16.24-77.29 124.26-26.77 10.16 48.51-124.24 26.69-10.19-48.44.01.01Zm-11.41-78.37 114.61-24.61c.34-.03.69-.03 1.03 0 .92 0 1.81.27 2.57.78 1.14.72 1.93 1.88 2.18 3.21l9.18 43.64-124.21 26.5-9.16-43.54c-.6-2.71 1.1-5.39 3.8-6.02v.05-.01Zm197.9 371.75-114.64 24.69c-1.24.27-2.54.04-3.6-.66a4.862 4.862 0 0 1-2.18-3.21l-9.18-43.64 124.21-26.69 9.28 43.42c.6 2.73-1.13 5.44-3.86 6.04h-.03v.05Z" fill="#fff"/></g><defs><clipPath id="a"><path fill="#fff" d="M0 0h1024v1024H0z"/></clipPath></defs></svg>