<svg width="1024" height="1024" fill="none" xmlns="http://www.w3.org/2000/svg"><g clip-path="url(#a)"><path d="M512 1024c282.77 0 512-229.23 512-512S794.77 0 512 0 0 229.23 0 512s229.23 512 512 512Z" fill="#8C72BD"/><path d="M574.84 496.288h-47.13v-178.04h26.18c49.16 0 89.02 39.85 89.02 89.02 0 8.68 7.03 15.71 15.71 15.71s15.71-7.03 15.71-15.71c-.09-66.48-53.96-120.35-120.44-120.44h-26.18v-47.13c0-8.68-7.03-15.71-15.71-15.71s-15.71 7.03-15.71 15.71v47.13h-26.18c-66.52 0-120.44 53.92-120.44 120.44s53.92 120.44 120.44 120.44h26.18v178.04h-47.13c-49.16 0-89.02-39.85-89.02-89.02 0-8.68-7.03-15.71-15.71-15.71s-15.71 7.03-15.71 15.71c.09 66.48 53.96 120.35 120.44 120.44h47.13v47.13c0 8.68 7.03 15.71 15.71 15.71s15.71-7.03 15.71-15.71v-47.13h47.13c66.52 0 120.44-53.92 120.44-120.44s-53.92-120.44-120.44-120.44Zm-104.73 0c-49.16 0-89.02-39.85-89.02-89.02 0-49.17 39.85-89.02 89.02-89.02h26.18v178.04h-26.18Zm104.73 209.45h-47.13v-178.04h47.13c49.16 0 89.02 39.85 89.02 89.02 0 49.17-39.85 89.02-89.02 89.02Z" fill="#fff"/></g><defs><clipPath id="a"><path fill="#fff" d="M0 0h1024v1024H0z"/></clipPath></defs></svg>