<svg width="1024" height="1024" fill="none" xmlns="http://www.w3.org/2000/svg"><g clip-path="url(#a)"><path d="M512 1024c282.77 0 512-229.23 512-512S794.77 0 512 0 0 229.23 0 512s229.23 512 512 512Z" fill="#8C72BD"/><path d="m823.949 419.971-304.79-162.55a15.077 15.077 0 0 0-14.32 0l-304.79 162.55c-7.42 3.97-10.22 13.21-6.24 20.63a15.196 15.196 0 0 0 6.24 6.24l73.2 39.06v126.03c0 8.73 3.21 17.16 9.02 23.67 32.69 36.4 106.01 97.51 229.73 97.51 43.56.41 86.76-8 126.99-24.71v90.75c0 8.42 6.82 15.24 15.24 15.24s15.24-6.82 15.24-15.24v-105.79a287.539 287.539 0 0 0 72.26-57.78c5.82-6.5 9.03-14.92 9.02-23.65v-126.03l73.2-39.06c7.42-3.97 10.22-13.21 6.24-20.63a15.184 15.184 0 0 0-6.24-6.24Zm-311.95 282.66c-111.75 0-177.79-54.76-207.05-87.4a5.064 5.064 0 0 1-1.22-3.3v-109.77l201.11 107.23c4.48 2.38 9.85 2.38 14.32 0l119.83-63.9v129.53c-33.02 15.8-75.05 27.61-126.99 27.61Zm208.27-90.7c0 1.21-.43 2.38-1.22 3.3a254.452 254.452 0 0 1-49.58 42.44v-128.44l50.8-27.08v109.78Zm-56.26-114.29c-.79-.68-1.64-1.29-2.54-1.8l-142.23-75.84c-7.59-3.64-16.69-.45-20.33 7.14-3.43 7.14-.82 15.72 6.01 19.73l127.1 67.81-120.01 64.01-272.4-145.28 272.4-145.28 272.4 145.28-120.39 64.23h-.01Z" fill="#fff"/></g><defs><clipPath id="a"><path fill="#fff" d="M0 0h1024v1024H0z"/></clipPath></defs></svg>