<svg width="1024" height="1024" fill="none" xmlns="http://www.w3.org/2000/svg"><g clip-path="url(#a)"><path d="M512 1024c282.77 0 512-229.23 512-512S794.77 0 512 0 0 229.23 0 512s229.23 512 512 512Z" fill="#8C72BD"/><path d="m738.289 502.95-214.77-273.34c-4.99-6.36-14.2-7.47-20.56-2.48-.92.72-1.75 1.56-2.48 2.48l-214.77 273.34a14.644 14.644 0 0 0 0 18.11l214.77 273.34c4.99 6.36 14.2 7.47 20.56 2.48.92-.72 1.75-1.56 2.48-2.48l214.77-273.34c4.18-5.31 4.18-12.8 0-18.11Zm-211.64-221.94 177.09 225.39-177.09 80.54V281.01Zm-29.29 305.87-177.09-80.54L497.359 281v305.88Zm0 32.17v123.96l-151.51-192.8 151.51 68.85v-.01Zm29.29 0 151.51-68.85L526.649 743V619.04v.01Z" fill="#fff"/></g><defs><clipPath id="a"><path fill="#fff" d="M0 0h1024v1024H0z"/></clipPath></defs></svg>