<svg width="1024" height="1024" fill="none" xmlns="http://www.w3.org/2000/svg"><g clip-path="url(#a)"><path d="M512 1024c282.77 0 512-229.23 512-512S794.77 0 512 0 0 229.23 0 512s229.23 512 512 512Z" fill="#8C72BD"/><path d="M683.2 698.53c6.28 7.01 5.7 17.779-1.31 24.069 0 0-.02.01-.02.021-91.24 81.56-231.32 73.71-312.87-17.53a221.617 221.617 0 0 1-55.72-130.59h-51.84c-9.41 0-17.04-7.63-17.04-17.04s7.63-17.041 17.04-17.041h51.13V483.6h-51.13c-9.41 0-17.04-7.631-17.04-17.041s7.63-17.04 17.04-17.04h51.84c9.43-122.01 115.99-213.27 238-203.84a221.639 221.639 0 0 1 130.59 55.72c7.06 6.28 7.7 17.09 1.42 24.15-6.28 7.06-17.09 7.701-24.15 1.421-77.2-69.02-195.72-62.38-264.74 14.81a187.513 187.513 0 0 0-46.92 107.739h186.67c9.41 0 17.04 7.63 17.04 17.04s-7.63 17.041-17.04 17.041H346.66v56.819H488.7c9.41 0 17.04 7.631 17.04 17.041s-7.63 17.04-17.04 17.04H347.49c9.43 103.12 100.66 179.07 203.78 169.65a187.466 187.466 0 0 0 107.88-46.921c7.01-6.28 17.78-5.7 24.06 1.31l-.01-.009Z" fill="#fff"/></g><defs><clipPath id="a"><path fill="#fff" d="M0 0h1024v1024H0z"/></clipPath></defs></svg>