<svg width="1024" height="1024" fill="none" xmlns="http://www.w3.org/2000/svg"><g clip-path="url(#a)"><path d="M512 1024c282.77 0 512-229.23 512-512S794.77 0 512 0 0 229.23 0 512s229.23 512 512 512Z" fill="#8C72BD"/><path d="M258.17 442.06h63.46v165.97H277.7c-8.09 0-14.64 6.56-14.64 14.64 0 8.08 6.56 14.64 14.64 14.64h468.61c8.09 0 14.64-6.56 14.64-14.64 0-8.08-6.56-14.64-14.64-14.64h-43.93V442.06h63.46c8.09 0 14.64-6.57 14.63-14.66 0-5.08-2.64-9.8-6.97-12.46l-253.83-156.2a14.641 14.641 0 0 0-15.33 0l-253.83 156.2c-6.89 4.24-9.04 13.26-4.8 20.15 2.66 4.33 7.38 6.97 12.46 6.97Zm92.75 0h87.86v165.97h-87.86V442.06Zm205.02 0v165.97h-87.86V442.06h87.86Zm117.15 165.97h-87.86V442.06h87.86v165.97ZM512.01 288.3 714.1 412.77H309.92L512.01 288.3Zm288 412.47c0 8.09-6.56 14.64-14.64 14.64H238.64c-8.09 0-14.64-6.56-14.64-14.64 0-8.08 6.56-14.64 14.64-14.64h546.71c8.09 0 14.64 6.56 14.64 14.64h.02Z" fill="#fff"/></g><defs><clipPath id="a"><path fill="#fff" d="M0 0h1024v1024H0z"/></clipPath></defs></svg>