<svg width="1024" height="1024" fill="none" xmlns="http://www.w3.org/2000/svg"><g clip-path="url(#a)"><path d="M512 1024c282.77 0 512-229.23 512-512S794.77 0 512 0 0 229.23 0 512s229.23 512 512 512Z" fill="#8C72BD"/><path d="M738.57 288H285.42c-19.91 0-36.05 16.33-36.05 36.47v375.07c0 20.14 16.14 36.47 36.05 36.47h453.15c19.91 0 36.05-16.33 36.05-36.47V324.47c0-20.14-16.14-36.47-36.05-36.47Zm-453.15 31.26h453.15c2.84 0 5.15 2.33 5.15 5.21v280.18l-75.88-76.76a35.773 35.773 0 0 0-25.49-10.68 35.747 35.747 0 0 0-25.49 10.68l-55.15 55.79-116.92-118.3a35.773 35.773 0 0 0-25.49-10.68 35.747 35.747 0 0 0-25.49 10.68L280.27 580.25V324.47c0-2.88 2.31-5.21 5.15-5.21Zm-5.15 380.28v-75.09L415.65 487.5c2-2.04 5.26-2.06 7.28-.03 0 .01.02.02.03.03l214.76 217.25h-352.3c-2.84 0-5.15-2.33-5.15-5.21Zm458.3 5.21h-57.16l-97.84-98.98 55.12-55.79a5.089 5.089 0 0 1 5.614-1.132 5.103 5.103 0 0 1 1.666 1.132l97.84 98.98v50.58c0 2.88-2.3 5.21-5.15 5.21h-.1.01ZM558.34 439.08c0-14.39 11.53-26.05 25.75-26.05s25.75 11.66 25.75 26.05-11.53 26.05-25.75 26.05-25.75-11.66-25.75-26.05Z" fill="#fff"/></g><defs><clipPath id="a"><path fill="#fff" d="M0 0h1024v1024H0z"/></clipPath></defs></svg>