<svg width="1024" height="1024" fill="none" xmlns="http://www.w3.org/2000/svg"><g clip-path="url(#a)"><path d="M512 1024c282.77 0 512-229.23 512-512S794.77 0 512 0 0 229.23 0 512s229.23 512 512 512Z" fill="#8C72BD"/><path d="M641.47 455.44h-64.74c-8.94 0-16.19-7.25-16.19-16.19 0-8.94 7.25-16.19 16.19-16.19h64.74c8.94 0 16.19 7.25 16.19 16.19 0 8.94-7.25 16.19-16.19 16.19Zm-194.23-32.37h-26.98v-26.98c0-8.94-7.25-16.19-16.19-16.19-8.94 0-16.19 7.25-16.19 16.19v26.98H360.9c-8.94 0-16.19 7.25-16.19 16.19 0 8.94 7.25 16.19 16.19 16.19h26.98v26.98c0 8.94 7.25 16.19 16.19 16.19 8.94 0 16.19-7.25 16.19-16.19v-26.98h26.98c8.94 0 16.19-7.25 16.19-16.19 0-8.94-7.25-16.19-16.19-16.19Zm366.45 273.81A91.721 91.721 0 0 1 738.591 736a92.007 92.007 0 0 1-64.741-26.84l-.699-.76-108.88-123.47H459.71L350.97 708.38l-.84.65a91.75 91.75 0 0 1-64.739 26.98c-50.66-.03-91.691-41.13-91.661-91.78 0-5.32.47-10.64 1.4-15.88v-.27l44.13-226.9C252.37 326.52 317.2 272.05 393 272.02h237.69c75.581.1 140.31 54.14 153.901 128.49v.51l44.269 227.09v.3a91.027 91.027 0 0 1-15.159 68.49l-.011-.02ZM630.68 552.55c68.53 0 124.091-55.56 124.091-124.09S699.21 304.37 630.68 304.37H392.99c-60.13.05-111.53 43.28-121.88 102.51-.01.09-.01.18 0 .27l-44.19 226.96c-5.62 32.29 16 63.03 48.29 68.65a59.345 59.345 0 0 0 51.82-16.18l113.3-128.54c3.09-3.45 7.51-5.42 12.14-5.4l178.21-.08v-.01Zm166.37 81.55-26.409-135.83c-26.49 53.05-80.661 86.58-139.961 86.65h-23.279l89.539 101.65c23.35 23 60.93 22.71 83.93-.65a59.336 59.336 0 0 0 16.18-51.82Z" fill="#fff"/></g><defs><clipPath id="a"><path fill="#fff" d="M0 0h1024v1024H0z"/></clipPath></defs></svg>