<svg width="1024" height="1024" fill="none" xmlns="http://www.w3.org/2000/svg"><g clip-path="url(#a)"><path d="M512 1024c282.77 0 512-229.23 512-512S794.77 0 512 0 0 229.23 0 512s229.23 512 512 512Z" fill="#8C72BD"/><path d="M768 304H256c-8.84 0-16 7.16-16 16v362.67c0 20.62 16.71 37.33 37.33 37.33h469.33c20.62 0 37.33-16.71 37.33-37.33V320c0-8.84-7.16-16-16-16h.01ZM512 532.96 297.12 336h429.76L512 532.96ZM441.79 512 272 667.63V356.38l169.79 155.63V512Zm23.68 21.71 35.87 32.75c6.11 5.59 15.49 5.59 21.6 0l35.73-32.75L726.88 688H297.15l168.32-154.29ZM582.22 512l169.79-155.63v311.25L582.22 511.99v.01Z" fill="#fff"/></g><defs><clipPath id="a"><path fill="#fff" d="M0 0h1024v1024H0z"/></clipPath></defs></svg>