<svg width="1024" height="1024" fill="none" xmlns="http://www.w3.org/2000/svg"><g clip-path="url(#a)"><path d="M512 1024c282.77 0 512-229.23 512-512S794.77 0 512 0 0 229.23 0 512s229.23 512 512 512Z" fill="#8C72BD"/><path d="M708.84 258.971c-3.41-2.66-7.85-3.6-12.05-2.55l-299.42 74.86a14.043 14.043 0 0 0-10.62 13.61v266.93c-33.49-28.42-83.68-24.31-112.1 9.18-28.42 33.49-24.31 83.68 9.18 112.1 33.49 28.42 83.68 24.31 112.1-9.18a79.48 79.48 0 0 0 18.89-51.54v-204.26l271.35-67.84v136.68c-33.49-28.42-83.68-24.31-112.1 9.18-28.42 33.49-24.31 83.68 9.18 112.1 33.49 28.42 83.68 24.31 112.1-9.18a79.48 79.48 0 0 0 18.89-51.54v-327.5c0-4.32-1.99-8.41-5.4-11.06v.01Zm-373.55 464.88c-28.42 0-51.46-23.04-51.46-51.46s23.04-51.46 51.46-51.46 51.46 23.04 51.46 51.46-23.04 51.46-51.46 51.46Zm79.53-284.64v-83.37l271.35-67.84v83.37l-271.35 67.84Zm219.89 209.78c-28.42 0-51.46-23.04-51.46-51.46s23.04-51.46 51.46-51.46 51.46 23.04 51.46 51.46-23.04 51.46-51.46 51.46Z" fill="#fff"/></g><defs><clipPath id="a"><path fill="#fff" d="M0 0h1024v1024H0z"/></clipPath></defs></svg>