<svg width="1024" height="1024" fill="none" xmlns="http://www.w3.org/2000/svg"><g clip-path="url(#a)"><path d="M512 1024c282.77 0 512-229.23 512-512S794.77 0 512 0 0 229.23 0 512s229.23 512 512 512Z" fill="#8C72BD"/><path d="M430.98 430.302c0-8.46 6.86-15.32 15.32-15.32h163.4c8.46 0 15.32 6.86 15.32 15.32s-6.86 15.32-15.32 15.32H446.3c-8.46 0-15.32-6.86-15.32-15.32Zm15.32 97.02h163.4c8.46 0 15.32-6.86 15.32-15.32s-6.86-15.32-15.32-15.32H446.3c-8.46 0-15.32 6.86-15.32 15.32s6.86 15.32 15.32 15.32Zm81.7 51.06h-81.7c-8.46 0-15.32 6.86-15.32 15.32s6.86 15.32 15.32 15.32H528c8.46 0 15.32-6.86 15.32-15.32s-6.86-15.32-15.32-15.32Zm240-270.64v277.51c.02 9.48-3.75 18.58-10.47 25.28l-131 131a35.564 35.564 0 0 1-25.28 10.47H323.74c-19.74 0-35.74-16-35.74-35.74v-408.51c0-19.74 16-35.74 35.74-35.74h408.51c19.74 0 35.74 16 35.74 35.74l.01-.01Zm-444.26 413.62h270.64v-127.66c0-8.46 6.86-15.32 15.32-15.32h127.66v-270.64c0-2.82-2.29-5.11-5.11-5.11H323.74c-2.82 0-5.11 2.29-5.11 5.11v408.51c0 2.82 2.29 5.11 5.11 5.11Zm391.97-112.34h-90.69v90.69l90.69-90.69Z" fill="#fff"/></g><defs><clipPath id="a"><path fill="#fff" d="M0 0h1024v1024H0z"/></clipPath></defs></svg>