<svg width="1024" height="1024" fill="none" xmlns="http://www.w3.org/2000/svg"><g clip-path="url(#a)"><path d="M512 1024c282.77 0 512-229.23 512-512S794.77 0 512 0 0 229.23 0 512s229.23 512 512 512Z" fill="#8C72BD"/><path d="M750.9 736.522H617.61c-16.18 0-29.35-13.16-29.35-29.35v-93.3c0-16.18 13.17-29.35 29.35-29.35H750.9c16.18 0 29.35 13.16 29.35 29.35v93.3c0 16.18-13.17 29.35-29.35 29.35Zm-130.6-32.03h127.91v-87.93H620.3v87.93Zm107.66 63.5c0-8.85-7.17-16.02-16.02-16.02h-55.37c-8.85 0-16.02 7.17-16.02 16.02s7.17 16.02 16.02 16.02h55.37c8.85 0 16.02-7.17 16.02-16.02Zm-321.56-31.46H273.11c-16.18 0-29.35-13.16-29.35-29.35v-93.3c0-16.18 13.17-29.35 29.35-29.35H406.4c16.18 0 29.35 13.16 29.35 29.35v93.3c0 16.18-13.17 29.35-29.35 29.35Zm-130.6-32.03h127.91v-87.93H275.8v87.93Zm107.66 63.5c0-8.85-7.17-16.02-16.02-16.02h-55.37c-8.85 0-16.02 7.17-16.02 16.02s7.17 16.02 16.02 16.02h55.37c8.85 0 16.02-7.17 16.02-16.02Zm367.45-375.99H617.62c-16.18 0-29.35-13.16-29.35-29.35v-93.3c0-16.18 13.17-29.35 29.35-29.35h133.29c16.18 0 29.35 13.16 29.35 29.35v93.3c0 16.18-13.17 29.35-29.35 29.35Zm-130.6-32.03h127.91v-87.93H620.31v87.93Zm107.66 63.5c0-8.85-7.17-16.02-16.02-16.02h-55.37c-8.85 0-16.02 7.17-16.02 16.02s7.17 16.02 16.02 16.02h55.37c8.85 0 16.02-7.17 16.02-16.02Zm-321.56-31.46H273.12c-16.18 0-29.35-13.16-29.35-29.35v-93.3c0-16.18 13.17-29.35 29.35-29.35h133.29c16.18 0 29.35 13.16 29.35 29.35v93.3c0 16.18-13.17 29.35-29.35 29.35Zm-130.6-32.03h127.91v-87.93H275.81v87.93Zm107.66 63.5c0-8.85-7.17-16.02-16.02-16.02h-55.37c-8.85 0-16.02 7.17-16.02 16.02s7.17 16.02 16.02 16.02h55.37c8.85 0 16.02-7.17 16.02-16.02Zm151.2 64.79 56.34-56.34c6.26-6.25 6.26-16.4 0-22.65-6.25-6.25-16.4-6.26-22.65 0l-56.35 56.34-56.35-56.34c-6.25-6.25-16.4-6.25-22.65 0-6.25 6.26-6.25 16.4 0 22.65l56.34 56.34-56.34 56.34c-6.26 6.25-6.26 16.4 0 22.65 3.13 3.13 7.23 4.69 11.33 4.69s8.2-1.56 11.33-4.69l56.35-56.34 56.35 56.34c3.13 3.13 7.23 4.69 11.33 4.69s8.2-1.56 11.33-4.69c6.26-6.26 6.26-16.4 0-22.65l-56.34-56.34h-.02Z" fill="#fff"/></g><defs><clipPath id="a"><path fill="#fff" d="M0 0h1024v1024H0z"/></clipPath></defs></svg>