<svg width="1024" height="1024" fill="none" xmlns="http://www.w3.org/2000/svg"><g clip-path="url(#a)"><path d="M512 1024c282.77 0 512-229.23 512-512S794.77 0 512 0 0 229.23 0 512s229.23 512 512 512Z" fill="#8C72BD"/><path d="M512 224c-159.06 0-288 128.94-288 288s128.94 288 288 288 288-128.94 288-288c-.19-158.98-129.02-287.81-288-288Zm0 542.12c-140.35 0-254.12-113.77-254.12-254.12 0-140.35 113.77-254.12 254.12-254.12 140.35 0 254.12 113.77 254.12 254.12-.16 140.28-113.84 253.96-254.12 254.12Zm107.29-299.29c0-59.26-48.04-107.29-107.3-107.29S404.7 407.58 404.7 466.84c0 29.74 12.34 58.14 34.08 78.43L406.7 625.8c-5.77 14.49 1.3 30.91 15.78 36.68 3.326 1.321 6.872 2 10.45 2h158.12c15.59 0 28.23-12.64 28.23-28.24 0-3.58-.68-7.12-2-10.45l-32.08-80.53a107.703 107.703 0 0 0 34.08-78.44l.01.01Zm-64.32 59.52a16.949 16.949 0 0 0-5.82 19.99l33.57 84.25H441.4l33.57-84.25c2.87-7.21.47-15.45-5.82-19.99-32.87-23.73-40.28-69.62-16.54-102.49 23.73-32.87 69.62-40.28 102.49-16.54 32.87 23.73 40.28 69.62 16.54 102.49a73.33 73.33 0 0 1-16.54 16.54h-.14.01Z" fill="#fff"/></g><defs><clipPath id="a"><path fill="#fff" d="M0 0h1024v1024H0z"/></clipPath></defs></svg>