<svg width="1024" height="1024" fill="none" xmlns="http://www.w3.org/2000/svg"><g clip-path="url(#a)"><path d="M512 1024c282.77 0 512-229.23 512-512S794.77 0 512 0 0 229.23 0 512s229.23 512 512 512Z" fill="#8C72BD"/><path d="M459.14 564.862a184.335 184.335 0 0 1 54.35 131.23c0 8.79-7.12 15.91-15.91 15.91s-15.91-7.12-15.91-15.91c0-84.92-68.84-153.77-153.77-153.77-8.79 0-15.91-7.12-15.91-15.91s7.12-15.91 15.91-15.91c49.25-.14 96.5 19.43 131.23 54.35l.01.01Zm-131.23-181.6c-8.79 0-15.91 7.12-15.91 15.91s7.12 15.91 15.91 15.91c155.2 0 281.02 125.82 281.02 281.02 0 8.79 7.12 15.91 15.91 15.91s15.91-7.12 15.91-15.91c0-172.77-140.06-312.84-312.84-312.84Zm311.19 1.64a437.202 437.202 0 0 0-311.19-128.9c-8.79 0-15.91 7.12-15.91 15.91s7.12 15.91 15.91 15.91a405.604 405.604 0 0 1 288.68 119.59 405.609 405.609 0 0 1 119.59 288.68c0 8.79 7.12 15.91 15.91 15.91s15.91-7.12 15.91-15.91a437.202 437.202 0 0 0-128.9-311.19ZM345 646.002c-18.23 0-33 14.77-33 33s14.77 33 33 33 33-14.77 33-33-14.77-33-33-33Z" fill="#fff"/></g><defs><clipPath id="a"><path fill="#fff" d="M0 0h1024v1024H0z"/></clipPath></defs></svg>