<svg width="1024" height="1024" viewBox="0 0 1024 1024" fill="none" xmlns="http://www.w3.org/2000/svg">
<g clip-path="url(#clip0_3_437)">
<path d="M512 1024C794.77 1024 1024 794.77 1024 512C1024 229.23 794.77 0 512 0C229.23 0 0 229.23 0 512C0 794.77 229.23 1024 512 1024Z" fill="#8C72BD"/>
<path d="M714.47 288H309.53C289.96 288 274.1 303.86 274.1 323.43V472.17C274.1 695.49 463.11 769.6 500.99 782.18C508.128 784.61 515.871 784.61 523.01 782.18C560.97 769.53 749.9 695.5 749.9 472.17V323.43C749.9 303.86 734.04 288 714.47 288ZM513.42 753.4C512.51 753.75 511.5 753.75 510.59 753.4C486.65 745.45 396.35 710.38 343.55 621.79L512 503.93L680.45 621.84C627.66 710.47 537.3 745.45 513.41 753.39L513.42 753.4ZM719.53 472.22C719.53 520.31 709.84 560.8 694.6 594.69L520.7 472.96C518.148 471.173 515.109 470.215 511.995 470.215C508.88 470.215 505.841 471.173 503.29 472.96L329.39 594.69C314.2 560.78 304.46 520.33 304.46 472.22V323.43C304.46 320.63 306.73 318.37 309.52 318.37H714.46C717.26 318.37 719.52 320.64 719.52 323.43V472.22H719.53Z" fill="white"/>
</g>
<defs>
<clipPath id="clip0_3_437">
<rect width="1024" height="1024" fill="white"/>
</clipPath>
</defs>
</svg>
