<svg width="1024" height="1024" fill="none" xmlns="http://www.w3.org/2000/svg"><g clip-path="url(#a)"><path d="M512 1024c282.77 0 512-229.23 512-512S794.77 0 512 0 0 229.23 0 512s229.23 512 512 512Z" fill="#8C72BD"/><path d="M767.74 712.7c-39.96-69.05-102.68-117.49-175.57-138.04 87.1-44.27 121.81-150.77 77.54-237.87-44.27-87.1-150.77-121.81-237.87-77.54-87.1 44.27-121.81 150.77-77.54 237.87a176.864 176.864 0 0 0 77.54 77.54c-72.89 20.52-135.62 68.97-175.57 138.04-4.49 7.07-2.41 16.44 4.66 20.93 7.07 4.49 16.44 2.41 20.93-4.66.23-.36.44-.73.64-1.11 48.55-83.88 134.33-133.95 229.51-133.95 95.18 0 180.96 50.07 229.51 133.95 3.88 7.42 13.04 10.29 20.47 6.41 7.42-3.88 10.29-13.04 6.41-20.47-.2-.38-.41-.75-.64-1.11l-.02.01ZM365.42 417c0-80.96 65.63-146.58 146.58-146.58 80.95 0 146.58 65.63 146.58 146.58 0 80.95-65.63 146.58-146.58 146.58-80.92-.1-146.49-65.67-146.58-146.58Z" fill="#fff"/></g><defs><clipPath id="a"><path fill="#fff" d="M0 0h1024v1024H0z"/></clipPath></defs></svg>