<svg width="1024" height="1024" fill="none" xmlns="http://www.w3.org/2000/svg"><g clip-path="url(#a)"><path d="M512 1024c282.77 0 512-229.23 512-512S794.77 0 512 0 0 229.23 0 512s229.23 512 512 512Z" fill="#8C72BD"/><path d="m600.67 483.288-120.47-80.31c-6.92-4.62-16.27-2.75-20.88 4.17-1.66 2.48-2.54 5.4-2.53 8.38v160.63c-.01 8.32 6.72 15.07 15.04 15.08 2.98 0 5.9-.88 8.38-2.53l120.47-80.31c6.93-4.6 8.82-13.94 4.22-20.87a15.008 15.008 0 0 0-4.22-4.22l-.01-.02Zm-113.77 64.73v-104.36l78.26 52.18-78.26 52.18Zm245.96-227.87H291.13c-19.41 0-35.14 15.73-35.14 35.14v281.1c0 19.41 15.73 35.14 35.14 35.14h441.73c19.41 0 35.14-15.73 35.14-35.14v-281.1c0-19.41-15.73-35.14-35.14-35.14Zm5.02 316.24c0 2.77-2.25 5.02-5.02 5.02H291.13c-2.77 0-5.02-2.25-5.02-5.02v-281.1c0-2.77 2.25-5.02 5.02-5.02h441.73c2.77 0 5.02 2.25 5.02 5.02v281.1ZM768 736.778c0 8.32-6.74 15.06-15.06 15.06H271.06c-8.32 0-15.06-6.74-15.06-15.06s6.74-15.06 15.06-15.06h481.88c8.32 0 15.06 6.74 15.06 15.06Z" fill="#fff"/></g><defs><clipPath id="a"><path fill="#fff" d="M0 0h1024v1024H0z"/></clipPath></defs></svg>