<svg width="1024" height="1024" fill="none" xmlns="http://www.w3.org/2000/svg"><g clip-path="url(#a)"><path d="M512 1024c282.77 0 512-229.23 512-512S794.77 0 512 0 0 229.23 0 512s229.23 512 512 512Z" fill="#54688C"/><path d="M397.78 426.109a85.892 85.892 0 0 0-84.239 102.647 85.889 85.889 0 0 0 170.129-16.757 86.66 86.66 0 0 0-85.89-85.89Zm0 153.74a67.425 67.425 0 0 1-37.525-11.128 67.425 67.425 0 0 1-10.866-103.662 67.419 67.419 0 0 1 115.391 46.94 67.85 67.85 0 0 1-67 67.85Zm184.58-153.74a85.892 85.892 0 0 0-84.239 102.647 85.889 85.889 0 0 0 170.129-16.757 85.89 85.89 0 0 0-85.89-85.89Zm0 153.74a67.425 67.425 0 0 1-37.525-11.128 67.425 67.425 0 0 1-10.866-103.662 67.419 67.419 0 0 1 115.391 46.94 66.735 66.735 0 0 1-65.61 67.84l-1.39.01Zm-332.31-102.21a57.902 57.902 0 0 0-45.52 12v-45.49h77.3c2.58 0 4.29-.86 4.29-8.59 0-7.73-3.44-7.73-5.15-7.73h-85a7.734 7.734 0 0 0-7.73 7.73v75.58c0 4.29 2.58 5.15 6.87 6a6.528 6.528 0 0 0 7.73-1.72 48.868 48.868 0 0 1 42.95-20.61 44.658 44.658 0 0 1 38.65 37.79 43.458 43.458 0 0 1-37.79 48.1h-5.15a43.8 43.8 0 0 1-40.37-28.34c-.86-2.58-2.58-4.29-9.45-1.72-6.87 2.57-7.73 4.29-6.87 6.87a60.32 60.32 0 0 0 77.305 36.075 60.315 60.315 0 0 0 34.048-31.181 60.317 60.317 0 0 0 2.027-46.124 60.114 60.114 0 0 0-48.14-38.64Zm476.61-50.64a46.55 46.55 0 0 0-41.23 46.38v76.44c0 4.29 3.44 5.15 8.59 5.15s8.59-.86 8.59-5.15v-76.47a28.864 28.864 0 0 1 24.91-29.2 28.26 28.26 0 0 1 21.48 6.85 27.398 27.398 0 0 1 9.45 20.61 34.34 34.34 0 0 1-6 16.32 27.055 27.055 0 0 1-24 11.17c-3.44 0-6 0-6.87 7.73 0 5.15 0 7.73 4.29 8.59a42.247 42.247 0 0 0 24.91-5.15 46.113 46.113 0 0 0 24.91-36.07 44.487 44.487 0 0 0-40.63-48l-.77-.06c-2.48.698-5.056.989-7.63.86Zm112.52 44.66 30.92-30.92c.86-.86 3.44-3.44-1.72-9.45a8.593 8.593 0 0 0-6-3.44 4.482 4.482 0 0 0-3.44 1.72l-30.94 30.9-30.92-31.78c-2.58-2.58-5.15-1.72-9.45 1.72-4.3 3.44-4.29 6.87-1.72 9.45l30.92 30.92-31.09 31.78a6.537 6.537 0 0 0-1.74 3.44 7.218 7.218 0 0 0 3.44 6 13.827 13.827 0 0 0 6 3.44 9.09 9.09 0 0 0 4.29-1.72l30.92-30.92 30.92 30.92a4.47 4.47 0 0 0 3.44 1.72 8.59 8.59 0 0 0 6-3.44c2.58-3.44 3.44-6.87.86-8.59l-30.69-31.75Z" fill="#fff"/></g><defs><clipPath id="a"><path fill="#fff" d="M0 0h1024v1024H0z"/></clipPath></defs></svg>