<svg width="1024" height="1024" fill="none" xmlns="http://www.w3.org/2000/svg"><g clip-path="url(#a)"><path d="M512 1024c282.77 0 512-229.23 512-512S794.77 0 512 0 0 229.23 0 512s229.23 512 512 512Z" fill="#F8C18C"/><path d="M400.28 479.1a51.202 51.202 0 0 0 1.88 15.15 91.245 91.245 0 0 0 5.46 12.29 7.302 7.302 0 0 1 1.19 3.9c0 1.71-1 3.41-3.24 5.12l-10.73 7.15a8.158 8.158 0 0 1-4.44 1.54 7.754 7.754 0 0 1-5.1-2.39 52.68 52.68 0 0 1-6.12-8 137.555 137.555 0 0 1-5.29-10c-13.267 15.66-29.957 23.49-50.07 23.49-14.29 0-25.71-4.07-34-12.25s-12.59-19.07-12.59-32.7c0-14.46 5.1-26.24 15.49-35.07 10.39-8.83 24.13-13.33 41.66-13.33 6.024.053 12.038.51 18 1.37 6.31.85 12.8 2.22 19.58 3.75v-12.46c0-12.95-2.71-22-8-27.24-5.29-5.24-14.63-7.83-27.73-7.83a77.362 77.362 0 0 0-18.41 2.2 135.542 135.542 0 0 0-18.39 5.8 48.56 48.56 0 0 1-6 2.22c-.878.283-1.789.448-2.71.49-2.39 0-3.58-1.71-3.58-5.27v-8.34c0-2.73.34-4.78 1.19-6a12.76 12.76 0 0 1 4.78-3.56 97.675 97.675 0 0 1 21.44-7.68 103.308 103.308 0 0 1 26.58-3.22c20.27 0 35.07 4.61 44.61 13.8 9.37 9.17 14.12 23.15 14.12 41.88v55.19h.42ZM331.16 505a55.131 55.131 0 0 0 17.54-3.07A37.998 37.998 0 0 0 364.87 491a27.093 27.093 0 0 0 5.8-10.92 61.96 61.96 0 0 0 1.71-14.81v-7.15a142.31 142.31 0 0 0-15.68-2.9c-5.307-.666-10.651-1-16-1-11.41 0-19.75 2.22-25.39 6.83-5.64 4.61-8.31 11.08-8.31 19.59 0 8 2 14 6.29 18 4.07 4.36 10.02 6.36 17.87 6.36Zm136.75 18.39c-3.07 0-5.12-.51-6.49-1.71-1.37-1-2.56-3.41-3.58-6.63l-40-131.65a29.776 29.776 0 0 1-1.54-6.83c0-2.73 1.37-4.27 4.07-4.27h16.7c3.22 0 5.44.53 6.61 1.71 1.39 1 2.41 3.41 3.41 6.66l28.63 112.73 26.58-112.73c.85-3.41 1.88-5.63 3.22-6.66a11.712 11.712 0 0 1 6.83-1.71H526c3.24 0 5.46.53 6.83 1.71s2.56 3.41 3.22 6.66l26.9 114.09 29.46-114.09c1-3.41 2.22-5.63 3.41-6.66a11.094 11.094 0 0 1 6.63-1.71h15.85c2.71 0 4.27 1.39 4.27 4.27a17.164 17.164 0 0 1-.36 2.73 24.304 24.304 0 0 1-1.19 4.27L580 515.2c-1 3.41-2.22 5.61-3.58 6.63a10.877 10.877 0 0 1-6.46 1.71h-14.71c-3.22 0-5.44-.51-6.83-1.71-1.39-1.2-2.54-3.41-3.2-6.83l-26.41-109.82-26.24 109.65c-.85 3.41-1.86 5.63-3.2 6.83-1.34 1.2-3.78 1.71-6.83 1.71l-14.63.02ZM686.7 528a113.48 113.48 0 0 1-26.22-3.05c-8.51-2-15.15-4.27-19.58-6.83-2.73-1.51-4.59-3.22-5.27-4.76a12.001 12.001 0 0 1-1-4.78v-8.68c0-3.56 1.37-5.27 3.9-5.27a9.684 9.684 0 0 1 3.07.51c1 .34 2.56 1 4.27 1.71a91.966 91.966 0 0 0 18.73 6 101.894 101.894 0 0 0 20.27 2c10.71 0 19.07-1.88 24.85-5.63a18.355 18.355 0 0 0 8.83-16.22 16.59 16.59 0 0 0-4.55-11.9c-3.07-3.22-8.87-6.12-17.22-8.85l-24.68-7.68c-12.44-3.9-21.63-9.69-27.24-17.34a40.577 40.577 0 0 1-8.53-24.7 38.102 38.102 0 0 1 4.61-18.9 43.672 43.672 0 0 1 12.27-14 53.504 53.504 0 0 1 17.71-8.85 74.195 74.195 0 0 1 21.46-2.9c3.814-.027 7.626.2 11.41.68 3.9.51 7.47 1.19 11.05 1.88 3.41.85 6.66 1.71 9.71 2.71a37.297 37.297 0 0 1 7.17 3.07 14.723 14.723 0 0 1 5.12 4.27 9.17 9.17 0 0 1 1.51 5.61v8c0 3.58-1.37 5.46-3.93 5.46a17.688 17.688 0 0 1-6.46-2 77.926 77.926 0 0 0-32.68-6.63c-9.71 0-17.39 1.51-22.66 4.76s-8 8.17-8 15.15a15.988 15.988 0 0 0 1.261 6.6 15.987 15.987 0 0 0 3.859 5.5c3.39 3.24 9.69 6.49 18.71 9.39l24.19 7.64c12.25 3.93 21.12 9.39 26.39 16.36a38.552 38.552 0 0 1 7.83 23.83 44 44 0 0 1-4.42 19.75 45.994 45.994 0 0 1-12.44 15 55.005 55.005 0 0 1-18.9 9.54 81.497 81.497 0 0 1-24.4 3.55Zm32.19 82.77c-56 41.39-137.43 63.34-207.4 63.34-98.09 0-186.45-36.27-253.23-96.56-5.27-4.76-.51-11.24 5.8-7.49 72.19 41.88 161.26 67.26 253.38 67.26 62.17 0 130.43-12.95 193.28-39.51 9.37-4.28 17.37 6.11 8.18 12.94l-.01.02Zm23.34-26.58c-7.17-9.17-47.36-4.42-65.58-2.2-5.44.68-6.29-4.1-1.34-7.68 32-22.46 84.63-16 90.75-8.51 6.12 7.68-1.71 60.29-31.68 85.48-4.59 3.93-9 1.88-7-3.22 6.85-16.87 22-54.85 14.85-63.89v.02Z" fill="#fff"/></g><defs><clipPath id="a"><path fill="#fff" d="M0 0h1024v1024H0z"/></clipPath></defs></svg>