<svg width="1024" height="1024" fill="none" xmlns="http://www.w3.org/2000/svg"><g clip-path="url(#a)"><path d="M512 1024c282.77 0 512-229.23 512-512S794.77 0 512 0 0 229.23 0 512s229.23 512 512 512Z" fill="#9ABEFF"/><path d="M538.76 432.89c63.15 0 93.47 49.93 93.47 92.64s-30.33 92.66-93.48 92.66c-63.15 0-93.49-49.94-93.49-92.66s30.32-92.64 93.48-92.64m0 136.63c22.49 0 41.57-18.55 41.57-43.99s-19.08-43.96-41.57-43.96c-22.49 0-41.6 18.52-41.6 43.96s19.09 43.99 41.6 43.99Zm122.83-188.65h52.6v232.45h-52.6V380.87Zm115.45 164.18c-19.29 0-34.92 15.67-34.92 34.95s15.64 34.95 34.92 34.95 34.97-15.66 34.97-34.95c0-19.29-15.67-34.95-34.97-34.95ZM350.39 380.87h-46.84l-91.56 232.45h62.04l12.27-33.59h80.73l11.3 33.59h62.68l-90.63-232.45h.01Zm-47.75 151.7 24.35-81.04 24.34 81.05h-48.69v-.01Z" fill="#fff"/></g><defs><clipPath id="a"><path fill="#fff" d="M0 0h1024v1024H0z"/></clipPath></defs></svg>