<svg width="1024" height="1024" viewBox="0 0 1024 1024" fill="none" xmlns="http://www.w3.org/2000/svg">
<g clip-path="url(#clip0_3_2)">
<path d="M512 1024C794.77 1024 1024 794.77 1024 512C1024 229.23 794.77 0 512 0C229.23 0 0 229.23 0 512C0 794.77 229.23 1024 512 1024Z" fill="#ABABFF"/>
<path d="M681.88 280L734.81 444.08H564.56L512.07 281.37L459.58 444.08H289.33L341.33 280H681.88ZM734.81 444.08L597.2 542L650.13 707C738.34 642.57 767.45 544.65 734.81 444.08ZM374 707L426.93 542L289.33 444.08C256.69 544.65 284.91 642.57 374 707ZM649.23 707L511.63 607.28L374 707L511.62 804L649.23 707Z" fill="white"/>
</g>
<defs>
<clipPath id="clip0_3_2">
<rect width="1024" height="1024" fill="white"/>
</clipPath>
</defs>
</svg>
