<svg width="1024" height="1024" fill="none" xmlns="http://www.w3.org/2000/svg"><g clip-path="url(#a)"><path d="M512 1024c282.77 0 512-229.23 512-512S794.77 0 512 0 0 229.23 0 512s229.23 512 512 512Z" fill="#56595B"/><path d="M568.73 316.73 256 511.12v156.15h2.7L572.27 472H735a9.58 9.58 0 0 1 9.62 9.62c0 4.59-2.09 6.48-4.59 7.94L586.05 582c-10 6.06-13.58 18-13.58 27l-.22 58.32H768V328.86a12.1 12.1 0 0 0-12.53-12.13H568.73Z" fill="#fff"/></g><defs><clipPath id="a"><path fill="#fff" d="M0 0h1024v1024H0z"/></clipPath></defs></svg>