<svg width="1024" height="1024" fill="none" xmlns="http://www.w3.org/2000/svg"><g clip-path="url(#a)"><path d="M512 1024c282.77 0 512-229.23 512-512S794.77 0 512 0 0 229.23 0 512s229.23 512 512 512Z" fill="#98DC9A"/><path d="M553.721 610.651c0-5.8-4.35-8.7-8.7-8.7-8.7 0-20.31 1.45-29 1.45-49.32 0-89.94-40.62-89.94-89.94v-216.16a3.123 3.123 0 0 0-2.9-2.9h-123.33l-1.45 1.45v216.15a217.295 217.295 0 0 0 63.648 153.951 217.31 217.31 0 0 0 153.952 63.649c11.61 0 23.21-1.45 34.82-2.9a3.123 3.123 0 0 0 2.9-2.9v-113.15Zm-37.72-316.25c-11.61 0-24.66 1.45-36.27 2.9a3.117 3.117 0 0 0-2.9 2.9v113.15c0 5.8 4.35 10.15 8.7 8.7 4.35 0 29-1.45 29-1.45 49.32 0 89.94 40.62 89.94 89.94v195.85a1.413 1.413 0 0 0 1.45 1.45c75.46-33.37 127.68-108.84 127.68-195.84a217.325 217.325 0 0 0-63.649-153.952 217.314 217.314 0 0 0-153.951-63.648Z" fill="#fff"/></g><defs><clipPath id="a"><path fill="#fff" d="M0 0h1024v1024H0z"/></clipPath></defs></svg>