<svg width="1024" height="1024" fill="none" xmlns="http://www.w3.org/2000/svg"><g clip-path="url(#a)"><path d="M512 1024c282.77 0 512-229.23 512-512S794.77 0 512 0 0 229.23 0 512s229.23 512 512 512Z" fill="#728DBE"/><path d="M285.3 372.8 510.8 256l228 116.8-228 117.2-225.5-117.2Zm71.6 102.6 153.9 75.7 155.5-75.7 72.5 35.3-228 111-225.5-111 71.6-35.3Zm0 131.7 153.9 83.4 155.5-83.4 72.5 38.7-228 122.2-225.5-122.2 71.6-38.7Z" fill="#fff"/></g><defs><clipPath id="a"><path fill="#fff" d="M0 0h1024v1024H0z"/></clipPath></defs></svg>