<svg width="1024" height="1024" fill="none" xmlns="http://www.w3.org/2000/svg"><g clip-path="url(#a)"><path d="M512 1024c282.77 0 512-229.23 512-512S794.77 0 512 0 0 229.23 0 512s229.23 512 512 512Z" fill="#728DBE"/><path d="M374.18 544.41c-6.34 0-11.48 6.17-11.48 13.77S367.84 572 374.18 572c6.34 0 11.48-6.17 11.48-13.77s-5.14-13.77-11.48-13.77m272.69 0c-6.34 0-11.48 6.17-11.48 13.77S640.52 572 646.86 572c6.34 0 11.48-6.17 11.48-13.77s-5.14-13.77-11.48-13.77m134.37 12.2c-10.35 3.64-20.61.37-22.92-7.3-2.31-7.67 4.22-16.83 14.57-20.46 10.35-3.63 20.61-.37 22.92 7.3 2.31 7.67-4.22 16.83-14.57 20.46Zm-265.39 155.1c-108.25-.17-195.91-50.09-195.91-121.55 0-1.5.06-3 .13-4.46 0-.49.05-1 .08-1.46.06-1 .16-2 .26-3 .14-1.34.3-2.69.5-4l.06-.4c2.18-14 7.76-35.48 16.18-47.84 20.24-28.65 56.35-47.74 97.54-47.74 31.71 0 60.39 11.33 81.16 29.61 20.77-18.28 49.45-29.61 81.16-29.61 41.19 0 77.3 19.09 97.54 47.74 8.43 12.35 14 33.79 16.18 47.84l.06.4c.344 2.322.597 4.657.76 7 0 .486.027.973.08 1.46.07 1.48.13 3 .13 4.46 0 71.47-87.66 121.39-195.91 121.55ZM265.68 549.31c-2.3 7.67-12.57 10.93-22.92 7.3-10.35-3.63-16.88-12.8-14.57-20.46 2.31-7.66 12.57-10.93 22.92-7.3 10.35 3.63 16.88 12.8 14.57 20.46Zm514.49-76.08c-16.84 0-31.6 10.56-39.85 26.39-28.07-60.16-86.48-115.89-158.65-138.84-38.94-15.35-66.29-44.78-69.67-79.27-3.38 34.44-30.73 63.92-69.67 79.27-72.18 22.95-130.58 78.68-158.65 138.84-8.25-15.83-23-26.39-39.85-26.39C218 473.24 197 498.12 197 528.8s21 55.57 46.83 55.57a40.905 40.905 0 0 0 21.78-6.37c2.22 99.64 111.63 164.33 246.39 164.5 134.76-.17 244.17-64.85 246.39-164.5a40.89 40.89 0 0 0 21.78 6.38C806 584.37 827 559.49 827 528.8c0-30.69-21-55.57-46.83-55.57Z" fill="#fff"/></g><defs><clipPath id="a"><path fill="#fff" d="M0 0h1024v1024H0z"/></clipPath></defs></svg>