<svg width="1024" height="1024" viewBox="0 0 1024 1024" fill="none" xmlns="http://www.w3.org/2000/svg">
<g clip-path="url(#clip0_3_50)">
<path d="M512 1024C794.77 1024 1024 794.77 1024 512C1024 229.23 794.77 0 512 0C229.23 0 0 229.23 0 512C0 794.77 229.23 1024 512 1024Z" fill="#F9DE81"/>
<path d="M582.07 253.75C437.65 215.05 289.2 300.76 250.5 445.18C250.5 445.18 277.08 418.69 294.08 418.69C311.08 418.69 337.66 445.18 337.66 445.18C337.66 445.18 364.24 418.69 381.24 418.69C398.24 418.69 424.82 445.18 424.82 445.18C424.82 445.18 451.4 418.69 468.4 418.69C480.28 418.69 496.8 431.6 505.7 439.39H504.53V709.05C504.53 749.79 528.42 779.54 557.87 779.54C587.32 779.54 611.2 749.75 611.2 709.01C611.2 709.01 606.5 704.54 603.53 704.48C600.73 704.43 596.14 708.48 596.14 708.48C596.14 737.72 579 765.21 557.87 765.21C536.74 765.21 519.6 737.72 519.6 708.48V439.39H518.26C527.16 431.6 543.69 418.69 555.56 418.69C572.56 418.69 599.14 445.18 599.14 445.18C599.14 445.18 625.72 418.69 642.72 418.69C659.72 418.69 686.3 445.18 686.3 445.18C686.3 445.18 712.88 418.69 729.88 418.69C746.88 418.69 773.46 445.18 773.46 445.18C748.43 351.76 675.45 278.78 582.03 253.75H582.07Z" fill="white"/>
</g>
<defs>
<clipPath id="clip0_3_50">
<rect width="1024" height="1024" fill="white"/>
</clipPath>
</defs>
</svg>
