<svg width="1024" height="1024" fill="none" xmlns="http://www.w3.org/2000/svg"><g clip-path="url(#a)"><path d="M512 1024c282.77 0 512-229.23 512-512S794.77 0 512 0 0 229.23 0 512s229.23 512 512 512Z" fill="#F9DE81"/><path d="M439.84 511.58A72.58 72.58 0 0 1 512.41 439a72.528 72.528 0 0 1 51.34 21.243A72.531 72.531 0 0 1 585 511.58a72.56 72.56 0 0 1-72.57 72.56 72.567 72.567 0 0 1-72.57-72.56h-.02Zm3.18 0A69.48 69.48 0 0 0 512.41 581a69.397 69.397 0 0 0 69.4-69.38 69.488 69.488 0 0 0-69.4-69.43A69.441 69.441 0 0 0 443 511.58h.02Zm69.42-11.44a11.43 11.43 0 1 0 11.47 11.45 11.457 11.457 0 0 0-3.364-8.107 11.453 11.453 0 0 0-8.116-3.343h.01Zm-131.08 11.43a130.689 130.689 0 0 0 40.3 94.43l24.68-26.69.33.3a94.592 94.592 0 0 1 46.871-160.844 94.593 94.593 0 0 1 66.209 10.894l17.51-31.95a130.222 130.222 0 0 0-64.82-17.22c-72.27.01-131.08 58.81-131.08 131.08Zm225.73 0a94.6 94.6 0 0 1-138.64 83.79l-17.83 31.74a130.263 130.263 0 0 0 61.82 15.53c72.28 0 131.08-58.8 131.08-131.08a130.628 130.628 0 0 0-37.73-91.9L581 446.39a94.303 94.303 0 0 1 26.1 65.2l-.01-.02Zm-267.34 0a172.164 172.164 0 0 0 53.68 125l25-27.07a135.374 135.374 0 0 1-41.82-97.89c0-74.88 60.92-135.8 135.8-135.8a134.923 134.923 0 0 1 67.08 17.8l17.73-32.34a171.564 171.564 0 0 0-84.81-22.35c-95.19-.03-172.66 77.43-172.66 172.65Zm308.49 0c0 74.88-60.92 135.8-135.8 135.8a134.994 134.994 0 0 1-64.14-16.14l-18.07 32.17a171.623 171.623 0 0 0 82.21 20.86c95.22 0 172.69-77.47 172.69-172.69a172.138 172.138 0 0 0-51-122.4l-25.12 27a135.35 135.35 0 0 1 39.23 95.4Zm41.61 0c0 97.83-79.58 177.43-177.41 177.43a176.323 176.323 0 0 1-84.52-21.46l-18.18 32.36a213.214 213.214 0 0 0 102.7 26.23C630.74 726.11 727 629.87 727 511.57a213.871 213.871 0 0 0-64.38-153l-25.26 27.18a176.839 176.839 0 0 1 52.49 125.82Zm-392 0A213.89 213.89 0 0 0 365 667.24L390.23 640A176.887 176.887 0 0 1 335 511.57c0-97.82 79.59-177.41 177.41-177.41a176.266 176.266 0 0 1 87.08 22.93l17.84-32.55A213.138 213.138 0 0 0 512.44 297c-118.3 0-214.54 96.28-214.54 214.57h-.05Zm392.55-183-24.64 26.49a218.57 218.57 0 0 1 65.94 156.51c0 120.9-98.36 219.26-219.26 219.26a217.895 217.895 0 0 1-105-26.84l-18.24 32.47A255.424 255.424 0 0 0 512 768c141.39 0 256-114.64 256-256a255.244 255.244 0 0 0-77.55-183.41l-.05-.02Zm-397.27 183c0-120.9 98.36-219.26 219.26-219.26a217.836 217.836 0 0 1 107.19 28.09L637 288.65A254.455 254.455 0 0 0 516.12 256H512c-140.54.22-254.42 113.26-256 253.5v2.5a255.684 255.684 0 0 0 80.51 186.08l25.31-27.36a218.61 218.61 0 0 1-68.64-159.15h-.05Z" fill="#56595B"/></g><defs><clipPath id="a"><path fill="#fff" d="M0 0h1024v1024H0z"/></clipPath></defs></svg>