<svg width="1024" height="1024" fill="none" xmlns="http://www.w3.org/2000/svg"><g clip-path="url(#a)"><path d="M512 1024c282.77 0 512-229.23 512-512S794.77 0 512 0 0 229.23 0 512s229.23 512 512 512Z" fill="#71A372"/><path d="m456 627.08-85.76 29.1-.89.2 33-76.86a137.415 137.415 0 0 1 12.759-128.784A137.41 137.41 0 0 1 529.21 389.67c4.846 0 9.69.253 14.51.76A136.576 136.576 0 0 1 610.16 416a137.332 137.332 0 0 1-30.452 191.782 137.33 137.33 0 0 1-66.358 25.458 136.996 136.996 0 0 1-57.35-6.16Zm309.7-115.22c0 138.91-112.62 255.86-251.54 255.86l-255.77.28s-.09-256-.09-260.47C258.3 368.61 375.24 256 514.16 256c138.92 0 251.54 116.94 251.54 255.86Zm-125.37-97.42a155.89 155.89 0 0 1-187.69 237l-99.11 22.41L425 653.68l24.82-8.42a159.269 159.269 0 0 0 48.66 7.61 161.313 161.313 0 0 0 16.78-.88 160.099 160.099 0 0 0 128.9-225.27 130.202 130.202 0 0 0-13.69-20.91c-.07-.1-1.93-2.47-3.59-4.39-.57-.54-2-1.73-3.29-2.8l-1.9-1.56-.63-.51c-12.43-10-21.59-14.59-21.59-14.59a159.564 159.564 0 0 0-49.7-13.49 162.52 162.52 0 0 0-16.9-.89 159.992 159.992 0 0 0-129.766 66.782A160.001 160.001 0 0 0 381.53 578.7l2 5.65c.34.887.673 1.773 1 2.66l-6.74 15.68-26.42 71.6h-.12l28.19-90.77a155.902 155.902 0 0 1 133.103-230.149 155.902 155.902 0 0 1 98.967 32.249 155.914 155.914 0 0 0-211.016-13.744 155.914 155.914 0 0 0-56.206 98.632A155.915 155.915 0 0 0 369.87 581.11l-18.55 93.22h.12l.46-.05-.47.16.64-.18 102.41-12.1a155.883 155.883 0 0 0 203.197-41.112A155.882 155.882 0 0 0 640.33 414.46v-.02Z" fill="#fff"/></g><defs><clipPath id="a"><path fill="#fff" d="M0 0h1024v1024H0z"/></clipPath></defs></svg>