<svg width="1024" height="1024" viewBox="0 0 1024 1024" fill="none" xmlns="http://www.w3.org/2000/svg">
<g clip-path="url(#clip0_3_74)">
<path d="M512 1024C794.77 1024 1024 794.77 1024 512C1024 229.23 794.77 0 512 0C229.23 0 0 229.23 0 512C0 794.77 229.23 1024 512 1024Z" fill="#98DC9A"/>
<path d="M331.1 451.341C320.61 445.681 308.8 442.851 295.65 442.851C282.5 442.851 269.77 445.851 258.95 451.841C248.13 457.661 239.56 465.821 233.24 476.311C227.08 486.631 224 498.531 224 512.011C224 525.491 227.16 537.221 233.49 547.711C239.81 558.031 248.72 566.181 260.2 572.181C271.85 578.171 285.33 581.171 300.64 581.171C312.79 581.171 323.52 579.341 332.84 575.681C342.16 571.851 349.9 566.441 356.06 559.451L335.34 536.981C330.85 541.311 325.85 544.551 320.36 546.721C315.03 548.881 308.79 549.971 301.64 549.971C293.65 549.971 286.66 548.561 280.67 545.731C274.84 542.731 270.27 538.491 266.94 533.001C265.22 529.921 263.98 526.591 263.2 523.011H364.8C364.97 521.351 365.13 519.601 365.3 517.771C365.47 515.771 365.55 514.031 365.55 512.531C365.55 498.051 362.47 485.651 356.31 475.331C350.15 464.841 341.75 456.861 331.1 451.361V451.341ZM278.17 476.801C283.33 473.801 289.24 472.311 295.9 472.311C302.56 472.311 308.38 473.811 313.38 476.801C318.37 479.631 322.28 483.621 325.11 488.781C326.99 492.201 328.23 496.041 328.86 500.261H262.74C263.39 496.101 264.62 492.351 266.44 489.031C269.27 483.701 273.18 479.631 278.17 476.801ZM521.54 468.811C526.37 477.461 528.78 488.621 528.78 502.261V579.151H489.83V508.251C489.83 497.431 487.42 489.441 482.59 484.281C477.93 479.121 471.27 476.541 462.62 476.541C456.46 476.541 450.89 477.871 445.89 480.531C441.06 483.031 437.24 486.941 434.41 492.261C431.75 497.591 430.42 504.411 430.42 512.731V579.141H391.47V444.831H428.67V460.821C432.53 456.521 437.09 452.921 442.4 450.071C451.39 445.241 461.62 442.831 473.11 442.831C483.76 442.831 493.25 444.991 501.57 449.321C510.06 453.481 516.71 459.971 521.54 468.791V468.811ZM640.22 545.201L650.71 572.661C646.72 575.491 641.89 577.651 636.23 579.151C630.74 580.481 625 581.151 619 581.151C603.19 581.151 590.87 577.161 582.05 569.171C573.23 561.011 568.82 548.951 568.82 532.971V477.801H548.1V447.841H568.82V415.141H607.77V447.841H641.22V477.801H607.77V532.471C607.77 538.131 609.27 542.541 612.26 545.701C615.26 548.701 619.33 550.191 624.49 550.191C630.65 550.191 635.89 548.531 640.22 545.201ZM790.75 475.301C784.59 464.811 776.19 456.831 765.54 451.331C755.05 445.671 743.24 442.841 730.09 442.841C716.94 442.841 704.21 445.841 693.39 451.831C682.57 457.651 674 465.811 667.68 476.301C661.52 486.621 658.44 498.521 658.44 512.001C658.44 525.481 661.6 537.211 667.93 547.701C674.25 558.021 683.16 566.171 694.64 572.171C706.29 578.161 719.77 581.161 735.08 581.161C747.23 581.161 757.96 579.331 767.28 575.671C776.6 571.841 784.34 566.431 790.5 559.441L769.78 536.971C765.29 541.301 760.29 544.541 754.8 546.711C749.47 548.871 743.23 549.961 736.08 549.961C728.09 549.961 721.1 548.551 715.11 545.721C709.28 542.721 704.71 538.481 701.38 532.991C699.66 529.911 698.42 526.581 697.64 523.001H799.24C799.41 521.341 799.57 519.591 799.74 517.761C799.91 515.761 799.99 514.021 799.99 512.521C799.99 498.041 796.91 485.641 790.75 475.321V475.301ZM712.61 476.801C717.77 473.801 723.68 472.311 730.34 472.311C737 472.311 742.82 473.811 747.82 476.801C752.81 479.631 756.72 483.621 759.55 488.781C761.43 492.201 762.67 496.041 763.3 500.261H697.18C697.83 496.101 699.06 492.351 700.88 489.031C703.71 483.701 707.62 479.631 712.61 476.801Z" fill="white"/>
</g>
<defs>
<clipPath id="clip0_3_74">
<rect width="1024" height="1024" fill="white"/>
</clipPath>
</defs>
</svg>
