<svg width="1024" height="1024" viewBox="0 0 1024 1024" fill="none" xmlns="http://www.w3.org/2000/svg">
<g clip-path="url(#clip0_3_77)">
<path d="M512 1024C794.77 1024 1024 794.77 1024 512C1024 229.23 794.77 0 512 0C229.23 0 0 229.23 0 512C0 794.77 229.23 1024 512 1024Z" fill="#9ABEFF"/>
<path d="M331.44 276C302.17 276 291.37 286.8 291.37 316.07V669.47C291.37 672.78 291.52 675.85 291.78 678.67C292.51 685.11 292.57 691.32 298.54 698.34C299.09 699.15 305.15 703.59 305.15 703.59C308.37 705.21 310.63 706.32 314.32 707.86L492.14 782.37C501.34 786.57 505.22 788.26 511.9 788.02H512C518.76 788.25 522.65 786.57 531.84 782.37L709.64 707.86C713.35 706.32 715.53 705.21 718.84 703.59C718.84 703.59 724.9 699.07 725.45 698.34C731.45 691.34 731.45 685.11 732.21 678.67C732.47 675.85 732.64 672.78 732.64 669.5V316C732.64 286.75 721.8 276 692.53 276H331.44ZM616.44 342.36H630.95C655.15 342.36 666.95 354.14 666.95 378.57V418.66H637.62V380.15C637.62 372.32 633.99 368.69 626.42 368.69H621.42C613.59 368.69 609.96 372.32 609.96 380.15V504.15C609.96 511.96 613.59 515.59 621.42 515.59H627C634.51 515.59 638.14 511.96 638.14 504.15V459.8H667.5V505.55C667.5 529.98 655.5 541.99 631.21 541.99H616.41C592.06 541.99 580.14 529.89 580.14 505.55V378.78C580.14 354.41 592.07 342.32 616.41 342.32L616.44 342.36ZM356.39 343.98H422.8V371.23H386.19V426.79H421.44V453.97H386.19V513.16H423.29V540.3H356.36L356.39 343.98ZM437.83 343.98H484.69C508.95 343.98 520.96 356.08 520.96 380.51V432.68C520.96 457.11 508.96 469.14 484.69 469.14H467.72V540.34H437.8L437.83 343.98ZM534.44 343.98H564.27V540.3H534.41L534.44 343.98ZM467.63 370.4V442.73H480C487.49 442.73 491.12 439.1 491.12 431.21V381.92C491.12 374.03 487.49 370.4 480 370.4H467.63ZM385.38 587H389.82L390.82 587.15H392.42L393.23 587.41H394L394.81 587.64L395.6 587.81L396.33 587.96L397.06 588.13L397.79 588.28L398.6 588.54L399.24 588.69L399.88 588.95L400.69 589.18L401.33 589.5L402.16 589.82L402.89 590.14L403.53 590.57L404.34 590.87L404.89 591.3L405.7 591.68L406.34 592.11L407.07 592.49L407.71 592.98L408.35 593.39L408.99 593.86L409.65 594.35L410.29 594.9L410.93 595.39L410.46 596.03L409.88 596.61L409.41 597.25L408.83 597.89L408.36 598.47L407.87 599.02L407.29 599.66L406.82 600.3L406.33 600.88L405.78 601.52L405.29 602.16L404.71 602.8L404.24 603.38L403.75 604.02L403.2 604.66L402.71 605.32L402.16 605.87L401.67 606.51L401.03 606.04L400.39 605.49L399.75 605.06L399 604.59L398.45 604.18L397.72 603.77L397.08 603.36L396.33 602.95L395.69 602.63L395.05 602.31L394.41 602.08L393.68 601.82L392.87 601.61L392.23 601.44L391.42 601.27L390.61 601.1L389.8 601.04H388.93L387.93 600.87H386.33L385.52 600.96H384.71L383.9 601.19L383.17 601.36L382.44 601.59L381.65 601.82L381.01 602.14L380.2 602.48L379.62 602.86L378.98 603.29L378.34 603.67L377.76 604.16L377.21 604.65L376.63 605.12L376.16 605.7L375.52 606.25L375.09 606.89L374.71 607.47L374.22 608.11L373.9 608.84L373.47 609.48L373.09 610.21L372.86 610.94L372.52 611.67L372.31 612.48L372.2 613.29L371.97 614.02L371.8 614.92V615.71L371.65 616.52V618.44L371.74 619.27L371.8 620L371.89 620.79L372.06 621.6L372.29 622.24L372.38 623.05L372.61 623.69L372.87 624.33L373.19 625.16L373.6 625.95L373.92 626.59L374.33 627.23L374.8 627.89L375.29 628.53L375.7 629.11L376.34 629.66L376.83 630.24L377.38 630.71L378.02 631.2L378.66 631.69L379.32 632.1L379.96 632.48L380.69 632.82L381.5 633.14L382.14 633.46L382.95 633.69L383.76 633.95L384.57 634.1L385.36 634.27L386.17 634.36L387.17 634.42H389.82L390.82 634.27H391.61L392.42 634.01L393.23 633.86L394.04 633.6L394.77 633.45L395.5 633.13L396.14 632.81L396.95 632.47L397.44 632.15L398.08 631.74V624.34H386.27V612.44H412.88V639.07L412.33 639.54L411.69 640.03L411.11 640.44L410.47 640.93L409.83 641.31L409.19 641.8L408.55 642.21L407.89 642.62L407.08 643.03L406.35 643.44L405.71 643.85L404.9 644.17L404.26 644.58L403.45 644.9L402.64 645.22L401.83 645.54L401.1 645.86L400.37 646.09L399.64 646.35L398.85 646.58L398.12 646.81L397.31 647.07L396.58 647.22L395.77 647.39L394.96 647.56L394.15 647.71L393.36 647.8L392.55 647.89L391.74 647.98L390.74 648.04L389.93 648.13L389.03 648.22H384.85L384 648H383.19L382.4 647.85H381.59L380.78 647.59L379.97 647.44L379.16 647.27L378.37 647.12L377.73 646.86L376.92 646.71L376.11 646.45L375.38 646.13L374.65 645.9L373.84 645.58L373.11 645.26L372.3 644.94L371.66 644.6L370.85 644.22L370.3 643.79L369.49 643.41L368.91 642.98L368.27 642.6L367.63 642.11L366.99 641.62L366.26 641.15L365.77 640.66L365.13 640.17L364.55 639.62L364 639.13L363.42 638.58L363 638L362.42 637.45L361.95 636.81L361.46 636.23L361.05 635.59L360.56 634.95L360.15 634.31L359.77 633.67L359.34 632.92L358.96 632.28L358.64 631.55L358.32 630.82L357.98 630.09L357.66 629.36L357.43 628.72L357.11 627.99L356.94 627.26L356.71 626.53L356.54 625.72L356.31 624.99L356.14 624.18L356.08 623.45L355.91 622.64L355.82 621.91L355.76 621.1L355.67 620.31L355.58 619.5V615.06L355.75 614.25V613.38L355.96 612.57V611.76L356.22 610.95L356.48 610.16L356.63 609.35L356.86 608.62L357.12 607.81L357.35 607.08L357.67 606.27L357.99 605.54L358.33 604.81L358.65 604.08L358.97 603.35L359.38 602.62L359.79 601.98L360.17 601.34L360.6 600.7L360.98 600.06L361.47 599.4L361.96 598.76L362.43 598.12L363.01 597.54L363.48 596.99L363.97 596.41L364.61 595.86L365.1 595.28L365.74 594.79L366.32 594.24L366.96 593.75L367.6 593.28L368.24 592.85L368.88 592.38L369.52 591.97L370.18 591.56L370.91 591.15L371.72 590.74L372.36 590.36L373.17 590.02L373.9 589.7L374.71 589.29L375.35 589.08L376.16 588.82L376.89 588.5L377.62 588.33L378.35 588.1L379.16 587.93L379.89 587.7L380.68 587.53H381.49L382.3 587.3H383.11L383.92 587.13H384.71L385.38 587ZM641.19 587.15H645.61L646.61 587.32H648.21L649.02 587.55H650.02L650.83 587.81L651.56 587.96L652.37 588.13L653.18 588.28L653.91 588.45L654.72 588.68L655.51 588.94L656.15 589.09L656.96 589.41L657.77 589.67L658.41 589.99L659.22 590.31L660.03 590.63L660.76 591.06L661.34 591.36L662.13 591.79L662.86 592.17L663.5 592.58L664.25 593.07L664.89 593.45L665.53 593.94L666.17 594.43L666.81 594.9L666.34 595.54L665.93 596.2L665.44 596.84L664.97 597.48L664.48 598.21L664.07 598.85L663.58 599.49L663.11 600.15L662.68 600.79L662.21 601.43L661.72 602.07L661.25 602.73L660.82 603.46L660.35 604.1L659.8 604.74L659.37 605.38L658.9 606.04L658.26 605.55L657.53 605.14L656.89 604.76L656.25 604.27L655.5 603.95L654.86 603.52L654.05 603.22L653.5 602.9L652.69 602.56L652.05 602.24L651.41 602.01L650.68 601.69L649.87 601.46L649.06 601.2L648.25 600.97L647.38 600.8L646.57 600.65L645.76 600.48L644.95 600.39L644.16 600.3L643.43 600.24H641.64L640.77 600.39L639.96 600.56L639.15 600.71L638.51 601.05L637.96 601.37L637.23 602.01L636.74 602.74L636.42 603.47V605.47L636.83 606.37L637.15 606.86L637.7 607.41L638.51 607.84L639.15 608.22L639.96 608.54L640.77 608.86L641.77 609.18L642.41 609.35L643.05 609.58L643.86 609.75L644.5 609.98L645.31 610.15L646.21 610.38L647.08 610.61L647.98 610.87L648.88 611.02L649.67 611.28L650.57 611.51L651.38 611.68L652.17 611.91L652.98 612.14L653.79 612.4L654.6 612.63L655.33 612.86L656.14 613.12L656.93 613.44L657.74 613.85L658.55 614.17L659.36 614.58L660.17 614.99L660.81 615.4L661.45 615.78L662.18 616.27L662.76 616.7L663.49 617.25L664.04 617.8L664.68 618.44L665.26 619.02L665.67 619.66L666.22 620.47L666.63 621.02L666.95 621.83L667.36 622.38L667.59 623.19L667.85 623.83L668 624.64L668.17 625.45L668.32 626.26L668.41 627.07L668.5 627.86V629.86L668.41 630.73L668.32 631.54L668.26 632.44L668.09 633.25L667.86 634.04L667.69 634.85L667.46 635.66L667.14 636.39L666.82 637.03L666.48 637.76L666.1 638.4L665.61 639.04L665.18 639.68L664.8 640.34L664.25 640.92L663.76 641.47L663.18 641.96L662.54 642.51L661.99 643L661.35 643.49L660.71 643.87L660.05 644.36L659.24 644.77L658.6 645.09L657.79 645.52L656.98 645.82L656.19 646.14L655.38 646.4L654.57 646.63L653.93 646.86L653.12 647.03L652.31 647.2L651.67 647.35L650.86 647.52H650L649.21 647.67H648.4L647.59 647.84H641.59L640.8 647.75L639.99 647.66L639.09 647.6L638.28 647.43L637.49 647.34L636.68 647.19L635.87 647.02L634.97 646.79L634.18 646.62L633.37 646.39L632.56 646.22L631.75 645.99L630.96 645.73L630.15 645.41L629.42 645.18L628.61 644.95L627.8 644.61L627.16 644.29L626.35 643.97L625.71 643.56L624.9 643.24L624.17 642.83L623.62 642.42L622.81 642.01L622.23 641.63L621.5 641.2L620.86 640.73L620.22 640.24L619.58 639.77L618.94 639.28L618.36 638.79L617.72 638.24L618.19 637.6L618.77 637.02L619.26 636.38L619.81 635.74L620.3 635.16L620.77 634.52L621.35 633.88L621.84 633.3L622.39 632.66L622.88 632.11L623.43 631.47L623.92 630.83L624.39 630.25L624.97 629.61L625.46 628.97L626.01 628.39L626.59 627.75L627.14 628.22L627.95 628.71L628.5 629.2L629.31 629.67L629.95 630.1L630.68 630.57L631.32 630.98L632.07 631.3L632.71 631.71L633.44 632.03L634.25 632.35L634.89 632.67L635.7 632.9L636.34 633.24L637.15 633.45L637.94 633.71L638.75 633.97L639.56 634.12L640.37 634.29L641.18 634.44H642.05L642.86 634.7H647.3L648.11 634.53L648.9 634.36L649.54 634.21L650.18 633.98L650.76 633.64L651.49 633.17L651.92 632.59L652.3 631.95L652.53 631.14V629.28L652.21 628.49L651.74 627.85L651.25 627.36L650.52 626.87L649.94 626.55L649.15 626.23L648.34 625.91L647.34 625.48L646.76 625.33L646.12 625.16L645.31 624.95L644.67 624.78L643.86 624.52L643.05 624.37L642.18 624.11L641.37 623.96L640.47 623.7L639.68 623.55L638.87 623.29L638.06 623.14L637.25 622.88L636.44 622.67L635.65 622.5L634.92 622.24L634.19 622.01L633.46 621.75L632.65 621.43L631.75 621.11L630.94 620.79L630.15 620.47L629.34 620.06L628.53 619.65L627.98 619.24L627.17 618.83L626.59 618.36L625.86 617.93L625.39 617.46L624.81 616.91L624.17 616.33L623.68 615.78L623.21 615.2L622.78 614.65L622.4 614.01L621.97 613.28L621.67 612.7L621.41 612.06L621.18 611.33L620.95 610.69L620.78 609.88L620.63 609.15V608.34L620.46 607.53V604.07L620.55 603.26L620.64 602.45L620.79 601.81L620.96 601L621.19 600.36L621.36 599.55L621.68 598.91L622 598.1L622.32 597.46L622.73 596.65L623.14 596.01L623.69 595.37L624.12 594.73L624.76 594.09L625.31 593.51L625.8 592.87L626.53 592.29L627 591.88L627.73 591.39L628.37 590.92L629.01 590.49L629.82 590.11L630.46 589.79L631.29 589.38L631.93 589.06L632.74 588.8L633.53 588.48L634.34 588.25L634.92 588.08L635.71 587.93L636.35 587.76L637.16 587.61L637.97 587.44L638.78 587.35L639.59 587.26L640.4 587.2L641.19 587.15ZM444.1 587.73H459.19L459.51 588.46L459.83 589.19L460.15 589.92L460.38 590.73L460.7 591.46L461.02 592.19L461.36 592.92L461.68 593.65L461.91 594.38L462.32 595.17L462.64 595.9L462.96 596.65L463.13 597.38L463.45 598.11L463.86 598.84L464.18 599.63L464.5 600.36L464.73 601.09L465.05 601.82L465.48 602.55L465.69 603.28L466.03 604.09L466.26 604.9L466.58 605.54L467.01 606.35L467.31 606.99L467.63 607.8L467.89 608.61L468.12 609.25L468.53 610.06L468.85 610.7L469.17 611.51L469.4 612.15L469.74 612.96L470.15 613.77L470.47 614.5L470.7 615.23L470.93 615.96L471.25 616.69L471.68 617.42L471.98 618.21L472.32 618.96L472.53 619.69L472.87 620.42L473.19 621.15L473.51 621.88L473.83 622.67L474.09 623.4L474.41 624.13L474.82 624.86L475.14 625.59L475.46 626.32L475.63 627.13L475.95 627.86L476.36 628.59L476.68 629.32L476.91 630.05L477.23 630.78L477.55 631.59L477.98 632.4L478.19 633.04L478.53 633.85L478.76 634.49L479.08 635.3L479.49 636.11L479.81 636.75L480.04 637.56L480.38 638.2L480.61 639.01L481.02 639.65L481.34 640.46L481.57 641.27L481.89 641.91L482.23 642.72L482.61 643.36L482.95 644.17L483.16 644.96L483.42 645.6L483.74 646.41L484.17 647.05H467.48L467.05 646.35L466.84 645.62L466.5 644.89L466.18 644.08L465.95 643.35L465.63 642.62L465.31 641.89L465.05 641.16L464.73 640.43L464.41 639.7L464.18 638.97L463.86 638.16L463.54 637.43L463.28 636.7L462.96 635.97H439.81L439.49 636.78L439.26 637.42L438.94 638.23L438.53 639.02L438.36 639.66L438.04 640.49L437.72 641.13L437.49 641.94L437.17 642.58L436.85 643.39L436.59 644.03L436.27 644.84L435.95 645.63L435.63 646.27L435.4 647.08H418.85L419.17 646.29L419.49 645.56L419.81 644.83L420.07 644.02L420.28 643.29L420.71 642.56L421.03 641.83L421.35 641.1L421.58 640.37L421.9 639.56L422.33 638.83L422.63 638.1L422.89 637.37L423.12 636.64L423.44 635.91L423.87 635.1L424.17 634.37L424.49 633.64L424.75 632.91L425.07 632.18L425.39 631.45L425.71 630.64L426.03 629.83L426.29 629.19L426.61 628.38L427.02 627.74L427.34 626.93L427.57 626.14L427.8 625.5L428.12 624.69L428.55 624.05L428.85 623.24L429.19 622.6L429.4 621.79L429.74 620.98L430.15 620.34L430.38 619.53L430.7 618.89L430.96 618.08L431.28 617.27L431.69 616.63L432.01 615.82L432.24 615.18L432.56 614.37L432.82 613.73L433.23 612.92L433.55 612.11L433.87 611.38L434.1 610.65L434.42 609.92L434.85 609.19L435.15 608.46L435.32 607.65L435.64 606.92L435.96 606.19L436.37 605.46L436.69 604.73L436.92 604L437.26 603.19L437.58 602.4L437.9 601.76L438.22 600.95L438.45 600.31L438.77 599.5L439.09 598.69L439.52 598.05L439.82 597.24L440.08 596.6L440.31 595.79L440.63 595.15L441.06 594.34L441.36 593.53L441.62 592.89L441.94 592.08L442.26 591.44L442.67 590.63L442.9 589.82L443.13 589.18L443.47 588.37L444.1 587.73ZM490.87 588.14H507.4L507.87 588.78L508.3 589.51L508.77 590.15L509.18 590.88L509.59 591.52L510 592.25L510.38 592.89L510.87 593.64L511.28 594.28L511.69 594.92L512.1 595.65L512.51 596.29L513.06 597.02L513.38 597.66L513.81 598.41L514.28 599.05L514.77 599.69L515.09 600.42L515.56 601.06L515.99 601.79L516.29 602.43L516.87 603.18L517.28 603.82L517.69 604.55L518.1 605.19L518.48 605.83L518.97 606.56L519.38 607.2L519.79 607.95L520.2 608.59L520.61 609.32L521.08 609.96L521.51 610.69L521.89 611.33L522.38 610.69L522.7 609.88L523.19 609.33L523.66 608.52L524.09 607.97L524.39 607.16L524.97 606.58L525.38 605.79L525.7 605.21L526.19 604.57L526.66 603.76L527.09 603.21L527.47 602.4L527.88 601.82L528.37 601.03L528.75 600.45L529.18 599.64L529.56 599.09L529.99 598.45L530.46 597.64L530.87 597.06L531.28 596.27L531.75 595.69L532.18 594.88L532.56 594.33L533.05 593.69L533.46 592.88L533.93 592.3L534.36 591.51L534.74 590.93L535.17 590.12L535.64 589.57L536.05 588.76L536.46 588.21H553V647.72H537.38V612.72L537 613.27L536.51 614.08L536.1 614.63L535.61 615.27L535.2 616.08L534.73 616.66L534.3 617.3L533.83 618.11L533.42 618.66L533.01 619.3L532.46 619.94L532.05 620.77L531.56 621.32L531.15 621.96L530.77 622.77L530.28 623.32L529.87 623.96L529.38 624.77L528.97 625.35L528.5 625.99L528.07 626.8L527.69 627.35L527.2 627.99L526.79 628.8L526.32 629.38L525.83 630.02L525.42 630.66L525.01 631.47L524.52 632.05L524.05 632.69L523.73 633.5L523.15 634.05L522.74 634.69L522.27 635.5L521.84 636.08H521.54L521.05 635.35L520.64 634.71L520.15 633.96L519.74 633.32L519.27 632.59L518.84 631.95L518.37 631.22L517.96 630.58L517.49 629.85L517.06 629.21L516.51 628.46L516.19 627.82L515.7 627.09L515.23 626.45L514.8 625.72L514.33 625.08L513.92 624.27L513.45 623.63L513.02 622.9L512.55 622.26L512.14 621.51L511.65 620.87L511.27 620.14L510.78 619.5L510.37 618.77L509.88 618.13L509.47 617.4L509 616.76L508.57 616.01L508.1 615.37L507.69 614.64L507.14 614L506.82 613.27L506.33 612.63V647.71H491V588.88L490.87 588.14ZM564.87 588.14H611.79V601.58H580.46V611.12H608.67V623.77H580.48V634.01H612.25V647.47H565V588.65L564.87 588.14ZM451.44 606.4L451.12 607.21L450.86 607.85L450.54 608.66L450.22 609.45L449.99 610.18L449.67 610.91L449.33 611.72L449.01 612.53L448.78 613.17L448.46 613.98L448.14 614.62L447.88 615.43L447.56 616.24L447.24 616.88L447.01 617.69L446.69 618.33L446.37 619.14L446 620L445.79 620.64L445.45 621.45L445.13 622.26L444.9 622.9L444.56 623.71H458.28L457.96 622.9L457.7 622.17L457.38 621.36L457.06 620.63L456.83 619.9L456.51 619.17L456.19 618.36L455.93 617.63L455.61 616.9L455.29 616.17L455.06 615.44L454.74 614.63L454.48 613.9L454.16 613.17L453.84 612.44L453.61 611.71L453.29 610.92L452.97 610.11L452.71 609.47L452.39 608.66L452.07 607.85L451.84 607.12L451.44 606.4ZM426.9 717.84H597.9L510.63 746.64L426.9 717.84Z" fill="white"/>
</g>
<defs>
<clipPath id="clip0_3_77">
<rect width="1024" height="1024" fill="white"/>
</clipPath>
</defs>
</svg>
