<svg width="1024" height="1024" fill="none" xmlns="http://www.w3.org/2000/svg"><g clip-path="url(#a)"><path d="M512 1024c282.77 0 512-229.23 512-512S794.77 0 512 0 0 229.23 0 512s229.23 512 512 512Z" fill="#54688C"/><path d="M512 244.5c-147.74 0-267.5 119.76-267.5 267.5S364.26 779.5 512 779.5 779.5 659.74 779.5 512 659.74 244.5 512 244.5ZM271.91 512a238.551 238.551 0 0 1 18.86-93.44l.27-.63v188.14l-.27-.63A238.551 238.551 0 0 1 271.91 512Zm299.76 232.63V555.82a31.862 31.862 0 0 0 7.932-54.045 31.865 31.865 0 0 0-20.197-7.22 31.865 31.865 0 0 0-31.24 25.606 31.86 31.86 0 0 0 18.975 35.659v193.72a242.788 242.788 0 0 1-35.14 2.55 238.551 238.551 0 0 1-104.71-23.98V583.5h51.6a26.393 26.393 0 0 0 29.61 13.406 26.392 26.392 0 0 0 20.16-25.495 26.384 26.384 0 0 0-19.871-25.721 26.385 26.385 0 0 0-29.759 13.07h-76.48v155.5a242.539 242.539 0 0 1-66.77-63.85V373.59a239.829 239.829 0 0 1 14.85-18.91h188.92a24.602 24.602 0 0 0 40.801 2.457 24.594 24.594 0 0 0 5.022-14.975 24.605 24.605 0 0 0-18.27-23.693 24.601 24.601 0 0 0-27.633 11.471h-164a240.406 240.406 0 0 1 250-39.18 239.062 239.062 0 0 1 17.29 8.15v116.75H382.55v66.77a27.207 27.207 0 0 0-14.234 30.528 27.21 27.21 0 1 0 38.974-30.408v-42.16h240.22V313.74a241.365 241.365 0 0 1 85.76 104.81A238.561 238.561 0 0 1 752.09 512v2H622.73v24.74h.1V725a242.236 242.236 0 0 1-17.39 8.2 238.393 238.393 0 0 1-33.77 11.43Zm110.09-62.86a241.197 241.197 0 0 1-34.41 28.56V538.76h103.27a239.22 239.22 0 0 1-68.85 143l-.01.01Z" fill="#fff"/></g><defs><clipPath id="a"><path fill="#fff" d="M0 0h1024v1024H0z"/></clipPath></defs></svg>