<svg width="1024" height="1024" fill="none" xmlns="http://www.w3.org/2000/svg"><g clip-path="url(#a)"><path d="M512 1024c282.77 0 512-229.23 512-512S794.77 0 512 0 0 229.23 0 512s229.23 512 512 512Z" fill="#F9DE81"/><path d="M281.2 363.101v297.8c0 46.2 37.2 83.7 83.1 83.7h295.4c45.9 0 83.1-37.6 83.1-83.7v-297.8c0-46.2-37.2-83.7-83.1-83.7H364.3c-45.9-.1-83.1 37.5-83.1 83.7Zm378.5-65.2c35.9 0 64.6 28.9 64.6 65.2v297.8c0 36.3-28.7 65.2-64.6 65.2H438.2v-111.7h147.7l-.4-111.4-147.3.8v-94.2h147.7v-111.7h73.8Z" fill="#56595B"/></g><defs><clipPath id="a"><path fill="#fff" d="M0 0h1024v1024H0z"/></clipPath></defs></svg>