<svg width="1024" height="1024" fill="none" xmlns="http://www.w3.org/2000/svg"><g clip-path="url(#a)"><path d="M512 1024c282.77 0 512-229.23 512-512S794.77 0 512 0 0 229.23 0 512s229.23 512 512 512Z" fill="#F9DE81"/><path d="m798.141 529.31-579.26 60.87 7 66.48 579.26-60.88-7-66.48v.01Zm-298.5-124.71a66.84 66.84 0 1 0 66.84 66.84 66.755 66.755 0 0 0-66.69-66.83l-.15-.01Zm0 104a37.134 37.134 0 0 1-20.639-6.25 37.139 37.139 0 1 1 51.498-51.526 37.138 37.138 0 0 1 6.261 20.636 37.141 37.141 0 0 1-37.12 37.12v.02Zm215.12-104a66.841 66.841 0 0 0-65.567 79.873 66.842 66.842 0 0 0 91.133 48.72 66.845 66.845 0 0 0 41.264-61.753 66.774 66.774 0 0 0-41.163-61.725 66.75 66.75 0 0 0-25.547-5.105l-.12-.01Zm0 104a37.141 37.141 0 1 1 37.14-37.14 37.142 37.142 0 0 1-37.14 37.12v.02Zm-40.76-107.87V371h-133.66v29.71h52v134h29.66v-134h52v.02Zm-355 37.13v29.71h41c-9.48 24.9-27.55 41-48.49 41a55.709 55.709 0 0 1-46.247-24.834 55.697 55.697 0 0 1 35.544-85.505 55.7 55.7 0 0 1 50.223 15.269l21.1-21.11a85.399 85.399 0 0 0-35.573-21.251 85.397 85.397 0 0 0-78.847 15.717 85.395 85.395 0 0 0-30.842 74.246 85.385 85.385 0 0 0 84.662 77.168c29.1 0 55.27-18.73 70.71-48.47v44.91h29.76v-96.85h-93Z" fill="#56595B"/></g><defs><clipPath id="a"><path fill="#fff" d="M0 0h1024v1024H0z"/></clipPath></defs></svg>