<svg width="1024" height="1024" fill="none" xmlns="http://www.w3.org/2000/svg"><g clip-path="url(#a)"><path d="M512 1024c282.77 0 512-229.23 512-512S794.77 0 512 0 0 229.23 0 512s229.23 512 512 512Z" fill="#ABABFF"/><path d="m690.09 423-31.82-56.52h61.64a5.67 5.67 0 0 1 4.47 2.57l12 19.78c7.2 11.87 15.8 26.05 20.73 34.15l-67.02.02Zm-114 342.32c-1.5 2.68-3.44 2.68-4.09 2.68h-63l97.94-175.84a9.428 9.428 0 0 0-8.2-14l-166.93.22-33.21-57.51h243.26c.14 0 .26 0 .4-.05a8.717 8.717 0 0 0 2.79-.58l.61-.26a9.311 9.311 0 0 0 4.46-4l40.08-74.09h66.16L576.09 765.32Zm-83.41-6.68-7.91-13c-10.13-16.71-23.1-38.11-24.57-40.46a5.002 5.002 0 0 1 .31-4.57c2.35-4.22 46.67-84.06 57.47-103.52l64.72-.09-90.02 161.64Zm-110.38-110-32.17-57.16 32.43-60.78 32.51 56.3c-10.07 19-25.89 48.69-32.78 61.6l.01.04Zm-43.18 8.9H304a5.72 5.72 0 0 1-4.42-2.57l-10.47-17.26c-7.46-12.3-17-28-22.25-36.68h67l31.81 56.52-26.55-.01Zm108.8-398.86c1.49-2.68 3.42-2.68 4-2.68h63.31l-98.15 175.85c-.08.15-.13.3-.2.46-.07.16-.27.59-.39.9-.12.31-.19.59-.27.89a8.595 8.595 0 0 0-.28 1.85v.82c.012.335.045.669.1 1a7.2 7.2 0 0 0 .15.85c.07.3.17.58.27.88.1.3.2.58.33.85s.27.53.43.79c.16.26.3.51.48.76.18.247.374.484.58.71.2.22.4.45.62.66.22.21.45.37.68.56.258.21.529.403.81.58.11.06.19.15.3.21.11.06.23.08.35.14a9.39 9.39 0 0 0 1.53.62c.19.05.37.13.57.17a8.968 8.968 0 0 0 2.12.26h4.26l162.73-.22a23202.635 23202.635 0 0 1 32.2 56.36H381.99a9.353 9.353 0 0 0-8.14 4.93l-40.09 75.14h-66.11C296.51 530.35 446 262.13 447.92 258.68Zm83.55 6.89 5.88 9.68c10.33 17 24.91 41.08 26.46 43.58a4.93 4.93 0 0 1-.32 4.57L506 426.93l-64.7.08 90.17-161.44Zm110.22 109.76 32.19 57.19-32.82 60.66c-3.91-6.83-8.77-15.34-13.33-23.32-9-15.78-15.58-27.28-19.28-33.7 7-12.81 25.49-46.7 33.24-60.83Z" fill="#fff"/></g><defs><clipPath id="a"><path fill="#fff" d="M0 0h1024v1024H0z"/></clipPath></defs></svg>