<svg width="1024" height="1024" fill="none" xmlns="http://www.w3.org/2000/svg"><g clip-path="url(#a)"><path d="M512 1024c282.77 0 512-229.23 512-512S794.77 0 512 0 0 229.23 0 512s229.23 512 512 512Z" fill="#728DBE"/><path d="M128 430.94c0-5.3 2.95-8.24 8.24-8.24h8.44c5.49 0 8.24 2.95 8.24 8.24v40.44a56.89 56.89 0 0 1-.59 8.44h.39c4.9-9.62 17.47-20.22 34.74-20.22 22.18 0 34.93 11.58 34.93 38.08v56.13c0 5.49-2.95 8.24-8.24 8.24h-8.44c-5.493 0-8.24-2.747-8.24-8.24v-51c0-12.17-3.14-20.41-15.7-20.41-17.5 0-28.85 14.12-28.85 33.16v38.27c0 5.493-2.747 8.24-8.24 8.24h-8.44c-5.3 0-8.24-2.75-8.24-8.24V430.94Zm162.32 28.66c28.46 0 44.35 20.22 44.35 47.69a8.68 8.68 0 0 1-8.64 8.44H265c1.57 18.06 14.92 27.47 30 27.47a41.372 41.372 0 0 0 21.59-6.47c4.9-2.35 8.44-1.76 11 2.75l2.36 3.93c2.35 4.51 1.57 8.44-2.75 11a63.29 63.29 0 0 1-34 10c-33.17 0-53.77-23.94-53.77-52.4.05-30.82 20.86-52.41 50.89-52.41Zm19.59 41c-.34-13.92-8.79-22.19-20.18-22.19-12.76 0-21.79 8.83-24.14 22.18l44.32.01Zm42.62-69.68c0-5.3 2.75-8.24 8-8.24h8.64c5.3 0 8 2.95 8 8.24v97.95c0 9.79 4.12 11.58 7.85 12 3.53.39 6.08 2.55 6.08 7.07v6.68c0 5.1-2.35 8.44-8.24 8.44-13.35 0-30.42-3.53-30.42-32.19l.09-99.95Zm55 39.25c0-5.3 2.95-8.24 8.24-8.24H422c5.3 0 8 2.95 8 6.87v4.51c0 2.16-.2 3.93-.2 3.93h.39s8.83-17.66 32.18-17.66C489.54 459.6 507 481 507 512c0 31.83-19.59 52.4-45.93 52.4-20.81 0-28.85-15.3-28.85-15.3h-.39c.412 2.861.609 5.749.59 8.64v35.33c0 5.493-2.747 8.24-8.24 8.24h-8.46c-5.3 0-8.24-2.75-8.24-8.24l.05-122.9Zm49.07 73.21c13.74 0 25.12-11.19 25.12-31 0-19-10.21-31.4-24.73-31.4-13 0-25.3 9.42-25.3 31.6 0 15.52 8.6 30.82 24.89 30.82l.02-.02Zm70.82 2.95 1.57-2c1.77-2.36 3.93-2.55 6.68-.82a42.713 42.713 0 0 0 26.12 9c11 0 20-5.49 20-15.9 0-22.18-52.79-15.51-52.79-48.08 0-18.25 15.51-27.67 33.56-27.67 14.13 0 23 5.1 27.08 8 2.55 1.57 2.95 3.93 1.37 6.47l-1.37 2.16c-1.57 2.75-3.93 2.95-6.67 1.37a36.998 36.998 0 0 0-21.22-6.28c-10.41 0-19.43 4.51-19.43 15.31 0 22.76 52.6 15.51 52.6 48.48 0 16.32-13.74 27.87-33.37 27.87-17.27 0-28.46-7.26-33.37-11.38-2.32-1.61-2.54-3.96-.77-6.51l.01-.02Zm90.87-78.11c0-3.14 1.57-4.9 4.71-4.9h3.14c3.14 0 4.71 1.77 4.71 4.51v7.07a35.136 35.136 0 0 1-.59 6.68h.39S639.08 461 665.19 461c26.49 0 43 21.22 43 51.81 0 31.2-18.64 51.62-44.35 51.62a35.833 35.833 0 0 1-19.179-5.294 35.835 35.835 0 0 1-13.401-14.706h-.39c.558 2.845.833 5.74.82 8.64v43.33c0 3.14-1.76 4.9-4.9 4.9H623c-3.14 0-4.71-1.77-4.71-4.9V468.22Zm44.16 84.2c17.66 0 32-14.52 32-39.64 0-24.14-13-39.65-31.2-39.65-16.49 0-32 11.78-32 39.84-.02 19.84 10.98 39.47 31.19 39.47l.01-.02ZM777.26 461c28.85 0 52.24 22 52.24 51.23 0 29.83-23.36 52.24-52 52.24-28.85 0-52.24-22.37-52.24-52.24-.02-29.23 23.34-51.23 52-51.23Zm.2 91.46c21 0 38.27-17.27 38.27-40.24 0-22.37-17.27-39.25-38.27-39.25-21.22 0-38.47 16.88-38.47 39.25 0 23 17.26 40.25 38.46 40.25l.01-.01Zm78.31-77.16h-8.24c-3.14 0-4.71-1.57-4.71-4.71V469c0-3.14 1.57-4.9 4.71-4.9H856V441c0-3.14 1.76-4.9 4.9-4.9h3.53c3.14 0 4.71 1.76 4.71 4.9v23.16h20c3.14 0 4.9 1.76 4.9 4.9v1.57c0 3.14-1.77 4.71-4.9 4.71h-20v49.46c0 22.76 13.93 25.52 21.59 25.91 3.93.39 5.3 1.57 5.3 4.9v2.55c0 3.14-1.57 4.71-5.49 4.71-21.59 0-34.74-13.15-34.74-36.31l-.03-51.26Z" fill="#fff"/></g><defs><clipPath id="a"><path fill="#fff" d="M0 0h1024v1024H0z"/></clipPath></defs></svg>