<svg width="1024" height="1024" fill="none" xmlns="http://www.w3.org/2000/svg"><g clip-path="url(#a)"><path d="M512 1024c282.77 0 512-229.23 512-512S794.77 0 512 0 0 229.23 0 512s229.23 512 512 512Z" fill="#56595B"/><path d="M680.42 463.64c14.33 0 25.95-11.62 25.95-25.95s-11.62-25.95-25.95-25.95-25.95 11.62-25.95 25.95 11.62 25.95 25.95 25.95Zm130.13-.87a18.536 18.536 0 0 0-14.089.12c-4.5 1.9-8.07 5.49-9.93 10-11.38 28.17-57.88 74.18-94.531 85.75-3.359 1.54-7 2.38-10.7 2.48-3.7.1-7.37-.55-10.81-1.9-8.49-5.5-6.95-34.34 0-56.53a18.334 18.334 0 0 0-8.31-21.88 18.266 18.266 0 0 0-12.26-2.09c-4.21.75-8.019 2.96-10.769 6.22-47.17 53.83-89.611 92.7-110.45 106.11 0-5.69 0-12.44.679-17.36 1.35-23.05 2.411-42.93-12.349-52.47a25.59 25.59 0 0 0-13.411-3.8c-4.74 0-9.38 1.31-13.41 3.8-27.59 14.18-73.5 59.03-107.259 91.93 2.119-9.65 4.629-19.87 7.229-29.71a520.512 520.512 0 0 1 27.11-79.77c26.241-63.28 58.74-113.34 81.61-123.57 1.39-.66 2.9-1.05 4.44-1.16.77-.04 1.52.2 2.12.68 2.41 1.54 2.51 2.51 2.6 3.38 1.54 15.92-28.94 54.02-64.53 92.8a635.476 635.476 0 0 0-35.98 90.29C515.39 457.57 547.9 412.72 544.62 379.44a40.346 40.346 0 0 0-5.789-17.43 40.374 40.374 0 0 0-12.921-13.05 42.531 42.531 0 0 0-41.959-2.41c-46.59 20.74-98.391 121.15-126.461 217.33-23.54 21.7-47.07 32.41-70.03 32.03a83.264 83.264 0 0 1-54.02-23.73 18.429 18.429 0 0 0-12.59-5.36c-4.73-.1-9.32 1.62-12.81 4.8a18.434 18.434 0 0 0-5.97 12.31c-.33 4.72 1.16 9.38 4.17 13.03a119.444 119.444 0 0 0 79.87 35.69c14.87.28 29.64-2.34 43.5-7.72 3.38-12.83 5.501-20.16 5.591-20.35a6.07 6.07 0 0 1 2.97-3.6c.71-.38 1.479-.61 2.28-.69.8-.08 1.599 0 2.369.24.77.23 1.481.62 2.101 1.13a6.24 6.24 0 0 1 1.509 1.84c.38.71.61 1.48.69 2.28.08.8 0 1.6-.24 2.37 0 0-1.06 3.76-2.89 10.32-1.25 6.46-2.32 12.93-3.28 19.29-4.34 22.67 0 28.94 2.8 32.12 1.86 2.49 4.28 4.51 7.06 5.9 2.78 1.39 5.85 2.11 8.95 2.11 9.65 0 13.5-3.57 48.23-37.43a998.469 998.469 0 0 1 84.98-77.17l7.14-5.79a6.254 6.254 0 0 1 4.521-1.32c1.619.16 3.109.95 4.169 2.19.98 1.3 1.42 2.92 1.24 4.53-.18 1.61-.97 3.1-2.21 4.15-4.53 3.57-9.65 8.1-15.72 13.02-.87 19.29-.48 36.75 11.09 46.78a25.677 25.677 0 0 0 10.621 5.5c3.92.97 8.019 1 11.959.09 18.33-3.67 46.69-26.53 73.601-52.09 0 0 29.519-30.87 37.909-40.8a6.21 6.21 0 0 1 4.21-2.25 6.225 6.225 0 0 1 6.821 5.59c.16 1.65-.34 3.29-1.38 4.57-3.18 3.76-9.161 10.32-15.43 17.07a46.486 46.486 0 0 0 19.289 26.33 59.585 59.585 0 0 0 25.79 7.81c9.08.6 18.18-.88 26.59-4.34 48.23-15.24 102.44-69.93 117.49-106.88a18.49 18.49 0 0 0 1.61-7.18c.05-2.48-.39-4.94-1.31-7.24s-2.29-4.4-4.029-6.16a18.463 18.463 0 0 0-6.11-4.1h-.041Z" fill="#fff"/></g><defs><clipPath id="a"><path fill="#fff" d="M0 0h1024v1024H0z"/></clipPath></defs></svg>