<svg width="1024" height="1024" fill="none" xmlns="http://www.w3.org/2000/svg"><g clip-path="url(#a)"><path d="M512 1024c282.77 0 512-229.23 512-512S794.77 0 512 0 0 229.23 0 512s229.23 512 512 512Z" fill="#9ABEFF"/><path d="M144.64 551.88H128v-79.76h16.64v79.76ZM250.87 527v-54.88h16.52v79.76h-17l-40.11-55v55h-16.61v-79.76h17l40.2 54.88Zm59.4-54.92h57.09v14.7h-20.29v65.06h-16.52v-65.02h-20.28v-14.74Zm148.86 0v14.7h-32.36v17.09h27.92v14.7h-27.92v18.57h32.36v14.7h-49v-79.72l49-.04Zm111 79.76H550l-22.33-32.81h-5.36v32.81h-16.68v-79.72h32.13c8.207 0 14.473 2.203 18.8 6.61s6.53 10.163 6.61 17.27c0 11.62-5.773 18.723-17.32 21.31l24.28 34.53Zm-47.85-46.37h13.1c3.647 0 6.42-.72 8.32-2.16 1.9-1.44 2.9-3.87 3-7.29 0-3.267-1-5.62-3-7.06-2-1.44-4.773-2.16-8.32-2.16h-13.1v18.67ZM670.34 527v-54.88h16.52v79.76h-17l-40.11-55v55h-16.61v-79.76h17l40.2 54.88Zm104.52-16.29 27.58 41.13h-19.15l-17.43-27.35-17.32 27.35h-19l27.46-41-26-38.74h18.91l16 25 16.06-25h19l-26.11 38.61Zm64.06-38.63H896v14.7h-20.28v65.06h-16.53v-65.02h-20.28l.01-14.74Z" fill="#fff"/></g><defs><clipPath id="a"><path fill="#fff" d="M0 0h1024v1024H0z"/></clipPath></defs></svg>