<svg width="1024" height="1024" fill="none" xmlns="http://www.w3.org/2000/svg"><g clip-path="url(#a)"><path d="M512 1024c282.77 0 512-229.23 512-512S794.77 0 512 0 0 229.23 0 512s229.23 512 512 512Z" fill="#FF837D"/><path d="m512 576.141 77.28-215.57h171.379s24.151 1.19 35.421-12.68c6.719-.48-1.41 28.93-9 50.55-7.15 20.28-16 31.87-36.06 31.87h-90.9l-96.6 275.8h-103l-96.6-275.8H273c-20.1 0-28.91-11.59-36.06-31.87-7.62-21.61-15.74-51-9-50.55 11.27 13.87 35.42 12.68 35.42 12.68h171.36L512 576.141Zm-210-107.78s-24.15 1.19-35.42-12.68c-6.72-.48 1.41 28.93 9 50.55 7.15 20.28 16 31.87 36.06 31.87h71.56l-24.151-69.74H302Zm38.64 107.78s-24.15 1.19-35.42-12.68c-6.72-.48 1.41 28.93 9 50.55 7.15 20.28 16 31.87 36.06 31.87h71.56l-24.15-69.74h-57.05ZM722 468.361s24.149 1.19 35.419-12.68c6.72-.48-1.409 28.93-9 50.55-7.15 20.28-16 31.87-36.06 31.87h-71.56l24.151-69.74H722Zm-38.62 107.78s24.15 1.19 35.419-12.68c6.721-.48-1.41 28.93-9 50.55-7.149 20.28-16 31.87-36.059 31.87h-71.581l24.151-69.74h57.07Z" fill="#fff"/></g><defs><clipPath id="a"><path fill="#fff" d="M0 0h1024v1024H0z"/></clipPath></defs></svg>