<svg width="1024" height="1024" fill="none" xmlns="http://www.w3.org/2000/svg"><g clip-path="url(#a)"><path d="M512 1024c282.77 0 512-229.23 512-512S794.77 0 512 0 0 229.23 0 512s229.23 512 512 512Z" fill="#8C72BD"/><path d="m258.33 367.129 18-16.83a20.473 20.473 0 0 0 15.67 9.62c7.213 0 10.82-4.81 10.82-14.43v-63.71h27.65v63.72a33.61 33.61 0 0 1-37.27 37.27 36.381 36.381 0 0 1-34.87-15.64Zm79.35 15.63h80.55v-24h-54.1v-15.67h48.09v-21.64h-48.09v-15.63H417v-22.82h-80.52l1.2 99.76Zm115.41 0h27.65v-75.76h30.06v-24H423v24h30.06l.03 75.76Zm-192.35 122.63h51.7c22.84 0 37.27-10.82 37.27-27.65a23.407 23.407 0 0 0-19.24-24 23.503 23.503 0 0 0 15.63-22.84 23.779 23.779 0 0 0-6-16.83 44.513 44.513 0 0 0-27.65-8.42h-51.7l-.01 99.74Zm57.71-68.53c0 6-4.81 8.42-13.22 9.62h-16.84v-18h18c7.21 0 12 2.4 12 8.42l.06-.04Zm3.61 37.27c0 6-4.81 9.62-13.22 9.62h-21.65v-18h21.64c8.41-.04 13.22 2.37 13.22 8.38h.01Zm32.46 31.26h27.65v-30.06h12l20.44 30.06h31.26l-24-34.86a33.188 33.188 0 0 0 20.44-31.26 29.933 29.933 0 0 0-8.42-22.84 42.246 42.246 0 0 0-32.49-10.83h-46.89l.01 99.79Zm27.65-51.7v-24h18c8.42 0 14.43 3.61 14.43 12 0 7.21-4.81 12-14.43 12h-18Zm49.29 52.9h28.84l7.21-18H506l7.21 18h30.06l-42.08-101h-26.46l-43.27 101Zm45.68-40.88 10.86-27.65 10.82 27.65h-21.68Zm69.73 39.67h27.65v-99.78h-27.66l.01 99.78Zm34.86 1.2h27.65v-55.3l42.08 54.1h24v-99.78h-27.61v52.9l-40.85-52.9h-25.27v100.98Zm143.06 0c25.25 0 40.88-12 40.88-32.46 0-19.24-14.43-26.45-37.27-31.26-13.22-3.61-16.83-4.81-16.83-9.62 0-3.61 2.4-6 9.62-6a54.745 54.745 0 0 1 27.65 9.62l14.43-19.24a64.09 64.09 0 0 0-40.88-13.22c-24 0-38.47 14.43-38.47 32.46 0 20.44 15.63 26.45 37.27 31.26 13.22 3.61 16.83 4.81 16.83 9.62s-4.81 7.21-12 7.21a47.389 47.389 0 0 1-32.46-12l-15.63 18a63.635 63.635 0 0 0 46.86 15.64v-.01Zm-464.05 235.64h229.62v-38.47H260.74v38.47Z" fill="#fff"/></g><defs><clipPath id="a"><path fill="#fff" d="M0 0h1024v1024H0z"/></clipPath></defs></svg>