<svg width="1024" height="1024" viewBox="0 0 1024 1024" fill="none" xmlns="http://www.w3.org/2000/svg">
<g clip-path="url(#clip0_3_140)">
<path d="M512 1024C794.77 1024 1024 794.77 1024 512C1024 229.23 794.77 0 512 0C229.23 0 0 229.23 0 512C0 794.77 229.23 1024 512 1024Z" fill="#F9DE81"/>
<path d="M512 256C370.61 256 256 370.62 256 512C256 653.38 370.61 768 512 768C653.39 768 768 653.38 768 512C768 370.62 653.38 256 512 256ZM541.12 294.11L580.67 304.2V359.59L624.89 323.22L657.7 347.44L573.46 416.72L541.13 416.55L541.12 294.11ZM347.71 625.62L308.17 592V441.57L347.72 405.29L347.71 625.62ZM425.17 673L385.62 707.4V320.05L425.17 354.45V673ZM624.88 706.16L580.66 669.79V725.18L541.11 735.27V612.83L573.44 612.66L657.68 681.93L624.88 706.16ZM683.16 653.38L585 575H503.34V735.27H463.8V535.48H598.8L707.8 622.48L683.16 653.38ZM739.07 475.74L695.15 512L739.08 548.25L713.91 578.76L633 512L713.89 445.25L739.07 475.74ZM598.8 488.52H463.8V288.72H503.35V449H585L683.21 370.63L707.88 401.54L598.8 488.52Z" fill="#56595B"/>
</g>
<defs>
<clipPath id="clip0_3_140">
<rect width="1024" height="1024" fill="white"/>
</clipPath>
</defs>
</svg>
