<svg width="1024" height="1024" fill="none" xmlns="http://www.w3.org/2000/svg"><g clip-path="url(#a)"><path d="M512 1024c282.77 0 512-229.23 512-512S794.77 0 512 0 0 229.23 0 512s229.23 512 512 512Z" fill="#F9DE81"/><path d="M512 256c-141.39 0-256 114.62-256 256s114.61 256 256 256 256-114.62 256-256-114.62-256-256-256Zm29.12 38.11 39.55 10.09v55.39l44.22-36.37 32.81 24.22-84.24 69.28-32.33-.17-.01-122.44ZM347.71 625.62 308.17 592V441.57l39.55-36.28-.01 220.33ZM425.17 673l-39.55 34.4V320.05l39.55 34.4V673Zm199.71 33.16-44.22-36.37v55.39l-39.55 10.09V612.83l32.33-.17 84.24 69.27-32.8 24.23Zm58.28-52.78L585 575h-81.66v160.27H463.8V535.48h135l109 87-24.64 30.9Zm55.91-177.64L695.15 512l43.93 36.25-25.17 30.51L633 512l80.89-66.75 25.18 30.49ZM598.8 488.52h-135v-199.8h39.55V449H585l98.21-78.37 24.67 30.91-109.08 86.98Z" fill="#56595B"/></g><defs><clipPath id="a"><path fill="#fff" d="M0 0h1024v1024H0z"/></clipPath></defs></svg>