<svg width="1024" height="1024" viewBox="0 0 1024 1024" fill="none" xmlns="http://www.w3.org/2000/svg">
<g clip-path="url(#clip0_3_152)">
<path d="M512 1024C794.77 1024 1024 794.77 1024 512C1024 229.23 794.77 0 512 0C229.23 0 0 229.23 0 512C0 794.77 229.23 1024 512 1024Z" fill="#A0A5AF"/>
<path d="M152.23 576.11C162.11 576.72 325.72 587.2 512 588.15C698.28 587.2 861.89 576.72 871.77 576.11C891.41 573.97 896 565.26 896 551.88V472.12C896 458.73 891.41 450.03 871.77 447.89C861.89 447.28 698.28 436.8 512 435.85C325.72 436.8 162.11 447.28 152.23 447.89C132.59 450.03 128 458.74 128 472.12V551.88C128 565.26 132.59 573.97 152.23 576.11ZM832.19 522.97C831.92 517.06 819.6 513.98 804.47 514.38C789.33 514.78 777.33 518.49 777.61 524.4C777.88 530.31 790.18 533.13 805.32 532.74C820.45 532.34 832.47 528.88 832.19 522.97ZM854.11 481.35C856.1 481.3 844.2 497.85 844.2 497.85C844.2 497.85 831.19 490.51 810.1 491.06C787.52 491.65 769.92 497.66 770.23 509.86C782.88 503.99 794.94 501.78 811.32 501.35C837.37 500.67 864.77 507.5 865.47 522.59C866.21 538.69 834.25 545.82 807.71 546.52C765.78 547.62 736.28 538.2 735.22 515.31C734.25 494.44 766.86 479.85 806.31 478.82C821.94 478.41 832.65 479.01 840.14 479.82C847.63 480.63 851.89 481.4 854.12 481.34L854.11 481.35ZM664.06 533.8H590.91V519.57H659.15V505.96H590.91V493.33H662.83L659.9 479.81H547.32V547.32H662.32L664.07 533.8H664.06ZM516.15 550.48L529.66 547.25V479.74H488.93V516.67L412.33 476.69L399.14 479.74V547.25H439.87V511.55L516.15 550.47V550.48ZM301.63 493.35H320.82V533.64H301.63L299.78 547.25H385.63L383.78 533.64H364.41V493.35H383.78L385.63 479.74H299.78L301.63 493.35ZM286.98 547.25V528.49L252.61 533.74H217.42V479.75H173.82V547.26H286.97L286.98 547.25ZM690.55 576.09C637.34 577.89 576.05 579.36 512.01 579.7C326.63 578.71 171.25 568.28 161.4 567.67C141.64 566 137.17 564.64 137.17 543.44V480.55C136.98 464.8 138.05 457.31 161.4 456.32C171.25 455.71 326.63 445.28 512.01 444.29C576.27 444.63 637.76 446.11 691.09 447.92C706.31 488.89 704.85 535.06 690.55 576.09Z" fill="white"/>
</g>
<defs>
<clipPath id="clip0_3_152">
<rect width="1024" height="1024" fill="white"/>
</clipPath>
</defs>
</svg>
