<svg width="1024" height="1024" viewBox="0 0 1024 1024" fill="none" xmlns="http://www.w3.org/2000/svg">
<g clip-path="url(#clip0_3_155)">
<path d="M512 1024C794.77 1024 1024 794.77 1024 512C1024 229.23 794.77 0 512 0C229.23 0 0 229.23 0 512C0 794.77 229.23 1024 512 1024Z" fill="#F9DE81"/>
<path d="M633.71 497.909C637.236 497.46 640.804 497.46 644.33 497.909C646.23 493.529 646.55 485.979 644.84 477.769C642.27 465.559 638.84 458.169 631.74 459.319C624.64 460.469 624.34 469.319 626.91 481.529C628.34 488.389 630.91 494.269 633.73 497.899L633.71 497.909ZM572.58 507.569C577.69 509.809 580.81 511.289 582.03 510.009C582.82 509.199 582.59 507.659 581.39 505.669C578.87 501.539 573.69 497.379 568.2 495.049C562.508 492.686 556.304 491.831 550.185 492.565C544.067 493.299 538.241 495.597 533.27 499.239C529.85 501.739 526.64 505.239 527.07 507.319C527.24 507.999 527.73 508.519 528.93 508.689C531.75 509.009 541.56 504.049 552.87 503.349C560.87 502.859 567.49 505.349 572.58 507.599V507.569ZM562.32 513.429C555.69 514.499 552.04 516.679 549.69 518.709C547.69 520.459 546.44 522.409 546.44 523.779L546.95 524.999L548.04 525.429C549.714 525.178 551.35 524.718 552.91 524.059C559.726 521.487 567.091 520.722 574.29 521.839C577.6 522.219 579.21 522.439 579.91 521.279C580.1 520.947 580.186 520.565 580.156 520.183C580.126 519.801 579.981 519.437 579.74 519.139C578.18 516.619 571.47 512.359 562.34 513.449L562.32 513.429ZM613.09 534.929C617.58 537.149 622.54 536.279 624.16 533.009C625.78 529.739 623.43 525.229 618.92 523.009C614.41 520.789 609.47 521.659 607.85 524.929C606.23 528.199 608.57 532.729 613.08 534.929H613.09ZM642.09 509.579C638.43 509.519 635.38 513.579 635.31 518.579C635.24 523.579 638.11 527.729 641.77 527.789C645.43 527.849 648.48 523.789 648.57 518.789C648.66 513.789 645.7 509.669 642 509.579H642.09ZM396.19 600.269C395.29 599.139 393.8 599.479 392.34 599.819C391.224 600.118 390.075 600.276 388.92 600.289C387.7 600.316 386.493 600.042 385.404 599.49C384.316 598.939 383.38 598.128 382.68 597.129C381.01 594.559 381.12 590.739 382.94 586.359L383.8 584.359C386.75 577.779 391.67 566.729 386.15 556.209C382 548.299 375.23 543.339 367.08 542.319C363.228 541.827 359.315 542.259 355.664 543.579C352.012 544.899 348.727 547.069 346.08 549.909C337.98 558.839 336.72 571.029 338.3 575.349C338.88 576.909 339.77 577.349 340.42 577.439C341.81 577.629 343.84 576.629 345.12 573.159L345.48 572.049C346.254 569.279 347.383 566.62 348.84 564.139C350.97 560.872 354.311 558.586 358.127 557.781C361.943 556.977 365.922 557.72 369.19 559.849C371.952 561.674 374.001 564.394 374.994 567.551C375.986 570.709 375.861 574.112 374.64 577.189C373.38 580.629 371.35 587.189 371.8 592.579C372.72 603.519 379.43 607.909 385.44 608.399C391.3 608.609 395.44 605.299 396.44 602.889C396.679 602.475 396.788 601.998 396.75 601.521C396.713 601.045 396.531 600.59 396.23 600.219L396.19 600.269ZM734.45 580.269C734.24 579.479 732.78 574.159 730.77 567.739L726.71 556.839C734.71 544.839 734.85 534.049 733.81 527.979C732.66 520.429 729.53 513.979 723.21 507.369C716.89 500.759 703.97 493.899 685.8 488.819L676.29 486.169C676.29 485.789 675.8 463.659 675.37 454.169C675.09 447.329 674.49 436.599 671.18 426.059C667.18 411.759 660.34 399.279 651.73 391.279C675.46 366.659 690.27 339.509 690.23 316.279C690.17 271.499 635.23 257.929 567.62 286.009L553.3 292.099C544.546 283.486 535.783 274.886 527.01 266.299C449.85 198.879 208.71 467.399 285.79 532.629L302.65 546.909C298.091 559.138 296.481 572.271 297.95 585.239C299.77 603.239 309 620.379 323.95 633.679C338.16 646.289 356.87 654.309 375.01 654.289C405 723.499 473.55 765.999 553.92 768.389C640.15 770.959 712.52 730.389 742.92 657.619C744.92 652.489 753.31 629.469 753.31 609.159C753.31 588.849 741.74 580.269 734.41 580.269H734.45ZM381.65 634.769C379.008 635.22 376.329 635.415 373.65 635.349C347.65 634.639 319.49 611.169 316.65 583.349C313.55 552.569 329.26 528.889 357.05 523.289C360.896 522.52 364.823 522.231 368.74 522.429C384.32 523.289 407.28 535.259 412.52 569.259C417.16 599.359 409.78 630.029 381.61 634.839L381.65 634.769ZM352.58 504.769C335.27 508.129 320 517.959 310.68 531.529C305.1 526.869 294.68 517.849 292.87 514.339C277.97 486.019 309.12 430.929 330.87 399.829C384.67 322.969 468.87 264.829 507.87 275.339C514.2 277.139 535.19 301.499 535.19 301.499C535.19 301.499 496.19 323.149 460.08 353.359C411.39 390.999 374.6 445.559 352.56 504.809L352.58 504.769ZM625.91 623.269C626.198 623.139 626.438 622.923 626.599 622.651C626.76 622.379 626.834 622.064 626.81 621.749C626.791 621.562 626.736 621.38 626.646 621.214C626.557 621.049 626.436 620.902 626.29 620.783C626.145 620.664 625.977 620.575 625.796 620.521C625.616 620.467 625.427 620.45 625.24 620.469C625.24 620.469 584.46 626.469 545.92 612.369C550.11 598.709 561.27 603.649 578.15 605.019C604.375 606.575 630.675 603.729 655.96 596.599C673.4 591.599 696.32 581.679 714.14 567.599C717.968 576.48 720.695 585.796 722.26 595.339C725.197 594.906 728.196 595.454 730.79 596.899C734.45 599.169 737.14 603.899 735.3 616.029C731.56 638.749 721.92 657.199 705.72 674.169C695.599 685.135 683.549 694.149 670.17 700.759C662.736 704.686 654.986 707.981 647 710.609C585.91 730.609 523.37 708.609 503.21 661.449C501.57 657.84 500.212 654.109 499.15 650.289C490.58 619.189 497.87 581.889 520.67 558.399C522.06 556.899 523.49 555.129 523.49 552.929C523.49 551.069 522.31 549.129 521.31 547.739C513.31 536.149 485.7 516.399 491.26 478.189C495.26 450.719 519.26 431.399 541.56 432.549L547.22 432.869C556.9 433.449 565.35 434.689 573.34 435.029C586.68 435.609 598.67 433.659 612.88 421.799C617.67 417.799 621.52 414.319 628.01 413.229C629.892 412.74 631.839 412.551 633.78 412.669C637.253 412.801 640.625 413.88 643.53 415.789C654.92 423.379 656.53 441.789 657.12 455.229C657.46 462.929 658.38 481.479 658.7 486.819C659.43 498.999 662.61 500.709 669.09 502.819C672.72 504.039 676.09 504.939 681.09 506.329C696.16 510.579 705.09 514.879 710.74 520.419C713.66 523.269 715.561 527.001 716.15 531.039C717.95 544.039 706.15 560.039 674.73 574.669C640.42 590.619 598.85 594.669 570.1 591.449L560 590.329C537 587.229 523.9 616.979 537.68 637.329C546.57 650.479 570.81 659.029 595.03 659.029C650.61 659.029 693.31 635.279 709.19 614.739L710.47 612.919C711.24 611.739 710.6 611.099 709.61 611.769C696.61 620.659 638.99 655.989 577.3 645.349C572.426 644.509 567.639 643.223 563 641.509C557.57 639.389 546.2 634.159 544.83 622.509C594.59 637.919 625.91 623.339 625.91 623.339V623.269ZM451.88 399.609C471.01 377.469 494.54 358.229 515.62 347.429C515.777 347.349 515.956 347.32 516.131 347.349C516.305 347.377 516.466 347.46 516.59 347.586C516.714 347.713 516.794 347.875 516.819 348.05C516.844 348.225 516.813 348.403 516.73 348.559C515.04 351.559 511.81 358.109 510.81 363.029C510.771 363.195 510.783 363.369 510.844 363.528C510.906 363.687 511.013 363.824 511.154 363.921C511.294 364.018 511.46 364.071 511.631 364.072C511.801 364.074 511.968 364.024 512.11 363.929C525.23 354.929 548.04 345.379 568.11 344.159C568.298 344.149 568.484 344.199 568.642 344.303C568.799 344.406 568.919 344.558 568.984 344.734C569.049 344.911 569.056 345.104 569.003 345.285C568.95 345.466 568.84 345.625 568.69 345.739C565.386 348.285 562.431 351.254 559.9 354.569C559.807 354.695 559.75 354.844 559.736 354.999C559.721 355.155 559.749 355.312 559.817 355.453C559.885 355.594 559.99 355.714 560.121 355.799C560.252 355.885 560.403 355.933 560.56 355.939C574.56 356.049 594.42 360.939 607.33 368.229C608.19 368.719 607.59 370.409 606.6 370.229C587.06 365.739 555.09 362.319 521.87 370.439C492.22 377.689 469.59 388.869 453.09 400.899C452.915 401.018 452.704 401.07 452.494 401.046C452.285 401.022 452.091 400.923 451.948 400.768C451.805 400.613 451.722 400.411 451.715 400.201C451.708 399.99 451.777 399.783 451.91 399.619L451.88 399.609Z" fill="#56595B"/>
</g>
<defs>
<clipPath id="clip0_3_155">
<rect width="1024" height="1024" fill="white"/>
</clipPath>
</defs>
</svg>
