<svg width="1024" height="1024" fill="none" xmlns="http://www.w3.org/2000/svg"><g clip-path="url(#a)"><path d="M512 1024c282.77 0 512-229.23 512-512S794.77 0 512 0 0 229.23 0 512s229.23 512 512 512Z" fill="#FF837D"/><path d="M677.14 443.199a99.654 99.654 0 0 0-127.4-7.85 123.843 123.843 0 0 0-37.47 48.82c-3.71-6.53-6.69-12.35-10.12-17.83-34.25-55.2-99.62-66.66-150.72-26.55-36.71 28.83-54.16 84.91-41.05 131.79a220.527 220.527 0 0 0 52.14 87.62 629.905 629.905 0 0 0 146.28 116.19 9.525 9.525 0 0 0 8.07-.64 662.125 662.125 0 0 0 125.33-95.15 308.495 308.495 0 0 0 62.17-82.6 132.14 132.14 0 0 0-27.23-153.8Zm-200.19 221.34c.18-2.22.491-4.427.93-6.61 5.47-21 10.78-42.09 16.68-63a8.149 8.149 0 0 0-2.71-10 29.734 29.734 0 0 1-9.55-34.43 31.489 31.489 0 0 1 28.16-21.5 32.464 32.464 0 0 1 30 17.58 29.821 29.821 0 0 1-5 35.3 12.999 12.999 0 0 0-4 15.43c6.08 20.6 11.21 41.44 16.7 62.19.39 1.4.56 3 .91 4.94l-72.12.1Zm-83.07-398.27a23.29 23.29 0 0 1 19.64-17.51 22.421 22.421 0 0 1 24.56 15.06c3 8.37 1.28 15.57-6.68 26.21 9.13 8.6 18 17.77 27.81 25.88 8 6.67 12.25 6 17.56-2.9 7.48-12.45 14.16-25.41 20.63-38.43.85-1.71-.82-5.58-2.45-7.48a23.19 23.19 0 0 1 1.11-32.77c.44-.413.893-.807 1.36-1.18a22.999 22.999 0 0 1 32.34 3.34c.271.32.525.653.76 1a22.642 22.642 0 0 1-1.93 29.25 6.99 6.99 0 0 0-1.911 1.974 6.99 6.99 0 0 0-.948 5.303c.2.903.577 1.757 1.109 2.513l.15.2c6.91 12.18 13.14 24.77 20.5 36.74 5.07 8.26 8.48 8.37 16.52 2.83a75.47 75.47 0 0 0 10.24-8.45c6.09-6 11.88-12.38 17.69-18.51-11.27-15.34-9.23-31 4.57-38.31a22.999 22.999 0 0 1 31 9.29 22.41 22.41 0 0 1 2.091 17.052A22.396 22.396 0 0 1 619 290.889c-.42.234-.844.457-1.27.67a14.124 14.124 0 0 0-8.82 11.27c-5.24 21.63-11 43.11-16.35 64.7a11.064 11.064 0 0 1-12.16 9.47c-45.62 0-91.234.047-136.84.14a11.078 11.078 0 0 1-12.22-9.36c-5.58-22.08-11.54-44-16.93-66.16a11.995 11.995 0 0 0-7.68-9.44 22.835 22.835 0 0 1-12.85-25.91Z" fill="#fff"/></g><defs><clipPath id="a"><path fill="#fff" d="M0 0h1024v1024H0z"/></clipPath></defs></svg>