<svg width="1024" height="1024" viewBox="0 0 1024 1024" fill="none" xmlns="http://www.w3.org/2000/svg">
<g clip-path="url(#clip0_3_170)">
<path d="M512 1024C794.77 1024 1024 794.77 1024 512C1024 229.23 794.77 0 512 0C229.23 0 0 229.23 0 512C0 794.77 229.23 1024 512 1024Z" fill="#F9DE81"/>
<path d="M442.901 425.1L459.801 408.2C459.901 408.1 460.001 408.1 460.001 408C464.601 404.8 469.401 401.9 474.701 399.4C478.101 397.8 481.701 396.3 485.601 394.9C487.801 394.2 490.001 393.5 492.401 392.8C494.701 392.2 497.201 391.6 499.701 391.1C502.201 390.6 504.801 390.1 507.501 389.8C512.901 389 518.701 388.6 525.001 388.4H530.801C531.301 388.4 531.801 388.4 532.301 388.5C532.801 388.5 533.401 388.5 533.901 388.6C534.401 388.6 534.901 388.7 535.401 388.7C535.901 388.7 536.501 388.8 537.001 388.8C537.501 388.8 538.001 388.9 538.501 388.9C539.001 389 539.601 389 540.101 389.1C540.601 389.2 541.101 389.2 541.601 389.3C542.101 389.4 542.601 389.4 543.201 389.5C543.701 389.6 544.201 389.6 544.701 389.7C545.201 389.8 545.701 389.8 546.201 389.9C546.701 390 547.201 390.1 547.701 390.1C548.201 390.2 548.701 390.3 549.201 390.3L550.701 390.6L552.201 390.9L553.701 391.2C554.201 391.3 554.701 391.4 555.101 391.5C555.601 391.6 556.101 391.7 556.501 391.8C557.001 391.9 557.401 392 557.901 392.1C558.401 392.2 558.801 392.3 559.301 392.4C559.801 392.5 560.201 392.6 560.701 392.7C561.201 392.8 561.601 392.9 562.101 393C562.501 393.1 563.001 393.2 563.401 393.3C563.801 393.4 564.301 393.5 564.701 393.6C565.101 393.7 565.601 393.8 566.001 393.9C566.401 394 566.901 394.1 567.301 394.3L568.501 394.6C568.901 394.7 569.301 394.8 569.801 395C570.201 395.1 570.601 395.2 571.001 395.4C571.401 395.5 571.801 395.6 572.201 395.8C572.601 395.9 573.001 396 573.301 396.2C573.701 396.3 574.101 396.4 574.501 396.6C574.901 396.7 575.201 396.8 575.601 396.9C576.001 397 576.401 397.1 576.701 397.3C577.001 397.4 577.401 397.5 577.701 397.6C578.101 397.7 578.401 397.8 578.801 398C579.101 398.1 579.401 398.2 579.801 398.3C580.101 398.4 580.501 398.5 580.801 398.7L581.701 399L582.601 399.3C582.901 399.4 583.201 399.5 583.401 399.6L584.301 399.9C584.601 400 584.801 400.1 585.101 400.2C585.401 400.3 585.701 400.4 585.901 400.5C586.101 400.6 586.401 400.7 586.601 400.8C586.801 400.9 587.101 401 587.301 401.1L587.901 401.4C588.101 401.5 588.401 401.6 588.601 401.7C588.801 401.8 589.001 401.8 589.101 401.9C589.301 402 589.501 402.1 589.701 402.1C589.901 402.2 590.001 402.2 590.201 402.3C590.401 402.4 590.501 402.4 590.701 402.5C590.901 402.6 591.001 402.6 591.101 402.7C591.201 402.8 591.401 402.8 591.501 402.9C591.601 403 591.701 403 591.801 403.1C591.901 403.1 592.001 403.2 592.101 403.2C592.201 403.3 592.301 403.3 592.401 403.3C592.501 403.3 592.501 403.4 592.601 403.4C592.701 403.4 592.701 403.4 592.801 403.5C592.901 403.6 593.001 403.6 593.001 403.6C594.601 404.4 596.101 405.1 597.701 405.8C597.901 405.9 598.201 406 598.401 406.1C599.901 406.8 601.401 407.4 602.901 408C603.201 408.1 603.501 408.2 603.801 408.4L608.301 410.2C608.501 410.3 608.701 410.4 608.901 410.4C610.401 411 611.901 411.5 613.401 412C613.501 412 613.601 412.1 613.701 412.1C615.201 412.6 616.801 413.1 618.301 413.6C618.601 413.7 618.801 413.8 619.101 413.9C620.601 414.4 622.101 414.8 623.501 415.2C623.801 415.3 624.101 415.4 624.301 415.4L628.801 416.6C629.001 416.6 629.101 416.7 629.301 416.7C630.801 417.1 632.201 417.4 633.701 417.7C633.901 417.7 634.001 417.8 634.201 417.8L638.701 418.7C639.001 418.8 639.301 418.8 639.501 418.9C641.001 419.2 642.401 419.4 643.901 419.7C644.201 419.7 644.401 419.8 644.701 419.8C646.201 420 647.701 420.3 649.301 420.5H649.601C651.101 420.7 652.601 420.9 654.101 421C654.301 421 654.501 421 654.701 421.1C656.201 421.3 657.701 421.4 659.101 421.5C659.401 421.5 659.701 421.5 659.901 421.6C661.401 421.7 662.801 421.8 664.301 421.9H665.001C666.501 422 668.101 422 669.601 422.1C671.101 422.1 672.701 422.2 674.201 422.2H674.801C676.901 422.2 679.001 422.2 681.101 422.1L687.401 421.8H687.901C689.901 421.7 691.801 421.5 693.701 421.3C693.901 421.3 694.101 421.3 694.301 421.2C696.301 421 698.201 420.8 700.201 420.6H700.601C702.701 420.3 704.701 420.1 706.801 419.8H707.001C709.001 419.5 711.001 419.2 713.001 418.8C713.201 418.8 713.401 418.7 713.501 418.7C715.401 418.4 717.301 418 719.101 417.6C719.301 417.6 719.501 417.5 719.701 417.5C721.601 417.1 723.501 416.7 725.501 416.2C725.601 416.2 725.701 416.2 725.801 416.1C727.801 415.6 729.801 415.2 731.701 414.6C731.801 414.6 731.901 414.5 732.001 414.5C733.901 414 735.801 413.5 737.601 413C737.801 412.9 738.001 412.9 738.201 412.8C740.001 412.3 741.801 411.8 743.601 411.2C743.801 411.1 743.901 411.1 744.101 411C746.001 410.4 747.801 409.8 749.701 409.2C749.801 409.2 749.801 409.2 749.901 409.1C751.801 408.5 753.701 407.8 755.601 407.2C755.701 407.2 755.901 407.1 756.001 407.1C757.801 406.5 759.501 405.8 761.301 405.2C761.501 405.1 761.701 405.1 761.901 405C763.601 404.4 765.301 403.7 767.001 403C767.201 402.9 767.301 402.9 767.501 402.8C769.301 402.1 771.101 401.4 772.901 400.6C773.101 400.8 773.301 400.9 773.501 401.1C775.501 402.7 777.401 404.3 779.301 406C780.701 407.2 782.101 408.4 783.401 409.6C785.501 411.5 787.501 413.4 789.401 415.3C790.501 416.4 791.601 417.4 792.601 418.5C793.601 419.5 794.601 420.6 795.601 421.6C796.701 422.8 797.801 423.9 798.801 425.1C801.101 427.6 803.201 430.1 805.301 432.6C806.301 433.8 807.301 435 808.201 436.2C809.401 437.8 810.701 439.4 811.901 441C814.401 444.3 816.701 447.7 818.901 451.2C821.801 455.8 824.501 460.4 826.901 465.2C828.101 467.6 829.301 469.9 830.301 472.3C831.401 474.7 832.401 477.1 833.401 479.5C837.201 489.2 840.001 499.2 841.601 509.3C832.001 511.5 822.701 513.8 813.801 516.1C808.201 517.6 802.801 519 797.501 520.5C794.301 521.4 791.201 522.3 788.201 523.2L785.201 524.1L779.201 525.9C773.301 527.7 767.701 529.5 762.301 531.2L759.601 532.1C754.301 533.8 749.301 535.6 744.501 537.2C742.101 538 739.801 538.9 737.601 539.7C727.901 543.2 719.701 546.4 713.001 549.1C711.501 549.7 710.001 550.3 708.601 550.9C707.201 551.5 705.901 552 704.701 552.5C702.401 553.5 700.401 554.3 698.801 555.1C691.701 548.9 665.401 526 643.001 506.8C615.801 483.4 580.801 453.6 568.101 444H567.901C552.401 432.6 542.801 429.1 533.201 427.3H533.001C531.201 427 529.301 426.9 527.301 426.9C522.701 426.9 517.501 427.7 513.101 429.1C502.201 432.1 487.701 440.6 470.001 454.3L467.801 456.1C456.401 465.1 445.601 473.7 437.501 475.2L437.201 475.3L436.901 475.4C434.101 476.1 431.001 476.4 427.701 476.4C418.101 476.4 409.101 473.5 405.401 470.8L405.001 470.5L404.501 470.2C403.701 469.7 403.001 469.1 402.401 468.2C402.601 467.9 402.801 467.5 403.201 467.2L403.401 467L403.601 466.8L432.401 435.1L435.701 431.8L442.901 425.1ZM515.401 641.5C514.901 639.6 514.301 637.9 513.401 636.2C513.001 635.4 512.501 634.5 512.101 633.7C507.001 625.3 497.801 619.7 487.301 619.7C486.501 619.7 485.701 619.8 484.801 619.9C484.001 620 483.201 620.1 482.301 620.3C480.701 620.6 479.101 621.1 477.801 621.5C477.101 621.7 476.501 622 475.901 622.2C475.801 622.2 475.701 622.3 475.701 622.3C474.901 622.6 474.301 622.8 473.801 623C473.301 623.2 472.901 623.3 472.801 623.3C472.501 623.3 472.501 622.9 472.501 622.2C472.601 621.7 472.701 621.1 472.901 620.6C473.101 620 473.301 619.4 473.501 618.9C473.601 618.6 474.101 617.5 474.501 615.8C474.601 615.2 474.801 614.6 474.901 613.9C475.001 613.2 475.201 612.4 475.301 611.6C475.401 610.8 475.501 610 475.601 609.1C475.701 607.8 475.801 606.4 475.801 604.9C475.801 603.9 475.801 602.9 475.701 601.9C475.501 599.9 475.201 597.9 474.501 595.9C473.901 593.9 473.001 591.9 471.701 590.1C471.401 589.6 471.101 589.2 470.701 588.7C468.601 586 465.701 583.7 461.801 581.9C461.301 581.7 460.701 581.4 460.201 581.2C460.001 581.1 459.901 581.1 459.701 581C459.301 580.9 459.001 580.7 458.601 580.6C458.401 580.5 458.201 580.5 458.001 580.4C457.701 580.3 457.401 580.2 457.001 580.1C456.801 580 456.601 580 456.401 579.9C456.101 579.8 455.801 579.7 455.501 579.7C455.301 579.7 455.101 579.6 455.001 579.6C454.701 579.5 454.301 579.5 454.001 579.4C453.901 579.4 453.701 579.3 453.601 579.3C453.101 579.2 452.701 579.2 452.201 579.1H452.001C451.601 579.1 451.201 579 450.901 579H447.601C447.101 579 446.701 579.1 446.201 579.1H445.901C445.501 579.2 445.201 579.2 444.901 579.3C444.801 579.3 444.701 579.3 444.601 579.4L443.401 579.7H443.301C442.901 579.8 442.601 579.9 442.201 580C442.101 580 442.001 580.1 441.901 580.1L441.001 580.4C440.901 580.4 440.901 580.4 440.801 580.5C440.401 580.6 440.101 580.8 439.801 580.9C439.701 580.9 439.601 581 439.501 581C439.201 581.1 439.001 581.3 438.701 581.4C438.601 581.4 438.501 581.5 438.501 581.5C438.201 581.7 437.901 581.8 437.601 582L437.501 582.1C437.301 582.2 437.001 582.4 436.801 582.6L436.601 582.8C436.401 583 436.101 583.1 435.901 583.3C435.901 583.3 435.801 583.3 435.801 583.4C435.601 583.6 435.301 583.8 435.101 583.9C435.001 583.9 435.001 584 434.901 584C434.701 584.1 434.601 584.3 434.401 584.4L434.301 584.5C434.101 584.7 433.901 584.8 433.801 585L433.701 585.1L433.301 585.5L433.201 585.6C433.101 585.8 432.901 585.9 432.801 586C432.401 586.4 432.101 586.5 431.801 586.5C431.501 586.5 431.301 586.3 431.301 586V585.6C431.301 585 431.201 584.2 431.101 583.4C431.001 583 431.001 582.5 430.901 582.1C430.701 581 430.301 579.7 429.901 578.4C429.601 577.6 429.301 576.8 428.901 576C428.601 575.5 428.301 574.9 428.001 574.4C427.701 573.9 427.301 573.3 426.901 572.8C425.701 571.2 424.301 569.7 422.501 568.3C421.901 567.8 421.301 567.4 420.601 567C418.901 566 416.901 565.1 414.701 564.4C414.101 564.2 413.601 564.1 413.001 563.9C412.801 563.9 412.701 563.8 412.501 563.8C412.101 563.7 411.601 563.6 411.201 563.5C411.101 563.5 411.001 563.4 410.801 563.4C410.301 563.3 409.701 563.2 409.201 563.1C409.101 563.1 408.901 563.1 408.801 563C408.401 562.9 408.001 562.9 407.601 562.8H407.201C406.701 562.8 406.201 562.7 405.701 562.7H402.201C401.901 562.7 401.501 562.8 401.201 562.8H400.801C399.901 562.9 398.901 563.1 398.001 563.3C397.901 563.3 397.801 563.4 397.601 563.4C397.301 563.5 397.001 563.6 396.601 563.7C396.501 563.7 396.301 563.8 396.201 563.8L395.301 564.1C395.201 564.1 395.101 564.2 394.901 564.2C394.601 564.3 394.201 564.5 393.901 564.6C393.801 564.6 393.801 564.6 393.701 564.7C393.301 564.9 392.901 565 392.501 565.2C392.501 565.2 392.401 565.2 392.401 565.3C392.101 565.5 391.701 565.6 391.401 565.8C391.301 565.9 391.201 565.9 391.101 566C390.801 566.1 390.601 566.3 390.301 566.4C390.201 566.5 390.101 566.5 390.001 566.6C389.701 566.8 389.501 566.9 389.201 567.1C389.101 567.1 389.001 567.2 389.001 567.2C388.301 567.6 387.701 568.1 387.001 568.5C386.901 568.5 386.901 568.6 386.801 568.6C386.501 568.8 386.301 569 386.101 569.2C386.001 569.3 385.901 569.3 385.901 569.4C385.701 569.6 385.501 569.7 385.301 569.9C385.201 570 385.101 570 385.101 570.1C384.901 570.3 384.601 570.5 384.401 570.7L384.301 570.8C383.801 571.3 383.301 571.7 382.801 572.2L382.601 572.4L382.101 572.9L381.901 573.1L381.401 573.6L381.201 573.8L380.701 574.3V574.4L380.601 574.5C380.401 574.7 380.201 574.9 380.101 575.1L380.001 575.2C379.901 575.4 379.701 575.5 379.601 575.7L379.401 575.9C379.301 576 379.201 576.2 379.101 576.3C379.101 576.4 379.001 576.4 379.001 576.5C378.901 576.6 378.801 576.7 378.701 576.9L378.601 577C378.501 577.2 378.401 577.3 378.301 577.5C378.301 577.2 378.201 576.9 378.201 576.6C376.401 565.4 367.201 557.1 355.101 557.1C345.101 557.1 336.801 563.1 333.401 571.8C332.401 574.4 331.801 577.3 331.801 580.3C331.801 593.4 342.001 603.5 355.001 603.5C361.501 603.5 366.601 601.3 371.001 597V597.7C370.801 599.2 370.501 601.6 370.601 604.5C370.601 605.2 370.601 606 370.701 606.8C370.801 608.8 371.101 610.9 371.701 613C372.001 614.3 372.401 615.6 373.001 616.9C373.701 618.6 374.601 620.4 375.801 622.1C377.201 624.2 379.101 626.2 381.401 628C382.301 628.7 383.301 629.4 384.401 630C386.001 631 387.901 631.8 389.901 632.6C390.401 632.8 390.901 633 391.301 633.1C391.401 633.1 391.501 633.2 391.601 633.2C392.101 633.4 392.501 633.5 393.001 633.6H393.201L394.401 633.9H394.701C395.101 634 395.601 634 396.001 634.1H396.301C396.701 634.1 397.101 634.1 397.501 634.2H397.901C398.401 634.2 398.901 634.2 399.501 634.1C399.701 634.1 399.801 634.1 400.001 634C400.501 633.9 400.901 633.9 401.401 633.8C401.501 633.8 401.701 633.8 401.801 633.7C402.401 633.6 402.901 633.4 403.501 633.3C403.601 633.3 403.701 633.2 403.901 633.2C404.301 633.1 404.801 632.9 405.201 632.7C405.401 632.6 405.501 632.6 405.701 632.5C406.201 632.3 406.601 632.1 407.101 631.9C407.201 631.9 407.301 631.8 407.401 631.8C407.901 631.5 408.501 631.3 409.001 631C409.101 630.9 409.301 630.8 409.401 630.8C409.801 630.6 410.201 630.4 410.601 630.1C410.701 630 410.901 629.9 411.001 629.8C411.501 629.5 412.001 629.2 412.501 628.8C412.701 628.6 413.001 628.5 413.101 628.4C413.201 628.4 413.201 628.3 413.301 628.3C413.401 628.2 413.501 628.2 413.701 628.1C413.701 628.1 413.801 628.1 413.801 628C413.901 628 414.001 627.9 414.101 627.9H414.201C414.301 627.9 414.401 627.9 414.401 628C414.501 628 414.501 628.1 414.501 628.2C414.501 628.3 414.601 628.4 414.601 628.5V629.5C414.601 629.8 414.501 630.2 414.501 630.5C414.501 630.9 414.401 631.3 414.401 631.7V632.3C414.401 632.7 414.401 633.2 414.501 633.6C414.601 634.5 414.701 635.5 415.001 636.5C415.201 637.5 415.601 638.6 416.101 639.7C416.301 640.2 416.601 640.8 416.901 641.3C417.201 641.8 417.501 642.4 417.901 642.9C418.701 644 419.601 645.1 420.701 646.1C421.301 646.6 421.901 647.2 422.501 647.7C424.801 649.5 427.701 651.2 431.301 652.6C431.701 652.8 432.101 652.9 432.601 653.1C432.701 653.1 432.901 653.2 433.001 653.2C433.301 653.3 433.601 653.4 433.801 653.5C434.001 653.5 434.101 653.6 434.201 653.6C434.501 653.7 434.701 653.7 435.001 653.8C435.101 653.8 435.301 653.9 435.401 653.9C435.701 654 435.901 654 436.201 654.1C436.301 654.1 436.501 654.2 436.601 654.2C436.901 654.3 437.201 654.3 437.501 654.4H437.701C438.101 654.5 438.401 654.5 438.801 654.5H439.101C439.301 654.5 439.601 654.5 439.801 654.6H442.201C442.601 654.6 442.901 654.5 443.201 654.5H443.501C443.801 654.5 444.001 654.4 444.301 654.4H444.501C444.801 654.3 445.101 654.3 445.501 654.2H445.701C446.001 654.1 446.201 654.1 446.501 654C446.601 654 446.701 653.9 446.801 653.9C447.101 653.8 447.301 653.7 447.601 653.6H447.701C448.001 653.5 448.301 653.4 448.501 653.2C448.601 653.2 448.601 653.1 448.701 653.1L449.301 652.8C449.401 652.8 449.401 652.7 449.501 652.7C449.801 652.6 450.001 652.4 450.301 652.3C450.401 652.3 450.401 652.2 450.501 652.2C450.701 652.1 450.901 652 451.101 651.8C451.201 651.8 451.201 651.7 451.301 651.7C451.501 651.6 451.701 651.4 452.001 651.2C452.201 651 452.401 650.9 452.701 650.7C452.801 650.7 452.801 650.6 452.901 650.6C453.101 650.5 453.201 650.3 453.401 650.2L453.501 650.1C453.701 649.9 453.901 649.8 454.101 649.6L454.201 649.5C454.401 649.4 454.501 649.2 454.701 649.1L454.801 649C455.001 648.8 455.201 648.7 455.301 648.5L455.801 648L455.901 647.9C456.101 647.8 456.201 647.6 456.401 647.6H456.501C456.601 647.5 456.701 647.5 456.901 647.4H457.001C457.101 647.4 457.201 647.3 457.301 647.3H457.601C457.601 647.3 457.701 647.3 457.701 647.4L457.801 647.5C457.801 647.5 457.901 647.6 457.901 647.7C457.901 647.8 458.001 647.9 458.001 648V648.1C458.001 648.2 458.001 648.3 458.101 648.4V650.1C458.201 652 458.501 653.9 458.901 655.7C459.401 657.5 460.001 659.2 460.801 660.9C461.601 662.5 462.501 664.1 463.601 665.6C464.701 667.1 465.901 668.4 467.201 669.7C467.901 670.3 468.501 670.9 469.301 671.5C470.701 672.6 472.201 673.6 473.901 674.5C474.701 674.9 475.501 675.3 476.401 675.7C477.701 676.2 479.001 676.7 480.301 677C481.201 677.2 482.101 677.4 483.001 677.5C484.401 677.7 485.801 677.8 487.201 677.8C493.801 677.8 500.001 675.5 504.901 671.8C505.201 671.6 505.401 671.4 505.701 671.2C506.401 670.6 507.101 670 507.801 669.3C508.801 668.3 509.701 667.3 510.501 666.1C510.801 665.7 511.001 665.3 511.301 665C512.601 663.1 513.701 661 514.501 658.8C515.601 655.7 516.301 652.3 516.301 648.9C516.401 646.2 516.001 643.8 515.401 641.5ZM695.601 572.9C694.701 571.1 692.701 569.4 692.701 569.4L688.401 565.7C686.201 563.8 682.601 560.7 677.901 556.6C650.701 533 578.601 470.4 559.401 456.1C548.201 448.2 541.801 444.4 536.901 442.7C534.101 442 531.201 441.3 527.501 441.3C523.801 441.3 519.901 442 515.601 443.3L515.401 443.4L515.201 443.5C505.601 446.1 494.501 454.8 483.801 463.3C482.601 464.2 481.501 465.1 480.301 466C467.201 476.7 453.301 487.3 441.401 490.1H441.201C436.001 491.2 430.701 491.8 425.401 491.8C410.301 491.8 397.601 487.1 391.501 479.2L391.401 479.1L391.301 479C386.401 472.5 387.401 463.5 393.601 457L421.701 426L421.901 425.8L422.101 425.6C424.901 422.8 427.701 420 430.501 417.3C426.001 418.1 421.601 419.1 417.201 420.1C413.901 420.9 410.601 421.7 407.401 422.5C405.401 423 403.401 423.6 401.401 424.1C400.101 424.4 398.701 424.8 397.401 425.1C395.401 425.6 393.501 426.1 391.601 426.5C388.401 427.2 385.201 427.7 382.001 428C380.701 428.1 379.501 428.2 378.201 428.3H376.301C372.001 428.3 348.701 424.7 344.401 423.2C341.901 422.5 339.401 421.8 336.901 421.2C335.301 420.7 333.601 420.3 332.001 419.8C329.601 419.1 327.101 418.4 324.701 417.7C323.101 417.2 321.401 416.7 319.801 416.2C319.001 415.9 318.201 415.7 317.301 415.4C314.801 414.6 312.401 413.8 309.901 413C308.201 412.5 306.601 411.9 304.901 411.3C302.401 410.4 299.801 409.5 297.201 408.5C295.401 407.8 293.701 407.2 291.901 406.5C290.701 406.1 289.601 405.6 288.401 405.1C287.101 404.6 285.801 404.1 284.401 403.5C283.701 403.2 283.101 403 282.401 402.7C280.001 401.7 277.501 400.7 274.901 399.6C273.601 399.1 272.301 398.5 271.001 397.9C267.301 396.3 263.401 394.6 259.401 392.7C255.501 395.6 251.801 398.6 248.101 401.7C244.401 404.8 240.901 407.9 237.501 411C236.401 412 235.301 413.1 234.201 414.2C232.001 416.3 229.801 418.5 227.801 420.7C225.701 422.9 223.701 425.1 221.701 427.3C219.701 429.5 217.801 431.8 216.001 434.1C214.101 436.4 212.401 438.7 210.601 441C209.701 442.2 208.901 443.3 208.101 444.5C205.601 448 203.301 451.6 201.101 455.3C199.601 457.7 198.301 460.2 196.901 462.6C189.601 476.2 184.501 490.4 181.801 505.1C187.601 506.6 197.801 509.5 201.401 510.2C226.401 515.8 246.901 521.4 263.501 526.8C266.401 527.7 269.301 528.7 272.001 529.6C280.101 532.4 287.201 535.1 293.301 537.6C296.401 538.9 299.301 540.1 301.901 541.3C302.701 541.7 303.601 542.1 304.401 542.4C309.901 545 314.501 547.3 318.101 549.3L320.201 550.5C320.501 550.7 320.901 550.9 321.201 551.1C322.201 551.7 323.201 552.3 324.101 552.9C324.401 553.1 324.601 553.2 324.901 553.4C325.201 553.6 325.501 553.8 325.701 554C325.901 554.2 326.201 554.3 326.401 554.5C326.701 554.7 327.101 555 327.401 555.2C327.701 555.4 327.901 555.6 328.101 555.7C328.201 555.8 328.301 555.8 328.401 555.9C328.701 556.1 329.001 556.4 329.301 556.6C335.701 549.7 344.801 545.5 355.201 545.5C366.101 545.5 375.801 550.2 382.201 557.8C388.001 554 395.501 551.1 404.601 551.1C409.101 551.1 413.701 551.8 418.201 553.3C428.301 556.4 434.601 562.5 438.401 568.9C441.701 567.8 445.301 567.2 449.301 567.2C455.001 567.2 460.901 568.6 466.801 571.2C475.801 575.3 482.301 582.2 485.501 591.2C487.501 596.9 488.001 602.7 487.801 607.9C510.101 608.2 528.201 626.5 528.201 648.9C528.201 655.7 526.501 662.1 523.601 667.8C523.901 667.9 524.201 668.1 524.501 668.2C524.701 668.3 525.001 668.4 525.201 668.5C525.501 668.7 525.901 668.8 526.201 669C526.501 669.1 526.701 669.2 527.001 669.3C527.301 669.4 527.701 669.6 528.101 669.7C528.401 669.8 528.601 669.9 528.901 670C529.301 670.2 529.601 670.3 530.001 670.5C530.301 670.6 530.601 670.7 530.801 670.8C531.201 670.9 531.601 671.1 532.001 671.2C532.301 671.3 532.601 671.4 532.801 671.5C533.201 671.7 533.701 671.8 534.201 671.9C534.501 672 534.701 672.1 535.001 672.2C535.601 672.4 536.201 672.6 536.901 672.7C537.001 672.7 537.101 672.8 537.201 672.8C537.901 673 538.701 673.2 539.401 673.3C539.601 673.3 539.901 673.4 540.101 673.4C540.601 673.5 541.201 673.6 541.701 673.7C542.001 673.7 542.301 673.8 542.601 673.8C543.101 673.9 543.601 673.9 544.001 674C544.301 674 544.601 674.1 545.001 674.1C545.501 674.1 545.901 674.2 546.401 674.2H549.501C550.201 674.2 551.001 674.1 551.701 674C553.001 673.8 554.101 673.6 555.201 673.4C556.301 673.2 557.201 672.9 558.101 672.7C559.001 672.4 559.801 672.2 560.501 671.9C561.601 671.5 562.501 671 563.301 670.6C563.801 670.3 564.301 670 564.701 669.7C565.101 669.4 565.501 669.1 565.801 668.8C566.301 668.4 566.601 667.9 566.901 667.5C567.101 667 567.401 666.6 567.701 666.1C567.801 665.9 567.901 665.7 568.001 665.6C568.201 665.2 568.301 664.7 568.301 664.3C568.301 663.9 568.101 663.6 567.701 663.2L554.301 648.3L541.001 633.5C541.001 633.5 538.101 630.6 537.801 628.8C537.701 628.4 537.801 628 538.101 627.7C538.201 627.6 538.301 627.5 538.401 627.5C538.401 627.5 538.501 627.5 538.501 627.4C538.601 627.4 538.601 627.3 538.701 627.3H539.301C539.501 627.3 539.601 627.3 539.801 627.4H539.901C540.101 627.4 540.201 627.5 540.401 627.6H540.501L541.101 627.9C541.101 627.9 541.201 627.9 541.201 628C541.401 628.1 541.501 628.2 541.701 628.3H541.801C542.001 628.4 542.201 628.5 542.401 628.7L542.501 628.8C542.701 628.9 542.901 629 543.101 629.2H543.201C543.401 629.3 543.601 629.5 543.801 629.6C544.001 629.7 544.201 629.9 544.501 630C545.801 631.1 547.101 632.2 548.401 633.4C550.201 635 551.901 636.5 553.601 638.1C554.901 639.3 556.201 640.5 557.401 641.7C558.701 642.9 559.901 644.1 561.001 645.2C563.401 647.5 565.501 649.6 567.401 651.5C571.401 655.5 574.101 658.3 574.101 658.3L574.601 658.8C575.201 659.3 576.401 660.2 578.501 661C578.801 661.1 579.001 661.2 579.401 661.3C580.001 661.5 580.701 661.7 581.401 661.9C581.701 661.9 582.001 662 582.301 662H587.401C587.701 662 588.001 661.9 588.401 661.9H588.801C589.101 661.9 589.401 661.8 589.701 661.8C589.801 661.8 590.001 661.8 590.101 661.7C590.401 661.6 590.801 661.6 591.101 661.5H591.401C591.801 661.4 592.301 661.3 592.701 661.2C592.801 661.2 592.901 661.1 593.001 661.1C593.301 661 593.701 660.9 594.001 660.8C594.101 660.8 594.301 660.7 594.401 660.7L595.301 660.4C595.401 660.4 595.601 660.3 595.701 660.3C596.101 660.2 596.501 660 596.801 659.9C596.901 659.9 596.901 659.9 597.001 659.8C597.401 659.6 597.901 659.4 598.301 659.2C598.401 659.1 598.601 659.1 598.701 659C599.001 658.8 599.301 658.7 599.601 658.5C599.701 658.4 599.901 658.3 600.001 658.3C600.301 658.1 600.601 658 600.801 657.8C600.901 657.7 601.101 657.6 601.201 657.6C601.601 657.3 602.001 657.1 602.301 656.8C603.001 656.1 603.901 655.3 604.801 654.6C605.201 654.2 605.601 653.9 605.901 653.5C606.101 653.3 606.201 653.1 606.401 653C606.501 652.8 606.601 652.6 606.701 652.5C606.901 652.2 607.101 651.9 607.301 651.7C607.901 650.8 608.301 649.9 608.701 649C608.801 648.6 609.001 648.3 609.001 647.9C609.101 647.6 609.201 647.2 609.201 646.9C609.301 646.4 609.401 645.9 609.401 645.4C609.501 644.1 609.301 642.9 609.101 641.9C609.001 641.5 608.901 641.2 608.801 640.8C608.801 640.7 608.701 640.6 608.701 640.5C608.401 639.4 607.901 638.5 607.501 637.7C606.701 636.1 605.901 635.2 605.901 635.2L574.701 600.4L574.001 599.7C573.901 599.6 573.801 599.5 573.701 599.3C573.501 599 573.201 598.8 573.001 598.5C572.801 598.2 572.501 597.9 572.301 597.6C572.201 597.4 572.101 597.3 572.001 597.1C571.601 596.5 571.401 595.8 571.401 595.3C571.401 595 571.501 594.8 571.701 594.6C571.801 594.5 571.901 594.4 572.001 594.4C572.001 594.4 572.101 594.4 572.101 594.3C572.201 594.3 572.201 594.2 572.301 594.2H572.401C572.501 594.2 572.501 594.2 572.601 594.1H572.901C573.101 594.1 573.201 594.1 573.401 594.2H573.501C573.701 594.2 573.801 594.3 574.001 594.4H574.101L574.701 594.7L574.801 594.8C575.001 594.9 575.201 595 575.301 595.1H575.401C575.601 595.2 575.801 595.3 576.001 595.5C576.101 595.5 576.101 595.6 576.201 595.6C576.401 595.7 576.601 595.8 576.701 596H576.801C577.001 596.1 577.201 596.3 577.401 596.4C577.601 596.6 577.901 596.7 578.101 596.9C578.701 597.4 579.401 597.9 580.001 598.5C583.301 601.2 587.001 604.6 590.801 608.2C591.601 608.9 592.301 609.7 593.101 610.4C596.201 613.4 599.401 616.7 602.701 620C606.801 624.1 610.901 628.3 615.001 632.4L615.301 632.7C615.301 632.7 615.401 632.7 615.401 632.8C615.501 632.9 615.601 632.9 615.701 633L615.801 633.1C615.901 633.2 616.001 633.2 616.101 633.3C616.101 633.3 616.201 633.4 616.301 633.4C616.401 633.5 616.601 633.6 616.701 633.7C616.701 633.7 616.801 633.7 616.801 633.8C617.001 633.9 617.201 634 617.401 634.2C617.401 634.2 617.501 634.2 617.501 634.3C617.701 634.4 617.801 634.5 618.001 634.6C618.101 634.6 618.201 634.7 618.201 634.7C618.401 634.8 618.501 634.9 618.701 634.9C618.801 634.9 618.901 635 619.001 635C619.201 635.1 619.401 635.2 619.601 635.2C619.701 635.2 619.801 635.3 619.801 635.3C620.101 635.4 620.401 635.5 620.601 635.6L621.501 635.9C621.601 635.9 621.701 636 621.801 636C622.001 636.1 622.301 636.1 622.501 636.2C622.601 636.2 622.701 636.3 622.901 636.3C623.101 636.3 623.301 636.4 623.601 636.5C623.701 636.5 623.801 636.5 623.901 636.6C624.201 636.6 624.401 636.7 624.701 636.7C624.801 636.7 624.901 636.7 625.001 636.8C625.401 636.9 625.701 636.9 626.101 636.9H626.301C626.601 636.9 626.901 637 627.201 637H630.301C630.601 637 631.001 636.9 631.301 636.9H631.601C631.901 636.9 632.101 636.8 632.401 636.8C632.501 636.8 632.601 636.8 632.801 636.7C633.101 636.7 633.301 636.6 633.601 636.5C633.701 636.5 633.801 636.5 633.901 636.4C634.301 636.3 634.701 636.2 635.001 636.1H635.101C635.501 636 635.801 635.9 636.201 635.8C636.301 635.8 636.401 635.7 636.601 635.7C636.901 635.6 637.201 635.5 637.401 635.4C637.501 635.4 637.701 635.3 637.801 635.3C638.101 635.2 638.401 635 638.801 634.9C638.901 634.9 639.001 634.8 639.101 634.8L640.301 634.2C640.401 634.2 640.501 634.1 640.601 634C640.901 633.8 641.201 633.7 641.601 633.5C641.701 633.4 641.901 633.4 642.001 633.3C642.301 633.1 642.601 633 642.901 632.8C643.001 632.7 643.201 632.7 643.301 632.6C643.701 632.3 644.201 632.1 644.601 631.8C645.801 631 646.901 630.1 647.901 629.2C648.901 628.3 649.801 627.5 650.501 626.6C651.001 626.1 651.401 625.5 651.801 625C652.601 623.9 653.301 622.8 653.801 621.7C654.201 620.9 654.501 620 654.801 619.2C655.101 618.4 655.301 617.6 655.401 616.8C655.501 616.4 655.501 616 655.501 615.6C655.501 615.2 655.501 614.8 655.601 614.4C655.601 613.6 655.601 612.9 655.501 612.2C655.501 611.7 655.401 611.3 655.301 610.9C655.101 610 654.901 609.2 654.601 608.4C654.301 607.6 654.001 606.8 653.601 606C653.401 605.6 653.201 605.3 653.101 604.9C652.701 604.2 652.301 603.6 651.901 603C650.401 600.6 648.901 599.2 648.901 599.2L606.801 556.4C606.801 556.4 602.401 552.8 603.901 550.6C604.001 550.5 604.101 550.4 604.201 550.4H604.301C604.401 550.4 604.401 550.3 604.501 550.3H605.101C605.301 550.3 605.401 550.3 605.601 550.4H605.701C605.901 550.4 606.001 550.5 606.201 550.5H606.301L606.901 550.8C606.901 550.8 607.001 550.8 607.001 550.9C607.201 551 607.401 551.1 607.501 551.2H607.601C607.801 551.3 608.001 551.4 608.201 551.6C608.201 551.6 608.301 551.7 608.401 551.7C608.601 551.8 608.801 551.9 609.001 552.1C609.201 552.2 609.401 552.4 609.601 552.5C609.801 552.6 610.001 552.8 610.201 552.9C611.101 553.6 612.001 554.4 613.001 555.3C614.001 556.2 615.101 557.1 616.301 558.1C616.901 558.6 617.501 559.1 618.101 559.7C619.301 560.8 620.601 561.9 621.901 563C622.501 563.6 623.201 564.2 623.901 564.8C625.201 566 626.601 567.2 628.001 568.5L634.301 574.2C638.501 578 642.601 581.7 646.301 585.1C646.901 585.7 647.501 586.2 648.101 586.8C655.201 593.3 660.301 598 660.301 598H660.501C660.601 598 660.601 598.1 660.701 598.1H660.801C660.901 598.1 661.001 598.2 661.101 598.2C661.201 598.3 661.401 598.4 661.601 598.5H661.701C661.801 598.6 662.001 598.7 662.101 598.7C662.201 598.7 662.201 598.8 662.301 598.8C662.501 598.9 662.601 599 662.801 599C662.801 599 662.901 599.1 663.001 599.1C663.201 599.2 663.501 599.3 663.701 599.4H663.801C664.001 599.5 664.201 599.6 664.501 599.7C664.601 599.7 664.701 599.8 664.701 599.8L665.301 600.1C665.401 600.1 665.501 600.2 665.601 600.2C666.201 600.4 666.901 600.6 667.601 600.8C667.701 600.8 667.801 600.9 667.901 600.9C668.201 601 668.401 601 668.701 601.1C668.801 601.1 668.901 601.1 669.101 601.2C669.401 601.3 669.701 601.3 670.001 601.4H670.201C670.601 601.5 671.001 601.5 671.401 601.6H671.701C672.001 601.6 672.301 601.7 672.701 601.7H676.301C676.701 601.7 677.101 601.6 677.501 601.6C677.701 601.6 677.801 601.6 677.901 601.5C678.401 601.4 679.001 601.3 679.501 601.2C680.001 601.1 680.601 600.9 681.201 600.8C681.401 600.8 681.501 600.7 681.701 600.7C682.201 600.6 682.601 600.4 683.101 600.2C683.201 600.2 683.401 600.1 683.501 600.1C684.101 599.9 684.701 599.6 685.301 599.4C685.401 599.3 685.601 599.3 685.701 599.2C686.201 599 686.701 598.7 687.201 598.5C687.401 598.4 687.501 598.3 687.701 598.2C688.301 597.9 688.901 597.5 689.601 597.1C691.101 596.1 692.501 595.1 693.701 593.9C693.801 593.8 694.001 593.6 694.101 593.4C694.401 593 694.801 592.4 695.301 591.6C699.901 583.3 697.301 576.2 695.601 572.9Z" fill="#56595B"/>
</g>
<defs>
<clipPath id="clip0_3_170">
<rect width="1024" height="1024" fill="white"/>
</clipPath>
</defs>
</svg>
