<svg width="1024" height="1024" fill="none" xmlns="http://www.w3.org/2000/svg"><g clip-path="url(#a)"><path d="M512 1024c282.77 0 512-229.23 512-512S794.77 0 512 0 0 229.23 0 512s229.23 512 512 512Z" fill="#A0A5AF"/><path d="M465 452a60.652 60.652 0 0 0-56.033 37.44 60.655 60.655 0 0 0 13.147 66.096 60.648 60.648 0 0 0 66.096 13.147 60.647 60.647 0 0 0 37.44-56.033A60.718 60.718 0 0 0 465 452Zm0 92.61a31.9 31.9 0 1 1 31.9-31.9A31.937 31.937 0 0 1 465 544.6v.01ZM666.79 431a18.91 18.91 0 1 0 0-37.82 18.91 18.91 0 0 0 0 37.82ZM341.2 452c-1.58-.13-3.09-.19-4.67-.19a52.672 52.672 0 0 0-38.46 16.58 52.593 52.593 0 0 0-57.69-12.89 52.593 52.593 0 0 0-33.23 48.89v66.39h28.37v-65.52c0-12 9.9-23.14 21.56-24.33.82-.06 1.64-.13 2.4-.13a24.002 24.002 0 0 1 23.9 23.83v66.2h29v-65.7c0-12 9.84-23.07 21.56-24.27.82-.06 1.64-.13 2.4-.13a24 24 0 0 1 24 23.7v66.39h29v-65.56a53.836 53.836 0 0 0-13.81-36A51.725 51.725 0 0 0 341.2 452Zm229.12-56h-29v174.95h29V396Zm55.48 0h-29v174.95h29V396Zm55.48 58.88h-29v116h29v-116Zm135.56 55A57.993 57.993 0 0 0 800 469a56.714 56.714 0 0 0-40.6-17.15h-.76a60.68 60.68 0 1 0 .82 121.36h.06a61.009 61.009 0 0 0 52.21-29.76l1.39-2.33-24-11.79-1.2 2a32.61 32.61 0 0 1-59.33-8.07h88.21l.04-13.38Zm-58.57-31.71a31.119 31.119 0 0 1 29.26 21.06h-58.45a31.006 31.006 0 0 1 29.19-21.02v-.04Z" fill="#fff"/></g><defs><clipPath id="a"><path fill="#fff" d="M0 0h1024v1024H0z"/></clipPath></defs></svg>