<svg width="1024" height="1024" fill="none" xmlns="http://www.w3.org/2000/svg"><g clip-path="url(#a)"><path d="M512 1024c282.77 0 512-229.23 512-512S794.77 0 512 0 0 229.23 0 512s229.23 512 512 512Z" fill="#F8C18C"/><path d="M310.07 522.48c4.36 18.727 6.027 34.823 5 48.29h-23.28c1.153-39.38-10.513-60.287-35-62.72-21.933-.767-31.423 19.69-28.47 61.37h-26.19c-2.053-51.56 6.86-80.87 26.74-87.93 19.88-6.927 37.323-6.543 52.33 1.15 14.88 7.707 24.503 20.987 28.87 39.84Zm104.66 16.35 6.35 15.2c-7.054 9.233-18.02 15.39-32.9 18.47-14.88 2.82-30.213 1.73-46-3.27-15.787-5-23.997-17.313-24.63-36.94-.367-11.287.73-20.717 3.29-28.29 1.413-5.133 4.747-9.047 10-11.74 5.133-2.82 14.24-5.13 27.32-6.93a103.744 103.744 0 0 1 39.25 1.35c14.367 4.62 22.063 12.83 23.09 24.63.767 11.8-1.157 18.597-5.77 20.39h-75.42c.127 16.287 10.127 24.43 30 24.43 20.02.14 35.16-5.623 45.42-17.29v-.01ZM352 512.28h43.67c-.26-9.62-8.02-14.237-23.28-13.85-14.1.64-20.897 5.257-20.39 13.85Zm298 15.2c-1.413 32.193-28.027 47.587-79.84 46.18l1.92 33.86h-29.21V487.27h59.83c34.76.133 50.527 13.537 47.3 40.21Zm-30-2.89c-.767-14.24-16.48-20.907-47.14-20L570 549.22c31.293.133 47.96-8.073 50-24.62v-.01Zm-82.54 1.92v.19c0 13.08-5.13 24.303-15.39 33.67-10.387 9.233-22.83 13.85-37.33 13.85h-7.89c-14.493 0-26.87-4.617-37.13-13.85-10.26-9.333-15.39-20.557-15.39-33.67v-.19c0-13.213 4.747-23.73 14.24-31.55A67.591 67.591 0 0 1 459 483.23a86.753 86.753 0 0 1 21.36-3.08c6.189-.372 12.4.082 18.47 1.35a52.854 52.854 0 0 1 23.86 12.12 42.01 42.01 0 0 1 11.107 14.781 42.013 42.013 0 0 1 3.683 18.119l-.02-.01Zm-30.78-2.31a14.448 14.448 0 0 0-4.43-10.58 14.115 14.115 0 0 0-10.39-4.23h-17.29a15 15 0 0 0-10.2 4.23 14.443 14.443 0 0 0-4.43 10.58v8.85a14.209 14.209 0 0 0 4.43 10.39 14.61 14.61 0 0 0 10.2 4.43h.43c1.28.127 2.69.32 4.23.58h8.27c1.413-.127 2.89-.32 4.43-.58a13.823 13.823 0 0 0 10.39-4.43 14.215 14.215 0 0 0 4.43-10.39l-.07-8.85Zm360.55-.38c-7.06-3.133-10.65-6.853-10.77-11.16 0-4.167 3.076-6.283 9.23-6.35 6.173.04 9.84 2.67 11 7.89l17.89-8.47c.126-6.54-3.337-11.54-10.39-15a37.064 37.064 0 0 0-11.54-3.66c-14.753-3.207-26.553.127-35.4 10-8.853 9.747-9.75 18.853-2.69 27.32 7.053 8.34 14.687 14.623 22.9 18.85 8.34 4.107 10.906 7.827 7.7 11.16-3.334 3.333-10.13 2.563-20.39-2.31L831.85 560c2.667 6.8 10.3 11.93 22.9 15.39 12.6 3.46 23.373.19 32.32-9.81 8.966-10.053 9.673-18.72 2.12-26-7.46-7.247-14.773-12.497-21.94-15.75l-.02-.01Zm-66.38-13.47c9.333 21.42 7.73 33.087-4.81 35-9.494.767-14.944-4.3-16.35-15.2a260.866 260.866 0 0 1-2.31-43.87h25.78v-19.59l-26 .38 3.66-24.24-27.51 2.31L756 470l-30.4-2.12v20.78h31.94c-3.207 36.3-.897 60.093 6.93 71.38 7.693 11.287 18.277 16.62 31.75 16 20.907-.387 31.617-10.647 32.13-30.78 0-15.133-2.887-27.51-8.66-37.13l-18.84 2.22ZM747 538.45l7.7 12.89c-5.513 9.333-15.133 16.26-28.86 20.78-13.467 4.107-27.833 4.747-43.1 1.92-15.133-2.953-24.047-13.287-26.74-31-1.667-10.387-1.474-18.387.58-24 2.18-5.773 5.323-10.2 9.43-13.28 4-3.207 11.76-6.413 23.28-9.62a96.4 96.4 0 0 1 36-3.27c13.853 2.667 21.853 9.333 24 20 2.053 10.667 1.027 17-3.08 19L676 540c1.927 14.88 12.187 21.293 30.78 19.24 18.593-2.053 32-8.983 40.22-20.79Zm-61.18-18.85c.007.581.07 1.161.19 1.73l40.21-5c-1.927-7.693-9.56-10.517-22.9-8.47-11.287 1.793-17.12 5.707-17.5 11.74Zm-310.4-65.12L414 437.9l39.65 33.51-8.75-38.91-1.53-6.5 34.25-20.85h-39.28L430.71 377l-21.59 28.3h-33.89l20.29 19-20.1 30.18Zm-147.29 12.38L252.84 444l39 14.73-17-27.09-2.87-4.53 20.33-24.94-2.39.85-27.32 9.67-13.3-19.22-8.76 27.19-22.53 8-3.1 1.1 20.43 8.93-7.2 28.17Zm-76.35 26.85 8.66-25.36-1.61 1.33-18.41 15.12-15.75-11.65.93 24-15.13 12.43-2.13 1.75 18.35 1.53 2.47 24.35 12.65-24.89 34.34 1.09-20.87-16.88-3.5-2.82Z" fill="#fff"/></g><defs><clipPath id="a"><path fill="#fff" d="M0 0h1024v1024H0z"/></clipPath></defs></svg>