<svg width="1024" height="1024" viewBox="0 0 1024 1024" fill="none" xmlns="http://www.w3.org/2000/svg">
<g clip-path="url(#clip0_3_179)">
<path d="M512 1024C794.77 1024 1024 794.77 1024 512C1024 229.23 794.77 0 512 0C229.23 0 0 229.23 0 512C0 794.77 229.23 1024 512 1024Z" fill="#F8C18C"/>
<path d="M512 406.61L603 459.3V564.46L512 617.15L420.73 564.46V459.31L512 406.61ZM655.5 700L746.77 647.54V542.11L655.5 594.81V700ZM603 293.46L512 241L420.73 293.46L512 346.15L603 293.46ZM368.27 323.81L277.27 376.27V481.65L368.27 534.11V429L459.54 376.54L368.27 323.81ZM655.5 323.81L564.5 376.27L655.5 428.96V534.11L746.77 481.65V376.26L655.5 323.81ZM277.23 647.5L368.23 699.96V594.81L277.23 542.12V647.5ZM420.73 625.15V730.31L512 783L603 730.31V625.15L512 677.84L420.73 625.15Z" fill="white"/>
</g>
<defs>
<clipPath id="clip0_3_179">
<rect width="1024" height="1024" fill="white"/>
</clipPath>
</defs>
</svg>
