<svg width="1024" height="1024" viewBox="0 0 1024 1024" fill="none" xmlns="http://www.w3.org/2000/svg">
<g clip-path="url(#clip0_3_182)">
<path d="M512 1024C794.77 1024 1024 794.77 1024 512C1024 229.23 794.77 0 512 0C229.23 0 0 229.23 0 512C0 794.77 229.23 1024 512 1024Z" fill="#96DFD3"/>
<path d="M697.4 367.101H547.5L634.3 280.301L612.8 258.801L512.4 359.201L410.5 258.801L389 280.301L475.1 366.401H327.3C305 366.001 286.7 384.201 287.1 406.601V642.601C287.1 664.401 304.8 682.001 326.5 682.001H373.1L398.9 722.901C400.6 725.601 403.6 727.201 406.8 727.201C410.3 727.501 413.6 725.801 415.4 722.901L441.2 682.001H577.5L603.3 722.901C605.2 725.801 608.5 727.501 611.9 727.201C615.5 727.201 618.3 725.701 619.8 722.901L645.6 682.001H697.2C719 682.001 736.6 664.301 736.6 642.601V405.801C736.5 384.401 718.9 367.101 697.4 367.101Z" fill="white"/>
</g>
<defs>
<clipPath id="clip0_3_182">
<rect width="1024" height="1024" fill="white"/>
</clipPath>
</defs>
</svg>
