<svg width="1024" height="1024" fill="none" xmlns="http://www.w3.org/2000/svg"><g clip-path="url(#a)"><path d="M512 1024c282.77 0 512-229.23 512-512S794.77 0 512 0 0 229.23 0 512s229.23 512 512 512Z" fill="#F9DE81"/><path d="M272.94 376v167.18a2.365 2.365 0 0 1-1.533 2.389 2.365 2.365 0 0 1-.997.141h-25.06c-2 0-3-.77-3.52-2.53l-33.5-119.07h-1.55v119.07a2.365 2.365 0 0 1-1.533 2.389 2.365 2.365 0 0 1-.997.141h-18.72a2.372 2.372 0 0 1-1.846-.685 2.353 2.353 0 0 1-.684-1.845V376a2.353 2.353 0 0 1 1.532-2.389c.319-.118.659-.166.998-.141h26.88c2 0 3 .77 3.52 2.53l31.96 119h1.27V376a2.353 2.353 0 0 1 1.532-2.389c.319-.118.659-.166.998-.141h18.71a2.363 2.363 0 0 1 1.852.681 2.35 2.35 0 0 1 .688 1.849Zm44-2.53h-22a2.372 2.372 0 0 0-1.846.685 2.353 2.353 0 0 0-.684 1.845v167.18a2.353 2.353 0 0 0 1.532 2.389c.319.118.659.166.998.141h22a2.365 2.365 0 0 0 2.389-1.533c.118-.318.166-.658.141-.997V376a2.37 2.37 0 0 0-.679-1.874 2.35 2.35 0 0 0-1.871-.686l.02.03Zm73.47 169.74V399.55a1.381 1.381 0 0 1 1.55-1.55h26.32a2.365 2.365 0 0 0 2.389-1.533c.118-.318.166-.658.141-.997V376a2.365 2.365 0 0 0-1.533-2.389 2.365 2.365 0 0 0-.997-.141h-82.85a2.372 2.372 0 0 0-1.846.685A2.353 2.353 0 0 0 332.9 376v19.42a2.353 2.353 0 0 0 1.532 2.389c.319.118.659.166.998.141h26.32a1.381 1.381 0 0 1 1.55 1.55v143.7a2.353 2.353 0 0 0 1.532 2.389c.319.118.659.166.998.141h22a2.37 2.37 0 0 0 1.874-.679 2.365 2.365 0 0 0 .686-1.871l.02.03Zm44 0V376a2.353 2.353 0 0 1 1.532-2.389c.319-.118.659-.166.998-.141h34.69c30.68 0 49.12 13.44 49.12 51.16 0 22.52-7.6 36.74-20.55 44.05l24.35 74.46c.49 1.27 0 2.53-1.27 2.53h-23.53v.07a2.602 2.602 0 0 1-2.82-1.76l-21-68.69H463a1.381 1.381 0 0 0-1.55 1.55v66.36a2.365 2.365 0 0 1-1.533 2.389 2.365 2.365 0 0 1-.997.141h-22a2.358 2.358 0 0 1-2.54-2.55l.03.03Zm27.09-93.46a1.381 1.381 0 0 0 1.55 1.55h8.87c15.2-.07 21.82-6.19 21.82-26.67 0-20.27-6.62-26.6-21.82-26.6H463a1.381 1.381 0 0 0-1.55 1.55l.05 50.17Zm73.75 93.46L572.52 376c.49-1.55 1.27-2.53 2.81-2.53h21.25a2.772 2.772 0 0 1 2.82 2.53l36.45 167.21a1.916 1.916 0 0 1-.312 1.809 1.91 1.91 0 0 1-1.688.721h-21.57c-1.76 0-2.53-1-2.81-2.53l-6.83-34.69h-34.2l-6.83 34.69c-.28 1.55-1 2.53-2.82 2.53h-21.53c-1.54-.03-2.26-1.01-2.04-2.56l.03.03Zm37.51-57.57h25.62l-12.21-64.14h-.77l-12.64 64.14ZM733.47 401c3 9.36 4.29 21 4.29 58.55s-1.27 49.12-4.29 58.55c-6.05 18.51-19.28 27.59-41.8 27.59H651.9a2.372 2.372 0 0 1-1.846-.685 2.353 2.353 0 0 1-.684-1.845V376a2.353 2.353 0 0 1 1.532-2.389c.319-.118.659-.166.998-.141h39.76c22.53-.03 35.76 9.12 41.81 27.53Zm-23.29 58.55c0-34.41-1.06-42.86-3-49.19-3-8.59-8.59-12.39-18.23-12.39H678a1.381 1.381 0 0 0-1.55 1.55V519.6c0 1 .49 1.48 1.55 1.48h10.91c9.64 0 15.2-3.8 18.23-12.39 2.05-6.33 3.03-14.69 3.03-49.12l.01-.02ZM841 459.5c0 47.92-.77 54-3.31 61.58C832.13 538 818.2 548 797.16 548c-21.25 0-35.19-9.85-40.82-26.88-2.53-7.6-3.31-13.65-3.31-61.58s.77-54 3.31-61.58C761.9 381 775.83 371 797.16 371c21 0 35 9.85 40.54 26.88 2.53 7.65 3.3 13.7 3.3 61.62Zm-27.66.07c0-47.36-.28-49.4-1.76-54.19-1.76-5.84-7.32-9.64-14.43-9.64-7.32 0-12.95 3.8-14.71 9.64-1.55 4.79-1.76 6.83-1.76 54.19s.28 49.4 1.76 54.19c1.76 5.84 7.32 9.64 14.71 9.64 7.11 0 12.67-3.8 14.43-9.64 1.55-4.76 1.76-6.82 1.76-54.19ZM510.66 725l141.46-119.68H369.91L510.66 725Z" fill="#56595B"/></g><defs><clipPath id="a"><path fill="#fff" d="M0 0h1024v1024H0z"/></clipPath></defs></svg>