<svg width="1024" height="1024" fill="none" xmlns="http://www.w3.org/2000/svg"><g clip-path="url(#a)"><path d="M512 1024c282.77 0 512-229.23 512-512S794.77 0 512 0 0 229.23 0 512s229.23 512 512 512Z" fill="#F9DE81"/><path d="M768 512c0 141.42-114.84 256.47-256 256.47S256 653.43 256 512s114.84-256.48 256-256.48A253.99 253.99 0 0 1 621.15 280l-42.52 54.88A187.789 187.789 0 0 0 512 322.75c-99.54 0-181.33 77.51-188.41 175.47-.14 2-.25 4-.33 6-.107 2.593-.163 5.2-.17 7.82 0 104.35 84.74 189.24 188.91 189.24S700.9 616.36 700.9 512a190.145 190.145 0 0 0-4.38-40.65l49.34-63.67A255.372 255.372 0 0 1 768 512Zm-52.19-155-43.12 55.63L521.32 608 397.83 497.36l44.71-50.12 69.88 62.59L627 362l41.12-53.08A258.173 258.173 0 0 1 715.81 357Z" fill="#56595B"/></g><defs><clipPath id="a"><path fill="#fff" d="M0 0h1024v1024H0z"/></clipPath></defs></svg>