<svg width="1024" height="1024" fill="none" xmlns="http://www.w3.org/2000/svg"><g clip-path="url(#a)"><path d="M512 1024c282.77 0 512-229.23 512-512S794.77 0 512 0 0 229.23 0 512s229.23 512 512 512Z" fill="#F9DE81"/><path d="M256 449.001c.1-1.9 1.7-3.4 3.6-3.4h4.6l75.3 72.4v-66.9c0-2 1.6-3.6 3.6-3.6H366c2 .1 3.5 1.6 3.6 3.6v126.9c-.1 1.9-1.7 3.4-3.6 3.4h-3.2c-.9-.1-1.7-.4-2.4-.9l-74.4-74.9v70.3c0 2-1.6 3.6-3.6 3.6h-22.6c-2 0-3.7-1.6-3.8-3.6v-126.9Zm167.8 2.1v77.9c.8 28.5 23.7 51.3 52.2 52.2 29.7.9 54.4-22.5 55.3-52.2v-77.9c-.1-2-1.6-3.5-3.6-3.6h-23c-2 0-3.6 1.6-3.6 3.6v76.3c0 12.9-10.5 23.4-23.4 23.4-12.9 0-23.4-10.5-23.4-23.4v-76.3c0-2-1.6-3.6-3.6-3.6h-23c-2 .1-3.5 1.6-3.6 3.6h-.3Zm162.8.9v122.9c0 2.5 2.1 4.6 4.6 4.6h22c2.5 0 4.6-2.1 4.6-4.6v-56.2l43.5 59c.9.8 2.1 1.3 3.4 1.3h26c.7-.1 1.4-.3 2.1-.7 2.2-1.3 2.8-4.2 1.5-6.3l-47.9-62.4 44.1-55.2c.4-.6.6-1.2.7-1.9.3-2.5-1.5-4.8-4.1-5.1h-23.7c-1.4.2-2.7.8-3.6 1.9l-41.9 52.2v-49.5c0-2.5-2.1-4.6-4.6-4.6h-22c-2.6 0-4.6 2.1-4.7 4.6Zm151.7 123.9c.1 2 1.6 3.5 3.6 3.6h22.6c2-.1 3.5-1.6 3.6-3.6v-124.8c-.1-2-1.6-3.5-3.6-3.6h-22.6c-2 .1-3.5 1.6-3.6 3.6v124.8Zm-4.5-204.5c.1 10.5 8.7 19 19.2 18.9 10.8 0 19.5-8.7 19.5-19.5s-8.7-19.5-19.5-19.5h-.6c-10.6.3-18.9 9.1-18.6 19.6v.5Z" fill="#56595B"/></g><defs><clipPath id="a"><path fill="#fff" d="M0 0h1024v1024H0z"/></clipPath></defs></svg>