<svg width="1024" height="1024" fill="none" xmlns="http://www.w3.org/2000/svg"><g clip-path="url(#a)"><path d="M512 1024c282.77 0 512-229.23 512-512S794.77 0 512 0 0 229.23 0 512s229.23 512 512 512Z" fill="#728DBE"/><path d="M742.86 463.11c12.23-36.7 8.02-76.91-11.54-110.3-29.41-51.21-88.53-77.55-146.27-65.15a134.348 134.348 0 0 0-101.28-45.16c-59.02-.13-111.39 37.87-129.55 94.02a134.372 134.372 0 0 0-89.8 65.14c-29.63 51.07-22.87 115.451 16.71 159.241a134.262 134.262 0 0 0 11.54 110.3c29.41 51.209 88.53 77.549 146.27 65.149a134.207 134.207 0 0 0 101.28 45.14c59.06.151 111.44-37.879 129.6-94.089 37.92-7.77 70.64-31.5 89.8-65.141 29.6-51.07 22.82-115.4-16.74-159.19l-.02.03v.01Zm-202.6 283.171c-23.63.03-46.52-8.24-64.66-23.38.83-.44 2.26-1.231 3.18-1.801l107.33-61.99a17.466 17.466 0 0 0 8.83-15.279V492.52l45.36 26.191c.49.24.81.71.88 1.25V645.26c-.07 55.72-45.19 100.901-100.91 101.011l-.01.01Zm-217.02-92.69a100.585 100.585 0 0 1-12.04-67.681c.79.47 2.19 1.33 3.18 1.9l107.33 61.99a17.503 17.503 0 0 0 17.64 0l131.03-75.659v52.39c.03.54-.22 1.059-.64 1.399l-108.49 62.64c-48.33 27.83-110.04 11.29-137.99-36.97h-.02v-.009ZM294.99 419.31a100.643 100.643 0 0 1 52.57-44.28c0 .93-.05 2.56-.05 3.71v123.99c-.03 6.3 3.34 12.14 8.81 15.26l131.03 75.651-45.36 26.19c-.45.299-1.03.35-1.53.13l-108.51-62.69c-48.22-27.93-64.77-89.631-36.97-137.941l.02-.02h-.01Zm372.69 86.73-131.03-75.66 45.36-26.18c.45-.3 1.03-.35 1.53-.13l108.51 62.64c48.31 27.91 64.87 89.71 36.96 138.02A100.995 100.995 0 0 1 676.46 649V521.3c.05-6.3-3.3-12.129-8.76-15.26h-.02Zm45.14-67.95c-.79-.49-2.19-1.33-3.18-1.9L602.31 374.2a17.512 17.512 0 0 0-8.82-2.385c-3.099 0-6.143.824-8.82 2.385l-131.03 75.66v-52.39c-.03-.54.22-1.06.64-1.4l108.49-62.59c48.33-27.88 110.11-11.29 137.97 37.06a100.957 100.957 0 0 1 12.04 67.54h.03l.01.01Zm-283.84 93.371L383.6 505.27c-.49-.24-.81-.71-.88-1.25v-125.3c.03-55.79 45.29-101 101.08-100.96 23.6 0 46.44 8.29 64.58 23.38-.83.44-2.24 1.23-3.18 1.8l-107.33 61.99a17.443 17.443 0 0 0-8.83 15.26l-.07 151.24v.031h.01Zm24.64-53.131 58.36-33.71 58.36 33.69v67.391l-58.36 33.69-58.36-33.69V478.32v.01Z" fill="#fff"/></g><defs><clipPath id="a"><path fill="#fff" d="M0 0h1024v1024H0z"/></clipPath></defs></svg>