<svg width="1024" height="1024" viewBox="0 0 1024 1024" fill="none" xmlns="http://www.w3.org/2000/svg">
<g clip-path="url(#clip0_3_215)">
<path d="M512 1024C794.77 1024 1024 794.77 1024 512C1024 229.23 794.77 0 512 0C229.23 0 0 229.23 0 512C0 794.77 229.23 1024 512 1024Z" fill="#F9DE81"/>
<path d="M174.9 514.899V509.279C181.815 509.279 188.45 506.548 193.36 501.679C195.779 499.28 197.698 496.426 199.01 493.282C200.321 490.138 200.997 486.766 201 483.359H206.22C206.215 486.773 206.887 490.154 208.199 493.306C209.51 496.457 211.435 499.317 213.86 501.719C218.769 506.604 225.416 509.341 232.34 509.329V514.939C225.426 514.939 218.791 517.671 213.88 522.539C211.459 524.939 209.537 527.794 208.224 530.94C206.911 534.086 206.233 537.46 206.23 540.869H201C201.006 537.456 200.333 534.075 199.022 530.923C197.71 527.771 195.786 524.911 193.36 522.509C188.448 517.642 181.815 514.907 174.9 514.899ZM201 473.619H245.91C267.85 473.619 283.53 489.179 283.53 511.999C283.53 534.819 267.86 550.379 245.92 550.379H201V615.729H219.79V566.999H245.91C277.46 566.999 302.32 542.309 302.32 511.999C302.32 481.689 277.45 456.999 245.91 456.999H201V473.619ZM369.81 456.819C386.31 456.819 400.94 465.119 410.13 478.189V460.189H429V563.859H410.2V545.859C400.78 558.949 386.2 567.229 369.88 567.229C338.95 567.229 312.88 542.959 312.88 512.049C312.88 481.139 338.9 456.819 369.83 456.819H369.81ZM369.81 550.589C394.04 550.589 410.13 533.989 410.13 512.009C410.13 489.809 394.26 473.429 369.81 473.429C348.08 473.429 331.57 488.989 331.57 512.009C331.57 535.029 348.1 550.579 369.83 550.579L369.81 550.589ZM498.5 456.819C515.01 456.819 529.63 465.119 538.82 478.189V408.279H557.62V563.859H538.82V545.859C529.63 558.949 515.01 567.229 498.5 567.229C467.58 567.229 441.5 542.959 441.5 512.049C441.5 481.139 467.6 456.819 498.52 456.819H498.5ZM498.5 550.589C522.94 550.589 538.82 534.199 538.82 512.009C538.82 489.819 523 473.419 498.52 473.419C476.79 473.419 460.28 488.979 460.28 511.999C460.28 535.019 476.8 550.579 498.52 550.579L498.5 550.589ZM629.29 456.819C645.8 456.819 660.42 465.119 669.62 478.189V408.279H688.42V563.859H669.62V545.859C660.42 558.949 645.8 567.229 629.29 567.229C598.37 567.229 572.29 542.959 572.29 512.049C572.29 481.139 598.4 456.819 629.32 456.819H629.29ZM629.29 550.589C653.74 550.589 669.62 534.199 669.62 512.009C669.62 489.819 653.74 473.429 629.29 473.429C607.56 473.429 591.06 488.989 591.06 512.009C591.06 535.029 607.59 550.579 629.32 550.579L629.29 550.589ZM707.2 563.869V408.279H726V563.859L707.2 563.869ZM795.62 456.999C831.76 456.999 849.1 484.999 849.1 519.239H758.85C761.77 539.359 776.85 552.429 795.62 552.429C808.62 552.429 818.62 546.619 826.12 535.209H846.39C839.29 551.209 820.7 566.949 795.62 566.949C764.07 566.949 739.62 541.849 739.62 511.949C739.62 482.049 764.07 456.949 795.62 456.949V456.999ZM830.3 504.719C830.3 487.719 815.68 471.519 795.62 471.519C776.82 471.519 761.77 484.619 758.85 504.719H830.3Z" fill="#56595B"/>
</g>
<defs>
<clipPath id="clip0_3_215">
<rect width="1024" height="1024" fill="white"/>
</clipPath>
</defs>
</svg>
