<svg width="1024" height="1024" fill="none" xmlns="http://www.w3.org/2000/svg"><g clip-path="url(#a)"><path d="M512 1024c282.77 0 512-229.23 512-512S794.77 0 512 0 0 229.23 0 512s229.23 512 512 512Z" fill="#F9DE81"/><path d="M516.42 510.51c28.89 0 45.62-12.43 45.62-35.11 0-23.3-16.72-35.11-45.62-35.11h-25.55v70.53h25.55v-.31ZM739.5 700.4v21.33a17.767 17.767 0 0 0-12.565 5.205 17.767 17.767 0 0 0-5.205 12.565H700.4a17.779 17.779 0 0 0-17.775-17.775A17.779 17.779 0 0 0 664.85 739.5h-21.33a17.779 17.779 0 0 0-17.775-17.775A17.779 17.779 0 0 0 607.97 739.5h-21.32c0-4.713-1.872-9.233-5.205-12.565a17.767 17.767 0 0 0-12.565-5.205 17.765 17.765 0 0 0-12.572 5.201A17.763 17.763 0 0 0 551.1 739.5h-21.33a17.779 17.779 0 0 0-17.775-17.775A17.779 17.779 0 0 0 494.22 739.5H472.9a17.779 17.779 0 0 0-17.775-17.775A17.779 17.779 0 0 0 437.35 739.5H416a17.779 17.779 0 0 0-17.775-17.775A17.779 17.779 0 0 0 380.45 739.5h-21.3a17.779 17.779 0 0 0-17.775-17.775A17.779 17.779 0 0 0 323.6 739.5h-21.33c0-4.713-1.872-9.233-5.205-12.565a17.767 17.767 0 0 0-12.565-5.205V700.4a17.779 17.779 0 0 0 17.775-17.775A17.779 17.779 0 0 0 284.5 664.85v-21.33a17.779 17.779 0 0 0 17.775-17.775A17.779 17.779 0 0 0 284.5 607.97v-21.32c4.713 0 9.233-1.872 12.565-5.205a17.767 17.767 0 0 0 5.205-12.565 17.765 17.765 0 0 0-5.201-12.572A17.763 17.763 0 0 0 284.5 551.1v-21.33a17.779 17.779 0 0 0 17.775-17.775A17.779 17.779 0 0 0 284.5 494.22V472.9a17.779 17.779 0 0 0 17.775-17.775A17.779 17.779 0 0 0 284.5 437.35V416a17.779 17.779 0 0 0 17.775-17.775A17.779 17.779 0 0 0 284.5 380.45v-21.3a17.779 17.779 0 0 0 17.775-17.775A17.779 17.779 0 0 0 284.5 323.6v-21.33c4.713 0 9.233-1.872 12.565-5.205a17.767 17.767 0 0 0 5.205-12.565h21.33a17.779 17.779 0 0 0 17.775 17.775A17.779 17.779 0 0 0 359.15 284.5h21.33a17.779 17.779 0 0 0 17.775 17.775A17.779 17.779 0 0 0 416.03 284.5h21.33a17.779 17.779 0 0 0 17.775 17.775A17.779 17.779 0 0 0 472.91 284.5h21.33a17.779 17.779 0 0 0 17.775 17.775A17.779 17.779 0 0 0 529.79 284.5h21.31a17.779 17.779 0 0 0 17.775 17.775A17.779 17.779 0 0 0 586.65 284.5H608a17.779 17.779 0 0 0 17.775 17.775A17.779 17.779 0 0 0 643.55 284.5h21.33a17.779 17.779 0 0 0 17.775 17.775A17.779 17.779 0 0 0 700.43 284.5h21.33c0 4.713 1.872 9.233 5.205 12.565a17.767 17.767 0 0 0 12.565 5.205v21.33a17.779 17.779 0 0 0-17.775 17.775 17.779 17.779 0 0 0 17.775 17.775v21.33a17.779 17.779 0 0 0-17.775 17.775 17.779 17.779 0 0 0 17.775 17.775v21.33a17.779 17.779 0 0 0-17.775 17.775 17.779 17.779 0 0 0 17.775 17.775v21.33a17.779 17.779 0 0 0-17.775 17.775 17.779 17.779 0 0 0 17.775 17.775v21.31a17.767 17.767 0 0 0-12.565 5.205 17.767 17.767 0 0 0 0 25.13 17.767 17.767 0 0 0 12.565 5.205V608a17.779 17.779 0 0 0-17.775 17.775 17.779 17.779 0 0 0 17.775 17.775v21.33a17.779 17.779 0 0 0-17.775 17.775 17.779 17.779 0 0 0 17.775 17.775l-.03-.03Zm-56.88-355.17a3.855 3.855 0 0 0-2.377-3.557 3.855 3.855 0 0 0-1.473-.293H345.22a3.855 3.855 0 0 0-3.557 2.377 3.855 3.855 0 0 0-.293 1.473v333.54a3.888 3.888 0 0 0 3.85 3.85h333.55a3.85 3.85 0 0 0 3.85-3.85V345.23Zm-328.81 8.59h316.37v316.36H353.81V353.82Zm83.54 235.31v29.52h86.06v-29.53H500.6c-6.08 0-9.73-3.73-9.73-9.63V541h28c43.79 0 78.46-22.68 78.46-66.18 0-43.19-34.67-65.87-78.46-65.87h-81.5v29.21h11.23c5.78 0 9.43 3.73 9.43 9.63v131.7c0 5.9-3.65 9.63-9.43 9.63h-11.25v.01Z" fill="#56595B"/></g><defs><clipPath id="a"><path fill="#fff" d="M0 0h1024v1024H0z"/></clipPath></defs></svg>