<svg width="1024" height="1024" fill="none" xmlns="http://www.w3.org/2000/svg"><g clip-path="url(#a)"><path d="M512 1024c282.77 0 512-229.23 512-512S794.77 0 512 0 0 229.23 0 512s229.23 512 512 512Z" fill="#F8C18C"/><path d="M245.18 413.841h28.69c7.767 0 14.373-1.13 19.82-3.39a37.101 37.101 0 0 0 13.3-9 34.31 34.31 0 0 0 7.48-12.78 47.433 47.433 0 0 0 0-29.47 34.43 34.43 0 0 0-7.47-12.65 37.101 37.101 0 0 0-13.3-9c-5.453-2.26-12.06-3.39-19.82-3.39h-56v124.19h27.3v-44.51Zm0-58.42h21.21c3.014-.004 6.023.23 9 .7a21.089 21.089 0 0 1 7.65 2.7 14.708 14.708 0 0 1 5.3 5.65 23.87 23.87 0 0 1 0 19.13 14.7 14.7 0 0 1-5.3 5.65 21.027 21.027 0 0 1-7.65 2.7 56.984 56.984 0 0 1-9 .7h-21.21v-37.23Zm115.62 54.42h27.3c6.84 0 11.767 1.506 14.78 4.52 3.013 3.013 4.983 7.766 5.91 14.26a243.703 243.703 0 0 1 1.56 15.65 48.076 48.076 0 0 0 2.78 14.08h27.3a18.206 18.206 0 0 1-2.87-6.35 54.815 54.815 0 0 1-1.39-7.91c-.287-2.78-.49-5.504-.61-8.17-.12-2.667-.237-5-.35-7a75.344 75.344 0 0 0-1.3-9.39c-.58-3-1.59-5.9-3-8.61a23.627 23.627 0 0 0-5.39-6.78 21.061 21.061 0 0 0-8.34-4.26v-.35c6.96-2.78 11.96-6.837 15-12.17 3.04-5.334 4.577-11.667 4.61-19a34.878 34.878 0 0 0-2.52-13.3 32.062 32.062 0 0 0-7.3-10.87 34.631 34.631 0 0 0-11.47-7.39 39.995 39.995 0 0 0-15-2.7h-67v124.25h27.3v-48.51Zm0-54.42h29.91c6.26 0 10.953 1.363 14.08 4.09 3.127 2.726 4.69 7.103 4.69 13.13 0 6.26-1.563 10.78-4.69 13.56-3.127 2.78-7.82 4.17-14.08 4.17H360.8v-34.95Zm111.2 93.58c-9.213-8.114-13.82-20.634-13.82-37.56v-77.24h27.3v77.2a56.003 56.003 0 0 0 .87 9.91 19.278 19.278 0 0 0 11.38 14.69c3.333 1.566 7.767 2.35 13.3 2.35 9.74 0 16.463-2.174 20.17-6.52 3.707-4.347 5.563-11.157 5.57-20.43v-77.2h27.3v77.2c0 16.806-4.693 29.296-14.08 37.47-9.387 8.173-22.383 12.26-38.99 12.26-16.787 0-29.787-4.044-39-12.13Zm183-16.6a12.003 12.003 0 0 0 2.43-7.74 10.891 10.891 0 0 0-3.22-8.17 25.53 25.53 0 0 0-8.43-5.22 84.11 84.11 0 0 0-11.78-3.69c-4.407-1.04-8.87-2.2-13.39-3.48a118.793 118.793 0 0 1-13.61-4.26 46.532 46.532 0 0 1-11.82-6.52 30.74 30.74 0 0 1-8.43-10 30.321 30.321 0 0 1-3.22-14.52 32.487 32.487 0 0 1 4.09-16.6 36.992 36.992 0 0 1 10.69-11.74 46.58 46.58 0 0 1 15-7 63.607 63.607 0 0 1 16.69-2.21 78.901 78.901 0 0 1 18.69 2.17 46.66 46.66 0 0 1 15.91 7 35.66 35.66 0 0 1 11 12.43c2.72 5.04 4.083 11.153 4.09 18.34h-26.44a21.986 21.986 0 0 0-2.35-9.22 15.376 15.376 0 0 0-5.3-5.74 22.395 22.395 0 0 0-7.56-3 46.45 46.45 0 0 0-9.3-.87 31.923 31.923 0 0 0-6.61.7 17.68 17.68 0 0 0-6 2.43 15.056 15.056 0 0 0-4.43 4.35 11.68 11.68 0 0 0-1.74 6.61 11.156 11.156 0 0 0 1.39 5.91c.927 1.506 2.753 2.896 5.48 4.17a70.019 70.019 0 0 0 11.3 3.83 2000.137 2000.137 0 0 0 18.87 4.87c2.32.466 5.537 1.306 9.65 2.52a46.291 46.291 0 0 1 12.26 5.82 37.074 37.074 0 0 1 10.52 10.69c2.953 4.466 4.43 10.176 4.43 17.13a37.994 37.994 0 0 1-3.3 15.82 34.425 34.425 0 0 1-9.83 12.61 47.237 47.237 0 0 1-16.17 8.26 76.54 76.54 0 0 1-22.34 3 78.624 78.624 0 0 1-19.91-2.52 49.997 49.997 0 0 1-17-7.91 39.064 39.064 0 0 1-11.78-13.65c-2.9-5.567-4.29-12.174-4.17-19.82h26.43a22.76 22.76 0 0 0 2.21 10.57 19.722 19.722 0 0 0 6 7 25.917 25.917 0 0 0 8.78 4 41.551 41.551 0 0 0 10.43 1.3 54.452 54.452 0 0 0 7.82-.61 27.163 27.163 0 0 0 7.82-2.35 17.083 17.083 0 0 0 6.15-4.73v.04Zm68.85-1.65h46.43l9.39 27.65H808l-46.42-124.2h-28l-46.95 124.15h27.47l9.75-27.6Zm23.3-65.9h.35l15.65 45.55H731l16.15-45.55Zm-466.84 175.52h-16.82v-19.66h16.82c3.52 0 6.16.766 7.92 2.3 1.76 1.533 2.64 3.996 2.64 7.39 0 3.52-.88 6.063-2.64 7.63-1.76 1.566-4.4 2.346-7.92 2.34Zm326.86 0h-16.83v-19.66h16.82c3.52 0 6.16.766 7.92 2.3 1.76 1.533 2.64 3.996 2.64 7.39 0 3.52-.88 6.063-2.64 7.63-1.76 1.566-4.4 2.346-7.92 2.34h.01Zm-63.28 11.25h-18.1l9.1-25.62h.2l8.8 25.62Zm-326.41 61.77h589.71v-140.55H217.48v140.55Zm500.2-104.61H733v26.8h28.3v-26.8h15.36v69.83H761.3v-30.12H733v30.12h-15.32v-69.83Zm-73 20.69a34.888 34.888 0 0 1 6.75-11.69 30.87 30.87 0 0 1 10.85-7.78 37.431 37.431 0 0 1 25.33-1.17 29.568 29.568 0 0 1 9.2 4.84 26.173 26.173 0 0 1 6.7 7.87 28.22 28.22 0 0 1 3.33 10.76H692a12.587 12.587 0 0 0-1.76-4.84 15.39 15.39 0 0 0-3.42-3.86 15.997 15.997 0 0 0-10.12-3.6 17.925 17.925 0 0 0-8.8 2 16.62 16.62 0 0 0-5.87 5.38 23.57 23.57 0 0 0-3.28 7.68 38.193 38.193 0 0 0-1 8.9 35.57 35.57 0 0 0 1 8.56 23.088 23.088 0 0 0 3.25 7.48 16.766 16.766 0 0 0 5.87 5.33 17.925 17.925 0 0 0 8.8 2c4.667 0 8.333-1.434 11-4.3a19.902 19.902 0 0 0 4.84-11.35h14.86a35.522 35.522 0 0 1-3 11.83 28.326 28.326 0 0 1-6.46 9 27.457 27.457 0 0 1-9.39 5.67 34.433 34.433 0 0 1-11.84 2 35.819 35.819 0 0 1-14.42-2.79 30.947 30.947 0 0 1-10.81-7.68 34.012 34.012 0 0 1-6.75-11.49 42.192 42.192 0 0 1-2.33-14.22 43.62 43.62 0 0 1 2.35-14.53h-.04ZM575 508.781h37.65a22.462 22.462 0 0 1 8.46 1.51 19.532 19.532 0 0 1 6.46 4.16 18.098 18.098 0 0 1 4.11 6.11 19.656 19.656 0 0 1 1.42 7.48 21 21 0 0 1-2.59 10.66 16.295 16.295 0 0 1-8.46 6.85v.2a11.83 11.83 0 0 1 4.69 2.4 13.234 13.234 0 0 1 3 3.81 17.781 17.781 0 0 1 1.71 4.84c.353 1.743.597 3.506.73 5.28.067 1.106.133 2.41.2 3.91s.18 3.033.34 4.6c.15 1.5.41 2.988.78 4.45a10.238 10.238 0 0 0 1.61 3.57h-15.33a27.065 27.065 0 0 1-1.56-7.92c-.193-3.067-.487-6-.88-8.8-.52-3.654-1.63-6.32-3.33-8-1.7-1.68-4.47-2.527-8.31-2.54h-15.36v27.29H575v-69.86Zm-47.73 0H543l26.11 69.83h-15.93l-5.28-15.55h-26.12l-5.48 15.55h-15.45l26.42-69.83Zm-82.25 0h52.23v12.91h-36.89v15h33.84v11.93h-33.84v17.08H498v12.91h-53l.02-69.83Zm-25.59 46.22a14.324 14.324 0 0 0-4.74-2.93 47.229 47.229 0 0 0-6.65-2.05c-2.48-.587-4.99-1.254-7.53-2a66.102 66.102 0 0 1-7.63-2.4 26.145 26.145 0 0 1-6.65-3.67 17.271 17.271 0 0 1-4.74-5.62 17.068 17.068 0 0 1-1.81-8.17 18.295 18.295 0 0 1 2.3-9.34 20.815 20.815 0 0 1 6-6.6 26.215 26.215 0 0 1 8.41-3.91 35.766 35.766 0 0 1 9.39-1.27 44.497 44.497 0 0 1 10.51 1.22 26.273 26.273 0 0 1 8.95 4 20.078 20.078 0 0 1 6.21 7 21.475 21.475 0 0 1 2.3 10.32H418.9a12.384 12.384 0 0 0-1.32-5.18 8.674 8.674 0 0 0-3-3.23 12.664 12.664 0 0 0-4.25-1.66 26.162 26.162 0 0 0-5.23-.49c-1.25 0-2.497.131-3.72.39a9.908 9.908 0 0 0-3.37 1.37 8.438 8.438 0 0 0-2.5 2.45 6.565 6.565 0 0 0-1 3.72 6.243 6.243 0 0 0 .78 3.33 7.005 7.005 0 0 0 3.08 2.35 39.046 39.046 0 0 0 6.36 2.15 978.12 978.12 0 0 0 10.61 2.74c1.333.26 3.143.733 5.43 1.42a26.017 26.017 0 0 1 6.9 3.28 20.9 20.9 0 0 1 5.92 6 17.137 17.137 0 0 1 2.49 9.63 21.37 21.37 0 0 1-1.86 8.9 19.34 19.34 0 0 1-5.52 7.09 26.58 26.58 0 0 1-9.1 4.65 43.043 43.043 0 0 1-12.57 1.66 44.129 44.129 0 0 1-11.2-1.42 28.12 28.12 0 0 1-9.58-4.45 21.953 21.953 0 0 1-6.6-7.73 23.006 23.006 0 0 1-2.35-11.15h14.87a12.807 12.807 0 0 0 1.27 6 11.092 11.092 0 0 0 3.38 4 14.548 14.548 0 0 0 4.94 2.25 23.38 23.38 0 0 0 5.87.73 30.614 30.614 0 0 0 4.37-.38 15.357 15.357 0 0 0 4.4-1.32 9.593 9.593 0 0 0 3.42-2.69 6.748 6.748 0 0 0 1.37-4.35 6.134 6.134 0 0 0-1.76-4.64Zm-100.88-46.22h52.23v12.91H333.9v15h33.84v11.93H333.9v17.08h37.65v12.91h-53v-69.83Zm-70.42 0h37.65a22.462 22.462 0 0 1 8.46 1.51 19.521 19.521 0 0 1 6.45 4.16 18.049 18.049 0 0 1 4.11 6.11 19.611 19.611 0 0 1 1.42 7.48 21 21 0 0 1-2.59 10.66 16.295 16.295 0 0 1-8.46 6.85v.2a11.85 11.85 0 0 1 4.69 2.4 13.295 13.295 0 0 1 3 3.81 17.781 17.781 0 0 1 1.71 4.84c.354 1.743.598 3.506.73 5.28.06 1.106.127 2.41.2 3.91.073 1.5.187 3.033.34 4.6.148 1.5.409 2.988.78 4.45a10.238 10.238 0 0 0 1.61 3.57h-15.31a27.065 27.065 0 0 1-1.56-7.92c-.193-3.067-.487-6-.88-8.8-.52-3.654-1.627-6.32-3.32-8-1.693-1.68-4.463-2.527-8.31-2.54h-15.36v27.29h-15.36v-69.86Zm-18.07 147.67a8.331 8.331 0 0 0-4.61 1.17 9.73 9.73 0 0 0-2.8 2.71v-12.24H216v34.37h6.56v-3.2a10.085 10.085 0 0 0 2.49 2.61 10.221 10.221 0 0 0 13-2.64 16.383 16.383 0 0 0 2.82-9.83 14.63 14.63 0 0 0-2.86-9.34 9.507 9.507 0 0 0-7.95-3.61Zm2.35 19.12a4.612 4.612 0 0 1-4 2.08 5.009 5.009 0 0 1-4.45-2.15 9.426 9.426 0 0 1-1.46-5.42c-.05-1.542.191-3.078.71-4.53a4.998 4.998 0 0 1 5-3.29 4.916 4.916 0 0 1 4.94 3.36c.515 1.435.755 2.955.71 4.48a9.436 9.436 0 0 1-1.46 5.47h.01Zm28.59-18.57h7.07l-8.72 25c-1.687 4.826-3.02 7.826-4 9-.98 1.173-2.943 1.753-5.89 1.74h-1.42l-1.61-.08v-5.32h.84c.624.031 1.25.007 1.87-.07a3.397 3.397 0 0 0 1.49-.54 3.617 3.617 0 0 0 1.09-1.66c.246-.48.392-1.003.43-1.54l-9.34-26.53h7.4l5.56 18.77 5.23-18.77Zm45-27.74h11.11v37c0 4.52-.763 8.103-2.29 10.75-2.587 4.473-7.253 6.71-14 6.71s-11.273-1.81-13.58-5.43c-2.307-3.62-3.46-8.557-3.46-14.81v-1.23h10.5v1.23c.093 4.113.517 7.006 1.27 8.68.753 1.673 2.373 2.51 4.86 2.51 2.46 0 4.087-.914 4.88-2.74.574-1.767.815-3.626.71-5.48v-37.19Zm46.4-1.62c-7.6 0-13.41 2.07-17.43 6.21-5.313 4.886-7.97 12.2-7.97 21.94 0 9.546 2.693 16.86 8.08 21.94 4 4.14 9.81 6.21 17.43 6.21 7.62 0 13.43-2.07 17.43-6.21 5.333-5.074 8-12.387 8-21.94 0-9.74-2.667-17.054-8-21.94-4.053-4.134-9.88-6.2-17.48-6.2l-.06-.01Zm10.48 42a12.706 12.706 0 0 1-4.653 3.697 12.71 12.71 0 0 1-5.827 1.173 12.848 12.848 0 0 1-10.53-4.87c-2.58-3.247-3.87-7.864-3.87-13.85 0-5.987 1.31-10.607 3.93-13.86a12.842 12.842 0 0 1 10.53-4.87 12.677 12.677 0 0 1 10.49 4.94c2.587 3.26 3.88 7.873 3.88 13.84 0 5.966-1.293 10.57-3.88 13.81l-.07-.01Zm65-2.74a15.263 15.263 0 0 1-5.6 12.1c-3.753 3.213-9.06 4.82-15.92 4.82-7 0-12.507-1.58-16.52-4.74s-6.013-7.494-6-13h10.61c.155 1.965.847 3.85 2 5.45 1.84 2.193 4.997 3.286 9.47 3.28a20.44 20.44 0 0 0 6.52-.87c3.167-1.107 4.75-3.164 4.75-6.17a4.542 4.542 0 0 0-.598-2.364 4.538 4.538 0 0 0-1.732-1.716 25.228 25.228 0 0 0-7.38-2.49l-5.76-1.26c-5.66-1.247-9.547-2.607-11.66-4.08-3.587-2.454-5.38-6.29-5.38-11.51a15.286 15.286 0 0 1 5.26-11.87c3.507-3.154 8.657-4.73 15.45-4.73a23.686 23.686 0 0 1 14.52 4.46c4 2.973 6.1 7.286 6.3 12.94h-10.67a7.623 7.623 0 0 0-4.29-6.82 14.706 14.706 0 0 0-6.62-1.33 12.582 12.582 0 0 0-7 1.73 5.477 5.477 0 0 0-2.63 4.83 4.565 4.565 0 0 0 2.59 4.26 32.171 32.171 0 0 0 7.07 2.2l9.33 2.2c4.093.96 7.16 2.246 9.2 3.86 3.147 2.48 4.72 6.086 4.72 10.82h-.03Zm19 6h29.44v9.56H436v-53.19h39v9.42h-28.11v11.31h25.84v9.24h-25.84l-.01 13.66Zm38.12-43.56h37.92v9.34H496v12.23h23.6v9.24H496v22.3h-11v-53.11Zm101.35 4c-3.133-2.74-7.33-4.11-12.59-4.11h-22.84v53.19h11v-19.09H573c5.78 0 10.227-1.3 13.34-3.9 3.113-2.6 4.667-7.037 4.66-13.31 0-5.747-1.553-9.994-4.66-12.74l.01-.04Zm-8.46 18.87a8.494 8.494 0 0 1-5.91 1.91H562v-15.61h10a8.998 8.998 0 0 1 5.91 1.77c1.393 1.146 2.09 3.116 2.09 5.91 0 2.793-.703 4.813-2.11 6.06v-.04Zm63.6 25.83a26.866 26.866 0 0 1-.29-4.94v-3.57c0-3.727-.51-6.5-1.53-8.32a9.917 9.917 0 0 0-5.21-4.21 10.671 10.671 0 0 0 6.31-5.18 15.917 15.917 0 0 0 1.91-7.45 14.912 14.912 0 0 0-1-5.59 16.581 16.581 0 0 0-2.68-4.47 13.116 13.116 0 0 0-5-3.72 23.146 23.146 0 0 0-8.39-1.37H600.2v53.19h10.86v-20.81h10.85c3.093 0 5.203.566 6.33 1.7 1.127 1.133 1.713 3.396 1.76 6.79l.07 4.94c.022 1.537.179 3.07.47 4.58.147.72.387 1.67.72 2.85h12.27v-1.33a4.438 4.438 0 0 1-2.04-3.04v-.05Zm-13.11-26.16c-1.7.671-3.525.967-5.35.87h-12v-14.24h12.27a10.996 10.996 0 0 1 5.14.94c2 1.106 3 3.27 3 6.49.053 2.986-.97 4.983-3.07 5.99l.01-.05Zm56.34-22.66H696v32.78c0 5.653-.877 10.056-2.63 13.21-3.267 5.773-9.497 8.66-18.69 8.66-9.193 0-15.437-2.887-18.73-8.66-1.753-3.154-2.63-7.557-2.63-13.21v-32.73h11.29v32.66c0 3.653.433 6.32 1.3 8 1.333 2.98 4.257 4.47 8.77 4.47s7.427-1.49 8.74-4.47c.867-1.68 1.3-4.347 1.3-8v-32.71Zm63.47 37.63a15.26 15.26 0 0 1-5.65 12.15c-3.76 3.213-9.067 4.82-15.92 4.82-7 0-12.507-1.58-16.52-4.74s-6.013-7.494-6-13h10.61c.155 1.965.847 3.85 2 5.45 1.84 2.193 4.997 3.286 9.47 3.28a20.44 20.44 0 0 0 6.52-.87c3.167-1.107 4.75-3.164 4.75-6.17a4.542 4.542 0 0 0-.598-2.364 4.538 4.538 0 0 0-1.732-1.716 25.172 25.172 0 0 0-7.39-2.49l-5.73-1.3c-5.66-1.247-9.547-2.607-11.66-4.08-3.587-2.454-5.377-6.29-5.37-11.51a15.278 15.278 0 0 1 5.26-11.87c3.507-3.154 8.657-4.73 15.45-4.73a23.68 23.68 0 0 1 14.52 4.46c4 2.973 6.1 7.286 6.3 12.94h-10.7a7.62 7.62 0 0 0-4.29-6.82 14.706 14.706 0 0 0-6.62-1.33 12.59 12.59 0 0 0-7 1.73 5.484 5.484 0 0 0-2.63 4.83 4.565 4.565 0 0 0 2.59 4.26 32.065 32.065 0 0 0 7.07 2.2l9.33 2.2c4.087.96 7.153 2.246 9.2 3.86 3.153 2.506 4.73 6.126 4.73 10.86l.01-.05Zm23-37.63-19 53.19h11.62l3.6-10.93H787l3.51 10.93h12.05l-18.82-53.19h-12.55Zm-.73 33.09 6.9-20.93 6.72 20.93h-13.62Z" fill="#fff"/></g><defs><clipPath id="a"><path fill="#fff" d="M0 0h1024v1024H0z"/></clipPath></defs></svg>