<svg width="1024" height="1024" viewBox="0 0 1024 1024" fill="none" xmlns="http://www.w3.org/2000/svg">
<g clip-path="url(#clip0_3_230)">
<path d="M512 1024C794.77 1024 1024 794.77 1024 512C1024 229.23 794.77 0 512 0C229.23 0 0 229.23 0 512C0 794.77 229.23 1024 512 1024Z" fill="#F8C18C"/>
<path d="M245.18 413.841H273.87C281.637 413.841 288.243 412.711 293.69 410.451C298.727 408.458 303.267 405.386 306.99 401.451C310.384 397.786 312.937 393.424 314.47 388.671C317.599 379.096 317.599 368.775 314.47 359.201C312.919 354.496 310.371 350.181 307 346.551C303.277 342.616 298.737 339.544 293.7 337.551C288.247 335.291 281.64 334.161 273.88 334.161H217.88V458.351H245.18V413.841ZM245.18 355.421H266.39C269.404 355.417 272.413 355.651 275.39 356.121C278.091 356.518 280.689 357.434 283.04 358.821C285.28 360.197 287.11 362.148 288.34 364.471C289.659 367.487 290.34 370.743 290.34 374.036C290.34 377.328 289.659 380.584 288.34 383.601C287.111 385.924 285.28 387.875 283.04 389.251C280.69 390.639 278.091 391.556 275.39 391.951C272.413 392.422 269.404 392.656 266.39 392.651H245.18V355.421ZM360.8 409.841H388.1C394.94 409.841 399.867 411.347 402.88 414.361C405.893 417.374 407.863 422.127 408.79 428.621C409.457 433.607 409.977 438.824 410.35 444.271C410.567 449.077 411.504 453.823 413.13 458.351H440.43C439.073 456.439 438.099 454.282 437.56 452.001C436.904 449.401 436.439 446.758 436.17 444.091C435.883 441.311 435.68 438.587 435.56 435.921C435.44 433.254 435.323 430.921 435.21 428.921C434.974 425.766 434.54 422.63 433.91 419.531C433.33 416.531 432.32 413.631 430.91 410.921C429.546 408.348 427.719 406.049 425.52 404.141C423.095 402.113 420.244 400.657 417.18 399.881V399.531C424.14 396.751 429.14 392.694 432.18 387.361C435.22 382.027 436.757 375.694 436.79 368.361C436.827 363.805 435.97 359.287 434.27 355.061C432.61 350.974 430.125 347.273 426.97 344.191C423.674 340.991 419.775 338.479 415.5 336.801C410.719 334.948 405.627 334.031 400.5 334.101H333.5V458.351H360.8V409.841ZM360.8 355.421H390.71C396.97 355.421 401.663 356.784 404.79 359.511C407.917 362.237 409.48 366.614 409.48 372.641C409.48 378.901 407.917 383.421 404.79 386.201C401.663 388.981 396.97 390.371 390.71 390.371H360.8V355.421ZM472 449.001C462.787 440.887 458.18 428.367 458.18 411.441V334.201H485.48V411.401C485.475 414.723 485.767 418.04 486.35 421.311C486.855 424.52 488.163 427.55 490.152 430.118C492.142 432.686 494.749 434.71 497.73 436.001C501.063 437.567 505.497 438.351 511.03 438.351C520.77 438.351 527.493 436.177 531.2 431.831C534.907 427.484 536.763 420.674 536.77 411.401V334.201H564.07V411.401C564.07 428.207 559.377 440.697 549.99 448.871C540.603 457.044 527.607 461.131 511 461.131C494.213 461.131 481.213 457.087 472 449.001ZM655 432.401C656.684 430.181 657.543 427.444 657.43 424.661C657.49 423.15 657.234 421.643 656.68 420.237C656.126 418.83 655.284 417.554 654.21 416.491C651.768 414.217 648.904 412.443 645.78 411.271C641.949 409.754 638.012 408.521 634 407.581C629.593 406.541 625.13 405.381 620.61 404.101C615.992 402.955 611.447 401.532 607 399.841C602.764 398.254 598.782 396.057 595.18 393.321C591.685 390.631 588.81 387.22 586.75 383.321C584.488 378.823 583.381 373.833 583.53 368.801C583.387 363.001 584.799 357.27 587.62 352.201C590.292 347.56 593.939 343.554 598.31 340.461C602.852 337.251 607.932 334.88 613.31 333.461C618.751 331.988 624.363 331.245 630 331.251C636.294 331.226 642.569 331.955 648.69 333.421C654.385 334.737 659.782 337.112 664.6 340.421C669.193 343.641 672.962 347.9 675.6 352.851C678.32 357.891 679.683 364.004 679.69 371.191H653.25C653.149 367.983 652.347 364.836 650.9 361.971C649.657 359.633 647.831 357.656 645.6 356.231C643.284 354.778 640.722 353.761 638.04 353.231C634.977 352.629 631.861 352.338 628.74 352.361C626.518 352.364 624.303 352.598 622.13 353.061C619.998 353.495 617.964 354.318 616.13 355.491C614.367 356.617 612.859 358.099 611.7 359.841C610.474 361.821 609.868 364.123 609.96 366.451C609.868 368.511 610.349 370.557 611.35 372.361C612.277 373.867 614.103 375.257 616.83 376.531C620.481 378.127 624.261 379.408 628.13 380.361C632.937 381.634 639.227 383.257 647 385.231C649.32 385.697 652.537 386.537 656.65 387.751C661 389.078 665.131 391.039 668.91 393.571C673.108 396.38 676.688 400.018 679.43 404.261C682.383 408.727 683.86 414.437 683.86 421.391C683.907 426.84 682.782 432.235 680.56 437.211C678.319 442.127 674.951 446.447 670.73 449.821C665.925 453.594 660.434 456.399 654.56 458.081C647.302 460.178 639.774 461.189 632.22 461.081C625.503 461.095 618.812 460.248 612.31 458.561C606.195 457.02 600.427 454.336 595.31 450.651C590.373 447.082 586.338 442.407 583.53 437.001C580.63 431.434 579.24 424.827 579.36 417.181H605.79C605.668 420.83 606.426 424.456 608 427.751C609.418 430.525 611.475 432.924 614 434.751C616.65 436.622 619.629 437.979 622.78 438.751C626.188 439.624 629.692 440.061 633.21 440.051C635.828 440.036 638.441 439.832 641.03 439.441C643.74 439.056 646.377 438.264 648.85 437.091C651.236 436.007 653.34 434.388 655 432.361V432.401ZM723.85 430.751H770.28L779.67 458.401H808L761.58 334.201H733.58L686.63 458.351H714.1L723.85 430.751ZM747.15 364.851H747.5L763.15 410.401H731L747.15 364.851ZM280.31 540.371H263.49V520.711H280.31C283.83 520.711 286.47 521.477 288.23 523.011C289.99 524.544 290.87 527.007 290.87 530.401C290.87 533.921 289.99 536.464 288.23 538.031C286.47 539.597 283.83 540.377 280.31 540.371ZM607.17 540.371H590.34V520.711H607.16C610.68 520.711 613.32 521.477 615.08 523.011C616.84 524.544 617.72 527.007 617.72 530.401C617.72 533.921 616.84 536.464 615.08 538.031C613.32 539.597 610.68 540.377 607.16 540.371H607.17ZM543.89 551.621H525.79L534.89 526.001H535.09L543.89 551.621ZM217.48 613.391H807.19V472.841H217.48V613.391ZM717.68 508.781H733V535.581H761.3V508.781H776.66V578.611H761.3V548.491H733V578.611H717.68V508.781ZM644.68 529.471C646.148 525.172 648.44 521.201 651.43 517.781C654.436 514.427 658.139 511.772 662.28 510.001C670.33 506.676 679.288 506.262 687.61 508.831C690.938 509.888 694.053 511.527 696.81 513.671C699.544 515.823 701.822 518.498 703.51 521.541C705.332 524.867 706.464 528.527 706.84 532.301H692C691.753 530.583 691.154 528.936 690.24 527.461C689.325 525.991 688.169 524.686 686.82 523.601C683.962 521.27 680.387 519.999 676.7 520.001C673.644 519.906 670.615 520.595 667.9 522.001C665.537 523.292 663.522 525.138 662.03 527.381C660.488 529.725 659.378 532.326 658.75 535.061C658.069 537.978 657.733 540.965 657.75 543.961C657.735 546.844 658.071 549.718 658.75 552.521C659.381 555.187 660.481 557.72 662 560.001C663.502 562.221 665.515 564.049 667.87 565.331C670.585 566.737 673.614 567.426 676.67 567.331C681.337 567.331 685.003 565.897 687.67 563.031C690.445 559.856 692.14 555.881 692.51 551.681H707.37C707.06 555.768 706.045 559.77 704.37 563.511C702.83 566.907 700.635 569.965 697.91 572.511C695.193 575.013 692 576.942 688.52 578.181C684.721 579.536 680.713 580.213 676.68 580.181C671.732 580.257 666.822 579.307 662.26 577.391C658.144 575.642 654.456 573.022 651.45 569.711C648.464 566.363 646.17 562.458 644.7 558.221C643.114 553.649 642.325 548.839 642.37 544.001C642.325 539.059 643.119 534.146 644.72 529.471H644.68ZM575 508.781H612.65C615.541 508.735 618.413 509.248 621.11 510.291C623.517 511.236 625.713 512.65 627.57 514.451C629.344 516.184 630.743 518.264 631.68 520.561C632.636 522.938 633.119 525.479 633.1 528.041C633.196 531.761 632.303 535.44 630.51 538.701C628.559 541.886 625.572 544.305 622.05 545.551V545.751C623.774 546.188 625.377 547.009 626.74 548.151C627.966 549.225 628.983 550.517 629.74 551.961C630.541 553.483 631.117 555.113 631.45 556.801C631.803 558.544 632.047 560.307 632.18 562.081C632.247 563.187 632.313 564.491 632.38 565.991C632.447 567.491 632.56 569.024 632.72 570.591C632.87 572.091 633.13 573.579 633.5 575.041C633.802 576.323 634.348 577.535 635.11 578.611H619.78C618.867 576.063 618.341 573.394 618.22 570.691C618.027 567.624 617.733 564.691 617.34 561.891C616.82 558.237 615.71 555.571 614.01 553.891C612.31 552.211 609.54 551.364 605.7 551.351H590.34V578.641H575V508.781ZM527.27 508.781H543L569.11 578.611H553.18L547.9 563.061H521.78L516.3 578.611H500.85L527.27 508.781ZM445.02 508.781H497.25V521.691H460.36V536.691H494.2V548.621H460.36V565.701H498V578.611H445L445.02 508.781ZM419.43 555.001C418.057 553.723 416.446 552.728 414.69 552.071C412.527 551.225 410.304 550.54 408.04 550.021C405.56 549.434 403.05 548.767 400.51 548.021C397.921 547.376 395.372 546.574 392.88 545.621C390.496 544.728 388.256 543.491 386.23 541.951C384.265 540.439 382.648 538.523 381.49 536.331C380.218 533.8 379.596 530.992 379.68 528.161C379.6 524.898 380.394 521.673 381.98 518.821C383.48 516.213 385.527 513.961 387.98 512.221C390.529 510.428 393.377 509.104 396.39 508.311C399.45 507.473 402.608 507.046 405.78 507.041C409.319 507.028 412.848 507.438 416.29 508.261C419.498 509.021 422.534 510.378 425.24 512.261C427.832 514.072 429.96 516.471 431.45 519.261C433.065 522.455 433.855 526.003 433.75 529.581H418.9C418.842 527.778 418.392 526.011 417.58 524.401C416.875 523.084 415.841 521.971 414.58 521.171C413.275 520.365 411.835 519.802 410.33 519.511C408.607 519.173 406.855 519.008 405.1 519.021C403.85 519.021 402.603 519.152 401.38 519.411C400.182 519.656 399.039 520.12 398.01 520.781C397.015 521.414 396.163 522.248 395.51 523.231C394.812 524.343 394.464 525.639 394.51 526.951C394.455 528.112 394.725 529.265 395.29 530.281C396.075 531.338 397.143 532.153 398.37 532.631C400.424 533.529 402.552 534.248 404.73 534.781C407.437 535.501 410.973 536.414 415.34 537.521C416.673 537.781 418.483 538.254 420.77 538.941C423.219 539.689 425.544 540.794 427.67 542.221C430.03 543.798 432.044 545.839 433.59 548.221C435.354 551.114 436.22 554.465 436.08 557.851C436.106 560.916 435.471 563.952 434.22 566.751C432.962 569.515 431.071 571.944 428.7 573.841C425.996 575.965 422.906 577.544 419.6 578.491C415.515 579.662 411.279 580.221 407.03 580.151C403.251 580.159 399.487 579.682 395.83 578.731C392.384 577.866 389.133 576.356 386.25 574.281C383.475 572.256 381.215 569.608 379.65 566.551C377.944 563.09 377.136 559.256 377.3 555.401H392.17C392.101 557.474 392.537 559.533 393.44 561.401C394.231 562.985 395.39 564.356 396.82 565.401C398.311 566.454 399.987 567.218 401.76 567.651C403.678 568.142 405.65 568.387 407.63 568.381C409.094 568.359 410.554 568.232 412 568.001C413.525 567.784 415.008 567.339 416.4 566.681C417.731 566.058 418.901 565.138 419.82 563.991C420.768 562.743 421.252 561.206 421.19 559.641C421.236 558.787 421.104 557.934 420.801 557.135C420.497 556.335 420.031 555.609 419.43 555.001ZM318.55 508.781H370.78V521.691H333.9V536.691H367.74V548.621H333.9V565.701H371.55V578.611H318.55V508.781ZM248.13 508.781H285.78C288.671 508.735 291.543 509.248 294.24 510.291C296.644 511.237 298.836 512.651 300.69 514.451C302.465 516.183 303.864 518.263 304.8 520.561C305.757 522.937 306.24 525.478 306.22 528.041C306.316 531.761 305.423 535.44 303.63 538.701C301.679 541.886 298.692 544.305 295.17 545.551V545.751C296.894 546.189 298.496 547.009 299.86 548.151C301.085 549.226 302.102 550.518 302.86 551.961C303.661 553.483 304.237 555.113 304.57 556.801C304.924 558.544 305.168 560.307 305.3 562.081C305.36 563.187 305.427 564.491 305.5 565.991C305.573 567.491 305.687 569.024 305.84 570.591C305.988 572.091 306.249 573.579 306.62 575.041C306.922 576.323 307.468 577.535 308.23 578.611H292.92C292.007 576.063 291.481 573.394 291.36 570.691C291.167 567.624 290.873 564.691 290.48 561.891C289.96 558.237 288.853 555.571 287.16 553.891C285.467 552.211 282.697 551.364 278.85 551.351H263.49V578.641H248.13V508.781ZM230.06 656.451C228.442 656.385 226.841 656.791 225.45 657.621C224.344 658.326 223.391 659.248 222.65 660.331V648.091H216V682.461H222.56V679.261C223.226 680.273 224.07 681.158 225.05 681.871C227.177 683.049 229.654 683.43 232.037 682.946C234.419 682.462 236.551 681.145 238.05 679.231C240.015 676.339 241.003 672.894 240.87 669.401C241.015 666.052 240.005 662.754 238.01 660.061C237.07 658.868 235.857 657.917 234.474 657.289C233.091 656.661 231.577 656.374 230.06 656.451ZM232.41 675.571C231.977 676.231 231.382 676.769 230.682 677.133C229.981 677.497 229.199 677.675 228.41 677.651C227.546 677.708 226.681 677.541 225.901 677.164C225.121 676.787 224.452 676.214 223.96 675.501C222.934 673.884 222.425 671.994 222.5 670.081C222.45 668.539 222.691 667.003 223.21 665.551C223.577 664.536 224.262 663.668 225.163 663.075C226.064 662.482 227.133 662.196 228.21 662.261C229.288 662.201 230.356 662.498 231.248 663.105C232.141 663.712 232.809 664.596 233.15 665.621C233.665 667.056 233.905 668.576 233.86 670.101C233.945 672.03 233.435 673.94 232.4 675.571H232.41ZM261 657.001H268.07L259.35 682.001C257.663 686.827 256.33 689.827 255.35 691.001C254.37 692.174 252.407 692.754 249.46 692.741H248.04L246.43 692.661V687.341H247.27C247.894 687.372 248.52 687.348 249.14 687.271C249.672 687.211 250.183 687.026 250.63 686.731C251.141 686.29 251.519 685.715 251.72 685.071C251.966 684.591 252.112 684.068 252.15 683.531L242.81 657.001H250.21L255.77 675.771L261 657.001ZM306 629.261H317.11V666.261C317.11 670.781 316.347 674.364 314.82 677.011C312.233 681.484 307.567 683.721 300.82 683.721C294.073 683.721 289.547 681.911 287.24 678.291C284.933 674.671 283.78 669.734 283.78 663.481V662.251H294.28V663.481C294.373 667.594 294.797 670.487 295.55 672.161C296.303 673.834 297.923 674.671 300.41 674.671C302.87 674.671 304.497 673.757 305.29 671.931C305.864 670.164 306.105 668.305 306 666.451V629.261ZM352.4 627.641C344.8 627.641 338.99 629.711 334.97 633.851C329.657 638.737 327 646.051 327 655.791C327 665.337 329.693 672.651 335.08 677.731C339.08 681.871 344.89 683.941 352.51 683.941C360.13 683.941 365.94 681.871 369.94 677.731C375.273 672.657 377.94 665.344 377.94 655.791C377.94 646.051 375.273 638.737 369.94 633.851C365.887 629.717 360.06 627.651 352.46 627.651L352.4 627.641ZM362.88 669.641C361.643 671.224 360.048 672.491 358.227 673.338C356.405 674.184 354.408 674.586 352.4 674.511C350.386 674.582 348.383 674.179 346.554 673.333C344.724 672.487 343.12 671.222 341.87 669.641C339.29 666.394 338 661.777 338 655.791C338 649.804 339.31 645.184 341.93 641.931C343.18 640.349 344.784 639.085 346.614 638.238C348.443 637.392 350.446 636.989 352.46 637.061C354.475 636.991 356.478 637.402 358.303 638.261C360.127 639.12 361.72 640.402 362.95 642.001C365.537 645.261 366.83 649.874 366.83 655.841C366.83 661.807 365.537 666.411 362.95 669.651L362.88 669.641ZM427.88 666.901C427.923 669.21 427.441 671.499 426.471 673.595C425.501 675.69 424.068 677.539 422.28 679.001C418.527 682.214 413.22 683.821 406.36 683.821C399.36 683.821 393.853 682.241 389.84 679.081C385.827 675.921 383.827 671.587 383.84 666.081H394.45C394.605 668.046 395.297 669.931 396.45 671.531C398.29 673.724 401.447 674.817 405.92 674.811C408.126 674.875 410.328 674.581 412.44 673.941C415.607 672.834 417.19 670.777 417.19 667.771C417.21 666.943 417.003 666.126 416.592 665.407C416.182 664.688 415.583 664.094 414.86 663.691C412.544 662.484 410.054 661.644 407.48 661.201L401.72 659.941C396.06 658.694 392.173 657.334 390.06 655.861C386.473 653.407 384.68 649.571 384.68 644.351C384.632 642.107 385.079 639.881 385.988 637.83C386.897 635.778 388.246 633.952 389.94 632.481C393.447 629.327 398.597 627.751 405.39 627.751C410.588 627.603 415.691 629.171 419.91 632.211C423.91 635.184 426.01 639.497 426.21 645.151H415.54C415.534 643.727 415.128 642.333 414.37 641.127C413.612 639.922 412.531 638.953 411.25 638.331C409.176 637.38 406.91 636.925 404.63 637.001C402.178 636.882 399.745 637.484 397.63 638.731C396.805 639.232 396.127 639.944 395.665 640.792C395.203 641.64 394.974 642.595 395 643.561C394.972 644.445 395.201 645.319 395.661 646.076C396.121 646.832 396.791 647.439 397.59 647.821C399.854 648.824 402.226 649.562 404.66 650.021L413.99 652.221C418.083 653.181 421.15 654.467 423.19 656.081C426.337 658.561 427.91 662.167 427.91 666.901H427.88ZM446.88 672.901H476.32V682.461H436V629.271H475V638.691H446.89V650.001H472.73V659.241H446.89L446.88 672.901ZM485 629.341H522.92V638.681H496V650.911H519.6V660.151H496V682.451H485V629.341ZM586.35 633.341C583.217 630.601 579.02 629.231 573.76 629.231H550.92V682.421H561.92V663.331H573C578.78 663.331 583.227 662.031 586.34 659.431C589.453 656.831 591.007 652.394 591 646.121C591 640.374 589.447 636.127 586.34 633.381L586.35 633.341ZM577.89 652.211C576.232 653.571 574.121 654.253 571.98 654.121H562V638.511H572C574.117 638.386 576.21 639.013 577.91 640.281C579.303 641.427 580 643.397 580 646.191C580 648.984 579.297 651.004 577.89 652.251V652.211ZM641.49 678.041C641.242 676.406 641.144 674.753 641.2 673.101V669.531C641.2 665.804 640.69 663.031 639.67 661.211C638.474 659.246 636.632 657.757 634.46 657.001C637.167 656.179 639.437 654.315 640.77 651.821C642.006 649.531 642.662 646.973 642.68 644.371C642.708 642.46 642.368 640.563 641.68 638.781C641.028 637.159 640.123 635.65 639 634.311C637.656 632.687 635.941 631.411 634 630.591C631.312 629.62 628.467 629.156 625.61 629.221H600.2V682.411H611.06V661.601H621.91C625.003 661.601 627.113 662.167 628.24 663.301C629.367 664.434 629.953 666.697 630 670.091L630.07 675.031C630.092 676.568 630.249 678.101 630.54 679.611C630.687 680.331 630.927 681.281 631.26 682.461H643.53V681.131C642.993 680.799 642.533 680.355 642.181 679.831C641.829 679.307 641.594 678.713 641.49 678.091V678.041ZM628.38 651.881C626.68 652.552 624.855 652.848 623.03 652.751H611.03V638.511H623.3C625.064 638.407 626.827 638.729 628.44 639.451C630.44 640.557 631.44 642.721 631.44 645.941C631.493 648.927 630.47 650.924 628.37 651.931L628.38 651.881ZM684.72 629.221H696V662.001C696 667.654 695.123 672.057 693.37 675.211C690.103 680.984 683.873 683.871 674.68 683.871C665.487 683.871 659.243 680.984 655.95 675.211C654.197 672.057 653.32 667.654 653.32 662.001V629.271H664.61V661.931C664.61 665.584 665.043 668.251 665.91 669.931C667.243 672.911 670.167 674.401 674.68 674.401C679.193 674.401 682.107 672.911 683.42 669.931C684.287 668.251 684.72 665.584 684.72 661.931V629.221ZM748.19 666.851C748.235 669.172 747.749 671.473 746.77 673.579C745.791 675.684 744.344 677.539 742.54 679.001C738.78 682.214 733.473 683.821 726.62 683.821C719.62 683.821 714.113 682.241 710.1 679.081C706.087 675.921 704.087 671.587 704.1 666.081H714.71C714.865 668.046 715.557 669.931 716.71 671.531C718.55 673.724 721.707 674.817 726.18 674.811C728.386 674.875 730.588 674.581 732.7 673.941C735.867 672.834 737.45 670.777 737.45 667.771C737.47 666.943 737.263 666.126 736.852 665.407C736.442 664.688 735.843 664.094 735.12 663.691C732.801 662.482 730.307 661.642 727.73 661.201L722 659.901C716.34 658.654 712.453 657.294 710.34 655.821C706.753 653.367 704.963 649.531 704.97 644.311C704.921 642.067 705.368 639.841 706.277 637.789C707.186 635.738 708.535 633.912 710.23 632.441C713.737 629.287 718.887 627.711 725.68 627.711C730.878 627.563 735.981 629.13 740.2 632.171C744.2 635.144 746.3 639.457 746.5 645.111H735.8C735.794 643.686 735.388 642.293 734.63 641.087C733.872 639.882 732.791 638.913 731.51 638.291C729.436 637.34 727.17 636.885 724.89 636.961C722.438 636.843 720.005 637.444 717.89 638.691C717.065 639.193 716.387 639.904 715.925 640.752C715.463 641.6 715.234 642.555 715.26 643.521C715.232 644.405 715.461 645.279 715.921 646.036C716.381 646.792 717.051 647.399 717.85 647.781C720.114 648.785 722.486 649.523 724.92 649.981L734.25 652.181C738.337 653.141 741.403 654.427 743.45 656.041C746.603 658.547 748.18 662.167 748.18 666.901L748.19 666.851ZM771.19 629.221L752.19 682.411H763.81L767.41 671.481H787L790.51 682.411H802.56L783.74 629.221H771.19ZM770.46 662.311L777.36 641.381L784.08 662.311H770.46Z" fill="white"/>
</g>
<defs>
<clipPath id="clip0_3_230">
<rect width="1024" height="1024" fill="white"/>
</clipPath>
</defs>
</svg>
