<svg width="1024" height="1024" fill="none" xmlns="http://www.w3.org/2000/svg"><g clip-path="url(#a)"><path d="M512 1024c282.77 0 512-229.23 512-512S794.77 0 512 0 0 229.23 0 512s229.23 512 512 512Z" fill="#FF837D"/><path d="M619.88 547.501H258.19c-.93-6.74-1.58-13.58-2-20.51H648c-3 11.35-12 20.51-28.12 20.51Zm-322.61 70.84h-18.56c40.41 88.43 129.46 149.94 233 149.94 103.54 0 192.54-61.54 233-149.94H297.27Zm214.46-362.62c-95.75 0-179.07 52.61-223.07 130.38 34.34-.1 101.34-.1 101.34-.1 79.15 0 82.1.35 97.56 1l9.57.35c33.35 1.11 74.34 4.69 106.6 29.11 17.51 13.24 42.79 42.47 57.85 63.3 13.93 19.26 17.94 41.4 8.47 62.62-8.72 19.5-27.48 31.13-50.19 31.13H263.12a234.724 234.724 0 0 0 5.37 18.89H755a255.586 255.586 0 0 0 13-80.4c0-141.53-114.73-256.28-256.27-256.28Zm-253.35 219.48a259.842 259.842 0 0 0-2.38 25.8h388.9a46.464 46.464 0 0 0-5-7.39c-66.49-85.95-102.25-78.49-153.41-80.68-17.06-.7-28.62-1-96.52-1-36.27 0-75.7.09-114.1.19a254.735 254.735 0 0 0-12.36 37.09H462.8v26l-204.42-.01Z" fill="#fff"/></g><defs><clipPath id="a"><path fill="#fff" d="M0 0h1024v1024H0z"/></clipPath></defs></svg>