<svg width="1024" height="1024" viewBox="0 0 1024 1024" fill="none" xmlns="http://www.w3.org/2000/svg">
<g clip-path="url(#clip0_3_233)">
<path d="M512 1024C794.77 1024 1024 794.77 1024 512C1024 229.23 794.77 0 512 0C229.23 0 0 229.23 0 512C0 794.77 229.23 1024 512 1024Z" fill="#FF837D"/>
<path d="M619.88 547.501H258.19C257.26 540.761 256.61 533.921 256.19 526.991H648C645 538.341 636 547.501 619.88 547.501ZM297.27 618.341H278.71C319.12 706.771 408.17 768.281 511.71 768.281C615.25 768.281 704.25 706.741 744.71 618.341H297.27ZM511.73 255.721C415.98 255.721 332.66 308.331 288.66 386.101C323 386.001 390 386.001 390 386.001C469.15 386.001 472.1 386.351 487.56 387.001L497.13 387.351C530.48 388.461 571.47 392.041 603.73 416.461C621.24 429.701 646.52 458.931 661.58 479.761C675.51 499.021 679.52 521.161 670.05 542.381C661.33 561.881 642.57 573.511 619.86 573.511H263.12C264.646 579.88 266.437 586.182 268.49 592.401H755C763.603 566.468 767.992 539.323 768 512.001C768 370.471 653.27 255.721 511.73 255.721ZM258.38 475.201C257.16 483.734 256.367 492.334 256 501.001H644.9C643.474 498.383 641.8 495.908 639.9 493.611C573.41 407.661 537.65 415.121 486.49 412.931C469.43 412.231 457.87 411.931 389.97 411.931C353.7 411.931 314.27 412.021 275.87 412.121C270.806 424.149 266.674 436.549 263.51 449.211H462.8V475.211L258.38 475.201Z" fill="white"/>
</g>
<defs>
<clipPath id="clip0_3_233">
<rect width="1024" height="1024" fill="white"/>
</clipPath>
</defs>
</svg>
