<svg width="1024" height="1024" viewBox="0 0 1024 1024" fill="none" xmlns="http://www.w3.org/2000/svg">
<g clip-path="url(#clip0_3_245)">
<path d="M512 1024C794.77 1024 1024 794.77 1024 512C1024 229.23 794.77 0 512 0C229.23 0 0 229.23 0 512C0 794.77 229.23 1024 512 1024Z" fill="#728DBE"/>
<path d="M667.73 522.94L427 574L596.68 450.68L678.17 391.44C661.48 313.85 592.79 256 510.75 256C416.19 256 339.43 332.76 339.43 427.32C339.38 457.424 347.35 486.998 362.52 513C377.483 538.889 398.925 560.439 424.74 575.53L345.83 632.87C354.044 671.159 375.152 705.469 405.625 730.065C436.098 754.66 474.09 768.051 513.25 768C607.81 768 684.57 691.24 684.57 597C684.607 571.36 678.85 546.043 667.73 522.94Z" fill="white"/>
</g>
<defs>
<clipPath id="clip0_3_245">
<rect width="1024" height="1024" fill="white"/>
</clipPath>
</defs>
</svg>
