<svg width="1024" height="1024" fill="none" xmlns="http://www.w3.org/2000/svg"><g clip-path="url(#a)"><path d="M512 1024c282.77 0 512-229.23 512-512S794.77 0 512 0 0 229.23 0 512s229.23 512 512 512Z" fill="#728DBE"/><path d="M667.73 522.94 427 574l169.68-123.32 81.49-59.24C661.48 313.85 592.79 256 510.75 256c-94.56 0-171.32 76.76-171.32 171.32A169.467 169.467 0 0 0 362.52 513a172.3 172.3 0 0 0 62.22 62.53l-78.91 57.34A171 171 0 0 0 513.25 768c94.56 0 171.32-76.76 171.32-171a170.198 170.198 0 0 0-16.84-74.06Z" fill="#fff"/></g><defs><clipPath id="a"><path fill="#fff" d="M0 0h1024v1024H0z"/></clipPath></defs></svg>