<svg width="1024" height="1024" viewBox="0 0 1024 1024" fill="none" xmlns="http://www.w3.org/2000/svg">
<g clip-path="url(#clip0_3_248)">
<path d="M512 1024C794.77 1024 1024 794.77 1024 512C1024 229.23 794.77 0 512 0C229.23 0 0 229.23 0 512C0 794.77 229.23 1024 512 1024Z" fill="#F8C18C"/>
<path d="M380.36 726.51C384.83 728.33 389.86 729.96 394.04 731.51C396.51 732.09 399.17 732.95 401.64 733.62L408.2 735L414.85 736.15C422.494 737.298 430.211 737.876 437.94 737.88C456.801 737.321 475.391 733.251 492.76 725.88C511.163 717.913 527.787 706.348 541.656 691.864C555.525 677.381 566.359 660.271 573.52 641.54L575.14 637.32C575.14 635.88 576.76 632.14 577.23 630.8C578.08 627.35 579.32 623.23 579.99 619.8C579.99 618.55 580.75 616.64 580.99 615.39C582.088 608.769 582.819 602.092 583.18 595.39V587.53C578.284 587.391 573.399 586.974 568.55 586.28C529.902 581.484 494.562 562.059 469.8 532C444.95 501.801 432.442 463.32 434.788 424.281C437.135 385.242 454.161 348.535 482.45 321.53C504.784 300.683 532.751 286.856 562.876 281.768C593.002 276.68 623.958 280.554 651.9 292.91C636.56 283.109 620.18 275.04 603.06 268.85C561.009 253.349 515.631 249.129 471.442 256.612C427.253 264.095 385.794 283.018 351.19 311.5C349 313.13 343.19 318.5 340.93 320.41C337.552 323.386 334.378 326.587 331.43 329.99C328.459 333.371 325.286 336.57 321.93 339.57C318.93 342.35 315.18 347.57 313.19 350.02L306.35 359.02C304.54 361.51 300.35 367.74 298.65 370.23C296.95 372.72 295.8 375 295 376.1C294.2 377.2 292.53 380.1 292.05 380.89C291.57 381.68 287.11 389.89 285.97 391.82C284.83 393.75 281.41 401.4 280.08 404.09L275.61 414.54C275.61 415.69 272.19 424.12 271.61 425.18C271.03 426.24 269.61 431.31 268.85 433.81C267.23 438.6 265.85 444.16 264.48 449.05C263.72 452.05 262.2 459.4 261.53 462.37V464.67C250.442 525.637 261.315 588.56 292.22 642.27C295.36 647.45 299.63 654.54 303.22 659.43C304.55 661.43 306.93 664.89 308.45 666.81L313.96 674.09L322.7 684.44L332.2 694.02C334.01 695.65 336.86 698.72 338.76 700.25L342.18 703.25L343.03 703.92L343.88 704.59L345.59 706.03C347.78 707.85 350.53 709.77 352.81 711.4L354.62 712.65L356.52 713.9C358.52 715.24 362.03 717.45 364.22 718.6C366.41 719.75 367.07 720.32 368.12 720.8L374.12 723.8C376.08 724.69 378.55 725.75 380.36 726.51ZM568.86 273.35H571.14L577.7 273.93C581.31 273.93 584.92 274.93 588.53 275.37H569C552.419 276.44 536.05 279.678 520.31 285C493.961 293.649 470.019 308.38 450.42 328C420.768 357.767 402.487 396.985 398.756 438.835C395.026 480.684 406.081 522.518 430 557.06V557C438.032 568.693 447.621 579.237 458.5 588.34C471.81 599.23 487.595 606.675 504.463 610.018C521.332 613.362 538.764 612.5 555.22 607.51C541.573 613.484 526.77 616.357 511.879 615.923C496.987 615.489 482.377 611.759 469.1 605C455.468 598.233 443.251 588.93 433.1 577.59C415.565 558.497 402.287 535.896 394.148 511.283C386.008 486.671 383.192 460.609 385.887 434.826C388.582 409.043 396.726 384.127 409.779 361.729C422.832 339.332 440.496 319.964 461.6 304.91C463.69 303.38 466.92 301.36 469.2 299.91C473.38 297.13 478.7 294.45 482.79 292.05C486.058 290.205 489.457 288.604 492.96 287.26C512.138 279.04 532.637 274.332 553.48 273.36H568.87L568.86 273.35ZM559.93 266.93C548.179 267.071 536.457 268.127 524.87 270.09C491.466 275.648 459.936 289.322 433.05 309.91C405.02 331.113 382.931 359.186 368.918 391.418C354.904 423.649 349.439 458.95 353.05 493.91C356.626 529.966 369.609 564.449 390.7 593.91C392.32 595.91 394.98 599.76 396.7 601.77C399.55 605.32 403.16 609.63 406.2 612.98C423.058 632.3 445.928 645.383 471.127 650.121C496.326 654.859 522.386 650.977 545.11 639.1C502.64 669.29 441.64 660.86 404.3 626L402.59 624.18L401.59 623.32L395.22 616.8C376.101 596.354 361.254 572.297 351.551 546.039C341.849 519.781 337.484 491.85 338.715 463.884C339.945 435.918 346.745 408.478 358.716 383.174C370.687 357.869 387.589 335.209 408.43 316.52C414.899 310.792 421.722 305.478 428.86 300.61C432.86 297.93 437.79 294.67 441.97 292.37C446.15 290.07 451.47 287.29 455.65 285.09C457.27 284.23 458.79 283.75 460.31 282.98C461.83 282.21 466.01 280.39 467.44 279.91C484.108 273.252 501.6 268.879 519.44 266.91C522.1 266.91 526.85 266.14 529.51 266.05H537.11C544.728 265.915 552.347 266.212 559.93 266.94V266.93ZM355.65 654C333.477 630.182 316.44 602.056 305.599 571.373C294.759 540.69 290.347 508.104 292.637 475.643C294.928 443.181 303.872 411.538 318.913 382.681C333.955 353.823 354.772 328.369 380.07 307.9C381.97 306.27 385.01 304.16 386.91 302.72C394.499 297.031 402.431 291.815 410.66 287.1C437.037 272.269 466.108 262.852 496.17 259.4L507.29 258.4H529.62L518.5 259.26L507.5 260.7L496.57 262.52C463.427 268.657 432.027 281.968 404.57 301.52C376.994 321.195 354.004 346.606 337.181 376.009C320.357 405.411 310.099 438.107 307.11 471.85C304.075 505.664 308.366 539.735 319.69 571.74C328.892 597.524 342.594 621.472 360.16 642.47L361.87 644.58L362.73 645.63L363.68 646.63C368.398 652.108 373.444 657.294 378.79 662.16C397.977 679.042 421.649 689.996 446.937 693.695C472.224 697.394 498.042 693.679 521.26 683C498.008 696.13 471.323 701.904 444.723 699.56C418.123 697.216 392.858 686.864 372.26 669.87C366.404 664.925 360.857 659.625 355.65 654ZM731.71 381.38C728.57 376.11 724.3 369.11 720.71 364.13C719.38 362.13 717 358.67 715.48 356.75L710 349.56C708.1 347.36 703.06 341.22 701.16 339.11C698.165 335.752 694.993 332.554 691.66 329.53C689.95 327.9 687 324.83 685.2 323.3L681.78 320.42L680.92 319.65L680 319L678.19 317.56C676.1 315.74 673.34 313.82 671.06 312.19L669.16 310.94L667.35 309.69C665.26 308.35 661.84 306.14 659.65 304.99C657.46 303.84 656.8 303.26 655.75 302.79L649.75 299.79L643.63 297C639.16 295.18 634.13 293.55 629.95 292L622.35 290L615.79 288.47L609.14 287.32C601.497 286.172 593.779 285.594 586.05 285.59C567.19 286.149 548.599 290.219 531.23 297.59C512.848 305.524 496.244 317.065 482.4 331.53C468.508 346.064 457.653 363.221 450.47 382L448.85 386.31C448.38 387.65 447.23 391.39 446.76 392.73C445.81 396.18 444.67 400.3 444 403.73C444 404.98 443.24 406.89 443.05 408.14C441.83 414.857 441.035 421.643 440.67 428.46V436.8H441.05V437.06C445.152 437.058 449.249 437.345 453.31 437.92L447.42 437.19C485.737 439.193 521.814 455.865 548.17 483.75C562.117 498.447 573.015 515.761 580.234 534.693C587.453 553.624 590.85 573.798 590.23 594.05C589.145 619.579 581.891 644.466 569.09 666.58C556.337 688.625 538.398 707.226 516.83 720.77C495.344 734.268 470.867 742.272 445.557 744.075C420.248 745.878 394.883 741.426 371.7 731.11C387.06 740.902 403.435 748.999 420.54 755.26C462.701 770.724 508.179 774.867 552.44 767.277C596.702 759.686 638.201 740.628 672.8 712C674.89 710.37 680.8 705 683.06 703.09L692.56 693.51L702.06 683.93C704.25 681.34 708.81 676.07 710.8 673.48L717.64 664.48C719.45 661.99 723.64 655.76 725.34 653.27L728.95 647.42C729.52 646.65 731.42 643.42 731.9 642.63C732.38 641.84 736.84 633.72 737.9 631.7C738.96 629.68 742.56 622.12 743.9 619.43C745.24 616.74 747.04 612.05 748.37 608.98C748.37 607.93 751.79 599.4 752.27 598.34C752.75 597.28 754.36 592.21 755.12 589.71C756.74 584.92 758.12 579.36 759.49 574.47C760.25 571.47 761.68 564.12 762.44 561.15V559C773.539 498.022 762.65 435.085 731.71 381.38ZM512.33 735.38L512.24 735L520.13 731.64L527.83 727.9C530.78 726.46 534.29 724.35 537.33 722.72L546.33 717.07C548.9 715.25 552.51 712.76 554.98 710.84C590.462 683.806 614.565 644.491 622.562 600.607C630.559 556.722 621.874 511.433 598.21 473.62L593.55 466.53L588.55 459.72L583.21 453C577.843 446.498 571.862 440.527 565.35 435.17C552.053 424.325 536.298 416.906 519.467 413.564C502.637 410.222 485.243 411.058 468.81 416C485.385 408.784 503.567 406.057 521.529 408.093C539.492 410.129 556.602 416.857 571.14 427.6C581.002 434.744 589.911 443.119 597.65 452.52C626.653 486.996 641.875 530.984 640.385 576.013C638.896 621.041 620.799 663.926 589.58 696.41C568.971 717.81 543.372 733.76 515.08 742.83C489.532 750.795 462.461 752.601 436.08 748.1C462.101 749.07 488.046 744.725 512.33 735.33V735.38ZM464.44 756.66C477.838 756.413 491.188 755.001 504.34 752.44C536.694 746.073 567.06 732.072 592.91 711.6C618.846 691.065 639.548 664.678 653.32 634.6C668.466 600.851 674.291 563.661 670.19 526.897C666.089 490.134 652.211 455.141 630 425.56C628.29 423.16 625.72 420.19 623.92 417.89C622.12 415.59 618.31 411.56 615.75 408.31C598.707 389.768 576.01 377.382 551.194 373.083C526.379 368.784 500.838 372.812 478.55 384.54C518.74 355.79 576.41 361.54 613.94 392.11L613.84 391.73C616.84 394.13 619.92 397 622.77 399.59C647.274 423.318 665.611 452.672 676.185 485.1C686.759 517.529 689.252 552.05 683.445 585.661C677.639 619.272 663.709 650.956 642.868 677.957C622.026 704.958 594.904 726.459 563.86 740.59L559.11 742.59L557.97 743.07L556.74 743.55L554.36 744.55C551.89 745.41 547.36 747.23 544.86 748C518.951 756.463 491.554 759.396 464.44 756.61V756.66ZM732.14 538C730.411 600.349 704.213 659.513 659.21 702.7C656.93 704.81 653.21 708.45 650.75 710.37L646.39 714L644.11 715.92L643.11 716.78L637.41 721.09C629.755 726.751 621.76 731.937 613.47 736.62L603.4 741.99C569.6 758.849 532.066 766.833 494.33 765.19C555.499 761.84 613.002 734.966 654.81 690.19C692.211 649.928 714.259 597.794 717.096 542.914C719.934 488.034 703.379 433.905 670.33 390C668.33 387.12 665.67 384.15 663.49 381.47L661.78 379.36L660.93 378.31L660.07 377.26C641.566 354.528 616.034 338.588 587.486 331.943C558.938 325.298 528.991 328.326 502.35 340.55C525.636 327.26 552.414 321.37 579.126 323.664C605.839 325.957 631.221 336.325 651.9 353.39C657.805 358.37 663.42 363.682 668.72 369.3C711.192 415.024 733.972 475.621 732.14 538Z" fill="white"/>
</g>
<defs>
<clipPath id="clip0_3_248">
<rect width="1024" height="1024" fill="white"/>
</clipPath>
</defs>
</svg>
