<svg width="1024" height="1024" fill="none" xmlns="http://www.w3.org/2000/svg"><g clip-path="url(#a)"><path d="M512 1024c282.77 0 512-229.23 512-512S794.77 0 512 0 0 229.23 0 512s229.23 512 512 512Z" fill="#728DBE"/><path d="M491 394.23a148.683 148.683 0 0 0 126.9 55.23 5.122 5.122 0 0 1 5.683 5.187 5.127 5.127 0 0 1-.853 2.733 148.749 148.749 0 0 0-13.29 137.77 5.126 5.126 0 0 1-.918 5.319 5.12 5.12 0 0 1-5.172 1.541 148.734 148.734 0 0 0-135.31 30 5.167 5.167 0 0 1-5.357.763 5.168 5.168 0 0 1-3.103-4.433 148.7 148.7 0 0 0-70.19-119.24 5.173 5.173 0 0 1-2.383-4.857 5.168 5.168 0 0 1 3.253-4.323 148.698 148.698 0 0 0 91.82-103.66 5.116 5.116 0 0 1 3.852-3.764 5.123 5.123 0 0 1 5.088 1.764l-.02-.03ZM512 296a216.25 216.25 0 1 1-152.67 63.34A216 216 0 0 1 512 296Zm0-58a274.007 274.007 0 0 0-173.823 62.198 274.004 274.004 0 0 0-67.816 340.969A274.003 274.003 0 0 0 591.548 774.2a273.997 273.997 0 0 0 193.137-289.061A273.997 273.997 0 0 0 512 238Z" fill="#fff"/></g><defs><clipPath id="a"><path fill="#fff" d="M0 0h1024v1024H0z"/></clipPath></defs></svg>