<svg width="1024" height="1024" viewBox="0 0 1024 1024" fill="none" xmlns="http://www.w3.org/2000/svg">
<g clip-path="url(#clip0_3_269)">
<path d="M512 1024C794.77 1024 1024 794.77 1024 512C1024 229.23 794.77 0 512 0C229.23 0 0 229.23 0 512C0 794.77 229.23 1024 512 1024Z" fill="#56595B"/>
<path d="M337.12 499.74L499.36 337.5C517.035 319.863 540.985 309.957 565.955 309.957C590.925 309.957 614.875 319.863 632.55 337.5L645.19 350.15L619.91 375.43L607.27 362.78C596.303 351.841 581.445 345.697 565.955 345.697C550.464 345.697 535.607 351.841 524.64 362.78L362.41 525L337.12 499.74ZM579 416.35L553.72 391.07L391.45 553.31C380.492 564.266 365.631 570.421 350.136 570.42C334.641 570.419 319.781 564.263 308.825 553.305C297.869 542.348 291.714 527.487 291.715 511.992C291.716 496.497 297.872 481.636 308.83 470.68L448.83 330.68L423.55 305.4L283.55 445.4C266.155 463.117 256.46 486.985 256.573 511.812C256.686 536.64 266.599 560.419 284.154 577.976C301.71 595.532 325.488 605.447 350.316 605.562C375.143 605.677 399.012 595.984 416.73 578.59L579 416.35ZM740.49 445.35C722.813 427.715 698.864 417.811 673.895 417.811C648.926 417.811 624.976 427.715 607.3 445.35L445 607.65L470.28 632.93L632.55 470.69C643.536 459.873 658.353 453.837 673.771 453.897C689.188 453.957 703.958 460.108 714.86 471.01C725.762 481.913 731.913 496.682 731.973 512.1C732.033 527.517 725.997 542.334 715.18 553.32L575.18 693.32L600.46 718.6L740.46 578.6C758.099 560.922 768.005 536.968 768.005 511.995C768.005 487.022 758.099 463.069 740.46 445.39M661.6 499L499.36 661.21C488.393 672.15 473.535 678.294 458.045 678.294C442.554 678.294 427.696 672.15 416.73 661.21L404.09 648.56L378.81 673.84L391.45 686.48C409.125 704.118 433.075 714.023 458.045 714.023C483.015 714.023 506.965 704.118 524.64 686.48L686.88 524.27L661.6 499Z" fill="white"/>
</g>
<defs>
<clipPath id="clip0_3_269">
<rect width="1024" height="1024" fill="white"/>
</clipPath>
</defs>
</svg>
