<svg width="1024" height="1024" fill="none" xmlns="http://www.w3.org/2000/svg"><g clip-path="url(#a)"><path d="M512 1024c282.77 0 512-229.23 512-512S794.77 0 512 0 0 229.23 0 512s229.23 512 512 512Z" fill="#728DBE"/><path d="M666.46 280H357.54a77.523 77.523 0 0 0-54.832 22.708A77.523 77.523 0 0 0 280 357.54v308.92a77.523 77.523 0 0 0 22.708 54.832A77.523 77.523 0 0 0 357.54 744h308.92a77.523 77.523 0 0 0 54.832-22.708A77.523 77.523 0 0 0 744 666.46V357.54a77.523 77.523 0 0 0-22.708-54.832A77.523 77.523 0 0 0 666.46 280Zm-6.81 355.15a24.485 24.485 0 0 1-15.118 22.626 24.485 24.485 0 0 1-9.372 1.864H388.84a24.49 24.49 0 0 1-24.49-24.49V388.84a24.49 24.49 0 0 1 24.49-24.49h246.32a24.49 24.49 0 0 1 24.49 24.49v246.31ZM462.78 575a14 14 0 0 1-14-14.09v-98.37a14.081 14.081 0 0 1 14-14.14h98.48a14.08 14.08 0 0 1 14 14.14v98.29a14.071 14.071 0 0 1-14 14.09h-98.48v.08Z" fill="#fff"/></g><defs><clipPath id="a"><path fill="#fff" d="M0 0h1024v1024H0z"/></clipPath></defs></svg>