<svg width="1024" height="1024" viewBox="0 0 1024 1024" fill="none" xmlns="http://www.w3.org/2000/svg">
<g clip-path="url(#clip0_3_278)">
<path d="M512 1024C794.77 1024 1024 794.77 1024 512C1024 229.23 794.77 0 512 0C229.23 0 0 229.23 0 512C0 794.77 229.23 1024 512 1024Z" fill="#FF837D"/>
<path d="M166.631 435.25H243.381V460.83H217.791V588.75H192.211V460.83H166.631V435.25ZM601.541 563.17H652.711V512H601.541V563.17ZM831.791 460.83V435.25H780.621V512H806.201V460.83H831.791ZM294.541 512H345.711V486.42H294.541V460.83H345.711V435.25H269.001V563.17H371.291V537.58H294.541V512ZM371.291 460.83H396.871V588.75H422.451V460.83H448.001V435.25H371.291V460.83ZM550.371 486.41H499.211V460.83H550.381V435.25H473.631V588.75H499.211V512H524.791V588.75H576.001V563.17H550.371V512H576.001V460.83H550.371V486.41ZM678.291 460.83H703.871V512H678.291V537.58H755.001V512H729.461V460.83H755.001V435.25H678.291V460.83ZM831.791 460.83V512H806.211V537.58H857.381V460.83H831.791Z" fill="white"/>
</g>
<defs>
<clipPath id="clip0_3_278">
<rect width="1024" height="1024" fill="white"/>
</clipPath>
</defs>
</svg>
