<svg width="1024" height="1024" fill="none" xmlns="http://www.w3.org/2000/svg"><g clip-path="url(#a)"><path d="M512 1024c282.77 0 512-229.23 512-512S794.77 0 512 0 0 229.23 0 512s229.23 512 512 512Z" fill="#FF837D"/><path d="M166.631 435.25h76.75v25.58h-25.59v127.92h-25.58V460.83h-25.58v-25.58Zm434.91 127.92h51.17V512h-51.17v51.17Zm230.25-102.34v-25.58h-51.17V512h25.58v-51.17h25.59ZM294.541 512h51.17v-25.58h-51.17v-25.59h51.17v-25.58h-76.71v127.92h102.29v-25.59h-76.75V512Zm76.75-51.17h25.58v127.92h25.58V460.83h25.55v-25.58h-76.71v25.58Zm179.08 25.58h-51.16v-25.58h51.17v-25.58h-76.75v153.5h25.58V512h25.58v76.75h51.21v-25.58h-25.63V512h25.63v-51.17h-25.63v25.58Zm127.92-25.58h25.58V512h-25.58v25.58h76.71V512h-25.54v-51.17h25.54v-25.58h-76.71v25.58Zm153.5 0V512h-25.58v25.58h51.17v-76.75h-25.59Z" fill="#fff"/></g><defs><clipPath id="a"><path fill="#fff" d="M0 0h1024v1024H0z"/></clipPath></defs></svg>