<svg width="1024" height="1024" viewBox="0 0 1024 1024" fill="none" xmlns="http://www.w3.org/2000/svg">
<g clip-path="url(#clip0_3_290)">
<path d="M512 1024C794.77 1024 1024 794.77 1024 512C1024 229.23 794.77 0 512 0C229.23 0 0 229.23 0 512C0 794.77 229.23 1024 512 1024Z" fill="#728DBE"/>
<path d="M457.92 641.8H357V483.15H256V382.15H457.92V641.8ZM659.84 641.8H544.45L652.62 382.2H768L659.84 641.8ZM544.45 382.2C555.86 382.2 567.014 385.584 576.501 391.923C585.988 398.262 593.382 407.272 597.749 417.813C602.115 428.355 603.257 439.954 601.031 451.145C598.806 462.336 593.311 472.615 585.243 480.683C577.175 488.751 566.896 494.246 555.705 496.472C544.514 498.698 532.914 497.555 522.373 493.189C511.832 488.823 502.822 481.428 496.483 471.941C490.143 462.454 486.76 451.3 486.76 439.89C486.76 424.59 492.838 409.916 503.657 399.097C514.476 388.278 529.15 382.2 544.45 382.2Z" fill="white"/>
</g>
<defs>
<clipPath id="clip0_3_290">
<rect width="1024" height="1024" fill="white"/>
</clipPath>
</defs>
</svg>
