<svg width="1024" height="1024" fill="none" xmlns="http://www.w3.org/2000/svg"><g clip-path="url(#a)"><path d="M512 1024c282.77 0 512-229.23 512-512S794.77 0 512 0 0 229.23 0 512s229.23 512 512 512Z" fill="#F9DE81"/><path d="M768 512c0 141.38-114.62 256-256 256S256 653.38 256 512s114.62-256 256-256h1.19L374.34 437.14a37.173 37.173 0 0 0-2.94 35.57l41.48 133.76c7.66 19.16 15.35 24.23 33.59 24.22h137c14 .17 22.36-6.18 30.19-16.15l139.49-188.45-.17-.61A255.485 255.485 0 0 1 768 512Zm-282.28 63.88h55.11V482h57v-55.07H428.1V482h57.62v93.88Z" fill="#56595B"/></g><defs><clipPath id="a"><path fill="#fff" d="M0 0h1024v1024H0z"/></clipPath></defs></svg>