<svg width="1024" height="1024" fill="none" xmlns="http://www.w3.org/2000/svg"><g clip-path="url(#a)"><path d="M512 1024c282.77 0 512-229.23 512-512S794.77 0 512 0 0 229.23 0 512s229.23 512 512 512Z" fill="#BD9AFF"/><path d="M758.6 511.801c-5.5-262.3-354.3-360.1-488.6-114.3 6 4.4 14.1 10.2 20.1 14.3-9.9 20.8-16.9 42.8-20.8 65.4-2.6 14.6-3.9 29.4-3.9 44.2 0 136 110.5 246.5 246.8 246.5s246.5-110.3 246.5-246.5v-9.6h-.1Zm-432.4 43.9c-3.2 26.6-1.2 34.9-1.2 38.2l-6 2.1c-2.3-4.4-7.9-19.9-10.4-40.7-6.5-79.3 47.6-150.8 130.2-164.2 75.6-11.1 148 35.8 164.9 101.5l-6 2.1c-1.9-1.9-4.9-7.2-16.4-18.7-91.4-91.4-234.8-49.6-255.1 79.7Zm234.7 44.4c-12.6 18.1-33.2 28.9-55.3 28.9-37.1 0-67.3-30-67.3-67.1v-.2c.1-35.2 27.3-64.5 62.4-67.1 21.7-.9 42.1 10.9 51.6 29.8 10.4 20.9 6.6 46.1-9.7 62.9 6.3 4.5 12.3 8.6 18.3 12.8Zm140.4 2.5c-35.6 80.7-108.9 123-187.1 121.9-150.1-7.4-193.8-180.6-93.4-243l4.4 4.4c-1.6 2.3-7.6 6.9-16.9 25.2-10.9 22.2-14.3 44.4-12.9 58.3 7.9 121 177.4 145.7 235.6 25.9 74.2-164-122.8-330.7-297.6-203.3l-3.9-3.9c46-72.1 136-104.3 221.8-82.8 131 33 201.6 169.7 150 297.3Z" fill="#fff"/></g><defs><clipPath id="a"><path fill="#fff" d="M0 0h1024v1024H0z"/></clipPath></defs></svg>