<svg width="1024" height="1024" fill="none" xmlns="http://www.w3.org/2000/svg"><g clip-path="url(#a)"><path d="M512 1024c282.77 0 512-229.23 512-512S794.77 0 512 0 0 229.23 0 512s229.23 512 512 512Z" fill="#96DFD3"/><path d="M283.3 328.199h111.4v210.1c0 46.3 16.2 64.5 62.3 64.5h110.3c45.9 0 62.4-18.2 62.4-64.5v-210.1H741v233.9c0 90.4-46.6 133.8-149.2 133.8H432.2c-102.7 0-149.2-43.2-149.2-133.8l.3-233.9Z" fill="#fff"/></g><defs><clipPath id="a"><path fill="#fff" d="M0 0h1024v1024H0z"/></clipPath></defs></svg>