<svg width="1024" height="1024" viewBox="0 0 1024 1024" fill="none" xmlns="http://www.w3.org/2000/svg">
<g clip-path="url(#clip0_3_308)">
<path d="M512 1024C794.77 1024 1024 794.77 1024 512C1024 229.23 794.77 0 512 0C229.23 0 0 229.23 0 512C0 794.77 229.23 1024 512 1024Z" fill="#96DFD3"/>
<path d="M283.3 328.199H394.7V538.299C394.7 584.599 410.9 602.799 457 602.799H567.3C613.2 602.799 629.7 584.599 629.7 538.299V328.199H741V562.099C741 652.499 694.4 695.899 591.8 695.899H432.2C329.5 695.899 283 652.699 283 562.099L283.3 328.199Z" fill="white"/>
</g>
<defs>
<clipPath id="clip0_3_308">
<rect width="1024" height="1024" fill="white"/>
</clipPath>
</defs>
</svg>
