<svg width="1024" height="1024" fill="none" xmlns="http://www.w3.org/2000/svg"><g clip-path="url(#a)"><path d="M512 1024c282.77 0 512-229.23 512-512S794.77 0 512 0 0 229.23 0 512s229.23 512 512 512Z" fill="#56595B"/><path d="M588.88 298h-272a18.056 18.056 0 0 0-16.731 11.091A18.056 18.056 0 0 0 298.75 316v124.52h255.08a19.387 19.387 0 0 1 14 6l59.2 62.12a3.578 3.578 0 0 1 0 4.94l-59.2 62.72c-3.65 3.86-7.65 7-13 7H298.76V708a18.052 18.052 0 0 0 5.336 12.756A18.056 18.056 0 0 0 316.89 726h271.94a22.665 22.665 0 0 0 16-6.57l183.7-182.55a36.136 36.136 0 0 0 7.874-39.684 36.15 36.15 0 0 0-7.984-11.766L604.79 304.52a22.68 22.68 0 0 0-15.91-6.52Z" fill="#fff"/></g><defs><clipPath id="a"><path fill="#fff" d="M0 0h1024v1024H0z"/></clipPath></defs></svg>