<svg width="1024" height="1024" viewBox="0 0 1024 1024" fill="none" xmlns="http://www.w3.org/2000/svg">
<g clip-path="url(#clip0_3_323)">
<path d="M512 1024C794.77 1024 1024 794.77 1024 512C1024 229.23 794.77 0 512 0C229.23 0 0 229.23 0 512C0 794.77 229.23 1024 512 1024Z" fill="#728DBE"/>
<path d="M477.54 353.859C475.16 352.659 472.54 351.239 469.54 349.549C438.1 331.749 442.24 297.549 442.72 290.869C443.78 276.419 439.02 266.479 436.72 256.649C434.3 246.369 442.24 252.449 442.24 252.449C485.96 263.449 505.41 304.449 512.64 325.169C513.35 326.969 516.75 334.529 522.94 333.619H523C525.1 333.419 527.21 333.309 529.33 333.309C531.695 333.311 534.059 333.441 536.41 333.699C536.41 333.699 541.25 333.699 543.68 327.849C543.92 327.109 544.62 324.989 544.68 324.749C549.9 309.439 561.4 281.749 580.06 267.189C591.62 258.189 611.11 253.669 613.35 251.849C617.51 248.469 622.02 251.849 617.98 268.579C613.77 286.019 612.78 286.319 611.36 305.709C610.1 322.809 604.11 342.769 580.53 349.589C579.25 349.969 578.04 350.299 576.86 350.589C594.64 363.589 610.72 382.939 624.24 405.169C619.93 407.899 585.24 427.939 529.3 404.859C474.93 382.419 441.22 400.319 434.97 404.169C447.34 384.169 461.72 366.539 477.54 353.859ZM641.43 716.999C602.9 693.129 589.94 684.739 590.75 675.609C590.79 674.352 590.92 673.098 591.14 671.859C591.805 668.044 593.359 664.439 595.677 661.336C597.994 658.233 601.01 655.72 604.48 653.999C604.764 653.857 605.035 653.69 605.29 653.499C635.29 636.079 657.23 608.039 664.97 573.019C657.18 592.359 599.46 607.389 529.35 607.389C459.24 607.389 401.54 592.389 393.75 573.019C395.453 580.731 397.898 588.259 401.05 595.499C403.65 610.159 407.16 644.679 390.59 674.889C376 701.559 303.88 737.839 196.88 716.999C196.88 716.999 192.59 713.999 191.29 716.469C189.37 720.109 197.22 723.069 205.29 725.199C279.78 744.929 392.22 736.899 427.53 707.809C443.64 694.539 449.85 676.679 451.44 657.439C453.03 638.199 451.87 652.439 458.17 656.189C459.97 657.269 466.48 661.509 467.53 666.309C468.44 673.129 468.53 681.509 464.97 687.369C459.97 695.759 459.88 696.959 466.51 701.709C470.58 704.609 487.21 716.829 510.34 730.709L510.49 730.809C515.39 733.759 522.18 740.969 522.18 740.969C532.6 753.019 555.27 777.279 565.13 772.709C569.79 770.569 564.94 760.839 564.94 760.839C564.94 760.839 572.69 770.909 576.85 767.469C580.01 764.859 575 754.839 575 754.839C575 754.839 581.77 760.709 585.79 758.529C590.71 755.869 585.06 740.469 546.34 716.929C507.62 693.389 497.1 689.769 496.18 679.249V677.819C496.48 675.499 497.8 670.589 503.43 671.119C521.786 674.089 540.515 673.879 558.8 670.499L559.44 670.369C560.55 670.229 562.72 670.299 562.73 672.999C562.456 676.507 561.323 679.893 559.43 682.859C553.76 691.339 555.62 692.509 561.54 697.959C575.027 709.967 589.524 720.791 604.87 730.309L604.99 730.409C609.88 733.349 618.34 741.409 618.34 741.409C627.85 751.049 645.34 767.229 654.85 766.249C661.29 765.579 656.04 754.499 656.04 754.499C656.04 754.499 664.18 762.349 668.17 760.039C672.64 757.459 666.32 749.249 666.32 749.249C666.32 749.249 671.56 752.019 675.25 751.099C678.94 750.179 680 740.869 641.43 716.999ZM598.43 447.289C594.235 447.131 590.145 448.616 587.03 451.429C585.65 452.613 584.537 454.077 583.767 455.723C582.996 457.37 582.585 459.162 582.56 460.979V523.829C582.56 532.259 581.07 538.479 578.12 542.309C575.17 546.139 570.71 547.819 564.2 547.819C557.69 547.819 552.99 546.039 550.31 542.359C547.51 538.519 546.09 532.299 546.09 523.839V460.739C546.128 458.696 545.624 456.678 544.628 454.893C543.632 453.108 542.179 451.62 540.42 450.579C535.42 447.399 530.36 446.249 524.26 448.279C522.434 448.883 520.683 449.692 519.04 450.689C517.381 451.689 515.928 452.995 514.76 454.539C513.543 456.101 512.875 458.02 512.86 459.999V523.829C512.86 532.279 511.44 538.509 508.64 542.349C505.95 546.029 501.41 547.819 494.75 547.819C488.09 547.819 483.49 546.029 480.75 542.339C478.01 538.649 476.42 532.279 476.42 523.839V460.999C476.394 459.181 475.981 457.389 475.208 455.742C474.436 454.095 473.322 452.632 471.94 451.449C469 448.699 465.08 447.309 460.3 447.309C455.52 447.309 451.3 448.689 448.22 451.399C445.14 454.109 443.44 457.399 443.44 460.989V522.859C443.393 530.21 444.148 537.543 445.69 544.729C447.054 551.212 449.781 557.331 453.69 562.679C457.67 567.913 462.938 572.026 468.98 574.619C475.27 577.419 483.14 578.839 492.36 578.839C501.98 578.839 510.03 577.059 516.3 573.539C521.423 570.655 525.88 566.723 529.38 561.999C532.786 566.741 537.185 570.682 542.27 573.549C548.46 577.069 556.64 578.849 566.59 578.849C575.82 578.849 583.65 577.419 589.87 574.619C595.847 571.992 601.055 567.883 605 562.679C608.902 557.327 611.628 551.21 613 544.729C614.537 537.542 615.292 530.209 615.25 522.859V460.999C615.25 457.429 613.69 454.219 610.61 451.429C607.53 448.639 603.49 447.299 598.39 447.299L598.43 447.289Z" fill="white"/>
</g>
<defs>
<clipPath id="clip0_3_323">
<rect width="1024" height="1024" fill="white"/>
</clipPath>
</defs>
</svg>
