<svg width="1024" height="1024" fill="none" xmlns="http://www.w3.org/2000/svg"><g clip-path="url(#a)"><path d="M512 1024c282.77 0 512-229.23 512-512S794.77 0 512 0 0 229.23 0 512s229.23 512 512 512Z" fill="#728DBE"/><path d="M477.54 353.859c-2.38-1.2-5-2.62-8-4.31-31.44-17.8-27.3-52-26.82-58.68 1.06-14.45-3.7-24.39-6-34.22-2.42-10.28 5.52-4.2 5.52-4.2 43.72 11 63.17 52 70.4 72.72.71 1.8 4.11 9.36 10.3 8.45h.06c2.1-.2 4.21-.31 6.33-.31 2.365.002 4.729.132 7.08.39 0 0 4.84 0 7.27-5.85.24-.74.94-2.86 1-3.1 5.22-15.31 16.72-43 35.38-57.56 11.56-9 31.05-13.52 33.29-15.34 4.16-3.38 8.67 0 4.63 16.73-4.21 17.44-5.2 17.74-6.62 37.13-1.26 17.1-7.25 37.06-30.83 43.88-1.28.38-2.49.71-3.67 1 17.78 13 33.86 32.35 47.38 54.58-4.31 2.73-39 22.77-94.94-.31-54.37-22.44-88.08-4.54-94.33-.69 12.37-20 26.75-37.63 42.57-50.31Zm163.89 363.14c-38.53-23.87-51.49-32.26-50.68-41.39.04-1.257.17-2.511.39-3.75a24.658 24.658 0 0 1 13.34-17.86c.284-.142.555-.309.81-.5 30-17.42 51.94-45.46 59.68-80.48-7.79 19.34-65.51 34.37-135.62 34.37s-127.81-15-135.6-34.37a122.478 122.478 0 0 0 7.3 22.48c2.6 14.66 6.11 49.18-10.46 79.39-14.59 26.67-86.71 62.95-193.71 42.11 0 0-4.29-3-5.59-.53-1.92 3.64 5.93 6.6 14 8.73 74.49 19.73 186.93 11.7 222.24-17.39 16.11-13.27 22.32-31.13 23.91-50.37 1.59-19.24.43-5 6.73-1.25 1.8 1.08 8.31 5.32 9.36 10.12.91 6.82 1 15.2-2.56 21.06-5 8.39-5.09 9.59 1.54 14.34 4.07 2.9 20.7 15.12 43.83 29l.15.1c4.9 2.95 11.69 10.16 11.69 10.16 10.42 12.05 33.09 36.31 42.95 31.74 4.66-2.14-.19-11.87-.19-11.87s7.75 10.07 11.91 6.63c3.16-2.61-1.85-12.63-1.85-12.63s6.77 5.87 10.79 3.69c4.92-2.66-.73-18.06-39.45-41.6-38.72-23.54-49.24-27.16-50.16-37.68v-1.43c.3-2.32 1.62-7.23 7.25-6.7a162.137 162.137 0 0 0 55.37-.62l.64-.13c1.11-.14 3.28-.07 3.29 2.63a21.427 21.427 0 0 1-3.3 9.86c-5.67 8.48-3.81 9.65 2.11 15.1a314.243 314.243 0 0 0 43.33 32.35l.12.1c4.89 2.94 13.35 11 13.35 11 9.51 9.64 27 25.82 36.51 24.84 6.44-.67 1.19-11.75 1.19-11.75s8.14 7.85 12.13 5.54c4.47-2.58-1.85-10.79-1.85-10.79s5.24 2.77 8.93 1.85c3.69-.92 4.75-10.23-33.82-34.1Zm-43-269.71a16.104 16.104 0 0 0-11.4 4.14 12.814 12.814 0 0 0-4.47 9.55v62.85c0 8.43-1.49 14.65-4.44 18.48s-7.41 5.51-13.92 5.51-11.21-1.78-13.89-5.46c-2.8-3.84-4.22-10.06-4.22-18.52v-63.1a11.558 11.558 0 0 0-5.67-10.16c-5-3.18-10.06-4.33-16.16-2.3a25.499 25.499 0 0 0-5.22 2.41 15.212 15.212 0 0 0-4.28 3.85 8.995 8.995 0 0 0-1.9 5.46v63.83c0 8.45-1.42 14.68-4.22 18.52-2.69 3.68-7.23 5.47-13.89 5.47s-11.26-1.79-14-5.48c-2.74-3.69-4.33-10.06-4.33-18.5v-62.84a12.804 12.804 0 0 0-4.48-9.55c-2.94-2.75-6.86-4.14-11.64-4.14s-9 1.38-12.08 4.09-4.78 6-4.78 9.59v61.87a101.154 101.154 0 0 0 2.25 21.87 46.72 46.72 0 0 0 8 17.95 38.069 38.069 0 0 0 15.29 11.94c6.29 2.8 14.16 4.22 23.38 4.22 9.62 0 17.67-1.78 23.94-5.3a41.796 41.796 0 0 0 13.08-11.54 40.145 40.145 0 0 0 12.89 11.55c6.19 3.52 14.37 5.3 24.32 5.3 9.23 0 17.06-1.43 23.28-4.23a38.347 38.347 0 0 0 15.13-11.94 46.986 46.986 0 0 0 8-17.95 101.797 101.797 0 0 0 2.25-21.87v-61.86c0-3.57-1.56-6.78-4.64-9.57-3.08-2.79-7.12-4.13-12.22-4.13l.04-.01Z" fill="#fff"/></g><defs><clipPath id="a"><path fill="#fff" d="M0 0h1024v1024H0z"/></clipPath></defs></svg>