<svg width="1024" height="1024" fill="none" xmlns="http://www.w3.org/2000/svg"><g clip-path="url(#a)"><path d="M512 1024c282.77 0 512-229.23 512-512S794.77 0 512 0 0 229.23 0 512s229.23 512 512 512Z" fill="#9ABEFF"/><path d="M724.09 376.149c-7.45-18-14.75-36.05-22.29-54-63.24-26.15-126.57-52.06-189.8-78.21-63.23 26.15-126.56 52.06-189.79 78.21-7.54 17.95-14.84 36-22.29 54A150974.22 150974.22 0 0 1 244 511.999c26.073 63.334 52.15 126.667 78.23 190 63.267 26 126.523 52.027 189.77 78.08 63.28-26 126.537-52.026 189.77-78.08 26.113-63.333 52.19-126.666 78.23-190a346210.84 346210.84 0 0 0-55.91-135.85ZM512 742.839c-54.58-22.273-109.147-44.58-163.7-66.92a124032.333 124032.333 0 0 1-67-163.94c22.34-54.6 44.673-109.2 67-163.8 54.4-22.2 108.787-44.433 163.16-66.7a1.127 1.127 0 0 1 1.2 0c54.393 22.22 108.78 44.454 163.16 66.7a251164.364 251164.364 0 0 1 67 163.8 379570.122 379570.122 0 0 1-67 163.94c-54.68 22.28-163.82 66.92-163.82 66.92Zm.12-186.31a.225.225 0 0 1-.11.028.225.225 0 0 1-.11-.028 516626.878 516626.878 0 0 0-52.29 52.64c-10.3 10.17-25 14.61-39.25 14.82h-42.61v-223.56h52.56v163.56c17.2-17.333 34.42-34.64 51.66-51.92 9.947-10 19.917-20 29.91-30l.1-.1.1.1c10 10 19.97 20 29.91 30a22381.955 22381.955 0 0 1 51.68 51.93c.06-54.52.06-109.04 0-163.56h52.56v223.56h-42.61c-14.22-.21-28.95-4.65-39.25-14.82-17.46-17.513-34.89-35.06-52.29-52.64m200.75-44.85.05.13h-3.38c-4 .09-8.06 0-12.09 0h-43.28v-119.22h-63.69l-2.29 2.3-12.15 12.16c-5.79 5.79-11.78 11.77-17.66 17.68l-2.34 2.26v76.95h-11c-9.21-9.28-18.42-18.51-27.35-27.47l-5.55-5.48-.12-.12-.1.1-5.54 5.56c-8.93 9-18.14 18.19-27.35 27.47H468v-77.01l-2.29-2.3c-5.88-5.9-11.87-11.89-17.66-17.68l-12.15-12.15-2.29-2.3H369.9v119.22h-43.28c-4 0-8.07.09-12.09 0h-3.41l.05-.13h-.05c19.88-47.006 39.7-94.046 59.46-141.12 46.787-19.746 93.593-39.46 140.42-59.14a1.847 1.847 0 0 1 2 0c46.807 19.734 93.627 39.454 140.46 59.16 19.813 47.047 39.633 94.087 59.46 141.12l-.09.01Z" fill="#fff"/></g><defs><clipPath id="a"><path fill="#fff" d="M0 0h1024v1024H0z"/></clipPath></defs></svg>