<svg width="1024" height="1024" viewBox="0 0 1024 1024" fill="none" xmlns="http://www.w3.org/2000/svg">
<g clip-path="url(#clip0_3_350)">
<path d="M512 1024C794.77 1024 1024 794.77 1024 512C1024 229.23 794.77 0 512 0C229.23 0 0 229.23 0 512C0 794.77 229.23 1024 512 1024Z" fill="#F9DE81"/>
<path d="M662.091 498.3C593.731 498.3 538.251 554.38 538.251 623.49C538.251 692.6 593.731 748.68 662.091 748.68C730.451 748.68 785.931 692.6 785.931 623.49C785.931 554.38 730.451 498.3 662.091 498.3ZM662.091 644.12C658.002 644.164 653.992 642.991 650.57 640.751C647.149 638.511 644.47 635.304 642.875 631.539C641.28 627.773 640.84 623.618 641.611 619.602C642.382 615.586 644.329 611.889 647.205 608.982C650.081 606.075 653.757 604.088 657.765 603.274C661.772 602.46 665.931 602.856 669.714 604.411C673.496 605.965 676.731 608.609 679.008 612.006C681.285 615.404 682.501 619.401 682.501 623.49C682.519 626.186 682.006 628.859 680.989 631.356C679.973 633.853 678.473 636.125 676.577 638.041C674.681 639.958 672.426 641.481 669.94 642.524C667.454 643.567 664.787 644.11 662.091 644.12ZM526.001 628.89H424.001C422.849 633.226 420.305 637.063 416.761 639.813C413.216 642.563 408.867 644.072 404.381 644.11C394.871 644.11 384.171 634.9 384.171 623.68C384.165 618.298 386.286 613.132 390.071 609.306C393.856 605.479 398.999 603.303 404.381 603.25C415.481 603.25 421.621 609.66 423.801 618.25H525.571C526.202 618.24 526.805 617.983 527.249 617.535C527.694 617.086 527.946 616.482 527.951 615.85C523.791 545.14 461.771 490.46 389.251 499.27C333.181 506.08 287.801 552.35 281.461 609.04C274.721 670.33 310.391 727.62 362.901 740.64C395.201 749.45 428.491 744.05 446.521 729.64C446.707 729.501 446.927 729.416 447.159 729.395C447.39 729.375 447.622 729.418 447.83 729.522C448.037 729.626 448.212 729.786 448.334 729.983C448.456 730.181 448.521 730.408 448.521 730.64V746.64C448.523 747.22 448.753 747.775 449.161 748.186C449.569 748.597 450.122 748.832 450.701 748.84H525.801C526.38 748.832 526.933 748.597 527.341 748.186C527.748 747.775 527.978 747.22 527.981 746.64V631.5C527.978 630.921 527.748 630.366 527.341 629.955C526.933 629.543 526.38 629.308 525.801 629.3L526.001 628.9V628.89ZM525.331 307.78L455.981 237.47C455.544 237.083 454.98 236.869 454.396 236.869C453.812 236.869 453.248 237.083 452.811 237.47L402.281 288.55L351.751 237.47C351.314 237.083 350.75 236.869 350.166 236.869C349.582 236.869 349.018 237.083 348.581 237.47L279.001 307.78C278.617 308.225 278.406 308.793 278.406 309.38C278.406 309.968 278.617 310.536 279.001 310.98L329.531 362.06L279.001 413.14C278.617 413.585 278.406 414.153 278.406 414.74C278.406 415.328 278.617 415.896 279.001 416.34L348.551 486.65C348.988 487.038 349.552 487.252 350.136 487.252C350.72 487.252 351.284 487.038 351.721 486.65L402.251 435.57L452.781 486.65C453.218 487.038 453.782 487.252 454.366 487.252C454.95 487.252 455.514 487.038 455.951 486.65L525.501 416.34C525.884 415.896 526.095 415.328 526.095 414.74C526.095 414.153 525.884 413.585 525.501 413.14L475.001 362.06L525.501 311C525.884 310.556 526.095 309.988 526.095 309.4C526.095 308.813 525.884 308.245 525.501 307.8H525.301L525.331 307.78Z" fill="#56595B"/>
</g>
<defs>
<clipPath id="clip0_3_350">
<rect width="1024" height="1024" fill="white"/>
</clipPath>
</defs>
</svg>
