<svg width="1024" height="1024" fill="none" xmlns="http://www.w3.org/2000/svg"><g clip-path="url(#a)"><path d="M512 1024c282.77 0 512-229.23 512-512S794.77 0 512 0 0 229.23 0 512s229.23 512 512 512Z" fill="#FF837D"/><path d="M259.44 428.209h-12.9c-23.64 0-36.06 11.86-36.06 29.42 0 19.93 8.6 29.18 26.27 41l14.57 9.73-42 62.4H178l37.73-55.76c-21.73-15.42-33.91-30.37-33.91-55.76 0-31.79 22.21-53.38 64.48-53.38h42v164.9h-28.9l.04-142.55Zm263.19 120.29h12.66v49.59H509v-27.28h-63.75v27.29H419v-49.6h8.84c10-19.93 11.94-57.65 11.94-86.84v-10.2h82.87l-.02 97.04Zm-28.42-74.74h-30.09v3.56c0 20.64-2.15 53.15-10 71.18h40.12l-.03-74.74Zm-115.59 24.92h-38v-47.22h-28.4v119.34h28.42v-49.8h38v49.8H407v-119.34h-28.38v47.22Zm439.92-27.28c11 0 21.73 3.8 27.47 7.35v-24c-6-3.32-16.48-5.69-30.57-5.69-36.3 0-55.17 25.86-55.17 62.16 0 39.86 18.39 61.93 56.36 61.93 13.14 0 22.45-2.37 29.38-7.35v-23c-7.16 5-15.76 8.07-27.7 8.07-20.3 0-28.66-15.66-28.66-40.33 0-25.86 10.27-39.15 28.9-39.15m-62.09-19.93h-28.68l-40.12 55v-55h-28.42v119.35h28.42v-58.61l42 58.6h32.24l-45.62-64.3 40.18-55.04Zm-163.12-2.37c28.42 0 46.81 15.66 46.81 57.18v14.95h-68.56c1.19 19.93 9.08 29.66 29.85 29.66 13.85 0 28.66-5.22 37.5-11.15v23c-8.36 5.69-21.73 10.44-39.88 10.44-36.3 0-56.84-20.17-56.84-61.69 0-36.06 16.48-62.4 51.11-62.4m17.9 48.92c0-14.95-4.3-26.57-18.39-26.57-13.61 0-20.54 10-21.26 28.95h39.64l.01-2.38Z" fill="#fff"/></g><defs><clipPath id="a"><path fill="#fff" d="M0 0h1024v1024H0z"/></clipPath></defs></svg>