<svg width="1024" height="1024" fill="none" xmlns="http://www.w3.org/2000/svg"><g clip-path="url(#a)"><path d="M512 1024c282.77 0 512-229.23 512-512S794.77 0 512 0 0 229.23 0 512s229.23 512 512 512Z" fill="#F8C18C"/><path d="M761.5 310.2v-45.7h-499v45.7h226.6v27.1c-86.7 11.4-153.6 85.5-153.6 175.2 0 89.7 66.9 163.7 153.6 175.2v72h43.1V688c88.5-9.8 157.3-84.7 157.3-175.6 0-91-68.8-165.8-157.3-175.6v-26.6h229.3ZM379.4 512.4c0-65.4 47.4-119.8 109.7-130.9v261.7c-62.3-11-109.7-65.4-109.7-130.8Zm266.2 0c0 66.7-49.3 122-113.4 131.5v-263c64.2 9.5 113.4 64.8 113.4 131.5Z" fill="#fff"/></g><defs><clipPath id="a"><path fill="#fff" d="M0 0h1024v1024H0z"/></clipPath></defs></svg>