<svg width="1024" height="1024" fill="none" xmlns="http://www.w3.org/2000/svg"><g clip-path="url(#a)"><path d="M512 1024c282.77 0 512-229.23 512-512S794.77 0 512 0 0 229.23 0 512s229.23 512 512 512Z" fill="#728DBE"/><path d="M512 236.48c152.16 0 275.521 123.36 275.521 275.52 0 152.16-123.361 275.521-275.521 275.521-152.16 0-275.52-123.351-275.52-275.521 0-152.17 123.36-275.52 275.52-275.52Zm0 56c-121.26 0-219.55 98.3-219.55 219.56S390.74 731.56 512 731.56 731.56 633.26 731.56 512 633.26 292.45 512 292.45v.03Zm0 56A163.59 163.59 0 1 1 348.41 512 163.59 163.59 0 0 1 512 348.41v.07Zm26.391 47.35H485.61c-6.58 0-12 5.73-12.33 12.95v55.97a10.312 10.312 0 0 0 2 5.76l.49.6 7.72 8.6A10.001 10.001 0 0 1 484 492l-.48.58-7.72 8.6a9.657 9.657 0 0 0-2.38 5.68v.81l-.08 106.781c0 7.329 5.14 13.319 11.63 13.729h53.52c6.58 0 12.001-5.73 12.33-12.95v-51.81a9.815 9.815 0 0 0-1.919-5.889l-.491-.601-7.72-8.599a10.004 10.004 0 0 1-.479-12.391l.479-.58 7.72-8.6a9.639 9.639 0 0 0 2.38-5.679V409.52c-.04-7.6-5.57-13.75-12.399-13.75v.06Z" fill="#fff"/></g><defs><clipPath id="a"><path fill="#fff" d="M0 0h1024v1024H0z"/></clipPath></defs></svg>