<svg width="1024" height="1024" fill="none" xmlns="http://www.w3.org/2000/svg"><g clip-path="url(#a)"><path d="M512 1024c282.77 0 512-229.23 512-512S794.77 0 512 0 0 229.23 0 512s229.23 512 512 512Z" fill="#98DC9A"/><path d="M708.3 525.081c0 21.35-15.07 35.37-36.62 35.37-22 0-36.83-14.23-36.83-35.37 0-21.14 15.07-35.16 36.83-35.16 21.76 0 36.62 14 36.62 35.16Zm-56.08.21c0 12.56 8.16 21.14 19.88 21.14 11.3 0 19.67-8.58 19.67-21.14s-8.16-21.14-19.67-21.14c-11.93.21-19.88 8.58-19.88 21.14Zm132.88-35.16v69.69h-17v-13c-5 9.21-13.18 13.6-24.28 13.6-15.7 0-25.11-10.25-25.11-26.79v-43.5h17v38.51c0 9.84 5.44 15.7 15.07 15.7 10.88-.21 17.37-8.58 17.37-19.88v-34.33h16.95Zm61.73 65.5a32.47 32.47 0 0 1-17.37 5.23c-11.3 0-20.51-6.49-20.51-20.72v-34.73h-9.84l-.21-12.35h9.84v-19.25h16.74v19.25h19.88v12.35h-19.87v31.59c0 6.7 2.72 9 7.32 9 2.93 0 6.07-1 9.84-2.93l4.18 12.56Zm-602.49 4.19h-65.08v-13l30.74-32.82c4.19-4.81 7.32-8.58 9.42-12.14a18.719 18.719 0 0 0 3.14-9.84c0-4.187-1.047-7.52-3.14-10a12.283 12.283 0 0 0-9.21-3.56 13.245 13.245 0 0 0-10 4.39c-2.51 2.93-3.77 6.91-3.77 11.51h-19.27a29.659 29.659 0 0 1 4.19-15.9 28.475 28.475 0 0 1 11.51-11.3 35.198 35.198 0 0 1 17.16-4c9.84 0 17.37 2.3 23 7.12 5.44 4.81 8.16 11.3 8.16 20.09a30.655 30.655 0 0 1-3.56 14.44c-2.51 5-6.7 10.46-12.56 17.16l-21.35 23.23h41v14.65l-.38-.03Zm45.66-55.25c-11.09 0-18.83 8.37-18.83 20.51 0 12.56 8 20.72 18.83 20.72 8 0 14.44-2.72 18.83-8.37l10.43 8.57c-6.07 9-16.53 14-30.14 14-20.71 0-35.12-14.2-35.12-35.13 0-21.14 14.44-35.37 35.37-35.37 12.77 0 23 4.81 29.09 12.77l-10.25 9.84a24.717 24.717 0 0 0-18.21-7.54Zm112.17 12.14v43.53h-17v-38.72c0-9.84-5.86-15.7-15.49-15.7-11.3.21-18.42 8.58-18.42 20.09v34.09h-17v-96.66h17v40.18c5-9.63 13.6-13.81 25.11-13.81 15.9 0 25.74 10.25 25.74 27m81.62 14.44h-51.46c2.3 9.84 9.84 15.7 19.88 15.7a25.004 25.004 0 0 0 18.63-8l9.21 9.63c-6.91 7.53-17 12.14-29.09 12.14-21.55 0-36-14.23-36-35.16 0-21.14 14.44-35.37 35.37-35.37 24.48-.42 34.95 15.7 33.48 41m-15.49-11.51c-.42-10.25-7.32-16.74-17.79-16.74-10 0-17 6.49-18.42 16.74h36.21Zm59.85-15.07c-11.09 0-19 8.37-19 20.51 0 12.56 8 20.72 19 20.72 8.16 0 14.44-2.72 18.63-8.37l10.46 8.63c-6.07 9-16.53 14-30.13 14-20.72 0-35.16-14.23-35.16-35.16 0-21.14 14.44-35.37 35.37-35.37 12.77 0 23 4.81 29.09 12.77l-10.25 9.84a24.215 24.215 0 0 0-18-7.53m81.82-14.86-23 22.6-17-16.74v23.86l5.23 5 8 8.11 3.75 3.82 11.9-11.85 34.93-34.78-23.81-.02Zm1.26 70.73h23.86l-34-33.74-11.9 11.85 22.04 21.89Zm-26.51-21.87L573 526.721l-3-2.94v36.67h17v-19.64l-2.31-2.26Zm2.24-30.68v-44.73H570v28l2.21 2.18 14.72 14.55Z" fill="#fff"/></g><defs><clipPath id="a"><path fill="#fff" d="M0 0h1024v1024H0z"/></clipPath></defs></svg>