<svg width="1024" height="1024" fill="none" xmlns="http://www.w3.org/2000/svg"><g clip-path="url(#a)"><path d="M512 1024c282.77 0 512-229.23 512-512S794.77 0 512 0 0 229.23 0 512s229.23 512 512 512Z" fill="#728DBE"/><path d="M517.42 434.77c-51.68 0-93.67 42.09-93.67 93.9s42 93.92 93.67 93.93a93.908 93.908 0 0 0 92.941-93.905 93.907 93.907 0 0 0-92.941-93.905v-.02Zm66 59.42-62 32.21a2.739 2.739 0 0 1-4-2.44V454a2.833 2.833 0 0 1 2.86-2.71 77.108 77.108 0 0 1 64.26 39.09 2.838 2.838 0 0 1-1.14 3.8l.02.01ZM685.11 276H338.88A61.92 61.92 0 0 0 277 338v347.85a62.008 62.008 0 0 0 18.064 43.895A61.998 61.998 0 0 0 338.88 748h346.23A62 62 0 0 0 747 685.84V338.18A62.072 62.072 0 0 0 685.11 276ZM472.6 365.2a20.52 20.52 0 0 1 20.4-20.46h47.57A20.429 20.429 0 0 1 561 365.22v16.18a2.768 2.768 0 0 1-2.76 2.76 3.175 3.175 0 0 1-.68-.08 150.763 150.763 0 0 0-40-5.43 148.28 148.28 0 0 0-41.4 5.86 2.83 2.83 0 0 1-3.57-2.71l.01-16.6Zm-94.67 53.4a20.443 20.443 0 0 1 6-14.47l9.72-9.73a20.369 20.369 0 0 1 14.42-5.987 20.37 20.37 0 0 1 14.42 5.987l8.13 8.16a2.748 2.748 0 0 1 .751 2.187 2.73 2.73 0 0 1-1.191 1.983 146.516 146.516 0 0 0-18.41 15.73 155.353 155.353 0 0 0-15.56 18.33 2.89 2.89 0 0 1-2.075 1.101 2.883 2.883 0 0 1-2.205-.811l-8-8a20.412 20.412 0 0 1-6-14.48Zm139.49 243.34c-73.4 0-132.93-59.56-132.93-133.28S444 395.27 517.42 395.27a132.927 132.927 0 0 1 94.11 39.054 132.944 132.944 0 0 1 38.82 94.206c0 73.71-59.53 133.41-132.93 133.41Z" fill="#fff"/></g><defs><clipPath id="a"><path fill="#fff" d="M0 0h1024v1024H0z"/></clipPath></defs></svg>