<svg width="1024" height="1024" fill="none" xmlns="http://www.w3.org/2000/svg"><g clip-path="url(#a)"><path d="M512 1024c282.77 0 512-229.23 512-512S794.77 0 512 0 0 229.23 0 512s229.23 512 512 512Z" fill="#9ABEFF"/><path d="M628.17 483.88h1.61V549c0 94.52-87.11 119.21-129 119.21-48.16 0-104.49-25.93-104.49-74.76 0-55.57 56.42-68.3 124.63-78.75 19.38-3.32 51.2-8.55 73-12.82a59.075 59.075 0 0 0 34.25-18ZM512.19 256c141.33.05 255.86 114.67 255.81 256-.05 141.33-114.33 255.74-255.53 256-141.38.26-256.21-114.14-256.47-255.52C255.74 371.1 370.14 256.26 511.53 256h.66Zm159.68 183c0-113.13-95.28-126.43-136.41-126.43-148.28 0-162 96-164.43 120.83a22.133 22.133 0 0 0 23.08 19.57 19.656 19.656 0 0 0 21.75-17.1c8.74-41.51 31.44-81.31 113.23-81.31 38.28 0 71.05 7.12 89.58 30A79.219 79.219 0 0 1 634.06 437a46.826 46.826 0 0 1-15.39 36.67c-13.49 11.21-32.3 11.11-126.72 22.23-130.61 15.29-140.11 78.75-140.11 111.8 0 66.21 82.83 103.63 141.73 105.15a190.84 190.84 0 0 0 78.27-11.11 153.871 153.871 0 0 0 92.43-92.62c12.25-32.91 7.41-118.49 7.6-170.12Z" fill="#fff"/></g><defs><clipPath id="a"><path fill="#fff" d="M0 0h1024v1024H0z"/></clipPath></defs></svg>