<svg width="1024" height="1024" fill="none" xmlns="http://www.w3.org/2000/svg"><g clip-path="url(#a)"><path d="M512 1024c282.77 0 512-229.23 512-512S794.77 0 512 0 0 229.23 0 512s229.23 512 512 512Z" fill="#728DBE"/><path d="M414.17 252.339c47.78.2 95.59-.17 143.37.06 10.51-.29 21.26 5.55 24.11 16.18 67.24 158.88 134.357 317.8 201.35 476.76-46.74.12-93.44.32-140.15-.09-17.2-42.09-35.26-83.83-52.83-125.71-46.65 29.51-93.85 58.12-140.47 87.69-23.82 14.55-47.66 30.44-75.14 37.12-13.62 3.11-31.25 1.37-38.66-12.23-22.48-41-44.85-82.12-66.75-123.41 7.58 6.48 17 10.57 27.16 10.37 97.89-.09 195.74.17 293.63-.15a639558.76 639558.76 0 0 0-141-334.23c-3.57-8.39-6.85-17.6-14.35-23.38-5.74-5-13.21-6.85-20.27-8.98Zm-138.58 307.25c-4.3 10.51-6.91 24 .81 33.64 6.39 8.86 18 11.15 28.29 11.33 30.32.06 60.62-.06 90.91 0 28.933-68.214 57.79-136.444 86.57-204.69-16.88-38.66-32.44-77.9-49.38-116.53-3.83-9.5-12.49-18.59-23.67-16.76-12.52 1.42-17.12 14.84-21.12 24.95-37.48 89.346-74.95 178.7-112.41 268.06Z" fill="#fff"/></g><defs><clipPath id="a"><path fill="#fff" d="M0 0h1024v1024H0z"/></clipPath></defs></svg>