<svg width="1024" height="1024" fill="none" xmlns="http://www.w3.org/2000/svg"><g clip-path="url(#a)"><path d="M512 1024c282.77 0 512-229.23 512-512S794.77 0 512 0 0 229.23 0 512s229.23 512 512 512Z" fill="#54688C"/><path d="M737 628.72a47.26 47.26 0 0 0-62.29 23.88 26.715 26.715 0 0 0-1 2.8H315.87L515 310.44 663.8 566.6l28.35-16.45L514.9 245 259 688.21h414.69a46.996 46.996 0 0 0 25 26.68 46.255 46.255 0 0 0 19.09 4.11 47.185 47.185 0 0 0 46.136-37.364A47.19 47.19 0 0 0 737 628.72Zm1.4 52.32a22.546 22.546 0 0 1-18.821 13.339 22.535 22.535 0 0 1-20.693-10.196 22.537 22.537 0 0 1-.89-23.051 22.533 22.533 0 0 1 19.844-11.762 22.085 22.085 0 0 1 9.1 1.92 22.423 22.423 0 0 1 13.437 21.13 22.423 22.423 0 0 1-1.947 8.58l-.03.04Zm-231-57.3h-24.08v-14.62c-6.47 11.81-19.95 17.67-34.12 17.67-32.46 0-51.53-25.28-51.53-53.89 0-31.93 23.1-53.72 51.53-53.72 18.46 0 29.75 9.8 34.12 17.93v-14.78h24.15l-.07 101.41Zm-85.5-50.23c0 12.51 9 30.8 30.8 30.8 13.47 0 22.31-7 26.95-16.27a35 35 0 0 0 3.85-14.17 30.465 30.465 0 0 0-2.8-14.17c-4.29-9.62-13.65-17.93-28.26-17.93-19.6 0-30.62 15.84-30.62 31.58v.17l.08-.01Zm135.6-3.15-34.12-47.94h29.13l19.77 31.15 19.77-31.15h28.78l-33.93 47.94 37.79 53.37h-29.74l-22.66-34.91-22.92 34.91h-29.31l37.44-53.37Z" fill="#fff"/></g><defs><clipPath id="a"><path fill="#fff" d="M0 0h1024v1024H0z"/></clipPath></defs></svg>