<svg width="1024" height="1024" fill="none" xmlns="http://www.w3.org/2000/svg"><g clip-path="url(#a)"><path d="M512 1024c282.77 0 512-229.23 512-512S794.77 0 512 0 0 229.23 0 512s229.23 512 512 512Z" fill="#728DBE"/><path d="m512.299 693.3 199.3-340.9c34.9 43.8 55.7 99.3 55.7 159.6 0 70.8-28.7 134.9-75.1 181.3h-179.9Zm-.3-437.3c-141 0-255.3 114.6-255.3 256 0 70.7 28.6 134.8 74.9 181.1l361.1-362c-46.3-46.4-110.1-75.1-180.7-75.1Z" fill="#fff"/></g><defs><clipPath id="a"><path fill="#fff" d="M0 0h1024v1024H0z"/></clipPath></defs></svg>