<svg width="1024" height="1024" fill="none" xmlns="http://www.w3.org/2000/svg"><g clip-path="url(#a)"><path d="M512 1024c282.77 0 512-229.23 512-512S794.77 0 512 0 0 229.23 0 512s229.23 512 512 512Z" fill="#98DC9A"/><path d="M732.8 274.998c-1.7-.7-173.5-24.6-343.4 86.9-105.4 69.3-119.4 170.8-114.6 238.5 247.1-27.9 452.4-317.3 458-325.4Zm-441.2 400.5c21.2 38.1 181.8 124.6 323.9 5.3 142.1-119.3 130.1-336.1 117.3-405.8-4.5 10.1-159.6 356.9-441.2 400.5Z" fill="#fff"/></g><defs><clipPath id="a"><path fill="#fff" d="M0 0h1024v1024H0z"/></clipPath></defs></svg>