<svg width="1024" height="1024" viewBox="0 0 1024 1024" fill="none" xmlns="http://www.w3.org/2000/svg">
<g clip-path="url(#clip0_3_491)">
<path d="M512 1024C794.77 1024 1024 794.77 1024 512C1024 229.23 794.77 0 512 0C229.23 0 0 229.23 0 512C0 794.77 229.23 1024 512 1024Z" fill="#728DBE"/>
<path d="M661.22 559.321V346.141H512V724.861C536.988 711.812 560.751 696.541 583 679.231C635.147 638.371 661.22 598.401 661.22 559.321ZM725.22 303.511V559.321C725.128 578.793 721.32 598.068 714 616.111C707.084 633.95 697.783 650.77 686.35 666.111C674.606 681.468 661.445 695.687 647.04 708.581C633.685 720.842 619.614 732.299 604.9 742.891C592.02 751.991 578.587 760.595 564.6 768.701C550.614 776.808 540.677 782.305 534.79 785.191C528.904 788.078 524.184 790.298 520.63 791.851C517.933 793.167 514.971 793.85 511.97 793.85C508.969 793.85 506.008 793.167 503.31 791.851C499.757 790.298 495.037 788.078 489.15 785.191C483.264 782.305 473.327 776.808 459.34 768.701C445.34 760.595 431.907 751.991 419.04 742.891C404.326 732.3 390.255 720.843 376.9 708.581C362.497 695.686 349.336 681.467 337.59 666.111C326.157 650.77 316.856 633.951 309.94 616.111C302.641 598.064 298.853 578.789 298.78 559.321V303.511C298.858 297.881 301.129 292.503 305.111 288.522C309.092 284.54 314.47 282.269 320.1 282.191H703.86C709.49 282.269 714.866 284.541 718.846 288.522C722.826 292.504 725.095 297.882 725.17 303.511H725.22Z" fill="white"/>
</g>
<defs>
<clipPath id="clip0_3_491">
<rect width="1024" height="1024" fill="white"/>
</clipPath>
</defs>
</svg>
