<svg width="1024" height="1024" fill="none" xmlns="http://www.w3.org/2000/svg"><g clip-path="url(#a)"><path d="M512 1024c282.77 0 512-229.23 512-512S794.77 0 512 0 0 229.23 0 512s229.23 512 512 512Z" fill="#728DBE"/><path d="M661.22 559.321v-213.18H512v378.72a469.692 469.692 0 0 0 71-45.63c52.147-40.86 78.22-80.83 78.22-119.91Zm64-255.81v255.81a152.985 152.985 0 0 1-11.22 56.79 211.784 211.784 0 0 1-27.65 50 308.554 308.554 0 0 1-39.31 42.47 457.735 457.735 0 0 1-42.14 34.31 532.588 532.588 0 0 1-40.3 25.81c-13.986 8.107-23.923 13.604-29.81 16.49-5.886 2.887-10.606 5.107-14.16 6.66a19.748 19.748 0 0 1-17.32 0c-3.553-1.553-8.273-3.773-14.16-6.66-5.886-2.886-15.823-8.383-29.81-16.49-14-8.106-27.433-16.71-40.3-25.81a457.406 457.406 0 0 1-42.14-34.31 308.918 308.918 0 0 1-39.31-42.47 211.765 211.765 0 0 1-27.65-50 152.995 152.995 0 0 1-11.16-56.79v-255.81a21.618 21.618 0 0 1 21.32-21.32h383.76a21.614 21.614 0 0 1 21.31 21.32h.05Z" fill="#fff"/></g><defs><clipPath id="a"><path fill="#fff" d="M0 0h1024v1024H0z"/></clipPath></defs></svg>