<svg width="1024" height="1024" fill="none" xmlns="http://www.w3.org/2000/svg"><g clip-path="url(#a)"><path d="M512 1024c282.77 0 512-229.23 512-512S794.77 0 512 0 0 229.23 0 512s229.23 512 512 512Z" fill="#71A372"/><path d="M425.79 660a20.531 20.531 0 0 0-6.87-4.54 22.638 22.638 0 0 0-8.64-1.62 19.848 19.848 0 0 0-5.85.85 19.01 19.01 0 0 0-4.95 2.37 19.464 19.464 0 0 0-4 3.59 22.402 22.402 0 0 0-2.92 4.52 24.61 24.61 0 0 0-2.41 10.71 24.178 24.178 0 0 0 1.62 9 20.893 20.893 0 0 0 4.52 7 20.298 20.298 0 0 0 6.88 4.51 22.993 22.993 0 0 0 8.63 1.58c1.975.01 3.94-.276 5.83-.85a18.997 18.997 0 0 0 4.94-2.36 19.607 19.607 0 0 0 4-3.58 21.889 21.889 0 0 0 2.92-4.48 22.726 22.726 0 0 0 1.81-5.15c.407-1.812.611-3.663.61-5.52a24.239 24.239 0 0 0-1.62-9 20.999 20.999 0 0 0-4.5-7.03Zm-2 24.68a15.472 15.472 0 0 1-2.7 5.11 11.54 11.54 0 0 1-4.06 3.13 12.432 12.432 0 0 1-5.23 1.09 12.744 12.744 0 0 1-6.3-1.5 13.178 13.178 0 0 1-4.53-4.17 19.824 19.824 0 0 1-2.75-6.38 32.963 32.963 0 0 1-.93-8 22.567 22.567 0 0 1 1-6.92 14.988 14.988 0 0 1 2.69-5 11.394 11.394 0 0 1 4.08-3.12 12.648 12.648 0 0 1 5.22-1.06c2.188-.056 4.353.45 6.29 1.47a13.187 13.187 0 0 1 4.51 4.13 19.937 19.937 0 0 1 2.76 6.33 32.552 32.552 0 0 1 1 8 22.921 22.921 0 0 1-1.02 6.9l-.03-.01Zm52.28-30.15h5.53v1c-.117.465-.21.936-.28 1.41-.09.59-.17 1.31-.24 2.19-.07.88-.13 1.92-.16 3.12-.03 1.2-.06 2.62-.06 4.24v31.19h-1.94l-.21-.23-26.8-30.11v22.09c0 1.25.1 2.24.17 3.11.07.87.15 1.58.23 2.16.069.475.166.946.29 1.41v.89l-.68.11h-5.52v-1c.1-.39.21-.86.3-1.43s.19-1.28.26-2.15c.07-.87.12-1.91.16-3.11.04-1.2.06-2.63.06-4.25v-18.7c0-1.61 0-3-.06-4.24-.06-1.24-.09-2.25-.16-3.12-.07-.87-.16-1.6-.26-2.17a14.523 14.523 0 0 0-.3-1.43v-.86l.68-.11h2.05l27 30.36v-18.42c0-1.61 0-3-.07-4.24-.07-1.24-.09-2.25-.15-3.12-.06-.87-.17-1.6-.26-2.17a14.22 14.22 0 0 0-.31-1.43v-.86l.73-.13Zm42.82 36.78 1-.29-1.08 6.33-.62-.06c-.22 0-.53 0-.94-.06l-1.45-.06h-1.67l-3.07-.06h-13.22v-1c.11-.39.21-.86.3-1.43s.17-1.29.25-2.15c.08-.86.12-1.91.16-3.11.04-1.2.06-2.63.06-4.25v-18.7c0-1.61 0-3-.06-4.23-.06-1.23-.09-2.25-.16-3.12-.07-.87-.16-1.6-.25-2.17-.09-.57-.2-1-.3-1.43v-.86l.68-.11h7.2v1c-.1.39-.2.86-.29 1.43-.12.715-.203 1.436-.25 2.16-.06.89-.11 1.93-.15 3.13-.04 1.2-.07 2.62-.07 4.23v26.7c1.85 0 3.57-.12 5.14-.28 1.77-.19 3.32-.41 4.65-.66a39.094 39.094 0 0 0 4.17-.93l-.03-.02Zm21.83-24.85v18.7c0 1.62 0 3 .07 4.25s.11 2.24.16 3.12c.05.88.16 1.56.25 2.14.069.482.166.959.29 1.43v.9l-.68.11h-7.18v-1c.122-.464.218-.935.29-1.41.09-.58.16-1.3.24-2.16.08-.86.13-1.91.16-3.11s.06-2.63.06-4.25v-18.7c0-1.61 0-3-.06-4.24-.06-1.24-.1-2.25-.16-3.12-.06-.87-.15-1.6-.24-2.19a13.821 13.821 0 0 0-.29-1.41v-.86l.68-.12h7.18v1a12.45 12.45 0 0 0-.29 1.42c-.1.57-.18 1.3-.25 2.16-.07.86-.11 1.93-.16 3.13s-.03 2.61-.03 4.23l-.04-.02Zm46.86-11.93h5.52v1c-.117.465-.21.936-.28 1.41-.1.59-.17 1.31-.24 2.19-.07.88-.12 1.92-.17 3.12-.05 1.2 0 2.62 0 4.24v31.19h-1.94l-.2-.23-26.8-30.11v22.09c0 1.25.1 2.24.17 3.11.07.87.15 1.58.24 2.16.067.476.164.947.29 1.41v.89l-.68.11H558v-1c.126-.471.226-.948.3-1.43.1-.57.18-1.28.25-2.15.07-.87.12-1.91.17-3.11.05-1.2.05-2.63.05-4.25v-18.7c0-1.61 0-3-.05-4.24-.05-1.24-.1-2.24-.17-3.11-.07-.87-.16-1.6-.25-2.17a12.924 12.924 0 0 0-.3-1.43v-.86l.67-.11h2.06l.2.23 26.8 30.13v-18.43c0-1.61 0-3-.06-4.24-.06-1.24-.09-2.25-.17-3.12-.08-.87-.15-1.6-.25-2.17a13.399 13.399 0 0 0-.3-1.43v-.86l.63-.13Zm42.83 36.78 1-.29-1.07 6.33-.62-.06c-.21 0-.52 0-.95-.06l-1.44-.06h-1.68l-3.08-.06h-13.21v-1c.1-.39.2-.86.3-1.43.1-.57.19-1.28.26-2.15.07-.87.12-1.91.16-3.11.04-1.2.05-2.63.05-4.25v-18.7c0-1.607-.017-3.017-.05-4.23 0-1.21-.08-2.25-.16-3.12a21.092 21.092 0 0 0-.26-2.17c-.09-.57-.19-1-.29-1.43v-.86l.68-.11h6.74c2.23 0 4.29 0 6.15-.08 1.86-.08 3.44-.07 4.77-.12.864-.01 1.727-.083 2.58-.22l1.17-.23-1.94 5.55-.61-.17a16.504 16.504 0 0 0-2-.46c-.68-.11-1.5-.22-2.48-.31a29.637 29.637 0 0 0-3.33-.17c-.43 0-.93 0-1.53.05l-1.74.1-1.34.09v14.34c1.61 0 3-.08 4.33-.16 1.49-.11 2.76-.2 3.81-.3 1.22-.11 2.3-.25 3.21-.4l1-.16-1.16 5.76-.64-.09c-1.25-.18-2.52-.33-3.83-.49-1.11-.14-2.32-.25-3.64-.37-1.06-.07-2.08-.14-3.07-.14v16.63c1.85 0 3.58-.12 5.14-.28 1.76-.19 3.33-.41 4.64-.66a39.842 39.842 0 0 0 4.17-.93l-.04-.02ZM229 678.27h142.44V681H229v-2.73Zm566 0V681H652.56v-2.72l142.44-.01Zm-527.6-80c-.1 3.45-.26 6.45-.46 9s-.45 4.58-.73 6.24c-.28 1.66-.57 3.06-.87 4.19v1.41h.87c1.41 0 3.44.08 6 .2l8.34.46 8.81.45c3 .13 5.5.2 7.53.2 5.7.007 11.389-.492 17-1.49a67.698 67.698 0 0 0 15.51-4.74 57.028 57.028 0 0 0 13.31-8.29 49.132 49.132 0 0 0 10.38-12.15 59.835 59.835 0 0 0 6.73-16.31 82.879 82.879 0 0 0 2.39-20.72c0-10.67-1.51-19.79-4.56-27.15a45.714 45.714 0 0 0-30.57-27.82 77.557 77.557 0 0 0-21.65-3c-2.8 0-5.82.06-9 .15l-7.66.28-1.53.06c-3 .11-5.58.21-7.89.33-2.31.12-3.92.17-4.88.17h-2.21c-.94 0-1.83-.08-2.7-.13-1-.06-2.16-.11-3.35-.16h-.9v1.46c.3 1.127.59 2.543.87 4.25.28 1.72.53 3.87.73 6.38.2 2.51.36 5.57.46 9.05.1 3.48.16 7.63.16 12.24v53.4c.03 4.55-.03 8.65-.13 12.07v-.03Zm16-50.56.15-14.73c0-2.56.07-5.08.11-7.54l.31-17 3-.23c1.5-.14 3.13-.24 4.84-.33l5.24-.24c1.74-.07 3.31-.11 4.7-.11a46.67 46.67 0 0 1 18.5 3.47 34.695 34.695 0 0 1 13.4 10 45.077 45.077 0 0 1 8.25 16.21 78.85 78.85 0 0 1 2.84 22.12 83.542 83.542 0 0 1-2 19.44 50.39 50.39 0 0 1-5.44 14 34.565 34.565 0 0 1-8 9.4 38.784 38.784 0 0 1-9.79 5.74 45.876 45.876 0 0 1-10.8 2.86c-3.645.505-7.32.762-11 .77-.88 0-2 0-3.23-.08s-2.59-.13-3.94-.21c-1.35-.08-2.59-.19-3.8-.32l-2.17-.26c-.19-3.24-.36-7.21-.5-11.83-.14-5-.27-10.28-.34-15.75-.07-5.47-.14-10.79-.2-16-.06-5.21-.07-9.62-.07-13.28-.05-1.81-.05-3.81-.02-6.06l-.04-.04Zm151.24 57 1.32-.38-2.62 15.41-.79-.06c-.61-.05-1.53-.11-2.76-.17l-4.14-.15c-1.51-.06-3.11-.11-4.79-.14l-8.78-.15c-1.14 0-2-.05-2.5-.05h-34.33v-1.41c.29-1.1.59-2.52.87-4.19.28-1.67.52-3.78.73-6.24.21-2.46.34-5.51.44-9 .1-3.49.17-7.49.17-12.15v-21.38l-10.68-4.38a1.788 1.788 0 0 1-.528-1.265 1.79 1.79 0 0 1 .528-1.265l10.65-4.48v-20.5c0-4.65-.05-8.74-.17-12.15-.12-3.41-.24-6.44-.44-9-.2-2.56-.46-4.61-.73-6.29a43.7 43.7 0 0 0-.87-4.18v-1.43h.87c6.46 0 12.883-.027 19.27-.08 6.37-.05 12.24-.11 17.55-.2 5.31-.09 9.87-.2 13.63-.36a59.13 59.13 0 0 0 7.54-.64l1.49-.31-4.57 13.14-.79-.22a54.726 54.726 0 0 0-5.88-1.3c-1.9-.32-4.24-.63-7.12-.93a94.232 94.232 0 0 0-9.65-.45c-1.21 0-2.7 0-4.42.11-1.72.11-3.38.17-5 .29l-4.86.27v38.78l22.82 9.68a1.798 1.798 0 0 1 0 2.53l-22.82 9.73v40.36a158.2 158.2 0 0 0 15.86-.8c5.09-.55 9.58-1.18 13.36-1.88a121.425 121.425 0 0 0 12.18-2.65l-.04-.07Zm67.56-3a29.208 29.208 0 0 1-5.55 9.94 28.281 28.281 0 0 1-9.69 7.15 33.257 33.257 0 0 1-14 2.76 40.747 40.747 0 0 1-8.6-.89 54.437 54.437 0 0 1-7.5-2.16 50.36 50.36 0 0 1-6.16-2.8 48.552 48.552 0 0 1-4.47-2.78l-.4-.28 1.92-19.41h3.41l.15.68a26.195 26.195 0 0 0 2.71 7.11 24.672 24.672 0 0 0 4.61 5.94 21.342 21.342 0 0 0 6.24 4.09 18.682 18.682 0 0 0 7.65 1.54 18.129 18.129 0 0 0 6.77-1.21 15.25 15.25 0 0 0 5.11-3.34 14.71 14.71 0 0 0 3.26-5.07 18.312 18.312 0 0 0 1.13-6.5 24.634 24.634 0 0 0-1.7-9.23 38.288 38.288 0 0 0-4.6-8.14 69.104 69.104 0 0 0-6.51-7.53c-2.45-2.46-5-4.93-7.55-7.42s-5.15-5.07-7.6-7.69a61.15 61.15 0 0 1-6.68-8.53 45.17 45.17 0 0 1-4.79-9.78 35.013 35.013 0 0 1-1.83-11.55 28.67 28.67 0 0 1 8.234-20.537 28.653 28.653 0 0 1 20.406-8.553 37.82 37.82 0 0 1 7.31.67c2.032.399 4.037.93 6 1.59 1.82.63 3.33 1.24 4.63 1.83l3.7 1.73-.6 16.74H494l-.2-.59a22.595 22.595 0 0 0-1.9-4.1 18.005 18.005 0 0 0-8.53-7.6 17.354 17.354 0 0 0-7.06-1.33 16.56 16.56 0 0 0-6.41 1.17 12.651 12.651 0 0 0-4.61 3.21 14 14 0 0 0-2.81 5 20.238 20.238 0 0 0-1 6.45 21.147 21.147 0 0 0 3 10.84 64.272 64.272 0 0 0 7.77 10.48c3.15 3.48 6.59 7 10.2 10.45a136.922 136.922 0 0 1 10.3 11 64.433 64.433 0 0 1 8 12 29.996 29.996 0 0 1 3.25 13.77 35.548 35.548 0 0 1-1.76 10.97l-.04-.09Zm154.5 15.81.09.75h24v-1.79l-.56-.22a12.727 12.727 0 0 1-2.83-1.5 20.869 20.869 0 0 1-2.95-2.53 44.723 44.723 0 0 1-3.27-3.73c-1.15-1.46-2.4-3.22-3.73-5.2l-26.66-39.61a37.407 37.407 0 0 0 7.44-5 34.137 34.137 0 0 0 6.41-7.45 35.603 35.603 0 0 0 4.13-9.37 40.836 40.836 0 0 0 1.47-11.18 34.248 34.248 0 0 0-2.68-13.86 29.066 29.066 0 0 0-7.45-10.33 32.647 32.647 0 0 0-11.27-6.41 43.793 43.793 0 0 0-14-2.19 91.419 91.419 0 0 0-13.3.8 58.24 58.24 0 0 1-8.05.77h-3.74c-1.21 0-2.25-.1-3.22-.2l-4.21-.43v1.57c.31 1.11.59 2.53.87 4.21.28 1.68.52 3.78.69 6.27.17 2.49.32 5.31.47 9 .12 3.44.2 7.4.2 12.16v53.39c0 4.79-.08 8.78-.2 12.18-.15 3.63-.29 6.54-.47 8.93-.18 2.39-.41 4.59-.69 6.22-.28 1.63-.57 3.08-.87 4.2v1.41h20.34v-1.41c-.31-1.15-.61-2.57-.88-4.2-.27-1.63-.5-3.78-.68-6.22-.19-2.6-.34-5.61-.47-9-.13-3.39-.19-7.38-.19-12.15V568c1.17.18 2.36.33 3.52.41 2.717.194 5.443.194 8.16 0 1-.07 2-.15 3.07-.24l27.18 40.49a46.386 46.386 0 0 1 2.94 5 15.058 15.058 0 0 1 1.43 3.95l-.04-.09Zm-28.39-58.78a32.067 32.067 0 0 1-14.42 1.58 31.455 31.455 0 0 1-3.48-.54v-53a30.07 30.07 0 0 1 4.1-1 49.881 49.881 0 0 1 8.37-.56 20.084 20.084 0 0 1 8.86 1.84 16.927 16.927 0 0 1 6.23 5.15 23.485 23.485 0 0 1 3.78 8.18 43.001 43.001 0 0 1 1.29 10.94 41.532 41.532 0 0 1-1.81 12.89 25.45 25.45 0 0 1-5.06 9.08 20.213 20.213 0 0 1-7.82 5.53l-.04-.09Zm122.48-71.5c1.86-.04 3.64-.09 5.34-.15 1.69-.07 3.23-.16 4.59-.24 1.36-.08 2.4-.13 3.08-.2l.84-.08 2.79 21.51-1.33-.46a119.242 119.242 0 0 0-12.34-3.53c-4-.86-8.69-1.67-14.07-2.41a136.964 136.964 0 0 0-17.41-1.12v50.07l16 6.79a1.798 1.798 0 0 1 0 2.53l-16 6.8v33.75c0 6 .08 11.38.22 15.94.14 4.38.31 8.34.52 11.74.2 3.2.46 6 .78 8.21.2 1.44.41 2.68.63 3.8L725 643l-20.46-20.48v-.38c.08-1.78.15-3.63.19-5.64.11-4.61.18-10 .18-16v-33.8L689 560.27a1.773 1.773 0 0 1 0-2.53l15.89-6.68v-50.4c-5.818.004-11.63.378-17.4 1.12-5.38.74-10.13 1.54-14.09 2.41a114.576 114.576 0 0 0-12.23 3.52l-1.34.47 2.8-21.51.83.08c.68.07 1.7.14 3.06.2s2.92.17 4.61.24c1.69.07 3.47.11 5.33.15l9.75.22h54.87l9.71-.32Zm-190.15 132-8.76-.15c-1.16 0-2-.05-2.51-.05H515v-1.41c.28-1.05.57-2.42.88-4.19.31-1.77.53-3.8.72-6.24.21-2.62.37-5.63.47-9 .1-3.37.14-7.49.14-12.15v-21l-11.89-4.88a1.793 1.793 0 0 1 0-2.53l11.87-5v-20c0-4.65 0-8.74-.14-12.15s-.26-6.33-.47-9c-.19-2.48-.44-4.6-.72-6.29-.28-1.69-.59-3.11-.88-4.18v-1.43h.87c6.46 0 12.887-.027 19.28-.08 6.393-.053 12.25-.12 17.57-.2 5.28-.08 9.87-.2 13.61-.36a58.768 58.768 0 0 0 7.54-.64l1.49-.31-4.56 13.12-.78-.12a56.031 56.031 0 0 0-5.87-1.3c-1.92-.32-4.24-.63-7.14-.93a92.351 92.351 0 0 0-9.64-.45c-1.23 0-2.71 0-4.44.11-1.73.11-3.37.17-5 .29l-4.86.27v39.3l21.61 9.16a1.79 1.79 0 0 1 .391 1.95 1.8 1.8 0 0 1-.391.58l-21.6 9.21v40.89c5.307 0 10.61-.267 15.89-.8 5.08-.55 9.57-1.18 13.35-1.88a120.542 120.542 0 0 0 12.1-2.67l1.33-.38-2.61 15.41-.8-.06c-.61-.05-1.53-.11-2.76-.17l-4.14-.15c-1.42-.01-3.06-.06-4.74-.09l-.04-.05Zm-279.2-213.06v25.32c0 5.66-.06 10.6-.18 14.7s-.31 7.83-.57 10.83a23.669 23.669 0 0 1-1 4.79 24.281 24.281 0 0 0-.68 2.64 6.667 6.667 0 0 1-2 2.8 6.642 6.642 0 0 0-1.76 2.42v1.49h10.55c1.89 0 4.09.08 6.54.24 2.45.16 5.07.34 7.69.55l7.7.54c2.63.17 4.8.25 6.65.25 17.54 0 30.92-3.59 39.78-10.65 8.86-7.06 13.44-17.91 13.44-32.07a35.339 35.339 0 0 0-2.66-13.88 32.868 32.868 0 0 0-7.56-10.95 41.817 41.817 0 0 0-11.6-7.75 54.874 54.874 0 0 0-11.51-3.76 41.6 41.6 0 0 0 7-3.34 29.48 29.48 0 0 0 13.26-16.64 39.809 39.809 0 0 0 1.84-12.51 34.993 34.993 0 0 0-3.06-14.9 31.562 31.562 0 0 0-8.43-11 37.924 37.924 0 0 0-12.68-6.87 52.048 52.048 0 0 0-15.93-2.43 132.058 132.058 0 0 0-15 .69 80.539 80.539 0 0 1-9.1.69h-4.58c-1.46 0-2.78 0-4-.1-1.41 0-6.17 0-7.38-.1h-.91v1.54a7.538 7.538 0 0 0 1.66 2.46 7.802 7.802 0 0 1 1.91 3c.184.915.438 1.814.76 2.69.552 1.469.918 3 1.09 4.56.26 3 .43 6.69.57 10.88.14 4.19.18 9 .18 14.69v23.4l-16.76 7a1.79 1.79 0 0 0-.391 1.95 1.8 1.8 0 0 0 .391.58l16.73 6.25Zm18.91-70c.981-.32 1.984-.571 3-.75 1.24-.27 2.76-.48 4.51-.68a58.494 58.494 0 0 1 6.18-.29c3.28-.062 6.534.586 9.54 1.9a19.189 19.189 0 0 1 7 5.44 24.722 24.722 0 0 1 4.33 8.69 41.786 41.786 0 0 1 1.42 11.51 39.698 39.698 0 0 1-2 13.26 26 26 0 0 1-5.61 9.36 22.988 22.988 0 0 1-8.68 5.59 33.3 33.3 0 0 1-11.39 1.87h-4.42c-1.15 0-2.45-.11-3.87-.26l-.01-55.64Zm0 66c1.49-.27 3.48-.57 5.92-.85a98.234 98.234 0 0 1 10.67-.49 37.004 37.004 0 0 1 13.21 2.16 24.583 24.583 0 0 1 9.31 6.08 26 26 0 0 1 5.57 9.36 37.173 37.173 0 0 1 1.88 12.06c0 11.16-2.66 19.51-7.91 24.83-5.25 5.32-13.72 8-25.17 8a55.684 55.684 0 0 1-5.67-.38c-2.16-.25-4.33-.51-6.48-.81-.4-3.1-.71-7-1-11.57-.25-5-.38-11.39-.38-19.11l.05-29.28Zm136 42.23 1.33-.37-2.68 15.41-.79-.06c-.62 0-1.54-.11-2.76-.16l-4.14-.15c-1.53-.06-3.13-.11-4.81-.14l-8.76-.15c-1.15 0-2-.05-2.51-.05h-34.34v-1.41c.3-1.12.59-2.54.87-4.19.28-1.65.52-3.75.74-6.23.22-2.48.35-5.49.46-9 .11-3.51.15-7.58.15-12.15v-53.4c0-4.55-.06-8.65-.15-12.15s-.27-6.48-.46-9c-.19-2.52-.46-4.63-.74-6.29-.28-1.66-.57-3.07-.87-4.19v-1.42h20.35v1.42c-.31 1.14-.61 2.53-.88 4.19-.27 1.66-.5 3.78-.68 6.27-.18 2.49-.34 5.46-.47 9-.13 3.54-.19 7.58-.19 12.15v77.38a158.613 158.613 0 0 0 15.88-.8c5.06-.55 9.55-1.18 13.35-1.88 4.059-.672 8.08-1.55 12.05-2.63h.05ZM457 457.29l-.11-.2a2.063 2.063 0 0 1-.22-.68 8.76 8.76 0 0 1-.12-1.56 20.299 20.299 0 0 1 1.26-7c.88-2.41 1.71-4.61 2.47-6.63l8.72-21.14c2.88-.1 6.13-.14 9.68-.14h27.41c4.49 0 8.18 0 11 .14l9.17 21.8a48.006 48.006 0 0 1 2.47 7.52c.397 1.79.608 3.616.63 5.45 0 .4 0 .86-.06 1.38-.024.34-.088.675-.19 1v1.48h23v-1.48l-.19-.25c-.15-.2-.54-.76-1.42-2.2a90.522 90.522 0 0 1-2.46-4.4c-.92-1.73-1.9-3.71-3-5.91s-2.07-4.46-3-6.8l-42.4-100.75h-7.36L447.6 441.71c-1.64 4-3.18 7.29-4.53 9.88a29.216 29.216 0 0 1-3.38 5.38l-.21.23v1.53H457v-1.44Zm35.7-95.42 20.49 49c-1.94 0-4 .06-6.32.09l-18 .17h-16.32l20.15-49.26Zm74.47 82.35a58.6 58.6 0 0 0 20.2 12.61 72.457 72.457 0 0 0 25.84 4.46c4.674 0 9.337-.435 13.93-1.3a61.253 61.253 0 0 0 12.65-3.7l.34-.15 6.39-17.71-2-1.42-.5.62a38.056 38.056 0 0 1-6.24 6.15 40.368 40.368 0 0 1-7.32 4.59 36.76 36.76 0 0 1-8.07 2.83 34.204 34.204 0 0 1-4.92.77V347.23a41.79 41.79 0 0 1 9.63 2.74 43.46 43.46 0 0 1 13.9 9.27l.43.43 1.92-.93-5.51-16.27-.38-.16a75.168 75.168 0 0 0-27.31-4.88 63.104 63.104 0 0 0-17.62 2.36 59.206 59.206 0 0 0-14.92 6.61 58.507 58.507 0 0 0-12.06 10 59.612 59.612 0 0 0-8.88 12.7 64.114 64.114 0 0 0-5.45 14.54 64.93 64.93 0 0 0-1.89 15.55 66.383 66.383 0 0 0 4.67 25.42 57.121 57.121 0 0 0 13.19 19.61h-.02Zm36.41-97.34a50.222 50.222 0 0 1 5.71-.35h1.09V452a46.723 46.723 0 0 1-6.79-.86l-.01-104.26Zm-33.37 26.79a42.451 42.451 0 0 1 8.67-14.8 37.252 37.252 0 0 1 13.31-9.18 41.31 41.31 0 0 1 4.32-1.46V449a32.403 32.403 0 0 1-3-1.29 41.841 41.841 0 0 1-14.6-12.25 55.306 55.306 0 0 1-8.83-18.54 86.275 86.275 0 0 1-3-23.18 60.217 60.217 0 0 1 3.15-20.06l-.02-.01Zm89.61 51.79v-53.4c0-4.6-.05-8.67-.14-12.15-.09-3.48-.26-6.45-.47-9-.21-2.55-.46-4.63-.73-6.29-.27-1.66-.57-3-.87-4.17v-1.42h20.35v1.42c-.3 1.14-.61 2.55-.87 4.17s-.52 3.77-.69 6.28c-.17 2.51-.35 5.57-.46 9-.11 3.43-.2 7.58-.2 12.15v16.4l43.87-37.89c4.84-4.18 7.29-7.76 7.29-10.67v-.86h23.55v1.86l-.66.17a28.408 28.408 0 0 0-9 4.26 108.437 108.437 0 0 0-9.88 7.86l-39.39 34.87 47.61 55.29c2 2.15 3.71 4 5.13 5.41 1.42 1.41 2.64 2.61 3.73 3.58a33.556 33.556 0 0 0 2.9 2.31c.89.61 1.81 1.22 2.79 1.81l.41.26v1.69h-24.25l-.21-.53a12.52 12.52 0 0 0-1-1.76 23.878 23.878 0 0 0-1.66-2.3 108 108 0 0 0-2-2.53c-.76-.89-1.48-1.69-2.13-2.46l-47.13-54.67v31.29c0 4.58.07 8.67.2 12.15.13 3.48.28 6.43.46 8.95.18 2.52.41 4.58.69 6.25.28 1.67.57 3 .87 4.18v1.41h-20.35v-1.42c.29-1.12.6-2.53.87-4.18s.52-3.78.73-6.26c.21-2.48.36-5.49.47-8.94.11-3.45.18-7.51.18-12.11l-.01-.01Z" fill="#fff"/></g><defs><clipPath id="a"><path fill="#fff" d="M0 0h1024v1024H0z"/></clipPath></defs></svg>