<svg width="1024" height="1024" viewBox="0 0 1024 1024" fill="none" xmlns="http://www.w3.org/2000/svg">
<g clip-path="url(#clip0_3_494)">
<path d="M512 1024C794.77 1024 1024 794.77 1024 512C1024 229.23 794.77 0 512 0C229.23 0 0 229.23 0 512C0 794.77 229.23 1024 512 1024Z" fill="#71A372"/>
<path d="M425.79 660C423.83 658.038 421.493 656.494 418.92 655.46C416.174 654.361 413.238 653.81 410.28 653.84C408.298 653.83 406.327 654.116 404.43 654.69C402.674 655.236 401.007 656.035 399.48 657.06C397.987 658.066 396.641 659.274 395.48 660.65C394.329 662.034 393.348 663.551 392.56 665.17C391.769 666.824 391.165 668.562 390.76 670.35C390.352 672.165 390.147 674.02 390.15 675.88C390.113 678.956 390.662 682.01 391.77 684.88C392.791 687.493 394.329 689.874 396.29 691.88C398.251 693.837 400.593 695.372 403.17 696.39C405.919 697.466 408.849 698.002 411.8 697.97C413.775 697.98 415.74 697.694 417.63 697.12C419.382 696.576 421.046 695.781 422.57 694.76C424.061 693.756 425.407 692.551 426.57 691.18C427.723 689.812 428.703 688.307 429.49 686.7C430.298 685.062 430.906 683.333 431.3 681.55C431.707 679.738 431.911 677.887 431.91 676.03C431.946 672.954 431.396 669.9 430.29 667.03C429.276 664.409 427.745 662.019 425.79 660ZM423.79 684.68C423.219 686.538 422.303 688.271 421.09 689.79C419.988 691.125 418.601 692.194 417.03 692.92C415.386 693.658 413.602 694.03 411.8 694.01C409.606 694.061 407.436 693.544 405.5 692.51C403.682 691.497 402.129 690.068 400.97 688.34C399.685 686.392 398.754 684.232 398.22 681.96C397.584 679.341 397.272 676.655 397.29 673.96C397.262 671.615 397.599 669.281 398.29 667.04C398.86 665.217 399.773 663.52 400.98 662.04C402.085 660.703 403.48 659.636 405.06 658.92C406.705 658.2 408.484 657.839 410.28 657.86C412.468 657.804 414.633 658.31 416.57 659.33C418.376 660.334 419.921 661.749 421.08 663.46C422.361 665.393 423.295 667.535 423.84 669.79C424.504 672.405 424.839 675.092 424.84 677.79C424.854 680.129 424.51 682.455 423.82 684.69L423.79 684.68ZM476.07 654.53H481.6V655.53C481.483 655.995 481.39 656.466 481.32 656.94C481.23 657.53 481.15 658.25 481.08 659.13C481.01 660.01 480.95 661.05 480.92 662.25C480.89 663.45 480.86 664.87 480.86 666.49V697.68H478.92L478.71 697.45L451.91 667.34V689.43C451.91 690.68 452.01 691.67 452.08 692.54C452.15 693.41 452.23 694.12 452.31 694.7C452.379 695.175 452.476 695.646 452.6 696.11V697L451.92 697.11H446.4V696.11C446.5 695.72 446.61 695.25 446.7 694.68C446.79 694.11 446.89 693.4 446.96 692.53C447.03 691.66 447.08 690.62 447.12 689.42C447.16 688.22 447.18 686.79 447.18 685.17V666.47C447.18 664.86 447.18 663.47 447.12 662.23C447.06 660.99 447.03 659.98 446.96 659.11C446.89 658.24 446.8 657.51 446.7 656.94C446.624 656.459 446.524 655.981 446.4 655.51V654.65L447.08 654.54H449.13L476.13 684.9V666.48C476.13 664.87 476.13 663.48 476.06 662.24C475.99 661 475.97 659.99 475.91 659.12C475.85 658.25 475.74 657.52 475.65 656.95C475.571 656.468 475.468 655.991 475.34 655.52V654.66L476.07 654.53ZM518.89 691.31L519.89 691.02L518.81 697.35L518.19 697.29C517.97 697.29 517.66 697.29 517.25 697.23L515.8 697.17H514.13L511.06 697.11H497.84V696.11C497.95 695.72 498.05 695.25 498.14 694.68C498.23 694.11 498.31 693.39 498.39 692.53C498.47 691.67 498.51 690.62 498.55 689.42C498.59 688.22 498.61 686.79 498.61 685.17V666.47C498.61 664.86 498.61 663.47 498.55 662.24C498.49 661.01 498.46 659.99 498.39 659.12C498.32 658.25 498.23 657.52 498.14 656.95C498.05 656.38 497.94 655.95 497.84 655.52V654.66L498.52 654.55H505.72V655.55C505.62 655.94 505.52 656.41 505.43 656.98C505.31 657.695 505.227 658.416 505.18 659.14C505.12 660.03 505.07 661.07 505.03 662.27C504.99 663.47 504.96 664.89 504.96 666.5V693.2C506.81 693.2 508.53 693.08 510.1 692.92C511.87 692.73 513.42 692.51 514.75 692.26C516.156 692.026 517.548 691.716 518.92 691.33L518.89 691.31ZM540.72 666.46V685.16C540.72 686.78 540.72 688.16 540.79 689.41C540.86 690.66 540.9 691.65 540.95 692.53C541 693.41 541.11 694.09 541.2 694.67C541.269 695.152 541.366 695.629 541.49 696.1V697L540.81 697.11H533.63V696.11C533.752 695.646 533.848 695.175 533.92 694.7C534.01 694.12 534.08 693.4 534.16 692.54C534.24 691.68 534.29 690.63 534.32 689.43C534.35 688.23 534.38 686.8 534.38 685.18V666.48C534.38 664.87 534.38 663.48 534.32 662.24C534.26 661 534.22 659.99 534.16 659.12C534.1 658.25 534.01 657.52 533.92 656.93C533.848 656.455 533.751 655.985 533.63 655.52V654.66L534.31 654.54H541.49V655.54C541.366 656.007 541.269 656.481 541.2 656.96C541.1 657.53 541.02 658.26 540.95 659.12C540.88 659.98 540.84 661.05 540.79 662.25C540.74 663.45 540.76 664.86 540.76 666.48L540.72 666.46ZM587.58 654.53H593.1V655.53C592.983 655.995 592.89 656.466 592.82 656.94C592.72 657.53 592.65 658.25 592.58 659.13C592.51 660.01 592.46 661.05 592.41 662.25C592.36 663.45 592.41 664.87 592.41 666.49V697.68H590.47L590.27 697.45L563.47 667.34V689.43C563.47 690.68 563.57 691.67 563.64 692.54C563.71 693.41 563.79 694.12 563.88 694.7C563.947 695.176 564.044 695.647 564.17 696.11V697L563.49 697.11H558V696.11C558.126 695.639 558.226 695.162 558.3 694.68C558.4 694.11 558.48 693.4 558.55 692.53C558.62 691.66 558.67 690.62 558.72 689.42C558.77 688.22 558.77 686.79 558.77 685.17V666.47C558.77 664.86 558.77 663.47 558.72 662.23C558.67 660.99 558.62 659.99 558.55 659.12C558.48 658.25 558.39 657.52 558.3 656.95C558.227 656.468 558.127 655.991 558 655.52V654.66L558.67 654.55H560.73L560.93 654.78L587.73 684.91V666.48C587.73 664.87 587.73 663.48 587.67 662.24C587.61 661 587.58 659.99 587.5 659.12C587.42 658.25 587.35 657.52 587.25 656.95C587.176 656.468 587.076 655.991 586.95 655.52V654.66L587.58 654.53ZM630.41 691.31L631.41 691.02L630.34 697.35L629.72 697.29C629.51 697.29 629.2 697.29 628.77 697.23L627.33 697.17H625.65L622.57 697.11H609.36V696.11C609.46 695.72 609.56 695.25 609.66 694.68C609.76 694.11 609.85 693.4 609.92 692.53C609.99 691.66 610.04 690.62 610.08 689.42C610.12 688.22 610.13 686.79 610.13 685.17V666.47C610.13 664.863 610.113 663.453 610.08 662.24C610.08 661.03 610 659.99 609.92 659.12C609.871 658.393 609.784 657.668 609.66 656.95C609.57 656.38 609.47 655.95 609.37 655.52V654.66L610.05 654.55H616.79C619.02 654.55 621.08 654.55 622.94 654.47C624.8 654.39 626.38 654.4 627.71 654.35C628.574 654.34 629.437 654.267 630.29 654.13L631.46 653.9L629.52 659.45L628.91 659.28C628.253 659.085 627.586 658.932 626.91 658.82C626.23 658.71 625.41 658.6 624.43 658.51C623.324 658.391 622.212 658.334 621.1 658.34C620.67 658.34 620.17 658.34 619.57 658.39L617.83 658.49L616.49 658.58V672.92C618.1 672.92 619.49 672.84 620.82 672.76C622.31 672.65 623.58 672.56 624.63 672.46C625.85 672.35 626.93 672.21 627.84 672.06L628.84 671.9L627.68 677.66L627.04 677.57C625.79 677.39 624.52 677.24 623.21 677.08C622.1 676.94 620.89 676.83 619.57 676.71C618.51 676.64 617.49 676.57 616.5 676.57V693.2C618.35 693.2 620.08 693.08 621.64 692.92C623.4 692.73 624.97 692.51 626.28 692.26C627.686 692.025 629.078 691.714 630.45 691.33L630.41 691.31ZM229 678.27H371.44V681H229V678.27ZM795 678.27V681H652.56V678.28L795 678.27ZM267.4 598.27C267.3 601.72 267.14 604.72 266.94 607.27C266.74 609.82 266.49 611.85 266.21 613.51C265.93 615.17 265.64 616.57 265.34 617.7V619.11H266.21C267.62 619.11 269.65 619.19 272.21 619.31L280.55 619.77L289.36 620.22C292.36 620.35 294.86 620.42 296.89 620.42C302.59 620.427 308.279 619.928 313.89 618.93C319.231 617.977 324.439 616.386 329.4 614.19C334.197 612.053 338.676 609.263 342.71 605.9C346.81 602.444 350.316 598.339 353.09 593.75C356.127 588.676 358.395 583.179 359.82 577.44C361.486 570.662 362.289 563.7 362.21 556.72C362.21 546.05 360.7 536.93 357.65 529.57C355.098 522.857 351 516.841 345.689 512.007C340.378 507.174 334.003 503.66 327.08 501.75C320.041 499.733 312.752 498.723 305.43 498.75C302.63 498.75 299.61 498.81 296.43 498.9L288.77 499.18L287.24 499.24C284.24 499.35 281.66 499.45 279.35 499.57C277.04 499.69 275.43 499.74 274.47 499.74H272.26C271.32 499.74 270.43 499.66 269.56 499.61C268.56 499.55 267.4 499.5 266.21 499.45H265.31V500.91C265.61 502.037 265.9 503.453 266.18 505.16C266.46 506.88 266.71 509.03 266.91 511.54C267.11 514.05 267.27 517.11 267.37 520.59C267.47 524.07 267.53 528.22 267.53 532.83V586.23C267.56 590.78 267.5 594.88 267.4 598.3V598.27ZM283.4 547.71L283.55 532.98C283.55 530.42 283.62 527.9 283.66 525.44L283.97 508.44L286.97 508.21C288.47 508.07 290.1 507.97 291.81 507.88L297.05 507.64C298.79 507.57 300.36 507.53 301.75 507.53C308.088 507.418 314.383 508.599 320.25 511C325.465 513.191 330.065 516.624 333.65 521C337.473 525.787 340.28 531.302 341.9 537.21C343.89 544.412 344.846 551.859 344.74 559.33C344.836 565.866 344.165 572.391 342.74 578.77C341.636 583.682 339.803 588.401 337.3 592.77C335.219 596.358 332.509 599.542 329.3 602.17C326.336 604.553 323.037 606.487 319.51 607.91C316.04 609.3 312.413 610.26 308.71 610.77C305.065 611.275 301.39 611.532 297.71 611.54C296.83 611.54 295.71 611.54 294.48 611.46C293.25 611.38 291.89 611.33 290.54 611.25C289.19 611.17 287.95 611.06 286.74 610.93L284.57 610.67C284.38 607.43 284.21 603.46 284.07 598.84C283.93 593.84 283.8 588.56 283.73 583.09C283.66 577.62 283.59 572.3 283.53 567.09C283.47 561.88 283.46 557.47 283.46 553.81C283.41 552 283.41 550 283.44 547.75L283.4 547.71ZM434.64 604.71L435.96 604.33L433.34 619.74L432.55 619.68C431.94 619.63 431.02 619.57 429.79 619.51L425.65 619.36C424.14 619.3 422.54 619.25 420.86 619.22L412.08 619.07C410.94 619.07 410.08 619.02 409.58 619.02H375.25V617.61C375.54 616.51 375.84 615.09 376.12 613.42C376.4 611.75 376.64 609.64 376.85 607.18C377.06 604.72 377.19 601.67 377.29 598.18C377.39 594.69 377.46 590.69 377.46 586.03V564.65L366.78 560.27C366.613 560.105 366.48 559.907 366.389 559.69C366.299 559.473 366.252 559.24 366.252 559.005C366.252 558.77 366.299 558.537 366.389 558.32C366.48 558.103 366.613 557.906 366.78 557.74L377.43 553.26V532.76C377.43 528.11 377.38 524.02 377.26 520.61C377.14 517.2 377.02 514.17 376.82 511.61C376.62 509.05 376.36 507 376.09 505.32C375.82 503.64 375.51 502.24 375.22 501.14V499.71H376.09C382.55 499.71 388.973 499.683 395.36 499.63C401.73 499.58 407.6 499.52 412.91 499.43C418.22 499.34 422.78 499.23 426.54 499.07C429.064 499.018 431.583 498.804 434.08 498.43L435.57 498.12L431 511.26L430.21 511.04C428.275 510.499 426.312 510.065 424.33 509.74C422.43 509.42 420.09 509.11 417.21 508.81C414.003 508.495 410.782 508.345 407.56 508.36C406.35 508.36 404.86 508.36 403.14 508.47C401.42 508.58 399.76 508.64 398.14 508.76L393.28 509.03V547.81L416.1 557.49C416.433 557.827 416.619 558.281 416.619 558.755C416.619 559.229 416.433 559.683 416.1 560.02L393.28 569.75V610.11C398.577 610.109 403.87 609.842 409.14 609.31C414.23 608.76 418.72 608.13 422.5 607.43C426.603 606.756 430.668 605.871 434.68 604.78L434.64 604.71ZM502.2 601.71C501.02 605.355 499.134 608.733 496.65 611.65C493.971 614.701 490.666 617.14 486.96 618.8C482.548 620.722 477.771 621.664 472.96 621.56C470.07 621.569 467.187 621.271 464.36 620.67C461.812 620.13 459.305 619.409 456.86 618.51C454.746 617.716 452.688 616.78 450.7 615.71C449.161 614.865 447.669 613.937 446.23 612.93L445.83 612.65L447.75 593.24H451.16L451.31 593.92C451.863 596.409 452.775 598.805 454.02 601.03C455.244 603.234 456.799 605.237 458.63 606.97C460.454 608.689 462.566 610.074 464.87 611.06C467.283 612.106 469.89 612.631 472.52 612.6C474.833 612.632 477.131 612.222 479.29 611.39C481.201 610.633 482.939 609.496 484.4 608.05C485.825 606.603 486.935 604.877 487.66 602.98C488.427 600.9 488.81 598.697 488.79 596.48C488.82 593.323 488.243 590.189 487.09 587.25C485.895 584.359 484.35 581.625 482.49 579.11C480.504 576.447 478.328 573.93 475.98 571.58C473.53 569.12 470.98 566.65 468.43 564.16C465.88 561.67 463.28 559.09 460.83 556.47C458.355 553.83 456.12 550.975 454.15 547.94C452.165 544.885 450.556 541.601 449.36 538.16C448.107 534.44 447.488 530.535 447.53 526.61C447.473 522.812 448.172 519.041 449.585 515.515C450.999 511.989 453.099 508.78 455.764 506.073C458.429 503.366 461.605 501.216 465.108 499.748C468.611 498.28 472.372 497.522 476.17 497.52C478.623 497.506 481.071 497.73 483.48 498.19C485.512 498.589 487.517 499.12 489.48 499.78C491.3 500.41 492.81 501.02 494.11 501.61L497.81 503.34L497.21 520.08H494L493.8 519.49C493.305 518.063 492.669 516.69 491.9 515.39C489.957 511.998 486.963 509.33 483.37 507.79C481.135 506.859 478.73 506.406 476.31 506.46C474.117 506.422 471.938 506.819 469.9 507.63C468.142 508.341 466.567 509.438 465.29 510.84C464.018 512.295 463.062 513.997 462.48 515.84C461.8 517.922 461.462 520.1 461.48 522.29C461.483 526.108 462.52 529.854 464.48 533.13C466.708 536.878 469.311 540.389 472.25 543.61C475.4 547.09 478.84 550.61 482.45 554.06C486.083 557.535 489.521 561.207 492.75 565.06C495.857 568.748 498.541 572.773 500.75 577.06C502.916 581.325 504.03 586.047 504 590.83C503.992 594.556 503.398 598.258 502.24 601.8L502.2 601.71ZM656.7 617.52L656.79 618.27H680.79V616.48L680.23 616.26C679.227 615.881 678.276 615.377 677.4 614.76C676.34 614.01 675.352 613.163 674.45 612.23C673.292 611.048 672.2 609.803 671.18 608.5C670.03 607.04 668.78 605.28 667.45 603.3L640.79 563.69C643.461 562.328 645.959 560.649 648.23 558.69C650.715 556.529 652.874 554.019 654.64 551.24C656.461 548.332 657.852 545.176 658.77 541.87C659.775 538.229 660.269 534.467 660.24 530.69C660.319 525.934 659.406 521.214 657.56 516.83C655.871 512.878 653.326 509.35 650.11 506.5C646.82 503.631 642.987 501.452 638.84 500.09C634.323 498.605 629.595 497.865 624.84 497.9C620.393 497.843 615.948 498.11 611.54 498.7C608.878 499.143 606.188 499.4 603.49 499.47H599.75C598.54 499.47 597.5 499.37 596.53 499.27L592.32 498.84V500.41C592.63 501.52 592.91 502.94 593.19 504.62C593.47 506.3 593.71 508.4 593.88 510.89C594.05 513.38 594.2 516.2 594.35 519.89C594.47 523.33 594.55 527.29 594.55 532.05V585.44C594.55 590.23 594.47 594.22 594.35 597.62C594.2 601.25 594.06 604.16 593.88 606.55C593.7 608.94 593.47 611.14 593.19 612.77C592.91 614.4 592.62 615.85 592.32 616.97V618.38H612.66V616.97C612.35 615.82 612.05 614.4 611.78 612.77C611.51 611.14 611.28 608.99 611.1 606.55C610.91 603.95 610.76 600.94 610.63 597.55C610.5 594.16 610.44 590.17 610.44 585.4V568C611.61 568.18 612.8 568.33 613.96 568.41C616.677 568.604 619.403 568.604 622.12 568.41C623.12 568.34 624.12 568.26 625.19 568.17L652.37 608.66C653.454 610.264 654.435 611.934 655.31 613.66C655.969 614.903 656.45 616.233 656.74 617.61L656.7 617.52ZM628.31 558.74C623.687 560.361 618.754 560.902 613.89 560.32C612.721 560.205 611.559 560.025 610.41 559.78V506.78C611.751 506.351 613.122 506.017 614.51 505.78C617.279 505.359 620.079 505.171 622.88 505.22C625.935 505.151 628.965 505.781 631.74 507.06C634.202 508.248 636.34 510.016 637.97 512.21C639.746 514.667 641.03 517.445 641.75 520.39C642.647 523.966 643.081 527.643 643.04 531.33C643.118 535.695 642.507 540.045 641.23 544.22C640.186 547.563 638.463 550.654 636.17 553.3C634.044 555.743 631.362 557.64 628.35 558.83L628.31 558.74ZM750.79 487.24C752.65 487.2 754.43 487.15 756.13 487.09C757.82 487.02 759.36 486.93 760.72 486.85C762.08 486.77 763.12 486.72 763.8 486.65L764.64 486.57L767.43 508.08L766.1 507.62C762.053 506.223 757.934 505.044 753.76 504.09C749.76 503.23 745.07 502.42 739.69 501.68C733.916 500.937 728.101 500.563 722.28 500.56V550.63L738.28 557.42C738.613 557.757 738.799 558.211 738.799 558.685C738.799 559.159 738.613 559.613 738.28 559.95L722.28 566.75V600.5C722.28 606.5 722.36 611.88 722.5 616.44C722.64 620.82 722.81 624.78 723.02 628.18C723.22 631.38 723.48 634.18 723.8 636.39C724 637.83 724.21 639.07 724.43 640.19L725 643L704.54 622.52V622.14C704.62 620.36 704.69 618.51 704.73 616.5C704.84 611.89 704.91 606.5 704.91 600.5V566.7L689 560.27C688.832 560.105 688.698 559.908 688.606 559.691C688.515 559.474 688.468 559.241 688.468 559.005C688.468 558.769 688.515 558.536 688.606 558.319C688.698 558.102 688.832 557.905 689 557.74L704.89 551.06V500.66C699.072 500.664 693.26 501.038 687.49 501.78C682.11 502.52 677.36 503.32 673.4 504.19C669.261 505.136 665.178 506.311 661.17 507.71L659.83 508.18L662.63 486.67L663.46 486.75C664.14 486.82 665.16 486.89 666.52 486.95C667.88 487.01 669.44 487.12 671.13 487.19C672.82 487.26 674.6 487.3 676.46 487.34L686.21 487.56H741.08L750.79 487.24ZM560.64 619.24L551.88 619.09C550.72 619.09 549.88 619.04 549.37 619.04H515V617.63C515.28 616.58 515.57 615.21 515.88 613.44C516.19 611.67 516.41 609.64 516.6 607.2C516.81 604.58 516.97 601.57 517.07 598.2C517.17 594.83 517.21 590.71 517.21 586.05V565.05L505.32 560.17C504.985 559.834 504.796 559.379 504.796 558.905C504.796 558.431 504.985 557.976 505.32 557.64L517.19 552.64V532.64C517.19 527.99 517.19 523.9 517.05 520.49C516.91 517.08 516.79 514.16 516.58 511.49C516.39 509.01 516.14 506.89 515.86 505.2C515.58 503.51 515.27 502.09 514.98 501.02V499.59H515.85C522.31 499.59 528.737 499.563 535.13 499.51C541.523 499.457 547.38 499.39 552.7 499.31C557.98 499.23 562.57 499.11 566.31 498.95C568.834 498.899 571.353 498.685 573.85 498.31L575.34 498L570.78 511.12L570 511C568.068 510.462 566.109 510.028 564.13 509.7C562.21 509.38 559.89 509.07 556.99 508.77C553.787 508.452 550.569 508.302 547.35 508.32C546.12 508.32 544.64 508.32 542.91 508.43C541.18 508.54 539.54 508.6 537.91 508.72L533.05 508.99V548.29L554.66 557.45C554.827 557.616 554.96 557.813 555.051 558.03C555.141 558.247 555.188 558.48 555.188 558.715C555.188 558.95 555.141 559.183 555.051 559.4C554.96 559.617 554.827 559.814 554.66 559.98L533.06 569.19V610.08C538.367 610.08 543.67 609.813 548.95 609.28C554.03 608.73 558.52 608.1 562.3 607.4C566.376 606.718 570.415 605.827 574.4 604.73L575.73 604.35L573.12 619.76L572.32 619.7C571.71 619.65 570.79 619.59 569.56 619.53L565.42 619.38C564 619.37 562.36 619.32 560.68 619.29L560.64 619.24ZM281.44 406.18V431.5C281.44 437.16 281.38 442.1 281.26 446.2C281.14 450.3 280.95 454.03 280.69 457.03C280.523 458.657 280.188 460.262 279.69 461.82C279.414 462.687 279.187 463.568 279.01 464.46C278.6 465.552 277.91 466.518 277.01 467.26C276.247 467.922 275.645 468.75 275.25 469.68V471.17H285.8C287.69 471.17 289.89 471.25 292.34 471.41C294.79 471.57 297.41 471.75 300.03 471.96L307.73 472.5C310.36 472.67 312.53 472.75 314.38 472.75C331.92 472.75 345.3 469.16 354.16 462.1C363.02 455.04 367.6 444.19 367.6 430.03C367.657 425.271 366.752 420.55 364.94 416.15C363.193 412.023 360.62 408.296 357.38 405.2C353.975 401.985 350.053 399.366 345.78 397.45C342.094 395.776 338.234 394.515 334.27 393.69C336.702 392.797 339.046 391.679 341.27 390.35C347.607 386.647 352.336 380.714 354.53 373.71C355.806 369.665 356.427 365.441 356.37 361.2C356.455 356.069 355.41 350.982 353.31 346.3C351.35 342.054 348.47 338.297 344.88 335.3C341.132 332.22 336.827 329.888 332.2 328.43C327.048 326.798 321.674 325.978 316.27 326C311.261 325.945 306.253 326.176 301.27 326.69C298.252 327.092 295.214 327.322 292.17 327.38H287.59C286.13 327.38 284.81 327.38 283.59 327.28C282.18 327.28 277.42 327.28 276.21 327.18H275.3V328.72C275.685 329.642 276.249 330.478 276.96 331.18C277.819 332.02 278.473 333.046 278.87 334.18C279.054 335.095 279.308 335.994 279.63 336.87C280.182 338.339 280.548 339.87 280.72 341.43C280.98 344.43 281.15 348.12 281.29 352.31C281.43 356.5 281.47 361.31 281.47 367V390.4L264.71 397.4C264.543 397.566 264.41 397.763 264.319 397.98C264.229 398.197 264.182 398.43 264.182 398.665C264.182 398.9 264.229 399.133 264.319 399.35C264.41 399.567 264.543 399.764 264.71 399.93L281.44 406.18ZM300.35 336.18C301.331 335.86 302.334 335.609 303.35 335.43C304.59 335.16 306.11 334.95 307.86 334.75C309.913 334.544 311.976 334.448 314.04 334.46C317.32 334.398 320.574 335.046 323.58 336.36C326.306 337.602 328.703 339.465 330.58 341.8C332.584 344.382 334.055 347.336 334.91 350.49C335.916 354.242 336.394 358.116 336.33 362C336.42 366.501 335.744 370.985 334.33 375.26C333.143 378.742 331.231 381.932 328.72 384.62C326.288 387.117 323.32 389.029 320.04 390.21C316.381 391.492 312.527 392.124 308.65 392.08H304.23C303.08 392.08 301.78 391.97 300.36 391.82L300.35 336.18ZM300.35 402.18C301.84 401.91 303.83 401.61 306.27 401.33C309.815 400.973 313.377 400.81 316.94 400.84C321.438 400.751 325.915 401.483 330.15 403C333.677 404.289 336.862 406.369 339.46 409.08C341.957 411.772 343.855 414.962 345.03 418.44C346.317 422.329 346.952 426.404 346.91 430.5C346.91 441.66 344.25 450.01 339 455.33C333.75 460.65 325.28 463.33 313.83 463.33C311.935 463.3 310.042 463.173 308.16 462.95C306 462.7 303.83 462.44 301.68 462.14C301.28 459.04 300.97 455.14 300.68 450.57C300.43 445.57 300.3 439.18 300.3 431.46L300.35 402.18ZM436.35 444.41L437.68 444.04L435 459.45L434.21 459.39C433.59 459.39 432.67 459.28 431.45 459.23L427.31 459.08C425.78 459.02 424.18 458.97 422.5 458.94L413.74 458.79C412.59 458.79 411.74 458.74 411.23 458.74H376.89V457.33C377.19 456.21 377.48 454.79 377.76 453.14C378.04 451.49 378.28 449.39 378.5 446.91C378.72 444.43 378.85 441.42 378.96 437.91C379.07 434.4 379.11 430.33 379.11 425.76V372.36C379.11 367.81 379.05 363.71 378.96 360.21C378.87 356.71 378.69 353.73 378.5 351.21C378.31 348.69 378.04 346.58 377.76 344.92C377.48 343.26 377.19 341.85 376.89 340.73V339.31H397.24V340.73C396.93 341.87 396.63 343.26 396.36 344.92C396.09 346.58 395.86 348.7 395.68 351.19C395.5 353.68 395.34 356.65 395.21 360.19C395.08 363.73 395.02 367.77 395.02 372.34V449.72C400.323 449.719 405.623 449.452 410.9 448.92C415.96 448.37 420.45 447.74 424.25 447.04C428.309 446.368 432.33 445.49 436.3 444.41H436.35ZM457 457.29L456.89 457.09C456.778 456.878 456.703 456.648 456.67 456.41C456.584 455.895 456.543 455.373 456.55 454.85C456.555 452.461 456.981 450.091 457.81 447.85C458.69 445.44 459.52 443.24 460.28 441.22L469 420.08C471.88 419.98 475.13 419.94 478.68 419.94H506.09C510.58 419.94 514.27 419.94 517.09 420.08L526.26 441.88C527.289 444.314 528.115 446.83 528.73 449.4C529.127 451.19 529.338 453.016 529.36 454.85C529.36 455.25 529.36 455.71 529.3 456.23C529.276 456.57 529.212 456.905 529.11 457.23V458.71H552.11V457.23L551.92 456.98C551.77 456.78 551.38 456.22 550.5 454.78C549.787 453.6 548.967 452.133 548.04 450.38C547.12 448.65 546.14 446.67 545.04 444.47C543.94 442.27 542.97 440.01 542.04 437.67L499.64 336.92H492.28L447.6 441.71C445.96 445.71 444.42 449 443.07 451.59C442.142 453.501 441.009 455.305 439.69 456.97L439.48 457.2V458.73H457V457.29ZM492.7 361.87L513.19 410.87C511.25 410.87 509.19 410.93 506.87 410.96L488.87 411.13H472.55L492.7 361.87ZM567.17 444.22C572.969 449.762 579.845 454.053 587.37 456.83C595.64 459.876 604.397 461.387 613.21 461.29C617.884 461.29 622.547 460.855 627.14 459.99C631.477 459.215 635.719 457.975 639.79 456.29L640.13 456.14L646.52 438.43L644.52 437.01L644.02 437.63C642.184 439.913 640.09 441.977 637.78 443.78C635.511 445.568 633.057 447.106 630.46 448.37C627.889 449.624 625.181 450.574 622.39 451.2C620.771 451.576 619.127 451.833 617.47 451.97V347.23C620.778 347.754 624.011 348.674 627.1 349.97C632.289 352.132 637.01 355.28 641 359.24L641.43 359.67L643.35 358.74L637.84 342.47L637.46 342.31C628.738 339.003 619.477 337.348 610.15 337.43C604.195 337.381 598.263 338.176 592.53 339.79C587.275 341.294 582.254 343.519 577.61 346.4C573.16 349.178 569.103 352.541 565.55 356.4C562.05 360.229 559.065 364.498 556.67 369.1C554.271 373.708 552.441 378.59 551.22 383.64C549.965 388.728 549.33 393.949 549.33 399.19C549.206 407.887 550.793 416.524 554 424.61C556.982 431.995 561.474 438.674 567.19 444.22H567.17ZM603.58 346.88C605.475 346.655 607.382 346.538 609.29 346.53H610.38V452C608.099 451.88 605.829 451.592 603.59 451.14L603.58 346.88ZM570.21 373.67C572.063 368.198 575.013 363.162 578.88 358.87C582.591 354.872 587.135 351.739 592.19 349.69C593.602 349.124 595.044 348.637 596.51 348.23V449C595.489 448.621 594.488 448.19 593.51 447.71C587.766 444.804 582.769 440.612 578.91 435.46C574.835 429.885 571.84 423.597 570.08 416.92C568.033 409.365 567.024 401.567 567.08 393.74C566.987 386.923 568.052 380.14 570.23 373.68L570.21 373.67ZM659.82 425.46V372.06C659.82 367.46 659.77 363.39 659.68 359.91C659.59 356.43 659.42 353.46 659.21 350.91C659 348.36 658.75 346.28 658.48 344.62C658.21 342.96 657.91 341.62 657.61 340.45V339.03H677.96V340.45C677.66 341.59 677.35 343 677.09 344.62C676.83 346.24 676.57 348.39 676.4 350.9C676.23 353.41 676.05 356.47 675.94 359.9C675.83 363.33 675.74 367.48 675.74 372.05V388.45L719.61 350.56C724.45 346.38 726.9 342.8 726.9 339.89V339.03H750.45V340.89L749.79 341.06C746.563 341.939 743.516 343.381 740.79 345.32C737.347 347.746 734.048 350.37 730.91 353.18L691.52 388.05L739.13 443.34C741.13 445.49 742.84 447.34 744.26 448.75C745.68 450.16 746.9 451.36 747.99 452.33C748.913 453.153 749.882 453.924 750.89 454.64C751.78 455.25 752.7 455.86 753.68 456.45L754.09 456.71V458.4H729.84L729.63 457.87C729.345 457.257 729.01 456.669 728.63 456.11C728.123 455.311 727.568 454.543 726.97 453.81C726.337 452.983 725.67 452.14 724.97 451.28C724.21 450.39 723.49 449.59 722.84 448.82L675.71 394.15V425.44C675.71 430.02 675.78 434.11 675.91 437.59C676.04 441.07 676.19 444.02 676.37 446.54C676.55 449.06 676.78 451.12 677.06 452.79C677.34 454.46 677.63 455.79 677.93 456.97V458.38H657.58V456.96C657.87 455.84 658.18 454.43 658.45 452.78C658.72 451.13 658.97 449 659.18 446.52C659.39 444.04 659.54 441.03 659.65 437.58C659.76 434.13 659.83 430.07 659.83 425.47L659.82 425.46Z" fill="white"/>
</g>
<defs>
<clipPath id="clip0_3_494">
<rect width="1024" height="1024" fill="white"/>
</clipPath>
</defs>
</svg>
