<svg width="1024" height="1024" viewBox="0 0 1024 1024" fill="none" xmlns="http://www.w3.org/2000/svg">
<g clip-path="url(#clip0_3_497)">
<path d="M512 1024C794.77 1024 1024 794.77 1024 512C1024 229.23 794.77 0 512 0C229.23 0 0 229.23 0 512C0 794.77 229.23 1024 512 1024Z" fill="#56595B"/>
<path d="M425.79 660C423.83 658.038 421.493 656.494 418.92 655.46C416.174 654.361 413.238 653.81 410.28 653.84C408.298 653.83 406.327 654.116 404.43 654.69C402.674 655.236 401.007 656.035 399.48 657.06C397.987 658.066 396.641 659.274 395.48 660.65C394.329 662.034 393.348 663.551 392.56 665.17C391.769 666.824 391.165 668.562 390.76 670.35C390.352 672.165 390.147 674.02 390.15 675.88C390.113 678.956 390.662 682.01 391.77 684.88C392.791 687.493 394.329 689.874 396.29 691.88C398.251 693.837 400.593 695.372 403.17 696.39C405.919 697.466 408.849 698.002 411.8 697.97C413.775 697.98 415.74 697.694 417.63 697.12C419.382 696.576 421.046 695.781 422.57 694.76C424.061 693.756 425.407 692.551 426.57 691.18C427.723 689.812 428.703 688.307 429.49 686.7C430.298 685.062 430.906 683.333 431.3 681.55C431.707 679.738 431.911 677.887 431.91 676.03C431.946 672.954 431.396 669.9 430.29 667.03C429.266 664.418 427.729 662.038 425.77 660.03M424.77 677.78C424.792 680.124 424.455 682.458 423.77 684.7C423.199 686.558 422.283 688.291 421.07 689.81C419.968 691.145 418.581 692.214 417.01 692.94C415.366 693.678 413.582 694.05 411.78 694.03C409.586 694.081 407.416 693.564 405.48 692.53C403.662 691.518 402.109 690.088 400.95 688.36C399.665 686.412 398.734 684.252 398.2 681.98C397.564 679.361 397.252 676.675 397.27 673.98C397.242 671.635 397.579 669.301 398.27 667.06C398.84 665.237 399.753 663.54 400.96 662.06C402.065 660.723 403.46 659.656 405.04 658.94C406.685 658.22 408.464 657.859 410.26 657.88C412.448 657.824 414.613 658.33 416.55 659.35C418.356 660.354 419.901 661.769 421.06 663.48C422.341 665.413 423.275 667.556 423.82 669.81C424.484 672.425 424.819 675.112 424.82 677.81M476.13 654.59H481.66V655.59C481.543 656.055 481.45 656.526 481.38 657C481.29 657.59 481.21 658.31 481.14 659.19C481.07 660.07 481.01 661.11 480.98 662.31C480.95 663.51 480.92 664.93 480.92 666.55V697.74H478.98L478.77 697.51L451.97 667.4V689.49C451.97 690.74 452.07 691.73 452.14 692.6C452.21 693.47 452.29 694.18 452.37 694.76C452.439 695.235 452.536 695.706 452.66 696.17V697L451.98 697.11H446.46V696.11C446.56 695.72 446.67 695.25 446.76 694.68C446.85 694.11 446.95 693.4 447.02 692.53C447.09 691.66 447.14 690.62 447.18 689.42C447.22 688.22 447.24 686.79 447.24 685.17V666.47C447.24 664.86 447.24 663.47 447.18 662.23C447.12 660.99 447.09 659.98 447.02 659.11C446.95 658.24 446.86 657.51 446.76 656.94C446.684 656.459 446.584 655.981 446.46 655.51V654.65L447.14 654.54H449.19L476.19 684.9V666.48C476.19 664.87 476.19 663.48 476.12 662.24C476.05 661 476.03 659.99 475.97 659.12C475.91 658.25 475.8 657.52 475.71 656.95C475.631 656.468 475.528 655.991 475.4 655.52V654.66L476.13 654.59ZM514.75 692.3C516.169 692.067 517.575 691.757 518.96 691.37L519.96 691.08L518.88 697.41L518.26 697.35C518.04 697.35 517.73 697.35 517.32 697.29L515.87 697.23H514.2L511.13 697.17H497.84V696.17C497.95 695.78 498.05 695.31 498.14 694.74C498.23 694.17 498.31 693.45 498.39 692.59C498.47 691.73 498.51 690.68 498.55 689.48C498.59 688.28 498.61 686.85 498.61 685.23V666.53C498.61 664.92 498.61 663.53 498.55 662.3C498.49 661.07 498.46 660.05 498.39 659.18C498.32 658.31 498.23 657.58 498.14 657.01C498.05 656.44 497.94 656.01 497.84 655.58V654.72L498.52 654.61H505.72V655.61C505.62 656 505.52 656.47 505.43 657.04C505.31 657.755 505.227 658.476 505.18 659.2C505.12 660.09 505.07 661.13 505.03 662.33C504.99 663.53 504.96 664.95 504.96 666.56V693.2C506.81 693.2 508.53 693.08 510.1 692.92C511.87 692.73 513.42 692.51 514.75 692.26M540.86 662.26C540.86 663.48 540.79 664.88 540.79 666.5V685.2C540.79 686.82 540.79 688.2 540.86 689.45C540.93 690.7 540.97 691.69 541.02 692.57C541.07 693.45 541.18 694.13 541.27 694.71C541.339 695.192 541.436 695.669 541.56 696.14V697L540.88 697.11H533.7V696.11C533.822 695.646 533.918 695.175 533.99 694.7C534.08 694.12 534.15 693.4 534.23 692.54C534.31 691.68 534.36 690.63 534.39 689.43C534.42 688.23 534.45 686.8 534.45 685.18V666.48C534.45 664.87 534.45 663.48 534.39 662.24C534.33 661 534.29 659.99 534.23 659.12C534.17 658.25 534.08 657.52 533.99 656.93C533.918 656.455 533.821 655.985 533.7 655.52V654.66L534.38 654.54H541.56V655.54C541.436 656.007 541.339 656.481 541.27 656.96C541.17 657.53 541.09 658.26 541.02 659.12C540.95 659.98 540.91 661.05 540.86 662.25M587.66 654.56H593.18V655.56C593.08 655.94 592.98 656.42 592.9 656.97C592.82 657.52 592.73 658.28 592.66 659.16C592.59 660.04 592.54 661.08 592.49 662.28C592.44 663.48 592.49 664.9 592.49 666.52V697.71H590.55L590.35 697.48L563.55 667.37V689.46C563.55 690.71 563.65 691.7 563.72 692.57C563.79 693.44 563.87 694.15 563.96 694.73C564.027 695.206 564.124 695.677 564.25 696.14V697L563.57 697.11H558V696.11C558.126 695.639 558.226 695.162 558.3 694.68C558.4 694.11 558.48 693.4 558.55 692.53C558.62 691.66 558.67 690.62 558.72 689.42C558.77 688.22 558.77 686.79 558.77 685.17V666.47C558.77 664.86 558.77 663.47 558.72 662.23C558.67 660.99 558.62 659.99 558.55 659.12C558.48 658.25 558.39 657.52 558.3 656.95C558.227 656.468 558.127 655.991 558 655.52V654.66L558.67 654.55H560.73L560.93 654.78L587.73 684.91V666.48C587.73 664.87 587.73 663.48 587.67 662.24C587.61 661 587.58 659.99 587.5 659.12C587.42 658.25 587.35 657.52 587.25 656.95C587.176 656.468 587.076 655.991 586.95 655.52V654.66L587.66 654.56ZM626.27 692.27C627.692 692.036 629.101 691.726 630.49 691.34L631.49 691.05L630.42 697.38L629.8 697.32C629.59 697.32 629.28 697.32 628.85 697.26L627.41 697.2H625.73L622.65 697.14H609.36V696.14C609.46 695.75 609.56 695.28 609.66 694.71C609.76 694.14 609.85 693.43 609.92 692.56C609.99 691.69 610.04 690.65 610.08 689.45C610.12 688.25 610.13 686.82 610.13 685.2V666.5C610.13 664.893 610.113 663.483 610.08 662.27C610.08 661.06 610 660.02 609.92 659.15C609.871 658.423 609.784 657.698 609.66 656.98C609.57 656.41 609.47 655.98 609.37 655.55V654.69L610.05 654.58H616.79C619.02 654.58 621.08 654.58 622.94 654.5C624.8 654.42 626.38 654.43 627.71 654.38C628.574 654.37 629.437 654.297 630.29 654.16L631.46 653.93L629.52 659.48L628.91 659.31C628.253 659.115 627.586 658.962 626.91 658.85C626.23 658.74 625.41 658.63 624.43 658.54C623.324 658.421 622.212 658.364 621.1 658.37C620.67 658.37 620.17 658.37 619.57 658.42L617.83 658.52L616.49 658.61V672.95C618.1 672.95 619.49 672.87 620.82 672.79C622.31 672.68 623.58 672.59 624.63 672.49C625.85 672.38 626.93 672.24 627.84 672.09L628.84 671.93L627.68 677.69L627.04 677.6C625.79 677.42 624.52 677.27 623.21 677.11C622.1 676.97 620.89 676.86 619.57 676.74C618.51 676.67 617.49 676.6 616.5 676.6V693.2C618.35 693.2 620.08 693.08 621.64 692.92C623.4 692.73 624.97 692.51 626.28 692.26M229 678.27H371.44V681H229V678.27ZM652.56 678.27H795V681H652.56V678.27ZM342.71 605.89C346.81 602.434 350.316 598.329 353.09 593.74C356.127 588.666 358.395 583.169 359.82 577.43C361.486 570.652 362.289 563.69 362.21 556.71C362.21 546.04 360.7 536.92 357.65 529.56C355.098 522.847 351 516.831 345.689 511.997C340.378 507.164 334.003 503.65 327.08 501.74C320.041 499.723 312.752 498.713 305.43 498.74C302.63 498.74 299.61 498.8 296.43 498.89L288.77 499.17L287.24 499.23C284.24 499.34 281.66 499.44 279.35 499.56C277.04 499.68 275.43 499.73 274.47 499.73H272.26C271.32 499.73 270.43 499.65 269.56 499.6C268.56 499.54 267.4 499.49 266.21 499.44H265.31V500.9C265.61 502.027 265.9 503.443 266.18 505.15C266.46 506.87 266.71 509.02 266.91 511.53C267.11 514.04 267.27 517.1 267.37 520.58C267.47 524.06 267.53 528.21 267.53 532.82V586.22C267.53 590.84 267.47 594.94 267.37 598.37C267.27 601.8 267.11 604.82 266.91 607.37C266.71 609.92 266.46 611.95 266.18 613.61C265.9 615.27 265.61 616.67 265.31 617.8V619.21H266.18C267.59 619.21 269.62 619.29 272.18 619.41L280.52 619.87L289.33 620.32C292.33 620.45 294.83 620.52 296.86 620.52C302.56 620.527 308.249 620.028 313.86 619.03C319.201 618.077 324.409 616.486 329.37 614.29C334.167 612.153 338.646 609.363 342.68 606M297.68 611.57C296.8 611.57 295.68 611.57 294.45 611.49C293.22 611.41 291.86 611.36 290.51 611.28C289.16 611.2 287.92 611.09 286.71 610.96L284.54 610.7C284.35 607.46 284.18 603.49 284.04 598.87C283.9 593.87 283.77 588.59 283.7 583.12C283.63 577.65 283.56 572.33 283.5 567.12C283.44 561.91 283.43 557.5 283.43 553.84V547.84L283.58 533.11C283.58 530.55 283.65 528.03 283.69 525.57L284 508.57L287 508.34C288.5 508.2 290.13 508.1 291.84 508.01L297.08 507.77C298.82 507.7 300.39 507.66 301.78 507.66C308.099 507.511 314.383 508.647 320.25 511C325.465 513.191 330.065 516.624 333.65 521C337.473 525.787 340.28 531.302 341.9 537.21C343.89 544.412 344.846 551.859 344.74 559.33C344.836 565.866 344.165 572.391 342.74 578.77C341.636 583.682 339.803 588.401 337.3 592.77C335.219 596.358 332.509 599.542 329.3 602.17C326.336 604.553 323.037 606.487 319.51 607.91C316.04 609.3 312.413 610.26 308.71 610.77C305.065 611.275 301.39 611.532 297.71 611.54M422.61 607.54C426.689 606.857 430.731 605.966 434.72 604.87L436.04 604.49L433.42 619.9L432.63 619.84C432.02 619.79 431.1 619.73 429.87 619.67L425.73 619.52C424.22 619.46 422.62 619.41 420.94 619.38L412.16 619.23C411.02 619.23 410.16 619.18 409.66 619.18H375.25V617.77C375.54 616.67 375.84 615.25 376.12 613.58C376.4 611.91 376.64 609.8 376.85 607.34C377.06 604.88 377.19 601.83 377.29 598.34C377.39 594.85 377.46 590.85 377.46 586.19V564.65L366.78 560.27C366.613 560.105 366.48 559.907 366.389 559.69C366.299 559.473 366.252 559.24 366.252 559.005C366.252 558.77 366.299 558.537 366.389 558.32C366.48 558.103 366.613 557.906 366.78 557.74L377.43 553.26V532.76C377.43 528.11 377.38 524.02 377.26 520.61C377.14 517.2 377.02 514.17 376.82 511.61C376.62 509.05 376.36 507 376.09 505.32C375.82 503.64 375.51 502.24 375.22 501.14V499.71H376.09C382.55 499.71 388.973 499.683 395.36 499.63C401.73 499.58 407.6 499.52 412.91 499.43C418.22 499.34 422.78 499.23 426.54 499.07C429.064 499.018 431.583 498.804 434.08 498.43L435.57 498.12L431 511.26L430.21 511.04C428.275 510.499 426.312 510.065 424.33 509.74C422.43 509.42 420.09 509.11 417.21 508.81C414.003 508.495 410.782 508.345 407.56 508.36C406.35 508.36 404.86 508.36 403.14 508.47C401.42 508.58 399.76 508.64 398.14 508.76L393.28 509.03V547.81L416.1 557.49C416.433 557.827 416.619 558.281 416.619 558.755C416.619 559.229 416.433 559.683 416.1 560.02L393.28 569.75V610.11C398.577 610.109 403.87 609.842 409.14 609.31C414.23 608.76 418.72 608.13 422.5 607.43M484.34 608.12C485.765 606.673 486.875 604.947 487.6 603.05C488.367 600.97 488.75 598.767 488.73 596.55C488.76 593.393 488.183 590.259 487.03 587.32C485.835 584.429 484.29 581.695 482.43 579.18C480.444 576.517 478.268 574 475.92 571.65C473.47 569.19 470.92 566.72 468.37 564.23C465.82 561.74 463.22 559.16 460.77 556.54C458.295 553.9 456.06 551.045 454.09 548.01C452.105 544.955 450.496 541.671 449.3 538.23C448.047 534.51 447.428 530.605 447.47 526.68C447.413 522.882 448.112 519.111 449.525 515.585C450.939 512.059 453.039 508.85 455.704 506.143C458.369 503.436 461.545 501.286 465.048 499.818C468.551 498.35 472.312 497.592 476.11 497.59C478.563 497.576 481.011 497.8 483.42 498.26C485.452 498.659 487.457 499.19 489.42 499.85C491.24 500.48 492.75 501.09 494.05 501.68L497.75 503.41L497.15 520.15H494L493.8 519.56C493.305 518.133 492.669 516.76 491.9 515.46C489.957 512.068 486.963 509.4 483.37 507.86C481.135 506.929 478.73 506.476 476.31 506.53C474.117 506.491 471.938 506.889 469.9 507.7C468.142 508.411 466.567 509.508 465.29 510.91C464.018 512.365 463.062 514.067 462.48 515.91C461.8 517.992 461.462 520.17 461.48 522.36C461.483 526.178 462.52 529.924 464.48 533.2C466.708 536.948 469.311 540.459 472.25 543.68C475.4 547.16 478.84 550.68 482.45 554.13C486.083 557.605 489.521 561.277 492.75 565.13C495.857 568.818 498.541 572.843 500.75 577.13C502.905 581.374 504.019 586.07 504 590.83C503.986 594.568 503.382 598.28 502.21 601.83C501.03 605.475 499.144 608.853 496.66 611.77C493.981 614.821 490.676 617.26 486.97 618.92C482.558 620.842 477.781 621.784 472.97 621.68C470.08 621.689 467.197 621.391 464.37 620.79C461.822 620.25 459.315 619.529 456.87 618.63C454.756 617.836 452.698 616.9 450.71 615.83C449.171 614.985 447.679 614.057 446.24 613.05L445.84 612.77L447.76 593.36H451.17L451.32 594.04C451.873 596.529 452.786 598.924 454.03 601.15C455.254 603.354 456.809 605.357 458.64 607.09C460.464 608.809 462.576 610.194 464.88 611.18C467.293 612.226 469.9 612.751 472.53 612.72C474.843 612.752 477.141 612.342 479.3 611.51C481.211 610.753 482.949 609.616 484.41 608.17M594.41 597.63C594.26 601.26 594.12 604.17 593.94 606.56C593.76 608.95 593.53 611.15 593.25 612.78C592.97 614.41 592.68 615.86 592.38 616.98V618.39H612.72V616.98C612.41 615.83 612.11 614.41 611.84 612.78C611.57 611.15 611.34 609 611.16 606.56C610.97 603.96 610.82 600.95 610.69 597.56C610.56 594.17 610.5 590.18 610.5 585.41V568C611.67 568.18 612.86 568.33 614.02 568.41C616.737 568.604 619.463 568.604 622.18 568.41C623.18 568.34 624.18 568.26 625.25 568.17L652.43 608.66C653.514 610.264 654.495 611.934 655.37 613.66C656.026 614.881 656.511 616.187 656.81 617.54L656.9 618.29H680.9V616.5L680.34 616.28C679.337 615.901 678.386 615.397 677.51 614.78C676.45 614.03 675.462 613.183 674.56 612.25C673.402 611.068 672.31 609.823 671.29 608.52C670.14 607.06 668.89 605.3 667.56 603.32L640.9 563.71C643.572 562.348 646.069 560.669 648.34 558.71C650.825 556.549 652.984 554.039 654.75 551.26C656.571 548.352 657.962 545.196 658.88 541.89C659.884 538.249 660.379 534.487 660.35 530.71C660.429 525.954 659.516 521.234 657.67 516.85C655.981 512.898 653.436 509.37 650.22 506.52C646.93 503.651 643.097 501.472 638.95 500.11C634.433 498.625 629.705 497.885 624.95 497.92C620.503 497.863 616.058 498.13 611.65 498.72C608.988 499.163 606.298 499.42 603.6 499.49H599.86C598.65 499.49 597.61 499.39 596.64 499.29L592.43 498.86V500.43C592.74 501.54 593.02 502.96 593.3 504.64C593.58 506.32 593.82 508.42 593.99 510.91C594.16 513.4 594.31 516.22 594.46 519.91C594.58 523.35 594.66 527.31 594.66 532.07V585.46C594.66 590.25 594.58 594.24 594.46 597.64M622.97 505.37C626.025 505.301 629.055 505.931 631.83 507.21C634.292 508.398 636.43 510.165 638.06 512.36C639.837 514.817 641.12 517.595 641.84 520.54C642.737 524.116 643.171 527.793 643.13 531.48C643.208 535.845 642.597 540.195 641.32 544.37C640.276 547.713 638.553 550.804 636.26 553.45C634.114 555.848 631.426 557.7 628.42 558.85C623.797 560.471 618.864 561.012 614 560.43C612.831 560.315 611.669 560.135 610.52 559.89V506.89C611.862 506.461 613.232 506.127 614.62 505.89C617.389 505.469 620.189 505.281 622.99 505.33M767.55 508.17L766.22 507.71C762.173 506.313 758.054 505.134 753.88 504.18C749.88 503.32 745.19 502.51 739.81 501.77C734.036 501.027 728.221 500.653 722.4 500.65V550.72L738.4 557.51C738.733 557.847 738.919 558.301 738.919 558.775C738.919 559.249 738.733 559.703 738.4 560.04L722.4 566.84V600.59C722.4 606.59 722.48 611.97 722.62 616.53C722.76 620.91 722.93 624.87 723.14 628.27C723.34 631.47 723.6 634.27 723.92 636.48C724.12 637.92 724.33 639.16 724.55 640.28L725 643L704.54 622.52V622.14C704.62 620.36 704.69 618.51 704.73 616.5C704.84 611.89 704.91 606.5 704.91 600.5V566.7L689 560.27C688.832 560.105 688.698 559.908 688.606 559.691C688.515 559.474 688.468 559.241 688.468 559.005C688.468 558.769 688.515 558.536 688.606 558.319C688.698 558.102 688.832 557.905 689 557.74L704.89 551.06V500.66C699.072 500.664 693.26 501.038 687.49 501.78C682.11 502.52 677.36 503.32 673.4 504.19C669.261 505.136 665.178 506.311 661.17 507.71L659.83 508.18L662.63 486.67L663.46 486.75C664.14 486.82 665.16 486.89 666.52 486.95C667.88 487.01 669.44 487.12 671.13 487.19C672.82 487.26 674.6 487.3 676.46 487.34L686.21 487.56H741.08L750.84 487.34C752.7 487.3 754.48 487.25 756.18 487.19C757.87 487.12 759.41 487.03 760.77 486.95C762.13 486.87 763.17 486.82 763.85 486.75L764.69 486.67L767.55 508.17ZM505.46 560.27C505.125 559.934 504.936 559.479 504.936 559.005C504.936 558.531 505.125 558.076 505.46 557.74L517.33 552.74V532.74C517.33 528.09 517.33 524 517.19 520.59C517.05 517.18 516.93 514.26 516.72 511.59C516.53 509.11 516.28 506.99 516 505.3C515.72 503.61 515.41 502.19 515.12 501.12V499.69H515.99C522.45 499.69 528.877 499.663 535.27 499.61C541.663 499.557 547.52 499.49 552.84 499.41C558.12 499.33 562.71 499.21 566.45 499.05C568.974 498.999 571.493 498.785 573.99 498.41L575.48 498.1L570.92 511.22L570 511C568.068 510.462 566.109 510.028 564.13 509.7C562.21 509.38 559.89 509.07 556.99 508.77C553.787 508.452 550.569 508.302 547.35 508.32C546.12 508.32 544.64 508.32 542.91 508.43C541.18 508.54 539.54 508.6 537.91 508.72L533.05 508.99V548.29L554.66 557.45C554.827 557.616 554.96 557.813 555.051 558.03C555.141 558.247 555.188 558.48 555.188 558.715C555.188 558.95 555.141 559.183 555.051 559.4C554.96 559.617 554.827 559.814 554.66 559.98L533.06 569.19V610.08C538.367 610.08 543.67 609.813 548.95 609.28C554.03 608.73 558.52 608.1 562.3 607.4C566.376 606.718 570.415 605.827 574.4 604.73L575.73 604.35L573.12 619.76L572.32 619.7C571.71 619.65 570.79 619.59 569.56 619.53L565.42 619.38C563.89 619.32 562.3 619.27 560.63 619.24L551.87 619.09C550.71 619.09 549.87 619.04 549.36 619.04H515V617.63C515.28 616.58 515.57 615.21 515.88 613.44C516.19 611.67 516.41 609.64 516.6 607.2C516.81 604.58 516.97 601.57 517.07 598.2C517.17 594.83 517.21 590.71 517.21 586.05V565.05L505.46 560.27ZM281.26 446.2C281.13 450.38 280.95 454.03 280.69 457.02C280.523 458.647 280.188 460.252 279.69 461.81C279.414 462.677 279.187 463.558 279.01 464.45C278.6 465.542 277.91 466.508 277.01 467.25C276.247 467.912 275.645 468.74 275.25 469.67V471.16H285.8C287.69 471.16 289.89 471.24 292.34 471.4C294.79 471.56 297.41 471.74 300.03 471.95L307.73 472.49C310.36 472.66 312.53 472.74 314.38 472.74C331.92 472.74 345.3 469.15 354.16 462.09C363.02 455.03 367.6 444.18 367.6 430.02C367.657 425.261 366.752 420.54 364.94 416.14C363.193 412.013 360.62 408.286 357.38 405.19C353.974 401.976 350.053 399.356 345.78 397.44C342.094 395.766 338.234 394.505 334.27 393.68C336.702 392.787 339.046 391.669 341.27 390.34C347.607 386.637 352.336 380.704 354.53 373.7C355.806 369.655 356.427 365.431 356.37 361.19C356.455 356.059 355.41 350.972 353.31 346.29C351.35 342.044 348.47 338.287 344.88 335.29C341.132 332.21 336.827 329.878 332.2 328.42C327.048 326.792 321.673 325.975 316.27 326C311.261 325.945 306.253 326.176 301.27 326.69C298.252 327.092 295.214 327.322 292.17 327.38H287.59C286.13 327.38 284.81 327.38 283.59 327.28C282.18 327.28 277.42 327.28 276.21 327.18H275.3V328.72C275.685 329.642 276.249 330.478 276.96 331.18C277.819 332.02 278.473 333.046 278.87 334.18C279.054 335.095 279.308 335.994 279.63 336.87C280.182 338.339 280.548 339.87 280.72 341.43C280.98 344.43 281.15 348.12 281.29 352.31C281.43 356.5 281.47 361.31 281.47 367V390.4L264.71 397.4C264.543 397.566 264.41 397.763 264.319 397.98C264.229 398.197 264.182 398.43 264.182 398.665C264.182 398.9 264.229 399.133 264.319 399.35C264.41 399.567 264.543 399.764 264.71 399.93L281.49 406.24V431.5C281.49 437.16 281.43 442.1 281.31 446.2M307.88 334.78C309.933 334.574 311.996 334.477 314.06 334.49C317.34 334.428 320.594 335.076 323.6 336.39C326.326 337.632 328.723 339.495 330.6 341.83C332.604 344.412 334.075 347.366 334.93 350.52C335.927 354.263 336.398 358.127 336.33 362C336.42 366.501 335.744 370.985 334.33 375.26C333.143 378.742 331.231 381.932 328.72 384.62C326.288 387.117 323.32 389.029 320.04 390.21C316.381 391.492 312.527 392.124 308.65 392.08H304.23C303.08 392.08 301.78 391.97 300.36 391.82V336.21C301.341 335.89 302.344 335.639 303.36 335.46C304.6 335.19 306.12 334.98 307.87 334.78M316.97 400.83C321.459 400.748 325.925 401.483 330.15 403C333.677 404.289 336.862 406.369 339.46 409.08C341.957 411.772 343.855 414.962 345.03 418.44C346.317 422.329 346.952 426.404 346.91 430.5C346.91 441.66 344.25 450.01 339 455.33C333.75 460.65 325.28 463.33 313.83 463.33C311.935 463.3 310.042 463.173 308.16 462.95C306 462.7 303.83 462.44 301.68 462.14C301.28 459.04 300.97 455.14 300.68 450.57C300.43 445.57 300.3 439.18 300.3 431.46V402.18C301.79 401.91 303.78 401.61 306.22 401.33C309.765 400.973 313.327 400.81 316.89 400.84M379 437.94C379.09 434.46 379.15 430.36 379.15 425.79V372.39C379.15 367.84 379.09 363.74 379 360.24C378.91 356.74 378.73 353.76 378.54 351.24C378.35 348.72 378.08 346.61 377.8 344.95C377.52 343.29 377.23 341.88 376.93 340.76V339.34H397.28V340.76C396.97 341.9 396.67 343.29 396.4 344.95C396.13 346.61 395.9 348.73 395.72 351.22C395.54 353.71 395.38 356.68 395.25 360.22C395.12 363.76 395.06 367.8 395.06 372.37V449.75C400.363 449.749 405.663 449.482 410.94 448.95C416 448.4 420.49 447.77 424.29 447.07C428.36 446.383 432.391 445.488 436.37 444.39L437.7 444.02L435 459.45L434.21 459.39C433.59 459.39 432.67 459.28 431.45 459.23L427.31 459.08C425.78 459.02 424.18 458.97 422.5 458.94L413.74 458.79C412.59 458.79 411.74 458.74 411.23 458.74H376.89V457.33C377.19 456.21 377.48 454.79 377.76 453.14C378.04 451.49 378.28 449.39 378.5 446.91C378.72 444.43 378.85 441.42 378.96 437.91M456.96 457.25L456.85 457.05C456.738 456.838 456.663 456.608 456.63 456.37C456.544 455.855 456.504 455.333 456.51 454.81C456.515 452.421 456.941 450.051 457.77 447.81C458.65 445.4 459.48 443.2 460.24 441.18L469 420.08C471.88 419.98 475.13 419.94 478.68 419.94H506.09C510.58 419.94 514.27 419.94 517.09 420.08L526.26 441.88C527.289 444.314 528.115 446.83 528.73 449.4C529.127 451.19 529.338 453.016 529.36 454.85C529.36 455.25 529.36 455.71 529.3 456.23C529.276 456.57 529.212 456.905 529.11 457.23V458.71H552.11V457.23L551.92 456.98C551.77 456.78 551.38 456.22 550.5 454.78C549.787 453.6 548.967 452.133 548.04 450.38C547.12 448.65 546.14 446.67 545.04 444.47C543.94 442.27 542.97 440.01 542.04 437.67L499.64 336.92H492.28L447.6 441.71C445.96 445.71 444.42 449 443.07 451.59C442.142 453.501 441.009 455.305 439.69 456.97L439.48 457.2V458.73H457L456.96 457.25ZM472.52 411.11L492.66 361.83L513.15 410.83C511.21 410.83 509.15 410.89 506.83 410.92L488.83 411.09H479.6L472.52 411.11ZM639.8 456.28L640.14 456.13L646.53 438.42L644.53 437L644.03 437.62C642.194 439.903 640.1 441.967 637.79 443.77C635.521 445.558 633.067 447.096 630.47 448.36C627.899 449.614 625.191 450.564 622.4 451.19C620.781 451.566 619.137 451.823 617.48 451.96V347.23C620.788 347.754 624.021 348.674 627.11 349.97C632.296 352.133 637.013 355.281 641 359.24L641.43 359.67L643.35 358.74L637.84 342.47L637.46 342.31C628.738 339.003 619.477 337.348 610.15 337.43C604.195 337.381 598.263 338.176 592.53 339.79C587.275 341.294 582.254 343.519 577.61 346.4C573.16 349.178 569.104 352.541 565.55 356.4C562.05 360.229 559.065 364.498 556.67 369.1C554.271 373.708 552.441 378.59 551.22 383.64C549.965 388.728 549.33 393.949 549.33 399.19C549.206 407.887 550.793 416.524 554 424.61C556.976 431.993 561.462 438.672 567.17 444.22C572.969 449.762 579.845 454.053 587.37 456.83C595.64 459.876 604.397 461.387 613.21 461.29C617.884 461.29 622.547 460.855 627.14 459.99C631.477 459.215 635.719 457.975 639.79 456.29M593.51 447.71C587.766 444.804 582.769 440.612 578.91 435.46C574.835 429.885 571.84 423.597 570.08 416.92C568.033 409.365 567.024 401.567 567.08 393.74C566.981 386.928 568.04 380.148 570.21 373.69C572.063 368.218 575.013 363.182 578.88 358.89C582.591 354.892 587.135 351.759 592.19 349.71C593.602 349.144 595.044 348.657 596.51 348.25V449C595.489 448.621 594.488 448.19 593.51 447.71ZM610.39 452C608.109 451.88 605.839 451.592 603.6 451.14V346.88C605.495 346.655 607.402 346.538 609.31 346.53H610.4L610.39 452ZM750.83 454.67C751.72 455.28 752.64 455.89 753.62 456.48L754.03 456.74V458.43H729.84L729.63 457.9C729.345 457.287 729.01 456.699 728.63 456.14C728.123 455.341 727.568 454.573 726.97 453.84C726.337 453.013 725.67 452.17 724.97 451.31C724.21 450.42 723.49 449.62 722.84 448.85L675.71 394.18V425.47C675.71 430.05 675.78 434.14 675.91 437.62C676.04 441.1 676.19 444.05 676.37 446.57C676.55 449.09 676.78 451.15 677.06 452.82C677.34 454.49 677.63 455.82 677.93 457V458.41H657.58V456.99C657.87 455.87 658.18 454.46 658.45 452.81C658.72 451.16 658.97 449.03 659.18 446.55C659.39 444.07 659.54 441.06 659.65 437.61C659.76 434.16 659.79 430.06 659.79 425.46V372.06C659.79 367.46 659.74 363.39 659.65 359.91C659.56 356.43 659.39 353.46 659.18 350.91C658.97 348.36 658.72 346.28 658.45 344.62C658.18 342.96 657.88 341.62 657.58 340.45V339.03H677.93V340.45C677.63 341.59 677.32 343 677.06 344.62C676.8 346.24 676.54 348.39 676.37 350.9C676.2 353.41 676.02 356.47 675.91 359.9C675.8 363.33 675.71 367.48 675.71 372.05V388.45L719.58 350.56C724.42 346.38 726.87 342.8 726.87 339.89V339.03H750.42V340.89L749.76 341.06C746.533 341.939 743.486 343.381 740.76 345.32C737.317 347.746 734.018 350.37 730.88 353.18L691.49 388.05L739.1 443.34C741.1 445.49 742.81 447.34 744.23 448.75C745.65 450.16 746.87 451.36 747.96 452.33C748.883 453.153 749.852 453.924 750.86 454.64" fill="white"/>
</g>
<defs>
<clipPath id="clip0_3_497">
<rect width="1024" height="1024" fill="white"/>
</clipPath>
</defs>
</svg>
