<svg width="1024" height="1024" viewBox="0 0 1024 1024" fill="none" xmlns="http://www.w3.org/2000/svg">
<g clip-path="url(#clip0_3_500)">
<path d="M512 1024C794.77 1024 1024 794.77 1024 512C1024 229.23 794.77 0 512 0C229.23 0 0 229.23 0 512C0 794.77 229.23 1024 512 1024Z" fill="#728DBE"/>
<path d="M364.2 604.2C364.2 599.6 373.4 594.2 373.4 594.2C374.2 592.5 375.1 590.9 375.9 589.2L376.5 561.8C379 557.7 379.7 558.1 376.2 555C376.2 555 375.9 545.7 376.8 544.7C377.8 543.6 378.4 539 378.4 539L377.8 502C377.7 491.5 377.8 481 377.7 470.5C377.6 460 377.3 449.5 377.2 439C376.9 424.8 376.6 410.5 376.2 396.3C375 392.7 372.1 391.6 368.6 391.5C365.7 391.4 363.5 389.6 361 388C358.9 386.3 357.8 383.4 363.2 381.7C365.4 381.6 367.7 381.5 369.9 381.3C375 381.4 379.3 382 384.5 382.1C390.4 382.2 397.3 381.9 403.3 382C403.3 382 408.8 382.5 406.2 387.7C406.2 389.8 404.3 392 401.4 392C398.5 392 395 399.1 395 399.1V403.7C397.1 405.4 398.7 406.7 398.7 408.2C398.7 410.2 396.6 411.5 394.9 414.2C395.3 436.4 395.5 459.5 396 481.6C396.9 485.8 397.8 487.9 397.5 489.7C397.3 491.1 396.5 492.4 393.5 493.4V507.3C394.2 511.1 394.3 515.8 395.1 519.6C394.8 522.6 396.2 524.7 395.9 527.6C394.8 529.1 392.7 530.7 391.6 532.2V536.8C392.1 537.5 392.7 538.2 393.2 538.9C393.4 542.9 393.6 547 393.8 551C394.4 552.4 395.1 553.8 395.7 555.3V571.3C394.5 573 393.4 574.6 392.2 576.3C392.6 579.5 393 582.7 393.5 585.9C397.7 589.2 403.5 591.4 407.7 594.7C410.6 596.6 411.5 603.1 407.4 603.5C407.4 603.5 402.7 602.7 401.1 602.7C399.5 602.7 399.2 604.8 396 602.3C392.8 599.8 379.6 602.3 376.4 602.3C373.2 602.3 371.9 605.5 368.8 607.6C365.5 609.9 364.2 604.2 364.2 604.2ZM306.9 570.7C306.1 577.3 308.4 584.9 306.9 591.4C305.4 598.3 299.8 603.1 297.7 609.8C295.8 615.6 296.4 624 293.4 627.7C288.4 629.3 282.2 632.8 278.3 635.7C272.6 640 268.9 644.8 267.1 645C264.9 647 260.1 645.7 257.4 646.7C254.8 647.7 254.6 649.8 251.9 649.4C249.8 649.1 250.4 647.4 248.8 646C247.8 645.2 246 645.1 245 646C239.4 650.5 243.6 649.3 237.2 648.7C230.7 648.1 218.1 650.1 210.2 648.5C205.5 647.5 204.6 645.2 206.3 643.9C207.3 643.1 210 643.1 211.2 642.6C213 641.8 214.8 640.7 215.8 639.4C217.6 637.1 216.5 631.9 218.7 627.7C220.8 609.8 221.4 586 219.3 578.1C218 565.8 219.3 524.9 219.3 519.7C220.7 517.2 221.2 517 221.2 512.6C221.2 510.9 222.4 508.2 221.1 506.1C219.3 504.1 219.9 496.2 219.7 491.7C219.5 485.1 220 485.1 221.8 479.1C222.5 476.8 222.7 474.1 221.8 472C220.3 468.5 218.1 472.5 218.3 465.5C218.7 448.4 219.3 431.2 218.8 414.1C218.9 412.6 221.4 412.3 221.9 410.9C222.5 409.1 222.7 406.8 221.9 405.1C221.4 404.1 218.8 405.4 218 404.6C213.2 400 207.2 397.2 204.5 391.1C203.4 388.7 205.2 383.5 207.4 382.4C211.2 380.5 218.2 382.5 222.3 381.8C224.5 381.4 225.9 380.1 228.2 380C245.7 379.2 263.7 377.5 281.1 379.2C283.9 379.5 284.8 384.4 287.4 385.6C290.9 387.3 296 386.9 298.7 389.8C303 394.4 306.1 398.2 306.6 404.5C307.3 412.3 308.6 421.1 308.5 427.1C308.4 432.1 306.9 436.6 304.7 441C301.6 446.9 298 452.4 294 458.3C291.7 461.7 287.7 464.8 286.7 468.6C285.7 472.6 296 469.7 298.1 473.1C300.1 476.4 296.4 480.4 297.5 484.1C298.5 487.5 304.3 487.8 305 491.2C306.8 500.1 302.9 509.5 304.4 518.4C304.9 521.3 309.4 521.4 309.9 524.2C310.4 530.4 310.2 537 310.3 543.5C310.4 550.5 310.6 557.5 310.5 564.2C310.5 566.7 307.2 568.2 306.9 570.7ZM255.7 429.9C255.7 431.4 256.1 458.8 256.1 458.8C259.3 458.9 260.7 459.2 261.7 458.8C262.7 458.4 263.2 457.3 264.7 454.5C266.6 450.9 269.3 446.4 271.6 446.1C275.4 445.5 277.4 445 277.4 445C277.4 445 279.4 444.6 278.7 439.7C278 434.8 276.6 430 277.8 428.7C279 427.4 279.3 423.6 278 422C276.7 420.5 275.4 419 277.6 416.9C279.7 414.8 281.2 411.3 276.1 411.9C271 412.5 271 410.3 270.5 408.7C269.9 407.2 264.3 407.5 261.4 407.4C258.5 408 256 407.8 256.1 410.8C256.1 413.7 255.6 428.4 255.7 429.9ZM276.7 550.7C276.9 548.4 278.2 546.1 279.9 542.3C280.9 539.8 280.4 539.9 278.6 537.9C276.7 535.7 275.9 534 275.7 532.2C275.4 529.3 276.8 526.4 277.9 521.7C279.3 515.5 274.7 513.8 276.3 507.6C278 501 273.9 500.6 269.7 496.5C267.4 494.3 265.1 492.1 262.9 489.9C259.9 487 258.3 484.8 257.4 484.5C256.5 484.2 256.4 485.8 256.4 490.7C256.4 495.9 255.8 500.1 255.8 505.3C255.2 507 254.5 508.8 253.9 510.5C254.3 514 254.7 517.4 255.2 520.9C255.2 525 254.2 528.3 254.2 532.4C250.7 536.6 248.6 536.5 252.9 540.2C252.9 544.4 253.5 548.7 253.5 553V581.1C252.2 582.8 251 584.6 249.7 586.3C250.1 595.6 250.5 604.9 251 614.1C249.5 616.9 248.1 619.7 246.6 622.5C250.6 621 253.6 620.8 257.6 619.3C261.2 615.9 266 612.6 269.7 608.8C273.8 604.6 274.6 604.4 275 598.6C275.3 594.7 275.6 590.9 275.8 587C277.1 581.9 278.3 576.8 279.6 571.7C280.7 567.4 280.8 564.6 279.6 560.3C278.1 555 276.5 553.7 276.7 550.7ZM418.1 592.4C417.9 593.7 414.9 593.7 415.1 595C415.4 596.8 415.5 599.6 417.4 599.9C422.7 600.6 429.9 598.5 435.2 599.5C437.3 599.9 437.4 603.4 439.3 604.3H445.2C446.7 603.5 446.3 600.7 447.8 599.8C449.6 598.7 452.1 598.3 454.1 599.1C455.2 599.5 453.7 602.3 454.8 602.4C464.1 602 472.3 603.1 481.1 602.4C482.8 602.1 481.1 599.6 482.5 598.6C484.1 597.4 488.2 599.5 488.4 597.5C489.8 587.2 487.6 575.7 488.6 565.3C488.9 562 492.1 560 492.8 556.8C493 555.7 494.3 555.7 494.4 554.6C494.8 550.9 494.7 546.4 493.8 542.7C492.6 541.4 488.7 541 487.5 541.5C486.1 542.5 487.4 546.2 486.4 547.7C485.9 548.4 484.3 547 483.8 547.7C483.3 548.4 483.9 549.6 484.1 550.5C484.2 551.1 484.2 551.5 483.8 551.8C481.4 553 477.8 550.1 475.6 551.8C473.5 553.4 475.9 556.6 474.1 558.6C471.2 561.8 465 563.7 462.1 566.9C458.7 570.7 459 574.7 455 578C451.9 580.6 446.7 580.9 443 582.4C438.7 584.2 436.6 587.4 432.1 588.7C430.7 589.1 429.1 586.7 429.5 585.4C432.9 574.5 437.2 563.5 440.9 552.7C443.2 545.8 444.3 541.4 446.8 534.5C449.4 527.4 452.8 518.6 457.1 512.3C457.9 511.1 460.7 511.9 461.2 510.4C462.3 506.9 460.2 502.8 461.2 499.3C461.9 496.6 464.7 494.1 467 492.6C468.6 491.6 471.1 493 471.7 491.3C473.3 487.3 471.8 483 472.8 478.8C473.5 476 475.4 474.2 476.7 471.6C478.3 468.1 478.2 465 480 461.6C481.5 458.8 484.6 454.9 485.5 451.9C486.7 447.7 485.7 445.7 486.1 441.4C486.2 440.2 487.9 439.6 488 438.4C488.6 424.4 489.3 410.4 488.5 396.4C488.4 395.3 485.9 395.3 485.9 394.2C486 389.9 486.5 386.2 486.3 382.3C486.3 381.5 486.5 380.9 485.8 380.9C474.2 380.4 462.7 380.7 451.1 380.8C441.6 380.9 432 380.1 422.5 380.8C421.1 380.9 419.8 381.1 418.8 382.2C417.9 383.2 417.4 385.4 417.4 386.7C417.7 392.9 417.3 399.7 417.4 407.1C417.4 408.5 420.1 407.7 420.6 409C421.9 412.6 422 416.7 421.7 420.5C421.6 421.7 420.1 423.4 420.1 424.6C420.7 428.9 421.3 431.9 422 436.1C422.5 437.7 423.8 438.9 424.2 440.6C424.7 442.5 422.9 446.4 424.9 446.5C425.6 446.5 427.8 446.9 429 446.5C430.5 446 428.4 443.2 429 441.7C429.4 440.6 431.4 440.6 431.6 439.5C432.6 433.4 430.9 426.2 431.8 420.1C432.1 418.2 433.2 416.3 434.8 415.3C436.2 414.5 438.6 416.6 439.6 415.3C441 413.5 439.6 411.5 440.5 409.4C441.7 406.4 443.7 403.7 446.1 401.6C448.3 399.7 450.5 397.3 453.4 397C459.9 396.3 467.7 396.9 476.5 396.6C477.3 396.6 477.6 397.8 477.6 398.7C477.9 402.8 478.7 408.3 477.6 411C476.1 414.8 472.6 419.1 469.1 423.1C466.7 425.8 464.3 428.2 462.4 431C460.2 434.3 463.5 438.8 462.4 442.6C461.2 446.5 458.1 450.6 455.6 453.8C453.6 456.4 450.6 457.8 448.7 460.5C446.3 463.9 445 467.3 443.5 471.1C442.3 474.3 441.5 477.7 440.9 481.1C440.5 483.8 441.7 486.8 440.5 489.3C439.6 491.1 437.6 490.8 436.3 492.3C434.5 494.4 433.4 497.1 432.6 499.7C431.6 502.8 431.5 504.7 429.9 507.5C428.1 510.7 424.5 513.8 422.9 517.1C421.1 520.7 420.9 525.1 420 529C419.1 532.8 418.4 536.3 417.7 540.1C416.7 544.7 415.7 549.5 415.8 554.2C415.8 555.6 417.4 556.6 418 557.9C418.6 559 419.9 560.1 419.5 561.2C419 562.8 416 562.9 415.8 564.5C415.6 566.2 416 567.8 417.2 569C418.3 570 420.5 569.6 421.3 570.9C422.1 572.3 422 574.3 421.3 575.7C420.7 576.9 418.7 576.6 418.5 577.9C417.7 583.3 419 587.1 418.1 592.4ZM815.3 489.5C814.5 494.8 816.101 500.2 815.701 505.6C815.5 508.2 814.1 510.8 812.8 513C811.8 514.6 809.601 515.2 808.901 516.9C807 521.4 807.5 527.6 806.6 532.5C806.3 541.8 806.5 549.1 806.901 558.4C807.201 565 807.901 570.9 807 577.4C806.701 579.7 804.8 580.9 804.5 583.2C803.6 589.4 804.4 595.9 803.8 602.1C803.701 603.2 802.101 604.4 801.901 605.5C801.5 611.2 801.1 619.6 798.6 626.1C797 630.4 792.9 634.7 789.1 637.1C785.4 639.5 781.4 640 777.1 641.1C774.4 641.8 771.301 641.5 768.901 642.7C767.401 643.5 768.401 643.5 767 644.5C766.201 645.1 764.9 645.1 764.1 644.5C763.1 643.6 763.401 643.3 762.201 642.7C760.3 641.8 757.901 641.9 756 642.7C754.6 643.3 755.101 644.4 753.701 644.6C750.8 645.2 747.3 645.9 744.1 645.8C742.2 645.8 740.701 646.6 740.201 644.9C739.5 642.7 741.201 642.3 742.401 641.1C744.101 639.4 745.701 637.8 746.401 634.4C746.701 633.1 747.901 631.1 748.201 629.1C748.601 626.2 748 623.1 747.201 621.2C746.101 618.7 744.401 617.4 745 615C745.201 613.5 748.701 613.3 751.401 612.1C752.801 611.5 754 610.2 754.5 609.1C755.1 607.6 753.1 607.8 752.1 605.9C751 603.8 750.901 600.7 750 599.2C748.6 596.5 745.9 592.9 745.8 589.9C745.5 581.8 747.901 573.6 748.201 565.7C748.5 559.1 750 557.6 749.5 550.9C749.3 547.6 747.5 545.1 745.6 541.7C744.1 538.9 742 536.1 741.3 533.4C739.9 528.6 741.3 523 740.5 518.1C740.3 517.1 737.901 516 737.901 515C737.301 508.3 738 501.4 737.6 494.8C737.4 493.6 736.4 493.3 736.3 492.1C735.9 488.4 736.3 484.8 736.3 481.6C736.3 478.8 735.901 476.3 735.901 473.1C735.901 471.9 734.9 471 734.8 469.8C734.6 462.6 734.9 454.6 734.8 447.3C734.701 439.6 734.201 432.6 734.8 424.9C734.9 423.6 737.5 423.6 737.5 422.3C737.3 416.4 736.701 414.1 736.901 408.1C736.901 407.4 738.301 405.8 738.401 405.1C738.801 400.2 739.401 395.2 738.201 391C737.3 387.9 735 387 732.401 385C730.101 383.3 727.5 380.4 725.3 378.8C722.5 376.8 720.7 375.1 718.6 372.1C717.3 370.3 719.401 370.1 721.701 370C724.701 369.9 727.901 370.2 730.701 370.6C731.701 370.7 733.5 372.4 734.401 372.7C736.601 373.5 738 372.4 740.201 373.1C741.901 373.6 749 377.3 750.901 378.4C753.5 379.9 754.4 382.1 757.1 383.4C757.6 383.6 766 386 767 386.3C769.3 386.9 770.701 385.2 773 385.8C775.6 386.5 780.4 387.8 783.3 388.7C785 389.2 786 391.2 787.701 391.5C796 393.2 794.5 390.4 801.1 397C803 398.9 806.201 400.5 807.701 402.8C809.701 406.1 810 410.1 811.3 413.7C812.3 416.5 814.6 418.8 815.1 421.7C816.5 429.7 815 438 816 446C816.3 448.5 818.8 451 819.1 453.5C820.1 462.9 820.3 472.2 819.1 481.6C818.5 485.1 815.8 486.4 815.3 489.5ZM796 463.3C794 457.1 791.701 450.4 786.8 445.7C785.6 444.5 784.401 443.4 783.201 442.2C780.901 438.5 780.1 437.2 776.3 435.1C772.6 433.1 771.8 433.3 767.701 433.6C761.101 433.9 759.5 431.5 759.6 438.6C759.7 450 759.901 461.5 760 473C760.1 477.6 759.801 480.5 761.901 484.5C763.601 489.6 764.6 492 764.8 497.3C767.1 499.9 767 500.7 767.201 504.2C767 520.7 766.8 537.1 766.701 553.6C766.601 569.1 766.5 584.6 766.5 600.1C766.5 603.2 767.1 605.2 768 605.6C768.901 606 770.2 604.9 771.6 601.7C772.8 599 773.9 596.4 775.1 593.7C777 589.3 778 587.1 778 582.3C778 578.2 779 575.9 780.901 572.3C784.201 564.8 785.701 560.9 785.8 552.8L786.401 514.7C786.5 511.1 786.301 509.3 786.901 507.8C789 502.3 791.101 503.4 791.901 496.1C792.201 493.5 792.901 491.1 794.5 488.1C797.8 481.9 796.401 470 796 463.3ZM497.7 630.5C499.3 633.2 504.1 632.4 507.2 631.7C509.4 631.2 511.1 629.2 513.4 628.9C519.8 627.9 527 629.2 533.3 627.9C536.8 627.2 537.1 624.3 540.6 623.5C543.6 622.8 548.7 623 551.5 624.2C552.5 624.6 551.9 626.6 553 626.7C563.9 626.7 574 625.9 584.9 626.4C586.5 626.2 587.4 624.6 587.6 622.9C588.5 615.3 588.2 607.5 587.6 599.8C587.5 598.3 586.2 597.4 585.8 596C585.4 594.2 585.1 592.1 585.8 590.3C586.2 589.5 588 590.3 588.5 589.5C589.3 588.2 588.7 586.6 588.3 585.1C587.9 583.4 587.9 581.2 586.3 580.8C582.2 579.7 578.5 581.5 574.3 580.8C573.1 580.6 572.8 577.7 571.7 578.2C569.7 578.9 569.6 581.9 567.9 583.1C564.7 585.6 560.1 587.3 556.5 589.2C550.2 592.4 543.7 594 538 598.3C536.2 599.7 538.6 604.1 536.5 605.1C531.9 607.2 525.3 606.4 521.4 605.9C518.1 602.1 524.1 597.5 524.6 592.5C526.5 587.4 530.4 582.8 531.7 577.5C533.1 572 531.3 565.4 532.4 559.8C533.2 555.5 537 552 537.7 547.7C539.2 538 536 527.8 538 518.2C538.7 514.8 543.5 513.5 544.8 510.3C545.9 507.7 544.1 504.7 544.8 502C545.3 500.2 547.6 499.2 548.2 497.5C549.6 493.4 550.4 488.8 551.7 484.6C552.2 482.8 554.2 481.5 554.4 479.7C555.1 471.2 553.3 462.5 554.4 454C554.8 450.9 557.1 448.7 558 445.7C559.5 440.2 558.4 434.1 560.3 428.7C560.9 427.1 564.2 428 564.8 426.4C566 423.2 564 419.4 565.2 416.2C566 413.9 570.5 413.5 571.3 411.3C572.7 407.6 571.3 403.3 572.6 399.6C573.4 397.4 575.8 396.1 576.9 394C578.9 390.1 581.9 385.9 581.6 381.5C581.4 379.3 578.6 378.5 576.5 378.4C562 378 547.3 378.5 532.8 378.6C524.5 378.6 513 378.6 505.8 378.7C501.5 378.7 500.4 378.1 500.3 382.5C500.1 394.9 501.7 407.8 500.5 420.8C500.4 422 497.8 421.5 497.5 422.7C496.9 424.9 498.1 427.2 498.3 429.5C498.4 432.4 497.6 435.4 498.3 438.2C498.7 439.6 499.9 440.1 501.3 440.1C502.7 440.1 503.2 439.1 504.3 438.2C506.4 436.5 510.7 435.8 511.7 433.3C514.4 427 512.7 419.7 514.9 413.3C516.3 409 516.4 405.7 520 403C522.7 401 526.4 401 530.2 401.3C532 402 532 405 533.8 405.6C537.4 406.9 542.8 402.8 545.1 405.7C544.5 408.8 544.6 413.7 543.2 417.4C541.7 421.2 538.4 424.3 536.4 428C533.1 434.2 530.9 438.5 529 445.3C528 448.7 529.1 454.1 528.1 457.5C527.1 461.1 522.9 463.1 521.7 466.6C520.7 469.6 522.7 473.1 521.7 476.1C520.9 478.3 518.1 478.2 517.8 480.5C517.5 482.4 519.6 483.7 520.2 485.5C520.7 486.9 520.3 488.6 519.8 490C518.1 494.7 517.2 493.2 515.4 497.9C512.5 505.3 507.4 517.4 506.4 525.3C505.1 535.4 505.5 546.5 506.9 556.6C507.3 559.4 509.5 561.4 510 564.2C510.8 568.7 510.5 573.3 510 577.8C509.9 578.9 508.9 579.4 508.8 580.4C508.2 584.5 509.4 588.8 508.4 592.9C508.2 593.8 506 592.1 505.8 592.9C505 595.5 507 598.7 505.8 601.2C504.9 603 502.4 602.6 501.2 604.2C500.3 605.3 500.1 607.2 500.8 608.4C501.3 609.3 502 608 502.3 608.9C502.9 610.5 502.1 612.4 501.2 613.8C500.6 614.7 498.3 613.7 498.2 614.8C497.3 619.3 496.4 624.3 497.7 630.5ZM329.2 648.3C335.5 646.1 335.5 640.7 341.5 637.9C344.7 636.4 350.9 636.8 354.4 637.8C356.8 638.5 357.2 639.8 361 640.1C378.9 641.1 396.1 639.2 414 640.5C415.8 640.6 416 644 417.7 644.2C425.4 645.3 433.1 643.3 440.8 644.3C443.7 644.6 446.9 647.3 449.7 648C451.6 648.5 453.7 646.8 455.5 647.6C457.1 648.3 457.1 651.7 458.8 651.7C467.8 652.1 476.1 651.4 484.4 651.5C488.8 651.5 488.1 650 486.4 646.9C485.3 645 483.6 643.8 483.2 641.8C481.4 632.3 486.9 614.3 481.8 614.1C472.9 613.1 457.5 613.7 445.5 613.8C432.8 613.9 421.1 612.8 408.5 614.5C405.6 614.9 403.9 617.9 401.1 618.7C396.3 620 391 619.8 386.1 619C382.4 618.3 379.6 615.9 375.9 616.2C372.8 616.5 371.5 620.7 368.5 621.5C363.2 622.9 356.6 623.3 351.3 621.8C349.7 621.3 351.7 618.3 350.9 616.8C350.4 615.9 347.9 616.6 348 615.6C348.1 613.7 351 612.9 351.3 611C352.1 606.1 350.6 601 351.3 596.1C351.4 595.1 353.6 595.4 353.8 594.4C354.3 591.1 352.4 587.7 353 584.5C353.2 583.3 355.3 583.5 355.9 582.4C356.8 580.8 356.8 579.3 356.3 577.5C356 576.2 354.9 576.8 354.2 575.7C353.6 574.5 354 572.3 354.8 571.2C355.9 569.6 359.4 568.4 359.3 566.5C359.1 562.5 358.5 560.6 358.8 556.6C358.9 555.1 356 553.8 355.7 552.3C355.3 549.8 355.6 547.1 355.6 544.6C355.6 542.7 355 540.9 355.9 539.2C356.8 537.6 357.8 535 357.9 532.9C358.5 518.1 359.9 503.3 358.4 488.6C358.1 486 353.9 485 353.7 482.4C352.1 466.9 352.4 451.2 353.3 435.6C353.4 434.4 355.7 435.1 356 433.9C356.8 430.7 356.7 426.8 355.6 423.7C355.1 422.4 353.2 423 352.5 421.8C351.5 420.1 351.2 418 351.7 416.1C352 415 354.1 415.5 354.2 414.4C354.5 411.1 354 407.8 354 404.6C354.1 400.9 354.6 397.3 353.4 393.8C352.4 391 350.7 390.1 348.8 388.2C347.3 386.7 345.7 383.9 343.8 382.6C342.5 381.7 339.9 383 338.5 382.3C336.4 381.3 336.2 378.4 333.9 377.9C328.6 376.7 323.3 379.1 318 378.3C316.8 378.1 316.8 375.8 315.7 375.2C314.4 374.5 312.5 374.3 311.3 375.2C309.7 376.4 308.6 379.4 309.6 381.1C311.1 383.8 313.8 385.1 315.7 387C317.8 388.9 319.2 391.3 321.7 393.4C322.7 394.2 325 393.6 325.8 394.6C326.9 396 326.6 397.5 327.4 399.1C327.9 400 329.5 400.9 329.8 401.9C330.5 404.9 330.6 408.1 329.8 411C329.4 412.6 327.6 413.6 327 415.1C326.5 416.4 325.9 417.6 326.5 418.9C327.1 420.2 329 420 329.3 421.4C330.3 425.8 329.6 430.7 329.7 435.1C329.8 437.9 323.6 438 323.6 440.9C323.5 444.6 324 449.3 324.1 454.3C324.2 459.1 326.9 457.6 327 458.7C327.9 470.5 326.3 481.7 327.3 493.6C327.4 494.6 329.5 494.7 329.9 495.6C330.9 497.6 330.7 500.1 330.1 502.2C329.7 503.5 327.6 503.3 327.4 504.7C326.5 512.8 328.9 521.1 327.8 529.1C327.6 530.6 325.3 529.8 324.5 531.2C323.5 533.2 324.4 534 324.6 536.2C324.7 537.6 324.3 540.6 324.5 542C324.7 543.8 325.1 545.7 324.5 547.4C324.2 548.3 322.1 548.2 322 549.1C321.6 554.1 321.9 559 321.8 563.8C321.7 568.4 321.3 573.3 322.1 577.9C322.5 580.4 326.4 580.4 327.8 582.5C328.5 583.5 328.4 585.2 327.8 586.2C327.2 587.3 324.8 587 324.5 588.3C323.7 591.1 325.3 593.2 324.5 596C324.1 597.5 322 596.9 321.8 599.8C321.4 604.3 321.5 608.8 322 613.3C322.6 618.3 323.5 614.8 324.9 616.5C325.5 617.2 325.4 618.6 324.9 619.4C324.3 620.4 322.3 620.3 322 621.5C321.1 625.3 323.1 629.6 321 632.8C317.4 638.3 309.6 639 305.7 644.2C304.7 645.5 307.2 648.8 308.9 649.2C310.4 649.6 312.9 648.4 314.4 648.4C319 648.3 324.5 649.9 329.2 648.3ZM642.4 575.8C642.3 577.1 640.8 577.7 640.4 578.9C638.7 583.4 637.3 585.9 636.2 590.5C635.6 593 635.6 595.6 634.6 597.9C634 599.3 631.1 600.5 630.6 601.9C629.5 605.2 630.8 608.5 630.6 612.6C630.4 616.1 628.9 618.1 627.5 621.4C626.5 623.6 624.9 627.1 624.2 629.4C623.5 631.9 624.7 634.7 624 637.2C623.6 638.5 621.8 639.1 621.5 640.5C620.8 643.9 622.1 647.5 621.1 650.8C620.5 652.7 620.1 652.4 618.4 653.2C617.1 653.8 613.9 654.4 613.7 653C612.9 647.3 614.5 643.3 613.6 637.6C612.5 630.9 609.7 626.9 608.1 620.3C607.3 617.1 608.7 611.4 607.2 608.5C604.5 603.2 595.8 601.1 596.1 595.2C596.5 589.5 599.9 585.8 603.4 581.1C605.8 577.9 607.3 572.7 608.8 569.1C609.9 566.4 610.5 563.3 610.6 560.7C610.7 556.8 609.6 555.1 606.6 552.6C600.4 547.5 590.3 542.8 582.6 539C581.5 538.4 580.1 540.6 580.1 541.9C580.1 543.2 581.6 544.1 581.7 545.4C582.1 549.1 579.9 552.9 581.5 556.3C583.2 559.8 589.8 560.9 588.8 564.7C588.1 567.2 587.5 568.1 585.4 569.4C584.1 570.2 582.6 570.1 581.1 570.2C576.5 570.4 571.8 568.8 567.4 569.7C562.6 570.7 558.3 572.9 553.9 575.1C551 576.6 548 578.5 544.7 578.4C541 578.3 540.7 572.3 541 568.6C541.3 564.8 546.2 565 548 561.7C549.3 559.3 547.4 555 548.8 552.6C550.4 550.1 554.6 550.2 556.2 547.7C557.1 546.3 555.8 543.5 555.8 541.8C555.9 537.8 556.8 534.8 556.6 530.8C556.5 528.7 555.6 525 556 522.9C556.5 520.1 558.2 520.8 559 518.1C560 514.7 558.3 510.8 559.4 507.4C559.8 506.1 563.4 506.7 563.1 505.3C562.8 503.6 559.7 504.5 559.4 502.8C558.5 497.7 558.4 491.6 559.8 486.6C560.7 483.5 564.2 481 565.1 477.9C566 474.6 564 470.9 565.1 467.6C565.8 465.4 569.5 464.9 570 462.7C571.3 457.4 570.1 450.9 571.5 445.6C572.2 442.8 573.7 439.7 575.5 437.9C576.6 436.9 577.5 436.1 578 434.4C578.7 432.1 577 430.2 577.4 427.9C577.7 425.8 579.3 424.5 580.3 422.7C581.6 420.4 582.1 417.4 583.3 415.1C585.1 411.7 587.5 408.8 588.7 405.2C589.6 402.5 587.6 398.1 588.8 395.4C590.5 391.7 595 391.8 596.6 388.1C598 385.1 595.6 381.2 597 378.2C598 376 600.4 375.1 602.8 375C604.6 374.9 606.7 376.1 607.3 377.8C608.5 381 607.4 384.9 608.7 388.1C611 393.7 615.1 397 617.3 402.6C618.5 405.5 617.2 409.7 617.9 412.8C618.9 417 619.6 421.2 620.9 425.2C622.6 430.3 625.1 435.2 626.5 440.3C627.8 444.9 628.1 449.8 629.1 454.4C629.8 457.8 631.1 460.9 632.3 464.1C632.8 465.5 634.5 465.1 634.9 466.6C635.6 469.1 633.5 471.9 634.1 474.4C634.8 477.4 638.1 480.5 638.6 483.6C639.5 488.6 638.6 493.4 638.7 498.4C638.8 503 639.3 507.3 639.9 511.8C640.3 514.5 641.8 518.4 641.9 520.4C642.2 527.8 642.5 535.1 642.6 542.5C643 553.4 643 565 642.4 575.8ZM615.8 511.8C615.8 505.3 615.7 498.7 615.4 492.2C615.4 491.3 613.4 491.7 613.2 490.8C612.6 487 613.2 482.1 612.5 478.3C612.3 477.5 610.9 478.3 610.2 477.9C609.2 477.2 609 475.5 607.9 475.1C606.5 474.5 604.7 475.3 603.3 474.7C602.2 474.3 601.4 473 600.7 471.9C599.5 470.1 599.1 468.4 597.8 466.6C596.6 465.1 596.3 463.3 596 463.3C595.7 463.3 595.3 465.2 595.1 467.3C594.6 471 594.7 475.4 594.7 476C594.7 476.4 593.6 477.4 593.1 478.5C592.2 480.3 591.7 482.5 591.5 482.8C590.7 483.9 587.4 482.6 587 483.9C586 487.2 588.1 491.3 587.7 494.7C587.5 496.8 585.6 498.3 585.4 500.4C585.2 503.6 585.1 506.7 585.1 509.9C585.1 513.5 585.2 517 585.2 520.7C585.2 521.1 584.9 521.8 585.2 521.8C587 522 589.7 521.4 591.5 521.4C594.3 521.4 597.7 521.6 600.4 522.5C601.6 522.9 601.6 524.9 602.8 525.2C605.9 525.9 607.4 528 609.7 529.8C610.9 530.7 615.3 530.6 615.3 529C615.6 523.4 615.8 517.6 615.8 511.8ZM735.3 602.3C735.1 606.4 735.3 610.5 734.6 614.5C733.4 622.4 732.901 629.7 731 637.7C729.6 643.8 728.801 646.5 721.901 642.6C720.401 641.8 719.1 640.9 718 640.2C713.1 637.2 711 631.2 705.8 628.6C703.9 627.6 701 627.5 698.5 627.5C692.2 627.5 692.8 625.7 694.7 619.8C696.5 614.1 700.2 609.4 701.9 603.5C703.1 599.4 703.3 595 703.2 590.7C702.9 580.8 702.3 570.9 700.6 561.2C699.1 552.7 696.6 544.3 693.5 536.1C692.9 534.4 690.1 534.7 689.9 532.9C689.2 526.7 692.5 521.3 691.4 515.2C690.5 510.2 686.3 505.3 683.2 501.3C682.2 500.1 681 497.7 680.1 498.9C678.2 503.1 676.3 508.5 674.3 513.7C673.6 517.5 675.2 521.4 675.6 525.3C676.7 536 677.5 546.7 678.8 557.4C679.4 562.1 681 566.8 680.7 571.5C680.6 573.2 677 573 676.8 574.7C676.6 576.7 679.7 577.8 680 579.8C680.8 585.1 680.5 590.5 680 595.9C679.8 597.7 678.4 599.2 678.1 601C677.8 602.5 677.7 604 678.1 605.5C678.6 607.3 680.4 608.7 680.7 610.6C681.3 615.7 681.2 620.9 680.7 626C680.6 627.4 679 628.4 678.8 629.9C677.6 636.5 679.1 647.5 676.9 649.8C672.6 640.1 668.1 630.2 661.5 624.7C657.6 621.5 653.4 618.5 649.9 616.1C646.3 613.8 643.3 612.2 644.3 608.2C646.6 598.9 651.1 590.8 654.9 579.9C655.8 577.2 657.7 574.1 657.1 571.3C656.7 569.5 654 568.8 653.9 567C652.9 547.1 654.1 527.6 653.4 507.7C653.2 501.6 651.8 494.2 650.2 488.4C649.8 487.1 648.7 485.6 648.5 484.3C648 481.1 648.6 478.8 648.2 475.6C647.9 472.9 646 470.6 645.6 467.9C644.5 459.6 645.1 452.8 643.2 444.6C642.6 442.1 642.1 439.6 641.6 437.1C640.3 430.2 636.2 423.1 639.6 417C641.1 414.2 644.8 412.9 646.9 411.5C649.9 409.4 652.3 407.8 655.7 404.6C657.4 403 660.4 400.7 658.9 398.9C657.3 396.9 655.5 397 653 397.3C651 397.6 648.2 401 647.2 399.2C644.8 394.9 643.8 391.7 641.2 388.9C638.1 385.5 634.8 383 630.5 381.2C628.1 380.2 624.9 380.9 622.8 379.4C621.4 378.4 620.9 376.5 622.6 376.3C634.1 374.8 643.5 377 655 376C656.7 375.9 658.4 373.5 660 373.7C662.4 374.1 662.8 376.7 665.1 377.3C668.9 378.2 672.9 376.6 676.7 377.4C681.6 378.4 685.4 381.1 690.2 382.5C694.3 383.7 697.6 382.2 701.5 384C706.2 386.2 710.6 390 713.5 394.3C718.7 402 723.201 410.2 724.8 419.4C725.9 425.7 722.601 431.5 721.901 437.8C721.5 441.2 723 445 721.8 448.3C719.3 455.4 716.9 461.7 712 467.3C708.4 471.5 704.6 475 697.2 476C696.2 477.1 696.1 480.3 697.2 481.4C698.3 482.5 700.5 480.6 701.7 481.4C705.9 484.2 711.3 487.4 714 491.7C715.1 493.5 712.2 494.8 713.1 496.8C713.7 497.9 715.2 496.5 716.1 497.5C718.4 500.2 720.1 503.6 720.6 507.1C721.8 514.9 720.701 523.7 721.5 531.5C721.8 534.2 722.3 536 724.1 538.1C727 541.5 728.901 537.1 729 545.9C729.1 553.3 730.101 560 731.201 567.5C731.101 570.3 727.3 572.5 728 575.2C728.5 577.2 732.5 575.6 733.8 577.1C735.6 579.1 735.601 582.1 735.701 584.8C736 590.8 735.6 596.5 735.3 602.3ZM697.6 443.2C698.5 442.3 699.4 432.1 699.4 429.9C699.4 426.7 696 422 692.2 417.7C689.6 414.8 686.4 412.2 685 410.2C682.5 406.6 680.7 405 677.7 404.3C672.3 403.1 672.4 403.6 672.4 408.2C672.4 412 672.8 416 672.8 420C672.8 425.1 672.4 429.6 672.5 434.7C672.5 440.1 672.9 446.1 672.9 451.5C672.9 455.8 672.1 464.1 672.4 467.7C672.8 472.3 673.1 473.1 679.4 473.1C682.5 473.1 686.6 470 689.6 466.8C691.7 464.6 691.4 460.9 692.2 459.3C693.4 456.9 695.4 454.7 695.8 452C696.5 448.4 695.2 445.5 697.6 443.2Z" fill="white"/>
</g>
<defs>
<clipPath id="clip0_3_500">
<rect width="1024" height="1024" fill="white"/>
</clipPath>
</defs>
</svg>
