<svg width="1024" height="1024" fill="none" xmlns="http://www.w3.org/2000/svg"><g clip-path="url(#a)"><path d="M512 1024c282.77 0 512-229.23 512-512S794.77 0 512 0 0 229.23 0 512s229.23 512 512 512Z" fill="#9ABEFF"/><path d="M399.92 276.35h157.8c30.77.44 62.31 7.24 88.21 24.53 23.51 15.31 40.73 39.64 48 66.71 5.86 22.41 6.78 46.47.61 68.91-4.72 16.86-13.6 32.74-26.27 44.89-31.56.56-63.17 0-94.74.25l-2.12 1c.16-1.37 1.53-1.89 2.8-1.94 18.49-4 35.74-14.75 46.23-30.65 10.49-15.9 13.6-35.82 10.75-54.44A66.214 66.214 0 0 0 603 349.76C586 338 564.85 334 544.46 333.85c-26.44 0-52.88-.07-79.3 0v147.74h-65.7c-.23-7.89-.2-15.79 0-23.67-.18-6-.18-12.07 0-18.11-.16-4.94-.15-9.88 0-14.82v-9.88c0-23-.16-46.1 0-69.14-.07-15.36-.23-30.74 0-46.1a186.666 186.666 0 0 1 .46-23.52ZM277 427.86c23.74-5.12 49.5 1.35 68.39 16.5a83.209 83.209 0 0 1 30.9 56.25c112.593.046 225.19.046 337.79 0 0-11.59-.08-23.18.08-34.77h22.46c.1 11.57 0 23.16 0 34.74h15.43c0-11.59-.07-23.2.08-34.77h29.6v75h-95c22 27.13 30.67 63.79 25.11 98.07a120.322 120.322 0 0 1-47.43 78.82c-25.68 19.31-57.8 28.1-89.56 29.83H399.29V540.79H370.4c-10.34 24-32.15 42.92-57.79 48.66-22.72 5.71-47.63.71-66.77-12.66-20.88-14.21-34.18-38.46-35.58-63.61v-8.68c1-13.45 4.79-26.79 11.9-38.29A83.243 83.243 0 0 1 277 427.86Zm6.47 21.24c-26.23 3.9-48.09 26.75-50.64 53.18a60.742 60.742 0 0 0 16.01 48.17 60.767 60.767 0 0 0 21.393 14.743 60.763 60.763 0 0 0 25.597 4.457c21.76-.48 42.56-13.86 52.17-33.35 13-24.68 5.78-57.77-16.43-74.66-13.29-10.87-31.25-15.21-48.1-12.53m181.92 91.83c-.48 46.94 0 93.9-.25 140.86a30.14 30.14 0 0 0 1 8.74c30-.38 60 0 90-.18 9.8-.69 19.74-.94 29.3-3.46 19.34-4.38 37.93-15 49.08-31.74 12.87-19 14.36-43.79 8.51-65.51a67.246 67.246 0 0 0-13.161-25.383 67.245 67.245 0 0 0-22.519-17.617c-5.88-2.58-11.84-5.89-18.44-5.76-41.194.033-82.384.046-123.57.04l.05.01Z" fill="#fff"/></g><defs><clipPath id="a"><path fill="#fff" d="M0 0h1024v1024H0z"/></clipPath></defs></svg>