<svg width="1024" height="1024" viewBox="0 0 1024 1024" fill="none" xmlns="http://www.w3.org/2000/svg">
<g clip-path="url(#clip0_3_503)">
<path d="M512 1024C794.77 1024 1024 794.77 1024 512C1024 229.23 794.77 0 512 0C229.23 0 0 229.23 0 512C0 794.77 229.23 1024 512 1024Z" fill="#9ABEFF"/>
<path d="M378.14 393L160 550.95C160 550.95 452.77 672.63 849.27 550.95L848.52 550.82C827.76 550.82 803.21 551.88 774.44 550.82H769.84C763.63 550.57 750.26 549.64 750.26 549.64L741.06 548.83C728.049 547.707 715.091 546.039 702.22 543.83L692.15 542.09C690.22 541.72 667.79 536.87 664.93 536.25C662.07 535.63 659.21 534.88 656.29 534.14C651.07 532.83 645.79 531.34 640.38 529.79L632.92 527.55C627.92 526.12 622.79 524.44 617.57 522.7L608.25 519.53C603.71 517.98 599.18 516.3 594.52 514.53C532.87 491.29 460.9 453.63 378.12 392.91L378.14 393ZM697 428.7L594.53 503.28C599.19 505.02 603.73 506.7 608.26 508.28L617.58 511.45C622.8 513.19 627.9 514.87 632.93 516.3L640.39 518.54C645.8 520.09 651.08 521.54 656.3 522.89C659.22 523.64 661.64 524.2 664.94 525C668.24 525.8 682.94 529 686.38 529.72L691.85 530.53L701.92 532.27C715.53 534.57 728.33 536.18 740.76 537.27L749.96 538.08C750.15 538.08 763.32 539.26 769.54 539.26H774.14C802.91 540.38 827.46 539.26 848.22 539.26H864L697 428.7Z" fill="white"/>
</g>
<defs>
<clipPath id="clip0_3_503">
<rect width="1024" height="1024" fill="white"/>
</clipPath>
</defs>
</svg>
