<svg width="1024" height="1024" fill="none" xmlns="http://www.w3.org/2000/svg"><g clip-path="url(#a)"><path d="M512 1024c282.77 0 512-229.23 512-512S794.77 0 512 0 0 229.23 0 512s229.23 512 512 512Z" fill="#8C72BD"/><path d="M330.3 674.198a37.15 37.15 0 1 1-37.15-37.2 37.251 37.251 0 0 1 37.15 37.2Zm360.12-229.3 77.5 75.72-286 91.19v-73.41l-217.57 69.5v-213.84l252.23-80.52v73.77l233.92-74.66-60.08 132.25Zm-208.5-83.72-182.73 58.3v140.6l182.73-58.3v-140.6Zm167.08 91 39.46-83.18-171.88 54.93v140.42l186.64-59.55-54.22-52.62Z" fill="#fff"/></g><defs><clipPath id="a"><path fill="#fff" d="M0 0h1024v1024H0z"/></clipPath></defs></svg>