<svg width="1024" height="1024" fill="none" xmlns="http://www.w3.org/2000/svg"><g clip-path="url(#a)"><path d="M512 1024c282.77 0 512-229.23 512-512S794.77 0 512 0 0 229.23 0 512s229.23 512 512 512Z" fill="#9ABEFF"/><path d="M553.78 583.048c2.146 2.854 3.22 7.504 3.22 13.95a38.48 38.48 0 0 1-1 9.23 18.322 18.322 0 0 1-2.79 6.32 11.374 11.374 0 0 1-4.44 3.65 14.16 14.16 0 0 1-5.81 1.14 15.988 15.988 0 0 1-6-1.14 13.722 13.722 0 0 1-5.18-4.16v-26.25a22.582 22.582 0 0 1 5.75-5.18 13.09 13.09 0 0 1 7.06-1.88 10.707 10.707 0 0 1 9.19 4.32Zm63.28-1.25a10.416 10.416 0 0 0-3.93-2.85 12.909 12.909 0 0 0-5.47-1.08c-4.1 0-7.31 1.16-9.63 3.48-2.32 2.32-3.8 5.607-4.44 9.86h26.55a16.133 16.133 0 0 0-.8-5.13 11.869 11.869 0 0 0-2.29-4.28h.01Zm-125.51 0a10.416 10.416 0 0 0-3.93-2.85 12.909 12.909 0 0 0-5.47-1.08c-4.1 0-7.31 1.16-9.63 3.48-2.32 2.32-3.8 5.607-4.44 9.86h26.55a16.133 16.133 0 0 0-.8-5.13 11.869 11.869 0 0 0-2.29-4.28h.01Zm-138.9-3.25c-4.94 0-8.607 1.667-11 5-2.394 3.334-3.57 8.12-3.53 14.36 0 6.267 1.176 11.054 3.53 14.36 2.353 3.307 6.02 4.94 11 4.9 4.86 0 8.45-1.633 10.77-4.9 2.32-3.266 3.496-8.053 3.53-14.36 0-6.306-1.177-11.11-3.53-14.41-2.354-3.3-5.947-4.95-10.78-4.95h.01Zm71 1a15.192 15.192 0 0 0-6-1.2 13.468 13.468 0 0 0-5.75 1.2 11.497 11.497 0 0 0-4.39 3.65 17.077 17.077 0 0 0-2.79 6.15 35.012 35.012 0 0 0-1 8.77 40.774 40.774 0 0 0 .8 8.72 17.846 17.846 0 0 0 2.39 5.81 9.278 9.278 0 0 0 3.76 3.25c1.578.68 3.281 1.02 5 1a14.386 14.386 0 0 0 7.46-1.82 22.157 22.157 0 0 0 5.81-5.18v-26.28a13.79 13.79 0 0 0-5.29-4.1v.03Zm282.56-2c-3.454 0-6.054.854-7.8 2.56a9.128 9.128 0 0 0-2.56 6.84 11.31 11.31 0 0 0 .63 3.82 9.183 9.183 0 0 0 1.94 3.08 9.571 9.571 0 0 0 3.25 2 14 14 0 0 0 4.56.68 13.683 13.683 0 0 0 4.56-.68 9.006 9.006 0 0 0 3.19-2 7.658 7.658 0 0 0 1.94-3c.465-1.236.695-2.549.68-3.87a9.006 9.006 0 0 0-2.62-6.84c-1.727-1.74-4.317-2.61-7.77-2.61v.02Zm-11.85 48.82a6.337 6.337 0 0 0-1.42 4.1 5.678 5.678 0 0 0 .74 2.85c.6.98 1.444 1.786 2.45 2.34a14.448 14.448 0 0 0 4.39 1.48c4.411.777 8.926.757 13.33-.06a14.878 14.878 0 0 0 4.67-1.65 6.793 6.793 0 0 0 2.73-2.51 6.004 6.004 0 0 0 .85-3.13 3.701 3.701 0 0 0-1-2.73 7.011 7.011 0 0 0-2.79-1.71 19.415 19.415 0 0 0-4.16-.91 68.34 68.34 0 0 0-5-.4c-1.774-.08-3.597-.173-5.47-.28a60.304 60.304 0 0 1-5.47-.46 13.577 13.577 0 0 0-3.85 3.05v.02Zm166.72 61.91-672.15-6 192.48-414.54 161.26 141.11-58.16 66.47-19.6-17.15-20.7 23.65 43.26 37.85 87.36-99.84-.28-.24 38.92-44.48 247.61 313.17Zm-528.36-252.21 23.66 20.69 60.37-69 46.56 40.73 20.69-23.69-70.21-61.43-81.07 92.7Zm-13.66 182.36-4-5.13a2.858 2.858 0 0 0-2.56-1.31 3.77 3.77 0 0 0-2.39.85 50.5 50.5 0 0 1-2.45 1.82 18.923 18.923 0 0 1-3.53 1.82 15.228 15.228 0 0 1-5.41.8 14.08 14.08 0 0 1-6-1.25 12.745 12.745 0 0 1-4.56-3.76 18.477 18.477 0 0 1-2.91-6.15 35.986 35.986 0 0 1-.06-16.35 17.617 17.617 0 0 1 2.73-6.1 12.298 12.298 0 0 1 4.67-3.82 16.66 16.66 0 0 1 11.34-.68c1.194.358 2.342.855 3.42 1.48a42.094 42.094 0 0 1 2.45 1.48c.63.404 1.361.622 2.11.63a2.697 2.697 0 0 0 1.71-.46 6.52 6.52 0 0 0 1.25-1.25l3.7-5.13a28.014 28.014 0 0 0-8.89-6 28.784 28.784 0 0 0-11.45-2.11 30.637 30.637 0 0 0-12.23 2.25 24.785 24.785 0 0 0-8.89 6.32 27 27 0 0 0-5.47 9.51 40.447 40.447 0 0 0 .23 24.73 28.575 28.575 0 0 0 5.7 9.46 24.402 24.402 0 0 0 8.37 5.92 26.24 26.24 0 0 0 10.2 2 41.926 41.926 0 0 0 6.15-.46 27.557 27.557 0 0 0 11.71-4.54 26.194 26.194 0 0 0 5.06-4.57Zm62.4-20.62a36.025 36.025 0 0 0-2.05-12.48 26.078 26.078 0 0 0-5.87-9.46 25.577 25.577 0 0 0-9.12-6 31.668 31.668 0 0 0-11.79-2.11 32.253 32.253 0 0 0-11.91 2.11 26.141 26.141 0 0 0-9.17 6 27.134 27.134 0 0 0-5.87 9.46 39.14 39.14 0 0 0 0 25 27.725 27.725 0 0 0 5.87 9.51 25.74 25.74 0 0 0 9.17 6 32.248 32.248 0 0 0 11.92 2.16c4.028.054 8.03-.662 11.79-2.11a25.182 25.182 0 0 0 9.12-6 26.643 26.643 0 0 0 5.87-9.51 36.162 36.162 0 0 0 2.04-12.57Zm61.54-55.32h-14.11v30.88a21.48 21.48 0 0 0-6.21-4.16 20.011 20.011 0 0 0-8.37-1.6 22.635 22.635 0 0 0-10.37 2.39 23.355 23.355 0 0 0-7.92 6.38 29.384 29.384 0 0 0-5.07 9.68 39.853 39.853 0 0 0-1.77 12.08 48.166 48.166 0 0 0 1.54 12.76 28.784 28.784 0 0 0 4.44 9.4 19.908 19.908 0 0 0 6.89 5.75 19.332 19.332 0 0 0 8.77 2 22.494 22.494 0 0 0 5.7-.68 20.818 20.818 0 0 0 5-1.82 23.644 23.644 0 0 0 4.33-2.85 34.945 34.945 0 0 0 3.82-3.7l1.2 5.64a3.307 3.307 0 0 0 3.53 2.56h8.6v-84.71Zm24.82 57.2H504a2.865 2.865 0 0 0 2.62-1.08c.567-1.369.8-2.853.68-4.33a30.364 30.364 0 0 0-1.94-11.22 23.241 23.241 0 0 0-5.24-8.32 22.014 22.014 0 0 0-8-5.18 28.622 28.622 0 0 0-10.2-1.77 29.295 29.295 0 0 0-11.79 2.28 26.338 26.338 0 0 0-8.83 6.21 26.929 26.929 0 0 0-5.53 9.17 32.11 32.11 0 0 0-1.94 11.22 38.135 38.135 0 0 0 2.17 13.56 28.398 28.398 0 0 0 6.1 9.8 25.881 25.881 0 0 0 9.12 6 31.619 31.619 0 0 0 11.34 2 45.477 45.477 0 0 0 6.32-.46 33.77 33.77 0 0 0 6.42-1.57 31.122 31.122 0 0 0 6.1-3 24.095 24.095 0 0 0 5.24-4.61l-4-5.13a2.926 2.926 0 0 0-1.15-.986 2.922 2.922 0 0 0-1.49-.274 5.61 5.61 0 0 0-2.73.8 71.226 71.226 0 0 1-3.25 1.77 26.151 26.151 0 0 1-4.33 1.77 19.058 19.058 0 0 1-5.87.8 18.367 18.367 0 0 1-6.27-1 13.442 13.442 0 0 1-4.84-3.19 16.269 16.269 0 0 1-3.3-5.41 28 28 0 0 1-1.63-7.85h.04Zm103.71-3.25a42.7 42.7 0 0 0-1.53-11.91 26.288 26.288 0 0 0-4.44-9 19.136 19.136 0 0 0-7-5.75 20.358 20.358 0 0 0-9.12-2c-3.418-.062-6.8.699-9.86 2.22a28.145 28.145 0 0 0-7.81 5.92v-33.43h-14.06v84.66H527a3.5 3.5 0 0 0 2.22-.63 3.462 3.462 0 0 0 1.2-2.11l.63-3.93a33.339 33.339 0 0 0 3 3.13 18.733 18.733 0 0 0 3.42 2.34 17.478 17.478 0 0 0 4.1 1.48c1.637.393 3.316.585 5 .57a22.467 22.467 0 0 0 18.12-8.66 29.748 29.748 0 0 0 5.07-10 44.407 44.407 0 0 0 1.73-12.9h.04Zm21.8 3.25h36.18a2.865 2.865 0 0 0 2.62-1.08c.567-1.369.8-2.853.68-4.33a30.384 30.384 0 0 0-1.94-11.22 23.241 23.241 0 0 0-5.24-8.32 22.014 22.014 0 0 0-8-5.18 28.622 28.622 0 0 0-10.2-1.77 29.295 29.295 0 0 0-11.79 2.28 26.338 26.338 0 0 0-8.83 6.21 26.929 26.929 0 0 0-5.53 9.17 32.11 32.11 0 0 0-1.94 11.22 38.135 38.135 0 0 0 2.22 13.56 28.398 28.398 0 0 0 6.1 9.8 25.881 25.881 0 0 0 9.12 6 31.619 31.619 0 0 0 11.34 2 45.477 45.477 0 0 0 6.32-.46 33.763 33.763 0 0 0 6.44-1.54 31.122 31.122 0 0 0 6.1-3 24.095 24.095 0 0 0 5.24-4.61l-4-5.13a2.913 2.913 0 0 0-2.62-1.31 5.599 5.599 0 0 0-2.73.8 71.226 71.226 0 0 1-3.25 1.77 26.151 26.151 0 0 1-4.33 1.77 19.058 19.058 0 0 1-5.87.8 18.367 18.367 0 0 1-6.27-1 13.442 13.442 0 0 1-4.84-3.19 16.269 16.269 0 0 1-3.3-5.41 28.025 28.025 0 0 1-1.71-7.83h.03Zm85.08-30.31a10.874 10.874 0 0 0-6.49-1.77c-3.224-.072-6.37.99-8.89 3a25.491 25.491 0 0 0-6.55 8.2l-.8-6.61a4.385 4.385 0 0 0-1.14-2.73 4.43 4.43 0 0 0-3-.8h-8.26v58.45h14.02v-36a32.756 32.756 0 0 1 2.05-4.16 13.81 13.81 0 0 1 2.56-3.08 10.533 10.533 0 0 1 3.3-2 11.803 11.803 0 0 1 4.16-.68c1.089.001 2.176.094 3.25.28.845.158 1.701.251 2.56.28a2.267 2.267 0 0 0 1.42-.4 2.79 2.79 0 0 0 .85-1.48l.96-10.5Zm57.74 6.55v-5.24h-16.84a24.293 24.293 0 0 0-6.1-2.22 29.36 29.36 0 0 0-7-.8 31.548 31.548 0 0 0-9.29 1.31 22.151 22.151 0 0 0-7.35 3.82 17.643 17.643 0 0 0-4.84 6 17.435 17.435 0 0 0-1.71 7.8 17.178 17.178 0 0 0 2.51 9.34 18.663 18.663 0 0 0 7 6.38 17.109 17.109 0 0 0-3.42 2.22 13.717 13.717 0 0 0-2.39 2.56 11.15 11.15 0 0 0-1.37 2.79 8.407 8.407 0 0 0-.46 2.68 9.096 9.096 0 0 0 1.37 5.24 9.914 9.914 0 0 0 3.65 3.19 17.3 17.3 0 0 0-6.78 4.44 9.996 9.996 0 0 0-2.45 6.84 11.543 11.543 0 0 0 1.6 5.81 14.487 14.487 0 0 0 4.84 4.9 26.442 26.442 0 0 0 8.15 3.42 44.813 44.813 0 0 0 11.51 1.31 37.401 37.401 0 0 0 12-1.77 27.987 27.987 0 0 0 8.89-4.56 19.734 19.734 0 0 0 5.53-6.49 15.852 15.852 0 0 0 1.94-7.52 12.53 12.53 0 0 0-1.65-6.78 11.668 11.668 0 0 0-4.27-4.22 20.017 20.017 0 0 0-6.1-2.22 52.955 52.955 0 0 0-7-1 107.054 107.054 0 0 0-7-.34c-2.274-.033-4.307-.186-6.1-.46a14.225 14.225 0 0 1-4.33-1.14 2.782 2.782 0 0 1-1.6-2.62c0-1.366.91-2.6 2.73-3.7a32.76 32.76 0 0 0 6.44.63 29.773 29.773 0 0 0 9-1.31 22.925 22.925 0 0 0 7.29-3.82 17.787 17.787 0 0 0 6.21-17.26 16.56 16.56 0 0 0-.85-3.13l5.24-1c1.98-.38 2.97-1.406 2.97-3.08h.03Z" fill="#fff"/></g><defs><clipPath id="a"><path fill="#fff" d="M0 0h1024v1024H0z"/></clipPath></defs></svg>