<svg width="1024" height="1024" fill="none" xmlns="http://www.w3.org/2000/svg"><g clip-path="url(#a)"><path d="M512 1024c282.77 0 512-229.23 512-512S794.77 0 512 0 0 229.23 0 512s229.23 512 512 512Z" fill="#728DBE"/><path d="M559.199 672c26.2 0 52.4-5.8 75.6-14.5l49.4 75.6c-43.6 23.3-90.2 34.9-139.6 34.9-148.3 0-258.9-98.9-258.9-256 2.9-157.1 116.4-256 261.8-256 52.4 0 90.2 11.6 130.9 32l-46.5 78.5c-23.3-8.7-49.4-14.5-75.6-14.5-87.3 0-157.1 55.3-157.1 160 0 98.9 66.9 160 160 160Z" fill="#fff"/></g><defs><clipPath id="a"><path fill="#fff" d="M0 0h1024v1024H0z"/></clipPath></defs></svg>