<svg width="1024" height="1024" fill="none" xmlns="http://www.w3.org/2000/svg"><g clip-path="url(#a)"><path d="M512 1024c282.77 0 512-229.23 512-512S794.77 0 512 0 0 229.23 0 512s229.23 512 512 512Z" fill="#FF837D"/><path d="M516.79 556.119v32.36a28.212 28.212 0 0 1-14 24.45l-27.5 15.94a24.737 24.737 0 0 0 9.39-9.7 26.66 26.66 0 0 1-6.6 7.73c13.25-10.35 15.3-35.63-1-45.07l-43.78-25.33a525.805 525.805 0 0 1 38.53 36c10.22 11.72 3.45 36.29 3.45 36.29a21.786 21.786 0 0 0 2.51-1.67 22.525 22.525 0 0 1-2.25 1.54l-89.36 51.78a10.467 10.467 0 0 1-13.688-3.352 10.47 10.47 0 0 1-1.732-4.798 123.342 123.342 0 0 1 7.12-52.47 120.105 120.105 0 0 1 55.37-63.27l-65.9-38.15a237.784 237.784 0 0 1-83.395-83.524A237.778 237.778 0 0 1 251 321.539l245.74 141.79a45.906 45.906 0 0 1 20.5 38.07s-.48 54.15-.45 54.72ZM799 702.459l-245.73-141.79a45.9 45.9 0 0 1-20.5-38.07s.48-54.14.44-54.72v-32.35a28.207 28.207 0 0 1 14-24.44l27.5-15.95a24.743 24.743 0 0 0-9.39 9.71 25.592 25.592 0 0 1 9.18-9.49l89.36-51.78a10.519 10.519 0 0 1 15.42 8.15 123.438 123.438 0 0 1-7.12 52.47 120.109 120.109 0 0 1-55.37 63.27l65.86 38.13A237.745 237.745 0 0 1 799 702.459Zm-182.22-234.9a526.444 526.444 0 0 1-38.53-36c-10.22-11.72-3.45-36.29-3.45-36.29-15.73 8.73-19.23 36.85-1.79 47l43.77 25.29Z" fill="#fff"/></g><defs><clipPath id="a"><path fill="#fff" d="M0 0h1024v1024H0z"/></clipPath></defs></svg>