<svg width="1024" height="1024" fill="none" xmlns="http://www.w3.org/2000/svg"><g clip-path="url(#a)"><path d="M512 1024c282.77 0 512-229.23 512-512S794.77 0 512 0 0 229.23 0 512s229.23 512 512 512Z" fill="#9ABEFF"/><path d="M767.94 283.172c-28.94 4.8-56.43 9.8-82.47 15h-.17c-225.64 37.393-362.307 89.603-410 156.63-13.207 18.547-19.594 38.233-19.16 59.06v6.68c-.474 18.48 5.913 36.35 19.16 53.61 42.466 55.393 155.553 104.48 339.26 147.26l.29.08.31.08c24.353 5.84 50.036 12.263 77.05 19.27l-.71-.73c-207.214-163.567-181.734-315.88 76.44-456.94ZM494 511.372c-5.77 58.7 17.42 119.06 69 179.95-146.58-38.32-238.77-81.07-274.35-127.41-10.92-14.24-16.05-28.27-15.65-42.91v-7.46c-.36-17.26 4.89-33.26 16-48.92 21.79-30.62 65.71-58.62 130.56-83.43 51.27-19.59 116.24-37.26 193.78-52.74-73.04 58.33-113.1 119.66-119.34 182.92Z" fill="#fff"/></g><defs><clipPath id="a"><path fill="#fff" d="M0 0h1024v1024H0z"/></clipPath></defs></svg>