<svg width="1024" height="1024" fill="none" xmlns="http://www.w3.org/2000/svg"><g clip-path="url(#a)"><path d="M512 1024c282.77 0 512-229.23 512-512S794.77 0 512 0 0 229.23 0 512s229.23 512 512 512Z" fill="#BA6561"/><path d="M665.93 391.212a4.829 4.829 0 0 1 0 6.16 4.637 4.637 0 0 1-3.72 0l-3.73-5.37-8.92-2.3c-1.48-1.547-1.48-3.6 0-6.16a5.421 5.421 0 0 1 2.598-2.127 5.424 5.424 0 0 1 3.352-.193 28.389 28.389 0 0 1 10.39 10l.03-.01Zm108.51 104.79a12.88 12.88 0 0 1 .75 3.84l-3.72 5.39v-8.46a6.432 6.432 0 0 1 2.97-.77Zm-130.07-114.79 3.7 6.16c-2 3.593-3.984 5.906-5.95 6.94l-2.22 3.07a45.988 45.988 0 0 1-2.22-7.69 2.145 2.145 0 0 1-.83-.23 2.14 2.14 0 0 1-.67-.54l-3 3.07-13.36-3.07c-2-2.58-1.51-5.4 1.47-8.46a8.865 8.865 0 0 1 4.807-2.895 8.868 8.868 0 0 1 5.583.575l12.69 3.07Zm-27.5 16.19-3.72-2.32 3-1.55.73 3.87h-.01Zm-59.48-39.3-4.45 5.39-4.47-5.39-3.72-.77 11.89-2.33.75 3.1Zm231.91 115.55c2 1.546 2.25 5.396.75 11.55l-4.45 13.1-3.72 4.62-.75-9.23a18.001 18.001 0 0 0-.73-5.39 14.403 14.403 0 0 0-.77-4.62l-9.63 4.59a8.937 8.937 0 0 1 .75 3.87 8.478 8.478 0 0 0 1.5 3.09l-10.39.77.73 3.07 2.22 2.32-3.7 8.46c-.5 4.626-1.74 7.203-3.72 7.73l-3-4.64-8.94 2.3c-1.967-2.047-2.95-3.844-2.95-5.39l-2.25-3.07 3.72-4.62c-.98-2.06-1.98-3.09-3-3.09l-3.72 1.55-3.7 9.23c-3.48 0-5.71.516-6.69 1.55l4.45 6.16 15.62 8.44.75 5.41a9.512 9.512 0 0 1 4.47 2.3 22.91 22.91 0 0 1 3 2.32 30.562 30.562 0 0 0-1.5 3.87 8.489 8.489 0 0 1-3 3.07l-6.65 4.63.75 6.16a25.334 25.334 0 0 0-10.39 7.71l-2.25 8.46c-5.447 0-8.91.516-10.39 1.55l.73 11.58-2.22-.77c-2-3.094-3.984-3.867-5.95-2.32l3 10a8.044 8.044 0 0 0-3.72.77l-1.56 1.54 3 5.39c.405 1.517.649 3.072.73 4.64a18.486 18.486 0 0 1-8.92 4.59c-2.467.533-4.45 2.336-5.95 5.41l.75 9.23c-1.48 3.606-2.72 5.92-3.72 6.94-4.947 0-8.66.517-11.14 1.55l-4.47 8.46-3.7-1.52c-2-.514-3.49-.514-4.47 0l-3 6.16c-4.46 0-7.684 1.023-9.67 3.07l-5.95 5.41 1.5-6.94c1.48-4.107.73-6.42-2.25-6.94l-3 2.3-.73 3.87-7.44 4.62-.73 8.46h-14.08l-3 5.41c-1 3.08-3.48 5.393-7.44 6.94-3.96 1.546-10.897 2.313-20.81 2.3-9.907 0-16.1.516-18.58 1.55-2.48 0-4.71 1.29-6.69 3.87a13.337 13.337 0 0 1-5.2 5.39l-11.89 3.84-3.72 6.94-5.2 3.87c-2.48 1.533-6.444 2.3-11.89 2.3l-7.44 3.87-11.14 4.59-8.19-.75a22.157 22.157 0 0 0-10.39-2.32H483.8l-4.47-3.09-8.92 1.55-4.41 6.13-6.69-4.62-5.2-5.39-11.89-.77-4.47-3.87 6.69-8.46 8.92-12.33v-8.46l10.39-11.58v-13.1a24.34 24.34 0 0 1 2.25-10.79l8.17 2.32c2-2.06 3-3.607 3-4.64a41.264 41.264 0 0 1-8.17-10l-7.44-10.78-8.92-11.55-5.95-10.8-6.69-10.78-5.2-13.1-11.2-12.3-40.89-60.08-7.44-13.1-7.42-14.65-5.95-3.84a86.205 86.205 0 0 1-11.17-18.49l-2.22-9.21-6.69-3.07-23 4.62a58.683 58.683 0 0 0-17.82 3.05l-15.61 6.16-18.61 2.3-10.39 3.87c-4.46 1.033-7.924.516-10.39-1.55l-5.22-6.16-8.17 3.09-6.75-2.31c0-5.14-.49-8.227-1.47-9.26l-6.69-9.23a32.532 32.532 0 0 0-6.69-3.87l.73-3.84h7.44a18.006 18.006 0 0 1-.73-5.39v-3.87l7.42 3.09c2.48-1.534 3.97-2.824 4.47-3.87l3-6.14 5.95.77 4.45-13.1-.73-6.94 3.72 2.3 3.7 3.87c2.48-1.034 3.97-2.064 4.47-3.09l6.69-8.46 6.67.77-2.26-5.38-4.45-5.41-6.69-2.3c2.966-4.627 9.41-7.96 19.33-10l23.78-2.3 8.17-5.39 19.33-3.87 29.73-1.55 10.39-2.3a19.003 19.003 0 0 1 11.91-.77l11.89-.77c7.926-2.047 13.623-2.564 17.09-1.55l9.67.77 13.39.77 20.06 3.87 17.84 1.52 12.64-5.39c2.98 0 6.203 2.053 9.67 6.16l7.44 5.39h15.61l5.2 6.16-.73 3.87 4.45 12.33 3-1.55 6.69-7.71 7.42 11.55-8.92-3.07c-3.467 0-5.45 2.563-5.95 7.69l7.44 1.55 3 3.87 4.45-1.55c2.48-1.034 4.96-.517 7.44 1.55 2.966 1.533 4.95 3.33 5.95 5.39l4.45 6.16h9.67a4.693 4.693 0 0 1 .73-3.09 9.402 9.402 0 0 1 1.5-2.3l1.5 7.69h3l2.22-2.3 2.25 3.87 2.22-6.19c6.446 0 10.16-.517 11.14-1.55a5.342 5.342 0 0 0-1.47-3.84l-3-3.87c0-2.56 1.983-3.584 5.95-3.07l10.39 3.09 7.44-.77 4.45 3.87 1.5 3.07c-4.46-1.034-7.44-.777-8.94.77-.967 1.013-1.21 2.81-.73 5.39l5.2 4.59c0 3.606 1.74 7.466 5.22 11.58l3-3.07.73-6.16 3 3.84h12.62c2.48 0 4.463 2.82 5.95 8.46l2.25 7.73 3 2.3 3.72-3.87 11.8 3.85 2.22-3.87 3.72-1.52a13.147 13.147 0 0 0 3.72-3.87v-3.84l-1.5-3.87 10.39 3.09a20.742 20.742 0 0 0 3.72-4.62c-.98-2.58-1.98-3.87-3-3.87l-7.42-1.52v-3.87l2.22-5.39 2.22-4.62c2.48 1.533 3.97 2.823 4.47 3.87l3.72 5.37 5.2-.75 5.2-.77 18.61 16.17 5.2-.77 5.2 6.94 4.47 2.32c-1.5 2.046-1.5 4.35 0 6.91l5.2-2.3h5.2l4.47 7.71 4.45 7.69c3.966 0 6.946.516 8.94 1.55l2.95 13.87 8.19 4.62 6.67 2.32a11.303 11.303 0 0 1-1.47 6.16l1.47 7.71 2.25 4.59-.75 5.41 3-1.55c2-2.58 3.49-4.12 4.47-4.62l3-1.55-.1.02ZM602 359.672c1.48 1.533 1.48 3.836 0 6.91-.5 1.033-1.99 1.806-4.47 2.32-1.48-1.547-1.48-3.86 0-6.94.5-1.027 1.99-1.79 4.47-2.29Zm152.4 143.27c1.48 1.546 1.48 3.6 0 6.16l-3.72 1.55-.73-5.39a4.648 4.648 0 0 1 .73-3.07c1-.514 2.24-.257 3.72.77v-.02Zm-31.22-37.73c.98 1.013 1.47 3.576 1.47 7.69a8.092 8.092 0 0 1-5.95.77c-2.467-1.534-2.957-3.847-1.47-6.94.986-2.574 2.97-3.08 5.95-1.52Zm-210.35-102.47-4.47 8.46 2.22-6.14 2.25-2.32Zm102.56 297.36-3-4.62 3-2.32c2.48.513 3.48 2.31 3 5.39l-3 1.55Zm124.15-114.8c-2.98-2.047-4.964-4.094-5.95-6.14l4.45 3.07 1.5 3.09v-.02Zm-297.36 137.13 3.7-3.84 3.72-2.32-7.42 6.16Zm319.59-199.5-2.22 4.59-.73 2.34-.75-5.41 3.7-1.52Zm-49.06-47 2.29 3.07-3 .77-3-2.32 3.71-1.52Zm6.69 132.47 1.5 2.3-2.25 1.55.75-3.87v.02Zm-274.25 130.97-.75 3.87.73-3.87h.02Zm225.25-301.22 1.45 2.32-3.7-1.55 2.22-.77h.03Zm-121.18 209.53-.75 3.09.73-3.07.02-.02Zm171.71-156.36-.75 3.07.73-3.07h.02Zm-469.04-60.86-.75 3.84.73-3.87.02.03Zm518.11 87.8a6.988 6.988 0 0 0-.75 3.09 4.693 4.693 0 0 1 .73-3.09h.02Zm-220.75-94.74-.75 3.07.73-3.07h.02Zm-10.39-.77-1.5 1.55 1.47-1.55h.03ZM767 476.002a19.795 19.795 0 0 0-2.25-10 16.788 16.788 0 0 0-5.2-6.91l-.73 10 5.2 2.32a5.229 5.229 0 0 1 0 3.84l2.98.75Zm-28.27 16.17-3.7-.77-4.45-6.94 1.47-6.16-6.69 4.64 3.72 4.59.73 2.34-8.89 3.84 5.95.77c.86.934 1.875 1.712 3 2.3.961.388 1.97.647 3 .77l5.95-5.39-.09.01Zm-14.84-13.87-3-2.3-5.22-1.55-2.22-3.87-3 3.09-2.18 5.33 5.95 2.32c2.966 0 5.196.766 6.69 2.3l2.98-5.32Zm-130.07-84-3-1.55-4.45-2.3c-2 0-3 .506-3 1.52l.73 4.64 5.22 3.07 4.5-5.38Zm89.18 164.1 1.5-9.26c0-8.22-2.98-16.954-8.94-26.2a63.677 63.677 0 0 0-19.33-22.33c-6.447-6.174-15.357-11.57-26.73-16.19l-29.73-13.07-11.17-6.94-16.36-6.16-17.09-5.39-27.5-6.16-8.94-1.55c-4.447 0-7.91.516-10.39 1.55-2 .5-2.74 2.296-2.22 5.39l8.9 17.71c4.46 8.22 8.673 13.866 12.64 16.94l6.69 4.62v4.64l7.42 9.23.73 6.16c2 1.546 3.49 2.32 4.47 2.32 2.48 1.533 5.703 5.383 9.67 11.55l8.19 10 12.62 18.49 11.17 20 5.2 15.39-1.47 10 3 4.62-3 4.62a3.001 3.001 0 0 0-.81 3.603c.19.401.467.755.81 1.037l5.2-1.55 8.92-3.87c2.48 0 6.693-1.53 12.64-4.59l16.36-7.73 23-9.23c9.433-4.034 16.13-8.117 20.09-12.25l3-7.71c0-3.594.5-6.164 1.5-7.71l-.04.02Z" fill="#fff"/></g><defs><clipPath id="a"><path fill="#fff" d="M0 0h1024v1024H0z"/></clipPath></defs></svg>