<svg width="1024" height="1024" fill="none" xmlns="http://www.w3.org/2000/svg"><g clip-path="url(#a)"><path d="M512 1024c282.77 0 512-229.23 512-512S794.77 0 512 0 0 229.23 0 512s229.23 512 512 512Z" fill="#F8C18C"/><path d="M752.299 452.498c-16.2-.5-31.5 7.5-40.3 21.1-7.1-13.2-21-21.4-36-21.1-12.2-.2-23.9 4.3-32.8 12.6l-.7-8c-.1-.8-.8-1.4-1.6-1.4h-24.2c-.9 0-1.6.7-1.6 1.6v109.6c0 .9.7 1.6 1.6 1.6h24.9c.9 0 1.6-.7 1.6-1.6v-51.7c.7-22.8 11.3-35.2 25.7-35.2 16.2 0 23.4 13.2 23.4 30.6v56.4c0 .9.7 1.6 1.6 1.6h24.9c.9 0 1.6-.7 1.6-1.6v-49.4c0-22.7 10.5-37.6 24.9-37.6 15.7 0 22.7 13.2 22.7 30.6v56.4c0 .9.7 1.6 1.6 1.6h24.1c.9 0 1.6-.7 1.6-1.6v-56.4c0-36.3-17.1-58.1-43-58.1Zm-211.8 0c-31.8 0-57.7 26.7-57.7 59.5s25.8 59.5 57.7 59.5c31.9 0 57.7-26.7 57.7-59.5s-25.9-59.5-57.7-59.5Zm0 92c-16.2 0-29.6-14.5-29.6-32.5s13.5-32.5 29.6-32.5 29.6 14.5 29.6 32.5-13.5 32.5-29.6 32.5Zm-120.1-92c-12.8-.2-25.1 4.7-34.2 13.6l-.7-8.9c-.1-.8-.7-1.5-1.6-1.4h-24.3c-.9 0-1.6.7-1.6 1.6v109.6c0 .9.7 1.6 1.6 1.6h24.9c.9 0 1.6-.7 1.6-1.6v-51.6c.7-22.9 12.8-35.3 27.2-35.3 16.2 0 24.2 13.2 24.2 30.6v56.4c0 .9.7 1.6 1.6 1.6h24.9c.9 0 1.6-.7 1.6-1.6v-56.4c0-36.4-18.4-58.2-45.2-58.2Zm-102.8 80.8c-.6-.5-1.5-.5-2.1.1-7.2 7.3-17 11.4-27.2 11.4-6.4.2-12.6-1.7-17.9-5.3l69.5-50.8c.5-.5.7-1.2.4-1.9-4.8-10.5-20.7-34.4-52.1-34.4-32.9 0-59.5 26.7-59.5 59.5 0 32.9 26.6 59.5 59.5 59.5 18.5 0 37.2-8.2 48-20.7.6-.6.5-1.6-.1-2.2l-.1-.1-18.4-15.1Zm-29.4-54.2c6.3-.2 12.5 1.7 17.6 5.6l-49.2 35.9c-5.6-20.3 11.2-41.5 31.6-41.5Z" fill="#fff"/></g><defs><clipPath id="a"><path fill="#fff" d="M0 0h1024v1024H0z"/></clipPath></defs></svg>