<svg width="1024" height="1024" fill="none" xmlns="http://www.w3.org/2000/svg"><g clip-path="url(#a)"><path d="M512 1024c282.77 0 512-229.23 512-512S794.77 0 512 0 0 229.23 0 512s229.23 512 512 512Z" fill="#FF837D"/><path d="M512.001 256c-140.9 0-255.2 114.6-255.2 256s114.3 256 255.2 256c140.9 0 255.2-114.6 255.2-256s-114.3-256-255.2-256Zm67.9 389.9h-60l-20.4-57.4h-155.8v-36.2h143l-8.2-23h-105.5V493h92.7l-9.9-27.9h-110.2v-36.2h158.1l47.9 142.1h.8l62.6-195.6h61.2l-96.3 270.5Z" fill="#fff"/></g><defs><clipPath id="a"><path fill="#fff" d="M0 0h1024v1024H0z"/></clipPath></defs></svg>