<svg width="1024" height="1024" fill="none" xmlns="http://www.w3.org/2000/svg"><g clip-path="url(#a)"><path d="M512 1024c282.77 0 512-229.23 512-512S794.77 0 512 0 0 229.23 0 512s229.23 512 512 512Z" fill="#54688C"/><path d="M767.89 339.779c-1.45 8-7.57 40.72-22.43 88.77-5.84 18.9-26.36 28.74-44.72 22.51-108.89-36.93-231-47.35-370.9-4.91-25.25 7.66-37.76 28.69-35.91 45.4.09.88-.31 1.19-.58.54a767.075 767.075 0 0 1-35.71-109.09c-5.53-22.45 3-49.08 34.52-58.71 147.81-45.13 315-42.63 474.18 12.89a2.31 2.31 0 0 1 1.55 2.6Zm-369.95 102.86c-18.44 3.9-43.83 9.88-62.7 16.33-38 13-36.38 59.17-16 74 1.4-8.6 10.53-20.24 20.77-24.19a435.573 435.573 0 0 1 119.92-27.36 220.004 220.004 0 0 1-61.99-38.78Zm302.45 92.73c-109.87-52.61-242-56.41-351-14-17.94 7-29.36 28.93-17.93 49.79a803.965 803.965 0 0 0 67.09 102.44c-3.6-12.45 2.8-35.55 27.15-43 67-20.67 137.64-11.91 184.62 7a35.339 35.339 0 0 0 42.45-13.66c23.23-34.62 44.16-76.29 48.77-85.66a2 2 0 0 0-1.15-2.9v-.01Zm-109.08 165.63c-12-3.42-41.71-26.8-53.24-38.34-7.3-7.29-17.94-17.68-29.32-30.13-25.58 0-50.61 2.65-77.29 11.06-24.52 7.73-26.92 36.51-16.17 51.25 18.47 22.74 31.16 35.16 51.71 56.33 21.41 22.06 59.5 22.62 81.52.48 16-16.15 25.86-26.74 43.95-47.21a2.094 2.094 0 0 0 .419-2.057 2.096 2.096 0 0 0-1.579-1.383Z" fill="#fff"/></g><defs><clipPath id="a"><path fill="#fff" d="M0 0h1024v1024H0z"/></clipPath></defs></svg>