<svg width="1024" height="1024" fill="none" xmlns="http://www.w3.org/2000/svg"><g clip-path="url(#a)"><path d="M512 1024c282.77 0 512-229.23 512-512S794.77 0 512 0 0 229.23 0 512s229.23 512 512 512Z" fill="#54688C"/><path d="M551.749 768V534.78h78.62l11.78-91.29h-90.4v-58.14c0-26.37 7.32-44.34 45.13-44.34h47.92v-81.42c-8.34-1.11-36.94-3.59-70.23-3.59-69.5 0-117.06 42.4-117.06 120.31v67.18h-78.32v91.29h78.33V768h94.23Z" fill="#fff"/></g><defs><clipPath id="a"><path fill="#fff" d="M0 0h1024v1024H0z"/></clipPath></defs></svg>