<svg width="1024" height="1024" viewBox="0 0 1024 1024" fill="none" xmlns="http://www.w3.org/2000/svg">
<g clip-path="url(#clip0_3_542)">
<path d="M512 1024C794.77 1024 1024 794.77 1024 512C1024 229.23 794.77 0 512 0C229.23 0 0 229.23 0 512C0 794.77 229.23 1024 512 1024Z" fill="#54688C"/>
<path d="M551.749 768V534.78H630.369L642.149 443.49H551.749V385.35C551.749 358.98 559.069 341.01 596.879 341.01H644.799V259.59C636.459 258.48 607.859 256 574.569 256C505.069 256 457.509 298.4 457.509 376.31V443.49H379.189V534.78H457.519V768H551.749Z" fill="white"/>
</g>
<defs>
<clipPath id="clip0_3_542">
<rect width="1024" height="1024" fill="white"/>
</clipPath>
</defs>
</svg>
