<svg width="1024" height="1024" viewBox="0 0 1024 1024" fill="none" xmlns="http://www.w3.org/2000/svg">
<g clip-path="url(#clip0_3_545)">
<path d="M512 1024C794.77 1024 1024 794.77 1024 512C1024 229.23 794.77 0 512 0C229.23 0 0 229.23 0 512C0 794.77 229.23 1024 512 1024Z" fill="#F8C18C"/>
<path d="M764.1 489.5C763.4 484.9 762.6 482 762.6 482C762.6 482 760.8 484.2 757.7 488.2C756.8 476.9 754.8 465.7 751.7 454.8C747.7 441.1 742.6 427.8 736.2 415.3C732.2 406.9 727.6 398.7 722.1 391.2C719.2 386.8 716.8 383.5 716.4 382.8C706.9 367.3 696.3 358.1 683.7 340.4C675.7 326.9 670.2 311.9 667.6 296.4C664.1 305.7 661.4 315.4 659.6 325.1C647 312.3 635.7 303 629.1 296.8C596 265.9 599.9 250 599.9 250C599.9 250 538 318.9 564.8 390.7C574.1 415 590 436.4 611 452.1C636.8 473.3 664.7 490.1 679.3 533.2C667.6 510.4 649.7 491.7 627.8 478.6C634.4 494.3 637.7 510.9 637.5 527.9C637.5 592.4 585.1 644.8 520.4 644.8C511.8 644.8 502.9 643.9 494.6 641.9C484.4 639.9 474.7 636.6 465.7 632C452 623.8 440.1 613 430.8 600V599.8C431.9 600.2 432.6 600.5 432.8 600.5C437.7 602.3 442.5 603.6 447.6 604.5C467.5 608.7 488 606.3 506.4 597.7C525 587.3 536.2 579.8 545.3 582.7C554.4 585.6 561.2 577 555 567.9C544 553.5 525.8 546.7 508.2 549.8C489.6 552.5 472.6 565.5 448.6 552.9C446.8 552 445.5 551.1 444 550.2C442.5 549.1 449.3 551.5 447.5 550.4C442.2 547.7 437.1 544.9 432.3 541.3C432.1 541.1 436.1 542.4 435.6 542.2C429.4 538 423.9 532.5 419.7 526.1C415.5 518.4 415.1 508.9 418.6 500.7C421 496.5 424.3 493.4 428.5 491.4C431.6 492.9 433.6 494.1 433.6 494.1C433.6 494.1 432.1 491.4 431.4 490.1C431.6 489.9 431.8 490.1 432.3 489.9C435 491 440.9 494.1 444.2 496.1C446.4 497.2 448.2 499 449.7 501C449.7 501 450.8 500.6 449.9 498.1C448.8 495.2 446.8 492.8 444.2 491.3H444.6C447 492.6 449.2 494 451.4 495.7C453.4 490.8 454.5 486 454.3 480.9C454.5 478 454.1 475.2 453.2 472.7C452.3 470.9 453.6 470.3 455.2 472C455 470.7 454.5 469.3 453.9 468C453.9 468 454.8 466.7 455.2 466.5C456.3 465.4 457.4 464.3 458.7 463.6C466.4 458.7 474.4 454.5 482.8 451.2C489.6 448.3 495.2 445.9 496.3 445.2C498.1 444.1 499.6 443 501.2 441.7C506.9 436.8 510.7 430.2 512 422.9C512.2 421.8 512.2 420.9 512.2 420V418.2C511.3 414.4 504.9 411.8 471.6 408.5C459.9 406.7 450.4 397.9 447.7 386.2V386.4C447.3 387.5 446.8 388.8 446.4 390.2C446.8 388.9 447.3 387.8 447.7 386.4V386.2C454.1 369.6 465.6 355.3 480.4 345.6C481.3 344.9 477.1 345.8 478 345.2C480.7 343.9 483.5 342.5 486.6 341.4C488.1 341 480.2 337.9 473.1 338.5C468.9 338.7 464.7 339.8 460.7 341.4C462.5 340.1 467.3 338.3 466.2 338.3C457.1 339.8 448.5 343.2 440.8 347.8C440.8 346.9 441 346.3 441.2 345.6C435 348.3 429.5 352.4 425.5 357.8V354.9C422.6 357.1 420.2 359.5 417.8 362.2H417.6C399.3 355.1 379.4 353.4 359.9 357.3L359.7 357.1H359.9C355.9 354 352.4 350 349.7 345.6L349.5 345.8L349.1 345.4C347.8 343.6 346.7 341.4 345.3 339C344.2 337.5 343.3 335.5 342.2 333.5C342.2 333.5 342.2 333.3 342 333.3C341.8 333.3 341.3 335.3 341.1 334.6C337.8 325.8 336 316.3 336.5 307H336.3C330.8 310.8 326.6 316.1 324.6 322.5C323.5 324.7 322.8 325.8 322.2 327.1V326.4L322.9 323.1C322.7 323.3 322.7 323.5 322.5 323.8C321 325.6 319.6 327.6 318.5 329.8C317.4 331.8 316.5 334 315.8 336.2V335.1C315.8 334.2 316 332.9 315.8 333.3L315.6 334C308.5 349.7 303.9 366.5 302.3 383.7C301.9 386.8 301.9 389.7 301.9 392.5V392.9C296.8 398.4 292.4 404.4 288.4 410.8C275.6 432.4 266.1 455.9 260.1 480.4C264.3 471.1 269.4 462.1 275.3 453.7C263.8 482.6 258.1 513.1 258.1 544.1C260.1 535 262.5 526.2 265.4 517.4C263.6 553.9 270.7 590.3 285.9 623.7C306.4 669.6 340.5 708.3 383.8 734.4C401.3 746.3 420.5 755.6 440.6 761.8C443.3 762.7 446.1 763.8 448.8 764.7C447.9 764.3 447.3 763.8 446.4 763.6C470 770.2 495 774 520 774C608.6 774 637.7 740.2 640.6 736.9C644.8 732.9 648.6 728.3 651 722.8C652.8 722.1 654.3 721.5 656.1 720.6L657.2 720.2C658.5 719.5 659.2 719.3 659.2 719.3C672.7 712.9 685.3 705.2 696.8 695.9C714 683.5 726.2 665.4 731.5 644.9C734.8 637.4 734.8 629.2 732.2 621.5C733.5 619.3 734.6 617.3 734.9 616.9C753.9 586.4 764.7 551.5 766.3 515.5V512.4C766 504.7 765.4 497 764.1 489.5Z" fill="white"/>
</g>
<defs>
<clipPath id="clip0_3_545">
<rect width="1024" height="1024" fill="white"/>
</clipPath>
</defs>
</svg>
