<svg width="1024" height="1024" fill="none" xmlns="http://www.w3.org/2000/svg"><g clip-path="url(#a)"><path d="M512 1024c282.77 0 512-229.23 512-512S794.77 0 512 0 0 229.23 0 512s229.23 512 512 512Z" fill="#96DFD3"/><path d="M657.17 374.431a31.905 31.905 0 0 0-35.444-.986 31.905 31.905 0 0 0-9.046 8.556c-12.5 17.67-26.34 30.77-42.09 39.82a110.605 110.605 0 0 1-4.41 2.4c-1.37.71-2.76 1.39-4.16 2-14.7 6.81-31.08 10.39-50 11-18.93-.57-35.32-4.15-50-11-19.37-9-35.94-23.45-50.67-44.26a31.911 31.911 0 0 0-44.485-7.615 31.915 31.915 0 0 0-7.615 44.485c21 29.73 46.59 51.7 75.94 65.3a173.658 173.658 0 0 0 17.67 7.05c-24.93 18-51.88 43.23-64.79 77.82-13.4 35.9-13.23 74.76.47 109.44 13.11 33.35 37.46 60.41 68.46 76.27 34.58 17.68 78.6 17.72 117.75.09 41.08-18.49 67.88-52.35 71.69-90.59 4-40.25-15.3-76.08-49.17-91.3-35.08-15.76-74.66-4.51-100.82 28.64a31.896 31.896 0 0 0-6.642 23.504 31.903 31.903 0 0 0 11.922 21.316 31.921 31.921 0 0 0 23.504 6.643 31.914 31.914 0 0 0 21.316-11.923c7.77-9.85 16.73-13.48 24.58-10 6.69 3 13.29 11.62 11.79 26.76-1.5 15-14.67 29.83-34.37 38.7-21.32 9.59-45.28 10.08-62.51 1.27-17.23-8.81-30.77-24-38.2-42.82-5.58-14.12-10.12-36.64 0-63.66 7.57-20.26 26.64-39.38 60-60.15 14.17-8.82 29.37-17 44.06-25 16.95-9.17 33-17.86 47.11-27.18 25.1-13.73 47.18-33.92 65.75-60.16a31.91 31.91 0 0 0-7.61-44.48l.02.06Zm-162.24-60.08a21.638 21.638 0 0 1 36.009 9.025 21.641 21.641 0 0 1-10.511 25.365 21.632 21.632 0 0 1-14.423 2.137 21.634 21.634 0 0 1-12.505-7.498 21.634 21.634 0 0 1-4.91-13.729 21.488 21.488 0 0 1 6.34-15.3Zm15.3 89a73.658 73.658 0 0 0 64.978-108.374 73.657 73.657 0 0 0-86.341-35.777 73.658 73.658 0 0 0-51.932 77.703 73.655 73.655 0 0 0 21.215 44.868 73.166 73.166 0 0 0 52.08 21.54v.04Z" fill="#fff"/></g><defs><clipPath id="a"><path fill="#fff" d="M0 0h1024v1024H0z"/></clipPath></defs></svg>