<svg width="1024" height="1024" fill="none" xmlns="http://www.w3.org/2000/svg"><g clip-path="url(#a)"><path d="M512 1024c282.77 0 512-229.23 512-512S794.77 0 512 0 0 229.23 0 512s229.23 512 512 512Z" fill="#FF837D"/><path d="m456.56 507.931-4.48-4.48a5.338 5.338 0 0 0-5.827-1.188 5.341 5.341 0 0 0-3.313 4.938v63.71a5.343 5.343 0 0 0 1.593 3.771 5.33 5.33 0 0 0 3.797 1.529H512a5.335 5.335 0 0 0 4.939-3.313c.402-.98.503-2.057.291-3.094a5.33 5.33 0 0 0-1.48-2.733 5.234 5.234 0 0 1-1.169-5.784 5.238 5.238 0 0 1 1.169-1.716l67.82-68a5.25 5.25 0 0 0 1.58-3.75 5.243 5.243 0 0 0-1.58-3.75l-6.17-6.07a5.34 5.34 0 0 1 3.75-9.14h63.71a5.38 5.38 0 0 1 5.39 5.3v63.71a5.342 5.342 0 0 1-6.407 5.231 5.34 5.34 0 0 1-2.733-1.481l-4.3-4.3a5.25 5.25 0 0 0-3.75-1.58 5.247 5.247 0 0 0-3.75 1.58L515 651.531a5.344 5.344 0 0 1-5.85 1.169 5.333 5.333 0 0 1-1.74-1.169l-139.87-139.85a5.349 5.349 0 0 1 0-7.59l193.77-193.41a5.346 5.346 0 0 0 1.579-3.795 5.35 5.35 0 0 0-1.579-3.795l-45.52-45.52a5.357 5.357 0 0 0-5.85-1.168 5.346 5.346 0 0 0-1.74 1.168l-250.62 250.64a5.36 5.36 0 0 0-1.579 3.795 5.345 5.345 0 0 0 1.579 3.795l250.63 250.62a5.333 5.333 0 0 0 3.795 1.579 5.349 5.349 0 0 0 3.795-1.579l250.62-250.63a5.346 5.346 0 0 0 1.579-3.795 5.35 5.35 0 0 0-1.579-3.795L618.9 360.861a5.357 5.357 0 0 0-5.85-1.168 5.346 5.346 0 0 0-1.74 1.168l-147.16 147.14a5.44 5.44 0 0 1-7.59-.09v.02Z" fill="#fff"/></g><defs><clipPath id="a"><path fill="#fff" d="M0 0h1024v1024H0z"/></clipPath></defs></svg>