<svg width="1024" height="1024" fill="none" xmlns="http://www.w3.org/2000/svg"><g clip-path="url(#a)"><path d="M512 1024c282.77 0 512-229.23 512-512S794.77 0 512 0 0 229.23 0 512s229.23 512 512 512Z" fill="#F8C18C"/><path d="m766.71 552.841-28.61-88.16-56.8-174.58a9.705 9.705 0 0 0-9.24-6.748 9.7 9.7 0 0 0-9.24 6.748L606 464.641H417.64l-56.77-174.54c-2.9-9-15.65-9-18.53-.06l-56.8 174.59-28.61 88.22a19.691 19.691 0 0 0 7.07 21.8l247.84 180 247.84-180a19.61 19.61 0 0 0 7-21.83" fill="#fff"/></g><defs><clipPath id="a"><path fill="#fff" d="M0 0h1024v1024H0z"/></clipPath></defs></svg>