<svg width="1024" height="1024" viewBox="0 0 1024 1024" fill="none" xmlns="http://www.w3.org/2000/svg">
<g clip-path="url(#clip0_3_569)">
<path d="M512 1024C794.77 1024 1024 794.77 1024 512C1024 229.23 794.77 0 512 0C229.23 0 0 229.23 0 512C0 794.77 229.23 1024 512 1024Z" fill="#73ADA4"/>
<path d="M663.66 537.588C659.45 537.028 653.66 536.298 649.86 535.788C653.73 527.408 656.07 522.578 656.07 522.578C656.3 520.978 660.64 513.428 662.39 507.198C663.97 502.118 664.87 492.758 664.87 491.198C664.87 475.048 659.22 460.418 649.75 449.798C645.042 444.416 639.238 440.102 632.728 437.145C626.218 434.187 619.151 432.654 612 432.648C608.93 432.648 605.27 432.808 596.88 434.448C588.29 436.568 584.21 437.768 576.61 439.768C563.77 443.768 558.53 445.768 540.16 454.598C539.421 454.971 538.771 455.497 538.254 456.143C537.736 456.788 537.363 457.537 537.16 458.338C536.948 459.052 536.85 459.794 536.87 460.538L536.12 528.848H524.65V454.238C524.657 452.652 524.91 451.077 525.4 449.568C526.2 447.038 528.09 444.568 531.26 442.498C533.74 440.878 536.26 439.428 538.74 438.058C537.262 437.076 536.064 435.727 535.264 434.143C534.463 432.559 534.087 430.795 534.172 429.023C534.257 427.25 534.8 425.53 535.749 424.03C536.697 422.53 538.018 421.302 539.584 420.465C541.149 419.629 542.904 419.213 544.678 419.257C546.452 419.302 548.184 419.806 549.705 420.72C551.226 421.634 552.484 422.927 553.356 424.473C554.228 426.018 554.684 427.764 554.68 429.538C554.68 430.058 554.55 430.538 554.52 431.078C554.729 430.989 554.942 430.912 555.16 430.848C557.43 430.068 559.93 429.298 562.38 428.558C560.809 427.672 559.5 426.387 558.585 424.833C557.67 423.279 557.182 421.51 557.17 419.707C557.158 417.903 557.623 416.128 558.517 414.562C559.411 412.996 560.703 411.694 562.262 410.787C563.821 409.88 565.592 409.401 567.396 409.399C569.199 409.396 570.972 409.87 572.533 410.773C574.095 411.675 575.39 412.974 576.289 414.538C577.187 416.101 577.657 417.875 577.65 419.678C577.616 421.355 577.184 423.001 576.39 424.478C581.39 423.108 584.88 422.178 584.88 422.178C585.35 422.068 585.83 421.968 586.37 421.848C584.701 420.735 583.397 419.156 582.619 417.307C581.842 415.458 581.625 413.421 581.997 411.45C582.369 409.479 583.313 407.661 584.711 406.223C586.109 404.785 587.899 403.789 589.858 403.361C591.818 402.933 593.86 403.091 595.731 403.815C597.601 404.539 599.217 405.798 600.377 407.434C601.537 409.07 602.19 411.012 602.255 413.017C602.319 415.021 601.793 417.001 600.74 418.708C600.74 418.708 600.89 418.708 600.94 418.638C604.648 418.096 608.393 417.855 612.14 417.918C610.851 416.183 610.15 414.08 610.14 411.918C610.131 410.196 610.558 408.499 611.38 406.985C612.202 405.471 613.393 404.19 614.842 403.259C616.292 402.328 617.953 401.778 619.672 401.661C621.39 401.543 623.111 401.861 624.673 402.586C626.236 403.311 627.591 404.418 628.611 405.806C629.632 407.194 630.285 408.817 630.511 410.524C630.737 412.232 630.529 413.969 629.904 415.575C629.28 417.18 628.26 418.602 626.94 419.708C630.755 420.629 634.47 421.925 638.03 423.578C637.703 422.611 637.531 421.599 637.52 420.578C637.507 418.63 638.049 416.719 639.082 415.068C640.115 413.417 641.596 412.093 643.354 411.253C645.111 410.413 647.071 410.09 649.005 410.323C650.939 410.555 652.766 411.333 654.274 412.566C655.782 413.799 656.908 415.436 657.52 417.285C658.132 419.134 658.205 421.12 657.731 423.009C657.256 424.898 656.254 426.613 654.84 427.953C653.427 429.294 651.662 430.204 649.75 430.578C652.879 432.94 655.797 435.57 658.47 438.438V438.108C658.47 436.083 659.071 434.103 660.196 432.419C661.321 430.735 662.92 429.423 664.791 428.648C666.662 427.873 668.721 427.67 670.708 428.065C672.694 428.46 674.519 429.435 675.951 430.868C677.383 432.3 678.358 434.124 678.753 436.111C679.148 438.097 678.946 440.156 678.171 442.027C677.395 443.898 676.083 445.497 674.399 446.623C672.715 447.748 670.735 448.348 668.71 448.348C667.749 448.341 666.794 448.186 665.88 447.888C667.809 450.857 669.527 453.958 671.02 457.168C672.084 455.543 673.584 454.25 675.348 453.437C677.112 452.624 679.069 452.322 680.996 452.568C682.923 452.813 684.742 453.596 686.245 454.826C687.749 456.055 688.877 457.683 689.499 459.523C690.122 461.363 690.215 463.341 689.768 465.231C689.32 467.121 688.351 468.848 686.969 470.213C685.588 471.579 683.85 472.528 681.955 472.953C680.059 473.379 678.082 473.263 676.25 472.618C676.867 475.466 677.341 478.343 677.67 481.238C678.914 480.728 680.245 480.463 681.59 480.458C684.309 480.458 686.916 481.538 688.838 483.46C690.76 485.383 691.84 487.99 691.84 490.708C691.84 493.427 690.76 496.034 688.838 497.956C686.916 499.878 684.309 500.958 681.59 500.958C680.069 500.967 678.567 500.625 677.2 499.958C677.04 501.048 676.86 502.208 676.73 503.358C676.4 504.538 676.14 505.598 675.86 506.578C678.568 506.748 681.097 507.986 682.892 510.021C684.687 512.056 685.6 514.72 685.43 517.428C685.26 520.136 684.022 522.666 681.987 524.46C679.952 526.255 677.288 527.168 674.58 526.998C672.534 527.017 670.533 526.402 668.85 525.238C667.46 528.518 665.65 532.748 663.66 537.598M511.95 529.598C509.343 529.598 506.843 528.563 504.999 526.719C503.156 524.876 502.12 522.375 502.12 519.768C502.12 517.161 503.156 514.661 504.999 512.817C506.843 510.974 509.343 509.938 511.95 509.938H512.05C514.657 509.938 517.157 510.974 519.001 512.817C520.844 514.661 521.88 517.161 521.88 519.768C521.88 522.375 520.844 524.876 519.001 526.719C517.157 528.563 514.657 529.598 512.05 529.598H511.95ZM512.05 505.758C514.538 505.752 516.921 504.757 518.675 502.993C520.43 501.229 521.412 498.841 521.405 496.353C521.398 493.866 520.404 491.482 518.64 489.728C516.876 487.974 514.488 486.992 512 486.998H511.9C509.412 486.998 507.026 487.987 505.267 489.746C503.508 491.505 502.52 493.891 502.52 496.378C502.52 498.866 503.508 501.252 505.267 503.011C507.026 504.77 509.412 505.758 511.9 505.758H512.05ZM511.98 482.758C509.76 482.535 507.702 481.496 506.205 479.841C504.708 478.186 503.879 476.035 503.879 473.803C503.879 471.572 504.708 469.42 506.205 467.765C507.702 466.111 509.76 465.071 511.98 464.848H512C514.22 465.071 516.278 466.111 517.775 467.765C519.272 469.42 520.101 471.572 520.101 473.803C520.101 476.035 519.272 478.186 517.775 479.841C516.278 481.496 514.22 482.535 512 482.758H511.98ZM511.98 440.758C514.217 440.758 516.363 439.87 517.944 438.288C519.526 436.706 520.415 434.56 520.415 432.323C520.415 430.086 519.526 427.941 517.944 426.359C516.363 424.777 514.217 423.888 511.98 423.888H512C509.763 423.888 507.617 424.777 506.036 426.359C504.454 427.941 503.565 430.086 503.565 432.323C503.565 434.56 504.454 436.706 506.036 438.288C507.617 439.87 509.763 440.758 512 440.758H511.98ZM511.98 461.168C509.716 461.168 507.545 460.269 505.945 458.668C504.344 457.068 503.445 454.897 503.445 452.633C503.445 450.37 504.344 448.199 505.945 446.598C507.545 444.998 509.716 444.098 511.98 444.098H512C514.264 444.098 516.435 444.998 518.035 446.598C519.636 448.199 520.535 450.37 520.535 452.633C520.535 454.897 519.636 457.068 518.035 458.668C516.435 460.269 514.264 461.168 512 461.168H511.98ZM541.65 325.788C541.523 325.385 541.272 325.033 540.933 324.781C540.593 324.53 540.183 324.392 539.76 324.388C539.318 324.379 538.886 324.513 538.526 324.768C538.166 325.024 537.897 325.388 537.76 325.808C535.83 333.338 531.96 340.428 517.2 341.678C517.85 335.228 519.55 330.358 522.46 326.898C525.22 323.898 529.04 321.898 534.61 320.728C535.065 320.686 535.493 320.496 535.83 320.188C536.143 319.803 536.293 319.312 536.25 318.818C536.255 318.564 536.207 318.312 536.109 318.078C536.011 317.844 535.865 317.633 535.68 317.458C535.335 317.18 534.903 317.032 534.46 317.038H489.55C489.107 317.032 488.675 317.18 488.33 317.458C488.145 317.633 487.999 317.844 487.901 318.078C487.803 318.312 487.755 318.564 487.76 318.818C487.717 319.312 487.868 319.803 488.18 320.188C488.519 320.494 488.946 320.683 489.4 320.728C494.97 321.918 498.81 323.908 501.55 326.898C504.46 330.358 506.16 335.228 506.81 341.678C492.05 340.418 488.18 333.328 486.25 325.808C486.113 325.388 485.844 325.024 485.484 324.768C485.124 324.513 484.692 324.379 484.25 324.388C483.827 324.392 483.417 324.53 483.077 324.781C482.738 325.033 482.487 325.385 482.36 325.788V366.998C482.374 367.255 482.442 367.506 482.557 367.736C482.673 367.966 482.835 368.169 483.033 368.333C483.231 368.498 483.461 368.619 483.708 368.691C483.956 368.762 484.215 368.782 484.47 368.748C484.89 368.795 485.314 368.701 485.675 368.483C486.037 368.264 486.316 367.932 486.47 367.538V367.338C489.96 358.778 497.35 353.248 506.88 351.828C506.31 358.568 504.56 363.618 501.49 367.198C498.71 370.198 495.06 372.118 489.39 373.318H489.23C488.834 373.398 488.467 373.584 488.17 373.858C488.007 374.058 487.887 374.288 487.814 374.536C487.742 374.783 487.72 375.042 487.75 375.298C487.75 375.541 487.8 375.781 487.898 376.004C487.997 376.226 488.14 376.425 488.32 376.588C488.713 376.868 489.178 377.028 489.66 377.048H534.32C534.802 377.028 535.267 376.868 535.66 376.588C535.84 376.425 535.983 376.226 536.082 376.004C536.18 375.781 536.23 375.541 536.23 375.298C536.26 375.042 536.238 374.783 536.166 374.536C536.093 374.288 535.973 374.058 535.81 373.858C535.513 373.584 535.146 373.398 534.75 373.318H534.59C528.92 372.108 525.25 370.198 522.49 367.198C519.42 363.618 517.67 358.578 517.1 351.828C526.64 353.248 534.02 358.828 537.51 367.338V367.538C537.662 367.933 537.941 368.266 538.303 368.485C538.665 368.704 539.09 368.797 539.51 368.748C539.771 368.794 540.039 368.784 540.296 368.718C540.553 368.652 540.793 368.533 541 368.367C541.207 368.202 541.376 367.994 541.497 367.758C541.618 367.522 541.687 367.263 541.7 366.998V325.908L541.65 325.788ZM512 422.458C514.909 422.547 517.806 422.05 520.52 420.997C523.233 419.945 525.708 418.359 527.797 416.332C529.886 414.306 531.547 411.88 532.681 409.2C533.815 406.52 534.399 403.639 534.399 400.728C534.399 397.818 533.815 394.937 532.681 392.257C531.547 389.576 529.886 387.151 527.797 385.124C525.708 383.098 523.233 381.511 520.52 380.459C517.806 379.407 514.909 378.91 512 378.998C509.106 378.936 506.23 379.453 503.538 380.517C500.847 381.581 498.395 383.172 496.327 385.197C494.259 387.221 492.615 389.638 491.494 392.306C490.372 394.974 489.794 397.839 489.794 400.733C489.794 403.627 490.372 406.492 491.494 409.16C492.615 411.828 494.259 414.245 496.327 416.27C498.395 418.294 500.847 419.885 503.538 420.95C506.23 422.014 509.106 422.53 512 422.468V422.458ZM355.17 525.178C353.485 526.337 351.485 526.951 349.44 526.938C346.834 526.949 344.321 525.965 342.416 524.187C340.511 522.409 339.356 519.97 339.188 517.37C339.019 514.769 339.85 512.202 341.51 510.192C343.17 508.183 345.534 506.883 348.12 506.558C347.84 505.558 347.58 504.498 347.25 503.338C347.12 502.178 346.94 501.038 346.78 499.938C345.41 500.597 343.91 500.939 342.39 500.938C340.872 500.942 339.373 500.609 337.999 499.963C336.626 499.316 335.413 498.373 334.449 497.201C333.485 496.029 332.793 494.657 332.423 493.185C332.053 491.713 332.015 490.178 332.311 488.689C332.607 487.2 333.23 485.796 334.135 484.577C335.04 483.359 336.204 482.357 337.543 481.643C338.883 480.929 340.364 480.521 341.88 480.45C343.396 480.378 344.909 480.644 346.31 481.228C346.637 478.333 347.111 475.456 347.73 472.608C345.928 473.204 343.996 473.285 342.15 472.843C340.304 472.401 338.618 471.454 337.281 470.107C335.944 468.76 335.009 467.067 334.58 465.218C334.152 463.369 334.247 461.438 334.856 459.64C335.464 457.842 336.562 456.25 338.025 455.041C339.489 453.833 341.26 453.056 343.14 452.798C345.02 452.541 346.935 452.812 348.67 453.582C350.405 454.352 351.89 455.591 352.96 457.158C354.453 453.948 356.171 450.847 358.1 447.878C357.183 448.161 356.23 448.309 355.27 448.318C353.241 448.32 351.257 447.72 349.57 446.594C347.882 445.467 346.567 443.865 345.79 441.991C345.014 440.116 344.811 438.053 345.208 436.064C345.605 434.074 346.583 432.247 348.019 430.813C349.455 429.38 351.285 428.405 353.275 428.012C355.266 427.619 357.328 427.826 359.201 428.606C361.074 429.386 362.673 430.705 363.796 432.394C364.92 434.084 365.516 436.069 365.51 438.098V438.408C368.183 435.54 371.101 432.91 374.23 430.548C372.327 430.167 370.571 429.253 369.168 427.913C367.764 426.572 366.77 424.86 366.302 422.977C365.834 421.093 365.911 419.115 366.524 417.273C367.137 415.432 368.261 413.802 369.765 412.575C371.268 411.348 373.09 410.573 375.017 410.341C376.944 410.109 378.897 410.429 380.649 411.265C382.401 412.101 383.879 413.417 384.911 415.061C385.944 416.704 386.488 418.607 386.48 420.548C386.468 421.57 386.293 422.583 385.96 423.548C389.51 421.914 393.207 420.619 397 419.678C395.471 418.397 394.349 416.697 393.772 414.787C393.196 412.876 393.19 410.84 393.756 408.926C394.322 407.013 395.434 405.306 396.956 404.016C398.478 402.727 400.344 401.91 402.324 401.666C404.305 401.422 406.313 401.762 408.103 402.644C409.892 403.526 411.385 404.911 412.398 406.63C413.411 408.349 413.9 410.327 413.804 412.32C413.709 414.313 413.033 416.234 411.86 417.848C415.607 417.78 419.353 418.024 423.06 418.578C423.06 418.578 423.21 418.578 423.26 418.648C422.198 416.937 421.663 414.95 421.724 412.937C421.784 410.923 422.436 408.972 423.599 407.327C424.761 405.682 426.383 404.417 428.261 403.688C430.138 402.959 432.189 402.8 434.157 403.23C436.125 403.66 437.923 404.66 439.325 406.106C440.728 407.551 441.674 409.378 442.044 411.358C442.415 413.338 442.194 415.383 441.409 417.238C440.624 419.093 439.309 420.676 437.63 421.788C438.17 421.888 438.63 421.998 439.12 422.118C439.12 422.118 442.63 423.048 447.61 424.418C446.816 422.941 446.384 421.295 446.35 419.618C446.307 418.245 446.541 416.876 447.037 415.595C447.533 414.313 448.281 413.144 449.238 412.157C450.194 411.17 451.339 410.386 452.605 409.85C453.87 409.314 455.231 409.038 456.605 409.038C457.979 409.038 459.34 409.314 460.605 409.85C461.871 410.386 463.016 411.17 463.972 412.157C464.929 413.144 465.677 414.313 466.173 415.595C466.669 416.876 466.903 418.245 466.86 419.618C466.86 421.429 466.374 423.207 465.455 424.767C464.535 426.326 463.214 427.611 461.63 428.488C464.06 429.238 466.55 430.008 468.83 430.788C469.05 430.845 469.264 430.922 469.47 431.018C469.47 430.528 469.31 430.018 469.31 429.478C469.304 427.701 469.759 425.953 470.63 424.404C471.502 422.856 472.761 421.56 474.283 420.643C475.806 419.727 477.54 419.221 479.317 419.175C481.093 419.13 482.851 419.546 484.419 420.383C485.986 421.221 487.31 422.45 488.26 423.952C489.21 425.454 489.753 427.177 489.838 428.952C489.923 430.727 489.546 432.494 488.743 434.08C487.941 435.665 486.741 437.015 485.26 437.998C487.74 439.368 490.26 440.828 492.76 442.438C495.93 444.548 497.84 446.978 498.62 449.488C499.11 451.004 499.363 452.586 499.37 454.178V528.798H487.92L487.15 460.468C487.17 459.728 487.072 458.988 486.86 458.278C486.659 457.475 486.287 456.726 485.769 456.08C485.251 455.434 484.6 454.909 483.86 454.538C465.49 445.708 460.25 443.678 447.41 439.698C439.82 437.698 435.73 436.518 427.13 434.388C418.75 432.758 415.13 432.588 412.02 432.588C404.862 432.593 397.789 434.127 391.271 437.086C384.754 440.046 378.944 444.363 374.23 449.748C364.79 460.358 359.12 474.978 359.12 491.148C359.12 492.688 360.02 502.058 361.6 507.148C363.35 513.388 367.69 520.928 367.92 522.518C367.92 522.518 370.26 527.368 374.13 535.748C370.36 536.258 364.53 536.968 360.33 537.548C358.33 532.698 356.52 528.468 355.14 525.188M672.8 545.758C672.241 545.012 671.536 544.386 670.728 543.92C669.92 543.455 669.026 543.158 668.1 543.048C667.4 542.918 647.92 540.358 645.63 540.048C645.188 540.047 644.761 540.213 644.436 540.514C644.112 540.815 643.913 541.227 643.88 541.668C643.757 542.119 643.807 542.6 644.022 543.015C644.237 543.43 644.601 543.749 645.04 543.908L644.89 543.838C655.28 548.658 661.4 558.468 661.55 570.198C645.43 566.868 641.4 558.608 640.39 547.198C640.39 546.708 639.93 545.828 638.59 545.708C638.194 545.639 637.785 545.699 637.425 545.879C637.065 546.059 636.772 546.349 636.59 546.708V546.808L630.43 596.178V596.248C630.444 596.677 630.604 597.087 630.885 597.411C631.165 597.735 631.548 597.953 631.97 598.028C632.409 598.142 632.874 598.094 633.282 597.894C633.689 597.694 634.011 597.355 634.19 596.938C636.464 591.907 640.132 587.633 644.759 584.62C649.386 581.607 654.779 579.983 660.3 579.938C658.883 585.55 656.011 590.688 651.972 594.833C647.934 598.979 642.872 601.985 637.3 603.548C628.89 602.668 620.45 601.848 611.89 601.118C603.72 598.668 597.73 594.288 595.54 584.118C595.649 582.752 595.941 581.406 596.41 580.118C598.48 574.528 602.52 570.838 607.02 572.478C611.72 574.238 612.21 579.548 610.16 585.138C609.384 587.271 608.128 589.197 606.49 590.768C608.998 590.808 611.475 590.215 613.693 589.044C615.911 587.873 617.798 586.162 619.18 584.068C624.9 575.938 624.18 563.398 615.29 558.228C609.48 554.828 601.38 558.788 595.24 566.438C597.1 554.368 604.43 543.718 605.24 534.438C606.4 521.328 601.35 506.738 594.15 502.728C586.67 505.468 579.84 519.008 579.15 532.088C578.73 541.408 585.05 553.708 585.37 566.008C580.37 557.238 572.62 552.008 566.31 554.638C556.76 558.538 554.31 570.858 558.93 579.688C560.027 581.944 561.669 583.891 563.709 585.35C565.749 586.81 568.121 587.738 570.61 588.048C569.185 586.275 568.204 584.187 567.75 581.958C566.49 576.128 567.64 570.958 572.57 569.888C577.24 568.888 580.75 573.008 582.03 578.838C582.43 580.597 582.502 582.414 582.24 584.198C578.53 592.968 571.84 596.018 563.49 598.078C555.01 597.698 546.49 597.408 537.87 597.208L536.96 597.028C524.88 595.088 518.72 587.358 517.49 572.878C528.12 574.478 536.38 580.698 540.26 590.218C540.423 590.672 540.73 591.06 541.135 591.322C541.54 591.584 542.019 591.705 542.5 591.668C544.15 591.668 544.74 590.588 544.74 589.858V544.268C544.604 543.83 544.328 543.449 543.954 543.183C543.58 542.917 543.129 542.782 542.67 542.798C542.227 542.79 541.792 542.917 541.422 543.162C541.053 543.406 540.766 543.757 540.6 544.168V544.238C538.48 552.648 534.12 560.588 517.52 561.938C518.88 545.808 526.26 540.838 537.02 538.508C537.255 538.497 537.486 538.439 537.699 538.338C537.912 538.236 538.103 538.094 538.26 537.918C538.598 537.562 538.785 537.089 538.78 536.598V536.468C538.737 535.931 538.491 535.43 538.09 535.068C537.757 534.771 537.327 534.604 536.88 534.598H487.1C486.654 534.606 486.225 534.773 485.89 535.068C485.486 535.428 485.235 535.929 485.19 536.468V536.598C485.191 537.092 485.385 537.566 485.73 537.918C485.887 538.094 486.078 538.236 486.291 538.338C486.504 538.439 486.735 538.497 486.97 538.508C497.73 540.848 505.11 545.808 506.49 561.938C489.88 560.578 485.49 552.648 483.41 544.238L483.34 544.168C483.174 543.757 482.887 543.406 482.518 543.162C482.148 542.917 481.713 542.79 481.27 542.798C480.812 542.779 480.361 542.913 479.988 543.18C479.615 543.446 479.341 543.829 479.21 544.268V589.928C479.234 590.192 479.31 590.449 479.434 590.683C479.557 590.918 479.727 591.125 479.931 591.294C480.136 591.462 480.372 591.588 480.626 591.664C480.88 591.741 481.146 591.766 481.41 591.738C481.892 591.776 482.373 591.655 482.78 591.393C483.186 591.131 483.495 590.743 483.66 590.288C487.53 580.768 495.81 574.548 506.41 572.948C505.2 587.438 499.04 595.158 486.96 597.098L486.05 597.278C477.48 597.478 468.9 597.768 460.43 598.148C452.09 596.088 445.43 593.038 441.7 584.268C441.422 582.485 441.493 580.664 441.91 578.908C443.18 573.078 446.68 568.908 451.35 569.958C456.3 571.038 457.43 576.198 456.18 582.028C455.715 584.256 454.732 586.342 453.31 588.118C455.798 587.806 458.17 586.879 460.211 585.421C462.252 583.964 463.897 582.021 465 579.768C469.56 570.938 467.16 558.618 457.62 554.718C451.3 552.088 443.62 557.318 438.55 566.088C438.89 553.788 445.21 541.498 444.77 532.168C444.13 519.088 437.29 505.548 429.77 502.808C422.57 506.808 417.52 521.408 418.68 534.518C419.51 543.828 426.85 554.518 428.68 566.518C422.56 558.858 414.46 554.908 408.68 558.308C399.75 563.468 399.08 576.008 404.81 584.148C406.188 586.24 408.072 587.951 410.286 589.122C412.501 590.293 414.975 590.887 417.48 590.848C415.85 589.272 414.599 587.347 413.82 585.218C411.75 579.628 412.24 574.328 416.94 572.558C421.46 570.928 425.48 574.618 427.54 580.198C428.02 581.484 428.316 582.83 428.42 584.198C426.23 594.368 420.24 598.748 412.07 601.198C403.51 601.928 395.07 602.748 386.66 603.628C381.085 602.07 376.021 599.065 371.982 594.919C367.943 590.773 365.072 585.632 363.66 580.018C369.18 580.066 374.572 581.693 379.198 584.705C383.824 587.717 387.493 591.989 389.77 597.018C389.968 597.398 390.281 597.703 390.666 597.891C391.05 598.079 391.484 598.139 391.905 598.061C392.325 597.984 392.71 597.774 393.003 597.462C393.295 597.15 393.48 596.753 393.53 596.328V596.258L387.37 546.888V546.788C387.189 546.428 386.896 546.137 386.536 545.956C386.176 545.776 385.767 545.717 385.37 545.788C384.03 545.898 383.57 546.788 383.57 547.278C382.57 558.698 378.57 566.958 362.41 570.278C362.57 558.548 368.68 548.738 379.07 543.918L378.92 543.988C379.359 543.829 379.723 543.51 379.938 543.095C380.153 542.68 380.203 542.199 380.08 541.748C380.049 541.306 379.851 540.892 379.526 540.591C379.201 540.29 378.773 540.125 378.33 540.128C376.04 540.438 356.56 542.998 355.88 543.128C354.95 543.235 354.052 543.531 353.241 543.997C352.429 544.463 351.721 545.089 351.16 545.838C350.599 546.709 350.222 547.684 350.05 548.706C349.878 549.727 349.915 550.772 350.16 551.778C350.73 555.098 357.51 602.778 358.16 607.108C358.16 607.488 358.73 611.938 358.91 613.268C359.09 614.598 360.91 616.048 360.91 616.048C360.91 616.048 370.91 622.778 372.64 624.128C374.37 625.478 373.36 627.668 373.36 627.668L364.53 640.588C364.101 641.119 363.738 641.7 363.45 642.318C363.254 642.853 363.156 643.419 363.16 643.988C363.153 644.731 363.323 645.464 363.655 646.128C363.987 646.792 364.472 647.368 365.07 647.808H659.07C659.666 647.366 660.149 646.79 660.481 646.126C660.812 645.463 660.984 644.73 660.98 643.988C660.985 643.417 660.88 642.85 660.67 642.318C660.389 641.696 660.026 641.114 659.59 640.588L650.76 627.668C650.76 627.668 649.76 625.418 651.49 624.128C653.22 622.838 663.13 615.998 663.13 615.998C663.13 615.998 664.89 614.608 665.13 613.218C665.37 611.828 665.83 607.438 665.88 607.058C666.52 602.678 673.29 555.058 673.88 551.728C674.125 550.722 674.162 549.677 673.99 548.656C673.818 547.634 673.441 546.659 672.88 545.788M453.48 627.588L421 629.298C419.416 629.38 417.865 628.832 416.684 627.773C415.504 626.714 414.79 625.231 414.7 623.648L414.42 619.028C414.352 617.442 414.916 615.893 415.988 614.721C417.061 613.55 418.554 612.851 420.14 612.778L452.58 610.998C453.37 610.955 454.16 611.069 454.906 611.332C455.652 611.596 456.338 612.004 456.926 612.534C457.513 613.064 457.99 613.704 458.329 614.419C458.667 615.134 458.862 615.908 458.9 616.698L459.16 621.268C459.242 622.857 458.689 624.413 457.624 625.594C456.559 626.775 455.068 627.486 453.48 627.568M525.09 619.368L513.53 630.998C513.133 631.404 512.597 631.643 512.03 631.668C511.458 631.641 510.916 631.402 510.51 630.998L498.95 619.438C498.722 619.225 498.54 618.967 498.416 618.681C498.292 618.394 498.228 618.086 498.228 617.773C498.228 617.461 498.292 617.152 498.416 616.866C498.54 616.579 498.722 616.322 498.95 616.108L510.51 604.548C510.918 604.15 511.46 603.918 512.03 603.898C512.595 603.916 513.131 604.149 513.53 604.548L525.09 616.108C525.318 616.322 525.5 616.579 525.624 616.866C525.748 617.152 525.812 617.461 525.812 617.773C525.812 618.086 525.748 618.394 525.624 618.681C525.5 618.967 525.318 619.225 525.09 619.438M609.29 623.698C609.187 625.271 608.469 626.739 607.293 627.787C606.116 628.835 604.574 629.378 603 629.298L570.53 627.588C568.942 627.506 567.451 626.796 566.386 625.614C565.321 624.433 564.768 622.877 564.85 621.288L565.11 616.718C565.148 615.926 565.343 615.15 565.683 614.434C566.023 613.718 566.502 613.076 567.092 612.546C567.681 612.016 568.37 611.608 569.118 611.346C569.866 611.084 570.659 610.972 571.45 611.018L603.87 612.778C605.456 612.851 606.949 613.55 608.022 614.721C609.094 615.893 609.658 617.442 609.59 619.028L609.29 623.698ZM512 234.488C665 234.488 789.5 358.998 789.5 511.998C789.5 664.998 665 789.508 512 789.508C359 789.508 234.5 664.998 234.5 511.998C234.5 358.998 359 234.488 512 234.488ZM512 756.998C647.09 756.998 757 647.078 757 511.998C757 376.918 647.08 266.998 512 266.998C376.92 266.998 267 376.898 267 511.998C267 647.098 376.9 756.998 512 756.998Z" fill="white"/>
</g>
<defs>
<clipPath id="clip0_3_569">
<rect width="1024" height="1024" fill="white"/>
</clipPath>
</defs>
</svg>
