<svg width="1024" height="1024" fill="none" xmlns="http://www.w3.org/2000/svg"><g clip-path="url(#a)"><path d="M512 1024c282.77 0 512-229.23 512-512S794.77 0 512 0 0 229.23 0 512s229.23 512 512 512Z" fill="#73ADA4"/><path d="M663.66 537.588c-4.21-.56-10-1.29-13.8-1.8 3.87-8.38 6.21-13.21 6.21-13.21.23-1.6 4.57-9.15 6.32-15.38 1.58-5.08 2.48-14.44 2.48-16 0-16.15-5.65-30.78-15.12-41.4a50.208 50.208 0 0 0-37.75-17.15c-3.07 0-6.73.16-15.12 1.8-8.59 2.12-12.67 3.32-20.27 5.32-12.84 4-18.08 6-36.45 14.83a5.769 5.769 0 0 0-1.906 1.545 5.77 5.77 0 0 0-1.094 2.195 7.06 7.06 0 0 0-.29 2.2l-.75 68.31h-11.47v-74.61c.007-1.586.26-3.161.75-4.67.8-2.53 2.69-5 5.86-7.07 2.48-1.62 5-3.07 7.48-4.44a10.256 10.256 0 0 1-2.991-14.028 10.253 10.253 0 0 1 8.929-4.773 10.265 10.265 0 0 1 8.678 5.216 10.26 10.26 0 0 1 1.324 5.065c0 .52-.13 1-.16 1.54.209-.089.422-.166.64-.23 2.27-.78 4.77-1.55 7.22-2.29a10.243 10.243 0 0 1-5.21-8.851 10.24 10.24 0 1 1 20.48-.029 10.593 10.593 0 0 1-1.26 4.8c5-1.37 8.49-2.3 8.49-2.3.47-.11.95-.21 1.49-.33a10.223 10.223 0 0 1-4.373-10.398 10.217 10.217 0 0 1 7.861-8.089 10.227 10.227 0 0 1 10.519 4.073 10.226 10.226 0 0 1 .363 11.274s.15 0 .2-.07a69.368 69.368 0 0 1 11.2-.72 10.141 10.141 0 0 1-2-6 10.228 10.228 0 0 1 9.532-10.257 10.226 10.226 0 0 1 10.839 8.863 10.226 10.226 0 0 1-3.571 9.184 59.474 59.474 0 0 1 11.09 3.87 9.689 9.689 0 0 1-.51-3 10.259 10.259 0 1 1 12.23 10 67.571 67.571 0 0 1 8.72 7.86v-.33a10.242 10.242 0 0 1 12.238-10.043 10.234 10.234 0 0 1 8.045 8.046 10.24 10.24 0 0 1-10.043 12.237 9.351 9.351 0 0 1-2.83-.46 75.394 75.394 0 0 1 5.14 9.28 10.353 10.353 0 0 1 9.976-4.6 10.35 10.35 0 0 1 5.249 2.258 10.362 10.362 0 0 1 .724 15.387 10.35 10.35 0 0 1-5.014 2.74c-1.896.426-3.873.31-5.705-.335a87.236 87.236 0 0 1 1.42 8.62 10.436 10.436 0 0 1 3.92-.78 10.25 10.25 0 1 1 0 20.5 9.876 9.876 0 0 1-4.39-1c-.16 1.09-.34 2.25-.47 3.4-.33 1.18-.59 2.24-.87 3.22a10.23 10.23 0 0 1-1.28 20.42 9.91 9.91 0 0 1-5.73-1.76c-1.39 3.28-3.2 7.51-5.19 12.36m-151.71-8a9.83 9.83 0 1 1 0-19.66h.1a9.833 9.833 0 0 1 9.83 9.83 9.832 9.832 0 0 1-9.83 9.83h-.1Zm.1-23.84a9.374 9.374 0 0 0 6.625-2.765 9.376 9.376 0 0 0-.035-13.265 9.385 9.385 0 0 0-6.64-2.73h-.1a9.381 9.381 0 0 0 0 18.76h.15Zm-.07-23a8.999 8.999 0 0 1 0-17.91h.02a9.004 9.004 0 0 1 8.101 8.955 9 9 0 0 1-8.101 8.955h-.02Zm0-42a8.432 8.432 0 0 0 8.435-8.435 8.434 8.434 0 0 0-8.435-8.435h.02a8.433 8.433 0 0 0-8.435 8.435 8.437 8.437 0 0 0 8.435 8.435h-.02Zm0 20.41a8.531 8.531 0 0 1-8.535-8.535 8.535 8.535 0 0 1 8.535-8.535h.02a8.536 8.536 0 0 1 0 17.07h-.02Zm29.67-135.38a2.006 2.006 0 0 0-1.89-1.4 2.062 2.062 0 0 0-2 1.42c-1.93 7.53-5.8 14.62-20.56 15.87.65-6.45 2.35-11.32 5.26-14.78 2.76-3 6.58-5 12.15-6.17a2.094 2.094 0 0 0 1.22-.54c.313-.385.463-.876.42-1.37a1.823 1.823 0 0 0-.57-1.36 1.903 1.903 0 0 0-1.22-.42h-44.91a1.903 1.903 0 0 0-1.22.42 1.822 1.822 0 0 0-.57 1.36c-.043.494.108.985.42 1.37.339.306.766.495 1.22.54 5.57 1.19 9.41 3.18 12.15 6.17 2.91 3.46 4.61 8.33 5.26 14.78-14.76-1.26-18.63-8.35-20.56-15.87a2.06 2.06 0 0 0-2-1.42 2.006 2.006 0 0 0-1.89 1.4v41.21a1.88 1.88 0 0 0 .673 1.335 1.87 1.87 0 0 0 1.437.415 1.92 1.92 0 0 0 2-1.21v-.2c3.49-8.56 10.88-14.09 20.41-15.51-.57 6.74-2.32 11.79-5.39 15.37-2.78 3-6.43 4.92-12.1 6.12h-.16c-.396.08-.763.266-1.06.54a1.936 1.936 0 0 0-.42 1.44 1.746 1.746 0 0 0 .57 1.29c.393.28.858.44 1.34.46h44.66c.482-.02.947-.18 1.34-.46a1.746 1.746 0 0 0 .57-1.29 1.923 1.923 0 0 0-.42-1.44 2.207 2.207 0 0 0-1.06-.54h-.16c-5.67-1.21-9.34-3.12-12.1-6.12-3.07-3.58-4.82-8.62-5.39-15.37 9.54 1.42 16.92 7 20.41 15.51v.2a1.907 1.907 0 0 0 2 1.21 1.861 1.861 0 0 0 1.49-.381 1.868 1.868 0 0 0 .7-1.369v-41.09l-.05-.12ZM512 422.458a21.732 21.732 0 0 0 20.681-13.258A21.74 21.74 0 0 0 512 378.998a21.751 21.751 0 0 0-15.673 6.199A21.738 21.738 0 0 0 512 422.468v-.01Zm-156.83 102.72a9.999 9.999 0 0 1-5.73 1.76 10.232 10.232 0 0 1-10.252-9.568 10.23 10.23 0 0 1 8.932-10.812c-.28-1-.54-2.06-.87-3.22-.13-1.16-.31-2.3-.47-3.4a10.11 10.11 0 0 1-4.39 1 10.254 10.254 0 0 1-7.941-3.737 10.26 10.26 0 0 1-2.138-8.512 10.25 10.25 0 0 1 13.999-7.461 86.073 86.073 0 0 1 1.42-8.62 10.202 10.202 0 0 1-10.449-2.501 10.208 10.208 0 0 1 5.859-17.309 10.211 10.211 0 0 1 9.82 4.36 75.394 75.394 0 0 1 5.14-9.28 9.91 9.91 0 0 1-2.83.44 10.25 10.25 0 1 1 10.24-10.22v.31a67.571 67.571 0 0 1 8.72-7.86 10.24 10.24 0 1 1 12.25-10 9.54 9.54 0 0 1-.52 3 62.258 62.258 0 0 1 11.04-3.87 10.24 10.24 0 1 1 14.86-1.83 67.487 67.487 0 0 1 11.2.73s.15 0 .2.07a10.245 10.245 0 0 1 5.001-14.96 10.245 10.245 0 0 1 11.064 2.418 10.245 10.245 0 0 1-1.695 15.682c.54.1 1 .21 1.49.33 0 0 3.51.93 8.49 2.3a10.593 10.593 0 0 1-1.26-4.8 10.257 10.257 0 0 1 6.255-9.768 10.255 10.255 0 0 1 11.367 2.307 10.252 10.252 0 0 1 2.888 7.461c0 1.811-.486 3.589-1.405 5.149a10.15 10.15 0 0 1-3.825 3.721c2.43.75 4.92 1.52 7.2 2.3.22.057.434.134.64.23 0-.49-.16-1-.16-1.54a10.281 10.281 0 0 1 1.32-5.074 10.285 10.285 0 0 1 3.653-3.761 10.283 10.283 0 0 1 5.034-1.468 10.28 10.28 0 0 1 8.943 4.777 10.272 10.272 0 0 1-3 14.046c2.48 1.37 5 2.83 7.5 4.44 3.17 2.11 5.08 4.54 5.86 7.05a15.47 15.47 0 0 1 .75 4.69v74.62h-11.45l-.77-68.33c.02-.74-.078-1.48-.29-2.19a5.74 5.74 0 0 0-3-3.74c-18.37-8.83-23.61-10.86-36.45-14.84-7.59-2-11.68-3.18-20.28-5.31-8.38-1.63-12-1.8-15.11-1.8a50.277 50.277 0 0 0-37.79 17.16c-9.44 10.61-15.11 25.23-15.11 41.4 0 1.54.9 10.91 2.48 16 1.75 6.24 6.09 13.78 6.32 15.37 0 0 2.34 4.85 6.21 13.23-3.77.51-9.6 1.22-13.8 1.8-2-4.85-3.81-9.08-5.19-12.36m317.66 20.57a6.895 6.895 0 0 0-4.7-2.71c-.7-.13-20.18-2.69-22.47-3a1.752 1.752 0 0 0-1.75 1.62 1.863 1.863 0 0 0 1.16 2.24l-.15-.07c10.39 4.82 16.51 14.63 16.66 26.36-16.12-3.33-20.15-11.59-21.16-23 0-.49-.46-1.37-1.8-1.49a1.884 1.884 0 0 0-2 1v.1l-6.16 49.37v.07a1.866 1.866 0 0 0 1.54 1.78 1.897 1.897 0 0 0 2.22-1.09 28.91 28.91 0 0 1 26.11-17 32.872 32.872 0 0 1-23 23.61c-8.41-.88-16.85-1.7-25.41-2.43-8.17-2.45-14.16-6.83-16.35-17 .109-1.366.401-2.712.87-4 2.07-5.59 6.11-9.28 10.61-7.64 4.7 1.76 5.19 7.07 3.14 12.66a14.824 14.824 0 0 1-3.67 5.63 14.918 14.918 0 0 0 12.69-6.7c5.72-8.13 5-20.67-3.89-25.84-5.81-3.4-13.91.56-20.05 8.21 1.86-12.07 9.19-22.72 10-32 1.16-13.11-3.89-27.7-11.09-31.71-7.48 2.74-14.31 16.28-15 29.36-.42 9.32 5.9 21.62 6.22 33.92-5-8.77-12.75-14-19.06-11.37-9.55 3.9-12 16.22-7.38 25.05a15.052 15.052 0 0 0 11.68 8.36 14.267 14.267 0 0 1-2.86-6.09c-1.26-5.83-.11-11 4.82-12.07 4.67-1 8.18 3.12 9.46 8.95.4 1.759.472 3.576.21 5.36-3.71 8.77-10.4 11.82-18.75 13.88-8.48-.38-17-.67-25.62-.87l-.91-.18c-12.08-1.94-18.24-9.67-19.47-24.15 10.63 1.6 18.89 7.82 22.77 17.34a2.2 2.2 0 0 0 2.24 1.45c1.65 0 2.24-1.08 2.24-1.81v-45.59a2.093 2.093 0 0 0-2.07-1.47 2.189 2.189 0 0 0-2.07 1.37v.07c-2.12 8.41-6.48 16.35-23.08 17.7 1.36-16.13 8.74-21.1 19.5-23.43a1.78 1.78 0 0 0 1.24-.59 1.89 1.89 0 0 0 .52-1.32v-.13a2.113 2.113 0 0 0-.69-1.4 1.856 1.856 0 0 0-1.21-.47H487.1a1.883 1.883 0 0 0-1.21.47c-.404.36-.655.861-.7 1.4v.13c.001.494.195.968.54 1.32a1.781 1.781 0 0 0 1.24.59c10.76 2.34 18.14 7.3 19.52 23.43-16.61-1.36-21-9.29-23.08-17.7l-.07-.07a2.19 2.19 0 0 0-2.07-1.37 2.06 2.06 0 0 0-2.06 1.47v45.66a2 2 0 0 0 2.2 1.81 2.21 2.21 0 0 0 2.25-1.45c3.87-9.52 12.15-15.74 22.75-17.34-1.21 14.49-7.37 22.21-19.45 24.15l-.91.18c-8.57.2-17.15.49-25.62.87-8.34-2.06-15-5.11-18.73-13.88a13.92 13.92 0 0 1 .21-5.36c1.27-5.83 4.77-10 9.44-8.95 4.95 1.08 6.08 6.24 4.83 12.07a14.474 14.474 0 0 1-2.87 6.09 15.107 15.107 0 0 0 11.69-8.35c4.56-8.83 2.16-21.15-7.38-25.05-6.32-2.63-14 2.6-19.07 11.37.34-12.3 6.66-24.59 6.22-33.92-.64-13.08-7.48-26.62-15-29.36-7.2 4-12.25 18.6-11.09 31.71.83 9.31 8.17 20 10 32-6.12-7.66-14.22-11.61-20-8.21-8.93 5.16-9.6 17.7-3.87 25.84a14.9 14.9 0 0 0 12.67 6.7 15 15 0 0 1-3.66-5.63c-2.07-5.59-1.58-10.89 3.12-12.66 4.52-1.63 8.54 2.06 10.6 7.64.48 1.286.776 2.632.88 4-2.19 10.17-8.18 14.55-16.35 17-8.56.73-17 1.55-25.41 2.43a32.828 32.828 0 0 1-23-23.61 28.94 28.94 0 0 1 26.11 17 1.997 1.997 0 0 0 2.135 1.043 2.002 2.002 0 0 0 1.625-1.733v-.07l-6.16-49.37v-.1a1.875 1.875 0 0 0-2-1c-1.34.11-1.8 1-1.8 1.49-1 11.42-5 19.68-21.16 23 .16-11.73 6.27-21.54 16.66-26.36l-.15.07a1.86 1.86 0 0 0 1.16-2.24 1.743 1.743 0 0 0-1.75-1.62c-2.29.31-21.77 2.87-22.45 3a6.874 6.874 0 0 0-4.72 2.71 7.633 7.633 0 0 0-1 5.94c.57 3.32 7.35 51 8 55.33 0 .38.57 4.83.75 6.16.18 1.33 2 2.78 2 2.78s10 6.73 11.73 8.08c1.73 1.35.72 3.54.72 3.54l-8.83 12.92a8.4 8.4 0 0 0-1.08 1.73 4.759 4.759 0 0 0-.29 1.67 4.685 4.685 0 0 0 1.91 3.82h294a4.723 4.723 0 0 0 1.91-3.82 4.442 4.442 0 0 0-.31-1.67 7.639 7.639 0 0 0-1.08-1.73l-8.83-12.92s-1-2.25.73-3.54 11.64-8.13 11.64-8.13 1.76-1.39 2-2.78.7-5.78.75-6.16c.64-4.38 7.41-52 8-55.33a7.633 7.633 0 0 0-1-5.94m-219.4 81.8-32.48 1.71a5.999 5.999 0 0 1-6.3-5.65l-.28-4.62a6.001 6.001 0 0 1 5.72-6.25l32.44-1.78a6.012 6.012 0 0 1 4.346 1.536 6.007 6.007 0 0 1 1.974 4.164l.26 4.57a5.998 5.998 0 0 1-5.68 6.3m71.61-8.2-11.56 11.63a2.235 2.235 0 0 1-1.5.67 2.31 2.31 0 0 1-1.52-.67l-11.56-11.56a2.275 2.275 0 0 1-.534-2.572 2.28 2.28 0 0 1 .534-.758l11.56-11.56c.408-.398.95-.63 1.52-.65a2.221 2.221 0 0 1 1.5.65l11.56 11.56a2.28 2.28 0 0 1 0 3.33m84.2 4.26a6.002 6.002 0 0 1-6.29 5.6l-32.47-1.71a5.998 5.998 0 0 1-5.68-6.3l.26-4.57a5.994 5.994 0 0 1 4.008-5.372 6.003 6.003 0 0 1 2.332-.328l32.42 1.76a6.001 6.001 0 0 1 5.72 6.25l-.3 4.67ZM512 234.488c153 0 277.5 124.51 277.5 277.51S665 789.508 512 789.508s-277.5-124.51-277.5-277.51S359 234.488 512 234.488Zm0 522.51c135.09 0 245-109.92 245-245 0-135.08-109.92-245-245-245-135.08 0-245 109.9-245 245s109.9 245 245 245Z" fill="#fff"/></g><defs><clipPath id="a"><path fill="#fff" d="M0 0h1024v1024H0z"/></clipPath></defs></svg>