<svg width="1024" height="1024" fill="none" xmlns="http://www.w3.org/2000/svg"><g clip-path="url(#a)"><path d="M512 1024c282.77 0 512-229.23 512-512S794.77 0 512 0 0 229.23 0 512s229.23 512 512 512Z" fill="#9ABEFF"/><path d="M450.2 434.998c7.5-40.2 19.6-82.4 19.6-82.4 18.1-64.8 69.9-78.4 69.9-78.4 50.3-17.1 79.9 17.1 79.9 17.1v.5c2.5 3 3.5 6 3.5 6 1.5 1.5 2 4 2 6.5 0 7-4 12.6-9.6 15.6h-.5c-39.7 18.1-67.9 49.8-67.9 49.8-70.4 77.9-104.6 216.7-104.6 216.7s-34 143.6-125 119c0 0-57.3-14.1-72.4-97.5-3.5-22.1 2.5-27.1 2.5-27.1 9.6-7.5 20.6 6 20.6 6 28.2 34.2 64.8 31.2 64.8 31.2 4.5 0 55.3-.5 96-106.6.1.5 13.7-32.7 21.2-76.4Zm257.4 97c-73.4-12.1-173.9 192.5-173.9 192.5-6.5 12.1-13.6 9.6-13.6 9.6-8-1.5-4.5-13.6-4.5-13.6s54.8-232.7 167.9-251.8c0 0 64.3-10.1 69.4 61.3 0 0 0 21.6-20.6 12.6-.1.5-13.2-8.6-24.7-10.6Zm60.8-137.2c-51.8-69.4-126.7-44.2-126.7-44.2-151.8 47.7-196.5 378.4-196.5 378.4s-2.5 17.1 8.5 17.6c0 0 10.1 1.5 16.6-15.6 0 0 63.3-294.1 210.6-303.6 0 0 37.7-3 72.4 13.1 0 0 11.1 6.5 20.1-2 0 0 12.1-11.1 3.5-28.7 0 0-3-5.5-8-14.6l-.5-.4Z" fill="#fff"/></g><defs><clipPath id="a"><path fill="#fff" d="M0 0h1024v1024H0z"/></clipPath></defs></svg>