<svg width="1024" height="1024" viewBox="0 0 1024 1024" fill="none" xmlns="http://www.w3.org/2000/svg">
<g clip-path="url(#clip0_3_575)">
<path d="M512 1024C794.77 1024 1024 794.77 1024 512C1024 229.23 794.77 0 512 0C229.23 0 0 229.23 0 512C0 794.77 229.23 1024 512 1024Z" fill="#96DFD3"/>
<path d="M224 432.901H273V587.201H224V432.901ZM504.5 432.901H420.3V482.001H455.4V587.201H504.5V481.901H539.6V432.801H504.5V432.901ZM637.7 432.901H553.5V482.001H588.6V587.201H637.7V481.901H672.8V432.801H637.7V432.901ZM771 432.901H686.8V482.001H721.9V587.201H771V481.901H806V432.801H771V432.901ZM406.3 481.901V432.801H294.1V587.101H343.2V545.001H385.3V496.001H343.2V482.001H406.3V481.901Z" fill="white"/>
</g>
<defs>
<clipPath id="clip0_3_575">
<rect width="1024" height="1024" fill="white"/>
</clipPath>
</defs>
</svg>
