<svg width="1024" height="1024" fill="none" xmlns="http://www.w3.org/2000/svg"><g clip-path="url(#a)"><path d="M512 1024c282.77 0 512-229.23 512-512S794.77 0 512 0 0 229.23 0 512s229.23 512 512 512Z" fill="#96DFD3"/><path d="M224 432.901h49v154.3h-49v-154.3Zm280.5 0h-84.2v49.1h35.1v105.2h49.1v-105.3h35.1v-49.1h-35.1v.1Zm133.2 0h-84.2v49.1h35.1v105.2h49.1v-105.3h35.1v-49.1h-35.1v.1Zm133.3 0h-84.2v49.1h35.1v105.2H771v-105.3h35v-49.1h-35v.1Zm-364.7 49v-49.1H294.1v154.3h49.1v-42.1h42.1v-49h-42.1v-14h63.1v-.1Z" fill="#fff"/></g><defs><clipPath id="a"><path fill="#fff" d="M0 0h1024v1024H0z"/></clipPath></defs></svg>