<svg width="1024" height="1024" viewBox="0 0 1024 1024" fill="none" xmlns="http://www.w3.org/2000/svg">
<g clip-path="url(#clip0_3_581)">
<path d="M512 1024C794.77 1024 1024 794.77 1024 512C1024 229.23 794.77 0 512 0C229.23 0 0 229.23 0 512C0 794.77 229.23 1024 512 1024Z" fill="#9ABEFF"/>
<path d="M640.2 290.102H383.8L256 512.002L383.8 733.902H640.2L768 512.002L640.2 290.102ZM511.6 614.002C454.4 614.002 408.1 567.602 408.1 510.502C408.1 453.402 454.5 407.002 511.6 407.002C568.7 407.002 615.1 453.402 615.1 510.502C615.1 567.602 568.8 614.002 511.6 614.002Z" fill="white"/>
</g>
<defs>
<clipPath id="clip0_3_581">
<rect width="1024" height="1024" fill="white"/>
</clipPath>
</defs>
</svg>
