<svg width="1024" height="1024" viewBox="0 0 1024 1024" fill="none" xmlns="http://www.w3.org/2000/svg">
<g clip-path="url(#clip0_3_584)">
<path d="M512 1024C794.77 1024 1024 794.77 1024 512C1024 229.23 794.77 0 512 0C229.23 0 0 229.23 0 512C0 794.77 229.23 1024 512 1024Z" fill="#98DC9A"/>
<path d="M737.51 482.63L666.39 443.58L606.65 480.07L605.91 517.34L576.8 498.16L537.2 522.42C539.84 584.77 539.49 582.32 539.72 582.32L442.48 647.81L426.95 543.27L535.26 481.51L494.58 454.34L419.5 493.15L398.5 349.79L527.62 300.26L435.72 256L310.49 295.05L338.36 429.8L380.36 462.37L348.53 477.47L369.53 579.47L398.84 606.95L377.84 619.68L394.07 698.56L459.83 768C447.83 686.79 448.18 689.35 448.38 689.35V689.12L526 633.76C543.16 621.53 541.18 622.93 541.53 622.93L542.53 647.46L576.3 675.76L575.45 598.12L622.03 564.73C636.43 554.48 648.66 545.79 648.78 545.79L646.61 581.79L671.77 599.26L678.37 524.57L737.51 482.63Z" fill="white"/>
</g>
<defs>
<clipPath id="clip0_3_584">
<rect width="1024" height="1024" fill="white"/>
</clipPath>
</defs>
</svg>
