<svg width="1024" height="1024" fill="none" xmlns="http://www.w3.org/2000/svg"><g clip-path="url(#a)"><path d="M512 1024c282.77 0 512-229.23 512-512S794.77 0 512 0 0 229.23 0 512s229.23 512 512 512Z" fill="#9ABEFF"/><path d="M750.73 448.119c0-111-72.76-143.59-72.76-143.59-36.69-16.85-99.69-23.93-165.11-24.47h-1.62c-65.44.53-128.4 7.61-165.09 24.47 0 0-72.76 32.55-72.76 143.59 0 25.42-.49 55.84.32 88.07 2.65 108.61 19.93 215.62 120.29 242.19 46.29 12.24 86 14.82 118.06 13.05 58.06-3.2 90.65-20.73 90.65-20.73l-1.92-42.13s-41.49 13.08-88.07 11.5c-46.18-1.58-94.9-5-102.36-61.66a117.264 117.264 0 0 1-1-15.89 595.128 595.128 0 0 0 102.74 13.71c35.11 1.6 68-2.07 101.49-6 64.14-7.66 120-47.18 127-83.29 11.04-56.88 10.14-138.82 10.14-138.82Zm-85.83 143.1h-53.26v-130.52c0-27.52-11.58-41.46-34.72-41.46-25.6 0-38.44 16.55-38.44 49.31v71.45h-53v-71.47c0-32.76-12.84-49.31-38.44-49.31-23.14 0-34.72 14-34.72 41.46v130.52H359.1v-134.45c0-27.494 7.017-49.32 21.05-65.48 14.5-16.17 33.47-24.44 57-24.44 27.26 0 47.91 10.47 61.56 31.44l13.29 22.25 13.27-22.25c13.65-21 34.3-31.44 61.56-31.44 23.55 0 42.53 8.28 57 24.44 14.033 16.146 21.033 37.973 21 65.48v134.47h.07Z" fill="#fff"/></g><defs><clipPath id="a"><path fill="#fff" d="M0 0h1024v1024H0z"/></clipPath></defs></svg>