<svg width="1024" height="1024" fill="none" xmlns="http://www.w3.org/2000/svg"><g clip-path="url(#a)"><path d="M512 1024c282.77 0 512-229.23 512-512S794.77 0 512 0 0 229.23 0 512s229.23 512 512 512Z" fill="#728DBE"/><path d="M423.4 343.899c7.4-.9 17.7-2.1 29.1-3.2v477.1h-29.1v-473.9Zm82.3-6.6c-13.8.3-29.2 1.3-43.5 2.6v478H522v-480.6c-1 0-2.1-.1-3.1-.1h-13.2v.1Zm27.5 480.5h42v-476.8c-13-1.3-27.8-2.6-42-3.3v480.1Zm51.6-475.7v475.7H601v-473.9c-4.5-.5-10-1.2-16.2-1.8Zm-72.8-149.9c-60.5 60.6-98 136.9-98 136.9s58.2-8.1 98-8.1 98 8.1 98 8.1-33.2-72-98-136.9Z" fill="#fff"/></g><defs><clipPath id="a"><path fill="#fff" d="M0 0h1024v1024H0z"/></clipPath></defs></svg>