<svg width="1024" height="1024" fill="none" xmlns="http://www.w3.org/2000/svg"><g clip-path="url(#a)"><path d="M512 1024c282.77 0 512-229.23 512-512S794.77 0 512 0 0 229.23 0 512s229.23 512 512 512Z" fill="#56595B"/><path d="M714.53 390.14a158.206 158.206 0 0 0-62.25-30.47 202.587 202.587 0 0 0-39.66-5c-10-.26-20-.26-29.91-.26H441.53c-10 0-20 0-29.94.26a202.86 202.86 0 0 0-39.81 5 158.287 158.287 0 0 0-62.21 30.47 156.003 156.003 0 0 0-43.187 189.461 156.003 156.003 0 0 0 43.187 54.249 158.287 158.287 0 0 0 62.21 30.47 202.83 202.83 0 0 0 39.67 5c10 .27 20 .27 29.94.27h141.2c10 0 20 0 29.94-.27a202.487 202.487 0 0 0 39.65-5 158.192 158.192 0 0 0 62.25-30.47 155.989 155.989 0 0 0 58.596-121.855A155.993 155.993 0 0 0 714.43 390.14h.1Zm-68.86 164.13a56.453 56.453 0 0 1-23.1 8.93c-8.4 1.33-16.55 1.05-25 1.05H426.44c-8.4 0-16.55.27-25-1.05a56.599 56.599 0 0 1-23.12-8.93A51.698 51.698 0 0 1 356 512a50.995 50.995 0 0 1 22.32-42.29 56.838 56.838 0 0 1 23.12-8.93c8.4-1.31 16.55-1 25-1h171.22c8.4 0 16.55-.27 25 1a56.695 56.695 0 0 1 23.05 8.93A51.738 51.738 0 0 1 668 512a51.008 51.008 0 0 1-22.34 42.27h.01Z" fill="#fff"/></g><defs><clipPath id="a"><path fill="#fff" d="M0 0h1024v1024H0z"/></clipPath></defs></svg>