<svg width="1024" height="1024" fill="none" xmlns="http://www.w3.org/2000/svg"><g clip-path="url(#a)"><path d="M512 1024c282.77 0 512-229.23 512-512S794.77 0 512 0 0 229.23 0 512s229.23 512 512 512Z" fill="#54688C"/><path d="M302.42 443.942a70.416 70.416 0 0 0-65.06 43.471 70.414 70.414 0 0 0 15.266 76.743 70.421 70.421 0 0 0 108.346-10.671 70.416 70.416 0 0 0 11.868-39.123 70.388 70.388 0 0 0-43.465-65.071 70.387 70.387 0 0 0-26.955-5.349Zm0 105.7a35.282 35.282 0 0 1-24.947-60.227 35.28 35.28 0 0 1 60.227 24.947 35.31 35.31 0 0 1-35.28 35.28Zm123.76-11.64a6.206 6.206 0 0 1 3.865-5.738 6.202 6.202 0 0 1 6.775 1.398c17.64 17.92 46.76 48.72 46.9 48.86a5.002 5.002 0 0 0 2.52 1.68 9.598 9.598 0 0 0 3.08.28h31.78c5.74 0 7.42-6.58 4.76-9.94l-52.64-53.9-2.8-2.8c-6-7.14-5.32-9.94 1.54-17.22l41.72-46.62c2.66-3.36 1-9.8-4.9-9.8h-28.84a8.615 8.615 0 0 0-2.8.28 5.278 5.278 0 0 0-2.8 1.68c-.14.14-23.24 25.06-37.52 40.32a6.313 6.313 0 0 1-6.941 1.555 6.315 6.315 0 0 1-3.979-5.895v-79.92c0-4.06-3.36-5.6-6-5.6h-23.54c-4.06 0-6 2.66-6 5v177.28c0 4.06 3.36 5.18 6.16 5.18H420c3.64 0 6-2.66 6-5.32v-40.76h.18Zm192.08 40-2.52-23.52a5.577 5.577 0 0 0-4.293-4.853 5.578 5.578 0 0 0-2.287-.047 35.907 35.907 0 0 1-5.46.42 35.29 35.29 0 0 1-35.14-33.32v-30.8a6.646 6.646 0 0 1 4.006-6.317 6.626 6.626 0 0 1 2.574-.543h31.5a5.882 5.882 0 0 0 5.6-6v-22.22c0-4.34-2.8-6.58-5.32-6.58h-31.78a6.55 6.55 0 0 1-6.72-6.3v-35.7a5.7 5.7 0 0 0-1.807-4.078 5.683 5.683 0 0 0-4.193-1.522H539c-2.94 0-5.74 1.82-5.74 5.46v114.66a70.349 70.349 0 0 0 70.44 68.46 68.794 68.794 0 0 0 9.38-.7 5.74 5.74 0 0 0 2.199-.651 5.732 5.732 0 0 0 2.816-3.502 5.714 5.714 0 0 0 .165-2.287v-.06Zm169.68-29.54c-19.88 0-23-7.14-23-33.88v-64.48c0-.802-.16-1.595-.471-2.334a6.012 6.012 0 0 0-3.344-3.256 5.986 5.986 0 0 0-2.345-.41H735.3a6.178 6.178 0 0 0-6.16 6v2.9a69.516 69.516 0 0 0-34.72-9.24 70.422 70.422 0 0 0-66.044 94.82 70.417 70.417 0 0 0 81.862 44.223 70.415 70.415 0 0 0 29.962-15.103c6.58 10.08 17.22 16.8 33.88 16.94 2.8 0 17.92.56 17.92-6.58v-25.06c0-2.1-1.68-4.48-4.06-4.48v-.06Zm-93.38 1.12a35.282 35.282 0 0 1-24.947-60.227 35.28 35.28 0 0 1 60.227 24.947 35.308 35.308 0 0 1-35.28 35.34v-.06Z" fill="#fff"/></g><defs><clipPath id="a"><path fill="#fff" d="M0 0h1024v1024H0z"/></clipPath></defs></svg>