<svg width="1024" height="1024" fill="none" xmlns="http://www.w3.org/2000/svg"><g clip-path="url(#a)"><path d="M512 1024c282.77 0 512-229.23 512-512S794.77 0 512 0 0 229.23 0 512s229.23 512 512 512Z" fill="#728DBE"/><path d="M239.65 458.121c33.07 0 55.11 23.35 55.11 53.22 0 30.6-22 54.53-55.11 54.53s-55-23.93-55-54.53c.04-29.87 21.94-53.22 55-53.22Zm0 79.91c13.92 0 23.49-11.46 23.49-26.68 0-14.5-9.57-25.38-23.49-25.38-13.92 0-23.35 10.88-23.35 25.38 0 15.23 9.57 26.65 23.35 26.65v.03Zm69.25-69c.58-6.09 3.92-9.14 9.86-9.14h16.68c5.51 0 9.14 2.47 10.59 7.83l8.12 30.45c2 7.4 5.37 21.32 5.37 21.32h.29s3.19-14.09 5.19-21.34l8.12-30.45c1.45-5.37 5.08-7.83 10.59-7.83h16.68c6.09 0 9.43 3 9.86 9.14l7 85.27c.58 6.24-2.76 9.86-9 9.86h-11.18c-6.09 0-9.57-3-9.86-9.14l-1.59-29.15c-.43-8.7.14-23.64.14-23.64h-.29s-4.21 16.53-5.95 23.64l-3.77 14.79c-1.89 5.22-5.37 7.54-10.88 7.54h-10.58c-5.51 0-8.85-2.32-10.73-7.54l-3.77-14.79c-1.89-7.25-5.95-23.49-5.95-23.49h-.29s.73 14.79.15 23.49l-1.7 29.15c-.44 6.09-3.77 9.14-9.72 9.14h-11.5c-6.09 0-9.43-3.63-8.85-9.86l6.97-85.25Zm172.73-10.88c16.24 0 29.44 5.95 33.65 9 5.22 3.77 5.8 7.54 2.47 13.05l-4.5 7.25c-3.34 5.22-7.4 5.51-13.2 2.61-4.93-2.32-9-4.06-16.39-4.06-19.43 0-26.1 12.18-26.1 24.94 0 17.26 12.47 27.12 25.81 27.12 12.91 0 17.55-6.24 17.55-6.24v-3.63h-4.21c-6.24 0-9.43-3.34-9.43-9.57v-7c0-6.24 3.19-9.43 9.43-9.43h21.61c6.24 0 9.57 3.19 9.57 9.43v43.07c0 6.09-3.34 9.43-9.57 9.43h-5.66c-6.24 0-9.43-3.34-9.43-7.25v1.3a.843.843 0 0 1 .15-.58h-.29s-8.41 8.27-25.67 8.27c-26.25 0-51.48-19.58-51.48-53.08 0-32.18 23.06-54.66 55.69-54.66v.03Zm53.92 87c0-6.24 3.19-9.43 9.43-9.43h8.85c6.24 0 9.57 3.19 9.57 9.43v8.85c0 6.09-3.34 9.43-9.57 9.43H545c-6.24 0-9.43-3.34-9.43-9.43l-.02-8.85Zm41.1-75.68c0-6.24 3.34-9.43 9.57-9.43h11.6c6.24 0 9.43 3.19 9.43 9.43v68.74h31.18c6.24 0 9.57 3.34 9.57 9.43v7.25c0 6.09-3.34 9.43-9.57 9.43h-52.21c-6.24 0-9.57-3.34-9.57-9.43v-85.42Zm125.64-11.32c33.07 0 55.11 23.35 55.11 53.22 0 30.6-22 54.53-55.11 54.53s-55-23.93-55-54.53c.04-29.9 21.94-53.25 55-53.25v.03Zm0 79.91c13.92 0 23.49-11.46 23.49-26.68 0-14.5-9.57-25.38-23.49-25.38-13.92 0-23.35 10.88-23.35 25.38 0 15.2 9.58 26.62 23.35 26.62v.06Zm65.71-68.77c0-6.24 3.34-9.43 9.57-9.43h11.6c6.24 0 9.43 3.19 9.43 9.43v68.71h31.18c6.24 0 9.57 3.34 9.57 9.43v7.25c0 6.09-3.34 9.43-9.57 9.43h-52.25c-6.24 0-9.57-3.34-9.57-9.43l.04-85.39Z" fill="#fff"/></g><defs><clipPath id="a"><path fill="#fff" d="M0 0h1024v1024H0z"/></clipPath></defs></svg>