<svg width="1024" height="1024" fill="none" xmlns="http://www.w3.org/2000/svg"><g clip-path="url(#a)"><path d="M512 1024c282.77 0 512-229.23 512-512S794.77 0 512 0 0 229.23 0 512s229.23 512 512 512Z" fill="#9ABEFF"/><path d="M512 229.781c-153.27 0-277.5 126.35-277.5 282.22 0 155.87 124.24 282.22 277.5 282.22s277.5-126.36 277.5-282.22-124.24-282.22-277.5-282.22Zm0 535c-137.27-.01-248.55-113.18-248.55-252.78S374.73 259.231 512 259.231s248.53 113.17 248.53 252.77c0 139.6-111.26 252.77-248.53 252.77v.01Zm115.09-271v-23.06a103.813 103.813 0 0 0-103.43-103.51h-18.54a103.804 103.804 0 0 0-103.4 103.51v23.08l-12.79 23.55v34a115.381 115.381 0 0 0 115.14 115.25h20.66a115.527 115.527 0 0 0 115.15-115.28v-34l-12.79-23.54Zm-100.6 104.22v27.2a12 12 0 0 1-5.36 10l-.08.08-.08.08h-.08l-.08.08h-.08l-.09.08-.08.08h-.08l-.16.08-.08.08-.08.08H520l-.08.08h-.08l-.08.08-.08.08h-.08l-.16.08h-.1l-.08.08-.08.08h-.16l-.08.08h-.14l-.08.08h-.08l-.08.08h-.16l-.09.08h-.06l-.08.08H518l-.08.08h-.16l-.08.08h-.24l-.08.08H517v.08h-.24l-.24.08h-.32a6.873 6.873 0 0 1-1.82.16h-.08a5.76 5.76 0 0 1-1.18-.08c-.51 0-1.016-.081-1.5-.24h-.08l-.16-.08h-.1l-.24-.08-.32-.08h-.16l-.09-.08h-.08l-.16-.08h-.08a4.821 4.821 0 0 0-.54-.24l-.24-.08v-.08h-.16l-.08-.08h-.08l-.08-.08-.16-.08h-.08l-.16-.08-.08-.08-.16-.08-.08-.08-.16-.08h-.08v-.08H508l-.16-.08a12.129 12.129 0 0 1-5.53-10.18v-27.18a32.456 32.456 0 0 1-19.805-36.116 32.461 32.461 0 0 1 31.565-26.464h.63a32.483 32.483 0 0 1 31.528 26.455 32.471 32.471 0 0 1-3.407 21.584 32.473 32.473 0 0 1-16.311 14.541h-.02Zm54.46-103.51H447.88v-23.77a57.428 57.428 0 0 1 57.22-57.29h18.56a57.433 57.433 0 0 1 57.34 57.29l-.05 23.77Z" fill="#fff"/></g><defs><clipPath id="a"><path fill="#fff" d="M0 0h1024v1024H0z"/></clipPath></defs></svg>