<svg width="1024" height="1024" fill="none" xmlns="http://www.w3.org/2000/svg"><g clip-path="url(#a)"><path d="M512 1024c282.77 0 512-229.23 512-512S794.77 0 512 0 0 229.23 0 512s229.23 512 512 512Z" fill="#F8C18C"/><path d="M524.55 322.339a188.785 188.785 0 0 1 130.63 64.28 194.407 194.407 0 0 1 36.59 63.21 184.53 184.53 0 0 1 9.9 74.71 175.41 175.41 0 0 1-6.53 39.46 195.675 195.675 0 0 1-14.38 36.33 425.71 425.71 0 0 1-31.36 51.46 375.594 375.594 0 0 1-37.59 45.19 396.915 396.915 0 0 1-43.35 38.44 426.74 426.74 0 0 1-48.09 31.55l-.79.55a4.178 4.178 0 0 1-2.33.49 6.252 6.252 0 0 1-3.39-2.07 5.676 5.676 0 0 1-1.32-3.69 6.303 6.303 0 0 1 .26-1.81c.176-.487.444-.935.79-1.32a139.146 139.146 0 0 0 14.64-26.35 115.6 115.6 0 0 0 7.85-29 2.512 2.512 0 0 0-.81-1.81 2.38 2.38 0 0 0-1.81-.81c-5.63.68-11.26 1.13-17 1.32a104.995 104.995 0 0 1-17-.79 188.417 188.417 0 0 1-71.773-19.015 188.423 188.423 0 0 1-58.857-45.265 193.88 193.88 0 0 1-36.59-63.21 184.814 184.814 0 0 1-9.92-74.71 175.452 175.452 0 0 1 6.57-39.48 183.42 183.42 0 0 1 14.4-35.84 416.066 416.066 0 0 1 31.34-52 384.715 384.715 0 0 1 37.57-45.16 401.16 401.16 0 0 1 43.37-38.4 419.933 419.933 0 0 1 48.07-31.55l.81-.53a4 4 0 0 1 2.33-.53 6.303 6.303 0 0 1 3.37 2.09 5.44 5.44 0 0 1 1.32 3.71 5.225 5.225 0 0 1-.26 1.79 3.505 3.505 0 0 1-.77 1.3 137.568 137.568 0 0 0-14.66 26.39 116.305 116.305 0 0 0-7.81 29 2.659 2.659 0 0 0 2.58 2.62 174.183 174.183 0 0 1 17-1.3c5.678-.19 11.361.061 17 .75Zm-17.22 263.84a70.841 70.841 0 0 0 53.78-18.24c15.36-13.63 23.66-30.68 25.09-51.2a71.617 71.617 0 0 0-18.26-54.08 70.257 70.257 0 0 0-51.2-24.79 71.661 71.661 0 0 0-54.06 18.24 70.383 70.383 0 0 0-24.83 51.2 72.124 72.124 0 0 0 18 54.08c13.44 15.46 30.59 23.78 51.48 24.79Z" fill="#fff"/></g><defs><clipPath id="a"><path fill="#fff" d="M0 0h1024v1024H0z"/></clipPath></defs></svg>