<svg width="1024" height="1024" fill="none" xmlns="http://www.w3.org/2000/svg"><g clip-path="url(#a)"><path d="M512 1024c282.77 0 512-229.23 512-512S794.77 0 512 0 0 229.23 0 512s229.23 512 512 512Z" fill="#9ABEFF"/><path d="M495.1 496.798c9.3 5.4 24.4 5.4 33.7 0l169.4-98.3c9.3-5.4 9.3-14.2 0-19.5l-169.4-97.8c-9.3-5.4-24.5-5.4-33.8 0l-169.4 97.8c-9.3 5.4-9.3 14.1 0 19.5l169.5 98.3Zm9.6 41.9c0-10.7-7.6-23.9-16.9-29.3l-170-98.6c-9.3-5.4-16.9-1-16.9 9.7v196.8c0 10.7 7.6 23.9 16.9 29.2l169.9 98.1c9.3 5.4 16.9 1 16.9-9.7l.1-196.2Zm31.5-29.3c-9.3 5.4-16.9 18.6-16.9 29.3v196.2c0 10.7 7.6 15.1 16.9 9.7l169.9-98.1c9.3-5.4 16.9-18.5 16.9-29.2v-196.8c0-10.7-7.6-15.1-16.9-9.7l-169.9 98.6Z" fill="#fff"/></g><defs><clipPath id="a"><path fill="#fff" d="M0 0h1024v1024H0z"/></clipPath></defs></svg>