<svg width="1024" height="1024" viewBox="0 0 1024 1024" fill="none" xmlns="http://www.w3.org/2000/svg">
<g clip-path="url(#clip0_3_629)">
<path d="M512 1024C794.77 1024 1024 794.77 1024 512C1024 229.23 794.77 0 512 0C229.23 0 0 229.23 0 512C0 794.77 229.23 1024 512 1024Z" fill="#FF837D"/>
<path d="M598.57 285.68C504.87 285.68 428.63 361.92 428.63 455.62C428.63 549 504.87 625 598.57 625C692 625 768 549 768 455.62C768 361.92 692 285.68 598.57 285.68ZM296 738.32H379V285.68H296" fill="white"/>
</g>
<defs>
<clipPath id="clip0_3_629">
<rect width="1024" height="1024" fill="white"/>
</clipPath>
</defs>
</svg>
