<svg width="1024" height="1024" viewBox="0 0 1024 1024" fill="none" xmlns="http://www.w3.org/2000/svg">
<g clip-path="url(#clip0_3_644)">
<path d="M512 1024C794.77 1024 1024 794.77 1024 512C1024 229.23 794.77 0 512 0C229.23 0 0 229.23 0 512C0 794.77 229.23 1024 512 1024Z" fill="#56595B"/>
<path d="M746.2 516.4L797.3 604.5H743.7L718.1 560.3L746.2 516.4ZM797.3 419.5H743.7L718.1 463.7L746.2 507.7L797.3 419.5ZM684.6 419.5H631L690.2 512L631 604.5H684.6L743.8 512L684.6 419.5ZM505.7 604.5H612.4V572.1H545V524.4H607.7V492.3H545V451.7H612.4V419.6H505.7V604.5ZM412.2 419.5H373V604.4H487.2V572H412.2V419.5ZM354.4 477.2C354.4 497.1 348.2 512.3 335.7 522.9C323.3 533.4 305.6 538.7 282.6 538.7H265.8V604.5H226.6V419.5H285.7C308.1 419.5 325.2 424.3 336.9 434C348.6 443.7 354.4 458.1 354.4 477.2ZM314.8 478.6C314.8 469.4 312.3 462.6 307.3 458.2C302.3 453.8 294.4 451.6 283.7 451.6H265.9V506.5H278.8C290.9 506.5 299.9 504.1 305.9 499.4C311.9 494.7 314.8 487.7 314.8 478.6Z" fill="white"/>
</g>
<defs>
<clipPath id="clip0_3_644">
<rect width="1024" height="1024" fill="white"/>
</clipPath>
</defs>
</svg>
