<svg width="1024" height="1024" fill="none" xmlns="http://www.w3.org/2000/svg"><g clip-path="url(#a)"><path d="M512 1024c282.77 0 512-229.23 512-512S794.77 0 512 0 0 229.23 0 512s229.23 512 512 512Z" fill="#FF837D"/><path d="M205.92 562h25.35v-43.72H247c32.32 0 55.29-14.94 55.29-46.7 0-29.89-22-44.08-53.8-44.08h-42.57V562Zm39.57-111.87c19.31 0 31.41 7.1 31.41 22.23 0 15.69-12.1 23.35-32 23.35h-13.63v-45.59l14.22.01Zm70.28 112.21h25.35v-44.85c0-23.54 12-33.23 33.8-33.23v-25.4c-15.77 0-26.48 6.47-32.86 18.05l-.94-.14v-15.58l-25.35.09v101.06Zm67.6.36h25.35V461.3h-25.35v101.4ZM396 452.85a12.672 12.672 0 0 0 12.426-15.142 12.674 12.674 0 0 0-17.275-9.234 12.668 12.668 0 0 0-7.821 11.706 12.653 12.653 0 0 0 3.708 8.962A12.652 12.652 0 0 0 396 452.85Zm65.29 109.85h19l42.95-101.4h-27.03l-24.28 64.44-24.09-64.44h-29.5l42.95 101.4Zm141 0h26.33V461.29h-26.75v13.31h-.56c-6.91-10.5-18.11-15.75-31.37-15.75-26.71 0-48 21-48 53.05s22 53.24 48 53.24c14.38 0 24.09-5.62 31.75-17.62h.56l.04 15.18Zm-27.06-21.62c-15.32 0-26.71-12.33-26.71-29.7 0-17.37 11.39-29.51 26.71-29.51S601.9 494 601.9 511.39s-11.4 29.7-26.71 29.7l.04-.01Zm137.41-4.48a49.613 49.613 0 0 1-20 4.48c-18.13 0-30.22-12.14-30.22-30.07 0-17 11-29.14 28.9-29.14 8.313 0 15.313 1.867 21 5.6V463a49.604 49.604 0 0 0-21.15-4.48c-33.62 0-55.53 22.41-55.53 52.68 0 31 22.85 53.24 55.91 53.24a53.99 53.99 0 0 0 21.15-4.11l-.06-23.73ZM737 596.5h26.7l54.38-135.2h-26.9l-22.78 59.48-26.33-59.48h-28l42.39 88.31L737 596.5Z" fill="#fff"/></g><defs><clipPath id="a"><path fill="#fff" d="M0 0h1024v1024H0z"/></clipPath></defs></svg>