<svg width="1024" height="1024" fill="none" xmlns="http://www.w3.org/2000/svg"><g clip-path="url(#a)"><path d="M512 1024c282.77 0 512-229.23 512-512S794.77 0 512 0 0 229.23 0 512s229.23 512 512 512Z" fill="#98DC9A"/><path d="M715.42 435.95H693v-20C693 316.56 612 236 512 236s-181 80.56-181 179.94v20h-22.44a42.396 42.396 0 0 0-39.291 26.075A42.385 42.385 0 0 0 266 478.25v165.19c0 11 .71 19 5 24.83 4.47 5.85 12 7.93 23.17 7.9h36l5.5 87v1a26.003 26.003 0 0 0 3.2 12.67c2.88 5.12 8.92 9.7 18.69 9.62h91.51L496.59 736h35.51l45.9 52h82.08c7.07 0 13.55.14 19.15-3.42 5.6-3.56 8.99-10.58 10.61-22.58 2.36-17.54 2.91-65.52 4-85.76h36c11.07 0 18.3-1.09 23-6.13 4.53-5.14 5.13-12.46 5.19-23.45V478.25a42.47 42.47 0 0 0-42.61-42.3Zm37.34 211c.06 10.83-1 16.88-3.71 19.68-2.49 2.91-7.94 4.32-18.79 4.29h-41.4l-.14 2.67c-1 19.09-1.67 70.14-4.07 88-1.56 11.53-4.57 16.42-8.05 18.67-3.48 2.25-8.89 2.54-16.06 2.51H581l-46-52h-40.52l-47.55 50.43h-89.11c-8.12-.08-11.58-3.2-13.78-6.8a20.999 20.999 0 0 1-2.44-9.88v-.99l-5.88-92.63h-41.29c-10.76 0-15.92-2-18.65-5.65-2.89-3.7-3.92-10.65-3.89-21.45V478.56a36.819 36.819 0 0 1 36.91-36.66h28.09v-25.67c.16-96.3 78.53-174.2 175.44-174.36 96.89.16 175.28 78.06 175.46 174.36v25.67h28.1a36.8 36.8 0 0 1 36.88 36.66l-.01 168.39Zm-44.28 75.78h-8.37c.48-14.62.85-28.83 1.34-37.7h36.11c2 0 3.85-.06 5.61-.14V688a34.694 34.694 0 0 1-10.153 24.546 34.704 34.704 0 0 1-24.537 10.174v.01Zm-387-37.48 2.37 37.48H312.6a34.55 34.55 0 0 1-24.388-10.242A34.57 34.57 0 0 1 278.21 688v-3.11c2.467.274 4.948.401 7.43.38l35.84-.02Zm354.61 74.87c-1.08 8-2.93 11.77-4.18 12.57l-.09.06h-.05c-1.54 1-7.66 1-10 1H584.9l-43.39-49.08-1.93-2.18a2.159 2.159 0 0 0-1.62-.73h-46.23a2.151 2.151 0 0 0-1.57.68l-1.91 2-45 47.71h-85.34c-4.83-.05-5.69-1.39-6.42-2.57a12.572 12.572 0 0 1-1.24-5.4v-.9a2.005 2.005 0 0 0 0-.29v-.44l-4.53-71.39h333.71c-.08 2.54-.16 5.19-.24 7.91-.67 22.05-1.5 49.37-3.06 61.05h-.04Zm12.72-89.22v11.76H335.74V670.9h353.07ZM278.4 643.47c0 1.47 0 2.82.05 4.06 0-1.24-.05-2.59-.05-4.06Zm.47 10.29c.1.85.21 1.61.33 2.28-.12-.68-.2-1.44-.33-2.28Zm437-203.56h-28.05a8.632 8.632 0 0 1-8.62-8.62V415.9a164.453 164.453 0 0 0-48.92-117.11 167.31 167.31 0 0 0-235.84 0 164.439 164.439 0 0 0-48.9 117.13v25.66a8.631 8.631 0 0 1-8.62 8.63h-28.08a28.263 28.263 0 0 0-28.29 28v165.26c0 12.48 1.56 15.5 2.06 16.13l.13.16c.38.51 2.35 2.17 11.75 2.18h39.11V459.77h10.07v202.18h337.26V459.77H691V662h39.64c9.17 0 11.62-1.18 12-1.41l.13-.14c.18-.31 1.46-2.89 1.39-13.74V478.24a28.246 28.246 0 0 0-28.25-28.04h-.04ZM546.58 624.88H472.2v-55.46h74.38v55.46Zm-71.77-61.33c3.56-16.35 17.73-28.69 34.9-28.71 17.17-.02 31.35 12.35 34.92 28.71h-8.84c-3.37-11.71-13.77-20.21-26.06-20.23-12.29-.02-22.69 8.51-26 20.23h-8.92Zm148.11-118.1H400.43v-32.54c0-61.31 49.81-111 111.26-111a111.112 111.112 0 0 1 111.24 111l-.01 32.54ZM465 411.52h99.2v11.79H465v-11.79Zm30.67-49.26a20.55 20.55 0 1 0-20.55 20.55c2.7.003 5.375-.527 7.87-1.559a20.555 20.555 0 0 0 12.7-18.991h-.02Zm52.52-20.55a20.55 20.55 0 1 0 20.55 20.55 20.55 20.55 0 0 0-20.53-20.56l-.02.01Z" fill="#fff"/></g><defs><clipPath id="a"><path fill="#fff" d="M0 0h1024v1024H0z"/></clipPath></defs></svg>