<svg width="1024" height="1024" fill="none" xmlns="http://www.w3.org/2000/svg"><g clip-path="url(#a)"><path d="M512 1024c282.77 0 512-229.23 512-512S794.77 0 512 0 0 229.23 0 512s229.23 512 512 512Z" fill="#98DC9A"/><path d="M734.299 323.902c0-31.6-25.6-57.3-57.3-57.3-31.6 0-57.3 25.6-57.3 57.3v1.8l-249.5 80.6c-17.8-26.2-53.4-33-79.5-15.2-26.2 17.8-33 53.4-15.2 79.5 10.7 15.7 28.4 25.1 47.3 25.1 6-.1 11.9-1.1 17.5-3l163.9 207c-12.4 29.1 1.1 62.7 30.2 75.1 29.1 12.4 62.7-1.1 75.1-30.2 9.8-23 3.6-49.7-15.4-65.9l87.1-297.7c30.1-2.2 53.2-27.1 53.1-57.1Zm-177.1 339.7c-8.8.1-17.5 2.3-25.3 6.3l-160.1-202.6c4.4-7.2 7.2-15.4 8.1-23.8l254.9-81.3c2.7 3 5.6 5.7 8.9 8.1l-86.1 293.4h-.4v-.1Z" fill="#fff"/></g><defs><clipPath id="a"><path fill="#fff" d="M0 0h1024v1024H0z"/></clipPath></defs></svg>