<svg width="1024" height="1024" fill="none" xmlns="http://www.w3.org/2000/svg"><g clip-path="url(#a)"><path d="M512 1024c282.77 0 512-229.23 512-512S794.77 0 512 0 0 229.23 0 512s229.23 512 512 512Z" fill="#9ABEFF"/><path d="M512 676.199s-23.4-2.3-41.7-15c-18.3-12.7-140.4-100-140.4-100v172.8s1 20.1 23.1 20.1h317.9c22.1 0 23.1-20.1 23.1-20.1v-172.9s-122.1 87.3-140.4 100.1c-18.2 12.6-41.6 15-41.6 15Zm0-434.2s-150.9-4.9-182.1 162.6v114.1s1.3 12.2 35.6 37c34.3 24.8 123.2 94.6 146.5 94.6 23.2 0 112.1-69.8 146.5-94.7 34.3-24.8 35.6-37.1 35.6-37.1v-113.9c-31.2-167.5-182.1-162.5-182.1-162.6Zm103.4 224.8H408.7v-62.2c21-83.2 103.3-84.4 103.3-84.4s82.4 1.2 103.4 84.4v62.2Z" fill="#fff"/></g><defs><clipPath id="a"><path fill="#fff" d="M0 0h1024v1024H0z"/></clipPath></defs></svg>