<svg width="1024" height="1024" viewBox="0 0 1024 1024" fill="none" xmlns="http://www.w3.org/2000/svg">
<g clip-path="url(#clip0_3_665)">
<path d="M512 1024C794.77 1024 1024 794.77 1024 512C1024 229.23 794.77 0 512 0C229.23 0 0 229.23 0 512C0 794.77 229.23 1024 512 1024Z" fill="#54688C"/>
<path d="M620.66 730.452C621.402 730.904 622.235 731.184 623.1 731.272V731.682C622.29 732.092 621.47 732.092 620.66 732.502C619.675 732.637 618.716 732.913 617.81 733.322C616.99 733.732 615.81 734.142 614.96 734.552L612.52 735.782V735.372C613.34 734.962 613.74 734.552 613.74 734.142C614.14 733.732 613.74 733.322 613.74 732.912C613.33 732.502 613.33 732.092 612.92 731.682L611.7 730.452L608 726.772L607.6 731.282V732.922C607.6 733.332 608 733.742 608 734.152C608 734.562 608.41 734.972 608.82 735.382C609.297 735.707 609.875 735.852 610.45 735.792V736.202C609.758 736.145 609.064 736.288 608.45 736.612C608.04 737.022 607.23 737.022 606.45 737.432C605.67 737.842 605.23 737.842 604.45 738.252C603.67 738.662 602.82 738.662 602.45 739.072V738.662C603.434 737.796 604.131 736.653 604.45 735.382C605.291 733.566 605.841 731.629 606.08 729.642L607.71 725.142L602.01 719.402C602.011 719.348 602.002 719.294 601.981 719.243C601.961 719.193 601.931 719.147 601.893 719.109C601.854 719.07 601.809 719.04 601.758 719.02C601.708 719 601.654 718.99 601.6 718.992C599.16 716.532 597.123 715.302 595.49 715.302L598.75 721.442H598.34C596.81 720.102 594.999 719.121 593.04 718.572C591.439 718.165 589.761 718.165 588.16 718.572H587.34L590.19 728.402H591.41C592.706 728.116 593.863 727.388 594.68 726.342C595.498 725.297 595.926 723.999 595.89 722.672H596.3L599.15 732.092H598.75C598.12 730.961 597.111 730.089 595.9 729.632C594.575 729.219 593.155 729.219 591.83 729.632H591.42C591.105 729.661 590.812 729.807 590.6 730.042L591.42 733.322C592.233 736.595 593.047 738.642 593.86 739.462C594.38 740.422 595.256 741.14 596.3 741.462V741.872C595.48 741.872 594.67 742.282 593.86 742.282C592.926 742.608 591.974 742.882 591.01 743.102C590.2 743.512 589.38 743.512 588.57 743.922C586.13 744.332 585.31 744.742 584.91 744.742V744.332C585.73 743.512 585.73 742.692 585.73 741.462C585.546 739.243 585.138 737.048 584.51 734.912L584.11 733.272L581.26 722.622C580.85 721.392 580.85 720.982 580.44 720.622C580.28 720.467 580.087 720.349 579.876 720.278C579.665 720.207 579.441 720.185 579.22 720.212V719.802C580.44 719.392 582.07 718.982 583.29 718.572C584.335 718.154 585.431 717.878 586.55 717.752L595.55 715.292V714.882C597.99 714.062 599.62 713.652 600.85 713.242C601.66 712.832 602.07 712.832 602.85 712.422C603.67 712.422 604.48 711.602 606.11 711.192V711.602C605.71 712.012 605.3 712.422 605.3 712.832V714.062C605.33 714.377 605.476 714.669 605.71 714.882L606.93 716.112L609.78 718.982L610.18 714.882V713.652C610.18 713.242 609.78 712.832 609.78 712.422C609.78 712.012 609.37 711.602 608.96 711.192C608.482 710.866 607.905 710.721 607.33 710.782V710.372C608.487 710.18 609.595 709.762 610.59 709.142C611.41 709.142 611.81 709.142 612.22 708.732C613.04 708.732 613.44 708.322 614.66 707.912V708.322C613.848 709.095 613.282 710.089 613.03 711.182C612.191 712.999 611.641 714.935 611.4 716.922L610.58 720.612L617.1 727.162C618.21 728.812 619.85 729.632 620.66 730.452ZM428.43 710.002C427.501 709.106 426.389 708.424 425.17 708.002C424.114 707.439 422.949 707.11 421.755 707.04C420.56 706.969 419.365 707.157 418.25 707.592C417.2 707.937 416.247 708.525 415.468 709.309C414.69 710.093 414.108 711.05 413.77 712.102C413.313 712.996 413.038 713.971 412.96 714.972C412.896 715.813 413.036 716.657 413.37 717.432C414.365 718.822 415.593 720.03 417 721.002C417.41 721.412 417.41 721.822 417.81 721.822C418.262 722.162 418.64 722.591 418.921 723.083C419.201 723.575 419.378 724.119 419.44 724.682C419.643 725.133 419.749 725.622 419.749 726.117C419.749 726.612 419.643 727.101 419.44 727.552C419.276 728.183 418.971 728.769 418.548 729.266C418.126 729.763 417.596 730.158 417 730.422C415.811 730.831 414.519 730.831 413.33 730.422C411.958 729.584 410.943 728.27 410.48 726.732C410.069 724.706 410.069 722.618 410.48 720.592L410.07 720.182L406 726.362C406.846 727.541 407.8 728.639 408.85 729.642C410.153 730.769 411.68 731.607 413.33 732.102C415.756 733.247 418.536 733.394 421.07 732.512C422.226 732.156 423.277 731.521 424.13 730.663C424.983 729.805 425.611 728.75 425.96 727.592C426.689 725.911 426.833 724.034 426.37 722.262C425.96 720.622 424.37 719.392 422.3 717.752C421.148 717.024 420.174 716.046 419.45 714.892C419.246 714.441 419.14 713.952 419.14 713.457C419.14 712.962 419.246 712.473 419.45 712.022C419.875 710.918 420.562 709.933 421.45 709.152C421.898 708.95 422.384 708.846 422.875 708.846C423.366 708.846 423.852 708.95 424.3 709.152C425.445 709.775 426.331 710.785 426.8 712.002C427.61 713.642 427.21 715.282 426.8 717.332L428.02 718.152L431.69 712.822C430.706 711.769 429.613 710.824 428.43 710.002ZM551.83 751.002V751.412H546.54C546.54 751.822 546.13 751.822 545.73 751.822L544.92 748.962C544.21 749.998 543.392 750.957 542.48 751.822C541.712 752.567 540.698 753.004 539.63 753.052C538.456 753.1 537.287 752.864 536.224 752.364C535.16 751.865 534.233 751.116 533.52 750.182C531.613 747.885 530.6 744.976 530.67 741.992C530.333 739.42 530.91 736.812 532.3 734.622C532.872 733.617 533.702 732.783 534.704 732.206C535.706 731.63 536.844 731.331 538 731.342C538.969 731.245 539.947 731.386 540.85 731.752C541.756 732.296 542.578 732.97 543.29 733.752L542.88 729.242C542.825 728.14 542.688 727.043 542.47 725.962C542.277 725.712 542.03 725.508 541.748 725.366C541.466 725.224 541.156 725.148 540.84 725.142V724.732C542.06 724.322 543.28 724.322 544.51 723.912C545.555 723.492 546.651 723.217 547.77 723.092L549.4 743.572C549.81 746.432 549.81 748.482 550.21 749.302C550.61 750.122 551 750.932 551.83 750.932V751.002ZM543.28 741.582C543.281 739.295 542.721 737.042 541.65 735.022C540.84 733.382 540.02 733.022 538.8 733.022C537.58 733.022 536.8 733.842 535.95 735.482V742.042C535.951 744.325 536.51 746.574 537.58 748.592C538.39 750.232 539.21 750.592 540.43 750.592C541.65 750.592 542.43 749.772 542.87 748.132C543.466 745.978 543.606 743.723 543.28 741.512V741.582ZM526.18 750.582C526.18 750.992 526.59 751.402 526.99 751.812V752.222H520.88L520.47 749.762C520.15 750.812 519.432 751.694 518.47 752.222C517.606 752.735 516.625 753.018 515.62 753.042C514.798 753.119 513.969 753.012 513.194 752.729C512.419 752.445 511.717 751.992 511.14 751.402C510.582 750.796 510.15 750.085 509.87 749.311C509.59 748.537 509.468 747.714 509.51 746.892C509.51 744.892 510.32 742.792 511.95 741.982C513.58 740.752 516.02 740.342 519.28 740.342H520.5V737.882C520.52 736.605 520.243 735.342 519.69 734.192C519.503 733.822 519.217 733.511 518.864 733.294C518.511 733.076 518.104 732.962 517.69 732.962C517.117 732.982 516.558 733.143 516.062 733.428C515.565 733.714 515.146 734.117 514.84 734.602C513.792 736.262 512.972 738.054 512.4 739.932H511.99L510.77 733.792C511.91 733.076 513.146 732.524 514.44 732.152C515.765 731.791 517.14 731.653 518.51 731.742C521.36 731.742 522.99 732.562 524.21 733.742C525.43 734.922 525.84 737.432 525.84 740.742V748.522C525.725 749.208 525.845 749.912 526.18 750.522V750.582ZM520.48 741.582C518.85 741.582 517.22 741.992 516.41 743.222C515.6 744.042 515.19 745.682 515.19 747.732C515.211 748.742 515.49 749.729 516 750.602C516.41 751.422 516.81 751.832 517.63 751.832C518.099 751.824 518.553 751.658 518.916 751.36C519.279 751.063 519.531 750.651 519.63 750.192C520.326 748.506 520.604 746.678 520.44 744.862L520.48 741.582ZM474.48 727.652C473.376 727.558 472.266 727.697 471.22 728.062C470.073 728.8 469.101 729.78 468.37 730.932C468.163 729.579 467.6 728.306 466.74 727.242C465.791 726.456 464.677 725.895 463.48 725.602C462.376 725.509 461.266 725.649 460.22 726.012H452.89V726.422C453.7 726.832 454.11 727.242 454.11 727.652C454.11 728.758 453.973 729.86 453.7 730.932L452.48 736.262L452.07 737.492C451.817 739.476 451.267 741.411 450.44 743.232C450.27 743.65 449.997 744.019 449.648 744.306C449.299 744.592 448.883 744.787 448.44 744.872V745.282C449.25 745.282 450.07 745.692 450.88 745.692C451.69 745.692 452.51 746.102 453.32 746.102C454.13 746.102 454.54 746.512 455.32 746.512C456.1 746.512 456.54 746.922 457.32 746.922V746.512C456.822 745.962 456.535 745.253 456.51 744.512C456.713 742.147 457.121 739.805 457.73 737.512L458.14 735.872C458.41 733.97 459.093 732.151 460.14 730.542C460.367 730.078 460.712 729.683 461.14 729.395C461.568 729.107 462.065 728.937 462.58 728.902C463.056 728.962 463.492 729.203 463.795 729.576C464.098 729.948 464.247 730.423 464.21 730.902C464.21 732.132 463.8 733.762 463.4 736.632L462.99 738.272L462.58 740.272C462.336 741.814 461.927 743.326 461.36 744.782C460.95 745.602 460.55 746.422 459.73 746.422V746.832C460.388 747.007 461.056 747.144 461.73 747.242C462.54 747.242 462.95 747.652 463.73 747.652C464.51 747.652 464.95 748.062 465.73 748.062C466.51 748.062 466.95 748.472 467.73 748.472V748.062C467.232 747.512 466.945 746.803 466.92 746.062C467.123 743.697 467.531 741.355 468.14 739.062L468.55 737.422C468.82 735.52 469.503 733.701 470.55 732.092C470.782 731.632 471.128 731.24 471.555 730.952C471.983 730.665 472.477 730.493 472.99 730.452C473.466 730.512 473.902 730.753 474.205 731.126C474.508 731.498 474.657 731.973 474.62 732.452C474.62 733.682 474.21 735.312 473.81 738.182L473.4 739.822L472.99 741.822C472.746 743.364 472.337 744.876 471.77 746.332C471.36 746.742 470.96 747.562 470.14 747.562V747.972C472.177 748.38 474.214 748.79 476.25 749.202C476.908 749.377 477.576 749.514 478.25 749.612V749.202C477.851 749.054 477.514 748.776 477.293 748.414C477.071 748.051 476.979 747.624 477.03 747.202C476.62 745.972 477.03 743.512 477.84 740.202L478.25 738.202C479.063 734.928 479.063 732.472 478.25 730.832C477.911 730.033 477.391 729.324 476.732 728.76C476.073 728.196 475.291 727.793 474.45 727.582L474.48 727.652ZM491.18 731.752L493.62 732.162L494.03 730.522L491.18 730.112V728.402C491.18 727.582 491.59 726.762 491.59 725.942C491.914 725.46 492.059 724.88 492 724.302H491.59C490.834 725.8 489.7 727.076 488.3 728.002C486.855 728.907 485.359 729.729 483.82 730.462L483.41 731.692L485.41 732.102L484.19 741.932C483.78 742.342 483.78 742.752 483.78 743.572C483.491 744.198 483.351 744.882 483.37 745.572V749.262C483.375 749.578 483.45 749.889 483.59 750.173C483.73 750.457 483.932 750.706 484.18 750.902C486.38 750.891 488.571 751.166 490.7 751.722V751.312C490.276 751.033 489.913 750.672 489.633 750.249C489.353 749.826 489.161 749.351 489.07 748.852C488.66 747.622 488.66 745.162 489.07 741.852L491.18 731.752ZM506.66 731.752C506.218 731.699 505.769 731.745 505.347 731.887C504.925 732.029 504.54 732.263 504.22 732.572C503.463 733.607 502.794 734.704 502.22 735.852L502.63 731.752C501.41 731.752 500.19 732.162 498.96 732.162C497.73 732.162 496.52 732.572 495.29 732.572V732.982C495.7 732.982 496.1 733.392 496.51 733.802V737.002L495.29 742.732V744.002C494.88 746.872 494.88 748.912 494.48 749.732C494.16 750.462 493.579 751.047 492.85 751.372V751.782H500.18C500.947 752.116 501.785 752.257 502.62 752.192V751.782C502.21 751.782 501.81 750.962 501.4 750.142V745.602C501.357 743.388 501.63 741.179 502.21 739.042C502.62 737.402 503.02 737.042 503.84 737.042C504.25 737.042 504.25 737.042 504.65 737.452C504.898 737.648 505.1 737.897 505.24 738.18C505.38 738.464 505.455 738.775 505.46 739.092L507.46 731.722H506.65L506.66 731.752ZM446.79 723.152C447.6 724.792 447.2 727.252 446.38 730.522L444.38 737.892C444.091 738.518 443.95 739.202 443.97 739.892C443.97 740.302 444.38 741.122 444.38 741.532V741.942C443.886 741.655 443.321 741.513 442.75 741.532C442.34 741.532 441.94 741.122 441.53 741.122C441.309 741.149 441.084 741.126 440.873 741.055C440.662 740.984 440.47 740.867 440.31 740.712C439.9 740.712 439.5 740.302 438.68 740.302L439.09 737.842C438.753 738.296 438.326 738.676 437.836 738.958C437.345 739.241 436.802 739.419 436.24 739.482C435.43 739.892 434.24 739.482 432.98 739.482C432.111 739.248 431.3 738.835 430.599 738.27C429.899 737.706 429.323 737.001 428.91 736.202C428.172 734.672 428.026 732.923 428.5 731.292C429.31 729.292 430.5 727.602 432.57 727.192C434.57 726.372 437.05 726.782 439.9 727.602C440.31 727.602 440.31 727.602 440.71 728.012H441.12L441.93 726.012C442.228 724.805 442.365 723.564 442.34 722.322C442.026 721.497 441.454 720.796 440.71 720.322C439.9 719.912 438.71 720.322 437.45 721.142C436.028 722.317 434.791 723.699 433.78 725.242H433.37L433.78 719.102C435.108 718.763 436.48 718.624 437.85 718.692C439.234 718.806 440.6 719.082 441.92 719.512C444.333 720.252 445.947 721.442 446.76 723.082L446.79 723.152ZM441.09 729.292C439.46 728.882 437.83 728.882 437.02 729.702C436.35 730.178 435.787 730.788 435.367 731.494C434.947 732.2 434.679 732.986 434.58 733.802C434.27 734.725 434.131 735.698 434.17 736.672C434.473 737.288 434.887 737.844 435.39 738.312C436.203 738.725 437.016 738.315 437.83 737.082C438.89 735.79 439.582 734.235 439.83 732.582L441.09 729.292ZM569.78 739.532L571 739.942C571 742.812 570.59 744.862 569 746.502C568.382 747.374 567.596 748.114 566.687 748.677C565.778 749.241 564.766 749.616 563.71 749.782C562.481 749.959 561.227 749.873 560.034 749.528C558.841 749.183 557.735 748.588 556.79 747.782C554.79 746.142 553.53 743.682 552.72 740.412C552.255 737.755 552.684 735.019 553.94 732.632C554.512 731.475 555.377 730.488 556.449 729.768C557.521 729.049 558.762 728.623 560.05 728.532C561.159 728.252 562.316 728.217 563.44 728.43C564.565 728.643 565.629 729.099 566.559 729.765C567.489 730.432 568.262 731.293 568.826 732.289C569.389 733.284 569.728 734.391 569.82 735.532L558.82 737.532V738.762C559.1 741.248 559.934 743.64 561.26 745.762C562.48 746.992 563.7 747.762 565.74 747.402C566.95 746.943 567.959 746.071 568.59 744.942C569.475 743.257 569.876 741.36 569.75 739.462L569.78 739.532ZM558.38 735.842L564 735.002C563.708 733.603 563.3 732.232 562.78 730.902C561.97 730.082 561.56 729.672 560.78 729.672C560 729.672 559.15 730.492 558.78 731.672C558.39 733.001 558.244 734.39 558.35 735.772L558.38 735.842ZM745.38 599.842L772.88 595.232L754.56 616.632L732.46 642.172C723.7 652.09 714.663 661.76 705.36 671.172C699.53 677.032 694.13 681.642 689.13 684.552C692.87 690.022 696.22 694.222 696.22 694.622L701.62 701.742L694.96 708.042L666.6 734.452L666.2 734.882L668.29 741.172L661.6 745.342C661.6 745.342 592.42 792.292 502.8 783.512C414.04 775.132 371.5 744.512 371.1 744.512L365.27 740.302L366.93 734.042L365.27 732.352L337.34 705.942L330.68 699.642L336.08 692.522C336.08 692.522 339.43 688.312 343.17 682.452C337.288 678.565 331.834 674.067 326.9 669.032C319.41 661.512 310.23 651.442 300.23 640.112L278.13 614.532L259.76 593.002L287.26 597.612C287.26 597.612 292.26 598.442 298.52 599.702C297.69 597.612 296.86 595.532 296 593.842C295.139 591.811 294.42 589.723 293.85 587.592L293.48 586.202L287.69 566.612C293.63 568.221 299.367 570.503 304.79 573.412C307.072 566.627 310.261 560.182 314.27 554.252L314.14 522.182H313.94C290.18 520.502 265.17 501.642 256 483.612C247.25 465.612 248.91 440.012 255.58 418.612C262.25 397.212 291.43 382.142 311.43 376.272C314.45 375.486 317.525 374.935 320.63 374.622L515.63 239.512L715.89 377.512C736 384.082 762 398.602 768.25 418.642C774.92 440.022 777 465.642 767.84 483.642C760.24 499.292 740.38 515.572 719.45 520.642V573.822C720.22 576.082 720.8 578.112 721.23 579.822C727.065 575.243 733.677 571.754 740.75 569.522C739.92 579.162 740.32 587.152 736.58 595.962C735.75 597.622 734.92 599.702 734.06 601.822C739.92 600.592 744.93 599.732 745.32 599.732L745.38 599.842ZM719.5 470.842C727.99 466.922 738.45 459.062 741.63 452.662C745.8 444.662 750.8 429.182 744.55 414.092C737.88 399.002 727.05 392.712 724.55 391.452C723.4 391.062 721.37 390.502 719.55 390.012V393.002C723.13 396.792 727.91 402.392 729.18 406.462C731.26 413.172 730.85 414.842 730.85 414.842C727.683 409.358 723.895 404.258 719.56 399.642L719.5 470.842ZM719.5 489.162C724.471 486.53 728.753 482.765 732 478.172C732 478.172 730.75 479.012 729.08 480.272C726.003 481.989 722.78 483.431 719.45 484.582L719.5 489.162ZM311.85 474.002L313.94 474.292L313.61 392.652C302.23 399.452 293.51 414.882 293.51 414.882C293.51 414.882 293.09 413.202 295.18 406.502C296.85 399.792 308.52 389.312 308.52 389.312C308.52 389.312 301.85 390.572 299.35 391.832C296.85 392.672 286.01 399.382 279.76 414.892C273.09 429.982 278.51 445.072 282.68 453.462C287.26 461.402 303.52 472.722 311.85 474.002ZM314.02 492.302V487.752C306.53 486.012 296.02 481.532 294.37 480.292C292.72 479.052 291.45 478.192 291.45 478.192C291.45 478.192 297.28 486.992 306.45 490.352C308.56 491.002 311.13 491.662 314 492.272L314.02 492.302ZM359.37 382.192C357.29 383.452 353.95 382.612 347.7 382.612C343.38 382.302 335.85 384.062 326.82 387.212L327.19 475.312C332.38 475.312 337.1 474.822 339.37 473.162C344.37 469.812 377.3 424.162 389.8 406.082C402.72 388.472 418.56 368.772 438.15 364.162C457.74 359.972 510.67 373.382 510.67 373.382H513.59C513.59 373.382 566.11 359.962 586.12 363.742C605.71 367.932 621.55 388.062 634.47 405.662C647.39 423.262 679.9 468.962 684.9 472.322C688.48 474.942 698.16 474.742 706.21 473.932V390.232C693.6 384.992 682.28 382.172 676.15 382.172C670.02 382.172 666.57 382.592 664.48 381.752C662.39 380.912 662.4 379.232 663.65 378.402C664.65 377.882 675.32 375.112 688.02 374.402L515.69 255.632L343.31 375.002C352.51 376.112 359.39 377.942 360.21 378.352C361.87 379.232 361.45 380.912 359.37 382.162V382.192ZM511.09 512.192V510.002C509.84 507.902 508.59 504.552 506.92 497.422C503.59 482.752 506.5 471.012 506.92 468.072C507.087 466.656 507.364 465.255 507.75 463.882C507.75 463.882 481.07 475.202 481.91 487.362C482.33 499.102 487.33 512.512 488.58 519.642C489.096 523.679 489.096 527.765 488.58 531.802C488.58 531.802 478.16 533.902 475.24 541.022C472.74 547.732 473.16 547.732 474.41 547.312C476.08 547.312 482.33 543.122 487.75 543.962C493.59 544.802 500.25 546.472 505.26 546.472L511.1 546.052H512.77L518.61 546.472C523.61 546.472 530.7 544.792 536.12 543.962C541.54 543.132 548.21 547.312 549.46 547.312C550.71 547.732 551.54 548.152 548.63 541.022C545.72 533.892 535.71 531.802 535.71 531.802C535.193 527.765 535.193 523.679 535.71 519.642C536.54 512.512 541.96 499.522 542.38 487.362C542.8 475.202 516.12 463.882 516.12 463.882C516.506 465.255 516.783 466.656 516.95 468.072C517.37 471.422 520.28 482.742 516.95 497.422C515.28 504.552 514.03 507.902 512.78 510.002V512.102L511.95 511.262C511.5 512.132 511.09 512.132 511.09 512.132V512.192ZM566.52 465.192C566.52 465.192 571.94 458.062 575.69 455.552C579.02 453.032 588.61 451.362 589.86 450.552C590.69 449.712 589.86 447.202 586.52 440.072C583.19 433.362 573.6 428.332 570.27 427.072C567.35 425.812 562.77 427.492 557.77 426.232C553.19 425.392 544.02 421.232 537.77 419.102C531.52 416.972 527.35 418.262 526.52 419.102C525.69 419.522 524.44 427.482 522.35 432.102C520.26 436.722 514.43 447.192 514.43 447.192L513.6 448.872C513.6 448.872 516.93 448.032 523.19 451.802C529.45 455.572 542.78 468.572 542.78 468.572C544.064 464.232 546.036 460.127 548.62 456.412C552.79 450.542 561.12 448.862 561.12 448.862C558.482 451.693 556.099 454.751 554 458.002C549.83 464.292 549.42 470.582 549 474.352C548.58 478.122 554 482.352 555.67 482.732C556.92 483.152 559.84 481.892 562.34 479.802C566.367 476.104 570.688 472.74 575.26 469.742C580.26 465.972 590.26 473.092 591.52 473.092C592.77 472.672 592.77 469.742 592.35 465.542C591.93 461.342 591.1 460.542 585.26 460.542C579.42 460.542 566.52 465.172 566.52 465.172V465.192ZM575.69 503.762C575.69 503.762 589.03 504.602 591.53 495.382C594.45 486.162 589.86 481.962 589.86 481.962C589.86 481.962 588.19 490.342 580.69 493.282C573.6 496.632 569.02 489.512 568.19 488.282C567.426 487.418 566.4 486.829 565.27 486.602C564.814 488.671 564.537 490.775 564.44 492.892C564.86 495.822 568.61 500.442 568.61 500.442C566.88 500.335 565.184 499.908 563.61 499.182C560.69 497.502 556.52 497.502 555.69 498.762C553.456 502.905 551.641 507.259 550.27 511.762C549.02 516.372 553.19 523.922 555.27 528.532C557.35 533.142 561.94 546.532 560.27 557.462C558.19 568.362 556.1 578.002 554.02 581.772C551.94 585.542 551.1 585.962 551.1 585.962C551.1 585.962 546.52 586.802 546.1 590.572C545.68 594.342 552.77 600.212 554.85 601.892C556.1 603.992 559.43 604.832 560.27 603.572C561.11 602.312 561.52 599.802 560.69 595.572C559.86 591.342 558.61 590.572 558.61 590.572C560.307 589.903 561.762 588.735 562.78 587.222C564.412 583.081 565.26 578.673 565.28 574.222C565.28 569.222 566.53 557.452 571.12 549.492C576.12 541.942 584.04 530.622 584.87 523.922C586.54 516.792 585.7 512.602 584.87 511.762C584.04 510.922 580.29 510.922 578.2 508.832C577.454 508.202 576.846 507.424 576.414 506.548C575.982 505.673 575.736 504.717 575.69 503.742V503.762ZM538.18 568.302C539.01 564.952 544.02 564.112 547.35 564.532C551.1 564.532 551.93 564.952 553.19 562.022C554.02 559.082 552.77 554.022 551.11 553.222C549.45 552.422 531.52 549.452 525.68 551.122C521.93 551.962 516.51 556.122 512.76 559.122V560.382L511.93 559.542L511.1 559.962V558.702C507.77 556.182 501.93 551.992 498.18 551.152C492.34 549.472 474.42 552.412 472.75 553.252C471.5 554.092 470.25 559.122 471.08 562.052C471.91 564.982 473.16 564.562 476.5 564.562C479.83 564.142 484.84 564.982 485.67 568.332C486.92 571.682 484.84 575.462 483.17 577.552C481.5 579.642 481.5 582.162 483.17 583.842C484.503 585.316 486.256 586.346 488.193 586.791C490.13 587.237 492.157 587.076 494 586.332C499.84 584.232 506.5 580.042 509.42 580.042H514.42C517.34 580.042 524.01 584.232 529.84 586.332C531.68 587.112 533.72 587.29 535.668 586.839C537.615 586.388 539.37 585.332 540.68 583.822C541.39 582.927 541.776 581.819 541.776 580.677C541.776 579.535 541.39 578.426 540.68 577.532C539 575.432 537.34 571.662 538.18 568.302ZM526.51 593.872C522.136 592.838 517.664 592.275 513.17 592.192H511.5C507.004 592.252 502.53 592.815 498.16 593.872C488.16 595.962 483.16 605.612 483.16 605.612C487.5 603.544 491.954 601.725 496.5 600.162C500.67 598.902 508.17 599.322 511.92 599.742C515.67 599.322 523.59 598.902 527.34 600.162C532.038 601.673 536.632 603.494 541.09 605.612C541.09 605.612 536.09 596.002 526.51 593.882V593.872ZM465.24 590.512C465.24 590.512 463.99 591.352 463.16 595.512C462.74 599.702 463.16 602.222 463.99 603.512C464.82 604.352 468.16 603.512 470.24 601.832C471.49 600.152 478.99 594.282 478.58 590.512C478.17 586.742 473.58 585.902 473.58 585.902C473.58 585.902 472.75 585.482 470.66 581.712C468.57 577.942 466.08 568.302 464.41 557.402C462.33 546.502 467.33 533.502 468.16 528.472C470.24 523.862 474.41 516.312 473.16 511.702C471.789 507.199 469.973 502.845 467.74 498.702C466.91 497.442 462.74 497.442 459.82 499.122C458.344 500.096 456.581 500.54 454.82 500.382C454.82 500.382 458.99 495.772 458.99 492.832C458.99 489.892 458.57 486.962 458.16 486.542C457.182 487.049 456.328 487.766 455.66 488.642C454.83 489.482 450.66 496.642 443.16 493.642C436.07 490.712 433.99 481.902 433.99 481.902C433.99 481.902 429.4 485.672 431.91 494.902C434.83 504.122 447.75 503.282 447.75 503.282C447.413 505.153 446.545 506.889 445.25 508.282C442.75 510.382 439.41 510.382 438.58 511.212C437.75 512.042 436.91 516.662 438.58 523.372C440.25 530.082 447.75 541.822 452.75 549.372C457.34 557.372 458.59 569.072 458.59 574.102C458.471 578.61 459.474 583.077 461.51 587.102C462.294 588.659 463.621 589.875 465.24 590.522V590.512ZM443.15 481.102C443.98 478.582 446.48 476.912 446.48 476.102C446.48 475.292 445.23 474.002 443.56 474.002C441.89 474.002 437.72 474.842 437.72 477.772C437.865 480.788 438.879 483.698 440.64 486.152C440.958 486.738 441.447 487.213 442.042 487.513C442.637 487.813 443.31 487.924 443.97 487.832C443.97 487.832 442.73 483.622 443.15 481.102ZM579.86 487.812C580.498 487.784 581.115 487.571 581.633 487.198C582.152 486.825 582.551 486.308 582.78 485.712C584.604 483.438 585.63 480.626 585.7 477.712C585.7 474.782 581.53 473.942 579.86 473.942C578.19 473.942 576.94 475.202 576.94 476.042C577.36 476.882 579.86 478.562 580.27 481.042C581.11 483.622 579.86 487.812 579.86 487.812ZM510.25 448.812L509.42 447.132C509.42 447.132 503.58 436.652 501.92 431.622C499.84 427.012 498.59 419.462 497.34 418.622C496.51 417.782 492.34 416.522 486.09 418.622C480.25 421.142 471.09 425.332 466.09 426.172C461.51 427.432 456.5 425.752 453.59 427.012C450.26 428.272 440.67 433.302 437.33 440.012C434 447.142 433.58 449.652 434.41 450.492C435.24 451.332 445.25 453.012 448.58 455.492C451.91 457.972 457.33 465.132 457.33 465.132C457.33 465.132 444.41 460.522 438.57 460.522C432.73 460.522 431.9 461.362 431.48 465.522C431.06 469.682 431.06 473.072 432.31 473.072C433.56 473.072 443.56 466.362 448.57 469.722C453.58 473.082 459.41 477.272 461.91 479.782C464.41 481.882 466.91 483.132 467.75 482.712C469.42 482.292 474.84 478.102 474.42 474.332C474 471.002 474 464.332 469.82 458.002C465.65 451.292 462.73 448.782 462.73 448.782C462.73 448.782 471.07 450.462 475.23 456.332C477.814 460.047 479.786 464.152 481.07 468.492C481.07 468.492 494.41 455.492 500.66 451.722C506.92 448.402 510.25 448.822 510.25 448.822V448.812ZM499.41 384.252C497.74 383.412 478.15 380.062 465.65 380.062C453.15 380.062 445.23 381.322 441.48 385.062C437.73 388.802 423.14 406.862 423.14 406.862L402.72 437.042C402.72 437.042 389 455.952 381 463.082C373.08 469.792 363.08 479.852 350.16 484.082C342.663 486.291 334.953 487.702 327.16 488.292V494.032C335.655 494.511 344.159 493.266 352.16 490.372C370.08 483.662 399.26 463.122 403.84 455.572L408.42 448.862C408.42 448.862 410.09 441.732 416.76 432.092C423.43 422.452 430.1 414.902 445.94 409.032C461.78 403.582 487.2 395.202 487.2 395.202C487.2 395.202 497.2 391.852 499.7 389.332C502.75 386.782 501.08 385.102 499.41 384.262V384.252ZM327.41 522.792L327.48 540.232C343.24 528.382 365.48 522.652 372.73 520.922C381.9 519.242 385.65 521.342 390.24 518.402C394.41 515.052 396.08 506.242 396.08 506.242C396.08 506.242 392.75 507.502 375.66 515.042C361.8 521.162 345.79 523.152 327.38 522.802L327.41 522.792ZM327.57 560.652V562.382C331.07 562.282 339.79 562.102 344.39 562.382C350.22 562.802 356.89 563.222 365.23 560.702C373.57 558.182 375.23 556.092 375.23 556.092C375.398 552.651 376.099 549.257 377.31 546.032C379.39 541.032 381.48 540.162 381.48 540.162C381.48 540.162 378.98 548.962 381.48 551.482C383.98 554.002 384.81 553.162 384.81 553.162C384.81 553.162 383.56 547.712 386.06 543.102C388.14 538.492 388.98 537.652 388.98 537.652C388.98 537.652 388.98 543.522 391.48 545.652C393.98 547.782 394.81 546.492 394.81 546.492C394.06 543.749 394.06 540.855 394.81 538.112C395.401 535.566 396.701 533.239 398.56 531.402C398.56 531.402 373.56 528.882 351.04 543.142C336.09 552.892 330 558.202 327.54 560.662L327.57 560.652ZM330.4 587.652L422 665.232C430.54 667.922 432.7 667.652 432.7 667.652C438.93 669.772 445.19 674.772 453.94 678.152C475.21 686.532 502.71 694.912 514.8 694.482C543.99 693.222 588.98 675.632 618.6 664.732C619.72 664.312 620.9 663.842 622.1 663.322L699.31 604.212C701.68 601.212 703.92 598.292 706.17 595.482V586.842C696.76 587.542 685.66 588.222 679.86 588.002C671.075 587.464 662.462 585.333 654.44 581.712C648.19 579.202 625.26 568.712 617.34 565.362C609.42 562.012 609 562.002 609 562.002C609 562.002 603.17 548.162 601.5 545.652C600.299 543.668 599.32 541.559 598.58 539.362C598.58 539.362 589.41 551.522 586.91 556.552C584.41 561.582 579.41 570.392 578.57 574.552C577.32 578.322 576.9 586.292 576.9 591.322C576.9 596.352 574.4 604.322 568.98 608.092C563.56 611.862 558.14 613.542 557.31 613.542C556.48 613.542 551.89 610.602 550.64 610.602C549.39 610.602 548.97 611.862 547.72 614.792C546.47 617.722 545.22 622.792 540.63 624.432C536.46 626.112 515.63 626.112 511.87 626.112C508.11 626.112 487.28 626.112 483.11 624.432C478.52 622.752 477.27 617.722 476.02 614.792C474.77 611.862 474.35 610.602 473.1 610.602C471.85 610.602 467.26 613.542 466.43 613.542C465.6 613.542 459.76 611.862 454.34 608.092C448.92 604.322 446.42 596.352 446.42 591.322C446.319 585.696 445.76 580.087 444.75 574.552C443.92 570.362 438.91 561.552 436.41 556.552C433.91 551.552 424.74 539.362 424.74 539.362C424.234 541.574 423.391 543.696 422.24 545.652C420.57 548.162 414.74 562.002 414.74 562.002C414.74 562.002 414.32 562.002 406.4 565.352C398.48 568.702 375.97 578.762 369.3 581.702C361.388 585.564 352.749 587.711 343.95 588.002C340.76 588.132 335.79 588.002 330.37 587.662L330.4 587.652ZM642.82 541.042C642.82 541.042 644.49 541.462 646.99 546.912C648.213 549.987 648.916 553.245 649.07 556.552C649.07 556.552 650.74 558.652 659.07 561.162C667.4 563.672 674.07 563.252 679.91 562.842C685.75 562.432 698.25 562.842 698.25 562.842C698.25 562.842 696.17 558.232 673.25 543.552C650.74 528.882 625.32 531.392 625.32 531.392C627.234 533.257 628.665 535.56 629.49 538.102C630.241 540.845 630.241 543.739 629.49 546.482C629.49 546.482 630.32 547.742 632.41 545.222C634.91 543.132 634.91 537.682 634.91 537.682C634.91 537.682 635.74 538.522 638.24 543.132C640.74 547.742 639.49 553.192 639.49 553.192C639.49 553.192 639.9 554.032 642.82 552.352C645.3 549.442 642.79 541.052 642.79 541.052L642.82 541.042ZM706.22 549.182V522.422C683.66 523.712 664.45 522.222 648.22 515.062C631.13 507.512 627.79 506.262 627.79 506.262C627.79 506.262 629.46 515.062 634.04 518.002C638.62 520.942 641.96 519.262 651.13 520.932C660.3 523.032 691.13 530.992 705.73 548.602L706.22 549.182ZM706.22 493.102V488.262C698.09 489.152 684.69 487.752 673.22 484.032C660.72 479.842 650.71 470.202 642.79 463.032C634.87 455.862 621.12 437.032 621.12 437.032L600.7 406.902C600.7 406.902 586.11 388.902 582.36 385.102C578.61 381.302 570.69 380.102 558.19 380.102C545.69 380.102 526.1 383.452 524.01 384.292C522.34 385.132 520.68 386.812 523.59 389.292C526.5 391.772 536.51 395.162 536.51 395.162C536.51 395.162 561.94 403.542 577.77 409.412C594.03 414.862 600.28 422.832 606.95 432.472C613.62 442.112 615.29 449.242 615.29 449.242L619.88 455.952C624.47 463.082 653.64 483.622 670.73 490.332C683.35 495.352 696.38 495.002 706.2 493.112L706.22 493.102ZM350.6 676.462C351.86 676.032 362.3 646.682 362.3 646.682C362.3 646.682 356.97 640.822 351.66 635.682C350.17 634.222 348.66 632.802 347.29 631.602C344.67 629.122 336.92 620.502 328.5 610.992C320.5 601.892 311.82 591.992 306.5 585.902L303.89 585.672L305.61 589.672C309.35 598.452 313.93 615.212 313.93 615.212L308.1 612.732C302.27 610.212 285.6 607.732 285.6 607.732C285.6 607.732 286 607.732 308.1 633.312C330.2 658.892 349.38 676.892 350.6 676.462ZM376.87 715.462C379.79 708.342 388.53 678.552 388.53 678.552C388.53 678.552 388.96 678.552 397.28 679.812C397.74 679.882 398.28 679.912 398.84 679.942C399.18 679.942 400.35 680.052 400.76 680.052C406.441 680.043 412.117 679.709 417.76 679.052L407.91 670.712C399.42 667.262 388.78 661.492 380.32 656.592C377.4 654.902 374.72 653.312 372.53 651.982C368.53 649.592 366 647.982 366 647.982C366 647.982 364.74 652.622 361.83 664.782C359.35 676.512 343.08 697.882 343.08 697.882L372.27 724.292C372.27 724.292 374 722.582 376.87 715.462ZM656.57 736.402L638.65 684.402C638.65 684.402 637.46 684.862 635.2 685.662C631.64 686.942 625.41 689.072 617.15 691.582L615.8 691.992L614.97 692.242C607.89 694.362 599.49 696.712 590.08 699.022L589.26 699.222L586.18 699.962L585.55 700.112C577.26 702.112 568.28 703.972 558.84 705.652L558.36 705.742L553.69 706.542L552.69 706.712C550.963 706.992 549.22 707.265 547.46 707.532L545.7 707.792L542.28 708.282L539.69 708.632L537 709.002L534.32 709.332L531.39 709.662L528.96 709.922C527.18 710.108 525.393 710.282 523.6 710.442C521.6 710.602 519.65 710.712 517.67 710.802H516.37C514.677 710.862 512.98 710.898 511.28 710.912H510.34C506.213 710.912 502.08 710.778 497.94 710.512H497.2C495.287 710.385 493.38 710.235 491.48 710.062H490.96C486.833 709.668 482.733 709.172 478.66 708.572L477.66 708.422C475.9 708.155 474.153 707.875 472.42 707.582L471.9 707.502H471.67C469.47 707.122 467.287 706.718 465.12 706.292L464 706.002C462 705.602 460 705.185 458 704.752L457.53 704.652C436.953 699.994 416.797 693.639 397.27 685.652C393.53 684.132 391.44 683.172 391.44 683.172L377.29 735.582C377.29 735.582 417.73 764.922 504 772.872C590.27 781.262 656.57 736.402 656.57 736.402ZM688.64 700.402C688.64 700.402 672.4 679.002 669.89 667.252C666.97 655.092 665.72 650.452 665.72 650.452C665.72 650.452 663.72 651.742 660.42 653.732C658.27 655.022 655.62 656.652 652.6 658.402C649.95 659.952 647.04 661.602 644.02 663.262L619.48 682.052C621.48 682.222 623.38 682.362 625.23 682.452C628.164 682.66 631.111 682.627 634.04 682.352H634.44C642.76 681.092 643.19 681.092 643.19 681.092C643.19 681.092 652 710.422 655.31 718.002C658.23 725.122 659.88 726.782 659.88 726.782L688.64 700.402ZM746.16 609.852C746.16 609.852 729.5 612.372 723.66 614.852L717.83 617.372C717.83 617.372 722.4 600.612 726.15 591.792C729.26 584.572 730.06 582.712 730.26 582.282C729.64 582.962 725.26 587.992 719.46 594.672V605.542L689.46 628.542C687.24 630.962 685.46 632.792 684.46 633.732C683.63 634.532 682.74 635.352 681.84 636.252C676.11 641.922 669.84 648.842 669.84 648.842C669.84 648.842 680.28 678.192 681.5 678.592C682.72 678.992 702 661.002 724.09 635.382L746.16 609.852Z" fill="white"/>
</g>
<defs>
<clipPath id="clip0_3_665">
<rect width="1024" height="1024" fill="white"/>
</clipPath>
</defs>
</svg>
