<svg width="1024" height="1024" fill="none" xmlns="http://www.w3.org/2000/svg"><g clip-path="url(#a)"><path d="M512 1024c282.77 0 512-229.23 512-512S794.77 0 512 0 0 229.23 0 512s229.23 512 512 512Z" fill="#54688C"/><path d="M620.66 730.452a5.82 5.82 0 0 0 2.44.82v.41c-.81.41-1.63.41-2.44.82-.985.135-1.944.411-2.85.82-.82.41-2 .82-2.85 1.23l-2.44 1.23v-.41c.82-.41 1.22-.82 1.22-1.23.4-.41 0-.82 0-1.23-.41-.41-.41-.82-.82-1.23l-1.22-1.23-3.7-3.68-.4 4.51v1.64c0 .41.4.82.4 1.23 0 .41.41.82.82 1.23.477.325 1.055.47 1.63.41v.41a3.645 3.645 0 0 0-2 .41c-.41.41-1.22.41-2 .82s-1.22.41-2 .82-1.63.41-2 .82v-.41a6.464 6.464 0 0 0 2-3.28 19.082 19.082 0 0 0 1.63-5.74l1.63-4.5-5.7-5.74a.397.397 0 0 0-.117-.293.392.392 0 0 0-.293-.117c-2.44-2.46-4.477-3.69-6.11-3.69l3.26 6.14h-.41a13.625 13.625 0 0 0-5.3-2.87 9.905 9.905 0 0 0-4.88 0h-.82l2.85 9.83h1.22a5.71 5.71 0 0 0 4.48-5.73h.41l2.85 9.42h-.4a5.476 5.476 0 0 0-2.85-2.46 6.84 6.84 0 0 0-4.07 0h-.41a1.26 1.26 0 0 0-.82.41l.82 3.28c.813 3.273 1.627 5.32 2.44 6.14a4.174 4.174 0 0 0 2.44 2v.41c-.82 0-1.63.41-2.44.41-.934.326-1.886.6-2.85.82-.81.41-1.63.41-2.44.82-2.44.41-3.26.82-3.66.82v-.41c.82-.82.82-1.64.82-2.87a32.844 32.844 0 0 0-1.22-6.55l-.4-1.64-2.85-10.65c-.41-1.23-.41-1.64-.82-2a1.499 1.499 0 0 0-1.22-.41v-.41c1.22-.41 2.85-.82 4.07-1.23a12.56 12.56 0 0 1 3.26-.82l9-2.46v-.41c2.44-.82 4.07-1.23 5.3-1.64.81-.41 1.22-.41 2-.82.82 0 1.63-.82 3.26-1.23v.41c-.4.41-.81.82-.81 1.23v1.23c.03.315.176.607.41.82l1.22 1.23 2.85 2.87.4-4.1v-1.23c0-.41-.4-.82-.4-1.23 0-.41-.41-.82-.82-1.23a2.435 2.435 0 0 0-1.63-.41v-.41a8.929 8.929 0 0 0 3.26-1.23c.82 0 1.22 0 1.63-.41.82 0 1.22-.41 2.44-.82v.41a5.721 5.721 0 0 0-1.63 2.86 19.207 19.207 0 0 0-1.63 5.74l-.82 3.69 6.52 6.55c1.11 1.65 2.75 2.47 3.56 3.29Zm-192.23-20.45a8.879 8.879 0 0 0-3.26-2 8.292 8.292 0 0 0-6.92-.41 7.002 7.002 0 0 0-4.48 4.51 7.601 7.601 0 0 0-.81 2.87 5.215 5.215 0 0 0 .41 2.46 14.832 14.832 0 0 0 3.63 3.57c.41.41.41.82.81.82a4.158 4.158 0 0 1 1.63 2.86 3.497 3.497 0 0 1 0 2.87 4.322 4.322 0 0 1-2.44 2.87 5.642 5.642 0 0 1-3.67 0 6.531 6.531 0 0 1-2.85-3.69 15.442 15.442 0 0 1 0-6.14l-.41-.41-4.07 6.18a23.41 23.41 0 0 0 2.85 3.28 12.212 12.212 0 0 0 4.48 2.46 10.246 10.246 0 0 0 7.74.41 7.377 7.377 0 0 0 4.89-4.92 8.192 8.192 0 0 0 .41-5.33c-.41-1.64-2-2.87-4.07-4.51a9.112 9.112 0 0 1-2.85-2.86 3.482 3.482 0 0 1 0-2.87 7.331 7.331 0 0 1 2-2.87 3.467 3.467 0 0 1 2.85 0 5.492 5.492 0 0 1 2.5 2.85c.81 1.64.41 3.28 0 5.33l1.22.82 3.67-5.33a20.37 20.37 0 0 0-3.26-2.82Zm123.4 41v.41h-5.29c0 .41-.41.41-.81.41l-.81-2.86a17.85 17.85 0 0 1-2.44 2.86 4.375 4.375 0 0 1-2.85 1.23 7.303 7.303 0 0 1-6.11-2.87 12.369 12.369 0 0 1-2.85-8.19c-.337-2.572.24-5.18 1.63-7.37a6.496 6.496 0 0 1 5.7-3.28 5.997 5.997 0 0 1 2.85.41 10.863 10.863 0 0 1 2.44 2l-.41-4.51a22.192 22.192 0 0 0-.41-3.28 2.114 2.114 0 0 0-1.63-.82v-.41c1.22-.41 2.44-.41 3.67-.82a12.442 12.442 0 0 1 3.26-.82l1.63 20.48c.41 2.86.41 4.91.81 5.73.4.82.79 1.63 1.62 1.63v.07Zm-8.55-9.42a13.993 13.993 0 0 0-1.63-6.56c-.81-1.64-1.63-2-2.85-2-1.22 0-2 .82-2.85 2.46v6.56c.001 2.283.56 4.532 1.63 6.55.81 1.64 1.63 2 2.85 2 1.22 0 2-.82 2.44-2.46.596-2.154.736-4.409.41-6.62v.07Zm-17.1 9c0 .41.41.82.81 1.23v.41h-6.11l-.41-2.46a4.204 4.204 0 0 1-2 2.46 5.856 5.856 0 0 1-2.85.82 5.537 5.537 0 0 1-4.48-1.64 6.185 6.185 0 0 1-1.63-4.51c0-2 .81-4.1 2.44-4.91 1.63-1.23 4.07-1.64 7.33-1.64h1.22v-2.46a8.216 8.216 0 0 0-.81-3.69 2.24 2.24 0 0 0-2-1.23 3.515 3.515 0 0 0-2.85 1.64 21.976 21.976 0 0 0-2.44 5.33h-.41l-1.22-6.14a14.361 14.361 0 0 1 3.67-1.64c1.325-.361 2.7-.499 4.07-.41 2.85 0 4.48.82 5.7 2 1.22 1.18 1.63 3.69 1.63 7v7.78c-.115.686.005 1.39.34 2v.06Zm-5.7-9c-1.63 0-3.26.41-4.07 1.64-.81.82-1.22 2.46-1.22 4.51.021 1.01.3 1.997.81 2.87.41.82.81 1.23 1.63 1.23a2.084 2.084 0 0 0 2-1.64c.696-1.686.974-3.514.81-5.33l.04-3.28Zm-46-13.93a7.865 7.865 0 0 0-3.26.41 9.401 9.401 0 0 0-2.85 2.87 7.73 7.73 0 0 0-1.63-3.69 8.147 8.147 0 0 0-3.26-1.64 7.915 7.915 0 0 0-3.26.41h-7.33v.41c.81.41 1.22.82 1.22 1.23a13.29 13.29 0 0 1-.41 3.28l-1.22 5.33-.41 1.23a20.002 20.002 0 0 1-1.63 5.74 2.718 2.718 0 0 1-2 1.64v.41c.81 0 1.63.41 2.44.41s1.63.41 2.44.41 1.22.41 2 .41 1.22.41 2 .41v-.41a3.138 3.138 0 0 1-.81-2 40.893 40.893 0 0 1 1.22-7l.41-1.64c.27-1.902.953-3.721 2-5.33a2.94 2.94 0 0 1 2.44-1.64 1.866 1.866 0 0 1 1.63 2c0 1.23-.41 2.86-.81 5.73l-.41 1.64-.41 2a21.831 21.831 0 0 1-1.22 4.51c-.41.82-.81 1.64-1.63 1.64v.41c.658.175 1.326.312 2 .41.81 0 1.22.41 2 .41s1.22.41 2 .41 1.22.41 2 .41v-.41a3.138 3.138 0 0 1-.81-2 40.893 40.893 0 0 1 1.22-7l.41-1.64c.27-1.902.953-3.721 2-5.33a3.01 3.01 0 0 1 1.005-1.14 3.006 3.006 0 0 1 1.435-.5 1.866 1.866 0 0 1 1.63 2c0 1.23-.41 2.86-.81 5.73l-.41 1.64-.41 2a21.831 21.831 0 0 1-1.22 4.51c-.41.41-.81 1.23-1.63 1.23v.41c2.037.408 4.074.818 6.11 1.23.658.175 1.326.312 2 .41v-.41a1.893 1.893 0 0 1-1.22-2c-.41-1.23 0-3.69.81-7l.41-2c.813-3.274.813-5.73 0-7.37a5.614 5.614 0 0 0-3.8-3.25l.03.07Zm16.7 4.1 2.44.41.41-1.64-2.85-.41v-1.71c0-.82.41-1.64.41-2.46a2.487 2.487 0 0 0 .41-1.64h-.41a9.648 9.648 0 0 1-3.29 3.7 44.46 44.46 0 0 1-4.48 2.46l-.41 1.23 2 .41-1.22 9.83c-.41.41-.41.82-.41 1.64a4.476 4.476 0 0 0-.41 2v3.69a2.136 2.136 0 0 0 .81 1.64c2.2-.011 4.391.264 6.52.82v-.41a3.751 3.751 0 0 1-1.63-2.46c-.41-1.23-.41-3.69 0-7l2.11-10.1Zm15.48 0a3 3 0 0 0-2.44.82 22.914 22.914 0 0 0-2 3.28l.41-4.1c-1.22 0-2.44.41-3.67.41s-2.44.41-3.67.41v.41c.41 0 .81.41 1.22.82v3.2l-1.22 5.73v1.27c-.41 2.87-.41 4.91-.81 5.73a3.204 3.204 0 0 1-1.63 1.64v.41h7.33a5.117 5.117 0 0 0 2.44.41v-.41c-.41 0-.81-.82-1.22-1.64v-4.54c-.043-2.214.23-4.423.81-6.56.41-1.64.81-2 1.63-2 .41 0 .41 0 .81.41a2.137 2.137 0 0 1 .81 1.64l2-7.37h-.81l.01.03Zm-59.87-8.6c.81 1.64.41 4.1-.41 7.37l-2 7.37a4.462 4.462 0 0 0-.41 2c0 .41.41 1.23.41 1.64v.41a3.043 3.043 0 0 0-1.63-.41c-.41 0-.81-.41-1.22-.41a1.494 1.494 0 0 1-1.22-.41c-.41 0-.81-.41-1.63-.41l.41-2.46a4.124 4.124 0 0 1-2.85 1.64c-.81.41-2 0-3.26 0a6.48 6.48 0 0 1-4.07-3.28 6.882 6.882 0 0 1-.41-4.91c.81-2 2-3.69 4.07-4.1 2-.82 4.48-.41 7.33.41.41 0 .41 0 .81.41h.41l.81-2c.298-1.207.435-2.448.41-3.69a4.102 4.102 0 0 0-1.63-2c-.81-.41-2 0-3.26.82a18.399 18.399 0 0 0-3.67 4.1h-.41l.41-6.14c1.328-.339 2.7-.478 4.07-.41 1.384.114 2.75.39 4.07.82 2.413.74 4.027 1.93 4.84 3.57l.03.07Zm-5.7 6.14c-1.63-.41-3.26-.41-4.07.41a5.896 5.896 0 0 0-2.44 4.1 8.01 8.01 0 0 0-.41 2.87 5.644 5.644 0 0 0 1.22 1.64c.813.413 1.626.003 2.44-1.23a9.263 9.263 0 0 0 2-4.5l1.26-3.29Zm128.69 10.24 1.22.41c0 2.87-.41 4.92-2 6.56a7.996 7.996 0 0 1-5.29 3.28 8.748 8.748 0 0 1-6.92-2c-2-1.64-3.26-4.1-4.07-7.37a12.193 12.193 0 0 1 1.22-7.78 7.402 7.402 0 0 1 6.11-4.1 7.866 7.866 0 0 1 8.776 3.757 7.87 7.87 0 0 1 .994 3.243l-11 2v1.23a16.747 16.747 0 0 0 2.44 7c1.22 1.23 2.44 2 4.48 1.64a5.502 5.502 0 0 0 2.85-2.46 10.316 10.316 0 0 0 1.16-5.48l.03.07Zm-11.4-3.69 5.62-.84a25.65 25.65 0 0 0-1.22-4.1c-.81-.82-1.22-1.23-2-1.23s-1.63.82-2 2a11.45 11.45 0 0 0-.43 4.1l.03.07Zm187-136 27.5-4.61-18.32 21.4-22.1 25.54a707.665 707.665 0 0 1-27.1 29c-5.83 5.86-11.23 10.47-16.23 13.38 3.74 5.47 7.09 9.67 7.09 10.07l5.4 7.12-6.66 6.3-28.36 26.41-.4.43 2.09 6.29-6.69 4.17s-69.18 46.95-158.8 38.17c-88.76-8.38-131.3-39-131.7-39l-5.83-4.21 1.66-6.26-1.66-1.69-27.93-26.41-6.66-6.3 5.4-7.12s3.35-4.21 7.09-10.07a99.867 99.867 0 0 1-16.27-13.42c-7.49-7.52-16.67-17.59-26.67-28.92l-22.1-25.58-18.37-21.53 27.5 4.61s5 .83 11.26 2.09c-.83-2.09-1.66-4.17-2.52-5.86a47.382 47.382 0 0 1-2.15-6.25l-.37-1.39-5.79-19.59a80.95 80.95 0 0 1 17.1 6.8 79.407 79.407 0 0 1 9.48-19.16l-.13-32.07h-.2c-23.76-1.68-48.77-20.54-57.94-38.57-8.75-18-7.09-43.6-.42-65s35.85-36.47 55.85-42.34a60.686 60.686 0 0 1 9.2-1.65l195-135.11 200.26 138c20.11 6.57 46.11 21.09 52.36 41.13 6.67 21.38 8.75 47-.41 65-7.6 15.65-27.46 31.93-48.39 37v53.18c.77 2.26 1.35 4.29 1.78 6a61.69 61.69 0 0 1 19.52-10.3c-.83 9.64-.43 17.63-4.17 26.44-.83 1.66-1.66 3.74-2.52 5.86 5.86-1.23 10.87-2.09 11.26-2.09l.06.11Zm-25.88-129c8.49-3.92 18.95-11.78 22.13-18.18 4.17-8 9.17-23.48 2.92-38.57-6.67-15.09-17.5-21.38-20-22.64-1.15-.39-3.18-.95-5-1.44v2.99c3.58 3.79 8.36 9.39 9.63 13.46 2.08 6.71 1.67 8.38 1.67 8.38a82.392 82.392 0 0 0-11.29-15.2l-.06 71.2Zm0 18.32a35.856 35.856 0 0 0 12.5-10.99s-1.25.84-2.92 2.1a59.965 59.965 0 0 1-9.63 4.31l.05 4.58Zm-407.65-15.16 2.09.29-.33-81.64c-11.38 6.8-20.1 22.23-20.1 22.23s-.42-1.68 1.67-8.38c1.67-6.71 13.34-17.19 13.34-17.19s-6.67 1.26-9.17 2.52c-2.5.84-13.34 7.55-19.59 23.06-6.67 15.09-1.25 30.18 2.92 38.57 4.58 7.94 20.84 19.26 29.17 20.54Zm2.17 18.3v-4.55c-7.49-1.74-18-6.22-19.65-7.46-1.65-1.24-2.92-2.1-2.92-2.1s5.83 8.8 15 12.16c2.11.65 4.68 1.31 7.55 1.92l.02.03Zm45.35-110.11c-2.08 1.26-5.42.42-11.67.42-4.32-.31-11.85 1.45-20.88 4.6l.37 88.1c5.19 0 9.91-.49 12.18-2.15 5-3.35 37.93-49 50.43-67.08 12.92-17.61 28.76-37.31 48.35-41.92 19.59-4.19 72.52 9.22 72.52 9.22h2.92s52.52-13.42 72.53-9.64c19.59 4.19 35.43 24.32 48.35 41.92 12.92 17.6 45.43 63.3 50.43 66.66 3.58 2.62 13.26 2.42 21.31 1.61v-83.7c-12.61-5.24-23.93-8.06-30.06-8.06-6.13 0-9.58.42-11.67-.42s-2.08-2.52-.83-3.35c1-.52 11.67-3.29 24.37-4l-172.33-118.77-172.38 119.37c9.2 1.11 16.08 2.94 16.9 3.35 1.66.88 1.24 2.56-.84 3.81v.03Zm151.72 130v-2.19c-1.25-2.1-2.5-5.45-4.17-12.58-3.33-14.67-.42-26.41 0-29.35.167-1.416.444-2.817.83-4.19 0 0-26.68 11.32-25.84 23.48.42 11.74 5.42 25.15 6.67 32.28a47.954 47.954 0 0 1 0 12.16s-10.42 2.1-13.34 9.22c-2.5 6.71-2.08 6.71-.83 6.29 1.67 0 7.92-4.19 13.34-3.35 5.84.84 12.5 2.51 17.51 2.51l5.84-.42h1.67l5.84.42c5 0 12.09-1.68 17.51-2.51 5.42-.83 12.09 3.35 13.34 3.35 1.25.42 2.08.84-.83-6.29s-12.92-9.22-12.92-9.22a47.862 47.862 0 0 1 0-12.16c.83-7.13 6.25-20.12 6.67-32.28.42-12.16-26.26-23.48-26.26-23.48.386 1.373.663 2.774.83 4.19.42 3.35 3.33 14.67 0 29.35-1.67 7.13-2.92 10.48-4.17 12.58v2.1l-.83-.84c-.45.87-.86.87-.86.87v.06Zm55.43-47s5.42-7.13 9.17-9.64c3.33-2.52 12.92-4.19 14.17-5 .83-.84 0-3.35-3.34-10.48-3.33-6.71-12.92-11.74-16.25-13-2.92-1.26-7.5.42-12.5-.84-4.58-.84-13.75-5-20-7.13s-10.42-.84-11.25 0c-.83.42-2.08 8.38-4.17 13-2.09 4.62-7.92 15.09-7.92 15.09l-.83 1.68s3.33-.84 9.59 2.93 19.59 16.77 19.59 16.77a42.322 42.322 0 0 1 5.84-12.16c4.17-5.87 12.5-7.55 12.5-7.55a65.61 65.61 0 0 0-7.12 9.14c-4.17 6.29-4.58 12.58-5 16.35-.42 3.77 5 8 6.67 8.38 1.25.42 4.17-.84 6.67-2.93a100.913 100.913 0 0 1 12.92-10.06c5-3.77 15 3.35 16.26 3.35 1.25-.42 1.25-3.35.83-7.55-.42-4.2-1.25-5-7.09-5s-18.74 4.63-18.74 4.63v.02Zm9.17 38.57s13.34.84 15.84-8.38c2.92-9.22-1.67-13.42-1.67-13.42s-1.67 8.38-9.17 11.32c-7.09 3.35-11.67-3.77-12.5-5a5.287 5.287 0 0 0-2.92-1.68 37.113 37.113 0 0 0-.83 6.29c.42 2.93 4.17 7.55 4.17 7.55a14.003 14.003 0 0 1-5-1.26c-2.92-1.68-7.09-1.68-7.92-.42a70.892 70.892 0 0 0-5.42 13c-1.25 4.61 2.92 12.16 5 16.77 2.08 4.61 6.67 18 5 28.93-2.08 10.9-4.17 20.54-6.25 24.31-2.08 3.77-2.92 4.19-2.92 4.19s-4.58.84-5 4.61c-.42 3.77 6.67 9.64 8.75 11.32 1.25 2.1 4.58 2.94 5.42 1.68.84-1.26 1.25-3.77.42-8-.83-4.23-2.08-5-2.08-5a9.007 9.007 0 0 0 4.17-3.35 35.894 35.894 0 0 0 2.5-13c0-5 1.25-16.77 5.84-24.73 5-7.55 12.92-18.87 13.75-25.57 1.67-7.13.83-11.32 0-12.16-.83-.84-4.58-.84-6.67-2.93a7.1 7.1 0 0 1-2.51-5.09v.02Zm-37.51 64.54c.83-3.35 5.84-4.19 9.17-3.77 3.75 0 4.58.42 5.84-2.51.83-2.94-.42-8-2.08-8.8-1.66-.8-19.59-3.77-25.43-2.1-3.75.84-9.17 5-12.92 8v1.26l-.83-.84-.83.42v-1.26c-3.33-2.52-9.17-6.71-12.92-7.55-5.84-1.68-23.76 1.26-25.43 2.1-1.25.84-2.5 5.87-1.67 8.8.83 2.93 2.08 2.51 5.42 2.51 3.33-.42 8.34.42 9.17 3.77 1.25 3.35-.83 7.13-2.5 9.22-1.67 2.09-1.67 4.61 0 6.29a9.702 9.702 0 0 0 10.83 2.49c5.84-2.1 12.5-6.29 15.42-6.29h5c2.92 0 9.59 4.19 15.42 6.29a9.463 9.463 0 0 0 10.84-2.51 5.06 5.06 0 0 0 0-6.29c-1.68-2.1-3.34-5.87-2.5-9.23Zm-11.67 25.57a63.045 63.045 0 0 0-13.34-1.68h-1.67c-4.496.06-8.97.623-13.34 1.68-10 2.09-15 11.74-15 11.74a127.017 127.017 0 0 1 13.34-5.45c4.17-1.26 11.67-.84 15.42-.42 3.75-.42 11.67-.84 15.42.42a111.841 111.841 0 0 1 13.75 5.45s-5-9.61-14.58-11.73v-.01Zm-61.27-3.36s-1.25.84-2.08 5c-.42 4.19 0 6.71.83 8 .83.84 4.17 0 6.25-1.68 1.25-1.68 8.75-7.55 8.34-11.32-.41-3.77-5-4.61-5-4.61s-.83-.42-2.92-4.19c-2.09-3.77-4.58-13.41-6.25-24.31-2.08-10.9 2.92-23.9 3.75-28.93 2.08-4.61 6.25-12.16 5-16.77a70.962 70.962 0 0 0-5.42-13c-.83-1.26-5-1.26-7.92.42a7.811 7.811 0 0 1-5 1.26s4.17-4.61 4.17-7.55c0-2.94-.42-5.87-.83-6.29a7.463 7.463 0 0 0-2.5 2.1c-.83.84-5 8-12.5 5-7.09-2.93-9.17-11.74-9.17-11.74s-4.59 3.77-2.08 13c2.92 9.22 15.84 8.38 15.84 8.38a9.93 9.93 0 0 1-2.5 5c-2.5 2.1-5.84 2.1-6.67 2.93-.83.83-1.67 5.45 0 12.16s9.17 18.45 14.17 26c4.59 8 5.84 19.7 5.84 24.73a27.209 27.209 0 0 0 2.92 13 7.143 7.143 0 0 0 3.73 3.42v-.01Zm-22.09-109.41c.83-2.52 3.33-4.19 3.33-5 0-.81-1.25-2.1-2.92-2.1s-5.84.84-5.84 3.77a15.663 15.663 0 0 0 2.92 8.38 3.271 3.271 0 0 0 3.33 1.68s-1.24-4.21-.82-6.73Zm136.71 6.71a3.281 3.281 0 0 0 2.92-2.1 13.298 13.298 0 0 0 2.92-8c0-2.93-4.17-3.77-5.84-3.77s-2.92 1.26-2.92 2.1c.42.84 2.92 2.52 3.33 5 .84 2.58-.41 6.77-.41 6.77Zm-69.61-39-.83-1.68s-5.84-10.48-7.5-15.51c-2.08-4.61-3.33-12.16-4.58-13-.83-.84-5-2.1-11.25 0-5.84 2.52-15 6.71-20 7.55-4.58 1.26-9.59-.42-12.5.84-3.33 1.26-12.92 6.29-16.26 13-3.33 7.13-3.75 9.64-2.92 10.48.83.84 10.84 2.52 14.17 5s8.75 9.64 8.75 9.64-12.92-4.61-18.76-4.61c-5.84 0-6.67.84-7.09 5-.42 4.16-.42 7.55.83 7.55s11.25-6.71 16.26-3.35c5.01 3.36 10.84 7.55 13.34 10.06 2.5 2.1 5 3.35 5.84 2.93 1.67-.42 7.09-4.61 6.67-8.38-.42-3.33-.42-10-4.6-16.33-4.17-6.71-7.09-9.22-7.09-9.22s8.34 1.68 12.5 7.55a42.322 42.322 0 0 1 5.84 12.16s13.34-13 19.59-16.77c6.26-3.32 9.59-2.9 9.59-2.9v-.01Zm-10.84-64.56c-1.67-.84-21.26-4.19-33.76-4.19-12.5 0-20.42 1.26-24.17 5s-18.34 21.8-18.34 21.8l-20.42 30.18S389 455.952 381 463.082c-7.92 6.71-17.92 16.77-30.84 21a111.037 111.037 0 0 1-23 4.21v5.74a63.062 63.062 0 0 0 25-3.66c17.92-6.71 47.1-27.25 51.68-34.8l4.58-6.71s1.67-7.13 8.34-16.77 13.34-17.19 29.18-23.06c15.84-5.45 41.26-13.83 41.26-13.83s10-3.35 12.5-5.87c3.05-2.55 1.38-4.23-.29-5.07v-.01Zm-172 138.54.07 17.44c15.76-11.85 38-17.58 45.25-19.31 9.17-1.68 12.92.42 17.51-2.52 4.17-3.35 5.84-12.16 5.84-12.16s-3.33 1.26-20.42 8.8c-13.86 6.12-29.87 8.11-48.28 7.76l.03-.01Zm.16 37.86v1.73c3.5-.1 12.22-.28 16.82 0 5.83.42 12.5.84 20.84-1.68s10-4.61 10-4.61a33.225 33.225 0 0 1 2.08-10.06c2.08-5 4.17-5.87 4.17-5.87s-2.5 8.8 0 11.32c2.5 2.52 3.33 1.68 3.33 1.68s-1.25-5.45 1.25-10.06c2.08-4.61 2.92-5.45 2.92-5.45s0 5.87 2.5 8 3.33.84 3.33.84a15.887 15.887 0 0 1 0-8.38 13.83 13.83 0 0 1 3.75-6.71s-25-2.52-47.52 11.74c-14.95 9.75-21.04 15.06-23.5 17.52l.03-.01Zm2.83 27 91.6 77.58c8.54 2.69 10.7 2.42 10.7 2.42 6.23 2.12 12.49 7.12 21.24 10.5 21.27 8.38 48.77 16.76 60.86 16.33 29.19-1.26 74.18-18.85 103.8-29.75 1.12-.42 2.3-.89 3.5-1.41l77.21-59.11c2.37-3 4.61-5.92 6.86-8.73v-8.64c-9.41.7-20.51 1.38-26.31 1.16a72.566 72.566 0 0 1-25.42-6.29c-6.25-2.51-29.18-13-37.1-16.35-7.92-3.35-8.34-3.36-8.34-3.36s-5.83-13.84-7.5-16.35a31.661 31.661 0 0 1-2.92-6.29s-9.17 12.16-11.67 17.19c-2.5 5.03-7.5 13.84-8.34 18-1.25 3.77-1.67 11.74-1.67 16.77 0 5.03-2.5 13-7.92 16.77-5.42 3.77-10.84 5.45-11.67 5.45-.83 0-5.42-2.94-6.67-2.94s-1.67 1.26-2.92 4.19c-1.25 2.93-2.5 8-7.09 9.64-4.17 1.68-25 1.68-28.76 1.68-3.76 0-24.59 0-28.76-1.68-4.59-1.68-5.84-6.71-7.09-9.64-1.25-2.93-1.67-4.19-2.92-4.19s-5.84 2.94-6.67 2.94c-.83 0-6.67-1.68-12.09-5.45-5.42-3.77-7.92-11.74-7.92-16.77a103.805 103.805 0 0 0-1.67-16.77c-.83-4.19-5.84-13-8.34-18s-11.67-17.19-11.67-17.19a22.137 22.137 0 0 1-2.5 6.29c-1.67 2.51-7.5 16.35-7.5 16.35s-.42 0-8.34 3.35-30.43 13.41-37.1 16.35a62.502 62.502 0 0 1-25.35 6.3c-3.19.13-8.16 0-13.58-.34l.03-.01Zm312.42-46.61s1.67.42 4.17 5.87a29.841 29.841 0 0 1 2.08 9.64s1.67 2.1 10 4.61c8.33 2.51 15 2.09 20.84 1.68 5.84-.41 18.34 0 18.34 0s-2.08-4.61-25-19.29c-22.51-14.67-47.93-12.16-47.93-12.16a16.465 16.465 0 0 1 4.17 6.71 15.866 15.866 0 0 1 0 8.38s.83 1.26 2.92-1.26c2.5-2.09 2.5-7.54 2.5-7.54s.83.84 3.33 5.45 1.25 10.06 1.25 10.06.41.84 3.33-.84c2.48-2.91-.03-11.3-.03-11.3l.03-.01Zm63.4 8.14v-26.76c-22.56 1.29-41.77-.2-58-7.36-17.09-7.55-20.43-8.8-20.43-8.8s1.67 8.8 6.25 11.74c4.58 2.94 7.92 1.26 17.09 2.93 9.17 2.1 40 10.06 54.6 27.67l.49.58Zm0-56.08v-4.84c-8.13.89-21.53-.51-33-4.23-12.5-4.19-22.51-13.83-30.43-21-7.92-7.17-21.67-26-21.67-26l-20.42-30.13s-14.59-18-18.34-21.8c-3.75-3.8-11.67-5-24.17-5-12.5 0-32.09 3.35-34.18 4.19-1.67.84-3.33 2.52-.42 5s12.92 5.87 12.92 5.87 25.43 8.38 41.26 14.25c16.26 5.45 22.51 13.42 29.18 23.06 6.67 9.64 8.34 16.77 8.34 16.77l4.59 6.71c4.59 7.13 33.76 27.67 50.85 34.38 12.62 5.02 25.65 4.67 35.47 2.78l.02-.01ZM350.6 676.462c1.26-.43 11.7-29.78 11.7-29.78s-5.33-5.86-10.64-11c-1.49-1.46-3-2.88-4.37-4.08-2.62-2.48-10.37-11.1-18.79-20.61-8-9.1-16.68-19-22-25.09l-2.61-.23 1.72 4c3.74 8.78 8.32 25.54 8.32 25.54l-5.83-2.48c-5.83-2.52-22.5-5-22.5-5s.4 0 22.5 25.58 41.28 43.58 42.5 43.15Zm26.27 39c2.92-7.12 11.66-36.91 11.66-36.91s.43 0 8.75 1.26c.46.07 1 .1 1.56.13.34 0 1.51.11 1.92.11a149.043 149.043 0 0 0 17-1l-9.85-8.34c-8.49-3.45-19.13-9.22-27.59-14.12-2.92-1.69-5.6-3.28-7.79-4.61-4-2.39-6.53-4-6.53-4s-1.26 4.64-4.17 16.8c-2.48 11.73-18.75 33.1-18.75 33.1l29.19 26.41s1.73-1.71 4.6-8.83Zm279.7 20.94-17.92-52s-1.19.46-3.45 1.26c-3.56 1.28-9.79 3.41-18.05 5.92l-1.35.41-.83.25c-7.08 2.12-15.48 4.47-24.89 6.78l-.82.2-3.08.74-.63.15c-8.29 2-17.27 3.86-26.71 5.54l-.48.09-4.67.8-1 .17c-1.727.28-3.47.553-5.23.82l-1.76.26-3.42.49-2.59.35-2.69.37-2.68.33-2.93.33-2.43.26c-1.78.186-3.567.36-5.36.52-2 .16-3.95.27-5.93.36h-1.3c-1.693.06-3.39.096-5.09.11h-.94c-4.127 0-8.26-.134-12.4-.4h-.74c-1.913-.127-3.82-.277-5.72-.45h-.52c-4.127-.394-8.227-.89-12.3-1.49l-1-.15c-1.76-.267-3.507-.547-5.24-.84l-.52-.08h-.23c-2.2-.38-4.383-.784-6.55-1.21l-1.12-.29c-2-.4-4-.817-6-1.25l-.47-.1a381.887 381.887 0 0 1-60.26-19c-3.74-1.52-5.83-2.48-5.83-2.48l-14.15 52.41s40.44 29.34 126.71 37.29c86.27 8.39 152.57-36.47 152.57-36.47Zm32.07-36s-16.24-21.4-18.75-33.15c-2.92-12.16-4.17-16.8-4.17-16.8s-2 1.29-5.3 3.28c-2.15 1.29-4.8 2.92-7.82 4.67-2.65 1.55-5.56 3.2-8.58 4.86l-24.54 18.79c2 .17 3.9.31 5.75.4a53.66 53.66 0 0 0 8.81-.1h.4c8.32-1.26 8.75-1.26 8.75-1.26s8.81 29.33 12.12 36.91c2.92 7.12 4.57 8.78 4.57 8.78l28.76-26.38Zm57.52-90.55s-16.66 2.52-22.5 5l-5.83 2.52s4.57-16.76 8.32-25.58c3.11-7.22 3.91-9.08 4.11-9.51-.62.68-5 5.71-10.8 12.39v10.87l-30 23c-2.22 2.42-4 4.25-5 5.19-.83.8-1.72 1.62-2.62 2.52-5.73 5.67-12 12.59-12 12.59s10.44 29.35 11.66 29.75c1.22.4 20.5-17.59 42.59-43.21l22.07-25.53Z" fill="#fff"/></g><defs><clipPath id="a"><path fill="#fff" d="M0 0h1024v1024H0z"/></clipPath></defs></svg>