<svg width="1024" height="1024" fill="none" xmlns="http://www.w3.org/2000/svg"><g clip-path="url(#a)"><path d="M512 1024c282.77 0 512-229.23 512-512S794.77 0 512 0 0 229.23 0 512s229.23 512 512 512Z" fill="#9ABEFF"/><path d="M740.54 378.849a142.7 142.7 0 0 0-87.73-67.63 148.887 148.887 0 0 0-23.51-4.06 142.77 142.77 0 0 0-235 0 144 144 0 0 0-111.45 71.59 145.493 145.493 0 0 0-5.54 133.25 146.118 146.118 0 0 0 5.56 133 142.994 142.994 0 0 0 87.73 67.63 136.152 136.152 0 0 0 24 4.06 142.564 142.564 0 0 0 117.5 61.832 142.558 142.558 0 0 0 117.5-61.832 144.178 144.178 0 0 0 111.705-72.049 144.191 144.191 0 0 0 5.295-132.821 145.817 145.817 0 0 0-6.09-133l.03.03Zm-35.42 21.07a100.37 100.37 0 0 1 12.13 65.08 146.184 146.184 0 0 0-196.25-.24c-6.37-40.28 12.84-80.33 48.55-101.19a98.425 98.425 0 0 1 110.124 7.019 98.443 98.443 0 0 1 25.396 29.321l.05.01Zm-193.59-107.39a96.008 96.008 0 0 1 60.56 21.91 146.709 146.709 0 0 0-28.53 12.56 143.002 143.002 0 0 0-66.95 153.61 97.689 97.689 0 0 1-61.28-90.73c-.23-53.15 42.74-96.52 96.2-97.08v-.27Zm-192.22 109.78a99.404 99.404 0 0 1 50-41.85 140.461 140.461 0 0 0-3.61 30.7c-.18 61.67 41 116.41 101.93 135.47a99.698 99.698 0 0 1-111.6 9c-48-27.29-64.55-86.54-37.2-133.32h.48Zm-.48 221.69a99.327 99.327 0 0 1-12-65 151.564 151.564 0 0 0 25 18.38 145.806 145.806 0 0 0 72.84 19.53 148.929 148.929 0 0 0 37.48-4.91 145.543 145.543 0 0 0 60.85-32.87c6.35 40.29-12.8 80.34-48.45 101.3a99.577 99.577 0 0 1-110.548-6.929 99.564 99.564 0 0 1-25.702-29.201l.53-.3Zm193.67 107.27a95.622 95.622 0 0 1-60.59-22.1 139.938 139.938 0 0 0 28.54-12.38 142.8 142.8 0 0 0 67-153.44A97.562 97.562 0 0 1 607 651.519c-8.45 45.52-47.92 78.9-94.54 80l.04-.25Zm182.61-109.62a95.998 95.998 0 0 1-48.49 41.89 138.477 138.477 0 0 0 3.51-30.73c.14-61.72-39.82-116.49-98.94-135.6a95.68 95.68 0 0 1 36.11-18.74 94.708 94.708 0 0 1 72.22 10.24 98.333 98.333 0 0 1 35.59 133.29v-.35Z" fill="#fff"/></g><defs><clipPath id="a"><path fill="#fff" d="M0 0h1024v1024H0z"/></clipPath></defs></svg>