<svg width="1024" height="1024" fill="none" xmlns="http://www.w3.org/2000/svg"><g clip-path="url(#a)"><path d="M512 1024c282.77 0 512-229.23 512-512S794.77 0 512 0 0 229.23 0 512s229.23 512 512 512Z" fill="#728DBE"/><path d="M699.43 324.57v374.86H324.57V324.57h374.86Zm34.07-34.07h-443v443h443v-443ZM522.34 418.15h-20.68a69.409 69.409 0 0 0-69.41 69.41v118.3h33V488.28a40.644 40.644 0 0 1 11.903-28.737 40.644 40.644 0 0 1 28.737-11.903H518a40.644 40.644 0 0 1 28.737 11.903 40.644 40.644 0 0 1 11.903 28.737v117.57h33v-118.3a69.408 69.408 0 0 0-69.3-69.4Z" fill="#fff"/></g><defs><clipPath id="a"><path fill="#fff" d="M0 0h1024v1024H0z"/></clipPath></defs></svg>