<svg width="1024" height="1024" fill="none" xmlns="http://www.w3.org/2000/svg"><g clip-path="url(#a)"><path d="M512 1024c282.77 0 512-229.23 512-512S794.77 0 512 0 0 229.23 0 512s229.23 512 512 512Z" fill="#56595B"/><path d="m577.49 299.999-1.1-89.11.8-.1a28.731 28.731 0 0 1 3.89-.19h40.51c2.106.001 4.207.185 6.28.55a8.723 8.723 0 0 1 7.38 7.19c.379 1.957.566 3.947.56 5.94v38.92a23.339 23.339 0 0 1-.56 5.06c-.83 3.51-3 5.08-6.57 4.66a23.77 23.77 0 0 1-3.68-.73c-.8-.2-1.55-.4-2.32-.53-.77-.13-1.26-.27-2-.46l-.24-.06c7.86 22.62 13.43 40.43 18 57.56l.52 1.93-1.79-.89a24.119 24.119 0 0 1-2.38-1.37l-.74-.46c-1.41-.92-2.8-1.84-4.18-2.76-2.71-1.8-5.51-3.67-8.25-5.34a8.002 8.002 0 0 1-3.45-4.65c-6.9-19.63-12.29-34.67-17.45-48.74-1.2-3.42-1.54-7.14-1.13-12.09l.09-1 1 .24c2.95.69 6 1.34 9 2 2.15.45 4.31.91 6.47 1.39v-30.91c-3.58-.26-7.11-.48-10.7-.71-3-.19-6.13-.38-9.3-.6-.16 7.26 0 14.55.08 21.62.1 6.07.21 12.35.13 18.48v42l-1.37-.49c-5.53-2-11.06-3.92-16.94-6.06l-.56-.29ZM388 325.069a3.721 3.721 0 0 0 1.75.41 5.89 5.89 0 0 0 2-.38 19.45 19.45 0 0 0 5.27-2.62 209.238 209.238 0 0 1 34.41-17.74 36.06 36.06 0 0 0 6.87-3.9 10.756 10.756 0 0 0 4.51-9c0-7.16 0-14.57.18-21.79a7.257 7.257 0 0 0-4.31-6.94c-1.42-.65-2.75-1.39-4.15-2.17l-1.52-.84-5.93-3.5c-6.64-3.92-13.52-8-20.32-12.14a5.204 5.204 0 0 1-2.12-2.16c-.17-5.49-.18-11.23-.18-16.82a171.477 171.477 0 0 1 19.63-1.16v17.68h.9a142.39 142.39 0 0 0 17.84-1.39l1.25-.15v-7.99c0-4.8.08-9.34 0-13.87 0-3.54-2.54-6.35-6.44-7.17a29.117 29.117 0 0 0-7.06-.75c-5.56 0-11.12 0-16.71.09-5.59.09-11.27.09-17 .09-7.44 0-11.15 3.64-11.34 11.15-.12 5.9-.08 12 0 17.82v8.84c0 4.61 1.85 8 5.5 10s7.51 4.41 11.14 6.62c2.78 1.69 5.65 3.43 8.47 5.08 2.37 1.38 4.86 2.66 7.26 3.9 1.9 1 3.7 1.9 5.44 2.87v17.25c-5.75 2.57-11.65 5.14-18.91 8.22v-20.46l-1 .16c-3.69.55-13.93 4.92-17.67 7.53l-.38.27v29.28c.031.81.162 1.613.39 2.39a4.907 4.907 0 0 0 2.23 3.29Zm307.41 457.23c-1.07-2-2.16-4.12-3.26-6.2-1.3-2.47-2.61-4.95-3.87-7.37-1.53-3-3.06-5.9-4.59-8.83-1.53-2.93-3.06-5.85-4.58-8.81-.63-1.27-1.89-2.75-3.23-3a59.373 59.373 0 0 0-7.45-.21H665v65.18h14.2v-34.73c5.71 11.26 11.6 22.86 17.57 34.44l.25.49h6.13a54.68 54.68 0 0 0 5.49-.23l.81-.08v-64.87h-14l-.04 34.22Zm-244.07-558.37h.8c2.82.08 5.56 0 8.21-.09 3.47-.11 6.76-.21 10.17 0-.09 11.57-.22 23.06-.36 34.53-.14 11.47-.27 23.21-.36 34.85v1l1-.15 5.65-.82c4.2-.62 8.17-1.2 12.16-1.7l.79-.1v-.79c0-.62 0-1.15.09-1.67s.09-1 .09-1.56c.18-12.61.18-25.43.18-37.82 0-7.87 0-16 .18-23.95.024-.878.104-1.753.24-2.62v-.08h19.06v-.94c-.18-3.76-.18-7-.18-10.4v-.9h-57.72l-.07.82a60.63 60.63 0 0 0 0 11.51l.07.88Zm-97.78 524.54a16.186 16.186 0 0 0-4.39-.57h-26.64c-4.1 0-8.28 1-8.28 8.29.12 9.46.08 19.11 0 28.45v22c.2 3.68 1.61 5.43 5 6.22 1.424.375 2.889.566 4.36.57h24.13a19.978 19.978 0 0 0 4.71-.56c3.52-.83 5-2.7 5-6.28v-13a16.087 16.087 0 0 0-.38-3.06l-.14-.72h-13.52v13h-14.15c-.8-7.4-.35-39.61.31-44.83h13.84v12.24h14.22v-16.74a5.146 5.146 0 0 0-4.07-5.01Zm274 54.38a26.193 26.193 0 0 1-6-.22v-17.63h18.55v-10.09h-18.46c-.54-4.26-.56-13.14.11-16.57h21.44v-10.07h-.89c-11.71-.18-22.82-.18-34.58-.18h-.9v65h36.73v-10.28h-12c-1.35-.06-2.68-.01-3.96.04h-.04Zm-65.51-2c3.427-7.22 6.887-14.47 10.38-21.75 3.494-7.28 6.937-14.493 10.33-21.64a11.999 11.999 0 0 0 1-8.54l-.15-.56-.57-.1c-5.38-.93-34.07-.57-36.77.2l-.65.19v9.68h20.76l-.43 1c-.4.94-.75 1.75-1.16 2.58-6.55 13.81-13.32 28.09-20 42a11.923 11.923 0 0 0-1 8.52l.17.68h40v-10.66h-22.57l.06-.13c.24-.53.45-.99.64-1.46l-.04-.01Zm-122-42.52h13.68v43.51c0 3.36-.07 6.84.21 10.39l.06.83h7.26c2.09 0 4.15 0 6.26-.23l.82-.07v-54.6h13.68v-10.08h-42l.03 10.25Zm-46.63 54.74h14.22v-65h-14.17l-.05 65Zm113.07 0h14.22v-65h-14.17l-.05 65Zm-4.1-523.84c2.44-8.22 4.877-16.41 7.31-24.57 5.19-17.43 10.56-35.45 15.74-53.21l.19-.65h19.89l.19.64c7.42 24.82 15 51.84 23.77 85l.37 1.4-1.42-.28c-4.21-.84-8.15-1.7-12-2.52l-5.86-1.26-.56-.12-.13-.55c-1.19-4.94-2.42-10-3.8-15.39-3.47-.26-6.91-.56-10.35-.85-3.44-.29-6.8-.59-10.24-.85-.77 2.76-1.45 5.43-2.11 8-.48 1.9-1 3.79-1.47 5.67l-.18.67h-19.64l.3-1.13Zm33.19-54.85c-1.76 7.39-3.58 14.74-5.49 22.49l-1.71 7.13c2.15.15 4.28.32 6.45.49 2.68.22 5.45.44 8.35.62-1.85-7.41-3.62-14.66-5.37-21.82l-2.23-8.91Zm-91 477.85a17.005 17.005 0 0 0 1.9-4l.42-1.13-.51-.41c-2.79-2.24-5.66-2-8.19-1.85h-.57a67.394 67.394 0 0 0-24.45 7.84 53.267 53.267 0 0 0-17.76 14.65l-.07.11-.81 1.49c-.56 1-1.08 2-1.68 3l-.64 1 1.17.32c2.351.655 4.78.992 7.22 1 2.355-.028 4.7-.296 7-.8a68.994 68.994 0 0 0 32.08-16 32.085 32.085 0 0 0 4.92-5.22h-.03Zm139.25-7.23c-1.94 0-4.36 0-6.12 1.92l-.27.3v.4c.39 3.66 2.57 5.93 5 8.13 10.55 9.77 21.83 15.62 34.49 17.87 2.212.399 4.453.613 6.7.64 2.495.015 4.98-.321 7.38-1l1.31-.37-.86-1.06c-.89-1.09-1.68-2.16-2.43-3.2a38.92 38.92 0 0 0-3.72-4.58c-6-6.52-14.1-11.6-24.68-15.54a55.55 55.55 0 0 0-16.31-3.51h-.49Zm72.19 9.2a24.521 24.521 0 0 0-4-3.94c-11.62-9.91-25.63-14.65-42.83-14.44-2.23-.17-5.45-.1-7.6 2.48l-.31.37.14.46c1 3.28 1.47 4.53 4.86 6.79a100.607 100.607 0 0 0 14.36 8.18 58.257 58.257 0 0 0 24.38 5.35h2.33a28.07 28.07 0 0 0 9.84-2.05l1.18-.5-.86-.94c-.51-.59-1.01-1.17-1.51-1.72l.02-.04Zm-234.63-12.1c.64-.92 1.44-2.3 1-3.6-.44-1.3-2-1.93-3.06-2.27a7.416 7.416 0 0 0-2.09-.41h-3a90.314 90.314 0 0 0-9.19.21 62.503 62.503 0 0 0-30.36 11.54 41.374 41.374 0 0 0-8.27 8.65l-.7 1 1.18.35c1.454.479 2.942.85 4.45 1.11a61.25 61.25 0 0 0 8.61.62c13.72 0 26.63-4.84 39.23-14.65a9.22 9.22 0 0 0 2.2-2.51v-.04Zm259.61-4.52-2.31-1.82a61.043 61.043 0 0 0-5.83-4.27c-10.36-6.35-22.37-9-36.72-8.23a43.927 43.927 0 0 0-8.4 1.28c-1.48.29-4.22.84-5.17 3.45l-.14.38.19.36c2.46 4.57 9 8.52 18.45 11.11a76.013 76.013 0 0 0 19.48 2.61c7.29 0 14.33-1.2 19.33-4.19l1.12-.68Zm-286.37-2.58.5-.28c2.47-1.4 5.27-3 6.56-6.49l.18-.48-.32-.4a9.376 9.376 0 0 0-5.9-3.2 58.266 58.266 0 0 0-19.56-.74c-9.82 1-18.14 3.74-25.44 8.43a20.493 20.493 0 0 0-6.37 5.83l-.61.91 1 .42a49.239 49.239 0 0 0 6 2.19 42.5 42.5 0 0 0 12.18 1.7 58.996 58.996 0 0 0 6.71-.4 67.543 67.543 0 0 0 25.07-7.49ZM643 674.159l-.27.45.26.46a10.75 10.75 0 0 0 6.3 4.92l1.88.54a98.643 98.643 0 0 0 13.72 3.27c3.184.49 6.399.741 9.62.75a50.58 50.58 0 0 0 18.92-3.5 38.969 38.969 0 0 0 4.52-2.19c.84-.45 1.74-.94 2.76-1.44l1.45-.72-1.38-.85c-1-.63-1.86-1.18-2.63-1.69-1-.66-1.87-1.23-2.82-1.76-5.77-3.13-12.24-4.88-20.34-5.51a63.409 63.409 0 0 0-24.81 2.55c-2.69.75-5.43 1.74-7.18 4.72Zm-270.33-5.09a64.843 64.843 0 0 0-32.45-.74 35.577 35.577 0 0 0-16.79 7.75l-1.06.88 1.24.62c.86.43 1.65.84 2.4 1.23a49.02 49.02 0 0 0 5 2.4 49.764 49.764 0 0 0 18.73 3.42 70.94 70.94 0 0 0 9.45-.66 82.634 82.634 0 0 0 12.2-2.91c1.26-.37 2.51-.73 3.79-1.09a9.429 9.429 0 0 0 3.608-1.83 9.428 9.428 0 0 0 2.512-3.17l.24-.48-.3-.44c-2.16-3.05-5.42-4.05-8.6-4.98h.03ZM716 650.389a33.511 33.511 0 0 0-4.07-1.66c-9.15-2.88-18.91-3-29.83-.38a89.594 89.594 0 0 0-13.47 4.55c-2.47 1.06-5 2.42-6.43 6.28l-.29.79.76.35c.685.322 1.353.679 2 1.07a11.077 11.077 0 0 0 3.37 1.5 46.102 46.102 0 0 0 9.88 1.83c2.374.22 4.707.33 7 .33a57.658 57.658 0 0 0 26.81-6.19 48.236 48.236 0 0 0 5.67-3.55c.79-.54 1.63-1.12 2.53-1.73l1.44-1-1.61-.63c-1.49-.5-2.66-1.04-3.76-1.56Zm-376.61 14.67a68.78 68.78 0 0 0 14.66-1.63 21.582 21.582 0 0 0 4.89-1.69c1.13-.56 2.64-1.48 2.79-3 .15-1.52-1.13-2.65-2.07-3.39a21.223 21.223 0 0 0-4.36-2.84 65.531 65.531 0 0 0-37.3-5.23c-4.88 1.17-8.92 2.28-12.9 5l-.87.6.73.77a29.004 29.004 0 0 0 12.23 7.43 64.372 64.372 0 0 0 22.2 3.98Zm-.95-20.69c2.33-.19 5-.61 6.62-3.1l.27-.4-.19-.45c-1.87-4.41-7.38-8.57-15.5-11.69-11.67-4.49-28.88-6.53-39.18-1.74l-1.22.57 1 .91c.69.64 1.33 1.25 1.94 1.84a31.577 31.577 0 0 0 3.72 3.27c10.2 7.44 21.91 11.09 35.62 11.09a88.637 88.637 0 0 0 6.93-.3h-.01Zm390.68-19.23a45.565 45.565 0 0 0-17.27-.92 65.004 65.004 0 0 0-26.63 9.48 27.765 27.765 0 0 0-5.07 4.31 2.833 2.833 0 0 0-.185 4.35c.413.373.926.617 1.475.7a24.288 24.288 0 0 0 7.31 1.49c5.106.071 10.21-.234 15.27-.91 10.79-1.8 19.85-5.87 26.91-12.1l.11-.11a38.575 38.575 0 0 1 3-3.35l1-1-1.38-.46c-2.16-.76-3.24-1.12-4.54-1.49v.01Zm-398.45-3.66.41-.35-.11-.53c-.78-3.72-3.28-5.84-5.72-7.9-9.71-7.81-20.4-12.48-31.78-13.87-4.37-.53-9.12-.77-14.26.94l-1.06.35.56 1a33.256 33.256 0 0 0 6.31 7.79c10.43 8.87 23.15 13.85 37.85 14.8 2.45-.05 5.21-.05 7.8-2.24v.01Zm414.43-21.4v-.82l-.82-.07c-.76-.07-1.51-.19-2.31-.32a22.973 22.973 0 0 0-3.69-.4c-14.48-.33-27.66 4.62-40.41 15.17a17.338 17.338 0 0 0-3.78 4.54 3.301 3.301 0 0 0-.51 2.94 3.4 3.4 0 0 0 2.52 1.82c1.468.36 2.97.564 4.48.61.334.002.668-.015 1-.05 15-1 27.25-5.82 37.43-14.79a38.438 38.438 0 0 0 4.79-5.21c.48-.59 1-1.18 1.44-1.74l.38-.45-.27-.53a2.263 2.263 0 0 1-.25-.7Zm-437.4-.75a23.3 23.3 0 0 0 6.18.75 9.97 9.97 0 0 0 2.49-.42c.464-.129.935-.232 1.41-.31l.85-.12-.09-.86c-.38-3.75-1-5-3.65-7.9-9-9.79-19.53-16.24-31.24-19.17a31.67 31.67 0 0 0-12.59-.73l-1.06.17.35 1c1.42 4.08 3.77 7.11 6.86 10.4 7.9 8.41 17.87 14.03 30.5 17.19h-.01Zm441.36-29.14a38.494 38.494 0 0 0-4.65.37c-13.71 2.26-25.31 8.95-35.41 20.44a19.998 19.998 0 0 0-3.33 4.94c-.3.56-.61 1.14-1 1.73l-.44.78.77.45a11 11 0 0 0 5.68 1.52 20.657 20.657 0 0 0 4.13-.52 63.512 63.512 0 0 0 22.64-9.67 45.247 45.247 0 0 0 14.72-14.94 35.67 35.67 0 0 0 1.66-3.69l.41-1.1-1.16-.12a36.031 36.031 0 0 0-4.01-.19h-.01Zm-447.94 6.06c1.513.527 3.099.817 4.7.86l1.22.1a2.934 2.934 0 0 0 2.43-1 3.002 3.002 0 0 0 .41-2.72l-.18-.54a20.857 20.857 0 0 0-1.91-4.54c-8.51-12.77-19.46-21.25-32.49-25.19a30.315 30.315 0 0 0-5.82-1.27c-.77-.12-1.58-.24-2.42-.39l-1.26-.22.22 1.26a24 24 0 0 0 4.09 9.88c7.05 10.87 17.21 18.64 31.02 23.77h-.01Zm454.43-34.25a24.254 24.254 0 0 0-3.78.43c-10.66 2.2-20.06 7.88-28.74 17.37a71.69 71.69 0 0 0-6.82 9l-.81 1.2a6.144 6.144 0 0 0-1 6.31l.15.32.33.14c.951.396 1.971.6 3 .6a15.516 15.516 0 0 0 5.11-1.15l1-.34a60.77 60.77 0 0 0 23.39-15.35c4.37-4.59 7.23-8.73 9-13 .494-.925.912-1.888 1.25-2.88.17-.46.36-1 .58-1.5l.54-1.35-1.45.12-1.75.08Zm-459.41 10.42a9 9 0 0 0 2.95 1h.25c.407.064.819.094 1.23.09h2.89l.13-.74c.55-3.11.59-4.62-1.16-8.12-6.25-12.49-14.67-21.51-25.81-27.6a56.745 56.745 0 0 0-6.4-2.4c-1.18-.39-2.38-.79-3.58-1.23l-1-.38-.16 1.1c-.05.38-.11.68-.15.92a2.46 2.46 0 0 0 0 1.49c.09.37.17.72.25 1.07.188.994.469 1.969.84 2.91 5.08 13.68 14.82 24.15 29.72 31.89Zm458.21-38c-15.19 5.29-26.15 16.05-33.5 32.94a10.518 10.518 0 0 0-.5 3.36c0 .51 0 1-.1 1.54l-.1.86.86.13a22.84 22.84 0 0 0 3.28.33 10.385 10.385 0 0 0 5-1.51c12.28-6.52 21.32-15.62 26.88-27.1l.32-.76c1.2-2.89 2.45-5.87 2.27-9.71l-.05-1.1-1.07.27c-.59.15-1.08.23-1.52.31a8.507 8.507 0 0 0-1.77.44ZM293 526.619a7.241 7.241 0 0 0 4.54 1.78 8.385 8.385 0 0 0 2.38-.37l.7-.21-.06-.73c-.06-.7-.08-1.4-.1-2.09a18.487 18.487 0 0 0-.47-4.36 42.446 42.446 0 0 0-2.94-8.08c-5.5-11.61-12.62-19.92-21.81-25.43-1.86-1-3.71-1.87-5.86-2.86l-1.78-.82v3.33c-.068.98-.048 1.964.06 2.94 2.91 15.01 11.21 27.09 25.34 36.9Zm444-29.93c-6.94 8.13-11.31 16.45-13.34 25.45-.4 2.21-.56 4.07 1.27 6.31l.41.5.6-.23c.41-.15.84-.29 1.29-.43a11.985 11.985 0 0 0 3.39-1.46c14-9.2 22.42-21 25.77-36.21.209-1.128.303-2.273.28-3.42 0-.78 0-1.58.1-2.47l.12-1.53-1.39.64c-1.35.62-2.47 1.07-3.46 1.47-.74.29-1.42.57-2.15.89a43.78 43.78 0 0 0-12.89 10.48v.01Zm-445.75 3.38a14.009 14.009 0 0 0 3.6 2.35c.71.37 1.45.75 2.14 1.19l.72.46.49-.7c2.27-3.21 2-6.47 1.41-9.51a59.288 59.288 0 0 0-15.35-30.7 29.494 29.494 0 0 0-10.57-7.6l-1.14-.47-.1 1.23c-.06.66-.13 1.27-.2 1.85a16.137 16.137 0 0 0-.16 3.7c1.24 14.61 7.52 27.13 19.19 38.2h-.03Zm433-3.33a6.452 6.452 0 0 0 1.51 6l.34.34.47-.09c12.93-2.47 27.79-30.56 24.84-47l-.24-1.35-1.14.76c-.77.52-1.53 1-2.25 1.39a22.71 22.71 0 0 0-3.59 2.45c-10.83 9.02-17.35 21.27-19.95 37.49l.01.01Zm-432.54-27.6c1.48 2.22 3.25 4.45 7.23 5.24l.8.16.24-.79c.15-.49.31-1 .47-1.41a11.11 11.11 0 0 0 .83-3.69c.38-16.43-4.85-30.28-15.57-41.17a29.63 29.63 0 0 0-3.34-2.74l-1.54-1.15-.4 1.19c-.16.49-.32.85-.47 1.18-.19.402-.344.821-.46 1.25a36.015 36.015 0 0 0 0 14.76 60.547 60.547 0 0 0 12.21 27.17Zm433.31 5 .31.31.44-.05c3.09-.39 4.88-2.58 6.46-4.52l.26-.32a58.822 58.822 0 0 0 12.25-28.34c.65-4.68 1-10.3-.94-16.42l-.39-1.2-1 .76-1 .71c-.9.625-1.753 1.317-2.55 2.07-10.65 10.31-15.92 23.71-16.12 41a8.085 8.085 0 0 0 2.26 6h.02Zm-426.88-31.74c1.17 2.35 2.8 4.88 5.94 5.86l.44.14.37-.28c2.49-1.86 2.88-4.44 3.23-6.68 1-5.35.51-10.74 0-15.39-1.2-9.6-4.29-17.8-9.18-24.39-.66-.85-1.35-1.59-2.08-2.36-.73-.77-1.38-1.47-2.07-2.33l-1-1.24-.56 1.48c-.33.89-.59 1.49-.83 2-.15.34-.28.66-.44 1.05-1.6 4.79-2.11 10-1.66 16.92a59.294 59.294 0 0 0 7.84 25.22Zm418.18.85c.36 1.8.77 3.83 3 4.95l.4.2.4-.2c4.57-2.28 8.7-8.82 11.34-17.92 3-10.3 4-25-.71-32.86l-.6-1-.81.81a38.496 38.496 0 0 0-3.67 4c-4.56 5.91-7.56 13.1-9.18 22a55.821 55.821 0 0 0-.18 20.02h.01Zm-405.45-20.9c.42.47.85 1 1.22 1.46l.5.66.7-.44a9.7 9.7 0 0 0 4.54-6.66 62.204 62.204 0 0 0 1.28-25.21 41.157 41.157 0 0 0-6.47-17.33 23.947 23.947 0 0 0-2.24-2.44l-.92-.92-.54 1.18c-.36.79-.71 1.45-1.06 2.1a18.073 18.073 0 0 0-1.31 2.84c-4.85 13.68-4.07 27.44 2.36 42.07.503.99 1.154 1.897 1.93 2.69h.01Zm395.75-3.15.27.58c.69 1.42 1.56 3.19 3.5 4l.31.12.31-.1a7.657 7.657 0 0 0 4.51-4.83c5.86-14.06 6.69-27.28 2.54-40.44a35.094 35.094 0 0 0-2-4.3c-.34-.65-.7-1.34-1.08-2.1l-.66-1.32-.87 1.2c-.38.53-.74 1-1.07 1.44a22.327 22.327 0 0 0-2.24 3.35c-6.84 13.03-7.98 26.91-3.53 42.4h.01Zm-24.92-43.93 1.36 1.19.59-.64c2.44-2.63 2.89-3.51 3.47-6.79a57.476 57.476 0 0 0-4.38-30.72 36.398 36.398 0 0 0-9.22-13.1l-1-.94-.44 1.32c-.22.67-.45 1.29-.66 1.87a26.526 26.526 0 0 0-1.17 3.82c-2.74 13.7-.11 26.92 8 40.44a16.955 16.955 0 0 0 3.44 3.54l.01.01Zm-344.7-6.33c.36 2.14.8 4.81 3.76 7l.62.46.55-.55c.41-.41.83-.8 1.25-1.19a16.342 16.342 0 0 0 2.84-3.12c8-13.22 10.61-26.82 7.85-40.45a28.724 28.724 0 0 0-1.45-4.24l-.57-1.47-.55-1.42-1 1.16c-.59.69-1.16 1.34-1.7 2a34.927 34.927 0 0 0-3.4 4.25c-7 10.52-9.66 22.79-8.25 37.49l.05.08Zm361.59 30.33.41.14.36-.23c2.81-1.81 3.61-4.75 4.17-7.56a58.566 58.566 0 0 0 .73-24.51c-1.11-6-3-13-8.49-19.33l-.88-1-.6 1.2c-.28.57-.55 1.08-.81 1.57a22.05 22.05 0 0 0-1.76 3.95c-4.55 13.48-3.78 26.94 2.37 41.17a7.719 7.719 0 0 0 4.46 4.61l.04-.01Zm-373.59-.27.48.24.44-.31c4.13-2.88 7.25-9.79 8.56-19 1.54-10.76.49-24.83-5.31-32l-.79-1-.67 1.06c-.42.66-.84 1.28-1.24 1.87a32.207 32.207 0 0 0-2.23 3.62c-5.86 12.07-6.88 25-3.12 39.68.53 2.22 1.31 4.6 3.88 5.84Zm34.28-43.46.39.27.45-.17c11.83-4.51 22.11-33.32 16.91-47.43l-.41-1.11-1 .69c-1.28.91-2.21 1.65-3.16 2.43-10.28 9.95-15.38 22.88-15.58 39.54.04 2.24.32 4.37 2.4 5.83v-.05Zm298.72-4.27c1.45 1.81 3.24 4.05 6.16 4.47l.53.08.32-.44c2.64-3.62 3-10.16 1-18.41-2.68-11.17-9.69-24.66-17.91-28.83l-1-.49-.31 1c-1.69 5.64-1.84 8.79-.75 16.07a57.673 57.673 0 0 0 11.96 26.55Zm28.81 272.54a217.732 217.732 0 0 1-25.68 30.56 221.01 221.01 0 0 1-31.13 25.14 227.24 227.24 0 0 1-35.8 19 210.534 210.534 0 0 1-49.12 13.78l15.51 4a4.929 4.929 0 0 1 3.11 2.24 5.098 5.098 0 0 1 .6 3.89l-.9 3.43a4.916 4.916 0 0 1-2.24 3.11 5.122 5.122 0 0 1-3.89.6l-44.22-11.28v17.72h-1.8v-17.69l-43.85 11.18a5 5 0 0 1-3.82-.62 5.141 5.141 0 0 1-2.32-3.09l-.9-3.41a5.21 5.21 0 0 1 3.71-6.14l15.57-3.93a207.745 207.745 0 0 1-49.19-13.81 204.842 204.842 0 0 1-35.8-19 198.413 198.413 0 0 1-31.1-25.14 217.965 217.965 0 0 1-25.67-30.55 201.432 201.432 0 0 1-19.36-35.09 204.45 204.45 0 0 1-16.52-80.46 203.174 203.174 0 0 1 35.81-115.56 217.868 217.868 0 0 1 25.68-30.56 221.125 221.125 0 0 1 31.1-25.13c.9-.56 1.78-1.12 2.67-1.7 1.47-.95 3-1.93 4.58-2.83l.94 1.53a203.1 203.1 0 0 0-91.42 170.3v4A194.687 194.687 0 0 0 365 642.309c38.25 41.69 90.08 64.69 146 65.06-.06-3.84-.14-7.93-.25-12.24a190.658 190.658 0 0 1-189.279-190.655A190.658 190.658 0 0 1 510.75 313.819c.26-5.06.43-8.21.43-8.34H513c0 .14.16 3.29.41 8.34a184.833 184.833 0 0 1 72.87 15 190.661 190.661 0 0 1 112.858 212.844A190.656 190.656 0 0 1 513.43 695.129c-.1 4.31-.19 8.41-.25 12.25 56.1-.24 108.07-23.32 146.44-65.06a195.326 195.326 0 0 0 53.42-134.07v-4a203.102 203.102 0 0 0-91.4-170.25l.94-1.53c2.76 1.58 5.07 3 7.27 4.54a198.108 198.108 0 0 1 31.09 25.12 217.704 217.704 0 0 1 25.67 30.55 201.191 201.191 0 0 1 19.39 35.1 204.503 204.503 0 0 1 16.64 80.47 203.16 203.16 0 0 1-35.81 115.56h-.02Zm-180.45-233.17a114.13 114.13 0 0 0-108.02 107.36c12.32-1.06 24-2.28 32.62-3.61 31.38-4.86 50.2-11.26 59.82-31.19 7.7-15.94 12.93-40.36 15.58-72.56Zm-108.15 117.53a114.123 114.123 0 0 0 108.34 110.14c-2-21.4-5-41.63-9.16-56.7-11.46-41.41-35.56-48.8-99.18-53.44Zm119.48 110.14A114.116 114.116 0 0 0 626 508.189c-63.58 4.68-87.72 12.15-99.17 53.42-4.17 15.07-7.1 35.3-9.14 56.7Zm108.23-120.13a114.13 114.13 0 0 0-108-107.54c2.64 32.28 7.87 56.77 15.59 72.74 9.71 19.94 28.52 26.35 59.82 31.19 8.67 1.35 20.33 2.56 32.59 3.61Zm-116.39-160.76c-90 1.38-163 74.27-164.46 164.26 9.9-.55 24.78-1.45 40-2.61a126.873 126.873 0 0 1 77.5-111.92 127.577 127.577 0 0 1 44.64-9.87c.79-11.66 1.61-26.62 2.32-39.86ZM345 504.849c.21 91.26 73.95 165.55 165 166.68-.53-12.89-1.28-26.62-2.35-40.21A126.876 126.876 0 0 1 395 553.789a127.568 127.568 0 0 1-10-46.52c-7.26-.46-15-.92-23.19-1.41l-16.81-1.01Zm169.21 166.68c91-1.12 164.79-75.42 165-166.68l-16.11 1c-8.473.507-16.44.993-23.9 1.46a126.885 126.885 0 0 1-77.58 114.15 127.582 127.582 0 0 1-45.06 9.89c-1.07 13.56-1.82 27.29-2.35 40.18Zm165-169.75c-1.43-90.06-74.46-163-164.54-164.37.7 13.23 1.52 28.18 2.27 39.85a123.677 123.677 0 0 1 44.72 9.88 126.342 126.342 0 0 1 40.43 27.2 124.981 124.981 0 0 1 27.2 40.44 127.594 127.594 0 0 1 9.86 44.45c15.28 1.16 30.15 2.04 40.02 2.55h.04Zm-168.72-182.38c-101.31.88-183.49 83.6-183.49 185.07s82.24 184.28 183.62 185.07c-.09-3.27-.2-6.64-.32-10.09a174.706 174.706 0 0 1-122.469-51.808A174.708 174.708 0 0 1 337.3 504.639v-.28l-4.2-.27v-1.8l4.22-.21a174.67 174.67 0 0 1 172.62-172.23c.2-3.78.39-7.31.55-10.45Zm3.1 370.14c101.41-.79 183.62-83.54 183.62-185.07 0-101.53-82.21-184.21-183.5-185.07.16 3.13.34 6.67.53 10.45a171.45 171.45 0 0 1 65.93 13.73 174.657 174.657 0 0 1 106.75 158.59c2.22.1 3.63.15 4 .15h.1l2.69-.17-2 1.75a.747.747 0 0 1-.53.19l-4.2.26v.28a174.686 174.686 0 0 1-173 174.81c-.19 3.47-.3 6.84-.39 10.1Z" fill="#fff"/></g><defs><clipPath id="a"><path fill="#fff" d="M0 0h1024v1024H0z"/></clipPath></defs></svg>