<svg width="1024" height="1024" viewBox="0 0 1024 1024" fill="none" xmlns="http://www.w3.org/2000/svg">
<g clip-path="url(#clip0_3_680)">
<path d="M512 1024C794.77 1024 1024 794.77 1024 512C1024 229.23 794.77 0 512 0C229.23 0 0 229.23 0 512C0 794.77 229.23 1024 512 1024Z" fill="#D3B69A"/>
<path d="M577.49 299.999L576.39 210.889L577.19 210.789C578.481 210.638 579.781 210.574 581.08 210.599H621.59C623.696 210.6 625.797 210.784 627.87 211.149C629.705 211.408 631.409 212.245 632.736 213.537C634.063 214.83 634.944 216.512 635.25 218.339C635.629 220.296 635.816 222.286 635.81 224.279V263.199C635.808 264.901 635.621 266.598 635.25 268.259C634.42 271.769 632.25 273.339 628.68 272.919C627.436 272.773 626.206 272.529 625 272.189C624.2 271.989 623.45 271.789 622.68 271.659C621.91 271.529 621.42 271.389 620.68 271.199L620.44 271.139C628.3 293.759 633.87 311.569 638.44 328.699L638.96 330.629L637.17 329.739C636.352 329.328 635.557 328.871 634.79 328.369L634.05 327.909C632.64 326.989 631.25 326.069 629.87 325.149C627.16 323.349 624.36 321.479 621.62 319.809C619.93 318.744 618.699 317.085 618.17 315.159C611.27 295.529 605.88 280.489 600.72 266.419C599.52 262.999 599.18 259.279 599.59 254.329L599.68 253.329L600.68 253.569C603.63 254.259 606.68 254.909 609.68 255.569C611.83 256.019 613.99 256.479 616.15 256.959V226.049C612.57 225.789 609.04 225.569 605.45 225.339C602.45 225.149 599.32 224.959 596.15 224.739C595.99 231.999 596.15 239.289 596.23 246.359C596.33 252.429 596.44 258.709 596.36 264.839V306.839L594.99 306.349C589.46 304.349 583.93 302.429 578.05 300.289L577.49 299.999ZM388 325.069C388.541 325.347 389.142 325.487 389.75 325.479C390.434 325.469 391.111 325.341 391.75 325.099C393.63 324.498 395.407 323.614 397.02 322.479C407.917 315.515 419.437 309.576 431.43 304.739C433.856 303.694 436.16 302.387 438.3 300.839C439.729 299.82 440.887 298.468 441.673 296.899C442.459 295.33 442.849 293.593 442.81 291.839C442.81 284.679 442.81 277.269 442.99 270.049C443.051 268.593 442.673 267.153 441.904 265.915C441.135 264.678 440.012 263.7 438.68 263.109C437.26 262.459 435.93 261.719 434.53 260.939L433.01 260.099L427.08 256.599C420.44 252.679 413.56 248.599 406.76 244.459C405.855 243.965 405.117 243.213 404.64 242.299C404.47 236.809 404.46 231.069 404.46 225.479C410.976 224.717 417.53 224.33 424.09 224.319V241.999H424.99C430.96 241.91 436.919 241.446 442.83 240.609L444.08 240.459V232.469C444.08 227.669 444.16 223.129 444.08 218.599C444.08 215.059 441.54 212.249 437.64 211.429C435.326 210.892 432.955 210.64 430.58 210.679C425.02 210.679 419.46 210.679 413.87 210.769C408.28 210.859 402.6 210.859 396.87 210.859C389.43 210.859 385.72 214.499 385.53 222.009C385.41 227.909 385.45 234.009 385.53 239.829V248.669C385.53 253.279 387.38 256.669 391.03 258.669C394.68 260.669 398.54 263.079 402.17 265.289C404.95 266.979 407.82 268.719 410.64 270.369C413.01 271.749 415.5 273.029 417.9 274.269C419.8 275.269 421.6 276.169 423.34 277.139V294.389C417.59 296.959 411.69 299.529 404.43 302.609V282.149L403.43 282.309C399.74 282.859 389.5 287.229 385.76 289.839L385.38 290.109V319.389C385.411 320.199 385.542 321.002 385.77 321.779C385.892 322.453 386.153 323.094 386.537 323.66C386.921 324.227 387.419 324.707 388 325.069ZM695.41 782.299C694.34 780.299 693.25 778.179 692.15 776.099C690.85 773.629 689.54 771.149 688.28 768.729C686.75 765.729 685.22 762.829 683.69 759.899C682.16 756.969 680.63 754.049 679.11 751.089C678.48 749.819 677.22 748.339 675.88 748.089C673.404 747.863 670.916 747.793 668.43 747.879H665V813.059H679.2V778.329C684.91 789.589 690.8 801.189 696.77 812.769L697.02 813.259H703.15C704.983 813.274 706.815 813.198 708.64 813.029L709.45 812.949V748.079H695.45L695.41 782.299ZM451.34 223.929H452.14C454.96 224.009 457.7 223.929 460.35 223.839C463.82 223.729 467.11 223.629 470.52 223.839C470.43 235.409 470.3 246.899 470.16 258.369C470.02 269.839 469.89 281.579 469.8 293.219V294.219L470.8 294.069L476.45 293.249C480.65 292.629 484.62 292.049 488.61 291.549L489.4 291.449V290.659C489.4 290.039 489.4 289.509 489.49 288.989C489.58 288.469 489.58 287.989 489.58 287.429C489.76 274.819 489.76 261.999 489.76 249.609C489.76 241.739 489.76 233.609 489.94 225.659C489.964 224.781 490.044 223.906 490.18 223.039V222.959H509.24V222.019C509.06 218.259 509.06 215.019 509.06 211.619V210.719H451.34L451.27 211.539C450.905 215.367 450.905 219.221 451.27 223.049L451.34 223.929ZM353.56 748.469C352.13 748.079 350.653 747.887 349.17 747.899H322.53C318.43 747.899 314.25 748.899 314.25 756.189C314.37 765.649 314.33 775.299 314.25 784.639V806.639C314.45 810.319 315.86 812.069 319.25 812.859C320.674 813.234 322.139 813.425 323.61 813.429H347.74C349.327 813.43 350.908 813.242 352.45 812.869C355.97 812.039 357.45 810.169 357.45 806.589V793.589C357.422 792.559 357.294 791.535 357.07 790.529L356.93 789.809H343.41V802.809H329.26C328.46 795.409 328.91 763.199 329.57 757.979H343.41V770.219H357.63V753.479C357.625 752.305 357.218 751.168 356.478 750.257C355.737 749.346 354.708 748.715 353.56 748.469ZM627.56 802.849C625.559 803.006 623.545 802.932 621.56 802.629V784.999H640.11V774.909H621.65C621.11 770.649 621.09 761.769 621.76 758.339H643.2V748.269H642.31C630.6 748.089 619.49 748.089 607.73 748.089H606.83V813.089H643.56V802.809H631.56C630.21 802.749 628.88 802.799 627.6 802.849H627.56ZM562.05 800.849C565.477 793.629 568.937 786.379 572.43 779.099C575.924 771.819 579.367 764.606 582.76 757.459C584.137 754.834 584.493 751.791 583.76 748.919L583.61 748.359L583.04 748.259C577.66 747.329 548.97 747.689 546.27 748.459L545.62 748.649V758.329H566.38L565.95 759.329C565.55 760.269 565.2 761.079 564.79 761.909C558.24 775.719 551.47 789.999 544.79 803.909C543.411 806.526 543.055 809.563 543.79 812.429L543.96 813.109H583.96V802.449H561.39L561.45 802.319C561.69 801.789 561.9 801.329 562.09 800.859L562.05 800.849ZM440.05 758.329H453.73V801.839C453.73 805.199 453.66 808.679 453.94 812.229L454 813.059H461.26C463.35 813.059 465.41 813.059 467.52 812.829L468.34 812.759V758.159H482.02V748.079H440.02L440.05 758.329ZM393.42 813.069H407.64V748.069H393.47L393.42 813.069ZM506.49 813.069H520.71V748.069H506.54L506.49 813.069ZM502.39 289.229C504.83 281.009 507.267 272.819 509.7 264.659C514.89 247.229 520.26 229.209 525.44 211.449L525.63 210.799H545.52L545.71 211.439C553.13 236.259 560.71 263.279 569.48 296.439L569.85 297.839L568.43 297.559C564.22 296.719 560.28 295.859 556.43 295.039L550.57 293.779L550.01 293.659L549.88 293.109C548.69 288.169 547.46 283.109 546.08 277.719C542.61 277.459 539.17 277.159 535.73 276.869C532.29 276.579 528.93 276.279 525.49 276.019C524.72 278.779 524.04 281.449 523.38 284.019C522.9 285.919 522.38 287.809 521.91 289.689L521.73 290.359H502.09L502.39 289.229ZM535.58 234.379C533.82 241.769 532 249.119 530.09 256.869L528.38 263.999C530.53 264.149 532.66 264.319 534.83 264.489C537.51 264.709 540.28 264.929 543.18 265.109C541.33 257.699 539.56 250.449 537.81 243.289L535.58 234.379ZM444.58 712.229C445.385 710.984 446.024 709.639 446.48 708.229L446.9 707.099L446.39 706.689C443.6 704.449 440.73 704.689 438.2 704.839H437.63C429.053 705.861 420.753 708.523 413.18 712.679C406.263 716.209 400.202 721.209 395.42 727.329L395.35 727.439L394.54 728.929C393.98 729.929 393.46 730.929 392.86 731.929L392.22 732.929L393.39 733.249C395.741 733.904 398.17 734.241 400.61 734.249C402.965 734.221 405.31 733.953 407.61 733.449C419.527 731.035 430.593 725.516 439.69 717.449C441.52 715.898 443.171 714.147 444.61 712.229H444.58ZM583.83 704.999C581.89 704.999 579.47 704.999 577.71 706.919L577.44 707.219V707.619C577.83 711.279 580.01 713.549 582.44 715.749C592.99 725.519 604.27 731.369 616.93 733.619C619.142 734.018 621.383 734.232 623.63 734.259C626.125 734.274 628.61 733.938 631.01 733.259L632.32 732.889L631.46 731.829C630.57 730.739 629.78 729.669 629.03 728.629C627.908 727.011 626.664 725.479 625.31 724.049C619.31 717.529 611.21 712.449 600.63 708.509C595.401 706.525 589.903 705.341 584.32 704.999H583.83ZM656.02 714.199C654.842 712.737 653.5 711.415 652.02 710.259C640.4 700.349 626.39 695.609 609.19 695.819C606.96 695.649 603.74 695.719 601.59 698.299L601.28 698.669L601.42 699.129C602.42 702.409 602.89 703.659 606.28 705.919C610.835 709.035 615.637 711.771 620.64 714.099C628.285 717.623 636.603 719.448 645.02 719.449H647.35C650.727 719.363 654.06 718.669 657.19 717.399L658.37 716.899L657.51 715.959C657 715.369 656.5 714.789 656 714.239L656.02 714.199ZM421.39 702.099C422.03 701.179 422.83 699.799 422.39 698.499C421.95 697.199 420.39 696.569 419.33 696.229C418.657 695.993 417.953 695.854 417.24 695.819H414.24C411.175 695.733 408.108 695.803 405.05 696.029C394.09 697.133 383.617 701.114 374.69 707.569C371.529 710.036 368.743 712.95 366.42 716.219L365.72 717.219L366.9 717.569C368.354 718.048 369.842 718.419 371.35 718.679C374.202 719.088 377.079 719.295 379.96 719.299C393.68 719.299 406.59 714.459 419.19 704.649C420.07 703.953 420.816 703.102 421.39 702.139V702.099ZM681 697.579L678.69 695.759C676.833 694.222 674.886 692.796 672.86 691.489C662.5 685.139 650.49 682.489 636.14 683.259C633.306 683.413 630.492 683.842 627.74 684.539C626.26 684.829 623.52 685.379 622.57 687.989L622.43 688.369L622.62 688.729C625.08 693.299 631.62 697.249 641.07 699.839C647.423 701.548 653.971 702.426 660.55 702.449C667.84 702.449 674.88 701.249 679.88 698.259L681 697.579ZM394.63 694.999L395.13 694.719C397.6 693.319 400.4 691.719 401.69 688.229L401.87 687.749L401.55 687.349C400.046 685.591 397.944 684.451 395.65 684.149C389.219 682.801 382.605 682.551 376.09 683.409C366.27 684.409 357.95 687.149 350.65 691.839C348.137 693.308 345.965 695.295 344.28 697.669L343.67 698.579L344.67 698.999C346.621 699.858 348.625 700.59 350.67 701.189C354.626 702.343 358.729 702.916 362.85 702.889C365.093 702.883 367.333 702.75 369.56 702.489C378.325 701.65 386.842 699.106 394.63 694.999ZM643 674.159L642.73 674.609L642.99 675.069C644.38 677.458 646.636 679.22 649.29 679.989L651.17 680.529C655.66 681.945 660.245 683.038 664.89 683.799C668.074 684.289 671.289 684.54 674.51 684.549C680.983 684.604 687.406 683.415 693.43 681.049C694.983 680.417 696.492 679.685 697.95 678.859C698.79 678.409 699.69 677.919 700.71 677.419L702.16 676.699L700.78 675.849C699.78 675.219 698.92 674.669 698.15 674.159C697.15 673.499 696.28 672.929 695.33 672.399C689.56 669.269 683.09 667.519 674.99 666.889C666.633 666.088 658.2 666.955 650.18 669.439C647.49 670.189 644.75 671.179 643 674.159ZM372.67 669.069C362.091 666.075 350.925 665.821 340.22 668.329C334.038 669.387 328.246 672.061 323.43 676.079L322.37 676.959L323.61 677.579C324.47 678.009 325.26 678.419 326.01 678.809C327.63 679.703 329.3 680.504 331.01 681.209C336.975 683.544 343.335 684.705 349.74 684.629C352.902 684.62 356.059 684.399 359.19 683.969C363.325 683.309 367.403 682.337 371.39 681.059C372.65 680.689 373.9 680.329 375.18 679.969C376.501 679.627 377.732 679.003 378.788 678.139C379.845 677.276 380.702 676.195 381.3 674.969L381.54 674.489L381.24 674.049C379.08 670.999 375.82 669.999 372.64 669.069H372.67ZM716 650.389C714.681 649.747 713.322 649.193 711.93 648.729C702.78 645.849 693.02 645.729 682.1 648.349C677.497 649.506 672.993 651.028 668.63 652.899C666.16 653.959 663.63 655.319 662.2 659.179L661.91 659.969L662.67 660.319C663.355 660.641 664.023 660.998 664.67 661.389C665.702 662.074 666.841 662.581 668.04 662.889C671.257 663.857 674.57 664.471 677.92 664.719C680.294 664.939 682.627 665.049 684.92 665.049C694.226 665.179 703.424 663.056 711.73 658.859C713.7 657.808 715.595 656.622 717.4 655.309C718.19 654.769 719.03 654.189 719.93 653.579L721.37 652.579L719.76 651.949C718.27 651.449 717.1 650.909 716 650.389ZM339.39 665.059C344.321 665.043 349.236 664.496 354.05 663.429C355.742 663.064 357.384 662.496 358.94 661.739C360.07 661.179 361.58 660.259 361.73 658.739C361.88 657.219 360.6 656.089 359.66 655.349C358.329 654.227 356.865 653.274 355.3 652.509C343.647 647.153 330.678 645.335 318 647.279C313.12 648.449 309.08 649.559 305.1 652.279L304.23 652.879L304.96 653.649C308.352 657.108 312.557 659.663 317.19 661.079C324.298 663.702 331.814 665.049 339.39 665.059ZM338.44 644.369C340.77 644.179 343.44 643.759 345.06 641.269L345.33 640.869L345.14 640.419C343.27 636.009 337.76 631.849 329.64 628.729C317.97 624.239 300.76 622.199 290.46 626.989L289.24 627.559L290.24 628.469C290.93 629.109 291.57 629.719 292.18 630.309C293.333 631.495 294.576 632.588 295.9 633.579C306.1 641.019 317.81 644.669 331.52 644.669C333.774 644.662 336.084 644.562 338.45 644.369H338.44ZM729.12 625.139C723.475 623.733 717.613 623.42 711.85 624.219C702.386 625.387 693.294 628.624 685.22 633.699C683.364 634.927 681.661 636.374 680.15 638.009C679.708 638.346 679.375 638.805 679.192 639.33C679.009 639.855 678.985 640.423 679.122 640.961C679.26 641.5 679.553 641.986 679.965 642.359C680.378 642.732 680.891 642.976 681.44 643.059C683.786 643.929 686.251 644.432 688.75 644.549C693.856 644.62 698.96 644.315 704.02 643.639C714.81 641.839 723.87 637.769 730.93 631.539L731.04 631.429C731.974 630.255 732.976 629.136 734.04 628.079L735.04 627.079L733.66 626.619C731.5 625.859 730.42 625.499 729.12 625.129V625.139ZM330.67 621.479L331.08 621.129L330.97 620.599C330.19 616.879 327.69 614.759 325.25 612.699C315.54 604.889 304.85 600.219 293.47 598.829C289.1 598.299 284.35 598.059 279.21 599.769L278.15 600.119L278.71 601.119C280.408 604.02 282.535 606.646 285.02 608.909C295.45 617.779 308.17 622.759 322.87 623.709C325.32 623.659 328.08 623.659 330.67 621.469V621.479ZM745.1 600.079V599.259L744.28 599.189C743.52 599.119 742.77 598.999 741.97 598.869C740.753 598.636 739.519 598.503 738.28 598.469C723.8 598.139 710.62 603.089 697.87 613.639C696.36 614.925 695.081 616.46 694.09 618.179C693.78 618.594 693.572 619.077 693.483 619.588C693.394 620.099 693.428 620.623 693.58 621.119C693.825 621.601 694.181 622.018 694.619 622.335C695.058 622.651 695.566 622.859 696.1 622.939C697.568 623.299 699.07 623.503 700.58 623.549C700.914 623.551 701.248 623.534 701.58 623.499C716.58 622.499 728.83 617.679 739.01 608.709C740.764 607.123 742.367 605.379 743.8 603.499C744.28 602.909 744.8 602.319 745.24 601.759L745.62 601.309L745.35 600.779C745.229 600.561 745.144 600.325 745.1 600.079ZM307.7 599.329C309.718 599.854 311.796 600.107 313.88 600.079C314.725 600.045 315.561 599.904 316.37 599.659C316.834 599.53 317.305 599.427 317.78 599.349L318.63 599.229L318.54 598.369C318.16 594.619 317.54 593.369 314.89 590.469C305.89 580.679 295.36 574.229 283.65 571.299C279.545 570.214 275.264 569.966 271.06 570.569L270 570.739L270.35 571.739C271.77 575.819 274.12 578.849 277.21 582.139C285.11 590.549 295.08 596.169 307.71 599.329H307.7ZM749.06 570.189C747.504 570.218 745.951 570.342 744.41 570.559C730.7 572.819 719.1 579.509 709 590.999C707.65 592.47 706.527 594.135 705.67 595.939C705.37 596.499 705.06 597.079 704.67 597.669L704.23 598.449L705 598.899C706.721 599.912 708.684 600.437 710.68 600.419C712.071 600.385 713.455 600.211 714.81 599.899C722.915 598.183 730.607 594.898 737.45 590.229C743.459 586.471 748.501 581.353 752.17 575.289C752.793 574.091 753.347 572.859 753.83 571.599L754.24 570.499L753.08 570.379C751.748 570.241 750.41 570.178 749.07 570.189H749.06ZM301.12 576.249C302.633 576.776 304.219 577.066 305.82 577.109L307.04 577.209C307.495 577.243 307.952 577.17 308.374 576.997C308.796 576.823 309.171 576.553 309.47 576.209C309.751 575.821 309.934 575.372 310.006 574.899C310.077 574.426 310.034 573.942 309.88 573.489L309.7 572.949C309.245 571.366 308.604 569.842 307.79 568.409C299.28 555.639 288.33 547.159 275.3 543.219C273.407 542.606 271.457 542.18 269.48 541.949C268.71 541.829 267.9 541.709 267.06 541.559L265.8 541.339L266.02 542.599C266.623 546.158 268.021 549.535 270.11 552.479C277.16 563.349 287.32 571.119 301.13 576.249H301.12ZM755.55 541.999C754.281 542.043 753.017 542.187 751.77 542.429C741.11 544.629 731.71 550.309 723.03 559.799C720.524 562.615 718.243 565.624 716.21 568.799L715.4 569.999C714.671 570.858 714.191 571.901 714.015 573.014C713.839 574.127 713.972 575.267 714.4 576.309L714.55 576.629L714.88 576.769C715.831 577.165 716.851 577.369 717.88 577.369C719.637 577.278 721.364 576.889 722.99 576.219L723.99 575.879C732.875 572.651 740.883 567.395 747.38 560.529C751.75 555.939 754.61 551.799 756.38 547.529C756.874 546.604 757.292 545.641 757.63 544.649C757.8 544.189 757.99 543.649 758.21 543.149L758.75 541.799L757.3 541.919L755.55 541.999ZM296.14 552.419C297.058 552.921 298.056 553.26 299.09 553.419H299.34C299.747 553.483 300.159 553.513 300.57 553.509H303.46L303.59 552.769C304.14 549.659 304.18 548.149 302.43 544.649C296.18 532.159 287.76 523.139 276.62 517.049C274.537 516.121 272.4 515.32 270.22 514.649C269.04 514.259 267.84 513.859 266.64 513.419L265.64 513.039L265.48 514.139C265.43 514.519 265.37 514.819 265.33 515.059C265.176 515.544 265.176 516.064 265.33 516.549C265.42 516.919 265.5 517.269 265.58 517.619C265.768 518.613 266.049 519.588 266.42 520.529C271.5 534.209 281.24 544.679 296.14 552.419ZM754.35 514.419C739.16 519.709 728.2 530.469 720.85 547.359C720.502 548.444 720.334 549.579 720.35 550.719C720.35 551.229 720.35 551.719 720.25 552.259L720.15 553.119L721.01 553.249C722.094 553.438 723.19 553.548 724.29 553.579C726.058 553.51 727.779 552.99 729.29 552.069C741.57 545.549 750.61 536.449 756.17 524.969L756.49 524.209C757.69 521.319 758.94 518.339 758.76 514.499L758.71 513.399L757.64 513.669C757.05 513.819 756.56 513.899 756.12 513.979C755.516 514.062 754.923 514.209 754.35 514.419ZM293 526.619C294.262 527.719 295.867 528.349 297.54 528.399C298.347 528.391 299.149 528.266 299.92 528.029L300.62 527.819L300.56 527.089C300.5 526.389 300.48 525.689 300.46 524.999C300.477 523.532 300.319 522.069 299.99 520.639C299.286 517.853 298.301 515.146 297.05 512.559C291.55 500.949 284.43 492.639 275.24 487.129C273.38 486.129 271.53 485.259 269.38 484.269L267.6 483.449V486.779C267.532 487.759 267.552 488.743 267.66 489.719C270.57 504.729 278.87 516.809 293 526.619ZM737 496.689C730.06 504.819 725.69 513.139 723.66 522.139C723.26 524.349 723.1 526.209 724.93 528.449L725.34 528.949L725.94 528.719C726.35 528.569 726.78 528.429 727.23 528.289C728.429 527.98 729.572 527.488 730.62 526.829C744.62 517.629 753.04 505.829 756.39 490.619C756.599 489.491 756.693 488.346 756.67 487.199C756.67 486.419 756.67 485.619 756.77 484.729L756.89 483.199L755.5 483.839C754.15 484.459 753.03 484.909 752.04 485.309C751.3 485.599 750.62 485.879 749.89 486.199C744.964 488.837 740.589 492.395 737 496.679V496.689ZM291.25 500.069C292.322 501.033 293.537 501.826 294.85 502.419C295.56 502.789 296.3 503.169 296.99 503.609L297.71 504.069L298.2 503.369C300.47 500.159 300.2 496.899 299.61 493.859C297.632 482.336 292.292 471.655 284.26 463.159C281.347 459.87 277.736 457.274 273.69 455.559L272.55 455.089L272.45 456.319C272.39 456.979 272.32 457.589 272.25 458.169C272.055 459.392 272.001 460.634 272.09 461.869C273.33 476.479 279.61 488.999 291.28 500.069H291.25ZM724.25 496.739C723.979 497.785 723.975 498.883 724.239 499.932C724.503 500.98 725.026 501.946 725.76 502.739L726.1 503.079L726.57 502.989C739.5 500.519 754.36 472.429 751.41 455.989L751.17 454.639L750.03 455.399C749.26 455.919 748.5 456.399 747.78 456.789C746.508 457.489 745.306 458.309 744.19 459.239C733.36 468.259 726.84 480.509 724.24 496.729L724.25 496.739ZM291.71 469.139C293.19 471.359 294.96 473.589 298.94 474.379L299.74 474.539L299.98 473.749C300.13 473.259 300.29 472.749 300.45 472.339C300.936 471.165 301.216 469.917 301.28 468.649C301.66 452.219 296.43 438.369 285.71 427.479C284.665 426.486 283.549 425.57 282.37 424.739L280.83 423.589L280.43 424.779C280.27 425.269 280.11 425.629 279.96 425.959C279.77 426.361 279.616 426.78 279.5 427.209C278.481 432.076 278.481 437.102 279.5 441.969C281.244 451.901 285.441 461.241 291.71 469.139ZM725.02 474.139L725.33 474.449L725.77 474.399C728.86 474.009 730.65 471.819 732.23 469.879L732.49 469.559C739.024 461.371 743.253 451.588 744.74 441.219C745.39 436.539 745.74 430.919 743.8 424.799L743.41 423.599L742.41 424.359L741.41 425.069C740.51 425.694 739.657 426.386 738.86 427.139C728.21 437.449 722.94 450.849 722.74 468.139C722.688 469.24 722.862 470.341 723.251 471.372C723.639 472.404 724.235 473.346 725 474.139H725.02ZM298.14 442.399C299.31 444.749 300.94 447.279 304.08 448.259L304.52 448.399L304.89 448.119C307.38 446.259 307.77 443.679 308.12 441.439C309.12 436.089 308.63 430.699 308.12 426.049C306.92 416.449 303.83 408.249 298.94 401.659C298.28 400.809 297.59 400.069 296.86 399.299C296.13 398.529 295.48 397.829 294.79 396.969L293.79 395.729L293.23 397.209C292.9 398.099 292.64 398.699 292.4 399.209C292.25 399.549 292.12 399.869 291.96 400.259C290.36 405.049 289.85 410.259 290.3 417.179C290.984 426.068 293.664 434.689 298.14 442.399ZM716.32 443.249C716.68 445.049 717.09 447.079 719.32 448.199L719.72 448.399L720.12 448.199C724.69 445.919 728.82 439.379 731.46 430.279C734.46 419.979 735.46 405.279 730.75 397.419L730.15 396.419L729.34 397.229C728.024 398.474 726.798 399.811 725.67 401.229C721.11 407.139 718.11 414.329 716.49 423.229C715.224 429.837 715.163 436.619 716.31 443.249H716.32ZM310.87 422.349C311.29 422.819 311.72 423.349 312.09 423.809L312.59 424.469L313.29 424.029C314.48 423.309 315.501 422.341 316.284 421.192C317.067 420.043 317.595 418.739 317.83 417.369C319.975 409.141 320.411 400.561 319.11 392.159C318.296 385.966 316.084 380.04 312.64 374.829C311.951 373.965 311.202 373.15 310.4 372.389L309.48 371.469L308.94 372.649C308.58 373.439 308.23 374.099 307.88 374.749C307.362 375.656 306.924 376.606 306.57 377.589C301.72 391.269 302.5 405.029 308.93 419.659C309.433 420.649 310.084 421.556 310.86 422.349H310.87ZM706.62 419.199L706.89 419.779C707.58 421.199 708.45 422.969 710.39 423.779L710.7 423.899L711.01 423.799C712.075 423.382 713.033 422.732 713.814 421.896C714.594 421.06 715.177 420.06 715.52 418.969C721.38 404.909 722.21 391.689 718.06 378.529C717.491 377.052 716.823 375.616 716.06 374.229C715.72 373.579 715.36 372.889 714.98 372.129L714.32 370.809L713.45 372.009C713.07 372.539 712.71 373.009 712.38 373.449C711.534 374.496 710.784 375.617 710.14 376.799C703.3 389.829 702.16 403.709 706.61 419.199H706.62ZM681.7 375.269L683.06 376.459L683.65 375.819C686.09 373.189 686.54 372.309 687.12 369.029C688.504 358.581 686.989 347.954 682.74 338.309C680.678 333.312 677.528 328.837 673.52 325.209L672.52 324.269L672.08 325.589C671.86 326.259 671.63 326.879 671.42 327.459C670.935 328.701 670.543 329.978 670.25 331.279C667.51 344.979 670.14 358.199 678.25 371.719C679.218 373.061 680.377 374.253 681.69 375.259L681.7 375.269ZM337 368.939C337.36 371.079 337.8 373.749 340.76 375.939L341.38 376.399L341.93 375.849C342.34 375.439 342.76 375.049 343.18 374.659C344.258 373.746 345.212 372.697 346.02 371.539C354.02 358.319 356.63 344.719 353.87 331.089C353.498 329.64 353.013 328.223 352.42 326.849L351.85 325.379L351.3 323.959L350.3 325.119C349.71 325.809 349.14 326.459 348.6 327.119C347.358 328.445 346.221 329.866 345.2 331.369C338.2 341.889 335.54 354.159 336.95 368.859L337 368.939ZM698.59 399.269L699 399.409L699.36 399.179C702.17 397.369 702.97 394.429 703.53 391.619C705.5 383.592 705.749 375.239 704.26 367.109C703.15 361.109 701.26 354.109 695.77 347.779L694.89 346.779L694.29 347.979C694.01 348.549 693.74 349.059 693.48 349.549C692.765 350.805 692.176 352.128 691.72 353.499C687.17 366.979 687.94 380.439 694.09 394.669C694.46 395.712 695.049 396.664 695.819 397.459C696.588 398.255 697.52 398.875 698.55 399.279L698.59 399.269ZM325 398.999L325.48 399.239L325.92 398.929C330.05 396.049 333.17 389.139 334.48 379.929C336.02 369.169 334.97 355.099 329.17 347.929L328.38 346.929L327.71 347.989C327.29 348.649 326.87 349.269 326.47 349.859C325.648 351.015 324.903 352.224 324.24 353.479C318.38 365.549 317.36 378.479 321.12 393.159C321.65 395.379 322.43 397.759 325 398.999ZM359.28 355.539L359.67 355.809L360.12 355.639C371.95 351.129 382.23 322.319 377.03 308.209L376.62 307.099L375.62 307.789C374.34 308.699 373.41 309.439 372.46 310.219C362.18 320.169 357.08 333.099 356.88 349.759C356.92 351.999 357.2 354.129 359.28 355.589V355.539ZM658 351.269C659.45 353.079 661.24 355.319 664.16 355.739L664.69 355.819L665.01 355.379C667.65 351.759 668.01 345.219 666.01 336.969C663.33 325.799 656.32 312.309 648.1 308.139L647.1 307.649L646.79 308.649C645.1 314.289 644.95 317.439 646.04 324.719C647.69 334.446 651.808 343.588 658 351.269ZM686.81 623.809C679.204 634.76 670.608 644.99 661.13 654.369C651.535 663.673 641.116 672.087 630 679.509C618.657 686.896 606.676 693.254 594.2 698.509C578.446 705.076 561.952 709.704 545.08 712.289L560.59 716.289C561.232 716.436 561.838 716.71 562.372 717.094C562.906 717.479 563.358 717.967 563.7 718.529C564.053 719.106 564.287 719.746 564.39 720.414C564.493 721.082 564.462 721.763 564.3 722.419L563.4 725.849C563.254 726.491 562.98 727.096 562.595 727.631C562.21 728.165 561.722 728.616 561.16 728.959C560.356 729.45 559.432 729.709 558.49 729.709C558.079 729.709 557.669 729.659 557.27 729.559L513.05 718.279V735.999H511.25V718.309L467.4 729.489C466.754 729.645 466.084 729.67 465.428 729.564C464.772 729.457 464.144 729.221 463.58 728.869C462.435 728.18 461.602 727.072 461.26 725.779L460.36 722.369C460.074 721.065 460.3 719.701 460.99 718.559C461.681 717.416 462.783 716.582 464.07 716.229L479.64 712.299C462.738 709.737 446.216 705.099 430.45 698.489C417.918 693.355 405.926 686.99 394.65 679.489C383.463 672.178 373.044 663.755 363.55 654.349C354.077 644.972 345.485 634.746 337.88 623.799C330.276 612.775 323.791 601.02 318.52 588.709C307.627 563.283 302.007 535.91 302 508.249C301.925 466.986 314.416 426.679 337.81 392.689C345.417 381.738 354.013 371.508 363.49 362.129C373.077 352.83 383.486 344.419 394.59 336.999C395.49 336.439 396.37 335.879 397.26 335.299C398.73 334.349 400.26 333.369 401.84 332.469L402.78 333.999C374.593 352.555 351.474 377.843 335.513 407.577C319.551 437.31 311.251 470.552 311.36 504.299V508.299C311.408 558.192 330.609 606.163 365 642.309C403.25 683.999 455.08 706.999 511 707.369C510.94 703.529 510.86 699.439 510.75 695.129C460.425 694.765 412.284 674.517 376.827 638.802C341.369 603.087 321.471 554.801 321.471 504.474C321.471 454.147 341.369 405.861 376.827 370.146C412.284 334.431 460.425 314.183 510.75 313.819C511.01 308.759 511.18 305.609 511.18 305.479H513C513 305.619 513.16 308.769 513.41 313.819C538.466 313.828 563.258 318.932 586.28 328.819C626.716 345.886 660.025 376.381 680.586 415.157C701.146 453.933 707.699 498.616 699.138 541.663C690.577 584.709 667.427 623.485 633.594 651.443C599.762 679.402 557.319 694.832 513.43 695.129C513.33 699.439 513.24 703.539 513.18 707.379C569.28 707.139 621.25 684.059 659.62 642.319C693.889 606.087 713.002 558.12 713.04 508.249V504.249C713.144 470.513 704.842 437.282 688.885 407.558C672.927 377.834 649.817 352.553 621.64 333.999L622.58 332.469C625.34 334.049 627.65 335.469 629.85 337.009C641.034 344.313 651.45 352.729 660.94 362.129C670.414 371.505 679.007 381.732 686.61 392.679C694.226 403.704 700.722 415.463 706 427.779C716.934 453.2 722.595 480.576 722.64 508.249C722.716 549.512 710.225 589.819 686.83 623.809H686.81ZM506.36 390.639C478.296 392.096 451.756 403.856 431.824 423.666C411.892 443.477 399.97 469.944 398.34 497.999C410.66 496.939 422.34 495.719 430.96 494.389C462.34 489.529 481.16 483.129 490.78 463.199C498.48 447.259 503.71 422.839 506.36 390.639ZM398.21 508.169C399.172 536.767 410.843 563.96 430.909 584.36C450.975 604.759 477.972 616.876 506.55 618.309C504.55 596.909 501.55 576.679 497.39 561.609C485.93 520.199 461.83 512.809 398.21 508.169ZM517.69 618.309C546.26 616.869 573.247 604.752 593.306 584.357C613.366 563.963 625.034 536.779 626 508.189C562.42 512.869 538.28 520.339 526.83 561.609C522.66 576.679 519.73 596.909 517.69 618.309ZM625.92 498.179C624.334 470.096 612.434 443.587 592.502 423.74C572.57 403.893 546.01 392.105 517.92 390.639C520.56 422.919 525.79 447.409 533.51 463.379C543.22 483.319 562.03 489.729 593.33 494.569C602 495.919 613.66 497.129 625.92 498.179ZM509.53 337.419C419.53 338.799 346.53 411.689 345.07 501.679C354.97 501.129 369.85 500.229 385.07 499.069C386.019 474.978 393.812 451.656 407.538 431.834C421.264 412.013 440.353 396.512 462.57 387.149C476.735 381.198 491.857 377.854 507.21 377.279C508 365.619 508.82 350.659 509.53 337.419ZM345 504.849C345.21 596.109 418.95 670.399 510 671.529C509.47 658.639 508.72 644.909 507.65 631.319C483.43 630.505 459.949 622.77 439.985 609.031C420.022 595.291 404.412 576.121 395 553.789C388.779 539.047 385.386 523.266 385 507.269C377.74 506.809 370 506.349 361.81 505.859L345 504.849ZM514.21 671.529C605.21 670.409 679 596.109 679.21 504.849L663.1 505.849C654.627 506.356 646.66 506.842 639.2 507.309C638.664 531.793 631.053 555.599 617.287 575.854C603.522 596.109 584.188 611.948 561.62 621.459C547.326 627.466 532.057 630.818 516.56 631.349C515.49 644.909 514.74 658.639 514.21 671.529ZM679.21 501.779C677.78 411.719 604.75 338.779 514.67 337.409C515.37 350.639 516.19 365.589 516.94 377.259C532.332 377.74 547.499 381.09 561.66 387.139C576.774 393.496 590.506 402.735 602.09 414.339C613.723 425.904 622.965 439.645 629.29 454.779C635.215 468.885 638.555 483.941 639.15 499.229C654.43 500.389 669.3 501.269 679.17 501.779H679.21ZM510.49 319.399C409.18 320.279 327 402.999 327 504.469C327 605.939 409.24 688.749 510.62 689.539C510.53 686.269 510.42 682.899 510.3 679.449C464.244 678.998 420.229 660.379 387.831 627.641C355.432 594.904 337.272 550.698 337.3 504.639V504.359L333.1 504.089V502.289L337.32 502.079C337.954 456.531 356.356 413.031 388.603 380.857C420.85 348.683 464.391 330.379 509.94 329.849C510.14 326.069 510.33 322.539 510.49 319.399ZM513.59 689.539C615 688.749 697.21 605.999 697.21 504.469C697.21 402.939 615 320.259 513.71 319.399C513.87 322.529 514.05 326.069 514.24 329.849C536.909 330.022 559.317 334.689 580.17 343.579C611.453 356.777 638.21 378.807 657.169 406.973C676.128 435.138 686.467 468.22 686.92 502.169C689.14 502.269 690.55 502.319 690.92 502.319H691.02L693.71 502.149L691.71 503.899C691.565 504.029 691.375 504.097 691.18 504.089L686.98 504.349V504.629C687.014 550.689 668.856 594.899 636.456 627.637C604.057 660.376 560.038 678.993 513.98 679.439C513.79 682.909 513.68 686.279 513.59 689.539Z" fill="white"/>
</g>
<defs>
<clipPath id="clip0_3_680">
<rect width="1024" height="1024" fill="white"/>
</clipPath>
</defs>
</svg>
