<svg width="1024" height="1024" fill="none" xmlns="http://www.w3.org/2000/svg"><g clip-path="url(#a)"><path d="M512 1024c282.77 0 512-229.23 512-512S794.77 0 512 0 0 229.23 0 512s229.23 512 512 512Z" fill="#F9DE81"/><path d="m391.689 519.78-37.69 128.66h-37.78l-16.54-60.9-18.63 60.9h-38.6l-38-128.66h47.39l12 42.89 11.16-42.89h49.75l12.87 42.89 12.87-42.89h41.2Zm341.12 0h86.69v38.6h-55.56c-7.72 0-16.12.9-6.93 9.47l16 19c10.54 11.86 10.37 16.82 10.37 25.79 0 22.3-22.06 35.78-36.64 35.78l-101.34.68c-14 0-14.82-.86-25.12-10.29s-30-32.59-30-32.59v42.88h-46.28V520.49h91.16c16.3 0 36.64 17.74 36.64 38.57 0 20.83-12.38 41.17-26.35 41.17a24.504 24.504 0 0 0 16.43 6.18h49.92c2.54 0 27.81 4.22 10.91-11.15-18.54-16.85-20.58-30.88-21.2-42-.62-11.12 9.01-33.48 31.31-33.48h-.01Zm-113.1 33.28h-29.4v23.16h29.4c15.81-.01 13.48-23.16 0-23.16Zm-256.56-85.36c0-9 3.43-14.82-7.11-26.69l-16-19c-9.19-8.58 1.1-8.58 8.82-8.58h53v90.06h42v-90.07h56.61v-38.57h-183.4c-22.3 0-33.21 21.42-32.59 32.57.62 11.15 2.67 25.18 21.2 42 16.9 15.37-8.37 11.15-10.91 11.15h-90.27v42.89h125.44c14.58.02 33.21-13.46 33.21-35.76Zm456.35-7.1v42.89h-72.72c-14 0-14.82-.86-25.12-10.29s-30-32.59-30-32.59v42.89h-46.33V374.85h91.16c16.3 0 36.64 17.74 36.64 38.57 0 20.83-12.38 41.17-26.35 41.17 0 0 0 6 16.3 6l56.42.01Zm-98.45-53.18h-29.4v23.16h29.4c15.81 0 13.48-23.16 0-23.16Zm-232.1 113.1 36 128.63h-41.39l-6.62-18h-44.6l-6.86 18h-42.27l38-128.63h67.74Zm-18.87 79.74-13.72-47.17-14.58 47.17h28.3Zm111.17-114.79h-44.6l-6.86 18h-42.27l38-128.63h67.76l36 128.63h-41.41l-6.62-18Zm-6.86-30.88-13.72-47.17-14.58 47.17h28.3Z" fill="#fff"/></g><defs><clipPath id="a"><path fill="#fff" d="M0 0h1024v1024H0z"/></clipPath></defs></svg>