<svg width="1024" height="1024" fill="none" xmlns="http://www.w3.org/2000/svg"><g clip-path="url(#a)"><path d="M512 1024c282.77 0 512-229.23 512-512S794.77 0 512 0 0 229.23 0 512s229.23 512 512 512Z" fill="#728DBE"/><path d="M734 465.54a96.9 96.9 0 0 1 17.05 50.86 79.721 79.721 0 0 1-26.47 154.88H326.13a105.888 105.888 0 0 1-74.77-30.76l169-133.81a44.377 44.377 0 0 0 39.7 1l80.58 70.5a44.275 44.275 0 0 0 6.922 40.116 44.267 44.267 0 0 0 56.932 11.87 44.27 44.27 0 0 0 19.566-54.766L734 465.54Zm-25-25L599.09 550.37a44.452 44.452 0 0 0-35.09 1.17L483.46 481a44.273 44.273 0 0 0-41.109-57.647 44.28 44.28 0 0 0-35.825 16.813 44.27 44.27 0 0 0-8.066 38.744L230.64 611.75a106.248 106.248 0 0 1 44.617-140.08 106.257 106.257 0 0 1 51.953-12.92 141.692 141.692 0 0 1 221.228-98.869 141.696 141.696 0 0 1 55.472 77.139 97.514 97.514 0 0 1 105 3.45l.09.07Z" fill="#fff"/></g><defs><clipPath id="a"><path fill="#fff" d="M0 0h1024v1024H0z"/></clipPath></defs></svg>