<svg width="1024" height="1024" fill="none" xmlns="http://www.w3.org/2000/svg"><g clip-path="url(#a)"><path d="M512 1024c282.77 0 512-229.23 512-512S794.77 0 512 0 0 229.23 0 512s229.23 512 512 512Z" fill="#728DBE"/><path d="M704 256H320a64.003 64.003 0 0 0-64 64v384a64 64 0 0 0 64 64h384a64 64 0 0 0 64-64V320a64.003 64.003 0 0 0-64-64ZM478.73 643.85A30.731 30.731 0 0 1 448 674.57h-94.72a30.738 30.738 0 0 1-30.72-30.72V353.28a30.727 30.727 0 0 1 30.72-30.72H448a30.727 30.727 0 0 1 30.72 30.72l.01 290.57Zm222.73-128a30.738 30.738 0 0 1-30.72 30.72H576a30.738 30.738 0 0 1-30.72-30.72V353.28A30.738 30.738 0 0 1 576 322.56h94.72a30.727 30.727 0 0 1 30.72 30.72l.02 162.57Z" fill="#fff"/></g><defs><clipPath id="a"><path fill="#fff" d="M0 0h1024v1024H0z"/></clipPath></defs></svg>