<svg width="1024" height="1024" fill="none" xmlns="http://www.w3.org/2000/svg"><g clip-path="url(#a)"><path d="M512 1024c282.77 0 512-229.23 512-512S794.77 0 512 0 0 229.23 0 512s229.23 512 512 512Z" fill="#54688C"/><path d="M566.7 768c-108.7 0-150-80.1-150-136.8V463.9h-51.5v-66.1c77.4-28 96.3-98 100.5-138 .3-2.7 2.5-3.8 3.7-3.8h75v130.4h102.4v77.5H543.9v159.4c.3 21.4 8 50.6 47.1 50.6h1.9c13.5-.4 31.7-4.4 41.3-8.9l24.7 73.1c-9.3 13.6-51.2 29.3-88.7 30h-3.8l.3-.1Z" fill="#fff"/></g><defs><clipPath id="a"><path fill="#fff" d="M0 0h1024v1024H0z"/></clipPath></defs></svg>