<svg width="1024" height="1024" fill="none" xmlns="http://www.w3.org/2000/svg"><g clip-path="url(#a)"><path d="M512 1024c282.77 0 512-229.23 512-512S794.77 0 512 0 0 229.23 0 512s229.23 512 512 512Z" fill="#8C72BD"/><path d="m300.6 278-33.4 89.1v356.1h122.4V790h66.8l66.7-66.8h100.2l133.5-133.5V278H300.6Zm44.5 44.5h367.3v244.9l-77.9 77.9H512L445.3 712v-66.7H345.1V322.5Zm122.4 222.6H512V411.6h-44.5v133.5Zm122.4 0h44.5V411.6h-44.5v133.5Z" fill="#fff"/></g><defs><clipPath id="a"><path fill="#fff" d="M0 0h1024v1024H0z"/></clipPath></defs></svg>