<svg width="1024" height="1024" fill="none" xmlns="http://www.w3.org/2000/svg"><g clip-path="url(#a)"><path d="M512 1024c282.77 0 512-229.23 512-512S794.77 0 512 0 0 229.23 0 512s229.23 512 512 512Z" fill="#728DBE"/><path d="M588.6 385.002c0-20.993 6.906-40.507 20.72-58.54 13.813-18.033 49.706-27.033 107.68-27v218.54l-9.91 31.93a212.897 212.897 0 0 1-18.92 43.69 144.776 144.776 0 0 1-26.58 33.49 136.567 136.567 0 0 1-34.46 23.29 175.848 175.848 0 0 1-42.13 13.53 217.463 217.463 0 0 0 3.61-38.58l-.01-240.35Zm-204.6-60.8h25.69v24.8H384v-24.8Zm25.69 37.69h25.71v24.85h-25.67l-.04-24.85ZM384 393.382h25.7v24.85H384v-24.85Zm-25.67 37.27H384v25.27h-25.64l-.03-25.27ZM307 298.922h25.67v25.28H307v-25.28Zm128.4 326.43c0 21.58 3.98 40.357 11.94 56.33 7.96 15.973 16.75 29.277 26.37 39.91 9.6 10.667 18.383 18.58 26.35 23.74l11.94 7.75c-32.127 0-60.884-4.507-86.27-13.52-25.387-9.013-46.867-21.58-64.44-37.7a163.14 163.14 0 0 1-40.32-57c-9.334-21.893-14-45.56-14-71v-205.75h25.67v137.49h25.7v-24.83H384v55.43h25.69v-93.13h25.71v182.28Zm94.6 51.89c23.733.88 45.513-.897 65.34-5.33a163.227 163.227 0 0 0 53.38-22 148.894 148.894 0 0 0 40.78-39.48c11.413-16.1 20.573-35.39 27.48-57.87v21.34c0 24.247-4.13 46.793-12.39 67.64a159.646 159.646 0 0 1-36.28 55c-15.914 15.826-35.287 28.617-58.12 38.37-22.834 9.753-48.807 15.517-77.92 17.29l-15.33-8c-1.194-.88-11.104-8.643-29.73-23.29-18.627-14.647-31.394-36.747-38.3-66.3a151.78 151.78 0 0 0 35.38 15.3c13.366 4 28.603 6.443 45.71 7.33Zm-171.64-327.77h25.24v24.85h-25.24v-24.85Z" fill="#fff"/></g><defs><clipPath id="a"><path fill="#fff" d="M0 0h1024v1024H0z"/></clipPath></defs></svg>