<svg width="1024" height="1024" fill="none" xmlns="http://www.w3.org/2000/svg"><g clip-path="url(#a)"><path d="M512 1024c282.77 0 512-229.23 512-512S794.77 0 512 0 0 229.23 0 512s229.23 512 512 512Z" fill="#F8C18C"/><path d="M512 243.199c-148.45 0-268.8 120.34-268.8 268.8s120.35 268.8 268.8 268.8c148.45 0 268.8-120.35 268.8-268.8 0-148.45-120.34-268.8-268.8-268.8Zm57.12 100.8a34.556 34.556 0 0 1 34.43-16.978 34.546 34.546 0 0 1 28.208 45.358 34.555 34.555 0 0 1-30.453 23.372 34.545 34.545 0 0 1-35.633-25.533 34.56 34.56 0 0 1 3.448-26.219Zm-231.2 202.56a34.561 34.561 0 0 1-33.873-41.314 34.556 34.556 0 0 1 47.123-25.173 34.554 34.554 0 0 1 21.33 31.927 34.559 34.559 0 0 1-34.58 34.56Zm30.5 3.33A48.607 48.607 0 0 0 381.8 491a48.61 48.61 0 0 0-13.38-16.881 148.713 148.713 0 0 1 61.25-85.69l25.68 42.93a98.552 98.552 0 0 0-30.809 35.208 98.553 98.553 0 0 0 30.809 126.102l-25.68 42.93a148.769 148.769 0 0 1-61.25-85.72v.01Zm247.9 142.8a34.544 34.544 0 0 1-38.296-2.549 34.549 34.549 0 0 1-12.311-36.353 34.554 34.554 0 0 1 28.866-25.295A34.551 34.551 0 0 1 629 645.469a34.567 34.567 0 0 1-12.68 47.22Zm.25-75.29a48.624 48.624 0 0 0-57.644 17.888A48.625 48.625 0 0 0 551 655.299a149.003 149.003 0 0 1-104.86-10.2l24.34-43.7a98.581 98.581 0 0 0 139.69-80.66l50 .78a148.068 148.068 0 0 1-43.59 95.88h-.01Zm-6.4-114.13a98.609 98.609 0 0 0-48.895-76.612 98.605 98.605 0 0 0-90.795-4.068l-24.34-43.7A149.005 149.005 0 0 1 551 368.709a48.623 48.623 0 0 0 44.28 41.026 48.61 48.61 0 0 0 21.3-3.126 147.995 147.995 0 0 1 43.61 95.87l-50.02.79Z" fill="#fff"/></g><defs><clipPath id="a"><path fill="#fff" d="M0 0h1024v1024H0z"/></clipPath></defs></svg>