<svg width="1024" height="1024" viewBox="0 0 1024 1024" fill="none" xmlns="http://www.w3.org/2000/svg">
<g clip-path="url(#clip0_3_716)">
<path d="M512 1024C794.77 1024 1024 794.77 1024 512C1024 229.23 794.77 0 512 0C229.23 0 0 229.23 0 512C0 794.77 229.23 1024 512 1024Z" fill="#A0A5AF"/>
<path d="M665.4 276L472.6 326.2L444.1 375.2L386.2 374.8L245 512L386.1 649.2L444 648.8L472.6 697.7L665.4 748L717 560.6L687.7 512L717 463.5L665.4 276ZM448.7 383.1L596.2 346.2L511.5 488.8H342.1L448.7 383.1ZM448.7 640.9L342.1 535.2H511.4L596.1 677.8L448.7 640.9ZM637.4 654.6L552.7 512L637.4 369.4L678.3 512L637.4 654.6Z" fill="white"/>
</g>
<defs>
<clipPath id="clip0_3_716">
<rect width="1024" height="1024" fill="white"/>
</clipPath>
</defs>
</svg>
