<svg width="1024" height="1024" viewBox="0 0 1024 1024" fill="none" xmlns="http://www.w3.org/2000/svg">
<g clip-path="url(#clip0_3_725)">
<path d="M512 1024C794.77 1024 1024 794.77 1024 512C1024 229.23 794.77 0 512 0C229.23 0 0 229.23 0 512C0 794.77 229.23 1024 512 1024Z" fill="#9ABEFF"/>
<path d="M585.83 271.5H438.17C303.41 271.5 271.5 303.41 271.5 438.17V585.83C271.5 720.59 303.41 752.5 438.17 752.5H585.83C720.59 752.5 752.5 720.59 752.5 585.83V438.17C752.5 303.41 720.25 271.5 585.83 271.5ZM659.83 614.68H624.83C611.59 614.68 607.52 604.16 583.76 580.06C563.05 560.06 553.89 557.32 548.76 557.32C541.63 557.32 539.59 559.32 539.59 569.2V600.77C539.59 609.26 536.87 614.35 514.47 614.35C477.47 614.35 436.4 591.95 407.54 550.19C364.09 489.09 352.21 443.26 352.21 433.76C352.21 428.67 354.21 423.92 364.09 423.92H399.09C407.92 423.92 411.31 427.99 414.7 437.5C432.01 487.4 460.87 531.19 472.7 531.19C477.11 531.19 479.15 529.19 479.15 517.95V466.35C477.79 442.59 465.23 440.55 465.23 432.07C465.23 428 468.62 423.92 474.06 423.92H529.06C536.53 423.92 539.24 427.99 539.24 436.82V506.4C539.24 513.87 542.63 516.58 544.67 516.58C549.08 516.58 552.82 513.86 560.96 505.72C586.08 477.55 604.07 434.1 604.07 434.1C606.45 429.01 610.52 424.26 619.35 424.26H654.35C664.87 424.26 667.25 429.69 664.87 437.16C660.46 457.53 617.69 517.95 617.69 517.95C613.96 524.06 612.6 526.78 617.69 533.56C621.42 538.65 633.69 549.17 641.79 558.68C656.73 575.68 668.27 589.91 671.32 599.75C674.77 609.59 669.67 614.68 659.83 614.68Z" fill="white"/>
</g>
<defs>
<clipPath id="clip0_3_725">
<rect width="1024" height="1024" fill="white"/>
</clipPath>
</defs>
</svg>
