<svg width="1024" height="1024" fill="none" xmlns="http://www.w3.org/2000/svg"><g clip-path="url(#a)"><path d="M512 1024c282.77 0 512-229.23 512-512S794.77 0 512 0 0 229.23 0 512s229.23 512 512 512Z" fill="#F8C18C"/><path d="M576 512.11a153.097 153.097 0 0 1-9.83 54 153.204 153.204 0 0 1-54.06 9.89h-.22a153.187 153.187 0 0 1-54-9.83 153.155 153.155 0 0 1-9.89-54.06v-.22a153.326 153.326 0 0 1 9.83-54 153.133 153.133 0 0 1 54.06-9.89h.22a153.085 153.085 0 0 1 54.06 9.84 153.075 153.075 0 0 1 9.83 54v.27Zm188.44-42.78H615l105.67-105.66A257.188 257.188 0 0 0 693 331a257.321 257.321 0 0 0-32.67-27.63L554.67 409V259.56a257.579 257.579 0 0 0-42.53-3.56h-.27a257.579 257.579 0 0 0-42.53 3.56V409L363.67 303.33A257.34 257.34 0 0 0 331 331a257.212 257.212 0 0 0-27.62 32.65L409 469.33H259.56S256 497.4 256 511.91v.18a257.746 257.746 0 0 0 3.56 42.58H409L303.33 660.33a257.455 257.455 0 0 0 60.34 60.34L469.33 615v149.44a257.758 257.758 0 0 0 42.49 3.56h.37a257.846 257.846 0 0 0 42.48-3.56V615l105.66 105.67A257.34 257.34 0 0 0 693 693a257.481 257.481 0 0 0 27.64-32.67L615 554.67h149.44a257.758 257.758 0 0 0 3.56-42.49v-.37a257.846 257.846 0 0 0-3.56-42.48Z" fill="#fff"/></g><defs><clipPath id="a"><path fill="#fff" d="M0 0h1024v1024H0z"/></clipPath></defs></svg>