<svg width="1024" height="1024" fill="none" xmlns="http://www.w3.org/2000/svg"><g clip-path="url(#a)"><path d="M512 1024c282.77 0 512-229.23 512-512S794.77 0 512 0 0 229.23 0 512s229.23 512 512 512Z" fill="#56595B"/><path d="M328.85 420.411h-120a13.083 13.083 0 0 0-9.17 3.83 13.083 13.083 0 0 0-3.83 9.17v157.1a13.082 13.082 0 0 0 13 13h120a13.083 13.083 0 0 0 13-13v-157.06a13.083 13.083 0 0 0-13-13.04Zm-21.69 141.95h-66.24v-15.61h25.82v-60.6c-4.494 5.233-11.8 7.85-21.92 7.85h-3.9v-16.81h7.64c11.18 0 18.706-4 22.58-12h14.11v81.6h21.92l-.01 15.57Zm183.08-141.95h-120a13.083 13.083 0 0 0-9.17 3.83 13.083 13.083 0 0 0-3.83 9.17v157.1a13.082 13.082 0 0 0 13 13h120a13.083 13.083 0 0 0 13-13v-157.06a13.083 13.083 0 0 0-13-13.04Zm-31.42 131.16c-7.334 8.426-17.134 12.64-29.4 12.64-10.714 0-19.334-2.824-25.86-8.47-6.527-5.647-10.01-13.17-10.45-22.57h18.57a16.335 16.335 0 0 0 4.87 11.18c3.026 3.006 7.483 4.51 13.37 4.51 6.826 0 11.92-2.434 15.28-7.3 3.36-4.867 5.26-12.92 5.7-24.16-6.054 5.506-14.077 8.26-24.07 8.26a39.904 39.904 0 0 1-14.78-2.59 28.22 28.22 0 0 1-10.58-7 30.11 30.11 0 0 1-6.12-9.93 33.31 33.31 0 0 1-2.08-11.81c0-9.234 3.333-16.757 10-22.57 6.666-5.814 15.23-8.72 25.69-8.72 4.303-.033 8.59.529 12.74 1.67a35.329 35.329 0 0 1 11.2 5.51 34.798 34.798 0 0 1 9 9.6 48.88 48.88 0 0 1 5.83 14.52 82.704 82.704 0 0 1 2.17 19.78c-.054 16.54-3.747 29.023-11.08 37.45Zm-15.49-67.47c3.553 3.893 5.913 10.513 7.08 19.86a34.88 34.88 0 0 1-20.65 6.43c-5.494 0-9.77-1.447-12.83-4.34-3.06-2.894-4.587-6.787-4.58-11.68a15.337 15.337 0 0 1 4.65-11.69c3.22-2.947 7.356-4.42 12.41-4.42a17.993 17.993 0 0 1 13.92 5.84Zm130.32 8.16c0-4.914 1.773-8.58 5.32-11a25.489 25.489 0 0 1 26.12 0c3.546 2.4 5.32 6.066 5.32 11a12.007 12.007 0 0 1-2.76 8.08 14.78 14.78 0 0 1-6.74 4.52 28.666 28.666 0 0 1-8.92 1.3 23.518 23.518 0 0 1-13-3.43c-3.554-2.294-5.33-5.784-5.33-10.47h-.01Zm38.93 42a12.09 12.09 0 0 1-5.78 10.88c-3.854 2.453-8.737 3.68-14.65 3.68-5.914 0-10.84-1.227-14.78-3.68a11.996 11.996 0 0 1-5.9-10.88c0-5.027 1.94-8.74 5.82-11.14 3.88-2.4 8.833-3.6 14.86-3.6 6 0 10.91 1.2 14.73 3.6 3.82 2.4 5.723 6.12 5.71 11.16l-.01-.02Zm40.49-113.87H533a13.083 13.083 0 0 0-9.17 3.83 13.083 13.083 0 0 0-3.83 9.17v157.1a13.082 13.082 0 0 0 13 13h120a13.083 13.083 0 0 0 13-13v-157.04a13.079 13.079 0 0 0-12.93-13.04v-.02Zm-24.53 127.96a25.284 25.284 0 0 1-9 8.87 47.19 47.19 0 0 1-12.68 5.11 63.683 63.683 0 0 1-29.72 0 47.176 47.176 0 0 1-12.68-5.11 25.268 25.268 0 0 1-9-8.87 23.813 23.813 0 0 1-3.31-12.47c0-6.194 1.563-11.104 4.69-14.73a30.395 30.395 0 0 1 12.14-8.46c-9.714-4.667-14.57-11.754-14.57-21.26a27.035 27.035 0 0 1 2.14-10.93 23.805 23.805 0 0 1 5.69-8.16 31.947 31.947 0 0 1 8.41-5.48 43.984 43.984 0 0 1 10.17-3.22 61.7 61.7 0 0 1 22.19 0 44.783 44.783 0 0 1 10.21 3.22 31.8 31.8 0 0 1 8.46 5.48 23.832 23.832 0 0 1 5.69 8.16 27.083 27.083 0 0 1 2.13 10.93c0 9.486-4.857 16.573-14.57 21.26a29.004 29.004 0 0 1 12.06 8.46c3.18 3.573 4.77 8.483 4.77 14.73a23.824 23.824 0 0 1-3.22 12.47Zm101.82-24.15 28.58-34.38v34.38h-28.58Zm84.83-103.78h-120a13.083 13.083 0 0 0-9.17 3.83 13.083 13.083 0 0 0-3.83 9.17v157.1a13.082 13.082 0 0 0 13 13h120a13.083 13.083 0 0 0 13-13v-157.07a13.083 13.083 0 0 0-13-13.04v.01Zm-21.79 119.16H777v23.2h-18.06v-23.2h-50.77v-11.94l52.53-63.29H777v59.85h16.4v15.38Z" fill="#fff"/></g><defs><clipPath id="a"><path fill="#fff" d="M0 0h1024v1024H0z"/></clipPath></defs></svg>