<svg width="1024" height="1024" fill="none" xmlns="http://www.w3.org/2000/svg"><g clip-path="url(#a)"><path d="M512 1024c282.77 0 512-229.23 512-512S794.77 0 512 0 0 229.23 0 512s229.23 512 512 512Z" fill="#FF837D"/><path d="M689.7 226.86a60.504 60.504 0 0 0-31.11-35.39c-30.37-14.84-67.45-2.73-82.67 27l-58.76 114.81-1.1-3.62-11.17-36.79c-9.71-31.95-44.1-50.23-76.66-40.77a60.993 60.993 0 0 0-36.95 29.62 59.163 59.163 0 0 0-4.67 45.68l49.76 163.81-15.3 29.92-1.6 3.16-70 136.84a59.131 59.131 0 0 0-3.48 46 60.442 60.442 0 0 0 11.98 20.828 60.437 60.437 0 0 0 19.15 14.512 62.236 62.236 0 0 0 27.38 6.33c22.64 0 44.48-12.25 55.29-33.39l10.66-20.82 17.4-34 2.51 8.28 40.4 133 4.48 14.67 1.4-1.44a62.364 62.364 0 0 0 70.76 27.51 60.995 60.995 0 0 0 37-29.62 59.215 59.215 0 0 0 4.6-45.7l-70.29-231.45-10.09-33.19 117.59-229.9a59.104 59.104 0 0 0 3.49-45.89Zm-285.77 95.29a41.196 41.196 0 0 1 3.26-31.8 42.998 42.998 0 0 1 26.09-20.87c23.1-6.72 47.45 6.14 54.3 28.65l11.17 36.79 6.55 21.55-15.3 29.94-1.65 3.26L448.24 468l-44.31-145.85Zm108.93 59.25 17 55.94 19.32 63.55-15.3 29.91-41.76 81.64-36.31-119.5 50.27-98.27 1.61-3.18 5.17-10.09Zm-38.49 265.74-30.72 60c-10.75 21-37 29.57-58.62 19a42.463 42.463 0 0 1-21.9-24.81 41.178 41.178 0 0 1 2.42-32l71.63-140 1.67-3.3 5.09-9.95 3.57 11.74 32.74 107.75-5.88 11.57ZM559.26 534l72.47 238.5a41.236 41.236 0 0 1-3.27 31.84 43.086 43.086 0 0 1-26.13 20.87c-23.07 6.7-47.41-6.14-54.25-28.64l-3.17-10.36-35.16-115.7-10.05-33.14L550 539l6.76-13.22 2.5 8.22ZM670.1 264.5 561 477.7l-13.87-45.62-22.45-73.87L592 226.71c10.75-21 37.05-29.53 58.61-19a42.548 42.548 0 0 1 21.9 24.86 41.145 41.145 0 0 1-2.42 31.94l.01-.01Z" fill="#fff"/></g><defs><clipPath id="a"><path fill="#fff" d="M0 0h1024v1024H0z"/></clipPath></defs></svg>