<svg width="1024" height="1024" fill="none" xmlns="http://www.w3.org/2000/svg"><g clip-path="url(#a)"><path d="M512 1024c282.77 0 512-229.23 512-512S794.77 0 512 0 0 229.23 0 512s229.23 512 512 512Z" fill="#FF837D"/><path d="M702.16 582.999c-1.34 6-13.36 11-27.05 11-4.68 0-8.68 2.34-9.35 5.68l-1 5.68h33.4l-1 5.68h-49.77l2-11c1.34-6 13.36-11 27.05-11 4.68 0 8.68-2.34 9.35-5.68l2.34-11c.67-3-2.67-5.68-7.35-5.68s-8.68 2.67-9.35 5.68l-1 5.68h-16.7l1-5.68c1.34-6 13.36-11 27.05-11 13.69 0 24 5 22.71 11l-2.33 10.64Zm53.77 27.72h-16.7l3.34-16.7h-8.35c-13.69 0-24-5-22.71-11l4.34-22h16.7l-4.34 22c-.67 3 2.67 5.68 7.35 5.68h8.35l5.34-27.72H766l-10.07 49.74ZM266 575.609l-4 21c-.67 4 3.34 7 9.35 7H282l6.68-35.07H278c-6 .05-11.32 3.06-12 7.07Zm311.25-7c-6 0-11.35 3-12 7l-1.34 7h21l1.34-7c.7-4.01-2.98-7.02-8.99-7.02l-.01.02Zm238.13-292.23-595.12 287.54c-29.05 14-28.72 36.07 1 48.76l248.47 107.2c29.39 12.69 69.13 1.34 87.5-25l277.18-395.79c18.7-26.72 10.02-36.74-19.03-22.71Zm-377 270.84c.67-3 6.68-5.34 13.36-5.34 7 0 12 2.34 11.35 5.34-.65 3-6.68 5.34-13.36 5.34s-11.73-2.33-11.39-5.34h.04Zm-136.63 63.45h-21l1.34-6.35-8.35 6.35h-3.34c-17.7 0-30.72-6.35-29.05-14l4-21c1.34-7.68 17-14 34.4-14v-.33h31.73l-9.73 49.33Zm81.15-35.07h-21c1-4-3-7-9-7s-11.35 3-12 7l-4 21c-.67 4 3.34 7 9.35 7 5.68 0 11-3 11.69-7h21c-1.67 7.68-17 14-34.4 14-17.7 0-30.72-6.35-29.05-14l4-21c1.34-7.68 17-14 34.4-14s30.34 6.33 29.01 14.01v-.01Zm42.41-7h-10.69l-5.68 28.05c-.67 4 3.34 7 9.35 7l-1.34 7c-17.7 0-30.72-6.35-29.05-14l9-45.75h21l-2 10.69h10.69l-1.28 7.01Zm23.69 42.07h-21l9.68-49.09h21l-9.68 49.09Zm79.17-13.67c-1.67 7.68-17 14-34.4 14H462l9.68-49.43h21l-8.35 42.08h10.69c5.68 0 11-3 11.69-7l7.35-34.73h21l-6.89 35.08Zm79.15-21.37-2.67 14h-42.42l-1.34 7c-.67 4 3.34 7 9.35 7s11.35-3 12-7h21c-1.67 7.68-17 14-34.4 14-17.7 0-30.72-6.35-29.05-14l4-21c1.34-7.68 17-14 34.4-14 17.81-.05 30.47 6.3 29.13 13.98v.02Z" fill="#fff"/></g><defs><clipPath id="a"><path fill="#fff" d="M0 0h1024v1024H0z"/></clipPath></defs></svg>