<svg width="1024" height="1024" viewBox="0 0 1024 1024" fill="none" xmlns="http://www.w3.org/2000/svg">
<g clip-path="url(#clip0_2_1437)">
<path d="M512 1024C794.77 1024 1024 794.77 1024 512C1024 229.23 794.77 0 512 0C229.23 0 0 229.23 0 512C0 794.77 229.23 1024 512 1024Z" fill="#56595B"/>
<path d="M779.66 469.45C777.98 458.95 772.3 455.96 758.57 451.56C748.14 448.22 678.28 425.96 678.28 425.96C678.28 425.96 629.62 407.59 593.52 433.59C588.66 437.08 583.64 441.08 578.57 445.34C582.83 440.27 586.8 435.24 590.3 430.34C616.23 394.21 597.76 345.56 597.76 345.56C597.76 345.56 575.41 275.79 572 265.37C567.57 251.65 564.58 245.98 554.09 244.37C543.6 242.76 539 247.19 530.58 258.89C524.17 267.77 481.42 327.32 481.42 327.32C481.42 327.32 448.9 367.94 462.48 410.32C464.31 416.03 466.55 422.04 469.04 428.17C465.53 422.55 461.97 417.17 458.42 412.38C432.11 376.5 380.15 379 380.15 379C380.15 379 306.85 378.71 295.88 378.68C281.48 378.68 275.15 379.75 270.33 389.21C265.51 398.67 268.33 404.44 276.88 416.06C283.35 424.9 326.77 483.96 326.77 483.96C326.77 483.96 355.36 527.43 399.83 527.62C405.83 527.62 412.21 527.38 418.83 526.9C412.42 528.5 406.25 530.24 400.59 532.11C358.37 546.11 344.71 596.3 344.71 596.3C344.71 596.3 321.79 665.93 318.37 676.3C313.89 689.99 312.97 696.3 320.49 703.86C328.01 711.42 334.33 710.51 348 706C358.41 702.58 428 679.52 428 679.52C428 679.52 478.18 665.76 492.09 623.52C493.96 617.85 495.68 611.7 497.26 605.29C496.81 611.87 496.55 618.29 496.58 624.23C496.84 668.71 540.36 697.23 540.36 697.23L608.36 747.01C620 755.49 625.77 758.33 635.23 753.5C644.69 748.67 645.77 742.34 645.71 727.93C645.71 716.98 645.25 643.67 645.25 643.67C645.25 643.67 647.69 591.67 611.81 565.42C606.99 561.89 601.67 558.34 596.05 554.85C602.18 557.33 608.18 559.55 613.87 561.36C656.25 574.86 696.8 542.28 696.8 542.28C696.8 542.28 756.31 499.4 765.18 493C776.85 484.54 781.33 479.93 779.66 469.45ZM527.18 415.45C535.18 416.7 539.18 433.71 536.03 453.45C532.88 473.19 523.93 488.13 515.93 486.87C507.93 485.61 503.93 468.61 507.07 448.87C510.21 429.13 519.18 414.2 527.18 415.47V415.45ZM424.78 467.74C428.45 460.52 445.85 462.01 463.64 471.06C481.43 480.11 492.89 493.29 489.22 500.5C485.55 507.71 468.15 506.24 450.35 497.2C432.55 488.16 421.11 475 424.78 467.76V467.74ZM478.78 566.08C464.68 580.2 448.6 587.02 442.86 581.29C437.12 575.56 443.93 559.49 458.03 545.36C472.13 531.23 488.21 524.41 493.94 530.14C499.67 535.87 492.88 552 478.78 566.09V566.08ZM556.45 599.19C549.23 602.87 536.04 591.45 526.96 573.67C517.88 555.89 516.36 538.49 523.58 534.81C530.8 531.13 543.99 542.56 553.07 560.33C562.15 578.1 563.66 595.51 556.45 599.2V599.19ZM575.17 516.85C555.46 519.99 538.45 516.05 537.17 508.07C535.89 500.09 550.85 491.07 570.56 487.91C590.27 484.75 607.28 488.7 608.56 496.7C609.84 504.7 594.89 513.72 575.17 516.86V516.85Z" fill="white"/>
</g>
<defs>
<clipPath id="clip0_2_1437">
<rect width="1024" height="1024" fill="white"/>
</clipPath>
</defs>
</svg>
