<svg width="1024" height="1024" fill="none" xmlns="http://www.w3.org/2000/svg"><g clip-path="url(#a)"><path d="M512 1024c282.77 0 512-229.23 512-512S794.77 0 512 0 0 229.23 0 512s229.23 512 512 512Z" fill="#98DC9A"/><path d="M512 285c-78.1 0-172.2 18.4-249.7 58.8 0 87.3-1.1 304.7 249.7 453.2 250.8-148.5 249.8-366 249.8-453.2C684.2 303.4 590.1 285 512 285Zm-9.1 341.6L393.6 498.3c7.2-5.3 38-25.2 60.6.9l47.4 57.1 125.9-131h.2c5.3-4.9 15-11.1 26.1-2.2L502.9 626.6Z" fill="#fff"/></g><defs><clipPath id="a"><path fill="#fff" d="M0 0h1024v1024H0z"/></clipPath></defs></svg>