<svg width="1024" height="1024" fill="none" xmlns="http://www.w3.org/2000/svg"><g clip-path="url(#a)"><path d="M512 1024c282.77 0 512-229.23 512-512S794.77 0 512 0 0 229.23 0 512s229.23 512 512 512Z" fill="#F8C18C"/><path d="M484.52 303.429 294 382.219c-10.73 4.45-10.47 19.37.26 23.82l191.56 75.96a69.672 69.672 0 0 0 52.35 0l191.61-76c10.73-4.19 10.73-19.37.26-23.82L539 303.429a70.167 70.167 0 0 0-54.45 0m44.24 220.14v189.78a12.788 12.788 0 0 0 17.54 11.78l213.6-83a12.447 12.447 0 0 0 8.07-11.76v-189.78a12.781 12.781 0 0 0-5.659-10.522 12.796 12.796 0 0 0-11.881-1.258l-213.6 82.72a13.054 13.054 0 0 0-8.11 12m-49.75 9.73-63.35 30.63-6.52 3.11-133.76 64.15c-8.37 4.19-19.37-2.09-19.37-11.51v-178.26c0-3.4 1.83-6.28 4.19-8.64a12.307 12.307 0 0 1 3.14-2.36 13.587 13.587 0 0 1 11.52-.79l202.86 80.41c10.47 3.93 11.26 18.58 1.31 23.3" fill="#fff"/></g><defs><clipPath id="a"><path fill="#fff" d="M0 0h1024v1024H0z"/></clipPath></defs></svg>