<svg width="1024" height="1024" viewBox="0 0 1024 1024" fill="none" xmlns="http://www.w3.org/2000/svg">
<g clip-path="url(#clip0_2_1452)">
<path d="M512 1024C794.77 1024 1024 794.77 1024 512C1024 229.23 794.77 0 512 0C229.23 0 0 229.23 0 512C0 794.77 229.23 1024 512 1024Z" fill="#9ABEFF"/>
<path d="M896 497.86C896 506.9 888.71 514.19 879.67 514.19C870.63 514.19 863.34 506.9 863.34 497.86C863.34 488.82 870.63 481.53 879.67 481.53C888.71 481.53 896 488.82 896 497.86ZM388.47 484.73L400.14 611.32H365.72L363.68 589.44V589.15H317.89L307.1 611.03H272.1L337.15 484.73H388.49H388.47ZM362.22 564.65L358.14 509.81H357.85L330.72 564.65H362.22ZM509.81 522.36H477.72L453.22 555.61H447.97L463.14 484.44H434.26L407.13 611.03H436.3L443.88 575.15H449.13L462.55 611.03H496.68L475.68 564.94L509.81 522.35V522.36ZM595.86 555.61L584.19 611.03H555.02L558.52 597.61H557.64C552.68 609.86 539.26 611.9 529.06 611.9C508.64 611.9 498.14 606.94 502.81 584.48C507.19 563.19 519.73 556.48 540.73 556.48C549.19 556.48 561.73 556.19 562.9 566.4H564.36L567.28 552.4C569.03 544.23 569.61 538.98 557.07 538.98C550.07 538.98 545.11 540.73 543.36 548.61H514.19C520.02 520.9 540.15 521.19 560.86 521.19C590.61 521.19 602.28 524.98 595.86 555.61ZM546.86 574.57C539.86 574.57 534.03 575.74 532.28 583.9C530.24 593.53 538.41 593.53 542.78 593.53C554.74 593.53 558.82 592.07 560.86 582.74C562.61 575.16 556.19 574.57 546.86 574.57ZM720.99 521.48C709.91 521.48 697.07 526.44 692.7 538.98H691.24C692.99 523.52 680.74 521.48 668.2 521.48C658.28 521.48 646.91 524.4 641.07 534.9H639.9L642.53 522.36H614.53L595.57 611.03H624.74L635.24 560.57C637.57 550.07 641.07 543.65 653.03 543.65C663.24 543.65 662.66 549.19 661.2 557.36L649.82 611.03H678.99L689.49 560.57C691.53 551.24 695.32 543.65 706.7 543.65C718.08 543.65 716.33 550.36 714.87 559.69L704.08 611.03H732.96L745.79 550.65C750.17 529.94 741.41 521.48 721 521.48H720.99ZM840.58 555.61L828.91 611.03H799.74L803.53 597.61H802.65C797.69 609.86 784.27 611.9 774.07 611.9C753.65 611.9 743.15 606.94 747.82 584.48C752.2 563.19 764.74 556.48 785.74 556.48C794.2 556.48 806.74 556.19 807.91 566.4H809.37L812.29 552.4C813.75 544.23 814.62 538.98 801.79 538.98C794.79 538.98 789.83 540.73 788.08 548.61H758.91C764.74 520.9 784.87 521.19 805.58 521.19C835.33 521.19 847 524.98 840.58 555.61ZM791.58 574.57C784.58 574.57 778.75 575.74 777 583.9C774.96 593.53 783.13 593.53 787.5 593.53C799.46 593.53 803.54 592.07 805.58 582.74C807.33 575.16 800.91 574.57 791.58 574.57ZM841.75 611.03H870.63L889.59 522.36H860.42L841.75 611.03ZM255.76 436.61C252.55 439.24 253.72 440.99 257.8 439.24C290.18 425.24 330.72 424.66 370.39 438.66C397.22 447.99 412.68 461.41 413.85 460.83C415.89 459.95 398.39 431.95 366.31 419.7C327.52 405.12 286.1 412.7 255.76 436.62V436.61ZM191.88 483.57C191.88 499.32 194.8 514.49 200.34 528.49C202.67 534.32 206.17 534.62 205.59 528.78C205.3 524.7 205.01 520.32 205.01 515.95C205.01 447.4 260.72 391.69 329.27 391.69C394.02 391.69 413.57 420.57 415.9 418.82C418.53 416.78 392.27 359.32 316.14 359.32C247.59 359.32 191.88 415.03 191.88 483.58V483.57ZM286.97 641.66C222.51 622.12 175.84 562.61 175.84 492.32C175.84 422.03 223.68 361.06 289.01 342.4C295.72 340.36 293.97 335.98 285.8 335.98C198.59 335.98 128 405.98 128 492.32C128 578.66 198.88 648.66 285.8 648.66C293.97 648.66 294.26 643.99 286.97 641.66Z" fill="white"/>
</g>
<defs>
<clipPath id="clip0_2_1452">
<rect width="1024" height="1024" fill="white"/>
</clipPath>
</defs>
</svg>
