<svg width="1024" height="1024" viewBox="0 0 1024 1024" fill="none" xmlns="http://www.w3.org/2000/svg">
<g clip-path="url(#clip0_2_1455)">
<path d="M512 1024C794.77 1024 1024 794.77 1024 512C1024 229.23 794.77 0 512 0C229.23 0 0 229.23 0 512C0 794.77 229.23 1024 512 1024Z" fill="#728DBE"/>
<path d="M490.97 269.34C358.44 269.34 250.41 376.19 248.5 508.28C246.55 642.41 355.39 753.57 489.54 754.34C530.98 754.59 570.88 744.46 606.31 725.19C609.76 723.32 610.3 718.57 607.36 715.96L584.67 695.85C580.05 691.77 573.49 690.6 567.82 693.03C543.09 703.56 516.21 708.92 488.5 708.6C380.11 707.26 292.51 617.07 294.25 508.68C295.95 401.66 383.54 315.11 490.96 315.11H687.71V664.81L576.09 565.63C572.48 562.42 566.95 563.05 564.03 566.91C546.11 590.63 516.92 605.39 484.5 603.14C439.53 600.03 403.09 563.84 399.73 518.88C395.7 465.27 438.2 420.35 490.97 420.35C538.71 420.35 578.01 457.1 582.11 503.79C582.47 507.95 584.34 511.82 587.47 514.59L616.55 540.37C619.85 543.29 625.08 541.5 625.9 537.16C628 525.96 628.72 514.26 627.9 502.3C623.23 434.03 567.91 379.1 499.61 374.88C421.31 370.05 355.82 431.32 353.74 508.12C351.72 582.95 413.02 647.46 487.87 649.12C519.12 649.81 548.07 639.98 571.48 622.96L717.33 752.25C723.59 757.78 733.45 753.36 733.45 745V278.55C733.45 273.47 729.33 269.35 724.25 269.35H490.94L490.97 269.34Z" fill="white"/>
</g>
<defs>
<clipPath id="clip0_2_1455">
<rect width="1024" height="1024" fill="white"/>
</clipPath>
</defs>
</svg>
