<svg width="1024" height="1024" fill="none" xmlns="http://www.w3.org/2000/svg"><g clip-path="url(#a)"><path d="M512 1024c282.77 0 512-229.23 512-512S794.77 0 512 0 0 229.23 0 512s229.23 512 512 512Z" fill="#F8C18C"/><path d="M426.81 492h170.8v38.34h-170.8V492Zm256-139.71H569.93L597.19 391l82.64 25.13a34.999 34.999 0 0 1 24.71 34.08v123.55a35.667 35.667 0 0 1-24.71 34.08L597.61 633l-27.69 38.76h112.89a85.185 85.185 0 0 0 60.255-24.957A85.168 85.168 0 0 0 768 586.54V437.46c.43-46.85-37.91-85.19-85.19-85.19m-341.61 0h112.87L426.81 391l-82.21 25.16a34.999 34.999 0 0 0-24.71 34.08v123.52a35.667 35.667 0 0 0 24.71 34.08L426.81 633l27.26 38.76H341.19A85.438 85.438 0 0 1 256 586.54V437.46a85.44 85.44 0 0 1 85.19-85.19" fill="#fff"/></g><defs><clipPath id="a"><path fill="#fff" d="M0 0h1024v1024H0z"/></clipPath></defs></svg>