<svg width="1024" height="1024" viewBox="0 0 1024 1024" fill="none" xmlns="http://www.w3.org/2000/svg">
<g clip-path="url(#clip0_2_1461)">
<path d="M512 1024C794.77 1024 1024 794.77 1024 512C1024 229.23 794.77 0 512 0C229.23 0 0 229.23 0 512C0 794.77 229.23 1024 512 1024Z" fill="#70C6BE"/>
<path d="M516.67 248.24C522.26 247.6 528.07 248.85 532.74 252.04C539.77 256.58 544.75 263.52 548.96 270.62C568.05 302.61 587.26 334.52 606.33 366.52C631.73 409.3 657.14 452.08 682.47 494.91C700 524.53 717.57 554.14 735.22 583.69C746.84 603.43 758.83 622.97 769.94 643.01C774.73 651.4 777.36 661.08 776.96 670.77C776.68 678.26 775.32 685.95 771.39 692.44C765.87 701.59 756.63 708.05 746.61 711.42C741.26 713.34 735.65 714.65 729.95 714.66C667.73 714.64 605.52 714.68 543.3 714.67C537.95 714.53 532.51 713.92 527.49 711.98C523.82 710.41 520.2 708.49 517.33 705.67C512.43 700.82 509.25 693.93 510.1 686.94C510.54 682.05 511.74 677.24 513.75 672.76C515.7 668.17 518.45 663.98 520.83 659.61C531.24 641.05 542.13 622.77 553.47 604.76C557.1 599.09 560.26 592.97 565.28 588.36C570.62 583.47 577.32 579.64 584.66 579.14C590.56 578.9 596.36 580.94 601.28 584.1C606.83 587.35 611.2 592.77 612.66 599.09C614.77 607.09 612.5 615.49 609.11 622.8C605.31 631.1 599.88 638.63 596.97 647.33C596.44 649.31 595.72 651.81 597.2 653.55C598.7 654.96 600.78 655.52 602.73 656C608.37 657.26 614.19 656.93 619.93 656.97H683.41C687.6 656.9 691.79 657.11 695.98 656.87C699 656.52 702.3 656.03 704.65 653.92C706.2 652.55 706.39 650.23 705.81 648.35C704.52 644.18 702.3 640.39 700.11 636.65C643.69 540.3 587.59 443.77 530.58 347.76C528.72 344.68 527.12 341.33 524.45 338.84C523.13 337.58 521.18 336.86 519.39 337.38C517.86 337.93 516.83 339.27 515.81 340.47C513.3 343.67 511.05 347.08 508.99 350.59C499.17 366.55 489.77 382.77 480.14 398.85C424.7 492.15 369.26 585.45 313.83 678.75C310.39 685.08 306.73 691.29 302.75 697.29C299.25 702.44 295 707.27 289.52 710.38C283.06 714.11 275.09 715.59 267.85 713.46C262.57 711.83 257.46 709.17 253.68 705.07C248.89 700.33 246.77 693.39 247.02 686.76C247.26 679.77 249.6 672.96 253.12 666.96C286.78 609.79 320.65 552.74 354.65 495.77C372.14 466.24 389.55 436.67 407.14 407.2C424.93 377.34 442.77 347.51 460.48 317.61C470.36 300.77 480.32 283.96 490.7 267.42C493.89 262.18 498.03 257.48 503 253.85C507.08 251.07 511.66 248.68 516.66 248.24H516.67ZM513.84 469.23C522.22 467.88 531.11 469.88 538.06 474.77C543.34 478.84 547 484.95 548.06 491.53C548.78 496.55 548.29 501.76 546.44 506.5C545.02 510.6 542.98 514.47 540.72 518.17C508.39 572.52 476.07 626.87 443.73 681.21C439.59 688.01 435.82 695.07 431.05 701.46C427.58 705.74 423.25 709.38 418.26 711.75C407.69 717.38 393.91 713.95 385.87 705.48C381.8 701.39 379.41 695.78 379.1 690.04C378.64 684.1 379.95 678.09 382.64 672.79C385.01 667.64 387.8 662.7 390.72 657.85C404.93 633.95 419.01 609.96 433.18 586.04C452.57 553.14 472.28 520.42 491.79 487.59C493.86 483.86 496.45 480.41 499.36 477.29C503.28 473.31 508.25 470.1 513.84 469.22V469.23Z" fill="white"/>
</g>
<defs>
<clipPath id="clip0_2_1461">
<rect width="1024" height="1024" fill="white"/>
</clipPath>
</defs>
</svg>
