<svg width="1024" height="1024" fill="none" xmlns="http://www.w3.org/2000/svg"><g clip-path="url(#a)"><path d="M512 1024c282.77 0 512-229.23 512-512S794.77 0 512 0 0 229.23 0 512s229.23 512 512 512Z" fill="#FF837D"/><path d="M369.93 319h366l.87.9a852390.62 852390.62 0 0 0-56.64 330.56 11884.36 11884.36 0 0 1 100.37 59.76c-158.053.18-316.11.217-474.17.11-8.73.09-17.65-2.2-24.58-7.66-7.43-5.68-11.7-14.59-13.25-23.66v-14.9c17.47-99.91 34.54-199.92 51.88-299.87 3.88-24 26.15-41.89 49.52-45.24Zm70.25 140.51a30786.336 30786.336 0 0 1-17.49 101.36c-1.23 5.34.41 11.83 5.39 14.71 4.08 2.47 9 1.6 13.54 1.77 39.6-.053 79.193-.053 118.78 0 7.68-44.79 15.51-89.56 23.17-134.37-41.28.05-82.55 0-123.83 0-9.3-.14-18.28 7.24-19.56 16.53Z" fill="#fff"/></g><defs><clipPath id="a"><path fill="#fff" d="M0 0h1024v1024H0z"/></clipPath></defs></svg>