<svg width="1024" height="1024" fill="none" xmlns="http://www.w3.org/2000/svg"><g clip-path="url(#a)"><path d="M512 1024c282.77 0 512-229.23 512-512S794.77 0 512 0 0 229.23 0 512s229.23 512 512 512Z" fill="#F8C18C"/><path d="M813.08 475.81a56.997 56.997 0 0 0-70.048-16.215 56.997 56.997 0 0 0-19.952 16.215 61.935 61.935 0 0 0 0 69.59 57.004 57.004 0 0 0 70.048 16.216A56.99 56.99 0 0 0 813.08 545.4a61.923 61.923 0 0 0 0-69.59Zm-17.83 47.84c-4.09 12.22-13.79 21.75-27.23 22.05-13.44.3-23.14-9.83-27.18-22.05a40.316 40.316 0 0 1 0-26.1c4.09-12.22 13.79-21.75 27.18-22.05 13.39-.3 23.14 9.83 27.23 22.05a40.364 40.364 0 0 1 0 26.05v.05Zm-409.92 40.88a3.221 3.221 0 0 1-3.22 3.22h-18.7a3.212 3.212 0 0 1-2.277-.943 3.227 3.227 0 0 1-.943-2.277V410.79a3.22 3.22 0 0 1 3.22-3.22h18.7a3.22 3.22 0 0 1 3.22 3.22v153.74Zm-43.93 0a3.221 3.221 0 0 1-3.22 3.22h-18.7a3.216 3.216 0 0 1-2.975-1.987 3.221 3.221 0 0 1-.245-1.233V410.79a3.222 3.222 0 0 1 3.18-3.22h18.7a3.22 3.22 0 0 1 3.22 3.22v153.74h.04Zm366.73-104.38v13a3.39 3.39 0 0 1-4.35 3.7c-21.14-4.35-34.14 5-34.14 24.57v63.07a3.22 3.22 0 0 1-3.22 3.22h-18.7a3.212 3.212 0 0 1-2.277-.943 3.227 3.227 0 0 1-.943-2.277v-64.37a43.491 43.491 0 0 1 13.79-32.58 48.544 48.544 0 0 1 34.23-13.83c4.361.016 8.712.424 13 1.22 2.22.74 2.57 2 2.57 5.39l.04-.17Zm-80.07 50.41a58.32 58.32 0 0 0-10.7-34.79 56.997 56.997 0 0 0-70.048-16.215 56.997 56.997 0 0 0-19.952 16.215 61.193 61.193 0 0 0 0 69.59 55.365 55.365 0 0 0 45 22.05 57.406 57.406 0 0 0 32.05-9.66v13.74c0 18.66-16.31 22.05-26.75 22.7a122.796 122.796 0 0 1-21.49-1.19c-2.87-.43-4.87 0-4.87 3.09v16.53a2.83 2.83 0 0 0 3 2.7c24.23 2.09 40.54 1.65 52.8-5.35a39.928 39.928 0 0 0 17.88-22.75 76.06 76.06 0 0 0 3.09-22.7v-54l-.01.04Zm-55.71 35.06c-13.44 0-23.14-9.83-27.23-22.05a40.316 40.316 0 0 1 0-26.1c4.09-12.22 13.79-22.05 27.23-22.05 30.05 0 31.05 30.66 31.05 35.1 0 4.44-1 35.1-31.05 35.1Zm-273.23-46.33c0-14.83-3.31-26.1-10.44-33.88-7.13-7.78-21.49-11.66-34.79-11.66a75.422 75.422 0 0 0-38.06 10.13 2.395 2.395 0 0 0-1.17 2.09l1 16.35a2.912 2.912 0 0 0 4.78 1.7c16.31-10 35.88-11.92 45.84-6.87a17.393 17.393 0 0 1 8.7 15.7v2.39H247.8c-11.7 0-47.54 4.35-47.54 37.27v.35a31.92 31.92 0 0 0 11.61 26.44 45.928 45.928 0 0 0 29.05 8.31h55a3.22 3.22 0 0 0 3.22-3.22v-65.23l-.02.13ZM275 547.53h-32.51a20.086 20.086 0 0 1-11.53-4 12.778 12.778 0 0 1-4.053-4.672 12.78 12.78 0 0 1-1.387-6.028c0-5.87 4-17.61 23.75-17.61H275v32.31Zm179.19-93.77c-33.27 0-47.84 22.31-52.5 41.19a63.405 63.405 0 0 0-1.91 15.57 59.145 59.145 0 0 0 10.7 34.79 57.116 57.116 0 0 0 19.952 16.225 57.12 57.12 0 0 0 25.048 5.825c18 .65 30-2.39 39.14-7.61a5.09 5.09 0 0 0 2.17-5.52v-14.49c0-3-1.78-4.35-4.35-2.57a56.75 56.75 0 0 1-36.19 8.7 29.618 29.618 0 0 1-29.05-26.4h73.94a3 3 0 0 0 3-3c1.36-20.22-4.51-62.71-49.96-62.71h.01Zm-26.59 45.71a25.136 25.136 0 0 1 26.24-24h.37a22.374 22.374 0 0 1 17.287 6.621 22.361 22.361 0 0 1 6.373 17.379H427.6Z" fill="#fff"/></g><defs><clipPath id="a"><path fill="#fff" d="M0 0h1024v1024H0z"/></clipPath></defs></svg>