<svg width="1024" height="1024" fill="none" xmlns="http://www.w3.org/2000/svg"><g clip-path="url(#a)"><path d="M512 1024c282.77 0 512-229.23 512-512S794.77 0 512 0 0 229.23 0 512s229.23 512 512 512Z" fill="#96DFD3"/><path d="M282.13 496.859a15.258 15.258 0 0 1-17.14-18.817 15.257 15.257 0 0 1 5.37-8.263l42.28-33a15.22 15.22 0 0 1 11.345-3.382 15.232 15.232 0 0 1 11.441 22.899 15.238 15.238 0 0 1-4.046 4.483l-42.28 33a13.725 13.725 0 0 1-6.97 3.08Zm-34.06 29.26 4-3.09a15.232 15.232 0 0 0-7.625-26.847 15.224 15.224 0 0 0-11.115 2.847l-4 3.09a15.26 15.26 0 0 0-2.63 21.37 15.44 15.44 0 0 0 14.4 5.6 14.573 14.573 0 0 0 6.97-2.98v.01Zm-5.49 86.74 92.8-72.57a15.238 15.238 0 0 0 6.032-10.187 15.242 15.242 0 0 0-3.087-11.429 15.217 15.217 0 0 0-10.34-5.766 15.232 15.232 0 0 0-11.345 3.382l-92.8 72.46a15.26 15.26 0 0 0 11.77 27.09 15.574 15.574 0 0 0 6.97-2.99v.01Zm132.23-103 14.74-11.54a15.238 15.238 0 0 0 6.032-10.187 15.242 15.242 0 0 0-3.087-11.429 15.217 15.217 0 0 0-10.34-5.766 15.232 15.232 0 0 0-11.345 3.382l-14.74 11.54a15.261 15.261 0 0 0 11.77 27.14 17.237 17.237 0 0 0 6.97-3.11v-.03Zm-8.11 88.57 76.11-59.43a15.238 15.238 0 0 0 6.032-10.187 15.242 15.242 0 0 0-3.087-11.429 15.217 15.217 0 0 0-10.34-5.766 15.232 15.232 0 0 0-11.345 3.382L348 574.459a15.257 15.257 0 0 0-4.57 18.084 15.263 15.263 0 0 0 16.34 8.996 13.724 13.724 0 0 0 6.92-3.09l.01-.02Zm-41.6 33 5.37-4.23a15.238 15.238 0 0 0 6.032-10.187 15.243 15.243 0 0 0-3.087-11.429 15.217 15.217 0 0 0-10.34-5.766 15.232 15.232 0 0 0-11.345 3.382l-5.37 4.23a15.26 15.26 0 0 0 11.77 27.09 14.627 14.627 0 0 0 6.97-3.04v-.05ZM730 366.119v248.79a71.21 71.21 0 0 1-71.2 71.2H334.92a15.31 15.31 0 0 1-15.31-15.31 15.073 15.073 0 0 1 9.312-13.947 15.07 15.07 0 0 1 5.778-1.143h324.22a40.822 40.822 0 0 0 40.8-40.8v-230.74l-171.54 133.49c-6.86 5.26-18.4 7.89-30.28.23-33.15-22.89-168.35-127.89-168.35-127.89a29.398 29.398 0 0 1-9.94-14.29 28.296 28.296 0 0 1 0-17.14c3.89-12.57 16.11-20.69 29.26-20.69h352.9a28.139 28.139 0 0 1 28.23 28.24Zm-271.76 97.48-.46-.69-.11.8.57-.11Zm212.34-95.31H355.72l157.14 122.85 157.72-122.85Z" fill="#fff"/></g><defs><clipPath id="a"><path fill="#fff" d="M0 0h1024v1024H0z"/></clipPath></defs></svg>