<svg width="1024" height="1024" fill="none" xmlns="http://www.w3.org/2000/svg"><g clip-path="url(#a)"><path d="M512 1024c282.77 0 512-229.23 512-512S794.77 0 512 0 0 229.23 0 512s229.23 512 512 512Z" fill="#96DFD3"/><path d="M420.68 257.481c-7.79 2.37-15.24 8.639-18.46 15.919-3.05 6.6-3.22 15.071-3.22 185.271 0 98.22.51 178.149 1.35 177.809.68-.34 8.64-4.74 17.61-9.82l16.43-9.31 1.02-320.91 143.95 83.15c79.25 45.72 144.96 83.66 146.15 84.34 1.35.85-3.05 4.06-12.36 9.31-7.96 4.4-14.39 8.64-14.39 9.48 0 .68 7.62 5.76 17.1 11.01l17.1 9.65 7.45-3.89c20.49-11.01 26.25-17.609 27.44-30.819.85-11.351-1.69-19.651-7.79-25.231-5.93-5.59-315.33-184.08-322.61-186.11-6.27-1.86-10.5-1.69-16.77.17v-.019Zm-85.17 48.78c-8.47 4.06-15.58 12.189-16.94 19.479-.51 3.05-.68 88.91-.51 191.02l.51 185.61 4.74 6.1c6.43 8.47 13.72 12.02 24.89 12.02 9.15 0 10.67-.849 163.08-88.74 84.51-48.77 153.43-89.41 153.09-90.26-.85-2.88-32.18-19.98-34.89-19.31-1.52.51-64.01 36.241-139.03 79.591l-136.33 78.75-.51-84.671c-.17-46.57-.17-122.27 0-168.33l.51-83.66 13.04 7.621c7.11 4.23 13.89 7.62 14.9 7.62 1.01 0 1.69-7.281 1.69-19.981v-19.979l-12.87-7.451c-15.24-8.81-25.06-10.16-35.39-5.42l.02-.009Zm114.3 72.819v19.98l138.87 80.1 138.7 80.27-291.96 168.5-.51-16.77c-.17-9.14-1.02-16.759-1.52-16.759s-8.47 4.399-17.78 9.649l-16.6 9.651v15.239c0 12.02.68 16.77 3.56 22.69 6.1 12.53 21.17 19.141 34.55 15.24 4.06-1.19 78.07-43.009 164.27-92.8 117.53-67.739 158.17-91.959 161.39-96.359 3.39-4.4 4.57-8.13 5.08-16.26.68-11.351-1.35-17.441-8.47-24.05-4.23-4.06-305.33-178.321-308.04-178.321-.85 0-1.52 8.47-1.52 19.98l-.02.02Z" fill="#fff"/></g><defs><clipPath id="a"><path fill="#fff" d="M0 0h1024v1024H0z"/></clipPath></defs></svg>