<svg width="1024" height="1024" fill="none" xmlns="http://www.w3.org/2000/svg"><g clip-path="url(#a)"><path d="M512 1024c282.77 0 512-229.23 512-512S794.77 0 512 0 0 229.23 0 512s229.23 512 512 512Z" fill="#9ABEFF"/><path d="M582.491 516a77.343 77.343 0 0 0 15.31-4.9v31.72c0 69.9-67.12 85.21-93 85.21-35.29 0-73.3-18.75-73.3-49.15 0-32.73 29.44-43 91.33-52.48 16.08-2.4 42.3-7.06 59.66-10.4Zm192.2-4c0 141.38-117.61 256-262.69 256-145.08 0-262.69-114.62-262.69-256s117.61-256 262.69-256c145.08 0 262.69 114.62 262.69 256Zm-120.57-31.23c0-10.41-.33-20.26-.33-28.89 0-54.88-26.32-82.32-48.42-95.68a147.663 147.663 0 0 0-73.86-18.53c-54.77 0-95.12 15.42-120.05 45.75a115.591 115.591 0 0 0-24.93 62.78 9.45 9.45 0 0 0 0 1.78 29.276 29.276 0 0 0 29.55 26.55 27.272 27.272 0 0 0 29.72-23c6.35-29.5 20.43-56.83 80.59-56.83 31.89 0 52.71 6.57 63.62 20.09a39.01 39.01 0 0 1 10.19 30.28c0 10-3.79 22.26-33.39 28.78-19.2 4.17-39.41 6.51-58.94 8.74l-9.35 1.11c-110.77 13.1-127.47 71.54-127.47 105.16 0 61 73.36 95.51 126.34 97.18h9.8a153.199 153.199 0 0 0 58.66-10.3l1.61-.67a136.153 136.153 0 0 0 79.59-81c8.63-23.25 7.85-71.07 7.07-113.3Z" fill="#fff"/></g><defs><clipPath id="a"><path fill="#fff" d="M0 0h1024v1024H0z"/></clipPath></defs></svg>