<svg width="1024" height="1024" viewBox="0 0 1024 1024" fill="none" xmlns="http://www.w3.org/2000/svg">
<g clip-path="url(#clip0_2_1503)">
<path d="M512 1024C794.77 1024 1024 794.77 1024 512C1024 229.23 794.77 0 512 0C229.23 0 0 229.23 0 512C0 794.77 229.23 1024 512 1024Z" fill="#9ABEFF"/>
<path d="M512 256C652.8 256 768 371.2 768 512C768 652.8 652.8 768 512 768C371.2 768 256 652.8 256 512C256 371.2 371.2 256 512 256ZM574.7 561.9C602.9 526.1 599 474.9 563.2 448C528.6 421.1 477.4 427.5 448 463.4C419.8 499.2 423.7 550.4 459.5 577.3C495.4 604.2 546.6 597.8 574.7 561.9ZM437.8 728.3C453.2 734.7 486.4 741.1 503.1 741.1L614.5 579.8C650.3 526 641.4 453.1 591.5 413.4C546.7 377.6 484 378.8 439.2 413.4L284.3 532.4C288.1 573.4 299.7 593.8 299.7 595.1L388 499.1C381.6 541.3 397 584.9 432.8 611.7C463.5 636 500.6 642.4 536.5 634.7L437.8 728.3Z" fill="white"/>
</g>
<defs>
<clipPath id="clip0_2_1503">
<rect width="1024" height="1024" fill="white"/>
</clipPath>
</defs>
</svg>
