<svg width="1024" height="1024" fill="none" xmlns="http://www.w3.org/2000/svg"><g clip-path="url(#a)"><path d="M512 1024c282.77 0 512-229.23 512-512S794.77 0 512 0 0 229.23 0 512s229.23 512 512 512Z" fill="#9ABEFF"/><path d="M512 256c140.8 0 256 115.2 256 256S652.8 768 512 768 256 652.8 256 512s115.2-256 256-256Zm62.7 305.9c28.2-35.8 24.3-87-11.5-113.9-34.6-26.9-85.8-20.5-115.2 15.4-28.2 35.8-24.3 87 11.5 113.9 35.9 26.9 87.1 20.5 115.2-15.4ZM437.8 728.3c15.4 6.4 48.6 12.8 65.3 12.8l111.4-161.3c35.8-53.8 26.9-126.7-23-166.4-44.8-35.8-107.5-34.6-152.3 0l-154.9 119c3.8 41 15.4 61.4 15.4 62.7l88.3-96c-6.4 42.2 9 85.8 44.8 112.6 30.7 24.3 67.8 30.7 103.7 23l-98.7 93.6Z" fill="#fff"/></g><defs><clipPath id="a"><path fill="#fff" d="M0 0h1024v1024H0z"/></clipPath></defs></svg>