<svg width="1024" height="1024" fill="none" xmlns="http://www.w3.org/2000/svg"><g clip-path="url(#a)"><path d="M512 1024c282.77 0 512-229.23 512-512S794.77 0 512 0 0 229.23 0 512s229.23 512 512 512Z" fill="#73ADA4"/><path d="M668 362a138.628 138.628 0 0 0-23.26 1.75c-64.87 9.42-108.4 57.37-132.73 94.16-24.33-36.79-67.86-84.74-132.73-94.16A166.246 166.246 0 0 0 356 362c-83.65 0-151.51 67.23-151.51 150S272.57 662 356 662c7.858.063 15.708-.522 23.47-1.75 64.87-9.63 108.4-57.59 132.73-94.38 24.33 36.79 67.86 84.74 132.73 94.38a166.823 166.823 0 0 0 23.49 1.75c83 0 151.08-67.23 151.08-150S751.43 362 668 362ZM371.8 607.69a98.246 98.246 0 0 1-16 1.1c-55.06 0-99.65-43.58-99.65-96.79 0-53.43 44.81-96.79 99.87-96.79 5.351.036 10.694.4 16 1.09 61.24 9 98.59 70.95 111.39 95.69-13.02 25.01-50.58 86.73-111.61 95.7Zm296.2 1.1a130.91 130.91 0 0 1-16-1.1c-61.24-9-98.8-70.95-111.39-95.69 12.59-24.75 50.15-86.72 111.39-95.69 5.306-.69 10.65-1.054 16-1.09 55.05 0 99.65 43.58 99.65 96.79-.01 53.42-44.82 96.78-99.65 96.78ZM313.27 495.93h91.63v28.84h-91.63v-28.84Zm397 29h-30.9v30.31h-29.61V525h-30.9v-29h30.9v-30.38h29.61v30.31h30.9v29Z" fill="#fff"/></g><defs><clipPath id="a"><path fill="#fff" d="M0 0h1024v1024H0z"/></clipPath></defs></svg>