<svg width="1024" height="1024" fill="none" xmlns="http://www.w3.org/2000/svg"><g clip-path="url(#a)"><path d="M512 1024c282.77 0 512-229.23 512-512S794.77 0 512 0 0 229.23 0 512s229.23 512 512 512Z" fill="#FF837D"/><path d="M200.15 508.441v-35.86a834.735 834.735 0 0 1 65-24v13.88a830.2 830.2 0 0 1 53-15.25v-13.48a805.943 805.943 0 0 1 57.22-11.87v13.36a791.058 791.058 0 0 1 53-7.34v-13.22a827.74 827.74 0 0 1 57.21-3.85v13.19c8.774-.314 17.597-.47 26.47-.47 8.874 0 17.714.156 26.52.47v-13.19a813.389 813.389 0 0 1 57.22 3.85v13.22a812.663 812.663 0 0 1 53 7.34v-13.35a792.2 792.2 0 0 1 57.22 11.88v13.57a786.74 786.74 0 0 1 53 15.25v-13.9a780.017 780.017 0 0 1 65 24v35.8a780.797 780.797 0 0 0-623.66 0l-.2-.03ZM512 460.521a758.673 758.673 0 0 0-311.85 66.48v56.15h65v-32.39a26.5 26.5 0 1 1 53 0v32.42h57.22v-44.95a26.5 26.5 0 1 1 53 0v45h57.22v-51.86a26.473 26.473 0 0 1 26.47-26.47 26.468 26.468 0 0 1 26.47 26.47v51.85h57.22v-45a26.5 26.5 0 1 1 53 0v44.95h57.22v-32.41a26.473 26.473 0 0 1 26.47-26.47 26.468 26.468 0 0 1 26.47 26.47v32.44h65v-56.2A758.594 758.594 0 0 0 512 460.451v.07Z" fill="#fff"/></g><defs><clipPath id="a"><path fill="#fff" d="M0 0h1024v1024H0z"/></clipPath></defs></svg>