<svg width="1024" height="1024" fill="none" xmlns="http://www.w3.org/2000/svg"><g clip-path="url(#a)"><path d="M512 1024c282.77 0 512-229.23 512-512S794.77 0 512 0 0 229.23 0 512s229.23 512 512 512Z" fill="#9ABEFF"/><path d="M296 512V296h432v432H296V512Zm377.73 0V350.27H350.27v323.46h323.46V512ZM376.87 646.95c-.08-.19-.11-24.6-.08-54.22l.08-53.87h54.27l.08 26.92.05 26.95 26.95.05 26.92.08v54.27l-54.08.08c-43.12.06-54.11.01-54.19-.26Zm162 0c-.08-.19-.11-12.45-.08-27.22l.08-26.87 26.92-.08 26.95-.05.05-26.95.08-26.92h54.27v108.28l-54.08.08c-43.13.05-54.11 0-54.19-.27Zm-81-81c-.08-.19-.11-24.6-.08-54.22l.08-53.87h108.27v108.28l-54.08.08c-43.12.05-54.11 0-54.19-.27Zm-81-81c-.08-.19-.11-24.6-.08-54.22l.08-53.87h108.27v54.27l-26.92.08-26.95.05-.05 26.95-.08 26.92-27.08.08c-21.52.06-27.11.01-27.19-.26Zm216.05.13c-.11-.08-.19-12.23-.19-27v-26.81l-26.92-.05-26.95-.08v-54.27h108.28v108.27l-27 .08c-14.88.02-27.14-.03-27.22-.14Z" fill="#fff"/></g><defs><clipPath id="a"><path fill="#fff" d="M0 0h1024v1024H0z"/></clipPath></defs></svg>