<svg width="1024" height="1024" fill="none" xmlns="http://www.w3.org/2000/svg"><g clip-path="url(#a)"><path d="M512 1024c282.77 0 512-229.23 512-512S794.77 0 512 0 0 229.23 0 512s229.23 512 512 512Z" fill="#728DBE"/><path d="M462.17 714.55a13.634 13.634 0 0 1-12.66 7.82h-164.9a14.154 14.154 0 0 1-12.004-6.731A14.147 14.147 0 0 1 272 701.89l118.37-236.77a13.734 13.734 0 0 1 10.969-7.855 13.742 13.742 0 0 1 12.401 5.315c62.44 66.7 84 178.42 48.43 251.97Zm38.43-467.32a312.31 312.31 0 0 0-18.23 308.32l79.5 159a14.15 14.15 0 0 0 12.66 7.82h164.86a14.15 14.15 0 0 0 12.66-20.48s-221.8-443.66-227.37-454.75a13.364 13.364 0 0 0-19.158-5.432 13.368 13.368 0 0 0-4.912 5.522h-.01Z" fill="#fff"/></g><defs><clipPath id="a"><path fill="#fff" d="M0 0h1024v1024H0z"/></clipPath></defs></svg>