<svg width="1024" height="1024" fill="none" xmlns="http://www.w3.org/2000/svg"><g clip-path="url(#a)"><path d="M512 1024c282.77 0 512-229.23 512-512S794.77 0 512 0 0 229.23 0 512s229.23 512 512 512Z" fill="#F8C18C"/><path d="M742.32 379.81h.09a83.884 83.884 0 0 0-13.9-37.66A85.102 85.102 0 0 0 677 306.66a6.833 6.833 0 0 0-.76-.17 85.054 85.054 0 0 0-18.45-2H413c-2.14 0-4.26.11-6.38.27h-.17l-.84.1c-1.51.13-3 .3-4.52.51l-1.16.18a90.631 90.631 0 0 0-4.43.81l-.58.11c-.651.116-1.295.266-1.93.45-.76.18-1.51.39-2.27.6-.56.15-1.12.28-1.68.44-.3.09-.6.2-.9.29-.77.23-1.52.49-2.28.74-1 .33-2 .67-2.95 1-.54.21-1.08.43-1.62.64-.74.3-1.49.57-2.23.89l-2.23 1a70.734 70.734 0 0 0-6.82 3.6c-1.19.68-2.47 1.49-3.48 2.14-1.01.65-2 1.31-3 2-.62.45-1.21.94-1.82 1.41-.77.58-1.54 1.16-2.29 1.77-.75.61-1.75 1.45-2.6 2.2-.513.454-1.023.914-1.53 1.38-.62.57-1.28 1.11-1.88 1.7-.507.457-.978.952-1.41 1.48-.89.89-1.7 1.79-2.56 2.77-.86.98-1.88 2.08-2.56 3-.68.92-1.25 1.61-2.08 2.71-.83 1.1-1.64 2.23-2.41 3.33v.15a78.9 78.9 0 0 0-2.21 3.5c-.69 1.14-1.35 2.31-2 3.48a84.226 84.226 0 0 0-5.73 13.1c-.19.52-.35 1-.54 1.61v.16a81.996 81.996 0 0 0-1.18 4.15l-.05.19c-.47 1.85-.9 3.72-1.25 5.6-.35 1.9-.65 3.82-.87 5.75a81.474 81.474 0 0 0-.57 9.8v99.92c-.79-1.13-1.6-2.26-2.44-3.39-13.28-18-33.2-36.12-55.26-36.12A69.168 69.168 0 0 0 209.43 486c-25.25 44 9.57 103.29 60.77 102 39.54 0 72.17-58.71 72.17-69.1 0-3.85-4.5-14.34-12.16-26h139.2v-82.75h27.87v34.27h19v-34.28h30.37v20.16h19v-20.16h35.88V557.4h-273.6v77.17a85.206 85.206 0 0 0 25 60.085 85.206 85.206 0 0 0 60.12 24.915h36.12v-83.38H621.7v83.37h36.06a85.207 85.207 0 0 0 85.21-85V389.57a81.893 81.893 0 0 0-.65-9.76ZM241.67 486c14.26-12.25 34.88-15.78 49.92.06a120.655 120.655 0 0 1 24.56 32.69C271.77 611.53 194 532.48 241.67 486Z" fill="#fff"/></g><defs><clipPath id="a"><path fill="#fff" d="M0 0h1024v1024H0z"/></clipPath></defs></svg>