<svg width="1024" height="1024" fill="none" xmlns="http://www.w3.org/2000/svg"><g clip-path="url(#a)"><path d="M512 1024c282.77 0 512-229.23 512-512S794.77 0 512 0 0 229.23 0 512s229.23 512 512 512Z" fill="#56595B"/><path d="m681.88 280 52.93 164.08H564.56l-52.49-162.71-52.49 162.71H289.33l52-164.08h340.55Zm52.93 164.08L597.2 542l52.93 165c88.21-64.43 117.32-162.35 84.68-262.92ZM374 707l52.93-165-137.6-97.92C256.69 544.65 284.91 642.57 374 707Zm275.23 0-137.6-99.72L374 707l137.62 97 137.61-97Z" fill="#fff"/></g><defs><clipPath id="a"><path fill="#fff" d="M0 0h1024v1024H0z"/></clipPath></defs></svg>