<svg width="1024" height="1024" viewBox="0 0 1024 1024" fill="none" xmlns="http://www.w3.org/2000/svg">
<g clip-path="url(#clip0_2_1539)">
<path d="M512 1024C794.77 1024 1024 794.77 1024 512C1024 229.23 794.77 0 512 0C229.23 0 0 229.23 0 512C0 794.77 229.23 1024 512 1024Z" fill="#56595B"/>
<path d="M568.73 316.73L256 511.12V667.27H258.7L572.27 472H735C736.265 471.995 737.518 472.24 738.688 472.722C739.857 473.203 740.92 473.912 741.814 474.806C742.708 475.7 743.417 476.763 743.898 477.933C744.38 479.102 744.625 480.355 744.62 481.62C744.62 486.21 742.53 488.1 740.03 489.56L586.05 582C576.05 588.06 572.47 600 572.47 609L572.25 667.32H768V328.86C768.005 327.232 767.681 325.619 767.048 324.119C766.415 322.619 765.486 321.262 764.316 320.129C763.146 318.996 761.76 318.112 760.24 317.528C758.72 316.944 757.097 316.672 755.47 316.73H568.73Z" fill="white"/>
</g>
<defs>
<clipPath id="clip0_2_1539">
<rect width="1024" height="1024" fill="white"/>
</clipPath>
</defs>
</svg>
