<svg width="1024" height="1024" fill="none" xmlns="http://www.w3.org/2000/svg"><g clip-path="url(#a)"><path d="M512 1024c282.77 0 512-229.23 512-512S794.77 0 512 0 0 229.23 0 512s229.23 512 512 512Z" fill="#F8C18C"/><path d="M475.63 319.801a64.593 64.593 0 0 1 77.948 3.758 64.596 64.596 0 0 1 16.942 21.932l149.4 315.84A254.813 254.813 0 0 0 768 513.861c1-141.4-112.81-256.86-254.22-257.86S257 368.811 256 510.221a254.521 254.521 0 0 0 47.42 150.08l6-1.35 97.49-21.48a2.47 2.47 0 0 1 1.78 4.53L328 689.851a255.783 255.783 0 0 0 194.156 77.948 255.778 255.778 0 0 0 187.384-93.058l-244.28-257.17a64.623 64.623 0 0 1-8.602-77.568 64.61 64.61 0 0 1 18.972-20.202Zm45.85 290.35-157.33 13.63a27.754 27.754 0 0 1-11.771-1.598 27.775 27.775 0 0 1-18.163-28.106 27.77 27.77 0 0 1 33.934-25.036l153.69 36.22a2.487 2.487 0 0 1 1.172 4.148c-.408.419-.95.682-1.532.742Zm-72.81-138.29 190.74 154.3a2.47 2.47 0 0 1-2.45 4.21l-229.41-87a41.807 41.807 0 0 1-24.6-25.001 41.801 41.801 0 0 1 65.71-46.549l.01.04Z" fill="#fff"/></g><defs><clipPath id="a"><path fill="#fff" d="M0 0h1024v1024H0z"/></clipPath></defs></svg>