<svg width="1024" height="1024" fill="none" xmlns="http://www.w3.org/2000/svg"><g clip-path="url(#a)"><path d="M512 1024c282.77 0 512-229.23 512-512S794.77 0 512 0 0 229.23 0 512s229.23 512 512 512Z" fill="#9ABEFF"/><path d="M729.08 730.5a33.881 33.881 0 0 0 32.13-44.76L623.89 279.07A33.884 33.884 0 0 0 591.81 256H432.17a33.875 33.875 0 0 0-32.09 23.07L262.8 685.76a33.883 33.883 0 0 0 16.645 41.013 33.878 33.878 0 0 0 15.485 3.727h99.16a33.88 33.88 0 0 0 32.11-23.07l20.44-60.49 103.46 76.87a33.85 33.85 0 0 0 20.21 6.69M505.8 468.4 581.6 693a11.297 11.297 0 0 1-1.513 10.19 11.283 11.283 0 0 1-9.157 4.72h-.63a11.29 11.29 0 0 1-6.74-2.22L369.32 561.38h101.51m132 146.54a33.543 33.543 0 0 0 .15-22.13L465.77 279.07l-.15-.42h126.21a11.29 11.29 0 0 1 10.71 7.66L739.79 693a11.29 11.29 0 0 1-7.07 14.31" fill="#fff"/></g><defs><clipPath id="a"><path fill="#fff" d="M0 0h1024v1024H0z"/></clipPath></defs></svg>