<svg width="1024" height="1024" fill="none" xmlns="http://www.w3.org/2000/svg"><g clip-path="url(#a)"><path d="M512 1024c282.77 0 512-229.23 512-512S794.77 0 512 0 0 229.23 0 512s229.23 512 512 512Z" fill="#54688C"/><path d="M176.6 556.69a35.854 35.854 0 0 1-19.6-5.32 31.475 31.475 0 0 1-12.19-15.2V554H128V443h21.18v41.81a30.304 30.304 0 0 1 11.88-11.86 34.472 34.472 0 0 1 16.91-4.1 35.48 35.48 0 0 1 20 5.62 36.839 36.839 0 0 1 13.26 15.05 46.851 46.851 0 0 1 4.72 21.29V514a47.858 47.858 0 0 1-4.95 21.71 39.312 39.312 0 0 1-13.71 15.36c-5.767 3.746-12.663 5.62-20.69 5.62Zm-4.72-17.79c6.807 0 12.293-2.434 16.46-7.3 4.267-4.967 6.4-11.354 6.4-19.16 0-7.807-2.133-14.037-6.4-18.69-4.167-4.754-9.653-7.134-16.46-7.14a23.934 23.934 0 0 0-11.57 2.88 21 21 0 0 0-8.54 8.06 23.517 23.517 0 0 0-3.21 12.61v6.08a22.143 22.143 0 0 0 3.36 12.32 22.793 22.793 0 0 0 8.68 7.75 25.457 25.457 0 0 0 11.28 2.59ZM258 556.08c-9.14 0-16.45-2.334-21.93-7-5.48-4.667-8.17-11.2-8.07-19.6 0-9.02 3.25-15.66 9.75-19.92 6.607-4.354 15.443-6.534 26.51-6.54h16.91v-.76c0-9.427-4.773-14.14-14.32-14.14-6.667.04-13.333.243-20 .61-3.56.106-6.76.26-9.6.46v-17.94a356.164 356.164 0 0 1 25.75-1.07c12.667 0 22.213 2.586 28.64 7.76 6.507 5.066 9.757 13.326 9.75 24.78V554h-16.73v-15.86c-3.773 11.966-12.66 17.946-26.66 17.94Zm5.93-15.08c2.767.014 5.51-.505 8.08-1.53a14.073 14.073 0 0 0 6.24-5.47c1.727-2.667 2.693-6.214 2.9-10.64v-7.76h-17.21c-4.88 0-8.64 1.216-11.28 3.65a11.793 11.793 0 0 0-3.81 9.12 11.993 11.993 0 0 0 3.81 9.27c2.65 2.23 6.4 3.34 11.27 3.34v.02Zm96.89 15.81a44.494 44.494 0 0 1-18.74-3.65 37.485 37.485 0 0 1-13.1-9.73 41.624 41.624 0 0 1-7.78-13.68 47.783 47.783 0 0 1-2.59-15.5v-2.89a48.657 48.657 0 0 1 2.59-15.81 43.49 43.49 0 0 1 7.92-13.83 37.8 37.8 0 0 1 13.1-9.58 43.704 43.704 0 0 1 18.44-3.65 41.828 41.828 0 0 1 19.2 4.26 33.524 33.524 0 0 1 13.56 11.56 34.395 34.395 0 0 1 5.94 17.33H378.8a17.487 17.487 0 0 0-5.49-10.64c-3.053-2.84-7.27-4.26-12.65-4.26-7.107 0-12.387 2.433-15.84 7.3-3.453 4.866-5.12 11.1-5 18.7 0 7.393 1.627 13.573 4.88 18.54 3.333 4.866 8.713 7.3 16.14 7.3 5.493 0 9.827-1.42 13-4.26a17.264 17.264 0 0 0 5.78-11.1h20.57a33.56 33.56 0 0 1-5.94 17.63 35.12 35.12 0 0 1-13.87 11.87 45.142 45.142 0 0 1-19.5 4.1l-.06-.01Zm56.27-2.81V443h21.18v68.26l31.84-39.83h22.09L464 506.52 498.9 554H475l-27.73-38.61h-9V554h-21.18Zm87.79-23v-23.41l43.57-67.66 16.3 11.1-38.39 59.9 1.83 3h34.89v-39.49h20V514h13.41v17H583v23h-20v-23h-58.12Zm130.58 25.08c-9.14 0-16.453-2.334-21.94-7-5.38-4.667-8.07-11.204-8.07-19.61 0-9.02 3.25-15.66 9.75-19.92 6.5-4.26 15.337-6.444 26.51-6.55h16.91v-.76c0-9.427-4.777-14.14-14.33-14.14-6.667.04-13.333.243-20 .61-3.553.106-6.753.26-9.6.46v-17.92c3.453-.3 7.567-.554 12.34-.76 4.88-.2 9.35-.304 13.41-.31 12.667 0 22.213 2.586 28.64 7.76 6.5 5.066 9.75 13.326 9.75 24.78V554h-16.71v-15.86c-3.76 11.966-12.647 17.946-26.66 17.94ZM641.4 541c2.767.014 5.51-.506 8.08-1.53a14.073 14.073 0 0 0 6.24-5.47c1.727-2.667 2.693-6.214 2.9-10.64v-7.76H641.4c-4.88 0-8.637 1.216-11.27 3.65a11.773 11.773 0 0 0-3.81 9.12 11.993 11.993 0 0 0 3.81 9.27c2.667 2.226 6.423 3.34 11.27 3.34v.02Zm60.16 43.33v-113h16.76V492c2.533-7.7 6.697-13.477 12.49-17.33a34.526 34.526 0 0 1 20-5.92c7.827 0 14.58 1.873 20.26 5.62a38.58 38.58 0 0 1 13.56 15.2 45.602 45.602 0 0 1 4.88 21.29v3.19a48.772 48.772 0 0 1-4.72 21.59A38.574 38.574 0 0 1 771.38 551c-5.78 3.746-12.637 5.62-20.57 5.62a39.635 39.635 0 0 1-16-3.19 28.455 28.455 0 0 1-12-10.49v41.35l-21.25.04Zm43.88-45.46c6.807 0 12.29-2.434 16.45-7.3 4.273-4.967 6.407-11.3 6.4-19 0-7.807-2.133-14.09-6.4-18.85-4.16-4.76-9.643-7.14-16.45-7.14a23.986 23.986 0 0 0-11.58 2.88 20.995 20.995 0 0 0-8.53 8.06 23.517 23.517 0 0 0-3.21 12.61v6.08a22.13 22.13 0 0 0 3.35 12.32 22.86 22.86 0 0 0 8.69 7.75 25.474 25.474 0 0 0 11.28 2.62v-.03Zm62.65 45.46v-113h16.76V492c2.533-7.7 6.697-13.477 12.49-17.33a34.557 34.557 0 0 1 20-5.92c7.827 0 14.58 1.873 20.26 5.62a38.551 38.551 0 0 1 13.56 15.2 45.592 45.592 0 0 1 4.84 21.36v3.19a48.772 48.772 0 0 1-4.72 21.59 38.574 38.574 0 0 1-13.41 15.36c-5.793 3.746-12.65 5.62-20.57 5.62a39.568 39.568 0 0 1-16-3.19 28.493 28.493 0 0 1-12-10.49v41.35h-21.2l-.01-.03ZM852 538.9c6.807 0 12.29-2.434 16.45-7.3 4.273-4.967 6.407-11.3 6.4-19 0-7.807-2.133-14.09-6.4-18.85-4.16-4.76-9.643-7.14-16.45-7.14a23.986 23.986 0 0 0-11.58 2.88 20.995 20.995 0 0 0-8.53 8.06 23.517 23.517 0 0 0-3.21 12.61v6.08a22.14 22.14 0 0 0 3.32 12.33 22.793 22.793 0 0 0 8.68 7.75A25.44 25.44 0 0 0 852 538.9Z" fill="#F9F9F9"/></g><defs><clipPath id="a"><path fill="#fff" d="M0 0h1024v1024H0z"/></clipPath></defs></svg>