<svg width="1024" height="1024" fill="none" xmlns="http://www.w3.org/2000/svg"><g clip-path="url(#a)"><path d="M512 1024c282.77 0 512-229.23 512-512S794.77 0 512 0 0 229.23 0 512s229.23 512 512 512Z" fill="#FF837D"/><path d="M450.77 205.551s85.35 74.82 73.92 141c-5.15 29.87-44.43 78.25-23.22 124.55 22.85 49.88 34.72 146.13-68.1 121.26-101.37-24.3-93.56-148.7-18.22-214.03 75.34-65.33 50.55-139.56 35.62-172.78Zm77.88 224.45c-5.67 50.48 50.18 100.8 5.75 169.2-30.4 47.34 16.6 113.94 77.28 101.8 66.31-13.22 83-55.18 81.24-103.94-2.31-61.9-27-79.15-81.69-125.59-59.44-50.18-13.66-145.38-13.66-145.38s-62.35 48.36-68.92 103.91Zm-178.16 221.31c11.87 33.3 30.24 86.69 102.89 113.79 61.15 22.92 146.8 27 196.15-36.29 11.35-14.19-3.58-8.66-18.52-3a119.467 119.467 0 0 1-111.47-21.41c-42-35-25.61-74.22-46.67-74.67-69.44-1.49-105.66-28.6-124.4-51.67-4.25-5.44-10.82 37.34 2.02 73.25Z" fill="#fff"/></g><defs><clipPath id="a"><path fill="#fff" d="M0 0h1024v1024H0z"/></clipPath></defs></svg>