<svg width="1024" height="1024" fill="none" xmlns="http://www.w3.org/2000/svg"><g clip-path="url(#a)"><path d="M512 1024c282.77 0 512-229.23 512-512S794.77 0 512 0 0 229.23 0 512s229.23 512 512 512Z" fill="#9ABEFF"/><path d="M343.5 522.14a22.293 22.293 0 0 0 3.95-2v7.72a16.833 16.833 0 0 1-5.84 14.36 20.994 20.994 0 0 1-12.3 3.94 11 11 0 0 1-7.15-2.37 9.324 9.324 0 0 1-2.94-7.69 9.53 9.53 0 0 1 4.82-8.82 30.035 30.035 0 0 1 9.36-2.84l4.63-.87a32.7 32.7 0 0 0 5.47-1.43Zm-78.21-8.83a26.13 26.13 0 0 0-10.52-1.82h-25.92v28.66h25.59c3.653.177 7.3-.469 10.67-1.89a13.595 13.595 0 0 0 6.89-13.44 11.573 11.573 0 0 0-6.71-11.52v.01Zm321.43-19h-1.22a16.008 16.008 0 0 0-12.15 4.54 21.792 21.792 0 0 0-5.43 12.31H603a16.565 16.565 0 0 0-4.647-11.802 16.573 16.573 0 0 0-11.633-5.058v.01ZM896 505.49c0 60.367-21.807 101.204-65.42 122.51-24.06 11.54-57.667 17.31-100.82 17.31H128V383.65h605.08c42.727.46 75.893 6.007 99.5 16.64 42.28 19.1 63.42 54.167 63.42 105.2Zm-601.78 20.89a28.918 28.918 0 0 0-4.13-15.76 23.534 23.534 0 0 0-12.17-9.48 25.204 25.204 0 0 0 8-6.12 24.267 24.267 0 0 0 4.88-15.84 27.738 27.738 0 0 0-4.8-16.41 32 32 0 0 0-27.29-11.44h-50.86v107.5h47.44a71.503 71.503 0 0 0 14.88-1.46c4.329-.862 8.4-2.71 11.9-5.4a29.415 29.415 0 0 0 7.46-8.46 31.91 31.91 0 0 0 4.69-17.13Zm77.87 29.31a7.293 7.293 0 0 1-3-2.4 11.747 11.747 0 0 1-1.21-5.51c-.093-3.593-.14-6.656-.14-9.19v-36.46a19.996 19.996 0 0 0-10-19.54 48.803 48.803 0 0 0-22.81-5.18c-13.153 0-22.433 3.5-27.84 10.5a30.805 30.805 0 0 0-5.73 17.09H321a15.225 15.225 0 0 1 2.9-7.29 12.834 12.834 0 0 1 10.33-3.64 20.9 20.9 0 0 1 9.89 1.86 7 7 0 0 1 3.37 6.74 6.24 6.24 0 0 1-4.39 5.91 31.673 31.673 0 0 1-8.13 1.82l-7 .88a49.105 49.105 0 0 0-18 5.1 22.721 22.721 0 0 0-11.17 21.18 22.124 22.124 0 0 0 6.93 17.46 25.474 25.474 0 0 0 17.57 6.16 29.046 29.046 0 0 0 14.94-3.86 42.197 42.197 0 0 0 9.77-7.95c.14 1.807.33 3.414.57 4.82.278 1.546.71 3.061 1.29 4.52h22.15l.07-3.02ZM423 477.55c-.9 0-1.49-.11-1.75-.11h-1a22.001 22.001 0 0 0-14.86 4.88 43.778 43.778 0 0 0-8.22 10.87V479.3h-19.38v79.49h20.47v-38a32.362 32.362 0 0 1 2.35-14.15 16.795 16.795 0 0 1 16.53-8.17c.813 0 1.623.024 2.43.07 1.007.054 2.153.154 3.44.3l-.01-21.29Zm118.4 31.13a72.145 72.145 0 0 0-.69-11.74 23.097 23.097 0 0 0-4.43-10.21 22.727 22.727 0 0 0-9.08-7.15 26.652 26.652 0 0 0-10.14-2.07 29.793 29.793 0 0 0-14 3.28 26.173 26.173 0 0 0-9.93 10.28 23.371 23.371 0 0 0-6.71-9.55 27.793 27.793 0 0 0-29.79.69 33.266 33.266 0 0 0-7.14 8.82v-11.6h-19.8v79.34h20.66v-47.82a22.588 22.588 0 0 1 1.64-9.77 12.003 12.003 0 0 1 11.71-5.76 10.004 10.004 0 0 1 10.07 5.76 27.096 27.096 0 0 1 1.43 10.28v47.35h20.5v-47.32a22.846 22.846 0 0 1 1.64-9.12 11.714 11.714 0 0 1 11.66-7.14 10.107 10.107 0 0 1 10 5.51 16.917 16.917 0 0 1 1.43 7.44v50.61h20.86l.11-50.11Zm26 16.2h56.71a103.62 103.62 0 0 0-.69-15.77 39.544 39.544 0 0 0-6.2-16.43 31.872 31.872 0 0 0-13.46-11.76 43.593 43.593 0 0 0-18.31-3.73 37.137 37.137 0 0 0-27.85 11 43.571 43.571 0 0 0-10.73 31.68c0 14.667 3.96 25.274 11.88 31.82a41.908 41.908 0 0 0 27.43 9.78 37.448 37.448 0 0 0 29.29-11.59 26.164 26.164 0 0 0 7.57-14.36h-20.75a17.372 17.372 0 0 1-4.19 5.48 16.994 16.994 0 0 1-11.31 3.64 20.34 20.34 0 0 1-11.22-3 19.194 19.194 0 0 1-8.14-16.76h-.03Zm133.3-19.62a26.592 26.592 0 0 0-7.65-21.4 29.453 29.453 0 0 0-19.67-6.45 25.275 25.275 0 0 0-15.84 4.82 35.011 35.011 0 0 0-7.4 8.82v-11.6h-19.75v79.31h20.36v-43a31.604 31.604 0 0 1 2-12.11 14.052 14.052 0 0 1 14.12-9 11.413 11.413 0 0 1 11.35 6.13 22.647 22.647 0 0 1 1.63 9.64v48.35h20.85v-53.51Zm29.13-26h-20.65v79.48h20.66l-.01-79.48Zm0-28.66h-20.65v19.18h20.66l-.01-19.18Zm80.72 105a7.273 7.273 0 0 1-3-2.4 11.739 11.739 0 0 1-1.22-5.51c-.093-3.593-.14-6.656-.14-9.19v-36.37a19.996 19.996 0 0 0-10-19.54 48.803 48.803 0 0 0-22.81-5.18c-13.153 0-22.433 3.5-27.84 10.5a30.805 30.805 0 0 0-5.71 17.09h19.65a15.225 15.225 0 0 1 2.9-7.29 12.834 12.834 0 0 1 10.33-3.64 20.9 20.9 0 0 1 9.89 1.86 7 7 0 0 1 3.37 6.74 6.24 6.24 0 0 1-4.39 5.91 31.673 31.673 0 0 1-8.13 1.82l-7 .88a49.11 49.11 0 0 0-18 5.05 22.724 22.724 0 0 0-11.16 21.22 22.124 22.124 0 0 0 6.93 17.46 25.474 25.474 0 0 0 17.57 6.16 29.046 29.046 0 0 0 14.94-3.86 42.197 42.197 0 0 0 9.77-7.95c.14 1.807.33 3.414.57 4.82a23.33 23.33 0 0 0 1.29 4.52h22.15l.04-3.1Zm-34.09-32.13-4.63.87a30.035 30.035 0 0 0-9.36 2.84 9.524 9.524 0 0 0-4.82 8.82 9.314 9.314 0 0 0 2.94 7.69 11 11 0 0 0 7.15 2.37 20.99 20.99 0 0 0 12.26-3.84 16.82 16.82 0 0 0 5.84-14.36v-7.72a22.328 22.328 0 0 1-3.95 2 32.621 32.621 0 0 1-5.42 1.42l-.01-.09ZM265.57 491a10.226 10.226 0 0 0 4.28-9.44 9.64 9.64 0 0 0-5.66-9.92 38.968 38.968 0 0 0-12.44-1.64h-22.9v23.69h25.59a20.786 20.786 0 0 0 11.13-2.69Z" fill="#fff"/></g><defs><clipPath id="a"><path fill="#fff" d="M0 0h1024v1024H0z"/></clipPath></defs></svg>