<svg width="1024" height="1024" fill="none" xmlns="http://www.w3.org/2000/svg"><g clip-path="url(#a)"><path d="M512 1024c282.77 0 512-229.23 512-512S794.77 0 512 0 0 229.23 0 512s229.23 512 512 512Z" fill="#9ABEFF"/><path d="M660.17 432.929c-64.78-30-158-49-245.64-41.91 4.35-29 15.28-49.25 33-53.52 24.5-5.89 51.21 10.24 76.65 39.52 16.64 2.13 36.45 6 50.27 9.13-46.45-87.31-108.71-136.22-156.08-118.15-36 13.74-54.45 63.33-52.24 130-46.94 10-83.56 27.74-107 53.26-1.19 1.37-3.84 4.87-2.9 6.49.77 1.28 3.07-.17 4.18-.85 27.14-19 62-29.28 107.29-35.76 6.49 71.1 36.53 161.31 86.55 233.69-27.31 10.75-50.27 11.44-62.82-1.88-17.33-18.27-16.73-49.5-4.1-86.21-6.49-15.53-13.06-34.57-17.16-48.05-52.58 83.9-63.84 162.34-24.5 194.35 30 24.33 82.11 15.53 138.7-19.72 32.09 35.68 65.81 58.47 99.61 66 1.79.34 6.15.94 7.08-.68.77-1.28-1.71-2.65-2.82-3.16-30-14-56.33-39-84.58-75 58.34-41.17 121.43-112.35 159.07-191.82 23 18.35 35 37.81 29.79 55.39-7.17 24.15-34.48 39.26-72.63 46.6-10.24 13.4-23.39 28.59-33 38.92 98.84 3.41 172.41-26 180.43-76 6.15-38.07-27.65-78.87-86.46-110.27 14.85-45.66 17.75-86.21 7.34-119.24-.6-1.71-2.22-5.8-4.18-5.8-1.45 0-1.45 2.82-1.37 4 3.07 32.95-5.38 68.28-22.45 110.7l-.03-.03Zm-182.06 210.56c-41.82-67.09-65.89-146.12-65.81-226 79-2.65 159.52 16 228.66 56.08-37.21 69.72-93.54 130.15-162.85 169.92Z" fill="#fff"/></g><defs><clipPath id="a"><path fill="#fff" d="M0 0h1024v1024H0z"/></clipPath></defs></svg>