<svg width="1024" height="1024" viewBox="0 0 1024 1024" fill="none" xmlns="http://www.w3.org/2000/svg">
<g clip-path="url(#clip0_2_1581)">
<path d="M512 1024C794.77 1024 1024 794.77 1024 512C1024 229.23 794.77 0 512 0C229.23 0 0 229.23 0 512C0 794.77 229.23 1024 512 1024Z" fill="#56595B"/>
<path d="M163.5 504.4H207.3V459H163.5V504.4ZM397.6 504.6V487.5H410.2V464.5H438.6V487.5H453.8V505.3H438.6V531.7C438.6 538.7 440.2 541.7 447.3 541.7C449.5 541.7 451.6 541.6 453.8 541.3V563.2C448.1 563.2 441.6 564.1 435.6 564.1C423.6 564.1 410.2 562.2 410.2 541.5V505.4H397.9C401.3 512.5 403 521.4 403 531.9H348.5C349.2 540.5 354.1 546.6 363 546.6C367.6 546.6 372.6 544.9 374.9 541.2H401.4C395.7 557.5 380 565.1 363.1 565.1C339.3 565.1 321.4 550.8 321.4 525.6C321.4 503.6 337.2 485.7 360.7 485.7C379.4 485.6 391.3 492.3 397.6 504.6ZM178.9 488.4V475H191.8V488.4H178.9ZM224.6 563.1V459.1H280.6C307.6 459.1 313.3 474.5 313.3 485.2C313.3 495.7 308.3 501.4 300.7 505.6C309.9 508.8 318.5 516.2 318.5 531.5C318.5 552.3 300.7 563.1 282.7 563.1H224.6ZM256.1 483.9V499.6H272.7C279.3 499.6 283.4 497.7 283.4 491C283.4 485.7 279.1 483.9 272.7 483.9H256.1ZM256.1 519V538.4H274.6C281.2 538.4 286.9 536.5 286.9 528.5C286.9 522.4 283.3 519 275.9 519H256.1ZM348.7 516.8H375.8C375.8 509.8 370.6 504.1 363.3 504.1C354.8 504.1 350 508.6 348.7 516.8ZM458.5 563.1V459.1H486.9V495.6H487.2C492.1 489.8 498.4 485.6 510.4 485.6C523.7 485.6 535.9 493.9 535.9 511.2V563H507.5V523.4C507.5 514.7 506.5 508.5 498.2 508.5C493.3 508.5 486.9 511 486.9 523.1V563H458.5V563.1ZM621.1 531.8H566.6C567.3 540.4 572.2 546.5 581.1 546.5C585.7 546.5 590.7 543.4 593 539.7H619.5C613.8 556 598.1 565 581.2 565C557.4 565 539.5 550.7 539.5 525.5C539.5 503.5 555.3 485.6 578.8 485.6C608.4 485.6 621.1 502.4 621.1 531.8ZM566.8 516.8H593.9C593.9 509.8 588.8 504.1 581.4 504.1C573 504.1 568.1 508.6 566.8 516.8ZM692.6 509.5H666.8C666.6 507 665.4 505.1 663.5 503.8C661.8 502.3 659.5 501.6 657.2 501.6C653.2 501.6 648.6 502.5 648.6 507.4C648.6 509.6 650.3 510.6 651.9 511.3C656.6 513.3 667.4 513.9 676.8 517.1C686.3 520.2 694.6 525.8 694.6 538.2C694.6 559.2 674.8 564.8 656.7 564.8C639.2 564.8 620 559 619.6 539.5H646.7C646.8 542.1 648 542.9 650.1 544.8C651.5 546.1 654.3 547 657.7 547C661.4 547 667.3 545.5 667.3 541.2C667.3 536.8 664.9 535.5 651.7 533.2C630.1 529.4 621.3 522.4 621.3 509.5C621.3 490.4 641.5 485.5 656.4 485.5C672.5 485.6 691.9 490.1 692.6 509.5ZM776.2 459.1V563.1H748.8V554.8H748.5C744.9 559.6 740.6 565 726.7 565C705.6 565 695.5 543.9 695.5 524.9C695.5 507.1 702.2 485.6 727.2 485.6C735.6 485.6 743.3 489.4 747.6 495.8H747.9V459.1H776.2ZM857.1 515.2V546.2C857.1 551.9 857.4 558.3 860.5 563.1H831.5C830.8 561.1 830.3 558 830.5 556H830.2C824.2 563 815.4 565 806.3 565C792 565 780.1 558 780.1 542.1C780.1 518.2 807.6 519.1 822.1 516.3C826 515.6 829.8 514.4 829.8 509.6C829.8 504.5 825.1 502.6 820.5 502.6C811.8 502.6 810 507.1 809.9 510.3H783.5C784.4 489 804.1 485.6 821.8 485.6C857.3 485.6 857.1 500.6 857.1 515.2ZM748.9 525.2C748.9 516.3 746.6 506.6 736.4 506.6C726.2 506.6 723.9 516.4 723.9 525.2C723.9 534.2 726.2 544 736.4 544C746.6 544 748.9 534.2 748.9 525.2ZM829.8 536.1V529.1C826.4 530.9 822.5 531.9 818.6 532.7C812.3 534.1 809 535.8 809 540.9C809 544.4 812.7 547.9 817.9 547.9C824.4 547.9 829.4 544 829.8 536.1ZM163.5 504.4H207.3V459H163.5V504.4ZM397.6 504.6V487.5H410.2V464.5H438.6V487.5H453.8V505.3H438.6V531.7C438.6 538.7 440.2 541.7 447.3 541.7C449.5 541.7 451.6 541.6 453.8 541.3V563.2C448.1 563.2 441.6 564.1 435.6 564.1C423.6 564.1 410.2 562.2 410.2 541.5V505.4H397.9C401.3 512.5 403 521.4 403 531.9H348.5C349.2 540.5 354.1 546.6 363 546.6C367.6 546.6 372.6 544.9 374.9 541.2H401.4C395.7 557.5 380 565.1 363.1 565.1C339.3 565.1 321.4 550.8 321.4 525.6C321.4 503.6 337.2 485.7 360.7 485.7C379.4 485.6 391.3 492.3 397.6 504.6ZM178.9 488.4V475H191.8V488.4H178.9ZM224.6 563.1V459.1H280.6C307.6 459.1 313.3 474.5 313.3 485.2C313.3 495.7 308.3 501.4 300.7 505.6C309.9 508.8 318.5 516.2 318.5 531.5C318.5 552.3 300.7 563.1 282.7 563.1H224.6ZM256.1 483.9V499.6H272.7C279.3 499.6 283.4 497.7 283.4 491C283.4 485.7 279.1 483.9 272.7 483.9H256.1ZM256.1 519V538.4H274.6C281.2 538.4 286.9 536.5 286.9 528.5C286.9 522.4 283.3 519 275.9 519H256.1ZM348.7 516.8H375.8C375.8 509.8 370.6 504.1 363.3 504.1C354.8 504.1 350 508.6 348.7 516.8ZM458.5 563.1V459.1H486.9V495.6H487.2C492.1 489.8 498.4 485.6 510.4 485.6C523.7 485.6 535.9 493.9 535.9 511.2V563H507.5V523.4C507.5 514.7 506.5 508.5 498.2 508.5C493.3 508.5 486.9 511 486.9 523.1V563H458.5V563.1ZM621.1 531.8H566.6C567.3 540.4 572.2 546.5 581.1 546.5C585.7 546.5 590.7 543.4 593 539.7H619.5C613.8 556 598.1 565 581.2 565C557.4 565 539.5 550.7 539.5 525.5C539.5 503.5 555.3 485.6 578.8 485.6C608.4 485.6 621.1 502.4 621.1 531.8ZM566.8 516.8H593.9C593.9 509.8 588.8 504.1 581.4 504.1C573 504.1 568.1 508.6 566.8 516.8ZM692.6 509.5H666.8C666.6 507 665.4 505.1 663.5 503.8C661.8 502.3 659.5 501.6 657.2 501.6C653.2 501.6 648.6 502.5 648.6 507.4C648.6 509.6 650.3 510.6 651.9 511.3C656.6 513.3 667.4 513.9 676.8 517.1C686.3 520.2 694.6 525.8 694.6 538.2C694.6 559.2 674.8 564.8 656.7 564.8C639.2 564.8 620 559 619.6 539.5H646.7C646.8 542.1 648 542.9 650.1 544.8C651.5 546.1 654.3 547 657.7 547C661.4 547 667.3 545.5 667.3 541.2C667.3 536.8 664.9 535.5 651.7 533.2C630.1 529.4 621.3 522.4 621.3 509.5C621.3 490.4 641.5 485.5 656.4 485.5C672.5 485.6 691.9 490.1 692.6 509.5ZM776.2 459.1V563.1H748.8V554.8H748.5C744.9 559.6 740.6 565 726.7 565C705.6 565 695.5 543.9 695.5 524.9C695.5 507.1 702.2 485.6 727.2 485.6C735.6 485.6 743.3 489.4 747.6 495.8H747.9V459.1H776.2ZM857.1 515.2V546.2C857.1 551.9 857.4 558.3 860.5 563.1H831.5C830.8 561.1 830.3 558 830.5 556H830.2C824.2 563 815.4 565 806.3 565C792 565 780.1 558 780.1 542.1C780.1 518.2 807.6 519.1 822.1 516.3C826 515.6 829.8 514.4 829.8 509.6C829.8 504.5 825.1 502.6 820.5 502.6C811.8 502.6 810 507.1 809.9 510.3H783.5C784.4 489 804.1 485.6 821.8 485.6C857.3 485.6 857.1 500.6 857.1 515.2ZM748.9 525.2C748.9 516.3 746.6 506.6 736.4 506.6C726.2 506.6 723.9 516.4 723.9 525.2C723.9 534.2 726.2 544 736.4 544C746.6 544 748.9 534.2 748.9 525.2ZM829.8 536.1V529.1C826.4 530.9 822.5 531.9 818.6 532.7C812.3 534.1 809 535.8 809 540.9C809 544.4 812.7 547.9 817.9 547.9C824.4 547.9 829.4 544 829.8 536.1Z" fill="white"/>
</g>
<defs>
<clipPath id="clip0_2_1581">
<rect width="1024" height="1024" fill="white"/>
</clipPath>
</defs>
</svg>
