<svg width="1024" height="1024" viewBox="0 0 1024 1024" fill="none" xmlns="http://www.w3.org/2000/svg">
<g clip-path="url(#clip0_2_1587)">
<path d="M512 1024C794.77 1024 1024 794.77 1024 512C1024 229.23 794.77 0 512 0C229.23 0 0 229.23 0 512C0 794.77 229.23 1024 512 1024Z" fill="#F9DE81"/>
<path d="M512 626.29L715.32 699C748.61 656.62 768 602.66 768 542.48C768 399.12 658 291 512 291C366 291 256 399.12 256 542.48C256 602.66 275.41 656.55 308.71 699L512 626.29Z" fill="white"/>
</g>
<defs>
<clipPath id="clip0_2_1587">
<rect width="1024" height="1024" fill="white"/>
</clipPath>
</defs>
</svg>
