<svg width="1024" height="1024" fill="none" xmlns="http://www.w3.org/2000/svg"><g clip-path="url(#a)"><path d="M512 1024c282.77 0 512-229.23 512-512S794.77 0 512 0 0 229.23 0 512s229.23 512 512 512Z" fill="#54688C"/><path d="M674.789 479.81h-164.31a42.94 42.94 0 0 0-42.94 42.94V725c0 40.43 50.77 58.45 76.26 27.08l164.31-202.25c22.8-28.06 2.83-70.02-33.32-70.02Zm-235.54 42.94v25.7h-92.4c-34.17 0-53-39.65-31.5-66.18l171.65-211.2c24.1-29.66 72.08-12.62 72.08 25.59v154.87h-48.6a71.31 71.31 0 0 0-71.23 71.22Z" fill="#fff"/></g><defs><clipPath id="a"><path fill="#fff" d="M0 0h1024v1024H0z"/></clipPath></defs></svg>