<svg width="1024" height="1024" fill="none" xmlns="http://www.w3.org/2000/svg"><g clip-path="url(#a)"><path d="M512 1024c282.77 0 512-229.23 512-512S794.77 0 512 0 0 229.23 0 512s229.23 512 512 512Z" fill="#F8C18C"/><path d="M342.63 405.71 512 236.34l169.42 169.43-62.3 62.3L512 360.95 404.93 468l-62.3-62.29ZM236.33 512l62.3 62.3 62.3-62.3-62.3-62.3-62.3 62.3Zm106.2 106.21.09.09L512 787.66l169.42-169.42-62.33-62.26L512 663.05 404.93 556l-62.4 62.21Zm382.84-168.49L663.07 512l62.3 62.3 62.3-62.3-62.3-62.28ZM575.19 512 512 448.75l-46.72 46.72-5.36 5.37-11.07 11.07-.09.09.09.09L512 575.25 575.22 512h-.03Z" fill="#fff"/></g><defs><clipPath id="a"><path fill="#fff" d="M0 0h1024v1024H0z"/></clipPath></defs></svg>