<svg width="1024" height="1024" viewBox="0 0 1024 1024" fill="none" xmlns="http://www.w3.org/2000/svg">
<g clip-path="url(#clip0_2_1596)">
<path d="M512 1024C794.77 1024 1024 794.77 1024 512C1024 229.23 794.77 0 512 0C229.23 0 0 229.23 0 512C0 794.77 229.23 1024 512 1024Z" fill="#728DBE"/>
<path d="M272 323.86H274.57C310.38 324.22 346.14 330.19 380.03 341.8C429.95 358.73 475.62 387.94 512 426.07C528.987 443.981 543.926 463.73 556.54 484.95C562.11 494.41 568.19 503.6 575.21 512.05C592.52 533.73 613.77 552.31 637.78 566.24C672.21 586.41 712.11 596.85 751.97 596.8C752.02 631.25 751.98 665.69 751.98 700.13C688.29 700.13 624.61 681.69 571.2 646.9C549.63 632.98 529.77 616.45 511.98 597.96C500.22 585.38 489.25 572.05 479.52 557.84C468.93 542.76 460.79 526.01 448.76 511.94C431.34 490.11 409.93 471.45 385.73 457.47C351.41 437.48 311.68 427.16 272 427.19V323.84V323.86ZM566.88 478.86C572.37 488.18 577.68 495.99 583.05 502.67C597.1 486.77 613.46 472.91 631.41 461.59C667.21 438.96 709.59 427.08 751.91 427.21C752.09 392.76 751.94 358.3 751.98 323.86H749.35C717.03 324.2 684.74 329.07 653.85 338.6C617.68 349.62 583.48 366.99 553.19 389.62C541.667 398.191 530.73 407.522 520.45 417.55C520.54 417.64 520.63 417.73 520.71 417.82C538.321 436.391 553.806 456.868 566.88 478.87V478.86ZM503.27 606.22L503.21 606.16C490.43 592.49 479.14 578.53 469.66 564.69C465.38 558.59 461.52 552.29 457.78 546.2C452.32 537.29 447.12 528.86 440.93 521.32C426.88 537.22 410.53 551.08 392.58 562.39C356.76 585.07 314.35 596.87 272 596.81V700.16C335.84 700.15 399.7 681.64 453.18 646.65C459.19 642.78 465.04 638.67 470.77 634.39C482.29 625.84 493.23 616.49 503.51 606.48C503.45 606.41 503.38 606.35 503.32 606.28L503.26 606.22H503.27Z" fill="white"/>
</g>
<defs>
<clipPath id="clip0_2_1596">
<rect width="1024" height="1024" fill="white"/>
</clipPath>
</defs>
</svg>
