<svg width="1024" height="1024" viewBox="0 0 1024 1024" fill="none" xmlns="http://www.w3.org/2000/svg">
<g clip-path="url(#clip0_2_1599)">
<path d="M512 1024C794.77 1024 1024 794.77 1024 512C1024 229.23 794.77 0 512 0C229.23 0 0 229.23 0 512C0 794.77 229.23 1024 512 1024Z" fill="#728DBE"/>
<path d="M634.53 274.61H389.49C326.15 274.61 274.62 326.14 274.62 389.48V634.52C274.62 697.86 326.15 749.38 389.49 749.38H634.53C697.87 749.38 749.39 697.85 749.39 634.52V389.48C749.39 326.14 697.86 274.61 634.53 274.61ZM548.22 632.89H452.94C433.87 632.89 418.4 617.43 418.4 598.35V425.66C418.4 406.58 433.86 391.12 452.94 391.12H548.22C586.37 391.12 617.29 422.05 617.29 460.19C617.29 480.82 608.24 499.34 593.9 512C608.24 524.66 617.29 543.18 617.29 563.81C617.29 601.96 586.36 632.89 548.22 632.89ZM531.06 466.23C531.06 484.46 516.28 499.24 498.05 499.24H478.54C471.29 499.24 465.41 493.36 465.41 486.11V446.36C465.41 439.11 471.29 433.23 478.54 433.23H498.05C516.28 433.23 531.06 448.01 531.06 466.24V466.23Z" fill="white"/>
</g>
<defs>
<clipPath id="clip0_2_1599">
<rect width="1024" height="1024" fill="white"/>
</clipPath>
</defs>
</svg>
