<svg width="1024" height="1024" viewBox="0 0 1024 1024" fill="none" xmlns="http://www.w3.org/2000/svg">
<g clip-path="url(#clip0_2_1602)">
<path d="M512 1024C794.77 1024 1024 794.77 1024 512C1024 229.23 794.77 0 512 0C229.23 0 0 229.23 0 512C0 794.77 229.23 1024 512 1024Z" fill="#96DFD3"/>
<path d="M529.24 521.86V617.46L612 569.65V474.13L529.24 521.86ZM429.24 444.27L512 492L594.77 444.27L512 396.46L429.24 444.27ZM412 569.65L494.76 617.46V521.86L412 474.13V569.65ZM726.63 521.32L712.16 511.1L726.61 500.89C740.047 491.37 750.872 478.62 758.084 463.816C765.297 449.012 768.666 432.631 767.881 416.182C767.096 399.733 762.182 383.746 753.592 369.696C745.002 355.647 733.013 343.986 718.73 335.79L717.46 335.01C704.066 327.287 689.039 322.834 673.6 322.014C658.161 321.194 642.747 324.029 628.61 330.29L612.9 337.29L611.05 320.17C609.386 304.773 604.114 289.985 595.663 277.007C587.211 264.03 575.819 253.228 562.41 245.48L561.98 245.29C547.094 236.657 530.187 232.123 512.98 232.15C495.052 232.151 477.464 237.043 462.11 246.3L459.63 247.81C446.899 255.605 436.099 266.182 428.039 278.747C419.979 291.311 414.868 305.538 413.09 320.36L411.09 337.28L395.58 330.38C381.434 324.068 365.994 321.195 350.525 321.998C335.056 322.802 319.996 327.257 306.58 335L305.03 335.87C290.257 344.447 277.97 356.721 269.379 371.486C260.788 386.251 256.187 402.998 256.03 420.08V423.36C256.182 438.909 260.017 454.2 267.22 467.981C274.423 481.762 284.79 493.639 297.47 502.64L311.87 512.85L297.47 523.06C284.78 532.067 274.406 543.953 267.197 557.744C259.989 571.535 256.151 586.839 256 602.4V603.93C256.162 621.021 260.776 637.775 269.388 652.538C278.001 667.302 290.312 679.566 305.11 688.12L306.52 689C319.941 696.699 334.986 701.134 350.438 701.945C365.89 702.756 381.316 699.922 395.47 693.67L411.18 686.67L412.98 703.79C414.641 719.138 419.885 733.882 428.291 746.831C436.696 759.781 448.027 770.574 461.37 778.34L462 778.68C477.231 787.464 494.542 791.995 512.123 791.798C529.705 791.601 546.91 786.683 561.94 777.56L564.37 776.09C577.111 768.306 587.92 757.733 595.982 745.166C604.044 732.599 609.148 718.366 610.91 703.54L612.91 686.62L628.47 693.62C641.058 699.226 654.689 702.109 668.47 702.08C685.727 702.056 702.676 697.512 717.63 688.9L719 688.08C733.884 679.452 746.243 667.07 754.842 652.17C763.44 637.269 767.978 620.373 768 603.17V601.37C767.972 585.695 764.201 570.254 757.002 556.331C749.803 542.407 739.383 530.404 726.61 521.32H726.63ZM712.7 603.17C712.675 610.669 710.687 618.031 706.932 624.522C703.178 631.014 697.788 636.409 691.3 640.17L689.84 641.05C683.316 644.776 675.933 646.735 668.42 646.735C660.907 646.735 653.524 644.776 647 641.05L607.17 618L556.3 647.47V692.31C556.28 699.655 554.379 706.872 550.778 713.274C547.177 719.676 541.997 725.048 535.73 728.88L533.25 730.39C526.692 734.353 519.193 736.488 511.53 736.573C503.868 736.657 496.323 734.688 489.68 730.87L489.15 730.53C482.657 726.77 477.262 721.376 473.499 714.885C469.736 708.395 467.737 701.032 467.7 693.53V647.53L416.83 618L377 641.1C370.493 644.827 363.124 646.789 355.625 646.789C348.126 646.789 340.757 644.827 334.25 641.1L332.74 640.17C326.259 636.446 320.868 631.088 317.105 624.63C313.342 618.172 311.339 610.84 311.294 603.366C311.249 595.892 313.166 588.537 316.852 582.034C320.538 575.532 325.864 570.11 332.3 566.31L373.83 541.74L373.49 483.14L332.74 459.6C326.233 455.856 320.826 450.466 317.061 443.972C313.296 437.477 311.306 430.106 311.29 422.6V420.85C311.31 413.336 313.302 405.958 317.066 399.455C320.83 392.952 326.235 387.55 332.74 383.79L334.2 382.87C340.715 379.139 348.092 377.177 355.6 377.177C363.108 377.177 370.485 379.139 377 382.87L416.82 405.92L467.69 376.55V331.7C467.737 324.353 469.656 317.14 473.266 310.741C476.875 304.342 482.057 298.969 488.32 295.13L490.8 293.63C497.345 289.651 504.839 287.507 512.498 287.421C520.156 287.334 527.697 289.31 534.33 293.14L534.87 293.43C541.387 297.189 546.799 302.597 550.563 309.111C554.326 315.626 556.309 323.016 556.31 330.54V376.54L607.18 405.91L647 382.86C653.523 379.131 660.906 377.169 668.42 377.169C675.934 377.169 683.317 379.131 689.84 382.86L691.3 383.78C697.768 387.515 703.146 392.877 706.899 399.335C710.653 405.792 712.651 413.119 712.696 420.588C712.74 428.057 710.829 435.408 707.153 441.91C703.477 448.411 698.163 453.838 691.74 457.65L650.16 482.21L650.5 540.81L691.3 564.35C697.796 568.101 703.192 573.494 706.948 579.988C710.704 586.481 712.687 593.848 712.7 601.35V603.17Z" fill="white"/>
</g>
<defs>
<clipPath id="clip0_2_1602">
<rect width="1024" height="1024" fill="white"/>
</clipPath>
</defs>
</svg>
