<svg width="1024" height="1024" fill="none" xmlns="http://www.w3.org/2000/svg"><g clip-path="url(#a)"><path d="M512 1024c282.77 0 512-229.23 512-512S794.77 0 512 0 0 229.23 0 512s229.23 512 512 512Z" fill="#728DBE"/><path d="M272.6 281.9c-9-.1-16.5 7.1-16.6 16.2 0 1 0 1.9.2 2.9l69.6 422.6c1.8 10.6 11 18.5 21.8 18.6h334c8.1.1 15.1-5.8 16.4-13.8L767.8 301c1.5-8.9-4.6-17.3-13.5-18.8-1-.2-1.9-.2-2.8-.2l-478.9-.1Zm293.2 305.4H459.1l-28.8-150.7h161.3l-25.8 150.7Z" fill="#fff"/></g><defs><clipPath id="a"><path fill="#fff" d="M0 0h1024v1024H0z"/></clipPath></defs></svg>