<svg width="1024" height="1024" fill="none" xmlns="http://www.w3.org/2000/svg"><g clip-path="url(#a)"><path d="M512 1024c282.77 0 512-229.23 512-512S794.77 0 512 0 0 229.23 0 512s229.23 512 512 512Z" fill="#98DC9A"/><path d="M625.54 315.22a58.83 58.83 0 0 0-.05 83.2l.05.05 113.24 113.28-113.52 113.52-57.75-57.77a58.877 58.877 0 0 0-83.25 0l140.92 140.95L822 511.67 625.54 315.22Zm0 156.41a40.356 40.356 0 0 1 37.28 24.919 40.362 40.362 0 0 1-29.414 55.025 40.358 40.358 0 0 1-41.43-17.155A40.359 40.359 0 0 1 585.17 512a40.363 40.363 0 0 1 24.922-37.291 40.34 40.34 0 0 1 15.448-3.069v-.01Zm-227 237.14a58.883 58.883 0 0 0 0-83.25L285.29 512.25l113.53-113.52 57.7 57.77a58.881 58.881 0 0 0 83.25 0L398.82 315.55 202 512.33l196.54 196.44Zm0-237.14a40.357 40.357 0 0 1 37.244 24.954 40.361 40.361 0 0 1-52.756 52.691 40.358 40.358 0 0 1-21.835-52.723 40.365 40.365 0 0 1 37.297-24.912l.05-.01Z" fill="#fff"/></g><defs><clipPath id="a"><path fill="#fff" d="M0 0h1024v1024H0z"/></clipPath></defs></svg>