<svg width="1024" height="1024" fill="none" xmlns="http://www.w3.org/2000/svg"><g clip-path="url(#a)"><path d="M512 1024c282.77 0 512-229.23 512-512S794.77 0 512 0 0 229.23 0 512s229.23 512 512 512Z" fill="#728DBE"/><path d="M826 442.45h-32.63L774.56 522 772 532.87c-1.84.55-3.69.92-5.53 1.29-3.46.688-6.984.996-10.51.92a25.252 25.252 0 0 1-10-1.84 10.065 10.065 0 0 1-5.16-5.16 17.148 17.148 0 0 1-1.11-7.73 47.45 47.45 0 0 1 1.66-9.58l10-41.25 6.45-27.44h-33.2l-15.12 63.53a118.754 118.754 0 0 0-3.13 21.73 39.619 39.619 0 0 0 3.13 18.42c2.4 5.34 6.45 9.39 12.17 12.52 5.72 3.13 13.64 4.6 24 4.6a89.584 89.584 0 0 0 18.59-1.88c.19 0 .55-.18.74-.18a29.002 29.002 0 0 1-9 16c-4.79 4.05-11.8 6.26-21 6.26a66.012 66.012 0 0 1-10.98-.68l-6.45 26.89c4.797.544 9.623.781 14.45.71a91.011 91.011 0 0 0 26-3.31 56.55 56.55 0 0 0 19.18-10.31 62.306 62.306 0 0 0 13.46-17.13 101.543 101.543 0 0 0 8.67-24.68l22.49-94.47 4.2-17.65Zm-159.51 27c-15.29 0-18.05 0-24.31 3.14a35.635 35.635 0 0 0-11.24 9.79 50.245 50.245 0 0 0-7.55 13.86 49.734 49.734 0 0 0-2.76 16.44c0 7 1.11 12.56 3.5 16.81 2.39 4.07 6.63 6.1 12.89 6.1a20.28 20.28 0 0 0 9-2 32.004 32.004 0 0 0 8.66-6.65c.37-3.7.74-7.39 1.47-11.46.73-4.07 1.47-7.76 2.21-11.09l8.1-34.92m22.84 40.65a77.298 77.298 0 0 0-1.84 25.13c.74 8.5 4.05 21.25 7.18 27.71h-31.5c-3.87-6.47-3.68-9.61-4.42-11.64a59.862 59.862 0 0 1-13.63 8.31 40.533 40.533 0 0 1-16.76 3.33c-7.18 0-13.63-1.29-18.6-3.88a33.205 33.205 0 0 1-12.71-10.35 39.846 39.846 0 0 1-7.18-15.15 79.005 79.005 0 0 1 3.16-47.16A77.21 77.21 0 0 1 607.92 463c6.26-6.65 21.73-21.43 46.78-21.43h50.47l-15.84 68.55m-191 25.1c2.4.74 5.71.74 9.21.74a36.606 36.606 0 0 0 15.66-3.13 39.003 39.003 0 0 0 12.16-8.85 46.997 46.997 0 0 0 7.64-13.7 53.999 53.999 0 0 0 2.76-17.7c0-6.27-1.29-11.8-4.05-16-2.76-4.42-7.55-6.82-14.55-6.82h-12.9l-15.93 65.46Zm80-45.16a80.712 80.712 0 0 1-5.34 29.49 69.563 69.563 0 0 1-14.74 23 66.17 66.17 0 0 1-22.48 15.11 72.77 72.77 0 0 1-28.37 5.53 106.666 106.666 0 0 1-15.11-1.29l-9.95 39.82h-32.7l38-159.08h43.48c8.29 0 15.29 1.29 21.19 3.87a39.413 39.413 0 0 1 23.21 25.62 52.809 52.809 0 0 1 2.72 17.87l.09.06ZM429.8 535a25.19 25.19 0 0 1-9.95-1.84 10.082 10.082 0 0 1-5.15-5.16 17.222 17.222 0 0 1-1.11-7.75 47.725 47.725 0 0 1 1.66-9.6l9.95-41.34h37l6.82-27.5h-37.19l8.66-34.69-34.82 5.17-22.11 93.19a119.203 119.203 0 0 0-3.13 21.78 39.798 39.798 0 0 0 3.13 18.45c2.4 5.35 6.45 9.41 12.16 12.55 5.71 3.14 13.63 4.61 24 4.61a89.275 89.275 0 0 0 18.61-1.84c.55-.19 1.29-.37 1.84-.55l6.82-28.24a52.224 52.224 0 0 1-6.82 1.66 47.763 47.763 0 0 1-10.37 1.1Zm-83.17-93-28.91 120.91h32.8l28.72-120.83h-32.61m36.5-13.86 5-21.06h-32.7l-5 21.06h32.7Zm-137 107.59a26.386 26.386 0 0 0 14.39-3.87 37.85 37.85 0 0 0 11.81-10 47.115 47.115 0 0 0 7.75-14 49.427 49.427 0 0 0 2.77-16.41c0-7-1.11-12.35-3.5-16.41-2.39-4.06-7.2-5.72-13.47-5.72a31.702 31.702 0 0 0-7.38.92 21.52 21.52 0 0 0-8.85 4.61l-14.2 60.1c3.54.543 7.118.803 10.7.78h-.02Zm28.59-93.66A40.392 40.392 0 0 1 293 446a34.178 34.178 0 0 1 12.73 10.14 43.57 43.57 0 0 1 7.38 14.93 65.571 65.571 0 0 1 2.4 18.44 71.247 71.247 0 0 1-5.72 28.58c-3.87 8.85-8.85 17-15.31 23.41a68.347 68.347 0 0 1-22.88 15.7 69.853 69.853 0 0 1-28.41 5.72c-1.29 0-3.69 0-7-.18a86.303 86.303 0 0 1-11.25-.92c-4.24-.74-8.86-1.47-13.47-2.58a64.748 64.748 0 0 1-13.47-4.81l38-159.11 33.94-5.32-13.47 56.42a40.224 40.224 0 0 1 8.67-2.95 33.472 33.472 0 0 1 9.59-1.29l-.01-.03Z" fill="#fff"/></g><defs><clipPath id="a"><path fill="#fff" d="M0 0h1024v1024H0z"/></clipPath></defs></svg>