<svg width="1024" height="1024" viewBox="0 0 1024 1024" fill="none" xmlns="http://www.w3.org/2000/svg">
<g clip-path="url(#clip0_2_1665)">
<path d="M512 1024C794.77 1024 1024 794.77 1024 512C1024 229.23 794.77 0 512 0C229.23 0 0 229.23 0 512C0 794.77 229.23 1024 512 1024Z" fill="#56595B"/>
<path d="M553.72 610.65C553.72 604.85 549.37 601.95 545.02 601.95C536.32 601.95 524.71 603.4 516.02 603.4C466.7 603.4 426.08 562.78 426.08 513.46V297.3C426.028 296.547 425.706 295.839 425.173 295.306C424.64 294.773 423.932 294.451 423.18 294.4H299.85L298.4 295.85V512C298.361 540.586 303.964 568.899 314.886 595.317C325.808 621.734 341.834 645.738 362.048 665.951C382.262 686.165 406.265 702.192 432.683 713.114C459.1 724.035 487.413 729.638 516 729.6C527.61 729.6 539.21 728.15 550.82 726.7C551.572 726.648 552.28 726.326 552.813 725.793C553.346 725.26 553.668 724.552 553.72 723.8V610.65ZM516 294.4C504.39 294.4 491.34 295.85 479.73 297.3C478.977 297.351 478.269 297.673 477.736 298.206C477.203 298.739 476.881 299.447 476.83 300.2V413.35C476.83 419.15 481.18 423.5 485.53 422.05C489.88 422.05 514.53 420.6 514.53 420.6C563.85 420.6 604.47 461.22 604.47 510.54V706.39C604.465 706.581 604.5 706.772 604.572 706.949C604.643 707.127 604.75 707.289 604.885 707.424C605.021 707.56 605.182 707.666 605.36 707.738C605.538 707.809 605.728 707.844 605.92 707.84C681.38 674.47 733.6 599 733.6 512C733.638 483.413 728.035 455.1 717.114 428.683C706.192 402.265 690.165 378.262 669.951 358.048C649.738 337.834 625.734 321.808 599.317 310.886C572.899 299.964 544.586 294.361 516 294.4Z" fill="white"/>
</g>
<defs>
<clipPath id="clip0_2_1665">
<rect width="1024" height="1024" fill="white"/>
</clipPath>
</defs>
</svg>
