<svg width="1024" height="1024" fill="none" xmlns="http://www.w3.org/2000/svg"><g clip-path="url(#a)"><path d="M512 1024c282.77 0 512-229.23 512-512S794.77 0 512 0 0 229.23 0 512s229.23 512 512 512Z" fill="#FF837D"/><path d="m298.94 294.54-60.311 104.54 213 368.92h120.74l215.58-373.31-57.792-100.15H298.94Zm367.2 29.1-54.024 93.634h-87.135l10.554-18.198h-263.23l43.516-75.389 350.319-.047Zm21.018 0h26.116l43.543 75.389h-113.2l43.541-75.389Zm-270.72 93.634h87.632l10.554 18.228h216.11l-43.561 75.389h-.452l-131.18 227.95h-87.073l-175.2-303.37h87.086l67.052 116.1 12.98-22.481h87.15l-56.554 97.886 21.002 36.429 87.662-152.53h-128.71l-54.498-93.601Z" fill="#F9F9F9"/></g><defs><clipPath id="a"><path fill="#fff" d="M0 0h1024v1024H0z"/></clipPath></defs></svg>