<svg width="1024" height="1024" fill="none" xmlns="http://www.w3.org/2000/svg"><g clip-path="url(#a)"><path d="M512 1024c282.77 0 512-229.23 512-512S794.77 0 512 0 0 229.23 0 512s229.23 512 512 512Z" fill="#8E6F60"/><path d="m514.63 236.48-70.06 70.05 180.05 180.04 27.69 27.701.31.31L537.87 629.32l-23.159 23.16-28.001-28L380.8 518.581l16.71-16.721 6.45-6.45 42.69-42.68 41.38 41.38-42.68 42.68 64.52 64.53 93.281-93.28L423.11 328 236.48 514.63l272.89 272.891L787.521 509.37 514.63 236.48Z" fill="#fff"/></g><defs><clipPath id="a"><path fill="#fff" d="M0 0h1024v1024H0z"/></clipPath></defs></svg>