<svg width="1024" height="1024" fill="none" xmlns="http://www.w3.org/2000/svg"><g clip-path="url(#a)"><path d="M512 1024c282.77 0 512-229.23 512-512S794.77 0 512 0 0 229.23 0 512s229.23 512 512 512Z" fill="#9ABEFF"/><path d="M374.07 421.08h52.12A29.926 29.926 0 0 0 456 391.22v-52.15a29.907 29.907 0 0 0-29.85-29.83h-52.08a29.893 29.893 0 0 0-29.87 29.83v52.16a29.91 29.91 0 0 0 29.87 29.85Zm275.86 0a30.001 30.001 0 0 0 29.86-29.86v-52.15a29.941 29.941 0 0 0-29.86-29.83h-52.14a29.996 29.996 0 0 0-21.082 8.766 29.997 29.997 0 0 0-8.808 21.064v52.16a30 30 0 0 0 29.89 29.86l52.14-.01ZM761.8 491h-52.14a30.002 30.002 0 0 0-29.87 29.91v52.16a29.917 29.917 0 0 1-29.86 29.79H374.06a29.873 29.873 0 0 1-29.87-29.79v-52.15a30 30 0 0 0-29.9-29.92h-52.13a30 30 0 0 0-29.84 29.91v52.16a29.902 29.902 0 0 0 29.84 29.79h52.14a30 30 0 0 1 29.9 29.82v52.2a29.901 29.901 0 0 0 29.87 29.87h275.86a30 30 0 0 0 29.86-29.87v-52.2a30.002 30.002 0 0 1 29.87-29.82h52.14a29.93 29.93 0 0 0 29.88-29.79v-52.15A29.997 29.997 0 0 0 761.8 491Z" fill="#fff"/></g><defs><clipPath id="a"><path fill="#fff" d="M0 0h1024v1024H0z"/></clipPath></defs></svg>