<svg width="1024" height="1024" fill="none" xmlns="http://www.w3.org/2000/svg"><g clip-path="url(#a)"><path d="M512 1024c282.77 0 512-229.23 512-512S794.77 0 512 0 0 229.23 0 512s229.23 512 512 512Z" fill="#98DC9A"/><path d="M350.3 550.8v-234H624V271H304v234.7c0 47 33.2 85.3 76.4 121.2-18.8-21-29.4-48-30.1-76.1ZM672 601.7c0 41.9-55.8 82.9-112 122.7-56.5-39.8-112-79.8-112-122.7V415h224v186.7ZM560.5 367H400v234.7c0 75.4 85.1 128 160 181.3 75.2-53.3 160-105.9 160-181.3V367H560.5Z" fill="#fff"/></g><defs><clipPath id="a"><path fill="#fff" d="M0 0h1024v1024H0z"/></clipPath></defs></svg>