<svg width="1024" height="1024" fill="none" xmlns="http://www.w3.org/2000/svg"><g clip-path="url(#a)"><path d="M512 1024c282.77 0 512-229.23 512-512S794.77 0 512 0 0 229.23 0 512s229.23 512 512 512Z" fill="#9ABEFF"/><path d="M303.88 303.42h116.2v116.2h-116.2v-116.2Zm149.87 0h116.2v116.2h-116.2v-116.2Zm150.18 0h116.2v116.2h-116.2v-116.2ZM303.88 453.9h116.2v116.2h-116.2V453.9Zm149.87 0h116.2v116.2h-116.2V453.9Zm150.18 0h116.2v116.2h-116.2V453.9ZM303.88 604.38h116.2v116.2h-116.2v-116.2Zm149.87 0h116.2v116.2h-116.2v-116.2Zm150.18 0h116.2v116.2h-116.2v-116.2Z" fill="#fff"/></g><defs><clipPath id="a"><path fill="#fff" d="M0 0h1024v1024H0z"/></clipPath></defs></svg>