<svg width="1024" height="1024" viewBox="0 0 1024 1024" fill="none" xmlns="http://www.w3.org/2000/svg">
<g clip-path="url(#clip0_2_1692)">
<path d="M512 1024C794.77 1024 1024 794.77 1024 512C1024 229.23 794.77 0 512 0C229.23 0 0 229.23 0 512C0 794.77 229.23 1024 512 1024Z" fill="#9ABEFF"/>
<path d="M303.88 303.42H420.08V419.62H303.88V303.42ZM453.75 303.42H569.95V419.62H453.75V303.42ZM603.93 303.42H720.13V419.62H603.93V303.42ZM303.88 453.9H420.08V570.1H303.88V453.9ZM453.75 453.9H569.95V570.1H453.75V453.9ZM603.93 453.9H720.13V570.1H603.93V453.9ZM303.88 604.38H420.08V720.58H303.88V604.38ZM453.75 604.38H569.95V720.58H453.75V604.38ZM603.93 604.38H720.13V720.58H603.93V604.38Z" fill="white"/>
</g>
<defs>
<clipPath id="clip0_2_1692">
<rect width="1024" height="1024" fill="white"/>
</clipPath>
</defs>
</svg>
