<svg width="1024" height="1024" viewBox="0 0 1024 1024" fill="none" xmlns="http://www.w3.org/2000/svg">
<g clip-path="url(#clip0_2_1698)">
<path d="M512 1024C794.77 1024 1024 794.77 1024 512C1024 229.23 794.77 0 512 0C229.23 0 0 229.23 0 512C0 794.77 229.23 1024 512 1024Z" fill="#8C72BD"/>
<path d="M783.2 441.2C783.8 441.3 784.8 440.9 784.8 441.3C784.9 440.9 785.5 441.1 786.1 441.1C787.1 441.1 787.9 441 788.5 441.6C789.4 441.7 789.9 441.3 790.7 441.8L791.8 441.9C791.9 442 792 442 792.2 441.9C792.3 441.9 792.5 441.9 792.6 441.8H793.7C793.8 441.9 794.2 442 794.7 442.2L796.1 442L797.4 442.2H798.9C799.3 442.2 799.9 442.5 800.3 442.5H805.7L807.6 442.2L809.1 442.5C810.7 442.5 812.9 442.5 815.8 442.6C816.2 442.7 816.6 442.7 816.7 442.6C817.1 442.6 817 442.2 818 442.4C817.7 442.4 818.5 442.7 818.5 442.2C818.5 442.1 819.3 442.1 819.4 441.9H822.3C822.7 441.8 822.9 441.8 823.1 441.8C823.5 441.8 824.6 442.2 825 442.2L829.3 442C830 442.2 830.7 442.2 831.4 442.2H832.9C833.3 442.2 834 442.3 834.9 442.5C835.4 442.5 836.5 442.2 837 442.2L838.7 442.1C838.7 442 840.6 442.2 840.9 442C842.7 442.1 844.1 441.9 845.9 441.9H850.3C852.2 441.9 854.8 441.9 858.5 442C858.5 442.1 858.5 442.1 858.6 442.2C858.6 442.1 858.6 442.1 858.7 442C859.1 442.1 859.2 442.1 859.9 442C860.3 441.9 861.2 442 861.1 441.9L861.9 441.8C862.4 441.7 862.8 441.8 863.8 441.9C864.2 441.9 864.4 441.8 864.4 441.8C864.5 441.8 864.9 441.8 864.9 441.9C865.2 441.9 865.4 442 865.4 442.1C865.4 442.7 865.6 442.9 865.5 442.8V443.8C865.6 443.9 865.6 444.3 865.8 444.7V447.3C865.9 450.3 865.9 451.9 865.9 452L865.6 452.2V452.7C865.5 452.8 865.5 453 865.3 453.3L864.4 453.7H862C861.5 453.7 860.2 453.5 859.7 453.5H854.7C852.6 453.5 850.3 453.6 847.9 453.7C847 453.6 845.6 453.6 843.9 453.7H842.5C841.6 453.6 841.2 453.5 841.5 453.5C841.4 453.5 840.7 453.7 840.4 453.7L837.8 453.5H835C832.6 453.6 830.2 453.6 827.8 453.5C826.2 453.4 825.2 453.4 824.5 453.5H821.4C821.3 453.4 820.9 453.2 820.5 453.1C820.1 453.1 819.5 453.5 819.1 453.5C818.7 453.4 818.1 453.4 817.3 453.4C814.9 453.4 813.9 453.4 814.5 453.5C812.4 453.2 810.2 453 808.1 452.9H805C804.7 452.8 804.4 452.8 804 452.8C803.4 452.7 803 452.7 802.9 452.8C802.8 452.8 802.7 452.8 802.5 452.9C801.7 453 801.2 453 800.9 452.9C800.3 452.5 799.8 452.3 799.6 452.3H799.2C799.1 452.6 798.9 452.7 798.8 452.6C798.8 453.2 798.3 453.5 797.2 453.2C797.1 453.5 796.9 453.7 796.6 454.1C796.7 454.3 797.1 454.3 797.2 454.8L797.5 453.6C798.9 453.5 799.9 453.5 800.3 453.8C800.8 453.7 801.4 453.7 802.1 453.8C803.1 453.9 803.7 454 804 454H810.5C810.6 454.1 811.3 454.2 812.6 454.4H813.6L816.6 455C816.7 454.9 817.1 454.9 817.6 454.9C818.5 455 819.5 455.3 821.9 455.4C821.9 455.5 821.9 455.5 822 455.5H822.5C822.5 455.6 822.8 455.8 823.4 455.9L823.5 456C823.9 456.1 824.4 456.1 825.1 456C825.7 455.9 826.6 456 827.7 456.1L833 456.6L835.6 457.1C836.6 457 838.1 457.1 840 457.2L841.3 457.5H842.9C843 457.6 843.4 457.7 843.8 457.9C844.6 457.9 845.6 458 846.9 458.2L850.7 458.8C851.8 458.7 853 458.7 854.1 458.8C856.2 458.9 857 458.9 856.4 459.1C857.3 459.1 858.5 459.3 859.9 459.7C860.5 459.6 861.4 459.6 862.5 459.7C862.9 459.7 863.8 459.8 865.1 460.1C865.2 460.5 865.5 461 865.6 461.7C865.5 462.2 865.5 462.9 865.5 464.1L865.7 465.5C865.8 466.4 865.7 467.2 865.6 468.2C865.9 469.7 863.7 470.3 859.2 470.3H857.9C857 470.5 855.3 470.8 852.5 471H852.2L852.1 471.1C851.5 471.1 850.7 471.2 849.7 471.3C849.6 471.4 849.3 471.5 849.4 471.4C848.5 471.7 847.7 471.7 845.8 471.7L843.3 471.8L842 472.2C841.4 472.1 840.4 472.1 839.1 472.2C839 472.2 838.6 472.2 838.1 472.3L832.7 472.9C832.6 472.8 832.4 472.6 832.3 472.8C832.2 472.8 832.2 472.8 832 472.9H830L827.2 473.5H826.1C825.7 473.6 825.1 473.6 824.3 473.8H822.9L821 474.2H820.7L819.3 474.3C819 474.4 818.8 474.7 818.4 474.6C818.3 474.5 818.3 474.5 818.1 474.5L816.5 474.8C815.9 474.7 814.9 474.7 813.5 474.7C813.1 475 812.4 474.7 811.6 475C811.5 475 810.8 475.3 809.8 475.2C809.7 475.2 809.3 475.2 808.4 475.1C807 474.9 805.6 474.6 804.9 475.3C804.5 475.2 804.3 475.5 803.3 475.6H802.5C802.2 475.6 801.7 475.5 800.9 476.2H800.2C800.1 476.2 799.9 476.3 799.8 476.4C799.7 476.7 799.7 476.8 800.1 476.8C800.1 476.9 800.1 477.1 800.2 477.2C800.3 477.2 800.5 477.1 800.8 476.8C800.9 476.9 801.2 476.9 801.4 476.8L801.8 476.7C801.9 476.7 802.3 476.7 802.8 476.8C802.9 476.8 803.2 476.8 803.3 476.7C803.4 476.6 803.7 476.6 803.8 476.7L804.4 476.2C804.8 476.2 804.9 476.1 805 475.9C805.4 476 805.9 476.3 806.5 476.4C806.1 476.3 806.5 476.3 807.4 476.3C807.5 476.3 807.5 476.3 807.6 476.4C807.9 476.3 808.2 476.3 808.7 476.3H808.9L809 476.2C809.1 476.2 809.8 476.2 810.9 476.3C811.4 476.4 812 476.4 812.5 476.4C812.8 476.4 813.1 476.4 813.6 476.3L814 476H814.3L816.1 475.6H816.4C816.1 475.6 816.8 475.6 818.3 475.7C818.4 475.7 818.8 475.7 819.2 475.6H820L825.3 475.8C825.7 475.8 826.3 475.8 827.2 475.7C827.2 475.6 827.2 475.6 827.3 475.6V475.7H828.7C829.3 475.8 830 475.8 830.5 475.8H841.4C841.7 475.9 841.9 475.9 842 475.9C842.3 475.9 842.6 475.9 843.1 475.8H844.4C844.7 475.8 845.2 475.9 845.8 476.1C847.2 476.2 848.4 476.1 849.8 476C850.2 475.9 850.7 475.9 851.1 476C852.5 475.9 854.6 476 857.5 476.1C857.6 476.1 857.9 476.1 858 476.2H858.5C858.6 476.2 859.3 476.1 860.4 475.9C861 475.8 861.7 475.8 862.3 475.9C863.4 476 863.8 476.2 863.7 476.2C863.8 476.1 863.9 476.1 864.1 476.1C864.2 476.2 864.6 476.2 865 476.1C865.6 476.7 866 478.3 865.9 480.7C865.9 482.3 865.9 483.3 866 483.7L865.5 486.4C865 486.6 864.2 486.8 863.4 486.8H863C862.9 486.7 862.9 486.7 862.7 486.7C862.6 486.7 862.6 486.7 862.4 486.8H862.1C859 486.9 857.8 486.9 858.5 486.9L858.4 487C858.3 486.9 857.5 486.8 856.4 486.8C856.1 486.8 855.9 486.8 855.5 486.9H854.6C854.5 486.9 854 486.9 853 486.8C852.4 486.7 851.9 486.7 851.4 486.8H851C850.7 487 850.6 487 850.5 486.9C850.5 486.9 848.7 486.8 845.4 486.7C843 486.6 840.5 486.6 837.7 486.7L837.6 486.8C837.2 486.8 836.2 486.8 834.8 486.7C833.2 486.7 831.7 486.8 830 487.1C829.4 486.9 828.4 486.9 827 487C826.9 487 826.7 487 826.7 487.1C826.6 487.1 826.4 487.1 826.3 487H825C824.5 487.1 824.1 487.1 823.7 487.1C823.3 487.1 822.9 487.1 822.3 487H820.8V486.9L820.5 487C819.7 487 818.7 487 817.4 487.1H817C816.6 487.1 816 487.1 815.4 487H812.9C812.8 486.9 812.8 486.9 812.6 486.9H811L809.5 487.1C808.9 487 807.9 487 806.6 487C806.7 487 806.3 487 805.3 486.9C804.3 487 802.8 487 800.8 487.1H800.3C800.2 487.1 799.9 487.1 799.7 487H792.3C791.9 487 791.7 487 791.4 487.1C788.6 487.2 785.7 487.2 782.9 487.1C782.3 487.1 781 487.1 779.4 487L778.6 486.1C778.6 485.9 778.6 485.6 778.5 485.2C778.4 485.1 778.4 485 778.2 484.6C778.3 482.5 778.3 481 778.3 480.1C778.3 473.7 778.3 469.9 778.4 468.9C778.5 468.8 779.5 468.3 781.3 467.7C781.9 467.8 782.9 467.8 784.3 467.7C784.4 467.6 784.5 467.6 784.9 467.5L791.3 466.8H791.8C792 466.8 792.6 466.8 793.2 466.9C793.4 466.8 793.8 466.8 794.3 466.8H795.4C795.5 466.7 795.5 466.7 795.4 466.6C796 466.6 796.9 466.6 798 466.5C798.5 466.4 799.3 466.1 800.4 466C801 466.1 801.9 466.1 803.2 466C803.6 466 804.1 465.9 805 465.6C805.4 465.7 805.9 465.7 806.5 465.6H807.6C810 465.8 811.9 466 813 466H814.4L814.9 465.6L815.4 466H815.7V465C815.6 464.9 815.4 464.9 815.3 465L814.9 465.4C814.5 465.5 814.9 464.8 814 464.8C813.9 464.9 813.5 464.9 813.1 464.8C813 464.8 812.7 464.8 812.3 464.7C811.6 464.6 810.9 464.6 810.4 464.7C810.3 464.8 810 464.8 809.6 464.8C807.2 465.2 805.1 465 803.4 464.7H802C801.9 464.6 801.7 464.6 801.6 464.6L799 464.4L797.5 464.1C797.4 464 797.1 464 796.7 463.9C795.8 463.9 794.6 463.8 792.9 463.7L792.3 463.4C791.3 463.4 789 463.2 785.5 462.8C785.1 462.8 784.6 462.7 784 462.3C782.8 462.4 781.7 462.4 780.5 462.3C779.6 462.3 778 462.3 778 461.2C778 462 777.9 460.3 777.9 458.1V457.4C778 457 778 456.8 778 456.7C778 456 778 455.1 777.9 454.1V453.7C777.8 453.6 777.8 453.6 777.8 453.5C777.8 453.4 777.8 453.1 777.9 452.9V450C777.8 448.4 777.8 447.8 777.8 448.3C777.8 448.3 777.5 444.3 777.8 443.4C778 442.5 778.8 441.7 779.7 441.6C780.1 441.5 780.7 441.4 781.6 441.5C781.9 441.4 782.8 441.2 783.2 441.2ZM848.3 506.9C848.1 506.9 847.7 506.8 847.2 506.6H846.8C846.2 506.6 844.5 506.9 843.9 506.9C843.4 506.9 842.4 506.6 841.9 506.6C841.4 506.6 840 506.9 839.5 506.9C836.9 506.8 835.7 506.8 836 506.6L832.9 506.9H831.9C831.3 506.8 830 506.8 828.1 506.9H824.8C823.2 507 821.5 507 819.9 506.9L819.5 506.6H811.8L809.8 506.9C809.7 506.8 809.6 506.8 809.7 506.6C809.3 506.6 808.6 506.9 808.2 506.9C807.6 506.8 806.6 506.8 805.1 506.6C804.6 506.6 803.2 506.9 802.7 506.9H795.3L795 507C794.8 507 794.2 507 793.6 506.9C792.9 506.6 792.1 506.6 791.3 506.9H790.9C788.8 507.3 787.6 508.4 787.5 510C787.5 509.5 787.1 511.4 789 512.7C789 513.3 789.6 513.4 794 513.6C795.4 513.7 798 513.7 801.7 513.8C803.1 513.8 806.2 513.6 807.4 513.6C807.7 513.6 808 513.6 808.4 513.7H810.9C812 513.6 812.5 513.6 812.4 513.6L814.5 513.8C814.4 513.8 814.5 513.8 814.8 513.7H815.2C815.3 513.7 815.4 513.7 815.7 513.8H816.7C816.8 513.7 817.1 513.7 817.2 513.7C817.3 513.8 817.3 513.8 817.4 513.8H826.4C828.2 513.7 828.8 513.7 828.4 513.7C829 513.7 830.8 514 831.4 514H832.2C832.6 513.9 832.8 513.9 833 513.9C834.1 513.8 835.9 513.9 838.3 514.1H839.2C839.6 514 840 514 840.2 514C840.5 514 840.8 514 841.2 514.1H842.1C842.2 514.1 842.9 514.1 843.9 514C846 513.9 848.2 513.7 850 513.9C850.5 514 850.8 514 850.6 514L850.7 513.9C852.3 514 853.5 513.9 854 513.8C854.1 513.7 854.6 513.4 855.3 513.3C855.9 511.4 856.3 510.6 856.3 510.4C856.2 510 855.9 509.4 855.8 508.8C855.8 508.2 855 508.3 853.3 506.9C852.9 507 852.4 507 851.8 506.9C851 506.8 850.5 506.6 850.4 506.6C849.8 506.7 847.9 506.9 848.3 506.9ZM823.8 494.8H826.3C828.1 495.1 829.6 495.1 830.9 494.8H831.4C831.8 494.8 832.3 494.8 833 494.9C832.6 494.9 832.9 494.9 833.8 494.8H849.2C849.8 494.8 850.8 494.8 852.3 494.9C852.4 495 852.8 495 853.4 495.1H853.7C853.8 495.2 854 495.2 854.3 495.3C854.2 495.3 854.6 495.4 855.3 495.5L856.9 495.8C857 495.8 857 495.8 857.2 495.9C858.2 495.9 858.3 496 861 498C861.1 498.2 861.5 498.5 862 498.7L864.3 501.8V502.3H864.4V502.5C864.5 502.6 864.5 502.9 864.7 503.2H864.8C865.4 505.4 865.7 507.4 865.7 509.3C865.6 509.9 865.6 510.9 865.4 512.2V512.8L864.9 515.8C864.9 516.4 864.8 516.9 864.6 517V517.1L864.3 517.4C864.4 517.5 864.4 517.5 864.3 517.6L863.7 518.5C863.8 518.6 863.8 518.7 863.7 519.1C863.6 519.1 863.4 519.1 863.3 519.2V519.8L863 520.1L862.7 520.3C862.6 520.8 860.8 522.5 860.1 523.3H860V523.4H859.9L859.4 523.8H859.2V523.9H858.9V524H858.6V524.2H858C857.8 524.6 857.4 524.9 856.7 525.1C856.6 525.1 855.6 525.2 853.6 525.6H853.3C853.3 525.7 853.3 525.7 853.2 525.7C853.1 525.7 853 525.7 853 525.6H852.7C852.6 525.6 852.6 525.6 852.5 525.7C851.1 525.8 850.2 525.8 849.9 525.7C849.5 525.6 849.4 525.6 849.5 525.6C849.4 525.7 849.2 525.7 849.1 525.7H848.3C848.2 525.7 848.2 525.7 848.1 525.8H847.2C847.1 525.9 846.8 525.9 846.6 525.9C847.2 525.9 846.9 525.9 845.5 525.8C844.1 525.7 843.2 525.7 842.9 525.7L840.4 525.9C839.8 525.8 838.9 525.8 837.6 525.8H837.3C837.2 525.9 837 525.9 836.9 525.9C836.5 525.9 835.9 525.9 835 525.8L834.9 525.7H834.8C834.4 525.6 834 525.5 833.8 525.5C833.4 525.5 833 525.6 832.4 525.7L831.3 525.9C830.2 525.9 828.5 525.9 826.4 525.8C824.6 525.9 823.9 525.9 824.1 525.9H821.6C821 525.9 819.8 525.9 818 525.8C816.5 525.7 815.4 525.6 814.5 525.7C814.1 525.8 813.4 525.8 812.2 525.9H808.3C807.8 526 807.4 526 807 526C806.9 526 806.5 526 806.1 525.9H803C802.9 525.9 802.9 525.9 802.7 525.8C802.1 525.7 801.4 525.7 800.8 525.8C800.8 525.9 800.8 525.9 800.7 525.9C800.3 526 799.9 526 799.3 525.9C798.7 525.8 798.2 525.7 797.9 525.7C797.4 525.7 796 525.9 795.5 525.9C796.4 525.8 795.4 525.8 792.7 525.8C791.3 525.8 789.8 525.7 788.3 525.3L785.4 524.7C784.9 523.7 784.4 524 782.5 523.1C782.4 523.1 781.9 522.6 780.9 521.6C780.8 521.6 780.5 521.5 780.3 521.4C780.3 521 780 520.4 779.7 519.7L779.3 518.5C778.9 517.8 778.5 516.6 778 515V514.6C778 514.1 778 513.4 777.9 512.4V512.2L777.8 512.1C777.8 511.8 777.8 511.6 777.9 511.2V510.3C777.9 510.2 777.9 509.9 777.8 509.6C777.8 509.2 777.8 508.4 777.9 507C778 506.5 778 506 778 505.4V505C778.1 504.9 778.1 504.9 778.2 504.9L778.7 502.9L779 502.7V502.6L779.1 502.5C779.2 502 779.6 501.3 780 500.4L780.3 499.9L780.9 499.4C781 499.4 781 499.3 781.1 499.1V499C781.5 498.9 781.9 498.5 782.2 498L783.6 497L785.2 496.4L785.3 496.1C785.4 496 785.8 495.9 786.7 495.6C787 495.5 788.1 495.2 790 494.9L792.3 494.5C792.9 494.5 794.8 494.8 795.4 494.8H801.7C801.8 494.8 802.3 494.5 802.5 494.5C802.6 494.6 802.9 494.6 803.3 494.8H805.7L806.1 494.5L806.4 494.8H807.9C808.3 494.8 808.5 494.5 808.7 494.5C808.9 494.5 809.3 494.8 809.5 494.8H814.3C814.9 494.8 816.8 494.5 817.4 494.5C817.9 494.5 819.2 494.8 819.8 494.8C820.3 494.8 821.7 494.5 822.2 494.5C821.4 494.5 821.9 494.7 823.8 494.8ZM805.7 534.4H807.2C808.3 534.5 809 534.9 809.3 535.3V535.9H809.6V536.5C809.5 536.3 809.5 537.9 809.3 541.3C809.4 541.7 809.4 542.3 809.3 542.9L808.9 544.3V545.8C808.5 546.3 808.3 546.7 807.8 546.8C807.9 546.8 807.3 546.7 805.8 546.5C804.7 546.6 803.2 546.6 801.2 546.6C799.2 546.5 798.4 546.5 798.9 546.5C798.4 546.6 797.6 546.6 796.6 546.8H794.5C794.3 546.8 793.9 546.8 793.4 546.9H792.3C790 546.9 789.2 546.9 789.5 546.8C789.3 546.8 788.5 547.3 787.4 548.2C787.3 548.3 786.9 549.1 786.9 549.9C786.9 550.4 787 550.9 787.4 551.5C787.4 551.5 787.5 551.5 787.7 551.6C787.6 551.7 787.6 551.7 787.7 551.7L789.2 553.1L790 553.7C790.3 553.7 790.6 553.7 791.1 553.6C791.2 553.7 791.4 553.7 791.5 553.7C791.6 553.7 791.6 553.7 791.8 553.6H792.2L793.8 554C793.9 554 794.6 554 795.7 553.9C795.8 553.9 796.3 554 797.2 554.3L798.6 553.8C798.2 553.9 798.7 554 800.1 554C800 554 800.1 554 800.4 553.9C800.7 553.8 801.4 553.8 802.7 553.9C802.7 554 802.7 554 802.8 554H803.1C803.2 553.9 803.2 553.9 803.4 553.9L809.7 553.8C809.8 553.9 809.8 553.9 810 553.9C810.2 553.9 810.5 553.9 810.9 553.8H812.7C813.1 553.9 813.3 553.9 813.5 553.9H814.3C814.7 553.8 814.9 553.8 815.2 553.8C814.7 553.8 815.8 553.8 818.6 553.9C818.3 553.9 819.5 553.9 821.9 553.8H822.3C822.4 553.8 822.6 553.8 822.7 553.7C822.8 553.8 823.1 553.8 823.5 553.8C823.9 553.7 824.4 553.7 825.1 553.5C825.2 553.5 825.4 553.5 825.5 553.6H826.5C826.8 553.5 826.9 553.5 827 553.5C827.2 553.5 827.6 553.5 828 553.6H829.3C830.1 553.7 830.8 553.7 831.4 553.7C831.7 553.8 832 553.8 832.4 553.7C832.9 553.6 833.3 553.6 833.5 553.6C833.6 553.6 833.9 553.6 834 553.7H834.6C835.9 553.8 837.2 553.8 838.6 553.7C839.1 553.6 839.9 553.6 840.9 553.4C840.8 553.4 841 553.4 841.7 553.5C843.8 553.7 847.2 553.7 852.1 553.5C852.5 553.6 853.1 553.6 854 553.5C855 553.5 855.6 553.2 855.8 552.5C855.8 552.4 855.9 552.3 856 552.1C856.1 552.2 856.5 551.5 856.5 551.4C856.8 550.6 856.6 549.9 856.2 549.5L855.9 549.3V549C855.9 548.9 855.8 548.6 855.5 548.3C855.6 548.2 855.6 547.8 855.5 547.4C854.5 547.5 853.9 547.4 853.6 547H852.6C851.7 546.8 850.5 546.6 849.1 546.8C849 546.9 848.5 547 847.7 547C847.1 547 846.7 546.9 846.4 546.8H842C841.6 546.9 841.4 547 841.5 547C841.4 546.9 841.3 546.9 840.9 546.8C839.1 546.9 837 546.8 834.6 546.7H834C833.6 546.7 834 546.8 830.9 546.7C830.6 546.7 829.9 546.7 828.6 546.8C827.7 546.9 827.2 546.9 827.1 546.7H826.9C826.5 546.6 826.1 546.2 825.8 545.7C825.9 544.6 825.9 544 825.8 543.8C825.8 543.4 825 542.8 825 542.2C825 541.8 825 541.6 825.1 541.2V541C825.1 540.7 825.1 540.5 825 540.1V539.5C824.9 537.8 824.8 536.8 824.8 536.6C824.7 536.1 824.9 535.4 825.4 534.5C825.8 534.4 826.8 534.1 826.9 534.1C826.9 534.1 827 534.1 827.1 534.2C828.5 534.3 829.7 534.4 830.6 534.3C830.7 534.2 831 534.2 831.2 534.2C830.7 534.2 831.7 534.2 834.3 534.3C834.9 534.2 835.7 534.2 836.7 534.3H837.1C837.2 534.4 837.3 534.4 837.4 534.4L839.4 534.2C839.9 534.2 841.2 534.4 841.8 534.4C843.2 534.3 844.8 534.3 846.8 534.3H847.9C848.5 534.4 848.9 534.4 849.2 534.4C849.5 534.4 849.8 534.4 850.3 534.3H851.5C851.9 534.3 852.8 534.3 854.4 534.4C854.8 534.5 855 534.5 855.2 534.6H855.6L856.1 534.8C856.6 534.8 857.4 534.9 858.2 535.2C858.5 535.2 858.8 535.4 859.5 535.8C859.6 535.9 859.9 536 860.5 536.2L860.8 536.5H860.9C861 536.6 861.3 537 861.9 537.4C862.4 537.8 863.3 538.5 864.2 539.9C864.6 540.3 865 541.4 865.3 541.8V542.1H865.4L865.5 542.3C865.6 542.4 865.8 542.8 865.9 543.4C866 543.5 866 543.6 866 543.8V544.4C866 544.5 866 544.9 866.1 545.4C866.2 545.5 866.5 546.1 866.5 549.5C866.5 551.2 866.4 553.5 866 556.1C865.9 556.6 865.4 557.6 864.7 559.2H864.6V559.3C864.6 559.4 864.5 559.6 864.3 559.7V560L864 560.2C863.6 560.6 862.9 561.6 861.5 562.9C861.1 563 860.6 563.4 860 564C859.8 563.9 859.4 564.1 858.8 564.5C858.4 564.6 858.3 565 857.2 565.1V565.2C857.1 565.2 856.9 565.2 856.8 565.3H856.5L855.2 565.8L852.8 565.9C852.8 566 852.8 566 852.7 566C850.7 566.1 849.2 566.2 848.1 566.2C848 566.1 847.9 566.1 847.9 566.1C847.6 566.2 847.3 566.2 846.8 566.2C846.7 566.1 846.4 566.1 846.3 566.1C845.7 566 845 566 844.3 566C843.9 566.1 843.4 566.1 842.9 566.1C842.8 566 842.8 566 842.6 566C842.2 565.9 842 565.9 841.7 566C841.6 566 841.4 566 841.3 566.1H841C840.9 566.1 840.7 566.1 840.6 566.2H833.9C832 566.1 831.3 566.1 831.6 566.1L818.7 566.2C818.4 566.1 818.2 566.1 818.1 566.1C816.3 566.1 815.7 566.1 816.2 566.2C816.1 566.2 815.8 566.2 815.4 566.1H810.5C810.1 566 809.6 566 809 566C808.4 566 807.5 566 806.4 566.1L806.3 566C806.7 566 806.4 566 805.7 566.1H804.8C804.4 566.1 803.9 566.1 803.3 566H801.9L796 566.2C795.5 566.2 793.9 566 793.2 566C792.8 566.1 792.1 566.1 790.9 566.2C790 566.3 789.5 566.3 789.1 566.1V565.9L788.7 565.5C787.8 565.6 787.2 565.5 786.6 565L785.5 565.2C785.4 565.1 785.1 565.1 784.7 565C784.6 565 784.6 565 784.6 564.9H784C783.9 564.8 783.4 564.4 782.6 564C782.2 564.1 781.6 562 781.2 561.1H780.8C780.7 561 780.4 560.4 780.3 559.4C780.3 559 779.3 558.9 779.3 558.5C779.2 558.2 779.3 558 779.6 557.8L779 555.1C778.6 555 778.4 553.7 778.2 551.4C778.2 551.3 778.2 551 778.1 550.8V549.3C778.2 548.7 778.2 547.7 778.4 546.1C778.5 546.1 778.4 544.5 778.4 544.5C778.3 543.9 779.3 543.5 779.3 543.5C779.3 543.4 779.3 543.1 779.8 542.1C780.2 542.1 780.3 541.5 780.4 540.2C780.4 540.1 780.7 539.2 780.7 538.8H781L781.2 538.7C781.5 538.6 781.6 538.6 781.6 538.5C781.7 537.8 781.9 537.1 782.2 536.8C782.6 536.8 783.1 536.7 783.8 536.6C783.9 536.5 784.1 536.2 784.4 536C784.5 536 784.7 535.9 785 535.7L785.1 535.6C785.6 535.2 786.3 534.9 787 534.7C787.2 534.7 787.8 534.8 788.5 534.9C788.6 534.8 789.5 534.5 791 534.4C791.4 534.4 791.9 534.4 792.4 534.3H797.5L797.6 534.2H798.9C799 534.2 799 534.2 799 534.1C799.4 534 799.8 534 800.4 534.1C800.5 534.1 800.8 534.1 801 534.2H801.8C801.5 534.2 801.7 534.2 802.3 534.1C802.7 534 803.7 534 805.1 534.1C805.2 534.3 805.5 534.3 805.7 534.4ZM859.9 572.1H863.2C863.8 572.1 864.7 572.2 865.8 572.5C865.9 572.9 866.1 573.2 865.9 573.9L865.6 575.3V577.4C865.6 578 865.6 578.4 865.5 578.8V579.2C865.5 579.3 865.9 580.2 865.9 580.6C865.8 580.7 865.8 580.9 865.6 581.2H865.5C865.4 581.6 865.2 581.7 865.1 581.8L864.7 581.9C864.3 582 864.2 582.3 864.1 582.4C863.7 582.5 863.2 582.5 862.5 582.4H858.1C857 582.3 856.6 582.3 857 582.3L855 582.5C854.1 582.3 852.7 582.1 851 582C850.4 581.3 850.1 580.5 850.1 579.8C850.1 579.7 850.1 579.6 850.2 579.3V578.9C850.2 578.3 850.2 577.5 850.3 576.5C850.7 576.3 851.6 576.1 852.8 576.3C852.9 575.9 852.8 575.6 852.6 575.2C852.3 575.2 852.2 575.3 852.1 575.5L852 575.8C851.6 575.9 851.4 576 851.2 576C850.4 576 850.1 575.5 850.1 574.6C850.2 574.4 850.2 574.2 850.2 574.1L850.5 574V573.7L851.5 572.8C851.8 572.7 852.4 572.8 853.4 572.9C854.2 573 854.8 572.9 855.2 572.5C855.3 572.5 855.6 572 856 572C857.7 572 859.1 572 859.9 572.1ZM768 581.5C767.4 581.9 765.3 582.1 761.4 582.3C760.4 582.3 756.5 582.9 754.9 582.9L752.2 582.5C752 582.5 751.6 582.5 751 582.7H750C750.2 582.7 749.8 582.7 748.4 582.5C747.8 582.5 746.6 582.3 745.7 582.5C745.5 582.7 744.9 582.7 744.3 582.9C743.7 582.9 742.7 582.5 742 582.5H740.6C740.2 582.7 739.4 582.7 738.3 582.9C738.1 582.9 737.5 582.9 736.9 582.7H731.4C731.2 582.5 731 582.5 730.4 582.3C729.8 582.5 729 582.5 727.9 582.5C727.7 582.3 727.1 581.9 726.3 581.7C726.1 581.3 725.9 580.7 725.9 579.7V579.3L725.7 579.1C725.9 578.9 725.9 578.5 725.9 577.7C725.9 575.9 725.9 575.3 725.7 575.7V573.9C725.9 571.9 725.9 569.1 725.9 565.2C725.7 565 725.7 564.4 725.7 563.8V562.8C725.5 562 725.5 561.8 725.5 562.2C725.9 560.4 726.1 559 726.1 558.2V556.8C725.9 555.8 725.9 555.4 725.9 555.2C726.1 553 726.1 550.9 726.1 549.3C725.9 546.3 725.9 544.9 725.9 544.7C726.1 543.7 726.1 543.5 726.1 544.1C726.1 543.1 725.3 539.6 725.3 537.8C725.5 537 725.9 535.8 726.1 534.2C726.1 535.2 726.1 534.4 725.9 532.2V530.2L725.5 527.8V526.4C725.7 525.8 725.7 525.2 725.7 525V523.6C725.5 523 725.5 522.4 725.5 522.2C725.7 514.3 725.7 507.9 725.5 502.8C725.3 496.5 725.3 493.3 725.3 493.1L725.5 487.2C725.5 487 725.5 486.8 725.3 486.2V485.2C725.3 486 725.3 485.4 725.5 483.6V461C725.5 460.4 725.3 458 725.1 453.7C724.9 452.5 725.1 447.4 725.6 445.4C725.7 445 725.5 443.5 726 442.8C726.4 442.3 727.2 441.8 727.4 442C727.6 441.4 728.7 441.9 729.9 441.7L732 441.6C733.2 441.4 734.6 441.5 736.2 441.7H737C737.2 441.9 737.4 441.9 737.6 441.9H738.4C738.6 441.7 738.8 441.7 739 441.7H742.1C745.8 441.5 747.2 441.5 746.6 441.5C747.6 441.7 748 441.7 748 441.7L748.2 441.5C748.4 441.5 748.6 441.5 749 441.7L752.7 441.5C752.8 441.6 752.9 441.7 753.1 441.7C754.1 441.5 754.5 441.5 754.1 441.5H756.3C757.1 441.5 758.2 441.7 758.4 441.9C758.6 442.5 759.5 442.3 760 441.9C760.3 441.6 760.8 441.5 761.2 441.5C762.2 440.9 763.7 442.1 764.8 441.9C765.8 441.9 766.6 442.7 767.3 444.5C767.3 445.3 767.7 448 767.5 449C767.3 449.8 767.3 452.6 767.1 453.2C766.9 454 766.4 455 765.4 455.2H762.7C762.5 455.4 761.9 455.6 760.9 455.6C760.3 455.6 759.5 455.2 758.9 455.2C758.1 455.4 756.9 455.5 755.3 455.7H748.1C747.7 455.9 747.3 456.3 747.1 456.7V457.3C746.9 457.1 747.1 457.5 746.9 457.5V458.1C746.9 459.5 746.7 461.3 746.5 463.8C746.3 464 746.3 464 746.3 464.2C746.3 463.2 746.3 463.8 746.5 465.6C746.7 467.8 746.7 470.8 746.5 474.5L746.3 474.9C746.5 475.1 746.5 475.3 746.5 475.9C746.3 476.5 746.3 477.5 746.1 478.7C746.1 478.9 746.1 479.3 746.3 479.9V481.1C746.1 483.1 746.1 484.9 746.1 486.3C746.3 486.9 746.3 487.9 746.5 489.3C746.3 490.7 746.3 492.5 746.3 495.2L746.9 497.4H748.1C750.2 497.2 751.8 497.2 752.8 497.4C755.9 497.6 757.3 497.6 757.1 497.8H757.5C757.7 497.4 758.1 497.2 758.5 497.2C759.1 497.2 759.7 497.8 759.9 498C760.5 498 761.5 498.2 762.6 498.8C763.4 499.6 763.8 501.6 763.8 501.8C763.6 502.6 763.6 503.4 763.8 504C764.2 507.4 764 509.7 763.4 510.7V510.9C763.2 511.5 762.4 512.1 760.5 512.7H760.1C759.9 512.9 757.4 513.1 752.7 513.3C752.5 513.5 752.3 513.5 752.1 513.5H751.5C751.3 513.3 750.9 513.3 750.7 513.3C750.1 513.3 746.4 513.1 745.8 515.3L745.6 515.5V517.1L745.4 517.3C745.6 516.9 745.6 518.1 745.8 520.9V522.3L745.4 525.1C745.4 524.5 745.4 525.3 745.6 527.5V529.1C745.8 530.1 746 530.9 746 531.7V532.9C746 533.1 746 533.1 746.2 533.3V534.7C746 535.1 746 535.5 746 535.7L745.6 540.1V540.5L745.4 540.7C745.4 539.1 745.8 543.5 745.8 545.8C746 550.4 746.2 552.5 746.2 551.9L745.6 554.7C745.6 554.5 745.8 556.3 746 560.2C746.2 560.2 746.2 560.2 746.2 560.4V561.4L746.4 561.6V562.2C746.2 562.4 746.2 562.6 746.2 562.8V564C746.2 564.2 746.2 564.4 746 565C746 564.8 746 565 746.2 566C746 566.6 746.6 567.2 746.8 567H751.7C753.1 567 755.2 567.2 757.6 567.4C758.2 567.4 758.8 567.4 758.8 567.6C759.4 567.6 759.9 567.4 760.5 567.4C760.5 567.4 761.3 567.3 763 567.9C763.6 567.7 764.8 568 766.3 568.2C766.5 568.2 766.5 568.2 766.7 568.4L767.1 568.8H767.5C767.7 569.2 767.7 569.6 767.9 569.8L768 570.5L768.1 570.2L768.3 570.9C768.3 571.1 768.3 572.2 768.7 574.8C769 577.2 768.6 579.5 768 581.5ZM690.1 480.7V478.1C690.3 477.5 690.3 476.9 690.3 476.7C690.3 476.1 690.3 474.7 690.1 472.4C690.1 471.8 690.1 470.4 690.3 468.2C690.3 466.8 690.3 465.4 690.1 463.9C690.3 463.3 690.3 462.1 690.1 460.7L688.7 456.3C688.1 455.7 687.1 455.1 685.8 454.3C685.4 454.7 684.6 454.9 683.5 454.9C682.9 454.9 681 454.1 680.2 454.1L678.4 455.3C678.6 457.3 678.4 459.5 678.2 461.8V465C678.2 465.6 678.2 466 678.4 466.4V467.8C678.4 468 678.4 468.2 678.2 468.4V469.2C678.2 471.4 678.6 477.1 678.6 479.5C678.4 480.1 678.4 481.1 678.4 482.3C678.4 482.5 678.4 482.9 678.6 483.5V485.3C678.4 485.5 678.4 485.7 678.4 485.9C678.2 488.1 678.2 490.3 678.4 492.8C678.2 493.6 678.2 494.6 678.2 496C678.4 496.2 678.4 496.2 678.4 496.4V497.2C678.4 498 677.8 500 677.8 500.8C679.2 500.8 680.9 500.8 682.7 500.6C683.3 500.8 684.3 500.8 685.8 500.6L688.3 499.2C688.3 498.6 690.1 494.3 690.1 492.1V485.2C690.3 483.6 690.3 482.4 690.3 481.8C690.3 481.7 690.3 481.3 690.1 480.7ZM711.1 582.5C708 582.3 704.9 582.3 701.7 582.3C698.2 582.5 695.8 582.5 695.6 582.3V582.1C694.8 582.1 693.8 582.5 692.7 582.3L691.9 581.5C691.7 581.5 691.7 581.5 691.7 581.3C691.1 579.5 691 576.2 690.8 571.4V571.2C690.6 571 690.6 570.8 690.6 570.6C690.8 570.4 690.8 570.2 690.8 570.4L690.4 568.6C690.6 567.8 690.6 566.6 690.6 565L689.6 560.6C689.6 560.4 689.6 559.8 689.8 558.8C689.8 558.6 690 558 690.2 557C690.4 556.4 690.4 556 690.2 555.6C690.2 555.4 690.2 555 690 554.6L690.2 554.2C690.2 554 690.2 553.4 690 552.6V550.4C690 550 690 549.4 690.2 548.4C690 547.8 690 547.2 690 546.2C690 546 690 545.6 690.2 545.2C690 538.7 690 532.5 690.2 526.6C690.2 523 690 520.3 689.6 518.9C688.8 518.3 687.6 517.5 685.7 516.5H681C679.8 516.3 679 516.7 678.7 517.3V517.5C678.5 518.1 678.5 518.5 678.7 518.9C678.9 520.7 678.9 522.7 678.9 525V525.4C679.3 526.8 679.3 528.2 678.9 529.4V531.4C678.9 530.8 678.9 532.8 678.7 537.9C678.5 541.1 678.5 543.1 678.7 544.2C678.9 544.2 678.9 544.2 678.9 544.4C678.7 544.6 678.7 545.2 678.9 545.8L678.3 553.1V553.7C678.7 554.9 678.7 555.9 678.5 556.9C678.1 558.1 678.1 559.7 678.3 561.7C678.5 562.7 678.5 563.9 678.3 565.3C678.3 566.3 678.3 567.1 678.5 568.1C678.7 568.3 678.9 568.7 678.9 570.5C678.9 571.5 678.1 574.3 678.1 575.8C678.5 577 678.8 579.7 678.5 581.5C678.3 582.8 675.4 581.9 669.9 582.5L669.7 582.3L669.1 582.7C668.5 582.5 665.4 582.5 666.4 582.5C665.2 582.5 660.7 583.5 658.8 582.3C657.9 581.8 658 575.4 658.2 574.4V567.3C658.4 565.3 658.4 563.9 658.2 563.1V558.9L658.4 558.7C658.2 558.3 658.2 557.3 658.2 555.5V554C658 553.6 658 553.2 658 553L658.4 550.4C658.4 550.2 658.4 549 658.2 546.6C658 545.2 658 544.4 658.2 544.2C658.4 543.2 658.6 540 658.4 534.3C658.4 534.1 658.4 533.7 658.6 533.3C658.6 533.1 658.6 532.9 658.4 532.7V532.3L658.8 529.7C658.8 529.1 658.6 528.1 658.4 527.1C658.4 526.9 658.4 526.5 658.6 526.3L658.4 526.1C658.2 525.7 658.2 524.1 658.4 521L658.6 520.6C658.4 520.4 658.4 520.2 658.4 520.2C658.6 520 658.8 518.4 659.2 515.4L660.2 512.2C660.2 511.6 660 510.6 659.6 509.4C659.4 509.2 659.4 509 659.6 509C659.8 508.8 659.8 508.4 659.8 508.2C659.8 507.6 659.4 506.4 659.2 505.4C659 504.6 659 503.6 659.2 502.4L659.6 497.1C659.6 496.5 659.6 495.9 659.4 494.9C659.6 495.5 659.6 494.1 659.6 491.1C659.6 490.1 659.6 488.9 659.4 487.3C659.2 485.9 659.2 484.9 659.4 484.1C659.6 482.9 659.8 481.9 660.2 481.3C660 480.7 659.8 479.7 660 478.7C660.2 477.5 660.2 476.5 660.2 475.7L659.6 474.5L660 473.9L659.6 473.5V470.9C659.8 470.5 660 470.3 660 470.1C659.8 470.1 659.6 468.5 659.6 465.5V462.7L659.2 458.5V456.5C659.4 455.7 659.4 455.1 659.4 454.7V451.7C659 447.7 659.2 445 660 443.8C661 443.2 663.3 442.8 666.3 442.6C668.1 442.8 670.8 442.8 674.3 442.6C674.7 442.4 675.1 442.2 675.3 442.2C675.1 442.2 676.3 442.2 679 442.4H679.4L681 442.8H681.4C681.6 442.6 681.8 442.6 682 442.6H685.1C685.7 442.6 686.5 442.6 688 442.8H688.8C688.8 443 689 443 689.2 443.2C689.4 443 689.8 443 690.4 443.2C692.2 443.2 695.5 444.2 696.1 445C696.9 445.6 698.4 447.2 701.8 447.2C702.2 447.8 702.8 448.4 703.8 449.2C704 449 704.2 449 704.4 449.2V449.4C705 450 705.6 450.6 706.2 450.8L708 454.4C708.2 454.6 708.2 454.6 708.4 454.6C708.2 454.8 708.2 455.2 708.4 455.6C708.6 455.6 708.6 455.8 708.6 456V456.4L709 457V457.2C709.2 457.4 709.6 458.8 709.8 461.3C710 461.9 710 462.9 710.2 464.1C710 464.7 710 465.5 710 466.9C710.2 467.3 710.4 468.3 710.6 469.7C710.8 470.3 710.8 471.3 710.6 472.5C710.4 472.9 710.4 473.7 710.2 475.1C710.4 478.9 710.2 484.8 710 492.7C710 493.7 709.8 495.5 709.4 497.9C709.4 498.1 709.2 498.3 709 498.5L708 501.9C707.8 501.7 707.8 501.7 707.6 501.9V502.1C707.2 502.7 706.8 502.9 706.4 502.9L705.6 504.3C705.6 504.9 705.2 505.1 705 505.3V505.7C704.2 506.3 702.8 506.9 700.9 507.7C700.5 507.7 700.1 507.9 699.5 508.3C699.7 508.1 700.7 509.1 702.8 511.3C703.8 512.1 704.6 512.9 705.3 513.7C705.3 513.9 706.1 514.5 707.1 516.9L708.1 517.9C707.9 518.3 708.1 518.7 708.5 519.1C708.5 519.9 709.5 523.4 709.5 524.2C709.5 526 709.5 527.2 709.7 527.8C709.5 528.2 709.5 528.8 709.5 529.8C709.5 530.2 709.5 530.8 709.7 531.8C709.7 532 709.7 533.2 709.5 535.4C709.7 535.6 709.7 536 709.7 536.6C709.5 537.2 709.5 537.8 709.5 538.6L709.9 541.4C709.7 541.4 709.7 541.4 709.7 541.6V542.6C709.5 548 709.7 554.7 709.9 562.2L711.3 571.9C711.5 573.1 712.1 574.1 712.3 575.1C713.3 580.1 712.7 582.2 712.8 581.8C713.1 582.1 712.5 582.3 711.1 582.5ZM647 531.4C647 532 647 532.4 646.8 532.8V540.3C646.6 540.7 646.4 541.1 646.4 541.7C646.6 541.9 646.6 542.1 646.8 542.7C646.6 543.7 646.6 544.9 646.8 546.7V555.8C647.2 558.2 647 561.3 646.4 565.1V565.7L646 566.1C646 566.9 646 567.9 645.8 569.3C645.6 569.3 645.4 569.5 645.4 569.7V569.9C644.4 570.9 644.2 571.9 644 573.5C643.8 573.5 643.4 573.9 643 574.7C642.4 574.9 641.8 575.7 641 577.1C640.6 577.3 640 577.9 639.4 578.7C638.6 578.9 637.6 579.7 635.1 580.7C635.1 580.9 635.1 580.9 634.9 580.9H634.3C634.3 581.1 633.7 581.3 632.7 581.5L632.5 581.7H632.3L629.8 582.3H629C627.8 582.3 625.5 582.3 622 582.5H621.6C620.2 582.7 618.9 582.9 617.9 582.7C617.7 582.7 617.7 582.7 617.7 582.5C616.7 582.5 615 582.3 612.8 581.9L612.4 581.7C610.6 581.5 608.5 580.7 606.3 579.7H605.9C605.5 579.7 605.1 579.5 604.9 579.1H603.9V578.7C603.7 578.7 603.3 578.3 602.7 577.7C602.3 577.7 601.7 577.1 600.9 576.1C600.9 576.1 600.1 575.1 598.2 573.1V572.7C598 572.7 597.8 572.7 597.8 572.5L597.4 571.7C597.4 571.5 597.4 571.5 597.2 571.3V571L595.8 568.2C595.8 567.2 595.6 566 595.4 564.4C595.4 564.2 595.4 564 595.2 563.8V563.6L595.4 563.4V563L595.2 562.8V561C595 560.4 595 559.4 595 558.2V557.6C594.8 557.2 594.8 557 594.8 556.8C594.8 556.6 594.8 556.4 595 556V550.6C595 549.6 595 549.4 594.8 549.6C595 549.2 595 547.6 595 544.8C595 539.3 595 535.1 594.8 532.1C594.6 529.1 594.6 527.3 594.8 526.4C595 526.2 595 526.2 595 526C595 525.4 595 524.4 594.8 523C595 522.4 595 521.4 595.2 520.2C595.2 520.8 595.2 520.4 595 519V517.6L594.8 513.4L595.2 511.8C595 511.2 595 510 595 508.6V507C595 508.8 595.2 505.2 595.4 496.5V494.1C595.2 491.9 595.2 490.9 595.2 491.5V489.9C595.4 489.1 595.4 488.5 595.4 488.3V481.8C595.4 481.6 595.4 481.4 595.6 481.2V480.4C595.6 480.2 595.6 479.6 595.4 479V475.8C595.4 475.4 595.4 474.8 595.6 474.2V472.8C595.4 472.2 595.4 471.2 595.4 469.8C595.6 469.6 595.6 469.2 595.6 468.6V467.8C595.4 467.6 595.4 467.4 595.4 467.2C595.6 466.8 595.6 466.2 595.6 465.6V460.6C595.4 460.4 595.4 460.4 595.4 460.2C595.6 459.6 595.6 459 595.6 458V448.3C595.6 447.9 595.8 447.1 596 445.7C596 445.1 596.2 444.1 596.6 443.1C596.8 442.5 598.9 442.1 602.7 442.3C602.7 442.5 602.7 442.5 602.9 442.5H604.7C605.7 442.3 606.3 442.3 606.8 442.3C607 442.3 607.4 442.3 607.6 442.5H608.6C610 442.3 612.1 442.5 614.5 442.9C615.1 444.3 615.3 445.3 615.1 445.7L614.9 445.9L615.5 448.7C615.3 449.7 615.3 450.9 615.3 452.7C615.5 452.9 615.5 452.9 615.5 453.1V453.9C615.5 454.9 615.5 456.1 615.3 457.5V462.1L615.1 462.3C615.3 463.5 615.3 464.9 615.3 466.5C615.5 466.9 615.3 467.7 615.1 468.7C614.9 469.5 614.9 470.5 615.1 471.5C615.3 471.9 615.3 471.9 615.3 471.7C615.3 471.5 615.3 471.7 615.1 472.3C615.3 472.5 615.3 472.7 615.1 473.1C614.9 473.9 614.9 474.3 614.9 474.3C615.1 474.5 615.1 474.7 615.1 474.9C615.3 475.7 615.3 476.3 615.3 476.9C615.1 477.7 615.1 478.9 614.9 480.3C614.9 481.1 615.3 482.9 615.3 483.7C615.5 484.3 615.5 486.5 615.3 490.4C615.3 491.4 615.1 493.4 614.9 496.5C614.9 495.1 614.9 496.1 615.1 499.5V502.5C615.3 506.7 615.3 509.6 615.1 510.6C615.1 510.8 615.1 511 614.9 511.4V515.4C615.1 516 615.1 516.8 615.3 518C615.1 521.8 614.9 527.3 614.9 534.6C615.1 535 615.1 536 615.3 537.4C615.5 538.4 615.5 539.6 615.3 541.2C615.1 543.6 615.1 545 615.1 545.2V549.2C615.1 549.4 615.1 549.8 615.3 550.2V551C615.3 551.2 615.3 551.6 615.1 551.8C615.3 553 615.5 554.8 615.5 557.5V558.1C615.3 559.1 615.1 559.7 615.1 560.1L615.9 564.1L616.9 565.1C617.1 565.3 617.1 565.3 617.3 565.3V565.7C618.3 566.7 619.1 567.1 620 567.1C621 567.3 622.1 567.1 623.1 566.7L623.5 566.3C623.7 566.1 623.9 565.9 624.5 565.7L625.1 564.7C625.3 564.7 625.3 564.7 625.5 564.5C626.1 563.5 626.3 561.9 626.5 559.2C626.5 559 626.5 558.8 626.7 558.6V558C626.5 558 626.5 558 626.5 557.8V557C626.7 555.6 626.7 554 626.7 551.7C626.7 551.5 626.7 550.5 626.5 549.1V545.1L626.9 543.3C626.9 543.3 626.9 542.9 626.7 541.9V541.1C626.5 540.1 626.5 539.1 626.5 537.7C626.5 537.1 626.5 536.1 626.3 534.9V532.1C626.5 531.1 626.5 529.7 626.7 527.7V519C626.7 518.6 626.7 517.6 626.5 516.2V512C626.5 512.4 626.5 511.2 626.7 508.2V501.9C626.9 501.9 626.9 501.9 626.9 501.7C626.7 500.9 626.7 500.5 626.7 500.7C626.5 499.3 626.5 497.5 626.7 494.8C626.9 492.8 626.9 489.9 626.7 486.5C626.7 485.5 626.7 484.3 626.9 482.4C626.7 482.4 626.7 482.4 626.7 482.2V480.8C626.9 480.6 626.9 477.6 626.9 471.7V469.7C627.1 468.7 627.1 468.1 627.1 467.7C627.1 467.5 627.1 466.7 626.9 465.7C626.9 464.3 626.9 462.9 627.1 461.7V452.4L626.9 452.2V450.6C626.9 449.6 626.9 449 627.1 448.4C627.3 448.4 627.3 448.4 627.3 448.2V447.6C627.7 447.4 627.9 446.6 627.7 445.6C627.5 444.4 627.5 443.6 627.7 443.2C628.5 442.2 629.7 441.8 631.2 441.8C632.2 441.8 634.9 442.2 635.9 442.2C637.5 442 640 442 643.3 442.2H644.3L645.9 443.2C646.1 443.4 646.1 444.2 646.3 446C646.5 446 646.5 446 646.7 446.2V449.2C646.5 450.2 646.1 451.4 645.9 453C646.1 454.4 646.1 456.2 646.3 458.9C646.1 459.7 646.1 460.3 645.9 460.7C645.7 461.9 645.7 462.7 645.9 463.1C646.7 466.7 646.9 469.8 646.7 472.2C646.5 472.4 646.5 472.8 646.3 473.4V475.2C646.5 477 646.5 478.8 646.3 480.6C646.1 480.6 646.1 480.6 646.3 480.8C646.3 482.6 646.7 485 646.7 486.5V487.5C646.5 487.7 646.5 488.3 646.3 489.1V491.9C646.5 492.1 646.5 492.7 646.7 493.9C646.5 495.7 646.5 498.1 646.7 501V501.6C646.5 502.2 646.5 502.4 646.7 502.6V504C646.5 504 646.5 504 646.3 504.2V504.8C646.1 505 646.1 505.6 646.3 506.6C646.3 507.2 646.5 508 646.7 509C646.7 509.8 646.3 511.8 646.3 512.6C646.3 514 646.7 518.3 646.7 520.1C646.5 521.1 646.5 521.7 646.5 522.3C646.3 522.7 646.3 522.7 646.3 522.1L646.7 526.1V526.3C646.9 525.7 646.9 526.9 646.9 529.9V531.4H647ZM585 451.7C585 451.7 584.6 452.5 584 453.9L583.4 455.5C582.4 455.5 579.7 456.5 578.7 456.5L575.8 455.5C575.6 455.3 575.2 455.3 574.2 455.5C572.6 455.7 571.5 456.7 571.1 458.5C571.1 458.9 571.1 459.5 570.9 460.5L570.5 462.1C570.5 463.1 570.9 465.9 570.9 466.8C570.9 467.2 570.9 468.4 570.7 470.2V472.6C570.5 472.8 570.5 473.2 570.5 473.4C570.5 474.4 570.9 477.2 570.9 478.3L570.3 483.2L570.7 490.5C570.7 490.9 570.5 491.9 570.3 493.5C570.1 494.5 570.3 495.5 570.5 496.5C570.7 496.5 570.7 496.5 570.7 496.7V507C570.5 507.6 570.5 508.2 570.5 508.4C570.5 508.6 570.5 509.2 570.7 510V521.3C570.9 522.7 571.1 523.3 571.1 522.9L570.1 526.5V527.5C570.3 528.1 570.3 528.5 570.3 528.7C570.1 529.1 570.1 529.7 570.1 530.7C570.5 531.5 570.9 532.5 571.3 533.9C571.3 534.5 570.7 536.5 570.7 537.3L571.3 541.8C571.1 543.2 570.9 544.2 570.5 545.2C570.5 545.8 571.1 547.4 571.1 548C571.1 547.6 570.9 548.4 570.7 550.6C570.5 551.2 570.5 551.8 570.7 552.2C570.7 554.4 570.9 557.7 571.1 561.9C571.3 564.5 571.1 568.6 571.1 568.6C570.6 572.6 571.3 576.5 570.9 577.6C570.4 579 571.2 582.1 570.2 581.9L563.2 582.6H562.2C561.8 582.4 561.2 582 560.1 581.8C559.5 581.8 557.9 582.6 557 582.6C556.4 582.6 555.6 582.4 554.5 581.8H552.9C551.9 581.4 551.5 580.4 551.3 579C551.5 577.6 551.5 575.8 551.3 573.3C551.1 571.3 551.1 570.5 551.1 570.9V569.3C551.3 567.9 551.5 567.5 551.5 568.1C551.3 567.3 550.9 566.3 550.7 564.9C550.7 563.9 550.9 563.3 551.1 562.7C551.3 562.7 551.3 562.7 551.3 562.5C551.5 561.1 551.5 559.3 551.5 557.4V553.1C551.9 551.5 552.1 550.1 552.1 549C551.9 548.8 551.7 547.6 551.5 544.1C551.5 543.9 551.5 543.9 551.3 543.7V540.9C551.5 539.9 551.5 539.3 551.3 538.9C551.1 538.1 551.1 537.5 551.1 537.1V537L551.5 534.6C551.5 535.2 551.5 534 551.3 530.5C551.5 529.9 551.5 529.1 551.5 527.9C551.5 527.5 551.3 526.9 551.1 525.9C551.3 525.7 551.3 525.5 551.3 524.9C551.3 524.7 551.3 524.5 551.1 524.3C551.1 523.7 551.1 522.7 551.3 521.3C551.3 521.1 551.3 520.5 551.1 519.7C551.1 519.7 551.5 519.3 551.5 518.7C551.3 518.5 551.3 518.1 551.3 517.7C551.3 517.3 551.5 516.7 551.7 515.9C551.5 515.3 551.3 513.9 551.1 511.4V506.3C551.3 505.1 551.3 503.9 551.1 502.4V495.9C551.1 495.7 550.7 494.7 550.7 494.5L551.3 490.2C551.3 490.8 551.3 490.2 551.1 488.6C551.3 488.4 551.3 487.8 551.1 487.2C550.9 486 550.7 484.8 550.7 483.6L551.3 479.7C551.5 478.7 551.5 477.5 551.3 476.1C551.1 473.9 551.1 472.5 551.1 472.3C551.1 469.3 551.1 468 551.3 468.7C551.3 468.1 551.1 467.3 550.7 466.7L551.1 465.7V464.3C551.1 463.7 550.9 463.1 550.7 462.1C550.9 460.9 550.9 459.1 550.7 456.8C550.5 456.4 549.9 455.8 549.1 455.2C548.7 455 548.1 455 547.3 455.2C547.1 455.4 546.9 455.4 546.7 455.4C544.5 455.4 542.2 455.4 539.7 455.2L539.3 454.8H539C538.8 454.2 538.2 453.8 537.4 453.4C537.4 452.6 537.2 451.6 537 450.1C537 450.1 536.6 449.3 536.6 448.7C536.6 448.9 536.8 448.3 537 447.3L537.8 445.1L538.2 444.5V444.1C538.4 444.1 538.4 444.1 538.6 443.9C538.4 443.7 538.4 443.5 538.6 443.1L539.6 441.9C540.4 441.7 542.1 441.7 544.3 441.7C548.2 441.5 552.3 441.5 556.4 441.7C556.6 441.7 557.4 441.7 558.7 441.9C559.3 442.1 559.9 442.1 560.3 441.9C560.3 441.7 561.1 441.7 563.6 441.5C564.6 441.3 566.1 441.3 568.3 441.5L571.2 442.1C573.5 441.9 576.7 441.9 581.4 442.1C581.8 442.3 582.6 442.9 584.1 443.5C584.3 444.3 584.7 445 585.1 445.7C585.1 446.7 585.1 447.5 584.9 448.1C584.7 448.3 584.7 448.5 584.5 449.1L585 451.7ZM528.3 531.4C528.3 532 528.3 532.4 528.1 532.8V540.3C527.9 540.7 527.7 541.1 527.7 541.7C527.9 541.9 527.9 542.1 528.1 542.7C527.9 543.7 527.9 544.9 528.1 546.7V555.8C528.5 558.2 528.3 561.3 527.7 565.1V565.7L527.3 566.1C527.3 566.9 527.3 567.9 527.1 569.3C526.9 569.3 526.7 569.5 526.7 569.7V569.9C525.7 570.9 525.5 571.9 525.3 573.5C525.1 573.5 524.7 573.9 524.3 574.7C523.7 574.9 523.1 575.7 522.3 577.1C521.9 577.3 521.3 577.9 520.7 578.7C519.9 578.9 518.9 579.7 516.4 580.7C516.4 580.9 516.4 580.9 516.2 580.9H515.6C515.6 581.1 515 581.3 514 581.5L513.8 581.7H513.6L511.1 582.3H510.5C509.3 582.3 507 582.3 503.5 582.5H503C501.6 582.7 500.3 582.9 499.3 582.7C499.1 582.7 499.1 582.7 499.1 582.5C498.1 582.5 496.5 582.3 494.2 581.9L493.8 581.7C492 581.5 489.9 580.7 487.7 579.7H487.3C486.9 579.7 486.5 579.5 486.3 579.1H485.3V578.7C485.1 578.7 484.7 578.3 484.1 577.7C483.7 577.7 483.1 577.1 482.3 576.1C482.3 576.1 481.5 575.1 479.6 573.1V572.7C479.4 572.7 479.2 572.7 479.2 572.5L478.8 571.7C478.8 571.5 478.8 571.5 478.6 571.3V571L477.2 568.2C477.2 567.2 477 566 476.8 564.4C476.8 564.2 476.8 564 476.6 563.8V563.6L476.8 563.4V563L476.6 562.8V561C476.4 560.4 476.4 559.4 476.4 558.2V557.6C476.2 557.2 476.2 557 476.2 556.8C476.2 556.6 476.2 556.4 476.4 556V550.6C476.4 549.6 476.4 549.4 476.2 549.6C476.4 549.2 476.4 547.6 476.4 544.8C476.4 539.3 476.4 535.1 476.2 532.1C476 529.1 476 527.3 476.2 526.4C476.4 526.2 476.4 526.2 476.4 526C476.4 525.4 476.4 524.4 476.2 523C476.4 522.4 476.4 521.4 476.6 520.2C476.6 520.8 476.6 520.4 476.4 519V517.6L476.2 513.4L476.6 511.8C476.4 511.2 476.4 510 476.4 508.6V507C476.4 508.8 476.6 505.2 476.8 496.5V494.1C476.6 491.9 476.6 490.9 476.6 491.5V489.9C476.8 489.1 476.8 488.5 476.8 488.3V481.8C476.8 481.6 476.8 481.4 477 481.2V480.4C477 480.2 477 479.6 476.8 479V475.8C476.8 475.4 476.8 474.8 477 474.2V472.8C476.8 472.2 476.8 471.2 476.8 469.8C477 469.6 477 469.2 477 468.6V467.8C476.8 467.6 476.8 467.4 476.8 467.2C477 466.8 477 466.2 477 465.6V460.6C476.8 460.4 476.8 460.4 476.8 460.2C477 459.6 477 459 477 458L476.8 447.8C476.8 447.4 477 446.6 477.2 445.2C477.2 444.6 477.4 443.6 477.8 442.6C478 442 480.1 441.6 483.9 441.8C483.9 442 483.9 442 484.1 442H485.9C486.9 441.8 487.5 441.8 488 441.8C488.2 441.8 488.6 441.8 488.8 442H489.8C491.2 441.8 493.3 442 495.7 442.4C496.3 443.8 496.5 444.8 496.3 445.2L496.1 445.4L496.7 448.2C496.5 449.2 496.7 450.9 496.7 452.7C496.9 452.9 496.9 452.9 496.9 453.1V453.9C496.9 454.9 496.9 456.1 496.7 457.5V462.2L496.5 462.4C496.7 463.6 496.7 465 496.7 466.6C496.9 467 496.7 467.8 496.5 468.8C496.3 469.6 496.3 470.6 496.5 471.6C496.7 472 496.7 472 496.7 471.8C496.7 471.6 496.7 471.8 496.5 472.4C496.7 472.6 496.7 472.8 496.5 473.2C496.3 474 496.3 474.4 496.3 474.4C496.5 474.6 496.5 474.8 496.5 475C496.7 475.8 496.7 476.4 496.7 477C496.5 477.8 496.5 479 496.3 480.4C496.3 481.2 496.7 483 496.7 483.8C496.9 484.4 496.9 486.6 496.7 490.5C496.7 491.5 496.5 493.5 496.3 496.6C496.3 495.2 496.3 496.2 496.5 499.6V502.6C496.7 506.8 496.7 509.7 496.5 510.7C496.5 510.9 496.5 511.1 496.3 511.5V515.5C496.5 516.1 496.5 516.9 496.7 518.1C496.4 523.6 496.3 529.1 496.3 534.7C496.5 535.1 496.5 536.1 496.7 537.5C496.9 538.5 496.9 539.7 496.7 541.3C496.5 543.7 496.5 545.1 496.5 545.3V549.3C496.5 549.5 496.5 549.9 496.7 550.3V551.1C496.7 551.3 496.7 551.7 496.5 551.9C496.7 553.1 496.9 554.9 496.9 557.6V558.2C496.7 559.2 496.5 559.8 496.5 560.2L497.3 564.2L498.3 565.2C498.5 565.4 498.5 565.4 498.7 565.4V565.8C499.7 566.8 500.5 567.2 501.4 567.2C502.4 567.4 503.5 567.2 504.5 566.8L504.9 566.4C505.1 566.2 505.3 566 505.9 565.8L506.5 564.8C506.7 564.8 506.7 564.8 506.9 564.6C507.5 563.6 507.7 562 507.9 559.3C507.9 559.1 507.9 558.9 508.1 558.7V558.1C507.9 558.1 507.9 558.1 507.9 557.9V557.1C508.1 555.7 508.1 554.1 508.1 551.8C508.1 551.6 508.1 550.6 507.9 549.2V545.2L508.3 543.4C508.3 543.4 508.3 543 508.1 542V541.2C507.9 540.2 507.9 539.2 507.9 537.8C507.9 537.2 507.9 536.2 507.7 535V532.2C507.9 531.2 507.9 529.8 508.1 527.8V519.1C508.1 518.7 508.1 517.7 507.9 516.3V512C507.9 512.4 507.9 511.2 508.1 508.2V501.9C508.3 501.9 508.3 501.9 508.3 501.7C508.1 500.9 508.1 500.5 508.1 500.7C507.9 499.3 507.9 497.5 508.1 494.8C508.3 492.8 508.3 489.9 508.1 486.5C508.1 485.5 508.1 484.3 508.3 482.4C508.1 482.4 508.1 482.4 508.1 482.2V480.8C508.3 480.6 508.3 477.6 508.3 471.7V469.7C508.5 468.7 508.5 468.1 508.5 467.7C508.5 467.5 508.5 466.7 508.3 465.7C508.3 464.3 508.3 462.9 508.5 461.7V452.4C508.3 452.2 508.1 451.7 508.1 451.7V450.1C508.1 449.1 508.1 448.5 508.3 447.9C508.5 447.9 508.5 447.9 508.5 447.7V447.1C508.9 446.9 509.1 446.1 508.9 445.1C508.7 443.9 508.7 443.1 508.9 442.7C509.7 441.7 510.9 441.3 512.4 441.3C513.4 441.3 516.1 441.7 517.1 441.7C518.7 441.5 521.2 441.5 524.5 441.7H525.5L527.1 442.7C527.3 442.9 527.3 443.7 527.5 445.5C527.7 445.5 527.7 445.5 527.9 445.7V448.7C527.7 449.7 527.5 451.4 527.3 453C527.5 454.4 527.5 456.2 527.7 458.9C527.5 459.7 527.5 460.3 527.3 460.7C527.1 461.9 527.1 462.7 527.3 463.1C528.1 466.7 528.3 469.8 528.1 472.2C527.9 472.4 527.9 472.8 527.7 473.4V475.2C527.9 477 527.9 478.8 527.7 480.6C527.5 480.6 527.5 480.6 527.7 480.8C527.7 482.6 528.1 485 528.1 486.5V487.5C527.9 487.7 527.9 488.3 527.7 489.1V491.9C527.9 492.1 527.9 492.7 528.1 493.9C527.9 495.7 527.9 498.1 528.1 501V501.6C527.9 502.2 527.9 502.4 528.1 502.6V504C527.9 504 527.9 504 527.7 504.2V504.8C527.5 505 527.5 505.6 527.7 506.6C527.7 507.2 527.9 508 528.1 509C528.1 509.8 527.7 511.8 527.7 512.6C527.7 514 528.1 518.3 528.1 520.1C527.9 521.1 527.9 521.7 527.9 522.3C527.7 522.7 527.7 522.7 527.7 522.1L528.1 526.1V526.3C528.3 525.7 528.3 526.9 528.3 529.9V531.4ZM465.7 447.7H465.5C465.5 449.3 465.3 451.7 464.9 455.2C464.3 455.4 462.8 455.6 460.6 455.6C453.6 455.4 449.5 455.4 448.5 455.6C446.7 455.6 445.8 456.2 446 457.6C446 457.8 446 457.8 446 457.6C446 462.3 445.8 461.4 446 462.3V469L446.4 471.8L446.6 472C446.8 472.6 446.8 473.4 446.6 474L446 479.1C446 479.3 446 480.1 446.2 481.5C446.4 481.7 446.4 481.9 446.4 482.3C446.4 481.9 446.4 482.1 446.2 483.1C446 484.5 446 485.7 446.2 486.5C446.6 487.5 446.8 488.3 446.8 488.9C446.8 489.7 446 490.1 446 491.9V494.3C446 495.7 445.8 496.5 445.2 496.7C445.2 496.9 445.4 497.1 446 497.5L446.4 497.9C447.2 497.9 449.3 497.5 450.1 497.5H452.4C455.5 497.7 457.1 497.9 457.3 497.9C459.4 497.7 460.2 497.7 459.8 497.5C460.4 497.7 461 498.3 461.4 498.9C462 498.7 462.4 498.5 462.6 498.5C463.2 498.5 463.4 498.7 463.6 499.3C463.4 500.3 463.4 501.5 463.4 503.1C463.6 503.3 463.6 503.5 463.6 503.3V505.5H463.4L463 507.5C463.2 507.5 463.4 507.9 464 508.7C464.2 508.9 464.2 509.7 464 510.9L462.2 512.9L461.6 513.3L459.8 513.5C457.7 513.7 454.5 513.7 450 513.5H446.7C446.1 513.7 445.9 513.9 446.1 513.9L445.7 514.7V520.8C445.9 522.2 446.1 523.4 446.1 524.2V530.3C445.9 530.3 445.7 530.5 445.7 530.9V532.3C445.7 532.3 445.3 533.1 445.3 533.3L445.7 534.1V534.7C445.9 537.7 446.1 541.6 446.1 546.2V561.7L446.5 562.3L446.3 565.9C446.5 567.5 446.3 569.7 446.1 572.8L445.7 574C445.9 574.4 445.9 575 446.1 575.8C445.9 576.2 445.7 576.8 445.7 577.6V578.4C445.7 580.2 444.5 580.8 442.8 582C442.6 582.2 439.9 582.2 434.4 582C431.9 582 429.5 582 426.8 581.8C426.8 581.6 426.6 581.4 426 581.2C425.4 579.4 425.2 578 425.2 577V576.8C425.4 576.2 425.4 575.6 425.4 574.6V569.4C425.4 566.8 425.4 566 425.6 567C425.6 566.8 425.4 566.2 425.2 565.2C425 564.6 425 564 425.2 563.2C425.4 563 425.4 562.2 425.6 561C425.6 561.2 425.6 561 425.4 560C425.6 559.4 425.6 558.2 425.6 556.8H425.4V556.2C425.4 556.2 425.4 556 425.2 555.8V555C425.4 554.4 425.4 553.6 425.4 552.6V547.8C425.6 546.8 425.6 545.4 425.8 543.3C425.8 541.9 425.2 538.5 425.2 537C425.4 537.6 425.4 533.2 425.6 523.9C425.6 520.9 425.6 517.2 425.4 513.4C425.2 512 425.2 511 425.4 510V509C425.6 508 425.8 506.2 425.6 503.7V501H425.8V500.6C425.6 501.6 425.6 500 425.6 495.8C425.6 495 425.6 493.4 425.8 491C426 489 426 487.4 426 486.4V485.6C425.8 485.4 425.8 485.2 425.8 485C426 484.8 426 484.4 426 483.8L426.2 483.6C426.4 482.6 426.2 481.4 425.8 480V474.9C425.6 474.3 425.6 473.1 425.4 471.7C425.4 472.5 425.4 471.9 425.6 470.1C425.8 469.3 425.8 467.3 425.6 464.2V458.5C425.6 456.3 425.6 454.7 425.4 453.4V452.8C425.6 452 425.6 451.8 425.6 452V451.2C425.8 451 425.6 450.8 425.4 450.6V450C425.4 449.8 425.4 449.8 425.2 449.8C425.2 448.4 426 446.5 425.7 444.9C425.5 443.9 425.3 442.9 425.3 442.3C425.5 441.9 425.9 441.9 426.3 442.1L427 441.9L427.4 441.7L427.6 441.5C428 441.3 428.8 441.3 429.9 441.5C430.9 441.5 433.6 442.1 434.2 441.7H434.4L434.6 441.5H435.8C436 441.7 436.2 441.7 436.8 441.9H438C439.6 442.1 440.5 441.9 440.7 441.7C441.7 441.5 442.3 441.3 442.7 441.3V441.5H443.5C443.9 441.5 444.5 441.9 445.6 442.5C445.6 442.7 446 442.5 446 442.5L446.6 442.1L447.6 441.5H448.4C448.6 441.5 449 441.3 449.8 441.9C450 441.7 451.2 441.7 453.5 441.7C456.4 441.5 458.6 441.5 460.2 441.7C460.4 441.9 461 441.9 461.8 441.9C462.4 441.7 463 441.7 463.9 441.7C464.5 441.7 464.9 441.9 465.5 442.3V445.3H465.3C465.1 445.5 465.1 445.7 465.1 446.3C464.9 446.5 465.1 446.9 465.5 447.3L465.7 447.7ZM412.9 454.1V454.8C413 455 413 455.4 413.1 455.9C413.1 456 413.1 456.3 413 456.6V459.3C412.9 459.4 412.9 459.5 412.8 459.8C412.9 460.1 412.9 460.5 412.9 461C412.8 461.1 412.7 461.4 412.6 461.8C412.4 461.9 412.2 462 411.8 462H411.6L411.5 462.1C411.4 462 411.3 462 411 462C410.3 462 410.1 462 410.2 462.1H409.5C408.7 462 407.6 462 406.2 462C406.1 462.1 405.9 462.1 405.7 462.1H405.3C405.1 462.2 405 462.2 405 462.2C404.3 462 403.8 461.9 403.5 461.9H403C402.6 462 402.5 462 402.4 462C401.6 461.9 400.8 461.9 400.2 461.9C399 462 398.5 462 398.4 462C398.2 462 398.1 461.9 398.1 461.9C397.6 461.9 396.5 462.3 395.8 462.3C395.5 462.2 395 462 394.5 461.9C394.4 461.9 394.1 461.9 393.7 462H392.9L392 462.2H391.5C391.3 462.1 391 462.1 391 462.1H390.5C390.3 462.2 390.1 462.2 390 462.2C387 462.1 384.5 462.1 382.6 462.2C380.2 462.3 379 462.3 378.9 462.3L376.7 462.2C376.6 462.2 376.5 462.2 376.3 462.3H375.9C376.2 462.3 376 462.3 375.3 462.2H366.7C366.5 462.2 365.5 462.3 363.9 462.4C363.4 462.5 362.2 462.3 360.3 462C360.2 461.8 360.1 461.6 360.1 461.5C360.1 461.3 360.1 461.1 360.2 461C359.9 460.8 359.6 460.6 359.4 460.3L359.6 459C359.5 458.3 359.5 457.6 359.5 456.9V456.5C359.6 456.4 359.6 456.3 359.6 456.2V455.8C359.5 455.7 359.5 455.6 359.5 455.5V454C359.4 452.7 359.4 452 359.4 451.8C359.5 451.3 359.5 451.1 359.5 451.1L359.4 451C359.4 450.9 359.4 450.8 359.5 450.6L359.4 448.8C359.5 448.7 359.5 448.6 359.5 448.6C359.4 448.1 359.4 447.9 359.4 448.1V447C359.4 446.6 359.6 445.9 359.7 445.8C359.9 445.7 360.2 445.6 360.4 445.3C360.2 445.4 359.9 445.4 359.6 445.2C359.5 445 359.4 444.8 359.4 444.6C359.2 444.1 359.8 443.9 359.9 443.8C359.6 443.7 359.4 443.4 359.4 442.9C359.4 442.4 359.7 442 360.4 441.7C360.7 441.7 361.7 441.3 362.1 441.4C362.2 441.5 362.3 441.8 362.4 442.4L363 442.1L363.1 441.9H363.3C363.4 441.8 363.5 441.7 363.7 441.8C364 441.9 364.2 442.1 364.3 442.6V443.9C364.4 444 364.4 444.3 364.4 444.8C364.4 445.1 364.3 445.5 364.3 445.8C364.4 446.2 364.5 446.8 364.6 447.6V451.1C364.7 451.3 364.8 451.5 365 451.6H365.2C365.3 451.6 365.3 451.6 365.3 451.7H365.5C366 451.7 366.7 451.8 367.7 451.9L367.8 452C367.6 452 367.6 452 367.8 452C367.9 452 368.1 452 368.4 451.9C369.2 451.8 370.4 451.8 371.8 451.9L372 452C372.1 451.9 372.1 451.9 372.4 451.9C372.6 452 373 452 373.5 452.1C373.6 452.1 373.7 452.1 374 452H374.5C375.3 452.1 376 452.1 376.5 452.1C376.7 452 377.1 452 377.7 451.9C378.2 452 378.9 452 379.9 452L380.7 451.7V451.1C380.6 450.1 380.6 449.3 380.7 448.8C380.8 447.3 380.8 446.6 380.9 446.7V446.5C380.7 446.4 380.7 446.2 380.7 446C380.7 445.7 380.9 445.4 381 445.3C381 445 381.1 444.5 381.3 444C381.6 443.6 382.4 443.4 382.4 443.4C382.7 443.5 383 443.5 383.3 443.4C384.6 443.2 385.5 443.3 385.9 443.6H386C386.2 443.7 386.5 444.1 386.7 445V445.2C386.8 445.3 386.8 446.5 386.9 448.7C387 448.8 387 448.9 387 449V449.3C386.9 449.4 386.9 449.6 386.9 449.7C386.9 450 386.8 451.8 387.7 452L387.8 452.1H388.4L388.5 452.2C388.3 452.1 388.8 452.1 389.9 452H390.4L391.5 452.2C391.3 452.2 391.6 452.2 392.4 452.1H393C393.4 452 393.7 451.9 394 451.9H394.5C394.6 451.9 394.6 451.9 394.6 451.8H395.1C395.3 451.9 395.4 451.9 395.5 451.9L397.2 452.1H397.4C397.3 452.1 397.3 452.1 397.4 452.1C398 452 398.7 452 399.4 451.9C401.2 451.8 402 451.7 401.7 451.7L402.8 452C402.7 452 403.4 451.9 404.9 451.8C404.9 451.7 404.9 451.7 405 451.7H405.4L405.5 451.6H405.7C405.8 451.7 405.9 451.7 405.9 451.7H406.4C406.5 451.7 406.6 451.7 406.8 451.8C406.7 451.8 406.8 451.8 407.2 451.7C407.4 451.8 407.7 451.9 407.7 452.2C407.8 452.1 407.9 452.1 408 452.2C408.1 452.1 408.1 452 408.1 451.9C408 451.9 407.9 451.8 407.6 451.6C407.6 451.5 407.6 451.5 407.5 451.4V449C407.5 448.3 407.6 447.3 407.6 446.1C407.6 445.8 407.7 445.7 407.8 445.7C407.8 445.4 407.6 445 407.6 444.7L407.9 443.5C407.8 443.2 407.8 442.6 407.9 441.9C407.9 441.8 407.9 441.8 408 441.7L408.2 441.5V441.3C408.4 441.2 408.5 441.2 408.6 441.1H408.8V441H409C409.1 441 409.6 440.9 410.6 440.7C411.4 440.6 412.3 440.8 413.1 441.1C413.3 441.4 413.3 442.4 413.4 444.2C413.4 444.7 413.6 446.6 413.6 447.3L413.4 448.6C413.4 448.7 413.4 448.9 413.5 449.2V449.7C413.5 449.6 413.5 449.8 413.4 450.5C413.4 450.8 413.3 451.4 413.4 451.8C413.5 451.9 413.5 452.2 413.6 452.5C413.1 453.3 412.9 453.8 412.9 454.1ZM413.2 487.6L413.1 488.9C413.1 489.8 413.1 490.4 412.5 490.8L412.4 491C412.1 491.2 411.7 491.3 411.3 491.3H410.8C410.6 491.3 410.5 491.3 410.3 491.2H409.2C409.1 491.3 409.1 491.5 409 491.6C408.8 491.5 408.7 491.3 408.6 491.2H407.9C407.4 491.2 406.7 491.2 406.2 491.1H405.4C405.4 491.1 405.2 491.2 405 491.2L404.4 491.6C404 491.7 403.8 491.7 403.7 491.6C403.7 491.5 403.8 491.4 403.8 491.3C403.6 491.3 403.3 491.3 403 491.2H402.5C402.5 491.1 402.4 491.1 402.3 491H402.1C402 491 402 491 402 490.9C401.9 490.9 401.7 490.9 401.4 491H400.8C400.7 491 400.6 491 400.4 490.9H399.7C399.5 491 399.5 491 399.4 491H398.6C398.1 491 397.7 491 397.4 491.1H397.2L396.1 490.9H395C394.8 490.8 394.4 490.8 394 490.8C393.9 490.8 393.7 490.8 393.6 490.9H392.7C392.6 490.8 392.4 490.8 392.2 490.8H390.3C390.2 490.8 390.2 490.8 390.1 490.7C389.4 490.8 388.4 490.8 387.1 490.9C386.9 490.9 386.6 490.9 386.3 490.8V490.7C386.2 490.8 386.1 490.8 385.8 490.7H384.1C384 490.6 384 490.6 383.9 490.6C383.8 490.6 383.7 490.6 383.4 490.7C383.2 490.8 383 490.8 382.9 490.7L381.8 490.4C381.6 490.5 381.2 490.5 380.7 490.4L379.8 490.1C379.5 490.1 378.9 490.3 378.6 490.3H377C376.9 490.2 376.7 490.2 376.5 490.1H375.7C375.6 490.2 375.5 490.2 375.2 490.3L370.7 490.4C370.2 490.4 369.7 490.3 369 490C368.7 489.9 368.5 489.8 368.4 489.5C368.3 488.6 368.2 488.4 368.1 488.7C368.2 488.3 368.2 488.2 368.2 488.3C368 488.3 367.6 488.1 367.4 488.1C367.3 488.2 367.3 488.3 367.3 488.4C367.5 488.5 367.6 488.8 367.6 489.3C367.6 489.4 367.5 489.6 367.2 489.7C367.1 489.7 367.1 489.7 367 489.8C366.5 489.8 366.1 489.7 365.5 489.6C365.3 489.5 365.1 489.5 365 489.6C364.9 489.6 364.9 489.6 364.9 489.7H364.8C364.7 489.7 364.5 489.8 364.3 489.9C364.2 489.9 363.9 490 363.4 490.1C363.2 490.1 363 490.1 362.8 490.2H361C360.6 490 360.2 489.9 360 489.9C359.8 489.9 359.5 488.8 359.4 486.6V486.4L359.3 486.3C359.3 486.2 359.3 486 359.4 485.9V484.8C359.5 484.6 359.5 484.3 359.5 483.8C359.4 483.1 359.5 482 359.6 480.8L360.8 480.4H360.9C361 480.3 361.4 480.2 361.9 480.1H365.7C365.8 480.2 366.1 480.2 366.4 480.3C366.2 480.3 367 480.3 368.8 480.2H370.2L372 480L373.5 480.3C373.6 480.3 373.9 480.3 374.4 480.2H375.4C375.6 480.2 375.9 480.2 376.3 480.3H377.7C377.9 480.4 378.2 480.4 378.6 480.5L379.1 480.3C379.3 480.1 379.6 480 379.6 480C379.8 480.1 380.1 480.3 380.4 480.6C380.6 480.6 381 480 381.2 479.7C381.1 479.4 380.9 479 380.9 478.4C380.9 477.9 381 477.6 381.4 477.3C381.4 477.2 381.3 477.1 381.2 476.9H381V476.7L380.5 476.1L380.2 475.8C380.1 475.8 380 475.9 379.8 476H379.3L378.5 475.7C378.4 475.8 378.2 475.8 377.8 475.8C377.5 475.6 377 475.6 376.3 475.7C376.1 475.8 375.8 475.8 375.6 475.8L374.5 475.5L373.9 475.7C373.8 475.6 373.8 475.6 373.6 475.7H373.4L373.3 475.8C373.5 475.8 373.1 475.7 372.3 475.5L371 475.2C370.9 475.2 370.8 475.2 370.5 475.3H370C369.7 475.4 369.2 475.4 368.7 475.3C367.6 475.2 367 475.2 366.9 475.2C366.5 475.3 366.1 475.5 365.4 475.6C365.2 475.6 364.9 475.5 364.3 475.4C364.2 475.5 364.1 475.5 363.8 475.4C363.4 475.3 363.3 475.3 363.3 475.3C363.2 475.2 363.1 475.2 363.1 475.3L362.9 475.6C362.7 475.7 362.4 475.7 362.2 475.7C362 475.7 361.7 475.7 361.3 475.6V475.4C361 475.4 360.7 475.4 360.4 475.3L359.9 474.8C359.7 474.6 359.4 474 359.4 474V473.3C359.3 473.1 359.3 472.6 359.3 471.7V469.9L359.4 469.8V469.3H359.5C359.4 469.3 359.4 469.2 359.5 469.1H359.6L359.7 468.5V467.7L359.5 467.5V467.2C359.3 466.5 359.3 466.1 359.2 466L359.4 465.7L359.8 465.4H360L360.2 465.2C360.3 465.3 360.4 465.3 360.4 465.2C360.6 465.2 361.1 465.2 361.9 465.1C363.4 465 364.3 464.9 364.8 465H368.8C369.1 465.1 369.6 465.2 370.1 465.2H371.2C371.3 465.2 371.8 465.4 372.1 465.4C372.3 465.4 372.8 465.2 373 465.2C372.9 465.2 373.2 465.3 373.9 465.4C374 465.3 374.2 465.3 374.4 465.4H375C375.8 465.1 376.2 465.4 376.5 465.4C378.7 465.2 379.7 465.2 379.8 465.2C379.9 465.3 380 465.3 380 465.3H380.9C381.2 465.2 381.5 465.2 381.7 465.3C381.9 465.3 382.4 465.3 382.9 465.4C383 465.4 383.2 465.4 383.6 465.3H384.7C384.7 465.4 385.1 465.5 385.9 465.6C385.9 465.7 385.9 465.7 386 465.7L386.1 465.6C386.2 465.7 386.3 465.7 386.6 465.7H387.1C387.4 465.7 387.8 465.7 388.1 465.6C388.2 465.7 388.3 465.7 388.5 465.7H388.6C388.7 465.6 388.8 465.6 389 465.6C389.2 465.7 389.5 465.7 390 465.8C390 465.8 390.2 465.8 390.5 465.7H390.8C390.9 465.7 390.9 465.7 391 465.6C391 465.6 391.1 465.6 391.3 465.7H391.6C391.7 465.8 391.9 465.8 392.1 465.8H392.4C392.6 465.7 392.7 465.7 392.8 465.7C392.9 465.7 393 465.7 393.3 465.8H393.8L396.8 465.7L398.6 465.8C400.5 465.6 400.8 465.7 402.2 465.7C402.4 465.8 402.7 465.8 403.1 465.9C403.8 465.8 404.9 465.7 406.3 465.8C406.4 465.9 406.6 465.9 406.9 466C407 465.9 407.4 465.9 407.8 465.9C408 465.9 408.2 466 408.6 466.1C409.5 466 410.6 466 412.1 466.3C412.3 466.6 412.4 467.3 412.5 468.3V468.6C412.6 468.7 412.6 468.8 412.6 468.9L412.5 469V469.3C412.5 469.4 412.5 469.6 412.6 469.8V471.3L412.7 473.4L412.6 473.5C412.7 473.7 412.7 474 412.6 474.4L412.2 475.4C412.1 475.3 412.1 475.3 412.1 475.4L411.9 475.6H411.7C411.6 475.7 411.3 475.9 410.9 475.9H410.1C410.1 476 410.1 476 410 476.2H409.7V475.9H409C408.6 476 408.4 476 408.1 476.1V476.3V476.2H407.9L406.9 476V476.1L406.8 476L406.3 475.9C405.8 476 405 476 403.9 476.1C403.8 476.1 403.7 476.1 403.4 476L403.2 475.8H402.6C402.4 476 401.8 476.1 400.5 476.2C400.4 476.1 400.4 476.1 400.3 476.1V476.2C400.1 476.1 399.5 476.1 398.5 476H397.5C397.4 476 397.3 476 397.3 475.9C396.8 476 396.1 476 395.3 476.1L394.4 475.9C394.2 476 394 476 393.9 475.9V475.8H393.5C393.3 475.9 393.2 476 393 476C392.9 475.9 392.8 475.9 392.6 475.9C392.7 475.8 392.7 475.8 392.8 475.8C392.3 475.8 391.8 475.9 391.4 475.9C390.7 476 390.3 476 389.9 476C389.7 476 389.7 475.9 389.6 475.9L388.9 476.1C388.5 476.2 388.2 476.2 387.8 476V476.9C387.9 477 387.9 477.2 388 477.5C388 477.6 387.9 477.8 387.7 478C387.6 478.1 387.6 478.4 387.5 478.7C387.6 478.8 387.7 478.8 387.7 478.8C387.7 478.8 388 478.3 388.1 478.3L388.2 478.4C388.6 478.4 389.2 479.9 389.2 480C389.1 480.1 388.9 480.1 388.7 480C388.6 479.9 388.6 479.3 388.4 479.3C388.3 479.4 388.3 479.8 388.3 480.4C388.5 480.6 388.9 480.7 389.3 480.6C389.5 480.5 389.8 480.5 390.1 480.4C390.3 480.4 390.9 480.6 391.3 480.6C391.8 480.5 392.5 480.6 393.5 480.6C393.7 480.7 394 480.7 394.4 480.6V480.5C394.2 480.6 394.7 480.6 395.8 480.7C395.9 480.7 396.1 480.7 396.2 480.6H396.8C396.9 480.7 397 480.7 397 480.7C397.3 480.6 397.8 480.7 398.4 480.9L399.4 480.6C399.6 480.5 399.9 480.6 400.6 480.9C400.2 480.8 400.6 480.8 401.6 480.8H402.7C403.4 480.7 404 480.7 404.5 480.7L405.4 480.9C405.4 480.9 405.6 480.9 405.9 480.8H406.2C406.4 480.7 406.5 480.7 406.4 480.7C406.5 480.7 406.6 480.7 406.7 480.8H407.1L408 481.1C408.1 481 408.5 481 409.1 481C410 480.9 410.6 480.8 410.9 481C411 481 411.1 481 411.1 481.1C411.7 481.1 412.6 481.3 412.6 482.9L412.7 485.6C413 486.2 413.2 487.2 413.2 487.6ZM403.7 544.1C403.5 544.1 403.3 544 403 543.9H402.8C402.4 543.9 401.4 544.1 401 544.1C400.7 544.1 400.1 543.9 399.8 543.9C399.5 543.9 398.6 544.1 398.3 544.1C396.7 544 396 544 396.1 543.9L394.2 544.1H393.6C393.2 544 392.4 544 391.3 544.1H389.3C388.3 544.2 387.3 544.2 386.3 544.1L386.1 543.9H381.4L380.2 544.1C380.1 544 380 544 380.1 543.9C379.9 543.9 379.4 544.1 379.2 544.1C378.8 544 378.2 544 377.3 543.9C377 543.9 376.1 544.1 375.8 544.1H371.2L371.1 544.2C370.9 544.2 370.6 544.2 370.2 544.1C369.8 543.9 369.3 543.9 368.8 544.1H368.6C367.3 544.4 366.6 545.3 366.5 546.6C366.5 546.2 366.3 547.7 367.4 548.8C367.4 549.3 367.8 549.4 370.5 549.5C371.4 549.6 373 549.6 375.2 549.7C376 549.7 378 549.5 378.7 549.5C378.9 549.5 379.1 549.5 379.3 549.6H380.8C381.5 549.5 381.8 549.5 381.7 549.5L383 549.7C382.9 549.7 383 549.7 383.2 549.6H383.4C383.5 549.6 383.6 549.6 383.7 549.7H384.3C384.4 549.6 384.5 549.6 384.6 549.6C384.7 549.7 384.7 549.7 384.8 549.7H390.4C391.5 549.6 391.9 549.6 391.6 549.6C392 549.6 393.1 549.8 393.4 549.8H393.9C394.1 549.7 394.3 549.7 394.4 549.7C395.1 549.6 396.2 549.7 397.6 549.9H398.1C398.3 549.8 398.6 549.8 398.7 549.8C398.9 549.8 399.1 549.8 399.3 549.9H399.8C399.9 549.9 400.3 549.9 400.9 549.8C402.2 549.7 403.5 549.6 404.7 549.7C405 549.8 405.2 549.8 405.1 549.8L405.2 549.7C406.2 549.8 406.9 549.7 407.2 549.6C407.3 549.5 407.6 549.3 408 549.2C408.4 547.7 408.6 547 408.6 546.9C408.5 546.6 408.4 546.1 408.3 545.6C408.3 545.1 407.8 545.2 406.8 544.1C406.6 544.2 406.3 544.2 405.9 544.1C405.4 544 405.1 543.9 405.1 543.9C404.7 543.9 403.5 544.1 403.7 544.1ZM387.4 534.2H389C390.1 534.4 391 534.4 391.9 534.2H392.2C392.4 534.2 392.7 534.2 393.2 534.3C393 534.3 393.1 534.3 393.7 534.2H403.2C403.6 534.2 404.2 534.2 405.1 534.3C405.2 534.4 405.4 534.4 405.8 534.5H405.9C406 534.6 406.1 534.6 406.3 534.7C406.2 534.7 406.5 534.8 406.9 534.9L407.9 535.1C408 535.1 408 535.1 408 535.2C408.6 535.2 408.7 535.3 410.3 536.9C410.4 537.1 410.6 537.3 410.9 537.5L412.3 540V540.4H412.4V540.6C412.5 540.7 412.5 540.9 412.5 541.2H412.6C413 543 413.1 544.6 413.1 546C413 546.5 413 547.3 412.9 548.3V548.8L412.6 551.2C412.6 551.7 412.5 552.1 412.4 552.2V552.3L412.3 552.5C412.4 552.6 412.4 552.6 412.3 552.7L411.9 553.4C412 553.5 412 553.6 411.9 553.9C411.8 553.9 411.7 553.9 411.7 554V554.5L411.5 554.7L411.3 554.9C411.2 555.3 410.1 556.7 409.7 557.3H409.5V557.4H409.4L409.1 557.7H408.9V557.8H409V557.9H408.8V558.1H408.4C408.2 558.4 408 558.7 407.6 558.8C407.5 558.8 406.9 558.9 405.7 559.2H405.5C405.5 559.3 405.5 559.3 405.4 559.3C405.3 559.3 405.2 559.3 405.2 559.2H405.1C405 559.2 405 559.2 404.9 559.3C404.1 559.4 403.5 559.4 403.3 559.3C403.1 559.2 403 559.2 403.1 559.2C403 559.3 402.9 559.3 402.9 559.3H402.4C402.3 559.3 402.3 559.3 402.2 559.4H401.7C401.6 559.5 401.5 559.5 401.3 559.5C401.7 559.5 401.5 559.5 400.6 559.4C399.7 559.3 399.2 559.3 399 559.3L397.5 559.5C397.1 559.4 396.6 559.4 395.8 559.4H395.6C395.5 559.5 395.5 559.5 395.4 559.5C395.2 559.5 394.8 559.5 394.2 559.4L394.1 559.3H394C393.8 559.2 393.5 559.1 393.4 559.1C393.2 559.1 392.9 559.2 392.6 559.3L391.9 559.5C391.2 559.5 390.2 559.5 388.9 559.4C387.8 559.5 387.3 559.5 387.5 559.5H386C385.6 559.5 384.9 559.5 383.8 559.4C382.9 559.3 382.2 559.2 381.6 559.3C381.4 559.4 380.9 559.4 380.2 559.5H377.8C377.5 559.6 377.3 559.6 377 559.6C376.9 559.6 376.7 559.6 376.5 559.5H374.6C374.5 559.5 374.5 559.5 374.4 559.4C374 559.3 373.6 559.3 373.2 559.4C373.2 559.5 373.2 559.5 373.1 559.5C372.9 559.6 372.6 559.6 372.2 559.5C371.8 559.4 371.5 559.3 371.4 559.3C371.1 559.3 370.2 559.5 369.9 559.5C370.4 559.4 369.8 559.4 368.2 559.4C367.3 559.4 366.4 559.3 365.5 559L363.7 558.5C363.4 557.7 363.1 557.9 361.9 557.2C361.8 557.2 361.5 556.8 360.9 556C360.8 556 360.7 555.9 360.5 555.8C360.5 555.5 360.3 555 360.1 554.4L359.9 553.4C359.7 552.8 359.4 551.9 359.1 550.6V550.3C359.1 549.9 359.1 549.3 359 548.5V548.3L358.9 548.2C358.9 548 358.9 547.8 359 547.5V546.8C359 546.7 359 546.5 358.9 546.2C358.9 545.9 358.9 545.2 359 544.1C359.1 543.7 359.1 543.3 359.1 542.8V542.5C359.2 542.4 359.2 542.4 359.3 542.4L359.6 540.8L359.7 540.6V540.5L359.8 540.4C359.9 540 360.1 539.4 360.3 538.7L360.5 538.3L360.9 537.9C361 537.9 361 537.8 361 537.7V537.5C361.2 537.4 361.5 537.1 361.7 536.7L362.5 535.9L363.5 535.4L363.6 535.2C363.7 535.1 363.9 535 364.5 534.8C364.7 534.7 365.4 534.5 366.5 534.2L367.9 533.9C368.3 533.9 369.5 534.1 369.8 534.1H373.7C373.8 534.1 374.1 533.9 374.2 533.9C374.3 534 374.4 534 374.7 534.1H376.2L376.4 533.9L376.6 534.1H377.5C377.7 534.1 377.9 533.9 378 533.9C378.1 533.9 378.4 534.1 378.5 534.1H381.4C381.8 534.1 382.9 533.9 383.3 533.9C383.6 533.9 384.4 534.1 384.8 534.1C385.1 534.1 386 533.9 386.3 533.9C386 534.1 386.3 534.1 387.4 534.2ZM412.9 570.2C412.8 570.4 412.7 570.7 412.6 571.2C412.6 571.5 412.9 572.3 412.9 572.7C412.9 573 412.8 573.4 412.6 573.9V574.7C412.5 575.2 412.1 575.4 411.5 575.5C411 575.4 410.3 575.4 409.4 575.5C408.6 575.6 408.3 575.6 408.5 575.6H407.9C407.4 575.5 407.2 575.4 407.5 575.4C407.2 575.5 406.8 575.7 406.3 575.8C405.9 575.8 405.7 575.7 405.5 575.6C405.5 575.5 405.5 575.5 405.4 575.5C404.9 575.4 404.2 575.4 403.5 575.4H401.9C401.3 575.2 400.8 575.1 400.4 575.1C400.3 575.2 399.9 575.3 398.6 575.4C398.5 575.4 398.5 575.4 398.4 575.5H397.3C396.9 575.4 396.7 575.4 396.5 575.5C396.2 575.6 396 575.6 395.8 575.6H395.6L394.7 575.4C394.6 575.4 394.1 575.4 393.2 575.5C393 575.4 392.8 575.4 392.5 575.4H392.4V575.3H392.2C392.1 575.3 391.8 575.4 391.4 575.5C391.3 575.4 391.2 575.4 391 575.4C390.9 575.4 390.9 575.4 390.8 575.5C390.6 575.5 390.2 575.5 389.7 575.4C389.6 575.4 389.4 575.4 389.1 575.5C389.1 575.5 389 575.3 388.7 575.3C388.6 575.4 388.5 575.4 388.3 575.4C388.1 575.4 387.9 575.3 387.6 575.2C387.4 575.3 386.8 575.4 385.9 575.5H384C383.6 575.4 383.1 575.4 382.6 575.5H380C379.9 575.5 379.5 575.7 379.5 575.7L377.9 575.4C378.1 575.4 377.9 575.4 377.3 575.5C377.2 575.4 377 575.4 376.8 575.5C376.3 575.6 375.9 575.7 375.4 575.7L373.9 575.4C373.5 575.3 373 575.3 372.5 575.4C371.7 575.5 371.1 575.5 371 575.5C369.8 575.5 369.4 575.5 369.6 575.4C369.4 575.4 369.1 575.5 368.8 575.7L368.4 575.5H368C367.8 575.5 367.5 575.6 367.2 575.7C366.7 575.6 366.1 575.6 365.2 575.7C365.1 575.8 364.8 576.1 364.6 576.5C364.5 576.7 364.5 577 364.6 577.4C364.7 577.5 364.7 577.6 364.7 577.7C364.7 578.8 364.7 579.9 364.6 581L364.4 581.2V581.3C364.2 581.4 364 581.7 363.9 582.1C363.6 582.1 363.2 582.2 362.7 582.3C362.7 582.3 362.4 582.5 362.2 582.5C362.3 582.5 362.1 582.4 361.7 582.3L360.9 581.9L360.7 581.7H360.5C360.5 581.6 360.5 581.6 360.4 581.5C360.3 581.6 360.2 581.6 360.1 581.5L359.6 581C359.5 580.6 359.5 579.8 359.5 578.7C359.4 576.8 359.4 574.8 359.5 572.9C359.5 572.8 359.5 572.4 359.6 571.8C359.7 571.5 359.7 571.2 359.6 571C359.5 571 359.5 570.6 359.5 569.4C359.4 568.9 359.4 568.2 359.5 567.1L359.7 565.7C359.6 564.6 359.6 563 359.7 560.8C359.8 560.6 360 560.2 360.2 559.5C360.4 559.4 360.7 559.3 361 559C361.4 559 361.7 559 361.9 559.1C362 559.2 362.1 559.2 362.3 559.3L363.4 559C363.4 559 363.7 559.2 364.3 559.5L364.9 559.8C364.9 560.3 365.3 561.6 365.3 562.1L364.9 563.5C364.8 563.6 364.8 563.8 364.9 564.3C365 565.1 365.4 565.6 366.1 565.8C366.2 565.8 366.5 565.8 366.9 565.9L367.5 566.1C367.9 566.1 368.9 565.9 369.3 565.9C369.4 565.9 369.9 565.9 370.6 566H371.5C371.6 566.1 371.7 566.1 371.8 566.1C372.2 566.1 373.2 565.9 373.6 565.9L375.4 566.2L378.2 566C378.4 566 378.7 566.1 379.3 566.2C379.7 566.3 380.1 566.2 380.5 566.1C380.5 566 380.5 566 380.6 566H384.4C384.6 566.1 384.9 566.1 384.9 566.1C384.9 566.1 385.2 566.1 385.5 566H389.8C390.3 565.9 390.6 565.8 390.4 565.8L391.8 566.3H392.2C392.4 566.2 392.6 566.2 392.7 566.2C392.8 566.3 393.1 566.3 393.5 566.3C393.8 566.1 394.2 565.9 394.7 565.7C394.9 565.7 395.7 566 396 566L397.7 565.7C398.2 565.8 398.6 565.9 399 566.1C399.2 566.1 399.8 565.8 400.1 565.8C400 565.8 400.3 565.9 401.1 566C401.3 566.1 401.6 566.1 401.7 566C402.5 566 403.8 565.9 405.4 565.8C406.4 565.7 407.2 565.6 407.6 565.6C407.8 565.6 408 565.6 408.4 565.7H409.2C409.4 565.7 409.6 565.7 410 565.6H410.8L411.9 565.9C412.1 565.9 412.5 566 413 566.1C413.1 566.5 413.2 567 413.1 567.5L413.3 569.7L412.9 570.2ZM363.4 494.5C363.4 494.5 363.7 494.7 364.3 495L364.9 495.3C364.9 495.8 365.3 497.1 365.3 497.6L364.9 499C364.8 499.1 364.8 499.3 364.9 499.8C365 500.6 365.4 501.1 366.1 501.3C366.2 501.3 366.5 501.3 366.9 501.4L367.5 501.6C367.9 501.6 368.9 501.4 369.3 501.4C369.4 501.4 369.9 501.4 370.6 501.5H371.5C371.6 501.6 371.7 501.6 371.8 501.6C372.2 501.6 373.2 501.4 373.6 501.4L375.4 501.7L378.2 501.5C378.4 501.5 378.7 501.6 379.3 501.7C379.7 501.8 380.1 501.7 380.5 501.6C380.5 501.5 380.5 501.5 380.6 501.5H384.4C384.6 501.6 384.9 501.6 384.9 501.6C384.9 501.6 385.2 501.6 385.5 501.5H389.8C390.3 501.4 390.6 501.3 390.4 501.3L391.8 501.8H392.2C392.4 501.7 392.6 501.7 392.7 501.7C392.8 501.8 393.1 501.8 393.5 501.8C393.8 501.6 394.2 501.4 394.7 501.2C394.9 501.2 395.7 501.5 396 501.5L397.7 501.2C398.2 501.3 398.6 501.4 399 501.6C399.2 501.6 399.8 501.3 400.1 501.3C400 501.3 400.3 501.4 401.1 501.5C401.3 501.6 401.6 501.6 401.7 501.5C402.5 501.5 403.8 501.4 405.4 501.3C406.4 501.2 407.2 501.1 407.6 501.1C407.8 501.1 408 501.1 408.4 501.2H409.2C409.4 501.2 409.6 501.2 410 501.1H410.8L411.9 501.4C412.1 501.4 412.5 501.5 413 501.6C413.1 502 413.2 502.5 413.1 503L413.3 505.2V505.7C413.2 505.9 413.1 506.2 413 506.7C413 507 413.3 507.8 413.3 508.2C413.3 508.5 413.2 508.9 413 509.4V510.2C412.9 510.7 412.5 510.9 411.9 511C411.4 510.9 410.7 510.9 409.8 511C409 511.1 408.7 511.1 408.9 511.1H408.3C407.8 511 407.6 510.9 407.9 510.9C407.6 511 407.2 511.2 406.7 511.3C406.3 511.3 406.1 511.2 405.9 511.1C405.9 511 405.9 511 405.8 511C405.3 510.9 404.6 510.9 403.9 510.9H402.3C401.7 510.7 401.2 510.6 400.8 510.6C400.7 510.7 400.3 510.8 399 510.9C398.9 510.9 398.9 510.9 398.8 511H397.7C397.3 510.9 397.1 510.9 396.9 511C396.6 511.1 396.4 511.1 396.2 511.1H396L395.1 510.9C395.3 510.9 394.9 510.9 393.6 511C393.4 510.9 393.1 510.9 392.6 510.9C392.5 510.9 392.2 511 391.8 511.1C391.7 511 391.6 511 391.4 511C391.3 511 391.3 511 391.2 511.1C391 511.1 390.6 511.1 390.1 511C390 511 389.8 511 389.5 511.1C389.5 511.1 389.4 510.9 389.1 510.9C389 511 388.9 511 388.7 511C388.5 511 388.3 510.9 388 510.8C387.8 510.9 387.2 511 386.3 511.1H384.4C383.9 511 383.5 511 383 511.1H380C379.9 511.1 379.5 511.3 379.5 511.3L377.9 511C378.1 511 377.9 511 377.3 511.1C377.2 511 377 511 376.8 511.1C376.3 511.2 375.9 511.3 375.4 511.3L373.9 511C373.5 510.9 373 510.9 372.5 511C371.7 511.1 371.1 511.1 371.1 511.1C369.9 511.1 369.5 511.1 369.7 511C369.5 511 369.2 511.1 368.9 511.3L368.5 511.1H368C367.8 511.1 367.5 511.2 367.2 511.3C366.7 511.2 366.1 511.2 365.2 511.3C365.1 511.4 364.8 511.7 364.6 512.1C364.5 512.3 364.5 512.6 364.6 513C364.7 513.1 364.7 513.2 364.7 513.3C364.7 514.4 364.7 515.5 364.6 516.6L364.4 516.8V516.9C364.2 517 364 517.3 363.9 517.7C363.6 517.7 363.2 517.8 362.7 517.9C362.7 517.9 362.4 518.1 362.2 518.1C362.3 518.1 362.1 518 361.7 517.9L360.9 517.5L360.7 517.3H360.5C360.5 517.2 360.5 517.2 360.4 517.1C360.3 517.2 360.3 517.2 360.1 517.1L359.6 516.6C359.5 516.2 359.5 515.4 359.5 514.3C359.4 512.4 359.4 510.4 359.5 508.5C359.5 508.4 359.5 508 359.6 507.4C359.7 507.1 359.7 506.8 359.6 506.6C359.5 506.6 359.5 506.2 359.5 505C359.4 504.5 359.4 503.8 359.5 502.7L359.7 501.3C359.6 500.2 359.6 498.6 359.7 496.4C359.8 496.2 360 495.8 360.2 495.1C360.4 495 360.7 494.9 361 494.6C361.4 494.6 361.7 494.6 361.9 494.7C362 494.8 362.1 494.8 362.3 494.9L363.4 494.5ZM348.4 582.3H331.6C331.6 582.1 331.6 581.9 331.4 582.1C331.2 582.3 331 582.3 330.6 582.3C330.4 582.1 330 582.1 329.8 582.1C329.2 581.9 328.6 580.3 328 577.2C328 577 327.8 576.6 327.6 575.6L328 573.4C327.8 572.8 327.6 571.8 327 570.8L326.2 565.1V563.5C326 563.3 326 562.7 325.8 562.1C325.6 562.1 325.2 560.5 325.2 560.5V560.1L325.4 559.9L325 559.5C324.6 556.3 324.2 553.6 323.8 551.8C323.6 551.6 323.6 550.8 323.4 549.8V546.8L322.4 544C322.4 543.8 322.2 542.8 321.8 541.2V539.2L320.8 535.6L319.8 529.3C319.6 528.7 319.6 528.1 319.6 527.5C319.4 527.3 319.2 526.7 319 526.1C319 525.9 319 525.3 318.8 524.7C318.6 523.1 318.6 522.1 318.8 521.5L319.2 521.1C319 520.9 319 520.7 318.8 520.1C318.8 519.9 318.8 519.9 319 519.7C319.2 519.1 319.2 518.7 319.2 518.7C319.2 518.9 319 518.7 318.4 517.7C318.4 517.5 318.2 517.1 318 516.5C318 516.3 318 516.3 317.8 516.3C318 515.7 318 514.7 318 513.5C318 513.3 318 512.9 317.8 512.5V512.1C317.6 511.9 317.8 510.7 318.2 508.7C318.4 507.9 318.4 507.3 318 506.9C317.2 506.9 316.8 507.3 316.8 508.3V510.7L316.4 513.9V518.3C316.4 519.1 317.2 519.5 317.4 520.5C317.4 520.7 317.4 521.7 317.2 523.7V525.9L317.4 526.1V526.5L317.2 526.7C317.2 529.3 317.4 531.1 317.8 532.2C317.8 532.8 317.4 534.2 317.4 535C317.4 535.6 317.8 536.4 317.8 536.6L317.4 537L317.8 537.2C318 540.6 317.8 542.9 317.2 544.1C317.8 545.3 318 546.9 317.8 549C317.8 549 317.6 549.4 317.8 549.4V551.2C318 552.6 318 553.6 317.8 554.2C317.8 554.2 317.8 554.6 317.6 555.4C317.4 557.2 317.4 558.4 317.8 558.8V561.2L317.2 565.4C317.4 565.8 317.4 567 317.4 569C317.6 570.8 317.6 574.1 317.4 578.7V578.9C317.4 579.3 317.2 580.1 317 581.5C316.4 581.7 315.2 582.1 313.7 582.3L313.3 582.1C313.5 582.3 313.3 582.3 312.5 582.3C312.3 582.1 311.7 582.1 310.7 582.1L307.6 582.7L303.9 581.7L298.8 582.3C298.8 582.1 298.6 581.9 298.2 581.7L297.8 581.5V580.7C297.6 580.5 297.2 579.5 297 577.7C297 577.1 297 576.5 296.8 575.9H296.6L296.8 574.5C296.8 567 296.8 561.8 297 558.7L297.2 556.5V527.6L297.4 518.9L297 516.5C296.8 514.3 297.4 509.8 297.4 508.4C297.4 508.2 297.4 507 297.2 505.2C297 504 297 503 297.2 502.2C297.2 501.8 297.4 501 297.6 500C297.6 499.4 297.6 498 297.4 495.3V490.7C297.2 489.9 297.2 487.7 297.2 484.2C297.2 484 297.2 483.6 297 483.2V482.2C297 481.2 297.4 478.4 297.4 477.4V475C297.2 474 297.2 473.2 297.2 472.6V461.9C297.4 459.7 297.4 458.1 297.2 456.7V447.4C297 447 297 446.6 297 446C297.2 445.6 297.2 445.4 297.2 445.6C297 445.6 297 445.6 297 445.4C296.6 443.2 297.6 441.8 300.3 441.6H308.3C309.7 441.4 311.8 441.4 314.6 441.6C315 441.6 315.6 441.6 316.4 441.8L316.6 442.2L318 443L318.6 446V446.4C318.8 446.6 318.8 447 318.8 447.4C319 448.2 318.8 449 318.6 450L318.2 451.6C318 454.8 318.6 454.8 318.6 458.9V460.7C318.4 461.5 318.4 462.1 318.4 462.5C318.6 462.9 318.6 463.1 318.6 462.9C318.6 463.1 318.6 463.1 318.4 463.1L319 465.5V466.7C318.8 467.3 318.8 467.9 318.8 468.1L318.2 483.9C318.2 484.3 318 485.5 317.8 487.3L317.2 488.7C317.2 488.7 317 489.1 316.8 489.7L317.2 491.5C317.2 491.9 317 492.5 316.4 493.1V495.7C316.4 496.1 316.6 496.7 316.8 497.3C316.8 497.5 316.8 498.1 316.6 498.7C316.4 499.3 316.4 499.9 316.6 500.1C316.8 500.5 317 500.7 317.4 500.9C317.8 501.3 318.4 500.7 319 499.3V498.5L318.4 495.1C318.4 494.1 318.8 492.9 319.8 491.5C319.6 491.5 319.6 491.3 319.6 490.9C319.6 490.9 319.6 490.7 319.4 490.5V490.1L320 479.8C320.2 479.6 320.4 478.8 320.6 477.8L321 476.8V476.2C321.2 476 321.2 475 321.8 473.2V472.6C322 472.4 322 471.8 322 471.2C322.2 471.2 322.2 471.2 322.4 471C322.2 470.8 322.2 470.4 322.4 469.8C322.4 469.8 322.4 469.6 322.6 469.4V468.8C322.8 468.8 322.8 468.8 323 468.6C323.2 467 323.6 465 323.8 462.7C324.2 462.5 324.6 460.9 325 458.1V457.5C325.2 457.5 325.2 457.1 325.4 455.3H325.8C325.8 454.3 325.8 453.1 326 451.3C326 451.3 326.2 450.7 326.4 449.7C326.6 449.5 326.6 449.5 326.6 449.3V448.7C326.8 447.3 327.2 445.5 328.2 443L329.4 441.8H333.1C333.7 441.6 334.5 441.6 335.8 441.4C334.4 441.4 335.2 441.4 338.3 441.6C340.8 441.8 343.2 441.8 345.7 441.8L346.5 442.4L347.1 444V444.4C347.3 444.8 347.1 446 346.9 448C346.9 448.8 346.9 450 346.7 451.4L345.7 454.2C345.9 454.6 345.9 455.2 345.9 456.2L344.7 461.3C344.4 461.9 344.3 462.5 344.3 463.1V466.1C344.1 466.3 343.9 466.9 343.7 467.9V468.9C343.5 469.1 343.3 469.3 343.3 469.5V472.5C342.7 474.7 342.1 476.9 341.7 479.2C340.7 479.4 340.1 479.6 339.7 479.4C339.9 485.1 339.9 488.5 339.7 489.7L339.3 490.1C339.3 490.7 339.1 491.9 338.7 493.3V494.3C338.7 494.7 338.5 495.7 338.1 497.3C338.1 497.7 337.9 498.1 337.7 498.7C337.3 499.7 336.9 501.5 336.5 504.2C336.5 504.4 336.9 505.4 337.5 507C337.7 507.2 338.1 508.6 338.3 511.4C338.5 511.8 338.5 512.8 338.7 514.2L339.3 515.4V517.2L340.3 520.2V523.8C340.5 524.6 340.9 525.8 341.1 527.2C341.1 527.8 341.1 528.6 341.3 529.8C341.5 529.8 341.5 529.8 341.7 530C341.7 530.2 341.7 530.2 341.5 530.4C341.7 530.8 341.7 531.4 341.9 532.4V533L342.3 533.8L343.3 539C343.3 539.6 343.3 540.8 343.5 542.6V543.2C343.7 543.6 343.7 544.2 343.9 545V546.8C344.1 547.4 344.5 548.2 344.7 549.2C344.7 549.6 344.9 550.6 345.5 552.4C345.7 552.6 345.9 553.6 345.9 553.6C345.9 554.8 346.1 556.6 346.5 559.3L346.9 559.9V560.5L347.3 563.5L348.5 567.7C348.5 568.3 348.5 569.1 348.7 570.3C348.7 570.7 348.9 571.9 349.5 573.7C349.5 573.9 349.5 574.1 349.7 574.3L349.9 574.7C349.7 574.9 349.7 575.5 349.5 576.1C350.5 577.9 350.9 579.1 350.9 579.7C350.7 581.5 349.9 582.1 348.4 582.3ZM252.6 442.1C254.8 442.5 256.3 443.1 256.9 444.1C257.1 444.3 257.1 444.9 256.9 445.5C256.9 445.5 257.1 446.7 257.3 448.3L257.7 448.7V449.9L258.1 451.3C257.9 452.7 258.1 454.7 258.7 459.4L259.9 465.3C259.9 466.1 259.9 467.1 260.1 468.5C260.3 469.1 260.9 472.1 261.5 477.2C261.5 476.6 261.7 477.6 262.1 479.8C262.1 480.8 262.1 482.6 262.3 485.2L262.9 486.8V488.2L263.5 488.6V489.4C263.7 491.2 264.1 492.6 264.5 494L265.5 496.8C265.7 497.8 265.5 498.6 265.3 498.8C265.1 499 265.3 499.2 265.5 499.4C265.5 500.1 265.3 500.8 264.9 501.4V501.6H264.5L263.5 502.2C263.1 502.4 262.7 503 262.1 503.8L262.9 504.2H264.1C264.7 504 265.5 504.2 266.6 504.6L267.8 505.6C267.6 505.8 267.6 506.4 267.4 507.6C267.6 507.8 267.6 508.2 267.8 508.8C267.2 509 266.4 509.4 265.6 510C265.6 510.6 267.2 511.4 267.2 511.6C267.6 512.2 268.2 512.6 268.8 512.4C269 512.2 269 511.8 269.2 511.2L269 510C269 509.4 268.8 508.6 268.6 507.6C268.8 507 269 506.6 268.8 506L269 505.8H268.2C268.2 505.6 268 505.2 267.6 504.8C268.2 502.6 268.4 501.6 268.4 501.6C268.6 501.4 268.6 501.4 268 501.2V500.8H267.4C267.4 500.8 267.2 500.6 267 500.2V499.8L267.4 497.8C267.6 497.8 267.8 497.8 268 497.6C267.8 498 267.6 497.2 267 495.4C267 494.6 267.4 492.8 267.4 492V489.6L267.6 489C267.8 486.4 267.6 484 267 481.9V477.5L267.4 477.1C267.6 476.1 267.6 475.3 267.4 474.3V473.3C267.4 472.9 267.2 472.3 267 471.5C267.2 470.3 267.4 468.9 267.4 467.5V466.9C267.4 466.3 267.2 465.7 267 464.9V464.5C267 463.9 267.6 461.1 267.6 460.1C267.4 459.9 267.4 459.5 267.4 458.9V456.1C267.6 454.1 267.6 452.5 267.4 451C267.4 450.2 267.2 449.2 267 448C267 447 267.4 446.2 268.4 446C268.4 445.8 268.4 445.6 268.2 445.6C268 445 267.8 444.6 268 444L268.6 443C270.9 442.8 273.9 442.6 277.8 442H278.4L281.5 441.8L282.7 442.4H283.1C283.5 442.8 283.9 443.6 284.3 444.8V445.6L284.7 446C284.9 446.6 284.9 447.2 284.7 448.2C284.3 452.4 284.1 454.9 284.1 455.1V455.7C284.3 457.9 284.5 459.3 284.5 459.9C284.5 460.1 284.3 461.1 284.1 462.7V463.7H283.7V465.1L283.9 465.5L284.3 475.8C284.5 476 284.5 476.2 284.5 476.4C284.5 476.8 284.5 477.8 284.3 479.2V481.2C284.1 482.2 284.1 483.2 284.1 483.8V492.3C284.3 492.5 284.3 492.7 284.3 492.5C284.1 494.7 284.1 498.2 284.3 502.6L284.9 505.4C284.9 505.6 284.7 507 284.3 509.2V509.6C284.1 512.8 284.1 513.8 284.1 512.6C284.1 512.8 284.1 513 284.3 513.2V515.4C284.5 515.6 284.5 515.6 284.5 515.8L284.1 519C284.3 519 284.3 519 284.5 519.2V523.2C284.5 523.4 284.5 523.6 284.3 524C284.5 524.2 284.5 524.2 284.5 524.4C284.7 525.2 284.7 525.8 284.5 526C283.9 527.8 283.9 529.4 284.3 530.4V531.2C284.5 531.4 284.5 531.6 284.5 532C284.7 532.6 284.5 534.2 284.3 536.6C284.1 537.4 284.1 540.4 284.1 545.7V553.2C284.1 553.8 283.7 555.2 283.7 555.8C283.7 556 283.7 556.2 283.9 556.4V557.4C283.9 557.8 283.9 558.4 283.7 559.4V562.8C283.7 564.2 283.5 565.8 283.1 567.3C283.1 567.9 283.7 568.1 283.7 568.3C283.5 567.7 283.5 569.7 283.3 574.4C283.3 575.8 283.3 577.4 283.1 578.9C283.3 579.3 283.3 579.9 283.1 580.5C282.5 580.7 282.3 580.9 282.3 581.5C281.3 582.1 280 582.3 279 582.3C278.2 582.5 277 582.5 275.5 582.3L267.9 581.7C267.9 581.7 266.9 580.9 266.3 580.9C265.3 580.9 265.1 581.3 262.8 581.9C262 582.1 261.4 582.1 261 581.9L259.8 581.1C259.6 581.1 259.4 580.9 259.2 580.5L258.2 567.2C258 566.8 258 566.2 257.8 565.2C258 564.8 258 564 258 563L257.4 561.8L256.8 556.1L256.2 554.3V553.7L255.6 551.1C255.6 550.9 255.4 550.7 255.2 550.5C255.2 546.3 254.8 546.3 254.6 546C254.8 546 254.8 546 255 545.8C254.8 544.8 255 543.4 255.2 542C255.4 542 256 541.8 256.6 541.6V541C255.6 540.6 256.4 539.8 255.6 539.4C255.4 539.2 255.4 539.2 255.2 539.4C254.2 538.8 253.8 537.2 253.6 534.6C253.6 534 253.4 533.4 253.2 532.6L252.6 531.6L252.4 530.4V530C252 528.6 251.8 527 251.8 525.6C252.2 524.8 252.6 523.8 253 522.4L252.8 521.4C253 521.2 252.8 520.8 252.4 520.6C252.6 519.4 252 517.8 250.3 516V515.6H249.9C249.9 515.4 249.9 515.2 249.7 515L249.1 514C249.3 512.8 249.1 511.2 248.5 509.4V508.6L248.3 508.2C247.7 506.4 246.9 505.4 245.6 505.6L245.2 506.4C245 506.6 245.2 507 245.8 507.6C245.8 507.6 246.4 508.4 247.4 509.8V514.7L246.8 516.1C245.4 518.9 244.5 520.3 244.5 520.5C245.1 522.3 245.3 523.3 245.3 523.5C245.1 523.5 245.1 523.5 245.1 523.7C244.9 524.3 244.9 524.7 244.9 525.1C244.9 525.3 245.1 525.7 245.3 525.9L245.9 533.8V534.8L245.3 538C245.3 537.2 245.3 537.6 245.5 539V540.4L245.9 541.2C245.7 541.8 245.7 542.4 245.7 543.4C245.7 543.6 245.7 543.6 245.9 543.8V544.4C246.3 545.4 246.5 546.4 246.3 547.2C246.3 547.4 246.1 547.8 245.9 548.4V549C245.9 550 246.1 552.8 246.3 557.3C246.3 557.5 246.1 558.9 245.9 561.1C246.1 562.5 245.9 564.5 245.7 567.6C245.5 568 245.7 568.8 245.9 570C245.7 571.4 245.7 573.6 245.9 576.5C246.1 578.7 246.1 580.3 245.9 580.9C244.7 581.9 243 582.3 241.2 582.3C240.4 582.3 238.5 582.1 235.5 581.7C235.5 581.5 235.3 581.5 235.1 581.5C235.1 581.7 233.9 582.1 232.9 582.9C231.3 583.1 230.2 582.9 229.6 582.5V579.9C229.8 579.7 229.8 579.5 229.8 579.3L230 578.7C230.2 577.9 230.6 577.1 231 576.1V575.3C230.8 573.7 230.6 572.5 230.8 571.5C230.8 571.3 231 571.3 231.2 571.3C231.2 571.3 231.2 571.1 231 570.7C231 570.5 231 570.1 231.2 569.5C231 569.3 230.8 568.9 231 568.7C231.2 568.5 231.4 567.9 231.6 567.1C231.2 566.5 230.8 565.5 230.4 563.9C230.6 563.7 230.6 563.1 230.8 562.3V560.7C230.6 559.3 230.4 558.7 230.6 558.5C230.8 558.3 231.4 557.3 231.6 555.5C231.6 554.7 230.8 548.6 231 542C231.2 538.6 231.2 537.1 231.2 537.5C231.2 537.3 231 536.3 230.8 534.9V533.1L231 532.7C231.2 531.3 231.2 530.3 231 529.7H230.6V528.7C230.4 527.9 230.4 527.1 231 526.1L231.8 525.3V524.3C231.2 522.1 231 520.7 231 520.1C231.2 519.9 231.2 519.9 231.2 519.7C231.4 519.5 231.4 519.1 231.2 518.1C231.2 518.1 231 517.9 231.2 517.7C231.2 517.5 231.2 517.5 231 517.3C230.8 517.1 230.8 516.5 231 515.3C231 515.1 231 515.1 231.2 514.9C231.2 514.7 231.2 514.1 231 513.5V512.1C231 511.5 231 510.5 231.2 508.9C231.4 507.5 231.4 506.5 231.2 505.9V505.3C231 503.9 231.2 502.1 231.8 500C231.2 499.6 231 498.4 231 496.6C231 496.4 231.2 496 231.4 495.8C231.8 495 230.2 495 230.6 494C230.6 493.4 232 492.8 231.8 492C231.2 491.8 231 491.4 231 490.8C230.8 490.2 231.6 489 231.6 488.8C231.2 488.6 231 488.2 231.2 487.6C231.4 487.2 231.4 485.6 231.2 483V478.5C231.4 476.3 231.4 475.5 231.6 476.1C231.4 475.9 231.2 475.5 231.2 474.9V471.7C231 471.5 231 471.1 230.8 470.7C230.8 470.1 231 468.5 231.6 465.8C231.6 465.6 231.6 465.2 231.8 465H232.2C232.4 464.4 232.4 463.8 232.2 463C231.8 462 231.6 461.4 231.8 461C231.6 461 231.2 460.2 231 460C230.8 459.2 230.8 458.4 231 457.4C231.6 456 231.8 455.2 231.8 455C231.4 454.4 231.2 453.4 231 452.4C231 452.2 231.2 451.6 231.6 450.6V449.6C231.6 449.6 231.6 448.8 232.2 446.2C233 445.8 234.7 445.6 237.1 445.4C238.1 445.4 238.9 445.6 239.1 446C239.3 446.2 239.3 446.2 239.3 445.8L240.1 445.4C240.3 445.4 241.1 445.4 242.1 445.6C243.1 445.8 243.9 445.6 244.8 445.4C245 444.8 245.8 444 247.3 443C250.4 442.1 252 442.1 252.6 442.1ZM199.1 491.7L197.7 497.3V498.5C196.7 498.7 196.3 499.1 196.1 499.3C195.3 499.1 194.9 499.1 194.7 498.9C194.5 499.5 194.3 499.9 194.3 500.5L192 499.3C191 499.5 190 499.3 189.3 499.1C189.1 499.3 189.1 499.3 188.9 499.3C188.1 499.5 187.7 499.5 187.5 499.3C187.3 499.1 187.3 498.7 187.3 498.5C187.3 498.1 187.5 497.5 187.9 496.9C188.1 495.5 188.1 494.3 188.1 493.5C188.3 491.7 188.5 490.5 188.5 490.1C188.1 485.3 188.5 486.9 188.5 485.9C188.3 484.9 188.3 484.3 188.3 484.3V483.5C188.5 482.9 188.5 482.7 188.5 482.9C188.5 482.5 188.5 482.1 188.3 481.9L188.1 481.3C188.1 480.9 188.1 480.7 188.3 480.5C188.1 479.5 188.1 478.5 188.1 477.9V477.5C187.9 475.5 187.9 473.9 187.9 472.9C188.5 472.3 188.7 471.1 188.7 469.3C188.5 469.1 188.5 469.1 188.5 468.9L188.7 468.7V465.7C188.7 465.5 188.7 465.3 188.5 465.5L188.7 465.1L188.5 463.1V461.3C188.3 459.9 188.3 459.1 188.3 458.7C188.3 458.1 188.7 456.9 188.7 456.3C187.7 455.7 186.7 455.3 185.8 455.1C184.8 455.3 184 455.5 183.8 455.7C183 455.5 182.6 454.9 182.8 454.3H184.4C185 454.5 185.2 454.7 185.4 454.9C186.2 454.7 186.8 454.7 187.2 454.5L187.4 454.3L188.2 453.9H188.6C188.8 454.1 189 454.1 189.2 454.1C189.2 454.7 189.4 454.9 190 455.1C192.5 455.3 194.3 455.3 195.5 455.1L196.5 455.9C197.5 456.3 198.1 457.1 198.5 458.3C198.5 458.5 198.5 458.5 198.7 458.7C198.7 459.1 198.7 459.5 198.5 460.1C198.5 460.7 198.7 461.7 198.9 462.7V469.9L198.5 470.9V471.7C198.7 471.9 198.9 472.1 198.9 472.5C199.1 477.1 199.1 480.7 198.9 483.2C199.1 484.2 199.1 485.2 199.1 485.8C198.9 486.8 198.9 487.6 198.9 488C199.1 489.6 199.1 490 199.3 489.4C199.3 490.3 199.1 491.1 199.1 491.7ZM199.1 522.1C198.9 523.1 198.7 523.9 198.7 524.5C198.7 527.9 198.9 530.7 199.1 532.5C198.9 533.3 198.9 533.9 198.7 534.3C198.7 535.1 199.1 537.5 199.1 538.3C199.1 539.3 198.7 541.9 198.7 542.9C198.7 543.5 199.1 544.7 199.1 545.3C199.1 545.5 198.7 546.3 198.7 546.5C198.5 548.7 198.5 550.1 198.7 550.9C198.9 552.3 198.9 553.1 199.1 553.7C199.1 554.3 198.7 555.3 198.7 555.9C198.7 556.1 199 556.7 199.1 557.1C199 557.1 198.9 557.7 198.7 558.9V563.3L198.3 563.7C198.3 565.9 197.5 565.9 196.9 565.9C196.7 565.9 196.3 565.7 195.9 565.5L193.7 566.5C193.7 566.5 193.1 566.5 191.9 566.3C190.9 566.1 189.9 566.3 188.8 566.7C188.8 566.5 188 565.9 188 565.7C188 565.7 188.4 564.9 188.4 564.3V560.9C188.4 560.7 188.4 560.5 188.6 559.9V557.1C188.4 556.1 188.4 555.3 188.4 555.1C188.8 549.1 188.8 543 188.6 537.2C188.4 534.8 188.4 533.4 188.4 532.8C188.4 532 188.8 529.6 188.8 528.8C188.8 528.4 188.8 527.8 188.6 526.8V524.8C188.8 521.8 188.8 520.4 188.8 520.2C188.8 517.2 188.8 516 188.6 516.4C188.8 516 188.8 516 188.8 516.2C188.8 516 188.8 516 188.6 515.8V513.6C188.4 513 186.8 513.2 186.8 512.4V511.6C187.2 511.4 187.4 511.6 187.6 512C187.8 512.2 187.8 512.2 187.6 512.4C187.8 512.6 188 512.6 188 512.6C188.6 512.8 189.2 512.8 189.4 513C189.4 513.2 190.2 513 191.9 512.8L192.1 512.6C194.4 512.4 196 512.8 196.8 513.4L197.2 514L197.8 514.8L199.2 517.8C199.2 518 198.8 519 198.8 519.6L199.1 522.1ZM220.2 546.8V545.6C220 538.6 220 530.3 220.2 520.7C220.2 517.5 219.4 515.3 219.2 514.3C219 514.1 219 514.1 218.8 514.1V513.5C218.6 513.3 218.6 513.3 218.4 513.3L218 512.5C217 511.3 216.2 510.5 216 510.1C214.4 509.3 214.2 508.7 213.5 508.7C212.9 507.9 212.5 507.5 212.5 507.3C212.1 507.3 211.7 507.1 211.5 506.9C210.5 506.3 210.1 505.9 210.3 505.7C210.5 504.9 211.3 504.3 212.8 503.9C214.4 502.5 215.3 501.7 215.3 501.7C215.9 501.1 216.5 500.5 216.7 499.9V499.7L216.9 499.5C217.3 498.5 217.5 497.9 217.7 497.7V497C218.7 494 219.3 491.6 219.5 489.4C219.3 487.6 219.3 486.2 219.3 485.2C219.3 484.4 219.7 483.2 219.7 482.4C219.7 481.6 219.1 479.4 219.1 478.6C219.1 477.8 219.5 476.2 219.5 475.4C219.5 475.2 219.5 474.6 219.3 474V471C219.5 470.4 219.5 469.8 219.5 469.6C219.5 469.4 219.5 469 219.3 468.6V465.4C219.1 463 218.9 462 218.9 462.6C218.9 462.4 218.9 462.2 219.1 462.2C219.1 462 219.1 461.8 218.9 461.6V457.8L219.1 457.6L218.9 453L216.9 451C216.7 450 216.5 449.6 216.3 449.6L215.1 447.6C214.9 446.8 214.9 446.2 215.1 445.8C209.6 444.4 210.8 443.8 210.2 443.8C210 443.6 209.6 443.6 209 443.8C208.4 444 208 444.2 207.8 444.2L206.2 443.4H205.8V443.2H205L204.4 442.6C204.2 442 203.4 441.8 201.9 442C197.4 442 199.9 443.4 198.6 443.4C198 443.4 198 442 196.6 441.8C196.4 441.6 196 441.8 195.6 442H195C194 442.2 193.6 442.4 193.6 442.4C192.2 442 191.3 441.8 191.1 441.8H189.3C189.1 441.8 188.9 441.8 188.5 442H187.5C188.1 442 187.7 442 186.7 441.8H183.8C178.3 442 175.6 442 175.8 442C175.2 442 174.6 442 174.2 442.2C173.8 442.2 173.6 442.2 173.4 442C172.6 442.2 172.4 442.2 172.6 442.2C172.2 442.2 171.9 442.1 171.6 441.8C170.6 441.6 169.8 441.6 169.1 441.8C168.9 442 168.7 442.2 168.7 442.4C168.5 443.6 167.6 442.8 167.8 443.6C167.6 443.8 167.4 444.6 167.2 444.6L166.2 445.3C166.2 445.5 166.6 446.4 166 446.6L166.3 448.2V452C166.5 454.2 166.5 455.8 166.5 457C167.1 459.6 166.5 462.8 166.5 463.4V474.7C166.5 476.9 166.3 482.3 166.5 484.6C166.7 485.6 166.7 486.2 166.9 486.6C167.1 487.8 167.1 489 166.9 490.4L166.3 494.6L166.9 503.8C166.9 504.4 166.5 505.6 166.5 506.2C166.5 506.8 166.9 508 166.9 508.6C167.1 510.8 167.1 513.4 166.9 516.4C166.9 516.6 166.5 518.2 166.5 518.8L166.9 521.2V524L166.5 526.4V540.7C166.7 543.1 166.7 545.3 166.5 547.3C166.5 548.7 166.5 549.7 166.3 549.9C166.1 550.5 166.1 551.1 166.3 551.9C166.5 552.7 166.5 553.3 166.5 553.9L166.3 558.1C166.3 559.9 166.3 563.7 166.5 569.6V576.8C166.9 579.6 167.3 581.2 167.5 581.4C168.7 581.8 169.8 582 170.4 582H178.6C178.8 582.2 179.2 582.2 179.4 582.2C179.6 582.2 179.8 582.2 180 582H183.1C184.1 582.2 184.7 582.2 185.1 582.2C185.5 582.2 186.1 582.2 187.1 582H194.5C194.9 582.2 195.3 582.2 195.7 582.2C196.5 582.2 199 581.8 200 581.8H204.5C204.9 581.6 205.3 581.6 205.5 581.4H205.7C205.9 581.4 205.9 581.4 205.9 581.2L207.5 580.8C207.5 580.6 207.5 580.6 207.7 580.6H207.9C208.1 580.6 208.1 580.6 207.9 580.4L210.4 579.6H210.8V579.4H211.4L212.6 578.4L213.2 577.8C216.3 575.2 216.9 573.6 217.5 572.6C218.9 569.6 219.1 568.6 219.3 568C219.5 566.4 219.7 565.8 219.7 565.2C219.9 565 219.9 563.4 219.7 560.6V560C219.9 559.2 219.9 558.2 219.9 557V548.8C220.1 548.6 220.1 548.2 220.1 548C220.4 547.6 220.4 547.2 220.2 546.8Z" fill="white"/>
</g>
<defs>
<clipPath id="clip0_2_1698">
<rect width="1024" height="1024" fill="white"/>
</clipPath>
</defs>
</svg>
