<svg width="1024" height="1024" fill="none" xmlns="http://www.w3.org/2000/svg"><g clip-path="url(#a)"><path d="M512 1024c282.77 0 512-229.23 512-512S794.77 0 512 0 0 229.23 0 512s229.23 512 512 512Z" fill="#98DC9A"/><path d="m691.92 512 .87-2.62c16.46-53.74 9.9-103.54-18.64-140.09a136.45 136.45 0 0 0-84.61-49.8L635.42 203h-35.1s-16.75 54.47-36.84 113.88a196.492 196.492 0 0 0-20.68 0 293.005 293.005 0 0 0-162.23 64.66 272.48 272.48 0 0 0-84 98.15h29.13a249.993 249.993 0 0 1 68-81.12 272.464 272.464 0 0 1 150.14-60.14h12.36c-2.33 6.84-4.81 13.54-7.14 20.24-9.17 25.78-31 86.21-55.48 153.49H412.9l-36.41 51.26a545.83 545.83 0 0 1 106.16-21c-19.22 52.86-39 107.33-54.76 150.87-49.08 2.77-92.91-11.65-120.14-42.67a101.93 101.93 0 0 1-24.61-47.18l-11.8-11.07A126.262 126.262 0 0 0 297 663.48a148.242 148.242 0 0 0 120 52.28h2.18L396 781l14.56-11.21 21.7-54.61a295.774 295.774 0 0 0 157.87-64.08 301.743 301.743 0 0 0 95.24-122.33h115.92l11.36-16.16-120.73-.61ZM581.54 340.33a118.001 118.001 0 0 1 75.73 42.09c24 31 29.13 73.83 14.56 120.73-.87 2.91-1.89 6-2.91 8.88H513.38l68.16-171.7Zm-4.37 293.88a276.693 276.693 0 0 1-135.43 58.25L502 540.57c41.21-4.66 93.93-8.74 160.19-10.63a285.879 285.879 0 0 1-85.02 104.27Z" fill="#fff"/></g><defs><clipPath id="a"><path fill="#fff" d="M0 0h1024v1024H0z"/></clipPath></defs></svg>