<svg width="1024" height="1024" fill="none" xmlns="http://www.w3.org/2000/svg"><g clip-path="url(#a)"><path d="M512 1024c282.77 0 512-229.23 512-512S794.77 0 512 0 0 229.23 0 512s229.23 512 512 512Z" fill="#9ABEFF"/><path d="M260.33 577.38 470.2 698.55a5.491 5.491 0 0 0 5.49 0L768 529.79v53.4L472.95 753.54l-210.3-121.42c-2.65-6.82-12.08-34.12-2.32-54.74Zm275.19-207.16 5.4 21.83 114.24-66-46.26-26.67-110.84 64 32.58 2.69a5.49 5.49 0 0 1 4.88 4.15Zm130.64-37.79-126.07 72.78a5.484 5.484 0 0 1-4.899.299 5.493 5.493 0 0 1-3.181-3.739l-6.21-25.09-46.16-3.81a5.496 5.496 0 0 1-4.909-4.272 5.498 5.498 0 0 1 2.619-5.958L597.92 293l-39.11-22.58-289.55 167.21 203.69 117.6 100.59-58.08 189-109.1-96.38-55.62ZM262.87 500l210.08 121.33L768 451v-53.43L475.7 566.33a5.485 5.485 0 0 1-5.49 0l-209.5-121c-7.44 19.67-.08 47.28 2.16 54.67ZM768 517v-53.4L475.7 632.45a5.485 5.485 0 0 1-5.49 0L260.33 511.28c-9.76 20.63-.35 47.89 2.31 54.74l210.31 121.42L768 517Z" fill="#fff"/></g><defs><clipPath id="a"><path fill="#fff" d="M0 0h1024v1024H0z"/></clipPath></defs></svg>