<svg width="1024" height="1024" fill="none" xmlns="http://www.w3.org/2000/svg"><g clip-path="url(#a)"><path d="M512 1024c282.77 0 512-229.23 512-512S794.77 0 512 0 0 229.23 0 512s229.23 512 512 512Z" fill="#728DBE"/><path d="M808.62 415.72a14.126 14.126 0 0 1 13.054 8.722 14.13 14.13 0 1 1-13.054-8.722Zm-413.35 47a57.066 57.066 0 0 1 42.391 96.062 57.07 57.07 0 0 1-39.391 18.028h-3a57.074 57.074 0 0 1-57.774-55.566 57.07 57.07 0 0 1 54.774-58.524h3Zm0 92.79a34.873 34.873 0 0 0 24.903-9.691 34.865 34.865 0 0 0 7.804-11.166 34.872 34.872 0 0 0 2.933-13.303v-1.69a35.539 35.539 0 1 0-71.07-.21 34.849 34.849 0 0 0 33.74 35.85c.54.197 1.116.279 1.69.24v-.03Zm129.49-92.79a57.059 57.059 0 1 1-22.925 109.706 57.058 57.058 0 0 1-35.075-52.556A56.35 56.35 0 0 1 522.65 463a7.904 7.904 0 0 1 2.11-.25v-.03Zm0 92.79a34.873 34.873 0 0 0 24.903-9.691 34.865 34.865 0 0 0 7.804-11.166 34.872 34.872 0 0 0 2.933-13.303v-1.69a35.539 35.539 0 1 0-71.07-.21 34.849 34.849 0 0 0 33.74 35.85 5.257 5.257 0 0 0 1.69.24v-.03ZM797.23 572V465.28a2.426 2.426 0 0 1 .167-.983 2.431 2.431 0 0 1 2.363-1.547h17.5a2.556 2.556 0 0 1 2.53 2.53V572a2.56 2.56 0 0 1-2.53 2.53h-17.5a2.561 2.561 0 0 1-2.53-2.53Zm-65.8-109.24a45.443 45.443 0 0 0-39 20.46c-7-12.65-20.25-20.46-39-20.46s-29.74 10.54-33.11 16v-17.28A2.526 2.526 0 0 0 618 459a3.896 3.896 0 0 0-1.48.42l-18.35 10.54a1.155 1.155 0 0 0-.63 1.05v100.77a2.431 2.431 0 0 0 .713 1.817 2.443 2.443 0 0 0 1.817.713h17.71c.336.012.67-.045.983-.167.312-.123.596-.309.834-.546a2.431 2.431 0 0 0 .713-1.817v-58.84c0-18.14 13.29-28.68 29.52-28.68s25.73 10.54 25.73 28.68v59.26a2.56 2.56 0 0 0 2.53 2.53h17.71a2.56 2.56 0 0 0 2.53-2.53v-60.74c.63-17.29 13.71-27.21 29.74-27.21 16.03 0 25.73 10.54 25.73 28.68v59.27a2.561 2.561 0 0 0 2.53 2.53H774a2.56 2.56 0 0 0 2.53-2.53v-64.11c-.18-26.57-15.99-45.34-45.1-45.34v.01Zm-467.34 0a57.994 57.994 0 0 0-40.28 15.4v-75.5a2.443 2.443 0 0 0-2.53-2.53c-.45.042-.884.186-1.27.42l-18.14 10.54a1.164 1.164 0 0 0-.63 1.05V572a2.56 2.56 0 0 0 2.53 2.53h17.73A2.562 2.562 0 0 0 224 572v-10.56a58.377 58.377 0 0 0 40.28 15.4 57.073 57.073 0 0 0 40.735-15.747 57.054 57.054 0 0 0 17.67-39.938 57.066 57.066 0 0 0-33.958-53.543A57.068 57.068 0 0 0 267 462.75l-2.91.01Zm0 92.79a34.891 34.891 0 0 1-24.903-9.691 34.883 34.883 0 0 1-10.737-24.469v-1.69a35.64 35.64 0 1 1 71.28 0A34.85 34.85 0 0 1 266 555.54l-1.91.01Z" fill="#fff"/></g><defs><clipPath id="a"><path fill="#fff" d="M0 0h1024v1024H0z"/></clipPath></defs></svg>