<svg width="1024" height="1024" fill="none" xmlns="http://www.w3.org/2000/svg"><g clip-path="url(#a)"><path d="M512 1024c282.77 0 512-229.23 512-512S794.77 0 512 0 0 229.23 0 512s229.23 512 512 512Z" fill="#56595B"/><path d="M768 554.7V640c0 23.6-19.1 42.7-42.7 42.7H298.7c-23.6 0-42.7-19.1-42.7-42.7v-85.3c0-23.6 19.1-42.7 42.7-42.7h426.7c23.5 0 42.6 19.1 42.6 42.7Zm-42.7-71.1c9.4 0 18.7 1.9 27.4 5.5l-85.8-128.7c-7.9-11.9-21.2-19-35.5-19H392.6c-14.3 0-27.6 7.1-35.5 19L271.3 489c8.7-3.6 18-5.5 27.4-5.5h426.6v.1Zm-42.6 85.3c-15.7 0-28.4 12.7-28.4 28.4s12.7 28.4 28.4 28.4 28.4-12.7 28.4-28.4-12.7-28.4-28.4-28.4Zm-85.4 0c-15.7 0-28.4 12.7-28.4 28.4s12.7 28.4 28.4 28.4 28.4-12.7 28.4-28.4c.1-15.7-12.7-28.4-28.4-28.4Z" fill="#fff"/></g><defs><clipPath id="a"><path fill="#fff" d="M0 0h1024v1024H0z"/></clipPath></defs></svg>