<svg width="1024" height="1024" viewBox="0 0 1024 1024" fill="none" xmlns="http://www.w3.org/2000/svg">
<g clip-path="url(#clip0_2_1713)">
<path d="M512 1024C794.77 1024 1024 794.77 1024 512C1024 229.23 794.77 0 512 0C229.23 0 0 229.23 0 512C0 794.77 229.23 1024 512 1024Z" fill="#96DFD3"/>
<path d="M576.04 769.13C568.31 769.13 560.52 766.59 554.03 761.35C538.95 749.18 536.59 727.1 548.76 712.02L655.89 579.24L548.7 445.69C536.57 430.58 538.99 408.5 554.1 396.37C569.21 384.24 591.29 386.66 603.42 401.77L728.28 557.34C738.6 570.19 738.57 588.5 728.22 601.33L603.36 756.09C596.43 764.68 586.28 769.14 576.03 769.14L576.04 769.13ZM469.9 627.64C485.01 615.51 487.43 593.43 475.3 578.32L368.11 444.77L475.24 311.99C487.41 296.91 485.04 274.82 469.97 262.66C454.89 250.49 432.8 252.85 420.64 267.93L295.78 422.69C285.43 435.52 285.41 453.82 295.72 466.68L420.58 622.25C427.51 630.89 437.69 635.37 447.96 635.37C455.66 635.37 463.42 632.84 469.9 627.65V627.64Z" fill="white"/>
</g>
<defs>
<clipPath id="clip0_2_1713">
<rect width="1024" height="1024" fill="white"/>
</clipPath>
</defs>
</svg>
