<svg width="1024" height="1024" fill="none" xmlns="http://www.w3.org/2000/svg"><g clip-path="url(#a)"><path d="M512 1024c282.77 0 512-229.23 512-512S794.77 0 512 0 0 229.23 0 512s229.23 512 512 512Z" fill="#728DBE"/><path d="M520.29 416.51a95.475 95.475 0 0 0-84.38 50.75 95.542 95.542 0 0 0-26.481-31.193 95.547 95.547 0 0 0-78.016-17.417 95.551 95.551 0 0 0-37.233 16.97v-80.48a19.09 19.09 0 1 0-38.18 0v158.47a95.52 95.52 0 0 0 179.88 43.21 95.526 95.526 0 0 0 166.251 4.453A95.529 95.529 0 0 0 520.26 416.51m-168.75 152.8a57.277 57.277 0 0 1-52.917-35.353 57.29 57.29 0 0 1-3.265-33.091 57.286 57.286 0 0 1 78.081-41.765A57.284 57.284 0 0 1 408.79 512a57.313 57.313 0 0 1-57.28 57.3m168.78 0a57.281 57.281 0 0 1-11.173-113.458A57.283 57.283 0 0 1 577.58 512a57.3 57.3 0 0 1-57.29 57.3ZM764 575.58c6.58 8.44 4.69 20.16-4.38 26.43s-21.83 4.67-28.86-3.51l-44.66-54.74-44.66 54.74c-7 8.18-19.78 9.78-28.84 3.51-9.06-6.27-10.95-18-4.34-26.43l51.89-63.69-51.89-63.81c-6.61-8.42-4.71-20.17 4.34-26.42s21.88-4.68 28.84 3.48l44.68 54.81 44.72-54.81a22 22 0 0 1 28.86-3.48c9.07 6.24 11 18 4.39 26.42l-52 63.81L764 575.58Z" fill="#fff"/></g><defs><clipPath id="a"><path fill="#fff" d="M0 0h1024v1024H0z"/></clipPath></defs></svg>