<svg width="1024" height="1024" viewBox="0 0 1024 1024" fill="none" xmlns="http://www.w3.org/2000/svg">
<g clip-path="url(#clip0_2_1719)">
<path d="M512 1024C794.77 1024 1024 794.77 1024 512C1024 229.23 794.77 0 512 0C229.23 0 0 229.23 0 512C0 794.77 229.23 1024 512 1024Z" fill="#71A372"/>
<path d="M323.2 316.9C287.6 359.4 268.7 406.1 264.1 462.7L263.1 475.2H246.3C226.7 475.2 228.6 477.9 230.8 453.3C236.6 391.8 259.1 339.6 300.2 291.3L310.7 278.9L322.8 291L334.7 302.9L323.2 316.9ZM417.5 395C399.2 418.1 389.4 440.7 387.5 464.2L386.6 475.3H269L269.9 462.8C274.3 407 295.5 356.6 331.2 316.5L339.3 307.4L380.5 348.6L421.7 389.9L417.5 395ZM541.5 321.2C568.8 326.3 597.4 340.4 617.9 358.5L623.3 363.3L611.4 375.2L599.6 387L595.2 383.6C585.5 375.6 573.6 368.1 563.8 363.6C552.7 358.5 533 353.1 524.9 353.1C513.4 353 513.5 353.2 513.5 335.2V319H521.9C526.4 319 535.4 320 541.5 321.2ZM666.4 346.3C694.8 380.7 710.8 419.9 714.5 463.4L715.5 475.2H637V467.7C637 446.1 625.1 417.7 606.2 394.6L602.4 389.9L629.4 362.9C644.2 348.1 656.7 336.1 657.1 336.1C657.5 336.1 661.8 340.8 666.4 346.3ZM510.7 377.1V395.3L503 396.3C487.2 398.1 473.3 404.3 457.1 416.3C455.8 417.3 452 414.5 442.5 404.9C435.5 397.9 429.7 391.7 429.7 391.1C429.7 388.8 449.2 375.6 460.2 370.1C473.4 363.6 490.7 359 502.5 358.9L510.6 358.8V377.1H510.7ZM540.5 361.6C547.2 363.3 557.7 367 563.9 370.1C574.7 375.2 594.4 388.8 594.4 391.1C594.4 391.7 588.6 397.9 581.6 404.9C572.1 414.4 568.3 417.3 567 416.3C551 404.2 540 399.3 523.4 396.4L514.2 395L513.8 376.8L513.4 358.8H520.9C525 358.8 533.8 360.1 540.5 361.6ZM447.6 427.2C439.9 436.1 434.1 449.1 431.4 463L429.1 475.2H392.3L393.2 464.4C395 444.2 405.3 420 419.9 401.4L425.7 394L439.3 407.5L452.8 421L447.6 427.2ZM606.2 403.8C621.1 423.3 631.2 449.5 631.3 468.4V475.2H595.1L592.8 463.3C590.1 449.2 585.6 439 577.5 428.4L571.7 420.6L584.1 408.2C590.9 401.2 597.3 395.7 598.3 395.7C599.1 395.7 602.8 399.4 606.2 403.8ZM429.7 482.6C429.8 495.7 438.6 518.4 447.6 528.9L452.3 534.4L438.8 547.7L425.3 561L420.5 555.3C405.2 537.3 393 506.5 392.8 486V479.3H411.3C429.4 479.5 429.7 479.5 429.7 482.6ZM630.9 490.9C629.3 511.6 617.8 538.8 603.6 555.5L598.8 561.2L585.9 548.4C578.9 541.4 573.1 535.2 573.1 534.6C573.1 534 575.7 530.2 578.8 526.1C585.9 516.7 591.3 503.4 593.4 489.9L595.1 479.5H631.7L630.9 490.9ZM714.6 491.9C711.6 528.8 698 566.7 677.4 595.4C668.5 607.9 659.1 618.7 657.2 618.7C656.6 618.7 644.1 606.6 629.4 591.9L602.4 564.9L607.4 559.5C623.2 542 634.7 515.9 636.5 493.3C636.9 487.6 637.5 482.2 637.9 481.2C638.2 479.9 647.3 479.5 676.9 479.5H715.5L714.6 491.9ZM462.4 543.3C474.2 552.7 494.5 560.3 507.6 560.5C510.7 560.5 510.7 560.8 510.7 579.1V597.8L500.5 596.9C486.2 595.8 475.2 592.6 460.3 585.4C447 579 429.8 567.1 429.8 564.2C429.8 562.8 453.7 537.6 455.1 537.6C455.1 537.7 458.6 540.3 462.4 543.3ZM582.8 550.9L596 564.2L589.6 569.5C570 585.5 540.9 597.2 520.3 597.3H513.5V560.7L521.7 559.7C537 557.9 557.9 548.8 565.3 540.5C566.7 538.9 568.3 537.7 568.7 537.7C569.3 537.7 575.6 543.7 582.8 550.9ZM432.3 574.8C450.2 590.6 478.4 601.6 505 603.5L510 603.8L510.4 620.4L510.8 637.2H503.8C485.5 637.2 456.5 629.1 437.1 618.7C425.3 612.3 409.8 601.4 404.3 595.4L400.8 591.6L412 580.4C418.2 574.2 423.8 569 424.5 569C425.2 569 428.7 571.5 432.3 574.8ZM627.7 595.8L654.4 622.5L647.7 628.7C616.2 658 567 678.4 524.9 680L514.3 680.4V603.8L524.2 602.9C536.7 601.8 549.5 598.5 561.8 593.2C572.6 588.8 589.1 578.3 594.3 572.6C596.3 570.6 598.4 568.9 599.3 568.9C600.2 568.9 612.9 581 627.7 595.8ZM670.8 639L682.6 650.9L675.1 657.7C643.4 686.2 604.8 706 563.2 714.9C548.1 718.2 518.6 721.6 515.5 720.3C513.9 719.7 513.5 716 513.5 703.4V687.2L526 686.2C573 682.4 618.4 663.5 649.1 635.1C653.8 630.8 657.9 627.3 658.3 627.1C658.8 627.2 664.5 632.6 670.8 639ZM714.4 682.7L741.4 709.7L734.3 716.2C702.1 745.3 667.1 767.2 629.1 781.9C598.3 793.8 551.7 803.2 523.7 803.2H513.5V727L532.4 725.4C565.3 722.4 592.2 715 620.7 701C640.9 691.2 659 679.3 674.7 665.6C680.9 660.1 686.3 655.7 686.8 655.5C687.2 655.6 699.7 667.8 714.4 682.7Z" fill="white"/>
</g>
<defs>
<clipPath id="clip0_2_1719">
<rect width="1024" height="1024" fill="white"/>
</clipPath>
</defs>
</svg>
