<svg width="1024" height="1024" viewBox="0 0 1024 1024" fill="none" xmlns="http://www.w3.org/2000/svg">
<g clip-path="url(#clip0_2_1725)">
<path d="M512 1024C794.77 1024 1024 794.77 1024 512C1024 229.23 794.77 0 512 0C229.23 0 0 229.23 0 512C0 794.77 229.23 1024 512 1024Z" fill="#56595B"/>
<path d="M862.97 557.78C862.97 557.78 856.01 548.02 853.86 545.23C852.36 543.41 850.54 541.27 845.82 544.48C835.22 551.55 823.33 558.09 808.66 558.09C797.41 558.09 787.66 555.2 780.38 548.98C783.49 547.58 786.7 546.08 789.91 544.26C807.27 534.93 821.72 522.92 828.69 515.95C862.43 482.17 851.94 431.77 810.7 431.77C771.81 431.77 741.18 469.62 741.18 511.77C741.18 518.09 741.92 527.21 744.6 536.75C742.35 537.82 726.93 545.33 708.5 555.52C691.14 542.54 664.15 548.34 664.15 548.34C689.22 512.63 727.03 456.97 730.25 452.37C732.6 449.04 732.18 445.82 729.92 440.68C727.03 434.46 724.14 433.38 720.28 433.38H641.76C639.2 433.38 637.16 434.56 636.4 437.46C635.65 440.35 634.05 450.32 633.73 453.65C633.4 457.09 636.62 459.23 639.94 459.23H696.82L645.4 532.9C645.07 533.23 644.76 533.54 644.43 533.97C636.94 544.8 625.47 559.92 611.76 559.92C603.19 559.92 592.59 553.81 592.59 533.75C592.59 513.69 600.52 472.63 606.3 440.24C606.94 436.8 605.77 433.38 600.19 433.38H586.27C583.05 433.38 581.23 435.32 580.81 438.1C579.95 443.03 579.09 447.85 578.34 452.58C571.49 439.39 560.45 431.88 544.6 431.88C529.82 431.88 515.46 437.36 503.68 449.15C474.32 478.53 479.89 526.47 454.52 551.88C443.59 562.82 431.26 559.49 431.26 537.94C431.26 513.38 440.69 485.93 451.41 459.98C453.33 455.36 451.3 451.5 449.26 448.61C446.37 444.42 445.3 442.28 440.16 442.28C432.12 442.28 419.38 447.33 393.78 447.33C388.32 447.33 383.17 447.11 378.45 446.79C378.78 442.93 378.78 440.36 378.89 439.39C379.1 435.74 377.82 433.49 373.96 433.49H360.89C356.18 433.49 355 435.75 354.46 439.5C352.21 455.16 348.04 512.74 319.11 541.59C315.79 544.91 313.75 545.99 313.75 545.99C320.93 531.94 324.79 513.5 324.79 498.81C324.79 457.63 300.47 432.11 269.84 432.11C260.52 432.11 250.66 435.11 241.35 440.89C245.63 415.8 249.6 392.32 250.99 384.38C252.17 377.62 249.81 374.19 247.99 371.4C245.08 366.91 242.53 364.86 238.66 364.86H193.45C190.88 364.86 188.96 366.68 188.3 369.58C187.55 372.9 185.95 381.69 185.74 385.76C185.52 389.3 187.99 390.69 190.88 390.69H223.88C218.64 423.09 208.57 485.82 205.56 501.57C201.72 521.62 187.46 546.18 163.48 554.98C160.48 556.05 159.3 558.84 160.37 562.06C161.44 565.28 165.62 573.64 166.91 575.78C168.2 578.04 170.98 579.43 173.55 578.57C185.97 574.16 197.43 567.1 206.43 558.09C208.742 555.776 210.891 553.303 212.86 550.69C223.56 574.93 245.64 583.73 268.01 583.73C293.4 583.73 320.83 574.82 340.11 555.62C362.61 533.1 371.92 496 376 469.63C381.57 470.37 387.89 471.01 394 471.01C409.42 471.01 422.39 467.69 422.39 467.69C422.39 467.69 406.86 509.08 406.86 539.54C406.86 573.96 423.35 583.72 441.46 583.72C459.57 583.72 473.38 569.68 482.69 552.2C485.16 557.66 488.8 564.09 493.73 569.03C502.19 577.51 512.69 583.73 527.9 583.73C545.26 583.73 560.15 573.76 570.75 558.32C572.67 564.86 575.57 570.21 579.53 574.18C584.88 579.55 594.74 583.73 606.95 583.73C628.05 583.73 640.37 567.86 673.26 567.86C677.44 567.86 681.19 568.5 684.62 569.68C669.51 578.9 655.16 588.76 646.38 597.56C619.27 624.7 617.98 660.51 635.77 678.31C657.4 699.98 688.04 689.03 707.32 669.83C729.81 647.32 736.35 604.75 723.39 575.68C739.13 567.42 752.32 561.32 755.42 559.81C765.28 573.21 781.56 583.72 808.34 583.72C827.51 583.72 846.9 576.96 862.01 565.49C864.16 563.45 864.69 560.12 862.98 557.77L862.97 557.78ZM281.21 548.56C275.1 554.67 267.6 558 259.99 558C252.92 558 246.82 554.78 241.67 549.63C224.31 532.26 225.81 489.48 248.21 467.07C254.53 460.74 262.24 457.1 270.06 457.1C277.13 457.1 283.23 460.21 288.38 465.36C304.66 481.77 305.62 524.13 281.2 548.58L281.21 548.56ZM529.4 557.89C510.65 557.89 498.44 535.26 502.18 507.38C505.93 479.5 524.14 456.88 542.88 456.88C560.24 456.88 572.03 476.29 570.74 501.28C570.2 504.92 569.77 508.35 569.45 511.78C564.41 537.63 547.16 557.89 529.39 557.89H529.4ZM685.47 656.12C660.94 680.68 629.66 649.36 666.18 612.79C674.44 604.53 688.03 595.42 702.18 587.06C710.21 607 703.89 637.67 685.47 656.12ZM783.91 467.6C802.33 449.15 822.8 454.62 822.8 472.53C822.8 490.44 801.91 508.88 776.63 523.46C774.16 524.85 771.26 526.46 768.37 527.96C767.4 523.56 766.87 518.74 766.87 513.27C766.76 498.26 773.08 478.42 783.9 467.59L783.91 467.6Z" fill="white"/>
</g>
<defs>
<clipPath id="clip0_2_1725">
<rect width="1024" height="1024" fill="white"/>
</clipPath>
</defs>
</svg>
