<svg width="1024" height="1024" viewBox="0 0 1024 1024" fill="none" xmlns="http://www.w3.org/2000/svg">
<g clip-path="url(#clip0_2_1728)">
<path d="M512 1024C794.77 1024 1024 794.77 1024 512C1024 229.23 794.77 0 512 0C229.23 0 0 229.23 0 512C0 794.77 229.23 1024 512 1024Z" fill="#71A372"/>
<path d="M716.98 513.41C716.98 484.88 735.11 464.81 760.89 464.81C786.67 464.81 805.09 484.87 805.09 513.41C805.09 541.95 786.68 560.87 760.89 560.87C735.1 560.87 716.98 541.09 716.98 513.41ZM690.06 513.41C690.06 555.51 719.52 585.18 760.88 585.18C802.24 585.18 831.99 555.51 831.99 513.41C831.99 471.31 802.53 440.52 760.88 440.52C719.23 440.52 690.06 470.76 690.06 513.41ZM552.65 442.21L608.18 583.48H634.25L689.78 442.21H661.73L621.5 551.27H620.93L580.7 442.21H552.65ZM444.7 508.32C446.4 482.32 463.68 464.81 487.2 464.81C507.59 464.81 522.9 477.81 525.16 497.31H478.13C461.42 497.31 452.35 499.29 445.56 508.33H444.71L444.7 508.32ZM417.79 512.56C417.79 554.66 447.54 585.17 488.61 585.17C516.38 585.17 540.74 571.05 551.22 548.72L528.56 537.41C520.63 552.1 505.33 560.86 488.61 560.86C468.49 560.86 450.36 545.6 450.36 530.91C450.36 523.29 455.46 519.89 462.82 519.89H552.63V512.27C552.63 469.88 525.43 440.5 486.34 440.5C447.25 440.5 417.78 470.74 417.78 512.55M340.72 583.47H366.22V496.74C366.22 478.09 377.83 464.81 393.99 464.81C400.79 464.81 407.87 467.07 411.28 470.17C413.83 463.39 417.8 456.61 423.74 449.83C416.94 444.18 405.33 440.5 393.99 440.5C362.83 440.5 340.72 463.67 340.72 496.73V583.48V583.47ZM217.48 489.97V421.02H259.41C273.57 421.02 282.93 429.21 282.93 441.64C282.93 455.76 270.75 466.5 245.82 474.7C228.82 480.06 221.18 484.59 218.34 489.96H217.49L217.48 489.97ZM217.48 559.19V530.37C217.48 517.65 228.25 505.22 243.26 500.42C256.58 495.9 267.62 491.37 276.97 486.58C289.43 493.93 297.08 506.64 297.08 519.92C297.08 542.52 275.55 559.19 246.37 559.19H217.48ZM191.98 583.48H248.64C291.71 583.48 324 556.64 324 521.04C324 501.54 314.09 484.03 296.52 472.72C305.59 463.67 309.84 453.22 309.84 440.51C309.84 414.24 290.86 396.72 262.25 396.72H191.98V583.49V583.48Z" fill="white"/>
</g>
<defs>
<clipPath id="clip0_2_1728">
<rect width="1024" height="1024" fill="white"/>
</clipPath>
</defs>
</svg>
