<svg width="1024" height="1024" viewBox="0 0 1024 1024" fill="none" xmlns="http://www.w3.org/2000/svg">
<g clip-path="url(#clip0_2_1737)">
<path d="M512 1024C794.77 1024 1024 794.77 1024 512C1024 229.23 794.77 0 512 0C229.23 0 0 229.23 0 512C0 794.77 229.23 1024 512 1024Z" fill="#56595B"/>
<path d="M285.3 372.8L510.8 256L738.8 372.8L510.8 490L285.3 372.8ZM356.9 475.4L510.8 551.1L666.3 475.4L738.8 510.7L510.8 621.7L285.3 510.7L356.9 475.4ZM356.9 607.1L510.8 690.5L666.3 607.1L738.8 645.8L510.8 768L285.3 645.8L356.9 607.1Z" fill="white"/>
</g>
<defs>
<clipPath id="clip0_2_1737">
<rect width="1024" height="1024" fill="white"/>
</clipPath>
</defs>
</svg>
