<svg width="1024" height="1024" fill="none" xmlns="http://www.w3.org/2000/svg"><g clip-path="url(#a)"><path d="M512 1024c282.77 0 512-229.23 512-512S794.77 0 512 0 0 229.23 0 512s229.23 512 512 512Z" fill="#F8C18C"/><path d="M338.78 529.15a3.995 3.995 0 0 1-1-2v-52.07h-17.57v32a28.596 28.596 0 0 1-1.49 9.13 26.984 26.984 0 0 1-4 7.52 19.132 19.132 0 0 1-6.09 5 23.807 23.807 0 0 1-8.52 2 8.524 8.524 0 0 1-6.55-2 12.726 12.726 0 0 1-3.5-5 28.34 28.34 0 0 1-1-7.52v-32.27a7.347 7.347 0 0 0-5.244-8.851 7.357 7.357 0 0 0-3.756-.009H263v14.55h5.48a4.411 4.411 0 0 1 2.53.52 2.998 2.998 0 0 1 1 2.5v27.12a30.623 30.623 0 0 0 3 15 17.625 17.625 0 0 0 8.65 8.4 26.488 26.488 0 0 0 13.06 2.5 47.865 47.865 0 0 0 8.52-1 18.257 18.257 0 0 0 7-3.5 55.385 55.385 0 0 0 5.54-4.54 20.765 20.765 0 0 0 3.5-5.51h.49v5a6.456 6.456 0 0 0 2.53 5.51 9.743 9.743 0 0 0 7 2h16.07v-14.48h-5.66c-2 .49-2.5.49-3 0m-101.92-10a18.589 18.589 0 0 1-9.5 10.53 11.109 11.109 0 0 1-7 1.52c-2.658.174-5.3-.529-7.52-2a17.586 17.586 0 0 1-5.54-5 30.97 30.97 0 0 1-3.5-7 37.885 37.885 0 0 1-1-8 30.224 30.224 0 0 1 1.49-10 23.838 23.838 0 0 1 4-7 22.299 22.299 0 0 1 5.42-4 14.769 14.769 0 0 1 6.51-1 17.14 17.14 0 0 1 9.13 2.5 22.26 22.26 0 0 1 6.09 7.52 27.727 27.727 0 0 1 2 11.57 17.747 17.747 0 0 1-.49 10.53m10.53-35.65a31.202 31.202 0 0 0-10-7.52 35.246 35.246 0 0 0-13.06-2.53 45.639 45.639 0 0 0-8 1 18.276 18.276 0 0 0-5.51 2 13.888 13.888 0 0 0-4 3c-1 1-2 1.52-2.5 2.53-.52 0-.52.49-1 1v-25.79a8.16 8.16 0 0 0-2.56-7c-1-2-3.5-3-7-2.65h-16.65v14.7h5.51a4.687 4.687 0 0 1 2.53.52 2.998 2.998 0 0 1 1.1 2.5v78.82h16v-8a24.065 24.065 0 0 0 3 3.5 28.79 28.79 0 0 0 4 3 31.817 31.817 0 0 0 6.09 2.53c2.626.6 5.306.935 8 1a37.304 37.304 0 0 0 13.06-2.53 25.57 25.57 0 0 0 10.58-7.54 37.298 37.298 0 0 0 7-11.57 47.664 47.664 0 0 0 2.53-15 43.016 43.016 0 0 0-2-14.58 37.483 37.483 0 0 0-7-11.54m157 34.22a26.744 26.744 0 0 1-3.53 6.51 19.994 19.994 0 0 1-5.51 3.5c-1.98.59-4.026.926-6.09 1a14.549 14.549 0 0 1-9.53-3 22.373 22.373 0 0 1-6.09-7.55A24.337 24.337 0 0 1 372 507c-.209-3.45.48-6.895 2-10a14 14 0 0 1 5.51-6.55 17.294 17.294 0 0 1 9.13-2.5c2.363.079 4.71.414 7 1a11.814 11.814 0 0 1 5.54 3 18.008 18.008 0 0 1 4 6.09 28.024 28.024 0 0 1 1.52 10 40.32 40.32 0 0 1-2.13 9.56m6.08-41.6a6.096 6.096 0 0 0-2.53 2.5 7.356 7.356 0 0 0-1 3v2h-.49a1.549 1.549 0 0 0-.52-1c-.49-1-1.49-1.49-2.5-2.5a28.79 28.79 0 0 0-4-3 31.817 31.817 0 0 0-6.09-2.53 45.637 45.637 0 0 0-8.52-1 38.31 38.31 0 0 0-13.58 2.5 24.136 24.136 0 0 0-10 7.52 38.902 38.902 0 0 0-6.09 11.05 41.914 41.914 0 0 0-2 13.55c-.158 4.61.52 9.211 2 13.58a38.889 38.889 0 0 0 6.09 11.05 25.81 25.81 0 0 0 10 7.52 31.012 31.012 0 0 0 12.747 3.012 31.015 31.015 0 0 0 12.853-2.522 25.522 25.522 0 0 0 8-6.51h.4v10a20.88 20.88 0 0 1-1.52 8 10.754 10.754 0 0 1-4.38 4.93 15.213 15.213 0 0 1-6.51 3 37.756 37.756 0 0 1-7.55 1v15.07a87.032 87.032 0 0 0 11.05-1 34.203 34.203 0 0 0 10-3.5 33.5 33.5 0 0 0 8.52-6.09 22.593 22.593 0 0 0 5.57-9.53 33.494 33.494 0 0 0 2-12.57v-51.04c.49-1 .49-1.52 1-2a2.999 2.999 0 0 1 2-.49h5.51v-14.92h-16.53a5.391 5.391 0 0 0-4 1m149.6-2c-3.479.07-6.898.924-10 2.5a18.903 18.903 0 0 0-7.52 6.55 31.607 31.607 0 0 0-5 9.13h-.49v-8.52a8.554 8.554 0 0 0-2.53-6.51 9.738 9.738 0 0 0-7-2.13h-16v14.55H517a4.353 4.353 0 0 1 2.5.52 2.859 2.859 0 0 1 1 2.5v51.73h17.57v-27.8c-.09-2.044.085-4.091.52-6.09.49-2 .49-3.53 1-5.54a16.561 16.561 0 0 1 3.5-6.51 17.69 17.69 0 0 1 10-7 23.732 23.732 0 0 1 6.09-.52h4v-17h-3M745 476.42a11.747 11.747 0 0 0-3.5 5.54l-10.1 38.78c-.52 1-.52 2.53-1 3.53 0 1.49-.52 2.5-.52 4h-.49v-1.16a22.252 22.252 0 0 1-.52-2.53c-.49-1-.49-2.5-1-3.5l-13-45.18h-15.61l-13 45.18c-.52 1-.52 2.5-1 3.5a22.252 22.252 0 0 1-.52 2.53v1h-.49v-1a22.252 22.252 0 0 1-.52-2.53 9.129 9.129 0 0 0-1-3.5l-10.53-38.66a8.921 8.921 0 0 0-3.53-5.51 12.42 12.42 0 0 0-6.51-1.52h-12.22V490H652a3.928 3.928 0 0 1 2.53.49 6.913 6.913 0 0 1 1.49 2l17.08 52.21h20.09l12.18-39.58c.52-1 .52-2.5 1-3.5l.52-3v-1h.49v1c.258.983.432 1.987.52 3 .49 1 .49 2.5 1 3.5l12.18 39.58h20.06l17.08-52.21a6.913 6.913 0 0 1 1.49-2 3.927 3.927 0 0 1 2.53-.49h2v-14.92h-12.13a13.36 13.36 0 0 0-7 1.49m74.8 43.2a23.398 23.398 0 0 1-4 7 21.704 21.704 0 0 1-5.51 3.87 15.437 15.437 0 0 1-6.51 1.52 17.164 17.164 0 0 1-9.13-2.53 22.25 22.25 0 0 1-6.09-7.52 28.187 28.187 0 0 1-2-11.54 24.34 24.34 0 0 1 1.52-9.13 14.458 14.458 0 0 1 4-6.45 16.291 16.291 0 0 1 12.54-5.51 12.184 12.184 0 0 1 7.52 2 17.607 17.607 0 0 1 5.63 4.9 30.97 30.97 0 0 1 3.5 7 37.893 37.893 0 0 1 1 8 50.943 50.943 0 0 0-2.53 8l.06.39Zm22.1 10a2.6 2.6 0 0 1-2-1 3.81 3.81 0 0 1-1-2v-70a8.166 8.166 0 0 0-2.62-7 9.92 9.92 0 0 0-7-2.13h-16.64v14.7h5.51c1 0 1.52 0 2 .49a3.008 3.008 0 0 1 1 2.53v16h-.52a1.583 1.583 0 0 0-.49-1c-.49-1-1.49-1.49-2-2a10.416 10.416 0 0 0-4-2.5 27.385 27.385 0 0 0-6.09-2 42.341 42.341 0 0 0-8-1 37.834 37.834 0 0 0-13 2.5A21.31 21.31 0 0 0 777 483a33.004 33.004 0 0 0-6.55 11.54 46.85 46.85 0 0 0-2.5 15.07c.068 4.914.739 9.8 2 14.55a28.778 28.778 0 0 0 6.51 11.54 31.258 31.258 0 0 0 10 7.55 35.891 35.891 0 0 0 13.06 2.5 47.876 47.876 0 0 0 8.52-1 11.142 11.142 0 0 0 6.09-3 13.513 13.513 0 0 0 4-3.5 27.062 27.062 0 0 0 3-4h.49v2.53a7.423 7.423 0 0 0 1 3.5 5.21 5.21 0 0 0 3 2.5c1.595.625 3.287.963 5 1h16v-14.63l-5 .52.39.1Zm-343-7.18a18.41 18.41 0 0 1-3 2.53l-4.51 3c-2 1-4 1.49-6.09 2.5-2.283.62-4.635.956-7 1a20.866 20.866 0 0 1-8-1.49 19.85 19.85 0 0 1-6.94-4 20.519 20.519 0 0 1-5-6.55 24.339 24.339 0 0 1-2-9.53 25.793 25.793 0 0 1 2.5-11.05 15.562 15.562 0 0 1 7.55-7.52 20.242 20.242 0 0 1 11.05-3 10.209 10.209 0 0 1 3.53.49 9.129 9.129 0 0 1 3.5 1c.909.375 1.761.876 2.53 1.49a4.005 4.005 0 0 1 1 2.5v4h15.56v-9.13a8.801 8.801 0 0 0-2-6.09 12.937 12.937 0 0 0-4.54-4.54l-6.09-3c-2-.49-4.51-1-7-1.49a23.732 23.732 0 0 0-6.09-.52 39.85 39.85 0 0 0-16.07 3 30.079 30.079 0 0 0-12.18 8 28.993 28.993 0 0 0-7.72 11.62 40.41 40.41 0 0 0 0 28.13 34.999 34.999 0 0 0 7.52 11.54 39.058 39.058 0 0 0 12.18 8 39.85 39.85 0 0 0 16.07 3 37.504 37.504 0 0 0 10.55-1.48 59.23 59.23 0 0 0 8.52-3 30.895 30.895 0 0 0 6.09-3.53 46.664 46.664 0 0 0 5-4.51l-7.52-12.18c-.52-.52-1-.52-1.52.49m127.56-3.65a21.306 21.306 0 0 1-4.51 7 19.419 19.419 0 0 1-6.45 4.51 22.626 22.626 0 0 1-8 1.49 20.731 20.731 0 0 1-8-1.49 15.216 15.216 0 0 1-6.55-4.51 21.306 21.306 0 0 1-4.51-7 27.885 27.885 0 0 1 0-18.08 21.306 21.306 0 0 1 4.51-7 19.017 19.017 0 0 1 6.55-4.51 22.64 22.64 0 0 1 8-1.52 21.31 21.31 0 0 1 15.07 6.09 17.011 17.011 0 0 1 4.54 7 24.364 24.364 0 0 1 1.49 9.13 57.106 57.106 0 0 1-2 9.13m8-35.13a32.237 32.237 0 0 0-12.54-7.52 39.576 39.576 0 0 0-15.22-2.53 49.502 49.502 0 0 0-15.07 2.53 36.53 36.53 0 0 0-12.54 7.52 26.817 26.817 0 0 0-8 11.54 36.165 36.165 0 0 0-3 14.58 34.266 34.266 0 0 0 3 14.55 36.167 36.167 0 0 0 8 11.54 28.996 28.996 0 0 0 12.54 7.55 39.582 39.582 0 0 0 15.07 2.5 47.121 47.121 0 0 0 15.22-2.5 36.538 36.538 0 0 0 12.54-7.55 32.575 32.575 0 0 0 8.52-11.54 35.884 35.884 0 0 0 3-14.55 34.433 34.433 0 0 0-3-14.58 32.855 32.855 0 0 0-8.52-11.54Z" fill="#fff"/></g><defs><clipPath id="a"><path fill="#fff" d="M0 0h1024v1024H0z"/></clipPath></defs></svg>