<svg width="1024" height="1024" fill="none" xmlns="http://www.w3.org/2000/svg"><g clip-path="url(#a)"><path d="M512 1024c282.77 0 512-229.23 512-512S794.77 0 512 0 0 229.23 0 512s229.23 512 512 512Z" fill="#728DBE"/><path d="M252.75 438.19h-30.63c-2.18 0-3.27 1-3.27 3v31c0 2.07 1.09 3 3.27 3h30.62c2.18 0 3.27-1 3.27-3v-31a2.88 2.88 0 0 0-.926-2.273 2.874 2.874 0 0 0-2.344-.727h.01ZM406.33 454a48.122 48.122 0 0 0-22.55-14.78 114.08 114.08 0 0 0-34.44-4.52 119.039 119.039 0 0 0-18 1.32 95.533 95.533 0 0 1-11.55 1.32c-1.747 0-2.62-.773-2.62-2.32V369.3a2.925 2.925 0 0 0-.77-2.45 2.821 2.821 0 0 0-2.4-.85h-24.43c-2.17 0-3.15 1.06-3.15 4.37v240.35c0 .44 1 1.54 2.83 2.21a213.553 213.553 0 0 0 24.1 5.07 205.549 205.549 0 0 0 29.87 2 112.36 112.36 0 0 0 39.09-5.86 51.002 51.002 0 0 0 24.19-18.31 76.937 76.937 0 0 0 12.32-31.27 242.618 242.618 0 0 0 3.49-44.68 173.35 173.35 0 0 0-3.7-39.17A62.26 62.26 0 0 0 406.33 454Zm-17.59 104a53.8 53.8 0 0 1-6.43 22.29 26.923 26.923 0 0 1-14.38 11.8 78.319 78.319 0 0 1-25.18 3.31c-3.6 0-7.82-.22-12.54-.55a44.971 44.971 0 0 1-10.9-1.88 3.29 3.29 0 0 1-2.29-3.64v-122a4.521 4.521 0 0 1 2.62-4.74 90.149 90.149 0 0 1 10.25-2 103.383 103.383 0 0 1 15-1 76.829 76.829 0 0 1 21.91 2.65 25.41 25.41 0 0 1 14 9.93 48.368 48.368 0 0 1 7.25 19.8 187.606 187.606 0 0 1 2.07 31.34 315.406 315.406 0 0 1-1.31 34.64l-.07.05ZM577.9 440.39h-24.31c-2.18 0-3.16 1.09-3.16 3.27v144.49c0 1.75-1.09 2.93-3.16 3.6a88.511 88.511 0 0 1-12.32 2c-4.58.44-9.37.65-14.28.65a89.44 89.44 0 0 1-19.84-1.86 22.606 22.606 0 0 1-18.42-18.85 88.666 88.666 0 0 1-1.75-19.4V443.62a2.853 2.853 0 0 0-3.16-3.27h-24.29c-2.18 0-3.16 1.09-3.16 3.27v114a121.983 121.983 0 0 0 3.16 30.19 38.499 38.499 0 0 0 11.23 19.07A46.673 46.673 0 0 0 486.23 617a171.212 171.212 0 0 0 34.89 3c3.81 0 8.18-.22 13-.55 4.82-.33 9.77-.87 14.93-1.52s10.25-1.42 15.26-2.29c5.01-.87 9.7-1.75 14-2.62 2.18-.44 3.16-1.52 3.16-3.27V443.62a3.152 3.152 0 0 0-3.5-3.27l-.07.04Zm224-74.4h-24.44c-2.18 0-3.27 1.1-3.27 3.42v243.45a2.996 2.996 0 0 0 .8 2.52 2.936 2.936 0 0 0 2.47.9h24.43c2.18 0 3.26-1.1 3.26-3.42V369.41c.01-2.31-1.07-3.41-3.26-3.41l.01-.01ZM252.75 574.21h-30.63c-2.18 0-3.27 1-3.27 3v31c0 2.07 1.09 3 3.27 3h30.62c2.18 0 3.27-1 3.27-3v-31a2.88 2.88 0 0 0-.926-2.273 2.874 2.874 0 0 0-2.344-.727h.01Zm487.44-108.68a41.458 41.458 0 0 0-10.25-19.07 38.924 38.924 0 0 0-18.57-9.69 126.297 126.297 0 0 0-27.9-2.77c-2.62 0-5.45.11-8.79.33-3.34.22-6.64.55-9.92 1l-9.76 1.31c-3.16.44-6.11.77-8.61 1-1.75 0-2.83-.55-3.26-1.54v-66.69a2.997 2.997 0 0 0-.8-2.52 2.927 2.927 0 0 0-2.51-.86h-24.65a2.138 2.138 0 0 0-1.2.22 2.931 2.931 0 0 0-2 3.2v1.07c0 .66-.11 1.32-.11 2.21l.11 2.65v237.44a2.996 2.996 0 0 0 .8 2.52 2.918 2.918 0 0 0 2.46.9h24.47c2.18 0 3.27-1.1 3.27-3.42V464.29a4.227 4.227 0 0 1 2.93-2.42 133.875 133.875 0 0 1 29.75-2.76 78.17 78.17 0 0 1 18.76 1.89 21.505 21.505 0 0 1 11.23 6.51 26.664 26.664 0 0 1 5.45 12.58 76.463 76.463 0 0 1 1.42 16.55v116.07c0 2.32 1.09 3.42 3.16 3.42H740c2.18 0 3.16-1.1 3.16-3.42V496.32a117.513 117.513 0 0 0-2.93-30.79h-.04Z" fill="#fff"/></g><defs><clipPath id="a"><path fill="#fff" d="M0 0h1024v1024H0z"/></clipPath></defs></svg>