<svg width="1024" height="1024" fill="none" xmlns="http://www.w3.org/2000/svg"><g clip-path="url(#a)"><path d="M512 1024c282.77 0 512-229.23 512-512S794.77 0 512 0 0 229.23 0 512s229.23 512 512 512Z" fill="#9ABEFF"/><path d="M509.391 256.67 282.71 381.55a5.409 5.409 0 0 0-2.804 4.781 5.415 5.415 0 0 0 2.874 4.739l121.15 64.42a5.414 5.414 0 0 0 5.241-.09l100.139-57.53a5.414 5.414 0 0 1 5.401 0L614.8 455.4a5.423 5.423 0 0 0 5.24.09l121.21-64.44a5.41 5.41 0 0 0 .07-9.52L514.61 256.67a5.411 5.411 0 0 0-5.219 0ZM403.71 488.49 281.9 423.73a5.408 5.408 0 0 0-7.302 2.093 5.416 5.416 0 0 0-.698 2.687v216.84a5.417 5.417 0 0 0 2.8 4.74l212.87 117.23a5.411 5.411 0 0 0 8-4.74V633.45a5.406 5.406 0 0 0-.731-2.709 5.407 5.407 0 0 0-1.989-1.981l-85.55-49.19a5.41 5.41 0 0 1-2.72-4.69v-81.61a5.411 5.411 0 0 0-2.87-4.78Zm216.59 0 121.8-64.76a5.414 5.414 0 0 1 7.303 2.093c.463.82.703 1.746.697 2.687v216.84a5.406 5.406 0 0 1-2.8 4.74L534.43 767.32a5.413 5.413 0 0 1-5.347-.095 5.412 5.412 0 0 1-2.653-4.645V633.45a5.407 5.407 0 0 1 2.721-4.69l85.579-49.18a5.405 5.405 0 0 0 2.721-4.69v-81.62a5.408 5.408 0 0 1 2.839-4.78h.01Z" fill="#fff"/></g><defs><clipPath id="a"><path fill="#fff" d="M0 0h1024v1024H0z"/></clipPath></defs></svg>