<svg width="1024" height="1024" fill="none" xmlns="http://www.w3.org/2000/svg"><g clip-path="url(#a)"><path d="M512 1024c282.77 0 512-229.23 512-512S794.77 0 512 0 0 229.23 0 512s229.23 512 512 512Z" fill="#F8C18C"/><path d="M537.27 326 664 394.77 546.9 238a87.316 87.316 0 0 0-9.63 88ZM480 581.21a28.89 28.89 0 1 1-.25 0h.25ZM391.79 261l354.89 192.6a17.197 17.197 0 0 1 7.062 24.595 17.197 17.197 0 0 1-7.062 6.345 275.917 275.917 0 0 1-86.93 33.9l-73.82 151.49s-23.37 53.16-87.7 32.74c27-27 59.58-51.36 59.58-92.83a77.94 77.94 0 0 0-155.87 0c0 54.18 53.41 77 83.07 114.66a48.788 48.788 0 0 1-4.24 61.5c-36.85-36.46-108.11-98-137.39-138.28a116.845 116.845 0 0 1-25-71.26A134.182 134.182 0 0 1 413.11 455a154.748 154.748 0 0 1 49.82-6 161.51 161.51 0 0 1 66.77 20.16c31.46 18.49 46.74 13.61 68.44-4.62C611 454 625 419.68 603.26 411.72a155.865 155.865 0 0 0-21.7-5.39c-40.32-7.83-110.81-15.28-136.74-30-41.21-22.73-68.95-69.59-53-115.3l-.03-.03Zm-95.14 167.54a29.152 29.152 0 0 1 29 29.15v29h-29a29.08 29.08 0 0 1 0-58.16v.01Z" fill="#fff"/></g><defs><clipPath id="a"><path fill="#fff" d="M0 0h1024v1024H0z"/></clipPath></defs></svg>