<svg width="1024" height="1024" fill="none" xmlns="http://www.w3.org/2000/svg"><g clip-path="url(#a)"><path d="M512 1024c282.77 0 512-229.23 512-512S794.77 0 512 0 0 229.23 0 512s229.23 512 512 512Z" fill="#9ABEFF"/><path d="M304.39 448.41 300.08 489c-16.52-22.78-54.79-7.06-57.8 21.32-3.82 36 33 44.43 53.07 23.21L291 574.16a96.636 96.636 0 0 1-17.61 6.77 71.876 71.876 0 0 1-17.21 2.48 66.811 66.811 0 0 1-19.55-2.25 47.718 47.718 0 0 1-15.86-7.68 56.347 56.347 0 0 1-19.63-25.27c-4-10.273-5.334-21.88-4-34.82a85.368 85.368 0 0 1 7.91-28.51 82.603 82.603 0 0 1 17.19-23.51A73.114 73.114 0 0 1 244.86 446a71.294 71.294 0 0 1 26.52-5.46 65.522 65.522 0 0 1 16.76 1.77 75.168 75.168 0 0 1 16.25 6.1Zm494.69-4.94 28.25 137.93h-44.47l-3.27-18.4h-43.15l-9.93 18.38h-45.08l67-137.93 50.65.02Zm-24.86 85.21L768 487.8l-16.4 40.87 22.62.01Zm-131.84-21.57-37.11-64.22h-54.16l37.11 64.22h54.16Zm3.52 0h.35l50.4-63.45h-58l-17 21.41L645 505.59l.9 1.52Zm-225.19-63.64L449 581.4h-44.51l-3.27-18.4h-43.15l-9.93 18.38h-45.08l67-137.93 50.65.02Zm-24.86 85.21-6.19-40.87-.07.17-16.33 40.7h22.59Zm212.62 31.46 12.37 20.49H677l-36.78-60.93-31.75 40.44Zm-27.89-43.35L530.18 581h58l50.4-64.23-58 .02Zm-91.16-73.32L470 581.4h44.81l19.41-137.93h-44.8Z" fill="#fff"/></g><defs><clipPath id="a"><path fill="#fff" d="M0 0h1024v1024H0z"/></clipPath></defs></svg>