<svg width="1024" height="1024" viewBox="0 0 1024 1024" fill="none" xmlns="http://www.w3.org/2000/svg">
<g clip-path="url(#clip0_2_1758)">
<path d="M512 1024C794.77 1024 1024 794.77 1024 512C1024 229.23 794.77 0 512 0C229.23 0 0 229.23 0 512C0 794.77 229.23 1024 512 1024Z" fill="#9ABEFF"/>
<path d="M304.39 448.41L300.08 489C283.56 466.22 245.29 481.94 242.28 510.32C238.46 546.32 275.28 554.75 295.35 533.53L291 574.16C285.365 576.986 279.466 579.253 273.39 580.93C267.774 582.45 261.996 583.283 256.18 583.41C249.588 583.629 243 582.871 236.63 581.16C230.912 579.607 225.534 577.002 220.77 573.48C211.922 567.131 205.104 558.353 201.14 548.21C197.14 537.937 195.806 526.33 197.14 513.39C198.097 503.499 200.774 493.851 205.05 484.88C209.342 476.087 215.163 468.127 222.24 461.37C228.746 454.87 236.42 449.655 244.86 446C253.27 442.503 262.272 440.649 271.38 440.54C277.019 440.406 282.653 441.001 288.14 442.31C293.774 443.709 299.227 445.756 304.39 448.41ZM799.08 443.47L827.33 581.4H782.86L779.59 563H736.44L726.51 581.38H681.43L748.43 443.45L799.08 443.47ZM774.22 528.68L768 487.8L751.6 528.67L774.22 528.68ZM642.38 507.11L605.27 442.89H551.11L588.22 507.11H642.38ZM645.9 507.11H646.25L696.65 443.66H638.65L621.65 465.07L645 505.59L645.9 507.11ZM420.71 443.47L449 581.4H404.49L401.22 563H358.07L348.14 581.38H303.06L370.06 443.45L420.71 443.47ZM395.85 528.68L389.66 487.81L389.59 487.98L373.26 528.68H395.85ZM608.47 560.14L620.84 580.63H677L640.22 519.7L608.47 560.14ZM580.58 516.79L530.18 581H588.18L638.58 516.77L580.58 516.79ZM489.42 443.47L470 581.4H514.81L534.22 443.47H489.42Z" fill="white"/>
</g>
<defs>
<clipPath id="clip0_2_1758">
<rect width="1024" height="1024" fill="white"/>
</clipPath>
</defs>
</svg>
