<svg width="1024" height="1024" fill="none" xmlns="http://www.w3.org/2000/svg"><g clip-path="url(#a)"><path d="M512 1024c282.77 0 512-229.23 512-512S794.77 0 512 0 0 229.23 0 512s229.23 512 512 512Z" fill="#9ABEFF"/><path d="M471.11 250h84.09a10.198 10.198 0 0 1 5.87 5.14 42245.864 42245.864 0 0 0 40.07 69.43 8.863 8.863 0 0 1-.26 9.29c-13.53 23.35-26.95 46.78-40.53 70.12-1.82 3.44-6 4.43-9.56 4.21-26.3-.187-52.6-.27-78.9-.25a8.406 8.406 0 0 1-7.84-4.6 87281.99 87281.99 0 0 0-40.16-69.57 8.441 8.441 0 0 1-.14-9.31 93145.817 93145.817 0 0 1 40.42-70 8.432 8.432 0 0 1 6.94-4.46ZM464 620.7c-13.4 23.16-26.783 46.337-40.15 69.53a8.467 8.467 0 0 0-.15 9.28c13.18 22.91 26.47 45.78 39.64 68.7 1.44 3.09 4.23 5.68 7.8 5.78h84.16a10.168 10.168 0 0 0 5.32-4.45c13.52-23.333 27.01-46.687 40.47-70.06a8.908 8.908 0 0 0-.24-9.38c-13.52-23.32-26.92-46.71-40.47-70-1.8-3.47-5.93-4.51-9.54-4.28-26.28.17-52.56.3-78.86.24a8.417 8.417 0 0 0-7.98 4.64Zm-22.34-207.27L401.58 344c-1.39-2.71-4.14-5.13-7.34-5h-23.67c-19.44.1-38.87 0-58.31.05a8.285 8.285 0 0 0-7.58 4.57l-40.52 70.22a8.353 8.353 0 0 0 .31 8.87c13.467 23.333 26.943 46.667 40.43 70a8.308 8.308 0 0 0 3.132 3.168 8.308 8.308 0 0 0 4.318 1.092c19.13.11 38.26-.12 57.37.12 7.49.35 15 0 22.48.15 3.37.13 7.05-1.06 8.75-4.18a22529.27 22529.27 0 0 0 40.79-70.59 8.453 8.453 0 0 0-.08-9.04ZM441 605.77a21645.789 21645.789 0 0 1-40.12 69.55 8.76 8.76 0 0 1-7.79 5c-7.53.13-15.08 0-22.61 0-19.69-.48-39.41 0-59.11-.24a8.237 8.237 0 0 1-7.14-4.29 53519.235 53519.235 0 0 1-40.43-70 8.471 8.471 0 0 1 0-9.28c13.333-23.14 26.7-46.283 40.1-69.43a8.341 8.341 0 0 1 7.47-4.87c15.84-.09 31.67 0 47.51 0h11.58c6.59.06 13.18 0 19.76 0h3.99c3 0 5.29 2.27 6.65 4.7 13.31 23.15 26.72 46.25 40 69.4a8.598 8.598 0 0 1 .14 9.46Zm-131.34-20.6c-5.23 2.52-6.24 10.49-1.6 14.08 4.68 4.28 13.36 1 13.78-5.38 1.08-6.41-6.46-11.87-12.2-8.7h.02Zm25.52-30.81c-6.07 2-7.27 11.15-2 14.65 4.51 3.62 12.09 1 13.19-4.74 2.02-6.27-5.2-12.62-11.21-9.91h.02Zm266-39.13c-13.467 23.333-26.95 46.683-40.45 70.05-1.39 2.35-3.83 4.43-6.67 4.47h-23.73c-19.45-.1-38.89 0-58.34-.06a8.339 8.339 0 0 1-7.69-4.34 56861.671 56861.671 0 0 1-40.57-70.25 8.379 8.379 0 0 1 .16-9.07L464 436.46a8.265 8.265 0 0 1 7-4.66c19.42-.16 38.86.11 58.28-.13 7.5-.38 15-.05 22.54-.17 3.35-.16 7 1.19 8.6 4.29a22892.896 22892.896 0 0 1 40.49 70.06 8.914 8.914 0 0 1 .2 9.38h.07Zm-56.18-.87c-7.23 2.19-6.74 13.34 0 15.72 5.38 2.27 11.51-2.29 11.59-7.93.28-5.82-6.33-10.15-11.59-7.79Zm-7.31-18.91c5.2 4.09 13.56-.36 13.24-6.92.27-5.62-6-9.91-11.16-7.9-6.51 1.68-7.67 11.37-2.11 14.82h.03Zm222.61-72.82a47434.04 47434.04 0 0 1-40.4 70 9.133 9.133 0 0 1-8.31 4.68c-7.86-.1-15.74.25-23.59-.18-19.12-.19-38.25 0-57.36-.11a8.261 8.261 0 0 1-7.27-4.46 83704.128 83704.128 0 0 1-40.45-70.06 8.426 8.426 0 0 1 .18-9.19 56767.8 56767.8 0 0 1 40.07-69.39 8.304 8.304 0 0 1 7.38-4.78c19.75-.08 39.5 0 59.26 0 7.56-.1 15.13 0 22.69-.05 3.23-.29 6.16 2 7.57 4.75 13.333 23.107 26.667 46.227 40 69.36a8.524 8.524 0 0 1 .2 9.43h.03Zm-66.82-50.42c-6.3.53-9.77 9-5.37 13.68 3.56 4.91 12 3.73 14.21-1.84 2.82-5.69-2.57-13-8.87-11.84h.03Z" fill="#fff"/></g><defs><clipPath id="a"><path fill="#fff" d="M0 0h1024v1024H0z"/></clipPath></defs></svg>