<svg width="1024" height="1024" fill="none" xmlns="http://www.w3.org/2000/svg"><g clip-path="url(#a)"><path d="M512 1024c282.77 0 512-229.23 512-512S794.77 0 512 0 0 229.23 0 512s229.23 512 512 512Z" fill="#D3B69A"/><path d="M422.13 274.88c61.69-25.51 133.52-25.15 195 1 57 23.63 104.31 69 131.24 124.41-42.79 19.1-85.42 38.61-128.34 57.4a114.94 114.94 0 0 0-61.79-50.22 116.807 116.807 0 0 0-89.52 6.31 113.778 113.778 0 0 0-51.27 52.1 111.148 111.148 0 0 0-8.76 69.7 112.27 112.27 0 0 0 41.45 66.53 115.912 115.912 0 0 0 75.52 24.05c39.53-1.1 77.22-24.51 96.16-59.12 42.17 18.87 84.24 38 126.47 56.66-31.77 66.4-93.57 117.7-165 136a256.001 256.001 0 0 1-161.16-484.82Zm253.94 238.4c2.41 21.94 24.12 39.59 46.15 36.89 23.23-1.77 41.84-25.3 37.91-48.33-2.87-24.45-29.68-42.46-53.38-35.05-19.67 5.39-33.82 26.15-30.68 46.49Z" fill="#fff"/></g><defs><clipPath id="a"><path fill="#fff" d="M0 0h1024v1024H0z"/></clipPath></defs></svg>