<svg width="1024" height="1024" fill="none" xmlns="http://www.w3.org/2000/svg"><g clip-path="url(#a)"><path d="M512 1024c282.77 0 512-229.23 512-512S794.77 0 512 0 0 229.23 0 512s229.23 512 512 512Z" fill="#54688C"/><path d="M337.24 416.57A45359.168 45359.168 0 0 0 365 543.38c10.173 46.187 19.76 88.79 28.76 127.81 8.666 39.334 13.17 60 13.51 62a67.482 67.482 0 0 0 5.25 12 32.292 32.292 0 0 0 11.76 12c6.333 4.334 11.753 6.75 16.26 7.25 4.506.5 7.256.75 8.25.75h29.51l-51 19c-5 1-9.17 1-12.51 0-3-1.333-6-4-9-8L267.7 398.56a24.36 24.36 0 0 1 .5-13c1.666-3.333 4.833-6.333 9.5-9l47-17 12.54 57.01Zm67.53-125.06v328.16L341.74 322c0-5.333 1-9.503 3-12.51 2.333-3.666 6.333-6.666 12-9l48.03-8.98Zm55.53 443.22a24.903 24.903 0 0 1-9.75-2A25.29 25.29 0 0 1 436.78 719a26.13 26.13 0 0 1-2-10.26V534.63a21.877 21.877 0 0 1 3.22-11.76 18.07 18.07 0 0 1 19.76-8.25 20.728 20.728 0 0 1 10.51 6.5l63.53 63.53a15.561 15.561 0 0 1-22 22l-44.52-45v142.56h144.59l-14.51-14a22.4 22.4 0 0 1-6-8.25 24.903 24.903 0 0 1-2-9.75 29.436 29.436 0 0 1 1.75-10.26 20.069 20.069 0 0 1 5.75-8.25l134.57-136.08a14.993 14.993 0 0 1 11-4.5 16.008 16.008 0 0 1 11 4 15.7 15.7 0 0 1 0 22L619.87 671.69l31 29.51a23.716 23.716 0 0 1 6.5 10.76 16.434 16.434 0 0 1-1 11.26 15.762 15.762 0 0 1-7.25 8.5 23.267 23.267 0 0 1-11.76 3l-177.06.01Zm95.55-173.33a27.489 27.489 0 0 1-8-4.75L471.3 483.1a26.353 26.353 0 0 1-5.5-8 23.128 23.128 0 0 1-2-9.5 26 26 0 0 1 1.75-9.5 22.997 22.997 0 0 1 5.25-8l116.06-116.57c.666-.333 1-.75 1-1.25V328c0-.333-.334-.833-1-1.5L560.35 301c-4.334-4-6.5-7.753-6.5-11.26 0-3.506.333-5.923 1-7.25.333-1.333 1.75-3.25 4.25-5.75s6.583-3.746 12.25-3.74h160.58a24.159 24.159 0 0 1 17.76 7.25 23.58 23.58 0 0 1 7.25 17.26l-.5 157.58a35.276 35.276 0 0 1-.5 6.25 11.098 11.098 0 0 1-2 4.75 13.258 13.258 0 0 1-5.25 5.25 14.058 14.058 0 0 1-6.75 1.75 22.385 22.385 0 0 1-6-1c-2.334-.666-4.834-2.333-7.5-5l-26.51-25.51a2.743 2.743 0 0 0-1.75-1h-1.25a3.391 3.391 0 0 0-2.5 1L582.86 556.14a22.536 22.536 0 0 1-8.25 5.25 27.975 27.975 0 0 1-9.75 1.75 24.66 24.66 0 0 1-9.02-1.75l.01.01Z" fill="#fff"/></g><defs><clipPath id="a"><path fill="#fff" d="M0 0h1024v1024H0z"/></clipPath></defs></svg>