<svg width="1024" height="1024" fill="none" xmlns="http://www.w3.org/2000/svg"><g clip-path="url(#a)"><path d="M512 1024c282.77 0 512-229.23 512-512S794.77 0 512 0 0 229.23 0 512s229.23 512 512 512Z" fill="#98DC9A"/><path d="M738 345.65a99.26 99.26 0 0 0-23.14-36.39 99.26 99.26 0 0 0-36.39-23.14c-25.49-8-48.7-8-95.89-8H441c-46.92 0-70.41 0-95.46 7.79A99.251 99.251 0 0 0 286 345.43c-8 25.33-8 48.76-8 95.68v141.57c0 47.19 0 70.41 7.79 95.68a99.26 99.26 0 0 0 23.14 36.39 99.26 99.26 0 0 0 36.39 23.14c25.33 8 48.76 8 95.68 8h141.78c47 0 70.41 0 95.68-8A99.252 99.252 0 0 0 738 678.35c8-25.33 8-48.76 8-95.68V441.32c0-46.97 0-70.4-8-95.67Zm-120.3 90.43-18.09 18.12a9.576 9.576 0 0 1-13.15.27 97.41 97.41 0 0 0-62.77-23.05c-18.94 0-37.88 6.28-37.88 23.7 0 17.42 20.29 23.22 43.78 32 41.07 13.85 74.9 30.85 74.9 71.11 0 43.73-33.93 73.6-89.45 77l-5 23.43a9.473 9.473 0 0 1-9.31 7.47h-34.95a9.644 9.644 0 0 1-4.06-1.005 9.638 9.638 0 0 1-5.079-6.393 9.641 9.641 0 0 1-.061-4.182l5.42-24.68a128.307 128.307 0 0 1-56-30.68l-.24-.24a9.353 9.353 0 0 1-2.624-6.67 9.364 9.364 0 0 1 2.864-6.57l19.37-18.94a9.422 9.422 0 0 1 13.2 0 93.399 93.399 0 0 0 66 25.81c25.27 0 42.43-10.72 42.43-27.71 0-16.99-17.21-21.48-49.68-33.55C463 519.09 430.5 501.61 430.5 461c0-47 39.29-70 85.61-72.25l4.89-23.89a9.471 9.471 0 0 1 9.25-7.41H565a9.423 9.423 0 0 1 9.168 7.165 9.414 9.414 0 0 1 .082 4.145l-5.41 26.68a143.302 143.302 0 0 1 48.33 27.06c.187.16.363.327.53.5a9.248 9.248 0 0 1-.01 13.07l.01.01Z" fill="#fff"/></g><defs><clipPath id="a"><path fill="#fff" d="M0 0h1024v1024H0z"/></clipPath></defs></svg>