<svg width="1024" height="1024" viewBox="0 0 1024 1024" fill="none" xmlns="http://www.w3.org/2000/svg">
<g clip-path="url(#clip0_2_1800)">
<path d="M512 1024C794.77 1024 1024 794.77 1024 512C1024 229.23 794.77 0 512 0C229.23 0 0 229.23 0 512C0 794.77 229.23 1024 512 1024Z" fill="#9ABEFF"/>
<path d="M382.4 651.4H408.6V547.7H382.4V651.4ZM267.4 599.5C267.4 632.9 293.2 653.2 322.6 653.2C334.3 653.2 343.2 650.5 346.5 649.5V621.7C345.3 622.3 336.8 627.2 324.5 627.2C307 627.2 295.8 614.9 295.8 599.5C295.8 583.7 307.5 571.8 324.5 571.8C337 571.8 345.4 576.8 346.5 577.4V549.6C344 548.9 334.9 545.9 322.6 545.9C290.8 545.9 267.4 568.6 267.4 599.5ZM540.5 599.5C540.5 632.9 566.3 653.2 595.7 653.2C607.3 653.2 616.3 650.5 619.5 649.5V621.7C618.4 622.3 609.8 627.2 597.5 627.2C580.1 627.2 568.8 614.9 568.8 599.5C568.8 583.7 580.5 571.8 597.5 571.8C610 571.8 618.4 576.8 619.5 577.4V549.6C617 548.9 607.9 545.9 595.7 545.9C563.8 545.9 540.5 568.6 540.5 599.5ZM674.8 599.5C674.8 584.5 686.3 572.2 701.9 572.2C717.4 572.2 729 584.4 729 599.5C729 614.6 717.4 626.8 701.9 626.8C686.3 626.9 674.8 614.6 674.8 599.5ZM647.1 599.5C647.1 629.2 670 653.2 701.8 653.2C733.7 653.2 756.6 629.2 756.6 599.5C756.6 569.9 733.7 545.9 701.8 545.9C670 545.9 647.1 569.9 647.1 599.5ZM443.7 578.3C443.7 595.5 455.9 604 470.4 608.6C472 609.1 474.4 609.9 476 610.4C482.5 612.4 487.6 615.5 487.6 620.7C487.6 626.6 481.6 630.4 468.6 630.4C457.2 630.4 446.2 627.1 443.9 626.5V650.4C445.2 650.7 458.2 653.2 472.1 653.2C492.1 653.2 515 644.5 515 618.4C515 605.8 507.3 594.1 490.3 588.8L483.1 586.5C478.8 585.1 471.1 582.9 471.1 576.6C471.1 571.6 476.8 568.1 487.3 568.1C496.3 568.1 507.4 571.1 507.7 571.3V549.1C506.9 548.9 494.9 545.8 482.2 545.8C458.2 545.9 443.7 558.9 443.7 578.3ZM213.7 436.3V463.5C213.7 470.7 219.6 476.5 226.7 476.5C233.9 476.5 239.7 470.7 239.7 463.5V436.3C239.7 429.2 233.9 423.3 226.7 423.3C219.5 423.4 213.7 429.2 213.7 436.3ZM499.1 436.3V463.5C499.1 470.7 504.9 476.5 512.1 476.5C519.2 476.5 525 470.7 525 463.5V436.3C525 429.2 519.2 423.3 512.1 423.3C504.9 423.4 499.1 429.2 499.1 436.3ZM784.4 436.3V463.5C784.4 470.7 790.2 476.5 797.3 476.5C804.4 476.5 810.2 470.7 810.2 463.5V436.3C810.2 429.2 804.4 423.3 797.3 423.3C790.2 423.4 784.4 429.2 784.4 436.3ZM285 400.6V463.5C285 470.7 290.8 476.5 298 476.5C305.2 476.5 311 470.7 311 463.5V400.6C311 393.5 305.2 387.6 298 387.6C290.8 387.6 285 393.5 285 400.6ZM427.7 400.6V463.5C427.7 470.7 433.5 476.5 440.7 476.5C447.9 476.5 453.7 470.7 453.7 463.5V400.6C453.7 393.5 447.9 387.6 440.7 387.6C433.6 387.6 427.7 393.5 427.7 400.6ZM570.4 400.6V463.5C570.4 470.7 576.2 476.5 583.4 476.5C590.5 476.5 596.4 470.7 596.4 463.5V400.6C596.4 393.5 590.6 387.6 583.4 387.6C576.2 387.6 570.4 393.5 570.4 400.6ZM713 400.6V463.5C713 470.7 718.8 476.5 725.9 476.5C733.2 476.5 739 470.7 739 463.5V400.6C739 393.5 733.2 387.6 725.9 387.6C718.8 387.6 713 393.5 713 400.6ZM356.4 351.7V489.4C356.4 496.6 362.2 502.4 369.4 502.4C376.5 502.4 382.4 496.6 382.4 489.4V351.7C382.4 344.5 376.6 338.7 369.4 338.7C362.2 338.8 356.4 344.6 356.4 351.7ZM641.8 351.7V489.4C641.8 496.6 647.6 502.4 654.7 502.4C661.9 502.4 667.6 496.6 667.6 489.4V351.7C667.6 344.5 661.8 338.7 654.7 338.7C647.6 338.8 641.8 344.6 641.8 351.7Z" fill="white"/>
</g>
<defs>
<clipPath id="clip0_2_1800">
<rect width="1024" height="1024" fill="white"/>
</clipPath>
</defs>
</svg>
