<svg width="1024" height="1024" fill="none" xmlns="http://www.w3.org/2000/svg"><g clip-path="url(#a)"><path d="M512 1024c282.77 0 512-229.23 512-512S794.77 0 512 0 0 229.23 0 512s229.23 512 512 512Z" fill="#56595B"/><path d="M297.39 274.53v271.69c26.67-7.9 55.05-7.9 81.72 0v-189.5h288.63v288.04h-189.5c3.9 13.31 5.9 27.11 5.92 40.98-.01 13.79-2.01 27.51-5.92 40.74h271.22V274.53H297.39Zm40.86 347.49c35.19 0 63.72 28.53 63.72 63.72s-28.53 63.72-63.72 63.72-63.72-28.53-63.72-63.72 28.53-63.72 63.72-63.72Z" fill="#fff"/></g><defs><clipPath id="a"><path fill="#fff" d="M0 0h1024v1024H0z"/></clipPath></defs></svg>