<svg width="1024" height="1024" viewBox="0 0 1024 1024" fill="none" xmlns="http://www.w3.org/2000/svg">
<g clip-path="url(#clip0_2_1803)">
<path d="M512 1024C794.77 1024 1024 794.77 1024 512C1024 229.23 794.77 0 512 0C229.23 0 0 229.23 0 512C0 794.77 229.23 1024 512 1024Z" fill="#56595B"/>
<path d="M297.39 274.53V546.22C324.06 538.32 352.44 538.32 379.11 546.22V356.72H667.74V644.76H478.24C482.14 658.07 484.14 671.87 484.16 685.74C484.15 699.53 482.15 713.25 478.24 726.48H749.46V274.53H297.39ZM338.25 622.02C373.44 622.02 401.97 650.55 401.97 685.74C401.97 720.93 373.44 749.46 338.25 749.46C303.06 749.46 274.53 720.93 274.53 685.74C274.53 650.55 303.06 622.02 338.25 622.02Z" fill="white"/>
</g>
<defs>
<clipPath id="clip0_2_1803">
<rect width="1024" height="1024" fill="white"/>
</clipPath>
</defs>
</svg>
