<svg width="1024" height="1024" fill="none" xmlns="http://www.w3.org/2000/svg"><g clip-path="url(#a)"><path d="M512 1024c282.77 0 512-229.23 512-512S794.77 0 512 0 0 229.23 0 512s229.23 512 512 512Z" fill="#ABABFF"/><path d="M298.67 649.36 377.42 589c41.82 54.6 86.23 79.76 135.72 79.76 49.21 0 92.41-24.87 132.35-79l79.84 58.88C667.74 726.74 596.08 768 513.14 768c-82.66 0-154.98-41-214.47-118.64Zm214.22-262.17L372.72 508 308 432.82 513.17 256l203.61 177-65.08 74.83-138.81-120.64Z" fill="#fff"/></g><defs><clipPath id="a"><path fill="#fff" d="M0 0h1024v1024H0z"/></clipPath></defs></svg>