<svg width="1024" height="1024" viewBox="0 0 1024 1024" fill="none" xmlns="http://www.w3.org/2000/svg">
<g clip-path="url(#clip0_2_1809)">
<path d="M512 1024C794.77 1024 1024 794.77 1024 512C1024 229.23 794.77 0 512 0C229.23 0 0 229.23 0 512C0 794.77 229.23 1024 512 1024Z" fill="#9ABEFF"/>
<path d="M511.39 445.88C552.72 481.78 603.59 507.13 658.23 514.07C658.43 580.19 646.14 649.96 605.58 703.91C583.066 733.467 551.608 754.964 515.89 765.2C506.89 767.03 498.41 761.67 490.13 758.95C448.67 742.77 415.9 708.95 396.83 669.22C373.67 621.07 364.83 566.84 366 513.7C420 507.09 471.31 482.42 511.39 445.88ZM571.75 548C543.19 575.26 515.89 603.82 487.75 631.48C475.22 619.48 463.9 606.01 450.39 595.09C438.39 587.87 421.91 603.49 431.16 615.09C445.72 631.4 461.7 646.41 477.16 661.82C482.6 668.55 493.3 668.19 498.66 661.5C529.81 630.39 561.41 599.6 592.04 567.92C603.23 555.93 583.55 536.66 571.75 548ZM767.55 515.35C764.91 471.05 728.93 431.26 684.76 425.22C676.08 424.86 666.87 419.74 667.76 409.72C666.06 348.91 625.17 292.04 568.76 269.77C527.76 252.85 479.64 255.09 440.17 275.25C398.3 296.16 367 336.76 357.33 382.6C356.64 391.48 347.96 394.73 340.54 396.39C299.85 406.69 267.16 441.9 258.64 482.83C250.73 517.76 260.95 556.09 284.64 582.83C301.47 602.75 325.33 615.36 350.52 621.16C342.69 586.44 337.99 550.86 338.72 515.16C338.64 501.08 350.36 488.27 364.32 486.89C412.71 480.36 458.32 457.97 494.45 425.27C503.09 416.02 519.07 415.27 528.16 424.27C564 456.75 608.91 479.71 657 486.48C671.85 487.21 684.91 499.7 685.23 514.79C685.696 550.957 681.484 587.032 672.7 622.12C726.79 620.71 773.07 569.52 767.55 515.32V515.35Z" fill="white"/>
</g>
<defs>
<clipPath id="clip0_2_1809">
<rect width="1024" height="1024" fill="white"/>
</clipPath>
</defs>
</svg>
