<svg width="1024" height="1024" fill="none" xmlns="http://www.w3.org/2000/svg"><g clip-path="url(#a)"><path d="M512 1024c282.77 0 512-229.23 512-512S794.77 0 512 0 0 229.23 0 512s229.23 512 512 512Z" fill="#F8C18C"/><path d="M620 602.07c3.53-12.14 2.18-23.26-3.72-31.51-5.38-7.58-14.48-12-25.43-12.47l-207.44-2.69a3.745 3.745 0 0 1-3.19-1.71 4.653 4.653 0 0 1-.5-3.72 5.75 5.75 0 0 1 4.88-3.74l209.3-2.69c24.8-1.17 51.75-21.25 61.18-45.85l12-31.18a6.488 6.488 0 0 0 .35-4 136.282 136.282 0 0 0-209.343-83.013 136.287 136.287 0 0 0-52.657 69.013 61.28 61.28 0 0 0-97.75 42.8 64.282 64.282 0 0 0 1.52 21.42 87.061 87.061 0 0 0-84.6 87.13c.03 4.223.311 8.44.84 12.63a4.176 4.176 0 0 0 4 3.53h382.84a5.215 5.215 0 0 0 4.87-3.72l2.85-10.23Zm66-133.29a40.653 40.653 0 0 0-5.71.27 3.413 3.413 0 0 0-3 2.34l-8.09 28.14c-3.53 12.14-2.2 23.26 3.7 31.54 5.4 7.58 14.51 11.93 25.46 12.45l44.17 2.71a3.708 3.708 0 0 1 3.18 1.68 4.863 4.863 0 0 1 .51 3.74 5.734 5.734 0 0 1-4.89 3.72l-46 2.69c-24.94 1.17-51.71 21.24-61.16 45.86l-3.37 8.59a2.445 2.445 0 0 0 1.167 3.141 2.44 2.44 0 0 0 1.193.249h158.08a4.16 4.16 0 0 0 4-3 115.523 115.523 0 0 0 4.21-30.67C799.5 519.86 748.59 469 686.07 469" fill="#fff"/></g><defs><clipPath id="a"><path fill="#fff" d="M0 0h1024v1024H0z"/></clipPath></defs></svg>