<svg width="1024" height="1024" fill="none" xmlns="http://www.w3.org/2000/svg"><g clip-path="url(#a)"><path d="M512 1024c282.77 0 512-229.23 512-512S794.77 0 512 0 0 229.23 0 512s229.23 512 512 512Z" fill="#9ABEFF"/><path d="M647.82 273.49c-29.29-17.25-241.66-17.55-271-.37C347.48 290.3 241 477.2 241 511.63c0 34.43 105.89 221.63 135.18 238.88 29.29 17.25 241.66 17.55 271 .37C676.52 733.7 783 546.8 783 512.38c0-34.42-105.89-221.64-135.18-238.89Zm-53.14 175.93c0 19.11-15.23 34.6-34 34.6h-55a33.544 33.544 0 0 1-7.66-.89v57.75a33.544 33.544 0 0 1 7.66-.89h55c18.79 0 34 15.49 34 34.6v55.89c0 19.11-15.23 34.6-34 34.6h-55c-18.79 0-34-15.49-34-34.6v-56.83c-2.511.59-5.081.889-7.66.89h-55c-18.79 0-34-15.49-34-34.6v-55.88c0-19.11 15.23-34.6 34-34.6h55c2.579.001 5.149.3 7.66.89v-56.82c0-19.11 15.23-34.6 34-34.6h55c18.79 0 34 15.49 34 34.6v55.89Z" fill="#fff"/></g><defs><clipPath id="a"><path fill="#fff" d="M0 0h1024v1024H0z"/></clipPath></defs></svg>