<svg width="1024" height="1024" fill="none" xmlns="http://www.w3.org/2000/svg"><g clip-path="url(#a)"><path d="M512 1024c282.77 0 512-229.23 512-512S794.77 0 512 0 0 229.23 0 512s229.23 512 512 512Z" fill="#54688C"/><path d="M509.08 292.75a195.782 195.782 0 0 0-173.6 103.15 147.62 147.62 0 0 0-35.64 279.44l3.73 1.72h.21v-42a110.215 110.215 0 0 1-49.874-118.202A110.218 110.218 0 0 1 349.7 431.52l10.3-1.05 4.52-9.45a158.708 158.708 0 0 1 144.52-90.84A161.563 161.563 0 0 1 665 453.65l3.45 14.18 14.59.24a91.634 91.634 0 0 1 89.7 91.21c0 34.88-20.11 63.34-54.23 77.8v39.85l2.45-.83c55-18 89.22-62.75 89.22-116.81a129.342 129.342 0 0 0-112.4-127.61 199.538 199.538 0 0 0-188.71-138.93h.01ZM388.76 468a1.583 1.583 0 0 0-1.15.5l-55 54.92a1.66 1.66 0 0 0 1.17 2.79h14a1.62 1.62 0 0 1 1.62 1.62v126a29.43 29.43 0 0 0 29.43 29.43h64.76a1.62 1.62 0 0 0 1.17-2.79l-8.21-8.21a29.43 29.43 0 0 1-8.62-20.7V527.84a1.623 1.623 0 0 1 1.62-1.62h14a1.62 1.62 0 0 0 1.17-2.79l-54.8-54.93a1.597 1.597 0 0 0-1.16-.5Zm121.44 31.63a1.6 1.6 0 0 0-1.16.5l-54.82 54.92a1.657 1.657 0 0 0 .277 2.5c.264.181.574.282.893.29h13.76a1.62 1.62 0 0 1 1.62 1.62v94.32a29.43 29.43 0 0 0 29.43 29.43h64.89a1.62 1.62 0 0 0 1.17-2.79l-8.21-8.21a29.43 29.43 0 0 1-8.62-20.7V559.4a1.628 1.628 0 0 1 .45-1.161 1.615 1.615 0 0 1 1.14-.499h14.08a1.62 1.62 0 0 0 1.17-2.79l-54.92-54.82a1.597 1.597 0 0 0-1.16-.5h.01Zm121.44 31.66c-.433 0-.849.168-1.16.47l-54.92 55a1.614 1.614 0 0 0-.379 1.783 1.622 1.622 0 0 0 1.519 1.007h14a1.62 1.62 0 0 1 1.62 1.62v62.68a29.46 29.46 0 0 0 29.46 29.43h64.89a1.622 1.622 0 0 0 1.14-2.79l-8.21-8.21a29.431 29.431 0 0 1-8.8-20.7v-60.51a1.623 1.623 0 0 1 1.62-1.62h14.07a1.616 1.616 0 0 0 1.469-.98 1.617 1.617 0 0 0-.299-1.74l-54.92-55a1.664 1.664 0 0 0-1.16-.47l.06.03Z" fill="#fff"/></g><defs><clipPath id="a"><path fill="#fff" d="M0 0h1024v1024H0z"/></clipPath></defs></svg>