<svg width="1024" height="1024" fill="none" xmlns="http://www.w3.org/2000/svg"><g clip-path="url(#a)"><path d="M512 1024c282.77 0 512-229.23 512-512S794.77 0 512 0 0 229.23 0 512s229.23 512 512 512Z" fill="#71A372"/><path d="M363.023 256.965c-2.502.367-13.173 2.281-15.454 2.722-8.021 1.693-21.782 6.991-29.951 11.554-10.818 6.034-17.367 11.038-27.891 21.635-12.51 12.584-21.635 27.229-27.375 43.787-4.931 14.35-6.402 23.695-6.329 40.842.074 19.501 3.238 33.336 11.701 50.777 14.939 30.834 41.578 53.279 74.767 62.92 15.602 4.562 16.853 4.636 86.395 4.709 34.808.074 63.95 0 64.759-.147 1.472-.221 1.472-.589 1.399-64.391 0-35.323-.295-66.01-.589-68.218-1.03-7.874-3.459-18.766-5.74-25.315-11.995-35.47-40.622-63.803-76.313-75.503-7.065-2.282-7.285-2.355-14.056-3.606-2.207-.442-5.004-.957-6.255-1.251-2.428-.442-26.198-.883-29.068-.515Zm280.157.662c-.073.073-2.649.294-5.666.589-3.017.22-6.182.588-6.991.735-.81.148-2.944.516-4.784.884-1.839.294-3.458.588-3.679.662-22.739 5.887-40.18 15.159-55.34 29.436-21.12 20.09-34.514 47.024-37.089 75.062-.442 5.225-.883 127.09-.442 129.15.221 1.03 7.065 1.178 65.127 1.104 63.656-.147 65.054-.147 74.326-1.766 39.224-6.844 71.603-31.57 88.529-67.409 2.723-5.887 7.065-18.25 8.021-23.254 4.489-22.151 3.606-42.829-2.649-62.478-5.74-17.882-16.337-35.029-30.025-48.422-22.077-21.709-50.629-33.557-82.494-34.293-3.679-.074-6.77-.074-6.844 0ZM367.954 529.91c-.074.073-2.282.294-4.931.515-21.415 1.987-42.388 10.229-60.344 23.77-24.947 18.765-42.24 48.643-46.214 79.624-.957 7.948-.368 31.864.956 35.617.148.516.442 1.767.663 2.797 2.355 13.393 9.419 30.098 18.103 42.829 18.618 27.523 49.526 46.73 82.053 51.072 1.619.221 3.753.515 4.783.736 2.355.368 21.194.441 23.181 0 .809-.148 3.459-.515 5.887-.736 5.667-.663 16.852-3.459 23.917-5.961 9.272-3.312 27.228-13.025 31.349-16.926.442-.368 2.208-1.913 3.974-3.311 18.913-15.16 35.544-41.652 40.107-63.656.22-1.251.956-4.709 1.619-7.727 1.03-4.783 1.251-14.57 1.471-72.191l.295-66.673-63.361.074c-34.808 0-63.435.073-63.508.147Zm93.091 34.293c.515 1.692.074 89.117-.442 93.606-.956 7.286-2.575 14.497-4.268 18.692a141.439 141.439 0 0 0-1.324 3.459c-3.091 8.316-9.862 18.912-16.632 26.124-16.558 17.588-37.457 27.081-60.638 27.597-19.207.441-34.955-4.121-50.777-14.718-29.804-19.87-43.713-55.782-35.25-90.884 1.619-6.55 2.282-8.242 5.961-16.19 9.42-20.384 29.215-37.531 51.219-44.448 5.887-1.84 7.138-2.134 14.129-3.385 1.84-.295 24.579-.589 50.483-.663 37.457-.073 47.318.074 47.539.81Zm68.144-33.704c-.515 1.619-.073 123.189.442 128.856 4.489 49.084 39.591 90.81 87.351 103.688 3.827 1.03 7.948 2.06 9.125 2.208 4.636.809 7.58 1.251 10.376 1.545 3.68.442 21.415.515 23.844.074 1.03-.221 3.311-.515 5.151-.736 15.969-2.061 33.557-8.61 47.686-17.662 24.138-15.454 42.02-39.223 50.115-66.452 1.178-3.973 2.281-8.536 2.576-10.155.221-1.619.588-3.753.809-4.783 1.766-8.316 1.766-28.627 0-37.605-.221-.957-.588-2.796-.809-3.974-1.693-9.419-5.74-21.046-11.112-31.275-16.926-32.895-48.423-55.929-85.291-62.626-8.537-1.545-10.671-1.619-74.4-1.766-46.729-.073-65.716.074-65.863.663Z" fill="#fff"/></g><defs><clipPath id="a"><path fill="#fff" d="M0 0h1024v1024H0z"/></clipPath></defs></svg>