<svg width="1024" height="1024" fill="none" xmlns="http://www.w3.org/2000/svg"><g clip-path="url(#a)"><path d="M512 1024c282.77 0 512-229.23 512-512S794.77 0 512 0 0 229.23 0 512s229.23 512 512 512Z" fill="#FF837D"/><path d="M681.33 291H342.67a37 37 0 0 0-36.94 36.84v368.33A37 37 0 0 0 342.67 733h338.66a37.002 37.002 0 0 0 36.94-36.83V679c-.62-22.09-1.24-68.13-1.24-89 0-11.66-8.61-21.48-19.7-21.48-12.31 0-20.32 7.36-26.48 13.5-18.46 16.58-46.16 19.65-70.17 15.35-11.09-2.45-21.56-5.52-30.18-11-26.47-15.35-43.71-44.21-43.71-74.9 0-30.69 17.24-58.93 43.71-74.9 9.24-5.52 19.7-8.59 30.17-11 23.39-4.31 51.73-1.24 70.2 15.35 6.77 6.14 14.78 13.49 26.48 13.49 11.08 0 19.69-9.81 19.69-21.47 0-20.26.62-66.92 1.24-89v-16A37 37 0 0 0 681.33 291Z" fill="#fff"/></g><defs><clipPath id="a"><path fill="#fff" d="M0 0h1024v1024H0z"/></clipPath></defs></svg>