<svg width="1024" height="1024" fill="none" xmlns="http://www.w3.org/2000/svg"><g clip-path="url(#a)"><path d="M512 1024c282.77 0 512-229.23 512-512S794.77 0 512 0 0 229.23 0 512s229.23 512 512 512Z" fill="#8C72BD"/><path d="M753.5 405.72v231.03L572.16 757.5c-28.85 19.23-52.22 6.68-52.22-27.95V592.6c0-17.31 11.69-39.15 26.13-48.74L753.5 405.71v.01Zm-483 0 207.43 138.15c14.42 9.58 26.13 31.43 26.13 48.74v136.95c0 34.63-23.39 47.18-52.22 27.95L270.5 636.76V405.72Zm276.37-148.24c7.49 0 16.11 2.89 25.28 8.99l181.34 120.75-173.48 115.54-33.96-22.61c-14.44-9.62-26.12-31.44-26.12-48.78V294.42c0-23.61 10.87-36.94 26.93-36.94h.01Zm-69.74 0c16.06 0 26.93 13.34 26.93 36.94v136.95c0 17.35-11.7 39.16-26.13 48.78l-33.95 22.61-173.49-115.54 181.34-120.75c9.17-6.1 17.79-8.99 25.29-8.99h.01Z" fill="#fff"/></g><defs><clipPath id="a"><path fill="#fff" d="M0 0h1024v1024H0z"/></clipPath></defs></svg>