<svg width="1024" height="1024" viewBox="0 0 1024 1024" fill="none" xmlns="http://www.w3.org/2000/svg">
<g clip-path="url(#clip0_2_1833)">
<path d="M512 1024C794.77 1024 1024 794.77 1024 512C1024 229.23 794.77 0 512 0C229.23 0 0 229.23 0 512C0 794.77 229.23 1024 512 1024Z" fill="#8C72BD"/>
<path d="M753.5 405.72V636.75L572.16 757.5C543.31 776.73 519.94 764.18 519.94 729.55V592.6C519.94 575.29 531.63 553.45 546.07 543.86L753.5 405.71V405.72ZM270.5 405.72L477.93 543.87C492.35 553.45 504.06 575.3 504.06 592.61V729.56C504.06 764.19 480.67 776.74 451.84 757.51L270.5 636.76V405.73V405.72ZM546.87 257.48C554.36 257.48 562.98 260.37 572.15 266.47L753.49 387.22L580.01 502.76L546.05 480.15C531.61 470.53 519.93 448.71 519.93 431.37V294.42C519.93 270.81 530.8 257.48 546.86 257.48H546.87ZM477.13 257.48C493.19 257.48 504.06 270.82 504.06 294.42V431.37C504.06 448.72 492.36 470.53 477.93 480.15L443.98 502.76L270.49 387.22L451.83 266.47C461 260.37 469.62 257.48 477.12 257.48H477.13Z" fill="white"/>
</g>
<defs>
<clipPath id="clip0_2_1833">
<rect width="1024" height="1024" fill="white"/>
</clipPath>
</defs>
</svg>
