<svg width="1024" height="1024" viewBox="0 0 1024 1024" fill="none" xmlns="http://www.w3.org/2000/svg">
<g clip-path="url(#clip0_2_1845)">
<path d="M512 1024C794.77 1024 1024 794.77 1024 512C1024 229.23 794.77 0 512 0C229.23 0 0 229.23 0 512C0 794.77 229.23 1024 512 1024Z" fill="#9ABEFF"/>
<path d="M516.3 361.83C576.58 361.83 624.4 399.01 642.56 454.3H764C742 336.09 644.47 256 517.27 256C372.82 256 260 365.65 260 512.49C260 659.33 370 768 517.27 768C641.62 768 741.09 687.91 763.11 568.72H642.55C625.33 624.02 577.55 662.17 517.23 662.17C434 662.17 375.67 598.28 375.67 512.49C375.71 425.72 433.1 361.83 516.3 361.83Z" fill="white"/>
</g>
<defs>
<clipPath id="clip0_2_1845">
<rect width="1024" height="1024" fill="white"/>
</clipPath>
</defs>
</svg>
