<svg width="1024" height="1024" fill="none" xmlns="http://www.w3.org/2000/svg"><g clip-path="url(#a)"><path d="M512 1024c282.77 0 512-229.23 512-512S794.77 0 512 0 0 229.23 0 512s229.23 512 512 512Z" fill="#9ABEFF"/><path d="M252.63 545.31a34.404 34.404 0 0 1-31.819-21.214 34.407 34.407 0 0 1 25.051-46.942 34.405 34.405 0 0 1 35.336 14.625A34.407 34.407 0 0 1 287 510.9a34.422 34.422 0 0 1-34.37 34.41Zm0-53.73a19.318 19.318 0 0 0-10.728 3.254 19.317 19.317 0 0 0-8.211 19.823 19.303 19.303 0 0 0 5.285 9.887 19.303 19.303 0 0 0 21.044 4.186 19.307 19.307 0 0 0 11.92-17.84 19.363 19.363 0 0 0-19.31-19.31Zm59.2-13.9H297v67.88h14.85l-.02-67.88Zm29.76 67.88h-15v-67.88h15v10.19c3.9-7.86 13.21-11.64 20.76-11.64 16.42 0 25.86 10.63 25.86 29.76v39.51h-15v-37.81c0-10.76-5.54-16.86-14.22-16.86-8.87 0-17.43 4.78-17.43 18.18l.03 36.55Zm32.15-100.16h95.44v14.41h-41.45v85.75H412v-85.75h-38.32V445.4h.06Zm94.18 100.16H453v-67.88h15v12.27c4.66-8.49 9.69-12.27 18.62-13.72a18.802 18.802 0 0 1 12.08 2.64l-2.45 13.84a21.26 21.26 0 0 0-10-2.33c-12.77 0-18.18 12.77-18.18 30.83l-.06 24.35h-.09Zm88.33-9.75c-4.53 7.42-14.41 11.2-22.84 11.2-18.31 0-34.48-13.78-34.48-35.48 0-21.7 16.11-35.3 34.48-35.3 8.12 0 18.18 3.33 22.84 11v-9.56h14.85v67.88h-14.84l-.01-9.74Zm-21.08-3.33c11.07 0 21-7.68 21-21.08 0-13.4-10.76-20.64-21-20.64-11.32 0-20.76 8.12-20.76 20.64 0 12.52 9.44 21.08 20.76 21.08Zm82.54-56.25c10.76 0 20.51 4.22 26.86 11.77L633 497.31a20.131 20.131 0 0 0-15.29-6.54c-11.32 0-21.39 8-21.39 20.64s10 21.2 21.39 21.2a20.24 20.24 0 0 0 8.365-1.685A20.247 20.247 0 0 0 633 525.94l11.77 9.19c-6.47 7.54-16.16 11.87-27.1 11.87-19.5 0-36.18-14.09-36.18-35.61s16.73-35.16 36.24-35.16h-.02ZM669.26 514v31.5h-14.85V440.75h14.85V500l21.52-22.4h20.07l-28.95 29.52 35.48 38.38H698.2L669.26 514Zm67.38-36.3h-14.85v67.88h14.85V477.7Zm29.76 67.88h-15v-67.9h15v10.19c3.9-7.86 13.21-11.64 20.76-11.64 16.42 0 25.86 10.63 25.86 29.76v39.51H798v-37.81c0-10.76-5.54-16.86-14.22-16.86-8.87 0-17.43 4.78-17.43 18.18l.05 36.57Zm129.29-35.18a32.677 32.677 0 0 0-7.86-21.14L896 478.5l-12.33-8.18-7.49 9.88a38.103 38.103 0 0 0-16.86-3.9c-20.07 0-36.36 15.35-36.36 34.16 0 18.81 16.29 34.16 36.36 34.16 12.71 0 21.52 6.42 21.52 12.14 0 5.72-8.87 12.14-21.52 12.14s-21.52-6.42-21.52-12.14H823c0 15.1 16 27 36.36 27s36.36-11.83 36.36-27c0-8.3-4.84-15.6-12.52-20.51a33.567 33.567 0 0 0 12.49-25.85Zm-57.88 0c0-10.63 9.69-19.31 21.52-19.31s21.52 8.68 21.52 19.31c0 10.63-9.69 19.31-21.52 19.31S837.8 521 837.8 510.4h.01Zm-658.6 37.12a51.261 51.261 0 0 1-50.949-46.27 51.264 51.264 0 0 1 41.018-55.265A51.259 51.259 0 0 1 215.51 460l-11.14 11.14a35.55 35.55 0 1 0 0 50.27l11.14 11.14a51.01 51.01 0 0 1-16.651 11.119 51.013 51.013 0 0 1-19.649 3.851ZM304.6 440.25a9.75 9.75 0 1 1 0 19.501 9.75 9.75 0 0 1 0-19.501Zm424 0a9.753 9.753 0 0 1 9.043 5.984 9.752 9.752 0 0 1-7.072 13.325 9.755 9.755 0 0 1-10.024-4.137 9.744 9.744 0 0 1 1.209-12.316 9.746 9.746 0 0 1 6.894-2.856h-.05Z" fill="#fff"/></g><defs><clipPath id="a"><path fill="#fff" d="M0 0h1024v1024H0z"/></clipPath></defs></svg>