<svg width="1024" height="1024" fill="none" xmlns="http://www.w3.org/2000/svg"><g clip-path="url(#a)"><path d="M512 1024c282.77 0 512-229.23 512-512S794.77 0 512 0 0 229.23 0 512s229.23 512 512 512Z" fill="#728DBE"/><path d="M623.89 232a28.123 28.123 0 0 0-10.3 1.81l-226.27 98.86-.89.38a61.075 61.075 0 0 0-35 42.38 61.002 61.002 0 0 0 31.38 40.65L413.7 430l240.92-105.11v-62.84A30.7 30.7 0 0 0 623.89 232Zm30.79 119.24-209.54 91.49 93.36 40.72h.18v.18l31.09 13.58 68.46-29.94.62-.33a30.586 30.586 0 0 0 15.83-26.78v-88.92Zm-305.36 38.33v149.28L654 671.87v-89.659a30.26 30.26 0 0 0-17.52-26.921l-98.5-43v-.18h-.18L413.12 457.7l-30.91-13.92-.81-.43a60.994 60.994 0 0 1-32.08-53.79v.01Zm0 176.701V638a60.704 60.704 0 0 0 37.41 53.49l224.65 98.14a32.619 32.619 0 0 0 11.93 2.37 30.702 30.702 0 0 0 28.363-18.974A30.708 30.708 0 0 0 654 761.271v-62l-304.68-133Z" fill="#fff"/></g><defs><clipPath id="a"><path fill="#fff" d="M0 0h1024v1024H0z"/></clipPath></defs></svg>