<svg width="1024" height="1024" fill="none" xmlns="http://www.w3.org/2000/svg"><g clip-path="url(#a)"><path d="M512 1024c282.77 0 512-229.23 512-512S794.77 0 512 0 0 229.23 0 512s229.23 512 512 512Z" fill="#728DBE"/><path d="M466.07 588.08a276.288 276.288 0 0 1-29.12 7c-9.12 1.6-21.92 2.4-38 2.4-43.92 0-78.4-11.12-102.48-33.12-24.24-22-36.56-53.92-36.56-94.8a231.588 231.588 0 0 1 15.84-87 208.543 208.543 0 0 1 43.52-67.6 191.821 191.821 0 0 1 65-43.28A207.7 207.7 0 0 1 463.75 256a267.217 267.217 0 0 1 62 6.88 193.585 193.585 0 0 1 52 20.32 4.994 4.994 0 0 1 2.32 5.36L561.34 366a4.879 4.879 0 0 1-4.72 3.68h-9.36a4.797 4.797 0 0 1-3.52-1.52c-13-14.08-26.16-24.56-39-31.12-12.56-6.48-27.68-9.76-44.88-9.76a90.871 90.871 0 0 0-74.56 36.48c-19.68 24.56-29.68 56.48-29.68 94.72 0 24 5.2 41.52 15.6 51.92 10.4 10.4 26 15.76 46.4 15.76a126.015 126.015 0 0 0 53.12-11.44 230.095 230.095 0 0 0 47.8-29.72 5.2 5.2 0 0 1 3-1h8.48a4.724 4.724 0 0 1 3.84 1.84 5.124 5.124 0 0 1 .88 4.16l-18.56 76.32a4.718 4.718 0 0 1-2.88 3.36L491.1 579a213.947 213.947 0 0 1-25.03 9.08Zm281-20.72a94.074 94.074 0 0 1-39.76 26.48A79.667 79.667 0 0 1 736.94 613c9.68 10.32 14.64 24.8 14.64 43.2a95.36 95.36 0 0 1-43.12 82.72c-28 19.28-68 29.12-118.72 29.12H452.39a4.858 4.858 0 0 1-3.76-1.92 4.924 4.924 0 0 1-1-4.16l39-170.48 9-3.68c8.64-3.68 15.92-6.72 22.08-9.2a14.562 14.562 0 0 0 8.72-10.08l18.56-76.32a14.542 14.542 0 0 0-2.588-12.463A14.555 14.555 0 0 0 531 474.08h-8.48a14.399 14.399 0 0 0-9.76 3.76l8.08-35.12a4.88 4.88 0 0 1 4.72-3.76h115.78c39 0 69.28 6.64 90.16 19.68a64.472 64.472 0 0 1 32.56 57.44A77.595 77.595 0 0 1 747 567.36h.07Zm-88.37 90.88c0-9.92-3.52-16.88-10.8-21.2-8-4.72-21.12-7.12-39-7.12h-39l-16 69.84h35.2c22.8 0 40.48-3.76 52.56-11.12 11.44-6.96 17.04-16.96 17.04-30.4Zm9.12-129.12c0-7.68-2.8-12.88-8.64-16.24-6.56-3.76-16.08-5.68-28.24-5.68H598L584.7 565h31.2c16.8 0 29.92-3.2 39-9.52 8.68-5.96 12.92-14.6 12.92-26.36Z" fill="#fff"/></g><defs><clipPath id="a"><path fill="#fff" d="M0 0h1024v1024H0z"/></clipPath></defs></svg>