<svg width="1024" height="1024" viewBox="0 0 1024 1024" fill="none" xmlns="http://www.w3.org/2000/svg">
<g clip-path="url(#clip0_2_1881)">
<path d="M512 1024C794.77 1024 1024 794.77 1024 512C1024 229.23 794.77 0 512 0C229.23 0 0 229.23 0 512C0 794.77 229.23 1024 512 1024Z" fill="#54688C"/>
<path d="M634.02 450.31C596.5 429.4 554.74 418.3 511.68 418.3C468.62 418.3 426.86 429.41 389.34 450.31C404.35 465.34 418.37 482 431.42 500.29C453.93 531.65 468.94 561.7 477.75 582.28L511.68 526.75L545.61 582.28C554.74 561.7 569.43 531.65 591.94 500.29C604.99 482 619.34 465.34 634.02 450.31ZM804.64 390.2C759.95 399.02 719.49 417.64 683.6 446.39C675.44 452.92 667.61 459.46 660.11 466.97C644.78 481.67 630.42 498.33 617.37 516.95C579.53 569.54 564.19 618.54 563.87 619.19C562.24 624.74 557.35 628.66 551.47 629.64H549.19C544.3 629.64 539.4 627.03 536.79 623.11L511.67 585.87L486.55 623.11C483.61 627.36 479.05 629.64 474.15 629.64H471.87C466 628.66 461.43 624.74 459.47 619.19C459.47 618.86 443.81 569.54 405.97 516.95C392.59 498.33 377.91 481.34 362.91 466.64C361.28 465.01 359.32 463.37 357.69 461.74C351.82 456.51 345.95 451.29 340.07 446.71C304.18 417.96 263.73 399.34 219.03 390.52C210.87 388.89 205.65 381.05 207.29 372.55C208.92 364.38 216.75 359.16 224.91 360.46C276.78 370.59 324.42 393.78 366.17 428.73C410.21 401.94 460.45 387.57 512 387.57C563.55 387.57 613.78 401.94 657.83 428.73C699.59 393.78 747.22 370.58 799.09 360.45C807.25 358.82 815.08 364.04 816.71 372.54C818.34 381.03 812.79 388.55 804.64 390.18V390.2ZM320.83 462.39C268.63 509.76 234.38 575.09 224.26 646.3C222.96 654.47 228.83 662.31 237.31 663.61C245.79 664.92 253.3 659.04 254.6 650.54C263.73 586.51 294.73 527.71 341.71 484.92C344.65 482.31 347.58 480.02 350.19 477.41C342.69 470.22 334.86 463.36 326.7 457.16C324.42 459.12 322.79 460.75 320.83 462.39ZM799.42 646.3C800.72 654.47 794.85 662.31 786.37 663.61H784.09C776.59 663.61 770.06 658.06 769.08 650.54C759.95 586.51 728.95 527.71 681.97 484.92C679.03 482.31 676.1 480.02 673.49 477.41C680.99 470.22 688.82 463.36 696.98 457.16L702.85 462.06C755.05 509.75 789.3 575.09 799.42 646.3Z" fill="white"/>
</g>
<defs>
<clipPath id="clip0_2_1881">
<rect width="1024" height="1024" fill="white"/>
</clipPath>
</defs>
</svg>
