<svg width="1024" height="1024" fill="none" xmlns="http://www.w3.org/2000/svg"><g clip-path="url(#a)"><path d="M512 1024c282.77 0 512-229.23 512-512S794.77 0 512 0 0 229.23 0 512s229.23 512 512 512Z" fill="#9ABEFF"/><path d="M735.49 457.36a148.51 148.51 0 0 0-105.21-43.66A148.625 148.625 0 0 0 525 457.36L491.07 491l31.75 31.75 33.74-33.79a104.093 104.093 0 0 1 177.65 73.62 104.143 104.143 0 0 1-104 104.14 103.63 103.63 0 0 1-60.38-19.48l-1 1s-23 23.36-30.67 31.29a148.26 148.26 0 0 0 92 32.11A148.997 148.997 0 0 0 779 562.63a148.26 148.26 0 0 0-43.51-105.27Zm-246 179A103.67 103.67 0 0 1 415.92 667a104.142 104.142 0 0 1-104-104.24v-.26a104.002 104.002 0 0 1 104-103.88A103.58 103.58 0 0 1 476 477.91l.87-.92 31.24-31.24a148.672 148.672 0 0 0-92-32.05A149 149 0 0 0 267 562.52a148.87 148.87 0 0 0 148.82 148.87 148.623 148.623 0 0 0 105.26-43.3c2.1-2 33.28-33.74 33.28-33.74l-31.74-31.75-33.13 33.76Zm-79.6-242.54a103.576 103.576 0 0 1 98.82-71.88 103.515 103.515 0 0 1 73.57 30.67 102.255 102.255 0 0 1 25.56 42.89 162.936 162.936 0 0 1 18.66-1.43h7.05c6.963.138 13.912.685 20.81 1.64A148.257 148.257 0 0 0 508.81 277a148.258 148.258 0 0 0-146.72 125.61 168.098 168.098 0 0 1 47.8-8.79Z" fill="#fff"/></g><defs><clipPath id="a"><path fill="#fff" d="M0 0h1024v1024H0z"/></clipPath></defs></svg>