<svg width="1024" height="1024" fill="none" xmlns="http://www.w3.org/2000/svg"><g clip-path="url(#a)"><path d="M512 1024c282.77 0 512-229.23 512-512S794.77 0 512 0 0 229.23 0 512s229.23 512 512 512Z" fill="#F9DE81"/><path d="M349.24 522.17a152.585 152.585 0 0 1 140.975 94.197 152.595 152.595 0 0 1 11.615 58.393H369.59A152.59 152.59 0 0 1 217 522.17h132.24Zm457.76 0a152.587 152.587 0 0 1-152.59 152.59H522.17a152.59 152.59 0 0 1 152.59-152.59H807ZM501.83 349.24a152.596 152.596 0 0 1-44.693 107.898A152.582 152.582 0 0 1 349.24 501.83H217a152.59 152.59 0 0 1 152.59-152.59h132.24Zm152.59 0A152.59 152.59 0 0 1 807 501.83H674.76a152.59 152.59 0 0 1-152.59-152.59h132.25Z" fill="#fff"/></g><defs><clipPath id="a"><path fill="#fff" d="M0 0h1024v1024H0z"/></clipPath></defs></svg>