<svg width="1024" height="1024" fill="none" xmlns="http://www.w3.org/2000/svg"><g clip-path="url(#a)"><path d="M512 1024c282.77 0 512-229.23 512-512S794.77 0 512 0 0 229.23 0 512s229.23 512 512 512Z" fill="#9ABEFF"/><path d="M632.43 688H391.57C316.8 688 256 626.84 256 551.6a136.114 136.114 0 0 1 38.67-95.41 134.463 134.463 0 0 1 80.76-40 135.878 135.878 0 0 1 39.8-81.28 135 135 0 0 1 189.61 0 136 136 0 0 1 39.76 80.87c69.07 6.17 123.4 64.74 123.4 135.83C768 626.84 707.16 688 632.42 688h.01Zm.46-25.58h1c59.82 0 108.47-49.24 108.47-109.77 0-60.53-48.62-109.72-108.43-109.72h-1.09a14.452 14.452 0 0 1-14.38-14.21c-1.35-59.12-50-107.18-108.43-107.18-58.43 0-107.1 48.09-108.44 107.2A14.482 14.482 0 0 1 387.52 443c-58.4 1.36-105.92 50.58-105.92 109.74 0 60.53 48.66 109.77 108.47 109.77h242.82v-.09Zm-53.32-119a5.076 5.076 0 0 1 2.089 5.691 5.082 5.082 0 0 1-4.849 3.639 5.004 5.004 0 0 1-2.75-.82 27.857 27.857 0 0 1-5.68-4.94 89.118 89.118 0 0 1-119.64.1 27.588 27.588 0 0 1-5.59 4.84 5.001 5.001 0 0 1-7-1.47 5.088 5.088 0 0 1 1.46-7c8.57-5.61 9-16 9-16.37a5.04 5.04 0 0 1 7.059-4.506 5.037 5.037 0 0 1 3.011 4.716 33.595 33.595 0 0 1-2.51 11.08 78.999 78.999 0 0 0 108.83-.22 34.316 34.316 0 0 1-2.46-10.91 5.037 5.037 0 0 1 8.528-3.722 5.034 5.034 0 0 1 1.542 3.532c-.02.45.39 10.76 8.96 16.37v-.01Z" fill="#fff"/></g><defs><clipPath id="a"><path fill="#fff" d="M0 0h1024v1024H0z"/></clipPath></defs></svg>