<svg width="1024" height="1024" fill="none" xmlns="http://www.w3.org/2000/svg"><g clip-path="url(#a)"><path d="M512 1024c282.77 0 512-229.23 512-512S794.77 0 512 0 0 229.23 0 512s229.23 512 512 512Z" fill="#F8C18C"/><path d="M202.33 470.35h46.37l-7.17 27.49a17.361 17.361 0 0 1-6.15 9.23 16.63 16.63 0 0 1-10.46 3.49h-21.56a20.876 20.876 0 0 0-13 4.31 22.57 22.57 0 0 0-7.9 11.69 21.818 21.818 0 0 0-.31 10.46 22.64 22.64 0 0 0 4 8.72 20.723 20.723 0 0 0 7.39 6.05 21.72 21.72 0 0 0 9.85 2.26h13.11a7.383 7.383 0 0 1 6.05 3 7.105 7.105 0 0 1 1.37 6.67l-8.21 30.36h-14.36a58.013 58.013 0 0 1-27.18-6.46 61.405 61.405 0 0 1-20.66-17.13 60.475 60.475 0 0 1-11.18-24.28 59.855 59.855 0 0 1 .72-28l.82-3.08a60.648 60.648 0 0 1 21.64-32.31 61.462 61.462 0 0 1 17.1-9.13 59.486 59.486 0 0 1 19.72-3.34Zm23.39 123.71 40.42-151.41a17.36 17.36 0 0 1 6.15-9.23 16.625 16.625 0 0 1 10.46-3.49h42.89a57.989 57.989 0 0 1 27.18 6.46 60.995 60.995 0 0 1 31.9 41.44 57.312 57.312 0 0 1-.82 28l-.82 3.08a61.5 61.5 0 0 1-8.21 18.16 59.946 59.946 0 0 1-50.06 26.77h-37.12l7.39-27.7a17.358 17.358 0 0 1 6.15-9 16.63 16.63 0 0 1 10.46-3.49h11.9a21.584 21.584 0 0 0 20.93-16.21 20.094 20.094 0 0 0 .27-10.09 22.634 22.634 0 0 0-4-8.72 21.708 21.708 0 0 0-7.39-6.15 20.93 20.93 0 0 0-9.81-2.36h-23l-30 111.41a17.36 17.36 0 0 1-6.15 9 16.334 16.334 0 0 1-10.26 3.49l-28.46.04Zm255.85-80.84.62-2.26a3.005 3.005 0 0 0-.51-2.74 3.126 3.126 0 0 0-2.56-1.13h-66.69a16.417 16.417 0 0 1-7.8-1.85 17.072 17.072 0 0 1-5.74-4.79 16.835 16.835 0 0 1-3.08-6.84 17.443 17.443 0 0 1 .21-8l4.1-15.59h90.27a32.404 32.404 0 0 1 15.39 3.69 35.498 35.498 0 0 1 11.63 9.64 34.414 34.414 0 0 1 6.36 13.68 34.051 34.051 0 0 1-.31 15.9l-16.21 60.32A27.78 27.78 0 0 1 480.17 594l-66.68-.21a35.282 35.282 0 0 1-28.35-14 37.215 37.215 0 0 1-6.57-14.36 33.833 33.833 0 0 1 .41-16.52l.82-3.08a32.544 32.544 0 0 1 4.82-10.67 36.911 36.911 0 0 1 7.9-8.41 35.583 35.583 0 0 1 10.05-5.44 34.98 34.98 0 0 1 11.69-1.95h56l-4.1 15.39a17.43 17.43 0 0 1-6.15 9 16.362 16.362 0 0 1-10.26 3.49h-25a4.339 4.339 0 0 0-4.51 3.49 4.195 4.195 0 0 0 .82 4 4.553 4.553 0 0 0 3.69 1.74h40.42a6.343 6.343 0 0 0 3.9-1.23 5.31 5.31 0 0 0 2.05-3.28l.41-1.64 10.04-37.1ZM601 470.35a58.396 58.396 0 0 1 27.36 6.46 61.418 61.418 0 0 1 20.64 17.1 60.445 60.445 0 0 1 11.17 24.41 58.66 58.66 0 0 1-.92 28.11L649 585a11.299 11.299 0 0 1-4.41 6.57A12.466 12.466 0 0 1 637 594h-22.07a7.532 7.532 0 0 1-6.144-2.943 7.525 7.525 0 0 1-1.246-6.697l12.31-46.57c.953-3.27 1.06-6.728.31-10.05a22.721 22.721 0 0 0-4-8.72 21.866 21.866 0 0 0-7.39-6.15 20.99 20.99 0 0 0-9.85-2.36h-23L556 585a11.222 11.222 0 0 1-4.41 6.57 12.757 12.757 0 0 1-7.69 2.46H522a7.38 7.38 0 0 1-6-3 7.133 7.133 0 0 1-1.37-6.67l30.36-114.07 56.01.06Zm120.84 39.08a10.487 10.487 0 0 0-3.49 5l-9.23 34.88a6.155 6.155 0 0 0 1.035 5.38 6.151 6.151 0 0 0 4.915 2.42H800l-6.55 24.41a17.36 17.36 0 0 1-6.15 9 16.336 16.336 0 0 1-10.3 3.55h-77.35a33.129 33.129 0 0 1-15.39-3.59 33.854 33.854 0 0 1-11.63-9.64 35.208 35.208 0 0 1-6.36-13.75 31.464 31.464 0 0 1 .51-15.73l12.52-46.57a46.625 46.625 0 0 1 29.61-31.9 45.067 45.067 0 0 1 15.09-2.57h54.78a32.373 32.373 0 0 1 15.38 3.68 35.44 35.44 0 0 1 11.63 9.64A33.265 33.265 0 0 1 812 497.4a34.327 34.327 0 0 1-.41 15.8l-3.69 14a26.71 26.71 0 0 1-9.9 14.89 27.417 27.417 0 0 1-16.91 5.61h-62l4.1-15.18c.901-3.59 3-6.765 5.95-9a16.627 16.627 0 0 1 10.53-3.52h25a4.35 4.35 0 0 0 4.51-3.49l.82-3.08a4.74 4.74 0 0 0-.8-4.078 4.73 4.73 0 0 0-3.71-1.872h-38.13a8.685 8.685 0 0 0-5.55 1.96l.03-.01Zm78 84.63L841 439.17a11.671 11.671 0 0 1 4.39-6.67 12.405 12.405 0 0 1 7.71-2.56h22a7.598 7.598 0 0 1 6.26 3 7.123 7.123 0 0 1 1.37 6.67l-30.81 114.24a51 51 0 0 1-7.28 16.41 53.83 53.83 0 0 1-11.9 12.62 55.867 55.867 0 0 1-15.28 8.21 52.594 52.594 0 0 1-17.69 2.98l.07-.01Z" fill="#fff"/></g><defs><clipPath id="a"><path fill="#fff" d="M0 0h1024v1024H0z"/></clipPath></defs></svg>