<svg width="1024" height="1024" viewBox="0 0 1024 1024" fill="none" xmlns="http://www.w3.org/2000/svg">
<g clip-path="url(#clip0_2_1902)">
<path d="M512 1024C794.77 1024 1024 794.77 1024 512C1024 229.23 794.77 0 512 0C229.23 0 0 229.23 0 512C0 794.77 229.23 1024 512 1024Z" fill="#F8C18C"/>
<path d="M671.2 371.6H674.2C677.9 371.9 681.6 373.7 683.9 376.6C687.3 380.8 688.2 386.4 688.5 391.7C689.3 407.8 685.8 423.8 681.2 439.2C675.3 459.6 667 479.2 660.2 499.3C659 502.8 657.8 506.4 656.9 510C655.4 516 655.6 522.3 655.4 528.5C655.2 534.3 655.6 540.1 656.7 545.8C657.3 548.9 658.6 552.2 661 554.4C663.2 556.4 666.4 557.3 669.3 556.4C673.2 555.2 676.3 552.2 679.1 549.3C683 545 686.7 540.6 689.4 535.5C693.2 528.7 695.4 521.2 696.5 513.5C698 501.9 699.2 490.1 703.4 479.1C705 474.9 707 470.6 710.8 468C715.9 464.4 723.6 465.9 727.5 470.7C729.4 473.1 729.9 476.2 729.9 479.1C729.7 483 728.9 486.9 727.6 490.6C723.1 503.8 720.5 517.7 721 531.7C721.1 534.9 721.4 538.3 723.1 541.2C724.5 543.6 726.9 545.5 729.7 545.5C732.9 545.5 735.7 543.6 737.7 541.3C740.8 537.8 743.3 533.8 745.3 529.6C749.3 521.1 751.2 511.8 752.9 502.6C754.3 494.8 755.7 487 757.9 479.4C759.1 475.5 760.6 471.6 763.5 468.6C765.4 466.5 768.3 465.7 771 465.7C773.8 465.8 776.4 467.4 778.3 469.5C780.9 472.4 781.4 476.4 781.1 480.1C778.3 502.2 775.2 524.3 772.7 546.4C770.9 560.2 769.3 574 768.1 587.8C768 589.3 769.8 590.2 770.8 589.2C778 582.3 785.1 575.1 790.5 566.7C793 562.9 794.8 558.8 797.2 555C798.2 553.3 799.4 551.6 801.3 551C804.2 549.6 807.9 550 810.4 552C812.3 553.4 813.3 555.7 813.6 558V560.7C813 565.3 810.3 569.2 808.3 573.2C802.8 584.2 795.2 594.2 785.7 602.1C778.9 607.9 770.9 612.3 762.5 615.3C762 615.5 761.2 615.6 761.1 616.3C758 629 751.1 640.7 741.8 649.8C731.5 660 718.2 667 704.1 670.3C696.4 672 688.3 672.7 680.5 671.3C672.5 669.8 664.7 666.1 659 660.3C653.8 655.1 650.3 648.2 649.7 640.8C649.1 634.1 650.8 627.3 654 621.4C657.7 614.7 663.3 609.1 669.9 605.2C676.2 601.4 683.4 599.6 690.5 598.7C698.6 597.8 706.9 597.8 715.1 598.5C720.2 598.9 725.3 599.4 730.4 599.8C733.2 600 736.3 601 739 599.6C740.9 598.7 741.5 596.4 741.8 594.5C743 585.5 744.8 576.4 743.7 567.2C743.5 566 743.2 564.2 741.7 564.1C739.9 564.9 739 566.8 738 568.4C734.9 574.4 729.1 579 722.4 580.3C715.7 581.6 708.4 578.2 705.3 572.2C703.8 569.7 703.1 566.7 700.9 564.6C699.4 563.2 697.2 563.2 695.4 564C692.2 565.4 690.1 568.3 687.5 570.5C680.7 576.6 672.1 581.2 662.8 581.7C652 582.4 640.9 576.3 636.4 566.3C635.8 564.9 635.3 562.9 633.5 562.7C631.5 562.4 630 564 628.9 565.4C623.6 572.1 618.6 579.3 611.6 584.3C607.1 587.5 601.7 589.7 596.1 589.6C590.2 589.5 584.3 586.3 581.5 581.1C580.2 578.8 579.7 575.9 577.6 574.1C576 572.7 573.5 572.9 571.8 574C569.2 575.5 567.7 578.2 565.6 580.3C559.8 586.1 551.4 589 543.3 588.2C533.5 587.2 524.6 580.4 521 571.2C520.5 569.9 519.8 568.4 518.4 568C517.3 567.6 516.4 568.4 515.7 569.1C510.3 574.1 504.9 579.2 498.4 582.7C491.8 586.2 484.5 588.5 477 588.3C469.1 588.4 461.2 586 454.8 581.5C449.4 577.8 445.1 572.6 442.6 566.5C441.9 564.9 441 563.1 439.2 562.7C437.6 562.3 436.2 563.5 435.3 564.7C432.6 568.5 429.1 571.8 425.2 574.3C419.2 578.2 412.2 580.9 404.9 580.9C399.3 580.9 393.7 578.8 389.7 574.9C385.4 570.7 383.1 564.8 382.2 558.9C381.1 551.2 382.7 543.4 384.9 536.1C386.3 531.3 388.1 526.7 389.2 521.8C389.8 519.3 390 516.6 388.9 514.3C388 512.5 386.1 511.4 384.3 510.6C382.3 509.8 380.2 510.9 378.8 512.2C377.4 513.5 376.7 515.2 375.9 516.9C371 528.7 364.4 539.8 356.3 549.7C348.5 559.3 339.2 567.6 329.2 574.9C317.8 583 304.7 588.9 290.8 590.8C280.7 592.2 270.2 591.4 260.4 588.5C254.6 586.8 248.9 584.4 243.9 580.9C235.3 574.9 228.4 566.6 223.5 557.4C219.7 550.3 216.8 542.7 214.7 534.9C211.8 523.8 210.8 512.4 210.3 501V493.2C210.5 484.8 211.3 476.4 213 468.2C216 453.3 221.4 439 228.7 425.7C234.5 415.3 241.4 405.5 250.1 397.4C259.6 388.5 271.1 381.6 283.8 378.8C295.9 376.1 308.9 376.8 320.2 382C323.6 383.5 326.6 385.7 330.2 386.8C332.7 387.6 335.6 387.3 337.7 385.7C340.9 383.2 342.4 379.2 345.1 376.2C348.5 372.5 354 371 358.8 372.4C363.3 373.7 366.8 377.6 367.9 382.1C368.6 385.1 368.2 388.2 367.3 391.1C365.9 395.2 363.6 398.9 361.4 402.6C354.1 415.2 348.6 428.8 345.1 442.9C344 447.2 343.1 451.7 341.4 455.8C339.8 459.7 337.3 463.4 333.7 465.8C330.6 467.9 326.5 468.9 322.8 467.8C319.4 466.8 316.8 464 315.4 460.8C313.8 457.4 313.3 453.5 313.8 449.7C314.8 440.8 319.7 432.7 319.9 423.6C320.1 418.5 318.4 413.2 314.4 409.9C308.8 405.1 300.9 403.8 293.8 404.8C285.4 405.9 277.5 409.9 271.3 415.6C264.6 421.8 259.6 429.6 255.6 437.7C244 460.9 238.9 487.5 241.9 513.3C242.9 521.7 244.9 530.1 248.9 537.7C251.4 542.5 254.7 546.8 258.8 550.2C264.1 554.6 270.5 557.6 277.3 558.9C287 560.8 297.2 559.5 306.3 556C318.5 551.3 329.1 542.9 337.5 533C342 527.9 345.9 522.3 349.7 516.6C353.5 511.3 357.5 505.7 359 499.2C360 494.9 359.1 490.5 358.1 486.3C357.4 480.5 359.6 474.6 363.4 470.3C365.8 467.8 368.8 465.5 372.3 464.8C375.6 464.2 379.3 464.8 382.1 466.9C385.2 469.1 386.8 473.3 385.7 477C385 479.4 384.2 481.9 384.9 484.4C385.6 486.5 387.7 487.8 389.8 487.9C394.6 488.3 399.6 487.4 404.2 489C409.6 491.1 414.4 495.4 416.2 501.1C417.4 504.9 417.8 509.2 416.6 513C414.5 520.4 411.9 527.7 410.5 535.3C410.1 537.8 409.7 540.4 410.4 542.9C410.8 544.7 412.4 546.3 414.3 546.4C417.6 546.7 420.6 544.9 422.9 542.7C427.6 538 430.7 532 432.9 525.8C435.6 518.3 437 510.4 439 502.7C441.1 494.8 444.3 487.1 449.3 480.6C456.7 470.8 468.7 464.5 481.1 464.8C488 464.9 494.8 467.6 499.7 472.6C503.8 476.8 506 482.5 506.9 488.3C508.4 498.1 506.6 508.4 502.1 517.3C495.9 529.5 483.2 538.2 469.5 539.3C467.5 539.5 465.2 539.4 463.7 540.9C462.4 542.2 462.5 544.2 462.7 545.9C463.2 550.5 464.7 555.2 467.8 558.8C471.4 562.5 476.8 565.1 482.1 563.9C488.2 562.6 493.4 558.7 497.7 554.5C501.8 550.4 505.4 545.8 508.7 541C513.3 534.4 516.1 526.8 518.9 519.4C521.6 512.1 524.1 504.7 528.6 498.3C532.2 492.9 536.9 488.2 542.5 484.8C548.7 480.9 556.1 478.9 563.5 479.3C565.8 479.4 568.4 479.5 570.3 478.1C572 476.8 572.6 474.5 572.6 472.4C572.6 468.6 573 464.9 573.3 461.1C573.8 455.2 574.3 449.3 575.1 443.5C576.8 428.9 579.8 414.5 583.7 400.4C585.7 393.3 588.3 386.1 592.8 380.1C594.7 377.4 597 374.8 600 373.2C602.9 371.5 606.6 371.6 609.7 372.5C613.7 373.7 616.3 377.5 617.9 381.1C620.8 388.2 620 396.1 619.4 403.6C618.6 415.4 615.8 427 613.4 438.6C611.3 448.8 609.6 459.1 607.7 469.3C605.1 483.3 602.6 497.4 600 511.4C597.8 522.9 595.3 534.6 596.7 546.4C597.1 549.5 597.5 552.9 599.6 555.3C601.1 557 603.6 557.4 605.6 556.7C608.3 555.8 610.2 553.4 611.6 551C614.9 545.4 617.8 539.5 620.7 533.6C624.9 525.4 629.1 516.9 630.5 507.7C632.7 493.7 634.2 479.5 636.2 465.4C637.8 454.9 639.6 444.4 641.3 434C643.4 420.9 645.8 407.9 649.5 395.2C651.3 389.2 653.7 383.3 657.9 378.6C661.7 374.8 666.2 372.1 671.2 371.6ZM478 487.8C476 488.4 474.4 490 473.1 491.6C470.2 495.3 468 499.5 466.5 504C464.9 508.8 463.4 513.8 464 518.8C464.1 520.3 465.6 521.4 467 521.4C469.7 521.5 472.1 520 474.2 518.4C478.9 515.1 481.9 510 484 504.8C485.3 501.5 486.2 497.9 485.9 494.3C485.7 491.9 484.5 489.4 482.4 488.2C481.1 487.4 479.4 487.3 478 487.8ZM563.7 499C558.1 500 553.1 503.3 549.5 507.7C545.6 512.4 542.9 518.1 541.5 524.1C539.4 532.6 539.2 541.6 541.5 550.1C542.2 552.7 543.4 555.3 545.4 557.2C546.7 558.5 548.5 559.2 550.3 559.3C555 560 559.4 557.4 563 554.7C567.5 551.4 570.4 546.5 572.2 541.3C573.3 538.1 572.6 534.7 572.3 531.4C571.8 524.7 571.8 518 572.2 511.3C572.3 509 573 506.8 573 504.5C573 502.7 572.3 500.7 570.6 499.7C568.5 498.4 566 498.6 563.7 499ZM697.4 618.6C692.6 618.9 687.8 619.9 683.3 621.8C678.4 623.8 674.2 627.5 672.1 632.3C670.7 635.3 670.1 638.9 671.6 641.9C673.1 645 675.9 647.3 679 648.7C683.3 650.6 688.1 650.9 692.6 650.4C706.8 648.8 720.3 641.5 729.3 630.4C731.1 628.2 732.5 625.7 734 623.3C734.4 622.5 735 621.2 734.1 620.5C733 619.7 731.6 620 730.4 620C725.3 619.7 720.2 619.2 715.1 619C709.2 618.7 703.3 618.2 697.4 618.6Z" fill="white"/>
</g>
<defs>
<clipPath id="clip0_2_1902">
<rect width="1024" height="1024" fill="white"/>
</clipPath>
</defs>
</svg>
