<svg width="1024" height="1024" fill="none" xmlns="http://www.w3.org/2000/svg"><g clip-path="url(#a)"><path d="M512 1024c282.77 0 512-229.23 512-512S794.77 0 512 0 0 229.23 0 512s229.23 512 512 512Z" fill="#9ABEFF"/><path d="M471.14 405.4v90.25h81.66V352.23h-55v-90.16h27.3v63.49h27.67v-90.18h-81.63v143.34h54v90.78h-27.3v-64.1h-26.7ZM512 768c-141.16 0-256-114.84-256-256a255.3 255.3 0 0 1 158.21-236.56l3.24-1.34v72.59l-1.17.68A191.286 191.286 0 0 0 321.45 512c0 105.07 85.48 190.54 190.55 190.54 105.07 0 190.55-85.48 190.55-190.54 0-66.79-35.77-129.55-93.35-163.79l-1.15-.68v-72.86l3.25 1.33A255.57 255.57 0 0 1 768 512c0 141.15-114.84 256-256 256Z" fill="#fff"/></g><defs><clipPath id="a"><path fill="#fff" d="M0 0h1024v1024H0z"/></clipPath></defs></svg>