<svg width="1024" height="1024" viewBox="0 0 1024 1024" fill="none" xmlns="http://www.w3.org/2000/svg">
<g clip-path="url(#clip0_2_1908)">
<path d="M512 1024C794.77 1024 1024 794.77 1024 512C1024 229.23 794.77 0 512 0C229.23 0 0 229.23 0 512C0 794.77 229.23 1024 512 1024Z" fill="#F8C18C"/>
<path d="M825.98 426.44V426.5L781.36 394.68L779.06 393.42L779.33 390.61L780.61 335.76L780.66 335.8C780.76 326.78 773.54 319.39 764.52 319.29C761.81 319.26 759.14 319.9 756.74 321.16L709.47 344.87C702.639 348.591 696.823 353.929 692.533 360.418C688.243 366.906 685.608 374.348 684.86 382.09L680.86 424.48L646.82 442.79C597.38 368.13 496.79 347.69 422.13 397.13C347.47 446.57 327.03 547.16 376.47 621.82C406.48 667.13 457.19 694.39 511.53 694.43C600.91 694.43 673.61 621.59 673.61 532.07C673.62 511.22 669.6 490.57 661.77 471.25L695.36 453.22L695.3 453.38L731.58 475.56C738.219 479.599 745.749 481.945 753.507 482.389C761.265 482.834 769.013 481.364 776.07 478.11L823.33 454.39C831.49 450.48 834.93 440.7 831.02 432.55C829.86 430.13 828.12 428.03 825.96 426.44M641.53 532.08C641.53 603.89 583.21 662.32 511.5 662.32C439.57 662.47 381.14 604.27 380.99 532.34C380.84 460.41 439.04 401.98 510.97 401.83C553.85 401.74 594.03 422.77 618.4 458.05L574.33 481.75C546.52 446.98 495.78 441.34 461.01 469.15C426.24 496.96 420.6 547.7 448.41 582.47C476.22 617.24 526.96 622.88 561.73 595.07C587.01 574.85 597.74 541.47 588.98 510.3L633.29 486.52C638.74 501.09 641.52 516.52 641.51 532.07M500.69 539C504.64 546.9 514.24 550.11 522.14 546.16C522.14 546.16 522.15 546.16 522.16 546.15L559.53 526.09C562.97 552.52 544.32 576.74 517.89 580.17C515.77 580.45 513.63 580.58 511.49 580.57C484.69 580.63 462.92 558.96 462.85 532.17C462.79 505.37 484.46 483.6 511.25 483.53C523.966 483.499 536.186 488.462 545.28 497.35L507.83 517.48C499.93 521.46 496.74 531.07 500.69 538.98M715.44 391.64C716.62 385.35 717.54 379.83 723.29 376.71L747.64 364.49L744.36 394.53L713.56 409.98L715.43 391.64H715.44ZM758.89 447.88C752.93 450.63 747.98 448.06 742.24 445.24L726.47 435.76L757.26 420.31L783.24 435.67L758.89 447.89V447.88ZM753.2 510.12C744.46 508.71 736.23 514.65 734.8 523.38C734.01 528.24 733.11 533.09 732.12 537.91C722.56 584.11 703.19 631.58 678.97 668.16C651.89 709.07 620.39 733.49 594.74 733.49C577.14 733.49 569.03 731.07 558.6 727.97C547.2 724.58 534.27 720.74 511.48 720.74C488.69 720.74 475.72 724.59 464.23 728.02C453.95 731.08 445.83 733.49 428.24 733.49C402.59 733.49 371.11 709.08 344.02 668.21C319.8 631.64 300.42 584.17 290.85 537.96C280.17 486.36 282.17 440.92 296.62 406.57C317.63 356.7 367.28 330.61 405.48 330.61C429.03 330.61 442.39 335.78 456.58 341.27L457.47 341.62C471.52 347.06 487.44 353.23 511.16 353.23H511.85C535.55 353.23 551.5 347.03 565.58 341.58L566.39 341.27C580.53 335.8 593.88 330.61 617.48 330.61C627.52 330.73 637.49 332.34 647.07 335.38C652.58 337.09 657.96 339.18 663.18 341.64C671.21 345.4 680.76 341.93 684.52 333.9C688.28 325.87 684.81 316.32 676.78 312.56C670.22 309.47 663.45 306.85 656.53 304.7C643.9 300.69 630.74 298.6 617.49 298.51C587.9 298.51 570.33 305.32 554.83 311.33L554.02 311.65C545.35 315.01 537.44 318.04 527.95 319.73C526.86 310.68 524.93 301.75 522.16 293.06L522.14 293.03C583.92 281.78 581.73 206.65 581.73 206.65C531.44 214.28 509.76 233.52 500.94 252.02L500.92 251.99C492.551 241.031 482.314 231.634 470.68 224.23C468.571 222.854 466.207 221.915 463.728 221.468C461.25 221.022 458.707 221.077 456.25 221.63C445.91 223.91 439.38 234.13 441.66 244.47C442.76 249.48 445.83 253.83 450.16 256.56C470.34 269.3 484.4 291.95 489.09 318.49C482.27 316.65 475.57 314.38 469.03 311.7L468.08 311.33C452.57 305.33 435.01 298.53 405.48 298.53C356.71 298.53 293.51 331.36 267.08 394.12C245.62 445.13 251.09 504.06 259.46 544.51C269.82 594.57 290.9 646.14 317.3 686C351.33 737.36 390.72 765.65 428.23 765.65C450.46 765.65 462.09 762.2 473.46 758.81C483.66 755.77 493.29 752.9 511.47 752.9C529.65 752.9 539.26 755.77 549.62 758.85C560.86 762.19 572.48 765.66 594.74 765.66C631.71 765.66 672.15 736.61 705.69 685.96C732.08 646.11 753.17 594.54 763.52 544.47C764.61 539.2 765.59 533.91 766.46 528.59C767.88 519.84 761.96 511.6 753.21 510.16" fill="white"/>
</g>
<defs>
<clipPath id="clip0_2_1908">
<rect width="1024" height="1024" fill="white"/>
</clipPath>
</defs>
</svg>
