<svg width="1024" height="1024" viewBox="0 0 1024 1024" fill="none" xmlns="http://www.w3.org/2000/svg">
<g clip-path="url(#clip0_2_1911)">
<path d="M512 1024C794.77 1024 1024 794.77 1024 512C1024 229.23 794.77 0 512 0C229.23 0 0 229.23 0 512C0 794.77 229.23 1024 512 1024Z" fill="#8C72BD"/>
<path d="M641.26 332.59C639.587 320.136 637.9 307.686 636.2 295.24L636.65 294.92L644.18 299.29C649.287 302.263 654.397 305.233 659.51 308.2C674.763 317.033 690.03 325.843 705.31 334.63C712.943 339.036 720.573 343.45 728.2 347.87C729.54 348.67 730.91 349.44 732.27 350.22C733.63 351 735.01 351.76 736.36 352.55C737.71 353.34 739.05 354.16 740.36 355.04C741.665 355.913 742.924 356.854 744.13 357.86C748.539 361.526 752.263 365.944 755.13 370.91C755.843 372.15 756.51 373.416 757.13 374.71C758.943 378.615 760.211 382.75 760.9 387C761.251 388.646 761.471 390.318 761.56 392C761.63 393.12 761.65 394.25 761.66 395.37V498.87L757 502.63C746.42 511.23 735.71 520.01 725.34 528.49C717.51 534.91 709.45 541.49 701.44 548.03V409.22C701.56 406.956 701.062 404.702 700 402.7C699.836 402.419 699.656 402.149 699.46 401.89C699.15 401.423 698.795 400.988 698.4 400.59C698.01 400.2 697.592 399.839 697.15 399.51C696.25 398.855 695.308 398.26 694.33 397.73C693.68 397.36 693.03 397.01 692.4 396.63L680.86 390L657.78 376.68L654.31 374.68L646.31 370C644.603 357.506 642.92 345.036 641.26 332.59ZM262.36 505.77C274.19 496.18 286.09 486.43 297.64 476.96C304.38 471.433 311.123 465.913 317.87 460.4L322.46 456.65C322.41 445.58 322.46 434.52 322.46 423.45V409.24C322.421 408.465 322.458 407.688 322.57 406.92C322.684 406.15 322.871 405.393 323.13 404.66C323.961 402.189 325.664 400.106 327.92 398.8C367.367 376.04 406.803 353.266 446.23 330.48L448.03 329.43C449.64 328.49 451.24 327.55 452.87 326.64C453.73 326.16 454.6 325.693 455.48 325.24C455.99 324.97 456.48 324.71 457.02 324.45L457.18 324.12L455.69 323.54C446.49 319.96 437.277 316.41 428.05 312.89L414.23 307.6L399.63 302C394.77 300.133 389.917 298.26 385.07 296.38L384.07 296.95C381.303 298.49 378.55 300.05 375.81 301.63C372.643 303.45 369.48 305.28 366.32 307.12C363.16 308.96 359.993 310.78 356.82 312.58C333.26 326.23 309.65 339.79 286.1 353.45C285.213 353.963 284.347 354.506 283.5 355.08C281.805 356.225 280.189 357.481 278.66 358.84C277.132 360.196 275.693 361.649 274.35 363.19C270.305 367.834 267.167 373.197 265.1 379C263.367 383.814 262.444 388.883 262.37 394V481.52C262.35 489.59 262.31 497.68 262.36 505.77ZM376.69 717.66V717.6C375.67 708.546 374.67 699.49 373.69 690.43C372.43 679.1 371.13 667.43 369.82 655.88L369.03 648.94C355.43 641.093 341.833 633.243 328.24 625.39C326.531 624.426 325.101 623.035 324.093 621.351C323.085 619.668 322.532 617.751 322.49 615.79V473.18C322.376 470.922 322.479 468.658 322.8 466.42L322.58 466.09C312.58 474.263 302.58 482.453 292.58 490.66C282.58 498.866 272.557 507.03 262.51 515.15C262.448 515.48 262.411 515.814 262.4 516.15C262.4 517.15 262.46 518.08 262.4 519.04V629.64C262.4 631.1 262.52 632.64 262.65 634.1C262.785 635.579 262.995 637.051 263.28 638.51C263.427 639.236 263.593 639.96 263.78 640.68C263.967 641.4 264.183 642.113 264.43 642.82C264.65 643.593 264.893 644.36 265.16 645.12C265.95 647.399 266.92 649.613 268.06 651.74C270.348 655.997 273.256 659.889 276.69 663.29C279.547 666.128 282.741 668.606 286.2 670.67C286.867 671.083 287.567 671.476 288.3 671.85L296.48 676.58C304.66 681.3 312.86 686.01 321.02 690.78C332.17 697.13 343.26 703.58 354.37 710.02C362.023 714.453 369.69 718.86 377.37 723.24C377.18 721.37 376.97 719.52 376.73 717.7L376.69 717.66ZM761.69 517.81V508.33C746.563 520.59 731.5 532.886 716.5 545.22C711.487 549.32 706.487 553.42 701.5 557.52V615.89C701.534 617.395 701.23 618.888 700.61 620.26C700.407 620.715 700.173 621.156 699.91 621.58C699.647 622.002 699.356 622.406 699.04 622.79C698.403 623.548 697.67 624.22 696.86 624.79C696.452 625.081 696.024 625.345 695.58 625.58C655.813 648.533 616.053 671.496 576.3 694.47L578.58 695.47C579.75 695.97 580.95 696.47 582.17 697.05C589.64 700.42 597.26 703.8 604.63 707.05C615.98 712.05 627.71 717.3 639.21 722.58L643.98 724.77C648.7 722.07 653.417 719.366 658.13 716.66C680.13 704.01 702 691.27 723.98 678.66C731.33 674.11 739.47 670.52 745.93 664.66C746.85 663.83 747.74 662.95 748.59 662.02C749.597 660.96 750.55 659.853 751.45 658.7C752.799 656.975 754.028 655.161 755.13 653.27C755.497 652.636 755.85 651.996 756.19 651.35C756.857 650.056 757.473 648.723 758.04 647.35C760.285 641.95 761.548 636.193 761.77 630.35C761.737 592.876 761.697 555.363 761.65 517.81H761.69ZM621.79 722.88C612.29 718.61 602.79 714.4 593.25 710.17C588.49 708.056 583.74 705.93 579 703.79C577.26 702.98 575.48 702.25 573.73 701.47C571.965 700.717 570.243 699.869 568.57 698.93L568.32 699.06C565.93 700.41 563.55 701.78 561.16 703.14C550.46 709.25 539.82 715.44 529.16 721.61C524.813 724.123 520.46 726.623 516.1 729.11C515.689 729.353 515.261 729.567 514.82 729.75C514.67 729.81 514.52 729.85 514.37 729.9C514.22 729.95 513.78 730.12 513.47 730.2C513.16 730.28 513.1 730.27 512.91 730.31C512.72 730.35 512.36 730.43 512.07 730.46C511.78 730.49 511.67 730.46 511.47 730.46H510.67C510.41 730.46 510.11 730.46 509.83 730.4C509.55 730.34 509.41 730.4 509.2 730.35C508.99 730.3 508.62 730.24 508.33 730.17C508.04 730.1 507.95 730.1 507.76 730.04C507.57 729.98 507.14 729.83 506.84 729.71C506.69 729.65 506.53 729.61 506.37 729.54C505.921 729.343 505.487 729.116 505.07 728.86L387.66 661.15L379.74 656.58L377.42 655.24L377.09 655.05C378.263 665.336 379.417 675.623 380.55 685.91C381.683 696.196 382.833 706.483 384 716.77C384.267 718.83 384.503 720.893 384.71 722.96C384.87 724.53 385 726.11 385.13 727.68C385.13 728.18 385.22 728.68 385.26 729.17C385.467 729.359 385.687 729.533 385.92 729.69C386.62 730.17 387.41 730.53 388.14 730.96L395.58 735.26C423.34 751.3 451.103 767.333 478.87 783.36C481.03 784.58 483.17 785.87 485.34 787.1C487.15 788.1 488.98 789.1 490.86 789.98C492.739 790.86 494.685 791.589 496.68 792.16C497.37 792.37 498.07 792.56 498.77 792.74L499.38 792.89L500.98 793.25L501.56 793.37C502.27 793.51 502.98 793.63 503.69 793.73H503.96C504.587 793.816 505.217 793.893 505.85 793.96L506.5 794.02L508.17 794.14H510.82C511.747 794.14 512.67 794.11 513.59 794.05L514.32 793.99C515.01 793.94 515.7 793.88 516.38 793.8L517.32 793.68C517.987 793.593 518.623 793.493 519.23 793.38L520.11 793.22C520.903 793.066 521.693 792.89 522.48 792.69L522.82 792.61C523.72 792.38 524.61 792.12 525.49 791.84L526.25 791.58C526.88 791.37 527.51 791.14 528.14 790.9L529.02 790.55C529.627 790.303 530.227 790.043 530.82 789.77L531.6 789.41C532.44 789.01 533.26 788.59 534.07 788.13C539.81 784.856 545.537 781.563 551.25 778.25L568.41 768.33L579.87 761.74C584.537 759.02 589.203 756.31 593.87 753.61C603.203 748.21 612.567 742.806 621.96 737.4L628.19 733.76C630.78 732.25 633.38 730.76 635.96 729.22C631.267 727.126 626.543 725.013 621.79 722.88ZM459.79 317.27L463.79 318.83L505.11 294.97C505.528 294.724 505.962 294.507 506.41 294.32C506.56 294.26 506.72 294.22 506.87 294.16C507.02 294.1 507.47 293.94 507.77 293.85C508.07 293.76 508.15 293.77 508.34 293.73C508.53 293.69 508.9 293.6 509.18 293.56C509.46 293.52 509.59 293.56 509.8 293.56C510.01 293.56 510.34 293.51 510.62 293.51H512C512.19 293.51 512.54 293.6 512.82 293.65C513.1 293.7 513.19 293.71 513.38 293.75C513.57 293.79 513.97 293.93 514.26 294.03C514.55 294.13 514.57 294.12 514.71 294.18C515.146 294.351 515.57 294.552 515.98 294.78C541.853 309.7 567.72 324.633 593.58 339.58L619.45 354.51C625.66 358.18 631.97 361.69 638.2 365.33L636.65 353.73C634.17 335.23 631.65 316.11 629.04 297.3L628.89 296.22L628.33 292.14V291.85L628.07 289.97C605.797 277.196 583.553 264.37 561.34 251.49C552.973 246.656 544.603 241.833 536.23 237.02C535.62 236.64 535 236.29 534.37 235.94L533.86 235.66C533.32 235.366 532.773 235.083 532.22 234.81L531.91 234.66C531.243 234.346 530.593 234.05 529.96 233.77L529.47 233.57C528.93 233.343 528.383 233.126 527.83 232.92L527.38 232.75C526.713 232.503 526.047 232.273 525.38 232.06L524.97 231.94C524.397 231.766 523.82 231.6 523.24 231.44L522.71 231.3C522.01 231.12 521.31 230.95 520.61 230.8H520.42C519.78 230.67 519.13 230.55 518.48 230.44L517.92 230.35C517.27 230.25 516.61 230.16 515.92 230.09H515.73C515.02 230.01 514.3 229.96 513.59 229.91H513.03C512.437 229.91 511.847 229.89 511.26 229.85H510.08C509.4 229.85 508.73 229.85 508.08 229.91L507.13 229.98C506.53 230.026 505.93 230.083 505.33 230.15L504.33 230.27C503.71 230.36 503.09 230.46 502.48 230.57L501.63 230.72C500.74 230.9 499.86 231.1 498.99 231.33C496.429 231.896 493.936 232.73 491.55 233.82C490.757 234.173 489.97 234.546 489.19 234.94C487.63 235.72 486.1 236.57 484.58 237.44C483.06 238.31 481.58 239.2 480.05 240.06C471.937 244.773 463.813 249.473 455.68 254.16C434.347 266.466 413.013 278.8 391.68 291.16C401.68 295.04 411.83 298.91 421.68 302.68C434.19 307.39 447.12 312.33 459.82 317.28L459.79 317.27ZM463.28 330.44L462.15 338.91L462.07 339.48C461.63 342.54 461.22 345.48 460.89 348.37L460.44 351.71C459.97 354.71 459.6 357.64 459.21 360.76C458.77 364.31 458.31 367.98 457.7 371.65C457.33 375.33 456.81 378.97 456.3 382.49C455.79 386.01 455.3 389.42 454.96 392.82V393.24L453.75 402.32C469.75 393.13 485.68 383.86 501.68 374.69C504.201 373.229 506.989 372.291 509.88 371.93C515.18 371.28 520.47 373.09 524.88 375.93C539.19 384.13 553.41 392.5 567.76 400.62C570.72 399.553 573.677 398.47 576.63 397.37L587.5 393.3C590.533 392.16 593.57 391.03 596.61 389.91C610.19 384.75 623.83 379.77 637.41 374.62C633.74 372.44 630.01 370.3 626.41 368.22C623.03 366.29 619.55 364.3 616.12 362.28L571.42 336.47C552.2 325.37 532.98 314.276 513.76 303.19C513.251 302.923 512.684 302.786 512.11 302.79C511.464 302.786 510.829 302.955 510.27 303.28L479.42 321.1L463.42 330.33L463.28 330.44ZM587.28 401.19L584.73 402.19L575.92 405.49L624.7 433.67C627.543 435.118 630.013 437.202 631.92 439.76C634.839 443.416 636.356 447.994 636.2 452.67C636.3 469.39 636.2 486.12 636.25 502.84C655.41 518.84 674.527 534.87 693.6 550.93V410.14C693.7 409.191 693.527 408.233 693.1 407.38L692.96 407.19L692.83 406.99C691.941 406.156 690.929 405.465 689.83 404.94C689.3 404.64 688.76 404.34 688.25 404.03C682.483 400.696 676.713 397.363 670.94 394.03C662.62 389.24 654.05 384.3 645.58 379.36L593.43 398.9L587.28 401.19ZM330.45 463.19C337.117 468.57 343.783 473.953 350.45 479.34C360.34 487.34 370.45 495.55 380.6 503.7L387.87 509.57V452.65C387.863 449.771 388.442 446.922 389.572 444.274C390.701 441.627 392.358 439.237 394.44 437.25C396.88 434.88 400 433.46 402.87 431.72C417.16 423.45 431.49 415.24 445.76 406.93C445.9 405.48 446.06 404.04 446.24 402.6L446.34 401.83C446.75 398.59 447.23 395.37 447.72 392.14C447.99 389.45 448.34 386.78 448.72 384.14C448.97 382.36 449.23 380.58 449.49 378.8C449.75 377.02 449.98 375.23 450.19 373.45C450.297 372.556 450.393 371.66 450.48 370.76C451.69 363.6 452.28 356.37 453.48 349.21C453.59 348.11 453.72 347.02 453.85 345.93C453.85 345.55 453.95 345.17 454 344.79C454.093 344.063 454.19 343.336 454.29 342.61L454.49 341.2L454.78 339.2C454.973 337.866 455.167 336.503 455.36 335.11C454.11 335.81 452.86 336.55 451.57 337.3L449.29 338.63C410.237 361.19 371.18 383.743 332.12 406.29C331.544 406.693 331.085 407.241 330.788 407.878C330.491 408.515 330.368 409.219 330.43 409.92V431.1C330.43 441.62 330.43 452.47 330.49 463.19H330.55H330.45ZM430.57 627.09L441.44 623L450.23 619.7C432.7 609.53 415.13 599.44 397.61 589.27C394.679 587.383 392.259 584.802 390.564 581.757C388.868 578.711 387.95 575.295 387.89 571.81V518.81L380.61 513C370.137 504.606 359.687 496.18 349.26 487.72L330.46 472.51L330.35 472.42V614.73C330.385 615.379 330.581 616.009 330.919 616.564C331.258 617.119 331.729 617.581 332.29 617.91H332.41C348.477 627.203 364.55 636.483 380.63 645.75L430.57 627.09ZM567.63 658.42L572 629.26L573.38 620.07L521.64 649.93C518.69 651.44 515.424 652.228 512.11 652.23C505.64 652.42 500.23 648.52 494.89 645.44C482.69 638.44 470.56 631.34 458.34 624.44L449.57 627.75C439.57 631.53 429.57 635.293 419.57 639.04C409.35 642.873 399.133 646.716 388.92 650.57L426.61 672.33L510 720.53L510.1 720.59L510.2 720.65C510.749 720.981 511.379 721.154 512.02 721.15C512.56 721.157 513.092 721.019 513.56 720.75H513.68C521.3 716.4 529.03 711.93 536.5 707.59C544.98 702.67 553.72 697.59 562.43 692.67C564.1 682.01 565.69 671.21 567.24 660.73L567.63 658.42ZM643.56 518.36L636.29 512.25V571.88C636.269 575.422 635.344 578.901 633.603 581.986C631.862 585.071 629.362 587.661 626.34 589.51C611.313 598.176 596.29 606.843 581.27 615.51C581.27 616.24 581.16 616.97 581.09 617.69C581.09 617.95 581.03 618.2 581 618.46C580.94 618.93 580.89 619.4 580.82 619.87C580.82 620.19 580.73 620.5 580.68 620.87C580.63 621.24 580.56 621.69 580.49 622.1L580.29 623.31L580.07 624.59V624.66L579.85 625.95C579.79 626.3 579.74 626.64 579.68 626.95L579.54 627.83C579.48 628.24 579.42 628.64 579.37 629.05C579.37 629.28 579.3 629.51 579.27 629.74C579.19 630.38 579.11 631.02 579.06 631.66C576.14 650.41 573.48 669.2 570.59 687.96C600.31 670.75 630.46 653.35 659.66 636.5L691.39 618.19L691.51 618.12L691.63 618.06C692.198 617.78 692.681 617.355 693.033 616.828C693.384 616.301 693.59 615.691 693.63 615.06V560.38C678.63 547.71 661.46 533.3 643.58 518.38L643.56 518.36ZM511.09 562C511.196 553.436 510.394 544.885 508.7 536.49C507.059 528.669 503.218 521.481 497.63 515.77C490.12 508.14 480.68 502.4 471.56 496.84L470.77 496.36C468.09 494.72 465.3 493.12 462.61 491.57C459.41 489.73 456.1 487.83 452.9 485.83L442.41 479.25L454.65 481.15C456.48 481.495 458.26 482.066 459.95 482.85C460.68 483.16 461.37 483.44 462.06 483.69C465.56 485.06 468.97 486.41 472.38 487.76C478.91 490.34 485.65 493.02 492.32 495.53C501.24 498.81 511.32 502.53 521.69 503.32C526.509 503.639 531.347 503.201 536.03 502.02C545.43 499.56 554.3 494.8 562.56 490.13C574.09 483.46 585.56 476.21 596.69 469.2C602.28 465.67 608.06 462.03 613.78 458.49L613.89 458.42L614.06 458.3C614.422 458.086 614.757 457.831 615.06 457.54C616.516 456.369 617.87 455.077 619.11 453.68C619.715 452.998 620.273 452.277 620.78 451.52C620.249 450.368 619.577 449.286 618.78 448.3C617.1 446.048 614.924 444.214 612.42 442.94C595.687 433.26 578.95 423.593 562.21 413.94C549.57 406.79 537.05 399.42 524.45 392.2C520.61 389.497 515.939 388.236 511.26 388.64C508.715 388.958 506.26 389.784 504.04 391.07C487.62 400.48 471.27 410.07 454.84 419.43C442.23 426.79 429.61 434 417 441.31C414.47 442.84 411.72 444.09 409.57 446.18C407.736 447.931 406.278 450.037 405.285 452.37C404.291 454.703 403.782 457.214 403.79 459.75V564.68C403.842 567.749 404.651 570.759 406.144 573.442C407.637 576.124 409.769 578.397 412.35 580.06C430.18 590.39 448 600.62 465.85 611C476.61 617.12 487.29 623.38 498.03 629.54C502.03 631.84 506.03 634.64 510.65 635.35C510.65 624.35 510.76 613.22 510.89 602.44C511 593.76 511.11 584.78 511.13 575.96V575.81C511.3 573.12 511.23 570.46 511.13 567.64C511.12 565.8 511.07 563.92 511.09 562ZM620 459.75V459.7C619.091 461.04 617.878 462.147 616.46 462.93C610.78 466.44 605.02 470.07 599.46 473.58C588.31 480.58 576.77 487.89 565.14 494.58C556.56 499.43 547.36 504.37 537.29 506.99C532.065 508.305 526.665 508.788 521.29 508.42C510.29 507.59 499.8 503.73 490.55 500.32C487.35 499.11 484.14 497.87 480.95 496.63C488.13 501.14 495.22 506.04 501.27 512.19C507.543 518.59 511.856 526.65 513.7 535.42C515.475 544.179 516.316 553.102 516.21 562.04C516.21 563.85 516.21 565.68 516.28 567.44C516.35 570.22 516.42 573.1 516.28 575.98C516.28 584.8 516.15 593.77 516.04 602.43C515.92 612.36 515.79 622.6 515.8 632.71C517.416 632.393 518.985 631.872 520.47 631.16C529.563 625.933 538.653 620.69 547.74 615.43C556.113 610.59 564.487 605.756 572.86 600.93C581.233 596.103 589.613 591.266 598 586.42L612.49 578C614.762 576.598 616.64 574.642 617.948 572.316C619.257 569.99 619.952 567.369 619.97 564.7V484.95C620 476.72 620 468.16 620 459.75Z" fill="white"/>
</g>
<defs>
<clipPath id="clip0_2_1911">
<rect width="1024" height="1024" fill="white"/>
</clipPath>
</defs>
</svg>
