<svg width="1024" height="1024" viewBox="0 0 1024 1024" fill="none" xmlns="http://www.w3.org/2000/svg">
<g clip-path="url(#clip0_2_1923)">
<path d="M512 1024C794.77 1024 1024 794.77 1024 512C1024 229.23 794.77 0 512 0C229.23 0 0 229.23 0 512C0 794.77 229.23 1024 512 1024Z" fill="#FF837D"/>
<path d="M534.61 607.07C512.61 597.59 502.35 594.19 467.22 585.17C425.92 574.55 385.3 552.46 358.14 518C377.3 532.18 416.39 560.73 456.53 557.64C450.43 548.64 439.18 541.56 425.72 534.45C438.33 537.51 471.99 546.17 517.62 584.65C539.85 599.14 567.12 612.65 605.12 608.06C657.46 601.76 692.65 589.53 759.56 640.46C747.19 639.2 725.21 636.07 697.7 650.24C670.19 664.41 659.38 665 645.88 663.51C649.88 670.93 657.88 681.09 683.17 682.92C708.46 684.75 720.52 685.52 707.23 717.67C707.54 707.96 705.3 689.2 680.23 692.48C655.16 695.76 649.23 718.8 676.23 730.32C667.47 732.12 648.93 733.21 635.68 697.81C626.5 701.88 612.36 710.04 586.68 689.81C595.6 693.11 606.68 693.31 606.68 693.31C583.91 682.23 562.16 661.59 548.23 642.07C559.23 650.48 571.47 658.84 583.8 660.42C574.36 648.7 556.91 629.36 534.61 607.07ZM550 440.87C409.73 402.95 353.95 355.09 310.8 305C330.51 362.67 377.49 383.3 427.71 422C477.93 460.7 480.77 481.54 495.54 504.41C528.49 555.41 533.73 563.79 566.43 586.06C604.96 610.21 651.56 593.87 702.7 601.44C753.84 609.01 796.11 645.84 805.29 660C816.01 641.94 790.39 615.88 783.48 609.35C787.18 585.69 727.95 575.28 705.48 567.18C701.07 565.59 690.18 563.18 699.63 541.96C712.37 512.65 725.63 487.14 549.96 440.84L550 440.87ZM752.44 596.39C765.73 598.29 772.04 600.57 775.07 603.52C778.1 606.47 777.84 610.1 778 614.7C770.525 607.257 761.893 601.073 752.44 596.39ZM476.44 541.67C467.44 520.46 449.36 493.27 378.44 454.44C345.84 435.73 290 407 239.79 352.31C244.37 372 267.65 415.4 368 469.58C395.74 485.2 442.71 499.85 476.49 541.67H476.44ZM464.16 498.55C455.79 474.55 440.72 443.9 369.27 398.34C334.5 375.4 283.41 346.54 216.12 273C220.96 292.82 242.2 344.41 349.35 411.36C384.53 435.32 430 450.14 464.22 498.55H464.16Z" fill="white"/>
</g>
<defs>
<clipPath id="clip0_2_1923">
<rect width="1024" height="1024" fill="white"/>
</clipPath>
</defs>
</svg>
