<svg width="1024" height="1024" viewBox="0 0 1024 1024" fill="none" xmlns="http://www.w3.org/2000/svg">
<g clip-path="url(#clip0_2_1917)">
<path d="M512 1024C794.77 1024 1024 794.77 1024 512C1024 229.23 794.77 0 512 0C229.23 0 0 229.23 0 512C0 794.77 229.23 1024 512 1024Z" fill="#9ABEFF"/>
<path d="M488.74 226.21C557.51 211.87 627.87 263.47 634.56 333.47C644.26 408.43 578.93 476.79 503.58 470.43C359.59 456.58 347.58 257.42 488.74 226.21ZM265.29 536.89C277.61 505.34 310.58 482.77 344.7 484.63C377.92 485.07 408.26 508.47 419.64 539.24C391.52 541.13 364.28 554.96 347.5 577.81C332.17 597.67 326.19 623.56 328.85 648.33C309.4 644.71 291.3 634.53 278.76 619.17C259.48 597.01 254.51 564.06 265.29 536.88V536.89ZM472.61 494.62C516.7 469.92 572.93 492.61 589.88 539.66C558.17 543.34 528.85 562.98 514.39 591.59C513.1 596.99 509.32 592.03 508.46 589.72C494 561.96 465.06 543.42 434.23 539.66C441.09 520.65 455.08 504.52 472.61 494.62ZM644.63 493.55C682.93 473.42 731.65 488.31 753.2 525.56C782.55 574.74 751.09 638.96 695.16 648.34C698.01 622.31 691.07 595.1 674.18 574.85C657.34 553.7 631.25 541.14 604.45 539.24C611.66 519.76 626.31 503.25 644.64 493.54L644.63 493.55ZM347.64 605.3C360.01 573.84 392.96 551.34 427.02 553.21C465.12 553.68 499.27 584.37 505.55 621.65C477.46 624.06 450.5 638.47 434.18 661.62C422.19 677.69 416.57 697.61 415.69 717.5C394.49 714.84 374.46 704.31 360.94 687.66C341.71 665.44 336.8 632.47 347.64 605.31V605.3ZM519.19 621.73C524.24 581.16 564.92 549.61 605.4 553.35C647.04 555.3 682.95 593.48 681.99 635.2C683.11 676.24 648.83 713.41 608.31 717.49C607.43 697.58 601.78 677.63 589.77 661.53C573.59 638.63 546.95 624.31 519.19 621.73ZM501.47 636.08C547.61 628.73 593.86 668.12 594.19 714.75C596.96 758.58 558.61 799.54 514.75 799.87C471.03 802.53 430.26 764.32 429.82 720.6C427.35 679.51 460.73 640.61 501.47 636.09V636.08Z" fill="white"/>
</g>
<defs>
<clipPath id="clip0_2_1917">
<rect width="1024" height="1024" fill="white"/>
</clipPath>
</defs>
</svg>
