<svg width="1024" height="1024" fill="none" xmlns="http://www.w3.org/2000/svg"><g clip-path="url(#a)"><path d="M512 1024c282.77 0 512-229.23 512-512S794.77 0 512 0 0 229.23 0 512s229.23 512 512 512Z" fill="#56595B"/><path d="M781.47 449.42a2.275 2.275 0 0 0 1.533-.618 2.277 2.277 0 0 0-1.193-3.912c-17.71-3.48-45.69-6.44-76.48-6.44-68.91 0-151.51 14.78-162.5 71.7-.4 2.14-1.22 12.93-1.45 15 6.28 1 10.91 1.77 14.49 2.3a71.338 71.338 0 0 0-.69 8.6c-.09 5.25 0 10.19.27 14.88-4.43-.58-9-1.22-13.57-1.91 5.55 58.88 37.94 75.7 71.83 76.44h2.38c21.41 0 43.19-6.17 59-12a2.268 2.268 0 0 0 .521-4.031 2.27 2.27 0 0 0-1.601-.359c-31.21 4.23-79.79-1.09-69-79.38C614 464.93 737.74 452 781.47 449.42Zm-231 68.66c.24-2.69.51-5.54.65-6.33 8.82-45.6 84.91-63.42 125.59-63.42-38.6 9.07-79.18 26.58-87.84 59.6-.82 3.14-2.15 8.8-3.25 13.79-7.47-.77-11.38-1-14.68-1.18a163.968 163.968 0 0 1-20.46-2.46h-.01Zm65.6 99c-36.69 0-57.79-19-64.4-58.07a327.551 327.551 0 0 0 32.78 3.06c4.55 32.06 19.79 47.63 35.86 54.93-1.41.05-2.84.08-4.23.08h-.01ZM415.85 495.17c-.59 3.25-1.89 19.57-2.2 22.74 9.54 1.34 16.13 2.26 21.76 2.93a107.3 107.3 0 0 0-.86 11.37c-.16 8.79 0 17 .55 24.74-6.733-.9-13.623-1.883-20.67-2.95 8.6 91.38 59.7 116 112.2 116a195.958 195.958 0 0 0 25.74-1.81c29.79-3.1 58.63-13.44 77.43-21.5a2.282 2.282 0 0 0 1.27-2.765 2.279 2.279 0 0 0-2.61-1.565C584 651.1 491.87 654 510.07 522.65c14.19-102.59 218.66-117.74 275.5-120a2.28 2.28 0 0 0 .44-4.52c-25.8-6-72.45-11.56-124.2-11.56-104.27.03-229.32 22.5-245.96 108.6Zm110.78 166.41c-58.93 0-93.37-32.82-102.53-97.58a517.57 517.57 0 0 0 58.61 5.51c7.39 60.88 39.11 83.4 71.23 90a188.554 188.554 0 0 1-27.31 2.07Zm-36.81-168.67c-1.48 5.68-4 16.36-5.74 24.5-14.19-1.57-23-2.43-30.3-3.14-10.55-1-17.05-1.67-31-3.62.46-5.27 1.1-12.32 1.34-13.88C441.88 405 596.29 395.05 661.85 395.05c5.047 0 10 .05 14.86.15-79.92 7.52-169.47 31.14-186.89 97.71ZM265.6 447.18a.717.717 0 0 1-.09.43 3.689 3.689 0 0 0-.07.36c.11-.58.23-1.13.34-1.59-.08.25-.15.53-.2.8h.02Zm-2.86 15.06c.35-1.89.7-3.83 1-5.71-.33 1.91-.68 3.85-1.03 5.71h.03Zm1.32-7.15c.34-1.8.66-3.55 1-5.05-.37 1.52-.69 3.25-1.06 5.05h.06ZM818.8 351.4C771.75 333.33 656.31 309 541.85 309 413.94 309 287.13 339.35 258 442.45c-1.34 4.76-5.38 29.23-6.37 33.95 13.86 3.56 23.71 6 31.43 7.82-.94 4.76-1.76 9.6-2.31 14.62-1.53 14.07-2.37 27.21-2.69 39.66a1349.755 1349.755 0 0 1-30.32-7.5c0 154.31 88 191.93 173.71 191.93a331.356 331.356 0 0 0 36.55-2.08c38.42-4.23 75.92-15 99.35-22.85a2.277 2.277 0 0 0 1.524-2.672 2.282 2.282 0 0 0-2.524-1.758c-61.82 7.63-210.75 6.06-164.18-198.48 36-158 355.53-144.24 425.65-139.28a2.277 2.277 0 0 0 2.437-1.766 2.28 2.28 0 0 0-1.437-2.644h-.02Zm-555 105.16c-.35 1.88-.7 3.82-1 5.71.34-1.89.69-3.83 1-5.71ZM265 450c-.31 1.51-.63 3.25-1 5.05.32-1.8.65-3.53 1-5.05Zm123.88 225.92c19.26 19.45 45 31.33 76.6 35.47a334.679 334.679 0 0 1-44 3.08c-106.31 0-161.8-58-165.07-172.54 28.71 7.19 61 14.45 92.73 18.24.77 50.96 14.07 89.88 39.74 115.75ZM651.58 333c-157.1 0-254.53 40.84-281.76 118.1-3.08 8.69-9.1 27.19-12.77 39.56-8.6-1.84-15.6-3.29-21.5-4.49-9.41-1.89-16-3.17-21.84-4.27-14.06-2.69-22.27-3.37-52.41-11.84.114-.391.188-.794.22-1.2 1.1-6.18 2.69-15.51 3.82-20.71.019-.197.06-.392.12-.58 0-.17 0-.28.09-.43.09-.46.19-.87.27-1.24.08-.37.13-.58.2-.81v-.26c29.75-105.17 166.37-127.09 275.75-127.09 66.07 0 131.7 8.06 184 18.16-22.77-1.61-47.96-2.9-74.19-2.9ZM266.1 444.89v.24c0 .08-.13.5-.2.81.007.077.007.153 0 .23.016-.433.084-.863.2-1.28Z" fill="#fff"/></g><defs><clipPath id="a"><path fill="#fff" d="M0 0h1024v1024H0z"/></clipPath></defs></svg>