<svg width="1024" height="1024" viewBox="0 0 1024 1024" fill="none" xmlns="http://www.w3.org/2000/svg">
<g clip-path="url(#clip0_2_1932)">
<path d="M512 1024C794.77 1024 1024 794.77 1024 512C1024 229.23 794.77 0 512 0C229.23 0 0 229.23 0 512C0 794.77 229.23 1024 512 1024Z" fill="#FF837D"/>
<path d="M510 565.2L520.82 565.99C553 664.95 507.69 783.6 415.19 830.96V832C506.25 823.91 624.82 732.97 631.8 592.83L645.23 591.07V569.22C617.86 554.42 599.96 492.82 638.3 460.09C631.77 378.13 595.48 296.34 549.33 239.1L466.64 191.99L454.05 217.97C443.02 224.14 434.1 233.36 428.41 244.47C422.72 255.59 420.51 268.11 422.06 280.45C426.02 310.2 447.74 328.42 487.58 334.35C508.09 337.33 515.61 345.92 519.28 357.45C522.95 369.63 521.89 381.99 511.94 389.14L513.55 394.31C531.49 395.42 540.77 405.09 544.51 419.21C548.95 435.92 547.52 449.68 533.5 459.17L534.12 463.55C550.7 469.05 559.8 485.11 560.31 501.17C560.86 517.92 548.24 534.99 529.31 542.21C523.07 544.58 504.43 548.35 504.43 548.35L509.97 565.16L510 565.2ZM489.09 309.54C464.25 312.92 447.71 298.76 444.77 278.03C441.54 255.14 453.65 237.28 478.48 233.94C502.33 230.71 519.87 244.72 523.09 267.46C526.17 288.34 513.11 306.34 489.08 309.54H489.09Z" fill="white"/>
</g>
<defs>
<clipPath id="clip0_2_1932">
<rect width="1024" height="1024" fill="white"/>
</clipPath>
</defs>
</svg>
