<svg width="1024" height="1024" fill="none" xmlns="http://www.w3.org/2000/svg"><g clip-path="url(#a)"><path d="M512 1024c282.77 0 512-229.23 512-512S794.77 0 512 0 0 229.23 0 512s229.23 512 512 512Z" fill="#BA6561"/><path d="M727 278.6c-66 24.727-131.914 49.647-197.74 74.76a27.829 27.829 0 0 1-20.85.41c-68.36-24.133-136.724-48.25-205.09-72.35-4.45-1.57-9-2.82-14.22-4.56v469.89c3.42-1.16 5.67-1.83 7.84-2.7 69-28.07 138.13-55.9 206.95-84.41a34.071 34.071 0 0 1 14.801-3.185A34.07 34.07 0 0 1 533.41 660c66.62 29.54 133.53 58.41 201.5 88V276c-3.35 1.09-5.67 1.74-7.91 2.6Zm-208 339-.57-225.6c18.21-6.66 36.44-13.21 54.6-20 42.69-15.8 85.34-31.83 129.09-48.23v373.44C640.57 671 579.79 644.3 519 617.63v-.03Zm162.1-107a14.003 14.003 0 0 1-12.86 13.31 14.339 14.339 0 0 1-13.66-12.66c-.32-5.93 6.92-13.46 13-13.53a14.577 14.577 0 0 1 13.51 12.88h.01Z" fill="#fff"/></g><defs><clipPath id="a"><path fill="#fff" d="M0 0h1024v1024H0z"/></clipPath></defs></svg>