<svg width="1024" height="1024" fill="none" xmlns="http://www.w3.org/2000/svg"><g clip-path="url(#a)"><path d="M512 1024c282.77 0 512-229.23 512-512S794.77 0 512 0 0 229.23 0 512s229.23 512 512 512Z" fill="#56595B"/><path d="M506.08 419.31a29.886 29.886 0 0 0-21.242 8.757 29.887 29.887 0 0 0-8.758 21.243v125.42a29.905 29.905 0 0 0 18.504 27.743 29.905 29.905 0 0 0 11.496 2.257h358.46a29.907 29.907 0 0 0 27.744-18.504 29.886 29.886 0 0 0 2.256-11.496V449.27a29.887 29.887 0 0 0-8.757-21.243 29.887 29.887 0 0 0-21.243-8.757l-358.46.04Zm101.09 20.35c3.04 0 5.334.596 6.88 1.79a5.27 5.27 0 0 1 2.32 4.26 4.99 4.99 0 0 1-1.57 3.74 5.72 5.72 0 0 1-4.11 1.5 57.3 57.3 0 0 1-9.87-1.57 29.38 29.38 0 0 0-5.61-.75c-3.293 0-6.26 2.043-8.9 6.13-2.64 4.086-4.76 9.57-6.36 16.45l-3.74 15.93H596l-1.2 5.31h-20l-11.8 47.7c-3.64 14.506-9.473 25.506-17.5 33-8.026 7.493-16.693 11.233-26 11.22-3.14 0-5.506-.624-7.1-1.87a5.378 5.378 0 0 1-2.47-4.49 4.615 4.615 0 0 1 1.72-3.74 7.398 7.398 0 0 1 4.78-1.35c1.553.037 3.102.16 4.64.37a78.51 78.51 0 0 0 10 .67c4.934 0 8.524-1.174 10.77-3.52 2.247-2.347 4.49-8.014 6.73-17l15.18-61h-17.9l1.35-5.31h17.87c2.94-12.46 6.304-21.734 10.09-27.82A41.662 41.662 0 0 1 590 445c6.08-3.54 11.814-5.31 17.2-5.31l-.03-.03Zm54.51.15a7.359 7.359 0 0 1 5 1.57 4.538 4.538 0 0 1 1.87 3.67 4.998 4.998 0 0 1-1.79 4 8.003 8.003 0 0 1-5.229 1.5 38.11 38.11 0 0 1-6.361-.75 40.62 40.62 0 0 0-6.66-.6 7.24 7.24 0 0 0-4.64 1.27c-1.446 1.193-2.78 3.71-4 7.55-1.22 3.84-3.113 11.416-5.68 22.73L626.83 512c-3.686 15.7-5.53 23.9-5.53 24.6 0 1.593.574 2.39 1.72 2.39 1.147 0 2.744-.647 4.79-1.94a74.831 74.831 0 0 0 12.41-9.95l2.54 2.69a74.337 74.337 0 0 1-13.83 12c-5.286 3.586-9.65 5.38-13.09 5.38a4.766 4.766 0 0 1-2.114-.45 4.766 4.766 0 0 1-1.696-1.34 7.065 7.065 0 0 1-1.49-4.78c0-4 1.544-12.274 4.63-24.82l8.07-32.78c2.94-11.867 5.407-19.817 7.4-23.85a34.83 34.83 0 0 1 31.001-19.37l.039.03Zm-499.77 21.64c-9.506 0-17.31 3.14-23.41 9.42-6.1 6.28-9.1 14.356-9 24.23v33.52c0 10 3 18.123 9 24.37 6 6.246 13.804 9.386 23.41 9.42 21.694 0 32.54-12.694 32.54-38.08h-19v1.25c0 6.833-1.106 11.633-3.32 14.4-2.213 2.766-5.63 4.15-10.25 4.15a13.834 13.834 0 0 1-9.56-3.46c-2.586-2.4-3.88-6.23-3.88-11.49v-34.63c0-5.174 1.294-8.914 3.88-11.22a13.52 13.52 0 0 1 9.56-3.6c9.047 0 13.57 5.77 13.57 17.31v1.38h19c0-11.54-2.77-20.587-8.31-27.14-5.54-6.554-13.62-9.83-24.24-9.83h.01Zm80.31 0c-9.6 0-17.31 2.586-23.13 7.76-5.82 5.173-8.68 12.143-8.58 20.91a27.77 27.77 0 0 0 3.32 14 23.158 23.158 0 0 0 8.45 8.45 108.899 108.899 0 0 0 10.94 5.12c4 1.48 7.647 2.726 10.94 3.74a19.991 19.991 0 0 1 8.45 4.43 8.99 8.99 0 0 1 3.46 7.2c0 3.88-1.293 6.833-3.88 8.86-2.586 2.026-5.92 2.996-10 2.91-4.34 0-7.803-1.294-10.39-3.88-2.586-2.587-3.833-6.65-3.74-12.19h-18.8c0 10.34 3 18.556 9 24.65 6 6.093 14 9.14 24 9.14s17.94-2.63 23.82-7.89c5.88-5.26 8.88-12.507 9-21.74 0-6.46-1.57-11.724-4.71-15.79a26.066 26.066 0 0 0-11.5-8.86 145.77 145.77 0 0 0-13.43-4.57 40.333 40.333 0 0 1-11.44-5.13 9.767 9.767 0 0 1-4.71-8.45c0-7.48 4.2-11.22 12.6-11.22 8.774 0 13.16 5.076 13.16 15.23h18.75c0-10-2.906-17.94-8.72-23.82-5.813-5.88-13.43-8.834-22.85-8.86h-.01Zm81.83 0c-9.506 0-17.263 3.14-23.27 9.42-6.006 6.28-9.006 14.403-9 24.37v33.38c0 10 3 18.123 9 24.37 6 6.246 13.757 9.34 23.27 9.28 9.6 0 17.404-3.094 23.41-9.28 6.007-6.187 9.054-14.31 9.14-24.37v-17.73h-32.4v16.76h13.43v1.66c0 5.08-1.293 8.82-3.88 11.22a14.002 14.002 0 0 1-9.69 3.46c-4.153 0-7.43-1.2-9.83-3.6-2.4-2.4-3.553-6.094-3.46-11.08v-32.13c0-6.28 1.154-10.757 3.46-13.43 2.307-2.674 5.677-4.007 10.11-4 8.867 0 13.297 4.893 13.29 14.68h19c-.186-9.694-3.326-17.587-9.42-23.68-6.093-6.094-13.803-9.187-23.13-9.28l-.03-.02Zm83.22 0c-9.506 0-17.31 3.186-23.41 9.56-6.1 6.373-9.1 14.496-9 24.37v33.24c0 9.88 3 17.96 9 24.24 6 6.28 13.804 9.42 23.41 9.42 9.6 0 17.404-3.14 23.41-9.42 6.007-6.28 9.054-14.357 9.14-24.23v-33.25c0-10-3.046-18.124-9.14-24.37-6.093-6.247-13.896-9.434-23.41-9.56Zm443.36 4.75-5.38 20.94h15.48l-1.199 5.31H844.05l-6.58 25c-2.046 7.526-3.069 12.76-3.069 15.7a4.246 4.246 0 0 0 .819 2.92 3.249 3.249 0 0 0 2.39.9c1.547 0 3.914-.924 7.101-2.77a93.273 93.273 0 0 0 12-8.3l2.839 3.44c-10.92 8.226-18.223 13.263-21.909 15.11-3.687 1.846-6.654 2.77-8.901 2.77a5.397 5.397 0 0 1-4.409-2c-1.047-1.334-1.571-3.527-1.571-6.58 0-3.587.947-9.07 2.84-16.45l7.7-29.76h-12.13l1.351-5.31h12l4.19-16.37 11.889-4.56.03.01Zm-443.36 13.53a13.392 13.392 0 0 1 9.69 3.6c2.587 2.4 3.88 6.183 3.88 11.35v34.62c0 5.173-1.333 8.913-4 11.22a14.876 14.876 0 0 1-19.25-.14c-2.493-2.4-3.74-6.14-3.74-11.22v-34.61c0-5.174 1.294-8.914 3.88-11.22a13.52 13.52 0 0 1 9.56-3.6h-.02ZM794 480l-5.609 18.92c-2.24 7.526-4.357 16.193-6.351 26a68.959 68.959 0 0 0-1.649 10.32c0 1.546.623 2.32 1.869 2.32A8.998 8.998 0 0 0 786 536a49.11 49.11 0 0 0 8.901-6.88l2.389 2.92c-5.68 5.186-9.32 8.326-10.92 9.42a40.886 40.886 0 0 1-9.12 4.86 16.008 16.008 0 0 1-5.53 1 4.175 4.175 0 0 1-2.92-.9 3.383 3.383 0 0 1-1-2.62 11.13 11.13 0 0 1 .601-3.07l3-10.17a63.452 63.452 0 0 1-15.331 13.23c-3.64 2.293-6.973 3.44-10 3.44a7.85 7.85 0 0 1-6.66-3.07c-2.093-2.74-3.139-6.33-3.139-10.77 0-5.287 1.396-11.17 4.19-17.65a65.954 65.954 0 0 1 11.37-17.65 48.155 48.155 0 0 1 15-11.66c4.039-1.894 9.223-2.84 15.549-2.84 1.625.002 3.248.102 4.86.3L789 481l4.94-1h.06Zm-95.56 2.32a15.216 15.216 0 0 1 12.19 5.83c3.24 3.886 4.86 9.293 4.86 16.22 0 11.066-3.886 21.01-11.659 29.83-7.774 8.82-15.997 13.206-24.671 13.16-5.333 0-9.643-1.744-12.93-5.23-3.286-3.487-4.906-8.247-4.86-14.28a50.871 50.871 0 0 1 9-29c7.527-11.014 16.897-16.52 28.11-16.52l-.04-.01Zm-6.44 5.57c-4.24 0-8.353 3.04-12.34 9.12-3.986 6.08-5.956 14.413-5.91 25 0 6.48 1.22 11.59 3.66 15.33a8.224 8.224 0 0 0 7.181 4.11c4.186 0 8-2.59 11.44-7.77 4.386-6.727 6.579-15.06 6.579-25 0-7.48-1.02-12.814-3.06-16-2.04-3.187-4.556-4.784-7.55-4.79Zm80.901 3.74a19.08 19.08 0 0 0-11.741 3.74c-3.333 2.44-6.449 6.876-9.35 13.31a46.713 46.713 0 0 0-4.26 19.14c0 3.386.574 5.83 1.721 7.33a5.386 5.386 0 0 0 4.489 2.24c3.441 0 7.131-1.844 11.071-5.53 3.94-3.687 6.829-9.047 8.669-16.08l6.211-23.33a35.157 35.157 0 0 0-6.81-.82Z" fill="#fff"/></g><defs><clipPath id="a"><path fill="#fff" d="M0 0h1024v1024H0z"/></clipPath></defs></svg>