<svg width="1024" height="1024" viewBox="0 0 1024 1024" fill="none" xmlns="http://www.w3.org/2000/svg">
<g clip-path="url(#clip0_2_1944)">
<path d="M512 1024C794.77 1024 1024 794.77 1024 512C1024 229.23 794.77 0 512 0C229.23 0 0 229.23 0 512C0 794.77 229.23 1024 512 1024Z" fill="#8C72BD"/>
<path d="M690.86 432.85C685.96 338.42 607.6 263.1 511.98 263.1C416.36 263.1 338.24 338.19 333.13 432.41L335.68 431.16C286 462.99 253.01 518.69 253.01 581.94C253.01 680.62 333.31 760.9 431.97 760.9C460.73 760.9 487.9 754.05 511.98 741.96C536.09 754.07 563.29 760.91 592.06 760.91C690.74 760.91 771.02 680.62 771.02 581.95C771.02 519.79 739.14 464.95 690.88 432.86L690.86 432.85ZM592.04 723.1C524.45 723.1 467.84 675.36 454.09 611.85L474.34 600.22V556.78L413.36 591.77C416.07 641.44 439.13 685.79 474.32 716.6C460.96 720.83 446.73 723.1 431.97 723.1C354.14 723.1 290.82 659.77 290.82 581.93C290.82 504.09 354.14 440.76 431.97 440.76C446.75 440.76 460.99 443.05 474.36 447.27V470.19L512.01 491.77V421.93C487.91 409.83 460.73 402.98 431.97 402.98C410.7 402.98 390.29 406.72 371.35 413.56L373.89 412.31C387.66 348.73 444.33 300.93 511.99 300.93C589.89 300.93 653.3 364.32 653.3 442.24C653.3 483.37 635.63 520.43 607.5 546.28L587.79 534.98L549.9 556.7L610.76 591.6C649.63 565.81 677.89 525.28 687.52 478.05C715.6 503.87 733.23 540.89 733.23 581.95C733.23 659.78 669.9 723.11 592.07 723.11L592.04 723.1Z" fill="white"/>
</g>
<defs>
<clipPath id="clip0_2_1944">
<rect width="1024" height="1024" fill="white"/>
</clipPath>
</defs>
</svg>
