<svg width="1024" height="1024" fill="none" xmlns="http://www.w3.org/2000/svg"><g clip-path="url(#a)"><path d="M512 1024c282.77 0 512-229.23 512-512S794.77 0 512 0 0 229.23 0 512s229.23 512 512 512Z" fill="#F8C18C"/><path d="M322.94 337.41 334 384.78H144.5s3.16 14.21 4.74 15.79c4.74 7.9 9.47 17.37 15.79 23.69 30 34.74 82.11 49 124.75 56.85 30 6.32 60 7.9 90 9.47l34.74 93.17h18.95l11.05 30h-15.79l-26.84 86.85h263.7l-26.84-86.85H623l11.05-30H653s15.79-96.32 64.74-140.54c47.37-44.21 105.8-50.53 105.8-50.53v-55.27h-500.6Zm265.28 238.44c-12.63 7.9-26.84 7.9-36.32 14.21-6.32 3.16-9.47 12.63-9.47 12.63-6.32-14.21-14.21-18.95-23.69-22.11s-26.84-1.58-50.53-22.1c-15.79-14.21-17.37-33.16-15.79-42.64v-4.74c0-1.58 0-3.16 1.58-4.74 3.16-9.47 11.05-18.95 26.84-25.26 0 0-11.05 15.79 0 31.58 6.32 9.47 18.95 14.21 30 7.9 4.74-3.16 7.9-9.47 9.47-14.21 3.16-11.05 3.16-22.11-6.32-30-14.21-12.63-17.37-30-7.9-41.06 0 0 3.16 14.21 17.37 12.63 9.47 0 9.47-3.16 6.32-6.32-1.58-4.74-22.11-34.74 7.9-56.85 0 0 18.95-12.63 41.06-11.05-12.63 1.58-26.84 9.47-31.58 22.11v1.58c-4.74 12.63-1.58 26.84 7.9 39.48 6.32 9.47 14.21 17.37 17.37 30-4.74-1.58-7.9 0-11.05 3.16-3.15 3.16-4.74 9.47-3.16 14.21 1.58 3.16 4.74 6.32 7.9 6.32h4.74c4.74-1.58 7.9-7.9 6.32-12.63 3.16 3.16 4.74 11.05 3.16 15.79 0 4.74-3.16 9.47-4.74 12.63s-4.74 6.32-6.32 9.47c-1.58 3.15-3.16 6.32-3.16 9.47 0 3.15 0 7.9 1.58 11.05 6.32 9.47 18.95 0 22.11-7.9 4.74-9.47 3.16-20.53-3.16-30 0 0 11.05 6.32 18.95 28.42 6.31 18.96-4.75 41.12-17.38 48.97Z" fill="#fff"/></g><defs><clipPath id="a"><path fill="#fff" d="M0 0h1024v1024H0z"/></clipPath></defs></svg>