<svg width="1024" height="1024" viewBox="0 0 1024 1024" fill="none" xmlns="http://www.w3.org/2000/svg">
<g clip-path="url(#clip0_2_1947)">
<path d="M512 1024C794.77 1024 1024 794.77 1024 512C1024 229.23 794.77 0 512 0C229.23 0 0 229.23 0 512C0 794.77 229.23 1024 512 1024Z" fill="#F8C18C"/>
<path d="M322.94 337.41L334 384.78H144.5C144.5 384.78 147.66 398.99 149.24 400.57C153.98 408.47 158.71 417.94 165.03 424.26C195.03 459 247.14 473.26 289.78 481.11C319.78 487.43 349.78 489.01 379.78 490.58L414.52 583.75H433.47L444.52 613.75H428.73L401.89 700.6H665.59L638.75 613.75H623L634.05 583.75H653C653 583.75 668.79 487.43 717.74 443.21C765.11 399 823.54 392.68 823.54 392.68V337.41H322.94ZM588.22 575.85C575.59 583.75 561.38 583.75 551.9 590.06C545.58 593.22 542.43 602.69 542.43 602.69C536.11 588.48 528.22 583.74 518.74 580.58C509.26 577.42 491.9 579 468.21 558.48C452.42 544.27 450.84 525.32 452.42 515.84V511.1C452.42 509.52 452.42 507.94 454 506.36C457.16 496.89 465.05 487.41 480.84 481.1C480.84 481.1 469.79 496.89 480.84 512.68C487.16 522.15 499.79 526.89 510.84 520.58C515.58 517.42 518.74 511.11 520.31 506.37C523.47 495.32 523.47 484.26 513.99 476.37C499.78 463.74 496.62 446.37 506.09 435.31C506.09 435.31 509.25 449.52 523.46 447.94C532.93 447.94 532.93 444.78 529.78 441.62C528.2 436.88 507.67 406.88 537.68 384.77C537.68 384.77 556.63 372.14 578.74 373.72C566.11 375.3 551.9 383.19 547.16 395.83V397.41C542.42 410.04 545.58 424.25 555.06 436.89C561.38 446.36 569.27 454.26 572.43 466.89C567.69 465.31 564.53 466.89 561.38 470.05C558.23 473.21 556.64 479.52 558.22 484.26C559.8 487.42 562.96 490.58 566.12 490.58H570.86C575.6 489 578.76 482.68 577.18 477.95C580.34 481.11 581.92 489 580.34 493.74C580.34 498.48 577.18 503.21 575.6 506.37C574.02 509.53 570.86 512.69 569.28 515.84C567.7 518.99 566.12 522.16 566.12 525.31C566.12 528.46 566.12 533.21 567.7 536.36C574.02 545.83 586.65 536.36 589.81 528.46C594.55 518.99 592.97 507.93 586.65 498.46C586.65 498.46 597.7 504.78 605.6 526.88C611.91 545.84 600.85 568 588.22 575.85Z" fill="white"/>
</g>
<defs>
<clipPath id="clip0_2_1947">
<rect width="1024" height="1024" fill="white"/>
</clipPath>
</defs>
</svg>
