<svg width="1024" height="1024" fill="none" xmlns="http://www.w3.org/2000/svg"><g clip-path="url(#a)"><path d="M512 1024c282.77 0 512-229.23 512-512S794.77 0 512 0 0 229.23 0 512s229.23 512 512 512Z" fill="#F8C18C"/><path d="M512 375.94c8.389.011 16.758.805 25 2.37l-91.06-91.06a11.228 11.228 0 0 1-2-2.84L232.82 495.49a23.45 23.45 0 0 0 0 33.07l35.08 35c.311-.409.645-.8 1-1.17l147-146.93a135.33 135.33 0 0 1 96.1-39.52Zm45.64-10.7 26.71-20.5c5.24-4.14 10.59-6.12 16.37-6.12a23.448 23.448 0 0 1 20.74 12.65c.073.142.137.289.19.44 2.36 4.91 5 14.88-3.69 26.2-.043.08-.097.154-.16.22l-20.84 26.44 11.72 11.74a137.537 137.537 0 0 1 37.21 121.21l92.36-92.4a8.734 8.734 0 0 1 1.44-1.13L528.53 232.85a23.389 23.389 0 0 0-16.535-6.851 23.388 23.388 0 0 0-16.535 6.851l-35.57 35.59a9.474 9.474 0 0 1 2.92 2l94.83 94.8Zm-91.84 294-26.32 20.23c-3.72 2.78-8.92 6-16.34 6H423a5.95 5.95 0 0 1-1.17-.08 23.474 23.474 0 0 1-19.16-12.29c-.07-.18-.19-.39-.25-.56-4.17-8.66-2.86-18.1 3.75-26.65l20.4-25.89L414 607.41a135.33 135.33 0 0 1-36.26-120.13l-92 92c-.37.371-.776.706-1.21 1l210.93 210.89a23.422 23.422 0 0 0 33.07 0L563.65 756a11.993 11.993 0 0 1-3.49-2.39l-94.36-94.37Zm325.4-163.71-34.9-34.9c-.35.49-.734.955-1.15 1.39L607.82 609.24a135.509 135.509 0 0 1-96.11 39.59 138.053 138.053 0 0 1-25-2.37L577 736.78a11.87 11.87 0 0 1 2.39 3.49l211.78-211.71a23.448 23.448 0 0 0 .01-33.07l.02.04Zm-188.41-129.2L516.33 476l3.29 4.49c4.51 6.16 18.63 26.53 45.81 66.16 1.62 2.37 2.16 10.31-2.34 13.72L428 664.17c-2.13 1.59-3.37 2.15-4.85 2.15 0 0 0-.09-.06-.09s0 .09-.06.09a4.366 4.366 0 0 1-3.38-2c-.45-.91-1.38-2.84 1.54-6.62l86.27-109.49-48.88-70.32a10.558 10.558 0 0 1 2.31-14.22L596.1 359.74c2.29-1.8 3.58-2.07 4.59-2.07a4.297 4.297 0 0 1 3.72 2.25c.9 1.95.45 3.69-1.62 6.41Z" fill="#fff"/></g><defs><clipPath id="a"><path fill="#fff" d="M0 0h1024v1024H0z"/></clipPath></defs></svg>