<svg width="1024" height="1024" fill="none" xmlns="http://www.w3.org/2000/svg"><g clip-path="url(#a)"><path d="M512 1024c282.77 0 512-229.23 512-512S794.77 0 512 0 0 229.23 0 512s229.23 512 512 512Z" fill="#9ABEFF"/><path d="M219.69 304.87a3.203 3.203 0 0 0-2.51 1.24c-2.47 2.89 1.24 4.94 2.89 7a314.907 314.907 0 0 0 88.21 66.77 442.892 442.892 0 0 0 148.39 46.17 978.633 978.633 0 0 1 101.4 22.26 390.18 390.18 0 0 1 100 44.93A163.017 163.017 0 0 1 708.31 538a281.321 281.321 0 0 1 29.47 61.83 412.237 412.237 0 0 1 12.78 44.52c.82 3.09 1 8.24 5.15 7.63 4.15-.61 2.68-4.95 2.68-8.86v-12a290.404 290.404 0 0 0-13.19-117.48 286.68 286.68 0 0 0-77.29-118.09 238.453 238.453 0 0 0-199.29-68.63l-9.28 1.65c-1.86.21-3.71.41-3.91 2.68a3.779 3.779 0 0 0 1.108 2.802 3.794 3.794 0 0 0 2.802 1.108h4.33a415.705 415.705 0 0 1 141.38 56.68A105.529 105.529 0 0 1 640.5 426a11.99 11.99 0 0 1-7-2.47 356.574 356.574 0 0 0-122.42-43.03c-49.26-8.24-98.51-14.22-147.35-24.52a363.997 363.997 0 0 1-138.29-48.64c-1.7-.85-3.79-2.48-5.73-2.48l-.02.01Zm65.36 111.25a1.767 1.767 0 0 0-1.51 1.28c-1.24 2.89 1.65 4.53 3.5 6.18a391.556 391.556 0 0 0 84.29 58.74A566.954 566.954 0 0 0 503 525.6a413.24 413.24 0 0 1 141.38 58.12 181.58 181.58 0 0 1 82.44 129.84c1 8.24 2.89 16.49 2.89 24.73.21 1.65 0 3.71 2.68 3.71s2.68-1.85 2.68-3.71c1.796-8.83 2.9-17.787 3.3-26.79a226.714 226.714 0 0 0-14-80.38A240.096 240.096 0 0 0 582 491.59a389.933 389.933 0 0 0-99.75-24.11 687.899 687.899 0 0 1-192.94-50.08c-1.27 0-2.94-1.36-4.26-1.28Zm70 83.51a20.606 20.606 0 0 0 8.45 10.1 757.825 757.825 0 0 0 188 114 323.392 323.392 0 0 1 82.44 44.72 171.471 171.471 0 0 1 59.56 100.79c.41 2.47.62 6.8 3.71 6.8s3.09-4.53 3.09-7a132.722 132.722 0 0 0-17.11-90.06 243.616 243.616 0 0 0-138.91-103A1277.674 1277.674 0 0 1 401 522.72c-15-7.21-29.68-14.84-46-23.08l.05-.01Z" fill="#fff"/></g><defs><clipPath id="a"><path fill="#fff" d="M0 0h1024v1024H0z"/></clipPath></defs></svg>