<svg width="1024" height="1024" viewBox="0 0 1024 1024" fill="none" xmlns="http://www.w3.org/2000/svg">
<g clip-path="url(#clip0_2_1959)">
<path d="M512 1024C794.77 1024 1024 794.77 1024 512C1024 229.23 794.77 0 512 0C229.23 0 0 229.23 0 512C0 794.77 229.23 1024 512 1024Z" fill="#54688C"/>
<path d="M544.7 458.93C540.5 457.44 537.87 454.58 537.87 451.46V315.1C537.87 308.66 548.46 304.56 557.15 307.63L611 327.39C615.2 328.88 617.82 331.74 617.82 334.85V471.23C617.82 477.67 607.24 481.77 598.54 478.7L544.7 458.93ZM544.7 703.74L598.53 723.5C607.23 726.57 617.81 722.5 617.81 716.03V579.66C617.81 576.54 615.19 573.66 610.99 572.2L557.16 552.44C548.46 549.37 537.88 553.44 537.88 559.91V696.27C537.88 699.38 540.51 702.27 544.71 703.74M445 413.33L498.83 433.09C507.53 436.16 518.11 432.09 518.11 425.63V277.26C518.11 274.15 515.49 271.26 511.29 269.79L457.47 250C448.77 246.93 438.19 251 438.19 257.46V405.86C438.19 408.98 440.81 411.86 445.01 413.33M445.01 740.2L498.84 760C507.54 763.07 518.12 759 518.12 752.53V604.53C518.12 601.41 515.5 598.53 511.3 597.06L457.47 577.3C448.77 574.23 438.19 578.3 438.19 584.77V732.77C438.19 735.88 440.81 738.77 445.01 740.24M418.43 282.82C418.43 279.7 415.81 276.82 411.6 275.35L357.77 255.6C349.07 252.53 338.49 256.6 338.49 263.07V727.17C338.49 730.29 341.11 733.17 345.32 734.64L399.15 754.4C407.85 757.47 418.43 753.4 418.43 746.93V282.82ZM710.68 406L656.85 386.24C648.15 383.17 637.57 387.24 637.57 393.71V617.71C637.57 620.83 640.19 623.71 644.39 625.17L698.22 644.93C706.91 648 717.5 643.93 717.5 637.46V413.46C717.5 410.35 714.87 407.46 710.67 405.99" fill="white"/>
</g>
<defs>
<clipPath id="clip0_2_1959">
<rect width="1024" height="1024" fill="white"/>
</clipPath>
</defs>
</svg>
