<svg width="1024" height="1024" fill="none" xmlns="http://www.w3.org/2000/svg"><g clip-path="url(#a)"><path d="M512 1024c282.77 0 512-229.23 512-512S794.77 0 512 0 0 229.23 0 512s229.23 512 512 512Z" fill="#F8C18C"/><path d="M780.36 350.67H570.77c-3.07 0-5.53 3.17-5.53 7.09v58.76c0 3.82 2.45 7 5.53 7h91.11L465.43 620a7.08 7.08 0 0 0 0 9.9l41.67 41.61c2.42 2.45 7.37 2.45 9.86 0l196.12-196.18v192.23c0 3.08 3.17 5.53 7.1 5.53H779c3.83 0 7-2.45 7-5.53V356.49a4.332 4.332 0 0 0-1.16-3c-1.23-1.89-2.76-2.87-4.48-2.87v.05Zm-536.76 0a5.385 5.385 0 0 0-4.33 2.75 4.997 4.997 0 0 0-1.26 3.09v311c0 3.06 3.17 5.57 7 5.57h58.87c3.92 0 7-2.51 7-5.57V475.36l116.44 116.41c2.17 2.17 6.15 1.66 8.91-1.1l41.57-41.57c2.7-2.7 3.18-6.65 1-8.83L362.15 423.58h156.34c3.07 0 5.59-3.16 5.59-7v-58.86c0-3.86-2.52-7-5.59-7l-274.89-.05Z" fill="#fff"/></g><defs><clipPath id="a"><path fill="#fff" d="M0 0h1024v1024H0z"/></clipPath></defs></svg>