<svg width="1024" height="1024" fill="none" xmlns="http://www.w3.org/2000/svg"><g clip-path="url(#a)"><path d="M512 1024c282.77 0 512-229.23 512-512S794.77 0 512 0 0 229.23 0 512s229.23 512 512 512Z" fill="#96DFD3"/><path d="M536.56 744V640a128 128 0 1 0-.56-256H408L304 280h232.56a232.266 232.266 0 0 1 46.73 4.74 229.4 229.4 0 0 1 82.8 35.06 233.576 233.576 0 0 1 84.751 105.073A233.58 233.58 0 0 1 763.3 559.29a230.844 230.844 0 0 1-180 180 234.426 234.426 0 0 1-46.74 4.71ZM356.27 511.14c0-33.88 26.5-61.95 58.44-62 34.06-.08 63.24 28.44 63.62 62.16.39 34.57-27.79 63.84-61.3 63.64-33.51-.2-60.83-28.94-60.76-63.8Zm-.64 129.6h144.16V744H355.63A51.633 51.633 0 0 1 304 692.37a51.633 51.633 0 0 1 51.63-51.63Z" fill="#fff"/></g><defs><clipPath id="a"><path fill="#fff" d="M0 0h1024v1024H0z"/></clipPath></defs></svg>