<svg width="1024" height="1024" fill="none" xmlns="http://www.w3.org/2000/svg"><g clip-path="url(#a)"><path d="M512 1024c282.77 0 512-229.23 512-512S794.77 0 512 0 0 229.23 0 512s229.23 512 512 512Z" fill="#96DFD3"/><path d="M512 247.52a265.333 265.333 0 0 0-155.86 51.75c16.77 33.32 25 73.51 16.47 92.53-17.34-.76-41.57-24.2-59-53.4a264.42 264.42 0 0 0-33.86 47.75c18.65-1.08 41.72 8 64.31 28.08 26.78 23.78 46.68 57.42 42.85 77.5-19.94 5.79-56-10.22-82.82-34-19.74-17.51-31-36.25-34.09-52.92a263.39 263.39 0 0 0 135.25 349c15.24-29.91 15.25-141 8.56-166.53-11.53-44-29.09-53.67-58.45-70.09 19.93-7 51.17 5.52 51.17 5.52s9.83-26.91 36-37.08c-22.23 51.15 7.28 117.14 7.28 117.14s39.32-46.12 37-82.74c17.84 14.88 13.62 36.189 13.62 36.189s15.49-8.159 38.59-1.509c-37.78 15.4-75.82 58.61-73.23 124.8 3.17 81.16 17.79 93 19 95a265.374 265.374 0 0 0 27.21 1.969c146.36 0 265-118.409 265-264.479a264.267 264.267 0 0 0-94.44-202.33c-4.22 7.65-11.61 15.44-24.37 23.66-21.34 13.74-59.71 11.95-59.71 11.95s10.38-27.53 29.17-44.41a72.287 72.287 0 0 1 23-14.1 265.197 265.197 0 0 0-59.36-27.09c1.83 15.6-2.16 33.85-16.82 55.81-24.07 36.06-63.85 44.23-63.85 44.23s-10.75-26.12 13.23-69.25c9-16.16 21.64-30 34.59-38.83a265.36 265.36 0 0 0-46.44-4.12Zm-65.75 34.71c18.61 10.49 30.11 37.24 27.89 75.08-2.22 37.84-17.69 78.07-37.65 90.41-18.63-10.43-29.47-49.34-27.25-87.2 2.22-37.86 17-66 37-78.29h.01Zm133.55 92.34s9.54 39-25.87 78.92c-35.1 39.56-86.37 44.92-86.37 44.92s2.34-50.29 33.8-87.69c34.52-41.03 78.43-36.15 78.43-36.15h.01Zm147.37 6.78s-2.1 29-46.31 48.45c-36.41 16-80.44 4.52-80.44 4.52s21.42-39.06 56.33-52.62c38.58-15 70.42-.35 70.42-.35ZM671.88 488s-6.39 31.2-61.15 48c-48.78 15-88-7.24-88-7.24s13.36-37.66 69.43-50.81c50-11.71 79.73 10 79.73 10l-.01.05Z" fill="#fff"/></g><defs><clipPath id="a"><path fill="#fff" d="M0 0h1024v1024H0z"/></clipPath></defs></svg>