<svg width="1024" height="1024" fill="none" xmlns="http://www.w3.org/2000/svg"><g clip-path="url(#a)"><path d="M512 1024c282.77 0 512-229.23 512-512S794.77 0 512 0 0 229.23 0 512s229.23 512 512 512Z" fill="#54688C"/><path d="M512.76 258.27a253.572 253.572 0 0 0-149.27 48.26l147.87 147.53L662 305.15a262.41 262.41 0 0 0-149.24-46.88Zm0 507.46a253.563 253.563 0 0 1-149.27-48.26l147.87-147.53L662 718.85a262.418 262.418 0 0 1-149.24 46.88ZM304.83 364.45A246.728 246.728 0 0 0 256 512c0 55.15 18.14 106.17 47.43 147.53L452.7 512 304.83 364.45ZM768 512a246.73 246.73 0 0 0-48.83-147.53L571.3 512l149.27 147.52C749.86 618.15 768 567.14 768 512Z" fill="#fff"/></g><defs><clipPath id="a"><path fill="#fff" d="M0 0h1024v1024H0z"/></clipPath></defs></svg>