<svg width="1024" height="1024" viewBox="0 0 1024 1024" fill="none" xmlns="http://www.w3.org/2000/svg">
<g clip-path="url(#clip0_2_1983)">
<path d="M512 1024C794.77 1024 1024 794.77 1024 512C1024 229.23 794.77 0 512 0C229.23 0 0 229.23 0 512C0 794.77 229.23 1024 512 1024Z" fill="#9ABEFF"/>
<path d="M369.95 555.8L327.98 629.83C298.87 620.05 264.75 614.53 223.65 616C260.51 567.79 314.55 555.59 369.95 555.8ZM292.6 692.22L307.12 699.48L343.35 635.59C338.38 633.54 333.27 631.62 327.98 629.84L292.61 692.23L292.6 692.22ZM506.74 347.42L528.52 412.75L546.67 340.16L626.52 336.53L561.19 296.6L582.97 224.01L521.26 274.82L459.55 231.26L488.58 303.85L426.87 340.14H492.2L369.93 555.78C376.04 555.8 382.16 555.98 388.28 556.27L506.71 347.39V347.41L506.74 347.42ZM557.55 779.33C482.98 773.8 446.22 677.92 343.35 635.59L388.31 556.3C468.8 560.17 548.51 584.65 579.33 557.93C633.77 510.75 713.61 361.94 662.8 224.02C844.27 557.93 655.54 786.58 557.55 779.33ZM474.08 655.93C474.08 645.9 465.96 637.78 455.93 637.78C445.9 637.78 437.78 645.9 437.78 655.93C437.78 665.96 445.9 674.08 455.93 674.08C465.96 674.08 474.08 665.96 474.08 655.93ZM590.22 728.52C590.22 718.49 582.1 710.37 572.07 710.37C562.04 710.37 553.92 718.49 553.92 728.52C553.92 738.55 562.04 746.67 572.07 746.67C582.1 746.67 590.22 738.55 590.22 728.52ZM619.25 619.64C619.25 609.61 611.13 601.49 601.1 601.49C591.07 601.49 582.95 609.61 582.95 619.64C582.95 629.67 591.07 637.79 601.1 637.79C611.13 637.79 619.25 629.67 619.25 619.64ZM691.84 510.76C691.84 500.73 683.72 492.61 673.69 492.61C663.66 492.61 655.54 500.73 655.54 510.76C655.54 520.79 663.66 528.91 673.69 528.91C683.72 528.91 691.84 520.79 691.84 510.76Z" fill="white"/>
</g>
<defs>
<clipPath id="clip0_2_1983">
<rect width="1024" height="1024" fill="white"/>
</clipPath>
</defs>
</svg>
