<svg width="1024" height="1024" viewBox="0 0 1024 1024" fill="none" xmlns="http://www.w3.org/2000/svg">
<g clip-path="url(#clip0_2_1998)">
<path d="M512 1024C794.77 1024 1024 794.77 1024 512C1024 229.23 794.77 0 512 0C229.23 0 0 229.23 0 512C0 794.77 229.23 1024 512 1024Z" fill="#9ABEFF"/>
<path d="M631.05 374.53C619.67 374.53 605.62 374.53 588.05 374.67C511.05 375.24 512.58 375.07 492.57 384.67C460.86 399.84 435.34 431.84 427.81 465.89C425.91 474.47 425.57 480.75 425.55 507.64V539.29H431.65C435 539.29 450.29 539.29 465.65 539.4C481.01 539.51 494.4 539.47 495.47 539.4C497.22 539.3 496.47 536.51 496.83 511.19C497.1 495.3 495.89 468.63 524.61 453.58C526.94 452.58 546.66 452.2 596.46 452.17L665.1 452.12C705.28 485.97 685.91 583.21 614.56 572.4L609.56 584.74C600.38 607.61 592.1 618.67 569.03 638.86C561.84 645.15 561.13 646.14 562.57 647.86C564.01 649.58 568.66 649.75 617.68 649.22C658.68 648.77 672.88 648.22 678.44 646.95C701.66 641.56 730.03 619.28 747.53 592.71C754.06 582.8 761.18 566.55 764.33 554.4C766.79 544.89 767.33 539.84 767.83 518.19C768.65 485.52 766.75 471.69 758.77 452.39C748.633 429.394 732.897 409.303 713 393.95C704.356 387.444 694.755 382.316 684.54 378.75C675.34 375.75 665.2 374.67 631.06 374.53H631.05ZM422.05 375.34L382.84 375.81C346.62 376.24 343.08 376.47 336.45 378.74C326.486 382.155 317.098 387.064 308.61 393.3C297.97 401.3 287.43 410.37 280.11 421.56C268.65 435.84 261.11 454.88 257.68 475.11C254.8 492.34 255.78 547.26 259.2 560.35C265.25 583.52 289.01 616.8 309.37 630.65C320.37 638.11 338.15 645.77 348.86 647.65C350.46 647.93 385.4 648.23 426.51 648.31C509.22 648.48 507.15 648.64 524.01 640.86C533.416 636.283 542.255 630.625 550.35 624C556.65 618.74 570.1 604.1 574.7 597.5C581.27 588.06 588.7 571.74 592.11 559.01C594.99 548.39 595.11 546.77 595.11 515.75V483.52H524.26L524.11 496C524.03 502.87 524.11 513.19 524.2 518.94C524.29 524.69 523.84 531.94 523.12 535.14C520.87 545.06 514.51 556.86 508.28 562.69C497.73 572.56 503.96 571.9 425.23 571.53C345.45 571.16 352.48 572.09 340.69 560.3C331.27 550.87 329.29 544.3 328.36 519.52C327.46 495.52 328.81 486.52 335.11 474.33C340.46 463.99 344.64 459.33 352.58 455.05L358.4 451.88L389.93 451.73L421.46 451.58L421.77 413.46L422.05 375.34Z" fill="white"/>
</g>
<defs>
<clipPath id="clip0_2_1998">
<rect width="1024" height="1024" fill="white"/>
</clipPath>
</defs>
</svg>
