<svg width="1024" height="1024" fill="none" xmlns="http://www.w3.org/2000/svg"><g clip-path="url(#a)"><path d="M512 1024c282.77 0 512-229.23 512-512S794.77 0 512 0 0 229.23 0 512s229.23 512 512 512Z" fill="#979797"/><path d="M179.5 419.11h59.58l-59.58 61.95v-61.95Zm166.86 0-24.21 75.24A46.297 46.297 0 0 0 303.64 477c-7.6-3.8-17.09-5.7-27.3-5.7a76.697 76.697 0 0 0-10.92.71 63.981 63.981 0 0 0-14.24 3.8c-15 6.17-29 18.28-38.21 34.89-9.26 16.85-12.34 35.13-9.49 51 2.85 15.87 11.39 29.67 24.92 37 13.53 7.6 29.67 7.6 44.62 1.42a76.595 76.595 0 0 0 23-15v.24l-5.46 16.14h49.61c1.9-8.07 4.51-17.33 7.6-27.77.17-.808.407-1.601.71-2.37l49.62-152.73h-51.74v.48Zm-40.83 128.41c-7.83 20.41-25.63 32.52-39.4 27.3-13.77-5.46-18.51-26.11-10.68-46.52 7.83-20.41 25.63-32.52 39.4-27.3 14.01 5.45 18.75 26.34 10.68 46.52Zm509 9.67a82.63 82.63 0 0 1-17 25.52 32.319 32.319 0 0 1 2.28 9.75c1.65 16.16 37.36 13.92 39 10.68 1.64-3.24-2.51-35-24.37-45.95m-71.15 49a75.157 75.157 0 0 1-13.7-1.31 29.997 29.997 0 0 0 24.78 29.95 29.603 29.603 0 0 0 17.69-3h-1.79c-13-2.17-17.33-13.45-16-26.6a77.17 77.17 0 0 1-11.2.81m-95.84-3.63c1.74 3.25 36.69 6.23 38.34-9.93a33.79 33.79 0 0 1 2.3-9.75 82.65 82.65 0 0 1-17.11-25.52c-21.8 10.83-25.32 42.13-23.54 45.2m24.3-113.69a82.271 82.271 0 0 1 18.46-26c-16.77-13.79-45-14.92-47.66-13.18-2.66 1.74-2.82 36.73 14.17 36.35a35.275 35.275 0 0 1 15 2.77m94.59-60.14c0-4 3.93-10.49 3.93-13.65s-10.47-8.67-15-13c-4.53-4.33-8.76-12.34-12.12-12.34h-.36c-3.43 0-7.78 8.06-12.34 12.52-4.56 4.46-15 9.84-15 13s4 9.7 4 13.65a49.785 49.785 0 0 1-2.64 10.83c-.39 1.81.88 2.37 2.25 5.8h.75a75.184 75.184 0 0 1 46.21 0h.79c1.37-3.43 2.69-4 2.3-5.85a49.765 49.765 0 0 1-2.69-11m37.1 65.52a70.296 70.296 0 0 0-16.07-23 64.2 64.2 0 0 0-39.35-18c-1.89 0-3.59-.27-5.15-.27a34.904 34.904 0 0 0-5.15.27 64.198 64.198 0 0 0-39.35 17.9 70.755 70.755 0 0 0-16.25 23 75.007 75.007 0 0 0-.47 58.62A71.347 71.347 0 0 0 695.22 574a65.277 65.277 0 0 0 35.43 19.81 64.43 64.43 0 0 0 12 1.13h4.81a65.07 65.07 0 0 0 42.54-20.8 71.008 71.008 0 0 0 13.72-21.35 74.777 74.777 0 0 0-.43-58.81M843 449.53c-2.64-1.74-31-.61-47.66 13.22a82.213 82.213 0 0 1 18.46 26 35.372 35.372 0 0 1 15-2.78c17 .39 17.33-34.27 14.17-36.35M524.54 327h-5.75v370h5.75V327Z" fill="#fff"/></g><defs><clipPath id="a"><path fill="#fff" d="M0 0h1024v1024H0z"/></clipPath></defs></svg>