<svg width="1024" height="1024" fill="none" xmlns="http://www.w3.org/2000/svg"><g clip-path="url(#a)"><path d="M512 1024c282.77 0 512-229.23 512-512S794.77 0 512 0 0 229.23 0 512s229.23 512 512 512Z" fill="#9ABEFF"/><path d="M273.83 669.16h-.09v-63.65h63.65v63.65h76v-98.83h98.81v98.52c105.06-.13 186.16-104.12 146.11-214.64a148.334 148.334 0 0 0-88.49-88.41c-110.67-40.15-214.73 41.15-214.73 146.32H256c0-167.52 161.85-298 337.43-243.2a247.402 247.402 0 0 1 161.63 161.63C809.86 606.15 679.45 768 511.89 768v-98.84h-98.58v75.91h-75.92v-75.91h-63.56Z" fill="#fff"/></g><defs><clipPath id="a"><path fill="#fff" d="M0 0h1024v1024H0z"/></clipPath></defs></svg>