<svg width="1024" height="1024" viewBox="0 0 1024 1024" fill="none" xmlns="http://www.w3.org/2000/svg">
<g clip-path="url(#clip0_2_2010)">
<path d="M512 1024C794.77 1024 1024 794.77 1024 512C1024 229.23 794.77 0 512 0C229.23 0 0 229.23 0 512C0 794.77 229.23 1024 512 1024Z" fill="#9ABEFF"/>
<path d="M748 501.31L490.78 758.53L490.73 758.58L417.59 684.93L601.19 501.33L432.64 333.26L417.07 317.7L490.73 244L506.29 259.56L748 501.31ZM513.62 487.37L367.86 635.72L386.53 654.39L533.33 507.08L513.62 487.37ZM380.77 354.52L307.12 427.66L380.77 501.31L307.11 575L362.11 630L507.85 482.12L380.77 354.52ZM769.27 522.68L753.71 507.12L572.46 688.37L496.46 764.37L512 780L769.27 522.69V522.68Z" fill="white"/>
</g>
<defs>
<clipPath id="clip0_2_2010">
<rect width="1024" height="1024" fill="white"/>
</clipPath>
</defs>
</svg>
