<svg width="1024" height="1024" viewBox="0 0 1024 1024" fill="none" xmlns="http://www.w3.org/2000/svg">
<g clip-path="url(#clip0_2_2013)">
<path d="M512 1024C794.77 1024 1024 794.77 1024 512C1024 229.23 794.77 0 512 0C229.23 0 0 229.23 0 512C0 794.77 229.23 1024 512 1024Z" fill="#ABABFF"/>
<path d="M697.43 555.33C694.91 554.75 692.44 553.95 690.05 552.95C688.1 552.1 686.33 550.89 684.83 549.39C686.25 536.77 684.83 525.83 686.01 513.47C690.77 465.41 720.99 480.64 748.1 472.8C764.98 468.04 781.88 458.29 786.16 438.3C767.908 416.928 747.141 397.84 724.31 381.45C650.81 329.12 554.7 308.18 467.39 322.69C480.74 345.99 500.89 364.67 525.13 376.21C525.13 376.21 501.47 376.21 481.19 361.07C475.24 363.44 463.34 368.13 457.63 370.98C504.01 415.47 576.57 420.46 628.67 380.5C628.43 380.97 623.91 387.87 618.44 416.66C606.31 478.03 571.33 473.28 528.04 457.82C438.12 425.22 388.64 455.44 343.68 393.59C337.259 397.196 331.913 402.446 328.191 408.8C324.469 415.155 322.505 422.386 322.5 429.75C322.5 445.21 331.07 458.29 343.44 465.43C350.19 456.47 353.22 453.92 365 453.92C346.78 464.25 344.63 473.27 336.79 498.25C327.27 528.47 331.31 559.4 286.83 567.48C263.28 568.67 263.75 584.61 255.19 608.41C244.49 639.31 230.22 651.69 202.38 680.95C213.8 694.75 225.7 696.41 237.82 691.42C262.8 680.95 282.07 648.6 300.15 627.66C320.37 604.35 368.9 614.35 405.53 591.5C430.75 576.04 443.12 555.11 426.47 519.66C437.189 531.463 443.566 546.566 444.55 562.48C486.89 557 543.51 608.63 595.13 617.19C590 610.728 585.758 603.608 582.52 596.02C576.57 581.74 574.67 568.66 575.86 557.24C580.61 585.55 609.16 621.95 655.07 625.28C666.73 626.23 679.58 624.8 692.9 620.76C708.84 616 723.58 609.82 741.18 613.15C754.27 615.53 766.4 622.19 774.02 633.37C785.44 650.01 810.41 653.59 821.59 633.13C796.38 567.24 726.91 562.96 697.42 555.34L697.43 555.33Z" fill="white"/>
</g>
<defs>
<clipPath id="clip0_2_2013">
<rect width="1024" height="1024" fill="white"/>
</clipPath>
</defs>
</svg>
