<svg width="1024" height="1024" fill="none" xmlns="http://www.w3.org/2000/svg"><g clip-path="url(#a)"><path d="M512 1024c282.77 0 512-229.23 512-512S794.77 0 512 0 0 229.23 0 512s229.23 512 512 512Z" fill="#9ABEFF"/><path d="M748 501.31 490.78 758.53l-.05.05-73.14-73.65 183.6-183.6-168.55-168.07-15.57-15.56 73.66-73.7 15.56 15.56L748 501.31Zm-234.38-13.94L367.86 635.72l18.67 18.67 146.8-147.31-19.71-19.71ZM380.77 354.52l-73.65 73.14 73.65 73.65L307.11 575l55 55 145.74-147.88-127.08-127.6Zm388.5 168.16-15.56-15.56-181.25 181.25-76 76L512 780l257.27-257.31v-.01Z" fill="#fff"/></g><defs><clipPath id="a"><path fill="#fff" d="M0 0h1024v1024H0z"/></clipPath></defs></svg>