<svg width="1024" height="1024" fill="none" xmlns="http://www.w3.org/2000/svg"><g clip-path="url(#a)"><path d="M512 1024c282.77 0 512-229.23 512-512S794.77 0 512 0 0 229.23 0 512s229.23 512 512 512Z" fill="#728DBE"/><path d="M689.43 349a422.212 422.212 0 0 0-104.22-32.32 1.581 1.581 0 0 0-1.68.79 294.219 294.219 0 0 0-13 26.66 389.826 389.826 0 0 0-117.05 0c-3.9-9.122-8.3-18.022-13.18-26.66a1.637 1.637 0 0 0-1.68-.79A421.023 421.023 0 0 0 334.44 349c-.286.12-.527.327-.69.59-66.37 99.17-84.55 195.9-75.63 291.41a1.75 1.75 0 0 0 .67 1.2 424.551 424.551 0 0 0 127.85 64.63 1.654 1.654 0 0 0 1.8-.59 303.417 303.417 0 0 0 26.15-42.54c.103-.204.161-.427.171-.656a1.605 1.605 0 0 0-.487-1.233 1.633 1.633 0 0 0-.574-.361 279.546 279.546 0 0 1-39.94-19 1.64 1.64 0 0 1-.16-2.72c2.68-2 5.37-4.1 7.93-6.22a1.584 1.584 0 0 1 1.65-.22c83.79 38.26 174.51 38.26 257.31 0a1.586 1.586 0 0 1 1.68.2c2.56 2.11 5.25 4.23 8 6.24a1.645 1.645 0 0 1 .655 1.398 1.635 1.635 0 0 1-.795 1.322 262.216 262.216 0 0 1-40 19 1.63 1.63 0 0 0-.87 2.28 340.666 340.666 0 0 0 26.13 42.52 1.618 1.618 0 0 0 1.8.61 423.157 423.157 0 0 0 128-64.63 1.65 1.65 0 0 0 .463-.517c.115-.204.186-.43.207-.663 10.68-110.44-17.88-206.38-75.7-291.42a1.303 1.303 0 0 0-.63-.63ZM427.09 582.85c-25.23 0-46-23.16-46-51.6s20.38-51.6 46-51.6c25.83 0 46.42 23.36 46 51.6.02 28.44-20.37 51.6-46 51.6Zm170.13 0c-25.23 0-46-23.16-46-51.6s20.38-51.6 46-51.6c25.83 0 46.42 23.36 46 51.6.01 28.44-20.17 51.6-46 51.6Z" fill="#fff"/></g><defs><clipPath id="a"><path fill="#fff" d="M0 0h1024v1024H0z"/></clipPath></defs></svg>