<svg width="1024" height="1024" viewBox="0 0 1024 1024" fill="none" xmlns="http://www.w3.org/2000/svg">
<g clip-path="url(#clip0_2_2025)">
<path d="M512 1024C794.77 1024 1024 794.77 1024 512C1024 229.23 794.77 0 512 0C229.23 0 0 229.23 0 512C0 794.77 229.23 1024 512 1024Z" fill="#9ABEFF"/>
<path d="M684.1 318H339.9C300.4 318 268.1 350.3 268.1 389.8V553.6C268.1 593.1 300.4 625.4 339.9 625.4H577.2V768L727.5 610.7C744.7 597.5 755.9 576.8 755.9 553.6V389.8C755.9 350.3 723.6 318 684.1 318Z" fill="white"/>
</g>
<defs>
<clipPath id="clip0_2_2025">
<rect width="1024" height="1024" fill="white"/>
</clipPath>
</defs>
</svg>
