<svg width="1024" height="1024" fill="none" xmlns="http://www.w3.org/2000/svg"><g clip-path="url(#a)"><path d="M512 1024c282.77 0 512-229.23 512-512S794.77 0 512 0 0 229.23 0 512s229.23 512 512 512Z" fill="#98DC9A"/><path d="M367.85 257a44.62 44.62 0 0 0-37.59 21.66L282.65 358c-7.52 9.62-7.52 24 0 36.08l52.62 96.22c7.5 13 11.06 31 2.5 43.31l-55.12 96.22c-7.5 9.62-7.5 24 0 36.06l47.63 79.41c6.92 13.3 22.59 21.64 37.59 21.64h250.61c15 0 30.05-7.21 37.59-21.66l125.31-211.7c7.506-14.427 7.506-28.857 0-43.29L656 278.64c-7.49-14.45-22.53-21.64-37.56-21.64H367.85ZM443 379.69h102.78c15 0 30.05 7.21 37.59 21.64l52.64 89c7.506 14.447 7.506 28.883 0 43.31l-52.64 86.59c-7.52 14.44-22.57 21.67-37.59 21.67H443s-14.35.47-14.35-2.55l63.89-105.71c7.686-14.447 7.686-28.883 0-43.31l-63.93-108.11c0-3 14.41-2.55 14.41-2.55l-.02.02Z" fill="#fff"/></g><defs><clipPath id="a"><path fill="#fff" d="M0 0h1024v1024H0z"/></clipPath></defs></svg>