<svg width="1024" height="1024" fill="none" xmlns="http://www.w3.org/2000/svg"><g clip-path="url(#a)"><path d="M512 1024c282.77 0 512-229.23 512-512S794.77 0 512 0 0 229.23 0 512s229.23 512 512 512Z" fill="#98DC9A"/><path d="M618.75 256c1.147 63.687 2.27 127.373 3.37 191.06-17-12.93-38.23-20.31-59.64-19.75H414.64A82.001 82.001 0 0 0 336.47 494c-1.59 9-1.21 18.16-1.25 27.24v55.13c-.118 5.544.176 11.089.88 16.59a76.159 76.159 0 0 0 18.49 40.43c10.08 11.63 23.16 20.92 38 25.3a89.382 89.382 0 0 0 27.33 3.49h163.72c9.932.262 19.853-.832 29.49-3.25 23.48-6.07 43.78-22.06 56.82-42.32a93.179 93.179 0 0 0 14.44-49.3V256.05c-21.873-.033-43.753-.05-65.64-.05ZM611 595.25c-10.81 14.66-28.46 24.51-46.9 24.1H438.82a43.727 43.727 0 0 1-41.34-42.3c-.07-20.87 0-41.75 0-62.62a44.062 44.062 0 0 1 4.17-19.82c5.79-11.49 16.63-20.63 29.31-23.4a37.61 37.61 0 0 1 7.86-.94h128.33c23.33.78 44.74 17.58 52.18 39.52a59.49 59.49 0 0 1 2.89 19.76v32.34A55.798 55.798 0 0 1 611 595.25Zm-33.13 89.28c3.83 12 7 24.16 10.66 36.19-13.54 4.91-27.74 7.74-41.81 10.69-20.92 4.14-42.11 7.22-63.44 8-35.15.83-70.55-2.66-104.53-11.89-27.17-7.42-53.48-18.71-76.59-34.92a167.063 167.063 0 0 1-33.18-30.22 197.84 197.84 0 0 1-24.56-38.85 208.363 208.363 0 0 1-18.95-60.75 157.5 157.5 0 0 1 4.43-63.49c6.59-24 19.06-46.11 35.28-64.87 19.48-22.62 44-40.48 70.47-54.15 29.49-15.24 61.44-25.38 94-31.53a423.019 423.019 0 0 1 79.33-7.12c35.17-.08 70.41 2.87 104.87 10.05.73 17.64.59 35.32 1.16 53-10.65-2.85-21.27-5.88-32.09-8a365.264 365.264 0 0 0-74-7.65 359.168 359.168 0 0 0-95.78 6.83c-25.46 5.49-50.44 14.21-72.78 27.75-18.27 11.06-34.62 25.7-46.28 43.69-14 21.22-20.75 46.79-20.77 72.1-.33 21.16 3.06 42.53 11.15 62.14a132.01 132.01 0 0 0 31.05 45.29c21.45 20.54 48.9 33.78 77.2 42 30.56 8.73 62.54 12.18 94.29 11.08a305.57 305.57 0 0 0 90.84-15.37h.03ZM726.67 659a89.374 89.374 0 0 1-28 15 161.758 161.758 0 0 1-50.89 8.58c-13.64-.23-27.43-2.1-40.18-7.13a57.652 57.652 0 0 1-12.74-6.87 108.922 108.922 0 0 0 32.59-7.58 105.519 105.519 0 0 0 47.87-40.75c3 .24 5.72 1.61 8.69 2 6 1 12.87 1.42 18.16-2.19a90.65 90.65 0 0 0 24.49-28.68c24.66-46.28 3.08-92.83 3.08-92.83-5.52-13.3-7.23-16.85-11.86-24.72a115.293 115.293 0 0 0-26.75-30.55l-.23-.46c-.31-21.17.19-42.36.11-63.53 2.17.62 4 1.94 6 3a206.486 206.486 0 0 1 46.13 35.33 228.733 228.733 0 0 1 6 6.38l.35.4a188.823 188.823 0 0 1 6.88 8.21c8.82 10.79 23.24 29.44 28.8 42.44a149.537 149.537 0 0 1 3.48 7.19C834.6 584.41 726.67 659 726.67 659Z" fill="#fff"/></g><defs><clipPath id="a"><path fill="#fff" d="M0 0h1024v1024H0z"/></clipPath></defs></svg>