<svg width="1024" height="1024" fill="none" xmlns="http://www.w3.org/2000/svg"><g clip-path="url(#a)"><path d="M512 1024c282.77 0 512-229.23 512-512S794.77 0 512 0 0 229.23 0 512s229.23 512 512 512Z" fill="#F8C18C"/><path d="M771.44 498c-8.71-125-98.98-203-227.61-213.45H327.66c-16 3.87-24.66 14.35-29.66 29.66V708.5c3.87 18.7 18.22 27.57 37.4 31h207.3c129.76-6.18 238.09-101.28 228.74-241.5ZM574.61 661.27s-1.61-41.75-3.87-63.83c-31.27-5-58.84-9.83-84.14-21.92-68.67-33-157.81-129.76-157.81-196.34 69.31 39.65 127.67 99.62 233.74 84.15L553.17 399s112.68 77.05 163.29 109.94C670.2 560 574.61 661.27 574.61 661.27Z" fill="#fff"/></g><defs><clipPath id="a"><path fill="#fff" d="M0 0h1024v1024H0z"/></clipPath></defs></svg>