<svg width="1024" height="1024" fill="none" xmlns="http://www.w3.org/2000/svg"><g clip-path="url(#a)"><path d="M512 1024c282.77 0 512-229.23 512-512S794.77 0 512 0 0 229.23 0 512s229.23 512 512 512Z" fill="#728DBE"/><path d="M528.86 533.8a175.852 175.852 0 0 1-80.76-19.69 138.918 138.918 0 0 1 73.43-26A25.65 25.65 0 0 1 517 470.6a62.996 62.996 0 0 1 11.91-33.13 61.83 61.83 0 0 1 11.91 33.13 24.268 24.268 0 0 1-4.58 17.56 139.06 139.06 0 0 1 73.58 26 176.475 176.475 0 0 1-80.96 19.64ZM707 479.3a69.071 69.071 0 0 0 1.07-11.3A64.002 64.002 0 0 0 644 404.2a72.172 72.172 0 0 0-14.2 1.53 154.002 154.002 0 0 0-296.62 57.4v2.75C377.12 477.78 417 521 440 537.16a156.483 156.483 0 0 0 179.53 0c34.2-23.2 58-29.92 80-29a60.148 60.148 0 0 1 57.4 58.93 56.935 56.935 0 0 1-34.44 53.073 56.95 56.95 0 0 1-21.73 4.627 74.003 74.003 0 0 1-50.84-18.93 1.377 1.377 0 0 1-.307-1.862 1.379 1.379 0 0 1 1.837-.428 70.06 70.06 0 0 0 30.718 11.604 70.062 70.062 0 0 0 32.632-3.664 41.686 41.686 0 0 0 23.66-36.79 36.928 36.928 0 0 0-9.009-26.8 36.944 36.944 0 0 0-25.321-12.58 38.338 38.338 0 0 0-16.336 1.539 38.333 38.333 0 0 0-14.194 8.231 140.604 140.604 0 0 0-32.21 45.8c-13.59 27.78-36.33 58.32-64 69.92h122.14a91.601 91.601 0 0 0 7-181.51l.47-.02ZM433 625.25c-15.27-18.78-27.78-35.72-61.06-85.95-33.28-50.23-82.28-53.13-99.84-37.86A101.668 101.668 0 0 0 342 676.08h143.8c-20.8-8.85-37.7-31.9-52.8-50.68M289.8 379.16a25.19 25.19 0 0 0 24.58-25.78 25.192 25.192 0 0 0-24.56-25.8 25.19 25.19 0 0 0-24.58 25.78 25.192 25.192 0 0 0 24.56 25.8Zm-28.7 48.09a20.004 20.004 0 0 0 18.192-12.764 19.984 19.984 0 0 0 1.348-7.686 19.99 19.99 0 0 0-5.294-14.388A20.01 20.01 0 0 0 261.42 386h-.32a20 20 0 0 0-19.55 20.44v.32a20.007 20.007 0 0 0 5.528 14.275 20 20 0 0 0 14.002 6.185m11 19.85a15.268 15.268 0 0 0 9.427 14.108 15.276 15.276 0 0 0 8.822.869 15.278 15.278 0 0 0 11.998-11.998A15.274 15.274 0 0 0 287.35 431.8a15.27 15.27 0 0 0-15.27 15.27Z" fill="#fff"/></g><defs><clipPath id="a"><path fill="#fff" d="M0 0h1024v1024H0z"/></clipPath></defs></svg>