<svg width="1024" height="1024" fill="none" xmlns="http://www.w3.org/2000/svg"><g clip-path="url(#a)"><path d="M512 1024c282.77 0 512-229.23 512-512S794.77 0 512 0 0 229.23 0 512s229.23 512 512 512Z" fill="#728DBE"/><path d="M384 313.5 256 395l128 81.5L512 395l-128-81.5Zm256 0L512 395l128 81.5L768 395l-128-81.5ZM256 558.2l128 81.5 128-81.5-128-81.5-128 81.5Zm384-81.6-128 81.5 128 81.5 128-81.5-128-81.5ZM384 666.9l128 81.5 128-81.5-128-81.5-128 81.5Z" fill="#fff"/></g><defs><clipPath id="a"><path fill="#fff" d="M0 0h1024v1024H0z"/></clipPath></defs></svg>