<svg width="1024" height="1024" fill="none" xmlns="http://www.w3.org/2000/svg"><g clip-path="url(#a)"><path d="M512 1024c282.77 0 512-229.23 512-512S794.77 0 512 0 0 229.23 0 512s229.23 512 512 512Z" fill="#728DBE"/><path d="M594.19 354.17C557.46 317.46 522.42 282.47 512 243c-10.43 39.47-45.48 74.46-82.2 111.17-55.08 55-117.53 117.43-117.53 211-.05 110.31 89.33 199.78 199.64 199.83 110.31.05 199.78-89.33 199.83-199.64v-.18c0-93.56-62.45-156-117.54-211m-197 257.54c-12.25-.42-57.45-78.32 26.4-161.27l55.49 60.61a4.743 4.743 0 0 1-.37 7.08C465.44 531.71 409 588.3 402 607.87c-1.45 4-3.56 3.89-4.83 3.84M512 714.39a68.691 68.691 0 0 1-68.69-68.69 71.577 71.577 0 0 1 17.12-45.37c12.38-15.15 51.57-57.75 51.57-57.75s38.58 43.23 51.47 57.6a67.181 67.181 0 0 1 17.23 45.52 68.687 68.687 0 0 1-42.411 63.464A68.683 68.683 0 0 1 512 714.39ZM643.48 603c-1.48 3.24-4.84 8.64-9.37 8.81-8.08.29-8.94-3.85-14.92-12.68-13.11-19.4-127.54-139-148.94-162.12-18.83-20.34-2.65-34.68 4.85-42.2 9.41-9.43 36.89-36.89 36.89-36.89S593.92 435.64 628 488.76c34.08 53.12 22.42 99.07 15.48 114.24Z" fill="#fff"/></g><defs><clipPath id="a"><path fill="#fff" d="M0 0h1024v1024H0z"/></clipPath></defs></svg>