<svg width="1024" height="1024" fill="none" xmlns="http://www.w3.org/2000/svg"><g clip-path="url(#a)"><path d="M512 1024c282.77 0 512-229.23 512-512S794.77 0 512 0 0 229.23 0 512s229.23 512 512 512Z" fill="#9ABEFF"/><path d="m635.61 350.62 36.88-72-89.57 50.93c4.39-28.1 9.66-66.74 17.56-118.55-195.82 104.5-264.32 212.51-288 281.88-.88 2.63-1.76 4.39-2.63 7-12.32 40.42-8.85 66.76-8.85 66.76C303.68 680.8 396.76 773 511.79 773c116.79 0 211.63-94.84 211.63-210.75V350.62h-87.81ZM618 561.37c0 58-47.42 105.38-105.37 105.38S407.3 619.33 407.3 561.37c0-57.96 47.42-105.37 105.37-105.37H618v105.37Zm-156.31 0c0 27.22 22.83 50.05 50.05 50.05a49.99 49.99 0 0 0 35.405-14.645 50.006 50.006 0 0 0 14.645-35.405 50.006 50.006 0 0 0-30.889-46.254 50.01 50.01 0 0 0-19.161-3.796c-27.17 0-50 22.83-50 50.05h-.05Z" fill="#fff"/></g><defs><clipPath id="a"><path fill="#fff" d="M0 0h1024v1024H0z"/></clipPath></defs></svg>