<svg width="1024" height="1024" fill="none" xmlns="http://www.w3.org/2000/svg"><g clip-path="url(#a)"><path d="M512 1024c282.77 0 512-229.23 512-512S794.77 0 512 0 0 229.23 0 512s229.23 512 512 512Z" fill="#FF837D"/><path d="M256 512.09c.19 141.31 114.69 255.81 256 256a48.366 48.366 0 0 0 0-96.73c-87.84 0-159.27-71.43-159.27-159.27S424.16 352.81 512 352.81c70.92 0 131.25 46.65 151.75 110.91H512a48.366 48.366 0 0 0 0 96.73h207.64A48.433 48.433 0 0 0 768 512.09c-.19-141.33-114.67-255.89-256-256.17-141.16.17-256 115-256 256.17Z" fill="#fff"/></g><defs><clipPath id="a"><path fill="#fff" d="M0 0h1024v1024H0z"/></clipPath></defs></svg>