<svg width="1024" height="1024" fill="none" xmlns="http://www.w3.org/2000/svg"><g clip-path="url(#a)"><path d="M512 1024c282.77 0 512-229.23 512-512S794.77 0 512 0 0 229.23 0 512s229.23 512 512 512Z" fill="#979797"/><path d="M257 469.1c13.82 0 24.237 3.497 31.25 10.49 7.013 6.993 10.52 17.43 10.52 31.31v7.85h-81.54c.2 10.967 2.973 19.04 8.32 24.22s13.52 7.77 24.52 7.77h6.65c8.173 0 14.73-1.257 19.67-3.77a20.649 20.649 0 0 0 10.29-11.16h9.68a28.373 28.373 0 0 1-13 17.73c-6.667 4.067-15.443 6.103-26.33 6.11h-7.27c-13.82 0-24.237-3.497-31.25-10.49-7.013-6.993-10.517-17.433-10.51-31.32v-6.94c0-13.88 3.507-24.317 10.52-31.31 7.013-6.993 17.43-10.49 31.25-10.49H257Zm103.36 0c12.307 0 21.94 2.79 28.9 8.37 6.96 5.58 11.097 13.913 12.41 25h-9.23c-1.333-8.34-4.637-14.5-9.91-18.48-5.273-3.98-12.763-5.98-22.47-6h-6.66c-11.2 0-19.473 2.717-24.82 8.15-5.347 5.433-8.013 13.833-8 25.2v6c0 11.373 2.667 19.773 8 25.2s13.607 8.143 24.82 8.15h6.65c9.687 0 17.18-2 22.48-6 5.3-4 8.603-10.163 9.91-18.49h9.23c-1.333 11.067-5.47 19.4-12.41 25-6.94 5.6-16.573 8.39-28.9 8.37h-7.26c-13.827 0-24.243-3.497-31.25-10.49-7.007-6.993-10.513-17.43-10.52-31.31v-6.87c0-13.88 3.507-24.317 10.52-31.31 7.013-6.993 17.43-10.49 31.25-10.49h7.26Zm102.21 0c13.82 0 24.237 3.497 31.25 10.49 7.013 6.993 10.52 17.43 10.52 31.31v6.94c0 13.887-3.507 24.323-10.52 31.31-7.013 6.987-17.427 10.483-31.24 10.49h-7.26c-13.827 0-24.243-3.497-31.25-10.49-7.007-6.993-10.513-17.43-10.52-31.31v-6.94c0-13.88 3.507-24.317 10.52-31.31 7.013-6.993 17.43-10.49 31.25-10.49h7.26-.01Zm65-29.07v43a28.68 28.68 0 0 1 12.78-10.42c5.4-2.313 11.983-3.47 19.75-3.47h7.27c13.82 0 24.237 3.497 31.25 10.49 7.013 6.993 10.52 17.43 10.52 31.31v6.94c0 13.887-3.507 24.323-10.52 31.31-7.013 6.987-17.43 10.483-31.25 10.49h-7.27c-13.82 0-24.237-3.497-31.25-10.49-7.013-6.993-10.497-17.443-10.45-31.35V440l9.17.03Zm143.3 29.07c13.82 0 24.237 3.497 31.25 10.49 7.013 6.993 10.52 17.43 10.52 31.31v7.85h-81.56c.2 10.967 2.973 19.04 8.32 24.22s13.517 7.77 24.51 7.77h6.66c8.173 0 14.73-1.257 19.67-3.77a20.652 20.652 0 0 0 10.29-11.16h9.68a28.373 28.373 0 0 1-13 17.73c-6.667 4.067-15.447 6.103-26.34 6.11h-7.26c-13.827 0-24.243-3.497-31.25-10.49-7.007-6.993-10.513-17.43-10.52-31.31v-6.95c0-13.88 3.507-24.317 10.52-31.31 7.013-6.993 17.43-10.49 31.25-10.49h7.26Zm103.37 0c13.813 0 24.23 3.497 31.25 10.49s10.523 17.43 10.51 31.31v7.85h-81.56c.2 10.967 2.973 19.04 8.32 24.22s13.517 7.77 24.51 7.77h6.66c8.173 0 14.73-1.257 19.67-3.77a20.652 20.652 0 0 0 10.29-11.16h9.68a28.373 28.373 0 0 1-13 17.73c-6.667 4.073-15.443 6.11-26.33 6.11H767c-13.827 0-24.243-3.497-31.25-10.49-7.007-6.993-10.513-17.43-10.52-31.31v-6.95c0-13.88 3.507-24.317 10.52-31.31 7.013-6.993 17.43-10.49 31.25-10.49h7.24ZM462.31 478h-6.66c-11.2 0-19.473 2.717-24.82 8.15-5.347 5.433-8.013 13.833-8 25.2v6c0 11.373 2.667 19.773 8 25.2s13.607 8.143 24.82 8.15h6.66c11.193 0 19.467-2.717 24.82-8.15 5.353-5.433 8.02-13.833 8-25.2v-6c0-11.367-2.667-19.767-8-25.2S473.52 478 462.3 478h.01Zm104.82 0h-6.66c-11.193 0-19.467 2.717-24.82 8.15-5.353 5.433-8.02 13.833-8 25.2v6c0 11.373 2.667 19.773 8 25.2s13.607 8.143 24.82 8.15h6.65c11.2 0 19.473-2.717 24.82-8.15 5.347-5.433 8.013-13.833 8-25.2v-6c0-11.367-2.667-19.767-8-25.2S578.333 478 567.12 478h.01Zm-310.4 0h-6.66c-11 0-19.17 2.59-24.51 7.77s-8.113 13.203-8.32 24.07h72.33c-.2-10.867-2.973-18.89-8.32-24.07S267.727 478 256.72 478h.01Zm413.84 0h-6.65c-11 0-19.173 2.59-24.52 7.77-5.347 5.18-8.12 13.203-8.32 24.07h72.32c-.2-10.867-2.973-18.89-8.32-24.07S681.563 478 670.57 478Zm103.37 0h-6.66c-11 0-19.173 2.59-24.52 7.77-5.347 5.18-8.12 13.203-8.32 24.07h72.33c-.207-10.867-2.98-18.89-8.32-24.07S784.937 478 773.93 478h.01Z" fill="#fff"/></g><defs><clipPath id="a"><path fill="#fff" d="M0 0h1024v1024H0z"/></clipPath></defs></svg>