<svg width="1024" height="1024" fill="none" xmlns="http://www.w3.org/2000/svg"><g clip-path="url(#a)"><path d="M512 1024c282.77 0 512-229.23 512-512S794.77 0 512 0 0 229.23 0 512s229.23 512 512 512Z" fill="#FF837D"/><path d="M625.6 355.9 490.8 570.5H341.3l34.5-53.8h89.6l34.2-53.8H292.5l-34.2 53.8h49.1l-68.1 107.4h284.1l104.9-165.5 38.3 58.1h-34.5l-32.7 53.8h102.2l35.5 53.6h65.2L625.6 355.9Zm-45.1-.5H360.1l-33.4 53.8h220.2l33.6-53.8Z" fill="#fff"/></g><defs><clipPath id="a"><path fill="#fff" d="M0 0h1024v1024H0z"/></clipPath></defs></svg>