<svg width="1024" height="1024" fill="none" xmlns="http://www.w3.org/2000/svg"><g clip-path="url(#a)"><path d="M512 1024c282.77 0 512-229.23 512-512S794.77 0 512 0 0 229.23 0 512s229.23 512 512 512Z" fill="#FF837D"/><path d="M584 393c-.44 2.31-1 4.6-1.6 6.86l.12-.25a85.43 85.43 0 0 1-6.35 16.49c-.26.53-.54 1-.82 1.57l-.13.25a88.039 88.039 0 0 1-13.46 18.85l-.45.46a100.78 100.78 0 0 1-24.69 19.2l-.17.09c-.733.407-1.477.807-2.23 1.2l-1.47.76-.25.12a105.38 105.38 0 0 1-12.5 5.33 134.164 134.164 0 0 1-47.67 7.43 151.686 151.686 0 0 1-26.08-2.45c-1.4-.23-2.81-.48-4.22-.75a444.068 444.068 0 0 0-11.41-2c-26.82-4.44-56.24-7.06-83.61-6.46-9.88.267-19.74.963-29.58 2.09a180.37 180.37 0 0 0-25.7 5 131.566 131.566 0 0 0-23.28 9.53c-.4.21-.79.43-1.19.65a53.867 53.867 0 0 0-12.86 10.64 43.893 43.893 0 0 0-9.27 19.89 170.68 170.68 0 0 1-.14-4.51V494c0-.76 0-1.58.07-2.37s0-1.41.08-2.11.08-1.66.13-2.48c0-.65.07-1.31.12-2 .06-.86.12-1.73.19-2.59 0-.61.1-1.22.15-1.83.08-.9.167-1.797.26-2.69l.18-1.71c.1-.933.21-1.863.33-2.79l.2-1.56c.127-.973.26-1.947.4-2.92l.21-1.38c.16-1.027.323-2.05.49-3.07.06-.38.13-.76.2-1.14.19-1.1.39-2.19.6-3.29l.16-.79c.24-1.21.48-2.41.74-3.61l.05-.23a205.13 205.13 0 0 1 41.21-86l-.66.93a232.341 232.341 0 0 1 93.9-69.73 199.782 199.782 0 0 1 109.06-13.84 20.13 20.13 0 0 1 10.34-9.56 11.578 11.578 0 0 0 6.69-7.54A20.068 20.068 0 0 1 521 257.89a11.498 11.498 0 0 0 5.83-5.75c3.73-7.93 13.29-17.1 20.6-13.21 6.14 3.34 3.11 12.36.78 17.57a11.578 11.578 0 0 0-.93 7.15 13.372 13.372 0 0 1-2.57 11.12 11.823 11.823 0 0 0-2 10.42 14.004 14.004 0 0 1-3.34 14.15A11.573 11.573 0 0 0 537 303a107.201 107.201 0 0 1 40.89 44.46A72.528 72.528 0 0 1 584 393Zm-231.61 73.08c-9.88.267-19.74.963-29.58 2.09a180.37 180.37 0 0 0-25.7 5 131.566 131.566 0 0 0-23.28 9.53c-.4.21-.79.43-1.19.65A53.865 53.865 0 0 0 259.78 494a43.893 43.893 0 0 0-9.27 19.89c-.16 31 27.6 39.49 41.28 12.28C314.52 480.81 371 462.35 436 472.55c-26.82-4.44-56.24-7.06-83.61-6.47ZM618 413.76l.8-1.31a339.674 339.674 0 0 0 21.15-40.91c.27-.58.52-1.17.78-1.76a182.238 182.238 0 0 0 6.95-20 131.558 131.558 0 0 0 4.08-27.78c0-.73.05-1.45.06-2.17a53.663 53.663 0 0 0-2.62-15.19 43.828 43.828 0 0 0-12.75-18.4l.2.11-.13-.11c-26.74-15.55-48 4.2-31.25 29.62 27.33 41.68 15.94 98.41-23.64 148.9a499.262 499.262 0 0 0 28.53-38.83c2.707-3.993 5.32-8.05 7.84-12.17Zm140.6 81.77h.08c28.3-22.08 24.64-34.67-3.89-37.62a225.439 225.439 0 0 0-17.88-72 204.991 204.991 0 0 0-50.81-70.35l-.94-.83c-.76-.68-1.53-1.35-2.3-2l-1.66-1.4-1.61-1.33c-.727-.6-1.46-1.197-2.2-1.79l-1.09-.87a137.835 137.835 0 0 0-2.69-2.09l-.61-.47a284.98 284.98 0 0 0-3.16-2.36l-.12-.09a204.99 204.99 0 0 0-25.78-16l.13.11-.2-.11a43.828 43.828 0 0 1 12.75 18.4 53.663 53.663 0 0 1 2.62 15.19c0 .72 0 1.45-.06 2.17a131.553 131.553 0 0 1-4.09 27.73 182.238 182.238 0 0 1-6.95 20c-.26.59-.51 1.17-.78 1.76a339.674 339.674 0 0 1-21.15 40.91l-.8 1.31a344.193 344.193 0 0 1-7.82 12.2 497.67 497.67 0 0 1-28.53 38.83 527.82 527.82 0 0 1-9.79 11.7A151.733 151.733 0 0 0 556 510.76a133.909 133.909 0 0 0-10 25.87c-.27.94-.54 1.87-.78 2.81a105.472 105.472 0 0 0-2.22 40.14c0 .36.1.72.15 1.08.08.52.15 1 .23 1.57.153.947.317 1.887.49 2.82.07.34.14.68.2 1 .127.633.26 1.263.4 1.89.58 2.63 1.24 5.25 2 7.84A88.075 88.075 0 0 0 573.2 637a72.531 72.531 0 0 0 42.6 17.49 112.556 112.556 0 0 0 92.27-40.11 159.02 159.02 0 0 0 16.25-21.77 15.703 15.703 0 0 1 5.29-5.13c49.52-29.54 55.5-45.86 23.94-48.82 43.99-28.13 43.53-42.52 5.05-43.14v.01ZM628.85 691.34c-49.78 3-93.46-35.09-117.55-94.62l.22.57.31.8c.847 2.18 1.71 4.353 2.59 6.52l.36.88c.9 2.207 1.817 4.407 2.75 6.6l.15.36A513.779 513.779 0 0 0 530.9 641l.12.24c4 7.91 8.21 15.66 12.6 23.12a339.588 339.588 0 0 0 19.69 29.49l.48.66a178.095 178.095 0 0 0 16.85 19.09 131.46 131.46 0 0 0 19.67 15.15l.43.26a52.918 52.918 0 0 0 18.48 6.52 43.818 43.818 0 0 0 18.51-1.88l1.23-.48v.08c26.89-15.56 20.28-43.78-10.11-41.91Zm5.7 50.77A43.813 43.813 0 0 1 616 744a52.918 52.918 0 0 1-18.48-6.52l-.43-.26A131.49 131.49 0 0 1 577.47 722a178.005 178.005 0 0 1-16.85-19l-.48-.66a339.588 339.588 0 0 1-19.69-29.49c-4.39-7.45-8.6-15.21-12.6-23.12l-.12-.24a474.56 474.56 0 0 1-13.21-28.51l-.15-.36a475.395 475.395 0 0 1-2.75-6.6l-.36-.88c-.88-2.167-1.743-4.34-2.59-6.52l-.31-.8-.22-.57c-.82-2.12-1.627-4.247-2.42-6.38l-.11-.3a460.766 460.766 0 0 1-2.66-7.37c-.48-1.37-1-2.71-1.48-4 16.87-12.51 22.85-22.46 17.49-29.38-4.59-5.83-17.41-9.48-38.94-10.65l-.19-.24a152.959 152.959 0 0 0-2.44-3.16 129.508 129.508 0 0 0-12.15-13.39 105.502 105.502 0 0 0-26.79-18.8 98.89 98.89 0 0 0-25.14-8.61 88.05 88.05 0 0 0-17.53-1.73h-2.02a85.808 85.808 0 0 0-20.63 2.92h.3c-2.25.59-4.47 1.27-6.68 2a72.535 72.535 0 0 0-36.38 28.14 110.681 110.681 0 0 0-14 90.56c-12.59 17.33-17.88 29.62-16.17 36.85 1.94 8.55 13.53 10.11 34 4.9a214.145 214.145 0 0 0 53 58.84 232.343 232.343 0 0 0 106.52 46.05h-.28l1.38.2 1.94.28 1.59.23c1.6.22 3.2.43 4.81.61a205.051 205.051 0 0 0 103.73-15.74l.11-.08c1.333-.58 2.667-1.173 4-1.78l.35-.16c1.253-.58 2.503-1.173 3.75-1.78l.48-.23c1.2-.587 2.393-1.187 3.58-1.8l.58-.3c1.16-.6 2.317-1.213 3.47-1.84l.63-.34c1.14-.627 2.277-1.263 3.41-1.91l.62-.35c1.153-.667 2.3-1.333 3.44-2l.54-.32c1.333-.8 2.64-1.613 3.92-2.44-.4.1-.77.25-1.22.36Z" fill="#fff"/></g><defs><clipPath id="a"><path fill="#fff" d="M0 0h1024v1024H0z"/></clipPath></defs></svg>