<svg width="1024" height="1024" viewBox="0 0 1024 1024" fill="none" xmlns="http://www.w3.org/2000/svg">
<g clip-path="url(#clip0_2_2091)">
<path d="M512 1024C794.77 1024 1024 794.77 1024 512C1024 229.23 794.77 0 512 0C229.23 0 0 229.23 0 512C0 794.77 229.23 1024 512 1024Z" fill="#56595B"/>
<path d="M331.1 451.34C320.61 445.68 308.8 442.85 295.65 442.85C282.5 442.85 269.77 445.85 258.95 451.84C248.13 457.66 239.56 465.82 233.24 476.31C227.08 486.63 224 498.53 224 512.01C224 525.49 227.16 537.22 233.49 547.71C239.81 558.03 248.72 566.18 260.2 572.18C271.85 578.17 285.33 581.17 300.64 581.17C312.79 581.17 323.52 579.34 332.84 575.68C342.16 571.85 349.9 566.44 356.06 559.45L335.34 536.98C330.85 541.31 325.85 544.55 320.36 546.72C315.03 548.88 308.79 549.97 301.64 549.97C293.65 549.97 286.66 548.56 280.67 545.73C274.84 542.73 270.27 538.49 266.94 533C265.22 529.92 263.98 526.59 263.2 523.01H364.8C364.97 521.35 365.13 519.6 365.3 517.77C365.47 515.77 365.55 514.03 365.55 512.53C365.55 498.05 362.47 485.65 356.31 475.33C350.15 464.84 341.75 456.86 331.1 451.36V451.34ZM278.17 476.8C283.33 473.8 289.24 472.31 295.9 472.31C302.56 472.31 308.38 473.81 313.38 476.8C318.37 479.63 322.28 483.62 325.11 488.78C326.99 492.2 328.23 496.04 328.86 500.26H262.74C263.39 496.1 264.62 492.35 266.44 489.03C269.27 483.7 273.18 479.63 278.17 476.8ZM521.54 468.81C526.37 477.46 528.78 488.62 528.78 502.26V579.15H489.83V508.25C489.83 497.43 487.42 489.44 482.59 484.28C477.93 479.12 471.27 476.54 462.62 476.54C456.46 476.54 450.89 477.87 445.89 480.53C441.06 483.03 437.24 486.94 434.41 492.26C431.75 497.59 430.42 504.41 430.42 512.73V579.14H391.47V444.83H428.67V460.82C432.53 456.52 437.09 452.92 442.4 450.07C451.39 445.24 461.62 442.83 473.11 442.83C483.76 442.83 493.25 444.99 501.57 449.32C510.06 453.48 516.71 459.97 521.54 468.79V468.81ZM640.22 545.2L650.71 572.66C646.72 575.49 641.89 577.65 636.23 579.15C630.74 580.48 625 581.15 619 581.15C603.19 581.15 590.87 577.16 582.05 569.17C573.23 561.01 568.82 548.95 568.82 532.97V477.8H548.1V447.84H568.82V415.14H607.77V447.84H641.22V477.8H607.77V532.47C607.77 538.13 609.27 542.54 612.26 545.7C615.26 548.7 619.33 550.19 624.49 550.19C630.65 550.19 635.89 548.53 640.22 545.2ZM790.75 475.3C784.59 464.81 776.19 456.83 765.54 451.33C755.05 445.67 743.24 442.84 730.09 442.84C716.94 442.84 704.21 445.84 693.39 451.83C682.57 457.65 674 465.81 667.68 476.3C661.52 486.62 658.44 498.52 658.44 512C658.44 525.48 661.6 537.21 667.93 547.7C674.25 558.02 683.16 566.17 694.64 572.17C706.29 578.16 719.77 581.16 735.08 581.16C747.23 581.16 757.96 579.33 767.28 575.67C776.6 571.84 784.34 566.43 790.5 559.44L769.78 536.97C765.29 541.3 760.29 544.54 754.8 546.71C749.47 548.87 743.23 549.96 736.08 549.96C728.09 549.96 721.1 548.55 715.11 545.72C709.28 542.72 704.71 538.48 701.38 532.99C699.66 529.91 698.42 526.58 697.64 523H799.24C799.41 521.34 799.57 519.59 799.74 517.76C799.91 515.76 799.99 514.02 799.99 512.52C799.99 498.04 796.91 485.64 790.75 475.32V475.3ZM712.61 476.8C717.77 473.8 723.68 472.31 730.34 472.31C737 472.31 742.82 473.81 747.82 476.8C752.81 479.63 756.72 483.62 759.55 488.78C761.43 492.2 762.67 496.04 763.3 500.26H697.18C697.83 496.1 699.06 492.35 700.88 489.03C703.71 483.7 707.62 479.63 712.61 476.8Z" fill="white"/>
</g>
<defs>
<clipPath id="clip0_2_2091">
<rect width="1024" height="1024" fill="white"/>
</clipPath>
</defs>
</svg>
