<svg width="1024" height="1024" fill="none" xmlns="http://www.w3.org/2000/svg"><g clip-path="url(#a)"><path d="M512 1024c282.77 0 512-229.23 512-512S794.77 0 512 0 0 229.23 0 512s229.23 512 512 512Z" fill="#98DC9A"/><path d="M683.69 278.25c-70.62-82.87-299.22 77.68-297.86 284.4a9.632 9.632 0 0 1-13.218 8.943 9.63 9.63 0 0 1-4.682-4.003 220.35 220.35 0 0 1-8.58-162.78 8.996 8.996 0 0 0-3.953-11.019A8.999 8.999 0 0 0 343.9 396a220.573 220.573 0 0 0-58.65 150.11c0 145.48 120.5 224.15 221.62 221.86 311.89-7.13 239.78-415.81 176.82-489.72Z" fill="#fff"/></g><defs><clipPath id="a"><path fill="#fff" d="M0 0h1024v1024H0z"/></clipPath></defs></svg>