<svg width="1024" height="1024" fill="none" xmlns="http://www.w3.org/2000/svg"><g clip-path="url(#a)"><path d="M512 1024c282.77 0 512-229.23 512-512S794.77 0 512 0 0 229.23 0 512s229.23 512 512 512Z" fill="#FF837D"/><path d="m511.24 319.05-57.73 21.27v309.93l-39.5-13.67V354L295.5 395.01v199.03L256 580.37V408.69l-39.5 13.67v186.87L335 650.25V422.36l39.5-13.67v255.24l116.99 41.02V367.67l19.75-7.6 19.75 7.6v337.28l118.51-41.02V408.69l39.5 13.67v227.89l118.5-41.02V422.36L768 408.69v171.68l-39.5 13.67V395.01L609.99 354v282.58l-39.5 13.67V340.32l-59.25-21.27Z" fill="#fff"/></g><defs><clipPath id="a"><path fill="#fff" d="M0 0h1024v1024H0z"/></clipPath></defs></svg>