<svg width="1024" height="1024" viewBox="0 0 1024 1024" fill="none" xmlns="http://www.w3.org/2000/svg">
<g clip-path="url(#clip0_2_2100)">
<path d="M512 1024C794.77 1024 1024 794.77 1024 512C1024 229.23 794.77 0 512 0C229.23 0 0 229.23 0 512C0 794.77 229.23 1024 512 1024Z" fill="#FF837D"/>
<path d="M511.24 319.05L453.51 340.32V650.25L414.01 636.58V354L295.5 395.01V594.04L256 580.37V408.69L216.5 422.36V609.23L335 650.25V422.36L374.5 408.69V663.93L491.49 704.95V367.67L511.24 360.07L530.99 367.67V704.95L649.5 663.93V408.69L689 422.36V650.25L807.5 609.23V422.36L768 408.69V580.37L728.5 594.04V395.01L609.99 354V636.58L570.49 650.25V340.32L511.24 319.05Z" fill="white"/>
</g>
<defs>
<clipPath id="clip0_2_2100">
<rect width="1024" height="1024" fill="white"/>
</clipPath>
</defs>
</svg>
