<svg width="1024" height="1024" fill="none" xmlns="http://www.w3.org/2000/svg"><g clip-path="url(#a)"><path d="M512 1024c282.77 0 512-229.23 512-512S794.77 0 512 0 0 229.23 0 512s229.23 512 512 512Z" fill="#71A372"/><path d="m585.95 274.94-121.6 160.8L251 439l139 106.51-114.15 164L478.21 612l136.11 103V545.51L823 442.46l-411.25 95.85c18.62-19.813 31.247-35.343 37.88-46.59 6.633-11.246 11.533-25.436 14.7-42.57l133.28-3.58-11.66-170.63Z" fill="#fff"/></g><defs><clipPath id="a"><path fill="#fff" d="M0 0h1024v1024H0z"/></clipPath></defs></svg>