<svg width="1024" height="1024" viewBox="0 0 1024 1024" fill="none" xmlns="http://www.w3.org/2000/svg">
<g clip-path="url(#clip0_2_2103)">
<path d="M512 1024C794.77 1024 1024 794.77 1024 512C1024 229.23 794.77 0 512 0C229.23 0 0 229.23 0 512C0 794.77 229.23 1024 512 1024Z" fill="#71A372"/>
<path d="M585.95 274.94L464.35 435.74L251 439L390 545.51L275.85 709.51L478.21 612L614.32 715V545.51L823 442.46L411.75 538.31C430.37 518.497 442.997 502.967 449.63 491.72C456.263 480.474 461.163 466.284 464.33 449.15L597.61 445.57L585.95 274.94Z" fill="white"/>
</g>
<defs>
<clipPath id="clip0_2_2103">
<rect width="1024" height="1024" fill="white"/>
</clipPath>
</defs>
</svg>
