<svg width="1024" height="1024" viewBox="0 0 1024 1024" fill="none" xmlns="http://www.w3.org/2000/svg">
<g clip-path="url(#clip0_2_2112)">
<path d="M512 1024C794.77 1024 1024 794.77 1024 512C1024 229.23 794.77 0 512 0C229.23 0 0 229.23 0 512C0 794.77 229.23 1024 512 1024Z" fill="#F8C18C"/>
<path d="M272.42 487.83V406.06C272.42 403.06 272.72 401.21 277.87 401.21H347.22C359.34 401.21 366 411.51 370.85 430.89L374.79 446.34H386.6C388.72 402.43 390.53 383.34 390.53 383.34C390.53 383.34 360.85 386.67 343.29 386.67H254.55L207 385.17V397.89L223.05 400.89C234.26 403.01 236.98 405.43 237.89 415.73C237.89 415.73 238.8 446.01 238.8 495.99C238.8 545.97 237.89 575.99 237.89 575.99C237.89 585.07 234.25 588.4 223.05 590.53L207 593.53V606.24L254.55 604.73H333.9C351.77 604.73 393.26 606.24 393.26 606.24C394.17 595.34 400.26 545.97 401.14 540.53H389.93L378.12 567.53C368.73 588.72 355.12 590.24 339.96 590.24H294.83C279.69 590.24 272.42 584.18 272.42 571.16V502.07C272.42 502.07 305.42 502.07 316.94 502.98C325.42 503.59 330.57 505.98 333.3 517.82L336.94 533.57H349.94L349 493.89L350.82 453.89H337.82L333.58 471.45C330.85 482.96 329.04 485.08 317.22 486.29C303.9 487.81 272.4 487.5 272.4 487.5V487.8L272.42 487.83ZM452 414.55C447.76 433.33 443.52 447.86 428.68 457.55C419.6 463.6 410.51 465.72 406.88 466.03V477.54H433.88V570.54C433.88 596.54 451.15 609.31 474.16 609.31C492.03 609.31 510.5 601.74 516.86 585.99L510.5 577.81C507.5 582.96 497.79 590.53 485.67 590.53C472.35 590.53 465.08 581.44 465.08 558.43V476.33L509.91 479.66L512.33 459.06L465 460.88V414.88L452 414.58V414.55ZM547.7 557.55L536.19 557.85C536.79 564.51 537.1 572.99 537.1 580.85C537.1 589.03 536.8 596.6 536.19 600.23C536.19 600.23 559.19 608.7 582.53 608.7C614.03 608.7 639.16 593.56 639.16 563.88C639.16 513.01 562.84 520.58 562.84 486.35C562.84 472.12 575.56 466.67 589.49 466.67C600.39 466.67 609.49 470.61 611.29 476.37L618.86 499.08L630.07 498.48C630.98 486.36 631.58 472.48 633.4 461.23C623.71 456.99 603.4 454.56 590.7 454.56C561.01 454.56 537.09 467.56 537.09 496.66C537.09 547.23 611.59 536.94 611.59 574.19C611.59 587.51 603.41 596.9 584.94 596.9C567.94 596.9 559.5 588.12 556.18 579.33L547.69 557.53L547.7 557.55ZM730.23 592.55C712.7 641.55 691.23 654.21 671.89 654.21C663.72 654.21 659.8 650.58 658.58 644.85L654.05 621.26L641.35 621.86C638.93 635.77 636.51 651.19 633.19 663.86C640.75 669.6 653.44 672.63 663.42 672.63C684.28 672.63 716.02 669.9 745.04 600.98L793.71 486.11C797.64 476.74 799.15 475.83 810.64 471.29L817 468.9V458.32L788.28 459.83L757.45 458.32V468.9L765.31 471.31C773.17 473.73 776.8 476.75 776.8 482.2C776.8 484.92 775.89 487.64 774.37 491.87C769.84 503.37 741.72 571.68 734.17 586.19L741.72 583.46C728.42 550.51 708.17 495.46 705.15 486.13C704.582 484.574 704.275 482.936 704.24 481.28C704.24 476.45 707.56 472.51 714.82 471L724.82 468.89V458.32L683.4 459.83L650.45 458.32V468.9L655.89 470.71C663.45 473.13 665.26 475.25 669.8 485.83C694.88 543.27 706.68 574.7 722.69 615.83L730.26 592.55H730.23Z" fill="white"/>
</g>
<defs>
<clipPath id="clip0_2_2112">
<rect width="1024" height="1024" fill="white"/>
</clipPath>
</defs>
</svg>
