<svg width="1024" height="1024" viewBox="0 0 1024 1024" fill="none" xmlns="http://www.w3.org/2000/svg">
<g clip-path="url(#clip0_2_2115)">
<path d="M512 1024C794.77 1024 1024 794.77 1024 512C1024 229.23 794.77 0 512 0C229.23 0 0 229.23 0 512C0 794.77 229.23 1024 512 1024Z" fill="#9ABEFF"/>
<path d="M241.96 490.43H230.72V479.29C230.72 470.98 231.04 465.79 231.67 463.72C232.31 461.66 233.96 460.65 236.62 460.72C239.48 460.79 241.23 463.39 241.86 468.54C241.92 469.17 241.96 472.76 241.96 479.3V490.44V490.43ZM261.48 441.29C254.31 436.28 245.41 433.8 234.81 433.86C225.79 433.92 217.92 435.99 211.2 440.05C210.6 440.41 210.06 440.8 209.5 441.19C209.49 441.2 209.47 441.21 209.45 441.22C209.43 441.24 209.4 441.25 209.37 441.27C208.83 441.64 208.32 442.06 207.81 442.46C201.95 447.04 197.76 453.37 195.29 461.57C193.26 468.31 192.24 477.41 192.24 488.9V533.19C192.24 541.16 192.76 548.23 193.79 554.39C195.27 563.25 197.8 570.25 201.39 575.38C208.75 585.92 220.78 591.12 237.48 590.99C252.34 590.93 263.39 585.95 270.62 576.05C274.88 570.2 277.7 563.86 279.09 557C280.05 552.3 280.52 545.35 280.52 536.14V524.9H244.04V544.91C244.04 552.47 243.53 557.57 242.52 560.24C241.5 562.9 239.57 564.2 236.7 564.14C233.53 564.07 231.6 561.95 230.89 557.76C230.76 556.93 230.7 553.63 230.7 547.85V515.08H280.51V494.99C280.51 482.42 279.52 472.55 277.56 465.37C274.7 454.84 269.33 446.8 261.46 441.28L261.48 441.29ZM339.15 538.62C339.15 534.05 339.28 537.01 339.53 547.48C339.65 552.31 339.37 556.05 338.67 558.72C337.65 562.41 335.84 564.21 333.24 564.15C329.8 564.09 327.8 560.93 327.24 554.77C327.36 555.07 327.43 550.08 327.43 539.76V436.62H288.95V538.9C288.95 552.42 289.17 561.13 289.62 565C290.13 569.57 291.26 573.86 293.04 577.86C296.97 586.75 304.57 591.13 315.8 591C326.02 590.88 333.8 585.77 339.13 575.67L338.46 588.24H377.61V436.62H339.13V538.61L339.15 538.62ZM461.29 441.2C461.77 440.85 462.27 440.53 462.77 440.21C463.01 440.05 463.24 439.89 463.49 439.73C463.82 439.52 464.18 439.34 464.53 439.14L464.62 438.98C437.36 423.66 424.46 449.64 424.46 449.64V436.64H385.98V588.26H424.46V512.1C424.46 475.11 446.08 475.11 446.08 475.11C446.49 470.8 447.07 467.11 447.83 464.07C450.37 453.85 453.85 446.67 461.29 441.21V441.2ZM728.77 439.11C724.43 435.55 719.13 433.81 712.91 433.87C702.12 433.93 694.06 439.49 688.72 450.54L689.39 436.64H650.25V588.26H688.73V485.78C688.73 474.3 689.09 467.24 689.82 464.6C690.55 461.96 692.25 460.67 694.92 460.74C698.24 460.8 700.16 463.91 700.7 470.04C700.58 469.39 700.52 473.78 700.52 483.22V588.27H738.99V481.98C738.99 468.84 738.4 459.38 737.18 453.61C735.92 447.51 733.11 442.69 728.75 439.13L728.77 439.11ZM804.51 498.82C796.01 493.8 790.41 489.96 787.75 487.29C785.08 484.62 783.43 482.05 782.8 479.57C782.36 477.92 782.16 474.78 782.23 470.14C782.29 463.29 784.45 459.86 788.7 459.86C791.43 459.86 793.08 460.81 793.65 462.72C794.35 464.37 794.69 468.78 794.69 475.96V484.15H828.79V475.39C828.79 468.22 828.53 463.2 828.02 460.34C827.14 455.39 825.14 450.88 822.03 446.82C814.85 437.49 803.23 432.89 787.18 433.01C778.48 433.08 771.05 434.62 764.89 437.67C757.59 441.29 752.64 446.95 750.03 454.63C748.26 459.9 747.36 467.61 747.36 477.76C747.36 488.56 749.11 496.94 752.6 502.9C755.9 508.43 762.28 514.33 771.74 520.62C785.13 529.57 792.59 535.02 794.08 536.96C795.58 538.9 796.29 543.39 796.22 550.44C796.15 555.97 795.62 559.46 794.6 560.92C793.45 562.58 791.55 563.37 788.88 563.31C785.51 563.25 783.45 560.61 782.69 555.4C782.56 554.45 782.5 550.58 782.5 543.78V534.16H748.4V541.5C748.4 554.2 749.71 563.62 752.31 569.78C758.02 583.37 771.16 590.17 791.74 590.17C800.56 590.17 808.09 588.45 814.3 585.02C821.54 581.02 826.46 574.93 829.07 566.74C830.91 561.03 831.8 552.99 831.74 542.64C831.68 531.14 829.64 522.35 825.64 516.25C822.08 510.85 815.04 505.05 804.5 498.83L804.51 498.82ZM601.75 539.48C601.75 549.96 601.07 556.31 599.7 558.53C598.33 560.75 594.79 561.86 589.08 561.86V460.43C593.4 460.43 596.38 460.91 598.03 461.86C599.68 462.82 600.7 464.21 601.08 466.05C601.53 468.08 601.75 472.59 601.75 479.57V539.48ZM633.75 445.38C628.92 439.86 620.25 436.37 607.75 434.91C603.05 434.34 593.46 434.06 578.99 434.06H548.99V588.25H599.55C609.59 588.25 616.76 587.74 621.08 586.73C631.17 584.38 637.42 578.85 639.84 570.16C641.17 565.34 641.83 556.1 641.83 542.45V488.44C641.83 476 641.71 468.52 641.46 465.97C640.51 457.09 637.94 450.22 633.75 445.39V445.38ZM501.93 548.33C501.93 553.55 501.83 556.71 501.64 557.86C500.94 562.11 499.16 564.21 496.31 564.15C493.38 564.08 491.6 561.74 490.97 557.1C490.78 555.96 490.68 552.56 490.68 546.91V478.42C490.68 472.2 490.75 468.71 490.88 467.94C491.51 463.05 493.36 460.64 496.41 460.7C499.46 460.77 501.27 463.18 501.83 467.94C501.89 468.26 501.93 471.76 501.93 478.42V548.33ZM517.25 438.52C510.71 435.35 503.31 433.79 495.07 433.86C486.28 433.91 478.9 435.69 472.88 439.13C472.53 439.33 472.18 439.51 471.83 439.72C471.59 439.88 471.36 440.04 471.12 440.2C470.62 440.52 470.12 440.83 469.64 441.19C462.21 446.66 457.22 454.5 454.68 464.72C453.91 467.75 453.33 471.45 452.92 475.75C452.89 476.05 452.87 476.38 452.85 476.69C452.43 481.47 452.21 486.93 452.21 493.18V532.04C452.21 554.01 455.22 569.16 461.26 577.47C467.93 586.61 479.74 591.12 496.69 590.99C500.37 590.99 503.93 590.65 507.36 589.94C517.9 587.91 525.89 582.9 531.35 574.9C535.55 568.74 538.24 561.03 539.45 551.75C540.08 546.99 540.4 538.74 540.4 526.99V489.85C540.4 479.44 539.76 471.5 538.49 466.04C535.51 453.09 528.43 443.91 517.25 438.51V438.52Z" fill="white"/>
</g>
<defs>
<clipPath id="clip0_2_2115">
<rect width="1024" height="1024" fill="white"/>
</clipPath>
</defs>
</svg>
