<svg width="1024" height="1024" viewBox="0 0 1024 1024" fill="none" xmlns="http://www.w3.org/2000/svg">
<g clip-path="url(#clip0_2_2121)">
<path d="M512 1024C794.77 1024 1024 794.77 1024 512C1024 229.23 794.77 0 512 0C229.23 0 0 229.23 0 512C0 794.77 229.23 1024 512 1024Z" fill="#FF837D"/>
<path d="M242.34 472H143.42V501.59H256V472H242.34ZM241.15 523.09H143.42V552.68H256V523.08L241.15 523.09ZM639 549H594.64C587.24 549 582.85 545.07 582.85 537.9C582.85 530.73 587.24 526.81 594.64 526.81H639V549ZM618.45 446.34H559.25V475.93H616.6C634.14 475.93 638.88 482.67 639.02 498.12H593.25C566.25 498.12 551.41 511.99 551.41 537.88C551.41 563.54 566.2 577.64 593.25 577.64H670.92V497C670.92 462.78 657.97 446.37 618.45 446.37V446.34ZM784.75 548H747.54C727.42 548 720 538.34 720 512C720 485.66 727.4 475.94 747.51 475.94H790.06V446.34H744.3C703.39 446.34 687.67 466.68 687.67 511.99C687.67 557.3 703.39 577.64 744.3 577.64H790.53V548H784.76H784.75ZM379.75 548H344.75C328.03 548 320.27 542.08 318.12 527.2H387.96V497.72H318C320 482.3 327.72 475.99 344.75 475.99H397.46V446.34H341.48C300.56 446.34 284.85 466.68 284.85 511.99C284.85 557.3 300.56 577.64 341.48 577.64H397.88V548H379.75ZM874.81 548H849.13C842.89 548 839.19 543.61 839.19 535.75V475.92H877.8V446.34H839.19V421.34H807.3V538.11C807.3 565.16 820.01 577.64 846.37 577.64H880.59V548H874.81ZM543.49 571.63L496.8 510L540.49 452.34L545.04 446.34H507.57L504.42 450.5L478.07 485.28L451.71 450.5L448.56 446.34H409.71L458.64 510.92L408.09 577.64H445.55L448.7 573.48L477.36 535.65L506 573.47L509.15 577.63H548L543.49 571.63Z" fill="white"/>
</g>
<defs>
<clipPath id="clip0_2_2121">
<rect width="1024" height="1024" fill="white"/>
</clipPath>
</defs>
</svg>
