<svg width="1024" height="1024" fill="none" xmlns="http://www.w3.org/2000/svg"><g clip-path="url(#a)"><path d="M512 1024c282.77 0 512-229.23 512-512S794.77 0 512 0 0 229.23 0 512s229.23 512 512 512Z" fill="#98DC9A"/><path d="M773.38 439.94a19.86 19.86 0 0 0 5.818-14.04 19.854 19.854 0 0 0-5.818-14.04l-162-162a19.833 19.833 0 0 0-14.04-5.818 19.854 19.854 0 0 0-14.04 5.818l-58 58a19.854 19.854 0 0 1-28.08 0l-57.56-57.76a19.833 19.833 0 0 0-14.04-5.818 19.854 19.854 0 0 0-14.04 5.818l-161.77 162a19.849 19.849 0 0 0 0 28.08l58 58a19.849 19.849 0 0 1 0 28.08l-58 57.49a19.849 19.849 0 0 0 0 28.08l162 162a19.854 19.854 0 0 0 28.08 0l58-58a19.833 19.833 0 0 1 14.04-5.818 19.854 19.854 0 0 1 14.04 5.818l58 58a19.854 19.854 0 0 0 28.08 0l162-162a19.86 19.86 0 0 0 5.818-14.04 19.854 19.854 0 0 0-5.818-14.04l-58-58a19.854 19.854 0 0 1 0-28.08L773.38 440v-.06ZM656.53 543.68c0 62.3-50.8 113.1-113.1 113.1h-63.64c-62.3 0-113.1-50.8-113.1-113.1V480c0-62.3 50.8-113.1 113.1-113.1h63.64c62.3 0 113.1 50.8 113.1 113.1v63.68Z" fill="#fff"/></g><defs><clipPath id="a"><path fill="#fff" d="M0 0h1024v1024H0z"/></clipPath></defs></svg>