<svg width="1024" height="1024" fill="none" xmlns="http://www.w3.org/2000/svg"><g clip-path="url(#a)"><path d="M512 1024c282.77 0 512-229.23 512-512S794.77 0 512 0 0 229.23 0 512s229.23 512 512 512Z" fill="#FF837D"/><path d="M389.1 717.9c-57.5 0-94.2-32.3-94.2-77.2 0-14.8 4.4-32.8 21.4-69.5H256l55.3-118.3h385c8.8 0 14.8-6.6 14.8-14.2 0-7.7-6-14.2-14.8-14.2H384.7l27.4-58.6c17-36.1 53.7-59.7 93.6-59.7h130.9c75.6 0 131.4 52 131.4 119.9 0 80.5-73.9 145.1-159.3 145.1h-253c-7.7 15.9 1.1 28.5 19.7 28.5h201.5c33.4 0 59.1 23.5 59.1 53.7 0 34.5-33.4 64.6-71.2 64.6H389.1v-.1Z" fill="#fff"/></g><defs><clipPath id="a"><path fill="#fff" d="M0 0h1024v1024H0z"/></clipPath></defs></svg>