<svg width="1024" height="1024" viewBox="0 0 1024 1024" fill="none" xmlns="http://www.w3.org/2000/svg">
<g clip-path="url(#clip0_2_2142)">
<path d="M512 1024C794.77 1024 1024 794.77 1024 512C1024 229.23 794.77 0 512 0C229.23 0 0 229.23 0 512C0 794.77 229.23 1024 512 1024Z" fill="#9ABEFF"/>
<path d="M552 766.4V587.6H611.7L623.1 513.6H552.1V465.6C552.1 445.4 562 425.6 593.8 425.6H626V362.6C626 362.6 596.7 357.6 568.7 357.6C510.2 357.6 472 393 472 457.2V513.6H407V587.6H472V766.5C349.6 747.3 256 641.4 256 513.6C256 372.2 370.6 257.6 512 257.6C653.4 257.6 768 372.2 768 513.6C768 641.3 674.4 747.2 552 766.4Z" fill="white"/>
</g>
<defs>
<clipPath id="clip0_2_2142">
<rect width="1024" height="1024" fill="white"/>
</clipPath>
</defs>
</svg>
