<svg width="1024" height="1024" fill="none" xmlns="http://www.w3.org/2000/svg"><g clip-path="url(#a)"><path d="M512 1024c282.77 0 512-229.23 512-512S794.77 0 512 0 0 229.23 0 512s229.23 512 512 512Z" fill="#9ABEFF"/><path d="M552 766.4V587.6h59.7l11.4-74h-71v-48c0-20.2 9.9-40 41.7-40H626v-63s-29.3-5-57.3-5c-58.5 0-96.7 35.4-96.7 99.6v56.4h-65v74h65v178.9c-122.4-19.2-216-125.1-216-252.9 0-141.4 114.6-256 256-256s256 114.6 256 256c0 127.7-93.6 233.6-216 252.8Z" fill="#fff"/></g><defs><clipPath id="a"><path fill="#fff" d="M0 0h1024v1024H0z"/></clipPath></defs></svg>