<svg width="1024" height="1024" fill="none" xmlns="http://www.w3.org/2000/svg"><g clip-path="url(#a)"><path d="M512 1024c282.77 0 512-229.23 512-512S794.77 0 512 0 0 229.23 0 512s229.23 512 512 512Z" fill="#F8C18C"/><path d="M184.77 479.77a38.273 38.273 0 0 1 12.6-2H256v12.17h-40.39c-3.473 0-5.21.87-5.21 2.61v13.9H256v12.17h-45.6v28.68h-32.58v-60.83c0-2.78 2.334-5.013 7-6.7h-.05Zm128.63 46.68h28.87l-14.43-27.55-14.44 27.55Zm35.3-46.06c4 1.733 6.724 3.963 8.17 6.69l31.55 60.23h-35.19l-4.51-8.69h-41.79l-4.55 8.69h-18.25l31.37-59.88c1.5-2.84 4.167-5.157 8-6.95a28.896 28.896 0 0 1 12.56-2.7 31.525 31.525 0 0 1 12.69 2.61h-.05ZM429 488c-10.193 6.807-15.29 14.99-15.29 24.55s5.097 17.74 15.29 24.54c10.2 6.813 22.457 10.22 36.77 10.22h39.1v-12.17h-39.1c-6.786 0-11.363-2.867-13.73-8.6-1.28-3.127-1.916-7.794-1.91-14 .007-6.207.644-10.873 1.91-14 2.374-5.733 6.95-8.603 13.73-8.61h39.1v-12.15h-39.1c-14.313 0-26.57 3.407-36.77 10.22Zm124.23-8.22c-4.666 1.687-7 3.92-7 6.7v52.15c0 2.787 2.334 5.017 7 6.69a37.998 37.998 0 0 0 12.59 2h58.67v-12.18h-40.4c-3.486 0-5.226-.873-5.22-2.62v-13.9h45.64v-12.16h-45.64v-13.9c0-1.74 1.74-2.61 5.22-2.61h40.42v-12.17h-58.67a38.266 38.266 0 0 0-12.59 2h-.02Zm192.07-1.93h100.77V490h-28.81c-3.41 0-5.12.86-5.12 2.61v54.75h-32.89v-54.74c0-1.74-1.71-2.61-5.12-2.61h-28.81v-12.17l-.02.01ZM680 546.9v-38.07L715.12 523v23.75h-35.06v.14l-.06.01Zm35.7-97a.498.498 0 0 0-.685-.549.5.5 0 0 0-.255.239c-8.93 13.71-14 21.55-18.49 28.65h-53.26c-.66 0-.93.86-.35 1.08 22.1 8.33 54 20.89 71.85 27.94.45.19 1.19-.25 1.19-.56V449.9Z" fill="#fff"/></g><defs><clipPath id="a"><path fill="#fff" d="M0 0h1024v1024H0z"/></clipPath></defs></svg>