<svg width="1024" height="1024" viewBox="0 0 1024 1024" fill="none" xmlns="http://www.w3.org/2000/svg">
<g clip-path="url(#clip0_2_2148)">
<path d="M512 1024C794.77 1024 1024 794.77 1024 512C1024 229.23 794.77 0 512 0C229.23 0 0 229.23 0 512C0 794.77 229.23 1024 512 1024Z" fill="#56595B"/>
<path d="M512.01 258C367.57 258 250.45 350.91 250.45 465.53V558.46C250.45 673.08 367.57 766 512.01 766C656.45 766 773.54 673.07 773.54 558.46V465.53C773.54 350.91 656.46 258 512.01 258ZM427.11 565.46H401.21V666.01H377.11C357.9 666.01 340.93 651.31 340.93 630.36V471.54C340.93 422.52 363.71 361.13 432.13 345.93C501.39 330.54 520.76 364.41 520.76 364.41C520.76 364.41 477.42 363.82 443.47 390.31C424.14 405.39 401.88 438.64 401.2 476.45V523.16C443.96 531.35 478.18 517.14 488.28 512.65L490.01 512.43C490.01 512.43 486.94 565.46 427.1 565.46H427.11ZM694.59 584.02C694.59 634.82 657.09 670.01 603.51 670.01H591.45C534.3 670.01 495.01 637.93 495.01 593.82C495.01 549.71 526.26 518.52 614.68 518.52H635.66V515.39C635.66 481.53 619.59 457.46 583.86 457.46C540.55 457.46 516.45 473.95 507.51 485.09H505.28V465.93C505.28 439.19 529.4 407.12 592.79 407.12C646.37 407.12 694.59 445.88 694.59 528.75V584V584.02ZM614.67 561.3H636.1V584.46C636.1 608.97 623.6 621.45 597.7 621.45C571.8 621.45 556.19 610.31 556.19 591.6C556.19 572.89 569.13 561.3 614.68 561.3H614.67Z" fill="white"/>
</g>
<defs>
<clipPath id="clip0_2_2148">
<rect width="1024" height="1024" fill="white"/>
</clipPath>
</defs>
</svg>
