<svg width="1024" height="1024" fill="none" xmlns="http://www.w3.org/2000/svg"><g clip-path="url(#a)"><path d="M512 1024c282.77 0 512-229.23 512-512S794.77 0 512 0 0 229.23 0 512s229.23 512 512 512Z" fill="#F8C18C"/><path d="M259.8 468.5h364.4c1.5 0 2.9-.9 3.5-2.2l33.1-71.7c.9-1.9.1-4.2-1.9-5.1-.5-.2-1.1-.4-1.6-.4H287.5C331 309.8 415.2 256 512 256c141.3 0 255.8 114.6 255.8 256S653.3 768 512 768 256.2 653.4 256.2 512c0-14.8 1.2-29.4 3.6-43.5Zm157.5 207.3c0 2.8 2.3 5.1 5.1 5.1h6.6l80.4-101.1h63.3c1.5 0 2.9-.9 3.5-2.2l33.1-71.6c.2-.5.4-1.1.4-1.6 0-2.1-1.7-3.8-3.8-3.8H417.3v175.2Z" fill="#fff"/></g><defs><clipPath id="a"><path fill="#fff" d="M0 0h1024v1024H0z"/></clipPath></defs></svg>