<svg width="1024" height="1024" fill="none" xmlns="http://www.w3.org/2000/svg"><g clip-path="url(#a)"><path d="M512 1024c282.77 0 512-229.23 512-512S794.77 0 512 0 0 229.23 0 512s229.23 512 512 512Z" fill="#9ABEFF"/><path d="M514.32 787.15a2.656 2.656 0 0 1-3.67-1 463.6 463.6 0 0 1-51.1-149.67 1.501 1.501 0 0 1 2.57-1.26A423.775 423.775 0 0 0 512 680.06a421.31 421.31 0 0 0 162.21-280.92A420.42 420.42 0 0 0 512 366.81c-4.36 0-8.693.067-13 .2a1.507 1.507 0 0 1-1.41-2.14 466.875 466.875 0 0 1 51.51-85.07 4.39 4.39 0 0 1 3.85-1.72 511.325 511.325 0 0 1 212.94 65.66 4.233 4.233 0 0 1 2.11 3.67c0 186.34-102.57 351.26-253.68 439.73v.01Zm-90.62-198.7a421.947 421.947 0 0 1-27.81-45 269.16 269.16 0 0 1 26-10.72 4.287 4.287 0 0 0 1.996-1.449 4.287 4.287 0 0 0 .864-2.311 496.087 496.087 0 0 1 15-92.56 1.444 1.444 0 0 0-.348-1.364 1.455 1.455 0 0 0-1.342-.426 358.608 358.608 0 0 0-76 24.88 418.982 418.982 0 0 1-12.31-60.39A418.747 418.747 0 0 1 460.18 370a3.997 3.997 0 0 0 3.15-2.37c13.45-31.49 29.38-59.65 49.36-88.93a1.39 1.39 0 0 0-1.14-2.17c-94.81.44-178.42 24.75-253.29 67.17a4.506 4.506 0 0 0-2.26 3.91c0 160.55 80 312.19 202.36 405.22a1.47 1.47 0 0 0 2.24-1.73 494.571 494.571 0 0 1-36.21-160.65 3.742 3.742 0 0 0-.69-2Z" fill="#fff"/></g><defs><clipPath id="a"><path fill="#fff" d="M0 0h1024v1024H0z"/></clipPath></defs></svg>