<svg width="1024" height="1024" viewBox="0 0 1024 1024" fill="none" xmlns="http://www.w3.org/2000/svg">
<g clip-path="url(#clip0_2_2163)">
<path d="M512 1024C794.77 1024 1024 794.77 1024 512C1024 229.23 794.77 0 512 0C229.23 0 0 229.23 0 512C0 794.77 229.23 1024 512 1024Z" fill="#73ADA4"/>
<path d="M793.88 537.5C792.76 559.09 789.41 579.57 784.2 596.69C770.43 606.37 757.77 618.28 744.74 630.19C721.66 651.41 697.83 672.63 675.87 694.96C663.58 699.06 650.93 702.41 638.27 705.38C685.55 656.24 724.64 599.28 768.94 547.54C757.03 550.15 750.33 561.31 742.14 569.13C692.63 615.29 639.39 659.22 597.7 712.83C585.474 714.376 573.172 715.247 560.85 715.44H551.92C627.49 658.11 683.7 581.05 745.92 510.32C708.69 537.5 672.92 570.63 637.59 603.39C602.26 636.15 563.88 666.68 539.31 709.11C532.24 700.92 531.49 686.4 526.65 675.98C592.11 628 642 563.93 696 504C679.62 512.19 665.1 524.85 650.21 537.13C605.54 573.61 557.89 609.72 522.89 654.4C517.31 646.21 518.42 631.69 513.96 622.4C568.68 592.25 604.42 542.73 645.37 498.81C626.37 506.63 609.63 521.52 591.76 534.55C562.76 555.4 530.34 573.27 511.35 601.93C508 591.88 506.88 580.34 505.02 568.8C540.02 556.89 557.14 527.48 579.1 502.54C553.04 511.85 523.26 528.23 500.18 544.61C498.32 529.72 496.09 514.83 492.36 501.43C546.71 495.1 638.66 482.43 705.3 486.17C753.68 488.73 779.74 507 793.88 537.5ZM237.71 407.58C236.623 410.971 235.876 414.461 235.48 418L234.74 421C216.86 473.1 243.3 648.06 279 668.91C322.18 694.22 403.34 715.82 455.83 715.82H512.04C482.63 655.14 475.56 569.15 460.67 502.88C353.86 508.46 257.81 492.46 237.71 407.58ZM795 503.25C794.26 472.72 790.16 442.94 782.34 420.61L781.6 417.61C781.6 416.12 776.76 377.78 738.04 355.07C694.86 329.76 613.7 308.16 561.21 308.16H455.86C445.276 308.213 434.707 308.958 424.22 310.39C459.22 349.11 473.73 408.67 487.51 468.23C587.27 460.07 743.63 432.89 795 503.25ZM455.49 472.35C455.12 460.81 452.49 451.5 450.28 441.82C442.83 443.68 435.76 457.08 424.59 459.69C429.43 442.94 433.15 425.07 445.06 415.02C442.447 408.96 440.693 402.565 439.85 396.02C432.03 414.63 416.77 426.92 403 441.81C394.07 451.49 385.88 462.28 376.2 466.01C392.95 434.74 404.49 398.26 434.65 380.76C430.18 372.94 428.65 361.76 423.11 355.07C415.29 377.07 397.42 393.41 382.16 409.79C367.27 426.17 351.63 443.29 334.88 454.46C361.31 415.37 380.67 369.21 417.88 340.92C412.3 335.34 411.18 325.28 403.73 321.92C394.8 348.35 372.46 366.22 355.33 385.58C337.83 404.94 322.2 427.27 301.72 440.3C330.72 397.86 353.47 349.47 391.06 315.59C382.873 317.077 374.683 318.937 366.49 321.17C356.07 335.69 342.66 348.35 330.75 361C312.91 380.77 295 402 274.57 415.77C294.3 388.59 310.68 358.44 330.41 331.64C320.36 334.99 311.05 338.71 302.49 342.44C288.72 357.33 274.57 372.22 259.31 382.65C265.64 374.46 271.22 364.78 276.81 355.47C261.79 364.285 249.737 377.375 242.19 393.07C258.19 475.7 359.82 479.43 455.49 472.35ZM738 668.54C777.09 645.46 781.56 606.37 781.56 606L781.93 604.51C763.69 627.59 745.82 651.42 727.21 674.51C730.926 672.743 734.529 670.75 738 668.54Z" fill="white"/>
</g>
<defs>
<clipPath id="clip0_2_2163">
<rect width="1024" height="1024" fill="white"/>
</clipPath>
</defs>
</svg>
