<svg width="1024" height="1024" fill="none" xmlns="http://www.w3.org/2000/svg"><g clip-path="url(#a)"><path d="M512 1024c282.77 0 512-229.23 512-512S794.77 0 512 0 0 229.23 0 512s229.23 512 512 512Z" fill="#728DBE"/><path d="M743.55 359.1C693.88 284 608.74 234.5 512 234.5c-153.26 0-277.5 124.24-277.5 277.5a277.434 277.434 0 0 0 171.296 256.393A277.434 277.434 0 0 0 512 789.5c153.26 0 277.5-124.24 277.5-277.5a276.132 276.132 0 0 0-45.95-152.9ZM512 731.17a219.105 219.105 0 0 1-154.991-64.179A219.121 219.121 0 0 1 292.83 512c0-121 98.17-219.17 219.17-219.17A219.223 219.223 0 0 1 731.17 512c0 121-98.17 219.17-219.17 219.17ZM512 512l-131.92-87.95v175.9h254.56a9.277 9.277 0 0 0 6.565-2.715 9.276 9.276 0 0 0 2.715-6.565V424.05L512 512Z" fill="#fff"/></g><defs><clipPath id="a"><path fill="#fff" d="M0 0h1024v1024H0z"/></clipPath></defs></svg>