<svg width="1024" height="1024" viewBox="0 0 1024 1024" fill="none" xmlns="http://www.w3.org/2000/svg">
<g clip-path="url(#clip0_2_2166)">
<path d="M512 1024C794.77 1024 1024 794.77 1024 512C1024 229.23 794.77 0 512 0C229.23 0 0 229.23 0 512C0 794.77 229.23 1024 512 1024Z" fill="#FF837D"/>
<path d="M633.9 408.1V584.3H686.8V557.4H669.3V381.2H633.9V408.1ZM174.5 557.4H192.5V472.4H174.5V449L192.5 446V422.3C192.5 393.6 198.7 381.2 235.3 381.2C243.2 381.2 252.5 382.4 260.7 383.8L255.8 412.6C250.3 411.7 247.5 411.6 244 411.6C231.1 411.6 227.9 412.9 227.9 425.5V446H254.6V472.3H227.9V557.3H245.7V584.2H174.5V557.4ZM615.9 548.9C610.4 550.1 605.5 549.9 602 550C587.4 550.4 588.7 545.6 588.7 531.8V472.4H616.4V446H588.7V381.2H553.3V539.1C553.3 570.1 560.9 584.2 594.3 584.2C602.2 584.2 613 582.2 621.2 580.4L615.9 548.9ZM509 472.3V467.6C498.3 465.6 487.6 465.6 481.9 465.6C465.4 465.6 463.4 474.3 463.4 479.1C463.4 485.8 465.7 489.4 483.5 493.3C509.6 499.2 535.8 505.3 535.8 537.7C535.8 568.4 520 584.3 486.7 584.3C464.4 584.3 442.9 579.5 426.4 575.3V548.8H453.2V553.5C464.7 555.7 476.8 555.5 483.2 555.5C500.8 555.5 503.6 546 503.6 541C503.6 534 498.6 530.7 482.1 527.3C451 522 426.4 511.4 426.4 479.8C426.4 449.9 446.4 438.2 479.6 438.2C502.1 438.2 519.3 441.7 535.7 445.9V472.2H509V472.3ZM346 495.6L343.3 492.9L329.6 504.8C328.9 504.6 328.2 504.4 327.4 504.4C323.7 504.4 320.7 507.5 320.7 511.3C320.7 515.1 323.7 518.2 327.4 518.2C331.1 518.2 334.1 515.1 334.1 511.3C334.1 510.6 334 509.9 333.8 509.2L346 495.6ZM400.3 548.9V438.6H364.9V448.9C357.6 444.5 349.5 441.4 340.8 439.8H341V427.6H345.3V418.6H309.6V427.6H313.9V439.8H314.1C280.2 446 254.5 475.7 254.5 511.4C254.5 551.6 287.1 584.3 327.3 584.3C341 584.3 353.9 580.5 364.8 573.9L371.2 584.3H408.6V548.9H400.3ZM329.5 548.8V544.6H325.3V548.8C306.3 547.7 291.1 532.4 290.1 513.4H294.3V509.2H290.1C291.2 490.3 306.4 475.1 325.3 474V478.2H329.5V474C348.1 475 363.2 489.6 364.8 508.1V509.3H360.5V513.5H364.8V514.7C363.2 533.1 348.2 547.8 329.5 548.8ZM776.4 446H849.5V472.3H832L787.2 582.6C774.4 613.6 753.3 642.7 721.1 642.7C713.2 642.7 702.7 641.8 695.4 640.1L698.6 607.9C703.3 608.8 709.4 609.4 712.6 609.4C727.5 609.4 744.3 600.2 749.6 584.1L704.2 472.3H686.7V446H759.8V472.3H742.3L768 535.6L793.7 472.3H776.3L776.4 446Z" fill="white"/>
</g>
<defs>
<clipPath id="clip0_2_2166">
<rect width="1024" height="1024" fill="white"/>
</clipPath>
</defs>
</svg>
