<svg width="1024" height="1024" fill="none" xmlns="http://www.w3.org/2000/svg"><g clip-path="url(#a)"><path d="M512 1024c282.77 0 512-229.23 512-512S794.77 0 512 0 0 229.23 0 512s229.23 512 512 512Z" fill="#ABABFF"/><path d="M558.62 256c-36.31.16-78.78 10-129.45 28.4-170.71 62.15-206.9 139.74-144.79 310.45 62.11 170.71 139.73 206.89 310.45 144.76 170.72-62.13 206.91-139.73 144.77-310.45-43.69-120-95-173.55-181-173.17l.02.01Zm59.1 140.16h26.73a5.34 5.34 0 0 1 2.365.546 5.341 5.341 0 0 1 2.878 3.749 5.328 5.328 0 0 1-.083 2.425l-59.26 220.48a5.342 5.342 0 0 1-5.15 4h-26.75a5.327 5.327 0 0 1-5.243-4.294 5.333 5.333 0 0 1 .083-2.426l3.6-13.4 2.63-9.75 53-197.38a5.328 5.328 0 0 1 5.14-3.94l.06-.01ZM421.79 413.4h10.75a5.333 5.333 0 0 1 5.33 5.33v18a5.33 5.33 0 0 1-5.33 5.33h-9.13a36.753 36.753 0 0 0-5.51.24 4.702 4.702 0 0 0-2.56 1 4.186 4.186 0 0 0-1 1.66 18.913 18.913 0 0 0-.92 6.72v13.67h19.16a5.333 5.333 0 0 1 5.33 5.33v18a5.341 5.341 0 0 1-5.33 5.33h-19.21v108.71a5.34 5.34 0 0 1-5.34 5.34H387a5.336 5.336 0 0 1-3.773-1.564 5.325 5.325 0 0 1-1.557-3.776V448.48a36.752 36.752 0 0 1 3.6-16.64 29.757 29.757 0 0 1 9.73-11.16c7.9-5.48 17.62-7.27 26.82-7.31l-.03.03Zm82.14 50c16.37 0 30.27 4.65 40.17 13.27 9.9 8.62 15.47 21.21 15.42 35.59v35.91l-16.11 59.92h-10.24a5.336 5.336 0 0 1-3.772-1.564 5.342 5.342 0 0 1-1.558-3.776v-4a39.028 39.028 0 0 1-4.76 3.56c-7.14 4.55-16.85 7.51-29.65 7.51a62.635 62.635 0 0 1-28.52-6.18 40.49 40.49 0 0 1-18.84-19.35 46.801 46.801 0 0 1-4-19.54 40.715 40.715 0 0 1 5.23-21.12 36.788 36.788 0 0 1 13.78-13.18c11.09-6.25 24.75-8.45 38.14-10.24 7.3-1 13.14-1.61 17.64-2.2a41.994 41.994 0 0 0 9.2-1.88 3.157 3.157 0 0 0 1.39-.86l.24-.48a6.773 6.773 0 0 0 .16-1.84v-.73a17.244 17.244 0 0 0-5.85-13.6c-3.8-3.31-9.77-5.55-18.07-5.57-8.3-.02-14.64 2.26-19 5.59a17.513 17.513 0 0 0-7.21 12.54 5.334 5.334 0 0 1-5.31 4.86h-22.25a5.32 5.32 0 0 1-3.856-1.645 5.311 5.311 0 0 1-1.139-1.811 5.311 5.311 0 0 1-.335-2.114 45.644 45.644 0 0 1 17.6-34c10.47-8.34 24.85-13.12 41.49-13.12l.01.05Zm23.92 80.71c-1.92.48-4 1-6.31 1.45-6.47 1.28-14.29 2.41-21.87 3.48a61.046 61.046 0 0 0-14.76 3.65c-4.18 1.75-7.1 4-8.68 6.57a12.116 12.116 0 0 0-1.71 6.54v.2a12.915 12.915 0 0 0 1.32 5.87 11.79 11.79 0 0 0 3.76 4.22c3.41 2.45 9.13 4.14 16.85 4.14 11.95 0 19.52-3.5 24.32-8.32 4.8-4.82 7-11.56 7.08-19.11v-8.69Z" fill="#fff"/></g><defs><clipPath id="a"><path fill="#fff" d="M0 0h1024v1024H0z"/></clipPath></defs></svg>