<svg width="1024" height="1024" fill="none" xmlns="http://www.w3.org/2000/svg"><g clip-path="url(#a)"><path d="M512 1024c282.77 0 512-229.23 512-512S794.77 0 512 0 0 229.23 0 512s229.23 512 512 512Z" fill="#9ABEFF"/><path d="M393 690.5h238V750H393v-59.5Zm253.62-177.11-15.62 9H382.59V393.18A118.998 118.998 0 0 0 393 630.7h238a119.044 119.044 0 0 0 100.65-55.548 119.047 119.047 0 0 0 6.75-114.762l-91.78 53ZM393 274v238h238V274H393Zm248.41 119.18v111.2l92.07-53.17a118.912 118.912 0 0 0-92.07-58.03ZM631 641.41H393v38.67h238v-38.67Z" fill="#fff"/></g><defs><clipPath id="a"><path fill="#fff" d="M0 0h1024v1024H0z"/></clipPath></defs></svg>