<svg width="1024" height="1024" fill="none" xmlns="http://www.w3.org/2000/svg"><g clip-path="url(#a)"><path d="M512 1024c282.77 0 512-229.23 512-512S794.77 0 512 0 0 229.23 0 512s229.23 512 512 512Z" fill="#9ABEFF"/><path d="m523.91 242.26.24-.24c-148 0-267.83 117.63-268.09 262.86v203.479c.07 32.94 27.31 59.61 60.9 59.61h207.21C672.2 767.879 792 650.26 792 505.12S672 242.26 523.91 242.26Zm141.49 202a22.283 22.283 0 0 1-8.55 15.168A22.294 22.294 0 0 1 640 463.82a22.012 22.012 0 0 1-14.923-8.843 21.993 21.993 0 0 1-3.877-16.907 55.97 55.97 0 0 0 .29-7.38c0-26.44-22.06-36.65-42.91-36.65-20.85 0-39.58 17.19-39.65 36.65.36 22.5 0 44.82 0 67.28l38.7-.28c30.21-.61 30.55 44 .35 43.8l-39 .28c-.1 18.1.14 14.82 0 23.94 0 0 .33 22.13-.35 38.91-4.67 49.269-47.44 88.65-98.83 88.65-54.48 0-99.36-43.67-99.36-97.24 1.64-55.08 46.42-98.411 102.84-97.921l31.47-.229v43.719l-31.47.281h-.17c-31 .9-57.57 21.55-58.07 54.12 0 29.66 24.44 53.44 54.77 53.44 30.33 0 54.54-21.62 54.54-53.38V430.47c0-2.976.153-5.95.46-8.91 5.11-40.5 42-71.37 83.86-71.37v.08c45 0 87.5 33.8 87.5 80.43a88.85 88.85 0 0 1-.77 13.55v.01Z" fill="#fff"/></g><defs><clipPath id="a"><path fill="#fff" d="M0 0h1024v1024H0z"/></clipPath></defs></svg>