<svg width="1024" height="1024" fill="none" xmlns="http://www.w3.org/2000/svg"><g clip-path="url(#a)"><path d="M512 1024c282.77 0 512-229.23 512-512S794.77 0 512 0 0 229.23 0 512s229.23 512 512 512Z" fill="#BA6561"/><path d="M747.9 505.65C747.9 618.87 612.88 679 512 780 411.12 679 276.1 618.87 276.1 505.65a117.602 117.602 0 0 1 18.82-64 219.193 219.193 0 0 1-2.5-75.66 250.266 250.266 0 0 1 19.27-66.46 281.346 281.346 0 0 1 15-29.16c2.72-4.613 5.577-9.14 8.57-13.58 3-4.4 6.06-8.72 9.37-12.8-.6 5.2-.87 10.37-1 15.52s-.13 10.24 0 15.36a254.622 254.622 0 0 0 2.73 29.91c3 19.47 8.25 37.88 15.81 53.88a137.908 137.908 0 0 0 12.9 22 114.793 114.793 0 0 0 6 7.61c4.317-.473 8.657-.711 13-.71 65.15 0 118 54.87 118 54.87s52.81-54.87 118-54.87c4.367 0 8.73.24 13.07.72 2.1-2.46 4.1-5 6-7.62a137.595 137.595 0 0 0 12.9-22c7.57-16 12.86-34.42 15.82-53.88a254.84 254.84 0 0 0 2.72-29.91c.167-5.08.167-10.196 0-15.35-.16-5.15-.43-10.33-1-15.53 3.3 4.08 6.38 8.39 9.36 12.8 2.98 4.41 5.85 9 8.58 13.58a280.702 280.702 0 0 1 15 29.15A250.414 250.414 0 0 1 731.68 366a220.541 220.541 0 0 1 2.06 37.31 213.573 213.573 0 0 1-4.66 38.35 117.633 117.633 0 0 1 18.82 63.99Z" fill="#fff"/></g><defs><clipPath id="a"><path fill="#fff" d="M0 0h1024v1024H0z"/></clipPath></defs></svg>