<svg width="1024" height="1024" viewBox="0 0 1024 1024" fill="none" xmlns="http://www.w3.org/2000/svg">
<g clip-path="url(#clip0_2_2184)">
<path d="M512 1024C794.77 1024 1024 794.77 1024 512C1024 229.23 794.77 0 512 0C229.23 0 0 229.23 0 512C0 794.77 229.23 1024 512 1024Z" fill="#BA6561"/>
<path d="M747.9 505.65C747.9 618.87 612.88 679 512 780C411.12 679 276.1 618.87 276.1 505.65C276.064 482.947 282.601 460.72 294.92 441.65C289.705 416.766 288.859 391.164 292.42 365.99C295.735 343.052 302.22 320.684 311.69 299.53C316.119 289.527 321.127 279.79 326.69 270.37C329.41 265.757 332.267 261.23 335.26 256.79C338.26 252.39 341.32 248.07 344.63 243.99C344.03 249.19 343.76 254.36 343.63 259.51C343.5 264.66 343.5 269.75 343.63 274.87C343.951 284.885 344.862 294.873 346.36 304.78C349.36 324.25 354.61 342.66 362.17 358.66C365.781 366.376 370.1 373.741 375.07 380.66C376.957 383.274 378.957 385.81 381.07 388.27C385.387 387.797 389.727 387.559 394.07 387.56C459.22 387.56 512.07 442.43 512.07 442.43C512.07 442.43 564.88 387.56 630.07 387.56C634.437 387.56 638.8 387.8 643.14 388.28C645.24 385.82 647.24 383.28 649.14 380.66C654.112 373.742 658.43 366.377 662.04 358.66C669.61 342.66 674.9 324.24 677.86 304.78C679.354 294.872 680.262 284.885 680.58 274.87C680.747 269.79 680.747 264.674 680.58 259.52C680.42 254.37 680.15 249.19 679.58 243.99C682.88 248.07 685.96 252.38 688.94 256.79C691.92 261.2 694.79 265.79 697.52 270.37C703.084 279.786 708.092 289.52 712.52 299.52C721.952 320.687 728.4 343.06 731.68 366C733.421 378.356 734.11 390.838 733.74 403.31C733.348 416.208 731.789 429.044 729.08 441.66C741.396 460.728 747.932 482.951 747.9 505.65Z" fill="white"/>
</g>
<defs>
<clipPath id="clip0_2_2184">
<rect width="1024" height="1024" fill="white"/>
</clipPath>
</defs>
</svg>
