<svg width="1024" height="1024" fill="none" xmlns="http://www.w3.org/2000/svg"><g clip-path="url(#a)"><path d="M512 1024c282.77 0 512-229.23 512-512S794.77 0 512 0 0 229.23 0 512s229.23 512 512 512Z" fill="#F8C18C"/><path d="M512 512c0-47.1 38.2-85.3 85.3-85.3 47.1 0 85.3 38.2 85.3 85.3 0 47.1-38.2 85.3-85.3 85.3-47.1 0-85.3-38.2-85.3-85.3ZM341.3 682.7c0-47.1 38.2-85.3 85.3-85.3H512v85.3c0 47.1-38.2 85.3-85.3 85.3-47.1 0-85.4-38.2-85.4-85.3ZM512 256v170.7h85.3c47.1 0 85.3-38.2 85.3-85.3 0-47.1-38.1-85.4-85.3-85.4H512Zm-170.7 85.3c0 47.1 38.2 85.3 85.3 85.3H512V256h-85.3c-47.2 0-85.4 38.2-85.4 85.3Zm0 170.7c0 47.1 38.2 85.3 85.3 85.3H512V426.7h-85.3c-47.2 0-85.4 38.2-85.4 85.3Z" fill="#fff"/></g><defs><clipPath id="a"><path fill="#fff" d="M0 0h1024v1024H0z"/></clipPath></defs></svg>