<svg width="1024" height="1024" fill="none" xmlns="http://www.w3.org/2000/svg"><g clip-path="url(#a)"><path d="M512 1024c282.77 0 512-229.23 512-512S794.77 0 512 0 0 229.23 0 512s229.23 512 512 512Z" fill="#BA6561"/><path d="M327.74 361.92v155.63a6.54 6.54 0 0 0 6.54 6.54h155.63a6.552 6.552 0 0 0 5.057-2.401 6.569 6.569 0 0 0 1.363-5.429 6.57 6.57 0 0 0-1.79-3.34L338.89 357.3a6.677 6.677 0 0 0-3.34-1.76 6.448 6.448 0 0 0-3.77.38 6.373 6.373 0 0 0-2.92 2.4 6.546 6.546 0 0 0-1.12 3.6Zm61 8.12 122 121.91a6.573 6.573 0 0 0 3.35 1.79 6.586 6.586 0 0 0 6.72-2.77 6.59 6.59 0 0 0 1.11-3.64V243.47a6.557 6.557 0 0 0-7.83-6.42 6.66 6.66 0 0 0-3.35 1.79l-122 121.86a6.495 6.495 0 0 0-1.45 2.14 6.56 6.56 0 0 0 0 5c.332.806.817 1.54 1.43 2.16l.02.04Zm164.16-23.63v140.91a6.42 6.42 0 0 0 1.11 3.63 6.507 6.507 0 0 0 7.64 2.543 6.515 6.515 0 0 0 2.42-1.543L705 351a6.66 6.66 0 0 0 1.79-3.35A6.591 6.591 0 0 0 704 341a6.59 6.59 0 0 0-3.64-1.11H559.44a6.54 6.54 0 0 0-6.54 6.56v-.04Zm31.91 177.68h176.65a6.552 6.552 0 0 0 5.057-2.401 6.553 6.553 0 0 0 1.363-5.429 6.57 6.57 0 0 0-1.79-3.34l-88.33-88.32a6.273 6.273 0 0 0-2.13-1.42 6.484 6.484 0 0 0-5 0 6.34 6.34 0 0 0-2.12 1.42l-88.33 88.33a6.535 6.535 0 0 0-1.41 7.14 6.528 6.528 0 0 0 2.421 2.922 6.528 6.528 0 0 0 3.639 1.078l-.02.02Zm-4.64 37.32 99.94 99.95a6.63 6.63 0 0 0 3.35 1.8 6.564 6.564 0 0 0 7.212-3.633 6.568 6.568 0 0 0 .628-2.807v-99.86a6.511 6.511 0 0 0-4-6.05 6.327 6.327 0 0 0-2.51-.5h-99.98a6.544 6.544 0 0 0-6 4 6.595 6.595 0 0 0 1.35 7.09l.01.01Zm70.63 107.75-86.74-86.74a6.566 6.566 0 0 0-3.37-1.8 6.49 6.49 0 0 0-3.78.38 6.65 6.65 0 0 0-2.92 2.41 6.443 6.443 0 0 0-1.11 3.63v173.49a6.495 6.495 0 0 0 4 6 6.49 6.49 0 0 0 3.78.38 6.558 6.558 0 0 0 3.35-1.79l86.74-86.74a6.56 6.56 0 0 0 0-9.25l.05.03Zm-129 52.28V587.08a6.557 6.557 0 0 0-7.83-6.42 6.57 6.57 0 0 0-3.34 1.79L376.25 716.82a6.63 6.63 0 0 0-1.8 3.35 6.55 6.55 0 0 0 1.365 5.444 6.55 6.55 0 0 0 5.075 2.396h134.35a6.685 6.685 0 0 0 2.52-.5 6.35 6.35 0 0 0 2.12-1.42 6.462 6.462 0 0 0 1.42-2.09 6.545 6.545 0 0 0 .49-2.51l.01-.05ZM489.91 550.3H262.48a6.503 6.503 0 0 0-3.59 1.12 6.467 6.467 0 0 0-2.77 6.64 6.614 6.614 0 0 0 1.73 3.34l113.71 113.73a6.653 6.653 0 0 0 4.64 1.93 6.685 6.685 0 0 0 2.52-.5 6.35 6.35 0 0 0 2.12-1.42l113.7-113.72a6.63 6.63 0 0 0 1.73-3.34 6.414 6.414 0 0 0-.38-3.73 6.589 6.589 0 0 0-2.4-2.91 6.439 6.439 0 0 0-3.58-1.14Z" fill="#fff"/></g><defs><clipPath id="a"><path fill="#fff" d="M0 0h1024v1024H0z"/></clipPath></defs></svg>