<svg width="1024" height="1024" fill="none" xmlns="http://www.w3.org/2000/svg"><g clip-path="url(#a)"><path d="M512 1024c282.77 0 512-229.23 512-512S794.77 0 512 0 0 229.23 0 512s229.23 512 512 512Z" fill="#96DFD3"/><path d="M279.5 279.5v465h465v-465h-465Zm287.33 61.23 35.46 24.8-102 18-7.94-29.64 74.48-13.16Zm-50.57 342.64-97.94-138.53 34.39-4.55 92.61 130.88-29.06 12.2ZM490.2 535.44l30.42-4 23.64 134-42.33-63.74-11.73-66.26Zm-73.72 6.88 13.85-33.52 53.48-9.69-19.38-109.46 24.8-35.46 25 139.69 53.48-9.69 5.29 30.13-156.52 28Zm160.91-141.24L573 376.57l29.74-7.94 4.75 27.13-30.1 5.32Z" fill="#fff"/></g><defs><clipPath id="a"><path fill="#fff" d="M0 0h1024v1024H0z"/></clipPath></defs></svg>