<svg width="1024" height="1024" viewBox="0 0 1024 1024" fill="none" xmlns="http://www.w3.org/2000/svg">
<g clip-path="url(#clip0_2_2190)">
<path d="M512 1024C794.77 1024 1024 794.77 1024 512C1024 229.23 794.77 0 512 0C229.23 0 0 229.23 0 512C0 794.77 229.23 1024 512 1024Z" fill="#96DFD3"/>
<path d="M279.5 279.5V744.5H744.5V279.5H279.5ZM566.83 340.73L602.29 365.53L500.29 383.53L492.35 353.89L566.83 340.73ZM516.26 683.37L418.32 544.84L452.71 540.29L545.32 671.17L516.26 683.37ZM490.2 535.44L520.62 531.44L544.26 665.44L501.93 601.7L490.2 535.44ZM416.48 542.32L430.33 508.8L483.81 499.11L464.43 389.65L489.23 354.19L514.23 493.88L567.71 484.19L573 514.32L416.48 542.32ZM577.39 401.08L573 376.57L602.74 368.63L607.49 395.76L577.39 401.08Z" fill="white"/>
</g>
<defs>
<clipPath id="clip0_2_2190">
<rect width="1024" height="1024" fill="white"/>
</clipPath>
</defs>
</svg>
