<svg width="1024" height="1024" viewBox="0 0 1024 1024" fill="none" xmlns="http://www.w3.org/2000/svg">
<g clip-path="url(#clip0_2_2199)">
<path d="M512 1024C794.77 1024 1024 794.77 1024 512C1024 229.23 794.77 0 512 0C229.23 0 0 229.23 0 512C0 794.77 229.23 1024 512 1024Z" fill="#F8C18C"/>
<path d="M436.67 320C391.406 320 347.995 337.981 315.988 369.988C283.981 401.995 266 445.406 266 490.67H607.33C652.595 490.67 696.005 472.689 728.012 440.682C760.019 408.675 778 365.264 778 320H436.67ZM436.67 533.33C391.406 533.33 347.995 551.311 315.988 583.318C283.981 615.325 266 658.736 266 704H424.48C469.743 703.997 513.151 686.015 545.155 654.008C577.16 622.002 595.14 578.593 595.14 533.33H436.67Z" fill="white"/>
</g>
<defs>
<clipPath id="clip0_2_2199">
<rect width="1024" height="1024" fill="white"/>
</clipPath>
</defs>
</svg>
