<svg width="1024" height="1024" fill="none" xmlns="http://www.w3.org/2000/svg"><g clip-path="url(#a)"><path d="M512 1024c282.77 0 512-229.23 512-512S794.77 0 512 0 0 229.23 0 512s229.23 512 512 512Z" fill="#F8C18C"/><path d="M436.67 320A170.67 170.67 0 0 0 266 490.67h341.33A170.669 170.669 0 0 0 778 320H436.67Zm0 213.33A170.67 170.67 0 0 0 266 704h158.48a170.667 170.667 0 0 0 120.675-49.992A170.667 170.667 0 0 0 595.14 533.33H436.67Z" fill="#fff"/></g><defs><clipPath id="a"><path fill="#fff" d="M0 0h1024v1024H0z"/></clipPath></defs></svg>