<svg width="1024" height="1024" viewBox="0 0 1024 1024" fill="none" xmlns="http://www.w3.org/2000/svg">
<g clip-path="url(#clip0_2_2202)">
<path d="M512 1024C794.77 1024 1024 794.77 1024 512C1024 229.23 794.77 0 512 0C229.23 0 0 229.23 0 512C0 794.77 229.23 1024 512 1024Z" fill="#54688C"/>
<path d="M610.94 372.56C574.5 372.56 551.91 381.94 531.64 406.41L419.98 538.12C398.66 562.16 389.61 558.97 354.36 559.19V559.25C302.98 558.01 276.53 566.7 253.14 590.07L192.01 651.44H377.28C422.87 651.44 444.24 642.67 468.88 614.3L508.81 565.16H594.82C608.98 565.16 621.01 563.12 631.67 559.22C647.08 553.58 659.62 544.08 671.57 531.31L701.49 495.06H552.09C552.09 495.06 574.85 467.1 576.97 464.64C580.68 460.45 583.92 458.84 590.6 458.84H705.97C740.36 458.84 769.3 450.57 792.77 422.97L832.02 372.56H610.96H610.94Z" fill="white"/>
</g>
<defs>
<clipPath id="clip0_2_2202">
<rect width="1024" height="1024" fill="white"/>
</clipPath>
</defs>
</svg>
