<svg width="1024" height="1024" fill="none" xmlns="http://www.w3.org/2000/svg"><g clip-path="url(#a)"><path d="M512 1024c282.77 0 512-229.23 512-512S794.77 0 512 0 0 229.23 0 512s229.23 512 512 512Z" fill="#54688C"/><path d="M508.51 259.09h-.26a37.076 37.076 0 0 0-16.52 5.82c-7.64 4.91-13.47 12.24-17.77 20.2a69.104 69.104 0 0 0-2 4.05 99.688 99.688 0 0 0-4.46 11.62 112.766 112.766 0 0 0-2.26 8.35c-.813 3.54-1.48 7.11-2 10.71a169.618 169.618 0 0 0-1.44 13.77c-.18 2.926-.297 5.857-.35 8.79-.087 3.373-.023 6.743.19 10.11a153.15 153.15 0 0 0 3.66 23.38 272.533 272.533 0 0 0 8.37 28.61 441.542 441.542 0 0 0 13.88 34.75 617.174 617.174 0 0 0 20.45 41.5l.55 1-.04-222.66Zm28.62.59 2.78 2c8.28 6.51 14.4 15.44 18.78 25a100.809 100.809 0 0 1 4.73 12.51 149.99 149.99 0 0 1 5.91 34.72c.173 2.92.28 5.84.32 8.76.124 4.783-.06 9.57-.55 14.33a159.28 159.28 0 0 1-2.71 17c-1.39 6.55-3.09 13-5 19.43-2.58 8.553-5.487 17-8.72 25.34a491.424 491.424 0 0 1-9.34 22.53 622.083 622.083 0 0 1-19.24 39.35 604.986 604.986 0 0 0 29.21-32.37 431.546 431.546 0 0 0 24.36-31.79 258.16 258.16 0 0 0 16.89-27.79 161.546 161.546 0 0 0 6.16-13.31 111.527 111.527 0 0 0 3.88-11.14 72.388 72.388 0 0 0 2.69-14.15c.154-2.143.197-4.293.13-6.44-.047-2.307-.163-4.61-.35-6.91a93.107 93.107 0 0 0-5.73-25.69 78.117 78.117 0 0 0-29.47-37A91.608 91.608 0 0 0 552.1 264l-14.97-4.32Zm-195.86 43.84A100.817 100.817 0 0 0 240.5 404.29v219.85a100.59 100.59 0 0 0 36.92 77.94c8.72 1 22.18 4 42.51-12.53L421 600.65a11.172 11.172 0 0 1 14.07 0l72.74 59.81 25.83-21.23a11.172 11.172 0 0 1 14.07 0l79.5 65.36c9.59 7.26 22 15.84 50.63 20.32h4.92A100.82 100.82 0 0 0 783.5 624.14V404.29a100.82 100.82 0 0 0-100.77-100.77h-62.52l1.18 3 .9 2.66 2.63 9.59c.05.171.09.344.12.52l2.05 13 .41 4.5.33 5.79v1.2l-.12 6.47-.11 1.72-.35 2.79-1.77 10.24-.43 1.89-4.16 13c-.04.127-.087.25-.14.37l-3.86 9.35-.14.31L611.7 400l-8.82 15.36-4.68 7.16-5.62 8.4-4 5.43-7.85 10.49-5.34 6.72-7.9 9.62-5.49 6.48-8.51 9.58-5.48 6-15.83 16.53-3.68 3.64 2.17 1.85a96.386 96.386 0 0 1 8.65 9.06c.807.98 1.587 1.98 2.34 3a68.779 68.779 0 0 1 2.32 3.36 53.74 53.74 0 0 1 2.12 3.65 41.84 41.84 0 0 1 1.88 4.09 36.45 36.45 0 0 1 2.44 10l.14 2.6a37.4 37.4 0 0 1-2.68 14.54 36.001 36.001 0 0 1-11.31 15 37.561 37.561 0 0 1-5.61 3.62 40.16 40.16 0 0 1-14.68 4.36 42.53 42.53 0 0 1-9.28-.08 41.003 41.003 0 0 1-8.52-1.94 38.547 38.547 0 0 1-7.54-3.56 36.675 36.675 0 0 1-7.57-6.17 35.998 35.998 0 0 1-7.18-11.26 37.414 37.414 0 0 1-2.66-12.91v-3.14a36.207 36.207 0 0 1 2.33-10.62 42.173 42.173 0 0 1 1.73-3.91 54.845 54.845 0 0 1 4.31-7 70.095 70.095 0 0 1 3.33-4.26 98.63 98.63 0 0 1 7.75-8.1l1-.91 1.61-1.35-8-8-4.86-5-12.29-13.22-3.06-3.35-14.91-17.43-4.22-5.23-13.06-17-1.45-2-10-14.78-2.75-4.45-7.19-12.34-2.2-4-6.22-13.13-1.17-3-3.58-10-1.37-4.75-1.06-4.39-.89-4.76-.7-5.29-.28-3.38-.12-5.77v-1.21l.17-3.45 1.24-12.58.39-2.21 2.78-12.61.66-2.1 2.1-6.13.11-.26-62.39.01Zm170.41 221.15a3 3 0 0 0-1.2.55l-.8.72a70.415 70.415 0 0 0-3.26 3.23 57.343 57.343 0 0 0-4.57 5.43 30.97 30.97 0 0 0-1.25 1.86 17.408 17.408 0 0 0-1 1.83 15.824 15.824 0 0 0-1.21 3.22 9.296 9.296 0 0 0-.23 1.53l.06 1.91c.047.42.11.837.19 1.25a11.175 11.175 0 0 0 3.7 6.35l1.62 1.19c.858.521 1.77.947 2.72 1.27a15.55 15.55 0 0 0 2.86.7l2.08.19 2.47-.08a15.446 15.446 0 0 0 6.57-2.16 11.403 11.403 0 0 0 5.41-8.88v-2a11.15 11.15 0 0 0-.79-3.1 16.974 16.974 0 0 0-.77-1.68c-.327-.62-.68-1.23-1.06-1.83a41.851 41.851 0 0 0-2.86-3.88 63.196 63.196 0 0 0-2.51-2.85 72.454 72.454 0 0 0-3.8-3.76l-.53-.47a5.474 5.474 0 0 0-.56-.37l-.64-.19-.64.02Zm138.25 53a23.867 23.867 0 0 1 22.053 14.735 23.869 23.869 0 1 1-45.923 9.135 24.22 24.22 0 0 1 23.87-23.85v-.02Zm-108.87 84.1-69 58.09a22.124 22.124 0 0 1-14.07 5h167.17a22.439 22.439 0 0 1-14.15-5l-69.95-58.09Z" fill="#fff"/></g><defs><clipPath id="a"><path fill="#fff" d="M0 0h1024v1024H0z"/></clipPath></defs></svg>