<svg width="1024" height="1024" fill="none" xmlns="http://www.w3.org/2000/svg"><g clip-path="url(#a)"><path d="M512 1024c282.77 0 512-229.23 512-512S794.77 0 512 0 0 229.23 0 512s229.23 512 512 512Z" fill="#FF837D"/><path d="M293.36 307a41 41 0 0 1 41-41h355.28a41.002 41.002 0 0 1 41 41v58.58a40.998 40.998 0 0 1-41 41H334.36a41 41 0 0 1-41-41V307Zm0 175.71a41 41 0 0 1 41-41h355.28a41.002 41.002 0 0 1 41 41v58.58a40.998 40.998 0 0 1-41 41H334.36a41 41 0 0 1-41-41v-58.58Zm41 134.71a41 41 0 0 0-41 41V717a41 41 0 0 0 41 41h164a41.002 41.002 0 0 0 41-41v-58.58a40.998 40.998 0 0 0-41-41h-164Z" fill="#fff"/></g><defs><clipPath id="a"><path fill="#fff" d="M0 0h1024v1024H0z"/></clipPath></defs></svg>