<svg width="1024" height="1024" fill="none" xmlns="http://www.w3.org/2000/svg"><g clip-path="url(#a)"><path d="M512 1024c282.77 0 512-229.23 512-512S794.77 0 512 0 0 229.23 0 512s229.23 512 512 512Z" fill="#8C72BD"/><path d="m270.01 255 .102.03c.093-.003.17-.03.265-.03h-.367Zm.102.03c-5.33.158-8.119 4.81-4.145 8.423 181.92 86.368 155.09 167.96 178.62 261.68 6.248 25.358 48.514 222.72 270.87 241.83 8.453.735 11.026-9.188 2.206-11.393-181.56-48.514-225.29-365.69-98.497-377.45 17.64-1.47 23.154 5.88 36.753 10.29 4.891 1.63 10.808 2.728 16.677 3.573 4.64 3.692 7.558 11.857 7.212 17.743-17.641-2.205-24.624-8.086-40.795-16.539 0 0 11.026 13.231 22.052 20.95 19.846 15.067 37.855 33.076 48.88 50.35 5.513 8.453 6.983 9.557 7.35 5.882a121.278 121.278 0 0 0-19.112-68.728c-1.906-2.86-2.427-5.95-2.774-8.409.238-.03.73-.009.937-.045 11.761-22.051-9.188-47.043-26.829-65.419 19.111-12.496 80.855-26.094 88.206-29.402 4.778-1.838 2.573-9.188-1.47-9.923-28.298 1.837-95.556 7.35-126.06 19.112-53.29-32.342-122.75-7.35-158.03 47.778-36.005-52.54-86.71-67.984-202.04-100.31l-.011.007Zm298.69 49.218c27.197 0 26.462 11.393-8.82 23.521a138.19 138.19 0 0 0-87.471 80.856c-4.043-6.248 15.804-94.087 96.292-104.38l-.001.003Zm-261.88 58.813a51.922 51.922 0 0 0-36.72 15.21 51.92 51.92 0 0 0-15.209 36.72 51.927 51.927 0 0 0 32.057 47.977 51.93 51.93 0 1 0 19.873-99.907h-.001Zm59.191 141.24a40.134 40.134 0 0 0-28.375 11.753 40.134 40.134 0 0 0-11.753 28.375 40.12 40.12 0 0 0 11.754 28.374 40.137 40.137 0 0 0 28.374 11.752 40.126 40.126 0 0 0 0-80.254Zm357.2 105.67a24.548 24.548 0 1 0 0 49.096 24.548 24.548 0 0 0 0-49.096Zm-307.89 15.494a29.267 29.267 0 0 0-29.269 29.27 29.267 29.267 0 0 0 18.069 27.042 29.267 29.267 0 0 0 38.243-15.841 29.267 29.267 0 0 0-15.841-38.243 29.267 29.267 0 0 0-11.201-2.228h-.001Zm292.59 56.688a19.824 19.824 0 0 0-14.02 5.808 19.824 19.824 0 0 0 0 28.04 19.829 19.829 0 0 0 33.847-14.02 19.827 19.827 0 0 0-19.827-19.828Z" fill="#fff"/></g><defs><clipPath id="a"><path fill="#fff" d="M0 0h1024v1024H0z"/></clipPath></defs></svg>