<svg width="1024" height="1024" fill="none" xmlns="http://www.w3.org/2000/svg"><g clip-path="url(#a)"><path d="M512 1024c282.77 0 512-229.23 512-512S794.77 0 512 0 0 229.23 0 512s229.23 512 512 512Z" fill="#BA6561"/><path d="M644.57 396.14c11.634 0 20.2 3 25.7 9s8.25 15.407 8.25 28.22v64.86h-22.74v-10.94a31.585 31.585 0 0 1-10.53 10 26.547 26.547 0 0 1-13.37 3.51c-8.093 0-14.426-2.59-19-7.77-4.56-5.18-6.77-12.57-6.77-21.8 0-10 3.334-17.87 10-23.61 6.667-5.74 16.18-9.123 28.54-10.15l10.25-.76v-5.87c0-5.933-.886-10.29-2.66-13.07-1.78-2.78-4.61-4.18-8.53-4.18-3.54 0-6.256 1.074-8.15 3.22-1.89 2.15-3.22 5.56-4 10.25l-22.38-1.9c1.52-9.866 5.167-17.17 10.94-21.91 5.76-4.75 14-7.11 24.48-7.11l-.03.01Zm10.25 56.32-7.58.76c-5.69.51-10.09 2.15-13.25 4.93s-4.65 6.51-4.65 11.19c0 4.17.88 7.37 2.67 9.57s4.35 3.32 7.77 3.32a12.997 12.997 0 0 0 10.91-5.41c2.72-3.606 4.08-8.506 4.08-14.7v-9.67l.05.01Zm-145.46-56.32c11.887 0 20.834 4.107 26.84 12.32 6.007 8.214 9.007 20.35 9 36.41v9.67h-50.83c.25 19.22 5.18 28.82 14.6 28.82 3.8 0 6.63-1.16 8.53-3.5 1.9-2.34 3.16-6.29 3.8-11.86h23.52c-1.02 10.874-4.59 19.124-10.71 24.75-6.12 5.627-14.623 8.44-25.51 8.44-13.14 0-22.873-4.223-29.2-12.67-6.32-8.47-9.48-21.4-9.48-39s3.34-30.72 10-39.82c6.66-9.1 16.52-13.59 29.41-13.59l.03.03Zm-.77 17.45a10.603 10.603 0 0 0-10 6c-2.14 4-3.473 10.607-4 19.82h26.93c0-8.986-1.043-15.513-3.13-19.58-2.1-4.06-5.34-6.16-9.77-6.16l-.03-.08Zm-82.29-17.45c11.887 0 20.834 4.107 26.84 12.32 6.007 8.214 9.007 20.35 9 36.41v9.67h-50.83c.25 19.22 5.18 28.82 14.6 28.82 3.8 0 6.63-1.16 8.53-3.5 1.9-2.34 3.17-6.29 3.8-11.86h23.52c-1.02 10.874-4.59 19.124-10.71 24.75-6.12 5.627-14.623 8.44-25.51 8.44-13.14 0-22.873-4.223-29.2-12.67-6.32-8.47-9.48-21.4-9.48-39s3.34-30.72 10-39.82c6.66-9.1 16.51-13.65 29.4-13.65l.04.09Zm-.77 17.45a10.603 10.603 0 0 0-10 6c-2.14 4-3.473 10.607-4 19.82h26.93c0-8.986-1.043-15.513-3.13-19.58-2.1-4.06-5.34-6.16-9.77-6.16l-.03-.08ZM256 362.91v135.41h26.75v-55h42v-23.9h-42V386.8h45.13v-23.89H256Zm78.9 135.2v-99.05h24.27v13.28a31.844 31.844 0 0 1 9.48-11.1 19.827 19.827 0 0 1 11.52-3.89c2.306.051 4.597.387 6.82 1l-2.84 22.76a29.758 29.758 0 0 0-7.4-.76 15.839 15.839 0 0 0-12 5.13 17.819 17.819 0 0 0-4.84 12.7v59.93H334.9Zm229.28 0V386.6h-30.73v-23.9h88.2v23.9h-30.74v111.52l-26.73-.01Zm177.33 0-16.31-32.62-15.55 32.62H685l27.87-50.26-26.17-48.74h26.49l14.22 30 14.6-30h24.66l-26.93 47.42L768 498.11h-26.49Zm-224.18 24.36H485.9l-37.55 135.41h26.17l7.39-30.72h37.93l7 30.72h27.07l-36.58-135.41ZM487 605.11l14-59 13.65 59H487Zm-166.34-82.64h26.74v86.86c0 16.814-3.916 29.68-11.75 38.6-7.833 8.92-19.166 13.377-34 13.37-14.793 0-26.126-4.456-34-13.37-7.873-8.913-11.756-21.78-11.65-38.6v-86.86h26.74v88.76c0 8.853 1.55 15.427 4.65 19.72 3.09 4.28 7.87 6.45 14.32 6.45s11.21-2.15 14.29-6.4c3.08-4.25 4.65-10.87 4.65-19.72v-88.81h.01Zm69.79 75.67c-10.74-3.153-18.64-7.926-23.7-14.32-5.06-6.393-7.59-14.77-7.59-25.13 0-12 3.92-21.606 11.76-28.82 7.84-7.213 18.2-10.816 31.08-10.81 12.267 0 21.814 3.097 28.64 9.29 6.827 6.193 11.13 15.744 12.91 28.65l-25.42 3.42c-1.266-7.087-3.16-12.116-5.68-15.09-2.52-2.973-6.25-4.46-11.19-4.46-4.926 0-8.723 1.42-11.39 4.26-2.66 2.84-4 7-4 12.67 0 4.667 1 8.304 3 10.91 2 2.607 5.48 4.66 10.44 6.16l14.41 4.61c7.707 2.407 13.9 5.407 18.58 9a32.358 32.358 0 0 1 10.25 13.19c2.17 5.18 3.22 11.39 3.22 18.59 0 12.667-3.887 22.687-11.66 30.06-7.77 7.39-18.31 11-31.71 11-28.2 0-43.19-14.67-45.15-44h26.56c.58 7.72 2.43 13.34 5.4 16.87 2.97 3.53 7.49 5.31 13.56 5.31 5.18 0 9.2-1.55 12.09-4.65 2.89-3.1 4.26-7.56 4.26-13.37 0-5.18-1.17-9.29-3.46-12.32-2.29-3.03-6-5.3-11.09-6.82l-14-4.17-.12-.03Zm177 4.43h200.58V578h-207.6l7.02 24.57Zm-15.66-54.75H768v-24.59H544.78l7.01 24.59Zm24.78 86.88 7 24.59H768V634.7H576.57Z" fill="#fff"/></g><defs><clipPath id="a"><path fill="#fff" d="M0 0h1024v1024H0z"/></clipPath></defs></svg>