<svg width="1024" height="1024" fill="none" xmlns="http://www.w3.org/2000/svg"><g clip-path="url(#a)"><path d="M512 1024c282.77 0 512-229.23 512-512S794.77 0 512 0 0 229.23 0 512s229.23 512 512 512Z" fill="#FF837D"/><path d="M506 417.5v155.2h-45.8l-.3-127 19.8-4.7-5.8-23.4H506v-.1Zm-185.2 33.7c19-.8 46.6-2.1 64 0 22.1 2.6 51.1 8.4 53.5 39.5 1.1 14.8-4 27.4-24.8 44l40.6 47.4c-10.8 11.1-23.2 21.9-36.1 32.4l-48.2-80.1c10.5-8.2 23.2-20 23.2-34 0-13.4-12.6-19.8-17.1-19.8h-9.7v130.7h-45.3V451.2h-.1Zm238.7 159.6V488.1l-44.3 1.1v-40.6h134.9v40.6l-44-1.1v122.8h-46.6v-.1Zm95.1-160.9v-40.3c15.5 0 59.8-.8 120.9 2.6L711 532.1c14 .3 33.7.8 60.6-1.1v40.3H645.7l63.7-122.8c-14.8.3-31.9.3-54.8 1.4Zm-351.2-14.8v14.5h-47.9V486l44-.3v37.4H256v63h-47.2V412.7l94.6-1.8v24.2Zm491.1 80.1 30.6 1.1 12.1-78.8-37.9-3.2-4.8 80.9Zm34.5 30.3-23.9 19.4-19.4-23.9 23.9-19.4 19.4 23.9Z" fill="#fff"/></g><defs><clipPath id="a"><path fill="#fff" d="M0 0h1024v1024H0z"/></clipPath></defs></svg>