<svg width="1024" height="1024" fill="none" xmlns="http://www.w3.org/2000/svg"><g clip-path="url(#a)"><path d="M512 1024c282.77 0 512-229.23 512-512S794.77 0 512 0 0 229.23 0 512s229.23 512 512 512Z" fill="#F8C18C"/><path d="M567.1 523.7h-41.3v-68.8h41.3v68.8Zm0 96.3h-41.3v-68.8h41.3V620Zm-68.8-96.3H457v-68.8h41.3v68.8Zm0 96.3H457v-68.8h41.3V620Zm96.3-178.8c0-7.6-6.2-13.8-13.8-13.8H443.3c-7.6 0-13.8 6.2-13.8 13.8v222.4c26.5-1.5 54.2-2.3 82.5-2.3 28.3 0 56 .8 82.5 2.5V441.2h.1Zm55 110h41.3V620h-41.3v-68.8Zm0-96.3h41.3v68.8h-41.3v-68.8Zm0-96.3h41.3v68.8h-41.3v-68.8Zm68.8 192.6h41.3V620h-41.3v-68.8Zm0-96.3h41.3v68.8h-41.3v-68.8Zm0-96.3h41.3v68.8h-41.3v-68.8Zm-96.3-13.7v320.7c64.1 5.1 120.9 14.7 164.9 27.2v-348c0-7.6-6.2-13.8-13.8-13.8H635.8c-7.5.1-13.7 6.3-13.7 13.9ZM374.5 620h-41.3v-68.8h41.3V620Zm-68.7 0h-41.3v-68.8h41.3V620Zm-55-96.3c-7.6 0-13.8 6.2-13.8 13.8v155.3c44-12.5 100.8-22.1 165-27.2v-128c0-7.6-6.2-13.8-13.8-13.8H250.8v-.1Z" fill="#fff"/></g><defs><clipPath id="a"><path fill="#fff" d="M0 0h1024v1024H0z"/></clipPath></defs></svg>