<svg width="1024" height="1024" fill="none" xmlns="http://www.w3.org/2000/svg"><g clip-path="url(#a)"><path d="M512 1024c282.77 0 512-229.23 512-512S794.77 0 512 0 0 229.23 0 512s229.23 512 512 512Z" fill="#F8C18C"/><path d="M559.32 492.24h.46a16.894 16.894 0 0 0 16.43-17.36 17.168 17.168 0 0 0-17.3-16.47H419.54a40.617 40.617 0 0 1 40.62-40.61h101.71a57.55 57.55 0 0 1 0 115.09H476.4a17.579 17.579 0 0 0-17.58 17.58v16.29h131l-21.55 40.62h-152V546.4a54.15 54.15 0 0 1 54.15-54.15l88.9-.01ZM274.7 566.61a54.066 54.066 0 1 1 0-108.13l109.75-.08v-40.63l-112.34.08a94.69 94.69 0 1 0 0 189.38l112.34.09V492.24H262.59v40.62h79.35v33.84l-67.24-.09Zm461.57 29.19a11.53 11.53 0 0 1-11.52 11.53h-6.55a11.536 11.536 0 0 1-8.372-3.253 11.548 11.548 0 0 1-3.498-8.272 11.529 11.529 0 0 1 11.87-11.525h6.54a11.534 11.534 0 0 1 8.152 3.37 11.53 11.53 0 0 1 3.378 8.15Zm-11.76 6.71a6.71 6.71 0 0 0 0-13.42h-6.07a6.712 6.712 0 0 0-6.71 6.71 6.71 6.71 0 0 0 6.71 6.71h6.07Zm-45.72-6.71a11.533 11.533 0 0 1 11.53-11.52h13.17v4.82h-12.94a6.708 6.708 0 0 0 0 13.41h12.93v4.82h-13.17a11.53 11.53 0 0 1-11.53-11.52l.01-.01Zm89.36-11.53 8.54 23h-5.41l-6.3-17.7-5.61 15.43h-5.19l-5.61-15.43-6.3 17.7h-5.42l8.54-23h6.36l5 13.81 5-13.81h6.4Zm-98.45 19.9a3.151 3.151 0 1 0 3.15-3.15 3.144 3.144 0 0 0-3.16 3.16l.01-.01Zm88.8-164.55a46.88 46.88 0 0 0-13-15.78 36.314 36.314 0 0 0-22.11-7.17 34.59 34.59 0 0 0-21.53 7.17 46.856 46.856 0 0 0-13 15.78c-35.51 67.63-88.66 167.71-88.66 167.71h48.52l74.7-143.13 35.11 67.26h-54.12l19.06 36.39h54l20.6 39.47h48.51S794 507.26 758.5 439.62Z" fill="#fff"/></g><defs><clipPath id="a"><path fill="#fff" d="M0 0h1024v1024H0z"/></clipPath></defs></svg>