<svg width="1024" height="1024" viewBox="0 0 1024 1024" fill="none" xmlns="http://www.w3.org/2000/svg">
<g clip-path="url(#clip0_2_2256)">
<path d="M512 1024C794.77 1024 1024 794.77 1024 512C1024 229.23 794.77 0 512 0C229.23 0 0 229.23 0 512C0 794.77 229.23 1024 512 1024Z" fill="#56595B"/>
<path d="M670.15 272.82C668.75 265.44 678.38 262.49 677.78 247.97C677 214.62 630 222.57 641.45 261C658.78 323.93 648.73 367.67 637.77 389.72C632.32 400.72 621.86 387.6 620.13 379.49C606.92 317.28 577.76 301.01 593.53 258.36C605.95 224.82 553.87 211.3 557.19 259C557.52 269.33 573.09 331.1 571.9 367.4C571.77 371.79 560.67 374.81 555.76 372.95C533.14 364.42 510.49 361.22 487.87 360.26C388.5 360.26 307.87 440.93 307.87 540.26C307.87 614.79 345 673.81 405.55 698.65C392.4 717.25 395.05 735.55 383.36 758.93C482.36 750.5 502.82 690.55 564.96 690.75C622.35 690.69 618.67 691.19 676.12 690.35C687.68 690.15 682.56 666.4 679.97 661.59C616.37 543.46 687.18 453.19 687.97 421.97C689.34 369.56 683.12 342 670.15 272.82ZM600.89 637.64C557.29 628.64 485.25 683.84 440.38 675.64C416.38 671.03 397.14 584.75 381.23 545.73C376.23 534.01 369.23 529.52 363.8 520.92C358.8 513.01 362.6 503.15 361.28 498.17C353.41 468.55 441.95 422.45 520.33 410.33L588.6 413.75L593.49 433.18L614.72 437.87L609.14 475.57L510.87 461.57C474.31 475.89 448.63 479.03 420.57 504.94C426.57 514.1 422.79 526.79 428.98 535.94C431.13 539.17 441.56 540.3 443.68 543.32C439.97 552.82 453.12 575.64 454.41 581.68L461.75 626.98C495.44 615.09 539.8 594.07 566.17 591.51C586.17 591.88 570.72 558.73 566.67 540.36C561.73 517.36 526.82 537.97 496.86 550.47L511.74 582.22L499.74 599.55L494.29 586.86L486.19 593.7L463.8 531.9L480.8 510.97L500.07 516.72C520.56 507.79 551.61 483.34 575.83 493.72C581.07 495.97 581.41 500.72 583.49 509.03L594.86 514C601.46 550.63 650.65 647.88 600.89 637.64Z" fill="white"/>
</g>
<defs>
<clipPath id="clip0_2_2256">
<rect width="1024" height="1024" fill="white"/>
</clipPath>
</defs>
</svg>
