<svg width="1024" height="1024" viewBox="0 0 1024 1024" fill="none" xmlns="http://www.w3.org/2000/svg">
<g clip-path="url(#clip0_2_2259)">
<path d="M512 1024C794.77 1024 1024 794.77 1024 512C1024 229.23 794.77 0 512 0C229.23 0 0 229.23 0 512C0 794.77 229.23 1024 512 1024Z" fill="#F9DE81"/>
<path d="M559.14 227H658.07V292.95H691.07C691.13 303.95 690.97 314.95 691.14 325.95H724.05C724.1 336.95 723.95 347.95 724.12 358.95H757.03V592.15C746.03 592.21 735.03 592.05 724.03 592.22V658.1C713.03 658.15 702.03 658 691.03 658.17V691.08C680.03 691.13 669.03 690.98 658.03 691.15V724.06H595.22C594.16 724.06 593.12 724.06 592.07 724.14V757.05H358.91C358.85 746.05 359.01 735.05 358.84 724.05H292.96C292.9 713.05 293.06 702.05 292.89 691.05H259.98C259.92 680.05 260.08 669.05 259.91 658.05H227V559.12H399C408.43 559.07 417.85 559.22 427.28 559.05V526.14H523.8C524.58 526.14 525.38 526.14 526.17 526.07V493.16C537.17 493.1 548.17 493.26 559.17 493.09V394.23C570.17 394.17 581.17 394.33 592.17 394.16V292.94H559.17C559.143 270.98 559.133 249 559.14 227ZM592.14 260V292.91C603.14 293.08 614.14 292.91 625.14 292.98V259.98L592.14 260ZM625.14 326V394.31H592.14V493.24H559.14V526.24H526.14V559.24H427.22V592.24H260V658.19H293V691.19H359V724.19H592.11V691.19H658.06V658.19H691.06V592.24H724.06V359.04H691V326.04H625L625.14 326Z" fill="white"/>
</g>
<defs>
<clipPath id="clip0_2_2259">
<rect width="1024" height="1024" fill="white"/>
</clipPath>
</defs>
</svg>
