<svg width="1024" height="1024" fill="none" xmlns="http://www.w3.org/2000/svg"><g clip-path="url(#a)"><path d="M512 1024c282.77 0 512-229.23 512-512S794.77 0 512 0 0 229.23 0 512s229.23 512 512 512Z" fill="#8C72BD"/><path d="M512 256c-140.8 0-256 115.2-256 256s115.2 256 256 256 256-115.2 256-256-115.2-256-256-256ZM369.4 654.6c-38.4-38.4-58.5-89.6-58.5-139l199.3 197.5c-51.2-1.8-102.4-20.1-140.8-58.5Zm186.5 53.1L316.3 468.1c20.1-89.6 100.6-157.3 195.7-157.3 67.7 0 126.2 32.9 162.7 82.3l-27.4 23.8c-31.1-42.1-80.5-69.5-135.3-69.5-71.3 0-131.7 45.7-155.4 109.7l210.3 210.3c53-18.3 93.3-64 106.1-118.9h-87.8V512h128c-.1 95.1-67.7 175.5-157.3 195.7Z" fill="#fff"/></g><defs><clipPath id="a"><path fill="#fff" d="M0 0h1024v1024H0z"/></clipPath></defs></svg>