<svg width="1024" height="1024" viewBox="0 0 1024 1024" fill="none" xmlns="http://www.w3.org/2000/svg">
<g clip-path="url(#clip0_2_2271)">
<path d="M512 1024C794.77 1024 1024 794.77 1024 512C1024 229.23 794.77 0 512 0C229.23 0 0 229.23 0 512C0 794.77 229.23 1024 512 1024Z" fill="#F8C18C"/>
<path d="M696.89 290.49C699.5 290.49 760.44 290.63 760.44 301.58L746.33 314.64L732.26 327.61C703.282 356.621 679.287 390.211 661.24 427.03C704.03 412.74 728.86 405.86 737.02 405.86C737.16 446.68 713.61 482.37 703.57 497.58C700.78 501.8 698.81 504.82 699.08 505.32L718.23 504.27L735.92 503.22C736.06 514.77 723.64 543.54 709.48 564.89C714.84 575.43 717.68 587.89 717.68 600.76C717.68 636.63 695.69 665.82 668.61 665.82C665.13 665.82 661.65 665.32 658.26 664.35C630.5 718.46 567.73 753.46 498.54 753.46C429.35 753.46 365.49 717.91 337.95 662.84C333.41 664.86 328.51 665.82 323.52 665.82C296.53 665.82 274.5 636.63 274.5 600.81C274.5 579.23 282.52 559.12 295.99 546.98C280.23 505.52 274.5 455.48 274.5 431.98L289.12 441.6L317.94 461.07C317.76 413.42 337.46 342.91 373.97 306.35L376.35 315.06C379.65 344.06 384.78 371.78 391.65 397.58C476.23 329.5 605.29 297.43 690.05 290.64C691.1 290.55 693.53 290.5 696.88 290.5M696.88 263.01C690.83 263.01 688.63 263.19 687.9 263.24C610.15 269.47 496.57 296.23 409.47 351.25C407.13 338.51 405.21 325.41 403.7 311.99C403.55 310.6 403.29 309.22 402.92 307.87L400.54 299.16C397.28 287.2 386.41 278.91 374.01 278.91C366.82 278.91 359.76 281.75 354.54 286.97C323.75 317.8 303.73 367.15 295.21 412.69L289.67 409.02C285.531 406.29 280.73 404.734 275.776 404.515C270.823 404.297 265.903 405.425 261.54 407.78C257.148 410.11 253.476 413.594 250.917 417.857C248.358 422.119 247.011 426.999 247.02 431.97C247.02 451.63 250.91 497.12 264.89 541.1C253.53 557.59 247.02 578.76 247.02 600.8C247.02 651.84 281.38 693.35 323.58 693.35H323.99C359.91 747.18 426.16 781 498.64 781C571.12 781 637.51 747.05 673.29 693.17C713.38 690.28 745.27 649.97 745.27 600.8C745.27 589.3 743.53 578.03 740.23 567.54C751.55 547.75 763.69 520.67 763.5 502.98C763.436 497.65 761.826 492.453 758.865 488.02C755.904 483.588 751.72 480.11 746.82 478.01C756.26 458.4 764.69 433.48 764.6 405.8C764.56 390.65 752.26 378.39 737.11 378.4C733.9 378.4 729.64 378.77 722.68 380.19C731.52 368.74 741.1 357.79 751.41 347.43L765.06 334.83L779.17 321.73C784.77 316.52 787.95 309.22 787.97 301.57C787.97 294.1 785.04 275.96 758.1 268.67C751.36 266.84 742.89 265.51 732.17 264.55C715.45 263.04 698.72 262.99 696.89 262.99L696.88 263.01ZM582.02 554.26C591.12 554.05 598.66 561.25 598.88 570.34C599.09 579.44 591.89 586.98 582.8 587.2H582.02C572.92 587.41 565.37 580.21 565.16 571.12C564.95 562.02 572.15 554.48 581.24 554.26H582.02ZM616.66 589.81C625.76 589.6 633.3 596.8 633.52 605.89C633.73 614.99 626.53 622.53 617.44 622.75H616.66C607.56 622.96 600.02 615.76 599.8 606.67C599.59 597.57 606.79 590.03 615.88 589.81H616.66ZM546.42 589.81C555.52 589.6 563.06 596.8 563.28 605.89C563.49 614.99 556.29 622.53 547.2 622.75H546.42C537.32 622.96 529.78 615.76 529.56 606.67C529.35 597.57 536.55 590.03 545.64 589.81H546.42ZM581.52 624.91C590.6 624.91 597.97 632.27 597.97 641.36C597.97 650.45 590.61 657.81 581.52 657.81C572.43 657.81 565.03 650.43 565.03 641.36C565.03 632.29 572.45 624.91 581.52 624.91ZM582.02 540.52C565.34 540.52 551.78 554.08 551.78 570.71C551.78 572.73 551.96 574.74 552.38 576.67C550.46 576.3 548.44 576.07 546.42 576.07C529.74 576.07 516.18 589.63 516.18 606.26C516.18 622.89 529.74 636.5 546.42 636.5C548.25 636.5 550.04 636.32 551.78 636.04C551.46 637.78 551.32 639.57 551.32 641.4C551.32 658.08 564.88 671.59 581.56 671.59C598.24 671.59 611.8 658.03 611.8 641.4C611.8 639.57 611.62 637.78 611.34 636.04C613.08 636.36 614.87 636.5 616.7 636.5C633.38 636.5 646.94 622.94 646.94 606.26C646.94 589.58 633.38 576.07 616.7 576.07C615 576.07 613.36 576.21 611.71 576.48C612.08 574.6 612.26 572.68 612.26 570.71C612.26 554.08 598.7 540.52 582.02 540.52ZM576.16 611.67C576.48 609.93 576.62 608.14 576.62 606.31C576.62 604.29 576.44 602.28 576.02 600.4C577.94 600.77 579.96 601 581.98 601C583.68 601 585.32 600.86 586.93 600.59C586.56 602.47 586.38 604.39 586.38 606.32C586.38 608.25 586.56 609.94 586.84 611.68C585.1 611.36 583.31 611.22 581.48 611.22C579.69 611.17 577.91 611.36 576.17 611.68L576.16 611.67ZM431.01 555.87C435.45 555.87 439.03 560.09 439.03 565.26V591.7H464.6C469.82 591.7 474.04 595.32 474.04 599.72V614.98C474.04 619.42 469.82 623 464.6 623H439.03V648.52C439.03 653.7 435.46 657.91 431.01 657.91H415.75C411.31 657.91 407.73 653.69 407.73 648.52V623H381.25C376.07 623 371.86 619.43 371.86 614.98V599.72C371.86 595.32 376.08 591.7 381.25 591.7H407.73V565.26C407.73 560.08 411.3 555.87 415.75 555.87H431.01ZM431.01 542.13H415.75C403.75 542.13 393.99 552.53 393.99 565.27V577.96H381.25C368.51 577.96 358.11 587.72 358.11 599.72V614.98C358.11 626.98 368.51 636.74 381.25 636.74H393.99V648.51C393.99 661.25 403.75 671.65 415.75 671.65H431.01C443.01 671.65 452.77 661.25 452.77 648.51V636.74H464.59C477.37 636.74 487.77 626.98 487.77 614.98V599.72C487.77 587.72 477.37 577.96 464.59 577.96H452.77V565.27C452.77 552.49 443.01 542.13 431.01 542.13Z" fill="white"/>
</g>
<defs>
<clipPath id="clip0_2_2271">
<rect width="1024" height="1024" fill="white"/>
</clipPath>
</defs>
</svg>
