<svg width="1024" height="1024" fill="none" xmlns="http://www.w3.org/2000/svg"><g clip-path="url(#a)"><path d="M512 1024c282.77 0 512-229.23 512-512S794.77 0 512 0 0 229.23 0 512s229.23 512 512 512Z" fill="#98DC9A"/><path d="M762.22 350.27c-100.92 5.34-160.75 8-212 8.48v114.12l-16-7.94-.1-106.11c-58.88 0-110.69-3.1-209.06-8.55-12.31-.13-29.47-2.44-47.9-2.49-47.11-.13-110.23 33.54-106.74 118C175.84 597.63 296 609.86 344 610.92c5.27 24.74 61.79 110.07 103.63 114.56H631c109.93-8.23 192.25-373.82 131.22-375.21Zm-546 117.38c-4.69-36.57 11.8-74.84 73.19-73.2C296.09 462 307 501.55 329 561.95c-56.18-7.43-104-25.78-112.78-94.3Zm415.58 83.44-51.32 105.62a27.047 27.047 0 0 1-25.947 15.184 27.062 27.062 0 0 1-10.213-2.674L438.7 617.9a27.062 27.062 0 0 1-13.746-15.489 27.046 27.046 0 0 1 1.236-20.671l51.32-105.62a27.024 27.024 0 0 1 6.377-8.414 27.042 27.042 0 0 1 29.783-4.096l105.62 51.32a27.06 27.06 0 0 1 13.746 15.488 27.048 27.048 0 0 1-1.236 20.672Zm-73.22 64.71a17.164 17.164 0 0 1-5.867 19.569 17.162 17.162 0 0 1-26.668-8.674 17.156 17.156 0 0 1 6.768-19.276 17.152 17.152 0 0 1 10.347-2.939l.36-.74c14.11-28.93 21.88-44.87 19.26-52.35-2.08-5.92-12.58-10.88-30-19.11L530 531a16.995 16.995 0 0 1-13 4.18l-23 47.15a17.194 17.194 0 0 1 4.986 10.454 17.195 17.195 0 0 1-12.048 18.183 17.2 17.2 0 1 1-5.168-33.637l23.62-48.39a17.114 17.114 0 0 1-2.125-18.36 17.116 17.116 0 0 1 6.497-7.108A17.114 17.114 0 0 1 519.07 501l13.81-28.28 11.85 5.79-13.58 27.81a17.088 17.088 0 0 1 4.68 13l2.55 1.21c21.17 10 32.83 15.53 36.72 26.59 4.43 12.62-2.67 27.19-19.84 62.39l-.24.48a17.09 17.09 0 0 1 3.56 5.81Z" fill="#fff"/></g><defs><clipPath id="a"><path fill="#fff" d="M0 0h1024v1024H0z"/></clipPath></defs></svg>