<svg width="1024" height="1024" fill="none" xmlns="http://www.w3.org/2000/svg"><g clip-path="url(#a)"><path d="M512 1024c282.77 0 512-229.23 512-512S794.77 0 512 0 0 229.23 0 512s229.23 512 512 512Z" fill="#FF837D"/><path d="m759.49 470.65-.72-1.84-69.69-181.87a18.16 18.16 0 0 0-7.17-8.64 18.316 18.316 0 0 0-23.41 3.11 18.324 18.324 0 0 0-4.1 7.42l-47.05 144H416.81l-47.05-144a18.292 18.292 0 0 0-6.18-9.41 18.655 18.655 0 0 0-21.33-1.15 18.306 18.306 0 0 0-7.17 8.64l-69.83 181.8-.69 1.84a129.397 129.397 0 0 0 42.92 149.56l.24.19.64.45 106.16 79.5L467 740l32 24.15a21.51 21.51 0 0 0 26 0L557 740l52.52-39.75 106.8-80 .27-.21a129.46 129.46 0 0 0 42.9-149.39Z" fill="#fff"/></g><defs><clipPath id="a"><path fill="#fff" d="M0 0h1024v1024H0z"/></clipPath></defs></svg>