<svg width="1024" height="1024" fill="none" xmlns="http://www.w3.org/2000/svg"><g clip-path="url(#a)"><path d="M512 1024c282.77 0 512-229.23 512-512S794.77 0 512 0 0 229.23 0 512s229.23 512 512 512Z" fill="#8C72BD"/><path d="M647.18 369.87c-43.42-40.73-94.39-78.54-151.34-99-28.48-10.22-58.79-15.8-89.67-14.76a212.573 212.573 0 0 0-93 24.9c-6.36 3.36-14.76 16-14.23 25.22.53 9.22 3.82 12.59 5.53 14.82 3.41 4.47 4.83 5 6.16 6a58.492 58.492 0 0 0 6.69 4.25c4.51 2.58 10.16 5.52 17 9 13.76 6.92 32.07 15.71 50.53 24.42 20.84 9.84 27.63 12.88 42 19.48l-118.28 135a26.598 26.598 0 0 0-7.138 19.492 26.594 26.594 0 0 0 18.247 23.93 26.606 26.606 0 0 0 20.687-1.724 26.597 26.597 0 0 0 8.204-6.698l141.67-161.63a26.619 26.619 0 0 0 5.987-23.1 26.62 26.62 0 0 0-14.937-18.61s-37.18-17-73.69-34.22c-4.53-2.14-7.8-3.8-12.23-5.91 27.55-3.22 54.86.32 82.49 10.24 46.59 16.73 92.79 50.08 132.92 87.71C683.5 476.88 729.89 549.43 739 564l-17.93 47.28a485.808 485.808 0 0 1-81.44-10.11c-25.46-5.36-51.17-13.44-70.36-24.11-19.19-10.67-30.66-22.79-34.75-36.47a26.626 26.626 0 0 0-12.864-15.797 26.633 26.633 0 0 0-20.266-2.073 26.626 26.626 0 0 0-15.797 12.864 26.622 26.622 0 0 0-2.073 20.266c7.05 23.58 22.45 41.7 40.94 55.51-4.1 9.44-9.08 21.29-14.07 34.15-11.87 30.63-24.76 64.86-24.72 96a26.61 26.61 0 0 0 7.812 18.8 26.6 26.6 0 0 0 45.388-18.86c0-12.26 10-48.09 21.13-76.68 4-10.32 8-20 11.48-28.07 18.71 7.33 38.26 12.59 57.18 16.57C686.09 665.26 739 665.3 739 665.3a26.614 26.614 0 0 0 25-17.17l29.69-78.3a26.617 26.617 0 0 0-2.14-23.24S734 451.32 647.18 369.87Z" fill="#fff"/></g><defs><clipPath id="a"><path fill="#fff" d="M0 0h1024v1024H0z"/></clipPath></defs></svg>