<svg width="1024" height="1024" fill="none" xmlns="http://www.w3.org/2000/svg"><g clip-path="url(#a)"><path d="M512 1024c282.77 0 512-229.23 512-512S794.77 0 512 0 0 229.23 0 512s229.23 512 512 512Z" fill="#FF837D"/><path d="M513.44 768a257.597 257.597 0 0 1-182.12-75.27c-74.86-74.86-96.001-189.61-53.231-286.66-15.58-21.59-18.999-49.14-9.199-74.47a78.596 78.596 0 0 1 61.599-49.66l121.94-19.17a256.08 256.08 0 0 1 240.191 68.66C768.15 407 789 522.49 745 620c15.049 21.63 18.139 49 8.169 74a78.677 78.677 0 0 1-61.349 49l-132.94 21a258.71 258.71 0 0 1-45.44 4Zm-2.291-499.5a249.258 249.258 0 0 0-56.34 6.5l-122.38 19.24a66.245 66.245 0 0 0-51.929 41.87c-8.7 22.37-5.091 46.76 9.649 65.26l2.38 3-1.589 3.48c-42.66 93-22.891 204 49.179 276.08A245.477 245.477 0 0 0 556.82 751.7l133.06-20.92a66.277 66.277 0 0 0 51.719-41.33c8.81-22.09 5.551-46.35-8.719-64.89l-2.32-3 1.609-3.43c43.79-93.51 24.361-205.19-48.349-277.9a243.442 243.442 0 0 0-79.173-53.106 243.428 243.428 0 0 0-93.498-18.624ZM740.45 547.83a234.615 234.615 0 0 0-.291-70.84A231.916 231.916 0 0 0 510.63 281.06a235.138 235.138 0 0 0-53.21 6.1l-.44.1-.451.07-122.17 19.22a53.757 53.757 0 0 0-42.789 35.5A53.103 53.103 0 0 0 301.91 396l5.51 6.19-3.57 7.47a234.809 234.809 0 0 0-19.91 138.4 231.941 231.941 0 0 0 229.39 195 235.38 235.38 0 0 0 41.37-3.67h.26l133-20.91a53.786 53.786 0 0 0 42.62-35 53.133 53.133 0 0 0-9.58-53.73l-5.35-6.22 3.6-7.37a233.912 233.912 0 0 0 21.19-68.33h.01ZM473.39 710.74A202.703 202.703 0 0 1 368.999 655c-72.89-72.89-78.94-187.45-18.35-268l-16.87-5.55a25.539 25.539 0 0 1-10.079-6.2c-14.87-14.87-6.441-40.43 14.409-43.71l140.17-22-22 140c-3.28 20.91-28.9 29.36-43.82 14.46a25.655 25.655 0 0 1-6.12-9.82l-5.16-15.08c-32.4 51.73-26.29 120.56 18.47 165.31a132.16 132.16 0 0 0 63.16 35.29l-1.919.34c53.159 6.27 49.96 73.82-7.5 70.7Zm217.43-71.81a26.127 26.127 0 0 1 10.31 6.35c15.21 15.21 6.59 41.37-14.74 44.72l-143.341 22.55 22.521-143.27c3.36-21.4 29.58-30 44.83-14.79a26.229 26.229 0 0 1 6.259 10.05l6.69 19.56c31.73-51.62 25.421-119.88-19.06-164.36a132.179 132.179 0 0 0-66.919-36.13l.5-.09c-54.27-6.41-49.81-76.66 11.15-70.43a202.713 202.713 0 0 1 105.87 56c71.93 71.93 78.759 184.43 20.709 264.77l15.221 5.07Z" fill="#fff"/></g><defs><clipPath id="a"><path fill="#fff" d="M0 0h1024v1024H0z"/></clipPath></defs></svg>