<svg width="1024" height="1024" fill="none" xmlns="http://www.w3.org/2000/svg"><g clip-path="url(#a)"><path d="M512 1024c282.77 0 512-229.23 512-512S794.77 0 512 0 0 229.23 0 512s229.23 512 512 512Z" fill="#9ABEFF"/><path d="M517.1 475.4v87.8h145.2c-5.9 37.7-43.9 110.4-145.2 110.4-87.4 0-158.7-72.3-158.7-161.6s71.4-161.6 158.7-161.6c49.7 0 83 21.1 102.1 39.4l69.4-66.9C644 281.3 586.2 256 517.1 256c-141.5 0-256 114.5-256 256s114.5 256 256 256c147.8 0 245.8-103.9 245.8-250.2 0-16.8-1.8-29.7-4-42.4H517.1Z" fill="#fff"/></g><defs><clipPath id="a"><path fill="#fff" d="M0 0h1024v1024H0z"/></clipPath></defs></svg>