<svg width="1024" height="1024" fill="none" xmlns="http://www.w3.org/2000/svg"><g clip-path="url(#a)"><path d="M512 1024c282.77 0 512-229.23 512-512S794.77 0 512 0 0 229.23 0 512s229.23 512 512 512Z" fill="#FF837D"/><path d="M768 511.51a892.733 892.733 0 0 1-5.18 94.8 138.36 138.36 0 0 1-47.4 84.35S680.6 716 637.64 742.17a869.508 869.508 0 0 1-82.22 43.29 116.897 116.897 0 0 1-47.4 9 119.385 119.385 0 0 1-47.4-8.73 864.266 864.266 0 0 1-82.22-43.29c-43-25.38-77.77-51.51-77.77-51.51-9.63-7.79-19.23-19.17-27.29-31.93a2.187 2.187 0 0 1 .754-3.052c.339-.197.724-.3 1.116-.298h36.24a3 3 0 0 1 2.26 1 93.783 93.783 0 0 0 11.79 11.44s30.64 22.8 68.44 45a762.584 762.584 0 0 0 72.35 37.78 105.852 105.852 0 0 0 41.71 7.61 103.599 103.599 0 0 0 41.72-7.82 767.287 767.287 0 0 0 72.35-37.78c37.81-22.8 68.44-45 68.44-45a120.5 120.5 0 0 0 41.72-73.62 772.649 772.649 0 0 0 4.56-82.74c-.65-44.76-5.21-82.54-5.21-82.54-2-25.41-21.51-58-41.06-73.61a747.113 747.113 0 0 0-68.44-44.3 762.584 762.584 0 0 0-72.35-37.78 105.841 105.841 0 0 0-41.73-7.78 103.616 103.616 0 0 0-41.72 7.82 767.287 767.287 0 0 0-72.35 37.78c-37.81 22.8-68.44 44.3-68.44 44.3a120.537 120.537 0 0 0-13.64 13.39 3.001 3.001 0 0 1-2.27 1h-36.1a2.169 2.169 0 0 1-1.104-.289 2.185 2.185 0 0 1-.786-3.011 137.791 137.791 0 0 1 29-34s34.81-24.63 77.77-50.76a869.386 869.386 0 0 1 82.22-43.29 116.897 116.897 0 0 1 47.4-9 119.399 119.399 0 0 1 47.4 9 864.266 864.266 0 0 1 82.22 43.29 848.295 848.295 0 0 1 77.77 50.76c22.22 17.92 44.44 55.24 46.66 84.35.04.09 5.23 43.38 5.97 94.66Zm-318 76.58h17.1a.893.893 0 0 0 .89-.89v-69.48a.89.89 0 0 0-.89-.89H415a.877.877 0 0 0-.89.85 296.07 296.07 0 0 1-3.78 35.51 289.166 289.166 0 0 1-8.1 33.77.894.894 0 0 0 .141.782.88.88 0 0 0 .709.358h17.52a.877.877 0 0 0 .83-.6 250.72 250.72 0 0 0 7.12-28.54 228.658 228.658 0 0 0 3.45-25.43h17.13v53.67a.891.891 0 0 0 .87.89ZM256.89 484.17h17a.893.893 0 0 0 .89-.89v-53.67h26a.87.87 0 0 0 .9-.54l6.22-14.93a.892.892 0 0 0-.079-.829.887.887 0 0 0-.731-.401h-50.2a.89.89 0 0 0-.89.89v69.49a.894.894 0 0 0 .89.88Zm322.9 103.92a.893.893 0 0 0 .89-.89v-53.67h26a.87.87 0 0 0 .9-.54l6.23-14.93a.892.892 0 0 0-.079-.829.887.887 0 0 0-.731-.401h-50.3a.89.89 0 0 0-.89.89v69.48a.892.892 0 0 0 .89.89h17.09Zm-290.16 25.63C303.27 586 313.31 561.34 327 518a.894.894 0 0 0-.436-1.071.903.903 0 0 0-.404-.099h-17.09a.902.902 0 0 0-.86.65 455.227 455.227 0 0 1-15.81 47L275 517.4a.89.89 0 0 0-.83-.58h-17.28a.886.886 0 0 0-.722.374.876.876 0 0 0-.108.806L282 588.1c-3.66 7.69-7.72 15.79-12.37 24.81a.897.897 0 0 0 .029.872.89.89 0 0 0 .761.428h18.44a.9.9 0 0 0 .77-.49Zm204.2.49h18.44a.901.901 0 0 0 .79-.49C526.7 586 536.75 561.34 550.47 518a.898.898 0 0 0-.439-1.066.892.892 0 0 0-.401-.104H532.5a.902.902 0 0 0-.86.65 455.227 455.227 0 0 1-15.81 47l-17.4-47.08a.89.89 0 0 0-.83-.58h-17.28a.886.886 0 0 0-.722.374.876.876 0 0 0-.108.806l25.92 70.09c-3.66 7.69-7.72 15.79-12.37 24.81a.889.889 0 0 0 .79 1.31Zm-124-82.78c4.647.031 9.264.752 13.7 2.14a.92.92 0 0 0 1.08-.46c1.94-3.63 4.29-8.08 6.93-13.52a.912.912 0 0 0 0-.77.995.995 0 0 0-.58-.53 76.957 76.957 0 0 0-22.36-3.44c-24.49 0-35.41 11.5-35.41 37.31 0 26.18 10.92 37.86 35.41 37.86 6.14 0 18.23-1.28 24.07-3.6a.936.936 0 0 0 .53-1.18l-5.06-14a1.003 1.003 0 0 0-.49-.53 1.004 1.004 0 0 0-.72 0 59.396 59.396 0 0 1-17.1 2.74c-11.69 0-17.26-3.14-17.26-21-.01-14.29 1.7-21.01 17.25-21.01l.01-.01Zm58.65-103.92a46.96 46.96 0 0 1 13.7 2.14.92.92 0 0 0 1.08-.46c1.94-3.63 4.29-8.08 6.93-13.52a.912.912 0 0 0 0-.77.995.995 0 0 0-.58-.53 76.957 76.957 0 0 0-22.36-3.44c-24.49 0-35.41 11.5-35.41 37.31 0 26.18 10.92 37.86 35.41 37.86 6.14 0 18.23-1.28 24.07-3.6a.936.936 0 0 0 .53-1.18l-5.06-14a1.003 1.003 0 0 0-.49-.53 1.004 1.004 0 0 0-.72 0 59.396 59.396 0 0 1-17.1 2.74c-11.69 0-17.26-3.14-17.26-21-.01-14.29 1.7-21.01 17.25-21.01l.01-.01Zm-49.24 20.73c0 27.26-9.41 37.86-33.55 37.86-23.95 0-33.27-10.6-33.27-37.86 0-26.85 9.32-37.31 33.27-37.31 24.14.01 33.55 10.47 33.55 37.32v-.01Zm-19 .27c0-20.16-3.78-21.95-14.59-21.95-10.6 0-14.31 1.79-14.31 21.95 0 18.93 3.4 22 14.31 22 11.16-.04 14.63-3.06 14.63-21.99l-.04-.01Zm279.66 68.32h-17.05a.889.889 0 0 0-.632.258.872.872 0 0 0-.258.632v40.58c.41 22.82 8.69 31.76 29.13 31.76a102.774 102.774 0 0 0 33.16-6 .9.9 0 0 0 .6-.87v-65.48a.85.85 0 0 0-.87-.89H667a.889.889 0 0 0-.632.258.872.872 0 0 0-.258.632v53.69a42.013 42.013 0 0 1-11.54 1.53c-10.34 0-13.34-2.91-13.73-15v-40.22a.882.882 0 0 0-.94-.88Z" fill="#fff"/></g><defs><clipPath id="a"><path fill="#fff" d="M0 0h1024v1024H0z"/></clipPath></defs></svg>