<svg width="1024" height="1024" fill="none" xmlns="http://www.w3.org/2000/svg"><g clip-path="url(#a)"><path d="M512 1024c282.77 0 512-229.23 512-512S794.77 0 512 0 0 229.23 0 512s229.23 512 512 512Z" fill="#F9DE81"/><path d="m798.14 529.31-579.26 60.87 7 66.48 579.26-60.88-7-66.48v.01ZM499.64 404.6a66.833 66.833 0 0 0-37.134 11.265 66.834 66.834 0 0 0-28.422 68.615 66.838 66.838 0 0 0 91.134 48.712 66.834 66.834 0 0 0 29.997-24.618 66.833 66.833 0 0 0 11.265-37.134 66.771 66.771 0 0 0-19.504-47.227 66.75 66.75 0 0 0-47.186-19.603l-.15-.01Zm0 104a37.14 37.14 0 1 1 37.12-37.14 37.14 37.14 0 0 1-37.12 37.12v.02Zm215.12-104a66.842 66.842 0 0 0-47.277 114.1 66.848 66.848 0 0 0 72.843 14.493 66.845 66.845 0 0 0 41.264-61.753 66.772 66.772 0 0 0-66.71-66.83l-.12-.01Zm0 104a37.14 37.14 0 1 1 37.14-37.14 37.14 37.14 0 0 1-37.14 37.12v.02ZM674 400.73V371H540.34v29.71h52v134H622v-134h52v.02Zm-355 37.13v29.71h41c-9.48 24.9-27.55 41-48.49 41a55.697 55.697 0 0 1-55.321-50.322 55.704 55.704 0 0 1 20.149-48.471 55.701 55.701 0 0 1 51.492-10.198 55.697 55.697 0 0 1 23.2 13.921l21.1-21.11a85.386 85.386 0 0 0-76.962-23.252 85.394 85.394 0 0 0-68.3 91.965 85.383 85.383 0 0 0 44.502 66.957 85.389 85.389 0 0 0 40.16 10.21c29.1 0 55.27-18.73 70.71-48.47v44.91H412v-96.85h-93Z" fill="#fff"/></g><defs><clipPath id="a"><path fill="#fff" d="M0 0h1024v1024H0z"/></clipPath></defs></svg>