<svg width="1024" height="1024" viewBox="0 0 1024 1024" fill="none" xmlns="http://www.w3.org/2000/svg">
<g clip-path="url(#clip0_2_2322)">
<path d="M512 1024C794.77 1024 1024 794.77 1024 512C1024 229.23 794.77 0 512 0C229.23 0 0 229.23 0 512C0 794.77 229.23 1024 512 1024Z" fill="#98DC9A"/>
<path d="M290.59 472.67H290.1C285.965 465.087 279.877 458.747 272.468 454.307C265.059 449.868 256.597 447.49 247.96 447.42C209.38 447.42 192.01 475.03 192.01 511.95C192.01 548.87 213.19 574.36 247.25 574.36C263.86 574.93 279.6 566.92 288.93 553.17H289.41V559.85C289.41 584.14 276.08 595.8 251.31 595.8C236.688 596.036 222.252 592.507 209.39 585.55L207.25 619.38C222.5 624.63 238.52 627.27 254.64 627.23C304.66 627.23 329.4 610.8 329.4 559.85V450.31H290.6V472.67H290.59ZM287.97 509.61C287.97 528.65 275.82 541.52 260.57 541.52C247.71 541.52 236.28 530.57 236.29 511.28C236.29 494.37 244.63 480.32 260.57 480.32C261.4 480.31 262.23 480.33 263.04 480.4C277.99 481.59 289.14 494.66 287.97 509.61ZM594.72 450.92L549.88 574.21H502.19L457.26 450.92H502.21L527.3 538.76H527.77L553.06 450.92H594.71H594.72ZM401.73 448.04C361.04 448.04 330.06 471.67 330.06 512.6C330.06 553.29 361.04 576.94 401.73 576.94C442.42 576.94 473.4 553.3 473.4 512.6C473.4 471.9 442.42 448.04 401.73 448.04ZM401.73 547.13C382.1 547.13 374.06 530.81 374.06 512.59C374.06 494.37 382.09 477.82 401.73 477.82C421.37 477.82 429.42 494.14 429.42 512.59C429.42 531.04 421.36 547.13 401.73 547.13ZM599.54 556.74V556.78C599.54 567.95 590.48 576.99 579.32 576.99C568.16 576.99 559.11 567.93 559.11 556.77C559.11 545.61 568.15 536.57 579.32 536.56C590.47 536.55 599.53 545.59 599.54 556.74ZM817.56 448.08C801.18 447.86 786.51 458.15 781.13 473.63H780.65V450.91H741.81V509.7C741.53 480.06 722.9 448.14 689.08 448.14C681.038 447.628 672.992 449.058 665.619 452.309C658.247 455.56 651.765 460.537 646.72 466.82H646.24V396.77H603.4L603.37 396.78V574.27H642.68V552.25H643.16C651.22 568.08 667.76 577.78 685.51 577.1C721.94 577.1 741.54 547.22 741.81 511.14V574.27H784.42V522.2C784.42 498.06 795.52 483.63 815.4 483.63C820.26 483.38 825.12 483.86 829.83 485.04L831.99 449.5C827.22 448.64 822.4 448.17 817.56 448.09V448.08ZM672.01 544.41C657.82 544.41 645.98 530.91 645.98 512.93C645.98 494.95 656.4 480.76 672.01 480.76C688.58 480.76 697.8 494.96 697.8 511.27C697.8 530.91 688.1 544.41 672.01 544.41Z" fill="white"/>
</g>
<defs>
<clipPath id="clip0_2_2322">
<rect width="1024" height="1024" fill="white"/>
</clipPath>
</defs>
</svg>
