<svg width="1024" height="1024" fill="none" xmlns="http://www.w3.org/2000/svg"><g clip-path="url(#a)"><path d="M512 1024c282.77 0 512-229.23 512-512S794.77 0 512 0 0 229.23 0 512s229.23 512 512 512Z" fill="#73ADA4"/><path d="m678.34 309.51-260.52 129.6v-171.7a262.075 262.075 0 0 1 260.52 42.1Zm-276 258.06 15.51-7.72 329.24-163.79a262.876 262.876 0 0 0-56.15-75.5L417.82 456.44v68.08l-159.18-79.19a260.456 260.456 0 0 0-6.45 100.22l150.12 74.68.03-52.66Zm15.51 189a262.087 262.087 0 0 0 238.902-26.046A262.09 262.09 0 0 0 774 520.75L417.82 697.92l.03 58.65ZM402.31 274a262.742 262.742 0 0 0-139.22 156.23l139.22 69.26V274Zm15.51 406.6 22.08-11 13.39-6.6L774 503.42a264.9 264.9 0 0 0-1.42-20.18c-.52-4.72-1.163-9.387-1.93-14A289.039 289.039 0 0 0 768 455.4a260.994 260.994 0 0 0-14.44-45.22l-335.73 167v68.09l-63.52-31.6-99-49.24a262.473 262.473 0 0 0 147 185.63v-61.75l15.51-7.71Z" fill="#fff"/></g><defs><clipPath id="a"><path fill="#fff" d="M0 0h1024v1024H0z"/></clipPath></defs></svg>