<svg width="1024" height="1024" fill="none" xmlns="http://www.w3.org/2000/svg"><g clip-path="url(#a)"><path d="M512 1024c282.77 0 512-229.23 512-512S794.77 0 512 0 0 229.23 0 512s229.23 512 512 512Z" fill="#98DC9A"/><path d="M767.92 568.41a165.014 165.014 0 0 1-15.85 64.45c-14.59 30.95-38.36 57.11-66.54 76.3-37.83 25.84-83.28 39.64-128.89 41.49-26.28.24-52.57.06-78.84.09 0-28.36.05-56.72 0-85.09h68.79c33-.4 66.41-9.91 92.83-30.07 21.34-16 37.7-39.58 42-66.18a92.27 92.27 0 0 0-7.18-53.07c-9.17-20.36-25.22-37.12-44-49-24.94-15.78-54.57-23.59-84-23.52-.06 5.66 0 11.33 0 17-22.814.033-45.624.033-68.43 0v-85.14c21.08-.45 42.24-.17 63.36-.16 49.38-.84 99.39 12.17 140.85 39.34 28.67 18.76 53.14 44.51 68.44 75.3a163.644 163.644 0 0 1 17.46 78.26Zm-258.14 79.87h36.45v-19c-.06-50.48-.06-100.963 0-151.45h-68.41v85.38a191.088 191.088 0 0 1-27.72-2.36c-32-5.45-63.06-20.52-84.35-45.41-13.47-15.71-22.57-35.49-24-56.24-1.93-22.93 5.61-46.12 19.45-64.35 16.92-22.67 42.08-38.31 69-46.36 16.71-5.27 34.29-7.12 51.76-7.09h64.24c-.047-22.713-.047-45.427 0-68.14-26.26 0-52.52-.07-78.78 0a256.404 256.404 0 0 0-66.36 11.41c-37.55 11.68-72.6 32.56-99.16 61.76a183.859 183.859 0 0 0-31.75 48.37c-11.66 26.31-16.58 55.75-13.06 84.37a165.585 165.585 0 0 0 20.15 61.74c23 41.21 61.91 72.07 105.4 89.41a234.494 234.494 0 0 0 24.59 8.42 269.901 269.901 0 0 0 51.09 9.12c3.43.24 6.86.35 10.29.4h41.14l.03.02Z" fill="#fff"/></g><defs><clipPath id="a"><path fill="#fff" d="M0 0h1024v1024H0z"/></clipPath></defs></svg>