<svg width="1024" height="1024" fill="none" xmlns="http://www.w3.org/2000/svg"><g clip-path="url(#a)"><path d="M512 1024c282.77 0 512-229.23 512-512S794.77 0 512 0 0 229.23 0 512s229.23 512 512 512Z" fill="#96DFD3"/><path d="M744 293.27h-70.82c-32.68 0-59.21 28-59.21 62.41v62.19h71.38c32.37 0 58.65-27.7 58.65-61.82v-62.78Zm-296.07 0h70.82c32.68 0 59.21 28 59.21 62.41v62.19h-71.38c-32.37 0-58.65-27.7-58.65-61.82v-62.78ZM280 451.38h70.82c32.68 0 59.21 28 59.21 62.41V576h-71.38c-32.37 0-58.65-27.7-58.65-61.82v-62.8Zm0 154.75h70.82c32.68 0 59.21 28 59.21 62.41v62.19h-71.38c-32.37 0-58.65-27.7-58.65-61.82v-62.78Zm167.93-154.75h70.82c32.68 0 59.21 28 59.21 62.41V576h-71.38c-32.37 0-58.65-27.7-58.65-61.82v-62.8Zm296.07 0h-70.82c-32.68 0-59.21 28-59.21 62.41V576h71.38c32.37 0 58.65-27.7 58.65-61.82v-62.8ZM447.93 606.14h70.82c32.68 0 59.21 28 59.21 62.41v62.19h-71.38c-32.37 0-58.65-27.7-58.65-61.82v-62.78Zm296.07 0h-70.82c-32.68 0-59.21 28-59.21 62.41v62.19h71.38c32.37 0 58.65-27.7 58.65-61.82v-62.78Z" fill="#fff"/></g><defs><clipPath id="a"><path fill="#fff" d="M0 0h1024v1024H0z"/></clipPath></defs></svg>