<svg width="1024" height="1024" fill="none" xmlns="http://www.w3.org/2000/svg"><g clip-path="url(#a)"><path d="M512 1024c282.77 0 512-229.23 512-512S794.77 0 512 0 0 229.23 0 512s229.23 512 512 512Z" fill="#9ABEFF"/><path d="M736.87 612.69V411.31a51.8 51.8 0 0 0 29.903-36.097 51.798 51.798 0 0 0-.303-24.097 51.8 51.8 0 0 0-30.803-35.332 51.783 51.783 0 0 0-46.703 4A51.785 51.785 0 0 0 672 336.9H352a51.793 51.793 0 0 0-63.948-20.956 51.801 51.801 0 0 0-30.624 35.711 51.794 51.794 0 0 0 10.91 45.761 51.779 51.779 0 0 0 19.552 14.244v201.47a51.785 51.785 0 0 0-28.963 35.899 51.785 51.785 0 0 0 11.152 44.758A51.794 51.794 0 0 0 312.5 711.9a51.784 51.784 0 0 0 40.04-22.9h320.61a51.818 51.818 0 0 0 63.762 18.672 51.806 51.806 0 0 0 29.719-35.601 51.809 51.809 0 0 0-29.761-59.401v.02ZM664.59 656H361.1a51.795 51.795 0 0 0-40.1-46.31V413.88a51.469 51.469 0 0 0 14.37-6.22l129 118.07a51.805 51.805 0 0 0 12.578 41.553 51.816 51.816 0 0 0 39.78 17.393 51.798 51.798 0 0 0 49.108-38.797 51.795 51.795 0 0 0 .834-22.209l124.84-114.29a51.471 51.471 0 0 0 14.16 5.17v194.9A51.806 51.806 0 0 0 664.59 656ZM669 385.16 550.12 494a51.62 51.62 0 0 0-70.26 1.17L356.27 382a51.385 51.385 0 0 0 3-12.08h305.5a51.381 51.381 0 0 0 4.23 15.24Z" fill="#fff"/></g><defs><clipPath id="a"><path fill="#fff" d="M0 0h1024v1024H0z"/></clipPath></defs></svg>