<svg width="1024" height="1024" viewBox="0 0 1024 1024" fill="none" xmlns="http://www.w3.org/2000/svg">
<g clip-path="url(#clip0_2_2346)">
<path d="M512 1024C794.77 1024 1024 794.77 1024 512C1024 229.23 794.77 0 512 0C229.23 0 0 229.23 0 512C0 794.77 229.23 1024 512 1024Z" fill="#ABABFF"/>
<path d="M895 583.17H243.03V627.89H127.85V648.41H263.14V603.64H895V583.18V583.17ZM201.96 469.19L201.98 469.22H201.96V469.19C195.75 458.88 185.71 453 170.97 453C143.35 453.17 127 475.15 127 505.59C127 536.03 143.35 558.01 170.97 558.01C176.05 558.29 181.11 557.41 185.81 555.44C190.52 553.47 194.72 550.45 198.12 546.62V561.28C198.12 571.25 192.84 583.08 176.12 583.08C163.45 583.08 157.2 575.99 155.01 568.37L132.58 579.21C138.2 593.61 151.63 605.7 177.69 605.7C216.34 605.7 226.26 579.64 226.26 556.82V454.48H202.6L201.97 469.2L201.96 469.19ZM455.79 461.95C448.74 455.89 439.66 452.8 430.46 453.36C402.71 453.36 386.32 475.33 386.32 505.78C386.32 536.23 402.71 558.2 430.46 558.2C436.37 558.59 442.27 557.38 447.57 554.7C452.897 552.009 457.419 547.959 460.68 542.96L461.41 556.37H485.07V407.17H455.92L455.79 461.95ZM894.92 508.69V505.6C894.92 474.13 877.17 453.18 847.92 453.18C818.67 453.18 798.96 474.12 798.96 505.6C798.96 537.08 818.68 558.02 847.92 558.02C868.14 558.02 883.22 548.22 890.37 531.66L869.26 521.47C867.891 525.862 865.128 529.688 861.39 532.37C857.67 535.03 853.19 536.37 848.65 536.18C843.26 536.33 838.03 534.38 834.01 530.73C829.99 527.08 827.5 521.99 827.03 516.54H827.23L894.94 508.71L894.92 508.69ZM544.27 453.17C514.99 453.17 495.28 474.11 495.28 505.59C495.28 537.07 515 558.01 544.27 558.01C564.45 558.01 579.54 548.21 586.51 531.65L565.4 521.46C564.04 525.81 561.33 529.59 557.68 532.25C554.03 534.91 549.64 536.29 545.16 536.17C539.73 536.39 534.41 534.48 530.32 530.83C526.23 527.17 523.7 522.05 523.23 516.53L590.81 508.62V505.53C591.24 474.13 573.49 453.21 544.27 453.21V453.17ZM301.27 511.95C301.27 525.92 295.35 534.1 283.69 534.1C275.54 534.1 268.74 530.49 268.74 514.96V454.47H239.59V520.82C239.59 542.32 252.95 557.93 275.49 557.93C280.9 557.93 286.24 556.72 291.11 554.32C295.98 551.94 300.28 548.46 303.65 544.16L305.47 556.29H330.4V454.47H301.25V511.97L301.27 511.95ZM630.3 525.68V407.17H601.15V528.69C601.15 542.79 603.94 557.54 628.61 557.54C633.28 557.78 637.95 557 642.3 555.21V532.46C642.3 532.46 630.3 535.55 630.3 525.67V525.68ZM682.46 454.48H653.31V556.39H682.46V454.48ZM374.89 454.48H345.74V556.39H374.89V454.48ZM752.79 452.84C747.4 452.84 742.06 454.05 737.18 456.43C732.294 458.82 728.013 462.287 724.66 466.57L722.84 454.48H697.88V556.39H727.03V498.86C727.03 482.96 732.95 476.71 744.65 476.71C752.8 476.71 759.57 480.32 759.57 495.85V556.4H788.72V489.92C788.72 468.38 775.36 452.85 752.82 452.85H752.8L752.79 452.84ZM177.01 534.11C163.19 534.11 155.04 522.89 155.04 505.39C155.04 487.89 163.19 476.67 177.01 476.67C190.83 476.67 198.81 487.89 198.81 505.39C198.81 522.89 190.83 534.11 177.01 534.11ZM436.81 534.11C422.99 534.11 414.84 522.89 414.84 505.39C414.84 487.89 422.99 476.67 436.81 476.67C450.63 476.67 458.78 487.89 458.78 505.39C458.78 522.89 450.63 534.11 436.81 534.11ZM522.52 498.41C522.52 483.62 530.96 473.95 544.1 473.95C549.426 473.867 554.578 475.844 558.48 479.47C562.4 483.1 564.82 488.14 565.23 493.51L522.52 498.42V498.4V498.41ZM826.27 498.41C826.27 483.62 834.92 473.95 847.81 473.95C853.136 473.867 858.288 475.844 862.19 479.47C866.11 483.1 868.53 488.14 868.94 493.51L826.29 498.42L826.27 498.4V498.41ZM360.31 404.72H360.29H360.3C357.08 404.72 353.94 405.69 351.27 407.51C348.587 409.341 346.503 411.922 345.28 414.93C344.057 417.961 343.734 421.28 344.35 424.49C344.98 427.71 346.53 430.65 348.8 432.97C351.07 435.28 353.97 436.86 357.13 437.51C360.29 438.14 363.55 437.83 366.52 436.56C369.5 435.31 372.03 433.19 373.81 430.46C375.6 427.74 376.54 424.54 376.54 421.27C376.546 416.897 374.837 412.697 371.78 409.57C368.73 406.47 364.61 404.72 360.3 404.72H360.31ZM667.88 404.72H667.86H667.87C664.65 404.72 661.51 405.69 658.84 407.51C656.157 409.341 654.073 411.922 652.85 414.93C651.627 417.961 651.304 421.28 651.92 424.49C652.55 427.71 654.1 430.65 656.37 432.97C658.64 435.28 661.54 436.86 664.7 437.51C667.86 438.14 671.12 437.83 674.09 436.56C677.07 435.31 679.6 433.19 681.38 430.46C683.17 427.74 684.11 424.54 684.11 421.27C684.116 416.897 682.407 412.697 679.35 409.57C676.3 406.47 672.18 404.72 667.87 404.72H667.88Z" fill="white"/>
</g>
<defs>
<clipPath id="clip0_2_2346">
<rect width="1024" height="1024" fill="white"/>
</clipPath>
</defs>
</svg>
