<svg width="1024" height="1024" fill="none" xmlns="http://www.w3.org/2000/svg"><g clip-path="url(#a)"><path d="M512 1024c282.77 0 512-229.23 512-512S794.77 0 512 0 0 229.23 0 512s229.23 512 512 512Z" fill="#F9DE81"/><path d="M369.5 421.44s.43 60.72 31.61 123.53c32 60.45 76.2 99.29 112.64 114.76 37.65-17.6 74-48.15 93.87-81.06H504.25c-26.74-22.16-47.79-58.93-52.62-101.43h303.2c-15 68.33-46.68 130.48-76.9 170.05A364.995 364.995 0 0 1 514 768h-1c-108.74-43.33-167.24-111.58-205.85-188.58C282.39 530.07 256.5 440.47 256.5 320h512c.082 33.928-2.2 67.82-6.83 101.43l-392.17.01Z" fill="#fff"/></g><defs><clipPath id="a"><path fill="#fff" d="M0 0h1024v1024H0z"/></clipPath></defs></svg>