<svg width="1024" height="1024" viewBox="0 0 1024 1024" fill="none" xmlns="http://www.w3.org/2000/svg">
<g clip-path="url(#clip0_2_2355)">
<path d="M512 1024C794.77 1024 1024 794.77 1024 512C1024 229.23 794.77 0 512 0C229.23 0 0 229.23 0 512C0 794.77 229.23 1024 512 1024Z" fill="#FF837D"/>
<path d="M768.04 423.54C727.19 423.54 694.07 456.65 694.06 497.5C694.06 538.35 727.17 571.47 768.02 571.48C808.87 571.48 841.99 538.37 842 497.52V497.49C841.95 456.66 808.86 423.58 768.04 423.54ZM768.04 536.39C746.56 536.39 729.15 518.98 729.15 497.5C729.15 476.02 746.56 458.61 768.04 458.61C789.51 458.61 806.92 476.01 806.93 497.48C806.91 518.95 789.51 536.36 768.04 536.38V536.39ZM550.25 482.54L537.33 476.08C531.73 473.32 528.22 471.15 526.81 469.56C525.461 468.151 524.699 466.281 524.68 464.33C524.68 461.84 525.79 459.75 528.04 458.06C530.28 456.38 533.38 455.54 537.34 455.54C544.59 455.54 552.64 459.93 561.5 468.72L583.33 446.89C578.001 439.644 571.034 433.76 562.998 429.72C554.962 425.679 546.085 423.596 537.09 423.64C523.74 423.64 512.78 427.58 504.22 435.46C495.66 443.34 491.37 452.83 491.37 463.94C491.37 481.17 502.74 495.5 525.47 506.96L537.35 512.9C547.58 518.07 552.7 523.36 552.7 528.79C552.7 531.72 551.28 534.3 548.44 536.54C545.6 538.78 541.86 539.9 537.21 539.9C532.9 539.9 527.97 538.41 522.42 535.42C516.89 532.459 511.914 528.565 507.71 523.91L486.21 547.36C498.43 563.37 514.79 571.38 535.29 571.38C550.7 571.38 563 567.2 572.17 558.85C581.34 550.5 585.93 540.08 585.92 527.59C585.92 518.21 583.38 510.03 578.3 503.05C573.22 496.07 563.88 489.23 550.28 482.53L550.25 482.54ZM330.69 426.47H295.61L295.73 439.09C284.37 427.58 270.37 423.55 255.97 423.55C215.12 423.55 182 456.67 182.01 497.53C182.01 538.38 215.13 571.49 255.97 571.49C273 571.49 287.57 563.95 295.07 554.35C295.07 554.93 295.02 561.91 295 562.66C294.86 567.43 294.17 575.07 289.67 582.88C278.77 601.3 255.01 607.39 236.59 596.5C236.3 596.33 236.01 596.15 235.72 595.97L218.27 626.34C229.734 633.291 242.883 636.971 256.29 636.98C275.7 636.98 299.91 629.31 317.08 605.52C331.36 585.75 330.69 567.07 330.69 548.99V426.48V426.47ZM255.96 536.39C234.48 536.39 217.07 518.98 217.07 497.5C217.07 476.02 234.48 458.61 255.96 458.61C277.44 458.61 294.84 476.01 294.85 497.48C294.84 518.95 277.44 536.36 255.96 536.38V536.39ZM470.55 426.47H435.29V496.8C435.36 506.76 435.35 524.02 428 531.42C424.48 534.96 420.64 538.13 412.5 538.13C404.36 538.13 400.49 534.93 396.98 531.42C389.63 524.02 389.65 506.77 389.72 496.8V426.47H354.48V496.55C354.38 510.98 354.21 537.85 371.9 555.66C382.28 566.11 394.65 571.41 412.53 571.41C430.41 571.41 442.78 566.11 453.16 555.66C470.85 537.85 470.67 510.98 470.58 496.55L470.55 426.47ZM652.93 535.97C648.91 535.43 644.95 532.56 642.7 527.31C641.16 523.72 640.6 519 640.6 513.19V456.64H682.04V426.37H640.6V387.05H605.43V510.35C605.43 522.44 606.4 537.1 614.38 550.63C621.19 562.14 633.18 571.44 652.87 571.44C676.74 571.44 693.91 554.18 693.91 554.18L672.81 528.23C672.81 528.23 663.55 537.42 652.92 535.98L652.93 535.97Z" fill="white"/>
</g>
<defs>
<clipPath id="clip0_2_2355">
<rect width="1024" height="1024" fill="white"/>
</clipPath>
</defs>
</svg>
