<svg width="1024" height="1024" fill="none" xmlns="http://www.w3.org/2000/svg"><g clip-path="url(#a)"><path d="M512 1024c282.77 0 512-229.23 512-512S794.77 0 512 0 0 229.23 0 512s229.23 512 512 512Z" fill="#98DC9A"/><path d="M716.25 267v490H581l-66.6-161.92h43.68l50.59 123.57h68.72V305.89h-57.45v177.32H402.56V346.89L442 443.16h137.89V267h136.36ZM346.62 757h97.49V580.84H582l39.42 96.26V540.79H404.06v177.32h-57.44V305.34h68.72l50.59 123.57h43.67L443 267H307.75v490h38.87Z" fill="#fff"/></g><defs><clipPath id="a"><path fill="#fff" d="M0 0h1024v1024H0z"/></clipPath></defs></svg>