<svg width="1024" height="1024" fill="none" xmlns="http://www.w3.org/2000/svg"><g clip-path="url(#a)"><path d="M512 1024c282.77 0 512-229.23 512-512S794.77 0 512 0 0 229.23 0 512s229.23 512 512 512Z" fill="#FF837D"/><path d="M400.81 535.61a9.202 9.202 0 0 1 2.08 5.72c0 3.147-2.567 6.067-7.7 8.76-5.133 2.694-11.38 4.047-18.74 4.06-11.62 0-20.323-3.066-26.11-9.2-5.787-6.133-8.69-14.253-8.71-24.36v-15.17c0-10 2.903-18.09 8.71-24.27s14.453-9.273 25.94-9.28c7.253 0 13.337 1.263 18.25 3.79 4.91 2.52 7.37 5.37 7.37 8.51a9.74 9.74 0 0 1-2.09 5.74 6.075 6.075 0 0 1-4.94 2.87c-.56 0-2.54-.85-5.95-2.53a25.145 25.145 0 0 0-11.29-2.53c-12.287 0-18.427 5.917-18.42 17.75v15.09c0 11.833 6.197 17.75 18.59 17.75a24.215 24.215 0 0 0 11.46-2.71c3.4-1.8 5.43-2.71 6.12-2.71a6.588 6.588 0 0 1 5.43 2.72Zm56.65-31.87 21.6-19.39a5.06 5.06 0 0 0 1.5-3.71 7.853 7.853 0 0 0-2.84-5.74 8.402 8.402 0 0 0-5.72-2.7 4.995 4.995 0 0 0-3.68 1.53l-35 32.37v-75a4.706 4.706 0 0 0-2.59-4.12 12.012 12.012 0 0 0-6.44-1.61 10.717 10.717 0 0 0-6.19 1.61 4.784 4.784 0 0 0-2.34 4.12v115.8c0 1.47.81 2.81 2.43 4.06a9.732 9.732 0 0 0 6.11 1.85 10.808 10.808 0 0 0 6.35-1.85c1.79-1.25 2.68-2.59 2.68-4.06v-21.07l12.23-11.12 24.61 36.58a5.589 5.589 0 0 0 4.68 2.52c2.12 0 4.3-1 6.53-3 2.23-2 3.36-4 3.36-6a5.521 5.521 0 0 0-1-3l-26.28-38.07Zm-211-30.36a12.09 12.09 0 0 0-6.51-1.61 10.89 10.89 0 0 0-6.26 1.61l-23.81 14.92c-1.07 1-1.52 2.51-1.33 4.58a9.998 9.998 0 0 0 2.81 5.85 11.003 11.003 0 0 0 5.73 3.51c2.12.48 3.74.22 4.8-.77l9.41-5.87V548c0 1.48.82 2.83 2.47 4.08a9.779 9.779 0 0 0 6.16 1.88 11 11 0 0 0 6.42-1.88c1.81-1.25 2.71-2.6 2.71-4.08v-70.46a4.765 4.765 0 0 0-2.62-4.15l.02-.01ZM195.23 427a12.007 12.007 0 0 0-6.35-1.61 11.431 11.431 0 0 0-6.34 1.61 4.866 4.866 0 0 0-2.46 4.18V548c0 1.48.85 2.83 2.55 4.08a10.187 10.187 0 0 0 6.25 1.88c2.232.041 4.42-.616 6.26-1.88 1.8-1.24 2.71-2.6 2.71-4.08V431.14a4.825 4.825 0 0 0-2.62-4.14Zm122.88 54.27c5.52 6.253 8.287 14.04 8.3 23.36v42.27a5.11 5.11 0 0 1-2.44 4.16 10.207 10.207 0 0 1-6.11 1.76 9.204 9.204 0 0 1-5.68-1.76 5.15 5.15 0 0 1-2.35-4.16V541c-7.48 8.773-15.903 13.16-25.27 13.16-6.48 0-11.813-1.917-16-5.75-4.18-3.81-6.27-9.32-6.27-16.51 0-9 3.333-15.263 10-18.79 6.667-3.527 16.377-5.3 29.13-5.32h7.36v-3.12a21.379 21.379 0 0 0-4.09-13.12c-2.733-3.687-6.89-5.527-12.47-5.52a27.37 27.37 0 0 0-12.64 2.78 42.017 42.017 0 0 1-5.95 2.79 5.302 5.302 0 0 1-4.61-2.79 11.246 11.246 0 0 1-1.75-6.15c0-2.92 2.71-5.45 8.13-7.59a46.164 46.164 0 0 1 17.15-3.2c11.52 0 20.04 3.12 25.56 9.36v.04Zm-9.3 36.34h-4.18c-4.11-.055-8.22.169-12.3.67a18.084 18.084 0 0 0-8.54 3.54 9.431 9.431 0 0 0-3.76 7.93c0 3.6 1 6.31 3 8.17a11.157 11.157 0 0 0 7.87 2.79c4.233 0 8.277-1.8 12.13-5.4 3.86-3.61 5.77-7.41 5.77-11.47l.01-6.23ZM738.23 472a24.81 24.81 0 0 0-13.72 3.77 24.25 24.25 0 0 0-8.71 9.23v-7.86a3.593 3.593 0 0 0-1.5-2.91 5.48 5.48 0 0 0-3.52-1.21 6.351 6.351 0 0 0-3.85 1.11 3.455 3.455 0 0 0-1.5 2.94v71.32a4 4 0 0 0 1.5 3 5.538 5.538 0 0 0 3.85 1.35 5.927 5.927 0 0 0 3.85-1.35 3.902 3.902 0 0 0 1.69-3v-44.7c0-6.387 2-11.547 6-15.48a19.355 19.355 0 0 1 13.89-5.89 19.624 19.624 0 0 1 14.79 6.56 20.998 20.998 0 0 1 6.2 14.81v44.74a3.622 3.622 0 0 0 1.68 3.18 6.194 6.194 0 0 0 3.67 1.2 6.533 6.533 0 0 0 3.86-1.2 3.667 3.667 0 0 0 1.68-3.2v-44.83a30.989 30.989 0 0 0-8.88-22.25c-5.947-6.22-12.94-9.33-20.98-9.33Zm-178.8 30.75a24.45 24.45 0 0 1-1.18 8.34 7.73 7.73 0 0 1-3.68 4.46 15.992 15.992 0 0 1-4.69 1.65 41.32 41.32 0 0 1-5.69.34h-35.33v3.91a16.68 16.68 0 0 0 6 13.51c4 3.334 9.25 5 15.75 5 4.533.02 9-1.087 13-3.22 4.08-2.147 6.563-3.22 7.45-3.22a5.89 5.89 0 0 1 4.86 2.7 8.807 8.807 0 0 1 2 5.24c0 2.78-2.69 5.58-8 8.43-5.31 2.85-11.95 4.24-19.75 4.24-11.38 0-20.713-3.093-28-9.28-7.287-6.187-10.913-14.27-10.88-24.25v-16c0-8.88 3.403-16.546 10.21-23a34.513 34.513 0 0 1 24.61-9.69 34.074 34.074 0 0 1 23.52 8.77 28.409 28.409 0 0 1 9.8 22.11v-.04Zm-16.58-1.5A14.994 14.994 0 0 0 538 490a16.744 16.744 0 0 0-12.05-4.65 17.685 17.685 0 0 0-12.05 4.4 14.258 14.258 0 0 0-5 11.19v5.32h27.8c2.453 0 4.097-.333 4.93-1 .82-.65 1.22-1.99 1.22-3.97v-.04Zm248.66 14.94v6.23c0 6.667 2.37 11.98 7.11 15.94 4.74 3.96 10.857 5.96 18.35 6a26.64 26.64 0 0 0 10-1.7 28.652 28.652 0 0 0 6.52-3.37 6.792 6.792 0 0 1 3.6-1.69 4.117 4.117 0 0 1 3.26 1.77 5.571 5.571 0 0 1 1.44 3.45c0 2.38-2.41 4.81-7.21 7.35S823.76 554 816.62 554c-10.59 0-19.25-2.93-25.94-8.85-6.69-5.92-10.05-13.63-10.05-23.19v-18.89a29.61 29.61 0 0 1 9.37-21.84 32.22 32.22 0 0 1 44.63-.42 28.991 28.991 0 0 1 9.29 22 21.924 21.924 0 0 1-1.09 7.57 7.13 7.13 0 0 1-3.53 4 16.323 16.323 0 0 1-4.42 1.52c-1.831.26-3.681.374-5.53.34l-37.84-.05Zm0-8.11H825c3.36 0 5.57-.35 6.7-1.09 1.13-.74 1.67-2.27 1.67-4.61a20.893 20.893 0 0 0-5.95-14.74 19.545 19.545 0 0 0-15-6.36 20.295 20.295 0 0 0-14.82 6 19.542 19.542 0 0 0-6.11 14.41l.02 6.39Zm-174.65-36.21h-5.38a21.003 21.003 0 0 0-12.62 4.18 26.544 26.544 0 0 0-8.63 10.13v-7.5a4.89 4.89 0 0 0-2.34-4.18 9.692 9.692 0 0 0-5.67-1.62 10.809 10.809 0 0 0-6.13 1.61 4.755 4.755 0 0 0-2.43 4.12v68.29c0 1.47.8 2.81 2.43 4.06a9.752 9.752 0 0 0 6.13 1.85 10.818 10.818 0 0 0 6.34-1.85c1.79-1.23 2.68-2.58 2.68-4v-34.52c0-7.28 2.04-13.22 6.12-17.82 4.07-4.6 8.8-6.9 14.13-6.9h5.38a5.943 5.943 0 0 0 4.67-2.39 8.43 8.43 0 0 0 2-5.61 8.13 8.13 0 0 0-2-5.54 6.003 6.003 0 0 0-4.68-2.31Zm65.68 9.45a29.905 29.905 0 0 1 9.54 22.25v18.37c0 8.427-3.207 15.877-9.62 22.35-6.413 6.473-13.863 9.71-22.35 9.71-8.373 0-15.74-3.227-22.1-9.68-6.36-6.453-9.54-13.903-9.54-22.35v-18.39A32 32 0 0 1 660.11 472a31.122 31.122 0 0 1 22.43 9.33v-.01Zm-1.34 22.31a20.761 20.761 0 0 0-6.28-14.77 19.893 19.893 0 0 0-14.81-6.54 19.39 19.39 0 0 0-14.66 6.54 21.071 21.071 0 0 0-6.1 14.77v18.26a21.718 21.718 0 0 0 6.1 15.18 19.228 19.228 0 0 0 14.66 6.62 19.669 19.669 0 0 0 14.9-6.62 21.579 21.579 0 0 0 6.19-15.18v-18.26Z" fill="#fff"/></g><defs><clipPath id="a"><path fill="#fff" d="M0 0h1024v1024H0z"/></clipPath></defs></svg>