<svg width="1024" height="1024" viewBox="0 0 1024 1024" fill="none" xmlns="http://www.w3.org/2000/svg">
<g clip-path="url(#clip0_2_2373)">
<path d="M512 1024C794.77 1024 1024 794.77 1024 512C1024 229.23 794.77 0 512 0C229.23 0 0 229.23 0 512C0 794.77 229.23 1024 512 1024Z" fill="#56595B"/>
<path d="M474.28 272L285.32 380.99V642.84L356.3 683.82V421.97L474.28 353.88V272ZM549.71 272V480.52H474.28V402.71L403.26 443.69V710.84L474.28 751.91V543.98H549.71V621.28L620.69 580.3V312.98L549.71 272ZM549.71 752L738.67 643.01V381.16L667.65 340.18V602.03L549.71 670.12V752Z" fill="white"/>
</g>
<defs>
<clipPath id="clip0_2_2373">
<rect width="1024" height="1024" fill="white"/>
</clipPath>
</defs>
</svg>
