<svg width="1024" height="1024" fill="none" xmlns="http://www.w3.org/2000/svg"><g clip-path="url(#a)"><path d="M512 1024c282.77 0 512-229.23 512-512S794.77 0 512 0 0 229.23 0 512s229.23 512 512 512Z" fill="#56595B"/><path d="M474.28 272 285.32 380.99v261.85l70.98 40.98V421.97l117.98-68.09V272Zm75.43 0v208.52h-75.43v-77.81l-71.02 40.98v267.15l71.02 41.07V543.98h75.43v77.3l70.98-40.98V312.98L549.71 272Zm0 480 188.96-108.99V381.16l-71.02-40.98v261.85l-117.94 68.09V752Z" fill="#fff"/></g><defs><clipPath id="a"><path fill="#fff" d="M0 0h1024v1024H0z"/></clipPath></defs></svg>