<svg width="1024" height="1024" viewBox="0 0 1024 1024" fill="none" xmlns="http://www.w3.org/2000/svg">
<g clip-path="url(#clip0_2_2376)">
<path d="M512 1024C794.77 1024 1024 794.77 1024 512C1024 229.23 794.77 0 512 0C229.23 0 0 229.23 0 512C0 794.77 229.23 1024 512 1024Z" fill="#FF837D"/>
<path d="M328.4 672C331.98 669 337.4 664.83 344.52 665.43C351.64 666.03 367.81 667.22 373.78 666.03C379.75 664.84 384.53 666.63 386.32 661.85C388.11 657.07 388.71 641.54 393.49 635.57C398.27 629.6 411.41 623 413.2 617.07C414.99 611.14 415.59 608.71 413.2 602.74C410.81 596.77 405.44 591.39 397.67 587.81C389.9 584.23 382.74 581.81 382.74 581.81C382.74 581.81 367.21 596.14 366.62 599.73C366.03 603.32 367.81 606.9 364.23 608.73C360.65 610.56 354.68 605.15 353.48 595.59C352.28 586.03 356.48 574.69 355.87 568.12C355.26 561.55 351.09 555.58 354.68 549.01C358.27 542.44 366.62 532.29 373.19 527.51C379.76 522.73 391.11 522.14 392.9 516.16C394.69 510.18 381.55 487.49 381.55 482.16C381.55 476.83 383.34 466.63 379.16 458.27C374.98 449.91 370.16 431.99 352.29 420.65C334.42 409.31 321.83 404.53 318.85 396.17C315.87 387.81 318.25 387.81 321.85 385.42C325.45 383.03 312.3 369.3 308.12 356.16C303.94 343.02 296.77 316.75 299.76 314.36C302.75 311.97 311.7 314.36 313.49 319.14C315.28 323.92 322.49 353.14 322.49 353.14C322.49 353.14 320.7 331.04 323.68 324.47C326.66 317.9 330.25 311.33 333.83 313.12C337.41 314.91 335.62 353.73 335.62 353.73C335.62 353.73 339.2 344.73 341.62 339.4C344.04 334.07 345.8 329.25 348.79 332.23C351.78 335.21 349.39 363.88 349.39 363.88C349.39 363.88 354.17 356.71 357.75 354.88C361.33 353.05 363.12 351.88 365.51 356.07C367.9 360.26 367.3 365.62 367.3 365.62C367.3 365.62 369.09 359.62 373.3 359.62C377.51 359.62 382.85 361.41 381.06 366.19C379.27 370.97 397.18 366.79 395.99 375.19C394.8 383.59 395.99 391.31 400.77 391.31C405.55 391.31 408.53 397.88 418.09 395.49C424.09 399.07 415.09 421.17 419.28 418.18C423.47 415.19 433.01 412.81 436.6 419.37C440.19 425.93 431.82 433.7 436.6 439.68C441.38 445.66 436.6 451.03 443.77 455.8C450.94 460.57 451.53 456.99 453.32 467.74C455.11 478.49 455 483.3 458 487.48C461 491.66 464.57 494.65 464 503.6C463.43 512.55 458 520.92 465.19 519.72C472.38 518.52 475.34 511.36 480.72 508.37C485.572 505.812 490.169 502.799 494.45 499.37C501.62 494 502.81 486.83 506.99 485.04C511.17 483.25 514.75 483.85 520.72 481.46C526.69 479.07 532.66 473.7 535.65 471.31C538.64 468.92 538.65 467.73 544.01 462.95C549.37 458.17 554.76 455.19 558.34 447.42C561.92 439.65 561.34 439.06 565.51 427.71C569.68 416.36 568.51 412.78 570.88 408C573.25 403.22 573.27 399 577.45 394.86C581.63 390.72 585.21 385.86 585.81 390.08C586.295 394.64 586.496 399.225 586.41 403.81C586.41 407.39 591.78 398.44 596.56 389.48C601.34 380.52 598.95 379.33 600.74 371.56C602.53 363.79 600.74 358.42 601.34 349.46C601.94 340.5 603.13 339.9 603.73 326.77C604.33 313.64 605.39 311.43 605.39 301.87C605.39 292.31 605.04 288.45 604.93 281.38C607 275.96 609.33 274.3 610.93 274.81C612.87 275.32 615.48 275.36 617.03 282.57C618.22 290.33 619.3 296.12 620.48 310.64C619.29 324.97 618.69 337.51 621.08 341.1C623.47 344.69 625.26 344.1 627.08 339.91C628.9 335.72 628.87 333.91 631.26 326.77C633.65 319.63 633.41 315 634.64 305C634.04 290.07 634.75 283.27 635.35 271.92C635.95 260.57 635.28 260.24 636.54 253.41C637.62 246.94 639.13 245.41 644.3 246.24C647.3 249.82 647.88 258.78 649.08 266.55C650.28 274.32 650.27 273.72 650.87 288.05C651.47 302.38 650.95 308.1 649.76 312.88C649.48 318.21 648.42 323.5 649.08 325.67C652.66 323.28 652.66 319.1 656.25 310.74C659.84 302.38 662.82 295.21 664.01 285.66C665.2 276.11 668.39 272.61 670.43 262.09C675.21 251.94 676.25 249.48 679.54 249.23C683.01 251.72 684.65 253.96 684.32 261.77C682.53 270.13 682.53 274.31 679.54 282.67C676.55 291.03 677.15 294.61 672.97 303.57C670.43 311.43 670.12 314.1 668.79 316.71C674.79 317.31 674.68 314.93 678.34 310.71C684.34 299.21 682.09 301.64 684.34 298.17C687.66 291.24 690.49 288.68 693.34 289.81C696.34 294.59 697.52 295.81 695.13 301.16C692.74 306.51 694.53 302.95 690.95 310.71C687.37 318.47 683.78 321.46 688.56 320.86C693.34 320.26 693.93 320.86 696.92 316.08C699.91 311.3 696.92 310.71 703.49 307.72C710.06 304.73 714.24 299.36 716.03 303.54C717.82 307.72 718.42 307.12 714.24 313.1C710.06 319.08 705.88 320.86 707.67 323.85C709.46 326.84 714.24 327.43 717.82 327.43C721.4 327.43 722 328.03 720.21 334C718.42 339.97 717.82 340 717.21 343C716.6 346 719.6 348.37 719.6 348.37C719.6 348.37 724.97 344.79 720.79 353.74C716.61 362.69 714.22 360.31 711.79 364.49C709.36 368.67 707.01 372.85 710.6 372.85C714.19 372.85 717.77 372.25 717.17 375.24C716.57 378.23 711.17 381.24 714.17 383C717.17 384.76 719.54 382.4 721.93 384.79C724.32 387.18 721.93 391.36 721.93 394.35C721.93 397.34 721.33 399.72 722.53 402.71C723.73 405.7 726.11 408.71 724.32 411.71C722.53 414.71 724.92 415.29 720.14 418.28C715.36 421.27 712.38 420.67 712.38 423.65C712.38 426.63 711.78 426.04 714.77 428.43C717.76 430.82 721.34 429.03 718.95 434.43C716.56 439.83 717.16 439.21 715.95 443.98C714.74 448.75 716.55 446.37 711.17 457.71C705.79 469.05 700.42 477.42 695.05 480.4C689.68 483.38 690.87 489.95 694.45 491.15C698.03 492.35 698.63 497.72 695.05 505.48C691.47 513.24 687.29 523.4 686.05 528.77C684.81 534.14 683.66 534.77 677.69 541.31C671.72 547.85 667 553.76 661.63 555.55C656.26 557.34 655.63 563.31 652.08 566.3C648.53 569.29 647.3 571.08 639.54 571.08C631.78 571.08 631.78 569.29 624.01 571.68C616.24 574.07 612.66 576.46 612.07 580.04C611.48 583.62 609.07 585.41 604.31 584.22C599.55 583.03 603.12 586.61 597.14 589C591.16 591.39 592.96 594.37 585.79 593.78C578.62 593.19 575.04 587.78 573.25 593.78C571.46 599.78 570.86 604.53 563.1 599.15C555.34 593.77 551.16 579.44 546.98 594.37C542.8 609.3 542.8 612.88 547.58 617.06C552.36 621.24 553.58 624.82 564.3 629C575.02 633.18 575 638 582.8 641C590.6 644 591.16 645.18 603.11 651.15C615.06 657.12 618 658.87 625.2 663C632.4 667.13 634.2 671.36 635.95 675.54C637.7 679.72 645.51 684.54 642.52 690.47C639.53 696.4 633.52 692.86 633.52 695.84C633.52 698.82 634.71 701.21 632.33 707.19C629.95 713.17 630.54 715.55 622.18 717.94C613.82 720.33 609.04 721.52 604.86 719.73C600.68 717.94 599.49 725.1 595.3 723.31C591.11 721.52 589.3 716.14 586.3 719.13C583.3 722.12 588.69 723.91 581.52 725.7C574.35 727.49 573.76 722.7 573.16 726.89C572.56 731.08 574.95 735.25 567.16 731.07C559.37 726.89 561.79 718.53 555.81 724.5C549.83 730.47 552.81 737.64 542.08 731.67C531.35 725.7 534.91 725.1 526.55 725.67C518.19 726.24 518.19 726.86 515.2 720.3C512.21 713.74 518.2 715.52 505.05 714.93C491.9 714.34 498.48 722.69 490.12 711.35C481.76 700.01 479.97 688.66 476.39 701.2C472.81 713.74 476.39 716.73 471.02 720.31C465.65 723.89 438.18 722.7 438.18 722.7C438.18 722.7 437.58 736.43 435.18 738.82C432.78 741.21 426.82 736.43 421.45 741.21C416.08 745.99 419.77 749 415 753.22C410.23 757.44 400.66 758 400.66 758C400.66 758 407.23 752.63 409.02 747.85C410.81 743.07 413.2 734.71 413.2 734.71C413.2 734.71 403.65 738.29 399.47 738.89C395.29 739.49 388.72 738.29 388.72 738.29L390.51 752C390.51 752 379.16 752 379.16 747.22C379.16 742.44 382.74 729.3 385.73 727.51C388.72 725.72 392.9 726.32 392.9 726.32C392.9 726.32 391.71 720.32 394.69 719.15C397.67 717.98 399.47 719.15 404.24 719.15C409.01 719.15 430.52 712.58 430.52 712.58C430.52 712.58 429.92 697.05 432.31 690.48C434.7 683.91 446.04 665.4 440.67 662.41C435.3 659.42 431.12 661.81 428.13 664.8C425.14 667.79 419.77 676.74 408.42 679.13C397.07 681.52 388.12 682.71 388.12 682.71C388.12 682.71 385.73 683.9 385.73 688.71C385.73 693.52 389.91 698.26 383.94 704.24C377.97 710.22 373.19 715.59 366.62 712.6C360.05 709.61 358.86 706.03 358.86 706.03C358.86 706.03 363.64 709.03 371.4 707.22C379.16 705.41 376.18 690.5 375.58 687.51C374.98 684.52 369.01 681.51 365.43 684.51C361.85 687.51 357.07 695.26 360.06 698.24C363.05 701.22 351.7 691.67 352.3 687.49C352.659 684.975 353.469 682.547 354.69 680.32C354.69 680.32 346.93 680.32 342.15 679.72C337.37 679.12 333.79 676.72 333.79 680.32C333.79 683.92 336.18 700.03 330.79 689.87C325.4 679.71 323 677.38 328.4 672Z" fill="white"/>
</g>
<defs>
<clipPath id="clip0_2_2376">
<rect width="1024" height="1024" fill="white"/>
</clipPath>
</defs>
</svg>
