<svg width="1024" height="1024" fill="none" xmlns="http://www.w3.org/2000/svg"><g clip-path="url(#a)"><path d="M512 1024c282.77 0 512-229.23 512-512S794.77 0 512 0 0 229.23 0 512s229.23 512 512 512Z" fill="#71A372"/><path d="m539.46 256.31-69.9-.65-51.4 359.16-7.43-49.92H271.84l-6.09 44.63 106 .19 8.84 64.49 76.81.15 47.3-339.43 8.08 57.64h45.45l-18.77-136.26Zm30.87 223.84-45.37.09L565 768.34l60.43-.08 22.31-158.55 104.07.08 6.41-44.66-149.74.09L595.1 660l-24.77-179.85Z" fill="#fff"/></g><defs><clipPath id="a"><path fill="#fff" d="M0 0h1024v1024H0z"/></clipPath></defs></svg>