<svg width="1024" height="1024" fill="none" xmlns="http://www.w3.org/2000/svg"><g clip-path="url(#a)"><path d="M512 1024c282.77 0 512-229.23 512-512S794.77 0 512 0 0 229.23 0 512s229.23 512 512 512Z" fill="#8C72BD"/><path d="M695.72 256H328.3a45.862 45.862 0 0 0-17.67 3.452 45.894 45.894 0 0 0-24.968 24.967 45.907 45.907 0 0 0-3.452 17.671V722a45.906 45.906 0 0 0 13.448 32.637A45.889 45.889 0 0 0 328.3 768.07h367.42A45.896 45.896 0 0 0 741.79 722V302.09A45.854 45.854 0 0 0 695.72 256Zm20.48 466a20.237 20.237 0 0 1-5.929 14.55 20.244 20.244 0 0 1-14.551 5.93H328.3a20.223 20.223 0 0 1-18.989-12.603A20.247 20.247 0 0 1 307.82 722V302.09a20.245 20.245 0 0 1 12.6-19.005 20.247 20.247 0 0 1 7.88-1.495h367.42a20.241 20.241 0 0 1 14.558 5.937 20.248 20.248 0 0 1 5.922 14.563V722Zm-318.77-30.75L455 640.06l-57.61-51.21.04 102.4Zm207.4-207.37c-10.22-10.24-29.42-23-61.43-23-34.59 0-70.43 9-96 17.92V332.81h-51.23v221.48L432 537.65s58.89-26.88 110.1-26.88c25.6 0 32 14.08 32 26.88v153.62h51.21V537.65c1.28-3.82 1.28-32.03-20.48-53.77ZM537 416h51.21c23-26.88 34.57-53.79 38.41-83.21H575.4c-5.14 29.45-17.94 56.35-38.4 83.21Z" fill="#fff"/></g><defs><clipPath id="a"><path fill="#fff" d="M0 0h1024v1024H0z"/></clipPath></defs></svg>