<svg width="1024" height="1024" fill="none" xmlns="http://www.w3.org/2000/svg"><g clip-path="url(#a)"><path d="M512 1024c282.77 0 512-229.23 512-512S794.77 0 512 0 0 229.23 0 512s229.23 512 512 512Z" fill="#8C72BD"/><path d="M826.46 414.41a5.5 5.5 0 0 1 5.42 8.41l-50.44 109a51.1 51.1 0 0 0-3.85 17.76v47.69a9.256 9.256 0 0 1-5.796 8.515 9.284 9.284 0 0 1-3.554.675H736a9.274 9.274 0 0 1-6.555-2.715 9.274 9.274 0 0 1-2.715-6.555v-47.65a49.415 49.415 0 0 0-3.93-17.76l-30.53-66.38a15.702 15.702 0 0 0-13.12-8.49h-47.22a9.256 9.256 0 0 0-8.515 5.796 9.284 9.284 0 0 0-.675 3.554v11.47a9.348 9.348 0 0 0 9.27 9.35h34.8a9.266 9.266 0 0 1 9.27 9.27v23.88a9.27 9.27 0 0 1-9.27 9.27H632a9.347 9.347 0 0 0-9.27 9.35v15.71a9.348 9.348 0 0 0 9.27 9.35h57.67a9.266 9.266 0 0 1 9.27 9.27v23.88a9.27 9.27 0 0 1-9.27 9.27H581a9.274 9.274 0 0 1-6.555-2.715 9.274 9.274 0 0 1-2.715-6.555v-57.73a9.254 9.254 0 0 0-2.771-6.532 9.268 9.268 0 0 0-6.579-2.658h-38.63a9.345 9.345 0 0 0-6.386 2.859 9.355 9.355 0 0 0-2.614 6.491v57.67a9.27 9.27 0 0 1-9.27 9.27h-32.17a9.35 9.35 0 0 1-9.35-9.27v-28.2c17.13-59.24 17.13-99 0-120.83v-24.45a9.35 9.35 0 0 1 9.35-9.27h32.21a9.266 9.266 0 0 1 8.88 9.27v52.87a9.43 9.43 0 0 0 9.35 9.35h38.65a9.35 9.35 0 0 0 9.35-9.35v-52.87a9.267 9.267 0 0 1 9.27-9.27h133.25a14 14 0 0 1 12.41 8.72l7.86 22.63c1.73 4.87 4.48 12.73 6.13 17.6l8.41 25.22a41.62 41.62 0 0 0 3.77 8.8 44.734 44.734 0 0 0 3.69-8.72l8.8-25.38 6.29-17.52 7.86-22.63a13.996 13.996 0 0 1 12.33-8.72h34.65-.01ZM450.6 455.5c18.15 20.58 13.91 69.5-13.27 145.5a7.999 7.999 0 0 1-14.683.705 8 8 0 0 1-.397-6.045c34.1-95.3 22.86-122.33 16.42-129.55a15.707 15.707 0 0 0-15.71-3.77 59.162 59.162 0 0 0-31.43 22.55c11.23 45 19.48 96.48 5.42 117a20.66 20.66 0 0 1-15.08 9.27 14.607 14.607 0 0 1-12.73-5.42c-15.16-18-7.31-83.44.55-112.27a50.152 50.152 0 0 1 4.71-11.31c-.79-3.06-1.65-6.21-2.51-9.43-14.46-52.09-37.63-91.84-45.88-91.84-6.36 4-23 39.28 15.32 143.38a8 8 0 0 1-14.77 6.13c-39.52-85.79-58.3-110.7-65.37-117.85-2.75 13.2-4.4 52.48 42.74 138.9a7.998 7.998 0 0 1-8.77 11.506 8 8 0 0 1-4.9-3.256c-22.63-33.94-52.64-78.88-64.66-91.14-1.34 12.65 2.67 50.2 43.53 112.19a8.003 8.003 0 0 1-4.527 12.879 8.015 8.015 0 0 1-8.473-3.609c-29.07-37.24-44-46-49.18-48.16.63 9.82 11.47 42 36.22 68.82 16.58 17.91 43.92 37.87 80.22 30.8a7.999 7.999 0 0 1 9.385 6.325 8.001 8.001 0 0 1-6.325 9.385 98.586 98.586 0 0 1-18.23 1.73c-43.68 0-73.77-31.5-88.78-52-18.54-25-33.55-61.83-26.4-75a13.008 13.008 0 0 1 4.377-4.667 13.01 13.01 0 0 1 6.073-2.013 36.056 36.056 0 0 1 21.68 9c-17.6-40.07-18.23-66.94-12.57-77.62a11.856 11.856 0 0 1 10.06-6.84c6.68-.31 12.49 3 31.43 28.91-15.71-48-9.27-70.32-6-77.47a11.712 11.712 0 0 1 10.68-7.31c4.79.08 15.16 0 44.86 54.37-7.7-47.92 1.1-73.22 14.61-81.08a15.715 15.715 0 0 1 14.46-.63c21.61 9 43.76 63.64 54.05 99.78a70.087 70.087 0 0 1 32.37-19.25 30.993 30.993 0 0 1 31.48 8.4Zm-69 57.43c-6.44 33.94-6.44 75.34-.55 82.34a4.995 4.995 0 0 0 2.67-2.28c3.01-4.17 10.08-21.37-2.1-80.06h-.02Z" fill="#fff"/></g><defs><clipPath id="a"><path fill="#fff" d="M0 0h1024v1024H0z"/></clipPath></defs></svg>