<svg width="1024" height="1024" fill="none" xmlns="http://www.w3.org/2000/svg"><g clip-path="url(#a)"><path d="M512 1024c282.77 0 512-229.23 512-512S794.77 0 512 0 0 229.23 0 512s229.23 512 512 512Z" fill="#ABABFF"/><path d="M611.09 714.52 518.55 768V517.54l216.84-125.22v250.45l-72.59 41.88v-85.5l-51.71 29.57v85.8Zm-316-333.29L512 506.46l216.87-125.23L512 256 295.09 381.23ZM505.48 768 288.61 642.77V392.32L505.5 517.54 505.48 768Z" fill="#fff"/></g><defs><clipPath id="a"><path fill="#fff" d="M0 0h1024v1024H0z"/></clipPath></defs></svg>