<svg width="1024" height="1024" fill="none" xmlns="http://www.w3.org/2000/svg"><g clip-path="url(#a)"><path d="M512 1024c282.77 0 512-229.23 512-512S794.77 0 512 0 0 229.23 0 512s229.23 512 512 512Z" fill="#F8C18C"/><path d="m364.76 318-52.86 31c-22.11 12.52-39.9 44.08-39.9 69.66v187.22c0 25.58 17.8 56.6 39.91 69.66l52.86 31-.01-388.54Zm347.34 30.45-52.86-31v387.5l52.86-31c22.11-12.55 39.9-44.12 39.9-69.7V418.12c0-25.58-17.79-56.6-39.9-69.67Zm-247 415.8 7 4.35c22.11 12.52 57.71 12.52 79.28 0l7-4.35V562.89s-13.48-23.4-46.92-23.4-46.92 23.4-46.92 23.4v201.37l.56-.01Zm86.84-508.87c-22.11-12.52-57.71-12.52-79.28 0l-7 4.35v198.12s13.48 23.4 46.92 23.4 46.92-23.4 46.92-23.4V259.2l-7.56-3.82Z" fill="#fff"/></g><defs><clipPath id="a"><path fill="#fff" d="M0 0h1024v1024H0z"/></clipPath></defs></svg>