<svg width="1024" height="1024" fill="none" xmlns="http://www.w3.org/2000/svg"><g clip-path="url(#a)"><path d="M512 1024c282.77 0 512-229.23 512-512S794.77 0 512 0 0 229.23 0 512s229.23 512 512 512Z" fill="#FF837D"/><path d="M718.25 661.93a182.215 182.215 0 0 0 8-8.85 248.241 248.241 0 0 1-13.12 18.18 254.621 254.621 0 0 1-47.94 46.42c-2.98 2.213-6.01 4.36-9.09 6.44A254.724 254.724 0 0 1 596.38 754a245.623 245.623 0 0 1-10.69 3.42 258.927 258.927 0 0 1-32.52 7.34 263.73 263.73 0 0 1-22.21 2.57c-3.72.273-7.45.463-11.19.57-7.466.22-14.933.113-22.4-.32a246.104 246.104 0 0 1-33.27-4.2 229.217 229.217 0 0 1-32.24-8.8 214.506 214.506 0 0 1-20.57-8.5 264.885 264.885 0 0 1-9.5-4.77 246.725 246.725 0 0 1-9.29-5.16 259.996 259.996 0 0 1-17.89-11.43 256.558 256.558 0 0 1-62.74-62.35 64.397 64.397 0 0 1-6-11.08c-1.39-3.14-2.67-6.33-3.91-9.39-2.45-6.09-4.56-12.32-6.43-18.62-.25-.85-.55-1.68-.79-2.53-.986-3.5-1.876-7.017-2.67-10.55a205.4 205.4 0 0 1-4.77-53.81 207.249 207.249 0 0 1 12.78-63.31 199.94 199.94 0 0 1 19.42-38.78 197.85 197.85 0 0 1 14.44-19.56 206.547 206.547 0 0 1 5.48-6.28c1.53-1.68 3.07-3.33 4.65-5A203.399 203.399 0 0 1 363.49 406c2.827-2.24 5.71-4.403 8.65-6.49a185.238 185.238 0 0 1 8.19-5.53c1.934-1.24 3.89-2.447 5.87-3.62 3.334-1.96 6.69-3.827 10.07-5.6 2.23-1.16 4.47-2.29 6.73-3.37a204.276 204.276 0 0 1 20.74-8.48 199.974 199.974 0 0 1 43.88-9.85h.49c1.78-.187 3.56-.353 5.34-.5h.25l1.89-.12c1.23-.08 2.47-.17 3.7-.24.89 0 1.78-.07 2.67-.1 1.06 0 2.11-.09 3.17-.11 1.06-.02 2 0 3 0h3.34c-4 .573-7.936 1.303-11.81 2.19a149.827 149.827 0 0 0-11.5 3.12 151.171 151.171 0 0 0-46.68 24.39 154.198 154.198 0 0 0-25.15 24.35 155.858 155.858 0 0 0-7.08 9.32 149.013 149.013 0 0 0-24.84 59.67 155.51 155.51 0 0 0 .93 59.63c.09.82.16 1.48.24 2 .08.52.14 1 .21 1.53.22 1.6.48 3.23.74 4.83l.05.35c.14.81.28 1.62.42 2.42 0 .18.07.36.11.55.12.62.24 1.23.37 1.84.06.3.15.59.22.88.12.48.22 1 .35 1.45.09.34.21.67.31 1 .1.33.25.86.4 1.29-.3-.86-.66-1.71-1-2.6a199.37 199.37 0 0 0 4.19 16.62 205.268 205.268 0 0 0 10 26.6 195.278 195.278 0 0 0 5 10.18 209.083 209.083 0 0 0 11.66 19.4 256.149 256.149 0 0 0 3.21 4.66 209.376 209.376 0 0 0 17.89 21.89 204.875 204.875 0 0 0 54 41.23 202.38 202.38 0 0 0 26.13 11.48A209.157 209.157 0 0 0 617 719a207.004 207.004 0 0 0 32.58-10.43 202.347 202.347 0 0 0 10.91-4.9c3.587-1.74 7.12-3.58 10.6-5.52 3.48-1.94 6.897-3.98 10.25-6.12a203.827 203.827 0 0 0 23.91-17.81c3.007-2.607 5.937-5.3 8.79-8.08a177.782 177.782 0 0 0 4.21-4.21Zm-437.17-66.7a208.226 208.226 0 0 1 .3-64.78 197.534 197.534 0 0 1 1.67-9c.627-2.987 1.314-5.96 2.06-8.92a210.21 210.21 0 0 1 5.27-17.53c1.474-4.227 3.084-8.4 4.83-12.52 1.3-3.05 2.69-6.06 4.13-9a205.318 205.318 0 0 1 40.77-57c3.18-3.14 6.467-6.177 9.86-9.11a206.687 206.687 0 0 1 103.81-47.92 207.029 207.029 0 0 1 69.32 1.2c-.68 0-1.36-.06-2-.09.49 0 1 .1 1.45.15.45.05 1 .09 1.56.16l.91.13 1 .16c.5.08 1 .16 1.51.25s1.29.27 1.94.41l1.44.31 2 .5 1.38.35 1.09.3 1 .28 1.29.36 3.15.9 2.51.7.88.25c1.12.3 2.24.59 3.35.86 2.89.7 5.74 1.51 8.57 2.38a150.052 150.052 0 0 1 15.78 5.76c1.92.827 3.82 1.697 5.7 2.61a150.633 150.633 0 0 1 16.39 9.18 152.168 152.168 0 0 1 10.24 7.24 147.446 147.446 0 0 1 9.61 8.08 151.22 151.22 0 0 1 48 94.57 150.43 150.43 0 0 1-7.73 66.3 194.95 194.95 0 0 0 5.39-10.86 202.269 202.269 0 0 0 4.7-11.12 203.376 203.376 0 0 0 12.67-52.85c.58-5.64.914-11.307 1-17v-.41A200.989 200.989 0 0 0 657 377.67c-25.21-50.67-71.86-89-126.27-104.6a205.52 205.52 0 0 0-31.63-6.42c-3.566-.44-7.14-.773-10.72-1-1.73-.12-3.43-.2-5.12-.25h-6.5c-1.606.04-3.213.123-4.82.25l-.93.08c-1.69.15-3.38.34-5.09.6-5.27.82-10.49 1.88-15.7 3-2.6.58-5.21 1.14-7.8 1.8-3.58.913-7.14 1.913-10.68 3a258.407 258.407 0 0 0-41.12 16.38A256.577 256.577 0 0 0 362 307.25c-5.7 3.86-11.15 8-16.41 12.31a226.088 226.088 0 0 0-18.46 16.89 241.684 241.684 0 0 0-28.51 35.48 256.593 256.593 0 0 0-17 30 245.216 245.216 0 0 0-9 21.17 257.645 257.645 0 0 0-9.93 33.07c-.79 3.49-1.49 7-2.13 10.51-.1.55-.21 1.1-.31 1.65a246.119 246.119 0 0 0-1.56 10.11l-.25 1.92c-.43 3.42-.81 6.84-1.1 10.27 0 .42-.06.84-.09 1.25a249.36 249.36 0 0 0-.61 10.2v.89c-.14 3.8-.193 7.6-.16 11.4v.47c0 3.33.15 6.66.31 10a268.27 268.27 0 0 0 .87 12.16c0 .36.06.73.09 1.09.35 3.44.78 6.86 1.26 10.28.13.89.26 1.78.4 2.67.44 2.873.924 5.74 1.45 8.6.12.64.22 1.28.35 1.91a291.081 291.081 0 0 0 2.18 10.08c.19.81.4 1.61.6 2.42.667 2.753 1.39 5.493 2.17 8.22.22.78.43 1.55.65 2.33.96 3.3 1.987 6.58 3.08 9.84.22.66.46 1.32.69 2 .94 2.727 1.94 5.433 3 8.12.32.83.63 1.66 1 2.48.71 1.79 1.48 3.56 2.23 5.33.6 1.41 1.15 2.84 1.77 4.24.19.43.4.85.59 1.28.61 1.36 1.28 2.7 1.92 4 .64 1.3 1.32 2.85 2 4.26.407.827.82 1.653 1.24 2.48.64 1.25 1.32 2.48 2 3.72 1 1.85 1.92 3.71 2.95 5.53 3.64 6.46 7.557 12.77 11.75 18.93A199.334 199.334 0 0 1 286.17 619a205.303 205.303 0 0 1-5.09-23.77ZM766 481c-6.87-56.61-33-109.65-73.13-150.08-41.77-42-97.83-67.5-156.53-73.61a237.256 237.256 0 0 0-24.06-1.31h-.68c-4.39 0-8.77.16-13.14.48-5.83.41-11.49 1.61-17.29 2.33.71 0 19.32 1.11 21.17 1.31 6.958.76 13.871 1.885 20.71 3.37a204.998 204.998 0 0 1 159 233.86c-.52 3-1.07 6-1.68 9-.61 3-1.34 5.94-2.09 8.9-.75 2.96-1.61 5.87-2.51 8.79-.9 2.92-1.86 5.81-2.89 8.69s-2.13 5.7-3.26 8.55c-1.13 2.85-2.37 5.63-3.64 8.38-1.27 2.75-2.61 5.5-4 8.21-1.39 2.71-2.85 5.39-4.36 8-1.51 2.61-3.09 5.26-4.71 7.83-1.62 2.57-3.33 5.12-5 7.63s-3.54 5-5.39 7.39c-1.61 2.1-3.33 4.12-4.95 6.22-1.06 1.31-2.13 2.61-3.26 3.88-.65.76-1.3 1.48-2 2.2-.7.72-1.41 1.41-2 2.16-4.33 4.67-8.86 9.17-13.6 13.4a184.287 184.287 0 0 1-27.79 20.82 153.393 153.393 0 0 1-56.13 20.27c-37.82 5.67-77.43-3.23-108.89-25.08a142.853 142.853 0 0 1-44.24-49.43 249.822 249.822 0 0 0 24.53 47.78c10 14.94 22.84 28.2 36.72 39.57a202.615 202.615 0 0 0 105.7 44.31 204.862 204.862 0 0 0 157.08-49 177.967 177.967 0 0 0 20.09-20c6.32-7.56 11.06-17.24 15.53-26A257.834 257.834 0 0 0 761 560.58a255.15 255.15 0 0 0 6.56-46.23v-15.06A241.59 241.59 0 0 0 766 481Z" fill="#fff"/></g><defs><clipPath id="a"><path fill="#fff" d="M0 0h1024v1024H0z"/></clipPath></defs></svg>