<svg width="1024" height="1024" viewBox="0 0 1024 1024" fill="none" xmlns="http://www.w3.org/2000/svg">
<g clip-path="url(#clip0_2_2421)">
<path d="M512 1024C794.77 1024 1024 794.77 1024 512C1024 229.23 794.77 0 512 0C229.23 0 0 229.23 0 512C0 794.77 229.23 1024 512 1024Z" fill="#9ABEFF"/>
<path d="M502.42 719H315.18C313.808 719.001 312.449 718.732 311.182 718.208C309.914 717.684 308.762 716.915 307.791 715.946C306.821 714.976 306.051 713.825 305.526 712.558C305 711.29 304.73 709.932 304.73 708.56V529.64H258C255.528 529.64 253.111 528.909 251.053 527.538C248.996 526.168 247.39 524.219 246.437 521.938C245.485 519.656 245.228 517.144 245.7 514.718C246.172 512.291 247.352 510.058 249.09 508.3L500.8 253.62C502.247 252.15 503.971 250.98 505.871 250.178C507.772 249.376 509.812 248.958 511.875 248.947C513.938 248.935 515.983 249.332 517.892 250.113C519.801 250.895 521.537 252.046 523 253.5L523.1 253.6L654.51 385.95V361.47C654.507 360.093 654.777 358.728 655.303 357.456C655.83 356.183 656.603 355.027 657.578 354.054C658.553 353.081 659.71 352.31 660.984 351.786C662.258 351.262 663.623 350.995 665 351H708.69C711.459 351 714.114 352.1 716.072 354.058C718.03 356.016 719.13 358.671 719.13 361.44V451.31L775.01 508.31C776.746 510.076 777.92 512.317 778.384 514.75C778.849 517.183 778.582 519.698 777.618 521.98C776.655 524.261 775.037 526.206 772.969 527.569C770.902 528.933 768.477 529.653 766 529.64H719.08V708.56C719.08 709.931 718.81 711.289 718.285 712.555C717.761 713.822 716.992 714.973 716.022 715.942C715.053 716.912 713.902 717.681 712.635 718.205C711.368 718.73 710.011 719 708.64 719H521.4L560.4 680.06H596.4C597.984 684.539 601.1 688.314 605.198 690.717C609.296 693.121 614.112 693.998 618.794 693.195C623.476 692.391 627.724 689.958 630.786 686.326C633.848 682.694 635.527 678.096 635.527 673.345C635.527 668.594 633.848 663.996 630.786 660.364C627.724 656.732 623.476 654.299 618.794 653.495C614.112 652.692 609.296 653.569 605.198 655.973C601.1 658.376 597.984 662.151 596.4 666.63H554.87L518.64 702.79V658.65L561.78 615.58H631.44C633.024 620.059 636.14 623.834 640.238 626.237C644.336 628.641 649.152 629.518 653.834 628.715C658.516 627.911 662.764 625.478 665.826 621.846C668.888 618.214 670.567 613.616 670.567 608.865C670.567 604.114 668.888 599.516 665.826 595.884C662.764 592.252 658.516 589.819 653.834 589.015C649.152 588.212 644.336 589.089 640.238 591.493C636.14 593.896 633.024 597.671 631.44 602.15H575.24L615.5 562V528.39L644.5 499.47C648.784 501.507 653.65 501.964 658.238 500.76C662.826 499.556 666.841 496.769 669.574 492.891C672.306 489.013 673.579 484.295 673.169 479.569C672.759 474.843 670.691 470.415 667.332 467.066C663.972 463.717 659.537 461.663 654.81 461.268C650.083 460.873 645.369 462.161 641.5 464.906C637.631 467.65 634.856 471.674 633.667 476.266C632.477 480.858 632.95 485.723 635 490L615.5 509.4V447.91C619.987 446.323 623.769 443.2 626.177 439.094C628.585 434.988 629.464 430.163 628.659 425.471C627.854 420.78 625.416 416.524 621.776 413.456C618.137 410.388 613.53 408.705 608.77 408.705C604.01 408.705 599.403 410.388 595.764 413.456C592.124 416.524 589.686 420.78 588.881 425.471C588.075 430.163 588.954 434.988 591.362 439.094C593.77 443.2 597.552 446.323 602.04 447.91V509.4L582.59 490C584.648 485.707 585.123 480.824 583.929 476.215C582.735 471.606 579.95 467.567 576.066 464.814C572.182 462.06 567.449 460.768 562.705 461.166C557.96 461.565 553.509 463.628 550.139 466.991C546.769 470.354 544.696 474.801 544.288 479.544C543.879 484.288 545.161 489.023 547.907 492.913C550.653 496.803 554.685 499.596 559.292 500.8C563.899 502.003 568.782 501.54 573.08 499.49L602.08 528.41V556.41L565.76 592.67V566.09C570.248 564.504 574.031 561.382 576.44 557.275C578.849 553.169 579.729 548.344 578.924 543.652C578.12 538.96 575.682 534.704 572.042 531.635C568.403 528.567 563.795 526.884 559.035 526.884C554.274 526.884 549.667 528.567 546.027 531.635C542.388 534.704 539.95 538.96 539.145 543.652C538.341 548.344 539.22 553.169 541.629 557.275C544.038 561.382 547.822 564.504 552.31 566.09V606.09L518.68 639.66V442.44L546.3 414.87C550.582 416.908 555.447 417.366 560.034 416.165C564.622 414.964 568.637 412.18 571.371 408.305C574.105 404.43 575.382 399.714 574.976 394.989C574.57 390.264 572.508 385.835 569.152 382.483C565.797 379.132 561.366 377.074 556.641 376.673C551.915 376.272 547.2 377.554 543.329 380.292C539.457 383.03 536.677 387.048 535.481 391.637C534.284 396.226 534.748 401.09 536.79 405.37L511.96 430.16L487.12 405.37C489.171 401.08 489.64 396.202 488.443 391.6C487.247 386.997 484.461 382.966 480.58 380.219C476.698 377.471 471.97 376.184 467.232 376.585C462.493 376.986 458.049 379.05 454.684 382.411C451.32 385.771 449.252 390.214 448.846 394.952C448.44 399.69 449.722 404.419 452.465 408.304C455.209 412.188 459.237 414.977 463.838 416.179C468.44 417.381 473.317 416.917 477.61 414.87L505.23 442.44V583.26L456.8 534.91V496.26C461.288 494.674 465.071 491.551 467.48 487.445C469.889 483.339 470.769 478.514 469.964 473.822C469.16 469.13 466.722 464.874 463.082 461.805C459.443 458.737 454.835 457.054 450.075 457.054C445.314 457.054 440.707 458.737 437.067 461.805C433.428 464.874 430.99 469.13 430.185 473.822C429.381 478.514 430.26 483.339 432.669 487.445C435.078 491.551 438.862 494.674 443.35 496.26V521.48L405.68 483.88V446.57C410.168 444.984 413.951 441.861 416.36 437.755C418.769 433.649 419.649 428.824 418.844 424.132C418.04 419.44 415.602 415.184 411.962 412.115C408.323 409.047 403.715 407.364 398.955 407.364C394.194 407.364 389.587 409.047 385.947 412.115C382.308 415.184 379.87 419.44 379.065 424.132C378.261 428.824 379.14 433.649 381.549 437.755C383.958 441.861 387.742 444.984 392.23 446.57V489.44L433.79 531H409.86C408.276 526.521 405.16 522.746 401.062 520.343C396.964 517.939 392.148 517.062 387.466 517.865C382.783 518.669 378.536 521.102 375.474 524.734C372.412 528.366 370.732 532.964 370.732 537.715C370.732 542.466 372.412 547.064 375.474 550.696C378.536 554.328 382.783 556.761 387.466 557.565C392.148 558.368 396.964 557.491 401.062 555.087C405.16 552.684 408.276 548.909 409.86 544.43H447.24L505.18 602.27V702.77L474.24 671.88V633.23C478.728 631.644 482.511 628.522 484.92 624.415C487.329 620.309 488.209 615.484 487.404 610.792C486.6 606.1 484.162 601.844 480.522 598.775C476.883 595.707 472.275 594.024 467.515 594.024C462.754 594.024 458.147 595.707 454.507 598.775C450.868 601.844 448.43 606.1 447.625 610.792C446.821 615.484 447.7 620.309 450.109 624.415C452.518 628.522 456.302 631.644 460.79 633.23V658.45L415.79 613.51C417.845 609.216 418.316 604.333 417.119 599.725C415.922 595.117 413.135 591.081 409.249 588.329C405.364 585.578 400.631 584.289 395.887 584.69C391.143 585.091 386.694 587.157 383.325 590.521C379.957 593.886 377.887 598.333 377.481 603.077C377.075 607.82 378.359 612.555 381.106 616.443C383.853 620.331 387.887 623.123 392.493 624.325C397.1 625.527 401.983 625.061 406.28 623.01L451.28 667.94H427.35C425.766 663.461 422.65 659.686 418.552 657.283C414.454 654.879 409.638 654.002 404.956 654.805C400.273 655.609 396.026 658.042 392.964 661.674C389.902 665.306 388.222 669.904 388.222 674.655C388.222 679.406 389.902 684.004 392.964 687.636C396.026 691.268 400.273 693.701 404.956 694.505C409.638 695.308 414.454 694.431 418.552 692.027C422.65 689.624 425.766 685.849 427.35 681.37H464.73L502.4 719M398.9 419.52C397.306 419.522 395.749 419.996 394.425 420.883C393.101 421.77 392.069 423.03 391.461 424.503C390.852 425.976 390.694 427.596 391.006 429.159C391.318 430.721 392.087 432.157 393.214 433.283C394.342 434.409 395.778 435.176 397.341 435.486C398.904 435.796 400.524 435.636 401.997 435.026C403.469 434.415 404.727 433.382 405.612 432.057C406.497 430.732 406.97 429.174 406.97 427.58C406.967 425.442 406.116 423.391 404.603 421.88C403.09 420.369 401.038 419.52 398.9 419.52ZM450 469.21C448.406 469.212 446.849 469.686 445.525 470.573C444.201 471.46 443.169 472.72 442.561 474.193C441.952 475.666 441.794 477.286 442.106 478.849C442.418 480.411 443.187 481.847 444.314 482.973C445.442 484.099 446.878 484.866 448.441 485.176C450.004 485.486 451.624 485.326 453.097 484.716C454.569 484.105 455.827 483.072 456.712 481.747C457.597 480.422 458.07 478.864 458.07 477.27C458.067 475.132 457.216 473.081 455.703 471.57C454.19 470.059 452.138 469.21 450 469.21ZM468.83 388.64C467.236 388.642 465.679 389.116 464.355 390.003C463.031 390.89 461.999 392.15 461.391 393.623C460.782 395.096 460.624 396.716 460.936 398.279C461.248 399.841 462.017 401.277 463.144 402.403C464.272 403.529 465.708 404.296 467.271 404.606C468.834 404.916 470.454 404.756 471.927 404.146C473.399 403.535 474.657 402.502 475.542 401.177C476.427 399.852 476.9 398.294 476.9 396.7C476.903 394.564 476.057 392.515 474.55 391.001C473.042 389.488 470.996 388.635 468.86 388.63L468.83 388.64ZM653.17 489.35C654.764 489.348 656.321 488.874 657.645 487.987C658.969 487.1 660.001 485.841 660.609 484.368C661.218 482.895 661.376 481.274 661.064 479.712C660.752 478.149 659.983 476.713 658.856 475.587C657.728 474.461 656.292 473.694 654.729 473.384C653.165 473.074 651.545 473.234 650.073 473.845C648.601 474.455 647.343 475.488 646.458 476.813C645.572 478.138 645.1 479.696 645.1 481.29C645.1 482.349 645.309 483.398 645.714 484.377C646.12 485.355 646.715 486.244 647.464 486.993C648.214 487.741 649.103 488.335 650.082 488.739C651.061 489.144 652.111 489.351 653.17 489.35ZM555 404.75C556.593 404.746 558.15 404.27 559.472 403.382C560.795 402.494 561.825 401.234 562.432 399.761C563.039 398.288 563.196 396.668 562.883 395.105C562.569 393.543 561.8 392.109 560.672 390.984C559.544 389.859 558.108 389.093 556.545 388.784C554.982 388.474 553.363 388.635 551.891 389.246C550.419 389.856 549.162 390.889 548.277 392.214C547.392 393.539 546.92 395.097 546.92 396.69C546.92 397.75 547.129 398.8 547.535 399.779C547.942 400.758 548.537 401.648 549.288 402.396C550.038 403.145 550.929 403.738 551.909 404.142C552.89 404.546 553.94 404.753 555 404.75ZM564.41 473.24C562.816 473.242 561.259 473.716 559.935 474.603C558.611 475.49 557.579 476.75 556.971 478.223C556.362 479.696 556.204 481.316 556.516 482.879C556.828 484.441 557.597 485.877 558.724 487.003C559.852 488.129 561.288 488.896 562.851 489.206C564.414 489.516 566.034 489.356 567.507 488.746C568.979 488.135 570.237 487.102 571.122 485.777C572.007 484.452 572.48 482.894 572.48 481.3C572.481 480.237 572.272 479.185 571.865 478.203C571.458 477.222 570.861 476.33 570.109 475.58C569.356 474.83 568.462 474.236 567.479 473.833C566.496 473.43 565.443 473.225 564.38 473.23L564.41 473.24ZM390.86 529.64C389.266 529.642 387.709 530.116 386.385 531.003C385.061 531.89 384.029 533.15 383.421 534.623C382.812 536.096 382.654 537.716 382.966 539.279C383.278 540.841 384.047 542.277 385.174 543.403C386.302 544.529 387.738 545.296 389.301 545.606C390.864 545.916 392.484 545.756 393.957 545.146C395.429 544.535 396.687 543.502 397.572 542.177C398.457 540.852 398.93 539.294 398.93 537.7C398.93 536.638 398.72 535.587 398.313 534.606C397.905 533.626 397.308 532.736 396.555 531.987C395.802 531.238 394.909 530.645 393.927 530.242C392.944 529.839 391.892 529.635 390.83 529.64H390.86ZM650.51 616.93C652.104 616.928 653.661 616.454 654.985 615.567C656.309 614.68 657.341 613.421 657.949 611.948C658.558 610.475 658.716 608.854 658.404 607.292C658.092 605.729 657.323 604.293 656.196 603.167C655.068 602.041 653.632 601.274 652.069 600.964C650.505 600.654 648.885 600.814 647.413 601.425C645.941 602.035 644.683 603.068 643.798 604.393C642.912 605.718 642.44 607.276 642.44 608.87C642.443 611.003 643.29 613.049 644.796 614.559C646.303 616.07 648.347 616.922 650.48 616.93H650.51ZM608.77 420.86C607.176 420.862 605.619 421.336 604.295 422.223C602.971 423.11 601.939 424.37 601.331 425.843C600.722 427.316 600.564 428.936 600.876 430.499C601.188 432.061 601.957 433.497 603.084 434.623C604.212 435.749 605.648 436.516 607.211 436.826C608.774 437.136 610.394 436.976 611.867 436.366C613.339 435.755 614.597 434.722 615.482 433.397C616.367 432.072 616.84 430.514 616.84 428.92C616.837 426.782 615.986 424.731 614.473 423.22C612.96 421.709 610.909 420.86 608.77 420.86ZM559 539C557.406 539.002 555.849 539.476 554.525 540.363C553.201 541.25 552.169 542.51 551.561 543.983C550.952 545.456 550.794 547.076 551.106 548.639C551.418 550.201 552.187 551.637 553.314 552.763C554.442 553.889 555.878 554.656 557.441 554.966C559.004 555.276 560.624 555.116 562.097 554.506C563.569 553.895 564.827 552.862 565.712 551.537C566.597 550.212 567.07 548.654 567.07 547.06C567.07 546.001 566.861 544.952 566.455 543.973C566.05 542.995 565.455 542.106 564.706 541.357C563.956 540.609 563.066 540.015 562.087 539.611C561.108 539.206 560.059 538.999 559 539ZM397.56 596.78C395.966 596.782 394.409 597.256 393.085 598.143C391.761 599.03 390.729 600.29 390.121 601.763C389.512 603.236 389.354 604.856 389.666 606.419C389.978 607.982 390.747 609.417 391.874 610.543C393.002 611.669 394.438 612.436 396.001 612.746C397.564 613.056 399.184 612.896 400.657 612.286C402.129 611.675 403.387 610.642 404.272 609.317C405.157 607.992 405.63 606.434 405.63 604.84C405.627 602.702 404.776 600.651 403.263 599.14C401.75 597.629 399.698 596.78 397.56 596.78ZM408.32 666.61C406.726 666.612 405.169 667.086 403.845 667.973C402.521 668.86 401.489 670.12 400.881 671.593C400.272 673.065 400.114 674.686 400.426 676.249C400.738 677.811 401.507 679.247 402.634 680.373C403.762 681.499 405.198 682.266 406.761 682.576C408.324 682.886 409.944 682.726 411.417 682.116C412.889 681.505 414.147 680.472 415.032 679.147C415.917 677.822 416.39 676.264 416.39 674.67C416.39 673.611 416.181 672.562 415.775 671.583C415.37 670.605 414.775 669.716 414.026 668.967C413.276 668.219 412.386 667.625 411.407 667.221C410.428 666.816 409.379 666.609 408.32 666.61ZM615.5 681.38C617.094 681.378 618.651 680.904 619.975 680.017C621.299 679.13 622.331 677.871 622.939 676.398C623.548 674.925 623.706 673.304 623.394 671.742C623.082 670.179 622.313 668.743 621.186 667.617C620.058 666.491 618.622 665.724 617.059 665.414C615.495 665.104 613.875 665.264 612.403 665.875C610.931 666.485 609.673 667.518 608.788 668.843C607.902 670.168 607.43 671.726 607.43 673.32C607.43 674.379 607.639 675.428 608.044 676.407C608.45 677.385 609.045 678.274 609.794 679.023C610.544 679.771 611.433 680.365 612.412 680.769C613.391 681.174 614.441 681.381 615.5 681.38ZM467.5 606.18C465.906 606.182 464.349 606.656 463.025 607.543C461.701 608.43 460.669 609.69 460.061 611.163C459.452 612.635 459.294 614.256 459.606 615.819C459.918 617.381 460.687 618.817 461.814 619.943C462.942 621.069 464.378 621.836 465.941 622.146C467.504 622.456 469.124 622.296 470.597 621.686C472.069 621.075 473.327 620.042 474.212 618.717C475.097 617.392 475.57 615.834 475.57 614.24C475.57 612.102 474.721 610.052 473.209 608.541C471.698 607.029 469.648 606.18 467.51 606.18H467.5Z" fill="white"/>
</g>
<defs>
<clipPath id="clip0_2_2421">
<rect width="1024" height="1024" fill="white"/>
</clipPath>
</defs>
</svg>
