<svg width="1024" height="1024" fill="none" xmlns="http://www.w3.org/2000/svg"><g clip-path="url(#a)"><path d="M512 1024c282.77 0 512-229.23 512-512S794.77 0 512 0 0 229.23 0 512s229.23 512 512 512Z" fill="#9ABEFF"/><path d="M502.42 719H315.18a10.442 10.442 0 0 1-10.45-10.44V529.64H258a12.53 12.53 0 0 1-8.91-21.34L500.8 253.62a15.664 15.664 0 0 1 17.092-3.507A15.676 15.676 0 0 1 523 253.5l.1.1 131.41 132.35v-24.48A10.448 10.448 0 0 1 665 351h43.69a10.44 10.44 0 0 1 10.44 10.44v89.87l55.88 57a12.537 12.537 0 0 1 2.608 13.67 12.532 12.532 0 0 1-4.649 5.589A12.532 12.532 0 0 1 766 529.64h-46.92v178.92a10.43 10.43 0 0 1-3.058 7.382A10.434 10.434 0 0 1 708.64 719H521.4l39-38.94h36a20.136 20.136 0 0 0 22.394 13.135A20.139 20.139 0 1 0 596.4 666.63h-41.53l-36.23 36.16v-44.14l43.14-43.07h69.66a20.136 20.136 0 0 0 22.394 13.135 20.139 20.139 0 1 0-22.394-26.565h-56.2L615.5 562v-33.61l29-28.92a20.107 20.107 0 0 0 25.074-6.579 20.112 20.112 0 0 0-14.764-31.623 20.107 20.107 0 0 0-21.143 14.998A20.107 20.107 0 0 0 635 490l-19.5 19.4v-61.49a20.179 20.179 0 1 0-13.46 0v61.49L582.59 490a20.182 20.182 0 0 0-6.524-25.186 20.183 20.183 0 0 0-25.927 2.177 20.18 20.18 0 0 0 22.941 32.499l29 28.92v28l-36.32 36.26v-26.58a20.178 20.178 0 0 0-6.725-39.206 20.184 20.184 0 0 0-19.89 16.768 20.183 20.183 0 0 0 13.165 22.438v40l-33.63 33.57V442.44l27.62-27.57a20.108 20.108 0 0 0 28.676-19.881 20.107 20.107 0 0 0-18.335-18.316 20.108 20.108 0 0 0-19.851 28.697l-24.83 24.79-24.84-24.79a20.16 20.16 0 1 0-9.51 9.5l27.62 27.57v140.82l-48.43-48.35v-38.65a20.18 20.18 0 1 0-13.45 0v25.22l-37.67-37.6v-37.31a20.18 20.18 0 1 0-13.45 0v42.87L433.79 531h-23.93a20.136 20.136 0 0 0-22.394-13.135 20.142 20.142 0 0 0-11.992 32.831 20.142 20.142 0 0 0 25.588 4.391 20.136 20.136 0 0 0 8.798-10.657h37.38l57.94 57.84v100.5l-30.94-30.89v-38.65a20.178 20.178 0 0 0-6.725-39.206 20.184 20.184 0 0 0-19.89 16.768 20.183 20.183 0 0 0 13.165 22.438v25.22l-45-44.94a20.18 20.18 0 1 0-9.51 9.5l45 44.93h-23.93a20.136 20.136 0 0 0-22.394-13.135 20.142 20.142 0 0 0-11.992 32.831 20.142 20.142 0 0 0 25.588 4.391 20.136 20.136 0 0 0 8.798-10.657h37.38L502.4 719M398.9 419.52a8.057 8.057 0 0 0-7.439 4.983 8.057 8.057 0 0 0 5.88 10.983c1.563.31 3.183.15 4.656-.46a8.065 8.065 0 0 0 4.973-7.446 8.073 8.073 0 0 0-8.07-8.06Zm51.1 49.69a8.057 8.057 0 0 0-7.439 4.983 8.057 8.057 0 0 0 5.88 10.983c1.563.31 3.183.15 4.656-.46a8.065 8.065 0 0 0 4.973-7.446 8.073 8.073 0 0 0-8.07-8.06Zm18.83-80.57a8.057 8.057 0 0 0-7.439 4.983 8.057 8.057 0 0 0 5.88 10.983c1.563.31 3.183.15 4.656-.46a8.065 8.065 0 0 0 4.973-7.446 8.063 8.063 0 0 0-8.04-8.07l-.03.01Zm184.34 100.71a8.057 8.057 0 0 0 7.894-9.638 8.064 8.064 0 0 0-6.335-6.328 8.057 8.057 0 0 0-8.271 3.429 8.053 8.053 0 0 0-.744 7.564 8.065 8.065 0 0 0 7.456 4.973ZM555 404.75a8.058 8.058 0 0 0 7.432-4.989 8.064 8.064 0 0 0-1.76-8.777 8.058 8.058 0 0 0-12.395 1.23A8.06 8.06 0 0 0 555 404.75Zm9.41 68.49a8.057 8.057 0 0 0-7.439 4.983 8.057 8.057 0 0 0 5.88 10.983c1.563.31 3.183.15 4.656-.46a8.065 8.065 0 0 0 4.358-10.543 8.06 8.06 0 0 0-7.485-4.973l.03.01Zm-173.55 56.4a8.057 8.057 0 0 0-7.439 4.983 8.057 8.057 0 0 0 5.88 10.983c1.563.31 3.183.15 4.656-.46a8.065 8.065 0 0 0 4.356-10.54 8.066 8.066 0 0 0-7.483-4.966h.03Zm259.65 87.29a8.057 8.057 0 0 0 7.894-9.638 8.064 8.064 0 0 0-6.335-6.328 8.057 8.057 0 0 0-8.271 3.429 8.053 8.053 0 0 0 .998 10.166 8.07 8.07 0 0 0 5.684 2.371h.03Zm-41.74-196.07a8.057 8.057 0 0 0-7.439 4.983 8.057 8.057 0 0 0 5.88 10.983c1.563.31 3.183.15 4.656-.46a8.065 8.065 0 0 0 4.973-7.446 8.073 8.073 0 0 0-8.07-8.06ZM559 539a8.057 8.057 0 0 0-7.439 4.983 8.057 8.057 0 0 0 5.88 10.983c1.563.31 3.183.15 4.656-.46a8.065 8.065 0 0 0 4.973-7.446A8.059 8.059 0 0 0 559 539Zm-161.44 57.78a8.057 8.057 0 0 0-7.439 4.983 8.057 8.057 0 0 0 5.88 10.983c1.563.31 3.183.15 4.656-.46a8.065 8.065 0 0 0 4.973-7.446 8.073 8.073 0 0 0-8.07-8.06Zm10.76 69.83a8.057 8.057 0 0 0-7.439 4.983 8.056 8.056 0 0 0 1.753 8.78 8.063 8.063 0 0 0 12.398-1.226 8.061 8.061 0 0 0-6.712-12.537Zm207.18 14.77a8.057 8.057 0 0 0 7.894-9.638 8.064 8.064 0 0 0-6.335-6.328 8.057 8.057 0 0 0-8.271 3.429 8.053 8.053 0 0 0-.744 7.564 8.065 8.065 0 0 0 7.456 4.973Zm-148-75.2a8.057 8.057 0 0 0-7.439 4.983 8.056 8.056 0 0 0 1.753 8.78 8.063 8.063 0 0 0 12.398-1.226 8.061 8.061 0 0 0-6.702-12.537h-.01Z" fill="#fff"/></g><defs><clipPath id="a"><path fill="#fff" d="M0 0h1024v1024H0z"/></clipPath></defs></svg>