<svg width="1024" height="1024" viewBox="0 0 1024 1024" fill="none" xmlns="http://www.w3.org/2000/svg">
<g clip-path="url(#clip0_2_2430)">
<path d="M512 1024C794.77 1024 1024 794.77 1024 512C1024 229.23 794.77 0 512 0C229.23 0 0 229.23 0 512C0 794.77 229.23 1024 512 1024Z" fill="#8C72BD"/>
<path d="M293.24 495.72V256L414.07 320.51V428.51L574 428.6L696.78 495.72H293.24ZM606.69 408.72V256L730.76 318.91V480.91L606.69 408.72ZM606.69 701.72V594.65L445.53 594.53C445.7 595.25 320.72 526.33 320.72 526.33L730.72 528.26V768L606.69 701.75V701.72ZM293.24 701.72V545.11L414.07 615.6V764.67L293.24 701.72Z" fill="white"/>
</g>
<defs>
<clipPath id="clip0_2_2430">
<rect width="1024" height="1024" fill="white"/>
</clipPath>
</defs>
</svg>
