<svg width="1024" height="1024" fill="none" xmlns="http://www.w3.org/2000/svg"><g clip-path="url(#a)"><path d="M512 1024c282.77 0 512-229.23 512-512S794.77 0 512 0 0 229.23 0 512s229.23 512 512 512Z" fill="#98DC9A"/><path d="M539.19 738.63C433 752.2 311.71 668.88 296 546c-8.63-67.58 1.59-134.51 44.56-177.34 42.97-42.83 56 43.67 55.67 82.79-.33 39.12 9.16 126.57 16.45 155.72 19.58 78.31 67.05 131.61 126.5 131.42l.01.04ZM320 253.64c71.83-21.89 165.48 21.36 190.8 104.45 13.93 45.7 14.74 93.15-9.9 127.81s-43.84-23.59-48.23-50.65c-4.39-27.06-21.25-86.39-29.67-105.69-22.8-51.81-61.89-83.05-103-75.92Zm164.76 31.73C591 271.8 712.29 355.12 728 478c8.63 67.58-1.6 134.51-44.56 177.34-42.96 42.83-56-43.67-55.67-82.79.33-39.12-9.15-126.57-16.44-155.72-19.58-78.31-67.06-131.61-126.5-131.42l-.07-.04ZM704 770.36C632.17 792.25 538.52 749 513.2 665.91c-13.93-45.7-14.75-93.15 9.9-127.81s43.84 23.59 48.23 50.64c4.39 27.05 21.24 86.4 29.71 105.7C623.8 746.26 662.9 777.5 704 770.36Z" fill="#fff"/></g><defs><clipPath id="a"><path fill="#fff" d="M0 0h1024v1024H0z"/></clipPath></defs></svg>