<svg width="1024" height="1024" fill="none" xmlns="http://www.w3.org/2000/svg"><g clip-path="url(#a)"><path d="M512 1024c282.77 0 512-229.23 512-512S794.77 0 512 0 0 229.23 0 512s229.23 512 512 512Z" fill="#8C72BD"/><path d="M293.24 495.72V256l120.83 64.51v108l159.93.09 122.78 67.12H293.24Zm313.45-87V256l124.07 62.91v162l-124.07-72.19Zm0 293V594.65l-161.16-.12c.17.72-124.81-68.2-124.81-68.2l410 1.93V768l-124.03-66.25v-.03Zm-313.45 0V545.11l120.83 70.49v149.07l-120.83-62.95Z" fill="#fff"/></g><defs><clipPath id="a"><path fill="#fff" d="M0 0h1024v1024H0z"/></clipPath></defs></svg>