<svg width="1024" height="1024" viewBox="0 0 1024 1024" fill="none" xmlns="http://www.w3.org/2000/svg">
<g clip-path="url(#clip0_2_2433)">
<path d="M512 1024C794.77 1024 1024 794.77 1024 512C1024 229.23 794.77 0 512 0C229.23 0 0 229.23 0 512C0 794.77 229.23 1024 512 1024Z" fill="#56595B"/>
<path d="M486.75 241.37C523.25 238.07 560.47 241.81 595.34 253.24C634.91 265.99 671.29 288.16 701.17 317.03C728.44 343.56 750.28 375.74 764.48 411.05C790.3 474.83 790.57 548.59 764.87 612.44C748.2 654.12 721.04 691.52 686.71 720.42C646.83 754.13 597.06 776.37 545.03 782.05C514.69 785.01 483.77 784.52 453.9 778C414.75 769.66 377.62 752.18 346.02 727.64C309.16 699.17 279.77 661.14 261.58 618.27C247.98 586.37 240.71 551.82 240.06 517.15C238.98 467.89 251.89 418.43 276.79 375.92C301.83 332.83 338.85 296.79 382.65 273.01C414.72 255.53 450.38 244.72 486.74 241.37M485.29 282.82C466.05 285.06 447.06 289.62 428.97 296.58C384.75 313.42 346.11 344.43 319.97 383.87C291.89 425.7 278.24 476.95 281.64 527.2C284.31 569.55 298.99 611.05 323.64 645.59C349.56 682.21 386.38 711.02 428.22 727.23C462.71 740.82 500.52 745.49 537.33 741.59C596.26 735.46 652.04 705.11 689.62 659.36C725.08 616.84 744.4 561.24 742.74 505.89C741.82 465.9 730 426.27 709.16 392.14C684.54 351.55 647.17 318.77 603.51 300.07C566.54 284.02 525.3 278.2 485.29 282.84V282.82ZM359.76 368.66C359.75 366.71 359.67 363.21 362.5 363.41C375.97 363.27 389.43 363.35 402.88 363.37C405.38 362.89 407.17 365.14 406.93 367.5C407.01 395.51 406.97 423.51 406.96 451.53C416.03 441.88 428.34 434.91 441.82 434.55C461.15 434.31 482.07 439.99 495.04 455.15C507.21 469.46 511.5 488.76 512.03 507.14C512.12 532.71 512 558.28 512.08 583.86C512.02 585.95 512.11 588.23 510.88 590.05C507.96 591.95 504.3 590.86 501.05 590.92C490.96 590.72 480.86 590.72 470.78 591.13C467.99 591.55 464.48 589.73 464.88 586.52C464.79 560.91 464.89 535.29 464.84 509.66C464.56 500.66 462.61 490.85 455.84 484.39C448.34 477.64 437.19 476.7 427.74 478.94C419.47 480.73 412.63 487.04 409.68 494.9C405.31 505.56 407.65 517.23 406.75 528.38C406.5 546.9 406.64 565.43 406.99 583.95C407.13 586.74 406.76 591.26 402.96 591.05C389.87 590.74 376.76 590.72 363.67 591.01C360.99 591.32 359.4 588.88 359.79 586.42C359.71 513.83 359.8 441.24 359.74 368.65L359.76 368.66ZM588.38 442.28C608.99 430.95 635.06 429.71 656.36 439.93C671.21 447.19 684.35 458.49 692.55 472.95C700.59 486.97 703.81 503.51 702.62 519.56C700.87 542.21 688.66 563.69 670.38 577.11C653.3 589.91 630.64 595.75 609.67 590.83C599.39 588.65 590.47 582.91 581.32 578.07C581.23 607.3 581.33 636.54 581.27 665.79C581.02 668.57 581.48 671.68 580.02 674.2C577.02 675.72 573.55 675.01 570.33 675.17C559.76 674.93 549.17 675.59 538.63 674.77C538.23 673.05 537.82 671.31 537.84 669.55C537.9 593.15 537.8 516.73 537.89 440.33C537.68 438.47 539.4 436.84 541.24 437.06C552.6 436.61 565.03 436.63 574.55 443.81C578.88 447.02 584.32 444.75 588.38 442.3M615.9 476.06C603.97 478.35 593.64 486.96 588.86 498.06C583.99 509.06 585 522.35 591.41 532.52C599.56 546.05 616.89 552.92 632.15 548.87C648.94 544.94 661.56 528.13 660.28 510.86C659.7 489.13 637.21 471.27 615.91 476.06H615.9Z" fill="white"/>
</g>
<defs>
<clipPath id="clip0_2_2433">
<rect width="1024" height="1024" fill="white"/>
</clipPath>
</defs>
</svg>
