<svg width="1024" height="1024" fill="none" xmlns="http://www.w3.org/2000/svg"><g clip-path="url(#a)"><path d="M512 1024c282.77 0 512-229.23 512-512S794.77 0 512 0 0 229.23 0 512s229.23 512 512 512Z" fill="#73ADA4"/><path d="M307.87 456.11c-14.54 0-26.48 4.15-32.71 13V412.5h-33.24v151.6h33.75v-56.59c0-13.5 7.79-20.77 21.29-20.77 11.94 0 17.65 6.75 17.65 18.7v58.66h33.23v-60.75c0-30.11-16.61-47.24-39.97-47.24Zm109 0c-32.71 0-58.15 22.85-58.15 55.56 0 32.19 25.44 55 58.15 55 32.71 0 58.15-22.84 58.15-55s-25.41-55.56-58.12-55.56h-.03Zm0 82c-15.06 0-23.89-10.91-23.89-26.48 0-16.1 9.35-26.48 23.89-26.48 15.05 0 23.88 10.91 23.88 26.48s-8.75 26.51-23.85 26.51l-.03-.03Zm189.51-79.44h-28c-11.42 0-25.44 6.75-32.19 23.37l-4.19 7.82c-4.67 10.91-8.31 18.17-8.31 18.17l-1 4.67-1.57-4.7s-3.63-7.78-8.3-18.17l-3.64-8.31c-6.75-16.62-21.29-23.37-32.19-23.37H459s11.42 3.12 23.37 23.37c11.89 19.76 44.63 84.67 44.63 84.67h11.95s32.71-64.9 44.65-84.63c11.42-19.73 22.84-22.84 22.84-22.84l-.06-.05Zm43.62-2.55c-32.71 0-58.15 22.84-58.15 55 0 32.71 24.41 55.55 62.31 55.55 22.33 0 34.79-6.75 45.17-15.57l-19.21-20.77a46.865 46.865 0 0 1-26.48 8.31c-15.05 0-23.88-6.23-27.52-17.14h80.48c1.56-36.86-18.69-65.42-56.59-65.42l-.01.04Zm-23.88 45.17c2.59-12.46 11.42-18.69 24.92-18.69 13 0 20.77 6.75 22.33 18.69h-47.25Zm156.28-45.17c-10.91 0-23.37 3.63-29.6 15.05v-13h-33.72v105.4h33.75v-46.71c0-22.33 8.31-29.6 23.37-29.6a28.149 28.149 0 0 1 13 3.12l10.91-30.63a49.994 49.994 0 0 0-17.65-3.63h-.06Z" fill="#fff"/></g><defs><clipPath id="a"><path fill="#fff" d="M0 0h1024v1024H0z"/></clipPath></defs></svg>