<svg width="1024" height="1024" fill="none" xmlns="http://www.w3.org/2000/svg"><g clip-path="url(#a)"><path d="M512 1024c282.77 0 512-229.23 512-512S794.77 0 512 0 0 229.23 0 512s229.23 512 512 512Z" fill="#FF837D"/><path d="M282.54 451.42c-3.34-44.4 43.54-88.71 43.54-88.71s86.15 103.91 149.14 240.95a1.671 1.671 0 0 1-.46 2 1.943 1.943 0 0 1-2.21.38c-23-11.37-122-61.47-162.84-101.13 0 0-25.38-19.9-27.16-53.48m10 192.34c17.88 31.74 48 56.38 79.31 48.82 21.66-5.38 70.65-39.43 86.81-50.94 1.24-1.14.8-2 .8-2a2.243 2.243 0 0 0-2.12-1.47V638l-164.8 5.77Zm-39.42-73.66c17.87 37.63 52 49 52 49a101.006 101.006 0 0 0 31.54 6.89c2.45.46 98 .05 123.57-.07a2.233 2.233 0 0 0 1.7-1.09c.79-1.3-.62-2.45-.62-2.45C389 573.76 248.7 499.11 248.7 499.11c-12.74 39.31 4.44 71 4.44 71m193.2-273.23c-43.62 11.23-53.93 50.66-53.93 50.66-8 24.8.2 52 .2 52 14.56 64.35 86.21 170.07 101.61 192.29 1.09 1.09 2 .7 2 .7a2 2 0 0 0 1.53-2.06c23.7-236.08-24.88-298.65-24.88-298.65-7.17.62-26.53 5-26.53 5m79.8 293.81a2.004 2.004 0 0 0 1.25 1.81 1.933 1.933 0 0 0 2.4-.91c15.8-22.78 87-127.94 101.53-192 0 0 7.86-31 .27-52 0 0-10.77-40-54.46-50.63 0 0-12.58-3.17-25.93-5-.17.2-48.79 63-25.09 298.82m40.29 47.51c-.389.048-.76.189-1.084.409a2.468 2.468 0 0 0-.776.861 2.327 2.327 0 0 0 .64 2.21c15.78 11.26 63.58 44.56 86.64 51 0 0 42.59 14.45 79.58-48.85l-165-5.72v.09Zm-3.64-15.93a2.176 2.176 0 0 0-.86 2.39s.67 1.24 1.7 1.24c25.91 0 124.07.17 126.54-.3a98.728 98.728 0 0 0 28.36-6.49s34.9-11 53-50.54c0 0 16.17-32.19 3.65-69.81 0 0-140 74.86-212.46 123.49M549.07 603a2.317 2.317 0 0 0 .46 2.61 2.085 2.085 0 0 0 2.22.16c23.61-11.68 121.83-61.44 162.51-100.91 0 0 25.74-20.62 27.11-53.7 3-45.95-43.47-88.48-43.47-88.48S612 466.28 549.07 603Z" fill="#fff"/></g><defs><clipPath id="a"><path fill="#fff" d="M0 0h1024v1024H0z"/></clipPath></defs></svg>