<svg width="1024" height="1024" viewBox="0 0 1024 1024" fill="none" xmlns="http://www.w3.org/2000/svg">
<g clip-path="url(#clip0_2_2457)">
<path d="M512 1024C794.77 1024 1024 794.77 1024 512C1024 229.23 794.77 0 512 0C229.23 0 0 229.23 0 512C0 794.77 229.23 1024 512 1024Z" fill="#9ABEFF"/>
<path d="M569.57 397.57C569.57 324.06 533.74 260.84 506.49 240.25C506.38 240.19 504.4 239.08 504.57 242.02V242.11C502.31 384.05 429.76 422.52 389.88 474.34C297.88 593.93 383.44 725.05 470.6 749.28C519.37 762.84 459.34 725.28 451.6 645.97C442.25 550.1 569.6 476.97 569.6 397.57M611.42 445.9C610.86 445.52 610.07 445.26 609.52 446.17C608.02 464.04 589.76 502.26 566.62 537.35C488.12 656.35 532.86 713.78 558.01 744.6C572.62 762.49 558.01 744.6 594.52 726.31C597.38 724.88 665.75 686.55 673.15 599.23C680.32 514.67 629.51 461.38 611.43 445.89" fill="white"/>
</g>
<defs>
<clipPath id="clip0_2_2457">
<rect width="1024" height="1024" fill="white"/>
</clipPath>
</defs>
</svg>
