<svg width="1024" height="1024" fill="none" xmlns="http://www.w3.org/2000/svg"><g clip-path="url(#a)"><path d="M512 1024c282.77 0 512-229.23 512-512S794.77 0 512 0 0 229.23 0 512s229.23 512 512 512Z" fill="#54688C"/><path d="M512 234.5c-153.26.02-277.49 124.23-277.5 277.5-.01 153.27 124.24 277.49 277.5 277.5 153.26.01 277.48-124.24 277.5-277.5.02-153.26-124.23-277.48-277.5-277.5Zm170.06 447.57a240.497 240.497 0 0 1-303.672 29.895 240.501 240.501 0 0 1 180.543-435.842A240.499 240.499 0 0 1 752.51 512a239.667 239.667 0 0 1-70.45 170.07Zm-21.4-82.65-16.95 49.29H492.26v-5.65h7a27.766 27.766 0 0 0 13.25-3.33 12.2 12.2 0 0 0 6.33-7 28.723 28.723 0 0 0 1.21-6.55c.08-.833.153-1.73.22-2.69V464.04h-91.34v59c0 9.9.63 16.437 1.89 19.61.96 2.4 2.987 4.463 6.08 6.19a26.61 26.61 0 0 0 13.18 3.46h7.1v5.66H373v-5.56h7c8.153 0 14.07-2.357 17.75-7.07 2.327-3.073 3.49-10.47 3.49-22.19v-125.8c0-9.94-.633-16.49-1.9-19.65a12.998 12.998 0 0 0-6-6.17 27.868 27.868 0 0 0-13.34-3.44h-7v-5.65h84.2v5.65h-7.1a27.802 27.802 0 0 0-13.18 3.3 12.412 12.412 0 0 0-6.22 7c-1.167 3.113-1.747 9.447-1.74 19v56h91.32v-.22h.08v-55.82c0-9.94-.633-16.49-1.9-19.65-.967-2.393-3.003-4.45-6.11-6.17a27.075 27.075 0 0 0-13.25-3.44h-7v-5.65h84.2v5.65h-7a27.996 27.996 0 0 0-13.24 3.3 12.116 12.116 0 0 0-6.34 7c-1.147 3.08-1.72 9.4-1.72 18.96v55.75h95.17l2.05 42.63h-6.68c-2-10-4.203-16.883-6.61-20.65a22.716 22.716 0 0 0-10.75-8.56c-3.8-1.413-10.487-2.117-20.06-2.11h-52.89v76.49h42.1c10.993 0 18.327-1.667 22-5 4.927-4.387 7.677-12.127 8.25-23.22h5.65v68.28h-5.65c-1.333-9.553-2.667-15.687-4-18.4a17.998 17.998 0 0 0-8.4-8c-3.887-1.927-9.86-2.893-17.92-2.9h-42.1v64c0 4.567.107 8.18.32 10.84.054 1.643.33 3.271.82 4.84a9.004 9.004 0 0 0 4 4.43c1.913 1.1 5.553 1.65 10.92 1.65h33.05c11.013 0 19.013-.763 24-2.29a35.831 35.831 0 0 0 14.38-9c5.933-5.893 12.017-14.797 18.25-26.71l6.76.01Z" fill="#fff"/></g><defs><clipPath id="a"><path fill="#fff" d="M0 0h1024v1024H0z"/></clipPath></defs></svg>