<svg width="1024" height="1024" fill="none" xmlns="http://www.w3.org/2000/svg"><g clip-path="url(#a)"><path d="M512 1024c282.77 0 512-229.23 512-512S794.77 0 512 0 0 229.23 0 512s229.23 512 512 512Z" fill="#9ABEFF"/><path d="M425.59 342.61h1.54v-.09c-.55.03-1.05.09-1.54.09ZM733.53 388c-14.89-41.19-55-68.76-100-68.74-1.73 0-3.37 0-5 .07a107.295 107.295 0 0 0-81.3-36.79c-3.61 0-117.59.72-117.59.72-16.89 0-30.59 13.25-30.6 29.63-.01 16.38 13.67 29.66 30.56 29.67h104.23a10.67 10.67 0 0 1 11.164 14.208 10.678 10.678 0 0 1-5.704 6.15c-1.317.586-2.739.9-4.18.922-.426.024-.854.024-1.28 0 0 0-17.57.41-18.1.41h-37.19c-16.89 0-30.58 13.27-30.58 29.65s13.69 29.65 30.58 29.65h105.4c.52 0 1-.05 1.53-.06l6.29.11a10.659 10.659 0 0 1 10.256 6.458 10.656 10.656 0 0 1-2.429 11.874 10.64 10.64 0 0 1-7.827 2.948s-7.32.43-7.81.43H357.88c-16.89.29-30.34 13.79-30 30.16.29 16 13.57 28.85 30 29.13h140a10.683 10.683 0 0 1 11.23 10.11A10.683 10.683 0 0 1 499 525.94h-1.11l-6.3.48c-.5 0-1-.08-1.54-.08H319.22c-16.89 0-30.57 13.27-30.57 29.64s13.69 29.64 30.57 29.64H553c.53 0 1 0 1.54-.06l6.29.11a10.651 10.651 0 0 1 10.134 14.796 10.651 10.651 0 0 1-10.134 6.494l-45 .42h-22c-16.89 0-30.58 13.28-30.58 29.65 0 16.37 13.69 29.65 30.58 29.65H535c.81 0 1.63-.07 2.48-.14 41.62 28.38 83.51 57 83.51 57s31.83 23.42 47.71 16.56c0 0 22-6.95 15.3-34-.26-1.19-6.68-27.7-11.38-50.6-1-5-.94-13.82 9.92-16.2 40.48-9.49 71.47-41.09 79.23-80.76 43.55-37.88 47.18-102.82 8.12-145A105.848 105.848 0 0 0 733.54 388v.05l-.01-.05Zm-428.46 87c0-16.37-13.69-29.64-30.57-29.65h-16.92C240.69 445.39 227 458.67 227 475s13.69 29.65 30.58 29.65h16.95c16.88.03 30.55-13.24 30.54-29.65Zm19.86-51.4h75.73c16.89 0 30.59-13.25 30.6-29.63.01-16.38-13.67-29.66-30.56-29.67H325c-16.89 0-30.58 13.27-30.58 29.65S308.11 423.6 325 423.6h-.07Zm84.38 183.8h-12.78c-16.89 0-30.58 13.28-30.58 29.65 0 16.37 13.69 29.65 30.58 29.65h12.77c16.89 0 30.58-13.28 30.58-29.65 0-16.37-13.68-29.61-30.58-29.61l.01-.04Z" fill="#fff"/></g><defs><clipPath id="a"><path fill="#fff" d="M0 0h1024v1024H0z"/></clipPath></defs></svg>