<svg width="1024" height="1024" fill="none" xmlns="http://www.w3.org/2000/svg"><g clip-path="url(#a)"><path d="M512 1024c282.77 0 512-229.23 512-512S794.77 0 512 0 0 229.23 0 512s229.23 512 512 512Z" fill="#F9DE81"/><path d="M654.41 224c-26.66 0-75.73 3.73-120.79 23.68v218.2h-53.09V268.82c-23.17 7.37-72 30.46-110.94 60.68 24.64 19.16 33.41 41.19 33.41 59.8v310.1l-11.79 9.89c21.42 61.56 43.69 98.36 88.39 140.71V535.58h52.14v224.36c55-38.37 75.65-65.11 87-97.8l-11.15-4.91V399.72c-.01-70.28 16.7-134.32 46.82-175.72Z" fill="#fff"/></g><defs><clipPath id="a"><path fill="#fff" d="M0 0h1024v1024H0z"/></clipPath></defs></svg>