<svg width="1024" height="1024" fill="none" xmlns="http://www.w3.org/2000/svg"><g clip-path="url(#a)"><path d="M512 1024c282.77 0 512-229.23 512-512S794.77 0 512 0 0 229.23 0 512s229.23 512 512 512Z" fill="#728DBE"/><path d="M223.9 611.5h112v16h-112v-16Zm0-30.8h112v16.1h-112v-16.1Zm31.9-30.7h48.1v16.1h-48.1V550Zm0-30.7h48.1v16.1h-48.1v-16.1Zm0-30.7h48.1v16.1h-48.1v-16.1Zm0-30.8h48.1v16.1h-48.1v-16.1Zm-31.9-30.7h112v16.1h-112v-16.1Zm0-30.7h112v16.1h-112v-16.1Zm128 200.4h172.3c2.9-4.9 5.1-10.4 6.4-16.1H351.9v16.1Zm158.9-77.5H384v16.1h140.3c-3.6-6.1-8.1-11.5-13.5-16.1Zm-126.9-30.7v16.1h126.9c5.3-4.5 9.8-9.9 13.4-16.1H383.9Zm140.3-61.5H351.9v16.1h178.7c-1.4-5.6-3.6-11-6.4-16.1Zm-52.9-30.7H351.9v16.1h160.5c-11.2-10.3-25.9-16.1-41.1-16.1Zm-87.4 61.4h48v16.1h-48v-16.1Zm96.1 16.1h50.2c1.4-5.1 2.2-10.6 2.2-16.1H480v16.1ZM383.9 550h48v16.1h-48V550Zm96.1 0v16.1h52.4c0-5.5-.7-11-2.2-16.1H480Zm-128.1 77.4 119.3.2c16 0 30.4-6.2 41.2-16.1H351.9v15.9ZM544 611.5h80v16h-80v-16Zm0-30.8h80v16.1h-80v-16.1Zm32-30.7h48v16.1h-48V550Zm0-30.7h48v16.1h-48v-16.1Zm70.3-92.2H544v16.1h107.8l-5.5-16.1Zm-10.6-30.7H544v16.1h97.2l-5.5-16.1ZM720 611.5h80.1v16H720v-16Zm0-30.8h80.1v16.1H720v-16.1Zm0-30.7h48v16.1h-48V550Zm0-30.7h48v16.1h-48v-16.1Zm0-14.6h48v-16.1h-91.5l-4.5 13-4.5-13H576v16.1h48v-14.8l5.1 14.8h85.8l5.1-14.8v14.8Zm48.1-46.9h-80.9l-5.5 16.1h86.4v-16.1Zm-59.6-61.4-5.5 16.1h97.2v-16.1h-91.7Zm-36.5 231 5.5-15.9h-11.1l5.6 15.9Zm-10.6-30.6h21.2l5.7-16.1h-32.6l5.7 16.1Zm-10.8-30.7h42.8L699 550h-54l5.6 16.1Zm-10.7-30.7h64.3l5.5-16.1h-75.3l5.5 16.1ZM576 473.9h86.5l-5.5-16.1h-81v16.1Zm116.3-30.7h107.8v-16.1H697.8l-5.5 16.1Z" fill="#fff"/></g><defs><clipPath id="a"><path fill="#fff" d="M0 0h1024v1024H0z"/></clipPath></defs></svg>