<svg width="1024" height="1024" fill="none" xmlns="http://www.w3.org/2000/svg"><g clip-path="url(#a)"><path d="M512 1024c282.77 0 512-229.23 512-512S794.77 0 512 0 0 229.23 0 512s229.23 512 512 512Z" fill="#9ABEFF"/><path d="M566 518.65c6.22 6.213 10.04 13.14 11.46 20.78v18.06c-1.42 7.553-5.24 14.44-11.46 20.66a42.144 42.144 0 0 1-45.942 9.201 42.138 42.138 0 0 1 0-77.893A42.142 42.142 0 0 1 566 518.66v-.01Zm246.74 76.8c-14.08 58.55-58.6 95.78-121 97.52-58.06 1.62-116.18.35-174.28.35v-.26c-56.16 0-112.38 1.61-168.46-.41-70.62-2.53-127.7-52.83-138.29-118.28-12.62-77.89 19.65-143.4 89.2-169.89 28.52-10.86 48.71-26.51 68.46-49.14 88.81-101.75 249.66-81.21 312 40.06 14.82 28.85 30.83 48.44 62.14 61.77 56.57 24.12 83.37 83.45 70.18 138.28h.05ZM440.13 423.62H415.7V612.5h24.43V423.62Zm161.82 0h-24.54v75.79c-11.807-12.194-25.537-18.294-41.19-18.3-18.58 0-34.417 6.57-47.51 19.71-13.094 13.14-19.664 29-19.71 47.58 0 18.573 6.553 34.43 19.66 47.57 13.106 13.14 28.943 19.71 47.51 19.71 15.653 0 29.383-6.1 41.19-18.3v15.12H602l-.05-188.88Z" fill="#fff"/></g><defs><clipPath id="a"><path fill="#fff" d="M0 0h1024v1024H0z"/></clipPath></defs></svg>