<svg width="1024" height="1024" fill="none" xmlns="http://www.w3.org/2000/svg"><g clip-path="url(#a)"><path d="M512 1024c282.77 0 512-229.23 512-512S794.77 0 512 0 0 229.23 0 512s229.23 512 512 512Z" fill="#FF837D"/><path d="M198.82 439.12a17.146 17.146 0 0 1 12.24-4.77h16.8V590.5h-34.09V450.69a15.306 15.306 0 0 1 5-11.57h.05Zm137.84 111.44c7.04-7.26 10.56-19.97 10.56-38.13 0-17.547-3.36-30.41-10.08-38.59-6.407-8.167-16.65-12.25-30.73-12.25h-31.69v100.77h27.36c15.68 0 27.203-3.933 34.57-11.8h.01Zm-30.25-116.21c25.286 0 44.17 6.357 56.65 19.07 12.486 13.333 18.73 33 18.73 59 0 13.927-2.24 26.487-6.72 37.68-5.12 11.5-11.844 20.277-20.17 26.33a67.12 67.12 0 0 1-22.57 10.89c-7.68 2.12-19.347 3.18-35 3.18h-55.74V450.69a15.318 15.318 0 0 1 5-11.57 17.17 17.17 0 0 1 12.24-4.77h47.58Zm149.32 35.41a100.132 100.132 0 0 0-25.21 3.18 60.82 60.82 0 0 0-21.36 10A49.488 49.488 0 0 0 394 502.21c-3.68 8-5.52 17.91-5.52 29.73v58.56h33.61v-62.18c0-9.087 2.24-15.753 6.72-20 4.48-4.247 11.37-6.353 20.67-6.32h11v-32.24h-4.8.05Zm32.43 0h-17.29V590.5h33.61V485.19a14.502 14.502 0 0 0-4.8-10.89 16.23 16.23 0 0 0-11.52-4.54Zm120.76 0c-7.68 0-12.8 3.633-15.36 10.9l-22.56 74-25.45-84.89H510l44.66 120.73h34.09l45.13-120.74h-24.96Zm-122.92-44c-10.19 0-18.45 7.81-18.45 17.45s8.26 17.45 18.45 17.45 18.46-7.81 18.46-17.45-8.26-17.45-18.46-17.45Zm333.5-23.38c-10.667-18.567-26.407-30.63-47.22-36.19-20.83-5.56-40.43-2.92-59.1 7.73s-30.6 26.58-36.18 47.41c-.85 3.2-1.51 6.41-2.07 9.52 11-5.65 22-8.29 32.61-7.83 4-9.61 10.74-17.15 20.17-22.71a47.07 47.07 0 0 1 36.66-4.81c12.91 3.49 22.71 10.93 29.31 22.43a46.454 46.454 0 0 1 6.22 29.6c8.86 4.9 16.87 12.91 24.13 23.84 1.23-3.11 2.35-6.31 3.4-9.71 5.46-20.83 2.92-40.62-7.92-59.28h-.01Zm3.58 118-17.16 64.09a54.112 54.112 0 0 1-26.29 33.93c-13.38 7.73-27.53 9.71-42.41 5.75l-64.18-17.25a56.075 56.075 0 0 1-34.083-26.13 56.056 56.056 0 0 1-5.597-42.58l17.15-64.09a53.706 53.706 0 0 1 23.65-32.42 21.874 21.874 0 0 1 2.45-1.6 53.379 53.379 0 0 1 28-7.64c4.965.028 9.907.7 14.7 2l64.09 17.25a51.427 51.427 0 0 1 14.24 5.84 53.46 53.46 0 0 1 17.72 17 29.546 29.546 0 0 1 2.07 3.39 36.227 36.227 0 0 1 1.79 3.3c6.24 12.4 7.47 25.41 3.88 39.17l-.02-.01Zm-35.78 9.12c0-20-5.12-35.587-15.36-46.76-10.56-10.893-25.444-16.34-44.65-16.34-18.247 0-32.49 5.6-42.73 16.8-9.92 10.893-14.884 26.023-14.89 45.39 0 20.28 5.12 35.867 15.36 46.76 10.246 11.2 24.49 16.8 42.73 16.8 15.046 0 27.53-3.48 37.45-10.44 9.92-6.667 16.643-16.333 20.17-29h-24c-3.847 0-6.807.757-8.88 2.27-2.074 1.513-3.274 2.723-3.6 3.63l-2.64 2.5a6.786 6.786 0 0 1-2.65 1.59 28.379 28.379 0 0 1-13.92 3.18c-8.327 0-14.567-2.423-18.72-7.27-4.487-4.54-6.89-11.5-7.21-20.88h83.07a7.53 7.53 0 0 0 .48-3.18v-5l-.01-.05Zm-59.05-36.77c-7.04 0-12.8 2.12-17.28 6.36s-6.884 10.293-7.21 18.16h49c-.667-8.173-2.907-14.227-6.72-18.16-4.167-4.233-10.09-6.353-17.77-6.36h-.02Z" fill="#fff"/></g><defs><clipPath id="a"><path fill="#fff" d="M0 0h1024v1024H0z"/></clipPath></defs></svg>