<svg width="1024" height="1024" viewBox="0 0 1024 1024" fill="none" xmlns="http://www.w3.org/2000/svg">
<g clip-path="url(#clip0_2_2490)">
<path d="M512 1024C794.77 1024 1024 794.77 1024 512C1024 229.23 794.77 0 512 0C229.23 0 0 229.23 0 512C0 794.77 229.23 1024 512 1024Z" fill="#56595B"/>
<path d="M224 432.9H273V587.2H224V432.9ZM504.5 432.9H420.3V482H455.4V587.2H504.5V481.9H539.6V432.8H504.5V432.9ZM637.7 432.9H553.5V482H588.6V587.2H637.7V481.9H672.8V432.8H637.7V432.9ZM771 432.9H686.8V482H721.9V587.2H771V481.9H806V432.8H771V432.9ZM406.3 481.9V432.8H294.1V587.1H343.2V545H385.3V496H343.2V482H406.3V481.9Z" fill="white"/>
</g>
<defs>
<clipPath id="clip0_2_2490">
<rect width="1024" height="1024" fill="white"/>
</clipPath>
</defs>
</svg>
