<svg width="1024" height="1024" fill="none" xmlns="http://www.w3.org/2000/svg"><g clip-path="url(#a)"><path d="M512 1024c282.77 0 512-229.23 512-512S794.77 0 512 0 0 229.23 0 512s229.23 512 512 512Z" fill="#9ABEFF"/><path d="M584.16 716.63a101.24 101.24 0 0 1-143.18 1l-1-1a128.657 128.657 0 0 0-73.28-36.17v28.15a103.769 103.769 0 0 1 53.33 28 129.636 129.636 0 0 0 141.695 28.286 129.647 129.647 0 0 0 42.145-28.286 101.066 101.066 0 0 1 50.34-27.22v-28.56a129.412 129.412 0 0 0-70.21 35.8m.19-71.23a101.24 101.24 0 0 1-143.18 1l-1-1a130.33 130.33 0 0 0-184 0l20 20a102 102 0 0 1 144.13 0 129.636 129.636 0 0 0 141.695 28.286A129.647 129.647 0 0 0 603.98 665.4a102 102 0 0 1 144.13 0l20-20a130.33 130.33 0 0 0-184 0m61.39-167.61h.19l-.56-154.2h-65.26l-.19-74.39-134.25.37v74.58h-65.25l.37 154.2L320 511.16l20.14 72.72a126.78 126.78 0 0 1 30.39 1.49l-16.46-59.67 144.31-77.94.37 187.2h29.09l-.56-187.2L672.16 525l-15.66 58.13c9.872-.529 19.773.099 29.5 1.87l20.51-74.77-61.01-32.44Zm-171-199.32h76.1v-.19l.19 45.49-76.26.19-.03-45.49Zm38.41 128.47-103.3 55.94-.37-109.63h36.36l134.25-.56h36.36l.19 109.45-103.49-55.2Z" fill="#fff"/></g><defs><clipPath id="a"><path fill="#fff" d="M0 0h1024v1024H0z"/></clipPath></defs></svg>