<svg width="1024" height="1024" viewBox="0 0 1024 1024" fill="none" xmlns="http://www.w3.org/2000/svg">
<g clip-path="url(#clip0_2_2505)">
<path d="M512 1024C794.77 1024 1024 794.77 1024 512C1024 229.23 794.77 0 512 0C229.23 0 0 229.23 0 512C0 794.77 229.23 1024 512 1024Z" fill="#54688C"/>
<path d="M869.22 416.04C866.59 413.1 863.08 411.61 858.34 411.61C853.6 411.61 849.97 413.18 847.44 416.42C844.92 419.55 843.61 424.27 843.61 430.45V475.2C837.77 468.92 831.71 464.4 825.56 461.36C821.72 459.51 817.19 458.13 812.14 457.43C809.21 457.03 806.19 456.83 802.87 456.83C787.44 456.83 774.95 462.13 765.36 472.74C755.88 483.35 751.14 498.07 751.14 516.99C751.14 525.93 752.36 534.28 754.76 541.92C757.2 549.57 760.6 556.25 765.25 561.93C769.89 567.63 775.44 571.93 781.78 575.08C788.12 578.12 794.99 579.69 802.44 579.69C805.86 579.69 809.08 579.41 812.11 578.82C814.13 578.52 816.03 578.03 817.96 577.43C822.69 575.86 827.14 573.61 831.17 570.77C835.3 567.83 839.44 563.99 843.57 559.39V562.33C843.57 567.92 844.98 572.14 847.7 575.18C850.53 578.12 854.06 579.69 858.28 579.69C862.5 579.69 866.14 578.22 868.86 575.38C871.57 572.44 872.99 568.11 872.99 562.34V428.89C873.04 423.29 871.72 418.96 869.21 416.04H869.22ZM837.86 539.48C835.14 545.16 831.5 549.39 827.07 552.14C822.53 554.89 817.58 556.26 812.14 556.26H812.05C806.59 556.26 801.66 554.79 797.12 551.95C792.58 549.01 788.96 544.68 786.35 539C783.74 533.21 782.43 526.24 782.43 517.99C782.43 510.23 783.63 503.38 786.16 497.58C788.58 491.69 792.11 487.18 796.55 484.05C801.09 480.8 806.14 479.33 811.86 479.33H812.16C817.51 479.33 822.44 480.9 826.98 483.94C831.52 486.98 835.14 491.41 837.87 497.19C840.59 502.98 841.9 509.95 841.9 517.99C841.9 526.62 840.59 533.79 837.87 539.47L837.86 539.48ZM739.95 540.76C738.04 539.1 735.41 538.21 732.18 538.21C729.25 538.21 727.04 538.91 725.42 540.17C721.48 543.7 718.36 546.55 715.93 548.61C713.36 550.69 710.673 552.62 707.88 554.39C705.06 556.16 702.03 557.54 699.02 558.33C695.89 559.2 692.57 559.6 688.83 559.6C688.02 559.6 687.22 559.6 686.5 559.51C681.85 559.23 677.53 557.94 673.61 555.58C668.96 552.94 665.34 549.03 662.5 543.91C659.78 538.61 658.37 532.53 658.28 525.66H719.08C727.24 525.66 733.59 524.47 738.03 522.32C742.57 519.96 744.79 515.05 744.79 507.5C744.79 499.25 742.57 491.21 738.24 483.26C733.91 475.39 727.45 468.92 718.69 463.93C710.01 458.93 699.63 456.47 687.43 456.47H686.53C677.56 456.56 669.29 458.05 661.93 460.79C654.27 463.73 647.8 467.96 642.45 473.34C637.32 478.83 633.29 485.4 630.57 493.06C627.85 500.72 626.43 509.06 626.43 517.98C626.43 537.02 631.98 551.94 643.07 563.02C653.54 573.53 668.07 579.02 686.51 579.61C687.52 579.7 688.61 579.7 689.74 579.7C698.41 579.7 706.16 578.62 712.92 576.38C719.68 574.12 725.23 571.36 729.67 568.04C734.08 564.6 737.42 561.07 739.64 557.45C741.86 553.82 742.98 550.58 742.98 547.92C742.98 544.86 741.98 542.41 739.96 540.75L739.95 540.76ZM667.37 485.31C672.32 480.1 678.67 477.55 686.43 477.55H686.54C694.59 477.55 701.16 480.1 706.09 485.2C711.04 490.31 713.95 498.07 714.67 508.45H658.3C659.3 498.26 662.33 490.5 667.36 485.31H667.37ZM607.57 538.2C604.55 538.2 602.33 538.9 600.72 540.16C596.89 543.69 593.66 546.54 591.24 548.6C588.82 550.56 586.19 552.53 583.27 554.38C580.36 556.15 577.42 557.53 574.3 558.32C571.28 559.19 567.85 559.59 564.11 559.59C563.32 559.59 562.51 559.59 561.8 559.5C557.15 559.22 552.83 557.93 548.89 555.57C544.37 552.93 540.63 549.02 537.91 543.9C535.08 538.6 533.67 532.52 533.56 525.65H594.45C602.52 525.65 608.86 524.46 613.4 522.31C617.83 519.95 620.06 515.04 620.06 507.49C620.06 499.24 617.94 491.2 613.61 483.25C609.28 475.38 602.73 468.91 594.06 463.92C585.37 458.92 574.9 456.46 562.82 456.46H561.81C552.84 456.55 544.68 458.04 537.21 460.78C529.54 463.72 523.08 467.95 517.85 473.33C512.61 478.82 508.58 485.39 505.86 493.05C503.12 500.71 501.72 509.05 501.72 517.97C501.72 537.01 507.37 551.93 518.46 563.01C528.95 573.52 543.36 579.01 561.81 579.6C562.92 579.69 563.91 579.69 565.04 579.69C573.8 579.69 581.48 578.61 588.22 576.37C594.98 574.11 600.53 571.35 604.96 568.03C609.5 564.59 612.73 561.06 614.94 557.44C617.16 553.81 618.28 550.57 618.28 547.91C618.28 544.87 617.27 542.42 615.35 540.75C613.36 539.07 610.71 538.19 607.6 538.19L607.57 538.2ZM542.64 485.31C547.58 480.1 553.94 477.55 561.7 477.55H561.81C569.86 477.55 576.43 480.1 581.36 485.2C586.39 490.31 589.22 498.07 590.03 508.45H533.57C534.68 498.26 537.71 490.5 542.63 485.31H542.64ZM195.78 559.6V487.37C197.88 487.56 199.91 487.65 202.03 487.65C212.11 487.65 221.6 485.01 229.65 480.29V559.58C229.65 566.36 228.04 571.36 224.9 574.7C221.78 578.02 217.64 579.69 212.61 579.69C207.58 579.69 203.73 578.03 200.51 574.59C197.39 571.27 195.78 566.26 195.78 559.6ZM488.65 416.04C486.02 413.1 482.4 411.61 477.86 411.61C473.32 411.61 469.49 413.18 466.96 416.42C464.35 419.55 463.13 424.27 463.13 430.45V475.2C457.29 468.92 451.25 464.4 445.08 461.36C441.16 459.51 436.71 458.13 431.68 457.43C428.77 457.03 425.73 456.83 422.41 456.83C406.99 456.83 394.38 462.13 384.9 472.74C375.42 483.35 370.68 498.07 370.68 516.99C370.68 525.93 371.9 534.28 374.21 541.92C376.63 549.57 380.16 556.25 384.81 561.93C389.45 567.63 394.98 571.93 401.34 575.08C407.7 578.12 414.53 579.69 422 579.69C425.32 579.69 428.55 579.41 431.67 578.82C433.69 578.52 435.61 578.03 437.52 577.43C442.25 575.86 446.7 573.61 450.73 570.77C454.86 567.83 458.91 563.99 463.12 559.39V562.33C463.12 567.92 464.54 572.14 467.26 575.18C469.98 578.12 473.62 579.69 477.84 579.69C482.06 579.69 485.61 578.22 488.33 575.38C491.05 572.44 492.35 568.11 492.35 562.34V428.89C492.37 423.29 491.16 418.96 488.65 416.04ZM457.39 539.48C454.67 545.16 451.03 549.39 446.51 552.14C442.06 554.89 437.02 556.26 431.69 556.26H431.6C426.16 556.26 421.21 554.79 416.68 551.95C412.04 549.01 408.52 544.68 405.89 539C403.28 533.21 401.97 526.24 401.97 517.99C401.97 510.23 403.19 503.38 405.59 497.58C408.11 491.69 411.54 487.18 416.08 484.05C420.51 480.8 425.65 479.33 431.3 479.33H431.7C437.05 479.33 441.98 480.9 446.43 483.94C451.07 486.98 454.69 491.41 457.41 497.19C460.02 502.98 461.44 509.95 461.44 517.99C461.44 526.62 460.02 533.79 457.41 539.47L457.39 539.48ZM279.36 473.34V477.08C284.9 470 290.85 464.91 297.3 461.57C303.85 458.34 311.32 456.66 319.78 456.66C328.24 456.66 335.32 458.43 341.75 461.87C348.2 465.29 352.94 470.21 356.16 476.59C358.28 480.31 359.59 484.35 360.19 488.67C360.79 492.88 361.09 498.37 361.09 505.05V561.29C361.09 567.37 359.57 571.98 356.75 575.01C353.93 578.14 350.2 579.71 345.66 579.71C341.12 579.71 337.29 578.14 334.36 574.91C331.43 571.76 330.03 567.17 330.03 561.28V510.89C330.03 500.89 328.61 493.24 325.79 487.94C322.97 482.65 317.21 479.99 308.77 479.99C303.22 479.99 298.19 481.65 293.65 484.8C289.11 488.05 285.69 492.45 283.57 498.14C282.05 502.65 281.36 510.99 281.36 523.47V561.26C281.36 567.43 279.86 571.95 276.93 575.1C274 578.14 270.29 579.71 265.63 579.71C260.97 579.71 257.45 578.14 254.54 574.91C251.61 571.76 250.21 567.17 250.21 561.28V473.82C250.21 468.04 251.52 463.72 254.15 460.97C256.67 458.14 260.19 456.65 264.73 456.65C267.45 456.65 269.87 457.24 272.09 458.52C274.31 459.79 276.11 461.65 277.44 464.2C278.74 466.75 279.35 469.8 279.35 473.33L279.36 473.34ZM195.97 386.5C216.95 379.14 240.84 379.53 258.78 394.64C262.12 397.68 265.93 401.51 267.45 406.02C269.27 411.72 261.11 405.42 259.98 404.64C254.13 400.9 248.29 397.77 241.74 395.62C206.46 385.03 173.08 404.17 152.32 433.9C143.65 447.04 138 460.87 133.37 476.09C132.86 477.75 132.47 479.92 131.55 481.38C130.63 483.06 131.15 476.88 131.15 476.68C131.85 470.4 133.16 464.32 134.79 458.24C144.36 425.85 165.53 398.88 195.97 386.51V386.5ZM236.6 444.69C236.6 458.45 225.45 469.61 211.7 469.61C197.95 469.61 186.81 458.45 186.81 444.69C186.81 430.93 197.95 419.77 211.7 419.77C225.45 419.77 236.6 430.91 236.6 444.69Z" fill="white"/>
</g>
<defs>
<clipPath id="clip0_2_2505">
<rect width="1024" height="1024" fill="white"/>
</clipPath>
</defs>
</svg>
