<svg width="1024" height="1024" fill="none" xmlns="http://www.w3.org/2000/svg"><g clip-path="url(#a)"><path d="M512 1024c282.77 0 512-229.23 512-512S794.77 0 512 0 0 229.23 0 512s229.23 512 512 512Z" fill="#9ABEFF"/><path d="m790 648.67-88.58 88.24L539 574.66h-54.57L322.31 736.91 234 648.61 370.44 512 234 375.39l88.31-88.31L433 397.83a24.212 24.212 0 0 1 20.852 30.23 24.211 24.211 0 0 1-47.622-5.8l-84-84.48-37.62 37.61L403.27 494h36L284.69 648.61l37.62 37.68L470 538.59h83.18l148.3 147.7 37.68-37.68L660 570.1a24.242 24.242 0 0 1-23.92-24.16v-.07a24.201 24.201 0 0 1 48.27-2.63L790 648.67ZM422.14 449.41H539l162.42-162.32 88.24 88.31-168.52 168.52 79.32 79.32a24.255 24.255 0 0 1 21.977 14.769 24.25 24.25 0 1 1-46.497 11.371L570.71 543.24l168.53-167.85h-.13l-37.68-37.61-148.3 147.7H406.44l-87-87a24.212 24.212 0 0 1-20.409-30.543 24.217 24.217 0 0 1 19.695-17.429 24.214 24.214 0 0 1 23.971 10.817 24.213 24.213 0 0 1 3.863 13.155v.45l75.58 74.48Zm279.25-48.9L572.67 529.76h-107l-119.23 120a24.216 24.216 0 0 1-16.602 20.516 24.216 24.216 0 0 1-25.489-6.848 24.215 24.215 0 0 1-4.083-26.075 24.214 24.214 0 0 1 22.174-14.313h.05L451.33 494h105.36l118.93-118.37a24.238 24.238 0 0 1 15.072-21.737 24.24 24.24 0 0 1 25.974 5.003 24.226 24.226 0 0 1 5.922 25.779A24.23 24.23 0 0 1 701.4 400.51h-.01Z" fill="#fff"/></g><defs><clipPath id="a"><path fill="#fff" d="M0 0h1024v1024H0z"/></clipPath></defs></svg>