<svg width="1024" height="1024" fill="none" xmlns="http://www.w3.org/2000/svg"><g clip-path="url(#a)"><path d="M512 1024c282.77 0 512-229.23 512-512S794.77 0 512 0 0 229.23 0 512s229.23 512 512 512Z" fill="#9ABEFF"/><path d="M696.8 281H475.66v225.45L545.88 427h115.5l-88.17 83.75 93.71 156.49H560.66l-49.93-96.66-35.07 33.82v62.83h-96.1V281H327.2a46.196 46.196 0 0 0-32.668 13.532A46.196 46.196 0 0 0 281 327.2v369.6a46.196 46.196 0 0 0 13.532 32.668A46.196 46.196 0 0 0 327.2 743h369.6a46.196 46.196 0 0 0 32.668-13.532A46.196 46.196 0 0 0 743 696.8V327.2a46.196 46.196 0 0 0-13.532-32.668A46.196 46.196 0 0 0 696.8 281Z" fill="#fff"/></g><defs><clipPath id="a"><path fill="#fff" d="M0 0h1024v1024H0z"/></clipPath></defs></svg>