<svg width="1024" height="1024" viewBox="0 0 1024 1024" fill="none" xmlns="http://www.w3.org/2000/svg">
<g clip-path="url(#clip0_2_2514)">
<path d="M512 1024C794.77 1024 1024 794.77 1024 512C1024 229.23 794.77 0 512 0C229.23 0 0 229.23 0 512C0 794.77 229.23 1024 512 1024Z" fill="#F8C18C"/>
<path d="M283.91 306.55V369.075L433.29 353.684H488.419V454.904L395.589 483.308L269.799 513.629L288.461 574.768L409.011 528.438L488.418 504.178V670.318H433.307L283.927 654.909V717.452H740.077V654.927L590.717 670.336H535.588V504.176L614.601 528.317L735.541 574.766L754.203 513.645L628.763 483.391L535.591 454.902V353.682H590.72L740.1 369.091V306.548L283.91 306.55Z" fill="white"/>
</g>
<defs>
<clipPath id="clip0_2_2514">
<rect width="1024" height="1024" fill="white"/>
</clipPath>
</defs>
</svg>
