<svg width="1024" height="1024" fill="none" xmlns="http://www.w3.org/2000/svg"><g clip-path="url(#a)"><path d="M512 1024c282.77 0 512-229.23 512-512S794.77 0 512 0 0 229.23 0 512s229.23 512 512 512Z" fill="#F8C18C"/><path d="M283.91 306.55v62.525l149.38-15.391h55.129v101.22l-92.83 28.404-125.79 30.321 18.662 61.139 120.55-46.33 79.407-24.26v166.14h-55.111l-149.38-15.409v62.543h456.15v-62.525l-149.36 15.409h-55.129v-166.16l79.013 24.141 120.94 46.449 18.662-61.121-125.44-30.254-93.172-28.489v-101.22h55.129l149.38 15.409v-62.543l-456.19.002Z" fill="#fff"/></g><defs><clipPath id="a"><path fill="#fff" d="M0 0h1024v1024H0z"/></clipPath></defs></svg>