<svg width="1024" height="1024" fill="none" xmlns="http://www.w3.org/2000/svg"><g clip-path="url(#a)"><path d="M512 1024c282.77 0 512-229.23 512-512S794.77 0 512 0 0 229.23 0 512s229.23 512 512 512Z" fill="#FF837D"/><path d="M512 256c-69.55 0-78.23.32-105.54 1.54-27.31 1.22-45.82 5.57-62.14 11.9a130.827 130.827 0 0 0-74.88 74.88c-6.34 16.32-10.65 34.88-11.9 62.14C256.29 433.72 256 442.45 256 512c0 69.55.32 78.23 1.54 105.54 1.22 27.31 5.57 45.82 11.9 62.14a130.837 130.837 0 0 0 74.88 74.88c16.34 6.31 34.9 10.65 62.14 11.9C433.7 767.71 442.45 768 512 768c69.55 0 78.23-.32 105.54-1.54 27.31-1.22 45.82-5.59 62.14-11.9a130.837 130.837 0 0 0 74.88-74.88c6.31-16.32 10.65-34.9 11.9-62.14C767.71 590.3 768 581.55 768 512c0-69.55-.32-78.23-1.54-105.54-1.22-27.31-5.59-45.85-11.9-62.14a130.827 130.827 0 0 0-74.88-74.88c-16.32-6.34-34.9-10.65-62.14-11.9C590.3 256.29 581.55 256 512 256Zm0 46.08c68.33 0 76.48.34 103.47 1.51 25 1.17 38.51 5.31 47.51 8.85A84.237 84.237 0 0 1 711.57 361c3.5 9 7.68 22.55 8.81 47.51 1.22 27 1.49 35.11 1.49 103.47s-.32 76.48-1.58 103.47c-1.3 25-5.46 38.51-9 47.51-4.78 12-10.22 20.48-19.18 29.48a79.866 79.866 0 0 1-29.44 19.11c-9 3.5-22.72 7.68-47.68 8.81-27.18 1.22-35.18 1.49-103.66 1.49-68.48 0-76.5-.32-103.66-1.58-25-1.3-38.74-5.46-47.7-9-12.14-4.78-20.48-10.22-29.42-19.18a77.724 77.724 0 0 1-19.2-29.44c-3.52-9-7.66-22.72-9-47.68-1-26.88-1.3-35.18-1.3-103.34s.34-76.5 1.3-103.7c1.3-25 5.44-38.7 9-47.66 4.48-12.16 10.22-20.48 19.2-29.46 8.98-8.98 17.28-14.7 29.42-19.16 9-3.54 22.42-7.7 47.38-9 27.2-1 35.2-1.28 103.66-1.28l.99.71Zm0 78.46A131.459 131.459 0 1 0 643.46 512a131.455 131.455 0 0 0-81.151-121.456A131.455 131.455 0 0 0 512 380.54Zm0 216.79a85.333 85.333 0 0 1-78.835-52.676 85.328 85.328 0 0 1 18.498-92.991A85.328 85.328 0 0 1 597.33 512a85.305 85.305 0 0 1-24.987 60.343A85.307 85.307 0 0 1 512 597.33Zm167.38-222a30.715 30.715 0 0 1-18.95 28.396 30.723 30.723 0 0 1-41.898-22.375 30.723 30.723 0 0 1 13.059-31.542 30.714 30.714 0 0 1 17.069-5.179 30.738 30.738 0 0 1 30.72 30.73v-.03Z" fill="#fff"/></g><defs><clipPath id="a"><path fill="#fff" d="M0 0h1024v1024H0z"/></clipPath></defs></svg>