<svg width="1024" height="1024" viewBox="0 0 1024 1024" fill="none" xmlns="http://www.w3.org/2000/svg">
<g clip-path="url(#clip0_2_2535)">
<path d="M512 1024C794.77 1024 1024 794.77 1024 512C1024 229.23 794.77 0 512 0C229.23 0 0 229.23 0 512C0 794.77 229.23 1024 512 1024Z" fill="#728DBE"/>
<path d="M433 289.5C430.3 291.2 426.8 292.8 425.7 292.3C419.7 289.5 416 285.7 414.7 280.9C428.3 273.4 442.6 267 457.6 261.8C458.7 264.8 459.9 266.3 465.1 269.3C465 269.7 464.9 270.5 460.6 272.9C447.2 280.2 441.6 283.9 434.4 288.6C434 288.9 433.4 289.2 433 289.5ZM542 304.1C541.3 308.6 541 310.5 498.2 307.5C480.9 306.3 456 303.4 436.2 296.7C436.1 296.5 435.9 296.2 435.7 296C436 294.7 436.8 291.7 463.5 275.5C470.2 271.8 470.2 271.8 475.9 273.4C483.2 275.5 503.8 280.3 538.8 279.9C541.9 280.3 541.9 280.3 542.1 302.9C542.1 303.3 542.1 303.7 542 304.1ZM543.7 420.9C539.8 440.6 378.7 421.5 330.9 395.7C328.8 392.6 327.7 390.9 348.2 361.4C353.1 355.1 353.1 355.1 362.1 359.7C373.4 365.5 419.1 384.3 535.6 384.2C543.2 384.9 543.2 384.9 543.8 419.2C543.8 419.8 543.8 420.4 543.7 420.9ZM325.2 383.3C322.7 386.9 320.9 387.6 320.4 387.4C320.4 387.4 316.9 385 315.2 378.3C315.1 378 315.1 377.5 315 377.2C322.8 364.1 331.8 351.7 341.7 340.1C343.3 345.4 343.3 345.6 346.1 348.8C346.6 349.9 346.1 351.8 344.5 354.4C338.8 363.8 331.9 372.5 326.1 381.8C325.8 382.3 325.5 382.9 325.2 383.3ZM358.9 551.7C357.8 559.1 355.9 559.5 326.7 549.9C315.5 546.2 295.2 538.4 285.5 527.6C283.5 525.4 280.6 522.1 279.6 515.6C279.5 513.5 279.5 511.4 279.4 509.3C279.2 495.2 280.2 481.4 282.3 467.8C284.6 475.9 289.3 492.8 354.2 508.8C355.5 509.3 359.3 510.7 360 517.2C361.3 528.2 359 539 358.9 549.9C359 550.5 359 551.2 358.9 551.7ZM546.5 567.1C542.3 586.4 385.9 563.9 384.3 563.6C375.5 561.1 375.6 558.2 377.6 522.6C378.9 514.2 378.9 514.2 402.1 517.8C425.7 521.5 468 525.8 535.8 525.7C545.8 526.5 545.8 526.5 546.6 565.3C546.6 565.8 546.6 566.5 546.5 567.1ZM450.6 749.5C452.2 750.5 452.2 750.7 452.3 751.1C452.2 751.1 443 749.7 428.7 743.4C409.9 733.5 408.3 732.7 396.7 724.9L385 716.5C393.2 721.8 400.4 725.8 423.6 731.7C434 734.9 440.9 743.3 449.7 748.9C449.9 749.1 450.3 749.3 450.6 749.5ZM549.7 757.8C547.7 762.7 493.9 758.6 467.4 754.4C463.9 753.6 459.5 752.7 443.5 739.1C441.9 737.5 441.9 737.3 442.1 736.3C443.3 736 443.3 736 454.9 737.8C470.4 740.2 498.3 743.1 543.1 743.1C549.8 743.4 549.8 743.4 549.8 757.4C549.7 757.4 549.7 757.6 549.7 757.8ZM334.6 655C336 657.8 335.6 658.4 335.4 658.7C335.4 658.7 329 657.1 320.5 646.5C306.8 622.9 306 621.5 298.4 603.2C302.3 609.7 303.9 612.3 315.4 619.5C316.1 620 318 621.4 320.4 625.8C325.3 634.9 329 644.6 333.9 653.7C334.1 654.1 334.4 654.6 334.6 655ZM548.7 685C544.9 699.1 414.9 686.2 359.7 669.3C355 667.2 352.4 666.1 340.4 636.7C339.4 633.7 339.6 633.3 340.4 631.5C344.5 630.1 350.3 633.5 354.5 634.7C378.8 641.8 435.1 653.8 538.9 653.6C548.5 654.2 548.5 654.2 549 683.8C548.8 684.1 548.8 684.7 548.7 685ZM567.3 265.4C569 267.2 568.8 267.8 568.6 268.5C531.2 273.9 479.6 269.4 474.9 256.5C490.3 252.3 506.3 249.4 522.6 248C525.9 252 540 252.2 548.4 250.9C549.9 251.4 556.4 255.4 566.5 264.6C566.8 264.8 567.1 265.1 567.3 265.4ZM614.2 486.5C611.9 507.2 429 492.4 427.1 492.2C326.5 480.6 298.9 460.3 291.5 449.2C290 446.9 288.7 443.4 288.1 440.7C292.1 425.7 297.5 411.3 304.1 397.5C315 435.5 450.9 458.3 601 447.3C610.2 447.4 610.2 447.4 614.2 484.7C614.2 485.3 614.3 486 614.2 486.5ZM686.1 619.8C675.1 649.8 322.7 650.9 292.2 585.9C285.1 560.5 284.2 557.2 281.4 536.8C297.4 591.5 520.2 609.2 681.3 583C690.5 583.3 690.3 584.6 686.5 618.2C686.3 618.7 686.2 619.4 686.1 619.8ZM663.8 345C675.3 370.9 453.9 372 385.1 346.4C359.8 337 357.6 328 356.7 324.2C367.6 313.5 379.5 303.7 392.2 294.9C401.9 326.1 542.3 338.5 638.4 316.7C643.5 316.9 644.9 317 663.1 343.6C663.3 344.1 663.6 344.6 663.8 345ZM628.7 723.2C614.1 741.8 412 737.7 367.2 701.9C349.9 685.1 347.2 682.5 334.5 666.6L333.5 665.3C364.8 698.7 501.3 714.4 631.4 699.6C639.4 699.9 638.7 701.8 629.3 722.2C629.1 722.5 628.9 722.9 628.7 723.2Z" fill="white"/>
</g>
<defs>
<clipPath id="clip0_2_2535">
<rect width="1024" height="1024" fill="white"/>
</clipPath>
</defs>
</svg>
