<svg width="1024" height="1024" fill="none" xmlns="http://www.w3.org/2000/svg"><g clip-path="url(#a)"><path d="M512 1024c282.77 0 512-229.23 512-512S794.77 0 512 0 0 229.23 0 512s229.23 512 512 512Z" fill="#54688C"/><path d="M764 598.59a43.663 43.663 0 0 1-8.75-.89 45.347 45.347 0 0 1-17.215-7.515 45.344 45.344 0 0 1-12.695-13.845l-.16-.3a13.437 13.437 0 0 1 4.95-17.72 12.999 12.999 0 0 1 6.65-1.84 13.204 13.204 0 0 1 11.47 6.73c.13.24.28.49.44.74l1.4 1.9 1.87 1.89a18.294 18.294 0 0 0 8.55 4.13 18.795 18.795 0 0 0 14.73-3.37 17.82 17.82 0 0 0 7.4-13.33 18.427 18.427 0 0 0-5.12-14.3c-3.68-3.81-39.58-41.11-41.36-43a48.538 48.538 0 0 1-4.77-5.67c-5.59-7.92-7.33-17.25-6.47-26.49a43.003 43.003 0 0 1 5.57-18.31c3.21-5.61 1.81-3.07 2.35-3.85a49.975 49.975 0 0 1 9.05-9.22 46.452 46.452 0 0 1 7.59-4.56 43.47 43.47 0 0 1 56.46 17.43 12.823 12.823 0 0 1 1.37 9.95 13.101 13.101 0 0 1-6.25 8.08 12.574 12.574 0 0 1-6.41 1.74 13.096 13.096 0 0 1-11.39-6.7 17.197 17.197 0 0 0-11.52-8.14 17.85 17.85 0 0 0-14 3.14 17 17 0 0 0-6.61 12.32 17.335 17.335 0 0 0 4.73 13.41l40.47 41.73a44.822 44.822 0 0 1 8.91 48.62A44.816 44.816 0 0 1 764 598.6m-128.08 0a43.777 43.777 0 0 0 43.52-43.53V469a43.52 43.52 0 0 0-87 0v86a43.782 43.782 0 0 0 43.53 43.53m0-146.86A17.473 17.473 0 0 1 653.16 469v86a17.35 17.35 0 0 1-17.24 17.25h-.19a17.14 17.14 0 0 1-17.06-17.06V469a17.35 17.35 0 0 1 17.25-17.24m-195.47 8v125.67a13.15 13.15 0 0 0 3.849 9.292 13.126 13.126 0 0 0 9.291 3.848 13.142 13.142 0 0 0 13.14-13.14v-71.2l-26.28-54.47Zm71.28 50.13v-71.32a13.14 13.14 0 1 1 26.28 0v125.79l-26.28-54.47Zm26.06 72.77v2.81a13.187 13.187 0 0 1-10.102 12.792 13.195 13.195 0 0 1-14.818-6.792l-72.26-149.8v-3a13.16 13.16 0 0 1 25-5.68l72.18 149.67Zm-195.68 16A43.788 43.788 0 0 0 385.63 555v-86a43.52 43.52 0 0 0-87 0v86a43.788 43.788 0 0 0 43.53 43.53m0-146.86A17.582 17.582 0 0 1 359.35 469v86.13a17.247 17.247 0 0 1-17.245 16.835 17.249 17.249 0 0 1-17.245-16.835V469a17.35 17.35 0 0 1 17.25-17.24M215 584v.09a14.33 14.33 0 1 0 28.66 0V439.74a14.332 14.332 0 0 0-24.463-10.133A14.334 14.334 0 0 0 215 439.74V584Z" fill="#fff"/></g><defs><clipPath id="a"><path fill="#fff" d="M0 0h1024v1024H0z"/></clipPath></defs></svg>