<svg width="1024" height="1024" fill="none" xmlns="http://www.w3.org/2000/svg"><g clip-path="url(#a)"><path d="M512 1024c282.77 0 512-229.23 512-512S794.77 0 512 0 0 229.23 0 512s229.23 512 512 512Z" fill="#FF837D"/><path d="M267 451.92c-.52-22.65-28-28.12-31.37-29-3.62-.92-3.24-4.88-3.24-4.88h85.08a1.683 1.683 0 0 1 1.3.61 1.732 1.732 0 0 1 .38 1.4l-29.62 181.87a1.713 1.713 0 0 1-1.58 1.45l-44.17 2.56h-.1a1.703 1.703 0 0 1-1.27-.57 1.749 1.749 0 0 1-.41-1.44l25-152Zm225.52-33a1.726 1.726 0 0 1 .05 1.67l-87.62 171.6a1.661 1.661 0 0 1-1.39.91l-50.37 2.9h-.09a1.68 1.68 0 0 1-1.64-1.39l-32.31-174.52a1.727 1.727 0 0 1 .93-1.855c.221-.107.464-.164.71-.165h43.63a1.68 1.68 0 0 1 1.64 1.4l20.36 116.08L446.23 419a1.67 1.67 0 0 1 1.48-.91H491a1.67 1.67 0 0 1 1.47.8l.05.03Zm135 36.84a69.694 69.694 0 0 1-.83 18.19L622.81 496c-2.39 13.65-6.86 24.4-13.27 31.95-6.41 7.55-13.05 13-19.92 16.46a66.411 66.411 0 0 1-25.86 6.87h-40.51l-5 31a1.646 1.646 0 0 1-1.51 1.4l-41.62 2.44h-.09a1.613 1.613 0 0 1-1.21-.56 1.711 1.711 0 0 1-.39-1.39l26.73-164.74a1.642 1.642 0 0 1 1.61-1.4h82.79c9.35.58 17.54 2.9 24.42 6.92a43.405 43.405 0 0 1 8.22 6.69 35.278 35.278 0 0 1 6.7 10.11 45.761 45.761 0 0 1 3.55 13.97l.07.04Zm-48 39.37 3.48-21.49a16.63 16.63 0 0 0-.74-6.41 11.765 11.765 0 0 0-3.08-4.35c-1.31-1.2-3.51-1.81-6.52-1.81h-35.29L530 508h34.73c2.589.135 5.16-.498 7.39-1.82a16.845 16.845 0 0 0 4.58-4.44 17.004 17.004 0 0 0 2.75-6.65l.07.04Zm210.57-77a1.608 1.608 0 0 1 1.26.62 1.827 1.827 0 0 1 .37 1.43l-24.25 156.17a1.69 1.69 0 0 1-1.53 1.47l-57.1 3.49a1.674 1.674 0 0 1-1.65-1.17l-22.69-67.51-10.74 69.44a1.69 1.69 0 0 1-1.53 1.47l-42.85 2.61a1.607 1.607 0 0 1-1.23-.59 1.833 1.833 0 0 1-.4-1.47l25.7-164.56a1.69 1.69 0 0 1 1.63-1.47h42.11a1.662 1.662 0 0 1 1.55 1.16l32.53 96.39 15-96.08a1.69 1.69 0 0 1 1.63-1.47l42.19.07Z" fill="#fff"/></g><defs><clipPath id="a"><path fill="#fff" d="M0 0h1024v1024H0z"/></clipPath></defs></svg>