<svg width="1024" height="1024" fill="none" xmlns="http://www.w3.org/2000/svg"><g clip-path="url(#a)"><path d="M512 1024c282.77 0 512-229.23 512-512S794.77 0 512 0 0 229.23 0 512s229.23 512 512 512Z" fill="#F8C18C"/><path d="M370.81 512 256 740.59l167.42.25 206.26-410.87h62.42l-91.37 181.9 91.25 181.89H577.21l23.37 46.83H768L653.18 512 768 283.41l-167.42-.25-16.36 32.79L394.3 694.03h-62.41l91.35-181.91-91.21-181.86h114.75l-23.36-46.85H256L370.81 512Z" fill="#fff"/></g><defs><clipPath id="a"><path fill="#fff" d="M0 0h1024v1024H0z"/></clipPath></defs></svg>