<svg width="1024" height="1024" viewBox="0 0 1024 1024" fill="none" xmlns="http://www.w3.org/2000/svg">
<g clip-path="url(#clip0_2_2550)">
<path d="M512 1024C794.77 1024 1024 794.77 1024 512C1024 229.23 794.77 0 512 0C229.23 0 0 229.23 0 512C0 794.77 229.23 1024 512 1024Z" fill="#F8C18C"/>
<path d="M370.81 512L256 740.59L423.42 740.84L629.68 329.97H692.1L600.73 511.87L691.98 693.76H577.21L600.58 740.59H768L653.18 512L768 283.41L600.58 283.16L584.22 315.95L394.3 694.03H331.89L423.24 512.12L332.03 330.26H446.78L423.42 283.41H256L370.81 512Z" fill="white"/>
</g>
<defs>
<clipPath id="clip0_2_2550">
<rect width="1024" height="1024" fill="white"/>
</clipPath>
</defs>
</svg>
