<svg width="1024" height="1024" fill="none" xmlns="http://www.w3.org/2000/svg"><g clip-path="url(#a)"><path d="M512 1024c282.77 0 512-229.23 512-512S794.77 0 512 0 0 229.23 0 512s229.23 512 512 512Z" fill="#54688C"/><path d="M512 271.27A1074.138 1074.138 0 0 0 287.78 295l-.72.15-.69.22C274.63 298.21 266 309.24 266 322v39.91c0 287.81 178.08 404.56 232.68 433.49a28.396 28.396 0 0 0 13.38 3.51 27.659 27.659 0 0 0 13.34-3.55C579.87 766.49 758 649.7 758 361.89V322a27.688 27.688 0 0 0-20.24-26.62l-.25-.1-1.55-.35a1072.48 1072.48 0 0 0-224-23.63l.04-.03Zm0 16.09a1054.573 1054.573 0 0 1 220.57 23.26l.17.06a11.502 11.502 0 0 1 9.19 11.32v39.92a614.396 614.396 0 0 1-4.44 74.36 1097.091 1097.091 0 0 0-450.9.07 613.53 613.53 0 0 1-4.45-74.43V322a11.553 11.553 0 0 1 8.78-11.2l.27-.09A1054.463 1054.463 0 0 1 512 287.36Zm-77.22 22.42c-13.45 0-26 1.08-36.29 3.23 0 0-23.51 11.64-23.86 12.38l-36.43 80.38a2.473 2.473 0 0 0 .11 2.793 2.474 2.474 0 0 0 2.64.917c55.36-10.5 118.95-13.74 171-13.74 52.07 0 115.66 3.24 171 13.74a2.487 2.487 0 0 0 2.636-.921 2.488 2.488 0 0 0 .124-2.789l-36.3-80.37c-.39-.74-23.9-12.38-23.9-12.38-29.89-6.27-79.12-3.52-113.46 9.11h-.12c-22.55-8.29-51.48-12.32-77.16-12.34l.01-.01Zm-32.29 14.55-17.57 50c35.58-6.72 74.94-9.23 118.56 5l-.08 3.85c-39.46-1.56-107.56-1.56-141.71 10.66L386 333.18l16.54-8.85h-.05Zm218.46 0 16.56 8.85 24.26 60.74C629.38 381.7 561.27 381.7 520 383.27v-3.85c43.61-14.28 83-11.77 118.56-5l-17.65-50 .04-.09ZM502 435.17v343.65c-60.19-33.21-181.06-127.4-212.3-320.52l1.47-.31A1071.097 1071.097 0 0 1 502 435.16v.01Zm20.07 0c14.2.12 28.4.49 42.55 1.19v72.34L522 480.36v-45.19h.07Zm85.12 4.14c14.23 1.26 28.43 2.72 42.57 4.55v121.48l42.52 28.31V450.29c13.6 2.32 27.16 4.8 40.64 7.65l1.45.32c-8.43 52.13-23.42 97-42 135.48 0 0-.07.16-.11.21a441.452 441.452 0 0 1-42.48 70.56A430.573 430.573 0 0 1 607.17 714v-77.88l-42.57-28.33V751a360.281 360.281 0 0 1-42.6 27.82V579.45l42.55 28.34V508.7l42.62 28.3v-97.7l.02.01Zm0 196.81 42.57 28.32v-99.1L607.17 537l.02 99.12ZM410.92 472a77.9 77.9 0 1 0 77.9 77.9 77.995 77.995 0 0 0-22.846-55.054A77.995 77.995 0 0 0 410.92 472Zm-14.11 11.31a102.996 102.996 0 0 0-18.62 28.32A135.133 135.133 0 0 1 359 506a68.107 68.107 0 0 1 37.83-22.69h-.02Zm28.28 0A68.128 68.128 0 0 1 462.88 506a133.98 133.98 0 0 1-19.2 5.62 102.989 102.989 0 0 0-18.58-28.3l-.01-.01Zm-9.28 4.55a96.258 96.258 0 0 1 17.79 25.51 155.357 155.357 0 0 1-17.79 1.49v-27ZM406 488v26.89c-5.91-.16-11.806-.654-17.66-1.48A96.867 96.867 0 0 1 406 488Zm-52.93 26.22a139.586 139.586 0 0 0 21.68 6.72 94.84 94.84 0 0 0-4.34 24.06h-27.32a67.607 67.607 0 0 1 10-30.78h-.02Zm115.71 0a67.528 67.528 0 0 1 10 30.78h-27.3a95.388 95.388 0 0 0-4.33-24.06 138.99 138.99 0 0 0 21.62-6.72h.01Zm-84.21 8.57A168.313 168.313 0 0 0 406 524.7V545h-25.73a83.424 83.424 0 0 1 4.3-22.21Zm52.81 0a85.711 85.711 0 0 1 4.26 22.21h-25.81v-20.3c7.217-.192 14.415-.84 21.55-1.94v.03Zm-94.28 32h27.32a96.018 96.018 0 0 0 4.31 24.06 138.783 138.783 0 0 0-21.66 6.72 67.312 67.312 0 0 1-9.97-30.78Zm37.17 0H406v20.27a168.72 168.72 0 0 0-21.43 1.94 83.029 83.029 0 0 1-4.3-22.19v-.02Zm35.56 0h25.81a83.843 83.843 0 0 1-4.31 22.21 165.471 165.471 0 0 0-21.5-1.94v-20.27Zm35.66 0h27.28a67.476 67.476 0 0 1-10 30.78 137.757 137.757 0 0 0-21.62-6.71 95.509 95.509 0 0 0 4.33-24.07h.01ZM406 584.89v26.89a97.236 97.236 0 0 1-17.66-25.41c5.855-.82 11.75-1.314 17.66-1.48Zm9.83 0c5.93.162 11.846.659 17.72 1.49a95.579 95.579 0 0 1-17.72 25.45v-26.94Zm-37.63 3.25a102.996 102.996 0 0 0 18.62 28.32A68.068 68.068 0 0 1 359 593.77a135.828 135.828 0 0 1 19.2-5.62v-.01Zm65.48 0a133.943 133.943 0 0 1 19.2 5.61 68.06 68.06 0 0 1-37.78 22.68 103.059 103.059 0 0 0 18.58-28.29Z" fill="#fff"/></g><defs><clipPath id="a"><path fill="#fff" d="M0 0h1024v1024H0z"/></clipPath></defs></svg>