<svg width="1024" height="1024" fill="none" xmlns="http://www.w3.org/2000/svg"><g clip-path="url(#a)"><path d="M512 1024c282.77 0 512-229.23 512-512S794.77 0 512 0 0 229.23 0 512s229.23 512 512 512Z" fill="#728DBE"/><path d="m599.61 563.22-46.39 46.43-44 44-8.58 8.65a98.86 98.86 0 0 1-93.7 25.94 59.619 59.619 0 1 1-99.386-56.37 59.62 59.62 0 0 1 27.506-14.99A98.674 98.674 0 0 1 361 522.56l3.32-3.34 44 44-3.42 3.36a36.652 36.652 0 0 0 0 51.78 36.248 36.248 0 0 0 25.87 10.861 36.238 36.238 0 0 0 25.87-10.861l8.63-8.63 43.94-44 46.45-46.52 43.95 44.01Zm17.15 123.5a98.742 98.742 0 0 1-98.92-24.47l-3.34-3.43 43.91-44 3.34 3.42a36.508 36.508 0 0 0 11.846 7.921 36.506 36.506 0 0 0 27.953.011 36.509 36.509 0 0 0 19.773-19.758 36.524 36.524 0 0 0-7.902-39.804l-8.65-8.61-43.91-44-46.45-46.47 44-44 46.4 46.47 43.94 44 8.61 8.61a98 98 0 0 1 26.2 93.22 59.6 59.6 0 1 1-66.56 71l-.24-.11ZM418.71 464.86l46.56-46.51 44-44 8.58-8.56A98.297 98.297 0 0 1 615.59 341a59.593 59.593 0 0 1 72.775-49.852 59.594 59.594 0 0 1 42.661 77.209 59.585 59.585 0 0 1-48.606 39.853 98.573 98.573 0 0 1-25.06 97.17l-3.36 3.43-44-44 3.42-3.42a36.496 36.496 0 0 0 7.905-39.78 36.503 36.503 0 0 0-59.535-11.83l-8.58 8.56-44 44-46.51 46.45-43.99-43.93ZM369.46 514l-8.56-8.58a98.652 98.652 0 0 1-24.73-98.17 59.624 59.624 0 0 1-44.309-42.48 59.629 59.629 0 0 1 .148-31.848 59.628 59.628 0 0 1 44.703-42.065 59.618 59.618 0 0 1 71.508 48.593 98.775 98.775 0 0 1 92.44 26.27l3.42 3.43-44 44-3.4-3.36a36.626 36.626 0 0 0-51.539.26 36.628 36.628 0 0 0-.261 51.54l8.63 8.65 44 44L504 560.73l-43.94 44-46.6-46.51-44-44V514Z" fill="#fff"/></g><defs><clipPath id="a"><path fill="#fff" d="M0 0h1024v1024H0z"/></clipPath></defs></svg>