<svg width="1024" height="1024" fill="none" xmlns="http://www.w3.org/2000/svg"><g clip-path="url(#a)"><path d="M512 1024c282.77 0 512-229.23 512-512S794.77 0 512 0 0 229.23 0 512s229.23 512 512 512Z" fill="#FF837D"/><path d="M674.78 288H736v298.66C736 669.13 667.48 736 582.96 736h-61.22V437.34c0-82.47 68.52-149.34 153.04-149.34ZM502.26 736h-61.22C356.52 736 288 667.48 288 582.96v-61.22h61.22c84.52 0 153.04 68.52 153.04 153.04V736Z" fill="#fff"/></g><defs><clipPath id="a"><path fill="#fff" d="M0 0h1024v1024H0z"/></clipPath></defs></svg>