<svg width="1024" height="1024" viewBox="0 0 1024 1024" fill="none" xmlns="http://www.w3.org/2000/svg">
<g clip-path="url(#clip0_2_2568)">
<path d="M512 1024C794.77 1024 1024 794.77 1024 512C1024 229.23 794.77 0 512 0C229.23 0 0 229.23 0 512C0 794.77 229.23 1024 512 1024Z" fill="#FF837D"/>
<path d="M674.78 288H736V586.66C736 669.13 667.48 736 582.96 736H521.74V437.34C521.74 354.87 590.26 288 674.78 288ZM502.26 736H441.04C356.52 736 288 667.48 288 582.96V521.74H349.22C433.74 521.74 502.26 590.26 502.26 674.78V736Z" fill="white"/>
</g>
<defs>
<clipPath id="clip0_2_2568">
<rect width="1024" height="1024" fill="white"/>
</clipPath>
</defs>
</svg>
