<svg width="1024" height="1024" viewBox="0 0 1024 1024" fill="none" xmlns="http://www.w3.org/2000/svg">
<g clip-path="url(#clip0_2_2577)">
<path d="M512 1024C794.77 1024 1024 794.77 1024 512C1024 229.23 794.77 0 512 0C229.23 0 0 229.23 0 512C0 794.77 229.23 1024 512 1024Z" fill="#728DBE"/>
<path d="M418.056 463.724C418.056 463.724 468.35 434.204 549.257 405.048C592.626 389.741 635.63 382.088 666.608 378.079C649.479 372.977 633.079 368.603 621.052 365.323C582.421 354.754 527.026 341.634 480.012 334.345C477.825 345.643 472.358 363.501 458.874 389.741C440.652 425.457 418.056 463.724 418.056 463.724ZM395.825 505.271C386.714 507.822 356.1 586.542 340.429 630.276C369.22 649.956 398.741 667.813 426.438 679.84C481.834 704.258 498.963 694.053 533.221 678.747C557.639 667.813 596.27 641.573 630.164 617.156C588.981 590.187 537.594 557.751 507.71 543.902C452.314 516.933 408.945 500.897 395.825 505.271ZM443.203 330.336C400.927 327.421 394.367 337.261 385.985 342.728C364.482 354.754 274.1 408.328 230.367 446.23C188.82 482.31 196.108 504.906 215.424 527.502C231.095 545.724 258.429 567.591 301.069 601.12C303.256 602.578 305.078 604.035 306.9 605.493C324.029 567.591 361.202 485.226 379.425 446.959C400.563 401.768 430.083 352.203 443.203 330.336ZM813.116 425.092C798.173 417.439 785.418 413.066 773.755 409.421C767.924 407.599 752.618 403.226 733.666 397.394C699.773 401.768 644.013 410.15 589.71 423.27C533.586 436.755 439.194 482.675 439.194 482.675C439.194 482.675 558.368 521.306 670.253 586.178C674.262 583.262 677.542 580.711 680.457 577.795C715.08 549.368 802.911 476.115 821.862 444.408C826.6 436.39 822.591 429.83 813.116 425.092Z" fill="white"/>
</g>
<defs>
<clipPath id="clip0_2_2577">
<rect width="1024" height="1024" fill="white"/>
</clipPath>
</defs>
</svg>
