<svg width="1024" height="1024" fill="none" xmlns="http://www.w3.org/2000/svg"><g clip-path="url(#a)"><path d="M512 1024c282.77 0 512-229.23 512-512S794.77 0 512 0 0 229.23 0 512s229.23 512 512 512Z" fill="#728DBE"/><path d="M418.056 463.724s50.294-29.52 131.201-58.676c43.369-15.307 86.373-22.96 117.351-26.969-17.129-5.102-33.529-9.476-45.556-12.756-38.631-10.569-94.026-23.689-141.04-30.978-2.187 11.298-7.654 29.156-21.138 55.396-18.222 35.716-40.818 73.983-40.818 73.983Zm-22.231 41.547c-9.111 2.551-39.725 81.271-55.396 125.005 28.791 19.68 58.312 37.537 86.009 49.564 55.396 24.418 72.525 14.213 106.783-1.093 24.418-10.934 63.049-37.174 96.943-61.591-41.183-26.969-92.57-59.405-122.454-73.254-55.396-26.969-98.765-43.005-111.885-38.631Zm47.378-174.935c-42.276-2.915-48.836 6.925-57.218 12.392-21.503 12.026-111.885 65.6-155.618 103.502-41.547 36.08-34.259 58.676-14.943 81.272 15.671 18.222 43.005 40.089 85.645 73.618 2.187 1.458 4.009 2.915 5.831 4.373 17.129-37.902 54.302-120.267 72.525-158.534 21.138-45.191 50.658-94.756 63.778-116.623Zm369.913 94.756c-14.943-7.653-27.698-12.026-39.361-15.671-5.831-1.822-21.137-6.195-40.089-12.027-33.893 4.374-89.653 12.756-143.956 25.876-56.124 13.485-150.516 59.405-150.516 59.405s119.174 38.631 231.059 103.503c4.009-2.916 7.289-5.467 10.204-8.383 34.623-28.427 122.454-101.68 141.405-133.387 4.738-8.018.729-14.578-8.746-19.316Z" fill="#fff"/></g><defs><clipPath id="a"><path fill="#fff" d="M0 0h1024v1024H0z"/></clipPath></defs></svg>