<svg width="1024" height="1024" fill="none" xmlns="http://www.w3.org/2000/svg"><g clip-path="url(#a)"><path d="M512 1024c282.77 0 512-229.23 512-512S794.77 0 512 0 0 229.23 0 512s229.23 512 512 512Z" fill="#9ABEFF"/><path d="m553.231 249-87.48 8.37v360.21l86.55-13V451l116.35 170.31 91.21-28.86-119.14-163.81 120.07-154.51-93.07-21.4-115.41 154.5.92-158.23Zm-198.29 87.78a4.436 4.436 0 0 0-2.68 1.28l-34.33 34.33a4.437 4.437 0 0 0-.65 5.45l40.2 66.2a171.781 171.781 0 0 0-16.93 38.54l-73.8 15.35a4.44 4.44 0 0 0-3.53 4.35v48.55a4.428 4.428 0 0 0 3.38 4.31l71.63 17.51a171.578 171.578 0 0 0 17.56 44.51l-41.46 63.22a4.435 4.435 0 0 0 .58 5.58l34.32 34.33a4.472 4.472 0 0 0 5.46.66l65-39.46a171.735 171.735 0 0 0 41.07 17.09l15.16 72.88a4.435 4.435 0 0 0 4.35 3.53h48.55a4.431 4.431 0 0 0 4.31-3.4l17.85-73a171.103 171.103 0 0 0 42.25-17.78l64 42a4.435 4.435 0 0 0 5.58-.57l34.33-34.33a4.429 4.429 0 0 0 .65-5.45l-23.39-38.54-7.56 2.39a2.606 2.606 0 0 1-3-1l-34.16-50a139.115 139.115 0 0 1-103.906 74.433 139.108 139.108 0 0 1-76.974-264.573v-35.89a171.34 171.34 0 0 0-25.41 11.2l-65.53-43a4.453 4.453 0 0 0-2.89-.71l-.03.01Z" fill="#fff"/></g><defs><clipPath id="a"><path fill="#fff" d="M0 0h1024v1024H0z"/></clipPath></defs></svg>