<svg width="1024" height="1024" fill="none" xmlns="http://www.w3.org/2000/svg"><g clip-path="url(#a)"><path d="M512 1024c282.77 0 512-229.23 512-512S794.77 0 512 0 0 229.23 0 512s229.23 512 512 512Z" fill="#9ABEFF"/><path d="M252.61 490h76.91v-15.9H235.6v75.62h93.92v-16.09h-76.91v-13.68h76.54v-16.08h-76.54V490Zm107 0h76.91v-15.9h-93.69v75.62h93.74v-16.09h-76.91v-13.68h76.54v-16.08h-76.54l-.05-13.87Zm214.28 0h76.91v-15.9h-93.69v75.62h93.74v-16.09h-76.91v-13.68h76.54v-16.08h-76.54l-.05-13.87Zm89.67 0h37.53v59.72H718V490h37.72v-15.9H663.6l-.04 15.9Zm104.83-15.9h17v75.62h-17V474.1Zm-224.82 0h-16.78v53.43l-59.9-53.43h-17v75.62h17v-53.43l59.9 53.43h16.82l-.04-75.62Zm-353.82 30.69 32.54-30.69h-25.88l-30 29.21H145V474.1h-17v75.62h17v-29.4h30c12.57 0 21.26 2.77 25.88 8.13 2.77 3.14 4.07 7.4 4.07 12.76v8.5h17v-8.5c0-9.24-2.77-17.38-8.13-23.66-5.73-6.47-13.68-10.91-24-12.76m690.65 19.41-.55.55c-5.36 5.73-15.71 9.61-30.14 9.61-13.5 0-23.48-3.33-29-8.5l-1.11-1.11a18.745 18.745 0 0 1-4.67-12.93c0-5.36 1.48-9.61 4.62-12.94l1.11-1.11c5.55-5 15.53-8.5 29-8.5 14.42 0 24.77 3.88 30.14 9.61.18.18.37.37.37.55l15.53-7.58a43.374 43.374 0 0 0-3.51-4.62c-8.69-9.24-22.93-14.05-42.52-14.05-19.6 0-33.83 4.81-42.71 14.24a35.854 35.854 0 0 0-9.2 24.58c0 9.61 3.14 18.12 9.24 24.59 8.69 9.43 23.11 14.24 42.71 14.24s33.83-4.81 42.71-14.24A43.385 43.385 0 0 0 896 532l-15.53-7.8Z" fill="#fff"/></g><defs><clipPath id="a"><path fill="#fff" d="M0 0h1024v1024H0z"/></clipPath></defs></svg>