<svg width="1024" height="1024" viewBox="0 0 1024 1024" fill="none" xmlns="http://www.w3.org/2000/svg">
<g clip-path="url(#clip0_2_2589)">
<path d="M512 1024C794.77 1024 1024 794.77 1024 512C1024 229.23 794.77 0 512 0C229.23 0 0 229.23 0 512C0 794.77 229.23 1024 512 1024Z" fill="#F9DE81"/>
<path d="M739.1 548.2L695.1 512L739 475.8L713.8 445.3L633 512L713.9 578.8L739.1 548.2ZM707.8 622.5L598.8 535.5H463.8V735.3H503.3V575H585L683.2 653.4L707.8 622.5ZM657.7 681.9L573.5 612.6L541.2 612.8V735.2L580.7 725.1V669.7L624.9 706.1L657.7 681.9ZM425.2 354.5L385.7 320.1V707.4L425.2 673V354.5ZM347.7 405.3L308.2 441.6V592L347.7 625.7V405.3ZM463.8 488.5H598.8L707.8 401.5L683.1 370.6L585 449H503.4V288.7H463.9V488.5H463.8ZM541.1 416.6L573.4 416.8L657.6 347.5L624.8 323.3L580.6 359.7V304.3L541.1 294.2V416.6ZM768 512C768 653.4 653.4 768 512 768C370.6 768 256 653.4 256 512C256 370.6 370.6 256 512 256C653.4 256 768 370.6 768 512Z" fill="white"/>
</g>
<defs>
<clipPath id="clip0_2_2589">
<rect width="1024" height="1024" fill="white"/>
</clipPath>
</defs>
</svg>
