<svg width="1024" height="1024" fill="none" xmlns="http://www.w3.org/2000/svg"><g clip-path="url(#a)"><path d="M512 1024c282.77 0 512-229.23 512-512S794.77 0 512 0 0 229.23 0 512s229.23 512 512 512Z" fill="#F9DE81"/><path d="m739.1 548.2-44-36.2 43.9-36.2-25.2-30.5L633 512l80.9 66.8 25.2-30.6Zm-31.3 74.3-109-87h-135v199.8h39.5V575H585l98.2 78.4 24.6-30.9Zm-50.1 59.4-84.2-69.3-32.3.2v122.4l39.5-10.1v-55.4l44.2 36.4 32.8-24.2ZM425.2 354.5l-39.5-34.4v387.3l39.5-34.4V354.5Zm-77.5 50.8-39.5 36.3V592l39.5 33.7V405.3Zm116.1 83.2h135l109-87-24.7-30.9L585 449h-81.6V288.7h-39.5v199.8h-.1Zm77.3-71.9 32.3.2 84.2-69.3-32.8-24.2-44.2 36.4v-55.4l-39.5-10.1v122.4ZM768 512c0 141.4-114.6 256-256 256S256 653.4 256 512s114.6-256 256-256 256 114.6 256 256Z" fill="#fff"/></g><defs><clipPath id="a"><path fill="#fff" d="M0 0h1024v1024H0z"/></clipPath></defs></svg>