<svg width="1024" height="1024" fill="none" xmlns="http://www.w3.org/2000/svg"><g clip-path="url(#a)"><path d="M512 1024c282.77 0 512-229.23 512-512S794.77 0 512 0 0 229.23 0 512s229.23 512 512 512Z" fill="#BA6561"/><path d="M729.859 368.88c-56.5-18.23-64.57-25-64.57-25-18.22-35.95-43.22-47.11-60.63-50.23-12.13-18.45-29.569-68.12-36.479-64.41-8.49 4.64-17.141 26.57-17.141 26.57-3.25-8-11.89-29.66-21.38-22.87-12.32 9-26.61 52.85-26.61 72 0 14.91-7.899 39.46-14.559 57.54 7.75 7.33 15.29 17.12 21.93 30.23 0 0 8.07 6.79 64.57 25 37.799 12.21 15.44 37.23 15.44 37.23s-3.861 10-15.081 19.64c1.671 3.37 3.29 6.48 4.81 9.14a86.825 86.825 0 0 1 38.091 20.61A211.349 211.349 0 0 1 632.289 448s11.05-.62 55.94-5.26c44.731-4.64 57.07-36.62 57.07-36.62s22.37-25.03-15.44-37.24Zm-104.359-1.7c-6.51 1.86-18 4-25.49-17.76 0 0 36.26-18.09 39.37 17.76a28.092 28.092 0 0 0-13.88 0Zm-180.391 30.9s36.241-18.07 39.371 17.78a27.905 27.905 0 0 0-13.88 0c-6.51 1.86-17.981 4.01-25.491-17.78ZM698.57 568.53c-56.49-18.23-64.56-25-64.56-25a114.407 114.407 0 0 0-16.791-25c-15-16.67-31.359-23-43.839-25.28A127.675 127.675 0 0 1 566.5 481c-8.28 5-19.12 9.16-33.17 10.62-8.82.91-16.32 1.66-22.69 2.29l-38.35 4a63.342 63.342 0 0 0-.55 6.64c-.51 22.29-12.13 54.18-18.89 70.35a69.14 69.14 0 0 1-7.051 10.84 51.442 51.442 0 0 1-3.529 3.63c-45 32.5-73.31.74-90.71-42.66-9.29-23.17-15.481-49.66-19.451-71.43a34.404 34.404 0 0 0-.229-1.27c-.167-.927-.33-1.847-.49-2.76-1.49-9.37-1.56-20.1-1-30.28a289.372 289.372 0 0 1 4.25-30.9l2.78-10.2c3.11-9.1 7.41-21.47 10.24-28.88 4.5-6.8 8-8.76 8-8.76 28-25.81 82.57-21.74 93.59-20.62-12.11-19.05-29.14-67.25-36-63.59-8.49 4.64-17.141 26.58-17.141 26.58-3.25-8-11.89-29.67-21.37-22.87-10.89 7.91-23.299 43-26.049 64.34l-24.641 88.78c-15.85 41.49-23.679 68.51-27.109 86.09-3.34 13.83-49.22 206.51-7.18 192.21 0 0 95-18.08 153.5 30.91 0 0 114.069 94.74 141.92-19.26.418-1.21.644-2.479.669-3.76.06-3.94.251-7.81.551-11.6v-.42c.08-1 .169-2 .259-3 .84-7.3 3.391-21.61 3.671-23.18.7-3.71 3.389-14.06 3.389-14.06v-.14l.38-1.33c1.82-6.07 6.81-19.56 6.81-19.56h-.069l.069-.17s11.051-.62 55.931-5.26c44.88-4.64 57.16-36.54 57.16-36.54s22.39-25.04-15.43-37.25Zm-104.341-1.86c-6.51 1.86-18 4-25.489-17.78 0 0 36.239-18.07 39.369 17.78a27.899 27.899 0 0 0-13.89.01l.01-.01Z" fill="#fff"/></g><defs><clipPath id="a"><path fill="#fff" d="M0 0h1024v1024H0z"/></clipPath></defs></svg>