<svg width="1024" height="1024" viewBox="0 0 1024 1024" fill="none" xmlns="http://www.w3.org/2000/svg">
<g clip-path="url(#clip0_2_2604)">
<path d="M512 1024C794.77 1024 1024 794.77 1024 512C1024 229.23 794.77 0 512 0C229.23 0 0 229.23 0 512C0 794.77 229.23 1024 512 1024Z" fill="#98DC9A"/>
<path d="M656 512.1L702.6 465.9C750.8 418 750.8 340 702.6 292.1C654.4 244.2 575.8 244.2 527.6 292.1L510.6 308.9C488.2 276.9 451.2 256 408.9 256C340.6 256 285.2 311 285.2 378.8V645.1C285.2 712.9 340.6 767.9 408.9 767.9C451.2 767.9 488.2 747 510.6 715L527.6 731.8C575.8 779.7 654.4 779.7 702.6 731.8C750.8 683.9 750.8 605.9 702.6 558L656 512.1Z" fill="white"/>
</g>
<defs>
<clipPath id="clip0_2_2604">
<rect width="1024" height="1024" fill="white"/>
</clipPath>
</defs>
</svg>
