<svg width="1024" height="1024" fill="none" xmlns="http://www.w3.org/2000/svg"><g clip-path="url(#a)"><path d="M512 1024c282.77 0 512-229.23 512-512S794.77 0 512 0 0 229.23 0 512s229.23 512 512 512Z" fill="#98DC9A"/><path d="m656 512.1 46.6-46.2c48.2-47.9 48.2-125.9 0-173.8-48.2-47.9-126.8-47.9-175 0l-17 16.8c-22.4-32-59.4-52.9-101.7-52.9-68.3 0-123.7 55-123.7 122.8v266.3c0 67.8 55.4 122.8 123.7 122.8 42.3 0 79.3-20.9 101.7-52.9l17 16.8c48.2 47.9 126.8 47.9 175 0s48.2-125.9 0-173.8L656 512.1Z" fill="#fff"/></g><defs><clipPath id="a"><path fill="#fff" d="M0 0h1024v1024H0z"/></clipPath></defs></svg>