<svg width="1024" height="1024" fill="none" xmlns="http://www.w3.org/2000/svg"><g clip-path="url(#a)"><path d="M512 1024c282.77 0 512-229.23 512-512S794.77 0 512 0 0 229.23 0 512s229.23 512 512 512Z" fill="#728DBE"/><path d="M752.44 376.85A60.943 60.943 0 0 0 710.69 352a77.854 77.854 0 0 0-40.63 5.64 121.876 121.876 0 0 0-35 23.7 372.474 372.474 0 0 0-30.47 33.85l-15.8 21.44-10.16 15.8-11.28 20.31-9 19.18-13.54-4.51-14.67-7.9a172.654 172.654 0 0 0 22.57-31.6 222.318 222.318 0 0 0 18.06-41.75A262.921 262.921 0 0 0 582 339.61a109.46 109.46 0 0 0-7.9-42.88 76.746 76.746 0 0 0-19.1-27.08 63.193 63.193 0 0 0-42.88-13.54 62.067 62.067 0 0 0-40.63 19.18A72.226 72.226 0 0 0 450 331.71h21.44a54.167 54.167 0 0 1 6.77-28.21 48.518 48.518 0 0 1 31.6-23.7 38.37 38.37 0 0 1 33.87 10.2c18.06 18.06 19.18 45.14 15.8 74.48a203.128 203.128 0 0 1-21.44 70 156.883 156.883 0 0 1-26 36.11 150.097 150.097 0 0 1-19.18-21.44 173.776 173.776 0 0 1-26-54.17 185.09 185.09 0 0 1-5.64-41.75h-21.36a186.202 186.202 0 0 0 33.85 104.87 172.603 172.603 0 0 0 21.44 24.83 176.009 176.009 0 0 1-27.08 11.28c-2.26-5.64-12.41-23.7-18.06-31.6-5.65-7.9-18.06-24.83-26-35-7.94-10.17-23.7-26-31.6-35a178.248 178.248 0 0 0-23.7-18.06 103.806 103.806 0 0 0-22.57-10.16A66.58 66.58 0 0 0 257 431a67.706 67.706 0 0 0 12.41 35 137.666 137.666 0 0 0 55.3 42.88 171.525 171.525 0 0 0 53 14.67 234.77 234.77 0 0 0 42.88 1.13 220.042 220.042 0 0 0 35-4.51 172.757 172.757 0 0 1 7.9 23.7 156.906 156.906 0 0 1 3.39 24.83 196.35 196.35 0 0 0-64.32 22.57 299.04 299.04 0 0 0-50.78 39.5 142.179 142.179 0 0 0-31.6 42.88 93.654 93.654 0 0 0-6.77 32.73 66.58 66.58 0 0 0 36.11 55.3c20.31 10.16 47.4 9 73.35-10.16a138.807 138.807 0 0 0 47.4-62.07 247.137 247.137 0 0 0 15.8-59.81 346.501 346.501 0 0 0 2.26-42.88 313.786 313.786 0 0 1 53-1.13 329.502 329.502 0 0 0 4.51 44A239.254 239.254 0 0 0 564 687.18a148.994 148.994 0 0 0 41.75 54.17 83.512 83.512 0 0 0 49.65 20.31 60.941 60.941 0 0 0 41.75-13.54 67.709 67.709 0 0 0 22.57-44 78.999 78.999 0 0 0-12.41-50.78 180.578 180.578 0 0 0-37.24-39.5 234.707 234.707 0 0 0-41.75-28.21A213.306 213.306 0 0 0 564 566.44a194.082 194.082 0 0 1 9-48.52l31.6 3.39a211.01 211.01 0 0 0 57.55-5.64 172.627 172.627 0 0 0 46.27-18.06 142.19 142.19 0 0 0 36.11-27.08 81.245 81.245 0 0 0 20.31-33.85 66.584 66.584 0 0 0-12.4-58.68M409.39 504.37a162.503 162.503 0 0 1-84.64-18.06A106.078 106.078 0 0 1 283 449.08a42.883 42.883 0 0 1-4.51-30.47 50.777 50.777 0 0 1 16.93-27.08c20.31-14.67 40.63-9 59.81 0s41.75 37.24 56.42 53a294.498 294.498 0 0 1 36.11 55.3 186.21 186.21 0 0 1-36.11 4.51m54.17 133.16a185.062 185.062 0 0 1-19.18 58.68c-12.41 20.31-28.21 42.88-54.17 49.65a40.618 40.618 0 0 1-54.17-31.6c-7.9-27.08 13.54-53 26-64.32a227.992 227.992 0 0 1 49.65-39.5 159.092 159.092 0 0 1 55.3-19.18 266.313 266.313 0 0 1-3.39 47.4m77.86-72.22a477.391 477.391 0 0 0-54.17 1.13 230.258 230.258 0 0 0-11.28-50.78 138.81 138.81 0 0 0 37.24-18.06 134.304 134.304 0 0 0 38.37 18.06 251.654 251.654 0 0 0-9 50.78m82.38 44a257.294 257.294 0 0 1 49.65 37.24 77.857 77.857 0 0 1 21.44 38.37 50.78 50.78 0 0 1-7.9 37.24 38.365 38.365 0 0 1-35 16.93 74.481 74.481 0 0 1-48.52-26 138.793 138.793 0 0 1-31.6-53A226.798 226.798 0 0 1 562.86 589a193.005 193.005 0 0 1 62.07 20.31M705 476.16A170.404 170.404 0 0 1 627.18 501a188.475 188.475 0 0 1-47.4-2.26 292.25 292.25 0 0 1 30.47-54.17l27.08-33.85A136.573 136.573 0 0 1 661 388.14a65.449 65.449 0 0 1 44-14.67 39.498 39.498 0 0 1 30.47 16.93 51.903 51.903 0 0 1 10.16 24.83C746.8 437.79 733.26 457 705 475" fill="#fff"/></g><defs><clipPath id="a"><path fill="#fff" d="M0 0h1024v1024H0z"/></clipPath></defs></svg>