<svg width="1024" height="1024" viewBox="0 0 1024 1024" fill="none" xmlns="http://www.w3.org/2000/svg">
<g clip-path="url(#clip0_2_2610)">
<path d="M512 1024C794.77 1024 1024 794.77 1024 512C1024 229.23 794.77 0 512 0C229.23 0 0 229.23 0 512C0 794.77 229.23 1024 512 1024Z" fill="#F8C18C"/>
<path d="M420.33 237.82C420.31 230.31 418.26 222.96 418.61 215.42C436.1 230.28 453.12 245.71 470.56 260.63C484.31 237.58 497.99 214.51 511.6 191.37C513.03 192.67 514.12 194.3 515.06 195.99C527.71 217.67 540.82 239.09 553.31 260.87C570.69 245.66 587.85 230.16 605.61 215.37C602.89 246.56 599.29 277.7 597.05 308.9C594.72 310.33 592.18 311.4 589.56 312.15C576.83 316.01 563.77 319.09 550.5 320.25C525.66 323.9 500.26 323.47 475.34 320.69C458.91 318.55 442.37 315.62 426.97 309.31C426.65 298.83 424.74 288.51 424.51 278.03C422.95 267.44 422.15 256.7 421.46 246C420.71 243.33 420.42 240.57 420.32 237.81L420.33 237.82ZM476.68 232.8C471.95 225.17 466.87 217.79 462 210.25C458.2 217.57 454.36 225 451.87 232.88C457.62 237.37 462.37 243.03 468.32 247.25C471.13 242.44 473.81 237.58 476.68 232.8ZM571.45 232.46C568.51 225.08 565.22 217.8 561.49 210.79C556.35 217.81 552.05 225.38 546.98 232.44C549.76 237.34 552.55 242.22 555.39 247.07C560.7 242.14 566.07 237.29 571.46 232.45L571.45 232.46ZM335.38 487.07C343.59 476.31 349.51 464.09 355.41 451.99C364.41 432.4 372.09 412.23 379.5 392.01C388.15 371.55 399.78 352.39 413.62 335.05C417.82 329.77 422.88 325.22 426.67 319.62C415.52 327.4 406.25 337.59 397.89 348.24C366.44 389.18 354.91 441.21 325.46 483.35C308.51 506.56 295.98 533.11 289.79 561.21C281.22 599.8 284.16 640.9 298.65 677.72C306.71 697.66 317.54 716.99 332.77 732.33C329.28 724.99 324.1 718.6 320.47 711.32C298.64 672.18 290.43 625.95 296.73 581.66C302.19 547.77 314.61 514.6 335.38 487.06V487.07ZM733.25 557.39C726.84 530.48 714.45 505.16 698.16 482.87C670.5 443.05 658.75 394.63 630.99 354.89C622.75 342.94 612.68 332.4 601.83 322.8C600.33 321.44 598.53 320.5 596.73 319.63C620.18 344.27 638.78 373.78 649.67 406.08C661.13 435.48 672.19 465.8 691.52 491.14C721.2 533.39 733.98 586.94 727.51 638.06C723.56 670.06 711.46 700.83 693.59 727.59C692.6 729.02 691.85 730.58 691.35 732.26C700.35 723.44 707.25 712.76 713.72 702.02C738.35 658.64 745.24 605.74 733.23 557.39H733.25ZM672.36 631.89C677.82 662.6 677.85 694.71 668.82 724.78C660.54 747.97 643.96 767.65 623.6 781.28C592.5 802.11 554.82 811.11 517.8 812.57C490.72 813.04 463.44 809.08 437.88 799.97C411.68 790.65 386.8 775.28 370.17 752.61C363.67 743.88 358.39 734.19 354.9 723.88C350.26 707.69 347.73 690.85 348.43 673.99C347.47 649.46 352.08 625.1 358.56 601.53C368.05 568.56 382.04 536.84 400.37 507.83C405.76 499.3 407.71 489.29 409.31 479.51C410.76 466.39 406.72 453.65 405.34 440.69C404.18 423.51 404.15 405.52 411.55 389.56C418.52 373.49 434.38 360.78 452.2 360.01C461.51 360.44 471.15 362.54 478.67 368.37C489.95 376.52 495.61 389.93 499.57 402.82C507.55 399.02 516.8 399.19 524.78 402.9C528.37 387.47 536.85 371.76 551.57 364.56C561.9 359.97 574.21 358.3 584.88 362.77C598.54 368 609.06 379.81 614.05 393.41C619.57 408.38 620.28 424.73 618.46 440.47C618.05 450.25 614.87 459.7 614.75 469.52C614.14 484.46 617.73 499.73 626.25 512.15C648.57 548.85 664.73 589.55 672.36 631.89ZM472.04 416.04C471.84 411.42 467.11 408.59 463.56 406.38C455.47 401.47 444.23 403.76 438.69 411.42C435.36 415.17 434.97 420.32 433.81 424.98C434.6 428.14 435.29 431.79 438.94 432.84C446.36 427.93 454.05 423.32 462.56 420.6C465.81 419.29 469.88 419.17 472.05 416.04H472.04ZM531.84 460.52C518.78 458.41 505.18 457.61 492.26 460.89C492.2 461.38 492.09 462.32 492.03 462.8C497.83 469.07 502.02 479.52 511.91 479.49C518.23 480.05 522.54 474.85 525.96 470.34C528.11 467.23 531.9 464.69 531.83 460.53L531.84 460.52ZM545.42 442.56C538.31 434.08 531.63 425.24 524.49 416.79C522.58 414.44 519.76 413.13 517.23 411.57C510.68 410.49 503.16 411.54 499.06 417.34C492.07 426.39 483.92 434.67 478.08 444.51C479.42 447.12 480.75 450.6 484.32 450.37C493.99 450.1 503.53 447.82 513.23 448.48C523.36 447.6 533.42 451.68 543.44 449.64C544.78 447.49 545.48 445.09 545.42 442.56ZM579.57 406.4C573.65 402.69 565.91 403.15 560.01 406.64C556.09 408.88 551.07 412.38 552.66 417.61C558.26 419.84 564.19 421.18 569.61 423.85C575.32 426.37 580.29 430.23 585.95 432.82C586.85 432 588.65 430.36 589.54 429.54C590.7 420.84 587.74 410.74 579.58 406.39L579.57 406.4Z" fill="white"/>
</g>
<defs>
<clipPath id="clip0_2_2610">
<rect width="1024" height="1024" fill="white"/>
</clipPath>
</defs>
</svg>
