<svg width="1024" height="1024" fill="none" xmlns="http://www.w3.org/2000/svg"><g clip-path="url(#a)"><path d="M512 1024c282.77 0 512-229.23 512-512S794.77 0 512 0 0 229.23 0 512s229.23 512 512 512Z" fill="#98DC9A"/><path d="M265.09 361.85h-49.44V608.7h49.44V361.85ZM395 608.68h49.44V440.9H395v167.78Zm126.49 0h56.93l56.94-167.78h-49.45s-26.44 91-34.5 119.93h-.57c-8.06-29-35.07-119.93-35.07-119.93h-52.32l58.04 167.78ZM807.8 440.9h-47.73v23c-8.06-17.72-27-27.77-49.44-27.77-40.24 0-72.45 33.68-72.45 88.61s31 88.61 70.14 88.61c27.6 0 43.7-13.58 52.33-29v24.22h47.71l-.56-167.67Zm-48.85 88c0 30.73-18.4 45.49-36.8 45.49-20.12 0-33.35-21.27-33.35-49.63 0-28.36 13.8-49.63 35.07-49.63 17.24 0 35.07 14.76 35.07 45.49v8.28h.01Zm-481.22-8.28c79.34 0 97.74-67.94 97.74-79.76h-6.89c-79.34 0-97.74 67.94-97.74 79.76h6.89Zm-6.89 5.91c0 12.4 13.8 81.52 98.89 81.52h6.89c0-12.4-13.8-81.52-98.89-81.52h-6.89Zm178.8-131.76c0-15.95-12.07-29.54-27.6-29.54h-1.72c-15.52-.59-28.75 11.81-29.32 27.77v1.77c0 15.95 12.07 29.54 27.6 29.54h1.72c15.52.59 28.75-11.81 29.32-27.77v-1.77Z" fill="#fff"/></g><defs><clipPath id="a"><path fill="#fff" d="M0 0h1024v1024H0z"/></clipPath></defs></svg>