<svg width="1024" height="1024" fill="none" xmlns="http://www.w3.org/2000/svg"><g clip-path="url(#a)"><path d="M512 1024c282.77 0 512-229.23 512-512S794.77 0 512 0 0 229.23 0 512s229.23 512 512 512Z" fill="#98DC9A"/><path d="M669.9 362.4h-36v-14.5c0-35.5-28.9-64.4-64.4-64.4h-115c-35.5 0-64.4 28.9-64.4 64.4v14.5h-36c-35.5 0-64.4 28.9-64.4 64.4v215.4c0 35.5 28.9 64.4 64.4 64.4h315.8c35.5 0 64.4-28.9 64.4-64.4V426.8c0-35.5-28.9-64.4-64.4-64.4ZM407.5 478.1l-32 164c-4.1 12.5-9.6 21.4-21.4 21.5-11.8 0-21.5-9.6-21.5-21.5V426.8c0-11.8 9.6-21.5 21.5-21.5H433v-57.5c0-11.8 9.6-21.5 21.5-21.5h114.9c11.8 0 21.5 9.6 21.5 21.5v57.5h79c11.8 0 21.5 9.6 21.5 21.5v22.3H444.9s-32 .3-37.4 29Zm265.2 181.4-45.4-23.9-45.3 23.9 8.7-50.5-36.7-35.8 50.7-7.4 22.7-46 22.7 46 50.7 7.4L664 609l8.7 50.5Z" fill="#fff"/></g><defs><clipPath id="a"><path fill="#fff" d="M0 0h1024v1024H0z"/></clipPath></defs></svg>