<svg width="1024" height="1024" fill="none" xmlns="http://www.w3.org/2000/svg"><g clip-path="url(#a)"><path d="M512 1024c282.77 0 512-229.23 512-512S794.77 0 512 0 0 229.23 0 512s229.23 512 512 512Z" fill="#54688C"/><path d="M382.18 562.89c-3.08 0-7 3.22-6.45 6.59a8.554 8.554 0 0 0 7.57 4.21 5.46 5.46 0 0 0 4.132-1.767 5.466 5.466 0 0 0-.845-8.151 5.464 5.464 0 0 0-4.407-.882ZM512.14 196C337.62 195.92 196.08 337.34 196 511.86 195.92 686.38 337.34 827.92 511.86 828c174.52.08 316.06-141.34 316.14-315.86v-.28C828 337.42 686.58 196 512.14 196Zm218.42 534.28c-120.5 120.4-315.79 120.32-436.19-.18-120.4-120.5-120.32-315.79.18-436.19 120.5-120.4 315.79-120.32 436.19.18a308.433 308.433 0 0 1 90.249 218.132A308.433 308.433 0 0 1 730.56 730.28Zm-218.42-517.6c-165.31 0-299.32 134-299.32 299.32s134 299.32 299.32 299.32S811.46 677.31 811.46 512v-.14c0-165.23-133.95-299.18-299.18-299.18h-.14Zm208.47 507.51c-115 114.9-301.46 114.79-416.36-.26-114.9-115.05-114.79-301.46.26-416.36 115.05-114.9 301.46-114.79 416.36.26a294.404 294.404 0 0 1 86.101 208.234A294.401 294.401 0 0 1 720.61 720.19Zm-437.55-215.9-16.54-1.4-6.87-8.41 25.52-15.14.56-8.41-30.14 18.51-17.66-22.15-.7 9.11 21.45 25.8-23.41-1.82-.56 6.31 47.95 3.93.4-6.33Zm9.11-55.24 1.82-6.31-18.65-5.61-22.14-25.51-2.2 7.29 18 19.77-25.94 6.59-2.24 7.29 32.67-9.11 18.68 5.6Zm-11.78-41.5a27.201 27.201 0 0 0 18.37 3.93 21.597 21.597 0 0 0 14.86-11.64 21.178 21.178 0 0 0 3.433-9.77 21.18 21.18 0 0 0-1.613-10.23 28.003 28.003 0 0 0-12.76-14 25.665 25.665 0 0 0-16.54-3.93 21.587 21.587 0 0 0-16.4 12.34 21.172 21.172 0 0 0-1.4 20.33 28.007 28.007 0 0 0 12.06 12.97h-.01Zm-5.47-30.28a15.281 15.281 0 0 1 10.37-8 19.77 19.77 0 0 1 14 2.94 26.354 26.354 0 0 1 10.51 10.23 14.001 14.001 0 0 1-.84 14 16.108 16.108 0 0 1-11.22 8.83 23.004 23.004 0 0 1-14-3.36A21.867 21.867 0 0 1 273 390.59a16.252 16.252 0 0 1 2.38-13.32h-.46Zm33.79-44.72L340.12 361l4.49-5-31.26-28.32L324 315.73l-4.07-3.93-26.22 29 4.21 3.65 10.79-11.9Zm51.87-.7a22.142 22.142 0 0 0 17.94-4.35 21.308 21.308 0 0 0 10-17.38 28.997 28.997 0 0 0-5.89-17.66 26.357 26.357 0 0 0-14-10.51 21.736 21.736 0 0 0-20 4.21 21.452 21.452 0 0 0-9.81 17.94 31.005 31.005 0 0 0 20.75 28l1.01-.25Zm-7.43-41.22a15.414 15.414 0 0 1 13-2.8 19.49 19.49 0 0 1 11.36 8.55 25.238 25.238 0 0 1 5.19 14 12.902 12.902 0 0 1-6.45 12.2 15.136 15.136 0 0 1-14 3.22 22.71 22.71 0 0 1-11.22-8.55 21.449 21.449 0 0 1-4.91-15 16.404 16.404 0 0 1 7.04-11.62h-.01Zm75-.14a16.997 16.997 0 0 0 18.51 3.65A16.679 16.679 0 0 0 460 281a34.21 34.21 0 0 0-1.54-14l-8-25.8-6.17 2 8.55 28a18.794 18.794 0 0 1 .84 8.41 11.64 11.64 0 0 1-9.25 8.69 10.09 10.09 0 0 1-10.94-2.1 18.51 18.51 0 0 1-4.35-7.71l-8.55-28-6.45 1.68 7.85 25.8a31.4 31.4 0 0 0 6.17 12.52h-.01Zm59-6.31-2.1-38.83 26.36 37.43 7.29-.42-2.52-47.95-6 .42 1.82 38.7-25.8-37.43-7.71.42 2.51 47.94 6.15-.28Zm62.67-46.54-6.45-.7-5.89 47.53 6.45.84 5.89-47.67Zm31.4 56.08 30.56-40.94-7.15-2.1-24.53 35.19-1.54-43-7-2.1 3.08 51 6.58 1.95Zm58.46 27.34 2.8-5-25.38-14.16 7.9-14.21 23.13 12.9 2.66-5-23-12.76 7-12.76 25 13.88 2.8-5.19-30.42-16.82-23.27 41.92 30.78 17.2Zm18.09 13.88 14-15.28 10.65 9.67a12.621 12.621 0 0 1 3.5 4.49 6.735 6.735 0 0 1-1.68 7l-5.13 6.18-2.24 2.94-.7 1.54 5.89 5.47.84-.84a3.503 3.503 0 0 1 0-3.5l2.38-3.36 4.35-4.91a11.775 11.775 0 0 0 2.94-5.47 14.002 14.002 0 0 0-1.12-5.19c2.152.627 4.438.627 6.59 0a12.48 12.48 0 0 0 6.17-4.07 11.642 11.642 0 0 0 2.66-12.76 21.167 21.167 0 0 0-5.87-7.15l-16.26-14-31.84 34.89 4.87 4.35Zm28-31.4 11.43 10.36a11.227 11.227 0 0 1 3.22 4.21 9.1 9.1 0 0 1-1.761 7.303 9.118 9.118 0 0 1-6.649 3.497 12.065 12.065 0 0 1-6.45-3.36l-10.65-9.81 10.86-12.2Zm18.65 77.11a12.484 12.484 0 0 1-2.1-11.92 12.341 12.341 0 0 1 4.35-5.19l-3.36-5.19a15.15 15.15 0 0 0-7.43 10.94 20.328 20.328 0 0 0 3.79 14 23.995 23.995 0 0 0 10.37 8.83 12.06 12.06 0 0 0 12.62-1.68 11.362 11.362 0 0 0 5.47-9.25 19.22 19.22 0 0 0-1.4-7.71l-2.52-6.17a67.404 67.404 0 0 1-2.66-8.55 5.889 5.889 0 0 1 2.66-5.33 7.145 7.145 0 0 1 6-1 11.224 11.224 0 0 1 6.59 5 12.755 12.755 0 0 1 2.38 10.23 15.697 15.697 0 0 1-3.79 5l3.36 5a13.99 13.99 0 0 0 6.73-10.94c.03-4.448-1.4-8.783-4.07-12.34a16.408 16.408 0 0 0-10.23-7.85 13.992 13.992 0 0 0-11.27 2.47 10.803 10.803 0 0 0-4.91 8.83 24.256 24.256 0 0 0 2.38 9l2.1 6a22.567 22.567 0 0 1 2.1 7.85 6.456 6.456 0 0 1-3.5 5.19 7.292 7.292 0 0 1-9 0 24.102 24.102 0 0 1-4.59-5.23l-.07.01Zm17.38 39.11 43.46-20.19-2.66-5.89-43.6 20 2.8 6.08Zm10.2 27.61 1.68 6.31 40.66-11.36 4.35 15.56 5.75-1.54-10.65-37.57-5.47 1.54 4.35 15.7L732 447.37Zm8.55 45.56.28 6.59 19.49-1.4 29.86 16.26-.42-7.71-24.25-12.2 22.29-15.28-.56-7.71-27.34 20.19-19.35 1.26ZM290.63 630.75l-10-21.45 13.37-6.17 11.36 24.39 5.19-2.38-14-30.42-43.35 20.18 2.52 6 19.77-9.11 10 21.31 5.14-2.35Zm40 20.89a20.608 20.608 0 0 0-18.23-9.11 29.165 29.165 0 0 0-16.12 6.31 30.003 30.003 0 0 0-10.8 15.28 24.412 24.412 0 0 0 23 27.76 28.74 28.74 0 0 0 17.52-6.6 26.362 26.362 0 0 0 10-14 21.728 21.728 0 0 0-5.41-19.65l.04.01Zm-1 16.54a21.173 21.173 0 0 1-8.13 11.92 28.001 28.001 0 0 1-14 5.61 13.998 13.998 0 0 1-12.48-6 14.851 14.851 0 0 1-3.563-6.547 14.852 14.852 0 0 1 .063-7.453 20.745 20.745 0 0 1 8.13-11.5 21.87 21.87 0 0 1 14.86-5.47 15.414 15.414 0 0 1 11.36 6.45 14.863 14.863 0 0 1 3.74 12.99h.02Zm48.93 31.68L359.89 723a20.005 20.005 0 0 1-6.45 5.47 11.499 11.499 0 0 1-12.34-2.66 10.652 10.652 0 0 1-4.49-10.37 18.926 18.926 0 0 1 3.93-8.13l18.65-23.13-5.19-3.95-17.52 20.47a34.916 34.916 0 0 0-6.59 12.06 20.283 20.283 0 0 0 16.149 21.368c3.2.656 6.511.53 9.651-.368a32.005 32.005 0 0 0 10.65-9.25L383 703.37l-4.44-3.51ZM408 760.57l-4.91-45.28-7-3.36-20.61 43.46 5.72 2.61 16.54-35 5.33 45.56 6.59 2.94 20.61-43.5-5.75-2.52L408 760.57Zm56.22-23.27-18.65-3.93-10.09 47 18.79 4.49a17.237 17.237 0 0 0 19.07-7.15 30.999 30.999 0 0 0 5.61-12.9 26.075 26.075 0 0 0-1.26-16.82 17.807 17.807 0 0 0-13.5-10.7l.03.01Zm8 26.64a17.09 17.09 0 0 1-1.54 4.77 15.84 15.84 0 0 1-4.21 6.73 11.08 11.08 0 0 1-6.87 3.65c-1.809.32-3.661.32-5.47 0l-11.13-2.4 7.71-35.89 11.92 2a12.905 12.905 0 0 1 9.67 7.29 22.847 22.847 0 0 1-.12 13.84l.04.01Zm33.65 20.89-.14-16.26 26.36-.42-.28-5.61-26.22.42-.28-14.58 28.6-.28v-5.9l-34.77.28.42 48.09 35.33-.56v-5.47l-29.02.29ZM583.64 739a17.66 17.66 0 0 0-16.4-3.22l-18.65 4.49 12.2 46.83 18.51-4.63a17.379 17.379 0 0 0 14-14 34.778 34.778 0 0 0 0-14 26.22 26.22 0 0 0-9.66-15.47Zm2.1 30.14a11.217 11.217 0 0 1-4.63 6.31 21.307 21.307 0 0 1-4.91 1.82l-11.08 2.8-8.69-35.89 10.94-2.66a12.342 12.342 0 0 1 11.92 2.1 24.533 24.533 0 0 1 6.71 12.6c.369 1.65.65 3.32.84 5a22.152 22.152 0 0 1-1.1 7.9v.02Zm53.41-63.23a11.223 11.223 0 0 1 0 7.85 24.803 24.803 0 0 1-6.45 6.73l2.52 3.65 9.11-6 18.23 28 5.33-3.5-25.38-39-3.36 2.27Zm60.56-18.37a13.004 13.004 0 0 0-5.47.84 12.629 12.629 0 0 0 0-4.77 9.525 9.525 0 0 0-3.36-6.59 10.367 10.367 0 0 0-8.55-3.36 17.525 17.525 0 0 0-15.14 14.86 12.197 12.197 0 0 0 3.65 9.11 9.383 9.383 0 0 0 6.59 3.08 8.833 8.833 0 0 0 4.35-.84 12.756 12.756 0 0 0-1.12 7.43 11.78 11.78 0 0 0 3.5 6.59 12.758 12.758 0 0 0 10.94 4.49A18.37 18.37 0 0 0 706 713a16.124 16.124 0 0 0 5.47-11.22 15.561 15.561 0 0 0-4.21-10.51 12.205 12.205 0 0 0-7.54-3.75l-.01.02Zm-18.37 7.85a6.167 6.167 0 0 1-5.47-2 7.29 7.29 0 0 1-2.24-5 10.091 10.091 0 0 1 8.83-8.69 7.01 7.01 0 0 1 5 2 7.294 7.294 0 0 1 2.1 5.33 8.553 8.553 0 0 1-2.94 5.75 10.662 10.662 0 0 1-5.26 2.6l-.02.01Zm21.73 14a9.667 9.667 0 0 1-7.29 3.36 8.275 8.275 0 0 1-6-2.94 8.002 8.002 0 0 1-2.8-6.73 10.51 10.51 0 0 1 3.22-6.45 10.798 10.798 0 0 1 6.87-3.22 8.679 8.679 0 0 1 3.767.694 8.678 8.678 0 0 1 3.103 2.246 7.715 7.715 0 0 1 2.38 6.73 9.809 9.809 0 0 1-3.22 6l-.03.31ZM729 644.62a32.661 32.661 0 0 0-11.5-5.47 15.753 15.753 0 0 0-14.088 4.389 15.764 15.764 0 0 0-4.282 14.121 17.242 17.242 0 0 0 6.87 9.54 15.56 15.56 0 0 0 11.22 2.94 14.995 14.995 0 0 0 12.06-12.2 9.672 9.672 0 0 0 0-6.45 28 28 0 0 1 9.25 11.64 8.123 8.123 0 0 1-1.26 7.85 7.409 7.409 0 0 1-1.959 2.139 7.419 7.419 0 0 1-5.526 1.353 7.42 7.42 0 0 1-3.315-1.392l-3.36 4.77a11.64 11.64 0 0 0 9.39 2.24 14.009 14.009 0 0 0 9-6.45 14.86 14.86 0 0 0-.84-18.23A38.266 38.266 0 0 0 729 644.62Zm-5.89 15.56a8.005 8.005 0 0 1-6.17 4.21 10.508 10.508 0 0 1-7.43-2.24 11.36 11.36 0 0 1-4.91-6.45 8.409 8.409 0 0 1 1.68-7.29 8.995 8.995 0 0 1 5.75-3.93 10.813 10.813 0 0 1 8 2.24 9.66 9.66 0 0 1 4.77 6.87 9.39 9.39 0 0 1-1.82 6.31l.13.28Zm25.52-47.67a65.996 65.996 0 0 1-8.13-10.8 42.082 42.082 0 0 1-4.49-8.55l-4.77-2.1-13.18 29.86 5.47 2.38 10.51-23.69a102.862 102.862 0 0 0 8.41 14 82.445 82.445 0 0 0 20.47 19.77l2.52-5.89c-3.93-2.94-6.73-5-8.41-6.59a78.93 78.93 0 0 1-8.38-8.38l-.02-.01ZM722.43 484c0-4.77-1.26-9.81-2.24-14.72a144.196 144.196 0 0 0-5.19-19.67c-34.49-112-153.27-174.91-265.31-140.42a212.26 212.26 0 0 0-149.81 202.67v9.81c4 117.16 102.26 208.87 219.42 204.84 115.3-4 206.32-99.29 205-214.66v-19.34c-.04-1.82-1.45-5.32-1.87-8.51Zm-5.47 9a2.936 2.936 0 0 1 1.861 2.735 2.94 2.94 0 0 1-1.861 2.735c-1.26 1.12-4.35 0-4.35-2.66s2.39-3.58 4.39-2.88l-.04.07Zm-3.22-12.2c5.61 8.27-7.85 2.24-9.25-1-1.4-3.24 5.75-3.41 9.25.94v.06Zm-1.12 26.08c1.12 2.52-4.07 3.93-5.89 0-1.82-3.93 2.66-7.36 5.89-.07v.07Zm-8.41-9.25a4.352 4.352 0 0 1-6.463-1.61 4.351 4.351 0 0 1-.407-2.46c.84-3.22 3.93-7.57 6.87-4.91s3.5 6.53 0 8.91v.07Zm5.19-26.08c-3.93 0-6.59-2.1-7.71-7.57-1.12-5.47 4.49-4.77 7.71-1.12 3.22 3.65 4.06 8.34-.01 8.62l.01.07Zm-9.67-46.83c3.22 1.12 2 4.35 0 5.47a3.084 3.084 0 0 1-2.981-.088 3.076 3.076 0 0 1-1.509-2.572c.56-2.59 1.96-3.71 4.48-2.87l.01.06Zm0 18.79c1-4.63 2.24-6.45 4.91-2.1s5.75 5.33 2.94 10a6.993 6.993 0 0 1-4.416 3.045 6.999 6.999 0 0 1-5.814-1.365c-4.21-2.1 1.4-4.63 2.24-9.53l.14-.05Zm-5.47 15.28a12.332 12.332 0 0 1 0 7.71c-.419 2.69.18 5.439 1.68 7.71 1.82 3.22-1.12 4.49-2.52 2.94a11.505 11.505 0 0 0-3.93-2.66 4.766 4.766 0 0 1-.84-5.47 9.39 9.39 0 0 0-1.68-6.59 4.627 4.627 0 0 1 2.66-5.75 3.498 3.498 0 0 1 4.49 2.1l.14.01Zm0 28.88c-.84 2.52-2.52 3.36-5.61 2.38-3.09-.98-5.33-7.43-1.68-8.41 3.65-.98 8.41 3.5 7.57 6l-.28.03Zm-3.08-47.39c-1.68 4.21-6.73 2-9.39 1.68-2.66-.32-3.36-4.07-1.68-6.87a5.47 5.47 0 0 1 6.59-3.08 5.895 5.895 0 0 1 5.279 5.56 5.9 5.9 0 0 1-.509 2.71h-.29Zm-18.23 33.65c-4.77 2-5.75-.7-5.61-8.41.14-7.71 8-5.33 10-1.26s.09 7.74-4.4 9.61l.01.06Zm2.8 10c-1.82.84-6.73 2.1-6.45-1.4a4.782 4.782 0 0 1 2.156-3.743 4.772 4.772 0 0 1 4.294-.467c4.49 2 1.68 4.77-.28 5.61h.28Zm-106.41 1.12a29.291 29.291 0 0 1-11.36-3.5 18.088 18.088 0 0 1-5.47-14v-14a6.164 6.164 0 0 1 5.19-3.79 4.482 4.482 0 0 1 3.86.643 4.48 4.48 0 0 1 1.89 3.427 12.19 12.19 0 0 0 1.68 4.63 8.27 8.27 0 0 0-2.38 9.39c1.12 2.38 4.07 2.24 6.45-1.68a9.813 9.813 0 0 0 1.26-4.91c5.75-1 7-2.66 9.53 1.82 2.53 4.48 4.77 5 8.55 4.35a12.484 12.484 0 0 1 3.22 0 25.513 25.513 0 0 0-2.1 3.79c-2.94 7.71-4.21 8.41-7.57 10.94a27.995 27.995 0 0 1-13 2.94l.25-.05Zm12.34 8.41c.7 1.82-2.66 2-3.93 2.8-1.27.8-2 2.52-5.19 2.24-3.19-.28-2.94-4.35-2.52-5.75.42-1.4 2.24-2.24 4.77-2.24 0 0 5.75 1.12 6.59 2.94l.28.01Zm-91-11.78a3.794 3.794 0 0 1 0 4.77c-1 .84-2.38 2.8-1.82 3.93a3.362 3.362 0 0 1 0 3.79 2.937 2.937 0 0 0 1.14 4l.12.06c1.54.84 2.24 5.61 0 6.45-2.24.84-3.65 4.07-2.24 5.33a3.36 3.36 0 0 1 0 4.63c-1.4 1-1.12 2.24 0 4.21 1.12 1.97 1 7-2.24 6.31-3.24-.69-2.1-4.35-4.63-6.31s-5-1.54-6.59-4.07a6.31 6.31 0 0 1 .84-8.83c3.5-2.66 6-1.26 6.17-5 .17-3.74-2.24-5.47-4.35-4.35-2.11 1.12-6.31-3.65-9.25 0a6.45 6.45 0 0 1-11.22-3.36c-2.52-8.69 4.91-13.32 7.29-11.5 0 0 3.08 2.66 5.61 1.82a6.589 6.589 0 0 1 7 1 4.487 4.487 0 0 0 6.649-.856 4.485 4.485 0 0 0 .781-2.364c0-3.36 2.1-4.77 1.68-8.55-.42-3.78 2.66-5 4.63-4.21a5.472 5.472 0 0 1 1.68 7.43c-1.24 2.34-2.78 4.31-1.24 5.57l-.01.1Zm-51.17 1.68c1.68-4.21 5.19-4.91 7-3.79 1.81 1.12 1.4 2.94 0 5.75s0 7.15-3.22 7.71c-3.22.56-5.75-5.33-4.07-9.67h.29Zm0-17.66c1.26-1.26 2.8 0 4.21 1.26 1.41 1.26 0 5.19-2 3.79-2-1.4-4.63-3.65-3.08-5l.87-.05Zm5.75-5.61a38.99 38.99 0 0 0-11.92.84 3.656 3.656 0 0 0-1 5.75 12.615 12.615 0 0 1 2.52 5.19c-1.68 0-5.47-2.24-6.87-2.8l-5.47-2.38v-2.1c0-4.07-1.26-10.51 1.68-14s7.29-4.77 8.83-2.52c1.54 2.25 0 .7 0 1.26h-1c-4.21 2.38-6.45 8.27-2.66 9a8.825 8.825 0 0 0 8.13-4.07 9.25 9.25 0 0 0 5.89 1.68 14.008 14.008 0 0 0 12.2-5.75c2.1-2.24 6.17-3.08 8 0l.7.7a13.997 13.997 0 0 1 1 4.63c0 2.66 0 4.35 2.24 5.33a6.591 6.591 0 0 0 7-.84s3.36-2.94 4.35 0a52.052 52.052 0 0 1 0 6.17 12.89 12.89 0 0 0 0 2.24c-.84 4.35-1.82 6.31-6 6.87a60.55 60.55 0 0 1-16.54-4.21 11.079 11.079 0 0 1-6.17-4.35c-1.54-2.8-3.5-6.17-5.75-6.59l.84-.05Zm-14 26.22c-1.68 0-6.45-.84-6.59-3.08-.14-2.24 1.81-3.23 5.33-2.23 6.31 1.68 3.65 5.19.56 5.19l.7.12Zm-52.71-15.42c-2.1 2.1-2.24 4.49-3.36 6.17a2.66 2.66 0 0 1-4.07 0c0-1-1.12-1.26-3.65-1.4-2.53-.14-3.08 0-3.93-1.82a4.073 4.073 0 0 1 0-4.63c1-1.4 3.36-1.54 5.33-1.4a10.941 10.941 0 0 0 5.89-2.24c2-1.12 4.07-1.68 5.33 0 1.26 1.68.41 3.25-1.56 5.21l.02.11Zm0 19.63a5.188 5.188 0 0 1-7.15 0c-2.1-2.24.7-6.17 3.22-7 2.52-.83 3.93-.7 5.19 1 1.26 1.7.55 4.21-1.28 5.89l.02.11Zm-36.45-38.55c0 1 0 2.24-1.68 2.66a4.63 4.63 0 0 0-2.66 2.1 3.08 3.08 0 0 1-3.22 1.54c-1.12 0-1.12-1.12-2.38-2.66a4.068 4.068 0 0 1 0-4.91c.84-1.68 2.24-1.54 3.79-1.54a9.11 9.11 0 0 1 6.13 2.7l.02.11Zm0-10.23a2.522 2.522 0 0 1 .224 3.051 2.518 2.518 0 0 1-2.884 1.019c-3.08 0-3.08-3.08-3.65-4.77-.57-1.69 2.1-4.07 6.59.7h-.28Zm-5.61 23.55c2.1 0 3.36-1 5.61-2.94 2.25-1.94 3.65 0 2.66 1.4a17.56 17.56 0 0 0-1 3.65 4.484 4.484 0 0 1-4.35 2c-2 0-3.36.84-5.19 2.24a3.789 3.789 0 0 1-5.19-1 2.81 2.81 0 0 1-.167-2.14 2.787 2.787 0 0 1 1.397-1.63 10.647 10.647 0 0 1 6.22-1.7l.01.12Zm2.8 14a5.004 5.004 0 0 1-4.91 3.36c-2 0-3.22-1.54-2-3.79a4.349 4.349 0 0 1 4.77-2.1 2.41 2.41 0 0 1 1.54 2.94l.6-.41Zm-9 23a6.59 6.59 0 0 1 3.93-2.52h3.65a3.648 3.648 0 0 1-.7 4.63 7.29 7.29 0 0 1-5.75 1.4c-2.52.7-2.52-1.26-1.68-3.08l.55-.43Zm6.17-8.83c-1.54 0-4.35 0-4.77-1.54a2.662 2.662 0 0 1 1.12-3.5c1.4-1 3.65-.84 5-1.54a17.65 17.65 0 0 0 3.36-2.66 5.327 5.327 0 0 1 4.35-1.26c1 0 1.82 1.26 1.54 3.22a10.941 10.941 0 0 1-3.36 4.77 15.14 15.14 0 0 1-7.29 2.94l.05-.43Zm8 3.79c0-.84 1.54-2 4.21-1.68 2.67.32 3.36 0 3.79-1a1.545 1.545 0 0 1 2.371.156c.177.247.278.54.289.844 0 2.1-2.24 3.79-4.07 4.63-1.83.84-4.07 2.38-6 1.12a2.668 2.668 0 0 1-1.321-1.556 2.664 2.664 0 0 1 .171-2.034v-.06l.56-.42Zm7.54-18.9c-3.36 1.12-4.77-.84-6.45-2.38a2.797 2.797 0 0 1-.299-3.638c.261-.359.603-.651.999-.852 1.4-1 2.1-2.52 3.36-3.5a5.467 5.467 0 0 1 5.47-1.12c1.68 0 1.82 3.08 2.1 5.89.28 2.81-2.38 5-5.75 6l.57-.4Zm-3.08-28c0-2.24 1.26-3.08 3.08-2.94a29.736 29.736 0 0 1 7.85 2.8c2.1 1.54 1.68 3.65 0 6.45-1.68 2.8-4.07 1.54-7 1.82-2.93.28-2.66-2.1-2.52-4.07.14-1.97-1.26-1.54-2-3.65l.59-.41Zm11.36-9.81c-1 2.38-3.93 1-5.47.84-1.54-.16-2-2.24-1-3.93a3.361 3.361 0 0 1 3.93-1.82 3.494 3.494 0 0 1 2.37 2.151 3.497 3.497 0 0 1-.37 3.179l.54-.42Zm-4.21-29.58a3.929 3.929 0 0 1-5.212-3.715 3.925 3.925 0 0 1 3.368-3.89 3.94 3.94 0 0 1 1.844.175c4.07 2.8 2.66 6.59-.56 7.85l.56-.42Zm-3.79 12.9c0 1.4 1 1.68 0 3.65s-2.38.84-4.63 0a6.87 6.87 0 0 1-2.8-7.43c1-2.66 2.52-1.68 4.35-1.26 1.83.42 2.52 3.79 2.52 5.47l.56-.43Zm3.5 61.41a7.709 7.709 0 0 1 5.47-5.61c2.8 0 3.93 1.12 4.07 2.52a9.255 9.255 0 0 1-5.19 7.57c-3.93 1.54-6-1-4.91-4.07l.56-.41Zm10.37-50.89c0-1.54 1.54-3.93 4.35 0a54.955 54.955 0 0 0 6.31 8.27 4.206 4.206 0 0 1 .122 5.855 4.215 4.215 0 0 1-1.802 1.145c-2.66 0-5.33 0-6.73-2.52-1.4-2.52-1.26-2.66-2-3.79a3.504 3.504 0 0 1-.84-3.79 7.852 7.852 0 0 0 .64-5.22l-.05.05Zm12.34-14a59.695 59.695 0 0 1 6.17 2.38c2.66 1.4 1.68 3.93-.84 6.59-2.52 2.66-2 4.91-3.93 5.89-1.93.98-3.08-2.24-2.8-3.93a10 10 0 0 0-1.54-6.45c-1.22-3.15 1.16-4.55 2.98-4.55l-.04.07Zm-12.62 37.85a32.318 32.318 0 0 0 5.89-2.38c2-.7 3.22 0 3.65 1.26.43 1.26-1.12 2.38-3.08 2.38s-2.52 1.12-3.36 2.24c-.84 1.12-4.49.7-4.49.7s-1.54-3.93 1.4-4.35l-.01.15Zm16.31-4.23c2.8-1.54 4.07-3.36 4.21-4.77.14-1.41 1-4.07 3.65-2.8 2.65 1.27 0 7.85 0 7.85s0 5-2.52 5.19a8.83 8.83 0 0 1-5.89-1.12c-2-1.12-2.24-2.94.56-4.49l-.01.14Zm14.72-14.72c-2 1.82-5.33 0-5.33 0-2.52 0-3.79-1.68-3.65-2.94.14-1.26 0-2.24 2.52-3.08 2.52-.84 3.08-2.1 4.07 0 .99 2.1 4.07 4.35 2.38 5.89l.01.13Zm3.22 9.81c2 1.26 1 6.31-2 6.45-3 .14-2.66-3.22-1.82-5.33a2.521 2.521 0 0 1 3.79-1.82l.03.7Zm-13.32 24.25a7.433 7.433 0 0 1 6 0c1.82.84 2.8 1.4 2.52 2.52-.28 1.12-3.65 1.12-4.91 2-1.26.88-1.54 1.54-3.08 1.68-1.54.14-2.8 0-2.38-1.82.42-1.82.28-3.65 1.82-4.49l.03.11Zm5.75-10.94c.84-1.12 2.24-1.26 4.21-1.26 1.97 0 6.17 2.1 6.31 3.79.14 1.69-.84 2.24-6.31 2.24s-5.76-3.96-4.21-4.8v.03ZM401 428a3.932 3.932 0 0 1 4.77-1.68s5.19.7 6 2.38c.81 1.68-2.38 1.82-3.5 2.38-1.12.56-1.68 2.38-4.77 2.1-3.09-.28-3.08-4.21-2.94-5.47l.44.29Zm1.54-33.93c1-2.8 2.38-2.24 4.35-1.12 1.97 1.12 2.1 7.57 1.68 10.23a3.927 3.927 0 0 1-2.704 2.948 3.942 3.942 0 0 1-2.073.058 3.94 3.94 0 0 1-1.813-1.006c-3.36-2.38-1-8.69.14-11.36l.42.25Zm4.07 57.48c2.24-1.12 4.63-1 4.77.7a5.76 5.76 0 0 1 0 2.52c0 2.24 0 4.21-2.66 5.19-2.66.98-3.93 1-4.63 0-.7-1 0-2.38 0-3.93a3.934 3.934 0 0 1 2.48-4.45l.04-.03Zm.7 17.8a8.125 8.125 0 0 0 4.49-5.47c0-1.68 2.66-2.8 3.36-.84a10.366 10.366 0 0 1 0 7.15 5.887 5.887 0 0 1-5.61 3.65c-2.52 0-4.21.7-5.19 0-.98-.7.42-3.22 3.22-4.49h-.27ZM412 443a4.907 4.907 0 0 1-5.33-2.1 4.213 4.213 0 0 1 .84-4.07 2.656 2.656 0 0 1 2.473-1.622c.35.003.695.075 1.017.212l.29.15s3.5 1.4 5.19 1.82c1.69.42 1.4 2.24 0 2.66-1.4.42-2.24 2.1-4.21 2.94l-.27.01Zm-2.1-23.55c0-4.49 2.66-7.57 6.45-6.87 6.17 1.26 5.47 5.19 2.52 8-2.95 2.81-9 3.5-8.69-1.12l-.28-.01Zm8.41-32c2.8.84 2.8 4.77 0 8.13-2.8 3.36-4.63 0-4.21-4.35.42-4.35 2.1-4.49 4.49-3.79l-.28.01Zm2.28-16.45c3.22-4.21 10.09 1.54 12.62 5 2.53 3.46 0 6-8.69 6.31-8.69.31-7.85-7.14-3.93-11.31Zm7.85 27.2c4.21 0 2.52 4.63 1.82 8.69-3.08 14-6.87 1.26-6.87 1.26-6.73-5.47 0-10.37 4.35-10l.7.05Zm-3.79 39.68c1-2.24 2.52-2.1 4.21-1.54s3.5 4.21 0 5.89c-3.5 1.68-5.89-2.24-4.91-4.35h.7Zm25.52-49.07a5.326 5.326 0 0 1-8.27 2c-3.08-2.38 0-6.17.84-8.41s4.07-1.82 6.17 0a4.63 4.63 0 0 1 .56 6.45l.7-.04Zm0 38.69c0 4.77-4.07 4.91-6.73 2.94-2.66-1.97-1.12-9.81-.84-13.18.28-3.37 2.8-3.36 5-1.26 2.2 2.1 2.8 6.87 2.38 11.5h.19Zm-5-28.88a3.646 3.646 0 0 1 2.846 4.309 3.635 3.635 0 0 1-.846 1.691c-1.68 2-4.35 2.8-6.17 0-1.82-2.8.84-6.87 4.07-6h.1Zm-1 43.18c2.94-1.4 5.75 1.54 5.75 4.49s-2.24 4.21-4.63 5a4.63 4.63 0 0 1-5.8-3 5.295 5.295 0 0 1-.09-.33c-.7-2.94 1.54-4.77 4.63-6.17l.14.01Zm14-38.83c-3.93.7-4.21-6.73-2.66-11.22 1.55-4.49 5.33-5 7.43-1a8.136 8.136 0 0 1 .802 7.221 8.127 8.127 0 0 1-5.292 4.979l-.28.02ZM457 430a4.631 4.631 0 0 1 .61-6.51l.09-.07c1.82 0 3.08 0 3.65 2.38.57 2.38-2 5.89-4.07 4.21L457 430Zm43.32-37.71c4.77 7.15-3.36 10.8-7.57 10.51-4.21-.29 0-6.17.7-10.09s4.55-4.22 6.91-.44l-.04.02Zm-3.93-20c3.08-2.52 5.47 2.24 6.87 5.89 1.4 3.65 1.26 4.77-3.79 5-5.05.23-4.35-1.26-4.63-4.21-.28-2.95-1.4-4.07 1.54-6.59l.01-.09Zm-4.35 34.07a3.217 3.217 0 0 1 2.471 2.593c.073.417.062.844-.031 1.257l-.06.21c-.84 1.82-2.8 2-5 1.82a2.794 2.794 0 0 1-2.107-1.771 2.805 2.805 0 0 1 .427-2.719c1.13-1.46 2.95-1.46 4.35-1.46l-.05.07Zm-12.62-17.52c-5.75.7 0-9.67 2.52-12.76s4.63-1.68 5.75 2.8c2.94 8.83-2.38 9.53-8.27 10.37v-.41Zm5.75 14c-1.68 3.5-5.33 3.22-9.39-1.68-4.06-4.9 5.75-7.85 9-6.73 3.25 1.12 2.41 4.15.44 8.36l-.05.05Zm-2.52 20.89a3.653 3.653 0 0 1-3.723-.532 3.653 3.653 0 0 1-1.277-3.538c0-2.66 1.82-4.91 5-3.65 3.18 1.26 3.41 6.41.05 7.67l-.05.05Zm-9.11 14c4.35 1.4 2.66 5.61.84 7.15a4.075 4.075 0 0 1-3.846-.1 4.074 4.074 0 0 1-2.044-3.26c0-4.07 1.82-5.61 5-4.49l.05.7Zm-3.93-18.23c1.68 0 2.94 0 3.65 2.24s-2.38 6.17-4.49 4.49a4.633 4.633 0 0 1-.733-5.955 4.628 4.628 0 0 1 1.573-1.475v.7Zm3.79-8a2.52 2.52 0 0 1-3.36-2.66c0-1.68 1.26-2.24 3.36-2.24 2.1 0 3.65 2 3.22 3.08-.43 1.08-1.4.7-3.22 1.12v.7Zm0-42.9c-7.43-1.54-6.45-4.35-4.21-8.41 2.24-4.06 6.17-5.89 9-3.36 7.71 6 2.24 12.62-4.91 11.08l.12.69Zm-2.66 5c2.1 0 3.65 1.4 4.49 4.07a4.77 4.77 0 0 1-3.08 5.89 5.472 5.472 0 0 1-6.45-2.24 5.609 5.609 0 0 1 1.26-6.17 6.876 6.876 0 0 1 3.65-2.24l.13.69Zm19.91 87.9c-1.82 1.54-3.08-.84-3.22-2.24-.14-1.4.84-3.65 2.38-3.22 1.54.43 2.84 3.96.88 5.49l-.04-.03Zm0-20.89c-.7-2.24 0-6.17 2.38-4.49a5.89 5.89 0 0 1 1.57 8.18l-.17.23c-1.22 1.02-2.76-1.79-3.74-3.89l-.04-.03Zm3.5-11.22c-5.19 1-5.19-3.08-4.21-6.31.98-3.23 2.38-4.77 4.91-3.79a44.673 44.673 0 0 1 4.21 2.38c3.08 1.54.7 6.73-4.49 7.71l-.42.01Zm7.71-21.73a3.93 3.93 0 0 1 7 0c2.66 5.47-3.08 9.67-7.71 9-4.63-.67-.84-5.47 1.12-9h-.41Zm37.85-23.55a8.692 8.692 0 0 1-2.8 9.39c-1.68 1.4-2.66-1.68-3.5-4.91a4.069 4.069 0 0 0-5.75-3.22c-4.91 1.82-6-5.33-5.47-10 .53-4.67 2.38-6.87 5.47-6 3.09.87 3.22 6.73 3.93 8.55.71 1.82 3.22 1.12 3.22 1.12s4.35-.84 5.33 5l-.43.07Zm119.17 22.15c2 2.52 2.38 4.49.84 6.59-1.54 2.1-4.91 1.68-7.43.7a6.452 6.452 0 0 1-2.66-8.55c2.42-3.47 7.75-1.37 9.29 1.29l-.04-.03Zm-5.19-18.23c1.4-1.26 3.5-1.26 4.07 1.12.57 2.38 0 3.5-2.1 5a2.005 2.005 0 0 1-3.22 0 4.77 4.77 0 0 1 1.54-6.45l-.29.33Zm-1.26 44.86c1.82-1.82 3.5-2.38 4.63 0s0 8.13-3.93 6.73c-3.93-1.4-2-5.33-.42-7l-.28.27Zm-2.38-6.59c-5.47 3.79-7.71 0-7.85-5.33-.14-5.33 2.38-5.19 5.89-4.21 3.51.98 7.57 5.47 2.24 9.25l-.28.29Zm-3.79-32.24c-1.54 5.33-4.35 1.82-8.13 0-3.78-1.82-2.24-4.91 0-8.55 2.24-3.64 6.73-5.61 10.37-1.4 3.64 4.21-.56 4.49-2 9.67l-.24.28ZM635 380.78c-2.24.84-5.47-1.26-4.63-3.5.84-2.24 2.24-2.38 4.63-.84a2.374 2.374 0 0 1 1.291 1.956 2.381 2.381 0 0 1-1.011 2.114l-.28.27Zm0 19.91c3.65 0 4.49 1.54 5.47 4.77a3.086 3.086 0 0 1-.406 2.591 3.071 3.071 0 0 1-2.254 1.339 6.448 6.448 0 0 1-7.15-4.21c-.7-2.66.28-5.33 4.21-4.77l.13.28Zm-11.22 32.39c-2.52-2.52 0-6.31 2.24-5.33a10.22 10.22 0 0 1 7.235 5.759 10.225 10.225 0 0 1-.365 9.241c-3.08 6.59-7 5.19-6.31 1.26a12.613 12.613 0 0 0-2.94-11.22l.14.29Zm-2.66 28c.7-1.12 3.36-1.68 4.07 0 .71 1.68-1.4 4.49-3.79 4.07-2.39-.42-1.4-3.65-.42-4.77l.14.7Zm-1.68-5c-2-1.12 0-3.08 1-3.79s3.79 0 3.93 1.12c.14 1.12-2.8 3.22-5 2l.07.67Zm11.5-40.38c0 4.07-2.8 6-9.39 3.93-6.59-2.07.7-10.37 4.07-11.22 3.37-.85 5.27 2.51 5.27 7.28l.05.01Zm-11.08 21.87a7.564 7.564 0 0 1 .856 7.586 7.567 7.567 0 0 1-6.186 4.474c-5.89 1.26-6.31-3.5-4.07-5 2.24-1.5 1.82-2.38 4.07-6.31 2.25-3.93 4.3-2.59 5.28-.76l.05.01Zm-8.55-17.24c0 2.94-2.52 4.07-6.73 1.68a8.549 8.549 0 0 1-5-9.39 4.997 4.997 0 0 1 4.307-4.258 4.985 4.985 0 0 1 2.143.188c6.91 2.65 5.37 9.52 5.23 11.76l.05.02ZM599.2 401a35.586 35.586 0 0 1-5.75 2.52 29.82 29.82 0 0 0-3.65 3.65 6.173 6.173 0 0 1-4.91 2c-1.26 0-2.38-1.4-2.24-3.5a11.64 11.64 0 0 1 3.36-6.17 14.724 14.724 0 0 1 8.27-3.93c2 0 5 0 5.89 1.12a2.943 2.943 0 0 1 .148 3.931 2.943 2.943 0 0 1-1.148.839l.03-.46Zm-14-23c2.38-2.1 4.21 0 5 2.66a8.126 8.126 0 0 1 .559 5.606 8.125 8.125 0 0 1-3.219 4.624c-5.75 3.36-4.07-2.1-4.07-2.1 2.1-4.77-.84-8.41 1.82-10.51l-.09-.28Zm-2-7.57c-4.21-3.08 0-6.45 2.66-8.13a5.187 5.187 0 0 1 7 1.12c6.73 6.45-5.33 10.51-9.53 7.43l-.13-.42Zm2.1-12.62c-6.87 0-6.17-2.8-2.94-9.11s6.87-2.94 9.53-.7c2.66 2.24.42 9.53-6.45 10.23l-.14-.42Zm-2.8 78.37c3.93 3.65-1.26 9.81-4.77 8.83-3.51-.98-2.94-5.75-1.12-8.41 1.82-2.66 3.5-2.24 6 0l-.11-.42Zm-21.73 5c-4.35-3.93 6.31-11.08 9.67-14 3.36-2.92 6.31 0 3.36 2.66-2.95 2.66-4.07 3.93-3.65 7.15 1.15 7.58-4.74 8.14-9.36 4.21l-.02-.02Zm-2.52-42.06c-3.08-3.5 0-5.89 3.65-7a7.703 7.703 0 0 1 7.85 1.68c2 1.68 2.1 4.63-1.26 7.15a6.989 6.989 0 0 1-5.205 1.298 7.006 7.006 0 0 1-4.595-2.768l-.15-.21-.29-.15Zm10.23 19.07c-3.36 1-5.19-4.07-4.07-7.15a6.589 6.589 0 0 1 5.89-4.21c3.93-.84 2.8 0 6.17 2.52s3.5 7.15 0 7.15a23.279 23.279 0 0 0-7.71 1.82l-.28-.13Zm8.69-30.28c-2.1 1.68-4.63-1.26-5.75-2.38-1.12-1.12 0-3.5 1.68-5.33a3.215 3.215 0 0 1 4.702-1.396c.523.34.936.825 1.188 1.396a6.586 6.586 0 0 1-1.54 7.85l-.28-.14Zm-9.67-36.73c-5-.7-3.93-7-2.38-10.37 1.55-3.37 3.65-3.93 7.71-2.38 4.06 1.55 4.63 2.8 4.21 7.29-.42 4.49-4.21 6.17-9.25 5.61l-.29-.15Zm1 8.69c4.63 0 8-2.66 6.31 5.75-1.69 8.41-4.49 6.45-8.55 3.79-4.06-2.66-7-5.19-5.47-8 1.53-2.81 4.07-1.12 8-1.4l-.29-.14Zm-6.17 12.9s3.36.84 3.65 5.89a8.69 8.69 0 0 1-5.47 9.11c-3.08 1.4-3.08-6.17-3.08-10s1.68-5 5.19-4.91l-.29-.09Zm-7.57-16c-2.8 0-5.19-1.12-2.94-5.75 2.25-4.63 5.33-4.77 6.31-2.66 4.63 9-3.08 8.55-3.08 8.55l-.29-.14Zm-2.52 14c0 3.22 0 6.17-4.35 5.33-4.35-.84-5.75-1.4-5.75-4.07 0-2.67 2.8-2.94 3.36-5.61.56-2.67 0-6.59 3.65-4.91 3.65 1.68 3.36 8 3.36 9.39l-.27-.13Zm-1.26 23c-2.52 2.38-5.47-3.08-4.77-7.71.7-4.63 2.94-5.61 4.77-3.93a9.109 9.109 0 0 1 .28 11.78l-.28-.14Zm-9.53-38a6.456 6.456 0 0 1-3.319-4.064 6.439 6.439 0 0 1 .799-5.186c2-1.54 3.93-1.26 6 1.26s.28 9.25-3.22 8.13l-.26-.14Zm-1.55 56.13c-2.8 1.54-3.36 4.35-7.15 5.47-3.79 1.12-1.68-7.29.84-11.36 2.52-4.07 5.47-2 6.87 0a3.932 3.932 0 0 1-.28 6l-.28-.11Zm-15.56-11.5c1.54-1.4 2.8-.7 3.36.7s0 1.26-1 5-4.07 5.89-7.57 5.33c-3.5-.56-2.1-5.19 0-6.45a15.136 15.136 0 0 0 5.47-4.49l-.26-.09Zm-14-1c-4.63 0-4.49-5.61-2.1-8.41s3.65-2.8 7.43-1.54a5.468 5.468 0 0 1 4.07 5.89c.84 3.5-3.79 4.35-8.55 4.21l-.85-.15Zm0-31.82a3.496 3.496 0 0 1 2.665-1.231 3.494 3.494 0 0 1 2.665 1.231 10 10 0 0 1 0 10.37c-2.38 3.22-5.89 2.52-6.87-1.12a8.265 8.265 0 0 1 1.82-9.11l-.28-.14Zm-1.4-6.73c-5.33 2.66-5.89-2.1-4.21-7.85 1.68-5.75 2.66-5 8.27-5.75 5.61-.75 5 1.26 5.75 5.75s-4.35 5.61-9.53 8l-.28-.15Zm-7 79.77c0-2 1.26-1.68 3.08-1.4s2 1.82 2.24 5c.24 3.18-2 5.61-3.65 5.47-1.65-.14-2.52-1.82-2-3.5.393-1.796.581-3.631.56-5.47l-.23-.1Zm3.5-17.66c-2-2.1 1.26-3.5 3.93-4.77 2.67-1.27 2.94-1 4.91.7 1.97 1.7 3.93 4.91 3.36 6.45-.57 1.54-2.66.84-6.45 2.24-3.79 1.4-3.5-2.38-5.47-4.49l-.28-.13Zm7.71 14.72c0-2.1 1.4-2.38 2.8-3.22a3.318 3.318 0 0 1 4.35 1.54 7.435 7.435 0 0 0 3.93 3.79c2.1.84 3.5 0 3.5 2.94s-4.21 3.22-6 3.5a11.216 11.216 0 0 1-6.87-2c-2.1-1.26-1.68-4.35-1.4-6.45l-.31-.1Zm10-9.25c-1.54-3.5 0-7.29 3.93-6.17s3.36 2.8 7 2.66c3.64-.14 4.21 2 3.22 3.5-.99 1.5-1.82 1-5.47 3.08a5.746 5.746 0 0 1-4.903.526 5.759 5.759 0 0 1-3.507-3.466l-.27-.13Zm12.06 16c2.66-3.5.84-8 4.49-9.39 3.65-1.39 6.87 1.12 7.85 4.91.98 3.79 2.1 5.75-4.35 9.81-6.45 4.06-10.37-1.4-7.71-5.19l-.28-.14Zm8.83-17.8a7.282 7.282 0 0 1-2.639-7.663 7.307 7.307 0 0 1 1.249-2.557l.12-.16c2.24-2.66 3.79-.7 4.77 1.4a48.579 48.579 0 0 0 1.82 7c1.4 3.79-1.12 5.19-5 2.1l-.32-.12Zm4.63-25.24c2.66-2.94 5.61 1.54 6.59 4.35a43.255 43.255 0 0 1 1.68 8.27c0 3.36-1.4 4.91-4.91 1.12-3.51-3.79-5.19-10.65-3.08-13.6l-.28-.14Zm3.08 30.42a15.141 15.141 0 0 0 2.94-5.47c0-2.24 2.66-3.65 3.79-2.1 2.66 3.93-1 8.13-3.93 10.09-2.93 1.96-4.21-1-2.52-2.38l-.28-.14Zm38.69 53a2.667 2.667 0 0 1 2.787 3.084 2.666 2.666 0 0 1-.687 1.406c-1.82 2.1-6.17 1.54-6.73-1.12-.56-2.66 1.54-3.65 4.91-3.22l-.28-.15Zm-4.91-26.64c-1.68-2.24-1.26-4.35 0-9s3.79-7.43 7.15-3.79c3.36 3.64 1.26 11.36 1.26 11.36a5.01 5.01 0 0 1-1.465 1.917 5.01 5.01 0 0 1-4.6.871 5 5 0 0 1-2.065-1.248l-.28-.11Zm2.1-29.16c0-4.77 2-7.15 5.19-6 7.85 2.66 6.73 7.71 2.66 11.78-4.07 4.07-7.85-.42-7.57-5.61l-.28-.17Zm12.62 5.19c1.4-2.8 3.08-2.38 4.07-1.54 7.71 7 0 10.8-4.49 9.81-4.49-.99-.84-5.47.7-8.13l-.28-.14Zm0 11.78c3.08.84 2.66 3.93.84 5.47-1.82 1.54-3.08-.84-3.36-2.1-.28-1.26 1.54-3.65 3.22-3.22l-.7-.15Zm-1.4 40.24a74.754 74.754 0 0 1 6.45-15.7c.264-.353.499-.728.7-1.12h5c5.75-1.26 7.43-2.52 9.39 1.68a11.22 11.22 0 0 0 13 6.87l-2.94 1.12a80.962 80.962 0 0 1-16 5.33 33.233 33.233 0 0 1-14 2.24h-2l.4-.42Zm29.86-18.65a5.615 5.615 0 0 1 3.977-3.355 5.604 5.604 0 0 1 5.023 1.355 5.467 5.467 0 0 1 0 4.91c-.84 2.8-9.53 1-8.27-2.8l-.73-.11Zm8-14a3.647 3.647 0 0 1-4.998-1.955 3.647 3.647 0 0 1-.192-1.975c0-2.66 2-4.91 5.19-3.79 3.19 1.12 4.07 7 .7 8.27l-.7-.55Zm1.54-16c-2.38-2.52 0-7.29 4.21-3.65 9.25 8.41 4.21 14 1.4 12.76-2.81-1.24-2.52-6-4.91-8.55l-.7-.56Zm8.41 15.84c3.79-2.1 3.79-5.33 7-4.49 3.21.84 3.65 2.38 5.33 5 1.68 2.62 0 4.63-4.77 4.49-4.77-.14-8.41 1.68-10.65 0s0-2.38 3.79-4.49l-.7-.51Zm11.36 11.92c4.77 1.26 5.33 6.31 0 6-5.33-.31-10.65 0-9.81-2.52.84-2.52 5.47-4.35 10.8-2.94l-.99-.54Zm-2.66 11.22s4.91-1.12 6.31 1.82c1.4 2.94-1.54 4.91-6.17 4.07-4.63-.84-1.54-4.77.56-5.33l-.7-.56Zm6.45-77c0-3.65-.84-10.65 3.79-6.73s10.94 16.82 1 14a5.752 5.752 0 0 1-4.07-6.73l-.72-.54Zm6.87 38.55c4.63 6.17 3.79 12.9 0 14-3.79 1.1-5.19-6.87-5.89-11.92-.7-5.05 4.07-4.35 6.59-1.54l-.7-.54Zm-1-13.18c2-1.68 4.07-1.26 6 1.26 1.93 2.52 0 9.11-3.36 8-3.36-1.11-4.07-7-2-8.69l-.64-.57Zm7.15 25.8c0-4.91 2.66-3.22 5-2.66s3.22 5.33 0 7.71-4.07.42-4.35-4.49l-.65-.56ZM685 397.18c2.66 1.68 3.5 5.47 0 6.87-3.5 1.4-8.69-2-7.57-5.47 1.12-3.47 4.35-3.36 8.27-.84l-.7-.56Zm5.33 19.77c1.82 3.36 0 5.89-6 3.22a27.21 27.21 0 0 0-12.33-1.26c-6.87 0-6.17-4.91-3.36-5.75l8.27-2.52a10.366 10.366 0 0 1 8.614.217A10.38 10.38 0 0 1 691 417.51l-.67-.56Zm-17.38-31.82c1.54 0 2.8 0 3.65 2.38.85 2.38-2.38 5.89-4.35 4.21a4.488 4.488 0 0 1 .38-6.33l.32-.26Zm-26.64-20.89c7.71-1.4 8.69 1 8.27 3.36-.42 2.36-5.33 1.26-5.19 3.65.14 2.39 4.63 6 7.57 3.5 2.94-2.5 7.43-3.79 9.25 0 1.82 3.79-4.35 8.41-9.25 6.59-4.9-1.82-3.65-2.1-10.65-4.91s-7.85-10.93 0-12.2v.01Zm-16.4-6.31A15.553 15.553 0 0 0 631 353a6.172 6.172 0 0 1 4.49-3.93c1.82 0 3.36 1.82 4.91 4.21a6.455 6.455 0 0 1-1.54 7.85c-2.38 2.66-4.77 1.82-7.15 1.4a3.08 3.08 0 0 1-1.82-4.77l.02.17Zm-5.75 36.87c-4.49 0-8.27-3.93-5.75-5.61 2.52-1.68 5.61-3.79 9.67-1s.42 7.15-3.93 6.45l.01.16Zm0-31.26c.673 1.41 1.52 2.73 2.52 3.93a4.628 4.628 0 0 1-1.4 5.19 9 9 0 0 0-2 6.73 4.626 4.626 0 0 1-4.77 3.93 3.082 3.082 0 0 1-2.66-3.93 11.915 11.915 0 0 1 3.22-6.87 9.231 9.231 0 0 0 1.64-3.534 9.237 9.237 0 0 0 .04-3.896c.28-3.5 3.22-3.65 3.79-1.68l-.38.13Zm-9.39-21.45c2.24-4.63 5.89-6.87 7-4.35 2.1 5.19-4.07 13-4.07 13-2.8 6.45-4.91-4.21-2.52-8.83l-.41.18Zm3.79 56.78a4.911 4.911 0 0 1-1.82 9.39c-5.47 0-8.41-5.47-6-8.55 2.41-3.08 4.21-3.36 8.27-1l-.45.16Zm-10.37-66.45a5.992 5.992 0 0 1 2.178 4.625 5.99 5.99 0 0 1-2.178 4.625c-4.07 3.08-7.71 0-7.71-4.35s4.21-7.85 8.13-5l-.42.1Zm-4.35 19.49a3.502 3.502 0 0 1 4.452-.146c.427.329.772.752 1.008 1.236a11.635 11.635 0 0 1-2.38 11.36c-3.36 2.66-6.73 0-6.87-3.5a8.41 8.41 0 0 1 4.21-9.11l-.42.16Zm2 28.88c2.52 5.75-2.66 6.17-5.33 9.25s-7 2-5.61-.84a11.775 11.775 0 0 0 0-8.69c-1-2.52-1.12-5 .84-6.17s7.85.42 10.51 6.31l-.41.14Zm-15.7-56.92a4.346 4.346 0 0 1 3.636-1.068 4.343 4.343 0 0 1 3.094 2.188 14.002 14.002 0 0 1-3.22 14 4.994 4.994 0 0 1-5.733 1.028 5.002 5.002 0 0 1-2.817-5.098 10.647 10.647 0 0 1 4.99-11.06l.05.01Zm-14-6.17a5.334 5.334 0 0 1 3.22-1.26 4.492 4.492 0 0 1 4.21 3.5 4.633 4.633 0 0 1-2.8 5.33 4.997 4.997 0 0 1-5.89-2.1 4.486 4.486 0 0 1 1.68-5.47h-.42Zm-3.08 10c1.54 1.26 2 3.08 0 4.35a4.486 4.486 0 0 1-5.47 0s-2.1-1.68 0-3.22a4.907 4.907 0 0 1 5.89-1.12l-.42-.01Zm-11.92-15c4.21 0 7.29 0 7.85 3.22a6.451 6.451 0 0 1-2.94 7c-3.08 2.38-7.43 5.47-8.69 1.26-1.26-4.21.14-11.78 4.21-11.5l-.43.02Zm-4.21 18.79c3.22 4.91 1.12 7.43-2.8 10.94s-5.19-1.12-7-4.63c-1.81-3.51-2-5.33 2.52-7.71s5.75-1.54 7.71 1.4h-.43Zm-10.09-22.15c2.38 0 3.22.7 5.47 2.66 2.25 1.96 0 4.63-1.54 4.07-1.54-.56-4.77 1.68-6.87 1.82-2.1.14-2.1-1-3.36-3.5-1.26-2.5 3.56-5.11 6.23-5.11l.07.06Zm-5.19 14a3.222 3.222 0 0 1 1.82 4.07c0 2-2.52 3.79-3.36 5.47a26.898 26.898 0 0 0-.84 5 7.003 7.003 0 0 1-2.94 4.49 3.218 3.218 0 0 1-3.93-1.54 12.061 12.061 0 0 1 0-7 15.146 15.146 0 0 1 4.63-8c.56-2 3.36-3.65 4.63-3.65l-.01 1.16Zm-11.36-14c1.4-1 3.36-1.12 3.93 1.26.57 2.38 0 3.5-1.82 5a2.095 2.095 0 0 1-3.36 0 4.772 4.772 0 0 1 1.26-7.43l-.01 1.17ZM528 357.79c.7-3.65 3.36-5.61 6.17-3.65a6.3 6.3 0 0 1 1.576 2.478 6.303 6.303 0 0 1-.785 5.657 6.301 6.301 0 0 1-2.191 1.955c-4.63 1-5.47-3.79-4.77-7.71v1.27Zm-15.14-28.46s9-4.63 5.33-6.31c-3.67-1.68-2.24-10.65-1-14.86 1.24-4.21 4.21-3.08 5.89-1.82 1.68 1.26 1.26 7.15 1.12 10.37a10.795 10.795 0 0 1-1.68 6.31c-1.54 2.38-1.54 2.1 2.52 3.5 4.06 1.4-.84 7-3.22 8.69-2.38 1.69-3.93 7.71-8.13 4.35a6.86 6.86 0 0 1-2.345-7.779 6.872 6.872 0 0 1 1.505-2.451h.01Zm-9-22.71a3.648 3.648 0 0 1 6.59 1.26 7.572 7.572 0 0 1-1.4 8.13 2.95 2.95 0 0 1-2.315 1.128 2.943 2.943 0 0 1-2.315-1.128 9.25 9.25 0 0 1-.55-9.4l-.01.01Zm0 16.12a13.667 13.667 0 0 1-1.54 6.73 13.174 13.174 0 0 0-1.4 10.65c.7 5.47-.84 9.81-5.33 5.89-4.49-3.92-5.61-8.13-3.93-10.8A80.443 80.443 0 0 0 496.3 325c2.1-3.79 6-5.61 7.57-2.8l-.01.54Zm-13.18-16.54c4.07-2.1 4.35 3.36 5 6.45.65 3.09-.7 3.93-2 3.93-10-.29-6.49-8.42-2.99-10.39l-.01.01Zm3.36 45c4.77 5.61 3.93 8.27-1.82 7.43-5.75-.84-11.08-3.08-7.15-7.43a5.337 5.337 0 0 1 4.695-2.807 5.333 5.333 0 0 1 4.695 2.807h-.42Zm-10.37-11.08a51.794 51.794 0 0 0-4.07 7c-1.4 2.1-2.94 2.8-4.63 1.54-1.69-1.26-.84-3.36 1.12-4.63a5.76 5.76 0 0 0 1.622-2.251 5.761 5.761 0 0 0 .378-2.749c0-3.36 3.08-4.77 4.77-3.93.51.133.975.4 1.347.774a2.935 2.935 0 0 1-.087 4.226l-.45.02Zm-2.94-32c2.1 1.26 2.24 2.38 2.1 4.91a2.108 2.108 0 0 1-.838 1.655 2.103 2.103 0 0 1-1.822.345 4.905 4.905 0 0 1-3.5-4.49 2.881 2.881 0 0 1 4.07-2.38l-.01-.04Zm-3.08 15.56c4.21 1.26 3.65 5.33 1 7.29s-4.07-1-4.35-2.8c-.28-1.8 1.12-4.49 3.36-3.93l-.01-.56ZM471.9 341c-1.26 1.12-4.35 0-4.35-2.66s1.26-3.65 3.93-2.66c2.67.99 2 4.77.42 5.89V341Zm-6.87-28c1.4-1.82 4.77-3.93 6.17.7 0 2 2.38 6.73 0 7.43a4.212 4.212 0 0 1-5.33-1.4c-1.12-1-2.38-4.49-.84-6.31V313Zm-11.22 0c2.94-2.52 5.33 2.24 5.75 4.91.35 2.792.35 5.618 0 8.41 0 3.08-2 4.35-4.77 0-2.77-4.35-4.07-10.65-1-13l.02-.32Zm4.77 28s.7 1.82 5.19 4.91-1.26 7.15-4.21 6.59c-2.95-.56-4.07-1.4-7.43.84-3.36 2.24-8.55 3.79-8.41-2.52.14-6.31 5.33-7.29 7-9s7-4.07 7.85-.7l.01-.12Zm-11.64-20.19c6.87 14-2.1 16.82-2.52 12.76a134.438 134.438 0 0 0-2.94-14c-1-3.5 2.94-3.65 5.47 1.4l-.01-.16ZM436.86 370c.84-4.49 2.66-4.21 4.49-5.19a11.64 11.64 0 0 1 12.76.84c3.65 2.52-.7 4.35-3.08 8.27s-3.79 0-8.69 1.4c-4.9 1.4-6.17-.7-5.47-5.19l-.01-.13Zm-1.54 57.2c-3.36 5.47-8.83 1.82-10.37-1.26a5.89 5.89 0 0 1 7-7.29c4.63 1.68 6.17 4.35 3.36 8.69l.01-.14Zm-4.63-103.32c.84-1.68 2.38-2.8 4.07-1 1.69 1.8 1.68 2.94 1 5.33 0 0-1 2.38-2.94 1.26a4.628 4.628 0 0 1-2.1-5.47l-.03-.12Zm-1.4 15.56c1.82-1.68 3.65-.7 4.77 1a45.704 45.704 0 0 1 2.24 9.39c0 2.8-2.52 3.65-6.17 3.93-3.65.28-3.93-2.94-6-5.47s0-3.93 2.38-4.91 1.12-2 2.8-3.79l-.02-.15Zm-4.77-12.34a7.152 7.152 0 0 1-1.54 8.41c-2.24 2.1-6.59-3.36-6.31-5.75.28-2.39 6-5.47 7.85-2.52v-.14Zm-4.35 28c4.91 1.54 6.73 5.19 2.94 8.83-3.79 3.64-4.91-1.68-6.31-3.79-1.4-2.11-.56-6.17 3.79-5.19l-.42.15Zm-12.62-20.19c6.87-1.26 10.09 8.27 7.15 11.36-2.94 3.09-6.73 4.21-8.55 0-1.82-4.21-5.61-10.09 1.4-11.5v.14Zm-.84 42.09a10.092 10.092 0 0 1-6.71 8.4c-3.93 1.12-3.08-2.24-3.65-6a15.428 15.428 0 0 1 1.82-9c1.12-2.52 2.38-2.38 4.07-2.52 6.87-.56 4.35 5.19 4.35 8.83l.12.29Zm-8.55-31.26c3.65 4.49 5.61 10.09 0 10.37a5.476 5.476 0 0 1-4.854-1.563 5.474 5.474 0 0 1-1.456-4.887c.7-7.433 2.803-8.837 6.31-4.21v.29Zm-4.63 62.39c2.66 1.68 3.36 9-1 7.29-4.36-1.71-6.17 1-8.41 0s-1-3.22 2.8-6 5.61-2 6.59-1.54l.02.25ZM390 397.6c0 2.24 0 3.93-5 4.77-5 .84-1.68-5.61-.7-9.53.98-3.92 3.65-2.38 4.35-1a18.083 18.083 0 0 1 1.4 5.47l-.05.29Zm-11.5-40.1c1.54-2.66 3.93-2.94 7.29-1s3.65 10.23-.84 10.37c-4.49.14-8.38-6.87-6.42-9.37h-.03Zm6.87 17.94a6.297 6.297 0 0 1 2.173 4.765 6.31 6.31 0 0 1-2.173 4.765c-4.07 3.22-7.85 0-7.85-4.35s3.65-8.13 7.57-5.19l.28.01Zm-12.48-11.22a3.084 3.084 0 0 1 1.664 2.735 3.086 3.086 0 0 1-1.664 2.735 2.938 2.938 0 0 1-4.49-2.52c.6-2.94 1.86-3.92 4.53-2.94l-.04-.01Zm-5.19 35.61a15.838 15.838 0 0 0 1.68-9.39c-1.26-4.21-1-5.61 2.38-2.52a14.99 14.99 0 0 1 4.07 6.45c1.68 3.65 1 5.89-3.5 7.29-4.5 1.4-5.47-.14-4.63-2.1v.27Zm-1.54 12.34c2.1 0 2.38 2.38 2.38 5.47s-1.12 2.8-3.93 5.47-3.36-1.82-4.21-3.79a4.904 4.904 0 0 1-.118-2.88 4.903 4.903 0 0 1 1.518-2.45c1-1.54 2.66-1.54 4.35-2.1l.01.28Zm-14-30.7c1.26-2.24 3.5-2.66 6.31-.84 2.81 1.82 3.08 8.83 0 9-3.08.17-8-6.17-6-8.41l-.31.25Zm-8.41 10.65c2-2.66 3.65-2.52 5.75-1.12a6.594 6.594 0 0 1 2.52 4.77c0 3.08-1.4 4.07-4.21 3.65-2.81-.42-3.93 1.4-6.17 0-2.24-1.4.56-4.77 2.38-7.15l-.27-.15Zm-3.65 15.28c2.8 1.54 3.5 5.19 0 6.59-3.5 1.4-8.13-1.82-7-5.19 1.13-3.37 3.36-3.93 7.29-1.68l-.29.28Zm-12.48 12.9a4.067 4.067 0 0 1 5.19 1.68 76.689 76.689 0 0 0 7.57 7.15c2.8 2.1 3.5 2.38 3.65 4.21.15 1.83-2.94 2.24-4.91 0a5.191 5.191 0 0 0-6-2.52 6.87 6.87 0 0 1-6.32-3.82 4.492 4.492 0 0 1 .84-6.73l-.02.03Zm-7.41 16.7c1.26-2.52 4.49-2.24 7.57 0s4.07 5.61 1.54 6c-2.53.39-2.1 3.93-3.93 4.77-1.83.84-5-1.68-6-3.36a9.811 9.811 0 0 1 .82-7.41Zm-1.4 53.41c-2.1-.84-3.22-2-2.1-5.61a14.004 14.004 0 0 1 5.75-6.45 1.677 1.677 0 0 1 1.47-.867 1.682 1.682 0 0 1 1.47.867c.461.896.836 1.834 1.12 2.8a5.328 5.328 0 0 1-1 3.93c-.84 1.68 0 2.1 0 3.93s-4.47 2.52-6.71 1.4Zm2.8 14c-1.12 2.38-4.91 4.35-6.59 6.17-1.68 1.82-5.61 4.07-7.43 2.38a4.623 4.623 0 0 1-.55-4.274 4.632 4.632 0 0 1 3.21-2.876c2.8-.84 3.5-4.21 5.75-5.75s7.44.02 5.61 4.37v-.02ZM313.76 454c0-2.24 1.54-2.94 4.35 0 2.81 2.94 2.66 2.38 3.5 3.36.84.98 1.68 2.66 1 3.65a5.468 5.468 0 0 1-4.49 2.1c-2.94 0-5.19-.84-5.61-3.22-.42-2.38 1.49-3.69 1.25-5.89Zm-4.35 17.24c1.68-1.4 2.52-1.4 5.47-1.4 2.95 0 3.22 2.8 1.4 3.5-1.82.7-2.24 3.79-3.5 5.33-1.26 1.54-2.1 0-4.63 0s-.55-5.92 1.27-7.47l-.01.04Zm-3.36 20.47c0-1.82.84-2.24 2.8-2.66 1.96-.42 1.68.84 2 2.1.32 1.26.7 1.12 1.12 2a1.678 1.678 0 0 1 0 2.24 3.921 3.921 0 0 1-3.5.84 3.513 3.513 0 0 1-2.118-1.653 3.507 3.507 0 0 1-.322-2.667l.02-.2Zm413.72 24.53c-1 114.59-94.7 206.67-209.28 205.68a207.488 207.488 0 0 1-205.56-200.11 1.807 1.807 0 0 0 0-.84 29.573 29.573 0 0 0 11.22-5.19c6.31-5 8.83-4.91 14-3.93a11.779 11.779 0 0 0 10.37-2 11.219 11.219 0 0 1 7.15-3.22 18.648 18.648 0 0 0 9.53-5c3.08-2.8 7-6 10.8-4.91a17.101 17.101 0 0 0 10.37.84 18.366 18.366 0 0 0 8.13-6.59 18.512 18.512 0 0 1 8.69-8.27l9-1.54a129.571 129.571 0 0 1 15.7 9.25c6.45 3.08 12.62 6.45 19.07 8.83a167.636 167.636 0 0 1 17.38 6.17c5.47 2.94 2.8 1.12 6.17 3.79 0 0 3.93 2.52 3.79 4.35a16.79 16.79 0 0 0 0 4.77c-1.12 5.89-1 10.65-1.82 12.9a21.469 21.469 0 0 0-1.4 6.87c0 3.36 0 4.91-1.12 7.43a19.327 19.327 0 0 1-2.66 5.89c-1 1.68-1.12 5.47-2.94 6.59a19.627 19.627 0 0 1-7.71 2.52 29.15 29.15 0 0 0-7.71 1.68 24.005 24.005 0 0 1-8.13 2.94 33.216 33.216 0 0 0-10.09 1.12 29.302 29.302 0 0 1-7.85.7 81.28 81.28 0 0 1-9.81-1.54 11.075 11.075 0 0 0-7 .84 3.363 3.363 0 0 0-1.4 4.49 6.997 6.997 0 0 0 6.17 3.79c2.959.608 5.983.843 9 .7h11.57c4.411.201 8.83-.08 13.18-.84a72.917 72.917 0 0 1 11.5-2.94 20.355 20.355 0 0 1 6.31 0 32.294 32.294 0 0 1 6.87 2c1.4 0 8.13.84 11.36 1.12 3.23.28 7.57 0 10.94 0L498.4 573c7.71 0 6.59-6.17 2.94-7.15a31.87 31.87 0 0 0-7.43 1.12 16.118 16.118 0 0 1-11.08-2.66 8.274 8.274 0 0 1 0-7.85 14.997 14.997 0 0 0 0-10.23 10.375 10.375 0 0 1-.84-5.33c.24-1.807.927-3.526 2-5a6.728 6.728 0 0 1 8.41-2.1 4.353 4.353 0 0 1 2 4.63c-.84 2.8-2.52 3.22-2.66 5.19-.14 1.97 0 2.38 1.12 4.35a4.488 4.488 0 0 1 0 5.75c-2.8 3.08-.84 5.75 2 6.17a25.504 25.504 0 0 0 7.57-1.4 6.003 6.003 0 0 0 2.641-2.629c.579-1.134.781-2.424.579-3.681 0-2.38-2.94-3.08 0-6s1.82-6.59 1.82-9.25 0-2.52 1.68-5.47c1.68-2.95-2-5.33-3.36-3.36-1.36 1.97-2.52-6.45-1.26-8a14 14 0 0 0 2.94-5.33c.84-2.52 1.4-1.4 0-4.77-1.4-3.37-2.24-1.4-3.5-2-1.26-.6-2-7.29-.84-11.78 1.16-4.49 3.22 0 6 4.35s2.8-5.19 2-8.69c-.8-3.5.84-10.51 0-14a14 14 0 0 1 0-10.65 43.966 43.966 0 0 0 1.4-13.18 7.845 7.845 0 0 1 8.83-3.08 20.67 20.67 0 0 1 0 4.35 16.824 16.824 0 0 1-2.1 7.29 5.886 5.886 0 0 0 1.12 7.15c1.4 0 .7 2.1 0 3.79s-1.4 3.65 0 4.49c1.4.84 0 0 0 4.07.36 1.806.36 3.664 0 5.47 0 3.79-1.12 7 1.54 7s4.77-1.26 5.61 1c.84 2.26 1.82 6.87 3.79 5.75a6.59 6.59 0 0 0 3.65-6.73 79.2 79.2 0 0 1-1.8-12.6 42.084 42.084 0 0 1 0-10.23 16.002 16.002 0 0 0-.42-9.39c0-2.24-.84-4.07-1-5.61a13.999 13.999 0 0 0 10.09 2.94 1.675 1.675 0 0 1 0 1.4 7 7 0 0 0-1 7.71c1 2.24 5.19 3.36 2 7-3.19 3.64-1 6.87 3.08 6.31 4.08-.56 6.45 0 5.61 3.5-.84 3.5 2.1 4.35 4.07 4.21 10 0 10 11.36 4.07 12.62a31.55 31.55 0 0 0-9.11 3.5c-3.08 1.4-3.5 7.15-2.38 9.39s2.66 3.65.84 6.31a6.733 6.733 0 0 0-.84 7.29 6.453 6.453 0 0 1 0 7.71 12.069 12.069 0 0 0-1.55 11.34c1.82 3.36 3.79 7.57 1.54 9.25-2.25 1.68-2.52 1-6.17 0s-5.75 0-7-2.8 2.52-2.52 2.24-6.31a36.8 36.8 0 0 1 0-3.93c0-3.93 3.08-7.43 1.68-12.06-1.4-4.63 2.66-5.75.84-9.39-1.82-3.64-5.33-4.35-5.75-7.85-.42-3.5-1.12-6.31-5-6-3.88.31-.84 17.24-1.54 23.27a25.105 25.105 0 0 0 0 11.36 12.337 12.337 0 0 1 .84 6.45c0 5.19-2.38 5.47-1.26 8 1.12 2.53 0 4.07-2.94 4.21-2.94.14-6.59 1.68-7.29 4.49-.7 2.81 3.08 2.94 5.33 2.24 2.25-.7 8.13-2.24 10.23-.84a24.667 24.667 0 0 0 9 3.5c4.21 0 10.37 1.4 14 1.54 6.509.33 13.034.048 19.49-.84a48.004 48.004 0 0 1 19.35-1.68 64.344 64.344 0 0 0 14 4.21c5.51-.28 11.03-.28 16.54 0a100.092 100.092 0 0 0 17.94 1.54c3.65 0 7.57-.7 6.17-3.22-1.4-2.52-3.65-2.24-8.13-4.07a20.614 20.614 0 0 0-13.32-3.22 94.728 94.728 0 0 1-12.9 1.26 25.235 25.235 0 0 1-10.94-4.91 27.999 27.999 0 0 0-14-3.93 78.123 78.123 0 0 1-17.94 1.4c-3.65-1-10.09-3.22-12.06-7.85a19.63 19.63 0 0 1-1.82-11.5 46.845 46.845 0 0 0 0-18.65c-.037-1.95.247-3.892.84-5.75a20.48 20.48 0 0 1 4.49-7.15 20.007 20.007 0 0 1 9-2.94c4.35 0 9.11-1.54 14-2.24a183.391 183.391 0 0 0 30-6c5.89-2.24 10.37-4.49 15-6.17a88.579 88.579 0 0 1 13.32-3.22c1.26 3.22 6.45 6.31 15.7 2.66 9.25-3.65 13.18-3.65 17.38 2.1a16.398 16.398 0 0 0 13.18 8.27c5.75 1 9 0 10.8 4.63 1.8 4.63 3.5 8.55 9.53 7.71a18.229 18.229 0 0 1 9.39 2 1 1 0 0 0-.62.64v.03Z" fill="#fff"/></g><defs><clipPath id="a"><path fill="#fff" d="M0 0h1024v1024H0z"/></clipPath></defs></svg>