<svg width="1024" height="1024" viewBox="0 0 1024 1024" fill="none" xmlns="http://www.w3.org/2000/svg">
<g clip-path="url(#clip0_2_2643)">
<path d="M512 1024C794.77 1024 1024 794.77 1024 512C1024 229.23 794.77 0 512 0C229.23 0 0 229.23 0 512C0 794.77 229.23 1024 512 1024Z" fill="#54688C"/>
<path d="M382.18 562.89C379.1 562.89 375.18 566.11 375.73 569.48C376.503 570.792 377.612 571.874 378.942 572.615C380.273 573.355 381.778 573.726 383.3 573.69C384.075 573.705 384.844 573.555 385.556 573.25C386.268 572.946 386.908 572.493 387.432 571.923C387.957 571.353 388.354 570.677 388.598 569.942C388.841 569.206 388.926 568.427 388.846 567.657C388.766 566.886 388.523 566.141 388.134 565.471C387.745 564.802 387.217 564.222 386.587 563.772C385.957 563.321 385.238 563.009 384.478 562.857C383.719 562.705 382.935 562.716 382.18 562.89ZM512.14 196C337.62 195.92 196.08 337.34 196 511.86C195.92 686.38 337.34 827.92 511.86 828C686.38 828.08 827.92 686.66 828 512.14V511.86C828 337.42 686.58 196 512.14 196ZM730.56 730.28C610.06 850.68 414.77 850.6 294.37 730.1C173.97 609.6 174.05 414.31 294.55 293.91C415.05 173.51 610.34 173.59 730.74 294.09C759.369 322.742 782.075 356.753 797.56 394.18C813.044 431.607 821.006 471.718 820.989 512.222C820.972 552.726 812.978 592.831 797.462 630.245C781.946 667.659 759.213 701.651 730.56 730.28ZM512.14 212.68C346.83 212.68 212.82 346.68 212.82 512C212.82 677.32 346.82 811.32 512.14 811.32C677.46 811.32 811.46 677.31 811.46 512V511.86C811.46 346.63 677.51 212.68 512.28 212.68H512.14ZM720.61 720.19C605.61 835.09 419.15 834.98 304.25 719.93C189.35 604.88 189.46 418.47 304.51 303.57C419.56 188.67 605.97 188.78 720.87 303.83C748.192 331.186 769.858 363.655 784.631 399.384C799.404 435.112 806.996 473.401 806.971 512.064C806.947 550.727 799.308 589.006 784.49 624.716C769.672 660.427 747.966 692.869 720.61 720.19ZM283.06 504.29L266.52 502.89L259.65 494.48L285.17 479.34L285.73 470.93L255.59 489.44L237.93 467.29L237.23 476.4L258.68 502.2L235.27 500.38L234.71 506.69L282.66 510.62L283.06 504.29ZM292.17 449.05L293.99 442.74L275.34 437.13L253.2 411.62L251 418.91L269 438.68L243.06 445.27L240.82 452.56L273.49 443.45L292.17 449.05ZM280.39 407.55C285.852 411 292.364 412.393 298.76 411.48C301.957 410.792 304.955 409.386 307.53 407.37C310.104 405.354 312.186 402.779 313.62 399.84C315.555 396.918 316.735 393.56 317.053 390.07C317.37 386.579 316.816 383.064 315.44 379.84C312.942 373.833 308.431 368.883 302.68 365.84C297.773 362.689 291.94 361.303 286.14 361.91C282.597 362.445 279.243 363.852 276.38 366.007C273.517 368.161 271.235 370.994 269.74 374.25C267.815 377.247 266.678 380.682 266.433 384.236C266.188 387.789 266.844 391.347 268.34 394.58C270.851 400.094 275.083 404.645 280.4 407.55H280.39ZM274.92 377.27C275.948 375.251 277.411 373.486 279.204 372.103C280.998 370.719 283.077 369.751 285.29 369.27C290.16 368.468 295.154 369.517 299.29 372.21C303.691 374.557 307.335 378.104 309.8 382.44C310.904 384.641 311.407 387.095 311.26 389.553C311.112 392.011 310.319 394.386 308.96 396.44C307.894 398.675 306.327 400.634 304.381 402.165C302.435 403.696 300.163 404.759 297.74 405.27C292.834 405.677 287.927 404.499 283.74 401.91C278.89 399.586 275.066 395.556 273 390.59C272.417 388.329 272.328 385.969 272.739 383.671C273.149 381.372 274.05 379.189 275.38 377.27H274.92ZM308.71 332.55L340.12 361L344.61 356L313.35 327.68L324 315.73L319.93 311.8L293.71 340.8L297.92 344.45L308.71 332.55ZM360.58 331.85C363.707 332.458 366.929 332.384 370.025 331.633C373.121 330.882 376.018 329.473 378.52 327.5C381.485 325.646 383.948 323.091 385.692 320.06C387.436 317.029 388.407 313.615 388.52 310.12C388.551 303.746 386.481 297.539 382.63 292.46C379.297 287.464 374.358 283.756 368.63 281.95C365.207 280.958 361.592 280.823 358.104 281.557C354.616 282.291 351.363 283.872 348.63 286.16C345.631 288.098 343.163 290.753 341.45 293.886C339.737 297.019 338.833 300.53 338.82 304.1C339.074 310.309 341.188 316.299 344.888 321.292C348.588 326.285 353.703 330.05 359.57 332.1L360.58 331.85ZM353.15 290.63C354.971 289.223 357.083 288.241 359.333 287.757C361.582 287.272 363.912 287.297 366.15 287.83C370.878 289.148 374.935 292.201 377.51 296.38C380.612 300.416 382.422 305.297 382.7 310.38C382.891 312.816 382.385 315.255 381.244 317.415C380.102 319.575 378.37 321.366 376.25 322.58C374.366 324.234 372.1 325.394 369.656 325.956C367.213 326.518 364.668 326.465 362.25 325.8C357.697 324.213 353.768 321.219 351.03 317.25C347.546 313.056 345.791 307.692 346.12 302.25C346.395 299.923 347.166 297.681 348.38 295.677C349.595 293.672 351.224 291.951 353.16 290.63H353.15ZM428.15 290.49C430.53 292.858 433.558 294.469 436.852 295.118C440.146 295.768 443.559 295.428 446.66 294.14C449.943 293.536 452.97 291.961 455.348 289.618C457.726 287.276 459.347 284.274 460 281C460.463 276.277 459.939 271.509 458.46 267L450.46 241.2L444.29 243.2L452.84 271.2C453.755 273.903 454.042 276.779 453.68 279.61C453.145 281.798 451.986 283.784 450.344 285.327C448.702 286.869 446.647 287.902 444.43 288.3C442.602 289.063 440.589 289.27 438.644 288.897C436.699 288.523 434.906 287.585 433.49 286.2C431.438 284.02 429.945 281.374 429.14 278.49L420.59 250.49L414.14 252.17L421.99 277.97C423.081 282.553 425.19 286.832 428.16 290.49H428.15ZM487.15 284.18L485.05 245.35L511.41 282.78L518.7 282.36L516.18 234.41L510.18 234.83L512 273.53L486.2 236.1L478.49 236.52L481 284.46L487.15 284.18ZM549.82 237.64L543.37 236.94L537.48 284.47L543.93 285.31L549.82 237.64ZM581.22 293.72L611.78 252.78L604.63 250.68L580.1 285.87L578.56 242.87L571.56 240.77L574.64 291.77L581.22 293.72ZM639.68 321.06L642.48 316.06L617.1 301.9L625 287.69L648.13 300.59L650.79 295.59L627.79 282.83L634.79 270.07L659.79 283.95L662.59 278.76L632.17 261.94L608.9 303.86L639.68 321.06ZM657.77 334.94L671.77 319.66L682.42 329.33C683.913 330.541 685.111 332.076 685.92 333.82C686.331 335.026 686.392 336.324 686.095 337.564C685.797 338.803 685.154 339.932 684.24 340.82L679.11 347L676.87 349.94L676.17 351.48L682.06 356.95L682.9 356.11C682.593 355.578 682.431 354.974 682.431 354.36C682.431 353.746 682.593 353.142 682.9 352.61L685.28 349.25L689.63 344.34C691.082 342.812 692.097 340.924 692.57 338.87C692.531 337.084 692.151 335.323 691.45 333.68C693.602 334.307 695.888 334.307 698.04 333.68C700.46 332.977 702.612 331.559 704.21 329.61C705.876 327.991 707.02 325.911 707.494 323.637C707.968 321.363 707.75 319 706.87 316.85C705.464 314.063 703.46 311.621 701 309.7L684.74 295.7L652.9 330.59L657.77 334.94ZM685.77 303.54L697.2 313.9C698.594 315.026 699.698 316.47 700.42 318.11C700.663 319.383 700.631 320.692 700.327 321.952C700.024 323.211 699.455 324.391 698.659 325.413C697.863 326.435 696.858 327.276 695.712 327.879C694.565 328.482 693.303 328.833 692.01 328.91C689.566 328.48 687.313 327.307 685.56 325.55L674.91 315.74L685.77 303.54ZM704.42 380.65C703.088 379.004 702.196 377.047 701.828 374.962C701.461 372.876 701.63 370.732 702.32 368.73C703.258 366.628 704.764 364.831 706.67 363.54L703.31 358.35C701.325 359.493 699.624 361.071 698.337 362.966C697.05 364.861 696.21 367.023 695.88 369.29C695.379 374.264 696.728 379.248 699.67 383.29C702.201 387.173 705.803 390.24 710.04 392.12C712.091 393.045 714.36 393.378 716.59 393.081C718.82 392.784 720.923 391.869 722.66 390.44C724.264 389.469 725.604 388.117 726.558 386.503C727.512 384.889 728.053 383.064 728.13 381.19C728.198 378.551 727.721 375.927 726.73 373.48L724.21 367.31C723.135 364.522 722.246 361.666 721.55 358.76C721.48 357.715 721.689 356.671 722.157 355.734C722.624 354.797 723.333 354.002 724.21 353.43C725.075 352.832 726.061 352.433 727.098 352.26C728.135 352.087 729.198 352.145 730.21 352.43C732.963 353.197 735.32 354.985 736.8 357.43C737.9 358.869 738.681 360.525 739.091 362.289C739.502 364.053 739.532 365.884 739.18 367.66C738.266 369.565 736.977 371.265 735.39 372.66L738.75 377.66C740.664 376.506 742.273 374.911 743.444 373.007C744.615 371.104 745.313 368.948 745.48 366.72C745.51 362.272 744.08 357.937 741.41 354.38C740.324 352.448 738.857 350.757 737.099 349.407C735.341 348.058 733.327 347.079 731.18 346.53C729.234 346.117 727.222 346.124 725.279 346.55C723.336 346.976 721.505 347.811 719.91 349C718.434 349.96 717.215 351.266 716.359 352.805C715.503 354.345 715.037 356.069 715 357.83C715.205 360.956 716.013 364.012 717.38 366.83L719.48 372.83C720.649 375.298 721.361 377.958 721.58 380.68C721.485 381.771 721.114 382.82 720.502 383.728C719.89 384.636 719.056 385.373 718.08 385.87C716.796 386.877 715.212 387.425 713.58 387.425C711.948 387.425 710.364 386.877 709.08 385.87C707.305 384.358 705.759 382.596 704.49 380.64L704.42 380.65ZM721.8 419.76L765.26 399.57L762.6 393.68L719 413.68L721.8 419.76ZM732 447.37L733.68 453.68L774.34 442.32L778.69 457.88L784.44 456.34L773.79 418.77L768.32 420.31L772.67 436.01L732 447.37ZM740.55 492.93L740.83 499.52L760.32 498.12L790.18 514.38L789.76 506.67L765.51 494.47L787.8 479.19L787.24 471.48L759.9 491.67L740.55 492.93ZM290.63 630.75L280.63 609.3L294 603.13L305.36 627.52L310.55 625.14L296.55 594.72L253.2 614.9L255.72 620.9L275.49 611.79L285.49 633.1L290.63 630.75ZM330.63 651.64C328.642 648.672 325.916 646.271 322.72 644.674C319.524 643.077 315.968 642.338 312.4 642.53C306.512 642.953 300.891 645.154 296.28 648.84C291.143 652.652 287.359 658.006 285.48 664.12C285.011 667.479 285.246 670.9 286.172 674.163C287.099 677.426 288.694 680.46 290.859 683.072C293.023 685.684 295.707 687.816 298.741 689.333C301.775 690.849 305.092 691.717 308.48 691.88C314.893 691.697 321.06 689.374 326 685.28C330.805 681.863 334.326 676.934 336 671.28C336.774 667.812 336.685 664.207 335.742 660.781C334.798 657.356 333.03 654.213 330.59 651.63L330.63 651.64ZM329.63 668.18C328.399 672.983 325.522 677.201 321.5 680.1C317.434 683.215 312.592 685.156 307.5 685.71C305.078 685.878 302.654 685.413 300.466 684.361C298.278 683.309 296.401 681.706 295.02 679.71C293.295 677.866 292.069 675.613 291.457 673.163C290.844 670.714 290.866 668.149 291.52 665.71C292.806 661.046 295.682 656.978 299.65 654.21C303.746 650.595 309.047 648.643 314.51 648.74C316.76 648.918 318.944 649.588 320.907 650.703C322.87 651.817 324.564 653.349 325.87 655.19C327.476 656.905 328.652 658.977 329.303 661.235C329.953 663.493 330.058 665.873 329.61 668.18H329.63ZM378.56 699.86L359.89 723C358.155 725.262 355.955 727.127 353.44 728.47C351.348 729.278 349.065 729.457 346.872 728.985C344.68 728.512 342.673 727.409 341.1 725.81C339.454 724.677 338.16 723.103 337.366 721.27C336.572 719.436 336.31 717.416 336.61 715.44C337.245 712.453 338.593 709.663 340.54 707.31L359.19 684.18L354 680.23L336.48 700.7C333.506 704.244 331.266 708.343 329.89 712.76C329.648 716.017 330.197 719.285 331.489 722.285C332.781 725.285 334.779 727.928 337.312 729.99C339.845 732.052 342.839 733.471 346.039 734.128C349.239 734.784 352.55 734.658 355.69 733.76C359.884 731.507 363.522 728.347 366.34 724.51L383 703.37L378.56 699.86ZM408 760.57L403.09 715.29L396.09 711.93L375.48 755.39L381.2 758L397.74 723L403.07 768.56L409.66 771.5L430.27 728L424.52 725.48L408 760.57ZM464.22 737.3L445.57 733.37L435.48 780.37L454.27 784.86C457.796 785.848 461.545 785.688 464.974 784.402C468.402 783.116 471.333 780.773 473.34 777.71C476.174 773.897 478.093 769.483 478.95 764.81C480.405 759.219 479.962 753.302 477.69 747.99C476.529 745.21 474.682 742.77 472.321 740.898C469.959 739.027 467.162 737.785 464.19 737.29L464.22 737.3ZM472.22 763.94C471.944 765.597 471.425 767.204 470.68 768.71C469.871 771.274 468.422 773.59 466.47 775.44C464.696 777.447 462.256 778.744 459.6 779.09C457.791 779.41 455.939 779.41 454.13 779.09L443 776.69L450.71 740.8L462.63 742.8C464.715 743.131 466.688 743.969 468.374 745.24C470.06 746.511 471.408 748.176 472.3 750.09C473.692 754.605 473.65 759.44 472.18 763.93L472.22 763.94ZM505.87 784.83L505.73 768.57L532.09 768.15L531.81 762.54L505.59 762.96L505.31 748.38L533.91 748.1V742.2L499.14 742.48L499.56 790.57L534.89 790.01V784.54L505.87 784.83ZM583.64 739C581.385 737.151 578.707 735.889 575.845 735.327C572.983 734.765 570.027 734.921 567.24 735.78L548.59 740.27L560.79 787.1L579.3 782.47C582.781 781.839 585.987 780.16 588.488 777.659C590.99 775.157 592.669 771.951 593.3 768.47C594.249 763.852 594.249 759.088 593.3 754.47C592.035 748.324 588.608 742.835 583.64 739ZM585.74 769.14C585.004 771.731 583.361 773.971 581.11 775.45C579.554 776.256 577.905 776.868 576.2 777.27L565.12 780.07L556.43 744.18L567.37 741.52C569.37 740.817 571.517 740.64 573.605 741.008C575.693 741.376 577.651 742.276 579.29 743.62C582.726 747.062 585.062 751.448 586 756.22C586.369 757.87 586.65 759.54 586.84 761.22C586.954 763.898 586.582 766.575 585.74 769.12V769.14ZM639.15 705.91C640.095 708.441 640.095 711.229 639.15 713.76C637.445 716.391 635.256 718.674 632.7 720.49L635.22 724.14L644.33 718.14L662.56 746.14L667.89 742.64L642.51 703.64L639.15 705.91ZM699.71 687.54C697.848 687.424 695.982 687.711 694.24 688.38C694.543 686.805 694.543 685.186 694.24 683.61C694.147 682.343 693.803 681.107 693.225 679.976C692.648 678.844 691.851 677.839 690.88 677.02C689.809 675.841 688.48 674.924 686.997 674.342C685.515 673.759 683.918 673.526 682.33 673.66C678.529 674.141 674.99 675.854 672.255 678.538C669.521 681.222 667.742 684.728 667.19 688.52C667.135 690.208 667.43 691.89 668.059 693.458C668.687 695.026 669.634 696.447 670.84 697.63C671.678 698.556 672.693 699.305 673.825 699.834C674.956 700.363 676.182 700.661 677.43 700.71C678.928 700.804 680.425 700.515 681.78 699.87C680.669 702.178 680.279 704.767 680.66 707.3C681.082 709.818 682.31 712.131 684.16 713.89C685.486 715.466 687.173 716.697 689.078 717.479C690.984 718.261 693.05 718.57 695.1 718.38C699.239 717.876 703.082 715.978 706 713C707.612 711.587 708.926 709.867 709.865 707.941C710.804 706.014 711.35 703.92 711.47 701.78C711.436 697.872 709.933 694.12 707.26 691.27C705.271 689.165 702.599 687.836 699.72 687.52L699.71 687.54ZM681.34 695.39C680.334 695.533 679.308 695.425 678.354 695.076C677.4 694.727 676.547 694.148 675.87 693.39C674.502 692.078 673.698 690.285 673.63 688.39C673.926 686.166 674.955 684.104 676.554 682.53C678.153 680.957 680.232 679.961 682.46 679.7C683.384 679.687 684.302 679.857 685.16 680.2C686.018 680.543 686.8 681.053 687.46 681.7C688.152 682.401 688.695 683.234 689.056 684.15C689.416 685.066 689.588 686.046 689.56 687.03C689.369 689.257 688.314 691.321 686.62 692.78C685.144 694.122 683.322 695.022 681.36 695.38L681.34 695.39ZM703.07 709.39C702.166 710.439 701.048 711.283 699.79 711.862C698.532 712.442 697.165 712.745 695.78 712.75C694.63 712.704 693.503 712.419 692.47 711.913C691.437 711.407 690.521 710.69 689.78 709.81C688.814 708.99 688.056 707.953 687.569 706.782C687.082 705.612 686.88 704.343 686.98 703.08C687.259 700.618 688.4 698.333 690.2 696.63C692.025 694.761 694.466 693.617 697.07 693.41C698.362 693.358 699.649 693.595 700.837 694.104C702.026 694.612 703.086 695.38 703.94 696.35C704.85 697.197 705.541 698.251 705.956 699.423C706.37 700.595 706.495 701.849 706.32 703.08C705.998 705.4 704.855 707.529 703.1 709.08L703.07 709.39ZM729 644.62C725.563 642.06 721.655 640.201 717.5 639.15C714.972 638.676 712.366 638.829 709.911 639.594C707.455 640.359 705.224 641.713 703.412 643.539C701.6 645.365 700.263 647.606 699.516 650.067C698.77 652.529 698.637 655.136 699.13 657.66C700.232 661.547 702.663 664.923 706 667.2C709.221 669.589 713.241 670.643 717.22 670.14C720.236 669.584 723.01 668.116 725.166 665.934C727.323 663.753 728.758 660.963 729.28 657.94C730.018 655.853 730.018 653.577 729.28 651.49C733.356 654.466 736.552 658.487 738.53 663.13C739.01 664.437 739.146 665.845 738.925 667.22C738.704 668.594 738.135 669.889 737.27 670.98C736.764 671.815 736.099 672.542 735.311 673.119C734.524 673.697 733.631 674.114 732.683 674.346C731.735 674.578 730.75 674.621 729.785 674.472C728.821 674.324 727.895 673.987 727.06 673.48C726.86 673.36 726.663 673.227 726.47 673.08L723.11 677.85C724.424 678.873 725.942 679.603 727.562 679.989C729.182 680.376 730.866 680.41 732.5 680.09C734.36 679.683 736.117 678.902 737.665 677.793C739.212 676.684 740.517 675.271 741.5 673.64C743.407 670.941 744.36 667.683 744.208 664.381C744.056 661.079 742.807 657.922 740.66 655.41C737.571 651.037 733.599 647.362 729 644.62ZM723.11 660.18C722.502 661.331 721.622 662.316 720.547 663.049C719.471 663.783 718.233 664.243 716.94 664.39C714.268 664.619 711.61 663.817 709.51 662.15C707.136 660.677 705.388 658.381 704.6 655.7C704.299 654.438 704.293 653.123 704.585 651.858C704.876 650.593 705.457 649.413 706.28 648.41C706.929 647.406 707.772 646.541 708.76 645.866C709.747 645.192 710.859 644.72 712.03 644.48C713.445 644.307 714.881 644.416 716.254 644.8C717.627 645.184 718.911 645.837 720.03 646.72C721.289 647.435 722.371 648.424 723.196 649.613C724.022 650.802 724.57 652.161 724.8 653.59C724.973 655.844 724.326 658.084 722.98 659.9L723.11 660.18ZM748.63 612.51C745.558 609.198 742.833 605.579 740.5 601.71C738.68 599.042 737.174 596.173 736.01 593.16L731.24 591.06L718.06 620.92L723.53 623.3L734.04 599.61C736.468 604.492 739.28 609.174 742.45 613.61C748.076 621.337 755.002 628.026 762.92 633.38L765.44 627.49C761.51 624.55 758.71 622.49 757.03 620.9C754.031 618.321 751.229 615.519 748.65 612.52L748.63 612.51ZM722.43 484C722.43 479.23 721.17 474.19 720.19 469.28C718.925 462.609 717.191 456.036 715 449.61C680.51 337.61 561.73 274.7 449.69 309.19C406.343 322.534 368.409 349.412 341.45 385.884C314.49 422.356 299.922 466.505 299.88 511.86V521.67C303.88 638.83 402.14 730.54 519.3 726.51C634.6 722.51 725.62 627.22 724.3 511.85V492.51C724.26 490.69 722.85 487.19 722.43 484ZM716.96 493C717.509 493.216 717.98 493.593 718.312 494.081C718.644 494.569 718.821 495.145 718.821 495.735C718.821 496.325 718.644 496.901 718.312 497.389C717.98 497.877 717.509 498.254 716.96 498.47C715.7 499.59 712.61 498.47 712.61 495.81C712.61 493.15 715 492.23 717 492.93L716.96 493ZM713.74 480.8C719.35 489.07 705.89 483.04 704.49 479.8C703.09 476.56 710.24 476.39 713.74 480.74V480.8ZM712.62 506.88C713.74 509.4 708.55 510.81 706.73 506.88C704.91 502.95 709.39 499.52 712.62 506.81V506.88ZM704.21 497.63C703.523 498.129 702.705 498.415 701.857 498.455C701.009 498.494 700.168 498.285 699.438 497.852C698.708 497.419 698.12 496.782 697.747 496.02C697.374 495.257 697.233 494.402 697.34 493.56C698.18 490.34 701.27 485.99 704.21 488.65C707.15 491.31 707.71 495.18 704.21 497.56V497.63ZM709.4 471.55C705.47 471.55 702.81 469.45 701.69 463.98C700.57 458.51 706.18 459.21 709.4 462.86C712.62 466.51 713.46 471.2 709.39 471.48L709.4 471.55ZM699.73 424.72C702.95 425.84 701.73 429.07 699.73 430.19C699.266 430.429 698.75 430.546 698.228 430.531C697.707 430.516 697.198 430.368 696.749 430.102C696.3 429.836 695.927 429.461 695.663 429.011C695.399 428.561 695.253 428.051 695.24 427.53C695.8 424.94 697.2 423.82 699.72 424.66L699.73 424.72ZM699.73 443.51C700.73 438.88 701.97 437.06 704.64 441.41C707.31 445.76 710.39 446.74 707.58 451.41C707.08 452.183 706.433 452.85 705.675 453.372C704.918 453.894 704.064 454.262 703.164 454.455C702.264 454.647 701.335 454.66 700.43 454.492C699.525 454.325 698.662 453.981 697.89 453.48C697.703 453.36 697.523 453.23 697.35 453.09C693.14 450.99 698.75 448.46 699.59 443.56L699.73 443.51ZM694.26 458.79C695.084 461.294 695.084 463.996 694.26 466.5C693.841 469.19 694.44 471.939 695.94 474.21C697.76 477.43 694.82 478.7 693.42 477.15C692.309 476 690.971 475.094 689.49 474.49C688.799 473.779 688.346 472.87 688.196 471.889C688.045 470.909 688.204 469.906 688.65 469.02C688.933 466.691 688.334 464.34 686.97 462.43C686.6 461.313 686.668 460.097 687.163 459.029C687.657 457.961 688.539 457.121 689.63 456.68C690.063 456.522 690.522 456.452 690.982 456.472C691.442 456.492 691.894 456.603 692.311 456.798C692.728 456.993 693.102 457.269 693.413 457.609C693.723 457.949 693.964 458.347 694.12 458.78L694.26 458.79ZM694.26 487.67C693.42 490.19 691.74 491.03 688.65 490.05C685.56 489.07 683.32 482.62 686.97 481.64C690.62 480.66 695.38 485.14 694.54 487.64L694.26 487.67ZM691.18 440.28C689.5 444.49 684.45 442.28 681.79 441.96C679.13 441.64 678.43 437.89 680.11 435.09C680.64 433.858 681.604 432.864 682.819 432.296C684.034 431.728 685.415 431.626 686.7 432.01C687.627 432.106 688.518 432.42 689.3 432.927C690.082 433.434 690.733 434.119 691.198 434.926C691.664 435.733 691.931 436.64 691.979 437.57C692.026 438.501 691.851 439.43 691.47 440.28H691.18ZM672.95 473.93C668.18 475.93 667.2 473.23 667.34 465.52C667.48 457.81 675.34 460.19 677.34 464.26C679.34 468.33 677.43 472 672.94 473.87L672.95 473.93ZM675.75 483.93C673.93 484.77 669.02 486.03 669.3 482.53C669.34 481.781 669.556 481.051 669.93 480.401C670.305 479.75 670.828 479.198 671.456 478.787C672.085 478.377 672.801 478.121 673.547 478.04C674.293 477.959 675.048 478.055 675.75 478.32C680.24 480.32 677.43 483.09 675.47 483.93H675.75ZM569.34 485.05C565.354 484.672 561.488 483.481 557.98 481.55C556.118 479.745 554.666 477.561 553.722 475.145C552.778 472.729 552.365 470.139 552.51 467.55V453.55C552.943 452.502 553.657 451.595 554.573 450.926C555.488 450.257 556.57 449.854 557.7 449.76C558.35 449.569 559.035 449.527 559.704 449.639C560.372 449.75 561.007 450.011 561.56 450.403C562.114 450.795 562.571 451.306 562.898 451.9C563.225 452.493 563.414 453.153 563.45 453.83C563.689 455.472 564.261 457.047 565.13 458.46C563.796 459.576 562.849 461.084 562.421 462.77C561.994 464.456 562.109 466.233 562.75 467.85C563.87 470.23 566.82 470.09 569.2 466.17C570.043 464.672 570.477 462.979 570.46 461.26C576.21 460.26 577.46 458.6 579.99 463.08C582.52 467.56 584.76 468.08 588.54 467.43C589.609 467.291 590.691 467.291 591.76 467.43C590.954 468.632 590.251 469.899 589.66 471.22C586.72 478.93 585.45 479.63 582.09 482.16C578.057 484.172 573.597 485.181 569.09 485.1L569.34 485.05ZM581.68 493.46C582.38 495.28 579.02 495.46 577.75 496.26C576.48 497.06 575.75 498.78 572.56 498.5C569.37 498.22 569.62 494.15 570.04 492.75C570.46 491.35 572.28 490.51 574.81 490.51C574.81 490.51 580.56 491.63 581.4 493.45L581.68 493.46ZM490.68 481.68C491.226 482.355 491.525 483.197 491.525 484.065C491.525 484.933 491.226 485.775 490.68 486.45C489.68 487.29 488.3 489.25 488.86 490.38C489.241 490.938 489.445 491.599 489.445 492.275C489.445 492.951 489.241 493.612 488.86 494.17C488.672 494.508 488.552 494.879 488.508 495.262C488.464 495.646 488.495 496.035 488.601 496.406C488.707 496.778 488.885 497.125 489.125 497.427C489.365 497.73 489.662 497.982 490 498.17L490.12 498.23C491.66 499.07 492.36 503.84 490.12 504.68C487.88 505.52 486.47 508.75 487.88 510.01C488.474 510.635 488.805 511.463 488.805 512.325C488.805 513.187 488.474 514.016 487.88 514.64C486.48 515.64 486.76 516.88 487.88 518.85C489 520.82 488.88 525.85 485.64 525.16C482.4 524.47 483.54 520.81 481.01 518.85C478.48 516.89 476.01 517.31 474.42 514.78C473.37 513.494 472.87 511.845 473.027 510.193C473.184 508.54 473.986 507.015 475.26 505.95C478.76 503.29 481.26 504.69 481.43 500.95C481.6 497.21 479.19 495.48 477.08 496.6C474.97 497.72 470.77 492.95 467.83 496.6C467.014 497.523 465.952 498.194 464.767 498.532C463.582 498.871 462.325 498.863 461.145 498.509C459.965 498.156 458.911 497.472 458.107 496.538C457.303 495.604 456.784 494.46 456.61 493.24C454.09 484.55 461.52 479.92 463.9 481.74C463.9 481.74 466.98 484.4 469.51 483.56C470.651 483.044 471.916 482.865 473.156 483.042C474.395 483.219 475.559 483.745 476.51 484.56C477.149 485.115 477.932 485.478 478.769 485.607C479.606 485.736 480.462 485.626 481.239 485.289C482.015 484.952 482.681 484.403 483.159 483.704C483.637 483.006 483.908 482.186 483.94 481.34C483.94 477.98 486.04 476.57 485.62 472.79C485.2 469.01 488.28 467.79 490.25 468.58C491.441 469.357 492.282 470.568 492.596 471.955C492.91 473.342 492.671 474.796 491.93 476.01C490.69 478.35 489.15 480.32 490.69 481.58L490.68 481.68ZM439.51 483.36C441.19 479.15 444.7 478.45 446.51 479.57C448.32 480.69 447.91 482.51 446.51 485.32C445.11 488.13 446.51 492.47 443.29 493.03C440.07 493.59 437.54 487.7 439.22 483.36H439.51ZM439.51 465.7C440.77 464.44 442.31 465.7 443.72 466.96C445.13 468.22 443.72 472.15 441.72 470.75C439.72 469.35 437.09 467.1 438.64 465.75L439.51 465.7ZM445.26 460.09C441.267 459.756 437.247 460.039 433.34 460.93C432.836 461.188 432.398 461.559 432.062 462.014C431.726 462.47 431.501 462.998 431.404 463.555C431.307 464.113 431.341 464.686 431.504 465.228C431.666 465.77 431.952 466.267 432.34 466.68C433.57 468.192 434.432 469.969 434.86 471.87C433.18 471.87 429.39 469.63 427.99 469.07L422.52 466.69V464.59C422.52 460.52 421.26 454.08 424.2 450.59C427.14 447.1 431.49 445.82 433.03 448.07C434.57 450.32 433.03 448.77 433.03 449.33H432.03C427.82 451.71 425.58 457.6 429.37 458.33C430.967 458.453 432.567 458.139 433.999 457.422C435.431 456.705 436.641 455.612 437.5 454.26C439.216 455.473 441.293 456.065 443.39 455.94C445.743 456.086 448.095 455.636 450.228 454.631C452.361 453.626 454.205 452.098 455.59 450.19C457.69 447.95 461.76 447.11 463.59 450.19L464.29 450.89C464.884 452.365 465.222 453.931 465.29 455.52C465.29 458.18 465.29 459.87 467.53 460.85C468.657 461.387 469.913 461.594 471.152 461.445C472.391 461.296 473.563 460.799 474.53 460.01C474.53 460.01 477.89 457.07 478.88 460.01C479.002 462.065 479.002 464.125 478.88 466.18C478.815 466.925 478.815 467.675 478.88 468.42C478.04 472.77 477.06 474.73 472.88 475.29C467.196 474.675 461.627 473.257 456.34 471.08C453.838 470.397 451.654 468.858 450.17 466.73C448.63 463.93 446.67 460.56 444.42 460.14L445.26 460.09ZM431.26 486.31C429.58 486.31 424.81 485.47 424.67 483.23C424.53 480.99 426.48 480 430 481C436.31 482.68 433.65 486.19 430.56 486.19L431.26 486.31ZM378.55 470.89C376.45 472.99 376.31 475.38 375.19 477.06C374.94 477.357 374.629 477.595 374.277 477.759C373.926 477.922 373.543 478.007 373.155 478.007C372.767 478.007 372.384 477.922 372.033 477.759C371.681 477.595 371.37 477.357 371.12 477.06C371.12 476.06 370 475.8 367.47 475.66C364.94 475.52 364.39 475.66 363.54 473.84C363.07 473.16 362.818 472.352 362.818 471.525C362.818 470.698 363.07 469.89 363.54 469.21C364.54 467.81 366.9 467.67 368.87 467.81C371.011 467.657 373.059 466.878 374.76 465.57C376.76 464.45 378.83 463.89 380.09 465.57C381.35 467.25 380.5 468.82 378.53 470.78L378.55 470.89ZM378.55 490.52C377.585 491.437 376.306 491.948 374.975 491.948C373.644 491.948 372.365 491.437 371.4 490.52C369.3 488.28 372.1 484.35 374.62 483.52C377.14 482.69 378.55 482.82 379.81 484.52C381.07 486.22 380.36 488.73 378.53 490.41L378.55 490.52ZM342.1 451.97C342.1 452.97 342.1 454.21 340.42 454.63C339.3 454.969 338.349 455.719 337.76 456.73C337.45 457.289 336.973 457.738 336.396 458.014C335.819 458.29 335.17 458.379 334.54 458.27C333.42 458.27 333.42 457.15 332.16 455.61C331.625 454.903 331.336 454.041 331.336 453.155C331.336 452.269 331.625 451.407 332.16 450.7C333 449.02 334.4 449.16 335.95 449.16C338.262 449.249 340.454 450.214 342.08 451.86L342.1 451.97ZM342.1 441.74C342.467 442.154 342.687 442.676 342.728 443.227C342.768 443.779 342.626 444.328 342.324 444.791C342.022 445.253 341.576 445.604 341.054 445.788C340.533 445.972 339.966 445.98 339.44 445.81C336.36 445.81 336.36 442.73 335.79 441.04C335.22 439.35 337.89 436.97 342.38 441.74H342.1ZM336.49 465.29C338.59 465.29 339.85 464.29 342.1 462.35C344.35 460.41 345.75 462.35 344.76 463.75C344.296 464.927 343.961 466.151 343.76 467.4C343.298 468.11 342.644 468.674 341.874 469.028C341.104 469.382 340.25 469.511 339.41 469.4C337.41 469.4 336.05 470.24 334.22 471.64C333.395 472.182 332.391 472.381 331.422 472.194C330.453 472.007 329.595 471.45 329.03 470.64C328.863 470.312 328.762 469.954 328.733 469.587C328.704 469.219 328.748 468.85 328.863 468.5C328.977 468.15 329.159 467.825 329.399 467.546C329.639 467.266 329.931 467.036 330.26 466.87C332.108 465.674 334.281 465.08 336.48 465.17L336.49 465.29ZM339.29 479.29C338.939 480.302 338.273 481.175 337.389 481.78C336.505 482.385 335.45 482.69 334.38 482.65C332.38 482.65 331.16 481.11 332.38 478.86C332.842 478.042 333.556 477.395 334.416 477.017C335.276 476.638 336.235 476.548 337.15 476.76C337.735 476.959 338.22 477.376 338.507 477.923C338.793 478.47 338.859 479.106 338.69 479.7L339.29 479.29ZM330.29 502.29C331.249 500.999 332.646 500.102 334.22 499.77H337.87C338.315 500.501 338.488 501.366 338.36 502.212C338.232 503.058 337.811 503.833 337.17 504.4C336.363 505.022 335.434 505.469 334.443 505.71C333.453 505.951 332.423 505.982 331.42 505.8C328.9 506.5 328.9 504.54 329.74 502.72L330.29 502.29ZM336.46 493.46C334.92 493.46 332.11 493.46 331.69 491.92C331.391 491.305 331.34 490.597 331.548 489.946C331.757 489.294 332.209 488.747 332.81 488.42C334.21 487.42 336.46 487.58 337.81 486.88C339.034 486.133 340.162 485.24 341.17 484.22C341.758 483.703 342.453 483.323 343.205 483.105C343.956 482.887 344.747 482.838 345.52 482.96C346.52 482.96 347.34 484.22 347.06 486.18C346.392 488.045 345.231 489.694 343.7 490.95C341.571 492.555 339.056 493.569 336.41 493.89L336.46 493.46ZM344.46 497.25C344.46 496.41 346 495.25 348.67 495.57C351.34 495.89 352.03 495.57 352.46 494.57C352.668 494.349 352.937 494.194 353.233 494.126C353.529 494.057 353.839 494.078 354.123 494.184C354.407 494.291 354.654 494.48 354.831 494.726C355.008 494.973 355.109 495.266 355.12 495.57C355.12 497.67 352.88 499.36 351.05 500.2C349.22 501.04 346.98 502.58 345.05 501.32C344.738 501.16 344.461 500.941 344.234 500.674C344.008 500.407 343.836 500.097 343.729 499.764C343.622 499.43 343.583 499.079 343.612 498.73C343.641 498.381 343.739 498.041 343.9 497.73V497.67L344.46 497.25ZM352 478.35C348.64 479.47 347.23 477.51 345.55 475.97C345.234 475.658 344.997 475.276 344.858 474.854C344.719 474.433 344.682 473.984 344.75 473.546C344.819 473.107 344.99 472.691 345.251 472.332C345.512 471.973 345.854 471.681 346.25 471.48C347.65 470.48 348.35 468.96 349.61 467.98C350.337 467.319 351.229 466.867 352.191 466.67C353.154 466.472 354.152 466.538 355.08 466.86C356.76 466.86 356.9 469.94 357.18 472.75C357.46 475.56 354.8 477.75 351.43 478.75L352 478.35ZM348.92 450.35C348.92 448.11 350.18 447.27 352 447.41C354.735 447.97 357.378 448.913 359.85 450.21C361.95 451.75 361.53 453.86 359.85 456.66C358.17 459.46 355.78 458.2 352.85 458.48C349.92 458.76 350.19 456.38 350.33 454.41C350.47 452.44 349.07 452.87 348.33 450.76L348.92 450.35ZM360.28 440.54C359.28 442.92 356.35 441.54 354.81 441.38C353.27 441.22 352.81 439.14 353.81 437.45C354.145 436.732 354.724 436.155 355.443 435.822C356.162 435.489 356.976 435.421 357.74 435.63C358.278 435.774 358.773 436.045 359.185 436.419C359.598 436.793 359.915 437.26 360.11 437.781C360.306 438.302 360.374 438.862 360.31 439.415C360.245 439.968 360.05 440.498 359.74 440.96L360.28 440.54ZM356.07 410.96C355.478 411.164 354.846 411.224 354.226 411.135C353.606 411.045 353.017 410.809 352.507 410.445C351.997 410.082 351.581 409.602 351.294 409.045C351.008 408.488 350.858 407.871 350.858 407.245C350.858 406.619 351.008 406.002 351.294 405.445C351.581 404.888 351.997 404.408 352.507 404.045C353.017 403.681 353.606 403.445 354.226 403.355C354.846 403.266 355.478 403.326 356.07 403.53C360.14 406.33 358.73 410.12 355.51 411.38L356.07 410.96ZM352.28 423.86C352.28 425.26 353.28 425.54 352.28 427.51C351.28 429.48 349.9 428.35 347.65 427.51C346.472 426.714 345.569 425.571 345.068 424.241C344.566 422.91 344.49 421.456 344.85 420.08C345.85 417.42 347.37 418.4 349.2 418.82C351.03 419.24 351.72 422.61 351.72 424.29L352.28 423.86ZM355.78 485.27C356.107 483.931 356.787 482.705 357.749 481.718C358.711 480.732 359.92 480.021 361.25 479.66C364.05 479.66 365.18 480.78 365.32 482.18C365.188 483.784 364.64 485.327 363.73 486.654C362.82 487.982 361.579 489.049 360.13 489.75C356.2 491.29 354.13 488.75 355.22 485.68L355.78 485.27ZM366.15 434.38C366.15 432.84 367.69 430.45 370.5 434.38C372.337 437.33 374.45 440.099 376.81 442.65C377.324 443.159 377.698 443.792 377.896 444.488C378.094 445.184 378.109 445.919 377.94 446.623C377.772 447.326 377.424 447.975 376.932 448.505C376.44 449.035 375.819 449.429 375.13 449.65C372.47 449.65 369.8 449.65 368.4 447.13C367 444.61 367.14 444.47 366.4 443.34C365.902 442.862 365.556 442.247 365.406 441.572C365.257 440.898 365.31 440.194 365.56 439.55C366.367 437.935 366.593 436.092 366.2 434.33L366.15 434.38ZM378.49 420.38C380.589 421.059 382.649 421.853 384.66 422.76C387.32 424.16 386.34 426.69 383.82 429.35C381.3 432.01 381.82 434.26 379.89 435.24C377.96 436.22 376.81 433 377.09 431.31C377.325 429.047 376.782 426.772 375.55 424.86C374.33 421.71 376.71 420.31 378.53 420.31L378.49 420.38ZM365.87 458.23C367.907 457.632 369.879 456.835 371.76 455.85C373.76 455.15 374.98 455.85 375.41 457.11C375.84 458.37 374.29 459.49 372.33 459.49C370.37 459.49 369.81 460.61 368.97 461.73C368.13 462.85 364.48 462.43 364.48 462.43C364.48 462.43 362.94 458.5 365.88 458.08L365.87 458.23ZM382.18 454C384.98 452.46 386.25 450.64 386.39 449.23C386.53 447.82 387.39 445.16 390.04 446.43C392.69 447.7 390.04 454.28 390.04 454.28C390.04 454.28 390.04 459.28 387.52 459.47C385.486 459.795 383.403 459.399 381.63 458.35C379.63 457.23 379.39 455.41 382.19 453.86L382.18 454ZM396.9 439.28C394.9 441.1 391.57 439.28 391.57 439.28C389.05 439.28 387.78 437.6 387.92 436.34C388.06 435.08 387.92 434.1 390.44 433.26C392.96 432.42 393.52 431.16 394.51 433.26C395.5 435.36 398.58 437.61 396.89 439.15L396.9 439.28ZM400.12 449.09C402.12 450.35 401.12 455.4 398.12 455.54C395.12 455.68 395.46 452.32 396.3 450.21C396.357 449.797 396.515 449.405 396.76 449.069C397.005 448.732 397.33 448.461 397.706 448.281C398.081 448.101 398.496 448.016 398.912 448.035C399.328 448.054 399.733 448.176 400.09 448.39L400.12 449.09ZM386.8 473.34C387.745 472.923 388.767 472.707 389.8 472.707C390.833 472.707 391.855 472.923 392.8 473.34C394.62 474.18 395.6 474.74 395.32 475.86C395.04 476.98 391.67 476.98 390.41 477.86C389.15 478.74 388.87 479.4 387.33 479.54C385.79 479.68 384.53 479.54 384.95 477.72C385.37 475.9 385.23 474.07 386.77 473.23L386.8 473.34ZM392.55 462.4C393.39 461.28 394.79 461.14 396.76 461.14C398.73 461.14 402.93 463.24 403.07 464.93C403.21 466.62 402.23 467.17 396.76 467.17C391.29 467.17 391 463.21 392.55 462.37V462.4ZM401 428C401.47 427.203 402.206 426.598 403.079 426.291C403.951 425.984 404.904 425.994 405.77 426.32C405.77 426.32 410.96 427.02 411.77 428.7C412.58 430.38 409.39 430.52 408.27 431.08C407.15 431.64 406.59 433.46 403.5 433.18C400.41 432.9 400.42 428.97 400.56 427.71L401 428ZM402.54 394.07C403.54 391.27 404.92 391.83 406.89 392.95C408.86 394.07 408.99 400.52 408.57 403.18C408.425 403.868 408.097 404.505 407.621 405.024C407.146 405.542 406.54 405.924 405.866 406.128C405.193 406.332 404.477 406.352 403.793 406.186C403.11 406.019 402.484 405.671 401.98 405.18C398.62 402.8 400.98 396.49 402.12 393.82L402.54 394.07ZM406.61 451.55C408.85 450.43 411.24 450.55 411.38 452.25C411.566 453.08 411.566 453.94 411.38 454.77C411.38 457.01 411.38 458.98 408.72 459.96C406.06 460.94 404.79 460.96 404.09 459.96C403.39 458.96 404.09 457.58 404.09 456.03C403.908 455.115 404.057 454.164 404.511 453.349C404.966 452.533 405.696 451.906 406.57 451.58L406.61 451.55ZM407.31 469.35C408.422 468.836 409.404 468.076 410.181 467.129C410.959 466.182 411.512 465.071 411.8 463.88C411.8 462.2 414.46 461.08 415.16 463.04C416.008 465.348 416.008 467.882 415.16 470.19C414.706 471.296 413.926 472.237 412.924 472.889C411.922 473.541 410.745 473.873 409.55 473.84C407.03 473.84 405.34 474.54 404.36 473.84C403.38 473.14 404.78 470.62 407.58 469.35H407.31ZM412 443C411.004 443.252 409.953 443.185 408.997 442.808C408.041 442.431 407.227 441.764 406.67 440.9C406.446 440.207 406.406 439.468 406.553 438.754C406.7 438.041 407.03 437.378 407.51 436.83C407.646 436.508 407.845 436.216 408.094 435.971C408.343 435.726 408.639 435.533 408.963 435.402C409.287 435.271 409.634 435.205 409.983 435.208C410.333 435.211 410.678 435.283 411 435.42L411.29 435.57C411.29 435.57 414.79 436.97 416.48 437.39C418.17 437.81 417.88 439.63 416.48 440.05C415.08 440.47 414.24 442.15 412.27 442.99L412 443ZM409.9 419.45C409.9 414.96 412.56 411.88 416.35 412.58C422.52 413.84 421.82 417.77 418.87 420.58C415.92 423.39 409.87 424.08 410.18 419.46L409.9 419.45ZM418.31 387.45C421.11 388.29 421.11 392.22 418.31 395.58C415.51 398.94 413.68 395.58 414.1 391.23C414.52 386.88 416.2 386.74 418.59 387.44L418.31 387.45ZM420.59 371C423.81 366.79 430.68 372.54 433.21 376C435.74 379.46 433.21 382 424.52 382.31C415.83 382.62 416.67 375.17 420.59 371ZM428.44 398.2C432.65 398.2 430.96 402.83 430.26 406.89C427.18 420.89 423.39 408.15 423.39 408.15C416.66 402.68 423.39 397.78 427.74 398.15L428.44 398.2ZM424.65 437.88C425.65 435.64 427.17 435.78 428.86 436.34C430.55 436.9 432.36 440.55 428.86 442.23C425.36 443.91 422.97 439.99 423.95 437.88H424.65ZM450.17 388.81C449.842 389.567 449.343 390.237 448.711 390.768C448.08 391.299 447.335 391.676 446.533 391.87C445.732 392.063 444.896 392.069 444.092 391.885C443.288 391.701 442.538 391.333 441.9 390.81C438.82 388.43 441.9 384.64 442.74 382.4C443.58 380.16 446.81 380.58 448.91 382.4C449.828 383.189 450.4 384.305 450.505 385.511C450.609 386.716 450.238 387.915 449.47 388.85L450.17 388.81ZM450.17 427.5C450.17 432.27 446.1 432.41 443.44 430.44C440.78 428.47 442.32 420.63 442.6 417.26C442.88 413.89 445.4 413.9 447.6 416C449.8 418.1 450.4 422.87 449.98 427.5H450.17ZM445.17 398.62C445.798 398.748 446.382 399.039 446.862 399.465C447.341 399.89 447.701 400.434 447.904 401.042C448.106 401.65 448.145 402.301 448.016 402.929C447.888 403.558 447.596 404.141 447.17 404.62C445.49 406.62 442.82 407.42 441 404.62C439.18 401.82 441.84 397.75 445.07 398.62H445.17ZM444.17 441.8C447.11 440.4 449.92 443.34 449.92 446.29C449.92 449.24 447.68 450.5 445.29 451.29C444.123 451.658 442.858 451.549 441.771 450.987C440.684 450.424 439.864 449.455 439.49 448.29C439.457 448.183 439.427 448.073 439.4 447.96C438.7 445.02 440.94 443.19 444.03 441.79L444.17 441.8ZM458.17 402.97C454.24 403.67 453.96 396.24 455.51 391.75C457.06 387.26 460.84 386.75 462.94 390.75C463.625 391.809 464.053 393.013 464.193 394.266C464.332 395.519 464.177 396.788 463.742 397.971C463.306 399.155 462.602 400.221 461.683 401.085C460.765 401.949 459.658 402.587 458.45 402.95L458.17 402.97ZM457 430C456.219 429.055 455.845 427.839 455.959 426.619C456.074 425.399 456.667 424.273 457.61 423.49L457.7 423.42C459.52 423.42 460.78 423.42 461.35 425.8C461.92 428.18 459.35 431.69 457.28 430.01L457 430ZM500.32 392.29C505.09 399.44 496.96 403.09 492.75 402.8C488.54 402.51 492.75 396.63 493.45 392.71C494.15 388.79 498 388.49 500.36 392.27L500.32 392.29ZM496.39 372.29C499.47 369.77 501.86 374.53 503.26 378.18C504.66 381.83 504.52 382.95 499.47 383.18C494.42 383.41 495.12 381.92 494.84 378.97C494.56 376.02 493.44 374.9 496.38 372.38L496.39 372.29ZM492.04 406.36C492.453 406.452 492.844 406.625 493.191 406.869C493.537 407.112 493.832 407.421 494.058 407.779C494.285 408.137 494.439 408.535 494.511 408.953C494.584 409.37 494.573 409.797 494.48 410.21L494.42 410.42C493.58 412.24 491.62 412.42 489.42 412.24C488.946 412.151 488.503 411.942 488.134 411.631C487.765 411.321 487.482 410.921 487.313 410.469C487.144 410.017 487.095 409.53 487.169 409.053C487.244 408.577 487.441 408.128 487.74 407.75C488.87 406.29 490.69 406.29 492.09 406.29L492.04 406.36ZM479.42 388.84C473.67 389.54 479.42 379.17 481.94 376.08C484.46 372.99 486.57 374.4 487.69 378.88C490.63 387.71 485.31 388.41 479.42 389.25V388.84ZM485.17 402.84C483.49 406.34 479.84 406.06 475.78 401.16C471.72 396.26 481.53 393.31 484.78 394.43C488.03 395.55 487.19 398.58 485.22 402.79L485.17 402.84ZM482.65 423.73C482.04 423.988 481.37 424.074 480.715 423.981C480.059 423.887 479.441 423.616 478.927 423.198C478.413 422.78 478.022 422.229 477.798 421.606C477.573 420.983 477.522 420.31 477.65 419.66C477.65 417 479.47 414.75 482.65 416.01C485.83 417.27 486.06 422.42 482.7 423.68L482.65 423.73ZM473.54 437.73C477.89 439.13 476.2 443.34 474.38 444.88C473.78 445.182 473.115 445.33 472.444 445.313C471.773 445.295 471.117 445.112 470.534 444.78C469.951 444.447 469.459 443.975 469.103 443.407C468.746 442.838 468.535 442.19 468.49 441.52C468.49 437.45 470.31 435.91 473.49 437.03L473.54 437.73ZM469.61 419.5C471.29 419.5 472.55 419.5 473.26 421.74C473.97 423.98 470.88 427.91 468.77 426.23C468.234 425.737 467.821 425.124 467.566 424.441C467.312 423.759 467.221 423.026 467.303 422.302C467.385 421.578 467.637 420.883 468.037 420.275C468.438 419.666 468.977 419.161 469.61 418.8V419.5ZM473.4 411.5C472.996 411.646 472.562 411.686 472.138 411.617C471.715 411.548 471.316 411.372 470.979 411.106C470.643 410.839 470.38 410.491 470.215 410.095C470.051 409.698 469.991 409.266 470.04 408.84C470.04 407.16 471.3 406.6 473.4 406.6C475.5 406.6 477.05 408.6 476.62 409.68C476.19 410.76 475.22 410.38 473.4 410.8V411.5ZM473.4 368.6C465.97 367.06 466.95 364.25 469.19 360.19C471.43 356.13 475.36 354.3 478.19 356.83C485.9 362.83 480.43 369.45 473.28 367.91L473.4 368.6ZM470.74 373.6C472.84 373.6 474.39 375 475.23 377.67C475.584 378.86 475.46 380.14 474.885 381.24C474.31 382.34 473.329 383.172 472.15 383.56C470.98 383.973 469.705 383.977 468.533 383.57C467.361 383.163 466.362 382.37 465.7 381.32C465.269 380.284 465.158 379.142 465.383 378.042C465.607 376.942 466.157 375.934 466.96 375.15C467.907 374.034 469.186 373.249 470.61 372.91L470.74 373.6ZM490.65 461.5C488.83 463.04 487.57 460.66 487.43 459.26C487.29 457.86 488.27 455.61 489.81 456.04C491.35 456.47 492.65 460 490.69 461.53L490.65 461.5ZM490.65 440.61C489.95 438.37 490.65 434.44 493.03 436.12C494.323 436.997 495.215 438.351 495.509 439.885C495.803 441.419 495.477 443.007 494.6 444.3L494.43 444.53C493.21 445.55 491.67 442.74 490.69 440.64L490.65 440.61ZM494.15 429.39C488.96 430.39 488.96 426.31 489.94 423.08C490.92 419.85 492.32 418.31 494.85 419.29C496.295 420.007 497.701 420.801 499.06 421.67C502.14 423.21 499.76 428.4 494.57 429.38L494.15 429.39ZM501.86 407.66C502.189 407.015 502.691 406.474 503.308 406.096C503.926 405.718 504.636 405.517 505.36 405.517C506.084 405.517 506.794 405.718 507.412 406.096C508.03 406.474 508.531 407.015 508.86 407.66C511.52 413.13 505.78 417.33 501.15 416.66C496.52 415.99 500.31 411.19 502.27 407.66H501.86ZM539.71 384.11C540.242 385.775 540.259 387.562 539.76 389.237C539.26 390.912 538.267 392.398 536.91 393.5C535.23 394.9 534.25 391.82 533.41 388.59C533.335 387.951 533.11 387.34 532.753 386.805C532.396 386.27 531.917 385.827 531.356 385.513C530.795 385.199 530.168 385.022 529.525 384.997C528.883 384.973 528.244 385.1 527.66 385.37C522.75 387.19 521.66 380.04 522.19 375.37C522.72 370.7 524.57 368.5 527.66 369.37C530.75 370.24 530.88 376.1 531.59 377.92C532.3 379.74 534.81 379.04 534.81 379.04C534.81 379.04 539.16 378.2 540.14 384.04L539.71 384.11ZM658.88 406.26C660.88 408.78 661.26 410.75 659.72 412.85C658.18 414.95 654.81 414.53 652.29 413.55C650.826 412.746 649.731 411.406 649.235 409.812C648.739 408.217 648.88 406.492 649.63 405C652.05 401.53 657.38 403.63 658.92 406.29L658.88 406.26ZM653.69 388.03C655.09 386.77 657.19 386.77 657.76 389.15C658.33 391.53 657.76 392.65 655.66 394.15C655.474 394.402 655.232 394.607 654.952 394.749C654.672 394.89 654.363 394.963 654.05 394.963C653.737 394.963 653.428 394.89 653.148 394.749C652.868 394.607 652.626 394.402 652.44 394.15C651.81 393.085 651.619 391.817 651.906 390.614C652.193 389.41 652.937 388.365 653.98 387.7L653.69 388.03ZM652.43 432.89C654.25 431.07 655.93 430.51 657.06 432.89C658.19 435.27 657.06 441.02 653.13 439.62C649.2 438.22 651.13 434.29 652.71 432.62L652.43 432.89ZM650.05 426.3C644.58 430.09 642.34 426.3 642.2 420.97C642.06 415.64 644.58 415.78 648.09 416.76C651.6 417.74 655.66 422.23 650.33 426.01L650.05 426.3ZM646.26 394.06C644.72 399.39 641.91 395.88 638.13 394.06C634.35 392.24 635.89 389.15 638.13 385.51C640.37 381.87 644.86 379.9 648.5 384.11C652.14 388.32 647.94 388.6 646.5 393.78L646.26 394.06ZM635 380.78C632.76 381.62 629.53 379.52 630.37 377.28C631.21 375.04 632.61 374.9 635 376.44C635.366 376.627 635.677 376.905 635.903 377.248C636.129 377.591 636.263 377.986 636.291 378.396C636.319 378.806 636.241 379.216 636.064 379.586C635.887 379.956 635.617 380.275 635.28 380.51L635 380.78ZM635 400.69C638.65 400.69 639.49 402.23 640.47 405.46C640.597 405.895 640.627 406.353 640.557 406.801C640.487 407.249 640.318 407.675 640.064 408.051C639.81 408.426 639.477 408.741 639.087 408.972C638.697 409.204 638.261 409.346 637.81 409.39C636.313 409.642 634.776 409.357 633.468 408.587C632.16 407.817 631.166 406.611 630.66 405.18C629.96 402.52 630.94 399.85 634.87 400.41L635 400.69ZM623.78 433.08C621.26 430.56 623.78 426.77 626.02 427.75C627.594 428.074 629.069 428.765 630.326 429.766C631.583 430.766 632.586 432.049 633.255 433.509C633.924 434.97 634.24 436.568 634.176 438.173C634.113 439.779 633.672 441.347 632.89 442.75C629.81 449.34 625.89 447.94 626.58 444.01C627.023 442.041 626.987 439.995 626.475 438.042C625.964 436.09 624.992 434.289 623.64 432.79L623.78 433.08ZM621.12 461.08C621.82 459.96 624.48 459.4 625.19 461.08C625.9 462.76 623.79 465.57 621.4 465.15C619.01 464.73 620 461.5 620.98 460.38L621.12 461.08ZM619.44 456.08C617.44 454.96 619.44 453 620.44 452.29C621.44 451.58 624.23 452.29 624.37 453.41C624.51 454.53 621.57 456.63 619.37 455.41L619.44 456.08ZM630.94 415.7C630.94 419.77 628.14 421.7 621.55 419.63C614.96 417.56 622.25 409.26 625.62 408.41C628.99 407.56 630.89 410.92 630.89 415.69L630.94 415.7ZM619.86 437.57C620.662 438.645 621.164 439.914 621.314 441.247C621.465 442.58 621.258 443.929 620.716 445.156C620.174 446.383 619.315 447.444 618.228 448.23C617.141 449.016 615.865 449.499 614.53 449.63C608.64 450.89 608.22 446.13 610.46 444.63C612.7 443.13 612.28 442.25 614.53 438.32C616.78 434.39 618.83 435.73 619.81 437.56L619.86 437.57ZM611.31 420.33C611.31 423.27 608.79 424.4 604.58 422.01C602.808 421.24 601.35 419.892 600.442 418.187C599.534 416.482 599.23 414.52 599.58 412.62C599.682 411.901 599.938 411.214 600.333 410.604C600.727 409.995 601.249 409.479 601.863 409.091C602.476 408.704 603.167 408.455 603.887 408.362C604.606 408.268 605.338 408.332 606.03 408.55C612.94 411.2 611.4 418.07 611.26 420.31L611.31 420.33ZM599.2 401C597.361 402.008 595.437 402.851 593.45 403.52C592.13 404.629 590.909 405.85 589.8 407.17C589.182 407.847 588.42 408.378 587.571 408.724C586.721 409.07 585.806 409.223 584.89 409.17C583.63 409.17 582.51 407.77 582.65 405.67C583.108 403.316 584.281 401.162 586.01 399.5C588.279 397.344 591.176 395.968 594.28 395.57C596.28 395.57 599.28 395.57 600.17 396.69C600.505 397.035 600.75 397.458 600.884 397.92C601.018 398.382 601.036 398.87 600.938 399.341C600.839 399.812 600.626 400.251 600.318 400.621C600.01 400.99 599.616 401.278 599.17 401.46L599.2 401ZM585.2 378C587.58 375.9 589.41 378 590.2 380.66C591.049 382.402 591.247 384.391 590.759 386.266C590.272 388.142 589.13 389.782 587.54 390.89C581.79 394.25 583.47 388.79 583.47 388.79C585.57 384.02 582.63 380.38 585.29 378.28L585.2 378ZM583.2 370.43C578.99 367.35 583.2 363.98 585.86 362.3C586.951 361.564 588.281 361.271 589.581 361.479C590.881 361.687 592.053 362.381 592.86 363.42C599.59 369.87 587.53 373.93 583.33 370.85L583.2 370.43ZM585.3 357.81C578.43 357.81 579.13 355.01 582.36 348.7C585.59 342.39 589.23 345.76 591.89 348C594.55 350.24 592.31 357.53 585.44 358.23L585.3 357.81ZM582.5 436.18C586.43 439.83 581.24 445.99 577.73 445.01C574.22 444.03 574.79 439.26 576.61 436.6C578.43 433.94 580.11 434.36 582.61 436.6L582.5 436.18ZM560.77 441.18C556.42 437.25 567.08 430.1 570.44 427.18C573.8 424.26 576.75 427.18 573.8 429.84C570.85 432.5 569.73 433.77 570.15 436.99C571.3 444.57 565.41 445.13 560.79 441.2L560.77 441.18ZM558.25 399.12C555.17 395.62 558.25 393.23 561.9 392.12C563.237 391.652 564.676 391.561 566.061 391.858C567.446 392.154 568.722 392.826 569.75 393.8C571.75 395.48 571.85 398.43 568.49 400.95C567.75 401.498 566.91 401.895 566.017 402.117C565.124 402.34 564.195 402.384 563.285 402.248C562.375 402.111 561.5 401.796 560.712 401.321C559.923 400.847 559.236 400.221 558.69 399.48L558.54 399.27L558.25 399.12ZM568.48 418.19C565.12 419.19 563.29 414.12 564.41 411.04C564.874 409.84 565.678 408.802 566.725 408.054C567.772 407.306 569.014 406.88 570.3 406.83C574.23 405.99 573.1 406.83 576.47 409.35C579.84 411.87 579.97 416.5 576.47 416.5C573.815 416.662 571.207 417.277 568.76 418.32L568.48 418.19ZM577.17 387.91C575.07 389.59 572.54 386.65 571.42 385.53C570.3 384.41 571.42 382.03 573.1 380.2C573.352 379.629 573.765 379.144 574.288 378.804C574.811 378.463 575.421 378.282 576.045 378.282C576.669 378.282 577.279 378.463 577.802 378.804C578.325 379.144 578.738 379.629 578.99 380.2C579.63 381.496 579.826 382.967 579.547 384.385C579.269 385.804 578.532 387.092 577.45 388.05L577.17 387.91ZM567.5 351.18C562.5 350.48 563.57 344.18 565.12 340.81C566.67 337.44 568.77 336.88 572.83 338.43C576.89 339.98 577.46 341.23 577.04 345.72C576.62 350.21 572.83 351.89 567.79 351.33L567.5 351.18ZM568.5 359.87C573.13 359.87 576.5 357.21 574.81 365.62C573.12 374.03 570.32 372.07 566.26 369.41C562.2 366.75 559.26 364.22 560.79 361.41C562.32 358.6 564.86 360.29 568.79 360.01L568.5 359.87ZM562.33 372.77C562.33 372.77 565.69 373.61 565.98 378.66C566.205 380.57 565.79 382.5 564.8 384.148C563.81 385.797 562.301 387.071 560.51 387.77C557.43 389.17 557.43 381.6 557.43 377.77C557.43 373.94 559.11 372.77 562.62 372.86L562.33 372.77ZM554.76 356.77C551.96 356.77 549.57 355.65 551.82 351.02C554.07 346.39 557.15 346.25 558.13 348.36C562.76 357.36 555.05 356.91 555.05 356.91L554.76 356.77ZM552.24 370.77C552.24 373.99 552.24 376.94 547.89 376.1C543.54 375.26 542.14 374.7 542.14 372.03C542.14 369.36 544.94 369.09 545.5 366.42C546.06 363.75 545.5 359.83 549.15 361.51C552.8 363.19 552.51 369.51 552.51 370.9L552.24 370.77ZM550.98 393.77C548.46 396.15 545.51 390.69 546.21 386.06C546.91 381.43 549.15 380.45 550.98 382.13C552.414 383.742 553.23 385.811 553.281 387.969C553.332 390.126 552.616 392.231 551.26 393.91L550.98 393.77ZM541.45 355.77C540.643 355.363 539.93 354.791 539.358 354.091C538.787 353.391 538.368 352.578 538.131 351.706C537.893 350.834 537.841 349.921 537.979 349.028C538.117 348.135 538.441 347.28 538.93 346.52C540.93 344.98 542.86 345.26 544.93 347.78C547 350.3 545.21 357.03 541.71 355.91L541.45 355.77ZM539.9 411.9C537.1 413.44 536.54 416.25 532.75 417.37C528.96 418.49 531.07 410.08 533.59 406.01C536.11 401.94 539.06 404.01 540.46 406.01C540.879 406.399 541.209 406.875 541.425 407.404C541.642 407.933 541.74 408.504 541.714 409.075C541.687 409.646 541.536 410.205 541.271 410.712C541.006 411.219 540.634 411.662 540.18 412.01L539.9 411.9ZM524.34 400.4C525.88 399 527.14 399.7 527.7 401.1C528.26 402.5 527.7 402.36 526.7 406.1C525.7 409.84 522.63 411.99 519.13 411.43C515.63 410.87 517.03 406.24 519.13 404.98C521.282 403.937 523.157 402.398 524.6 400.49L524.34 400.4ZM510.34 399.4C505.71 399.4 505.85 393.79 508.24 390.99C510.63 388.19 511.89 388.19 515.67 389.45C516.943 389.779 518.055 390.555 518.802 391.637C519.55 392.718 519.883 394.033 519.74 395.34C520.58 398.84 515.95 399.69 511.19 399.55L510.34 399.4ZM510.34 367.58C510.669 367.194 511.077 366.884 511.537 366.672C511.997 366.459 512.498 366.349 513.005 366.349C513.512 366.349 514.013 366.459 514.473 366.672C514.933 366.884 515.341 367.194 515.67 367.58C516.618 369.143 517.119 370.937 517.119 372.765C517.119 374.593 516.618 376.387 515.67 377.95C513.29 381.17 509.78 380.47 508.8 376.83C508.156 375.304 507.985 373.62 508.31 371.995C508.634 370.371 509.439 368.882 510.62 367.72L510.34 367.58ZM508.94 360.85C503.61 363.51 503.05 358.75 504.73 353C506.41 347.25 507.39 348 513 347.25C518.61 346.5 518 348.51 518.75 353C519.5 357.49 514.4 358.61 509.22 361L508.94 360.85ZM501.94 440.62C501.94 438.62 503.2 438.94 505.02 439.22C506.84 439.5 507.02 441.04 507.26 444.22C507.5 447.4 505.26 449.83 503.61 449.69C501.96 449.55 501.09 447.87 501.61 446.19C502.003 444.394 502.191 442.559 502.17 440.72L501.94 440.62ZM505.44 422.96C503.44 420.86 506.7 419.46 509.37 418.19C512.04 416.92 512.31 417.19 514.28 418.89C516.25 420.59 518.21 423.8 517.64 425.34C517.07 426.88 514.98 426.18 511.19 427.58C507.4 428.98 507.69 425.2 505.72 423.09L505.44 422.96ZM513.15 437.68C513.15 435.58 514.55 435.3 515.95 434.46C516.733 434.103 517.625 434.063 518.436 434.351C519.248 434.638 519.916 435.229 520.3 436C521.082 437.716 522.487 439.071 524.23 439.79C526.33 440.63 527.73 439.79 527.73 442.73C527.73 445.67 523.52 445.95 521.73 446.23C519.283 446.331 516.87 445.629 514.86 444.23C512.76 442.97 513.18 439.88 513.46 437.78L513.15 437.68ZM523.15 428.43C521.61 424.93 523.15 421.14 527.08 422.26C531.01 423.38 530.44 425.06 534.08 424.92C537.72 424.78 538.29 426.92 537.3 428.42C536.31 429.92 535.48 429.42 531.83 431.5C531.103 431.946 530.286 432.224 529.438 432.315C528.59 432.406 527.732 432.307 526.927 432.026C526.122 431.744 525.39 431.287 524.783 430.688C524.177 430.088 523.711 429.362 523.42 428.56L523.15 428.43ZM535.21 444.43C537.87 440.93 536.05 436.43 539.7 435.04C543.35 433.65 546.57 436.16 547.55 439.95C548.53 443.74 549.65 445.7 543.2 449.76C536.75 453.82 532.83 448.36 535.49 444.57L535.21 444.43ZM544.04 426.63C543.277 426.051 542.636 425.326 542.154 424.499C541.671 423.672 541.356 422.757 541.227 421.808C541.098 420.859 541.157 419.894 541.401 418.967C541.646 418.041 542.07 417.172 542.65 416.41L542.77 416.25C545.01 413.59 546.56 415.55 547.54 417.65C547.972 420.025 548.58 422.365 549.36 424.65C550.76 428.44 548.24 429.84 544.36 426.75L544.04 426.63ZM548.67 401.39C551.33 398.45 554.28 402.93 555.26 405.74C556.088 408.435 556.651 411.205 556.94 414.01C556.94 417.37 555.54 418.92 552.03 415.13C548.52 411.34 546.84 404.48 548.95 401.53L548.67 401.39ZM551.75 431.81C553.097 430.209 554.099 428.347 554.69 426.34C554.69 424.1 557.35 422.69 558.48 424.24C561.14 428.17 557.48 432.37 554.55 434.33C551.62 436.29 550.34 433.33 552.03 431.95L551.75 431.81ZM590.44 484.81C590.973 484.78 591.502 484.91 591.96 485.184C592.418 485.457 592.783 485.862 593.009 486.345C593.235 486.828 593.311 487.367 593.227 487.894C593.144 488.421 592.904 488.911 592.54 489.3C590.72 491.4 586.37 490.84 585.81 488.18C585.25 485.52 587.35 484.53 590.72 484.96L590.44 484.81ZM585.53 458.17C583.85 455.93 584.27 453.82 585.53 449.17C586.79 444.52 589.32 441.74 592.68 445.38C596.04 449.02 593.94 456.74 593.94 456.74C593.615 457.489 593.112 458.147 592.475 458.657C591.837 459.166 591.085 459.512 590.283 459.664C589.481 459.816 588.654 459.769 587.875 459.528C587.095 459.287 586.386 458.858 585.81 458.28L585.53 458.17ZM587.63 429.01C587.63 424.24 589.63 421.86 592.82 423.01C600.67 425.67 599.55 430.72 595.48 434.79C591.41 438.86 587.63 434.37 587.91 429.18L587.63 429.01ZM600.25 434.2C601.65 431.4 603.33 431.82 604.32 432.66C612.03 439.66 604.32 443.46 599.83 442.47C595.34 441.48 598.99 437 600.53 434.34L600.25 434.2ZM600.25 445.98C603.33 446.82 602.91 449.91 601.09 451.45C599.27 452.99 598.01 450.61 597.73 449.35C597.45 448.09 599.27 445.7 600.95 446.13L600.25 445.98ZM598.85 486.22C600.397 480.759 602.561 475.491 605.3 470.52C605.564 470.167 605.799 469.792 606 469.4H611C616.75 468.14 618.43 466.88 620.39 471.08C621.367 473.598 623.22 475.679 625.608 476.941C627.996 478.203 630.759 478.561 633.39 477.95L630.45 479.07C625.317 481.399 619.954 483.185 614.45 484.4C609.999 486.145 605.224 486.909 600.45 486.64H598.45L598.85 486.22ZM628.71 467.57C629.053 466.731 629.593 465.988 630.286 465.403C630.978 464.819 631.802 464.411 632.687 464.215C633.571 464.018 634.49 464.039 635.365 464.275C636.24 464.511 637.044 464.955 637.71 465.57C638.093 466.332 638.292 467.173 638.292 468.025C638.292 468.878 638.093 469.718 637.71 470.48C636.87 473.28 628.18 471.48 629.44 467.68L628.71 467.57ZM636.71 453.57C636.104 453.865 635.428 453.987 634.757 453.921C634.086 453.856 633.446 453.605 632.909 453.198C632.371 452.791 631.957 452.243 631.712 451.615C631.467 450.987 631.4 450.304 631.52 449.64C631.52 446.98 633.52 444.73 636.71 445.85C639.9 446.97 640.78 452.85 637.41 454.12L636.71 453.57ZM638.25 437.57C635.87 435.05 638.25 430.28 642.46 433.92C651.71 442.33 646.67 447.92 643.86 446.68C641.05 445.44 641.34 440.68 638.95 438.13L638.25 437.57ZM646.66 453.41C650.45 451.31 650.45 448.08 653.66 448.92C656.87 449.76 657.31 451.3 658.99 453.92C660.67 456.54 658.99 458.55 654.22 458.41C649.45 458.27 645.81 460.09 643.57 458.41C641.33 456.73 643.57 456.03 647.36 453.92L646.66 453.41ZM658.02 465.33C662.79 466.59 663.35 471.64 658.02 471.33C652.69 471.02 647.37 471.33 648.21 468.81C649.05 466.29 653.68 464.46 659.01 465.87L658.02 465.33ZM655.36 476.55C655.36 476.55 660.27 475.43 661.67 478.37C663.07 481.31 660.13 483.28 655.5 482.44C650.87 481.6 653.96 477.67 656.06 477.11L655.36 476.55ZM661.81 399.55C661.81 395.9 660.97 388.9 665.6 392.82C670.23 396.74 676.54 409.64 666.6 406.82C665.194 406.425 663.99 405.51 663.234 404.26C662.478 403.01 662.227 401.519 662.53 400.09L661.81 399.55ZM668.68 438.1C673.31 444.27 672.47 451 668.68 452.1C664.89 453.2 663.49 445.23 662.79 440.18C662.09 435.13 666.86 435.83 669.38 438.64L668.68 438.1ZM667.68 424.92C669.68 423.24 671.75 423.66 673.68 426.18C675.61 428.7 673.68 435.29 670.32 434.18C666.96 433.07 666.25 427.18 668.32 425.49L667.68 424.92ZM674.83 450.72C674.83 445.81 677.49 447.5 679.83 448.06C682.17 448.62 683.05 453.39 679.83 455.77C676.61 458.15 675.76 456.19 675.48 451.28L674.83 450.72ZM685 397.18C687.66 398.86 688.5 402.65 685 404.05C681.5 405.45 676.31 402.05 677.43 398.58C678.55 395.11 681.78 395.22 685.7 397.74L685 397.18ZM690.33 416.95C692.15 420.31 690.33 422.84 684.33 420.17C680.372 418.807 676.152 418.376 672 418.91C665.13 418.91 665.83 414 668.64 413.16L676.91 410.64C678.277 410.057 679.754 409.774 681.241 409.812C682.727 409.849 684.188 410.206 685.524 410.857C686.86 411.509 688.041 412.44 688.986 413.588C689.931 414.736 690.617 416.073 691 417.51L690.33 416.95ZM672.95 385.13C674.49 385.13 675.75 385.13 676.6 387.51C677.45 389.89 674.22 393.4 672.25 391.72C671.463 390.83 671.06 389.663 671.132 388.476C671.203 387.29 671.742 386.18 672.63 385.39L672.95 385.13ZM646.31 364.24C654.02 362.84 655 365.24 654.58 367.6C654.16 369.96 649.25 368.86 649.39 371.25C649.53 373.64 654.02 377.25 656.96 374.75C659.9 372.25 664.39 370.96 666.21 374.75C668.03 378.54 661.86 383.16 656.96 381.34C652.06 379.52 653.31 379.24 646.31 376.43C639.31 373.62 638.46 365.5 646.31 364.23V364.24ZM629.91 357.93C630.539 356.357 630.908 354.692 631 353C631.355 352.019 631.953 351.143 632.738 350.456C633.524 349.769 634.47 349.292 635.49 349.07C637.31 349.07 638.85 350.89 640.4 353.28C641.064 354.571 641.273 356.048 640.994 357.473C640.715 358.897 639.963 360.186 638.86 361.13C636.48 363.79 634.09 362.95 631.71 362.53C631.219 362.415 630.764 362.182 630.384 361.851C630.005 361.519 629.712 361.1 629.533 360.629C629.353 360.158 629.292 359.65 629.354 359.15C629.416 358.65 629.6 358.172 629.89 357.76L629.91 357.93ZM624.16 394.8C619.67 394.8 615.89 390.87 618.41 389.19C620.93 387.51 624.02 385.4 628.08 388.19C632.14 390.98 628.5 395.34 624.15 394.64L624.16 394.8ZM624.16 363.54C624.833 364.95 625.68 366.27 626.68 367.47C627.016 368.373 627.061 369.359 626.81 370.289C626.559 371.219 626.024 372.048 625.28 372.66C624.513 373.591 623.94 374.666 623.597 375.822C623.253 376.978 623.145 378.191 623.28 379.39C623.109 380.518 622.527 381.542 621.647 382.267C620.767 382.993 619.65 383.367 618.51 383.32C618.059 383.276 617.623 383.134 617.233 382.902C616.843 382.671 616.51 382.356 616.256 381.981C616.002 381.605 615.833 381.178 615.763 380.731C615.693 380.283 615.723 379.825 615.85 379.39C616.146 376.81 617.277 374.398 619.07 372.52C619.862 371.472 620.421 370.267 620.71 368.986C621 367.705 621.014 366.377 620.75 365.09C621.03 361.59 623.97 361.44 624.54 363.41L624.16 363.54ZM614.77 342.09C617.01 337.46 620.66 335.22 621.77 337.74C623.87 342.93 617.7 350.74 617.7 350.74C614.9 357.19 612.79 346.53 615.18 341.91L614.77 342.09ZM618.56 398.87C619.573 399.322 620.402 400.104 620.914 401.087C621.426 402.071 621.589 403.199 621.378 404.288C621.167 405.376 620.594 406.361 619.752 407.083C618.91 407.804 617.848 408.219 616.74 408.26C611.27 408.26 608.33 402.79 610.74 399.71C613.15 396.63 614.95 396.35 619.01 398.71L618.56 398.87ZM608.19 332.42C608.871 332.983 609.42 333.689 609.796 334.489C610.173 335.288 610.368 336.161 610.368 337.045C610.368 337.929 610.173 338.802 609.796 339.601C609.42 340.401 608.871 341.107 608.19 341.67C604.12 344.75 600.48 341.67 600.48 337.32C600.48 332.97 604.69 329.47 608.61 332.32L608.19 332.42ZM603.84 351.91C604.244 351.554 604.725 351.295 605.246 351.155C605.766 351.016 606.312 350.998 606.84 351.103C607.368 351.209 607.865 351.435 608.292 351.764C608.719 352.093 609.064 352.516 609.3 353C609.932 354.936 610.045 357.004 609.627 358.998C609.209 360.991 608.276 362.84 606.92 364.36C603.56 367.02 600.19 364.36 600.05 360.86C599.68 359.091 599.889 357.249 600.647 355.608C601.406 353.967 602.672 352.614 604.26 351.75L603.84 351.91ZM605.84 380.79C608.36 386.54 603.18 386.96 600.51 390.04C597.84 393.12 593.51 392.04 594.9 389.2C596.008 386.409 596.008 383.301 594.9 380.51C593.9 377.99 593.78 375.51 595.74 374.34C597.7 373.17 603.59 374.76 606.25 380.65L605.84 380.79ZM590.14 323.87C590.626 323.429 591.206 323.104 591.836 322.919C592.465 322.734 593.129 322.694 593.776 322.802C594.423 322.909 595.038 323.162 595.574 323.541C596.11 323.92 596.553 324.415 596.87 324.99C597.648 327.397 597.76 329.969 597.193 332.435C596.626 334.9 595.401 337.165 593.65 338.99C592.922 339.739 591.977 340.241 590.949 340.425C589.92 340.61 588.86 340.467 587.917 340.018C586.973 339.569 586.195 338.836 585.689 337.922C585.184 337.007 584.978 335.958 585.1 334.92C584.707 332.788 584.974 330.586 585.866 328.61C586.758 326.634 588.231 324.976 590.09 323.86L590.14 323.87ZM576.14 317.7C577.044 316.934 578.176 316.491 579.36 316.44C580.349 316.478 581.299 316.841 582.06 317.474C582.822 318.107 583.352 318.974 583.57 319.94C583.815 321.016 583.668 322.145 583.155 323.122C582.641 324.1 581.796 324.861 580.77 325.27C579.696 325.642 578.527 325.636 577.456 325.254C576.386 324.873 575.477 324.137 574.88 323.17C574.48 322.205 574.429 321.131 574.736 320.133C575.042 319.134 575.688 318.274 576.56 317.7H576.14ZM573.06 327.7C574.6 328.96 575.06 330.78 573.06 332.05C572.276 332.653 571.314 332.979 570.325 332.979C569.336 332.979 568.375 332.653 567.59 332.05C567.59 332.05 565.49 330.37 567.59 328.83C568.31 328.019 569.279 327.469 570.344 327.267C571.41 327.064 572.512 327.22 573.48 327.71L573.06 327.7ZM561.14 312.7C565.35 312.7 568.43 312.7 568.99 315.92C569.303 317.248 569.187 318.641 568.659 319.898C568.131 321.156 567.217 322.214 566.05 322.92C562.97 325.3 558.62 328.39 557.36 324.18C556.1 319.97 557.5 312.4 561.57 312.68L561.14 312.7ZM556.93 331.49C560.15 336.4 558.05 338.92 554.13 342.43C550.21 345.94 548.94 341.31 547.13 337.8C545.32 334.29 545.13 332.47 549.65 330.09C554.17 327.71 555.4 328.55 557.36 331.49H556.93ZM546.84 309.34C549.22 309.34 550.06 310.04 552.31 312C554.56 313.96 552.31 316.63 550.77 316.07C549.23 315.51 546 317.75 543.9 317.89C541.8 318.03 541.8 316.89 540.54 314.39C539.28 311.89 544.1 309.28 546.77 309.28L546.84 309.34ZM541.65 323.34C542.42 323.653 543.039 324.251 543.378 325.009C543.717 325.768 543.75 326.628 543.47 327.41C543.47 329.41 540.95 331.2 540.11 332.88C539.673 334.517 539.392 336.191 539.27 337.88C539.099 338.785 538.752 339.647 538.247 340.418C537.743 341.188 537.091 341.852 536.33 342.37C535.599 342.63 534.799 342.617 534.077 342.334C533.355 342.051 532.76 341.517 532.4 340.83C531.708 338.548 531.708 336.112 532.4 333.83C533.072 330.746 534.691 327.949 537.03 325.83C537.59 323.83 540.39 322.18 541.66 322.18L541.65 323.34ZM530.29 309.34C531.69 308.34 533.65 308.22 534.22 310.6C534.79 312.98 534.22 314.1 532.4 315.6C532.204 315.861 531.951 316.073 531.659 316.218C531.368 316.364 531.046 316.44 530.72 316.44C530.394 316.44 530.072 316.364 529.781 316.218C529.489 316.073 529.236 315.861 529.04 315.6C528.548 315.064 528.185 314.423 527.979 313.726C527.773 313.029 527.729 312.293 527.851 311.577C527.972 310.86 528.256 310.18 528.681 309.59C529.105 308.999 529.659 308.514 530.3 308.17L530.29 309.34ZM528 357.79C528.7 354.14 531.36 352.18 534.17 354.14C534.883 354.83 535.423 355.679 535.746 356.618C536.07 357.556 536.167 358.557 536.031 359.54C535.894 360.523 535.528 361.46 534.961 362.275C534.395 363.09 533.644 363.76 532.77 364.23C528.14 365.23 527.3 360.44 528 356.52V357.79ZM512.86 329.33C512.86 329.33 521.86 324.7 518.19 323.02C514.52 321.34 515.95 312.37 517.19 308.16C518.43 303.95 521.4 305.08 523.08 306.34C524.76 307.6 524.34 313.49 524.2 316.71C524.305 318.936 523.718 321.14 522.52 323.02C520.98 325.4 520.98 325.12 525.04 326.52C529.1 327.92 524.2 333.52 521.82 335.21C519.44 336.9 517.89 342.92 513.69 339.56C512.915 338.977 512.273 338.237 511.805 337.387C511.337 336.538 511.054 335.6 510.975 334.634C510.895 333.667 511.021 332.695 511.345 331.781C511.668 330.867 512.181 330.032 512.85 329.33H512.86ZM503.86 306.62C504.26 306.028 504.824 305.566 505.484 305.292C506.143 305.018 506.869 304.944 507.57 305.078C508.272 305.212 508.919 305.549 509.431 306.047C509.942 306.545 510.297 307.182 510.45 307.88C511.028 309.225 511.203 310.709 510.955 312.152C510.706 313.595 510.045 314.935 509.05 316.01C508.775 316.361 508.424 316.645 508.023 316.841C507.621 317.036 507.181 317.138 506.735 317.138C506.289 317.138 505.849 317.036 505.448 316.841C505.046 316.645 504.695 316.361 504.42 316.01C503.495 314.636 502.956 313.039 502.859 311.385C502.763 309.732 503.112 308.083 503.87 306.61L503.86 306.62ZM503.86 322.74C503.931 325.078 503.401 327.395 502.32 329.47C501.352 331.047 500.727 332.811 500.486 334.646C500.245 336.481 500.393 338.346 500.92 340.12C501.62 345.59 500.08 349.93 495.59 346.01C491.1 342.09 489.98 337.88 491.66 335.21C493.442 331.919 494.993 328.507 496.3 325C498.4 321.21 502.3 319.39 503.87 322.2L503.86 322.74ZM490.68 306.2C494.75 304.1 495.03 309.56 495.68 312.65C496.33 315.74 494.98 316.58 493.68 316.58C483.68 316.29 487.19 308.16 490.69 306.19L490.68 306.2ZM494.04 351.2C498.81 356.81 497.97 359.47 492.22 358.63C486.47 357.79 481.14 355.55 485.07 351.2C485.526 350.352 486.203 349.643 487.03 349.148C487.857 348.654 488.802 348.393 489.765 348.393C490.728 348.393 491.673 348.654 492.5 349.148C493.327 349.643 494.004 350.352 494.46 351.2H494.04ZM483.67 340.12C482.133 342.343 480.772 344.684 479.6 347.12C478.2 349.22 476.66 349.92 474.97 348.66C473.28 347.4 474.13 345.3 476.09 344.03C476.806 343.423 477.363 342.65 477.712 341.779C478.06 340.907 478.19 339.963 478.09 339.03C478.09 335.67 481.17 334.26 482.86 335.1C483.37 335.233 483.835 335.5 484.207 335.874C484.578 336.249 484.842 336.716 484.971 337.227C485.1 337.738 485.089 338.274 484.939 338.78C484.789 339.285 484.506 339.741 484.12 340.1L483.67 340.12ZM480.73 308.12C482.83 309.38 482.97 310.5 482.83 313.03C482.826 313.352 482.749 313.668 482.604 313.955C482.458 314.242 482.249 314.491 481.992 314.685C481.735 314.878 481.437 315.009 481.121 315.069C480.805 315.129 480.48 315.116 480.17 315.03C479.192 314.738 478.33 314.149 477.703 313.344C477.076 312.539 476.715 311.559 476.67 310.54C476.708 310.079 476.857 309.634 477.103 309.243C477.35 308.852 477.687 308.526 478.086 308.292C478.486 308.059 478.935 307.925 479.397 307.902C479.859 307.879 480.32 307.967 480.74 308.16L480.73 308.12ZM477.65 323.68C481.86 324.94 481.3 329.01 478.65 330.97C476 332.93 474.58 329.97 474.3 328.17C474.02 326.37 475.42 323.68 477.66 324.24L477.65 323.68ZM471.9 341C470.64 342.12 467.55 341 467.55 338.34C467.55 335.68 468.81 334.69 471.48 335.68C474.15 336.67 473.48 340.45 471.9 341.57V341ZM465.03 313C466.43 311.18 469.8 309.07 471.2 313.7C471.2 315.7 473.58 320.43 471.2 321.13C470.292 321.576 469.253 321.68 468.274 321.423C467.295 321.166 466.442 320.565 465.87 319.73C464.75 318.73 463.49 315.24 465.03 313.42V313ZM453.81 313C456.75 310.48 459.14 315.24 459.56 317.91C459.91 320.702 459.91 323.528 459.56 326.32C459.56 329.4 457.56 330.67 454.79 326.32C452.02 321.97 450.72 315.67 453.79 313.32L453.81 313ZM458.58 341C458.58 341 459.28 342.82 463.77 345.91C468.26 349 462.51 353.06 459.56 352.5C456.61 351.94 455.49 351.1 452.13 353.34C448.77 355.58 443.58 357.13 443.72 350.82C443.86 344.51 449.05 343.53 450.72 341.82C452.39 340.11 457.72 337.75 458.57 341.12L458.58 341ZM446.94 320.81C453.81 334.81 444.84 337.63 444.42 333.57C443.689 328.855 442.708 324.181 441.48 319.57C440.48 316.07 444.42 315.92 446.95 320.97L446.94 320.81ZM436.86 370C437.7 365.51 439.52 365.79 441.35 364.81C443.327 363.689 445.588 363.172 447.856 363.321C450.123 363.47 452.297 364.28 454.11 365.65C457.76 368.17 453.41 370 451.03 373.92C448.65 377.84 447.24 373.92 442.34 375.32C437.44 376.72 436.17 374.62 436.87 370.13L436.86 370ZM435.32 427.2C431.96 432.67 426.49 429.02 424.95 425.94C424.682 424.958 424.674 423.923 424.925 422.937C425.176 421.95 425.679 421.046 426.384 420.311C427.089 419.577 427.973 419.038 428.948 418.747C429.924 418.456 430.958 418.422 431.95 418.65C436.58 420.33 438.12 423 435.31 427.34L435.32 427.2ZM430.69 323.88C431.53 322.2 433.07 321.08 434.76 322.88C436.45 324.68 436.44 325.82 435.76 328.21C435.76 328.21 434.76 330.59 432.82 329.47C431.893 328.94 431.177 328.106 430.795 327.109C430.412 326.113 430.386 325.014 430.72 324L430.69 323.88ZM429.29 339.44C431.11 337.76 432.94 338.74 434.06 340.44C435.136 343.482 435.887 346.63 436.3 349.83C436.3 352.63 433.78 353.48 430.13 353.76C426.48 354.04 426.2 350.82 424.13 348.29C422.06 345.76 424.13 344.36 426.51 343.38C428.89 342.4 427.63 341.38 429.31 339.59L429.29 339.44ZM424.52 327.1C425.204 328.481 425.423 330.045 425.146 331.561C424.868 333.076 424.109 334.461 422.98 335.51C420.74 337.61 416.39 332.15 416.67 329.76C416.95 327.37 422.67 324.29 424.52 327.24V327.1ZM420.17 355.1C425.08 356.64 426.9 360.29 423.11 363.93C419.32 367.57 418.2 362.25 416.8 360.14C415.4 358.03 416.24 353.97 420.59 354.95L420.17 355.1ZM407.55 334.91C414.42 333.65 417.64 343.18 414.7 346.27C411.76 349.36 407.97 350.48 406.15 346.27C404.33 342.06 400.54 336.18 407.55 334.77V334.91ZM406.71 377C406.497 378.89 405.754 380.682 404.567 382.168C403.38 383.654 401.797 384.775 400 385.4C396.07 386.52 396.92 383.16 396.35 379.4C396.029 376.285 396.664 373.146 398.17 370.4C399.29 367.88 400.55 368.02 402.24 367.88C409.11 367.32 406.59 373.07 406.59 376.71L406.71 377ZM398.16 345.74C401.81 350.23 403.77 355.83 398.16 356.11C397.285 356.263 396.385 356.201 395.54 355.929C394.694 355.657 393.927 355.182 393.306 354.547C392.684 353.912 392.227 353.135 391.974 352.284C391.72 351.432 391.678 350.532 391.85 349.66C392.55 342.227 394.653 340.823 398.16 345.45V345.74ZM393.53 408.13C396.19 409.81 396.89 417.13 392.53 415.42C388.17 413.71 386.36 416.42 384.12 415.42C381.88 414.42 383.12 412.2 386.92 409.42C390.72 406.64 392.53 407.42 393.51 407.88L393.53 408.13ZM390 397.6C390 399.84 390 401.53 385 402.37C380 403.21 383.32 396.76 384.3 392.84C385.28 388.92 387.95 390.46 388.65 391.84C389.4 393.579 389.873 395.425 390.05 397.31L390 397.6ZM378.5 357.5C380.04 354.84 382.43 354.56 385.79 356.5C389.15 358.44 389.44 366.73 384.95 366.87C380.46 367.01 376.57 360 378.53 357.5H378.5ZM385.37 375.44C386.052 376.032 386.6 376.764 386.974 377.586C387.349 378.408 387.543 379.301 387.543 380.205C387.543 381.109 387.349 382.002 386.974 382.824C386.6 383.646 386.052 384.378 385.37 384.97C381.3 388.19 377.52 384.97 377.52 380.62C377.52 376.27 381.17 372.49 385.09 375.43L385.37 375.44ZM372.89 364.22C373.391 364.48 373.812 364.872 374.105 365.354C374.398 365.837 374.554 366.39 374.554 366.955C374.554 367.52 374.398 368.073 374.105 368.556C373.812 369.038 373.391 369.43 372.89 369.69C372.443 369.967 371.93 370.12 371.404 370.131C370.879 370.143 370.36 370.013 369.901 369.756C369.442 369.498 369.061 369.123 368.797 368.668C368.533 368.213 368.396 367.696 368.4 367.17C369 364.23 370.26 363.25 372.93 364.23L372.89 364.22ZM367.7 399.83C369.212 396.947 369.798 393.668 369.38 390.44C368.12 386.23 368.38 384.83 371.76 387.92C373.65 389.683 375.052 391.905 375.83 394.37C377.51 398.02 376.83 400.26 372.33 401.66C367.83 403.06 366.86 401.52 367.7 399.56V399.83ZM366.16 412.17C368.26 412.17 368.54 414.55 368.54 417.64C368.54 420.73 367.42 420.44 364.61 423.11C361.8 425.78 361.25 421.29 360.4 419.32C360.073 418.394 360.032 417.39 360.282 416.44C360.531 415.49 361.06 414.636 361.8 413.99C362.8 412.45 364.46 412.45 366.15 411.89L366.16 412.17ZM352.16 381.47C353.42 379.23 355.66 378.81 358.47 380.63C361.28 382.45 361.55 389.46 358.47 389.63C355.39 389.8 350.47 383.46 352.47 381.22L352.16 381.47ZM343.75 392.12C345.75 389.46 347.4 389.6 349.5 391C350.233 391.572 350.836 392.293 351.271 393.115C351.705 393.937 351.96 394.842 352.02 395.77C352.02 398.85 350.62 399.84 347.81 399.42C345 399 343.88 400.82 341.64 399.42C339.4 398.02 342.2 394.65 344.02 392.27L343.75 392.12ZM340.1 407.4C342.9 408.94 343.6 412.59 340.1 413.99C336.6 415.39 331.97 412.17 333.1 408.8C334.23 405.43 336.46 404.87 340.39 407.12L340.1 407.4ZM327.62 420.3C328.54 419.888 329.579 419.831 330.538 420.142C331.497 420.452 332.306 421.107 332.81 421.98C335.168 424.532 337.698 426.921 340.38 429.13C343.18 431.23 343.88 431.51 344.03 433.34C344.18 435.17 341.09 435.58 339.12 433.34C338.557 432.299 337.655 431.481 336.564 431.023C335.473 430.564 334.258 430.493 333.12 430.82C331.812 430.851 330.523 430.508 329.403 429.831C328.284 429.155 327.38 428.172 326.8 427C326.37 426.522 326.048 425.957 325.856 425.343C325.664 424.729 325.605 424.082 325.685 423.443C325.764 422.805 325.98 422.192 326.318 421.644C326.655 421.097 327.106 420.628 327.64 420.27L327.62 420.3ZM320.21 437C321.47 434.48 324.7 434.76 327.78 437C330.86 439.24 331.85 442.61 329.32 443C326.79 443.39 327.22 446.93 325.39 447.77C323.56 448.61 320.39 446.09 319.39 444.41C318.678 441.928 318.972 439.266 320.21 437ZM318.81 490.41C316.71 489.57 315.59 488.41 316.71 484.8C317.899 482.098 319.911 479.84 322.46 478.35C322.605 478.087 322.818 477.869 323.077 477.716C323.335 477.564 323.63 477.483 323.93 477.483C324.23 477.483 324.525 477.564 324.783 477.716C325.042 477.869 325.255 478.087 325.4 478.35C325.861 479.246 326.236 480.184 326.52 481.15C326.718 482.541 326.358 483.953 325.52 485.08C324.68 486.76 325.52 487.18 325.52 489.01C325.52 490.84 321.05 491.53 318.81 490.41ZM321.61 504.41C320.49 506.79 316.7 508.76 315.02 510.58C313.34 512.4 309.41 514.65 307.59 512.96C307.159 512.346 306.883 511.635 306.788 510.891C306.692 510.146 306.779 509.389 307.04 508.686C307.302 507.982 307.731 507.353 308.29 506.852C308.849 506.351 309.522 505.993 310.25 505.81C313.05 504.97 313.75 501.6 316 500.06C318.25 498.52 323.44 500.08 321.61 504.43V504.41ZM313.76 454C313.76 451.76 315.3 451.06 318.11 454C320.92 456.94 320.77 456.38 321.61 457.36C322.45 458.34 323.29 460.02 322.61 461.01C322.08 461.689 321.397 462.233 320.617 462.598C319.836 462.963 318.981 463.138 318.12 463.11C315.18 463.11 312.93 462.27 312.51 459.89C312.09 457.51 314 456.2 313.76 454ZM309.41 471.24C311.09 469.84 311.93 469.84 314.88 469.84C317.83 469.84 318.1 472.64 316.28 473.34C314.46 474.04 314.04 477.13 312.78 478.67C311.52 480.21 310.68 478.67 308.15 478.67C305.62 478.67 307.6 472.75 309.42 471.2L309.41 471.24ZM306.05 491.71C306.05 489.89 306.89 489.47 308.85 489.05C310.81 488.63 310.53 489.89 310.85 491.15C311.17 492.41 311.55 492.27 311.97 493.15C312.246 493.458 312.398 493.857 312.398 494.27C312.398 494.683 312.246 495.082 311.97 495.39C311.496 495.799 310.931 496.088 310.322 496.234C309.713 496.38 309.078 496.379 308.47 496.23C308.026 496.108 307.61 495.898 307.246 495.615C306.883 495.331 306.579 494.978 306.352 494.577C306.126 494.176 305.98 493.733 305.925 493.276C305.87 492.818 305.905 492.354 306.03 491.91L306.05 491.71ZM719.77 516.24C718.77 630.83 625.07 722.91 510.49 721.92C457.05 721.457 405.849 700.391 367.556 663.113C329.262 625.835 306.829 575.219 304.93 521.81C304.996 521.534 304.996 521.246 304.93 520.97C308.994 520.05 312.817 518.281 316.15 515.78C322.46 510.78 324.98 510.87 330.15 511.85C331.915 512.347 333.771 512.424 335.572 512.077C337.372 511.73 339.066 510.967 340.52 509.85C342.438 507.952 344.977 506.808 347.67 506.63C351.269 505.936 354.584 504.197 357.2 501.63C360.28 498.83 364.2 495.63 368 496.72C371.286 498.07 374.91 498.364 378.37 497.56C381.662 496.198 384.486 493.909 386.5 490.97C388.398 487.325 391.456 484.416 395.19 482.7L404.19 481.16C409.634 483.871 414.88 486.962 419.89 490.41C426.34 493.49 432.51 496.86 438.96 499.24C444.862 500.976 450.664 503.036 456.34 505.41C461.81 508.35 459.14 506.53 462.51 509.2C462.51 509.2 466.44 511.72 466.3 513.55C466.073 515.132 466.073 516.738 466.3 518.32C465.18 524.21 465.3 528.97 464.48 531.22C463.64 533.418 463.167 535.739 463.08 538.09C463.08 541.45 463.08 543 461.96 545.52C461.41 547.619 460.511 549.61 459.3 551.41C458.3 553.09 458.18 556.88 456.36 558C453.993 559.368 451.367 560.226 448.65 560.52C446.016 560.728 443.422 561.293 440.94 562.2C438.43 563.664 435.676 564.66 432.81 565.14C429.409 564.994 426.006 565.372 422.72 566.26C420.147 566.846 417.506 567.081 414.87 566.96C411.572 566.647 408.296 566.133 405.06 565.42C402.697 564.93 400.24 565.225 398.06 566.26C397.286 566.676 396.705 567.38 396.443 568.219C396.182 569.059 396.259 569.967 396.66 570.75C397.245 571.884 398.129 572.837 399.217 573.505C400.304 574.173 401.554 574.531 402.83 574.54C405.789 575.148 408.813 575.383 411.83 575.24H423.4C427.811 575.441 432.23 575.16 436.58 574.4C440.327 573.109 444.173 572.126 448.08 571.46C450.171 571.132 452.3 571.132 454.39 571.46C456.747 571.87 459.051 572.541 461.26 573.46C462.66 573.46 469.39 574.3 472.62 574.58C475.85 574.86 480.19 574.58 483.56 574.58L498.4 573C506.11 573 504.99 566.83 501.34 565.85C498.828 565.929 496.334 566.305 493.91 566.97C490.016 567.462 486.076 566.516 482.83 564.31C482.18 563.104 481.839 561.755 481.839 560.385C481.839 559.015 482.18 557.666 482.83 556.46C484.029 553.155 484.029 549.535 482.83 546.23C482.085 544.559 481.795 542.72 481.99 540.9C482.23 539.093 482.917 537.374 483.99 535.9C484.92 534.615 486.273 533.7 487.812 533.316C489.351 532.932 490.975 533.103 492.4 533.8C493.173 534.268 493.781 534.966 494.14 535.796C494.498 536.625 494.589 537.546 494.4 538.43C493.56 541.23 491.88 541.65 491.74 543.62C491.6 545.59 491.74 546 492.86 547.97C493.533 548.777 493.901 549.794 493.901 550.845C493.901 551.896 493.533 552.913 492.86 553.72C490.06 556.8 492.02 559.47 494.86 559.89C497.44 559.809 499.992 559.337 502.43 558.49C503.567 557.916 504.492 556.995 505.071 555.861C505.65 554.727 505.852 553.437 505.65 552.18C505.65 549.8 502.71 549.1 505.65 546.18C508.59 543.26 507.47 539.59 507.47 536.93C507.47 534.27 507.47 534.41 509.15 531.46C510.83 528.51 507.15 526.13 505.79 528.1C504.43 530.07 503.27 521.65 504.53 520.1C505.889 518.56 506.893 516.741 507.47 514.77C508.31 512.25 508.87 513.37 507.47 510C506.07 506.63 505.23 508.6 503.97 508C502.71 507.4 501.97 500.71 503.13 496.22C504.29 491.73 506.35 496.22 509.13 500.57C511.91 504.92 511.93 495.38 511.13 491.88C510.33 488.38 511.97 481.37 511.13 477.88C509.727 474.469 509.727 470.641 511.13 467.23C512.26 462.933 512.732 458.489 512.53 454.05C513.477 452.657 514.846 451.606 516.436 451.052C518.026 450.497 519.753 450.468 521.36 450.97C521.513 452.416 521.513 453.874 521.36 455.32C521.224 457.878 520.506 460.372 519.26 462.61C518.624 463.757 518.389 465.082 518.592 466.377C518.795 467.672 519.424 468.863 520.38 469.76C521.78 469.76 521.08 471.86 520.38 473.55C519.68 475.24 518.98 477.2 520.38 478.04C521.78 478.88 520.38 478.04 520.38 482.11C520.74 483.916 520.74 485.774 520.38 487.58C520.38 491.37 519.26 494.58 521.92 494.58C524.58 494.58 526.69 493.32 527.53 495.58C528.37 497.84 529.35 502.45 531.32 501.33C532.554 500.728 533.568 499.756 534.223 498.549C534.877 497.343 535.138 495.962 534.97 494.6C534.033 490.455 533.431 486.242 533.17 482C532.754 478.603 532.754 475.167 533.17 471.77C533.973 468.669 533.827 465.397 532.75 462.38C532.75 460.14 531.91 458.31 531.75 456.77C534.604 459.023 538.223 460.078 541.84 459.71C541.941 459.93 541.993 460.168 541.993 460.41C541.993 460.652 541.941 460.89 541.84 461.11C540.93 462.152 540.349 463.441 540.171 464.813C539.993 466.186 540.226 467.58 540.84 468.82C541.84 471.06 546.03 472.18 542.84 475.82C539.65 479.46 541.84 482.69 545.92 482.13C550 481.57 552.37 482.13 551.53 485.63C550.69 489.13 553.63 489.98 555.6 489.84C565.6 489.84 565.6 501.2 559.67 502.46C556.47 503.147 553.397 504.328 550.56 505.96C547.48 507.36 547.06 513.11 548.18 515.35C549.3 517.59 550.84 519 549.02 521.66C548.19 522.664 547.668 523.886 547.519 525.18C547.37 526.474 547.6 527.784 548.18 528.95C549.01 530.064 549.459 531.416 549.459 532.805C549.459 534.194 549.01 535.546 548.18 536.66C547.003 538.274 546.245 540.155 545.974 542.134C545.704 544.114 545.929 546.129 546.63 548C548.45 551.36 550.42 555.57 548.17 557.25C545.92 558.93 545.65 558.25 542 557.25C538.35 556.25 536.25 557.25 535 554.45C533.75 551.65 537.52 551.93 537.24 548.14C537.17 546.831 537.17 545.519 537.24 544.21C537.24 540.28 540.32 536.78 538.92 532.15C537.52 527.52 541.58 526.4 539.76 522.76C537.94 519.12 534.43 518.41 534.01 514.91C533.59 511.41 532.89 508.6 529.01 508.91C525.13 509.22 528.17 526.15 527.47 532.18C526.602 535.917 526.602 539.803 527.47 543.54C528.322 545.576 528.612 547.804 528.31 549.99C528.31 555.18 525.93 555.46 527.05 557.99C528.17 560.52 527.05 562.06 524.11 562.2C521.17 562.34 517.52 563.88 516.82 566.69C516.12 569.5 519.9 569.63 522.15 568.93C524.4 568.23 530.28 566.69 532.38 568.09C535.12 569.838 538.179 571.028 541.38 571.59C545.59 571.59 551.75 572.99 555.38 573.13C561.889 573.46 568.414 573.178 574.87 572.29C581.138 570.417 587.723 569.846 594.22 570.61C598.712 572.541 603.409 573.953 608.22 574.82C613.73 574.54 619.25 574.54 624.76 574.82C630.682 575.871 636.686 576.387 642.7 576.36C646.35 576.36 650.27 575.66 648.87 573.14C647.47 570.62 645.22 570.9 640.74 569.07C636.797 566.509 632.097 565.373 627.42 565.85C623.154 566.564 618.844 566.985 614.52 567.11C610.532 566.376 606.779 564.692 603.58 562.2C599.341 559.68 594.511 558.324 589.58 558.27C583.674 559.426 577.654 559.896 571.64 559.67C567.99 558.67 561.55 556.45 559.58 551.82C557.824 548.259 557.19 544.249 557.76 540.32C559.01 534.166 559.01 527.824 557.76 521.67C557.723 519.72 558.007 517.778 558.6 515.92C559.584 513.251 561.113 510.815 563.09 508.77C565.811 507.084 568.898 506.076 572.09 505.83C576.44 505.83 581.2 504.29 586.09 503.59C596.24 502.429 606.275 500.422 616.09 497.59C621.98 495.35 626.46 493.1 631.09 491.42C635.44 490.004 639.894 488.928 644.41 488.2C645.67 491.42 650.86 494.51 660.11 490.86C669.36 487.21 673.29 487.21 677.49 492.96C678.83 495.322 680.736 497.314 683.037 498.758C685.337 500.201 687.96 501.051 690.67 501.23C696.42 502.23 699.67 501.23 701.47 505.86C703.27 510.49 704.97 514.41 711 513.57C714.253 513.386 717.495 514.076 720.39 515.57C720.244 515.622 720.112 515.706 720.005 515.817C719.897 515.928 719.817 516.063 719.77 516.21V516.24Z" fill="white"/>
</g>
<defs>
<clipPath id="clip0_2_2643">
<rect width="1024" height="1024" fill="white"/>
</clipPath>
</defs>
</svg>
