<svg width="1024" height="1024" viewBox="0 0 1024 1024" fill="none" xmlns="http://www.w3.org/2000/svg">
<g clip-path="url(#clip0_2_2646)">
<path d="M512 1024C794.77 1024 1024 794.77 1024 512C1024 229.23 794.77 0 512 0C229.23 0 0 229.23 0 512C0 794.77 229.23 1024 512 1024Z" fill="#F9DE81"/>
<path d="M589.47 275.9C564.71 276.09 538.75 278.7 512 283.96C340.79 317.63 202 447.03 202 572.97C202 698.91 340.79 773.73 512 740.05C683.21 706.38 822 577.1 822 451.06C822 344.71 723.19 274.89 589.47 275.9ZM581.42 285.88C711.81 284.12 806.95 352.47 802.4 454.63C797.46 566.07 658.41 694.18 505.88 724.2C341.88 756.47 210.73 687.43 210.73 568.11C210.73 448.79 343.14 327.59 505.76 294.3C531.91 288.94 557.27 286.21 581.41 285.88H581.42ZM380.96 416.88C378.98 416.88 373.97 416.53 373.08 420.63C372.83 422 373.23 423.41 374.18 424.43C375.85 425.89 377.83 426.95 379.96 427.55C393.74 432.52 438.51 448.23 463.44 465.16L465.77 466.84L651.86 463.92C652.19 463.48 659.04 451.42 663.08 443.66C667.53 435.12 667.74 427.82 662.78 422.97C657.3 417.7 648.44 416.86 630.53 416.86H380.97L380.96 416.88ZM754.16 474.27C750.03 474.27 477.58 478.56 473.35 478.72C471.02 478.72 470.41 479.33 470.41 481.77C470.41 501.54 444.13 520.52 408.52 537.52C370.95 555.43 323.8 573.27 299.27 582.3C293.44 584.44 282.95 588.15 279.59 589.86C276.91 591.23 274.93 593.36 275.88 595.8C276.84 598.25 279.47 599.51 288.78 597.04C292.95 595.94 297.64 594.71 302.77 593.45C349.83 581.21 436.04 559.61 519.99 538.65C606.92 516.94 692.56 498.17 755.52 486.84C760.46 485.96 764.52 483.29 764.31 479.54C764.1 475.79 760 474.11 754.17 474.27H754.16ZM611.47 529.07L324.25 599.66L530.18 596.09C530.18 596.09 542.42 596.41 551.35 591.05C565.74 582.42 584.65 566.75 611.47 529.07Z" fill="white"/>
</g>
<defs>
<clipPath id="clip0_2_2646">
<rect width="1024" height="1024" fill="white"/>
</clipPath>
</defs>
</svg>
