<svg width="1024" height="1024" viewBox="0 0 1024 1024" fill="none" xmlns="http://www.w3.org/2000/svg">
<g clip-path="url(#clip0_2_2649)">
<path d="M512 1024C794.77 1024 1024 794.77 1024 512C1024 229.23 794.77 0 512 0C229.23 0 0 229.23 0 512C0 794.77 229.23 1024 512 1024Z" fill="#9ABEFF"/>
<path d="M760.17 537L706.17 410.6L712.75 294.93L715.92 239.24L670.77 272L593.77 328L518.9 307.43L512 305.49L505.06 307.4L430.19 328L353.19 272L308.08 239.19L311.25 294.88L317.83 410.55L263.83 537L256 555.26L271.49 567.82L367.57 645.71L398.65 670.91L416.96 725.91L420.36 736.13L429.6 741.03L499.6 778.18L512.03 784.78L524.46 778.18L594.46 741.03L603.69 736.13L607.09 725.91L625.39 670.91L656.47 645.71L752.55 567.82L768 555.26L760.17 537ZM745.36 559.32L649.28 637.21L623 658.47L623.88 640.59L623.02 642.3L596.3 722.64L594.36 728.48L589.08 731.28L519.08 768.43L512 772.2L504.9 768.43L434.9 731.28L429.62 728.48L427.68 722.64L401 642.29L400.14 640.58L401.02 658.46L374.74 637.16L278.66 559.27L269.81 552.1L274.28 541.64L329.37 412.81L322.64 294.51L320.83 262.69L346.61 281.44L427.94 340.59L508.07 318.59L512.07 317.5L516.07 318.59L596.2 340.59L677.53 281.44L703.31 262.69L701.5 294.51L694.77 412.81L749.86 541.64L754.33 552.1L745.36 559.32ZM735.83 547.6L679.72 416.32L640.21 428.1L663.9 401.75L686.2 295.4L686.3 293.67L599.15 357.05L512 333.12L424.85 357.06L337.7 293.68L360.36 401.76L384.05 428.11L344.34 416.26V416.19L288.16 547.56L384.24 625.45L381.52 570.24L414.88 636.31L442 717.91L503.31 750.46V727.28L480.8 714.77V687.77L497.89 680.16L512 673.91L526.11 680.19L543.2 687.8V714.8L520.68 727.31V750.49L582 717.91L609.14 636.3L642.5 570.23L639.77 625.44L735.83 547.6ZM466.6 553.63L411.33 536.63L393.71 499.33L471.88 531.66L485.28 573.54L466.6 553.63ZM610.68 536.63L555.41 553.63L536.72 573.58L550.12 531.7L628.29 499.37L610.68 536.63Z" fill="white"/>
</g>
<defs>
<clipPath id="clip0_2_2649">
<rect width="1024" height="1024" fill="white"/>
</clipPath>
</defs>
</svg>
