<svg width="1024" height="1024" fill="none" xmlns="http://www.w3.org/2000/svg"><g clip-path="url(#a)"><path d="M512 1024c282.77 0 512-229.23 512-512S794.77 0 512 0 0 229.23 0 512s229.23 512 512 512Z" fill="#FF837D"/><path d="M741.2 394.9c0-7.8 6-13.8 13.8-13.8 7.8 0 13.8 6 13.8 13.8v220.8c0 7.8-6 13.8-13.8 13.8-7.8 0-13.8-6-13.8-13.8V394.9Zm-437.9 69c25.9 0 46.8 21 46.8 46.8 0 25.8-20.9 46.8-46.8 46.8-25.8 0-46.8-21-46.8-46.8 0-25.9 21-46.8 46.8-46.8Zm156 0c25.8 0 46.8 21 46.8 46.8 0 25.8-21 46.8-46.8 46.8-25.9 0-46.8-21-46.8-46.8 0-25.9 21-46.8 46.8-46.8Zm156.1 0c25.8 0 46.8 21 46.8 46.8 0 25.8-21 46.8-46.8 46.8-25.8 0-46.8-21-46.8-46.8 0-25.9 20.9-46.8 46.8-46.8Z" fill="#fff"/></g><defs><clipPath id="a"><path fill="#fff" d="M0 0h1024v1024H0z"/></clipPath></defs></svg>