<svg width="1024" height="1024" viewBox="0 0 1024 1024" fill="none" xmlns="http://www.w3.org/2000/svg">
<g clip-path="url(#clip0_2_2658)">
<path d="M512 1024C794.77 1024 1024 794.77 1024 512C1024 229.23 794.77 0 512 0C229.23 0 0 229.23 0 512C0 794.77 229.23 1024 512 1024Z" fill="#728DBE"/>
<path d="M148.29 554.43L159.68 555.68V558.53H149C141.88 558.53 136.6 556.34 133.16 551.95C129.72 547.55 128 539.72 128 528.45V422.75H132.27V528.45C132.27 535.33 132.89 540.58 134.14 544.2C135.39 547.82 137.13 550.34 139.39 551.76C141.64 553.18 144.61 554.07 148.29 554.43ZM230.31 513.87H186.89C186.89 524.55 187.81 532.85 189.65 538.78C191.49 544.71 194.78 549.01 199.53 551.68C204.27 554.35 211.1 555.68 219.99 555.68H252.73V558.53C243.24 559.24 232.21 559.6 219.63 559.6C210.02 559.6 202.55 558.06 197.21 554.97H197.22C191.88 551.89 188.11 546.87 185.92 539.93C183.72 532.99 182.63 523.29 182.63 510.84C182.63 498.39 183.85 488.72 186.28 481.84C188.71 474.96 192.65 470.1 198.11 467.25C203.57 464.4 211.04 462.98 220.53 462.98C232.27 462.98 240.87 465.24 246.33 469.74C251.79 474.25 254.51 482.08 254.51 493.23C254.51 506.99 246.44 513.87 230.31 513.87ZM186.9 509.95H230.32C237.32 509.95 242.39 508.7 245.53 506.21C248.67 503.72 250.25 499.39 250.25 493.22C250.25 486.34 249.3 481 247.4 477.21C245.5 473.41 242.42 470.75 238.15 469.2C233.88 467.66 228.01 466.89 220.53 466.89C211.51 466.89 204.63 468.14 199.89 470.63C195.15 473.12 191.79 477.39 189.84 483.44C187.88 489.49 186.9 498.33 186.9 509.95ZM349.18 469.1C354.04 473.67 356.47 480.52 356.47 489.65V558.51H353.62L352.2 547.12C351.96 547.24 347.28 549.34 338.14 553.44C329 557.53 319.34 559.58 309.14 559.58C302.14 559.58 296.45 557.51 292.06 553.35V553.37C287.67 549.22 285.48 543.47 285.48 536.11V530.59C285.48 522.88 287.91 516.77 292.77 512.26C297.63 507.75 304.63 505.5 313.77 505.5H352.2V489.66C352.2 482.07 350.15 476.26 346.06 472.22C341.97 468.19 334.82 466.17 324.62 466.17H294.37V463.32L299.35 463.14C310.85 462.55 319.57 462.25 325.51 462.25C336.42 462.25 344.31 464.54 349.18 469.1ZM352.2 508.36L312.7 509.61C304.63 509.85 298.79 511.87 295.17 515.66C291.55 519.46 289.74 524.44 289.74 530.61V535.24C289.74 542.24 291.76 547.34 295.79 550.54C299.82 553.74 304.51 555.34 309.85 555.34C314.12 555.34 319.4 554.51 325.69 552.85C331.98 551.18 337.61 549.49 342.59 547.77C347.57 546.05 350.77 544.9 352.2 544.3V508.36ZM455.41 466.62C451.02 463.84 445.8 462.44 439.75 462.44C432.99 462.44 426.32 463.6 419.73 465.91C413.14 468.22 407 471.27 401.31 475.07L399.53 464.04H397.04V558.53H401.31V477.57C408.79 473.54 415.25 470.66 420.71 468.94C426.17 467.22 432.16 466.36 439.75 466.36C447.34 466.36 453.39 468.88 457.9 473.92C462.4 478.96 464.66 485.22 464.66 492.69V558.53H468.93V492.69C468.93 487.35 467.77 482.37 465.46 477.74C463.15 473.11 459.8 469.41 455.41 466.62ZM528.54 436.63H514.48L511.81 463.32L496.33 466.35V477.92H511.45L510.74 526.85C510.5 538.24 512.63 546.37 517.14 551.23H517.15C521.66 556.1 528.83 558.53 538.68 558.53H553.09V545.36L541.35 544.29C537.68 543.94 534.62 542.51 532.19 540.02C529.76 537.52 528.54 533.07 528.54 526.67V477.91H554.34V463.32H528.54V436.63ZM596.86 426.15H583.69C581.56 426.15 580.49 427.21 580.49 429.35V444.3C580.49 445.25 580.78 445.99 581.38 446.52C581.97 447.06 582.74 447.33 583.69 447.33H596.86C598.76 447.33 599.71 446.32 599.71 444.3V429.35C599.71 428.41 599.47 427.64 599 427.04C598.52 426.45 597.81 426.15 596.86 426.15ZM581.2 558.53H598.99V463.33H581.2V558.53ZM746.33 461.73C740.28 461.73 733.84 463.12 727.02 465.91C720.2 468.7 714.41 471.93 709.67 475.61C707.29 471.34 704.03 467.96 699.88 465.47C695.72 462.98 690.8 461.73 685.11 461.73C678.46 461.73 672.39 462.79 666.87 464.93C661.36 467.07 655.93 469.97 650.59 473.65L647.03 463.33H632.81V558.53H650.6V486.47C655.46 483.63 659.94 481.49 664.03 480.07C668.12 478.64 672.66 477.93 677.64 477.93C683.22 477.93 687.61 479.62 690.81 483C694.01 486.38 695.61 490.92 695.61 496.61V558.53H713.4V496.79C713.4 493.71 712.93 490.56 711.98 487.36C716.49 484.51 721.21 482.23 726.13 480.51C731.05 478.79 735.77 477.93 740.28 477.93C745.86 477.93 750.28 479.62 753.54 483C756.8 486.38 758.43 490.92 758.43 496.61V558.53H776.22V495.01C776.22 484.81 773.79 476.71 768.93 470.72C764.06 464.73 756.53 461.73 746.33 461.73ZM848.12 462.75C821.68 462.76 800.24 484.2 800.24 510.64C800.24 537.08 821.68 558.52 848.12 558.52V545.44H848.03C828.72 545.44 813.07 529.79 813.07 510.48C813.07 491.17 828.72 475.52 848.03 475.52C867.34 475.52 882.99 491.17 882.99 510.48C882.99 512.11 882.84 513.7 882.62 515.27C887.09 515.28 891.49 515.33 895.52 515.41C895.75 513.69 895.92 512.31 896 510.63C896 484.19 874.56 462.75 848.12 462.75ZM850.42 478.64H845.63V515.4H871.64V510.91H850.42V478.64Z" fill="white"/>
</g>
<defs>
<clipPath id="clip0_2_2658">
<rect width="1024" height="1024" fill="white"/>
</clipPath>
</defs>
</svg>
