<svg width="1024" height="1024" fill="none" xmlns="http://www.w3.org/2000/svg"><g clip-path="url(#a)"><path d="M512 1024c282.77 0 512-229.23 512-512S794.77 0 512 0 0 229.23 0 512s229.23 512 512 512Z" fill="#F8C18C"/><path d="M273.3 528.35c-7.71 19.21-26.17 27.22-50.52 27.22-32.06 0-53.54-13-53.54-43.56 0-30.56 21.48-43.56 53.54-43.56 35.09 0 52 17.7 52 48.25v2.42h-78v.3c0 7.71 7.87 19.51 26 19.51 10.74 0 18.3-3.63 22.08-10.59l28.44.01Zm-26-25v-.3c0-4.39-5.59-18-25.1-18-21 0-25.41 16-25.41 18v.3h50.51Zm202.13-34.94c32.06 0 53.54 13 53.54 43.56 0 30.56-21.48 43.56-53.54 43.56s-53.54-13-53.54-43.56c0-30.56 21.48-43.56 53.54-43.56Zm0 68.37c16.48 0 26-8.92 26-24.81 0-15.89-9.53-24.8-26-24.8s-26 8.92-26 24.8 9.53 24.81 26 24.81Zm98.11-47.49h33.76v63.22h26.62v-63.18h21.33v-17.85h-21.33v-4c0-7.56 3.48-8.32 8.17-8.32 4.69 0 8.92.15 13.46.3v-16.62c-6.5-.15-13.16-.3-16.78-.3-24.81 0-31.46 4.08-31.46 25.86v3.07h-33.79v-4c0-7.56 3.48-8.32 8.17-8.32 4.54 0 8.93.15 13.46.3v-16.61c-6.5-.15-13.16-.3-16.79-.3-24.8 0-31.46 4.08-31.46 25.86v3.07h-16.79v17.85h16.79v63.22h26.62v-63.21l.02-.04ZM128 552.55h26.62V442.74H128v109.81Zm513.15-91.05h26.61v-18.76h-26.61v18.76Zm0 10v81.07h26.61v-81.09l-26.61.02Zm113.59 29.95h27.53c-5-26.77-29-33-49.61-33-32.07 0-53.55 13-53.55 43.56 0 30.56 20.72 43.56 51.27 43.56 26.47 0 47-6.5 51.88-35.24h-27.53c-1.36 10.13-10.28 16.49-22.08 16.49-16.49 0-26-8.92-26-24.81 0-15.89 9.52-24.8 26-24.8 10.74 0 18.9 3.48 22.08 14.22l.01.02Zm139.76 26.93c-7.72 19.21-26.17 27.22-50.52 27.22-32.06 0-53.54-13-53.54-43.56 0-30.56 21.48-43.56 53.54-43.56 35.09 0 52 17.7 52 48.25v2.42H818v.3c0 7.71 7.86 19.51 26 19.51 10.74 0 18.3-3.63 22.08-10.59l28.42.01Zm-26-25v-.3c0-4.39-5.6-18-25.11-18-21 0-25.41 16-25.41 18v.3h50.52ZM359 515.64l-20.31 20.31 16.78 16.77h40.86l-37.31-37.09-.02.01Zm0-7.07 37.31-37.09H355.5l-16.77 16.77L359 508.56v.01Zm-23.86-16.78-20.31-20.31H274l40.86 40.62L274 552.73h40.86l20.31-20.32 15.5-15.5 4.81-4.81-20.34-20.31Z" fill="#fff"/></g><defs><clipPath id="a"><path fill="#fff" d="M0 0h1024v1024H0z"/></clipPath></defs></svg>