<svg width="1024" height="1024" viewBox="0 0 1024 1024" fill="none" xmlns="http://www.w3.org/2000/svg">
<g clip-path="url(#clip0_2_2664)">
<path d="M512 1024C794.77 1024 1024 794.77 1024 512C1024 229.23 794.77 0 512 0C229.23 0 0 229.23 0 512C0 794.77 229.23 1024 512 1024Z" fill="#F8C18C"/>
<path d="M273.3 528.35C265.59 547.56 247.13 555.57 222.78 555.57C190.72 555.57 169.24 542.57 169.24 512.01C169.24 481.45 190.72 468.45 222.78 468.45C257.87 468.45 274.78 486.15 274.78 516.7V519.12H196.78V519.42C196.78 527.13 204.65 538.93 222.78 538.93C233.52 538.93 241.08 535.3 244.86 528.34L273.3 528.35ZM247.3 503.35V503.05C247.3 498.66 241.71 485.05 222.2 485.05C201.2 485.05 196.79 501.05 196.79 503.05V503.35H247.3ZM449.43 468.41C481.49 468.41 502.97 481.41 502.97 511.97C502.97 542.53 481.49 555.53 449.43 555.53C417.37 555.53 395.89 542.53 395.89 511.97C395.89 481.41 417.37 468.41 449.43 468.41ZM449.43 536.78C465.91 536.78 475.43 527.86 475.43 511.97C475.43 496.08 465.9 487.17 449.43 487.17C432.96 487.17 423.43 496.09 423.43 511.97C423.43 527.85 432.96 536.78 449.43 536.78ZM547.54 489.29H581.3V552.51H607.92V489.33H629.25V471.48H607.92V467.48C607.92 459.92 611.4 459.16 616.09 459.16C620.78 459.16 625.01 459.31 629.55 459.46V442.84C623.05 442.69 616.39 442.54 612.77 442.54C587.96 442.54 581.31 446.62 581.31 468.4V471.47H547.52V467.47C547.52 459.91 551 459.15 555.69 459.15C560.23 459.15 564.62 459.3 569.15 459.45V442.84C562.65 442.69 555.99 442.54 552.36 442.54C527.56 442.54 520.9 446.62 520.9 468.4V471.47H504.11V489.32H520.9V552.54H547.52V489.33L547.54 489.29ZM128 552.55H154.62V442.74H128V552.55ZM641.15 461.5H667.76V442.74H641.15V461.5ZM641.15 471.5V552.57H667.76V471.48L641.15 471.5ZM754.74 501.45H782.27C777.27 474.68 753.27 468.45 732.66 468.45C700.59 468.45 679.11 481.45 679.11 512.01C679.11 542.57 699.83 555.57 730.38 555.57C756.85 555.57 777.38 549.07 782.26 520.33H754.73C753.37 530.46 744.45 536.82 732.65 536.82C716.16 536.82 706.65 527.9 706.65 512.01C706.65 496.12 716.17 487.21 732.65 487.21C743.39 487.21 751.55 490.69 754.73 501.43L754.74 501.45ZM894.5 528.38C886.78 547.59 868.33 555.6 843.98 555.6C811.92 555.6 790.44 542.6 790.44 512.04C790.44 481.48 811.92 468.48 843.98 468.48C879.07 468.48 895.98 486.18 895.98 516.73V519.15H818V519.45C818 527.16 825.86 538.96 844 538.96C854.74 538.96 862.3 535.33 866.08 528.37L894.5 528.38ZM868.5 503.38V503.08C868.5 498.69 862.9 485.08 843.39 485.08C822.39 485.08 817.98 501.08 817.98 503.08V503.38H868.5ZM359 515.64L338.69 535.95L355.47 552.72H396.33L359.02 515.63L359 515.64ZM359 508.57L396.31 471.48H355.5L338.73 488.25L359 508.56V508.57ZM335.14 491.79L314.83 471.48H274L314.86 512.1L274 552.73H314.86L335.17 532.41L350.67 516.91L355.48 512.1L335.14 491.79Z" fill="white"/>
</g>
<defs>
<clipPath id="clip0_2_2664">
<rect width="1024" height="1024" fill="white"/>
</clipPath>
</defs>
</svg>
