<svg width="1024" height="1024" viewBox="0 0 1024 1024" fill="none" xmlns="http://www.w3.org/2000/svg">
<g clip-path="url(#clip0_2_2676)">
<path d="M512 1024C794.77 1024 1024 794.77 1024 512C1024 229.23 794.77 0 512 0C229.23 0 0 229.23 0 512C0 794.77 229.23 1024 512 1024Z" fill="#71A372"/>
<path d="M476.48 399.78L501.48 431.03L528.98 407.28C528.98 407.28 567.73 373.53 572.73 369.78L587.73 358.53C608.98 343.53 628.98 328.53 651.48 313.53C673.98 298.53 695.23 284.78 716.48 269.78C727.73 262.28 788.99 227.28 788.99 227.28C783.69 226.79 778.38 226.52 773.06 226.47C763.99 226.38 754.61 226.97 745.24 228.53C731.49 229.78 716.49 232.28 702.74 234.78C675.24 241.03 647.74 249.78 621.48 262.28C607.73 268.53 595.23 274.78 582.73 282.28C570.23 289.78 557.73 297.28 546.48 306.03C536.92 313.09 507.44 340.07 504.17 343.69L491.47 333.53C477.72 323.53 463.97 314.78 450.22 307.28C435.22 299.78 420.22 292.28 405.22 287.28C388.97 282.28 372.72 278.53 356.47 278.53C368.97 287.28 381.47 297.28 392.72 308.53C403.97 318.53 413.97 329.78 423.97 341.03L453.97 374.78M383.96 369.89C301.45 426.14 267.71 532.41 302.7 626.16L382.71 592.41C377.71 578.66 375.21 563.66 375.21 549.91C375.21 503.66 400.21 459.9 438.96 436.15L383.96 369.89ZM640.23 374.89L565.22 429.89C590.22 442.39 611.47 462.39 623.98 486.14L702.74 452.39C688.99 422.39 667.74 396.14 640.24 374.89H640.23ZM712.74 469.9L633.98 503.65C656.48 566.15 630.23 636.16 571.47 667.41L605.22 746.17C680.23 709.92 727.73 633.66 727.73 549.9C727.73 522.4 722.73 494.9 712.73 469.89L712.74 469.9ZM388.96 609.92L310.2 643.67C358.95 747.43 480.21 796.18 587.72 754.93L553.97 676.17C538.97 681.17 523.97 683.67 507.72 683.67C457.72 683.67 411.46 654.92 388.96 609.91V609.92Z" fill="white"/>
</g>
<defs>
<clipPath id="clip0_2_2676">
<rect width="1024" height="1024" fill="white"/>
</clipPath>
</defs>
</svg>
