<svg width="1024" height="1024" fill="none" xmlns="http://www.w3.org/2000/svg"><g clip-path="url(#a)"><path d="M512 1024c282.77 0 512-229.23 512-512S794.77 0 512 0 0 229.23 0 512s229.23 512 512 512Z" fill="#728DBE"/><path d="m483.93 647-1.36-232.81a28.589 28.589 0 0 1 8.43-20.56 29.061 29.061 0 0 1 20.73-8.45 30.16 30.16 0 0 1 30 29.69l1.44 279.53c.29 42.32-27.12 73.73-62.44 73.54-17.12-.09-32.07-5.45-42.61-17-11.17-12.2-17.25-30.77-17.3-55.63-.05-24.86-2.22-348.16-2.22-348.16a89.85 89.85 0 0 1 26.57-64.62 91.005 91.005 0 0 1 65.07-26.46c51.34.47 92.71 41.54 93.19 92.59 0 3.15 2 303.7 2 303.7a13.625 13.625 0 1 0 27.25-.18l-2-303.74c-.61-65.9-53.93-119-120.18-119.61a118.303 118.303 0 0 0-84.55 34.39 117.08 117.08 0 0 0-34.61 84.16l2.22 348.07c.07 33.23 9.52 57.63 24.45 73.94 15.56 17 37.29 25.68 62.56 25.81 49.47.26 90.23-41.68 89.83-101l-1.44-279.56A57.391 57.391 0 0 0 512 357.93a56.115 56.115 0 0 0-40.166 16.34 56.119 56.119 0 0 0-16.524 40.09l1.36 232.76a13.624 13.624 0 0 0 26.243 5.06 13.635 13.635 0 0 0 1.007-5.22l.01.04Z" fill="#fff"/></g><defs><clipPath id="a"><path fill="#fff" d="M0 0h1024v1024H0z"/></clipPath></defs></svg>