<svg width="1024" height="1024" fill="none" xmlns="http://www.w3.org/2000/svg"><g clip-path="url(#a)"><path d="M512 1024c282.77 0 512-229.23 512-512S794.77 0 512 0 0 229.23 0 512s229.23 512 512 512Z" fill="#728DBE"/><path d="M693.05 693.16h-76v-119c0-28.39-.58-64.92-39.59-64.92-39.61 0-45.66 30.89-45.66 62.82v121.1h-76V448.38h73v33.37h1c10.2-19.24 35-39.54 72-39.54 77 0 91.21 50.66 91.21 116.6v134.35h.04Zm-323-278.28a44.122 44.122 0 0 1-43.274-52.72 44.122 44.122 0 0 1 79.949-15.926 44.123 44.123 0 0 1 7.445 24.506 44.083 44.083 0 0 1-12.89 31.215 44.063 44.063 0 0 1-31.2 12.925h-.03Zm38.09 278.28H332V448.38h76.18l-.04 244.78ZM731.06 256h-437.2c-20.93 0-37.86 16.54-37.86 37v439c0 20.43 16.93 37 37.86 37H731c20.9 0 38-16.52 38-37V293c0-20.41-17.1-37-38-37h.06Z" fill="#fff"/></g><defs><clipPath id="a"><path fill="#fff" d="M0 0h1024v1024H0z"/></clipPath></defs></svg>