<svg width="1024" height="1024" fill="none" xmlns="http://www.w3.org/2000/svg"><g clip-path="url(#a)"><path d="M512 1024c282.77 0 512-229.23 512-512S794.77 0 512 0 0 229.23 0 512s229.23 512 512 512Z" fill="#BD9AFF"/><path d="M579.3 444.7a144.796 144.796 0 0 1 .34 204.53l-.34.35-64 64c-56.49 56.49-148.4 56.48-204.88 0-56.48-56.48-56.49-148.4 0-204.88l35.37-35.37c9.38-9.38 25.53-3.15 26 10.11a175.659 175.659 0 0 0 9.21 50.3 15.336 15.336 0 0 1-3.61 15.83L364.91 562c-26.71 26.71-27.55 70.21-1.1 97.18a68.703 68.703 0 0 0 75.102 15.407 68.684 68.684 0 0 0 22.428-14.917l64-64a68.597 68.597 0 0 0 20.111-48.53 68.603 68.603 0 0 0-20.111-48.53 71.409 71.409 0 0 0-9.86-8.17 15.277 15.277 0 0 1-4.729-5.217 15.284 15.284 0 0 1-1.891-6.783 38.017 38.017 0 0 1 11.2-28.44l20.06-20a15.315 15.315 0 0 1 19.62-1.65 145.33 145.33 0 0 1 19.56 16.35Zm134.33-134.33c-56.48-56.48-148.39-56.49-204.88 0l-64 64-.34.35a144.896 144.896 0 0 0-41.491 115.094A144.902 144.902 0 0 0 464.31 595.64a15.312 15.312 0 0 0 19.57-1.64l20.06-20a37.99 37.99 0 0 0 11.15-28.41 15.283 15.283 0 0 0-6.62-12 71.456 71.456 0 0 1-9.86-8.17 68.629 68.629 0 0 1-14.884-22.264 68.621 68.621 0 0 1 0-52.532 68.629 68.629 0 0 1 14.884-22.264l64-64a68.705 68.705 0 0 1 75.253-14.651 68.674 68.674 0 0 1 22.277 15.141c26.45 27 25.61 70.47-1.1 97.18l-12.47 12.47a15.35 15.35 0 0 0-3.57 15.76 175.621 175.621 0 0 1 9.24 50.25c.49 13.25 16.64 19.49 26 10.11l35.37-35.37c56.49-56.48 56.49-148.4 0-204.88h.02Z" fill="#fff"/></g><defs><clipPath id="a"><path fill="#fff" d="M0 0h1024v1024H0z"/></clipPath></defs></svg>