<svg width="1024" height="1024" fill="none" xmlns="http://www.w3.org/2000/svg"><g clip-path="url(#a)"><path d="M512 1024c282.77 0 512-229.23 512-512S794.77 0 512 0 0 229.23 0 512s229.23 512 512 512Z" fill="#73ADA4"/><path d="m458.15 617.7 18.8-107.3a56.94 56.94 0 0 1 35.2-101.9V289.4h-145.2a56.327 56.327 0 0 0-56.3 56.3v275.8a33.95 33.95 0 0 0 3.4 15c12.2 24.6 60.2 103.7 197.9 164.5V622.1a313.249 313.249 0 0 1-53.8-4.4ZM656.85 289h-144.9v119.1a56.858 56.858 0 0 1 54.99 72.614 56.854 56.854 0 0 1-19.29 28.786l18.8 107.8A320.561 320.561 0 0 1 512 622v178.6c137.5-60.5 185.7-139.9 197.9-164.5a33.95 33.95 0 0 0 3.4-15V345.5a56.008 56.008 0 0 0-16.4-40 56.762 56.762 0 0 0-40.05-16.5Z" fill="#fff"/></g><defs><clipPath id="a"><path fill="#fff" d="M0 0h1024v1024H0z"/></clipPath></defs></svg>