<svg width="1024" height="1024" viewBox="0 0 1024 1024" fill="none" xmlns="http://www.w3.org/2000/svg">
<g clip-path="url(#clip0_2_2712)">
<path d="M512 1024C794.77 1024 1024 794.77 1024 512C1024 229.23 794.77 0 512 0C229.23 0 0 229.23 0 512C0 794.77 229.23 1024 512 1024Z" fill="#728DBE"/>
<path d="M460.7 446.2C455.4 446.2 451.5 450.6 451.5 455.9V523.6C451.5 547.3 434.6 563.8 410.4 563.8C386.2 563.8 369.8 547.3 369.3 523.6V455.9C369.3 450.6 364.9 446.2 360.1 446.2C355.3 446.2 350.9 450.6 350.9 455.9V524.6C350.9 542.5 356.7 557.5 368.3 567.7C378.5 576.9 393 582.2 408.9 582.7H412.8C428.3 582.2 442.3 576.9 452.5 567.7C463.6 557.5 469.4 542.5 469.4 524.6V455.9C469.9 450.5 465.5 446.2 460.7 446.2ZM310.2 562.3H281.2C257.5 562.3 240.6 545.8 240.1 522.1V454.4C240.1 449.1 235.7 444.7 230.9 444.7C226.1 444.7 221.7 449.1 221.7 454.4V523.1C221.7 541 227.5 556 239.1 566.2C249.3 575.4 263.8 580.7 279.7 581.2H310.2C315.5 581.2 319.4 576.8 319.4 571.5C319.4 566.2 315.1 562.3 310.2 562.3ZM618.9 577.3C613.6 577.3 609.7 572.9 609.7 567.6V499.9C609.7 476.2 592.8 459.7 568.6 459.7C544.4 459.7 528 476.2 527.5 498V565.7C527.5 573 523.1 577.3 518.3 577.3C513.5 577.3 509.1 572.9 509.1 567.6V499.4C509.1 481.5 514.9 466.5 526.5 456.3C536.2 446.6 550.7 441.8 566.7 441.3H571.1C586.6 441.8 600.6 447.1 610.8 456.3C622.4 466.9 628.2 481.9 628.2 499.4V568.1C628.1 573 623.8 577.3 618.9 577.3ZM734.1 581.7C714.7 581.7 697.3 574.4 684.7 561.4C672.6 548.8 665.8 531.9 665.8 513.5V513C665.8 494.6 672.6 477.7 684.7 465.1C697.3 451.6 715.2 444.3 734.1 444.3C753.5 444.3 770.9 451.6 783.5 464.6C795.6 477.2 802.4 494.1 802.4 512.5V513C802.4 531.4 795.6 548.3 783.5 560.9C770.9 574.4 753 581.7 734.1 581.7ZM734.1 461.7C706.5 461.7 685.2 483.5 685.2 512.5V513C685.2 527 690 539.6 699.2 549.3C708.4 559 721 564.3 734.5 564.3C762.1 564.3 783.4 542.5 783.4 513.5V513C783.4 499 778.6 486.4 769.4 476.7C760.2 467 747.7 461.7 734.1 461.7Z" fill="white"/>
</g>
<defs>
<clipPath id="clip0_2_2712">
<rect width="1024" height="1024" fill="white"/>
</clipPath>
</defs>
</svg>
