<svg width="1024" height="1024" fill="none" xmlns="http://www.w3.org/2000/svg"><g clip-path="url(#a)"><path d="M512 1024c282.77 0 512-229.23 512-512S794.77 0 512 0 0 229.23 0 512s229.23 512 512 512Z" fill="#FF837D"/><path d="M512 415.21a96.818 96.818 0 0 0-68.451 165.293 96.816 96.816 0 0 0 105.523 20.968 96.814 96.814 0 0 0 43.445-35.673 96.81 96.81 0 0 0-12.068-122.238A96.834 96.834 0 0 0 512 415.21ZM361.06 512A151 151 0 0 1 663 512a161.346 161.346 0 0 1-.84 16.3c-1.14 14.73 9.68 26 24.29 26 24.84 0 27.48-32 27.48-42.28 0-111.49-90.39-201.82-201.82-201.82-111.43 0-201.93 90.4-201.93 201.8S400.57 713.85 512 713.85a201.423 201.423 0 0 0 149.38-66.09l41.49 34.82A255.453 255.453 0 0 1 512 768c-141.38 0-256-114.62-256-256s114.62-256 256-256 256 114.65 256 256c0 56.83-27.06 103-81.42 103-23.93 0-38.49-10.94-46.43-23.21a150.913 150.913 0 0 1-169.662 65.449A150.908 150.908 0 0 1 361.06 512ZM512 467.77a44.32 44.32 0 1 1 0 88.64 44.32 44.32 0 0 1 0-88.64Z" fill="#fff"/></g><defs><clipPath id="a"><path fill="#fff" d="M0 0h1024v1024H0z"/></clipPath></defs></svg>