<svg width="1024" height="1024" viewBox="0 0 1024 1024" fill="none" xmlns="http://www.w3.org/2000/svg">
<g clip-path="url(#clip0_2_2724)">
<path d="M512 1024C794.77 1024 1024 794.77 1024 512C1024 229.23 794.77 0 512 0C229.23 0 0 229.23 0 512C0 794.77 229.23 1024 512 1024Z" fill="#728DBE"/>
<path d="M387.29 459.17C359.13 459.17 336.26 482.04 336.26 512.63C336.26 543.22 358.99 565.95 387 565.95C401.44 565.95 414.16 558.66 422.16 547.65V563.37H438.31V512.63C438.17 482.76 416.15 459.17 387.28 459.17H387.29ZM387.29 550.36C368.42 550.36 352.99 534.07 352.99 512.62C352.99 491.17 368.43 474.6 387.29 474.6C406.15 474.6 421.59 491.61 421.59 512.62C421.59 533.63 406.01 550.36 387.29 550.36ZM525.08 547.64V563.36C501.21 566.08 484.77 552.07 484.77 526.34V431.86H501.35V525.77C501.49 543.64 512.5 548.21 525.08 547.64ZM452.9 461.73H469.62V563.36H452.9V461.73ZM452.9 431.86H469.62V448.58H452.9V431.86ZM564.82 512.62C564.82 533.2 580.26 549.64 598.98 549.64C612.42 549.64 622.85 542.78 628.43 531.63H646.44C639.72 552.21 621.71 565.51 599.13 565.51C571.11 565.51 548.24 541.78 548.24 512.48C548.24 483.18 571.11 459.02 599.13 459.02C621.86 459.02 639.58 472.46 646.44 492.9H628.43C622.71 481.89 612.28 474.89 598.98 474.89C580.26 475.18 564.82 492.19 564.82 512.63V512.62ZM699.9 459.16C671.17 459.16 648.87 483.17 648.87 512.76C648.87 542.35 671.17 565.79 699.9 565.79C728.63 565.79 750.93 541.92 750.93 512.76C751.07 483.32 728.92 459.16 699.9 459.16ZM699.9 549.78C681.18 549.78 665.74 533.2 665.74 512.9C665.74 492.6 681.18 475.16 699.9 475.16C718.62 475.16 734.2 492.17 734.2 512.9C734.2 533.63 718.91 549.78 699.9 549.78ZM533.81 546.64H550.53V563.36H533.81V546.64ZM896.01 498.33V563.37H879.29V497.62C879.29 484.47 870.57 474.61 857.13 474.61C843.69 474.61 834.97 484.47 834.97 497.62V563.37H818.25V497.62C818.25 484.47 809.53 474.61 796.09 474.61C782.65 474.61 773.93 484.47 773.93 497.62V563.37H757.21V459.17H796.23C810.09 459.17 820.67 465.75 826.68 475.89C832.83 465.6 843.4 459.17 857.27 459.17C880.28 459.17 896.01 476.18 896.01 498.33ZM278.24 431.86H128.01V562.5C128.01 574.22 136.01 583.94 146.73 586.8L328.12 632.11V481.88C328.26 454.29 305.82 431.85 278.23 431.85L278.24 431.86ZM278.1 562.5V505.18C278.1 499.61 276.24 486.6 259.66 486.6C248.65 486.6 240.65 494.18 240.65 505.18V562.5H215.49V505.18C215.49 499.61 213.77 486.6 197.19 486.6C185.9 486.6 178.18 494.18 178.18 505.18V562.5H153.02V462.02H197.19C210.48 462.02 221.35 467.31 228.35 475.88C235.78 467.3 246.79 462.02 259.51 462.02C286.95 462.02 303.11 480.17 303.11 505.76L303.25 562.51H278.09L278.1 562.5Z" fill="white"/>
</g>
<defs>
<clipPath id="clip0_2_2724">
<rect width="1024" height="1024" fill="white"/>
</clipPath>
</defs>
</svg>
