<svg width="1024" height="1024" viewBox="0 0 1024 1024" fill="none" xmlns="http://www.w3.org/2000/svg">
<g clip-path="url(#clip0_2_2736)">
<path d="M512 1024C794.77 1024 1024 794.77 1024 512C1024 229.23 794.77 0 512 0C229.23 0 0 229.23 0 512C0 794.77 229.23 1024 512 1024Z" fill="#D3B69A"/>
<path d="M889.1 606.6C889.1 606.6 875.3 688.4 831.5 687.7C817.4 688.3 807.5 684.2 800.8 679.4C790.7 690.1 777.5 699.3 764.3 707L764.2 707.1C753.4 713.3 742.7 718.4 733.9 722.3C730.8 723.6 728 724.8 725.5 725.8V681.9C731.9 682.1 737.8 681.8 743.3 680.9C765.9 677.4 780.9 666.2 787 660.8C782.7 647.6 776.1 608.8 842 602.7C839.3 603.3 832.7 606.2 826.9 621C846.4 622.6 878.4 625.4 889.1 606.6ZM646.7 590.5C646.2 591 645.7 591.5 645.3 591.8L644.6 592.4C630.8 605.7 615.3 616.9 598.4 625.8C595 627.6 591.5 629.3 588 630.8C586.3 631.6 584.5 632.4 582.7 633.1C579.1 634.6 575.5 636 571.8 637.2C571.3 637.4 570.8 637.5 570.4 637.7L719.3 763C720.2 760.2 720.7 757.3 720.7 754.4V479.2L700 495.8C691.6 531.2 673.4 563.7 647.5 589.7L646.7 590.5ZM563.8 640C545.2 645.6 525.9 648.5 506.4 648.5C485.3 648.5 464.4 645.2 444.4 638.6L290.6 766.8L288.4 768.5C293.4 777 302.5 782.3 312.4 782.3H692.8C702.7 782.3 711.8 777 716.8 768.5L714.7 766.9L563.8 640ZM316.1 507.8C315.6 506.3 315.2 504.7 314.7 503.1L284.5 479.1V754.3C284.5 757.2 285 760.1 285.9 762.9L437.9 636.2C379.7 614.9 334.2 567.1 316.1 507.8ZM704.3 471.1C703.7 476.4 702.9 481.7 701.8 487L715.9 475.7L704.3 471.1ZM289.7 475.3L312.2 493.2C310.4 485.3 309.1 477.4 308.3 469.6L289.7 475.3ZM675.3 355.7C691.1 384.2 699.5 416.6 699.5 449.3C699.5 500.4 679.8 548.4 644 584.8C643.4 585.4 641.9 587 641.2 587.6L640.6 588.2C627.2 601.1 612.1 612 595.7 620.6C592.4 622.3 589 624 585.6 625.5C583.9 626.3 582.2 627 580.4 627.7C577 629.1 573.4 630.5 569.9 631.7C568.2 632.3 566.3 632.9 564.5 633.5C545.7 639.4 526.2 642.4 506.3 642.4C484.9 642.4 463.8 638.9 443.6 632C385.3 612 339.7 564.9 321.6 506C317.8 493.6 315.2 480.6 314 467.6C313.4 461.5 313.1 455.3 313.1 449.3C313.1 442.7 313.4 436.1 314.1 429.5C316.6 404.7 323.8 381 335.5 359C337.7 354.9 340 350.9 342.4 347C348.3 337.6 355 328.7 362.3 320.5L362.7 320.1L363.4 319.3C366.1 316.3 369 313.4 371.8 310.6C380.8 301.9 390.7 294 401.2 287.2C408.2 282.6 415.6 278.5 423.2 274.9C440.9 266.5 459.7 260.8 479.1 258.1C496.1 255.7 513.4 255.6 530.4 257.7C549.3 260.1 567.7 265.2 585.1 273C592.5 276.3 599.7 280.1 606.5 284.3C617.5 291 627.9 298.9 637.4 307.7C648.9 318.4 659.1 330.4 667.7 343.5C670.5 347.4 673 351.5 675.3 355.7ZM643.3 445.4C643.3 364.9 584.3 296.9 506.2 287.2C499.9 286.4 493.5 286 487.1 286C457.4 286 428.4 294.6 403.5 310.8C379.2 326.6 359.6 348.8 346.9 375.1C336.3 397.1 330.9 420.8 330.9 445.4C330.9 486.1 345.9 524.9 373.3 554.5C403.2 586.9 443.6 604.8 487.2 604.8C542.9 604.8 594.8 574.1 622.7 524.8C628.6 514.3 633.4 503.1 636.8 491.4C641 476.5 643.3 461 643.3 445.4ZM692.2 457.3H694.4V457.2H692.2V457.3ZM614.4 520.9L616.1 524C589 570.2 539.6 598.9 487 598.9C445.6 598.9 407.1 582.1 378.5 551.6V547.4L379.3 547.1L378.5 546.2C380.4 504.3 434.9 470.3 500.3 470.3C550.7 470.3 596.5 490.7 614.4 520.9ZM444.1 535.7C444.1 525 435.4 516.4 424.8 516.4C414.2 516.4 405.5 525.1 405.5 535.7C405.5 546.4 414.2 555 424.8 555C435.5 555 444.1 546.3 444.1 535.7ZM595.7 535.7C595.7 525 587 516.4 576.4 516.4C565.7 516.4 557.1 525.1 557.1 535.7C557.1 546.4 565.8 555 576.4 555C587 555 595.7 546.3 595.7 535.7ZM487 291.9C493.1 291.9 499.3 292.3 505.4 293C580.6 302.4 637.4 367.9 637.4 445.4C637.4 460.5 635.2 475.4 631 489.9V490C630.5 491.7 629.9 493.6 629.2 495.8L628.7 497.2C628 499.1 627.3 501 626.6 502.8L626.1 504C625.4 505.7 624.7 507.4 624 509L623.6 510C622.8 511.7 622 513.5 621 515.4C620.6 516.3 620.1 517.2 619.6 518.1C600.6 486 553.1 464.5 500.5 464.5C466.6 464.5 434.7 473.1 410.6 488.8C387.7 503.7 374.5 523.3 372.9 544.3C371.7 540.2 370.8 536 370.2 532C370.2 531.7 370.1 531.3 370 531C369.9 530.7 369.9 530.4 369.8 530C361.2 492.1 355.2 463.7 348.1 422.2C347.3 415.6 346.9 409.9 346.7 404.3C346.7 403.5 346.6 402.7 346.6 401.9C346.5 400.5 346.5 399.1 346.5 397.6C346.5 395.4 346.6 393.1 346.8 390.3C348.1 386.8 349.6 383.3 351.2 379.9L352.3 377.6L352.4 377.3L353.6 374.9L354.2 373.7C354.4 373.3 354.5 373 354.7 372.7C354.8 372.5 354.9 372.4 355 372.2L355.2 371.8C367.4 349.1 385.2 329.7 406.6 315.8C430.6 300.1 458.4 291.9 487 291.9ZM452.2 396.8C452.2 384.9 442.6 375.3 430.7 375.3C418.8 375.3 409.2 384.9 409.2 396.8C409.2 408.7 418.8 418.3 430.7 418.3C436.4 418.3 441.8 416.1 445.9 412C449.9 408 452.2 402.6 452.2 396.8ZM557.6 396.8C557.6 408.7 567.2 418.3 579.1 418.3C591 418.3 600.6 408.7 600.6 396.8C600.6 384.9 590.9 375.3 579.1 375.3C567.3 375.3 557.6 385 557.6 396.8ZM585.4 398.2C589.5 398.2 592.9 394.9 592.9 390.7C592.9 386.6 589.5 383.2 585.4 383.2C581.3 383.2 577.9 386.6 577.9 390.7C577.9 394.9 581.2 398.2 585.4 398.2ZM438.3 398.2C442.4 398.2 445.8 394.9 445.8 390.7C445.8 386.6 442.5 383.2 438.3 383.2C434.2 383.2 430.8 386.6 430.8 390.7C430.8 394.9 434.1 398.2 438.3 398.2ZM584.7 208.6C581.7 215.1 568.3 241.6 544.3 253.2C559.2 256.1 573.7 260.6 587.4 266.7C593.8 254.9 604.8 228 584.7 208.6ZM420.8 268.7C434.7 262.1 449.4 257.1 464.5 253.9C439.4 242.8 425.5 215.2 422.4 208.5C401.5 228.8 413.8 256.6 420.8 268.7ZM612.1 279.7C622.8 286.4 632.9 294.1 642.1 302.6L642.2 302.7C656.3 293.6 678 284.1 701.9 289.9L702.9 290.1L702.8 291.1C702.8 291.4 698.8 318.4 673.8 340.1C676.1 343.6 678.3 347.2 680.4 350.9C708.6 330.7 721 302.6 717.4 267.4C710.6 265 649.6 243.4 612.1 279.7ZM327.5 259.1C307.6 260.5 291.3 266.3 288 267.6C284.1 305.1 298.4 334.4 330.4 354.7C332.3 351.1 334.4 347.6 336.5 344.2C307.2 322 302.7 291.5 302.6 291.2L302.5 290.2L303.5 290C329.3 283.8 352.4 295 367.5 305.7C376.3 297.2 385.9 289.5 396.1 282.7C375.8 260.7 347.7 257.7 327.5 259.1Z" fill="white"/>
</g>
<defs>
<clipPath id="clip0_2_2736">
<rect width="1024" height="1024" fill="white"/>
</clipPath>
</defs>
</svg>
