<svg width="1024" height="1024" viewBox="0 0 1024 1024" fill="none" xmlns="http://www.w3.org/2000/svg">
<g clip-path="url(#clip0_2_2727)">
<path d="M512 1024C794.77 1024 1024 794.77 1024 512C1024 229.23 794.77 0 512 0C229.23 0 0 229.23 0 512C0 794.77 229.23 1024 512 1024Z" fill="#9ABEFF"/>
<path d="M461.3 642.8C464.8 642.8 468.3 641.8 471.1 639.9L471.6 639.6L472 639.2C505.2 610.8 538.4 582.3 571.6 553.9C621.5 511.1 672.8 467.1 723.8 423.5C704.8 464.9 685.5 507 666.8 547.7C652.7 578.5 638.5 609.3 624.4 640.1C623.4 642 622.6 644 621.8 645.8C620.2 649.5 618.9 652.7 616.8 654.6L616.7 654.7L616.6 654.8C612.2 659.4 608.5 661.7 605.4 661.8H258.6C257.4 661.7 256.5 661.6 255.8 661.5C255.9 661.2 256 661 256.1 660.7C256.3 660.2 256.5 659.8 256.7 659.4C269.5 630.7 282.3 602.1 295.1 573.4C312.8 533.8 331.1 492.8 349.1 452.4C351.2 456.3 353.3 460.3 355.4 464.1C358.7 470.3 362.1 476.6 365.5 482.8C382.4 514.2 399.6 546.1 416.2 577C426.4 595.9 436.5 614.8 446.7 633.7C449.1 639.2 454.8 642.8 461.3 642.8ZM821.9 326.9C802.4 343.7 782.7 360.3 763.3 377.2C759.2 387.3 754.4 397.1 749.9 407C711.4 490.9 672.9 574.7 634.4 658.6C628.2 669.9 616.1 679.6 602.5 678.3H262.6C257.4 678.4 251.9 678.6 247 676.3C242.6 674.7 239.1 671 237.9 666.4V660.3C239.2 655.4 241.7 650.9 243.7 646.3C275 576.2 306.3 506.2 337.6 436.1C340.8 428.8 347.1 423.2 354.2 419.7C360.2 416.7 367.2 416.6 373.7 415.5C486.6 399.1 599.5 382.7 712.5 366.3C722.1 364.7 731.8 363.9 741.3 361.9C766.7 345.8 791.7 329 817.1 312.8C820.2 310.8 825 311.5 826.6 315.1C828.3 319.5 825.7 324.4 821.9 326.9ZM749.2 389.5C654.8 470.4 560.4 551.3 466.1 632.2C462.6 634.5 456.6 634 455 629.6C427.9 579.2 400.7 528.8 373.6 478.3C365.3 463.3 357.6 447.9 349 433.1C345.3 437.3 343.5 442.7 341.1 447.8C310.2 517 279.2 586.2 248.3 655.4C246.7 659 244 663.6 247.2 667.1C250.1 669.8 254.3 670.5 258.2 670.7H605.3C612.4 670.6 618.4 665.8 623.1 660.9C627.9 656.2 629.6 649.5 632.6 643.7L734 422.9C739 411.9 744.5 400.9 749.2 389.5ZM815.2 322.8C803.2 330.3 791.5 338.2 779.6 345.9C764.5 355.7 749.2 365.1 735 376.3L469.6 547.3L364.6 441.2L358.8 434.2C393 498.1 427.8 561.8 462 625.7C473.8 616.1 485.1 606 496.7 596.2C588.9 517.1 681.1 438.1 773.4 359C787.3 346.8 801.5 335.1 815.2 322.8Z" fill="white"/>
</g>
<defs>
<clipPath id="clip0_2_2727">
<rect width="1024" height="1024" fill="white"/>
</clipPath>
</defs>
</svg>
