<svg width="1024" height="1024" fill="none" xmlns="http://www.w3.org/2000/svg"><g clip-path="url(#a)"><path d="M512 1024c282.77 0 512-229.23 512-512S794.77 0 512 0 0 229.23 0 512s229.23 512 512 512Z" fill="#FF837D"/><path d="M735.56 566a8.711 8.711 0 0 1-8.71 8.71h-392.3a8.717 8.717 0 0 1-8.425-8.715 8.722 8.722 0 0 1 8.425-8.715h392.3a8.72 8.72 0 0 1 8.71 8.72Zm-228.19 85c-1.91-1.88-3.94-3.65-6-5.34A67.232 67.232 0 0 0 453 685.23a28.934 28.934 0 0 1 15.65 9.56 29.521 29.521 0 0 1 2 2.72 28.534 28.534 0 0 1 4.47 11.88c.043.208.073.418.09.63.134.907.201 1.823.2 2.74v.68c.01.18.01.36 0 .54v.07a28.209 28.209 0 0 0 2.07 10.17 29.13 29.13 0 0 0 11.61 13.84 28.93 28.93 0 0 0 26.839 1.852 28.93 28.93 0 0 0 16.751-21.052c.234-1.111.388-2.237.46-3.37v-2.77a86.425 86.425 0 0 0-6.674-33.453A86.42 86.42 0 0 0 507.37 651Zm219.48-60.61h-392.3a8.712 8.712 0 0 0-6.162 2.553 8.712 8.712 0 0 0 0 12.325 8.715 8.715 0 0 0 6.162 2.552h328.1v48.5l25-14.46 25 14.47v-48.56h14.27a8.712 8.712 0 0 0 6.162-2.553 8.712 8.712 0 0 0 0-12.324 8.712 8.712 0 0 0-6.162-2.553l-.07.05Zm-90.6-46.72c2.26-1.46 4.37-3.09 6.51-4.65h-1.61c-1.67 1.47-3.32 2.98-4.9 4.6v.05Zm145.19-77.1a43.482 43.482 0 0 0-1.87-7.16l-.48-.41-.49-.41a81.963 81.963 0 0 1-2.42-2.19 96.78 96.78 0 0 1-2.34-2.28 14.568 14.568 0 0 0-5.05 5.15 14.416 14.416 0 0 0 .01 14.418 14.422 14.422 0 0 0 12.49 7.202h.23c0-.3.1-.6.15-.9.05-.3.11-.6.14-.91.1-.807.17-1.623.21-2.45 0-.82.07-1.65.07-2.48a44.652 44.652 0 0 0-.65-7.63v.05Zm-.93 19.11a44.483 44.483 0 0 1-16.3 24.16c-.421.255-.828.532-1.22.83-.305.2-.599.417-.88.65a22.534 22.534 0 0 0-7.54 11c-.11.34-.22.71-.3 1.06A22.636 22.636 0 0 1 732.72 539h-90a47.54 47.54 0 0 1 5.65-3.66c2.09-1.26 4.1-2.64 6.23-3.82l6.49-3.36a180.458 180.458 0 0 1 27.08-10.76 250.99 250.99 0 0 1 28.38-6.94c4.81-.89 9.65-1.64 14.51-2.21 4.86-.73 9.75-1.11 14.67-1.5a144.28 144.28 0 0 0-29.62.76 165.784 165.784 0 0 0-29.1 6.18 133.181 133.181 0 0 0-27.34 11.84A102.11 102.11 0 0 0 641.15 539H343.71a43.499 43.499 0 0 0-40.21 26.864 43.512 43.512 0 0 0-3.31 16.656c0 1 0 2 .11 2.94A43.472 43.472 0 0 0 343 626c.246.014.493.014.74 0 .246.014.493.014.74 0h102a87.086 87.086 0 0 1 24.35 3.47A85.992 85.992 0 0 1 494 640.22a74.084 74.084 0 0 0-47.48 42.28l-.84 2H322.27a81.837 81.837 0 0 1-38.14-10.48 82.36 82.36 0 0 1-42.21-72V553.9c0-5 .19-10 .59-14.92a192.203 192.203 0 0 1 111.8-160 190.196 190.196 0 0 1 62.06-16.47c5.84-.55 11.76-.83 17.73-.83a191.636 191.636 0 0 1 64.78 11.2 188.125 188.125 0 0 1 19.67 8.32c2 1 4 2 6 3.07.19-.34.4-.66.59-1a218.906 218.906 0 0 1 4.87-8.18 211.04 211.04 0 0 1 5.26-8 205.42 205.42 0 0 1 134.57-85.36 6.369 6.369 0 0 1 1-.15c.13-.011.26-.011.39 0a5.62 5.62 0 0 1 3.97 1.647 5.62 5.62 0 0 1 1.64 3.973 5.75 5.75 0 0 1-.16 1.32 82.781 82.781 0 0 0-64.72 92.82 155.136 155.136 0 0 1 47.18-30.06v-2a112.998 112.998 0 0 1 17.55-60.65c-.111.45-.279.883-.5 1.29a97.998 97.998 0 0 0-12.18 47.44c0 1.5 0 3 .11 4.49.51.13 1 .3 1.52.43 3.18.82 6.34 1.7 9.45 2.71 1.4.46 2.76 1 4.15 1.5 2.18.78 4.37 1.55 6.5 2.42 1.57.64 3.1 1.37 4.64 2.06 1.88.84 3.76 1.67 5.6 2.58 1.63.81 3.22 1.69 4.81 2.55 1.59.86 3.35 1.81 5 2.78 1.65.97 3.25 2 4.86 3 1.61 1 3 1.94 4.48 3a163.195 163.195 0 0 1 4.82 3.48 230.631 230.631 0 0 1 4 3.11c1.6 1.28 3.173 2.59 4.72 3.93 1.22 1.06 2.42 2.15 3.61 3.24 1.55 1.43 3.08 2.87 4.57 4.36.39.39.77.81 1.16 1.2 1.72 1.76 3.48 3.49 5.12 5.33l.71.81a22.554 22.554 0 0 1 4.86 10.8v.13c.07.7.15 1.4.23 2.09a88 88 0 0 0 10.72 32l.13.26a88.757 88.757 0 0 0 10.78 14.81 19.478 19.478 0 0 0-6 6.33 19.225 19.225 0 0 0 6.573 26.023 19.226 19.226 0 0 0 9.377 2.827v.07Zm-94.12-49.12a5.502 5.502 0 0 0 5.49 5.49 5.422 5.422 0 0 0 2.44-.57c.146-.115.308-.209.48-.28l.09-.06a30.411 30.411 0 0 1 4.12-1.88 28.869 28.869 0 0 1 4.75-1.33 29.45 29.45 0 0 1 5.93-.59c.85 0 1.68 0 2.51.11a30.354 30.354 0 0 1 12.76 4 5.64 5.64 0 0 0 2.61.65 5.482 5.482 0 0 0 3-10c-.18-.11-.35-.22-.55-.33-.7-.39-1.39-.76-2.11-1.09A40.744 40.744 0 0 0 717 427c-.9-.16-1.8-.34-2.72-.44-1.08-.12-2.19-.15-3.29-.19-.42 0-.82-.07-1.24-.07a41.268 41.268 0 0 0-8.1.83c-.27.05-.54.07-.81.13a41.489 41.489 0 0 0-8.17 2.82c-1.1.5-2.24.95-3.28 1.54-.19.098-.374.209-.55.33-.13.08-.22.2-.34.29a5.395 5.395 0 0 0-2.11 4.28v.04Zm60.06 59.79a145.055 145.055 0 0 0-29.08-5.66 166.36 166.36 0 0 0-29.75-.25 133.513 133.513 0 0 0-29.25 5.56 107.025 107.025 0 0 0-26.83 12.64c4.65-1.73 8.92-4.17 13.66-5.48 2.31-.78 4.57-1.7 6.91-2.39l7.07-1.89a181.3 181.3 0 0 1 28.77-4.66 249.977 249.977 0 0 1 29.21-.65c4.89.17 9.77.48 14.65 1 4.9.36 9.75 1.05 14.64 1.74v.04Zm4.27-8.94a144.223 144.223 0 0 0-27.92-9.91 165.971 165.971 0 0 0-29.38-4.67 133.71 133.71 0 0 0-29.77 1.17 106.993 106.993 0 0 0-28.41 8.52c4.86-1 9.44-2.8 14.33-3.39 2.4-.43 4.77-1 7.19-1.34L664 477a181.512 181.512 0 0 1 29.14-.34 250.53 250.53 0 0 1 29 3.7c4.81.9 9.59 1.93 14.34 3.14 4.81 1.06 9.52 2.5 14.24 3.87v.04Z" fill="#fff"/></g><defs><clipPath id="a"><path fill="#fff" d="M0 0h1024v1024H0z"/></clipPath></defs></svg>