<svg width="1024" height="1024" fill="none" xmlns="http://www.w3.org/2000/svg"><g clip-path="url(#a)"><path d="M512 1024c282.77 0 512-229.23 512-512S794.77 0 512 0 0 229.23 0 512s229.23 512 512 512Z" fill="#56595B"/><path d="M512 256c-141.39 0-256 114.61-256 256s114.61 256 256 256 256-114.61 256-256-114.61-256-256-256Zm121.52 318.78c-87.52 87.54-243.9 59.6-243.9 59.6S361.4 478.3 449.23 390.47c48.67-48.67 129.3-46.65 180.27 4s52.7 131.6 4 180.27l.02.04ZM541.37 406l-25.05 51.55-51.55 25.05 51.55 25.05 25.05 51.55 25.05-51.55L618 482.63l-51.55-25.05L541.37 406Z" fill="#fff"/></g><defs><clipPath id="a"><path fill="#fff" d="M0 0h1024v1024H0z"/></clipPath></defs></svg>