<svg width="1024" height="1024" viewBox="0 0 1024 1024" fill="none" xmlns="http://www.w3.org/2000/svg">
<g clip-path="url(#clip0_2_2760)">
<path d="M512 1024C794.77 1024 1024 794.77 1024 512C1024 229.23 794.77 0 512 0C229.23 0 0 229.23 0 512C0 794.77 229.23 1024 512 1024Z" fill="#9ABEFF"/>
<path d="M648.57 733.72C648.59 659.17 648.6 584.63 648.57 510.08C648.94 504.58 644.66 499.21 639.12 498.64C634.25 497.64 629.22 500.2 626.88 504.49C596.81 553.03 566.57 601.46 536.62 650.07C520.21 650.15 503.81 650.14 487.39 650.07C457.44 601.48 427.22 553.05 397.15 504.5C394.78 500.14 389.64 497.58 384.72 498.66C379.22 499.3 375.07 504.66 375.44 510.1C375.42 584.63 375.42 659.16 375.44 733.69C341.79 733.76 308.14 733.69 274.5 733.72C279.68 602.72 283.46 471.64 288.6 340.63C312.36 342.55 336.18 343.89 359.96 345.5C361.77 345.73 364.12 345.57 364.96 347.62C409.24 413.24 453.63 478.77 497.98 544.34C500.51 547.9 502.41 552.35 506.59 554.29C511.82 556.65 518.83 555.31 522.04 550.31C568.08 482.13 614.22 414.01 660.29 345.85C685.31 343.93 710.39 342.71 735.41 340.63C740.54 471.65 744.32 602.73 749.49 733.72C715.86 733.69 682.21 733.74 648.56 733.7L648.57 733.72ZM512.06 490.13C471.84 434.45 431.77 378.64 391.6 322.93C402.07 303.97 412.35 284.89 422.96 266.01C455.33 266.17 487.71 266.04 520.08 266.08V266.01H595.6V266.03H601.1C611.65 284.92 621.97 303.97 632.42 322.93C594.36 375.82 553.8 432.68 515.76 485.57C514.585 487.14 513.351 488.664 512.06 490.14C534.05 437.22 559.17 380.81 581.73 327.92H530.91C530.91 327.99 530.9 328.07 530.89 328.14C524.33 382.1 518.93 436.23 512.06 490.14V490.13ZM524.79 276C526.84 289.96 529.11 303.89 530.79 317.9H581.73C575.74 303.86 569.45 289.95 563.25 276H524.79Z" fill="white"/>
</g>
<defs>
<clipPath id="clip0_2_2760">
<rect width="1024" height="1024" fill="white"/>
</clipPath>
</defs>
</svg>
