<svg width="1024" height="1024" viewBox="0 0 1024 1024" fill="none" xmlns="http://www.w3.org/2000/svg">
<g clip-path="url(#clip0_2_2769)">
<path d="M512 1024C794.77 1024 1024 794.77 1024 512C1024 229.23 794.77 0 512 0C229.23 0 0 229.23 0 512C0 794.77 229.23 1024 512 1024Z" fill="#728DBE"/>
<path d="M679.81 467.52C669.98 440.35 661.39 412.4 651.71 385.05C641.23 355.41 630.36 326.93 615.8 301.68C609.75 291.19 594.8 266.76 578.8 266.81C573.94 266.81 570.46 268.89 567.19 271C556.84 277.65 544.01 299.13 537.63 310.59C527.95 327.94 508.63 356.53 494.46 373.24C489.71 378.82 485.15 385.41 479.59 390.13C470.89 397.48 459.86 407.36 448.59 411.92C445.07 413.35 440.7 413.92 436.98 415.21C428.805 417.91 421.23 422.164 414.67 427.74C403.1 437.5 392.4 450.22 382.93 462.06C380.87 464.6 378.06 468.36 375.29 471.9L425.18 510.76C464.18 464.47 507.34 420.06 538.43 336.51C538.43 336.51 527.61 429.57 447.27 525.97C397.94 585.13 355.33 616.13 349.48 622.37C349.48 622.37 364.37 619.79 375.54 624.37C401.47 635.03 415.13 672.73 426.45 699.62C434.45 718.62 443.45 737.89 451.31 757.19C477.13 751.46 494.59 738.79 511.72 724.33C530.18 708.7 546.72 687.9 562.32 669.27C592.44 633.4 630.97 584.46 676.54 606.82C684.225 610.746 691.495 615.436 698.24 620.82C707.47 628.29 714.93 635.94 723.9 643.52C739.64 656.82 747.84 667.23 760.04 674.39C729.09 607.48 705.78 539.39 679.85 467.55M325.12 608.94C298.59 591.58 263 568 224 543C270.08 525.66 313.46 512.56 360.36 494.85L417.87 534C373.06 577.61 347.42 593.86 325.12 608.93" fill="white"/>
</g>
<defs>
<clipPath id="clip0_2_2769">
<rect width="1024" height="1024" fill="white"/>
</clipPath>
</defs>
</svg>
