<svg width="1024" height="1024" fill="none" xmlns="http://www.w3.org/2000/svg"><g clip-path="url(#a)"><path d="M512 1024c282.77 0 512-229.23 512-512S794.77 0 512 0 0 229.23 0 512s229.23 512 512 512Z" fill="#54688C"/><path fill-rule="evenodd" clip-rule="evenodd" d="M661.89 305.61c88 63.86 128.34 179.76 91.65 288.16-45.16 133.39-189.91 204.93-323.31 159.77S225.3 563.63 270.46 430.23C307.21 321.66 409.94 254.07 518.82 257l-34.9 41.23C419.33 309.93 363.55 354 341.63 418.8c-32.63 96.34 22.05 201.91 122.1 235.77 100.05 33.86 207.6-16.78 240.21-113.12 21.85-64.54 4.52-133.21-39.37-181.7l-2.69-54.14h.01Zm-62.53 159.75-1.85-75.69-1.51-43.55-1-37.73s.21-18.19-.43-22.47a6.93 6.93 0 0 0-.75-2.27l-.13-.27-.15-.23a5.862 5.862 0 0 0-7.47-2.46h-.08l-.45.23a6.995 6.995 0 0 0-1.86 1.29c-3.1 3-14 17.59-14 17.59L546 329.19l-27.63 33.7-47.44 59s-21.77 27.17-17 60.62c4.77 33.45 29.68 49.74 49 56.27 19.32 6.53 48.94 8.69 73.08-15 24.14-23.69 23.35-58.46 23.35-58.46v.04Z" fill="#fff"/></g><defs><clipPath id="a"><path fill="#fff" d="M0 0h1024v1024H0z"/></clipPath></defs></svg>