<svg width="1024" height="1024" viewBox="0 0 1024 1024" fill="none" xmlns="http://www.w3.org/2000/svg">
<g clip-path="url(#clip0_2_2778)">
<path d="M512 1024C794.77 1024 1024 794.77 1024 512C1024 229.23 794.77 0 512 0C229.23 0 0 229.23 0 512C0 794.77 229.23 1024 512 1024Z" fill="#BA6561"/>
<path d="M740.86 379.5L512 247L283.14 379.5V644.5L512 777L740.86 644.5V379.5ZM721.59 389.14L512 506L302.41 389.14L512 267.48L721.59 389.14ZM477.07 734.84L360.23 666.18V506L512 591.5L663.77 506V666.2L572.22 719.2L512 754.11L477.07 734.84Z" fill="white"/>
</g>
<defs>
<clipPath id="clip0_2_2778">
<rect width="1024" height="1024" fill="white"/>
</clipPath>
</defs>
</svg>
