<svg width="1024" height="1024" fill="none" xmlns="http://www.w3.org/2000/svg"><g clip-path="url(#a)"><path d="M512 1024c282.77 0 512-229.23 512-512S794.77 0 512 0 0 229.23 0 512s229.23 512 512 512Z" fill="#BA6561"/><path d="M740.86 379.5 512 247 283.14 379.5v265L512 777l228.86-132.5v-265Zm-19.27 9.64L512 506 302.41 389.14 512 267.48l209.59 121.66Zm-244.52 345.7-116.84-68.66V506L512 591.5 663.77 506v160.2l-91.55 53L512 754.11l-34.93-19.27Z" fill="#fff"/></g><defs><clipPath id="a"><path fill="#fff" d="M0 0h1024v1024H0z"/></clipPath></defs></svg>