<svg width="1024" height="1024" fill="none" xmlns="http://www.w3.org/2000/svg"><g clip-path="url(#a)"><path d="M512 1024c282.77 0 512-229.23 512-512S794.77 0 512 0 0 229.23 0 512s229.23 512 512 512Z" fill="#98DC9A"/><path d="M350 445.61c26.86-8.1 55-10.9 82.9-12.27 28-.94 56.12 0 83.89 3.88 21 3.21 42.21 7.26 61.45 16.56 7.13 3.77 15 8.57 17.52 16.74-12.6-7.12-26.53-11.38-40.58-14.56-35.08-7.83-71.25-9.73-107.11-8.8-28.07 1.21-56.37 3.84-83.49 11.58-11.64 3.44-23.33 7.77-32.83 15.56a29.104 29.104 0 0 0-15.86-9.85c8.86-9.99 21.68-14.91 34.11-18.84Zm-170.4 32.6c.04 20.787.04 41.58 0 62.38.05 4-.32 8.11.48 12.08 5.092.255 10.195.199 15.28-.17.46-20.62-.23-41.27.34-61.88 4.89 14.68 9.1 29.59 14.08 44.24 5.238.546 10.52.513 15.75-.1 4.23-13.61 8.82-27.14 12.39-40.94h1.85c-.18 19.58-.37 39.18.09 58.75a96.139 96.139 0 0 0 15.31-.09c.38-26.63.28-53.3.05-79.93a131.747 131.747 0 0 0-23.6 0c-4.33 15.51-9.52 30.78-13.93 46.27-5.46-15.33-9.25-31.21-14.7-46.55-7.65-.2-15.34-.32-23 .08a41.332 41.332 0 0 0-.42 5.86h.03Zm93.77 19c.25 12.72-.42 25.47.36 38.17.52 4.28 1.68 8.72 5 11.74 4.88 5.21 12.45 6 19.17 5.64 8.31-.31 17.73 1.48 24.77-4.07 7.59-5.82 7.55-16.51 6.25-25.09-5-.19-10-.17-15 0-1.23 5 .93 11.52-3.93 15-6.23-.34-13.23 1.73-18.84-1.64l-1.22-2.78c-.23-13.57-.05-27.15-.1-40.72-.36-3.16 1.54-7 5.05-7.08 5-.19 10.12-.5 15.1.29 5.18 3 2.47 10 4 14.77 4.86 0 9.76.38 14.61-.2 1.68-4.43.8-9.45.43-14.08-.93-7-6.58-12.23-13-14.41-7.68-1.15-15.47-.56-23.18-.62-7.71-.06-15.51 4.72-18.24 12.17-.76 4.3-1.52 8.59-1.26 12.96l.03-.05Zm115.92-23.33a8810.874 8810.874 0 0 0 0 77.29l1 1.37a89.87 89.87 0 0 0 15-.1c.6-10.95 0-21.93.32-32.9 8-.05 16-.08 24 0 .25 10.95-.15 21.9.22 32.84a79.86 79.86 0 0 0 16.08 0c.28-26.58.17-53.19.06-79.78a53.519 53.519 0 0 0-16.19 0c-.24 11 .05 21.95-.17 32.92-8 .09-16 .06-24 0-.25-11 .24-22-.27-33a66.93 66.93 0 0 0-15.23-.14c-.18.4-.62 1.16-.85 1.54l.03-.04Zm75.16 18.17c-.08 2.57.1 41.23.28 43.4.47 5.55 3.06 11.13 7.93 14.07 6.29 4.2 14.13 3.09 21.27 3.23 6.44 0 13.51.57 19.1-3.28 5.56-3.49 8-10.26 8-16.59 0-14 .05-28 0-42-.15-6.52-3.31-13.35-9.39-16.28-5.74-3.28-12.53-2.43-18.84-2.53-7.71-.15-16.56-.59-22.48 5.3-4.5 3.63-5.32 9.45-5.9 14.72l.03-.04Zm33.2-5.81c3.6-.59 7.21 2 6.9 5.87.1 13.607.1 27.217 0 40.83a5.483 5.483 0 0 1-3.394 5.317 5.477 5.477 0 0 1-2.186.413 104.61 104.61 0 0 1-14.13-.19c-2.93-.8-4.1-4-4-6.75-.05-12.35 0-24.68 0-37 0-2.47.09-5.4 2-7.17 4.42-2.42 9.92-.91 14.79-1.28l.02-.04ZM539 482.8c-2.57 6.2-2.3 13.2-1.46 19.74.81 6.87 5.64 13.2 12.45 15 2 .55 4 1 6 1.64 2.15.32 4.3.67 6.43 1.21 3.608.107 7.183.72 10.62 1.82 5.32 2.85 4.89 9.89 2.55 14.6l-2.58 1.59c-5.288.463-10.605.5-15.9.11-4-2.39-3.42-7.36-4.07-11.34a149.385 149.385 0 0 0-15.29 0c-1.06 6-.62 12.54 2.84 17.68 3.46 5.14 9.65 7.77 15.67 7.87 6.23.09 12.46.14 18.69 0 7.41-.24 14.82-4.82 17.24-12a39.919 39.919 0 0 0 .57-19.15 18.23 18.23 0 0 0-3.731-7.945 18.238 18.238 0 0 0-7.009-5.285c-2.66-.69-5.27-1.5-7.87-2.32-2.53-.34-5.07-.69-7.55-1.26-4.56-.34-10.69-.25-12.95-5.13-.41-4.3-1.13-10.53 3.45-12.91 5.05-.59 10.32-.87 15.33.17 5.09 1.71 1.87 8.1 5 11 4.82-.06 9.85.7 14.56-.52 1.25-7-.1-15.12-5.63-20a21.347 21.347 0 0 0-14.87-5.22c-6.85.09-13.74-.41-20.53.62-4.96 1.85-9.8 4.92-11.96 10.03Zm65.23 2.15c5.75 2.83 12.54.53 18.74 1.46.09 22-.29 44.09.19 66.12 5.24.08 10.8 1.06 15.87-.47.76-21.86.1-43.83.32-65.74 5.87-.27 11.76.31 17.61-.33 1.63-4.28.52-9.1.55-13.57-15.9-.73-31.85-.09-47.78-.34-1.86.18-4.7-.59-5.42 1.79-.13 3.69.02 7.39-.04 11.08h-.04Zm239.551 10.87c-1.26.47-2.531.92-3.791 1.35l-3.74 1.29-4.789 1.68c-1.29.46-2.551.92-3.791 1.4l-2.69.53c.6 2.16 1.34 4.28 2.101 6.39 4.489-1.34 8.87-3 13.339-4.48l4.76-1.71c1.271-.45 2.55-.9 3.83-1.37l3.92-1.58c-7.469 7.55-16 14.05-23.88 21.15 0 1.72 1.921 2.81 1.791 4.54-1.06 1-2.231 1.85-3.271 2.84 2.06 2.81 4.72 5.1 6.91 7.82-.13.59-.379 1.76-.519 2.34-2.781-2.78-5.19-5.89-7.891-8.73a22.592 22.592 0 0 0-4.33 3.26 124.912 124.912 0 0 1 9.38 10.39c3.14 2.79 5.651 6.2 8.82 9 1.25-1.2 2.5-2.38 3.761-3.56-3.11-3.23-6.391-6.35-8.911-10.08 4.12.06 5.731 4.75 8.551 7.12 1.349 3 3.76-.06 5.5-.75 1.58 1 3.06 4.32 4.93 1.72 14.169-12.08 27.88-24.71 42.26-36.54C889 500.38 880.531 492 873 482.91c-3.479 1.85-5.95 5.36-9.89 6.31-6.48 2.13-12.87 4.43-19.3 6.6h-.029ZM344.43 519.38h27.78c1.59-4 1.23-8.58.31-12.74a807.85 807.85 0 0 0-28.45 0c-.9 4.15-1.31 8.72.36 12.74Zm472.79 17.4c2.1 2.88 4.8 5.26 7 8.06-.08.53-.239 1.62-.329 2.15-3-2.64-5.411-5.87-8.221-8.69-1.74.1-2.92 1.73-4.389 2.43 1.32 1.67 2.709 3.3 4.139 4.89-14.39 11.66-32.3 17.85-50.12 21.92-25.44 5.51-51.93 7-77.65 2.6-13.19-2.33-26.49-6.16-37.5-14.07l-1.57-1.59c1.08 6.75 6.07 12.27 11.52 16.08 9.94 6.89 21.82 10.21 33.56 12.55 30.9 5.47 63.081 3.07 93.121-5.78 13.74-4.34 27.539-10.07 38.199-20 .92 1.27 1.82 2.56 2.74 3.84a56.175 56.175 0 0 0 5.561-3.92c-3-3.31-6.751-6.14-8.481-10.34 4.44 1.46 6.48 6.26 10 9.08 1.12-1 2.27-1.94 3.411-2.9-3.13-3.63-7-6.72-9.141-11.1-4.7-.62-5.75-9.52-10.799-6.81l-1.051 1.6Zm-149.65-37.42a112.32 112.32 0 0 0 15.62-.2c.27-3.72-.38-7.68 1.25-11.16 2.6-3.12 7-2.48 10.6-2.5 2.94 0 6.671 1 7.46 4.21 1.211 5.23.701 11.5-3.599 15.25-8.77 7.84-18.221 14.92-26.901 22.85-6.79 6.38-4 16.49-4.16 24.71 16.87.5 33.77.36 50.65.06.25-4.48 1.151-9.24-.36-13.57-10.859-1-21.86 0-32.77-.5a9.128 9.128 0 0 1 3.93-6.37c7.36-6.17 14.741-12.31 22.09-18.51a20.226 20.226 0 0 0 7.42-15c.14-5.87.501-12.18-2.519-17.47-3.36-6.15-10.641-9.18-17.431-9.06-8.85.1-19.18-1.53-26.17 5.26-6.25 5.49-5.78 14.47-5.11 22ZM734 521.09c-2.74 4.85-2.599 10.82-1.169 16.08a18.871 18.871 0 0 0 5.609 1.17c9.94 0 19.88-.05 29.831 0-.05 4.72-.101 9.45.18 14.16a82.23 82.23 0 0 0 15-.06c.13-4.7.1-9.41.08-14.11 4 0 8.189.27 12.089-1 0-4.23 0-8.45-.24-12.68-3.919-.27-7.85-.29-11.78-.23-.08-16.4-.14-32.81 0-49.2-1.3-1.21-2.37-3.18-4.42-3-5.539-.17-11.099-.27-16.63.06-2.25.1-3.11 2.58-4.24 4.14-8.14 14.87-16.21 29.79-24.31 44.67Zm34.23-34.42c.05 12.56 0 25.13 0 37.71-6.48-.09-12.999.15-19.449-.05l-.481-.8c6.7-12.23 12.7-24.89 19.88-36.86h.05Z" fill="#fff"/></g><defs><clipPath id="a"><path fill="#fff" d="M0 0h1024v1024H0z"/></clipPath></defs></svg>