<svg width="1024" height="1024" viewBox="0 0 1024 1024" fill="none" xmlns="http://www.w3.org/2000/svg">
<g clip-path="url(#clip0_2_2787)">
<path d="M512 1024C794.77 1024 1024 794.77 1024 512C1024 229.23 794.77 0 512 0C229.23 0 0 229.23 0 512C0 794.77 229.23 1024 512 1024Z" fill="#FF837D"/>
<path d="M395.78 320.12C395.28 316.32 394.94 312.5 394.78 308.59C409.427 317.627 421.656 330.092 430.41 344.91C430.8 345.57 431.17 346.24 431.53 346.91C433.35 349.765 434.761 352.862 435.72 356.11C439.01 365.099 439.836 374.805 438.11 384.22C431.122 381.559 424.776 377.449 419.49 372.16C418.074 370.719 416.713 369.224 415.41 367.68C413.11 365.201 411.097 362.47 409.41 359.54C402.27 348.51 397.83 335.61 395.78 320.12ZM379.88 384.12C382.177 386.651 384.746 388.921 387.54 390.89C389.23 392.2 390.83 393.35 392.42 394.39C398.687 398.463 405.745 401.165 413.13 402.32C412.849 392.748 410.01 383.425 404.91 375.32C403.275 372.413 401.279 369.725 398.97 367.32C398.46 366.73 397.97 366.14 397.42 365.55C385.775 352.864 371.216 343.205 355 337.41C356 341.19 357.12 344.86 358.4 348.47C363.64 363.18 370.66 374.86 379.89 384.17L379.88 384.12ZM356.16 414.37C359.001 416.325 362.013 418.018 365.16 419.43C367.08 420.35 368.87 421.14 370.62 421.82C376.683 424.151 383.124 425.345 389.62 425.34C390.586 425.34 391.556 425.313 392.53 425.26C390.275 415.951 385.569 407.415 378.9 400.54C376.61 398.072 374.081 395.838 371.35 393.87C370.75 393.41 370.15 392.95 369.51 392.5C355.48 382.521 339.233 376.106 322.17 373.81C323.92 377.31 325.79 380.66 327.79 383.93C335.92 397.27 345.21 407.23 356.16 414.41V414.37ZM339.33 449C342.481 450.294 345.736 451.318 349.06 452.06C351.14 452.57 353.06 452.97 354.95 453.28C362.337 454.45 369.888 454.048 377.11 452.1C372.973 443.471 366.603 436.107 358.66 430.77C355.876 428.837 352.92 427.163 349.83 425.77C349.15 425.45 348.48 425.13 347.78 424.82C334.394 419.018 319.949 416.062 305.36 416.14C302.8 416.14 300.22 416.22 297.61 416.39C300.05 419.44 302.61 422.33 305.21 425.11C315.94 436.4 327.11 444.21 339.33 449ZM330 486.24C333.358 486.867 336.764 487.202 340.18 487.24H342.83C343.943 487.24 345.06 487.213 346.18 487.16C353.65 486.771 360.954 484.804 367.61 481.39C361.755 473.815 353.979 467.945 345.09 464.39C341.999 463.078 338.787 462.073 335.5 461.39C334.76 461.21 334.01 461.03 333.25 460.88C326.398 459.507 319.428 458.81 312.44 458.8C302.291 458.842 292.197 460.279 282.44 463.07C285.44 465.55 288.53 467.85 291.68 470.02C304.5 478.81 317 484.13 330 486.24ZM324.83 524.74C326.08 524.74 327.34 524.74 328.58 524.65C332.014 524.556 335.433 524.164 338.8 523.48C340.9 523.1 342.8 522.68 344.64 522.2C351.865 520.264 358.599 516.822 364.4 512.1C357.105 505.889 348.279 501.745 338.84 500.1C335.541 499.48 332.196 499.146 328.84 499.1H326.54C309.33 499.276 292.42 503.634 277.27 511.8C280.74 513.6 284.27 515.21 287.76 516.68C300.76 522.11 312.9 524.73 324.81 524.73L324.83 524.74ZM335.3 562.49C335.3 562.49 342.12 560.49 344.9 559.28C346.9 558.47 348.7 557.65 350.42 556.79C357.086 553.391 362.958 548.62 367.65 542.79C359.771 538.538 350.953 536.327 342 536.36H340.2C336.821 536.513 333.456 536.897 330.13 537.51C329.39 537.65 328.66 537.78 327.91 537.95C311.111 541.703 295.478 549.487 282.36 560.63C286.13 561.63 289.87 562.52 293.64 563.22C300.285 564.498 307.033 565.168 313.8 565.22C321.051 565.233 328.274 564.312 335.29 562.48L335.3 562.49ZM438.3 639.89C429.253 643.111 421.237 648.703 415.09 656.08C412.996 658.639 411.075 661.335 409.34 664.15C408.92 664.83 408.51 665.51 408.11 666.22C399.657 681.206 394.976 698.022 394.47 715.22C397.77 713.11 400.91 710.9 403.95 708.56C416.3 699.08 425.22 688.83 431.22 677.22C432.771 674.104 434.159 670.91 435.38 667.65C436.09 665.65 436.68 663.82 437.17 662.03C439.095 654.811 439.473 647.266 438.28 639.89H438.3ZM447.24 672.94C445.516 675.919 444.14 679.087 443.14 682.38C442.9 683.06 442.66 683.74 442.44 684.44C437.286 700.868 436.208 718.303 439.3 735.24C442.08 732.49 444.7 729.68 447.19 726.76C457.33 714.89 463.93 702.96 467.37 690.31C468.305 687.036 468.974 683.692 469.37 680.31C469.66 678.19 469.85 676.22 469.97 674.31C470.363 666.838 469.171 659.368 466.47 652.39C458.341 657.405 451.699 664.499 447.23 672.94H447.24ZM614.67 664.51C612.904 661.584 610.865 658.832 608.58 656.29C607.2 654.66 605.88 653.2 604.58 651.85C599.292 646.563 592.947 642.453 585.96 639.79C584.234 649.205 585.059 658.911 588.35 667.9C589.334 671.138 590.743 674.232 592.54 677.1C592.9 677.77 593.26 678.43 593.66 679.1C602.418 693.918 614.65 706.384 629.3 715.42C629.12 711.51 628.78 707.69 628.3 703.89C626.18 688.41 621.74 675.53 614.65 664.51H614.67ZM644.13 639.82C641.852 637.283 639.289 635.017 636.49 633.07C634.907 631.836 633.275 630.665 631.6 629.56C625.33 625.485 618.269 622.782 610.88 621.63C611.151 631.2 613.979 640.522 619.07 648.63C619.07 648.63 620.44 651.76 625.07 656.74C625.56 657.32 626.07 657.9 626.58 658.46C638.225 671.143 652.785 680.798 669 686.59C668 682.81 666.88 679.14 665.6 675.52C660.36 660.81 653.34 649.13 644.11 639.82H644.13ZM668 609.7H667.95C665.001 607.752 661.92 606.011 658.73 604.49C656.88 603.6 655.14 602.84 653.43 602.17C647.367 599.839 640.926 598.646 634.43 598.65C633.47 598.65 632.51 598.677 631.55 598.73C633.654 607.379 637.882 615.366 643.85 621.97L644.4 622.54C644.68 622.85 644.94 623.16 645.23 623.46L645.75 623.9C648.416 626.61 651.299 629.098 654.37 631.34L654.57 631.49C668.596 641.468 684.84 647.882 701.9 650.18C700.15 646.69 698.28 643.33 696.28 640.07C688.11 626.8 678.87 616.88 668 609.7ZM684.68 575C681.83 573.83 674.94 571.93 674.94 571.93C672.86 571.42 670.94 571.02 669.06 570.71C661.672 569.54 654.121 569.942 646.9 571.89C650.971 580.396 657.214 587.678 665 593L665.32 593.21L665.43 593.29H665.48C668.273 595.182 671.208 596.853 674.26 598.29C674.91 598.6 675.56 598.91 676.26 599.2C689.649 605.003 704.098 607.959 718.69 607.88C721.22 607.88 723.8 607.8 726.43 607.63C723.99 604.58 721.43 601.69 718.83 598.91C708.06 587.6 696.9 579.79 684.68 575ZM694 537.76C690.631 537.21 687.231 536.876 683.82 536.76H681.17C680.056 536.76 678.94 536.787 677.82 536.84C670.353 537.231 663.053 539.197 656.4 542.61C662.252 550.184 670.024 556.054 678.91 559.61C682.04 560.821 685.247 561.823 688.51 562.61C689.25 562.79 689.99 562.97 690.76 563.12C697.612 564.494 704.582 565.19 711.57 565.2C721.718 565.158 731.813 563.721 741.57 560.93C738.57 558.45 735.48 556.15 732.33 553.98C719.5 545.19 707 539.87 694 537.76ZM699.17 499.26C697.92 499.26 696.65 499.26 695.4 499.35C691.982 499.517 688.578 499.905 685.21 500.51C683.11 500.89 681.21 501.31 679.35 501.79C672.125 503.722 665.391 507.16 659.59 511.88C666.885 518.091 675.711 522.235 685.15 523.88C688.46 524.416 691.799 524.75 695.15 524.88H697.45C714.66 524.704 731.569 520.345 746.72 512.18C743.25 510.39 739.77 508.77 736.23 507.31C723.24 501.89 711.1 499.26 699.19 499.26H699.17ZM688.77 461.5C685.456 462.326 682.212 463.412 679.07 464.75C677.07 465.56 675.3 466.37 673.6 467.22C666.933 470.618 661.06 475.389 656.37 481.22C664.243 485.466 673.055 487.673 682 487.64H683.82C687.174 487.468 690.514 487.084 693.82 486.49C694.56 486.35 695.3 486.22 696.05 486.05C712.85 482.301 728.487 474.52 741.61 463.38C737.84 462.38 734.1 461.49 730.33 460.79C723.688 459.512 716.943 458.843 710.18 458.79C702.957 458.775 695.761 459.685 688.77 461.5ZM585.77 384.11C594.782 380.9 602.771 375.337 608.91 368C611.107 365.483 613.053 362.756 614.72 359.86C615.13 359.2 615.53 358.53 615.92 357.86C624.372 342.874 629.054 326.058 629.56 308.86C626.26 310.98 623.11 313.19 620.06 315.53C607.71 325.01 598.78 335.27 592.78 346.88C591.25 349.7 588.64 356.41 588.64 356.41C587.93 358.41 587.34 360.25 586.85 362.05C584.93 369.243 584.545 376.759 585.72 384.11H585.77ZM576.78 351C578.371 347.972 579.735 344.83 580.86 341.6C581.1 340.91 581.35 340.22 581.57 339.51C586.725 323.086 587.806 305.655 584.72 288.72C581.94 291.47 579.33 294.28 576.84 297.19C566.68 309.08 560.07 321.03 556.64 333.71C555.742 336.942 555.074 340.234 554.64 343.56C554.35 345.69 554.15 347.68 554.04 349.61C553.649 357.078 554.842 364.545 557.54 371.52C565.665 366.514 572.307 359.43 576.78 351ZM505.41 326.13C503.438 309.033 497.336 292.672 487.63 278.46C486.21 282.1 484.97 285.72 483.88 289.39C479.45 304.39 478.26 317.93 480.26 330.87C480.726 334.258 481.468 337.603 482.48 340.87C483.08 342.87 483.7 344.79 484.37 346.56C487.048 353.545 491.176 359.884 496.48 365.16C501.89 357.249 505.08 348.033 505.72 338.47C506.02 335.142 505.99 331.792 505.63 328.47C505.56 327.72 505.5 327 505.41 326.18V326.13ZM504.65 679.47C503.474 672.083 500.747 665.028 496.65 658.77C489.714 665.398 484.682 673.766 482.08 683C480.985 686.175 480.312 689.48 480.08 692.83C479.98 693.59 479.88 694.35 479.81 695.13C478.183 712.265 480.75 729.539 487.29 745.46C489.44 742.19 491.41 738.9 493.24 735.54C500.69 721.81 504.67 708.77 505.41 695.67C505.832 692.291 505.802 688.871 505.32 685.5C505.15 683.37 504.94 681.41 504.65 679.52V679.47ZM665.6 431C663.83 432.2 662.24 433.37 660.75 434.56C654.939 439.263 650.188 445.141 646.81 451.81C651.747 453.242 656.859 453.979 662 454C666.381 453.992 670.746 453.458 675 452.41C678.269 451.608 681.467 450.538 684.56 449.21C685.26 448.92 685.96 448.63 686.67 448.31C702.325 441.15 716.002 430.287 726.52 416.66C723.82 416.5 721.14 416.42 718.46 416.42H714.94C699.34 416.83 686.06 419.9 674.35 425.81C671.323 427.348 668.401 429.082 665.6 431ZM645.4 400.85C643.92 402.39 642.61 403.85 641.4 405.33C636.711 411.142 633.303 417.879 631.4 425.1C632.733 425.193 634.066 425.24 635.4 425.24C643.623 425.247 651.74 423.376 659.13 419.77C662.188 418.381 665.091 416.671 667.79 414.67C668.42 414.24 669.05 413.8 669.68 413.34C683.47 403.085 694.561 389.632 702 374.14C698.14 374.73 694.37 375.47 690.65 376.36C675.48 380 663.13 385.77 652.91 393.97C650.229 396.073 647.718 398.383 645.4 400.88V400.85ZM619.4 375.53C618.15 377.53 617.21 379.17 616.4 380.75C613.002 387.413 611.052 394.72 610.68 402.19C620.173 400.911 629.151 397.113 636.68 391.19C639.368 389.162 641.856 386.882 644.11 384.38C644.63 383.83 645.11 383.28 645.67 382.69C657.059 369.783 665.135 354.297 669.2 337.57C665.59 338.927 662.04 340.439 658.56 342.1C644.5 348.81 633.62 357.03 625.3 367.22C623.11 369.831 621.143 372.62 619.42 375.56L619.4 375.53ZM518.67 338.53C518.83 340.62 519.04 342.53 519.32 344.41C520.496 351.797 523.222 358.852 527.32 365.11C534.272 358.484 539.318 350.113 541.93 340.87C542.811 337.681 543.479 334.438 543.93 331.16C544.03 330.38 544.14 329.59 544.21 328.79C545.837 311.655 543.269 294.381 536.73 278.46C534.58 281.73 532.61 285.02 530.73 288.39C523.28 302.12 519.3 315.16 518.56 328.25C518.33 331.34 518.65 338.43 518.65 338.43L518.67 338.53ZM467.57 333.72C467.35 332.99 467.14 332.27 466.89 331.53C461.408 315.214 452.039 300.477 439.59 288.59C438.95 292.45 438.49 296.26 438.19 300.08C436.97 315.63 438.63 329.15 443.27 341.4C443.27 341.4 446.09 348.16 447.52 350.73C448.52 352.61 449.52 354.31 450.52 355.9C454.592 362.173 459.946 367.514 466.23 371.57C469.875 362.716 471.083 353.049 469.73 343.57C469.303 340.255 468.59 336.983 467.6 333.79L467.57 333.72ZM358.41 593C360.067 591.877 361.681 590.693 363.25 589.45C369.056 584.749 373.803 578.874 377.18 572.21C372.247 570.773 367.138 570.029 362 570C357.58 570.01 353.179 570.553 348.89 571.62C345.656 572.419 342.492 573.479 339.43 574.79C338.71 575.09 337.99 575.39 337.27 575.72C321.619 582.878 307.946 593.737 297.43 607.36C300.14 607.52 302.82 607.6 305.5 607.6H309C324.6 607.19 337.88 604.12 349.58 598.22C352.635 596.676 355.585 594.933 358.41 593ZM378.59 623.17C380.07 621.63 381.38 620.17 382.59 618.68C387.279 612.868 390.686 606.131 392.59 598.91C391.256 598.817 389.923 598.77 388.59 598.77C380.374 598.763 372.265 600.63 364.88 604.23C361.841 605.673 358.936 607.383 356.2 609.34C355.57 609.77 354.94 610.2 354.32 610.67C340.531 620.922 329.44 634.372 322 649.86C325.86 649.27 329.63 648.53 333.35 647.64C348.52 643.99 360.88 638.23 371.09 630.02C373.763 627.916 376.271 625.609 378.59 623.12V623.17ZM404.59 648.52C405.83 646.52 406.8 644.85 407.59 643.26C410.988 636.597 412.937 629.29 413.31 621.82C403.816 623.099 394.839 626.898 387.31 632.82C384.648 634.872 382.166 637.147 379.89 639.62C379.37 640.17 378.89 640.73 378.33 641.31C366.943 654.215 358.868 669.697 354.8 686.42C358.46 685.04 361.99 683.54 365.44 681.89C379.52 675.17 390.44 666.89 398.73 656.73C400.9 654.09 404.56 648.47 404.56 648.47L404.59 648.52ZM541.59 683.15C540.99 681.1 540.37 679.23 539.7 677.44C537.021 670.455 532.894 664.116 527.59 658.84C522.18 666.751 518.989 675.968 518.35 685.53C517.909 688.851 517.939 692.218 518.44 695.53C518.5 696.3 518.56 697.06 518.65 697.84C520.621 714.937 526.724 731.298 536.43 745.51C537.85 741.87 539.09 738.25 540.18 734.58C544.61 719.58 545.79 706.03 543.8 693.08C543.342 689.693 542.582 686.353 541.53 683.1L541.59 683.15ZM576.51 673.24C575.51 671.36 574.51 669.67 573.51 668.07C569.44 661.798 564.09 656.458 557.81 652.4C554.165 661.254 552.957 670.922 554.31 680.4C554.572 683.76 555.305 687.065 556.49 690.22C556.71 690.95 556.93 691.69 557.18 692.43C562.663 708.743 572.032 723.476 584.48 735.36C585.11 731.5 585.58 727.69 585.88 723.88C587.1 708.33 585.44 694.81 580.8 682.55C579.758 679.256 578.296 676.11 576.45 673.19L576.51 673.24ZM473.05 329.52C473.37 330.47 473.64 331.4 473.92 332.34C471.55 317.49 473.23 302.56 477.66 287.6C479.92 280.03 482.776 272.65 486.2 265.53C476.75 253.53 465.33 242.46 452.76 231.66C444.93 246.66 439.13 261.28 435.52 276.27C452.23 290.22 465.42 307 473.05 329.52ZM491.12 381.42C493.354 379.289 495.464 377.032 497.44 374.66C488.824 367.977 482.204 359.061 478.3 348.88C477.47 346.68 476.76 344.48 476.13 342.28C478.051 355.497 475.615 368.981 469.19 380.69C472.309 382.206 475.555 383.448 478.89 384.4C481.022 384.841 483.225 384.802 485.34 384.286C487.455 383.771 489.429 382.792 491.12 381.42ZM436 341.6C436.51 342.46 437 343.32 437.44 344.18C432.04 330.18 430.58 315.18 431.8 299.64C432.439 291.763 433.699 283.949 435.57 276.27C423.82 266.46 410.36 258.04 395.82 250.09C391.28 266.42 388.64 281.91 388.23 297.32C407.42 307.49 423.82 321.18 436 341.6ZM464.46 388.6C466.199 386.056 467.792 383.415 469.23 380.69C459.418 375.945 451.093 368.603 445.16 359.46C443.89 357.46 442.75 355.46 441.67 353.46C446.291 365.986 446.709 379.676 442.86 392.46C446.226 393.294 449.659 393.833 453.12 394.07C455.29 394.051 457.428 393.552 459.382 392.608C461.336 391.663 463.056 390.298 464.42 388.61L464.46 388.6ZM402.22 361.12C402.91 361.87 403.56 362.63 404.22 363.39C396.01 350.78 391.46 336.45 389.42 320.96C388.406 313.12 388.015 305.212 388.25 297.31C374.72 290.15 359.8 284.72 343.93 279.97C342.93 296.89 343.52 312.58 346.32 327.74C367.18 333.7 386.07 343.68 402.18 361.13L402.22 361.12ZM439.84 401.18C441.005 398.329 442.007 395.415 442.84 392.45C432.241 389.856 422.556 384.405 414.84 376.69C413.202 375.026 411.634 373.294 410.14 371.5C417.288 382.801 420.557 396.124 419.45 409.45C422.92 409.566 426.393 409.378 429.83 408.89C431.96 408.429 433.96 407.499 435.686 406.169C437.412 404.839 438.821 403.142 439.81 401.2L439.84 401.18ZM375.6 389C364.96 378.38 357.54 365.32 352.33 350.6C349.709 343.142 347.683 335.488 346.27 327.71C331.54 323.52 315.82 321.31 299.27 319.96C301.78 336.73 305.66 351.96 311.55 366.2C333.26 367.67 353.81 373.5 373.21 387.2C374 387.85 374.82 388.44 375.6 389ZM418.34 418.59C418.895 415.554 419.275 412.489 419.48 409.41C408.587 409.064 397.997 405.74 388.86 399.8C386.86 398.51 385.03 397.14 383.22 395.73C392.557 405.287 398.524 417.627 400.22 430.88C403.625 430.272 406.971 429.368 410.22 428.18C412.194 427.286 413.946 425.966 415.35 424.315C416.753 422.664 417.775 420.722 418.34 418.63V418.59ZM350.34 418.8C351.25 419.19 352.12 419.61 352.99 420.03C340.38 411.85 330.42 400.63 322.26 387.32C318.149 380.572 314.578 373.51 311.58 366.2C296.31 365.2 280.47 366.27 264.04 368.39C269.97 384.27 276.93 398.39 285.66 411.06C307.19 408 328.5 409.45 350.33 418.84L350.34 418.8ZM401 440.14C400.913 437.054 400.649 433.976 400.21 430.92C389.47 432.866 378.401 431.829 368.21 427.92C366.03 427.07 363.94 426.13 361.89 425.13C372.984 432.546 381.363 443.371 385.76 455.97C388.975 454.666 392.07 453.083 395.01 451.24C396.77 449.951 398.221 448.286 399.257 446.366C400.293 444.446 400.888 442.319 401 440.14ZM388.48 464.79C387.752 461.795 386.854 458.843 385.79 455.95C375.699 460.066 364.673 461.339 353.91 459.63C351.59 459.25 349.32 458.76 347.1 458.2C359.509 463.142 369.97 471.992 376.9 483.41C379.772 481.465 382.469 479.274 384.96 476.86C386.401 475.233 387.464 473.307 388.071 471.219C388.678 469.132 388.814 466.936 388.47 464.79H388.48ZM334.48 454.49C335.48 454.69 336.42 454.92 337.38 455.15C323.38 449.78 311.24 440.86 300.49 429.53C295.061 423.785 290.095 417.619 285.64 411.09C270.49 413.25 255.22 417.63 239.64 423.09C248.75 437.39 258.48 449.71 269.64 460.32C290 452.88 311.19 449.84 334.49 454.49H334.48ZM329.36 492.69C314.51 490.35 300.83 484.14 287.96 475.3C281.453 470.793 275.314 465.778 269.6 460.3C255.23 465.57 241.21 473.02 227.06 481.63C238.94 493.74 251.06 503.77 264.17 511.83C282.59 500.26 302.65 492.9 326.41 492.6C327.42 492.64 328.4 492.67 329.38 492.7L329.36 492.69ZM381.36 491.5C380.025 488.72 378.533 486.019 376.89 483.41C367.875 489.536 357.354 493.074 346.47 493.64C344.12 493.75 341.81 493.74 339.52 493.64C352.682 495.899 364.75 502.382 373.9 512.11C376.307 509.612 378.492 506.908 380.43 504.03C381.499 502.141 382.135 500.038 382.295 497.873C382.454 495.708 382.131 493.535 381.35 491.51L381.36 491.5ZM329.36 531.08C314.36 531.87 299.7 528.65 285.29 522.68C277.996 519.638 270.954 516.023 264.23 511.87C251.23 520.01 239.1 530.22 227.05 541.59C241.18 550.95 255.05 558.26 269.61 563.4C285.23 548.25 303.31 536.88 326.49 531.64C327.41 531.44 328.36 531.27 329.31 531.09L329.36 531.08ZM380 519.08C378.118 516.633 376.098 514.296 373.95 512.08C366.404 519.945 356.849 525.593 346.32 528.41C344.05 529 341.8 529.48 339.55 529.87C352.888 529.348 366.033 533.181 377 540.79C378.836 537.846 380.412 534.748 381.71 531.53C382.351 529.46 382.525 527.273 382.221 525.128C381.917 522.982 381.141 520.93 379.95 519.12L380 519.08ZM384.36 546.38C382.011 544.385 379.551 542.525 376.99 540.81C371.245 550.073 363.073 557.585 353.36 562.53C351.24 563.59 349.11 564.53 346.97 565.4C359.936 562.087 373.628 563.095 385.97 568.27C387.148 565.02 388.041 561.674 388.64 558.27C388.844 556.097 388.562 553.906 387.813 551.856C387.064 549.806 385.867 547.949 384.31 546.42L384.36 546.38ZM334.65 569.78C335.58 569.35 336.5 568.98 337.42 568.59C322.89 572.51 307.85 572.4 292.48 569.59C284.708 568.136 277.064 566.066 269.62 563.4C258.62 574.06 248.86 586.57 239.44 600.19C255.21 606.4 270.34 610.66 285.62 612.67C297.68 594.63 313 579.75 334.59 569.82L334.65 569.78ZM394.32 572.18C391.604 570.715 388.806 569.406 385.94 568.26C382.249 578.515 375.82 587.562 367.35 594.42C365.538 595.865 363.666 597.233 361.74 598.52C373.715 592.609 387.29 590.759 400.41 593.25C400.887 589.819 401.064 586.352 400.94 582.89C400.687 580.728 399.956 578.649 398.801 576.803C397.645 574.958 396.094 573.392 394.26 572.22L394.32 572.18ZM350.55 605.39C351.35 604.79 352.16 604.24 352.97 603.68C339.58 610.52 324.86 613.54 309.25 613.95C301.348 614.138 293.443 613.7 285.61 612.64C277.08 625.35 270.12 639.64 263.73 654.92C280.45 657.72 296.13 658.73 311.49 657.53C319.55 637.38 331.44 619.64 350.49 605.43L350.55 605.39ZM375.55 634.75C363.87 644.22 350.1 650.24 334.92 653.89C327.231 655.718 319.41 656.936 311.53 657.53C305.83 671.74 301.99 687.14 298.92 703.42C315.86 702.69 331.4 700.42 346.18 696.05C349.91 674.62 357.86 654.79 373.53 636.93C374.11 636.22 374.78 635.51 375.46 634.79L375.55 634.75ZM409.44 595.33C406.482 594.463 403.477 593.765 400.44 593.24C398.96 604.037 394.55 614.222 387.69 622.69C386.2 624.51 384.69 626.22 383.05 627.87C393.534 619.597 406.428 614.964 419.78 614.67C419.483 611.225 418.888 607.812 418 604.47C417.319 602.41 416.19 600.527 414.694 598.955C413.199 597.383 411.373 596.162 409.35 595.38L409.44 595.33ZM429.02 614.85C425.946 614.617 422.861 614.561 419.78 614.68C420.577 625.55 418.381 636.43 413.43 646.14C412.34 648.25 411.15 650.25 409.92 652.22C418.461 641.918 430.132 634.685 443.16 631.62C442.2 628.288 440.952 625.046 439.43 621.93C438.314 620.05 436.791 618.444 434.975 617.227C433.158 616.011 431.093 615.216 428.93 614.9L429.02 614.85ZM402.44 663C402.95 662.1 403.44 661.23 404.01 660.37C394.55 672.1 382.33 680.89 368.21 687.62C361.07 691.006 353.674 693.821 346.09 696.04C343.47 711.12 342.91 726.99 343.29 743.55C359.7 739.31 374.43 733.86 387.97 726.55C387.17 704.83 390.82 683.78 402.44 663ZM436.24 682.47C436.53 681.55 436.85 680.66 437.16 679.77C430.35 693.13 420.23 704.19 407.88 713.67C401.604 718.489 394.957 722.802 388 726.57C388.57 741.86 391.33 757.5 395.15 773.57C410.33 766.01 423.61 757.62 435.33 747.62C430 726.56 429.18 705.21 436.24 682.52V682.47ZM452.12 629.87C449.069 630.281 446.044 630.865 443.06 631.62C446.101 642.089 446.215 653.191 443.39 663.72C442.781 665.924 442.083 668.102 441.3 670.25C447.515 658.467 457.391 649.023 469.44 643.34C467.809 640.281 465.916 637.37 463.78 634.64C462.307 633.039 460.498 631.784 458.481 630.968C456.464 630.152 454.292 629.794 452.12 629.92V629.87ZM473.36 694.49C473.45 693.49 473.59 692.49 473.71 691.49C469.83 706.02 462.23 718.99 452.09 730.87C446.94 736.872 441.322 742.456 435.29 747.57C439.03 762.41 444.97 777.13 452.06 792.1C465.34 781.55 476.59 770.58 485.97 758.36C476.4 738.92 471.18 718.2 473.36 694.54V694.49ZM490.36 641.98C488.589 640.725 486.562 639.878 484.425 639.499C482.288 639.121 480.094 639.22 478 639.79C475.097 640.827 472.256 642.029 469.49 643.39C474.642 652.998 477.063 663.833 476.49 674.72C476.35 677.07 476.1 679.38 475.78 681.66C479.406 668.79 487.13 657.454 497.78 649.37C495.518 646.7 493.025 644.233 490.33 642L490.36 641.98ZM511.92 695.55C511.15 710.55 506.41 724.85 498.92 738.55C495.146 745.515 490.826 752.169 486 758.45C492.74 772.19 501.62 785.36 511.67 798.53C522.46 785.45 531.18 772.37 537.82 758.46C524.39 741.35 514.97 722.17 512.19 698.57C512 697.57 512 696.59 511.89 695.6L511.92 695.55ZM505.3 644.02C502.671 645.64 500.137 647.41 497.71 649.32C504.745 657.644 509.366 667.736 511.07 678.5C511.42 680.83 511.66 683.13 511.82 685.43C512.681 672.099 517.862 659.412 526.58 649.29C523.846 647.161 520.931 645.273 517.87 643.65C515.871 642.782 513.705 642.369 511.528 642.442C509.35 642.515 507.216 643.071 505.28 644.07L505.3 644.02ZM532.91 642.52C530.676 644.651 528.566 646.908 526.59 649.28C535.206 655.963 541.826 664.879 545.73 675.06C546.56 677.26 547.27 679.47 547.9 681.67C545.976 668.449 548.412 654.962 554.84 643.25C551.717 641.733 548.468 640.492 545.13 639.54C542.991 639.103 540.782 639.147 538.663 639.672C536.543 640.196 534.568 641.186 532.88 642.57L532.91 642.52ZM551 694.48C550.68 693.48 550.4 692.58 550.12 691.64C552.49 706.49 550.81 721.43 546.38 736.4C544.12 743.971 541.264 751.35 537.84 758.47C547.29 770.47 558.71 781.54 571.28 792.33C579.11 777.33 584.92 762.71 588.52 747.73C571.78 733.78 558.58 717 551 694.48ZM559.63 635.39C557.891 637.934 556.298 640.575 554.86 643.3C564.672 648.045 572.997 655.387 578.93 664.53C580.19 666.53 581.34 668.53 582.42 670.53C577.798 658.004 577.381 644.314 581.23 631.53C577.863 630.696 574.43 630.157 570.97 629.92C568.784 629.926 566.627 630.421 564.656 631.367C562.686 632.313 560.951 633.688 559.58 635.39H559.63ZM588.09 682.39C587.58 681.53 587.09 680.67 586.65 679.81C592.05 693.81 593.51 708.81 592.29 724.35C591.652 732.227 590.391 740.042 588.52 747.72C600.27 757.53 613.73 765.95 628.27 773.9C632.81 757.57 635.45 742.08 635.86 726.68C616.58 716.51 600.18 702.82 588 682.39H588.09ZM621.86 662.86C621.18 662.13 620.55 661.38 619.91 660.63C628.11 673.23 632.65 687.55 634.69 703.02C635.703 710.86 636.095 718.768 635.86 726.67C649.39 733.83 664.31 739.26 680.18 744.02C681.18 727.09 680.59 711.39 677.79 696.24C656.81 690.3 637.92 680.32 621.81 662.86H621.86ZM584.19 622.8C583.024 625.654 582.022 628.572 581.19 631.54C591.789 634.134 601.473 639.585 609.19 647.3C610.84 648.97 612.38 650.69 613.86 652.45C606.729 641.161 603.468 627.857 604.57 614.55C601.103 614.435 597.634 614.622 594.2 615.11C592.064 615.567 590.058 616.494 588.326 617.824C586.594 619.155 585.181 620.854 584.19 622.8ZM605.65 605.37C605.095 608.406 604.714 611.471 604.51 614.55C615.406 614.895 626 618.218 635.14 624.16C637.14 625.45 638.98 626.82 640.79 628.23C631.452 618.67 625.484 606.326 623.79 593.07C620.384 593.678 617.039 594.582 613.79 595.77C611.806 596.667 610.047 597.994 608.64 599.654C607.232 601.314 606.211 603.267 605.65 605.37ZM648.39 635C659.03 645.62 666.46 658.68 671.67 673.41C674.294 680.868 676.324 688.522 677.74 696.3C692.46 700.49 708.19 702.7 724.74 704.04C722.24 687.27 718.36 672.04 712.47 657.81C690.76 656.34 670.21 650.51 650.81 636.81C650 636.15 649.17 635.55 648.39 635ZM623 583.86C623.087 586.943 623.351 590.018 623.79 593.07C634.53 591.123 645.599 592.161 655.79 596.07C657.99 596.93 660.11 597.88 662.17 598.89C651.049 591.476 642.648 580.638 638.24 568.02C635.025 569.325 631.93 570.907 628.99 572.75C627.228 574.04 625.776 575.706 624.74 577.628C623.704 579.55 623.109 581.679 623 583.86ZM673.65 605.16C672.72 604.76 671.82 604.33 670.92 603.9C683.56 612.08 693.54 623.32 701.71 636.64C705.825 643.387 709.399 650.449 712.4 657.76C727.67 658.76 743.51 657.69 759.94 655.57C754.01 639.69 747.05 625.57 738.32 612.9C716.81 616 695.5 614.55 673.67 605.15L673.65 605.16ZM689.48 569.51C688.48 569.31 687.54 569.08 686.59 568.85C700.59 574.22 712.73 583.14 723.48 594.47C728.909 600.215 733.874 606.381 738.33 612.91C753.48 610.75 768.75 606.37 784.38 600.91C775.28 586.61 765.54 574.28 754.38 563.67C734 571.12 712.81 574.15 689.51 569.5L689.48 569.51ZM635.48 559.21C636.207 562.209 637.105 565.164 638.17 568.06C648.264 563.943 659.293 562.67 670.06 564.38C672.38 564.76 674.64 565.25 676.87 565.8C664.461 560.858 654 552.008 647.07 540.59C644.198 542.535 641.501 544.726 639.01 547.14C637.575 548.768 636.519 550.694 635.917 552.78C635.315 554.865 635.183 557.058 635.53 559.2L635.48 559.21ZM759.77 512.12C741.35 523.69 721.29 531.05 697.53 531.35H694.53C709.38 533.69 723.06 539.9 735.93 548.74C742.437 553.247 748.576 558.263 754.29 563.74C768.66 558.47 782.68 551.02 796.83 542.41C785 530.21 773 520.17 759.82 512.11L759.77 512.12ZM642.65 532.49C643.985 535.27 645.477 537.971 647.12 540.58C656.135 534.455 666.656 530.917 677.54 530.35C679.89 530.24 682.2 530.25 684.49 530.35C671.329 528.093 659.261 521.614 650.11 511.89C647.706 514.389 645.524 517.092 643.59 519.97C642.517 521.858 641.876 523.96 641.714 526.125C641.551 528.289 641.871 530.464 642.65 532.49ZM684.52 494.07C671.18 494.597 658.031 490.768 647.06 483.16C645.227 486.104 643.654 489.203 642.36 492.42C641.7 494.494 641.51 496.689 641.802 498.845C642.094 501.002 642.862 503.066 644.05 504.89C645.931 507.337 647.951 509.674 650.1 511.89C657.644 504.024 667.2 498.376 677.73 495.56C680 494.94 682.27 494.47 684.52 494.07ZM694.66 492.91C709.66 492.11 724.33 495.34 738.75 501.31C746.044 504.349 753.086 507.96 759.81 512.11C772.81 503.97 784.94 493.76 796.99 482.39C782.86 473.03 768.99 465.73 754.42 460.58C738.8 475.73 720.71 487.1 697.54 492.33C696.58 492.56 695.62 492.73 694.67 492.91H694.66ZM639.66 477.58C642.011 479.579 644.475 481.442 647.04 483.16C652.785 473.897 660.957 466.386 670.67 461.44C672.77 460.39 674.88 459.44 677.01 458.59C664.068 461.882 650.406 460.871 638.09 455.71C636.912 458.96 636.018 462.306 635.42 465.71C635.205 467.882 635.477 470.074 636.216 472.127C636.954 474.18 638.141 476.043 639.69 477.58H639.66ZM689.38 454.19C688.47 454.61 687.57 454.98 686.66 455.35C701.18 451.45 716.2 451.55 731.55 454.35C739.321 455.807 746.965 457.877 754.41 460.54C765.41 449.88 775.17 437.37 784.59 423.74C768.82 417.52 753.7 413.27 738.42 411.26C726.32 429.37 711 444.25 689.41 454.19H689.38ZM629.71 451.79C632.423 453.255 635.217 454.564 638.08 455.71C641.774 445.455 648.206 436.407 656.68 429.55C658.52 428.08 660.4 426.72 662.3 425.44C650.323 431.357 636.744 433.211 623.62 430.72C623.142 434.155 622.965 437.625 623.09 441.09C623.335 443.255 624.059 445.338 625.21 447.189C626.36 449.04 627.907 450.611 629.74 451.79H629.71ZM673.48 418.57C672.67 419.17 671.86 419.73 671.05 420.28C684.44 413.44 699.16 410.41 714.77 410C722.672 409.809 730.576 410.243 738.41 411.3C746.94 398.59 753.9 384.3 760.28 369.03C743.57 366.22 727.89 365.21 712.52 366.42C704.45 386.62 692.56 404.36 673.51 418.56L673.48 418.57ZM648.48 389.21C660.16 379.74 673.93 373.72 689.11 370.07C696.798 368.241 704.619 367.024 712.5 366.43C718.2 352.22 722.05 336.82 725.11 320.53C708.18 321.26 692.63 323.53 677.85 327.91C674.12 349.34 666.17 369.17 650.5 387.03C649.89 387.78 649.22 388.49 648.54 389.2L648.48 389.21ZM614.59 428.63C617.548 429.498 620.552 430.195 623.59 430.72C625.07 419.923 629.479 409.738 636.34 401.27C637.83 399.45 639.34 397.74 640.97 396.09C630.486 404.363 617.592 408.997 604.24 409.29C604.527 412.748 605.116 416.174 606 419.53C606.681 421.59 607.81 423.473 609.305 425.045C610.801 426.617 612.626 427.838 614.65 428.62L614.59 428.63ZM595.07 409.1C598.144 409.336 601.229 409.396 604.31 409.28C603.511 398.407 605.707 387.523 610.66 377.81C611.75 375.71 612.93 373.72 614.15 371.81C605.606 382.093 593.944 389.311 580.93 392.37C581.889 395.702 583.137 398.945 584.66 402.06C585.766 403.93 587.274 405.532 589.074 406.749C590.874 407.967 592.922 408.77 595.07 409.1ZM621.57 361C621.07 361.89 620.57 362.74 620.02 363.59C629.48 351.88 641.68 343.11 655.78 336.38C662.92 332.994 670.316 330.179 677.9 327.96C680.52 312.88 681.08 297.01 680.69 280.45C664.29 284.68 649.56 290.13 636.02 297.45C636.85 319.17 633.2 340.22 621.57 361ZM587.75 341.53C587.46 342.46 587.14 343.35 586.82 344.25C593.63 330.88 603.75 319.82 616.11 310.33C622.388 305.508 629.039 301.191 636 297.42C635.43 282.13 632.67 266.5 628.85 250.42C613.66 257.98 600.38 266.42 588.66 276.42C594 297.44 594.82 318.79 587.76 341.48L587.75 341.53ZM571.88 394.13C574.927 393.723 577.949 393.142 580.93 392.39C577.89 381.921 577.775 370.819 580.6 360.29C581.21 358.05 581.93 355.88 582.7 353.75C576.486 365.537 566.61 374.985 554.56 380.67C556.193 383.729 558.09 386.64 560.23 389.37C561.704 390.969 563.514 392.221 565.53 393.036C567.547 393.85 569.719 394.207 571.89 394.08L571.88 394.13ZM550.63 329.51C550.54 330.51 550.4 331.51 550.27 332.51C554.14 317.95 561.75 304.96 571.91 293.07C577.053 287.069 582.664 281.484 588.69 276.37C585 261.49 579 246.77 571.93 231.8C558.65 242.35 547.41 253.32 538.02 265.54C547.6 285.08 552.82 305.79 550.64 329.45L550.63 329.51ZM533.63 382.02C535.401 383.278 537.43 384.126 539.569 384.505C541.708 384.884 543.904 384.783 546 384.21C548.906 383.173 551.751 381.971 554.52 380.61C549.368 371.002 546.947 360.167 547.52 349.28C547.66 346.91 547.91 344.58 548.23 342.28C544.614 355.168 536.889 366.523 526.23 374.62C528.488 377.294 530.978 379.763 533.67 382L533.63 382.02ZM512.07 328.45C512.84 313.45 517.58 299.16 525.07 285.45C528.872 278.51 533.219 271.883 538.07 265.63C531.33 251.89 522.45 238.73 512.4 225.56C501.61 238.64 492.9 251.71 486.26 265.62C499.69 282.73 509.11 301.91 511.89 325.5C512 326.42 512 327.41 512.11 328.39L512.07 328.45ZM518.69 379.98C521.319 378.36 523.853 376.59 526.28 374.68C519.244 366.357 514.623 356.265 512.92 345.5C512.57 343.17 512.33 340.87 512.17 338.57C511.309 351.901 506.127 364.588 497.41 374.71C500.144 376.84 503.058 378.727 506.12 380.35C508.12 381.22 510.288 381.633 512.467 381.56C514.647 381.488 516.782 380.931 518.72 379.93L518.69 379.98Z" fill="white"/>
</g>
<defs>
<clipPath id="clip0_2_2787">
<rect width="1024" height="1024" fill="white"/>
</clipPath>
</defs>
</svg>
