<svg width="1024" height="1024" fill="none" xmlns="http://www.w3.org/2000/svg"><g clip-path="url(#a)"><path d="M512 1024c282.77 0 512-229.23 512-512S794.77 0 512 0 0 229.23 0 512s229.23 512 512 512Z" fill="#FF837D"/><path d="M395.78 320.12c-.5-3.8-.84-7.62-1-11.53a106.074 106.074 0 0 1 35.63 36.32c.39.66.76 1.33 1.12 2a36.17 36.17 0 0 1 4.19 9.2 53.644 53.644 0 0 1 2.39 28.11 52.982 52.982 0 0 1-18.62-12.06 80.075 80.075 0 0 1-4.08-4.48 44.933 44.933 0 0 1-6-8.14c-7.14-11.03-11.58-23.93-13.63-39.42Zm-15.9 64a46.574 46.574 0 0 0 7.66 6.77c1.69 1.31 3.29 2.46 4.88 3.5a53.046 53.046 0 0 0 20.71 7.93 53.655 53.655 0 0 0-8.22-27 39.537 39.537 0 0 0-5.94-8c-.51-.59-1-1.18-1.55-1.77A106.007 106.007 0 0 0 355 337.41c1 3.78 2.12 7.45 3.4 11.06 5.24 14.71 12.26 26.39 21.49 35.7l-.01-.05Zm-23.72 30.25a57.129 57.129 0 0 0 9 5.06c1.92.92 3.71 1.71 5.46 2.39a52.834 52.834 0 0 0 21.91 3.44 53.64 53.64 0 0 0-13.63-24.72 50.869 50.869 0 0 0-7.55-6.67c-.6-.46-1.2-.92-1.84-1.37a106.084 106.084 0 0 0-47.34-18.69c1.75 3.5 3.62 6.85 5.62 10.12 8.13 13.34 17.42 23.3 28.37 30.48v-.04ZM339.33 449a60.057 60.057 0 0 0 9.73 3.06c2.08.51 4 .91 5.89 1.22a53.159 53.159 0 0 0 22.16-1.18 53.63 53.63 0 0 0-18.45-21.33 55.416 55.416 0 0 0-8.83-5c-.68-.32-1.35-.64-2.05-.95a105.25 105.25 0 0 0-42.42-8.68c-2.56 0-5.14.08-7.75.25 2.44 3.05 5 5.94 7.6 8.72 10.73 11.29 21.9 19.1 34.12 23.89ZM330 486.24a59.04 59.04 0 0 0 10.18 1h2.65c1.113 0 2.23-.027 3.35-.08a52.997 52.997 0 0 0 21.43-5.77 53.637 53.637 0 0 0-22.52-17 51.208 51.208 0 0 0-9.59-3c-.74-.18-1.49-.36-2.25-.51a106.694 106.694 0 0 0-20.81-2.08 110.747 110.747 0 0 0-30 4.27c3 2.48 6.09 4.78 9.24 6.95 12.82 8.79 25.32 14.11 38.32 16.22Zm-5.17 38.5c1.25 0 2.51 0 3.75-.09a59.513 59.513 0 0 0 10.22-1.17c2.1-.38 4-.8 5.84-1.28a53.052 53.052 0 0 0 19.76-10.1 53.633 53.633 0 0 0-25.56-12 58.474 58.474 0 0 0-10-1h-2.3a106.13 106.13 0 0 0-49.27 12.7c3.47 1.8 7 3.41 10.49 4.88 13 5.43 25.14 8.05 37.05 8.05l.02.01Zm10.47 37.75s6.82-2 9.6-3.21c2-.81 3.8-1.63 5.52-2.49a53.05 53.05 0 0 0 17.23-14 53.593 53.593 0 0 0-25.65-6.43h-1.8a74.038 74.038 0 0 0-10.07 1.15c-.74.14-1.47.27-2.22.44a106.085 106.085 0 0 0-45.55 22.68c3.77 1 7.51 1.89 11.28 2.59a111.272 111.272 0 0 0 20.16 2 84.462 84.462 0 0 0 21.49-2.74l.01.01Zm103 77.4a53.624 53.624 0 0 0-23.21 16.19 74.31 74.31 0 0 0-6.98 10.14 106.085 106.085 0 0 0-13.64 49c3.3-2.11 6.44-4.32 9.48-6.66 12.35-9.48 21.27-19.73 27.27-31.34a100.878 100.878 0 0 0 4.16-9.57c.71-2 1.3-3.83 1.79-5.62a53.054 53.054 0 0 0 1.11-22.14h.02Zm8.94 33.05a44.89 44.89 0 0 0-4.1 9.44c-.24.68-.48 1.36-.7 2.06a106.068 106.068 0 0 0-3.14 50.8c2.78-2.75 5.4-5.56 7.89-8.48 10.14-11.87 16.74-23.8 20.18-36.45a63.166 63.166 0 0 0 2-10c.29-2.12.48-4.09.6-6a53.009 53.009 0 0 0-3.5-21.92 53.632 53.632 0 0 0-19.24 20.55h.01Zm167.43-8.43a54.156 54.156 0 0 0-6.09-8.22c-1.38-1.63-2.7-3.09-4-4.44a53.065 53.065 0 0 0-18.62-12.06 53.634 53.634 0 0 0 2.39 28.11 38.305 38.305 0 0 0 4.19 9.2c.36.67.72 1.33 1.12 2a106.103 106.103 0 0 0 35.64 36.32c-.18-3.91-.52-7.73-1-11.53-2.12-15.48-6.56-28.36-13.65-39.38h.02Zm29.46-24.69a44.162 44.162 0 0 0-7.64-6.75 76.254 76.254 0 0 0-4.89-3.51 53.007 53.007 0 0 0-20.72-7.93 53.628 53.628 0 0 0 8.19 27s1.37 3.13 6 8.11c.49.58 1 1.16 1.51 1.72A105.991 105.991 0 0 0 669 686.59c-1-3.78-2.12-7.45-3.4-11.07-5.24-14.71-12.26-26.39-21.49-35.7h.02ZM668 609.7h-.05a76.337 76.337 0 0 0-9.22-5.21c-1.85-.89-3.59-1.65-5.3-2.32a52.855 52.855 0 0 0-21.88-3.44 53.536 53.536 0 0 0 12.3 23.24l.55.57c.28.31.54.62.83.92l.52.44a69.948 69.948 0 0 0 8.62 7.44l.2.15a106.076 106.076 0 0 0 47.33 18.69c-1.75-3.49-3.62-6.85-5.62-10.11-8.17-13.27-17.41-23.19-28.28-30.37Zm16.68-34.7c-2.85-1.17-9.74-3.07-9.74-3.07-2.08-.51-4-.91-5.88-1.22a53.157 53.157 0 0 0-22.16 1.18A53.597 53.597 0 0 0 665 593l.32.21.11.08h.05a65.096 65.096 0 0 0 8.78 5c.65.31 1.3.62 2 .91a105.263 105.263 0 0 0 42.43 8.68c2.53 0 5.11-.08 7.74-.25-2.44-3.05-5-5.94-7.6-8.72-10.77-11.31-21.93-19.12-34.15-23.91Zm9.32-37.24a80.071 80.071 0 0 0-10.18-1h-2.65c-1.114 0-2.23.027-3.35.08a53 53 0 0 0-21.42 5.77 53.624 53.624 0 0 0 22.51 17 75.966 75.966 0 0 0 9.6 3c.74.18 1.48.36 2.25.51a106.617 106.617 0 0 0 20.81 2.08 110.753 110.753 0 0 0 30-4.27c-3-2.48-6.09-4.78-9.24-6.95-12.83-8.79-25.33-14.11-38.33-16.22Zm5.17-38.5c-1.25 0-2.52 0-3.77.09a79.613 79.613 0 0 0-10.19 1.16c-2.1.38-4 .8-5.86 1.28a53.001 53.001 0 0 0-19.76 10.09 53.633 53.633 0 0 0 25.56 12c3.31.536 6.649.87 10 1h2.3a106.145 106.145 0 0 0 49.27-12.7c-3.47-1.79-6.95-3.41-10.49-4.87-12.99-5.42-25.13-8.05-37.04-8.05h-.02Zm-10.4-37.76a64.687 64.687 0 0 0-9.7 3.25c-2 .81-3.77 1.62-5.47 2.47a52.994 52.994 0 0 0-17.23 14 53.58 53.58 0 0 0 25.63 6.42h1.82a79.6 79.6 0 0 0 10-1.15c.74-.14 1.48-.27 2.23-.44a106.115 106.115 0 0 0 45.56-22.67c-3.77-1-7.51-1.89-11.28-2.59a111.261 111.261 0 0 0-20.15-2 84.505 84.505 0 0 0-21.41 2.71Zm-103-77.39A53.641 53.641 0 0 0 608.91 368a51.289 51.289 0 0 0 5.81-8.14c.41-.66.81-1.33 1.2-2a106.097 106.097 0 0 0 13.64-49c-3.3 2.12-6.45 4.33-9.5 6.67-12.35 9.48-21.28 19.74-27.28 31.35-1.53 2.82-4.14 9.53-4.14 9.53-.71 2-1.3 3.84-1.79 5.64a53.062 53.062 0 0 0-1.13 22.06h.05ZM576.78 351a69.011 69.011 0 0 0 4.08-9.4c.24-.69.49-1.38.71-2.09a106.09 106.09 0 0 0 3.15-50.79c-2.78 2.75-5.39 5.56-7.88 8.47-10.16 11.89-16.77 23.84-20.2 36.52a71.217 71.217 0 0 0-2 9.85c-.29 2.13-.49 4.12-.6 6.05a53.046 53.046 0 0 0 3.5 21.91A53.624 53.624 0 0 0 576.78 351Zm-71.37-24.87a106.078 106.078 0 0 0-17.78-47.67c-1.42 3.64-2.66 7.26-3.75 10.93-4.43 15-5.62 28.54-3.62 41.48a62.646 62.646 0 0 0 2.22 10c.6 2 1.22 3.92 1.89 5.69a52.996 52.996 0 0 0 12.11 18.6 53.623 53.623 0 0 0 9.24-26.69c.3-3.328.27-6.678-.09-10-.07-.75-.13-1.47-.22-2.29v-.05Zm-.76 353.34a53.009 53.009 0 0 0-8-20.7A53.638 53.638 0 0 0 482.08 683a38.258 38.258 0 0 0-2 9.83c-.1.76-.2 1.52-.27 2.3a106.071 106.071 0 0 0 7.48 50.33c2.15-3.27 4.12-6.56 5.95-9.92 7.45-13.73 11.43-26.77 12.17-39.87a38.308 38.308 0 0 0-.09-10.17c-.17-2.13-.38-4.09-.67-5.98v-.05ZM665.6 431c-1.77 1.2-3.36 2.37-4.85 3.56a53.003 53.003 0 0 0-13.94 17.25A55.337 55.337 0 0 0 662 454a54.768 54.768 0 0 0 13-1.59 61.182 61.182 0 0 0 9.56-3.2c.7-.29 1.4-.58 2.11-.9a106.07 106.07 0 0 0 39.85-31.65c-2.7-.16-5.38-.24-8.06-.24h-3.52c-15.6.41-28.88 3.48-40.59 9.39a78.114 78.114 0 0 0-8.75 5.19Zm-20.2-30.15c-1.48 1.54-2.79 3-4 4.48a52.993 52.993 0 0 0-10 19.77c1.333.093 2.666.14 4 .14a54.01 54.01 0 0 0 23.73-5.47 47.585 47.585 0 0 0 8.66-5.1c.63-.43 1.26-.87 1.89-1.33a106.067 106.067 0 0 0 32.32-39.2c-3.86.59-7.63 1.33-11.35 2.22-15.17 3.64-27.52 9.41-37.74 17.61a64.902 64.902 0 0 0-7.51 6.91v-.03Zm-26-25.32c-1.25 2-2.19 3.64-3 5.22a52.996 52.996 0 0 0-5.72 21.44 53.634 53.634 0 0 0 26-11 52.807 52.807 0 0 0 7.43-6.81c.52-.55 1-1.1 1.56-1.69a106.043 106.043 0 0 0 23.53-45.12 134.886 134.886 0 0 0-10.64 4.53c-14.06 6.71-24.94 14.93-33.26 25.12a60.868 60.868 0 0 0-5.88 8.34l-.02-.03Zm-100.73-37c.16 2.09.37 4 .65 5.88a52.993 52.993 0 0 0 8 20.7 53.636 53.636 0 0 0 14.61-24.24 74.69 74.69 0 0 0 2-9.71c.1-.78.21-1.57.28-2.37a106.084 106.084 0 0 0-7.48-50.33c-2.15 3.27-4.12 6.56-6 9.93-7.45 13.73-11.43 26.77-12.17 39.86-.23 3.09.09 10.18.09 10.18l.02.1Zm-51.1-4.81c-.22-.73-.43-1.45-.68-2.19a106.088 106.088 0 0 0-27.3-42.94c-.64 3.86-1.1 7.67-1.4 11.49-1.22 15.55.44 29.07 5.08 41.32 0 0 2.82 6.76 4.25 9.33 1 1.88 2 3.58 3 5.17a52.991 52.991 0 0 0 15.71 15.67 53.639 53.639 0 0 0 3.5-28 58.079 58.079 0 0 0-2.13-9.78l-.03-.07ZM358.41 593a80.731 80.731 0 0 0 4.84-3.55 53.02 53.02 0 0 0 13.93-17.24A55.395 55.395 0 0 0 362 570a54.81 54.81 0 0 0-13.11 1.62 61.533 61.533 0 0 0-9.46 3.17c-.72.3-1.44.6-2.16.93a106.048 106.048 0 0 0-39.84 31.64c2.71.16 5.39.24 8.07.24h3.5c15.6-.41 28.88-3.48 40.58-9.38a77.694 77.694 0 0 0 8.83-5.22Zm20.18 30.17c1.48-1.54 2.79-3 4-4.49a53.008 53.008 0 0 0 10-19.77 57.492 57.492 0 0 0-4-.14 54.004 54.004 0 0 0-23.71 5.46 56.79 56.79 0 0 0-8.68 5.11c-.63.43-1.26.86-1.88 1.33A106.062 106.062 0 0 0 322 649.86c3.86-.59 7.63-1.33 11.35-2.22 15.17-3.65 27.53-9.41 37.74-17.62a66.292 66.292 0 0 0 7.5-6.9v.05Zm26 25.35c1.24-2 2.21-3.67 3-5.26a53.012 53.012 0 0 0 5.72-21.44 53.64 53.64 0 0 0-26 11 59.223 59.223 0 0 0-7.42 6.8c-.52.55-1 1.11-1.56 1.69a106.073 106.073 0 0 0-23.53 45.11c3.66-1.38 7.19-2.88 10.64-4.53 14.08-6.72 25-15 33.29-25.16 2.17-2.64 5.83-8.26 5.83-8.26l.03.05Zm137 34.63c-.6-2.05-1.22-3.92-1.89-5.71a53.01 53.01 0 0 0-12.11-18.6 53.617 53.617 0 0 0-9.24 26.69 35.564 35.564 0 0 0 .09 10c.06.77.12 1.53.21 2.31a106.066 106.066 0 0 0 17.78 47.67c1.42-3.64 2.66-7.26 3.75-10.93 4.43-15 5.61-28.55 3.62-41.5a57.457 57.457 0 0 0-2.27-9.98l.06.05Zm34.92-9.91c-1-1.88-2-3.57-3-5.17a53.016 53.016 0 0 0-15.7-15.67 53.64 53.64 0 0 0-3.5 28 35.85 35.85 0 0 0 2.18 9.82c.22.73.44 1.47.69 2.21a106.075 106.075 0 0 0 27.3 42.93c.63-3.86 1.1-7.67 1.4-11.48 1.22-15.55-.44-29.07-5.08-41.33a40.213 40.213 0 0 0-4.35-9.36l.06.05ZM473.05 329.52c.32.95.59 1.88.87 2.82-2.37-14.85-.69-29.78 3.74-44.74 2.26-7.57 5.116-14.95 8.54-22.07-9.45-12-20.87-23.07-33.44-33.87-7.83 15-13.63 29.62-17.24 44.61 16.71 13.95 29.9 30.73 37.53 53.25Zm18.07 51.9a80.923 80.923 0 0 0 6.32-6.76 59.659 59.659 0 0 1-19.14-25.78c-.83-2.2-1.54-4.4-2.17-6.6a61.468 61.468 0 0 1-6.94 38.41 59.64 59.64 0 0 0 9.7 3.71 14.69 14.69 0 0 0 12.23-2.98ZM436 341.6c.51.86 1 1.72 1.44 2.58-5.4-14-6.86-29-5.64-44.54a149.928 149.928 0 0 1 3.77-23.37c-11.75-9.81-25.21-18.23-39.75-26.18-4.54 16.33-7.18 31.82-7.59 47.23 19.19 10.17 35.59 23.86 47.77 44.28Zm28.46 47a81.04 81.04 0 0 0 4.77-7.91 59.651 59.651 0 0 1-24.07-21.23c-1.27-2-2.41-4-3.49-6a61.475 61.475 0 0 1 1.19 39 59.588 59.588 0 0 0 10.26 1.61 14.689 14.689 0 0 0 11.3-5.46l.04-.01Zm-62.24-27.48c.69.75 1.34 1.51 2 2.27-8.21-12.61-12.76-26.94-14.8-42.43a149.688 149.688 0 0 1-1.17-23.65c-13.53-7.16-28.45-12.59-44.32-17.34-1 16.92-.41 32.61 2.39 47.77 20.86 5.96 39.75 15.94 55.86 33.39l.04-.01Zm37.62 40.06a80.984 80.984 0 0 0 3-8.73 59.659 59.659 0 0 1-28-15.76 84.274 84.274 0 0 1-4.7-5.19 61.473 61.473 0 0 1 9.31 37.95 59.66 59.66 0 0 0 10.38-.56 14.683 14.683 0 0 0 9.98-7.69l.03-.02ZM375.6 389c-10.64-10.62-18.06-23.68-23.27-38.4a149.788 149.788 0 0 1-6.06-22.89c-14.73-4.19-30.45-6.4-47-7.75 2.51 16.77 6.39 32 12.28 46.24 21.71 1.47 42.26 7.3 61.66 21 .79.65 1.61 1.24 2.39 1.8Zm42.74 29.59a80.955 80.955 0 0 0 1.14-9.18 59.654 59.654 0 0 1-30.62-9.61c-2-1.29-3.83-2.66-5.64-4.07a61.462 61.462 0 0 1 17 35.15 59.657 59.657 0 0 0 10-2.7 14.69 14.69 0 0 0 8.12-9.55v-.04Zm-68 .21c.91.39 1.78.81 2.65 1.23-12.61-8.18-22.57-19.4-30.73-32.71a149.977 149.977 0 0 1-10.68-21.12c-15.27-1-31.11.07-47.54 2.19 5.93 15.88 12.89 30 21.62 42.67 21.53-3.06 42.84-1.61 64.67 7.78l.01-.04ZM401 440.14a80.865 80.865 0 0 0-.79-9.22 59.656 59.656 0 0 1-32-3c-2.18-.85-4.27-1.79-6.32-2.79a61.453 61.453 0 0 1 23.87 30.84 59.572 59.572 0 0 0 9.25-4.73 14.686 14.686 0 0 0 5.99-11.1Zm-12.52 24.65a81.118 81.118 0 0 0-2.69-8.84 59.645 59.645 0 0 1-31.88 3.68c-2.32-.38-4.59-.87-6.81-1.43a61.46 61.46 0 0 1 29.8 25.21 59.617 59.617 0 0 0 8.06-6.55 14.695 14.695 0 0 0 3.51-12.07h.01Zm-54-10.3c1 .2 1.94.43 2.9.66-14-5.37-26.14-14.29-36.89-25.62a149.676 149.676 0 0 1-14.85-18.44c-15.15 2.16-30.42 6.54-46 12 9.11 14.3 18.84 26.62 30 37.23 20.36-7.44 41.55-10.48 64.85-5.83h-.01Zm-5.12 38.2c-14.85-2.34-28.53-8.55-41.4-17.39a149.687 149.687 0 0 1-18.36-15c-14.37 5.27-28.39 12.72-42.54 21.33 11.88 12.11 24 22.14 37.11 30.2 18.42-11.57 38.48-18.93 62.24-19.23 1.01.04 1.99.07 2.97.1l-.02-.01Zm52-1.19a80.9 80.9 0 0 0-4.47-8.09 59.634 59.634 0 0 1-30.42 10.23c-2.35.11-4.66.1-6.95 0a61.473 61.473 0 0 1 34.38 18.47 59.713 59.713 0 0 0 6.53-8.08 14.7 14.7 0 0 0 .92-12.52l.01-.01Zm-52 39.58c-15 .79-29.66-2.43-44.07-8.4a149.826 149.826 0 0 1-21.06-10.81c-13 8.14-25.13 18.35-37.18 29.72 14.13 9.36 28 16.67 42.56 21.81 15.62-15.15 33.7-26.52 56.88-31.76.92-.2 1.87-.37 2.82-.55l.05-.01Zm50.64-12a81.06 81.06 0 0 0-6.05-7 59.659 59.659 0 0 1-27.63 16.33c-2.27.59-4.52 1.07-6.77 1.46A61.478 61.478 0 0 1 377 540.79a59.702 59.702 0 0 0 4.71-9.26 14.681 14.681 0 0 0-1.76-12.41l.05-.04Zm4.36 27.3a81.065 81.065 0 0 0-7.37-5.57 59.653 59.653 0 0 1-23.63 21.72c-2.12 1.06-4.25 2-6.39 2.87a61.489 61.489 0 0 1 39 2.87 59.715 59.715 0 0 0 2.67-10 14.688 14.688 0 0 0-4.33-11.85l.05-.04Zm-49.71 23.4c.93-.43 1.85-.8 2.77-1.19-14.53 3.92-29.57 3.81-44.94 1a149.14 149.14 0 0 1-22.86-6.19c-11 10.66-20.76 23.17-30.18 36.79 15.77 6.21 30.9 10.47 46.18 12.48 12.06-18.04 27.38-32.92 48.97-42.85l.06-.04Zm59.67 2.4a81.002 81.002 0 0 0-8.38-3.92 59.652 59.652 0 0 1-18.59 26.16 82.642 82.642 0 0 1-5.61 4.1 61.464 61.464 0 0 1 38.67-5.27c.477-3.431.654-6.898.53-10.36a14.697 14.697 0 0 0-6.68-10.67l.06-.04Zm-43.77 33.21c.8-.6 1.61-1.15 2.42-1.71-13.39 6.84-28.11 9.86-43.72 10.27a149.73 149.73 0 0 1-23.64-1.31c-8.53 12.71-15.49 27-21.88 42.28 16.72 2.8 32.4 3.81 47.76 2.61 8.06-20.15 19.95-37.89 39-52.1l.06-.04Zm25 29.36c-11.68 9.47-25.45 15.49-40.63 19.14a149.815 149.815 0 0 1-23.39 3.64c-5.7 14.21-9.54 29.61-12.61 45.89 16.94-.73 32.48-3 47.26-7.37 3.73-21.43 11.68-41.26 27.35-59.12.58-.71 1.25-1.42 1.93-2.14l.09-.04Zm33.89-39.42a81.136 81.136 0 0 0-9-2.09 59.656 59.656 0 0 1-12.75 29.45c-1.49 1.82-3 3.53-4.64 5.18a61.478 61.478 0 0 1 36.73-13.2 59.682 59.682 0 0 0-1.78-10.2 14.686 14.686 0 0 0-8.65-9.09l.09-.05Zm19.58 19.52a80.927 80.927 0 0 0-9.24-.17 59.653 59.653 0 0 1-6.35 31.46c-1.09 2.11-2.28 4.11-3.51 6.08a61.461 61.461 0 0 1 33.24-20.6 59.8 59.8 0 0 0-3.73-9.69 14.69 14.69 0 0 0-10.5-7.03l.09-.05ZM402.44 663c.51-.9 1-1.77 1.57-2.63-9.46 11.73-21.68 20.52-35.8 27.25a149.785 149.785 0 0 1-22.12 8.42c-2.62 15.08-3.18 30.95-2.8 47.51 16.41-4.24 31.14-9.69 44.68-17-.8-21.72 2.85-42.77 14.47-63.55Zm33.8 19.47c.29-.92.61-1.81.92-2.7-6.81 13.36-16.93 24.42-29.28 33.9a149.721 149.721 0 0 1-19.88 12.9c.57 15.29 3.33 30.93 7.15 47 15.18-7.56 28.46-15.95 40.18-25.95-5.33-21.06-6.15-42.41.91-65.1v-.05Zm15.88-52.6a81.05 81.05 0 0 0-9.06 1.75 59.656 59.656 0 0 1 .33 32.1 85.76 85.76 0 0 1-2.09 6.53 61.452 61.452 0 0 1 28.14-26.91 59.69 59.69 0 0 0-5.66-8.7 14.685 14.685 0 0 0-11.66-4.72v-.05Zm21.24 64.62c.09-1 .23-2 .35-3-3.88 14.53-11.48 27.5-21.62 39.38a149.68 149.68 0 0 1-16.8 16.7c3.74 14.84 9.68 29.56 16.77 44.53 13.28-10.55 24.53-21.52 33.91-33.74-9.57-19.44-14.79-40.16-12.61-63.82v-.05Zm17-52.51a14.707 14.707 0 0 0-12.36-2.19 80.97 80.97 0 0 0-8.51 3.6 59.66 59.66 0 0 1 7 31.33c-.14 2.35-.39 4.66-.71 6.94a61.465 61.465 0 0 1 22-32.29 59.62 59.62 0 0 0-7.45-7.37l.03-.02Zm21.56 53.57c-.77 15-5.51 29.3-13 43a149.776 149.776 0 0 1-12.92 19.9c6.74 13.74 15.62 26.91 25.67 40.08 10.79-13.08 19.51-26.16 26.15-40.07-13.43-17.11-22.85-36.29-25.63-59.89-.19-1-.19-1.98-.3-2.97l.03-.05Zm-6.62-51.53a80.894 80.894 0 0 0-7.59 5.3 59.658 59.658 0 0 1 13.36 29.18c.35 2.33.59 4.63.75 6.93a61.445 61.445 0 0 1 14.76-36.14 59.687 59.687 0 0 0-8.71-5.64 14.687 14.687 0 0 0-12.59.42l.02-.05Zm27.61-1.5a80.923 80.923 0 0 0-6.32 6.76 59.659 59.659 0 0 1 19.14 25.78c.83 2.2 1.54 4.41 2.17 6.61a61.456 61.456 0 0 1 6.94-38.42 59.69 59.69 0 0 0-9.71-3.71 14.675 14.675 0 0 0-12.25 3.03l.03-.05ZM551 694.48c-.32-1-.6-1.9-.88-2.84 2.37 14.85.69 29.79-3.74 44.76a149.773 149.773 0 0 1-8.54 22.07c9.45 12 20.87 23.07 33.44 33.86 7.83-15 13.64-29.62 17.24-44.6-16.74-13.95-29.94-30.73-37.52-53.25Zm8.63-59.09a81.04 81.04 0 0 0-4.77 7.91 59.651 59.651 0 0 1 24.07 21.23c1.26 2 2.41 4 3.49 6a61.468 61.468 0 0 1-1.19-39 59.619 59.619 0 0 0-10.26-1.61 14.686 14.686 0 0 0-11.39 5.47h.05Zm28.46 47c-.51-.86-1-1.72-1.44-2.58 5.4 14 6.86 29 5.64 44.54a149.791 149.791 0 0 1-3.77 23.37c11.75 9.81 25.21 18.23 39.75 26.18 4.54-16.33 7.18-31.82 7.59-47.22-19.28-10.17-35.68-23.86-47.86-44.29h.09Zm33.77-19.53c-.68-.73-1.31-1.48-1.95-2.23 8.2 12.6 12.74 26.92 14.78 42.39a149.807 149.807 0 0 1 1.17 23.65c13.53 7.16 28.45 12.59 44.32 17.35 1-16.93.41-32.63-2.39-47.78-20.98-5.94-39.87-15.92-55.98-33.38h.05Zm-37.67-40.06a80.715 80.715 0 0 0-3 8.74 59.664 59.664 0 0 1 28 15.76c1.65 1.67 3.19 3.39 4.67 5.15a61.468 61.468 0 0 1-9.29-37.9 59.643 59.643 0 0 0-10.37.56 14.689 14.689 0 0 0-10.01 7.69Zm21.46-17.43a80.728 80.728 0 0 0-1.14 9.18 59.66 59.66 0 0 1 30.63 9.61c2 1.29 3.84 2.66 5.65 4.07a61.47 61.47 0 0 1-17-35.16 59.632 59.632 0 0 0-10 2.7 14.69 14.69 0 0 0-8.14 9.6ZM648.39 635c10.64 10.62 18.07 23.68 23.28 38.41a149.82 149.82 0 0 1 6.07 22.89c14.72 4.19 30.45 6.4 47 7.74-2.5-16.77-6.38-32-12.27-46.23-21.71-1.47-42.26-7.3-61.66-21-.81-.66-1.64-1.26-2.42-1.81ZM623 583.86c.087 3.083.351 6.158.79 9.21a59.646 59.646 0 0 1 32 3c2.2.86 4.32 1.81 6.38 2.82a61.463 61.463 0 0 1-23.93-30.87 59.66 59.66 0 0 0-9.25 4.73 14.676 14.676 0 0 0-5.99 11.11Zm50.65 21.3c-.93-.4-1.83-.83-2.73-1.26 12.64 8.18 22.62 19.42 30.79 32.74a149.819 149.819 0 0 1 10.69 21.12c15.27 1 31.11-.07 47.54-2.19-5.93-15.88-12.89-30-21.62-42.67-21.51 3.1-42.82 1.65-64.65-7.75l-.02.01Zm15.83-35.65c-1-.2-1.94-.43-2.89-.66 14 5.37 26.14 14.29 36.89 25.62a149.77 149.77 0 0 1 14.85 18.44c15.15-2.16 30.42-6.54 46.05-12-9.1-14.3-18.84-26.63-30-37.24-20.38 7.45-41.57 10.48-64.87 5.83l-.03.01Zm-54-10.3a80.78 80.78 0 0 0 2.69 8.85 59.661 59.661 0 0 1 31.89-3.68c2.32.38 4.58.87 6.81 1.42a61.46 61.46 0 0 1-29.8-25.21 59.617 59.617 0 0 0-8.06 6.55 14.687 14.687 0 0 0-3.48 12.06l-.05.01Zm124.29-47.09c-18.42 11.57-38.48 18.93-62.24 19.23h-3c14.85 2.34 28.53 8.55 41.4 17.39a149.779 149.779 0 0 1 18.36 15c14.37-5.27 28.39-12.72 42.54-21.33-11.83-12.2-23.83-22.24-37.01-30.3l-.05.01Zm-117.12 20.37a80.9 80.9 0 0 0 4.47 8.09 59.652 59.652 0 0 1 30.42-10.23c2.35-.11 4.66-.1 6.95 0a61.477 61.477 0 0 1-34.38-18.46 59.626 59.626 0 0 0-6.52 8.08 14.673 14.673 0 0 0-.94 12.52Zm41.87-38.42a61.477 61.477 0 0 1-37.46-10.91 59.607 59.607 0 0 0-4.7 9.26 14.688 14.688 0 0 0 1.69 12.47 80.714 80.714 0 0 0 6.05 7 59.627 59.627 0 0 1 27.63-16.33c2.27-.62 4.54-1.09 6.79-1.49Zm10.14-1.16c15-.8 29.67 2.43 44.09 8.4a149.768 149.768 0 0 1 21.06 10.8c13-8.14 25.13-18.35 37.18-29.72-14.13-9.36-28-16.66-42.57-21.81-15.62 15.15-33.71 26.52-56.88 31.75-.96.23-1.92.4-2.87.58h-.01Zm-55-15.33a80.85 80.85 0 0 0 7.38 5.58 59.66 59.66 0 0 1 23.63-21.72c2.1-1.05 4.21-2 6.34-2.85a61.485 61.485 0 0 1-38.92-2.88 59.619 59.619 0 0 0-2.67 10 14.677 14.677 0 0 0 4.27 11.87h-.03Zm49.72-23.39c-.91.42-1.81.79-2.72 1.16 14.52-3.9 29.54-3.8 44.89-1a149.892 149.892 0 0 1 22.86 6.19c11-10.66 20.76-23.17 30.18-36.8-15.77-6.22-30.89-10.47-46.17-12.48-12.1 18.11-27.42 32.99-49.01 42.93h-.03Zm-59.67-2.4a80.843 80.843 0 0 0 8.37 3.92 59.66 59.66 0 0 1 18.6-26.16c1.84-1.47 3.72-2.83 5.62-4.11a61.456 61.456 0 0 1-38.68 5.28 59.64 59.64 0 0 0-.53 10.37 14.683 14.683 0 0 0 6.65 10.7h-.03Zm43.77-33.22c-.81.6-1.62 1.16-2.43 1.71 13.39-6.84 28.11-9.87 43.72-10.28a149.73 149.73 0 0 1 23.64 1.3c8.53-12.71 15.49-27 21.87-42.27-16.71-2.81-32.39-3.82-47.76-2.61-8.07 20.2-19.96 37.94-39.01 52.14l-.03.01Zm-25-29.36c11.68-9.47 25.45-15.49 40.63-19.14a149.66 149.66 0 0 1 23.39-3.64c5.7-14.21 9.55-29.61 12.61-45.9-16.93.73-32.48 3-47.26 7.38-3.73 21.43-11.68 41.26-27.35 59.12-.61.75-1.28 1.46-1.96 2.17l-.06.01Zm-33.89 39.42a80.86 80.86 0 0 0 9 2.09 59.647 59.647 0 0 1 12.75-29.45c1.49-1.82 3-3.53 4.63-5.18a61.471 61.471 0 0 1-36.73 13.2 59.53 59.53 0 0 0 1.76 10.24 14.697 14.697 0 0 0 8.65 9.09l-.06.01Zm-19.52-19.53a80.93 80.93 0 0 0 9.24.18 59.65 59.65 0 0 1 6.35-31.47c1.09-2.1 2.27-4.09 3.49-6a61.481 61.481 0 0 1-33.22 20.56 59.58 59.58 0 0 0 3.73 9.69 14.685 14.685 0 0 0 10.41 7.04Zm26.5-48.1c-.5.89-1 1.74-1.55 2.59 9.46-11.71 21.66-20.48 35.76-27.21a149.785 149.785 0 0 1 22.12-8.42c2.62-15.08 3.18-30.95 2.79-47.51-16.4 4.23-31.13 9.68-44.67 17 .83 21.72-2.82 42.77-14.45 63.55Zm-33.82-19.47c-.29.93-.61 1.82-.93 2.72 6.81-13.37 16.93-24.43 29.29-33.92A149.766 149.766 0 0 1 636 297.42c-.57-15.29-3.33-30.92-7.15-47-15.19 7.56-28.47 16-40.19 26 5.34 21.02 6.16 42.37-.9 65.06l-.01.05Zm-15.87 52.6a80.662 80.662 0 0 0 9.05-1.74 59.666 59.666 0 0 1-.33-32.1c.61-2.24 1.33-4.41 2.1-6.54a61.453 61.453 0 0 1-28.14 26.92 59.589 59.589 0 0 0 5.67 8.7 14.703 14.703 0 0 0 5.3 3.666 14.7 14.7 0 0 0 6.36 1.044l-.01.05Zm-21.25-64.62c-.09 1-.23 2-.36 3 3.87-14.56 11.48-27.55 21.64-39.44a149.501 149.501 0 0 1 16.78-16.7c-3.69-14.88-9.69-29.6-16.76-44.57-13.28 10.55-24.52 21.52-33.91 33.74 9.58 19.54 14.8 40.25 12.62 63.91l-.01.06Zm-17 52.51a14.677 14.677 0 0 0 12.37 2.19 81.132 81.132 0 0 0 8.52-3.6 59.66 59.66 0 0 1-7-31.33c.14-2.37.39-4.7.71-7a61.465 61.465 0 0 1-22 32.34 59.551 59.551 0 0 0 7.44 7.38l-.04.02Zm-21.56-53.57c.77-15 5.51-29.29 13-43a149.586 149.586 0 0 1 13-19.82c-6.74-13.74-15.62-26.9-25.67-40.07-10.79 13.08-19.5 26.15-26.14 40.06 13.43 17.11 22.85 36.29 25.63 59.88.11.92.11 1.91.22 2.89l-.04.06Zm6.62 51.53a80.894 80.894 0 0 0 7.59-5.3 59.632 59.632 0 0 1-13.36-29.18c-.35-2.33-.59-4.63-.75-6.93a61.452 61.452 0 0 1-14.76 36.14 59.55 59.55 0 0 0 8.71 5.64c2 .87 4.168 1.283 6.347 1.21a14.679 14.679 0 0 0 6.253-1.63l-.03.05Z" fill="#fff"/></g><defs><clipPath id="a"><path fill="#fff" d="M0 0h1024v1024H0z"/></clipPath></defs></svg>