<svg width="1024" height="1024" fill="none" xmlns="http://www.w3.org/2000/svg"><g clip-path="url(#a)"><path d="M512 1024c282.77 0 512-229.23 512-512S794.77 0 512 0 0 229.23 0 512s229.23 512 512 512Z" fill="#FF837D"/><path d="M512 256.13c-141.33 0-255.87 114.55-255.87 255.88 0 141.33 114.54 255.87 255.87 255.87 141.33 0 255.88-114.55 255.88-255.88 0-141.33-114.55-255.87-255.88-255.87Zm132.84 346.36a7.904 7.904 0 0 1-4.865 7.32 7.91 7.91 0 0 1-3.025.61h-33.47a7.907 7.907 0 0 1-7.93-7.89V499.55a.998.998 0 0 0-1.199-.976c-.194.04-.372.136-.511.276L523 569.64a15.822 15.822 0 0 1-22.24 0L430 498.84a1.003 1.003 0 0 0-1.71.7v102.95a7.904 7.904 0 0 1-4.865 7.32 7.91 7.91 0 0 1-3.025.61H387a7.907 7.907 0 0 1-7.93-7.89v-181a7.922 7.922 0 0 1 7.93-7.93h22.94a16.002 16.002 0 0 1 11.19 4.69l88.06 88.06a3.842 3.842 0 0 0 5.43.12l.12-.12 88.06-88.06a15.723 15.723 0 0 1 11.2-4.7h22.92a7.926 7.926 0 0 1 7.329 4.894c.398.962.602 1.994.601 3.036l-.01 180.97Z" fill="#fff"/></g><defs><clipPath id="a"><path fill="#fff" d="M0 0h1024v1024H0z"/></clipPath></defs></svg>