<svg width="1024" height="1024" fill="none" xmlns="http://www.w3.org/2000/svg"><g clip-path="url(#a)"><path d="M512 1024c282.77 0 512-229.23 512-512S794.77 0 512 0 0 229.23 0 512s229.23 512 512 512Z" fill="#9ABEFF"/><path d="M423.37 367.17c-5.15.75-10.28 1.62-15.44 2.28a60168.052 60168.052 0 0 1 60.3-120.52 48.355 48.355 0 0 1 26.22-23.76 50.005 50.005 0 0 1 36.36.51 47.894 47.894 0 0 1 21.66 17.66 90.73 90.73 0 0 1 5.79 10.6c19.267 38.513 38.537 77.023 57.81 115.53-8-1.14-16-2.4-24-3.6a49.007 49.007 0 0 0-44.439 15.248 49.002 49.002 0 0 0-11.181 45.632c.57 2.39 1.6 4.64 2.22 7-8.9-17.727-17.79-35.467-26.67-53.22-8.51 16.9-16.93 33.86-25.44 50.76.13-2.28 1.05-4.39 1.5-6.61a49.003 49.003 0 0 0-44.17-59.36c-6.89-.62-13.73.9-20.52 1.85Zm19.48 12c-5-.45-9.88.65-14.77 1.33-3.71.54-7.4 1.17-11.12 1.64h-.13v.09c-2.32 5.26-5.1 10.31-7.62 15.49a35.26 35.26 0 0 0 28 51.93 3.068 3.068 0 0 1 1.71.61c3.2-.56 6.49-.62 9.65-1.44a35.26 35.26 0 0 0 20.19-13.49 53.129 53.129 0 0 0 4.86-8.66c.247-1.61.608-3.201 1.08-4.76a35.315 35.315 0 0 0-6.168-28.611A35.321 35.321 0 0 0 442.9 379.17h-.05Zm132.39 69.52c1.59.399 3.208.68 4.84.84 4.58.46 9.206.042 13.63-1.23a35.502 35.502 0 0 0 19-13.61 36.092 36.092 0 0 0 6-15.14 35.543 35.543 0 0 0-3.85-21.88c-2.51-5.18-5.29-10.24-7.62-15.51v-.08h-.16c-5.77-.82-11.53-1.73-17.3-2.59a35.306 35.306 0 0 0-40 43.84c.41 1.72 1.15 3.34 1.6 5.05a35.506 35.506 0 0 0 23 20.07l.86.24Zm215.11-20.82a49.174 49.174 0 0 0-22.56-31.71 50.423 50.423 0 0 0-19.58-6.64c-44-6.6-87.9-13.31-131.87-19.86 3.24 7.31 7.1 14.34 10.59 21.54a49.364 49.364 0 0 1 5.35 30.39 50.134 50.134 0 0 1-8.36 21 49.295 49.295 0 0 1-26.36 18.9 50.302 50.302 0 0 1-18.93 1.71c8.14.88 16.2 2.37 24.31 3.51l35.34 5.34c-12.8 12.66-25.66 25.26-38.45 37.94 2.47-.47 4.34-2.28 6.61-3.24a48.996 48.996 0 0 1 60.576 13.998A49.005 49.005 0 0 1 676.24 541c1.67 8.87 2.77 17.86 4.6 26.71 30.2-29.747 60.39-59.503 90.57-89.27 4.06-4.06 8.41-7.92 11.63-12.73a48.388 48.388 0 0 0 7.31-37.88v.04ZM421.08 526.7a19.138 19.138 0 0 1-1.6-1.37 35.274 35.274 0 0 0-50.778 1.752 35.28 35.28 0 0 0-8.362 16.708c-.93 5.22-1.74 10.46-2.62 15.68a16.435 16.435 0 0 0-.42 3.43c2.35 2.33 4.71 4.64 7.06 7 3.83 3.62 7.29 7.72 11.78 10.57a35.302 35.302 0 0 0 43.27-3.92 37 37 0 0 0 9.4-14.46c.12-.5.25-1 .37-1.51a35.375 35.375 0 0 0 .55-17.365 35.381 35.381 0 0 0-7.78-15.535c-.29-.36-.58-.68-.87-.98Zm189.12 54.1a35.442 35.442 0 0 0 33.27 2 38.245 38.245 0 0 0 11.79-8.67L666.53 563l.07-.07c-1.31-6.37-2.1-12.84-3.31-19.23a35.313 35.313 0 0 0-34.678-28.367A35.309 35.309 0 0 0 613 519c-1.63.69-3 2-4.76 2.34-2.81 2.76-5.89 5.31-8.15 8.57a35.293 35.293 0 0 0-.424 40.972A35.29 35.29 0 0 0 610.2 580.8Zm70.54-13-15.65 15.43a53.133 53.133 0 0 1-16.37 12 49.219 49.219 0 0 1-46.21-2.79 49.756 49.756 0 0 1-22.2-31c3.253 19.6 6.5 39.203 9.74 58.81a41090.13 41090.13 0 0 1-54.36-28.18c1.68 1.45 3.67 2.46 5.41 3.83a49.065 49.065 0 0 1 19.153 33.677A49.061 49.061 0 0 1 549 666.65a50.994 50.994 0 0 1-17.05 13c-6.69 3.5-13.43 6.89-20.08 10.46 40.173 20.853 80.357 41.69 120.55 62.51a48.34 48.34 0 0 0 41.58 1.2 50.06 50.06 0 0 0 24-22.45 48.449 48.449 0 0 0 4.8-30.37c-7.347-44.38-14.7-88.777-22.06-133.19v-.01ZM479.25 671.48a49.001 49.001 0 0 1 3.19-75.48c1.75-1.4 3.79-2.4 5.47-3.88-18.17 9.35-36.27 18.8-54.42 28.19 2.94-17.94 6-35.86 8.87-53.81a51.353 51.353 0 0 1-13.05 20.08 49 49 0 0 1-60.1 5.44c-6.24-3.95-11-9.65-16.36-14.67-3.26-3.23-6.54-6.44-9.8-9.67.028-1.606.226-3.205.59-4.77 1.23-7.26 2.35-14.53 3.64-21.78a49.002 49.002 0 0 1 82.14-25.63 26.537 26.537 0 0 0 2.22 1.91c-15.21-15.15-30.56-30.16-45.83-45.24 3.89-.87 7.87-1.24 11.8-1.91l40.76-6.15a4.257 4.257 0 0 0-2.37-.84 48.42 48.42 0 0 1-26.7-10.79 48.901 48.901 0 0 1-12.18-61.33c3.49-7.19 7.36-14.2 10.58-21.51-44.433 6.667-88.863 13.363-133.29 20.09a48.622 48.622 0 0 0-26 12.25 49.876 49.876 0 0 0-15.93 36.93 48 48 0 0 0 9.6 28.42c3 4 6.74 7.39 10.27 10.93 30.153 29.747 60.317 59.487 90.49 89.22-7.387 44.553-14.763 89.113-22.13 133.68a48.368 48.368 0 0 0 5.73 32 49.908 49.908 0 0 0 37.88 24.59 48.713 48.713 0 0 0 27.54-5.47c39.927-20.713 79.857-41.427 119.79-62.14-4.06-2.31-8.28-4.33-12.4-6.52-6.86-3.67-14.25-6.75-20-12.14Zm59.31-12.82a35.325 35.325 0 0 0 8.097-26.68 35.32 35.32 0 0 0-13.777-24.24c-1.25-1-2.68-1.72-3.89-2.76a35.854 35.854 0 0 0-34.39 0c-1.21 1.06-2.68 1.78-3.94 2.79a35.316 35.316 0 0 0-13.939 26.646 35.3 35.3 0 0 0 2.726 15.164 35.295 35.295 0 0 0 8.923 12.56c4.16 3.89 9.46 6.1 14.41 8.75 3 1.58 6 3 8.93 4.69h.12c4.78-2.57 9.64-5 14.46-7.53a36.735 36.735 0 0 0 12.27-9.39Z" fill="#fff"/></g><defs><clipPath id="a"><path fill="#fff" d="M0 0h1024v1024H0z"/></clipPath></defs></svg>