<svg width="1024" height="1024" viewBox="0 0 1024 1024" fill="none" xmlns="http://www.w3.org/2000/svg">
<g clip-path="url(#clip0_2_2796)">
<path d="M512 1024C794.77 1024 1024 794.77 1024 512C1024 229.23 794.77 0 512 0C229.23 0 0 229.23 0 512C0 794.77 229.23 1024 512 1024Z" fill="#F9DE81"/>
<path d="M442.9 425.1L459.8 408.2C459.9 408.1 460 408.1 460 408C464.6 404.8 469.4 401.9 474.7 399.4C478.1 397.8 481.7 396.3 485.6 394.9C487.8 394.2 490 393.5 492.4 392.8C494.7 392.2 497.2 391.6 499.7 391.1C502.2 390.6 504.8 390.1 507.5 389.8C512.9 389 518.7 388.6 525 388.4H530.8C531.3 388.4 531.8 388.4 532.3 388.5C532.8 388.5 533.4 388.5 533.9 388.6C534.4 388.6 534.9 388.7 535.4 388.7C535.9 388.7 536.5 388.8 537 388.8C537.5 388.8 538 388.9 538.5 388.9C539 389 539.6 389 540.1 389.1C540.6 389.2 541.1 389.2 541.6 389.3C542.1 389.4 542.6 389.4 543.2 389.5C543.7 389.6 544.2 389.6 544.7 389.7C545.2 389.8 545.7 389.8 546.2 389.9C546.7 390 547.2 390.1 547.7 390.1C548.2 390.2 548.7 390.3 549.2 390.3L550.7 390.6L552.2 390.9L553.7 391.2C554.2 391.3 554.7 391.4 555.1 391.5C555.6 391.6 556.1 391.7 556.5 391.8C557 391.9 557.4 392 557.9 392.1C558.4 392.2 558.8 392.3 559.3 392.4C559.8 392.5 560.2 392.6 560.7 392.7C561.2 392.8 561.6 392.9 562.1 393C562.5 393.1 563 393.2 563.4 393.3C563.8 393.4 564.3 393.5 564.7 393.6C565.1 393.7 565.6 393.8 566 393.9C566.4 394 566.9 394.1 567.3 394.3L568.5 394.6C568.9 394.7 569.3 394.8 569.8 395C570.2 395.1 570.6 395.2 571 395.4C571.4 395.5 571.8 395.6 572.2 395.8C572.6 395.9 573 396 573.3 396.2C573.7 396.3 574.1 396.4 574.5 396.6C574.9 396.7 575.2 396.8 575.6 396.9C576 397 576.4 397.1 576.7 397.3C577 397.4 577.4 397.5 577.7 397.6C578.1 397.7 578.4 397.8 578.8 398C579.1 398.1 579.4 398.2 579.8 398.3C580.1 398.4 580.5 398.5 580.8 398.7L581.7 399L582.6 399.3C582.9 399.4 583.2 399.5 583.4 399.6L584.3 399.9C584.6 400 584.8 400.1 585.1 400.2C585.4 400.3 585.7 400.4 585.9 400.5C586.1 400.6 586.4 400.7 586.6 400.8C586.8 400.9 587.1 401 587.3 401.1L587.9 401.4C588.1 401.5 588.4 401.6 588.6 401.7C588.8 401.8 589 401.8 589.1 401.9C589.3 402 589.5 402.1 589.7 402.1C589.9 402.2 590 402.2 590.2 402.3C590.4 402.4 590.5 402.4 590.7 402.5C590.9 402.6 591 402.6 591.1 402.7C591.2 402.8 591.4 402.8 591.5 402.9C591.6 403 591.7 403 591.8 403.1C591.9 403.1 592 403.2 592.1 403.2C592.2 403.3 592.3 403.3 592.4 403.3C592.5 403.3 592.5 403.4 592.6 403.4C592.7 403.4 592.7 403.4 592.8 403.5C592.9 403.6 593 403.6 593 403.6C594.6 404.4 596.1 405.1 597.7 405.8C597.9 405.9 598.2 406 598.4 406.1C599.9 406.8 601.4 407.4 602.9 408C603.2 408.1 603.5 408.2 603.8 408.4L608.3 410.2C608.5 410.3 608.7 410.4 608.9 410.4C610.4 411 611.9 411.5 613.4 412C613.5 412 613.6 412.1 613.7 412.1C615.2 412.6 616.8 413.1 618.3 413.6C618.6 413.7 618.8 413.8 619.1 413.9C620.6 414.4 622.1 414.8 623.5 415.2C623.8 415.3 624.1 415.4 624.3 415.4L628.8 416.6C629 416.6 629.1 416.7 629.3 416.7C630.8 417.1 632.2 417.4 633.7 417.7C633.9 417.7 634 417.8 634.2 417.8L638.7 418.7C639 418.8 639.3 418.8 639.5 418.9C641 419.2 642.4 419.4 643.9 419.7C644.2 419.7 644.4 419.8 644.7 419.8C646.2 420 647.7 420.3 649.3 420.5H649.6C651.1 420.7 652.6 420.9 654.1 421C654.3 421 654.5 421 654.7 421.1C656.2 421.3 657.7 421.4 659.1 421.5C659.4 421.5 659.7 421.5 659.9 421.6C661.4 421.7 662.8 421.8 664.3 421.9H665C666.5 422 668.1 422 669.6 422.1C671.1 422.1 672.7 422.2 674.2 422.2H674.8C676.9 422.2 679 422.2 681.1 422.1L687.4 421.8H687.9C689.9 421.7 691.8 421.5 693.7 421.3C693.9 421.3 694.1 421.3 694.3 421.2C696.3 421 698.2 420.8 700.2 420.6H700.6C702.7 420.3 704.7 420.1 706.8 419.8H707C709 419.5 711 419.2 713 418.8C713.2 418.8 713.4 418.7 713.5 418.7C715.4 418.4 717.3 418 719.1 417.6C719.3 417.6 719.5 417.5 719.7 417.5C721.6 417.1 723.5 416.7 725.5 416.2C725.6 416.2 725.7 416.2 725.8 416.1C727.8 415.6 729.8 415.2 731.7 414.6C731.8 414.6 731.9 414.5 732 414.5C733.9 414 735.8 413.5 737.6 413C737.8 412.9 738 412.9 738.2 412.8C740 412.3 741.8 411.8 743.6 411.2C743.8 411.1 743.9 411.1 744.1 411C746 410.4 747.8 409.8 749.7 409.2C749.8 409.2 749.8 409.2 749.9 409.1C751.8 408.5 753.7 407.8 755.6 407.2C755.7 407.2 755.9 407.1 756 407.1C757.8 406.5 759.5 405.8 761.3 405.2C761.5 405.1 761.7 405.1 761.9 405C763.6 404.4 765.3 403.7 767 403C767.2 402.9 767.3 402.9 767.5 402.8C769.3 402.1 771.1 401.4 772.9 400.6C773.1 400.8 773.3 400.9 773.5 401.1C775.5 402.7 777.4 404.3 779.3 406C780.7 407.2 782.1 408.4 783.4 409.6C785.5 411.5 787.5 413.4 789.4 415.3C790.5 416.4 791.6 417.4 792.6 418.5C793.6 419.5 794.6 420.6 795.6 421.6C796.7 422.8 797.8 423.9 798.8 425.1C801.1 427.6 803.2 430.1 805.3 432.6C806.3 433.8 807.3 435 808.2 436.2C809.4 437.8 810.7 439.4 811.9 441C814.4 444.3 816.7 447.7 818.9 451.2C821.8 455.8 824.5 460.4 826.9 465.2C828.1 467.6 829.3 469.9 830.3 472.3C831.4 474.7 832.4 477.1 833.4 479.5C837.2 489.2 840 499.2 841.6 509.3C832 511.5 822.7 513.8 813.8 516.1C808.2 517.6 802.8 519 797.5 520.5C794.3 521.4 791.2 522.3 788.2 523.2L785.2 524.1L779.2 525.9C773.3 527.7 767.7 529.5 762.3 531.2L759.6 532.1C754.3 533.8 749.3 535.6 744.5 537.2C742.1 538 739.8 538.9 737.6 539.7C727.9 543.2 719.7 546.4 713 549.1C711.5 549.7 710 550.3 708.6 550.9C707.2 551.5 705.9 552 704.7 552.5C702.4 553.5 700.4 554.3 698.8 555.1C691.7 548.9 665.4 526 643 506.8C615.8 483.4 580.8 453.6 568.1 444H567.9C552.4 432.6 542.8 429.1 533.2 427.3H533C531.2 427 529.3 426.9 527.3 426.9C522.7 426.9 517.5 427.7 513.1 429.1C502.2 432.1 487.7 440.6 470 454.3L467.8 456.1C456.4 465.1 445.6 473.7 437.5 475.2L437.2 475.3L436.9 475.4C434.1 476.1 431 476.4 427.7 476.4C418.1 476.4 409.1 473.5 405.4 470.8L405 470.5L404.5 470.2C403.7 469.7 403 469.1 402.4 468.2C402.6 467.9 402.8 467.5 403.2 467.2L403.4 467L403.6 466.8L432.4 435.1L435.7 431.8L442.9 425.1ZM515.4 641.5C514.9 639.6 514.3 637.9 513.4 636.2C513 635.4 512.5 634.5 512.1 633.7C507 625.3 497.8 619.7 487.3 619.7C486.5 619.7 485.7 619.8 484.8 619.9C484 620 483.2 620.1 482.3 620.3C480.7 620.6 479.1 621.1 477.8 621.5C477.1 621.7 476.5 622 475.9 622.2C475.8 622.2 475.7 622.3 475.7 622.3C474.9 622.6 474.3 622.8 473.8 623C473.3 623.2 472.9 623.3 472.8 623.3C472.5 623.3 472.5 622.9 472.5 622.2C472.6 621.7 472.7 621.1 472.9 620.6C473.1 620 473.3 619.4 473.5 618.9C473.6 618.6 474.1 617.5 474.5 615.8C474.6 615.2 474.8 614.6 474.9 613.9C475 613.2 475.2 612.4 475.3 611.6C475.4 610.8 475.5 610 475.6 609.1C475.7 607.8 475.8 606.4 475.8 604.9C475.8 603.9 475.8 602.9 475.7 601.9C475.5 599.9 475.2 597.9 474.5 595.9C473.9 593.9 473 591.9 471.7 590.1C471.4 589.6 471.1 589.2 470.7 588.7C468.6 586 465.7 583.7 461.8 581.9C461.3 581.7 460.7 581.4 460.2 581.2C460 581.1 459.9 581.1 459.7 581C459.3 580.9 459 580.7 458.6 580.6C458.4 580.5 458.2 580.5 458 580.4C457.7 580.3 457.4 580.2 457 580.1C456.8 580 456.6 580 456.4 579.9C456.1 579.8 455.8 579.7 455.5 579.7C455.3 579.7 455.1 579.6 455 579.6C454.7 579.5 454.3 579.5 454 579.4C453.9 579.4 453.7 579.3 453.6 579.3C453.1 579.2 452.7 579.2 452.2 579.1H452C451.6 579.1 451.2 579 450.9 579H447.6C447.1 579 446.7 579.1 446.2 579.1H445.9C445.5 579.2 445.2 579.2 444.9 579.3C444.8 579.3 444.7 579.3 444.6 579.4L443.4 579.7H443.3C442.9 579.8 442.6 579.9 442.2 580C442.1 580 442 580.1 441.9 580.1L441 580.4C440.9 580.4 440.9 580.4 440.8 580.5C440.4 580.6 440.1 580.8 439.8 580.9C439.7 580.9 439.6 581 439.5 581C439.2 581.1 439 581.3 438.7 581.4C438.6 581.4 438.5 581.5 438.5 581.5C438.2 581.7 437.9 581.8 437.6 582L437.5 582.1C437.3 582.2 437 582.4 436.8 582.6L436.6 582.8C436.4 583 436.1 583.1 435.9 583.3C435.9 583.3 435.8 583.3 435.8 583.4C435.6 583.6 435.3 583.8 435.1 583.9C435 583.9 435 584 434.9 584C434.7 584.1 434.6 584.3 434.4 584.4L434.3 584.5C434.1 584.7 433.9 584.8 433.8 585L433.7 585.1L433.3 585.5L433.2 585.6C433.1 585.8 432.9 585.9 432.8 586C432.4 586.4 432.1 586.5 431.8 586.5C431.5 586.5 431.3 586.3 431.3 586V585.6C431.3 585 431.2 584.2 431.1 583.4C431 583 431 582.5 430.9 582.1C430.7 581 430.3 579.7 429.9 578.4C429.6 577.6 429.3 576.8 428.9 576C428.6 575.5 428.3 574.9 428 574.4C427.7 573.9 427.3 573.3 426.9 572.8C425.7 571.2 424.3 569.7 422.5 568.3C421.9 567.8 421.3 567.4 420.6 567C418.9 566 416.9 565.1 414.7 564.4C414.1 564.2 413.6 564.1 413 563.9C412.8 563.9 412.7 563.8 412.5 563.8C412.1 563.7 411.6 563.6 411.2 563.5C411.1 563.5 411 563.4 410.8 563.4C410.3 563.3 409.7 563.2 409.2 563.1C409.1 563.1 408.9 563.1 408.8 563C408.4 562.9 408 562.9 407.6 562.8H407.2C406.7 562.8 406.2 562.7 405.7 562.7H402.2C401.9 562.7 401.5 562.8 401.2 562.8H400.8C399.9 562.9 398.9 563.1 398 563.3C397.9 563.3 397.8 563.4 397.6 563.4C397.3 563.5 397 563.6 396.6 563.7C396.5 563.7 396.3 563.8 396.2 563.8L395.3 564.1C395.2 564.1 395.1 564.2 394.9 564.2C394.6 564.3 394.2 564.5 393.9 564.6C393.8 564.6 393.8 564.6 393.7 564.7C393.3 564.9 392.9 565 392.5 565.2C392.5 565.2 392.4 565.2 392.4 565.3C392.1 565.5 391.7 565.6 391.4 565.8C391.3 565.9 391.2 565.9 391.1 566C390.8 566.1 390.6 566.3 390.3 566.4C390.2 566.5 390.1 566.5 390 566.6C389.7 566.8 389.5 566.9 389.2 567.1C389.1 567.1 389 567.2 389 567.2C388.3 567.6 387.7 568.1 387 568.5C386.9 568.5 386.9 568.6 386.8 568.6C386.5 568.8 386.3 569 386.1 569.2C386 569.3 385.9 569.3 385.9 569.4C385.7 569.6 385.5 569.7 385.3 569.9C385.2 570 385.1 570 385.1 570.1C384.9 570.3 384.6 570.5 384.4 570.7L384.3 570.8C383.8 571.3 383.3 571.7 382.8 572.2L382.6 572.4L382.1 572.9L381.9 573.1L381.4 573.6L381.2 573.8L380.7 574.3V574.4L380.6 574.5C380.4 574.7 380.2 574.9 380.1 575.1L380 575.2C379.9 575.4 379.7 575.5 379.6 575.7L379.4 575.9C379.3 576 379.2 576.2 379.1 576.3C379.1 576.4 379 576.4 379 576.5C378.9 576.6 378.8 576.7 378.7 576.9L378.6 577C378.5 577.2 378.4 577.3 378.3 577.5C378.3 577.2 378.2 576.9 378.2 576.6C376.4 565.4 367.2 557.1 355.1 557.1C345.1 557.1 336.8 563.1 333.4 571.8C332.4 574.4 331.8 577.3 331.8 580.3C331.8 593.4 342 603.5 355 603.5C361.5 603.5 366.6 601.3 371 597V597.7C370.8 599.2 370.5 601.6 370.6 604.5C370.6 605.2 370.6 606 370.7 606.8C370.8 608.8 371.1 610.9 371.7 613C372 614.3 372.4 615.6 373 616.9C373.7 618.6 374.6 620.4 375.8 622.1C377.2 624.2 379.1 626.2 381.4 628C382.3 628.7 383.3 629.4 384.4 630C386 631 387.9 631.8 389.9 632.6C390.4 632.8 390.9 633 391.3 633.1C391.4 633.1 391.5 633.2 391.6 633.2C392.1 633.4 392.5 633.5 393 633.6H393.2L394.4 633.9H394.7C395.1 634 395.6 634 396 634.1H396.3C396.7 634.1 397.1 634.1 397.5 634.2H397.9C398.4 634.2 398.9 634.2 399.5 634.1C399.7 634.1 399.8 634.1 400 634C400.5 633.9 400.9 633.9 401.4 633.8C401.5 633.8 401.7 633.8 401.8 633.7C402.4 633.6 402.9 633.4 403.5 633.3C403.6 633.3 403.7 633.2 403.9 633.2C404.3 633.1 404.8 632.9 405.2 632.7C405.4 632.6 405.5 632.6 405.7 632.5C406.2 632.3 406.6 632.1 407.1 631.9C407.2 631.9 407.3 631.8 407.4 631.8C407.9 631.5 408.5 631.3 409 631C409.1 630.9 409.3 630.8 409.4 630.8C409.8 630.6 410.2 630.4 410.6 630.1C410.7 630 410.9 629.9 411 629.8C411.5 629.5 412 629.2 412.5 628.8C412.7 628.6 413 628.5 413.1 628.4C413.2 628.4 413.2 628.3 413.3 628.3C413.4 628.2 413.5 628.2 413.7 628.1C413.7 628.1 413.8 628.1 413.8 628C413.9 628 414 627.9 414.1 627.9H414.2C414.3 627.9 414.4 627.9 414.4 628C414.5 628 414.5 628.1 414.5 628.2C414.5 628.3 414.6 628.4 414.6 628.5V629.5C414.6 629.8 414.5 630.2 414.5 630.5C414.5 630.9 414.4 631.3 414.4 631.7V632.3C414.4 632.7 414.4 633.2 414.5 633.6C414.6 634.5 414.7 635.5 415 636.5C415.2 637.5 415.6 638.6 416.1 639.7C416.3 640.2 416.6 640.8 416.9 641.3C417.2 641.8 417.5 642.4 417.9 642.9C418.7 644 419.6 645.1 420.7 646.1C421.3 646.6 421.9 647.2 422.5 647.7C424.8 649.5 427.7 651.2 431.3 652.6C431.7 652.8 432.1 652.9 432.6 653.1C432.7 653.1 432.9 653.2 433 653.2C433.3 653.3 433.6 653.4 433.8 653.5C434 653.5 434.1 653.6 434.2 653.6C434.5 653.7 434.7 653.7 435 653.8C435.1 653.8 435.3 653.9 435.4 653.9C435.7 654 435.9 654 436.2 654.1C436.3 654.1 436.5 654.2 436.6 654.2C436.9 654.3 437.2 654.3 437.5 654.4H437.7C438.1 654.5 438.4 654.5 438.8 654.5H439.1C439.3 654.5 439.6 654.5 439.8 654.6H442.2C442.6 654.6 442.9 654.5 443.2 654.5H443.5C443.8 654.5 444 654.4 444.3 654.4H444.5C444.8 654.3 445.1 654.3 445.5 654.2H445.7C446 654.1 446.2 654.1 446.5 654C446.6 654 446.7 653.9 446.8 653.9C447.1 653.8 447.3 653.7 447.6 653.6H447.7C448 653.5 448.3 653.4 448.5 653.2C448.6 653.2 448.6 653.1 448.7 653.1L449.3 652.8C449.4 652.8 449.4 652.7 449.5 652.7C449.8 652.6 450 652.4 450.3 652.3C450.4 652.3 450.4 652.2 450.5 652.2C450.7 652.1 450.9 652 451.1 651.8C451.2 651.8 451.2 651.7 451.3 651.7C451.5 651.6 451.7 651.4 452 651.2C452.2 651 452.4 650.9 452.7 650.7C452.8 650.7 452.8 650.6 452.9 650.6C453.1 650.5 453.2 650.3 453.4 650.2L453.5 650.1C453.7 649.9 453.9 649.8 454.1 649.6L454.2 649.5C454.4 649.4 454.5 649.2 454.7 649.1L454.8 649C455 648.8 455.2 648.7 455.3 648.5L455.8 648L455.9 647.9C456.1 647.8 456.2 647.6 456.4 647.6H456.5C456.6 647.5 456.7 647.5 456.9 647.4H457C457.1 647.4 457.2 647.3 457.3 647.3H457.6C457.6 647.3 457.7 647.3 457.7 647.4L457.8 647.5C457.8 647.5 457.9 647.6 457.9 647.7C457.9 647.8 458 647.9 458 648V648.1C458 648.2 458 648.3 458.1 648.4V650.1C458.2 652 458.5 653.9 458.9 655.7C459.4 657.5 460 659.2 460.8 660.9C461.6 662.5 462.5 664.1 463.6 665.6C464.7 667.1 465.9 668.4 467.2 669.7C467.9 670.3 468.5 670.9 469.3 671.5C470.7 672.6 472.2 673.6 473.9 674.5C474.7 674.9 475.5 675.3 476.4 675.7C477.7 676.2 479 676.7 480.3 677C481.2 677.2 482.1 677.4 483 677.5C484.4 677.7 485.8 677.8 487.2 677.8C493.8 677.8 500 675.5 504.9 671.8C505.2 671.6 505.4 671.4 505.7 671.2C506.4 670.6 507.1 670 507.8 669.3C508.8 668.3 509.7 667.3 510.5 666.1C510.8 665.7 511 665.3 511.3 665C512.6 663.1 513.7 661 514.5 658.8C515.6 655.7 516.3 652.3 516.3 648.9C516.4 646.2 516 643.8 515.4 641.5ZM695.6 572.9C694.7 571.1 692.7 569.4 692.7 569.4L688.4 565.7C686.2 563.8 682.6 560.7 677.9 556.6C650.7 533 578.6 470.4 559.4 456.1C548.2 448.2 541.8 444.4 536.9 442.7C534.1 442 531.2 441.3 527.5 441.3C523.8 441.3 519.9 442 515.6 443.3L515.4 443.4L515.2 443.5C505.6 446.1 494.5 454.8 483.8 463.3C482.6 464.2 481.5 465.1 480.3 466C467.2 476.7 453.3 487.3 441.4 490.1H441.2C436 491.2 430.7 491.8 425.4 491.8C410.3 491.8 397.6 487.1 391.5 479.2L391.4 479.1L391.3 479C386.4 472.5 387.4 463.5 393.6 457L421.7 426L421.9 425.8L422.1 425.6C424.9 422.8 427.7 420 430.5 417.3C426 418.1 421.6 419.1 417.2 420.1C413.9 420.9 410.6 421.7 407.4 422.5C405.4 423 403.4 423.6 401.4 424.1C400.1 424.4 398.7 424.8 397.4 425.1C395.4 425.6 393.5 426.1 391.6 426.5C388.4 427.2 385.2 427.7 382 428C380.7 428.1 379.5 428.2 378.2 428.3H376.3C372 428.3 348.7 424.7 344.4 423.2C341.9 422.5 339.4 421.8 336.9 421.2C335.3 420.7 333.6 420.3 332 419.8C329.6 419.1 327.1 418.4 324.7 417.7C323.1 417.2 321.4 416.7 319.8 416.2C319 415.9 318.2 415.7 317.3 415.4C314.8 414.6 312.4 413.8 309.9 413C308.2 412.5 306.6 411.9 304.9 411.3C302.4 410.4 299.8 409.5 297.2 408.5C295.4 407.8 293.7 407.2 291.9 406.5C290.7 406.1 289.6 405.6 288.4 405.1C287.1 404.6 285.8 404.1 284.4 403.5C283.7 403.2 283.1 403 282.4 402.7C280 401.7 277.5 400.7 274.9 399.6C273.6 399.1 272.3 398.5 271 397.9C267.3 396.3 263.4 394.6 259.4 392.7C255.5 395.6 251.8 398.6 248.1 401.7C244.4 404.8 240.9 407.9 237.5 411C236.4 412 235.3 413.1 234.2 414.2C232 416.3 229.8 418.5 227.8 420.7C225.7 422.9 223.7 425.1 221.7 427.3C219.7 429.5 217.8 431.8 216 434.1C214.1 436.4 212.4 438.7 210.6 441C209.7 442.2 208.9 443.3 208.1 444.5C205.6 448 203.3 451.6 201.1 455.3C199.6 457.7 198.3 460.2 196.9 462.6C189.6 476.2 184.5 490.4 181.8 505.1C187.6 506.6 197.8 509.5 201.4 510.2C226.4 515.8 246.9 521.4 263.5 526.8C266.4 527.7 269.3 528.7 272 529.6C280.1 532.4 287.2 535.1 293.3 537.6C296.4 538.9 299.3 540.1 301.9 541.3C302.7 541.7 303.6 542.1 304.4 542.4C309.9 545 314.5 547.3 318.1 549.3L320.2 550.5C320.5 550.7 320.9 550.9 321.2 551.1C322.2 551.7 323.2 552.3 324.1 552.9C324.4 553.1 324.6 553.2 324.9 553.4C325.2 553.6 325.5 553.8 325.7 554C325.9 554.2 326.2 554.3 326.4 554.5C326.7 554.7 327.1 555 327.4 555.2C327.7 555.4 327.9 555.6 328.1 555.7C328.2 555.8 328.3 555.8 328.4 555.9C328.7 556.1 329 556.4 329.3 556.6C335.7 549.7 344.8 545.5 355.2 545.5C366.1 545.5 375.8 550.2 382.2 557.8C388 554 395.5 551.1 404.6 551.1C409.1 551.1 413.7 551.8 418.2 553.3C428.3 556.4 434.6 562.5 438.4 568.9C441.7 567.8 445.3 567.2 449.3 567.2C455 567.2 460.9 568.6 466.8 571.2C475.8 575.3 482.3 582.2 485.5 591.2C487.5 596.9 488 602.7 487.8 607.9C510.1 608.2 528.2 626.5 528.2 648.9C528.2 655.7 526.5 662.1 523.6 667.8C523.9 667.9 524.2 668.1 524.5 668.2C524.7 668.3 525 668.4 525.2 668.5C525.5 668.7 525.9 668.8 526.2 669C526.5 669.1 526.7 669.2 527 669.3C527.3 669.4 527.7 669.6 528.1 669.7C528.4 669.8 528.6 669.9 528.9 670C529.3 670.2 529.6 670.3 530 670.5C530.3 670.6 530.6 670.7 530.8 670.8C531.2 670.9 531.6 671.1 532 671.2C532.3 671.3 532.6 671.4 532.8 671.5C533.2 671.7 533.7 671.8 534.2 671.9C534.5 672 534.7 672.1 535 672.2C535.6 672.4 536.2 672.6 536.9 672.7C537 672.7 537.1 672.8 537.2 672.8C537.9 673 538.7 673.2 539.4 673.3C539.6 673.3 539.9 673.4 540.1 673.4C540.6 673.5 541.2 673.6 541.7 673.7C542 673.7 542.3 673.8 542.6 673.8C543.1 673.9 543.6 673.9 544 674C544.3 674 544.6 674.1 545 674.1C545.5 674.1 545.9 674.2 546.4 674.2H549.5C550.2 674.2 551 674.1 551.7 674C553 673.8 554.1 673.6 555.2 673.4C556.3 673.2 557.2 672.9 558.1 672.7C559 672.4 559.8 672.2 560.5 671.9C561.6 671.5 562.5 671 563.3 670.6C563.8 670.3 564.3 670 564.7 669.7C565.1 669.4 565.5 669.1 565.8 668.8C566.3 668.4 566.6 667.9 566.9 667.5C567.1 667 567.4 666.6 567.7 666.1C567.8 665.9 567.9 665.7 568 665.6C568.2 665.2 568.3 664.7 568.3 664.3C568.3 663.9 568.1 663.6 567.7 663.2L554.3 648.3L541 633.5C541 633.5 538.1 630.6 537.8 628.8C537.7 628.4 537.8 628 538.1 627.7C538.2 627.6 538.3 627.5 538.4 627.5C538.4 627.5 538.5 627.5 538.5 627.4C538.6 627.4 538.6 627.3 538.7 627.3H539.3C539.5 627.3 539.6 627.3 539.8 627.4H539.9C540.1 627.4 540.2 627.5 540.4 627.6H540.5L541.1 627.9C541.1 627.9 541.2 627.9 541.2 628C541.4 628.1 541.5 628.2 541.7 628.3H541.8C542 628.4 542.2 628.5 542.4 628.7L542.5 628.8C542.7 628.9 542.9 629 543.1 629.2H543.2C543.4 629.3 543.6 629.5 543.8 629.6C544 629.7 544.2 629.9 544.5 630C545.8 631.1 547.1 632.2 548.4 633.4C550.2 635 551.9 636.5 553.6 638.1C554.9 639.3 556.2 640.5 557.4 641.7C558.7 642.9 559.9 644.1 561 645.2C563.4 647.5 565.5 649.6 567.4 651.5C571.4 655.5 574.1 658.3 574.1 658.3L574.6 658.8C575.2 659.3 576.4 660.2 578.5 661C578.8 661.1 579 661.2 579.4 661.3C580 661.5 580.7 661.7 581.4 661.9C581.7 661.9 582 662 582.3 662H587.4C587.7 662 588 661.9 588.4 661.9H588.8C589.1 661.9 589.4 661.8 589.7 661.8C589.8 661.8 590 661.8 590.1 661.7C590.4 661.6 590.8 661.6 591.1 661.5H591.4C591.8 661.4 592.3 661.3 592.7 661.2C592.8 661.2 592.9 661.1 593 661.1C593.3 661 593.7 660.9 594 660.8C594.1 660.8 594.3 660.7 594.4 660.7L595.3 660.4C595.4 660.4 595.6 660.3 595.7 660.3C596.1 660.2 596.5 660 596.8 659.9C596.9 659.9 596.9 659.9 597 659.8C597.4 659.6 597.9 659.4 598.3 659.2C598.4 659.1 598.6 659.1 598.7 659C599 658.8 599.3 658.7 599.6 658.5C599.7 658.4 599.9 658.3 600 658.3C600.3 658.1 600.6 658 600.8 657.8C600.9 657.7 601.1 657.6 601.2 657.6C601.6 657.3 602 657.1 602.3 656.8C603 656.1 603.9 655.3 604.8 654.6C605.2 654.2 605.6 653.9 605.9 653.5C606.1 653.3 606.2 653.1 606.4 653C606.5 652.8 606.6 652.6 606.7 652.5C606.9 652.2 607.1 651.9 607.3 651.7C607.9 650.8 608.3 649.9 608.7 649C608.8 648.6 609 648.3 609 647.9C609.1 647.6 609.2 647.2 609.2 646.9C609.3 646.4 609.4 645.9 609.4 645.4C609.5 644.1 609.3 642.9 609.1 641.9C609 641.5 608.9 641.2 608.8 640.8C608.8 640.7 608.7 640.6 608.7 640.5C608.4 639.4 607.9 638.5 607.5 637.7C606.7 636.1 605.9 635.2 605.9 635.2L574.7 600.4L574 599.7C573.9 599.6 573.8 599.5 573.7 599.3C573.5 599 573.2 598.8 573 598.5C572.8 598.2 572.5 597.9 572.3 597.6C572.2 597.4 572.1 597.3 572 597.1C571.6 596.5 571.4 595.8 571.4 595.3C571.4 595 571.5 594.8 571.7 594.6C571.8 594.5 571.9 594.4 572 594.4C572 594.4 572.1 594.4 572.1 594.3C572.2 594.3 572.2 594.2 572.3 594.2H572.4C572.5 594.2 572.5 594.2 572.6 594.1H572.9C573.1 594.1 573.2 594.1 573.4 594.2H573.5C573.7 594.2 573.8 594.3 574 594.4H574.1L574.7 594.7L574.8 594.8C575 594.9 575.2 595 575.3 595.1H575.4C575.6 595.2 575.8 595.3 576 595.5C576.1 595.5 576.1 595.6 576.2 595.6C576.4 595.7 576.6 595.8 576.7 596H576.8C577 596.1 577.2 596.3 577.4 596.4C577.6 596.6 577.9 596.7 578.1 596.9C578.7 597.4 579.4 597.9 580 598.5C583.3 601.2 587 604.6 590.8 608.2C591.6 608.9 592.3 609.7 593.1 610.4C596.2 613.4 599.4 616.7 602.7 620C606.8 624.1 610.9 628.3 615 632.4L615.3 632.7C615.3 632.7 615.4 632.7 615.4 632.8C615.5 632.9 615.6 632.9 615.7 633L615.8 633.1C615.9 633.2 616 633.2 616.1 633.3C616.1 633.3 616.2 633.4 616.3 633.4C616.4 633.5 616.6 633.6 616.7 633.7C616.7 633.7 616.8 633.7 616.8 633.8C617 633.9 617.2 634 617.4 634.2C617.4 634.2 617.5 634.2 617.5 634.3C617.7 634.4 617.8 634.5 618 634.6C618.1 634.6 618.2 634.7 618.2 634.7C618.4 634.8 618.5 634.9 618.7 634.9C618.8 634.9 618.9 635 619 635C619.2 635.1 619.4 635.2 619.6 635.2C619.7 635.2 619.8 635.3 619.8 635.3C620.1 635.4 620.4 635.5 620.6 635.6L621.5 635.9C621.6 635.9 621.7 636 621.8 636C622 636.1 622.3 636.1 622.5 636.2C622.6 636.2 622.7 636.3 622.9 636.3C623.1 636.3 623.3 636.4 623.6 636.5C623.7 636.5 623.8 636.5 623.9 636.6C624.2 636.6 624.4 636.7 624.7 636.7C624.8 636.7 624.9 636.7 625 636.8C625.4 636.9 625.7 636.9 626.1 636.9H626.3C626.6 636.9 626.9 637 627.2 637H630.3C630.6 637 631 636.9 631.3 636.9H631.6C631.9 636.9 632.1 636.8 632.4 636.8C632.5 636.8 632.6 636.8 632.8 636.7C633.1 636.7 633.3 636.6 633.6 636.5C633.7 636.5 633.8 636.5 633.9 636.4C634.3 636.3 634.7 636.2 635 636.1H635.1C635.5 636 635.8 635.9 636.2 635.8C636.3 635.8 636.4 635.7 636.6 635.7C636.9 635.6 637.2 635.5 637.4 635.4C637.5 635.4 637.7 635.3 637.8 635.3C638.1 635.2 638.4 635 638.8 634.9C638.9 634.9 639 634.8 639.1 634.8L640.3 634.2C640.4 634.2 640.5 634.1 640.6 634C640.9 633.8 641.2 633.7 641.6 633.5C641.7 633.4 641.9 633.4 642 633.3C642.3 633.1 642.6 633 642.9 632.8C643 632.7 643.2 632.7 643.3 632.6C643.7 632.3 644.2 632.1 644.6 631.8C645.8 631 646.9 630.1 647.9 629.2C648.9 628.3 649.8 627.5 650.5 626.6C651 626.1 651.4 625.5 651.8 625C652.6 623.9 653.3 622.8 653.8 621.7C654.2 620.9 654.5 620 654.8 619.2C655.1 618.4 655.3 617.6 655.4 616.8C655.5 616.4 655.5 616 655.5 615.6C655.5 615.2 655.5 614.8 655.6 614.4C655.6 613.6 655.6 612.9 655.5 612.2C655.5 611.7 655.4 611.3 655.3 610.9C655.1 610 654.9 609.2 654.6 608.4C654.3 607.6 654 606.8 653.6 606C653.4 605.6 653.2 605.3 653.1 604.9C652.7 604.2 652.3 603.6 651.9 603C650.4 600.6 648.9 599.2 648.9 599.2L606.8 556.4C606.8 556.4 602.4 552.8 603.9 550.6C604 550.5 604.1 550.4 604.2 550.4H604.3C604.4 550.4 604.4 550.3 604.5 550.3H605.1C605.3 550.3 605.4 550.3 605.6 550.4H605.7C605.9 550.4 606 550.5 606.2 550.5H606.3L606.9 550.8C606.9 550.8 607 550.8 607 550.9C607.2 551 607.4 551.1 607.5 551.2H607.6C607.8 551.3 608 551.4 608.2 551.6C608.2 551.6 608.3 551.7 608.4 551.7C608.6 551.8 608.8 551.9 609 552.1C609.2 552.2 609.4 552.4 609.6 552.5C609.8 552.6 610 552.8 610.2 552.9C611.1 553.6 612 554.4 613 555.3C614 556.2 615.1 557.1 616.3 558.1C616.9 558.6 617.5 559.1 618.1 559.7C619.3 560.8 620.6 561.9 621.9 563C622.5 563.6 623.2 564.2 623.9 564.8C625.2 566 626.6 567.2 628 568.5L634.3 574.2C638.5 578 642.6 581.7 646.3 585.1C646.9 585.7 647.5 586.2 648.1 586.8C655.2 593.3 660.3 598 660.3 598H660.5C660.6 598 660.6 598.1 660.7 598.1H660.8C660.9 598.1 661 598.2 661.1 598.2C661.2 598.3 661.4 598.4 661.6 598.5H661.7C661.8 598.6 662 598.7 662.1 598.7C662.2 598.7 662.2 598.8 662.3 598.8C662.5 598.9 662.6 599 662.8 599C662.8 599 662.9 599.1 663 599.1C663.2 599.2 663.5 599.3 663.7 599.4H663.8C664 599.5 664.2 599.6 664.5 599.7C664.6 599.7 664.7 599.8 664.7 599.8L665.3 600.1C665.4 600.1 665.5 600.2 665.6 600.2C666.2 600.4 666.9 600.6 667.6 600.8C667.7 600.8 667.8 600.9 667.9 600.9C668.2 601 668.4 601 668.7 601.1C668.8 601.1 668.9 601.1 669.1 601.2C669.4 601.3 669.7 601.3 670 601.4H670.2C670.6 601.5 671 601.5 671.4 601.6H671.7C672 601.6 672.3 601.7 672.7 601.7H676.3C676.7 601.7 677.1 601.6 677.5 601.6C677.7 601.6 677.8 601.6 677.9 601.5C678.4 601.4 679 601.3 679.5 601.2C680 601.1 680.6 600.9 681.2 600.8C681.4 600.8 681.5 600.7 681.7 600.7C682.2 600.6 682.6 600.4 683.1 600.2C683.2 600.2 683.4 600.1 683.5 600.1C684.1 599.9 684.7 599.6 685.3 599.4C685.4 599.3 685.6 599.3 685.7 599.2C686.2 599 686.7 598.7 687.2 598.5C687.4 598.4 687.5 598.3 687.7 598.2C688.3 597.9 688.9 597.5 689.6 597.1C691.1 596.1 692.5 595.1 693.7 593.9C693.8 593.8 694 593.6 694.1 593.4C694.4 593 694.8 592.4 695.3 591.6C699.9 583.3 697.3 576.2 695.6 572.9Z" fill="white"/>
</g>
<defs>
<clipPath id="clip0_2_2796">
<rect width="1024" height="1024" fill="white"/>
</clipPath>
</defs>
</svg>
