<svg width="1024" height="1024" fill="none" xmlns="http://www.w3.org/2000/svg"><g clip-path="url(#a)"><path d="M512 1024c282.77 0 512-229.23 512-512S794.77 0 512 0 0 229.23 0 512s229.23 512 512 512Z" fill="#96DFD3"/><path d="m511.83 409.77 150.31 260.14H291.49a69.503 69.503 0 0 1-69.245-69.132 69.496 69.496 0 0 1 9.025-34.618l123.28-213.62a65.564 65.564 0 0 1 23.6-26.85c32.14-21.16 75.27-12.61 96.43 19.53l10.05 17.45 7 12.2 20.14 34.95.06-.05Zm280.93 155.57L667.44 348.07c-27.67-45.16-94.4-46-120.84 2l-21.83 37.46 163.14 282.38h45.45c49.64 0 86.64-53.71 59.4-104.57Z" fill="#fff"/></g><defs><clipPath id="a"><path fill="#fff" d="M0 0h1024v1024H0z"/></clipPath></defs></svg>