<svg width="1024" height="1024" viewBox="0 0 1024 1024" fill="none" xmlns="http://www.w3.org/2000/svg">
<g clip-path="url(#clip0_2_2805)">
<path d="M512 1024C794.77 1024 1024 794.77 1024 512C1024 229.23 794.77 0 512 0C229.23 0 0 229.23 0 512C0 794.77 229.23 1024 512 1024Z" fill="#96DFD3"/>
<path d="M267.18 416.85C265.808 416.858 264.448 416.593 263.18 416.07C261.963 415.554 260.86 414.801 259.935 413.856C259.01 412.911 258.282 411.791 257.793 410.563C257.304 409.334 257.063 408.021 257.085 406.699C257.107 405.376 257.391 404.072 257.92 402.86C279.265 353.174 314.711 310.838 359.872 281.092C405.032 251.345 457.923 235.494 512 235.5C551.475 235.396 590.505 243.836 626.41 260.24C628.845 261.338 630.744 263.358 631.689 265.856C632.634 268.354 632.548 271.125 631.45 273.56C630.352 275.995 628.332 277.893 625.834 278.839C623.336 279.784 620.565 279.698 618.13 278.6C587.073 264.498 553.516 256.731 519.421 255.754C485.327 254.777 451.379 260.608 419.566 272.908C387.752 285.208 358.71 303.728 334.14 327.386C309.57 351.044 289.964 379.364 276.47 410.69C275.708 412.523 274.417 414.087 272.763 415.184C271.109 416.281 269.165 416.861 267.18 416.85ZM292.26 672.64C290.628 672.642 289.02 672.246 287.577 671.484C286.134 670.722 284.899 669.619 283.98 668.27C252.32 622.314 235.41 567.805 235.5 512C235.48 489.981 238.071 468.038 243.22 446.63C243.504 445.311 244.05 444.063 244.826 442.959C245.601 441.854 246.59 440.917 247.734 440.202C248.878 439.486 250.153 439.008 251.486 438.794C252.818 438.58 254.179 438.636 255.489 438.958C256.8 439.28 258.032 439.861 259.114 440.667C260.195 441.473 261.104 442.488 261.787 443.652C262.469 444.816 262.912 446.105 263.087 447.442C263.263 448.78 263.169 450.139 262.81 451.44C258.068 471.278 255.665 491.603 255.65 512C255.567 563.767 271.222 614.336 300.54 657C301.293 658.086 301.824 659.31 302.104 660.601C302.383 661.892 302.406 663.226 302.17 664.526C301.934 665.826 301.445 667.067 300.729 668.178C300.014 669.289 299.086 670.248 298 671C296.277 672.071 294.289 672.639 292.26 672.64ZM512 788.5C475.499 788.612 439.343 781.442 405.647 767.41C371.951 753.378 341.393 732.766 315.76 706.78C313.874 704.892 312.816 702.332 312.818 699.663C312.82 696.994 313.882 694.436 315.77 692.55C317.658 690.664 320.219 689.606 322.887 689.608C325.556 689.61 328.114 690.672 330 692.56C371.215 734.059 425.369 760.234 483.493 766.748C541.616 773.262 600.221 759.726 649.6 728.38C689.494 702.916 721.627 666.982 742.49 624.5C743.662 622.113 745.735 620.289 748.252 619.431C750.768 618.572 753.523 618.748 755.91 619.92C758.297 621.092 760.121 623.165 760.979 625.681C761.838 628.198 761.662 630.953 760.49 633.34C737.765 679.884 702.422 719.108 658.487 746.541C614.553 773.974 563.796 788.513 512 788.5ZM767.68 597.3C766.728 597.315 765.78 597.163 764.88 596.85C763.606 596.478 762.419 595.858 761.385 595.026C760.352 594.194 759.493 593.165 758.858 592C758.223 590.835 757.825 589.555 757.687 588.236C757.548 586.916 757.672 585.582 758.05 584.31C773.099 533.022 771.742 478.313 754.171 427.834C736.6 377.355 703.693 333.629 660.05 302.77C657.883 301.226 656.418 298.885 655.978 296.262C655.537 293.638 656.157 290.947 657.7 288.78C659.244 286.613 661.585 285.148 664.208 284.708C666.832 284.267 669.523 284.886 671.69 286.43C707.13 311.61 736.188 344.733 756.54 383.15C790.093 446.777 797.543 520.972 777.31 590C776.721 592.101 775.461 593.951 773.722 595.269C771.984 596.587 769.862 597.3 767.68 597.3ZM585.32 312.85C584.179 312.828 583.047 312.639 581.96 312.29C576.96 310.5 571.66 308.93 566.51 307.48C565.231 307.141 564.031 306.554 562.979 305.751C561.927 304.949 561.043 303.947 560.379 302.803C559.714 301.659 559.281 300.395 559.104 299.084C558.928 297.772 559.011 296.439 559.35 295.16C559.689 293.881 560.276 292.681 561.079 291.629C561.881 290.577 562.883 289.693 564.027 289.028C565.171 288.364 566.435 287.931 567.746 287.754C569.058 287.578 570.391 287.661 571.67 288C577.38 289.57 583.09 291.25 588.57 293.26C589.827 293.69 590.985 294.367 591.977 295.25C592.97 296.133 593.776 297.205 594.349 298.403C594.923 299.601 595.252 300.902 595.317 302.228C595.383 303.555 595.183 304.881 594.73 306.13C594.072 308.098 592.809 309.808 591.12 311.015C589.432 312.222 587.405 312.864 585.33 312.85H585.32ZM388.19 338.26C386.03 338.258 383.926 337.565 382.188 336.282C380.449 334.999 379.167 333.193 378.529 331.129C377.891 329.065 377.93 326.851 378.641 324.81C379.352 322.77 380.697 321.011 382.48 319.79C420.737 293.977 465.849 280.216 512 280.28C520.17 280.28 528.34 280.73 536.52 281.51C539.036 281.953 541.29 283.335 542.826 285.376C544.362 287.417 545.066 289.965 544.795 292.505C544.525 295.045 543.3 297.387 541.368 299.059C539.437 300.731 536.943 301.607 534.39 301.51C484.886 296.422 435.158 308.776 393.79 336.44C392.163 337.624 390.202 338.261 388.19 338.26ZM349.46 371.51C346.924 371.518 344.48 370.555 342.63 368.82C340.674 367.006 339.517 364.491 339.412 361.826C339.307 359.16 340.263 356.562 342.07 354.6C346.07 350.23 350.47 345.98 354.83 341.84C356.79 340.029 359.389 339.07 362.056 339.175C364.723 339.28 367.239 340.44 369.05 342.4C370.862 344.36 371.82 346.959 371.715 349.626C371.61 352.293 370.45 354.809 368.49 356.62C364.49 360.31 360.54 364.23 356.85 368.26C355.904 369.276 354.761 370.088 353.49 370.647C352.22 371.206 350.848 371.5 349.46 371.51ZM291.46 500.36H290.46C287.803 500.094 285.358 498.789 283.659 496.728C281.96 494.668 281.145 492.019 281.39 489.36C285.215 450.633 298.726 413.492 320.68 381.36C321.43 380.272 322.387 379.342 323.496 378.624C324.605 377.906 325.845 377.413 327.144 377.174C328.444 376.935 329.778 376.954 331.07 377.23C332.362 377.507 333.587 378.035 334.675 378.785C335.763 379.535 336.693 380.492 337.411 381.601C338.129 382.71 338.622 383.95 338.861 385.249C339.1 386.549 339.081 387.883 338.805 389.175C338.528 390.467 338 391.692 337.25 392.78C317.165 422.096 304.841 456.027 301.43 491.4C301.173 493.861 300.012 496.139 298.172 497.794C296.333 499.449 293.945 500.363 291.47 500.36H291.46ZM292.02 549.36C289.557 549.377 287.175 548.484 285.329 546.852C283.484 545.221 282.306 542.966 282.02 540.52C281.24 534.52 280.79 528.43 280.45 522.27C280.391 520.947 280.593 519.625 281.045 518.38C281.497 517.135 282.189 515.991 283.083 515.014C283.977 514.037 285.054 513.245 286.254 512.684C287.454 512.123 288.752 511.804 290.075 511.745C291.398 511.686 292.72 511.888 293.965 512.34C295.21 512.791 296.354 513.484 297.331 514.378C298.308 515.271 299.1 516.349 299.661 517.549C300.222 518.748 300.541 520.047 300.6 521.37C300.82 526.97 301.27 532.56 301.94 538.05C302.26 540.69 301.521 543.35 299.885 545.447C298.249 547.544 295.849 548.908 293.21 549.24C292.807 549.332 292.393 549.369 291.98 549.35L292.02 549.36ZM406.87 717.16C405.187 717.177 403.529 716.753 402.06 715.93C346.42 685.82 304.89 633.76 288.44 572.87C287.743 570.301 288.094 567.561 289.417 565.251C290.74 562.942 292.926 561.252 295.495 560.555C298.064 559.857 300.804 560.209 303.114 561.532C305.423 562.855 307.113 565.041 307.81 567.61C315.424 595.253 328.54 621.074 346.373 643.525C364.206 665.977 386.388 684.597 411.59 698.27C412.756 698.898 413.785 699.751 414.619 700.78C415.452 701.809 416.073 702.993 416.445 704.264C416.817 705.535 416.933 706.867 416.787 708.183C416.64 709.499 416.233 710.772 415.59 711.93C414.769 713.526 413.52 714.862 411.984 715.791C410.448 716.72 408.685 717.204 406.89 717.19L406.87 717.16ZM449.18 734.62C448.228 734.635 447.28 734.483 446.38 734.17C442.01 732.83 437.54 731.37 433.17 729.8C431.848 729.417 430.619 728.767 429.559 727.89C428.498 727.013 427.629 725.927 427.005 724.701C426.38 723.474 426.014 722.133 425.929 720.759C425.844 719.386 426.042 718.009 426.51 716.715C426.978 715.421 427.707 714.237 428.651 713.236C429.595 712.234 430.735 711.438 431.999 710.894C433.264 710.351 434.626 710.073 436.002 710.078C437.379 710.082 438.739 710.369 440 710.92C443.92 712.38 448.06 713.72 452.09 714.84C454.415 715.54 456.41 717.053 457.712 719.101C459.015 721.15 459.537 723.599 459.184 726.001C458.831 728.403 457.627 730.598 455.79 732.185C453.954 733.773 451.608 734.648 449.18 734.65V734.62ZM511.98 743.69C500.855 743.695 489.744 742.91 478.73 741.34C476.087 740.954 473.706 739.534 472.11 737.392C470.514 735.251 469.834 732.563 470.22 729.92C470.606 727.277 472.026 724.896 474.168 723.3C476.309 721.704 478.997 721.024 481.64 721.41C513.787 725.97 546.549 723.177 577.46 713.24C579.998 712.423 582.757 712.648 585.129 713.865C587.502 715.082 589.293 717.192 590.11 719.73C590.927 722.268 590.702 725.027 589.485 727.399C588.268 729.771 586.158 731.563 583.62 732.38C560.49 739.897 536.321 743.724 512 743.72L511.98 743.69ZM607.98 721.86C605.7 721.859 603.487 721.084 601.705 719.662C599.922 718.24 598.675 716.255 598.168 714.031C597.66 711.808 597.922 709.479 598.911 707.424C599.899 705.369 601.556 703.711 603.61 702.72C608.61 700.26 613.68 697.72 618.5 694.77C620.801 693.419 623.544 693.037 626.127 693.708C628.709 694.379 630.919 696.049 632.27 698.35C633.621 700.651 634.003 703.394 633.332 705.976C632.661 708.559 630.991 710.769 628.69 712.12C623.399 715.279 617.945 718.157 612.35 720.74C611.011 721.476 609.508 721.861 607.98 721.86ZM649.06 696.11C647.535 696.107 646.03 695.763 644.654 695.104C643.279 694.445 642.068 693.487 641.11 692.3C640.289 691.266 639.682 690.08 639.322 688.81C638.962 687.54 638.857 686.211 639.013 684.9C639.169 683.589 639.583 682.322 640.232 681.172C640.88 680.022 641.749 679.012 642.79 678.2C667.976 658.466 688.328 633.245 702.295 604.458C716.263 575.671 723.477 544.076 723.39 512.08C723.4 502.159 722.732 492.25 721.39 482.42C721.204 479.859 721.999 477.324 723.612 475.327C725.226 473.33 727.538 472.021 730.08 471.665C732.623 471.309 735.206 471.933 737.306 473.41C739.406 474.887 740.866 477.107 741.39 479.62C742.864 490.377 743.612 501.222 743.63 512.08C743.724 547.136 735.818 581.752 720.512 613.291C705.207 644.83 682.907 672.461 655.31 694.08C653.489 695.403 651.291 696.105 649.04 696.08L649.06 696.11ZM724.4 458.79C722.234 458.809 720.121 458.12 718.383 456.827C716.644 455.535 715.376 453.71 714.77 451.63C711.721 441.256 707.828 431.149 703.13 421.41C702.564 420.212 702.24 418.914 702.175 417.59C702.111 416.266 702.308 414.943 702.755 413.695C703.202 412.448 703.891 411.3 704.781 410.319C705.672 409.337 706.747 408.541 707.945 407.975C709.143 407.409 710.441 407.085 711.765 407.02C713.089 406.956 714.412 407.153 715.66 407.6C716.907 408.047 718.055 408.736 719.036 409.626C720.018 410.517 720.814 411.592 721.38 412.79C726.45 423.537 730.738 434.636 734.21 446C734.589 447.272 734.712 448.606 734.574 449.926C734.435 451.245 734.037 452.525 733.402 453.69C732.767 454.855 731.909 455.884 730.875 456.716C729.842 457.548 728.654 458.168 727.38 458.54C726.425 458.757 725.449 458.871 724.47 458.88L724.4 458.79ZM694.62 396.44C692.988 396.442 691.38 396.046 689.937 395.284C688.494 394.522 687.259 393.419 686.34 392.07C667.692 364.996 643.014 342.619 614.25 326.7C613.096 326.06 612.079 325.2 611.257 324.167C610.435 323.135 609.825 321.95 609.461 320.682C609.097 319.413 608.986 318.086 609.136 316.774C609.285 315.463 609.691 314.194 610.33 313.04C610.97 311.886 611.83 310.869 612.863 310.047C613.896 309.225 615.08 308.615 616.348 308.251C617.617 307.887 618.944 307.776 620.256 307.925C621.567 308.075 622.836 308.48 623.99 309.12C655.468 326.601 682.502 351.089 703 380.69C704.036 382.202 704.641 383.967 704.749 385.797C704.857 387.626 704.464 389.451 703.612 391.074C702.761 392.696 701.483 394.057 699.916 395.007C698.349 395.958 696.553 396.464 694.72 396.47L694.62 396.44ZM680.85 464.28C678.753 464.259 676.714 463.592 675.01 462.37C673.307 461.148 672.021 459.43 671.33 457.45C662.122 430.688 646.334 406.671 625.418 387.605C604.501 368.539 579.128 355.037 551.63 348.34C550.311 348.056 549.063 347.51 547.959 346.734C546.855 345.959 545.917 344.97 545.202 343.826C544.487 342.682 544.008 341.407 543.794 340.075C543.581 338.742 543.636 337.381 543.958 336.071C544.28 334.76 544.861 333.528 545.667 332.446C546.474 331.365 547.489 330.456 548.652 329.773C549.816 329.091 551.105 328.648 552.443 328.473C553.78 328.297 555.14 328.391 556.44 328.75C587.255 336.24 615.691 351.363 639.127 372.727C662.563 394.09 680.247 421.008 690.55 451C690.984 452.249 691.165 453.572 691.084 454.891C691.003 456.211 690.661 457.502 690.078 458.688C689.495 459.875 688.682 460.934 687.687 461.805C686.692 462.675 685.534 463.34 684.28 463.76C683.193 464.109 682.061 464.298 680.92 464.32L680.85 464.28ZM482.45 346C479.956 345.949 477.57 344.976 475.751 343.269C473.933 341.562 472.811 339.242 472.602 336.757C472.393 334.271 473.112 331.796 474.621 329.81C476.129 327.824 478.32 326.466 480.77 326C492.737 323.99 504.871 323.15 517 323.49C519.632 323.607 522.114 324.75 523.913 326.675C525.713 328.599 526.688 331.151 526.629 333.785C526.57 336.419 525.482 338.925 523.598 340.767C521.715 342.609 519.185 343.64 516.55 343.64C505.683 343.323 494.811 344.073 484.09 345.88C483.535 345.972 482.972 346.009 482.41 345.99L482.45 346ZM337.82 483C337.069 482.982 336.32 482.909 335.58 482.78C334.289 482.497 333.067 481.962 331.985 481.205C330.902 480.447 329.981 479.483 329.273 478.367C328.565 477.251 328.086 476.006 327.862 474.704C327.639 473.402 327.675 472.068 327.97 470.78C334.655 440.929 348.501 413.152 368.315 389.846C388.128 366.539 413.314 348.402 441.7 337C442.931 336.49 444.25 336.229 445.582 336.232C446.914 336.235 448.233 336.503 449.461 337.019C450.689 337.536 451.802 338.29 452.736 339.24C453.67 340.19 454.407 341.315 454.903 342.552C455.399 343.788 455.645 345.11 455.626 346.442C455.608 347.774 455.325 349.09 454.795 350.312C454.264 351.534 453.497 352.638 452.536 353.561C451.576 354.485 450.442 355.208 449.2 355.69C423.828 365.852 401.313 382.042 383.604 402.86C365.894 423.678 353.523 448.497 347.56 475.17C347.081 477.394 345.851 479.386 344.078 480.812C342.305 482.237 340.095 483.01 337.82 483ZM334 536.29C331.47 536.265 329.039 535.301 327.179 533.584C325.32 531.867 324.166 529.521 323.94 527C323.49 522.07 323.38 516.93 323.38 512C323.38 509.31 323.38 506.63 323.49 504.05C323.549 502.727 323.868 501.428 324.429 500.229C324.99 499.029 325.782 497.951 326.759 497.058C327.737 496.164 328.88 495.471 330.125 495.02C331.37 494.568 332.692 494.366 334.015 494.425C335.338 494.484 336.637 494.803 337.836 495.364C339.036 495.925 340.114 496.717 341.007 497.694C341.901 498.671 342.594 499.815 343.045 501.06C343.497 502.305 343.699 503.627 343.64 504.95C343.53 507.3 343.53 509.65 343.53 512.11C343.53 516.59 343.75 521.18 344.09 525.54C344.199 526.864 344.045 528.197 343.636 529.461C343.228 530.726 342.572 531.897 341.709 532.906C340.845 533.916 339.79 534.745 338.604 535.344C337.418 535.944 336.125 536.303 334.8 536.4C334.547 536.298 334.272 536.26 334 536.29ZM454.8 691.22C453.695 691.198 452.599 691.009 451.55 690.66C422.094 680.651 395.56 663.535 374.296 640.827C353.033 618.119 337.695 590.519 329.64 560.47C328.957 557.887 329.328 555.138 330.672 552.829C332.016 550.519 334.222 548.838 336.805 548.155C339.388 547.472 342.137 547.843 344.447 549.187C346.756 550.531 348.437 552.737 349.12 555.32C356.295 582.147 369.98 606.788 388.961 627.058C407.942 647.328 431.632 662.6 457.93 671.52C459.184 671.94 460.342 672.605 461.337 673.475C462.332 674.346 463.145 675.405 463.728 676.592C464.311 677.778 464.653 679.069 464.734 680.388C464.815 681.708 464.634 683.031 464.2 684.28C463.6 686.301 462.358 688.072 460.662 689.324C458.966 690.576 456.908 691.242 454.8 691.22ZM502 700.29H501.44C495.897 699.948 490.369 699.388 484.87 698.61C482.227 698.224 479.846 696.804 478.25 694.662C476.654 692.521 475.974 689.833 476.36 687.19C476.746 684.547 478.166 682.166 480.308 680.57C482.449 678.974 485.137 678.294 487.78 678.68C492.71 679.35 497.63 679.91 502.56 680.14C505.205 680.253 507.7 681.402 509.505 683.338C511.31 685.275 512.28 687.844 512.207 690.491C512.133 693.137 511.021 695.649 509.112 697.482C507.202 699.316 504.647 700.324 502 700.29ZM533.46 699.29C530.939 699.223 528.536 698.21 526.727 696.453C524.918 694.696 523.836 692.323 523.695 689.806C523.554 687.288 524.364 684.809 525.966 682.861C527.567 680.913 529.843 679.638 532.34 679.29C564.091 675.509 594.087 662.687 618.76 642.35C620.832 640.727 623.456 639.977 626.073 640.26C628.69 640.543 631.093 641.836 632.771 643.864C634.448 645.892 635.268 648.495 635.055 651.119C634.842 653.742 633.613 656.179 631.63 657.91C603.975 680.669 570.367 695.007 534.8 699.22C534.359 699.307 533.91 699.344 533.46 699.33V699.29ZM648.09 637.5C646.165 637.514 644.276 636.971 642.651 635.938C641.027 634.904 639.735 633.424 638.931 631.674C638.128 629.924 637.846 627.979 638.121 626.073C638.396 624.168 639.215 622.382 640.48 620.93C643.73 617.12 646.86 612.98 649.77 608.93C651.299 606.747 653.633 605.261 656.257 604.799C658.882 604.337 661.582 604.936 663.765 606.465C665.948 607.994 667.434 610.327 667.896 612.952C668.358 615.577 667.759 618.277 666.23 620.46C662.98 625.05 659.51 629.64 655.82 633.89C654.888 635.032 653.709 635.948 652.372 636.568C651.035 637.188 649.574 637.496 648.1 637.47L648.09 637.5ZM674.62 595.75C673.195 595.721 671.789 595.415 670.48 594.85C668.071 593.724 666.198 591.7 665.263 589.21C664.329 586.72 664.406 583.963 665.48 581.53C675.424 559.706 680.541 535.993 680.48 512.01C680.461 505.162 680.05 498.321 679.25 491.52C679.117 488.961 679.962 486.446 681.615 484.488C683.267 482.529 685.604 481.272 688.149 480.973C690.694 480.674 693.258 481.355 695.32 482.877C697.382 484.4 698.787 486.649 699.25 489.17C700.156 496.746 700.613 504.37 700.62 512C700.703 538.841 694.975 565.382 683.83 589.8C683.04 591.573 681.752 593.077 680.122 594.13C678.492 595.183 676.591 595.739 674.65 595.73L674.62 595.75ZM631.89 457.48C630.078 457.486 628.299 457 626.742 456.074C625.185 455.147 623.909 453.815 623.05 452.22C617.996 442.794 611.751 434.055 604.47 426.22C602.659 424.26 601.7 421.661 601.805 418.994C601.91 416.327 603.07 413.811 605.03 412C606.99 410.189 609.589 409.23 612.256 409.335C614.923 409.44 617.439 410.6 619.25 412.56C627.659 421.606 634.88 431.688 640.74 442.56C642.012 444.904 642.305 447.655 641.555 450.214C640.806 452.773 639.075 454.932 636.74 456.22C635.251 456.991 633.606 457.412 631.93 457.45L631.89 457.48ZM584.09 406.55C582.184 406.569 580.316 406.023 578.72 404.98C558.718 392.482 535.586 385.902 512 386C489.104 386.007 466.639 392.228 447 404C445.86 404.724 444.586 405.213 443.254 405.437C441.923 405.662 440.559 405.617 439.245 405.306C437.93 404.995 436.691 404.425 435.601 403.627C434.51 402.83 433.591 401.823 432.896 400.665C432.201 399.506 431.745 398.221 431.554 396.883C431.364 395.546 431.444 394.184 431.788 392.878C432.132 391.572 432.734 390.348 433.559 389.279C434.384 388.209 435.415 387.315 436.59 386.65C459.697 372.748 486.198 365.505 513.164 365.722C540.129 365.939 566.51 373.608 589.39 387.88C591.651 389.299 593.261 391.552 593.87 394.152C594.478 396.751 594.036 399.485 592.64 401.76C591.76 403.23 590.513 404.447 589.021 405.29C587.529 406.133 585.844 406.574 584.13 406.57L584.09 406.55ZM404.09 439.13C402.21 439.123 400.37 438.591 398.777 437.593C397.184 436.596 395.901 435.172 395.074 433.484C394.247 431.796 393.909 429.91 394.097 428.04C394.286 426.17 394.993 424.389 396.14 422.9C399.595 418.369 403.333 414.061 407.33 410C408.249 409.052 409.346 408.294 410.558 407.77C411.771 407.246 413.074 406.965 414.395 406.945C415.715 406.924 417.027 407.164 418.254 407.651C419.482 408.137 420.602 408.861 421.55 409.78C422.498 410.699 423.256 411.796 423.78 413.008C424.304 414.22 424.585 415.524 424.605 416.844C424.626 418.165 424.386 419.476 423.899 420.704C423.413 421.932 422.689 423.052 421.77 424C418.352 427.507 415.137 431.207 412.14 435.08C411.194 436.32 409.974 437.326 408.577 438.02C407.179 438.713 405.64 439.076 404.08 439.08L404.09 439.13ZM382.26 563.61C380.116 563.604 378.028 562.919 376.298 561.652C374.568 560.385 373.284 558.602 372.63 556.56C362.086 523.531 363.592 487.834 376.88 455.81C377.395 454.59 378.145 453.483 379.087 452.553C380.03 451.623 381.146 450.888 382.373 450.389C383.6 449.89 384.912 449.638 386.237 449.647C387.561 449.656 388.87 449.925 390.09 450.44C391.31 450.955 392.417 451.705 393.347 452.647C394.277 453.59 395.012 454.706 395.511 455.933C396.01 457.159 396.262 458.472 396.253 459.796C396.244 461.121 395.975 462.43 395.46 463.65C384.047 491.271 382.741 522.031 391.77 550.52C392.577 553.058 392.347 555.812 391.132 558.182C389.916 560.552 387.812 562.345 385.28 563.17C384.294 563.434 383.28 563.581 382.26 563.61ZM406.33 607.83C404.831 607.837 403.349 607.51 401.993 606.871C400.637 606.233 399.44 605.3 398.49 604.14C394.896 599.745 391.557 595.148 388.49 590.37C387.143 588.117 386.73 585.428 387.338 582.874C387.947 580.321 389.529 578.107 391.748 576.704C393.966 575.302 396.645 574.821 399.212 575.366C401.779 575.911 404.032 577.437 405.49 579.62C408.097 583.763 410.977 587.729 414.11 591.49C415.774 593.581 416.553 596.24 416.28 598.898C416.007 601.556 414.704 604.001 412.65 605.71C410.784 607.042 408.562 607.784 406.27 607.84L406.33 607.83ZM512 658.2C480.105 658.261 449.073 647.84 423.68 628.54C421.558 626.922 420.166 624.528 419.81 621.883C419.454 619.239 420.162 616.562 421.78 614.44C423.398 612.318 425.792 610.926 428.437 610.57C431.081 610.213 433.758 610.922 435.88 612.54C462.556 632.597 496.049 641.361 529.13 636.94C531.773 636.583 534.449 637.291 536.57 638.908C538.691 640.524 540.083 642.917 540.44 645.56C540.797 648.203 540.089 650.879 538.472 653C536.856 655.121 534.463 656.513 531.82 656.87C525.251 657.759 518.629 658.203 512 658.2ZM561.93 648.8C559.58 648.799 557.305 647.979 555.495 646.479C553.686 644.98 552.456 642.897 552.019 640.588C551.582 638.279 551.964 635.89 553.1 633.833C554.235 631.776 556.053 630.18 558.24 629.32C567.14 625.785 575.625 621.281 583.54 615.89C584.627 615.138 585.852 614.607 587.145 614.327C588.437 614.048 589.772 614.027 591.073 614.263C592.374 614.5 593.616 614.991 594.727 615.708C595.838 616.424 596.798 617.353 597.55 618.44C598.303 619.527 598.834 620.752 599.113 622.045C599.392 623.337 599.413 624.672 599.177 625.973C598.94 627.274 598.449 628.516 597.733 629.627C597.016 630.738 596.087 631.698 595 632.45C585.825 638.725 575.969 643.942 565.62 648C564.461 648.524 563.202 648.79 561.93 648.78V648.8ZM614.32 611.86C611.893 611.877 609.544 611.001 607.72 609.4C605.719 607.632 604.5 605.142 604.331 602.476C604.162 599.81 605.058 597.187 606.82 595.18C627.018 572.177 638.158 542.612 638.16 512C638.193 502.119 637.028 492.27 634.69 482.67C634.081 480.072 634.53 477.339 635.936 475.072C637.343 472.804 639.592 471.189 642.19 470.58C644.788 469.971 647.521 470.42 649.788 471.826C652.056 473.233 653.671 475.482 654.28 478.08C656.931 489.218 658.247 500.631 658.2 512.08C658.217 547.546 645.325 581.805 621.93 608.46C620.969 609.523 619.794 610.372 618.483 610.951C617.172 611.53 615.753 611.826 614.32 611.82V611.86Z" fill="white"/>
</g>
<defs>
<clipPath id="clip0_2_2805">
<rect width="1024" height="1024" fill="white"/>
</clipPath>
</defs>
</svg>
