<svg width="1024" height="1024" fill="none" xmlns="http://www.w3.org/2000/svg"><g clip-path="url(#a)"><path d="M512 1024c282.77 0 512-229.23 512-512S794.77 0 512 0 0 229.23 0 512s229.23 512 512 512Z" fill="#96DFD3"/><path d="M267.18 416.85a10.333 10.333 0 0 1-4-.78 10.01 10.01 0 0 1-5.387-5.507 10.001 10.001 0 0 1 .127-7.703 276.49 276.49 0 0 1 101.952-121.768A276.495 276.495 0 0 1 512 235.5a273.584 273.584 0 0 1 114.41 24.74 10.069 10.069 0 0 1-.576 18.599 10.072 10.072 0 0 1-7.704-.239 256.52 256.52 0 0 0-198.564-5.692A256.531 256.531 0 0 0 276.47 410.69a10 10 0 0 1-9.29 6.16Zm25.08 255.79a10.002 10.002 0 0 1-8.28-4.37A274.67 274.67 0 0 1 235.5 512a278.456 278.456 0 0 1 7.72-65.37c.284-1.319.83-2.567 1.606-3.671a10.08 10.08 0 0 1 10.663-4.001 10.1 10.1 0 0 1 6.298 4.694 10.09 10.09 0 0 1 1.023 7.788 261.315 261.315 0 0 0-7.16 60.56 255.301 255.301 0 0 0 44.89 145 10.063 10.063 0 0 1 .189 11.178A10.047 10.047 0 0 1 298 671a10.883 10.883 0 0 1-5.74 1.64ZM512 788.5a274.46 274.46 0 0 1-196.24-81.72 10.059 10.059 0 0 1 .01-14.23 10.06 10.06 0 0 1 14.23.01 256.61 256.61 0 0 0 319.6 35.82 258.338 258.338 0 0 0 92.89-103.88 10.026 10.026 0 1 1 18 8.84A276.447 276.447 0 0 1 512 788.5Zm255.68-191.2a8.135 8.135 0 0 1-2.8-.45 10.082 10.082 0 0 1-6.022-4.85 10.077 10.077 0 0 1-.808-7.69 256.397 256.397 0 0 0-98-281.54 10.029 10.029 0 0 1-2.35-13.99 10.029 10.029 0 0 1 13.99-2.35 278.685 278.685 0 0 1 84.85 96.72A276.637 276.637 0 0 1 777.31 590a9.997 9.997 0 0 1-9.63 7.3ZM585.32 312.85a11.732 11.732 0 0 1-3.36-.56c-5-1.79-10.3-3.36-15.45-4.81a10.072 10.072 0 0 1-7.406-8.396 10.082 10.082 0 0 1 4.923-10.056A10.082 10.082 0 0 1 571.67 288c5.71 1.57 11.42 3.25 16.9 5.26a9.986 9.986 0 0 1 5.779 5.143 9.986 9.986 0 0 1 .381 7.727 9.838 9.838 0 0 1-9.4 6.72h-.01Zm-197.13 25.41a10.123 10.123 0 0 1-9.549-13.45 10.121 10.121 0 0 1 3.839-5.02A230.995 230.995 0 0 1 512 280.28c8.17 0 16.34.45 24.52 1.23a10.08 10.08 0 0 1-2.13 20 213.637 213.637 0 0 0-140.6 34.93 9.51 9.51 0 0 1-5.6 1.82Zm-38.73 33.25a9.94 9.94 0 0 1-6.83-2.69 10.08 10.08 0 0 1-.56-14.22c4-4.37 8.4-8.62 12.76-12.76a10.064 10.064 0 0 1 16.885 7.786 10.061 10.061 0 0 1-3.225 6.994c-4 3.69-7.95 7.61-11.64 11.64a10.203 10.203 0 0 1-7.39 3.25Zm-58 128.85h-1a10.12 10.12 0 0 1-9.07-11 231.832 231.832 0 0 1 39.29-108 10.064 10.064 0 0 1 16.731.241 10.065 10.065 0 0 1-.161 11.179 210.184 210.184 0 0 0-35.82 98.62 10 10 0 0 1-9.96 8.96h-.01Zm.56 49a9.997 9.997 0 0 1-10-8.84c-.78-6-1.23-12.09-1.57-18.25a10.083 10.083 0 0 1 9.625-10.525 10.083 10.083 0 0 1 10.525 9.625c.22 5.6.67 11.19 1.34 16.68a10.059 10.059 0 0 1-8.73 11.19 4.582 4.582 0 0 1-1.23.11l.04.01Zm114.85 167.8a9.641 9.641 0 0 1-4.81-1.23c-55.64-30.11-97.17-82.17-113.62-143.06a10.04 10.04 0 0 1 7.055-12.315 10.035 10.035 0 0 1 12.315 7.055 212.99 212.99 0 0 0 103.78 130.66 10.006 10.006 0 0 1 4.855 5.994 10.005 10.005 0 0 1-.855 7.666 9.698 9.698 0 0 1-8.7 5.26l-.02-.03Zm42.31 17.46a8.135 8.135 0 0 1-2.8-.45c-4.37-1.34-8.84-2.8-13.21-4.37a10.052 10.052 0 0 1-6.165-5.099 10.05 10.05 0 0 1-.495-7.986 10.056 10.056 0 0 1 9.492-6.637c1.377.004 2.737.291 3.998.842 3.92 1.46 8.06 2.8 12.09 3.92a10.12 10.12 0 0 1-2.91 19.81v-.03Zm62.8 9.07a234.864 234.864 0 0 1-33.25-2.35 10.07 10.07 0 0 1 2.91-19.93 214.606 214.606 0 0 0 95.82-8.17 10.053 10.053 0 1 1 6.16 19.14A231.597 231.597 0 0 1 512 743.72l-.02-.03Zm96-21.83a10.069 10.069 0 0 1-4.37-19.14c5-2.46 10.07-5 14.89-7.95a10.058 10.058 0 0 1 14.832 11.206 10.057 10.057 0 0 1-4.642 6.144 174.798 174.798 0 0 1-16.34 8.62 9.059 9.059 0 0 1-4.37 1.12Zm41.08-25.75a10.247 10.247 0 0 1-7.95-3.81 9.994 9.994 0 0 1-2.097-7.4 9.985 9.985 0 0 1 1.219-3.728 9.985 9.985 0 0 1 2.558-2.972 210.312 210.312 0 0 0 80.6-166.12 217.64 217.64 0 0 0-2-29.66 10.122 10.122 0 0 1 15.916-9.01 10.117 10.117 0 0 1 4.084 6.21 242.062 242.062 0 0 1 2.24 32.46 230.413 230.413 0 0 1-88.32 182 10.47 10.47 0 0 1-6.27 2l.02.03Zm75.34-237.32a9.934 9.934 0 0 1-6.017-1.963 9.935 9.935 0 0 1-3.613-5.197 198.165 198.165 0 0 0-11.64-30.22 10.101 10.101 0 0 1-.375-7.715 10.097 10.097 0 0 1 9.01-6.675 10.103 10.103 0 0 1 7.271 2.606 10.094 10.094 0 0 1 2.344 3.164A246.97 246.97 0 0 1 734.21 446a10.078 10.078 0 0 1-.808 7.69 10.066 10.066 0 0 1-6.022 4.85c-.955.217-1.931.331-2.91.34l-.07-.09Zm-29.78-62.35a10.002 10.002 0 0 1-8.28-4.37 212.45 212.45 0 0 0-72.09-65.37 10.058 10.058 0 0 1-4.789-6.018 10.053 10.053 0 0 1 3.402-10.635 10.05 10.05 0 0 1 11.127-.927A234.708 234.708 0 0 1 703 380.69a10.086 10.086 0 0 1 .612 10.384 10.078 10.078 0 0 1-8.892 5.396l-.1-.03Zm-13.77 67.84a10.196 10.196 0 0 1-9.52-6.83 168.836 168.836 0 0 0-119.7-109.11 10.083 10.083 0 0 1-7.836-8.265 10.097 10.097 0 0 1 4.858-10.302 10.089 10.089 0 0 1 7.788-1.023A189 189 0 0 1 690.55 451a9.99 9.99 0 0 1-.472 7.688 10.005 10.005 0 0 1-5.798 5.072 11.732 11.732 0 0 1-3.36.56l-.07-.04ZM482.45 346a10.09 10.09 0 0 1-1.68-20 187.079 187.079 0 0 1 36.23-2.51 10.074 10.074 0 0 1 6.913 3.185 10.077 10.077 0 0 1-.315 14.092 10.078 10.078 0 0 1-7.048 2.873 166.152 166.152 0 0 0-32.46 2.24 8.516 8.516 0 0 1-1.68.11l.04.01ZM337.82 483a15.16 15.16 0 0 1-2.24-.22 10.01 10.01 0 0 1-6.307-4.413 10.003 10.003 0 0 1-1.303-7.587A188.573 188.573 0 0 1 441.7 337a10.082 10.082 0 0 1 7.761.019 10.07 10.07 0 0 1-.261 18.671 168.244 168.244 0 0 0-101.64 119.48 9.923 9.923 0 0 1-9.74 7.83ZM334 536.29a10.201 10.201 0 0 1-10.06-9.29c-.45-4.93-.56-10.07-.56-15 0-2.69 0-5.37.11-7.95a10.077 10.077 0 0 1 3.269-6.992 10.075 10.075 0 0 1 7.256-2.633 10.077 10.077 0 0 1 6.992 3.269 10.083 10.083 0 0 1 2.633 7.256c-.11 2.35-.11 4.7-.11 7.16 0 4.48.22 9.07.56 13.43a10.057 10.057 0 0 1-5.486 9.804c-1.186.6-2.479.959-3.804 1.056a1.655 1.655 0 0 0-.8-.11Zm120.8 154.93a10.99 10.99 0 0 1-3.25-.56 189.252 189.252 0 0 1-121.91-130.19 10.072 10.072 0 0 1 7.165-12.315 10.075 10.075 0 0 1 12.315 7.165 168.738 168.738 0 0 0 108.81 116.2 10.003 10.003 0 0 1 6.804 8.868 9.993 9.993 0 0 1-.534 3.892 9.702 9.702 0 0 1-9.4 6.94Zm47.2 9.07h-.56a211.08 211.08 0 0 1-16.57-1.68 10.07 10.07 0 0 1 2.91-19.93c4.93.67 9.85 1.23 14.78 1.46a10.083 10.083 0 0 1 6.552 17.342A10.081 10.081 0 0 1 502 700.29Zm31.46-1a10.047 10.047 0 0 1-9.765-9.484 10.049 10.049 0 0 1 8.645-10.516 166.9 166.9 0 0 0 86.42-36.94 10.099 10.099 0 0 1 16.295 8.769 10.1 10.1 0 0 1-3.425 6.791 186.995 186.995 0 0 1-96.83 41.31c-.441.087-.89.124-1.34.11v-.04Zm114.63-61.79a10.005 10.005 0 0 1-9.159-5.826 10.005 10.005 0 0 1 1.549-10.744c3.25-3.81 6.38-7.95 9.29-12a10.048 10.048 0 1 1 16.46 11.53c-3.25 4.59-6.72 9.18-10.41 13.43a9.74 9.74 0 0 1-7.72 3.58l-.01.03Zm26.53-41.75a11.013 11.013 0 0 1-4.14-.9 10.174 10.174 0 0 1-5-13.32 166.644 166.644 0 0 0 15-69.52 179.657 179.657 0 0 0-1.23-20.49 10.09 10.09 0 0 1 20-2.35 193.77 193.77 0 0 1 1.37 22.83 185.986 185.986 0 0 1-16.79 77.8 9.999 9.999 0 0 1-9.18 5.93l-.03.02Zm-42.73-138.27a10.006 10.006 0 0 1-8.84-5.26 124.888 124.888 0 0 0-18.58-26 10.064 10.064 0 0 1 7.786-16.885 10.061 10.061 0 0 1 6.994 3.225 145.36 145.36 0 0 1 21.49 30 10.1 10.1 0 0 1-4 13.66 11.003 11.003 0 0 1-4.81 1.23l-.04.03Zm-47.8-50.93a9.639 9.639 0 0 1-5.37-1.57A124.93 124.93 0 0 0 512 386a126.502 126.502 0 0 0-65 18 10.119 10.119 0 0 1-14.104-3.335 10.13 10.13 0 0 1 .663-11.386 10.125 10.125 0 0 1 3.031-2.629 146.253 146.253 0 0 1 152.8 1.23 10.132 10.132 0 0 1 3.25 13.88 9.888 9.888 0 0 1-8.51 4.81l-.04-.02Zm-180 32.58a10.077 10.077 0 0 1-9.016-5.646 10.082 10.082 0 0 1 1.066-10.584 135.636 135.636 0 0 1 11.19-12.9 10.052 10.052 0 0 1 10.924-2.349 10.05 10.05 0 0 1 6.351 9.193A10.05 10.05 0 0 1 421.77 424a128.875 128.875 0 0 0-9.63 11.08 10.177 10.177 0 0 1-8.06 4l.01.05Zm-21.83 124.48a10.139 10.139 0 0 1-9.63-7.05 146.573 146.573 0 0 1 4.25-100.75 10.093 10.093 0 0 1 5.493-5.421 10.071 10.071 0 0 1 7.717.051 10.093 10.093 0 0 1 5.421 5.493 10.083 10.083 0 0 1-.051 7.717 127.001 127.001 0 0 0-3.69 86.87 10.092 10.092 0 0 1-6.49 12.65c-.986.264-2 .411-3.02.44Zm24.07 44.22a10.064 10.064 0 0 1-7.84-3.69 148.306 148.306 0 0 1-10-13.77 10.064 10.064 0 0 1 3.258-13.666 10.06 10.06 0 0 1 13.742 2.916 110.468 110.468 0 0 0 8.62 11.87 10.22 10.22 0 0 1-1.46 14.22 11.463 11.463 0 0 1-6.38 2.13l.06-.01ZM512 658.2a145.498 145.498 0 0 1-88.32-29.66 10.058 10.058 0 0 1-1.9-14.1 10.058 10.058 0 0 1 14.1-1.9 127.144 127.144 0 0 0 93.25 24.4 10.055 10.055 0 1 1 2.69 19.93A147.295 147.295 0 0 1 512 658.2Zm49.93-9.4a10.089 10.089 0 0 1-3.69-19.48 130.552 130.552 0 0 0 25.3-13.43 10.09 10.09 0 0 1 3.605-1.563 10.066 10.066 0 0 1 10.405 4.113 10.054 10.054 0 0 1 1.627 7.533A10.082 10.082 0 0 1 595 632.45 147.293 147.293 0 0 1 565.62 648a8.79 8.79 0 0 1-3.69.78v.02Zm52.39-36.94a9.901 9.901 0 0 1-6.6-2.46 10.092 10.092 0 0 1-.9-14.22A126.08 126.08 0 0 0 638.16 512a122.229 122.229 0 0 0-3.47-29.33 10.06 10.06 0 0 1 19.59-4.59 144.278 144.278 0 0 1 3.92 34 146 146 0 0 1-36.27 96.38 10.206 10.206 0 0 1-7.61 3.36v.04Z" fill="#fff"/></g><defs><clipPath id="a"><path fill="#fff" d="M0 0h1024v1024H0z"/></clipPath></defs></svg>