<svg width="1024" height="1024" fill="none" xmlns="http://www.w3.org/2000/svg"><g clip-path="url(#a)"><path d="M512 1024c282.77 0 512-229.23 512-512S794.77 0 512 0 0 229.23 0 512s229.23 512 512 512Z" fill="#728DBE"/><path d="m773.78 601.3-.06-41.11A154.548 154.548 0 0 0 620 406h-1a153.81 153.81 0 0 0-60 12.24l-.4-.2c-5.71-80.21-72.75-143.52-154.37-143.38A154.55 154.55 0 0 0 250 425.75l.13 63.64v2.91c.06 21.77.09 37.24.11 54.63v8C249 631.67 303 713 405 715.33h.15l.22-94-.54-.06v-.35a52.05 52.05 0 0 1-3.87-.14c-10.3-1.47-19.26-4.08-26.81-7.86-15.57-9-26.62-26.91-29.51-44-1.73-50.1 36.31-69.35 59.94-68.45 39 1.47 62.33 32 60.2 70.86l.22 143.9 94.41-.17-.28-154.48c0-2 .093-4 .28-6a60.467 60.467 0 0 1 2-10.83 59.566 59.566 0 0 1 30.62-36.93 62.453 62.453 0 0 1 14.25-5.09 68.468 68.468 0 0 1 8-1.3h8.74a60.696 60.696 0 0 1 56.17 59.2l.28 155.25 94.41-.17c-.02-23.61 0-41.77-.1-113.41ZM344.33 500.9a22.333 22.333 0 0 1-20.655-13.748 22.33 22.33 0 1 1 42.945-8.622 22.341 22.341 0 0 1-22.29 22.37Z" fill="#fff"/></g><defs><clipPath id="a"><path fill="#fff" d="M0 0h1024v1024H0z"/></clipPath></defs></svg>