<svg width="1024" height="1024" fill="none" xmlns="http://www.w3.org/2000/svg"><g clip-path="url(#a)"><path d="M512 1024c282.77 0 512-229.23 512-512S794.77 0 512 0 0 229.23 0 512s229.23 512 512 512Z" fill="#BA6561"/><path d="M751 559v-75.67L573.19 736.85A177.81 177.81 0 0 0 751 559Zm-478 0v-75.67l177.81 253.52A177.81 177.81 0 0 1 273 559Zm478-162.71v-97.37L512 639.71 273 298.92v97.37l239 340.8 239-340.8Z" fill="#fff"/></g><defs><clipPath id="a"><path fill="#fff" d="M0 0h1024v1024H0z"/></clipPath></defs></svg>