<svg width="1024" height="1024" fill="none" xmlns="http://www.w3.org/2000/svg"><g clip-path="url(#a)"><path d="M512 1024c282.77 0 512-229.23 512-512S794.77 0 512 0 0 229.23 0 512s229.23 512 512 512Z" fill="#728DBE"/><path d="M668.45 310.69a45 45 0 0 1 44.86 44.86v312.9a45 45 0 0 1-44.86 44.86h-312.9a45.083 45.083 0 0 1-44.86-44.86v-312.9a45.083 45.083 0 0 1 44.86-44.86h312.9Zm0-22.37h-312.9a67.353 67.353 0 0 0-67.23 67.23v312.9a67.352 67.352 0 0 0 67.23 67.23h312.9a67.352 67.352 0 0 0 67.23-67.23v-312.9a67.353 67.353 0 0 0-67.23-67.23ZM567.92 415.07A77.997 77.997 0 0 0 512 438.68a78.215 78.215 0 0 0-85.509-17.833 78.21 78.21 0 0 0-48.701 72.513v93.2a22.37 22.37 0 0 0 44.74 0v-93.2a33.547 33.547 0 0 1 33.55-33.55 33.547 33.547 0 0 1 33.55 33.55v93.2a22.37 22.37 0 0 0 44.74 0v-93.2a33.547 33.547 0 0 1 33.55-33.55 33.547 33.547 0 0 1 33.55 33.55v93.2a22.37 22.37 0 0 0 44.74 0v-93.2a78.445 78.445 0 0 0-22.974-55.316 78.445 78.445 0 0 0-55.316-22.974Z" fill="#fff"/></g><defs><clipPath id="a"><path fill="#fff" d="M0 0h1024v1024H0z"/></clipPath></defs></svg>