<svg width="1024" height="1024" fill="none" xmlns="http://www.w3.org/2000/svg"><g clip-path="url(#a)"><path d="M512 1024c282.77 0 512-229.23 512-512S794.77 0 512 0 0 229.23 0 512s229.23 512 512 512Z" fill="#73ADA4"/><path d="M756.1 338.51v173.77c0 41.6 24.88 62.83 73.57 62.83H832v-26.06h-2.32c-29.09 0-43-13.45-43-41.18V427.4l45.32-.22V398.4h-45.32v-59.89H756.1Zm-238.86 20.8a20 20 0 1 0 0 40 20 20 0 0 0 0-40ZM271.6 370.18c-1.71 0-3.44.12-5.19.27-21.71 1.89-39.63 10.09-52.91 24.37-14.34 15.13-21.5 35.51-21.5 60.3v115.77h31.63v-118.7c0-14.71 4.22-27.33 12.23-37.41 8.01-10.08 18.55-15.13 32.25-15.13a53.069 53.069 0 0 1 35.83 13.44 42.809 42.809 0 0 1 15 33.2V570.9h31.83V446.3a42.8 42.8 0 0 1 15-33.2 52.305 52.305 0 0 1 35.83-13.44c13.7 0 24.24 5 32.67 15.35 8.22 10.3 12.65 22.9 12.65 37.19v118.7h31.63V455.13c0-24.79-7.38-45.17-21.92-60.3-14.33-14.29-32.24-22.48-54-24.37-28-2.31-51 9.25-68.1 34.46-16-23.64-37.2-35.27-62.89-34.73l-.04-.01Zm372.78 2.37c-25.51 0-46.81 8.61-63.67 25.84-16.86 17-25.29 38.87-25.29 64.72v107.58H586V460.38c0-15.76 5.9-29.42 17.5-40.76 11.6-11.34 25.51-17.23 41.11-17.23 15.39 0 29.09 5.68 40.68 17.23 11.59 11.35 17.5 25.21 17.5 40.76v110.31h30.57V463.11c0-25.84-8.43-47.49-25.29-64.72-17.08-17-38.36-25.84-63.66-25.84h-.03ZM501.24 413.1v157.8h30.56V413.74a36.707 36.707 0 0 1-14.55 2.95c-5.534.007-11-1.22-16-3.59h-.01Zm240.24 170.69c-3.44 0-5.16 1.717-5.16 5.15l-.12 76.1a19.684 19.684 0 0 0 6 14.38 19.133 19.133 0 0 0 14.28 6.07c3.44 0 5.16-1.717 5.16-5.15 0-3.3-1.71-5-5-5a9.866 9.866 0 0 1-7.16-3 10.269 10.269 0 0 1-3-7.25l.14-76.1c0-3.43-1.73-5.15-5-5.15l-.14-.05Zm-108.38.27c-3.44 0-5.16 1.7-5.16 5.13l-.14 60.55a33.99 33.99 0 0 0 10.32 25.18 34.79 34.79 0 0 0 25.15 10.43 35.637 35.637 0 0 0 25.249-10.403A35.633 35.633 0 0 0 699 649.73a35.166 35.166 0 0 0-21.807-32.985 35.173 35.173 0 0 0-13.653-2.635A34.433 34.433 0 0 0 638 624.8l.12-35.62c0-3.43-1.71-5.13-5-5.13l-.02.01Zm81.39 19a7.789 7.789 0 0 0-5 2.23 7.66 7.66 0 0 0 5.43 13.07 7.741 7.741 0 0 0 5.43-2.25 7.152 7.152 0 0 0 2.26-5.27 7.67 7.67 0 0 0-7.69-7.78h-.43Zm-262.68 10.79c-3.44 0-5.16 1.72-5.16 5l-.14 60.93c0 3.43 1.6 5.15 5 5.15s5.16-1.72 5.16-5.15l.12-40.62c0-4.055 1.611-7.944 4.478-10.812a15.294 15.294 0 0 1 21.624 0 15.294 15.294 0 0 1 4.478 10.812l-.14 40.62c0 3.43 1.73 5.15 5 5.15s5.15-1.72 5.15-5.15l.14-40.62a15.36 15.36 0 0 1 4.497-10.858 15.36 15.36 0 0 1 21.716 0 15.36 15.36 0 0 1 4.497 10.858l-.14 40.62c0 3.43 1.73 5.15 5 5.15s5.16-1.72 5.16-5.15v-40.2a24.268 24.268 0 0 0-7.41-17.95 25.457 25.457 0 0 0-19.798-7.451 25.448 25.448 0 0 0-18.592 10.091 23.831 23.831 0 0 0-8.774-7.677A23.83 23.83 0 0 0 472.31 614a24.35 24.35 0 0 0-15.31 5c0-3.427-1.72-5.143-5.16-5.15h-.03ZM583 614a34.318 34.318 0 0 0-25.28 10.42 33.927 33.927 0 0 0-10.59 25.06 35.735 35.735 0 0 0 10.672 24.878 35.734 35.734 0 0 0 50.106 0 35.735 35.735 0 0 0 10.672-24.878 33.794 33.794 0 0 0-10.45-25.06A34.527 34.527 0 0 0 583 614Zm217.29.39A34.317 34.317 0 0 0 775 624.8a33.927 33.927 0 0 0-10.59 25.06A35.652 35.652 0 0 0 800 685.48a35.702 35.702 0 0 0 18-4.74 32.137 32.137 0 0 0 13-12.93 7.075 7.075 0 0 0 .65-2.65 5.893 5.893 0 0 0-1.45-3.68 5.462 5.462 0 0 0-3.71-1.45c-1.46 0-2.9.92-4.23 2.64-1.33 1.72-2.25 3-2.92 3.95-4.76 5.8-11.11 8.72-19.18 8.72a24.55 24.55 0 0 1-19.06-8.72l48.17-27.55a4.325 4.325 0 0 0 2.51-4.1c0-3.56-2.65-7.37-7.81-11.46a43.84 43.84 0 0 0-12.71-7.13 33.998 33.998 0 0 0-11-2l.03.01ZM583 624a25.48 25.48 0 1 1-18 7.39 24.535 24.535 0 0 1 8.237-5.554A24.54 24.54 0 0 1 583 624Zm80.45.14a25.5 25.5 0 0 1 25.42 25.45 23.841 23.841 0 0 1-7.69 17.95 24.928 24.928 0 0 1-18 7.38 25.335 25.335 0 0 1-23.391-15.753 25.337 25.337 0 0 1 5.661-27.627 24.938 24.938 0 0 1 18-7.39v-.01Zm46.19.39-.14 55.67c0 3.43 1.73 5.15 5 5.15s5-1.72 5.16-5.15l.12-55.53c-1.58.526-3.235.79-4.9.78a17.074 17.074 0 0 1-5.29-.92h.05Zm90.38 0a24.15 24.15 0 0 1 18.98 8.72L775.76 658a24.69 24.69 0 0 1-1.33-8.19 24.366 24.366 0 0 1 7.57-17.88 24.938 24.938 0 0 1 18-7.39l.02-.01Z" fill="#fff"/></g><defs><clipPath id="a"><path fill="#fff" d="M0 0h1024v1024H0z"/></clipPath></defs></svg>