<svg width="1024" height="1024" fill="none" xmlns="http://www.w3.org/2000/svg"><g clip-path="url(#a)"><path d="M512 1024c282.77 0 512-229.23 512-512S794.77 0 512 0 0 229.23 0 512s229.23 512 512 512Z" fill="#98DC9A"/><path d="M182.32 419a24.516 24.516 0 0 0-17.375 7.185 24.524 24.524 0 0 0-7.185 17.375v92a24.364 24.364 0 0 0 15.131 22.742 24.387 24.387 0 0 0 9.429 1.818 24.713 24.713 0 0 0 24.77-24.56v-16.73c.05-3.62 3.78-2.67 5.67 0a23.25 23.25 0 0 0 19.73 11.33c8.71 0 16-4.34 19.73-11.34 1.43-1.69 5.46-4.56 5.88 0v16.72a24.349 24.349 0 0 0 7.134 17.426 24.362 24.362 0 0 0 17.426 7.134 24.713 24.713 0 0 0 24.77-24.56v-92a23.23 23.23 0 0 0-4.61-14.06 22.857 22.857 0 0 0-11.55-9 25.185 25.185 0 0 0-8.4-1.47 24.498 24.498 0 0 0-19.11 8.82L238.85 457c-.56.42-2.41 3.63-6.36 3.63s-5.58-3.21-6.14-3.62l-25.14-29.17a23.853 23.853 0 0 0-18.89-8.84Zm155.32 0a20.61 20.61 0 0 0-15.11 6.3 20.257 20.257 0 0 0-4.587 6.82 20.259 20.259 0 0 0-1.503 8.08 21.379 21.379 0 0 0 36.32 15.11 20.61 20.61 0 0 0 6.29-15.11 19.926 19.926 0 0 0-6.29-14.9 20.643 20.643 0 0 0-15.12-6.3Zm234.79 1.47a20.601 20.601 0 0 0-15.11 6.3 20.257 20.257 0 0 0-4.587 6.82 20.259 20.259 0 0 0-1.503 8.08v97.79a21.365 21.365 0 0 0 13.159 19.561 21.374 21.374 0 0 0 23.151-4.451 20.613 20.613 0 0 0 6.3-15.11c0-4.193.557-6.29 1.67-6.29a2.798 2.798 0 0 1 1.68.62l21 20.36a20.71 20.71 0 0 0 14.9 6.09 20.182 20.182 0 0 0 15.11-6.3 21.2 21.2 0 0 0 6.09-14.9 20.515 20.515 0 0 0-6.5-15.32c-9.513-9.373-14.48-14.2-14.9-14.48-1.82-1.82-1.75-3.36.21-4.62l.42-.21v-.21l13.22-8.4c6.293-4.193 9.44-10.137 9.44-17.83a22.068 22.068 0 0 0-3.36-11.76c-4.193-6.293-10.14-9.44-17.84-9.44a22.005 22.005 0 0 0-11.75 3.36c-16.233 10.8-24.643 16.34-25.23 16.62a2.532 2.532 0 0 1-2.72.41 2.64 2.64 0 0 1-1.47-2.73V441.7a19.926 19.926 0 0 0-6.29-14.9 20.616 20.616 0 0 0-15.09-6.3v-.03Zm141.59 36A50.924 50.924 0 0 0 676.67 472a50.34 50.34 0 0 0-15.32 36.94 52.676 52.676 0 0 0 32.453 48.632 52.679 52.679 0 0 0 57.367-11.282 16.625 16.625 0 0 0 3.599-18.114 16.622 16.622 0 0 0-27.109-5.386 18.264 18.264 0 0 1-13.66 5.86 19.363 19.363 0 0 1-19.73-19.73 18.278 18.278 0 0 1 5.88-13.64 14.325 14.325 0 0 1 7.13-4.2 2.195 2.195 0 0 1 1.68.21c.28.42.14.84-.42 1.26l-4.2 4.41a15.75 15.75 0 0 0-4.83 11.54c0 4.613 1.4 8.32 4.2 11.12 2.8 2.8 6.72 4.2 11.76 4.2 3.493 0 6.99-1.747 10.49-5.24l24.35-24.13a16.722 16.722 0 0 0 0-23.51c-9.78-9.653-21.883-14.48-36.31-14.48l.02.01Zm-305.34.34c-13.12-.18-23.347 3.273-30.68 10.36-6.433 6.153-9.65 13.917-9.65 23.29.14 11.753 4.687 20.567 13.64 26.44a33.876 33.876 0 0 0 9.86 4.41 86.083 86.083 0 0 0 9.86 2.52c4.06.98 8.467 1.89 13.22 2.73.98.28 1.4.77 1.26 1.47 0 .84-.35 1.26-1.05 1.26-1.82.14-3.487.21-5 .21-11.473-1.26-19.24-2.31-23.3-3.15a14.577 14.577 0 0 0-3.56-.42 16.122 16.122 0 0 0-16 16.16 15.65 15.65 0 0 0 12.6 15.53 145.703 145.703 0 0 0 31.89 4c13.013 0 23.157-3.497 30.43-10.49 6.293-6 9.44-13.767 9.44-23.3 0-11.753-4.477-20.567-13.43-26.44-4.76-3.073-11.337-5.31-19.73-6.71-5.033-.98-9.23-1.89-12.59-2.73a2.074 2.074 0 0 1-1.103-.577 2.074 2.074 0 0 1-.577-1.103c0-.7.56-1.12 1.68-1.26 1.33-.139 2.67-.139 4 0 11.613 1.12 19.447 2.1 23.5 2.94 1.099.277 2.227.418 3.36.42a16.006 16.006 0 0 0 8.556-2.416 16.01 16.01 0 0 0 7.444-15.374 16.002 16.002 0 0 0-3.41-8.21 15.92 15.92 0 0 0-9-5.67 171.128 171.128 0 0 0-29-3.78 36.082 36.082 0 0 0-2.65-.12l-.01.01Zm91.32 0c-13.12-.173-23.357 3.283-30.71 10.37-6.433 6.153-9.65 13.917-9.65 23.29.14 11.753 4.687 20.567 13.64 26.44a33.876 33.876 0 0 0 9.86 4.41 85.617 85.617 0 0 0 9.86 2.52c4.06.98 8.467 1.89 13.22 2.73.98.28 1.4.77 1.26 1.47 0 .84-.35 1.26-1.05 1.26-1.82.14-3.487.21-5 .21-11.473-1.26-19.237-2.31-23.29-3.15a14.652 14.652 0 0 0-3.57-.42 16.129 16.129 0 0 0-15.95 16.16 15.665 15.665 0 0 0 12.59 15.53 145.732 145.732 0 0 0 31.9 4c13.007 0 23.15-3.497 30.43-10.49 6.293-6 9.44-13.767 9.44-23.3 0-11.753-4.477-20.567-13.43-26.44-4.76-3.073-11.337-5.31-19.73-6.71-5.04-.98-9.237-1.89-12.59-2.73a2.074 2.074 0 0 1-1.103-.577 2.074 2.074 0 0 1-.577-1.103c0-.7.56-1.12 1.68-1.26 1.33-.139 2.67-.139 4 0 11.613 1.12 19.45 2.1 23.51 2.94 1.095.276 2.22.417 3.35.42a16.001 16.001 0 0 0 12.6-26 15.938 15.938 0 0 0-9-5.67 171.128 171.128 0 0 0-29-3.78c-.913-.08-1.81-.123-2.69-.13v.01Zm284.59 1.48a20.601 20.601 0 0 0-15.11 6.3 20.248 20.248 0 0 0-6.09 14.9v29.17a51.584 51.584 0 0 0 15.107 36.303A51.584 51.584 0 0 0 814.8 560.07a45.055 45.055 0 0 0 7.77-.63c1.4-.28 2.377 0 2.93.84.42.56.28 1.33-.42 2.31-1.82 2.52-5.667 3.78-11.54 3.78a29.576 29.576 0 0 1-8.6-1.68 28.975 28.975 0 0 0-8.18-1.68c-8.253 0-14.06 3.78-17.42 11.34a17.626 17.626 0 0 0-1.89 8c0 8.253 3.71 14.06 11.13 17.42a57.842 57.842 0 0 0 25 5.24c15.953 0 28.62-4.687 38-14.06 9.513-9.373 14.273-21.893 14.28-37.56v-38.4a51.48 51.48 0 0 0 .42-6.29v-29.22a21.504 21.504 0 0 0-21.28-21.2 20.632 20.632 0 0 0-15.11 6.3 19.912 19.912 0 0 0-6.29 14.9v29.17a9.003 9.003 0 0 1-2.52 6.29 8.53 8.53 0 0 1-6.29 2.52 8.624 8.624 0 0 1-6.291-2.519 8.623 8.623 0 0 1-2.519-6.291v-29.17a19.926 19.926 0 0 0-6.29-14.9 20.627 20.627 0 0 0-15.08-6.3l-.02.01Zm-446.75 7.36a21.493 21.493 0 0 0-21.41 21.41v51.85a20.607 20.607 0 0 0 6.31 15.09 20.992 20.992 0 0 0 15.11 6.09 20.264 20.264 0 0 0 14.91-6.09 20.61 20.61 0 0 0 6.29-15.11v-51.84a20.618 20.618 0 0 0-6.29-15.12 20.007 20.007 0 0 0-14.91-6.29l-.01.01Z" fill="#fff"/></g><defs><clipPath id="a"><path fill="#fff" d="M0 0h1024v1024H0z"/></clipPath></defs></svg>