<svg width="1024" height="1024" fill="none" xmlns="http://www.w3.org/2000/svg"><g clip-path="url(#a)"><path d="M512 1024c282.77 0 512-229.23 512-512S794.77 0 512 0 0 229.23 0 512s229.23 512 512 512Z" fill="#56595B"/><path d="M465 452a60.648 60.648 0 0 0-59.485 72.482A60.65 60.65 0 0 0 525.65 512.65 60.719 60.719 0 0 0 465 452Zm0 92.61a31.903 31.903 0 0 1-29.472-19.692 31.903 31.903 0 0 1 23.249-43.495 31.903 31.903 0 0 1 32.747 13.564 31.903 31.903 0 0 1 5.376 17.723A31.94 31.94 0 0 1 465 544.6v.01ZM666.79 431a18.91 18.91 0 1 0 0-37.82 18.91 18.91 0 0 0 0 37.82ZM341.2 452c-1.58-.13-3.09-.19-4.67-.19a52.697 52.697 0 0 0-38.46 16.58 52.584 52.584 0 0 0-26.863-15.317 52.59 52.59 0 0 0-64.057 51.317v66.39h28.37v-65.52c0-12 9.9-23.14 21.56-24.33.82-.06 1.64-.13 2.4-.13a24 24 0 0 1 23.9 23.83v66.2h29v-65.7c0-12 9.84-23.07 21.56-24.27.82-.06 1.64-.13 2.4-.13a23.998 23.998 0 0 1 24 23.7v66.39h29v-65.56a53.84 53.84 0 0 0-13.81-36A51.727 51.727 0 0 0 341.2 452Zm229.12-56h-29v174.95h29V396Zm55.48 0h-29v174.95h29V396Zm55.48 58.88h-29v116h29v-116Zm135.56 55A58.003 58.003 0 0 0 800 469a56.718 56.718 0 0 0-40.6-17.15h-.76a60.682 60.682 0 0 0 .82 121.36h.06a60.994 60.994 0 0 0 52.21-29.76l1.39-2.33-24-11.79-1.2 2a32.61 32.61 0 0 1-59.33-8.07h88.21l.04-13.38Zm-58.57-31.71a31.121 31.121 0 0 1 29.26 21.06h-58.45a31.004 31.004 0 0 1 29.19-21.02v-.04Z" fill="#fff"/></g><defs><clipPath id="a"><path fill="#fff" d="M0 0h1024v1024H0z"/></clipPath></defs></svg>