<svg width="1024" height="1024" fill="none" xmlns="http://www.w3.org/2000/svg"><g clip-path="url(#a)"><path d="M512 1024c282.77 0 512-229.23 512-512S794.77 0 512 0 0 229.23 0 512s229.23 512 512 512Z" fill="#F9DE81"/><path d="M504.73 405a6.821 6.821 0 1 1-13.642 0 6.821 6.821 0 0 1 13.642 0Zm69.68 85.52c-31-9-25.77-42-28.19-61.09-1.9-15 .26-18.28-3.84-33.55-4.94-18.45-24.51-26.85-41.79-22-8 2.25-22.3 9.42-36.24 55.67-1.38 4.59 3.33 7 5.76 7 2.43 0 8.2-2.86 11.52-4.55 7.28-3.7 9.09-1.8 7.94 3.72-1.21 5.83-2.7 10.43-2.7 10.43s-.37 3.3 3.48 2.2c5.47-1.56 16.26-6.6 20.89-7.67 5.7-1.32 6.25 6.39 1 10.18a55.172 55.172 0 0 1-23 9.66c-1.58.3-5.66 1-6.53 3.13-17.64 43.82-59.26 55.94-77.7 39.35-30-27-47.49-68.69-24.08-132.45 19.1-52 69.83-94.8 133.33-94.8 71.26 0 118.85 48.66 132.66 86.87 26.55 73.21-25.12 141.63-72.51 127.86v.04Zm108.73 210.35c-5.81-2.39-31.33-5.66-40.6-17.47-9.27-11.81-37.28-63.58-45.47-99.32-3.25-14.19 1.72-23.82 15.59-32 35.21-20.76 85.09-54.3 85.09-146 0-98.24-87.32-173.11-181.18-173.11a185 185 0 0 0-157.24 86.12c-49.16 77.4-53.54 198.67 56.75 250.57 12.47 5.87 20.54 20.54 17.62 38.79-2 12.31-8.54 38.32-20.89 64.74-12.35 26.42-34.42 40.69-50.12 45.69-9.49 3-24.08 6.24-30.72 10.34-7.39 4.56-8.81 15.75 3.92 15.75H443c6.59 0 10.16-4.13 12.58-8.34s39.42-103.86 44.17-115.1c4.75-11.24 8.27-22.71 15.08-22.71 3.3 0 5.23 3.14 6.33 7.31 1.1 4.17 31 121.93 32.63 127.92 2.78 10 9.45 11 15.44 11h109.26c23.83-.05 24.76-35.92 4.65-44.18Z" fill="#fff"/></g><defs><clipPath id="a"><path fill="#fff" d="M0 0h1024v1024H0z"/></clipPath></defs></svg>