<svg width="1024" height="1024" fill="none" xmlns="http://www.w3.org/2000/svg"><g clip-path="url(#a)"><path d="M512 1024c282.77 0 512-229.23 512-512S794.77 0 512 0 0 229.23 0 512s229.23 512 512 512Z" fill="#F8C18C"/><path d="M195.21 497a73.32 73.32 0 0 0 9.47-.62c0 .73-.06 1.47-.06 2.24v67.57h-34.38v-73.28a79.712 79.712 0 0 0 24.97 4.09Zm569.39 68.9v-193h-34.44v193h34.44Zm-44.8 0v-193h-33.5V466c-6.43-7.86-17.1-14.72-35.31-14.72-16.16 0-30.26 6.8-38.87 16.6-9.733 11.047-14.6 24.773-14.6 41.18 0 16.6 5 30.57 14.91 41.8 9.91 11.23 23.09 16.91 39.49 16.91a57.7 57.7 0 0 0 18.72-3.37c7.36-2.5 12.6-5.74 15.66-9.86v11.36h33.5Zm-33.5-45.3c0 5.333-3.12 10.513-9.36 15.54-6.24 5.05-12 7.55-17.35 7.55-8.8 0-15.79-3.68-20.9-11-4.493-6.3-6.74-13.967-6.74-23 0-9.17 2.25-17 6.74-23.34a24.482 24.482 0 0 1 20.9-10.73c6.11 0 12.17 2.81 18 8.42 5.83 5.61 8.74 11.54 8.74 17.66l-.03 18.9ZM576 552.36c11.48-11.107 17.22-25.353 17.22-42.74 0-17.35-5.74-31.63-17.22-42.68-11.48-11.05-25.89-16.6-43.3-16.6-17.41 0-31.82 5.55-43.18 16.6s-17 25.27-17 42.68 5.68 31.7 17 42.74C500.84 563.4 515.28 569 532.68 569c17.4 0 31.82-5.6 43.32-16.64Zm-23.4-64.45c4.18 5.93 6.24 13.23 6.24 21.9 0 8.67-2.18 15.91-6.55 21.9a23.992 23.992 0 0 1-19.59 10.135 23.997 23.997 0 0 1-19.59-10.135c-4.18-5.93-6.24-13.23-6.24-21.9 0-8.67 2.25-16.1 6.68-22.4 4.43-6.3 10.84-9.41 19.13-9.41 8.49 0 15.1 3.29 19.91 9.9l.01.01Zm-101.09 64.45c11.48-11.107 17.22-25.353 17.22-42.74 0-17.35-5.74-31.63-17.22-42.68-11.48-11.05-25.89-16.6-43.3-16.6-17.41 0-31.82 5.55-43.18 16.6s-17 25.27-17 42.68 5.68 31.7 17 42.74C376.35 563.4 390.8 569 408.21 569s31.88-5.6 43.3-16.64Zm-23.4-64.45c4.18 5.93 6.24 13.23 6.24 21.9 0 8.67-2.18 15.91-6.55 21.9a23.992 23.992 0 0 1-19.59 10.135 23.997 23.997 0 0 1-19.59-10.135c-4.18-5.93-6.24-13.23-6.24-21.9 0-8.67 2.25-16.1 6.68-22.4 4.43-6.3 10.85-9.41 19.15-9.41 8.55 0 15.16 3.29 19.9 9.9v.01Zm377.23 32.19H896c0-20.713-5.22-37.207-15.66-49.48-11.233-13.287-26.9-19.953-47-20-18.47 0-33.44 5.43-45 16.16-11.56 10.73-17.34 25.3-17.34 43.52 0 17.593 5.784 31.88 17.35 42.86 11.54 10.92 27.7 16.41 45.3 16.41 42.37 0 58.46-25.71 62.39-37.81l-36.25.31c-.44 4-8.49 13.85-25.52 13.85-17.53 0-28.14-17.66-28.89-25.83l-.04.01Zm.87-21.21a37.161 37.161 0 0 1 9.67-18.47 24.001 24.001 0 0 1 18-7.36 25.928 25.928 0 0 1 18.47 7.67 34.185 34.185 0 0 1 9.23 18.16h-55.37ZM327.72 461.2c-8.986-6.8-21.153-10.2-36.5-10.2-16.786 0-28.35 4-34.69 12a74.994 74.994 0 0 1-20.39 21.36c2.12 3.467 3.184 8.23 3.19 14.29v67.57h34.38v-67.58c0-14.16 5.844-21.23 17.53-21.21 11.61 0 17.47 7.11 17.47 21.21v67.57h34.38v-71.57c-.013-14.727-5.136-25.873-15.37-33.44Zm-81-7.11c-1.15-1.06-2.33-2.1-3.45-3.08-.75-.65-1.48-1.26-2.16-1.83l-1.86-1.53c-1.38-1.12-2.27-1.81-2.27-1.81l34.13-25-.44-1.5c-3.846.473-7.57.94-11.17 1.4-3.6.46-7.09.923-10.47 1.39l-5 .7c-6.57.94-12.75 1.92-18.67 3-4.44.8-8.73 1.64-12.91 2.56-2.793.613-5.543 1.26-8.25 1.94a252.147 252.147 0 0 0-16.07 4.61c-1.333.433-2.666.88-4 1.34a253 253 0 0 0-24.37 9.94 548.268 548.268 0 0 0-8.58 4.17c-7.3 3.67-15 7.86-23.28 12.66l.5 1.37 4.24.06c0 .267-.023.557-.07.87-.053.627-.106 1.35-.16 2.17-.053.82-.103 1.733-.15 2.74a242.59 242.59 0 0 0 .2 24.79 40.599 40.599 0 0 0-1.32 23.51c.194.82.407 1.63.64 2.43.114.4.234.8.36 1.2.247.8.51 1.593.79 2.38.28.787.57 1.57.87 2.35.3.78.61 1.56.93 2.34 1 2.34 2 4.66 3 7 .22-3.28.37-6.63.42-10v-5.16a119.885 119.885 0 0 0-1-13.17 96.966 96.966 0 0 0-2.7-13.36c-.153-2.933-.256-5.68-.31-8.24v-11.14c0-1.26.037-2.43.11-3.51a76.08 76.08 0 0 0 .15-2.95c.1-1.78.22-3.17.31-4.17l35.19.31v6.56c0 1.22.08 2.56.15 4 0 .85.09 1.74.15 2.64.06.9.13 1.82.21 2.76.13 1.48.29 3 .48 4.48v.23c1 .353 2 .687 3 1l1 .28c.67.2 1.35.4 2 .57l1.16.28c.61.15 1.23.31 1.84.44l1.23.25c.59.12 1.17.24 1.76.34l1.28.2c.56.09 1.13.18 1.69.26l1.32.15 1.64.18 1.34.1 1.61.1h5.4c.85 0 1.7-.07 2.55-.13l.73-.06 1.9-.18.71-.08c.84-.1 1.67-.21 2.5-.35h.13c.78-.13 1.55-.27 2.32-.42l.7-.15 1.88-.43.63-.15c.81-.21 1.62-.42 2.42-.66l.27-.08c.714-.213 1.42-.44 2.12-.68l.66-.23c.62-.22 1.237-.447 1.85-.68l.53-.21c.774-.307 1.544-.64 2.31-1l.34-.16a39.8 39.8 0 0 0 1.93-.91l.62-.31a57.011 57.011 0 0 0 1.8-.95l.44-.24c.734-.407 1.46-.83 2.18-1.27l.4-.25c.48-.3 1-.6 1.43-.92l.31-.2.58-.39c.58-.393 1.157-.8 1.73-1.22l.34-.25c.667-.5 1.334-1.017 2-1.55l.44-.36c.52-.427 1.034-.86 1.54-1.3l.54-.48a66.705 66.705 0 0 0 1.63-1.5l.25-.23c.614-.593 1.217-1.2 1.81-1.82l.45-.48c.454-.48.9-.967 1.34-1.46l.5-.57c.52-.6 1.03-1.207 1.53-1.82l.14-.17c.55-.68 1.08-1.37 1.6-2.08l.43-.6c.394-.533.777-1.077 1.15-1.63l.44-.64c.49-.74 1-1.49 1.45-2.25l-.09-.1c-.97-1.22-2.39-2.62-3.88-4h-.02Z" fill="#fff"/></g><defs><clipPath id="a"><path fill="#fff" d="M0 0h1024v1024H0z"/></clipPath></defs></svg>