<svg width="1024" height="1024" fill="none" xmlns="http://www.w3.org/2000/svg"><g clip-path="url(#a)"><path d="M512 1024c282.77 0 512-229.23 512-512S794.77 0 512 0 0 229.23 0 512s229.23 512 512 512Z" fill="#FF837D"/><path d="M310 686.73c.09 24.87 20.23 45.02 45.1 45.1h123.51v83.42l27.48-28.78c38.96-40.42 69.84-54.64 118.34-54.64h44.3c24.94 0 45.18-20.17 45.27-45.1V292.75H310v393.98Zm29.58-364.55h344.67v364.23c0 8.57-6.95 15.36-15.52 15.36l.16.16h-44.46c-42.68 0-79.54 7.11-120.76 52.06v-52.06H354.94c-8.41 0-15.36-6.79-15.36-15.36V322.18Z" fill="#fff"/></g><defs><clipPath id="a"><path fill="#fff" d="M0 0h1024v1024H0z"/></clipPath></defs></svg>