<svg width="1024" height="1024" fill="none" xmlns="http://www.w3.org/2000/svg"><g clip-path="url(#a)"><path d="M512 1024c282.77 0 512-229.23 512-512S794.77 0 512 0 0 229.23 0 512s229.23 512 512 512Z" fill="#96DFD3"/><path d="M768 673.82 669.56 617a188.53 188.53 0 0 0-5.27-217.54h27.86a49.255 49.255 0 0 0 0-98.51H468.64v-73.56L256 350.18l99.91 57.7a188.532 188.532 0 0 0 6.09 216.7h-42a49.25 49.25 0 0 0 0 98.5h235.36v73.54L768 673.82ZM370.52 511.91a142.576 142.576 0 0 1 110.385-138.894 142.581 142.581 0 0 1 160.234 76.167 142.582 142.582 0 0 1-126.351 205.3 142.578 142.578 0 0 1-89.068-29.903 141.734 141.734 0 0 1-55.2-112.67ZM524 562.11l-24.21-46.83c6.953-3.287 12.063-7.583 15.33-12.89 3.267-5.307 4.9-11.99 4.9-20.05 0-11.14-3.877-19.76-11.63-25.86-7.753-6.1-18.507-9.15-32.26-9.15h-45.61v116h28v-41h15.13l20.47 41H524v-1.22Zm-35.88-65.52c-2.667 2.793-6.667 4.19-12 4.19h-17.64v-31.94h17.68c5.253 0 9.237 1.423 11.95 4.27 2.713 2.847 4.067 6.773 4.06 11.78 0 5-1.34 8.897-4.02 11.69l-.03.01Zm74.59 59.63a24.846 24.846 0 0 0 19.51 8.68c10.247 0 18.383-4 24.41-12 6.027-8 9.027-18.687 9-32.06v-1.27c0-13.7-2.947-24.467-8.84-32.3-5.893-7.833-14.15-11.75-24.77-11.75a24.83 24.83 0 0 0-20.31 9.56l-.8-8H535.9v119.35h26.84l-.03-40.21Zm0-53.13c2.12-4.567 6.367-6.85 12.74-6.85 8.92 0 13.38 7.647 13.38 22.94V522c-.267 14.76-4.673 22.14-13.22 22.14-6.267 0-10.567-2.39-12.9-7.17v-33.88Z" fill="#fff"/></g><defs><clipPath id="a"><path fill="#fff" d="M0 0h1024v1024H0z"/></clipPath></defs></svg>