<svg width="1024" height="1024" fill="none" xmlns="http://www.w3.org/2000/svg"><g clip-path="url(#a)"><path d="M512 1024c282.77 0 512-229.23 512-512S794.77 0 512 0 0 229.23 0 512s229.23 512 512 512Z" fill="#8C72BD"/><path d="M244 363.48h66.17c25.387 62.127 50.72 124.28 76 186.46a211423.562 211423.562 0 0 1 65-159.66c3.69-8.93 7.2-18 11-26.84 21.91.16 43.84 0 65.75.07v296.84c-14.13 0-28.27-.07-42.4.05-.18-77.15 0-154.32-.08-231.48-4.59 9.81-8.56 19.91-12.9 29.83-24.927 58.553-49.867 117.1-74.82 175.64-7.95.12-15.9 0-23.85 0a166182.856 166182.856 0 0 0-70.55-166.2c-5.5-13.19-11.32-26.3-16.65-39.6-.08.93-.16 1.87-.2 2.81v228.91H244V363.48Zm536 297.11c-.15-5.58 0-11.16-.07-16.73V363.64c-27.187 49.467-54.397 98.92-81.63 148.36A360998.47 360998.47 0 0 0 780 660.59ZM576.42 660c1.56-2.26 2.72-4.74 4.08-7.12L658 512c-22.153-40.287-44.32-80.57-66.5-120.85-5.08-9-9.82-18.26-15.11-27.16 0 98.673.01 197.343.03 296.01Z" fill="#fff"/></g><defs><clipPath id="a"><path fill="#fff" d="M0 0h1024v1024H0z"/></clipPath></defs></svg>