<svg width="1024" height="1024" fill="none" xmlns="http://www.w3.org/2000/svg"><g clip-path="url(#a)"><path d="M512 1024c282.77 0 512-229.23 512-512S794.77 0 512 0 0 229.23 0 512s229.23 512 512 512Z" fill="#F8C18C"/><path d="M199.391 330.3h167.34a28.174 28.174 0 0 1 2.65 4.11c10 20.28 20.25 40.48 30.33 60.75 9.42-21.61 18.75-43.27 28.26-64.85h183.12v45.36a179.498 179.498 0 0 0-67.72 70.2c-21.8 40.35-26.71 89.33-13.63 133.27a177.41 177.41 0 0 0 44 74.42h-111.22a75051.19 75051.19 0 0 1 0-145.48 75245.322 75245.322 0 0 0-62.82 114.43c-20.85-38.11-41.39-76.39-62.31-114.46-.14 48.5 0 97-.06 145.5h-137.56v-308.1c-.24-5.04-.57-10.08-.38-15.15Zm368.9 98.87a164.999 164.999 0 0 0 124.44 264.53h14.82a164.998 164.998 0 0 0 141.35-94.05 161.76 161.76 0 0 0 15.76-71.27c.29-35.57-11.94-71-33.44-99.25a165.017 165.017 0 0 0-58.07-48.06 165.011 165.011 0 0 0-146.771 0 165.005 165.005 0 0 0-58.069 48.06l-.02.04Zm204-33.65a151.872 151.872 0 0 1 77.956 111.238 151.873 151.873 0 0 1-101.351 166.146 151.882 151.882 0 0 1-181.605-69.974c-18.41-32.71-23.7-72.37-15.06-108.85a151.992 151.992 0 0 1 85.737-103.52 151.998 151.998 0 0 1 134.323 4.96Zm-100.78 132.36c-20.17 27.63-40.18 55.39-60.26 83.09h58.33c10-14.44 20.23-28.8 30.33-43.2 10.33 14.33 20.32 28.9 30.58 43.27 19.38-.13 38.77 0 58.16-.06a57134.169 57134.169 0 0 0-60.24-83.11c19.92-26.92 40.2-53.57 60.1-80.5h-58.08c-10.24 13.77-20.27 27.77-30.43 41.63-10.2-13.86-20.25-27.82-30.41-41.71h-58.27c20.05 26.91 40.28 53.62 60.19 80.59Z" fill="#fff"/></g><defs><clipPath id="a"><path fill="#fff" d="M0 0h1024v1024H0z"/></clipPath></defs></svg>