<svg width="1024" height="1024" fill="none" xmlns="http://www.w3.org/2000/svg"><g clip-path="url(#a)"><path d="M512 1024c282.77 0 512-229.23 512-512S794.77 0 512 0 0 229.23 0 512s229.23 512 512 512Z" fill="#56595B"/><path d="M232.85 544.61a57.209 57.209 0 0 1-4.65 1.49c-1.312.39-2.648.697-4 .92a23.34 23.34 0 0 1-3.61.29 9.002 9.002 0 0 1-4.16-.92 7.157 7.157 0 0 1-3-2.91 16.636 16.636 0 0 1-1.75-5.36 48.864 48.864 0 0 1-.58-8.23v-9.6c0-2.267.027-4.66.08-7.18l.08-7.77c.054-2.633.11-5.167.17-7.6l.17-6.9c.054-2.133.11-3.95.17-5.45.14-3.24.29-6.467.45-9.68.16-3.213.41-6.383.75-9.51l-.33-.12a172.104 172.104 0 0 1-1.7 4.28c-.66 1.607-1.503 3.52-2.53 5.74-2.44 5.373-4.933 10.94-7.48 16.7a1694.543 1694.543 0 0 0-7.68 17.65c-2.573 6-5.176 12.08-7.81 18.24-2.633 6.16-5.25 12.31-7.85 18.45l-2-.08c-.58-1.88-1.286-4.097-2.12-6.65-.833-2.553-1.746-5.323-2.74-8.31a771.838 771.838 0 0 0-3.2-9.43 887.274 887.274 0 0 1-3.41-10.05c-1.16-3.407-2.336-6.8-3.53-10.18-1.193-3.38-2.33-6.633-3.41-9.76a606.016 606.016 0 0 0-3.11-8.8 479.145 479.145 0 0 1-2.62-7.4c-.886-2.52-1.663-4.75-2.33-6.69-.666-1.94-1.22-3.657-1.66-5.15l-.29.12v11.96c0 4.407-.07 8.907-.21 13.5-.14 4.593-.32 9.11-.54 13.55-.22 4.433-.483 8.727-.79 12.88-.306 4.153-.64 7.99-1 11.51-.28 2.907-.543 5.387-.79 7.44a49.305 49.305 0 0 1-.79 5.1 12.688 12.688 0 0 1-1 3.28 4.765 4.765 0 0 1-1.58 1.79 5.066 5.066 0 0 1-2.28.79 26.512 26.512 0 0 1-3.2.16h-3.49l-.58-.42a61.129 61.129 0 0 0 3.45-9 108.97 108.97 0 0 0 2.66-10.55c.747-3.7 1.414-7.537 2-11.51.554-4 1.01-7.973 1.37-11.92a458.8 458.8 0 0 0 .92-11.72c.247-3.847.427-7.513.54-11 .114-3.487.16-6.687.14-9.6.054-2.933.08-5.493.08-7.68a17.09 17.09 0 0 0-.29-3.49 4.39 4.39 0 0 0-1-2.16 3.527 3.527 0 0 0-2-1.12 12.837 12.837 0 0 0-3.24-.33c-1.056.01-2.111.08-3.16.21-1.193.107-2.51.273-3.95.5l-.46-3.65c5.067-1.167 9.234-2.027 12.5-2.58a47.117 47.117 0 0 1 7.81-.87 10.05 10.05 0 0 1 2.58.29 4.35 4.35 0 0 1 1.87.91 5.559 5.559 0 0 1 1.46 1.7c.48.834.882 1.712 1.2 2.62 1.467 4.1 3.017 8.463 4.65 13.09l5 14.16a2737.55 2737.55 0 0 1 5.11 14.5c1.694 4.847 3.344 9.513 4.95 14 .607 1.8 1.16 3.447 1.66 4.94.5 1.493.97 2.867 1.41 4.12.44 1.247.84 2.45 1.2 3.61.36 1.16.72 2.297 1.08 3.41h.29c.44-1.193.897-2.357 1.37-3.49.474-1.133.97-2.323 1.49-3.57.527-1.247 1.094-2.58 1.7-4 .607-1.42 1.314-3.01 2.12-4.77 1.94-4.433 3.94-9.03 6-13.79s4.22-9.613 6.48-14.56l6.73-15.16c2.274-5.12 4.557-10.257 6.85-15.41.229-.525.57-.992 1-1.37.424-.349.9-.629 1.41-.83a6.712 6.712 0 0 1 1.62-.45c.51-.082 1.025-.125 1.54-.13.884.009 1.763.119 2.62.33.956.19 1.888.482 2.78.87-.413 4.54-.786 8.873-1.12 13a383.9 383.9 0 0 0-.79 12.15c-.22 3.933-.413 7.823-.58 11.67-.166 3.847-.29 7.71-.37 11.59-.086 3.907-.156 7.907-.21 12a511.048 511.048 0 0 0 0 12.75 63.82 63.82 0 0 0 .38 7.52 17.397 17.397 0 0 0 1.29 5.11 6.47 6.47 0 0 0 2.53 2.87 7.785 7.785 0 0 0 3.95.91h1.66c.527 0 1.094-.057 1.7-.17.58-.107 1.217-.257 1.91-.45.694-.193 1.51-.443 2.45-.75l1.16 3.41a467.92 467.92 0 0 1-5.57 2.15Zm56.87-59.42c-.57.003-1.14.06-1.7.17a5.735 5.735 0 0 0-1.62.5 5.273 5.273 0 0 0-1.46.92 4.153 4.153 0 0 0-1 1.49c-1.44 3.573-2.936 7.327-4.49 11.26l-4.69 11.84c-1.553 4-3.09 7.973-4.61 11.92l-4.32 11.34a646.83 646.83 0 0 0-2.08-8.31c-.72-2.8-1.453-5.53-2.2-8.19-.72-2.667-1.44-5.243-2.16-7.73a813.732 813.732 0 0 0-2-6.81c-.666-2.107-1.26-3.977-1.78-5.61-.52-1.633-.976-2.99-1.37-4.07a29.04 29.04 0 0 0-1.75-4.11 9.98 9.98 0 0 0-1.83-2.58 5.195 5.195 0 0 0-1.91-1.33 5.557 5.557 0 0 0-2-.37 14.7 14.7 0 0 0-2.5.29 47.79 47.79 0 0 0-3.61.83c-1.353.36-2.836.79-4.45 1.29-1.573.5-3.193 1.053-4.86 1.66l.62 3a84.432 84.432 0 0 1 3.66-.79c.932-.187 1.88-.284 2.83-.29a6.356 6.356 0 0 1 2.12.33c.691.26 1.314.673 1.82 1.21a9.316 9.316 0 0 1 1.66 2.45 28.773 28.773 0 0 1 1.7 4c.554 1.58 1.177 3.463 1.87 5.65l2.24 7.06a373.765 373.765 0 0 1 2.45 8.06c.827 2.827 1.67 5.693 2.53 8.6.86 2.907 1.694 5.8 2.5 8.68.807 2.88 1.584 5.637 2.33 8.27l2 .29-.83 2.2c-1.913 4.987-3.66 9.32-5.24 13a63.47 63.47 0 0 1-4.65 9.26 18.54 18.54 0 0 1-5 5.53 10.09 10.09 0 0 1-6 1.87 13.023 13.023 0 0 1-3.2-.46 12.837 12.837 0 0 1-3.54-1.54 5.41 5.41 0 0 0-2.12 2.2 5.928 5.928 0 0 0-.83 2.87 5.008 5.008 0 0 0 .59 2.37c.404.79.986 1.475 1.7 2a8.005 8.005 0 0 0 2.66 1.37c1.139.373 2.332.555 3.53.54a13.774 13.774 0 0 0 5.73-1.16 16.995 16.995 0 0 0 4.78-3.2 24.22 24.22 0 0 0 3.95-4.78 57.154 57.154 0 0 0 3.37-5.94c1.107-2.3 2.187-4.78 3.24-7.44a5970.52 5970.52 0 0 1 3.28-8.26c1.107-2.853 2.244-5.817 3.41-8.89a309.399 309.399 0 0 1 3.69-9.26 762.21 762.21 0 0 1 3.95-9.43c1.36-3.187 2.76-6.373 4.2-9.56a617.321 617.321 0 0 1 4.24-9.35c1.414-3.047 2.84-5.97 4.28-8.77a304.812 304.812 0 0 1 4.11-7.94 124.795 124.795 0 0 1 3.9-6.77 14.412 14.412 0 0 0-2.45-1 8.624 8.624 0 0 0-2.68-.38h-.01Zm158.48 55-.79-2.16a30.224 30.224 0 0 1-4.69 1.7 17.371 17.371 0 0 1-4.28.58 8.414 8.414 0 0 1-2-.21 3.198 3.198 0 0 1-1.5-.87 6.058 6.058 0 0 1-1.08-2 20.644 20.644 0 0 1-.71-3.4c-.193-1.413-.333-3.143-.42-5.19-.086-2.047-.126-4.523-.12-7.43a221.082 221.082 0 0 1 .58-15.58c.22-2.96.497-6.02.83-9.18.334-3.16.737-6.33 1.21-9.51a11.096 11.096 0 0 0-5.24-1.29 9.439 9.439 0 0 0-1.66.16 5.104 5.104 0 0 0-1.66.54 3.407 3.407 0 0 0-1.95 2.99c-.22 3.547-.4 6.993-.54 10.34-.14 3.347-.25 6.52-.33 9.52-.08 2.987-.15 5.797-.21 8.43s-.06 4.967 0 7c0 3.547.07 6.567.21 9.06.14 2.493.334 4.57.58 6.23a19.69 19.69 0 0 0 1 3.95 7.022 7.022 0 0 0 1.37 2.2 3.34 3.34 0 0 0 1.75.91c.698.145 1.408.216 2.12.21a15.602 15.602 0 0 0 4.11-.66 36.45 36.45 0 0 0 4.9-1.66 46.215 46.215 0 0 0 4.73-2.28 25.51 25.51 0 0 0 3.8-2.39l-.01-.01Zm-41.54-63.09a57.945 57.945 0 0 1 1.78 15.16 69.862 69.862 0 0 1-1.54 14.83 59 59 0 0 1-4.49 13.17 50.872 50.872 0 0 1-7.23 11.09 44.7 44.7 0 0 1-9.72 8.56 45.982 45.982 0 0 1-12 5.48 50.403 50.403 0 0 1-14.13 1.91 59.915 59.915 0 0 1-7.94-.54 71.722 71.722 0 0 1-8.39-1.66l-8.22 1-.78-.1c.194-1.773.4-4.107.62-7 .22-2.893.427-6.3.62-10.22.22-3.873.427-8.18.62-12.92.194-4.74.36-9.85.5-15.33.167-5.48.29-11.253.37-17.32.08-6.067.12-12.367.12-18.9a31.771 31.771 0 0 0-.17-3.49 5.253 5.253 0 0 0-.87-2.5 3.996 3.996 0 0 0-2-1.49 10.783 10.783 0 0 0-3.66-.5 50.539 50.539 0 0 0-7 .62l-.42-3.7c2.94-.553 5.96-1.08 9.06-1.58 3.1-.5 6.23-.957 9.39-1.37 3.16-.387 6.317-.69 9.47-.91 3.154-.22 6.27-.35 9.35-.39a92.24 92.24 0 0 1 12.55.83 53.298 53.298 0 0 1 11.46 2.74 38.97 38.97 0 0 1 9.89 5.15 30.319 30.319 0 0 1 7.68 8 37.687 37.687 0 0 1 5.08 11.38Zm-9.93 18.48a64.582 64.582 0 0 0-2-16.74 33.34 33.34 0 0 0-6.57-13.08 29.837 29.837 0 0 0-11.84-8.52c-4.873-2.047-10.826-3.07-17.86-3.07-1.746 0-3.503.04-5.27.12-1.766.08-3.566.19-5.4.33 0 1.387-.04 3.45-.12 6.19-.08 2.74-.15 5.94-.21 9.6-.08 3.627-.19 7.6-.33 11.92s-.263 8.723-.37 13.21c-.14 4.487-.29 8.96-.45 13.42-.16 4.46-.326 8.67-.5 12.63a608.28 608.28 0 0 1-.54 10.8c-.193 3.24-.36 5.857-.5 7.85a52.798 52.798 0 0 0 7.56 1.46c2.327.22 4.61.33 6.85.33a41.095 41.095 0 0 0 12.46-1.74 32.087 32.087 0 0 0 9.68-4.86 30.816 30.816 0 0 0 7.1-7.48 40.967 40.967 0 0 0 4.78-9.47 54.516 54.516 0 0 0 2.7-11c.572-3.941.849-7.918.83-11.9Zm30.46-29.53a6.61 6.61 0 0 0 1.91 1.58c.8.4 1.686.599 2.58.58a5.552 5.552 0 0 0 2.78-.71 6.673 6.673 0 0 0 2.16-1.87 8.874 8.874 0 0 0 1.91-5.49 6.898 6.898 0 0 0-.45-2.53 6.045 6.045 0 0 0-1.25-2.12 5.344 5.344 0 0 0-1.91-1.41 5.78 5.78 0 0 0-2.53-.54 6.735 6.735 0 0 0-4.57 2 7.286 7.286 0 0 0-1.62 2.41 8.005 8.005 0 0 0-.62 3.28c.002.887.144 1.767.42 2.61.266.8.669 1.548 1.19 2.21Zm246 73.69a17.318 17.318 0 0 1-4.28.58 7.411 7.411 0 0 1-1.87-.21 3.006 3.006 0 0 1-1.37-.92 5.577 5.577 0 0 1-1-1.91 20.551 20.551 0 0 1-.62-3.28c-.14-1.333-.25-3-.33-5-.08-2-.106-4.353-.079-7.06 0-4.373.083-8.943.25-13.71.166-4.767.403-9.613.709-14.54.3-4.96.66-9.987 1.08-15.08.42-5.093.86-10.153 1.32-15.18.5-5.067 1.014-10.067 1.54-15 .527-4.933 1.08-9.767 1.661-14.5a12.003 12.003 0 0 0-5.24-1.33c-.726.001-1.449.072-2.161.21a7.11 7.11 0 0 0-1.909.66 3.712 3.712 0 0 0-1.37 1.16 2.886 2.886 0 0 0-.581 1.7c-.193 2.907-.4 6.257-.62 10.05l-.71 12.13c-.246 4.267-.496 8.7-.75 13.3-.253 4.6-.49 9.14-.709 13.62a5324.875 5324.875 0 0 0-1.151 24.7 980.07 980.07 0 0 0-.33 9.35c-.08 2.687-.12 4.733-.12 6.14 0 3.96.057 7.327.17 10.1.071 2.253.363 4.494.871 6.69a7.39 7.39 0 0 0 2 3.7 5.24 5.24 0 0 0 3.569 1.16 15.575 15.575 0 0 0 4.111-.66 36.768 36.768 0 0 0 4.899-1.66 46.833 46.833 0 0 0 4.731-2.29 25.44 25.44 0 0 0 3.779-2.45l-.789-2.16a30.322 30.322 0 0 1-4.68 1.69h-.021Zm96.87-8.86a15.445 15.445 0 0 1-2.33 5.07 7.557 7.557 0 0 1-3.41 2.62 12.476 12.476 0 0 1-4.479.75c-2.414 0-4.864-.07-7.351-.21-2.486-.14-5.153-.223-8-.25-2 0-4.186.097-6.56.29-2.373.193-4.88.47-7.52.83.274-2.8.524-6.067.75-9.8.227-3.733.451-7.693.671-11.88.219-4.18.413-8.487.579-12.92.167-4.433.307-8.74.421-12.92.14-4.207.249-8.18.329-11.92.08-3.74.164-7.037.25-9.89.08-2.853.137-5.14.171-6.86.033-1.72.033-2.633 0-2.74 0-1.773-.04-3.353-.12-4.74a8.992 8.992 0 0 0-.831-3.49 4.313 4.313 0 0 0-2.16-2.16 9.41 9.41 0 0 0-4.199-.75 45.16 45.16 0 0 0-7.271.75c-2.906.5-6.396 1.277-10.469 2.33l.42 3.45c1.44-.22 2.823-.37 4.149-.45 1.327-.08 2.45-.137 3.37-.17 1.096-.035 2.19.107 3.241.42a3.606 3.606 0 0 1 1.909 1.25c.477.672.764 1.459.831 2.28.151 1.1.221 2.21.209 3.32v13.88c0 4.793-.056 9.653-.17 14.58-.086 4.933-.21 9.863-.37 14.79a670.821 670.821 0 0 1-.62 14.46 366.564 366.564 0 0 1-.88 13.63 394.742 394.742 0 0 1-1.2 12.21l.75.08a69.199 69.199 0 0 1 9.06-1.58 74.05 74.05 0 0 1 8.221-.5c2.635-.009 5.27.132 7.89.42 2.44.28 4.696.587 6.769.92 2.074.333 4.014.667 5.82 1 1.607.265 3.232.405 4.86.42a11.74 11.74 0 0 0 5.15-1.08 8.743 8.743 0 0 0 3.86-3.74 23.25 23.25 0 0 0 2.411-7.43c.645-3.967.949-7.981.909-12l-3.61-.29a44.827 44.827 0 0 1-1.429 8.03l-.021-.01Zm16.41-31.15c-.14 3.333-.249 6.503-.329 9.51-.081 3.007-.151 5.817-.211 8.43v7c0 3.547.07 6.567.211 9.06.14 2.493.333 4.57.579 6.23a19.842 19.842 0 0 0 1 3.95 7.055 7.055 0 0 0 1.371 2.2 3.332 3.332 0 0 0 1.74.91 9.863 9.863 0 0 0 2.12.21 15.484 15.484 0 0 0 4.109-.67 36.938 36.938 0 0 0 4.901-1.66 46.8 46.8 0 0 0 4.729-2.29 25.295 25.295 0 0 0 3.78-2.45l-.79-2.16a30.224 30.224 0 0 1-4.69 1.7c-1.397.37-2.834.565-4.279.58a8.352 8.352 0 0 1-2-.21 3.188 3.188 0 0 1-1.5-.87 6.089 6.089 0 0 1-1.081-2 20.533 20.533 0 0 1-.71-3.41c-.193-1.413-.333-3.143-.42-5.19-.086-2.047-.126-4.523-.12-7.43a221.082 221.082 0 0 1 .581-15.58c.219-2.967.496-6.027.829-9.18.334-3.153.734-6.323 1.2-9.51a11.084 11.084 0 0 0-5.24-1.29 8.97 8.97 0 0 0-1.659.17 5.125 5.125 0 0 0-1.661.54 3.43 3.43 0 0 0-2 3c-.153 3.6-.3 7.073-.44 10.42l-.02-.01Zm-139.65 39.96 1.201 1.79a20.002 20.002 0 0 1-6.07 4.24 16.826 16.826 0 0 1-6.901 1.46 13.282 13.282 0 0 1-5-.92 10.793 10.793 0 0 1-3.95-2.7 12.684 12.684 0 0 1-2.57-4.57 20.132 20.132 0 0 1-.91-6.36v-2.16c0-.72.097-1.483.29-2.29h-.25a62.167 62.167 0 0 1-4.16 7.07 38.927 38.927 0 0 1-5.15 6.19 25.397 25.397 0 0 1-6 4.36 13.81 13.81 0 0 1-6.65 1.7 13.362 13.362 0 0 1-5.23-1 12.28 12.28 0 0 1-4.07-2.74 12.969 12.969 0 0 1-2.62-4.11 14.707 14.707 0 0 1-.91-5.24 16.194 16.194 0 0 1 1.33-6.64 18.405 18.405 0 0 1 3.74-5.36 23.252 23.252 0 0 1 5.73-4.07 38.144 38.144 0 0 1 7.23-2.87 50.487 50.487 0 0 1 8.27-1.7 66.582 66.582 0 0 1 8.89-.59c.194-1.74.344-3.43.45-5.07.107-1.64.177-3.44.21-5.4a13.815 13.815 0 0 0-1.08-5.69 11.303 11.303 0 0 0-2.83-3.95 11.476 11.476 0 0 0-3.81-2.27 13.67 13.67 0 0 0-4.41-.75 17.199 17.199 0 0 0-5 .62 9.393 9.393 0 0 0-3.32 1.7 6.478 6.478 0 0 0-1.83 2.58 9.03 9.03 0 0 0-.54 3.16c.012 1.364.252 2.716.71 4a16.089 16.089 0 0 0 2.16 3.91l-.17.46a10.746 10.746 0 0 1-4.78 1.16 8.352 8.352 0 0 1-2.66-.42A6.632 6.632 0 0 1 594 506a6.354 6.354 0 0 1-1.41-2 7.01 7.01 0 0 1-.5-2.7 9.598 9.598 0 0 1 1.16-4.61 15.756 15.756 0 0 1 3.16-3.95 23.24 23.24 0 0 1 4.53-3.2 34.892 34.892 0 0 1 5.32-2.37 33.66 33.66 0 0 1 5.48-1.49 27.094 27.094 0 0 1 5.15-.54c2.53-.063 5.05.33 7.44 1.16a11.936 11.936 0 0 1 5 3.41 13.284 13.284 0 0 1 2.87 5.29c.637 2.329.943 4.736.91 7.15 0 1.827-.083 3.827-.25 6a918.266 918.266 0 0 0-.5 6.9c-.193 2.38-.373 4.843-.54 7.39a100.82 100.82 0 0 0-.21 7.6c0 4 .734 7 2.2 9a7.004 7.004 0 0 0 5.86 3 14.198 14.198 0 0 0 7.15-2.35Zm-24-23.06c-2.046.06-4.083.2-6.11.42-1.944.196-3.872.53-5.77 1a27.242 27.242 0 0 0-5 1.74 15.002 15.002 0 0 0-4 2.7 11.424 11.424 0 0 0-2.62 3.78 12.344 12.344 0 0 0-1 5 14.417 14.417 0 0 0 .33 3.12c.225.917.604 1.79 1.12 2.58a6.004 6.004 0 0 0 2 1.79 6.17 6.17 0 0 0 2.87.62 9.597 9.597 0 0 0 3.86-.87 17.492 17.492 0 0 0 3.91-2.41 24.207 24.207 0 0 0 3.7-3.66 30.837 30.837 0 0 0 3.2-4.69 30.284 30.284 0 0 0 2.33-5.32 25.825 25.825 0 0 0 1.17-5.79l.01-.01Zm-99.23-50.58a6.61 6.61 0 0 0 1.91 1.58c.8.4 1.686.599 2.58.58a5.552 5.552 0 0 0 2.78-.71 6.673 6.673 0 0 0 2.16-1.87 8.98 8.98 0 0 0 1.91-5.49 6.839 6.839 0 0 0-.46-2.53 6.045 6.045 0 0 0-1.25-2.12 5.344 5.344 0 0 0-1.91-1.41 5.78 5.78 0 0 0-2.53-.54 6.735 6.735 0 0 0-4.57 2 7.286 7.286 0 0 0-1.62 2.41 8.005 8.005 0 0 0-.62 3.28c.002.887.144 1.767.42 2.61.266.8.669 1.548 1.19 2.21h.01Zm54.11 73.77a18.185 18.185 0 0 1-5 .79 9.49 9.49 0 0 1-5.15-1.29 8.744 8.744 0 0 1-3.2-3.7 19.717 19.717 0 0 1-1.62-5.94 62.328 62.328 0 0 1-.45-7.94c0-1.58.03-3.433.09-5.56s.144-4.44.25-6.94c.14-2.493.307-5.14.5-7.94.194-2.8.457-5.693.79-8.68 2.667.193 5.134.4 7.4.62 2.267.22 4.317.33 6.15.33 1.474.06 2.946-.123 4.36-.54a2.253 2.253 0 0 0 1.54-2.37 5.03 5.03 0 0 0-.13-1.08c-.08-.387-.19-.817-.33-1.29-2.045.34-4.117.494-6.19.46h-5.11l-3.45-.08c-1.22 0-2.48-.04-3.78-.12.554-5.453 1.22-10.98 2-16.58.78-5.6 1.764-11.043 2.95-16.33a8.506 8.506 0 0 0-2.08-.83c-.8-.203-1.624-.3-2.45-.29-.57.003-1.14.06-1.7.17a5.387 5.387 0 0 0-1.62.58c-.509.287-.96.667-1.33 1.12a4.232 4.232 0 0 0-.75 1.79c-.72 4.047-1.44 8.643-2.16 13.79a496.404 496.404 0 0 0-2 16.41 36.76 36.76 0 0 0-4.65.58 20.333 20.333 0 0 0-3.65 1 8.23 8.23 0 0 0-2.37 1.41c-.246.194-.448.44-.592.719-.143.28-.224.587-.238.901-.003.201.042.4.13.58 1.571-.37 3.17-.607 4.78-.71a80.546 80.546 0 0 1 6.11-.29c-.28 2.667-.53 5.367-.75 8.1-.22 2.733-.4 5.473-.54 8.22-.14 2.74-.25 5.453-.33 8.14-.08 2.687-.12 5.277-.12 7.77a56.38 56.38 0 0 0 .91 11.14 21.82 21.82 0 0 0 2.62 7 9.295 9.295 0 0 0 4 3.57 12.375 12.375 0 0 0 5.11 1 20.255 20.255 0 0 0 4.49-.54 34.377 34.377 0 0 0 4.9-1.54 52.659 52.659 0 0 0 5.15-2.37 64.729 64.729 0 0 0 5.19-3.12 4.365 4.365 0 0 0-1.29-2.74 37.705 37.705 0 0 1-6.4 2.63l.01-.01Zm-67.85-55.88a6.68 6.68 0 0 1 1.41 3.95 6.21 6.21 0 0 1-.62 2.82 6.069 6.069 0 0 1-1.78 2.08 7.914 7.914 0 0 1-2.7 1.33c-1.135.317-2.31.472-3.49.46a19.289 19.289 0 0 1-6.27-1.16l-.17.21a19.674 19.674 0 0 1 2.95 6.11c.551 2.041.827 4.146.82 6.26 0 2.179-.309 4.348-.92 6.44a24.738 24.738 0 0 1-2.53 5.94 25.97 25.97 0 0 1-3.95 5.15 27.08 27.08 0 0 1-5.11 4.07 25.891 25.891 0 0 1-6.07 2.66 23.842 23.842 0 0 1-6.77 1c-.606 0-1.216-.027-1.83-.08l-1.83-.21c-.919.176-1.813.469-2.66.87a9.819 9.819 0 0 0-2.12 1.37 6.173 6.173 0 0 0-1.41 1.7 3.561 3.561 0 0 0-.5 1.79 4.066 4.066 0 0 0 1.41 3.12 13.128 13.128 0 0 0 3.86 2.24 40.158 40.158 0 0 0 5.57 1.7l6.65 1.46c2.08.447 4.13.903 6.15 1.37a62.047 62.047 0 0 1 5.77 1.62 35.317 35.317 0 0 1 5.07 2.12 18.482 18.482 0 0 1 4 2.87 12.227 12.227 0 0 1 2.66 3.82 12.644 12.644 0 0 1 1 5.07 18.496 18.496 0 0 1-1.33 6.94 22.688 22.688 0 0 1-3.65 6.27 30.605 30.605 0 0 1-5.65 5.32 36.73 36.73 0 0 1-7.23 4.11 40.952 40.952 0 0 1-8.43 2.66 43.52 43.52 0 0 1-9.18 1 42.531 42.531 0 0 1-5.77-.42 36.988 36.988 0 0 1-6-1.25 31.214 31.214 0 0 1-5.65-2.2 20.49 20.49 0 0 1-4.74-3.24 14.88 14.88 0 0 1-3.24-4.41 12.918 12.918 0 0 1-1.2-5.69 15.128 15.128 0 0 1 .87-5.11 19.657 19.657 0 0 1 2.33-4.57 25.634 25.634 0 0 1 3.45-3.95 33.17 33.17 0 0 1 4.11-3.28 37.573 37.573 0 0 1 4.44-2.53A33.73 33.73 0 0 1 464 550l.08-.21a27.905 27.905 0 0 1-3-1.54 13.37 13.37 0 0 1-2.66-2 10.418 10.418 0 0 1-1.91-2.62 7.788 7.788 0 0 1-.71-3.37 7.474 7.474 0 0 1 1-3.78 11.725 11.725 0 0 1 2.5-3 16.94 16.94 0 0 1 3.28-2.29 29.36 29.36 0 0 1 3.45-1.66 23.01 23.01 0 0 1-5.73-3.2 20.604 20.604 0 0 1-4.24-4.45 20.299 20.299 0 0 1-2.62-5.4 20.705 20.705 0 0 1-.91-6.15 23.765 23.765 0 0 1 2.12-10.05 25.284 25.284 0 0 1 5.69-8 26.91 26.91 0 0 1 8.35-5.28 26.415 26.415 0 0 1 10-1.91 21.351 21.351 0 0 1 3.65.29c1.04.177 2.066.428 3.07.75.884.269 1.746.604 2.58 1 .8.333 1.547.667 2.24 1 1.054.527 2.077.997 3.07 1.41 1.133.404 2.328.6 3.53.58a9.602 9.602 0 0 0 3.2-.54 8.355 8.355 0 0 0 2.7-1.54 7.46 7.46 0 0 0 1.83-2.5 7.759 7.759 0 0 0 .71-3.37c.015-.18.015-.36 0-.54a4.677 4.677 0 0 0 0-.58l.54-.37a10.16 10.16 0 0 1 4.03 3.27l.01-.01Zm-46.56 70a20.57 20.57 0 0 0-4.65 3.61 17.138 17.138 0 0 0-3.24 4.9 15.207 15.207 0 0 0-1.16 6 12.935 12.935 0 0 0 1.75 6.85 15.762 15.762 0 0 0 4.57 4.82 20.469 20.469 0 0 0 6.27 2.82c2.221.601 4.51.91 6.81.92a26.897 26.897 0 0 0 8.72-1.41 23.08 23.08 0 0 0 7.27-3.86 18.478 18.478 0 0 0 5-5.82 14.877 14.877 0 0 0 1.87-7.35 7.694 7.694 0 0 0-.92-3.86 9.248 9.248 0 0 0-2.53-2.78 15.665 15.665 0 0 0-3.78-2 52.734 52.734 0 0 0-4.82-1.54 84.323 84.323 0 0 0-7.48-1.74 111.364 111.364 0 0 1-8.06-1.83 24.094 24.094 0 0 0-5.63 2.33l.01-.06ZM490 509.45a26.107 26.107 0 0 0-.42-4.61 25.017 25.017 0 0 0-1.16-4.57 19.603 19.603 0 0 0-2-4.11 14.958 14.958 0 0 0-2.83-3.32 12.11 12.11 0 0 0-8.31-3.12 11.626 11.626 0 0 0-4.28.75 11.258 11.258 0 0 0-3.32 2 13.023 13.023 0 0 0-2.5 3 19.171 19.171 0 0 0-1.66 3.57 25.701 25.701 0 0 0-1 3.82 25.591 25.591 0 0 0-.29 3.74 27.62 27.62 0 0 0 .42 4.69 25.378 25.378 0 0 0 1.25 4.57 22.587 22.587 0 0 0 2.08 4.15 16.702 16.702 0 0 0 2.95 3.41 13.352 13.352 0 0 0 3.82 2.29c1.484.568 3.062.849 4.65.83 1.37.017 2.73-.238 4-.75a11.581 11.581 0 0 0 3.24-2.08 12.62 12.62 0 0 0 2.41-3 20.102 20.102 0 0 0 1.62-3.62c.455-1.252.79-2.545 1-3.86.213-1.249.324-2.513.33-3.78Zm49.08 30.3c-1.397.37-2.834.565-4.28.58a8.466 8.466 0 0 1-2-.21 3.179 3.179 0 0 1-1.49-.87 6.133 6.133 0 0 1-1.08-2 20.748 20.748 0 0 1-.71-3.4c-.193-1.413-.333-3.143-.42-5.19-.086-2.047-.126-4.523-.12-7.43a221.082 221.082 0 0 1 .58-15.58c.22-2.96.497-6.02.83-9.18.334-3.16.737-6.33 1.21-9.51a11.087 11.087 0 0 0-5.24-1.29 9.439 9.439 0 0 0-1.66.16 5.104 5.104 0 0 0-1.66.54c-.531.254-.989.64-1.33 1.12a3.426 3.426 0 0 0-.62 1.87c-.22 3.547-.4 6.993-.54 10.34-.14 3.347-.25 6.52-.33 9.52-.08 2.987-.15 5.797-.21 8.43s-.06 4.967 0 7c0 3.547.07 6.567.21 9.06.14 2.493.334 4.57.58 6.23a19.69 19.69 0 0 0 1 3.95 7.022 7.022 0 0 0 1.37 2.2 3.34 3.34 0 0 0 1.75.91c.698.145 1.408.216 2.12.21a15.643 15.643 0 0 0 4.11-.66 36.45 36.45 0 0 0 4.9-1.66 46.215 46.215 0 0 0 4.73-2.28 25.558 25.558 0 0 0 3.78-2.45l-.79-2.16a30.211 30.211 0 0 1-4.65 1.75h-.04Zm312.72-48.94a9.59 9.59 0 0 0-.459-2.49c-.807.08-1.777.163-2.911.25a44.074 44.074 0 0 1-3.61.12h-5.33l-3.61-.08c-1.273 0-2.606-.04-4-.12.141-4.12.294-8.243.461-12.37.166-4.127.469-8.1.909-11.92a80.934 80.934 0 0 1 1.91-10.59 32.737 32.737 0 0 1 3.371-8.56 16.985 16.985 0 0 1 5.36-5.73 14.319 14.319 0 0 1 7.89-2.08 12.34 12.34 0 0 1 3.159.42 8.671 8.671 0 0 1 2.91 1.33 6.692 6.692 0 0 1 2.15 2.31 6.615 6.615 0 0 1 .831 3.41 9.691 9.691 0 0 1-.421 2.82 24.596 24.596 0 0 1-1.16 3.2l.17.45a9.808 9.808 0 0 0 4 1 7.522 7.522 0 0 0 2.74-.5 6.724 6.724 0 0 0 2.241-1.41 6.439 6.439 0 0 0 1.539-2.33 7.926 7.926 0 0 0 .581-3.11 9.205 9.205 0 0 0-1.161-4.41 11.729 11.729 0 0 0-3.329-3.86 16.616 16.616 0 0 0-5.311-2.78 21.772 21.772 0 0 0-7.15-1.08 24.758 24.758 0 0 0-5.609.67 23.415 23.415 0 0 0-5.651 2 28.905 28.905 0 0 0-5.44 3.53 30.38 30.38 0 0 0-4.9 5.19 37.34 37.34 0 0 0-4 6.89 44.887 44.887 0 0 0-2.97 8.72 121.312 121.312 0 0 0-1.46 7.23c-.393 2.327-.726 4.66-1 7a194.58 194.58 0 0 0-.62 7 259.284 259.284 0 0 0-.41 7.44 43.678 43.678 0 0 0-5.4.54A22.72 22.72 0 0 0 812 490a8.533 8.533 0 0 0-2.659 1.54 2.411 2.411 0 0 0-1 1.83 1.93 1.93 0 0 0 .159.79 20.56 20.56 0 0 1 5.57-1.08c2.214-.167 4.624-.263 7.23-.29-.053 8.333-.163 16.31-.33 23.93-.166 7.62-.47 14.697-.91 21.23-.446 6.533-1.113 12.473-2 17.82a63.45 63.45 0 0 1-3.57 13.67 23.12 23.12 0 0 1-5.61 8.76 11.418 11.418 0 0 1-8.099 3.11 14.606 14.606 0 0 1-3.611-.45 12.907 12.907 0 0 1-3.45-1.46 13.764 13.764 0 0 1-3.12-2.49 17.313 17.313 0 0 1-2.66-3.66 6.007 6.007 0 0 0-2.37.46 6.703 6.703 0 0 0-1.91 1.25 5.451 5.451 0 0 0-1.29 1.7 4.757 4.757 0 0 0-.46 2 5.578 5.578 0 0 0 1.16 3.37 10 10 0 0 0 3.12 2.82 17.65 17.65 0 0 0 4.74 1.91 23.662 23.662 0 0 0 13.33-.54 21.336 21.336 0 0 0 7.141-4.11 32.62 32.62 0 0 0 6.569-7.65 54.304 54.304 0 0 0 5.52-11.84 86.35 86.35 0 0 0 2.7-10.1c.774-3.68 1.44-7.557 2-11.63s1.047-8.24 1.461-12.5c.386-4.293.719-8.517 1-12.67.28-4.153.5-8.153.659-12 .167-3.88.307-7.467.42-10.76 2.827.193 5.417.4 7.77.62 2.354.22 4.487.317 6.401.29a12.624 12.624 0 0 0 4.359-.58 2.323 2.323 0 0 0 1.571-2.48h-.031Zm43.26 43.2a.884.884 0 0 1 .25.58.539.539 0 0 1-.12.33 34.616 34.616 0 0 1-5 5.65 31.35 31.35 0 0 1-5.57 4 24.293 24.293 0 0 1-5.86 2.33 23.003 23.003 0 0 1-5.9.79 20.489 20.489 0 0 1-9.14-2 21.926 21.926 0 0 1-7.15-5.56 26.649 26.649 0 0 1-4.69-8.27 30.967 30.967 0 0 1-1.66-10.22c.017-2.99.353-5.971 1-8.89a43.483 43.483 0 0 1 2.82-8.47 39.38 39.38 0 0 1 4.53-7.48 31.03 31.03 0 0 1 6-6 27.994 27.994 0 0 1 7.44-4 25.739 25.739 0 0 1 8.72-1.46 20.326 20.326 0 0 1 5.861.83 15.004 15.004 0 0 1 4.86 2.41 11.393 11.393 0 0 1 3.369 3.82 10.631 10.631 0 0 1 1.25 5.19 10.826 10.826 0 0 1-2.78 7.39 21.783 21.783 0 0 1-7.6 5.36 54.695 54.695 0 0 1-11.47 3.57 127.36 127.36 0 0 1-14.21 2v.71a33.532 33.532 0 0 0 1.331 9.72A24.68 24.68 0 0 0 865 533.8a17.515 17.515 0 0 0 5.57 4.86 14.175 14.175 0 0 0 6.9 1.75 17.937 17.937 0 0 0 7.64-1.83 28.22 28.22 0 0 0 8-6c.214.111.421.235.62.37.271.134.523.302.75.5.197.16.372.345.52.55l.06.01Zm-34.859-21.86a76.305 76.305 0 0 0 10.549-1.41 35.108 35.108 0 0 0 7.891-2.62 14.082 14.082 0 0 0 4.94-3.82 8.25 8.25 0 0 0 1.7-5.11 9.526 9.526 0 0 0-.671-3.57 8.206 8.206 0 0 0-1.79-2.87 7.914 7.914 0 0 0-2.7-2 8.236 8.236 0 0 0-3.409-.71 12.2 12.2 0 0 0-4.901 1 13.426 13.426 0 0 0-3.95 2.62 17.617 17.617 0 0 0-3.07 3.82 28.804 28.804 0 0 0-2.29 4.61 39.546 39.546 0 0 0-1.49 5 42.189 42.189 0 0 0-.82 5.06h.011Zm-72.941-56h15.61c.93-3.7 3.88-7.29 7-11.05 3.6-4.37 7.32-8.9 7.32-13.29 0-8.31-9.919-15.07-22.109-15.07-12.19 0-22.081 6.76-22.081 15.07 0 4.39 3.721 8.92 7.32 13.29 3.1 3.76 6.06 7.35 7 11.05h-.06Zm15.74 3.26v-1.57h-15.84v1.58h8.47l-7.37 1.58v1.58h7.37l-6.25 1.57v1.58h1.48a4.87 4.87 0 0 0 4.21 2.432 4.858 4.858 0 0 0 4.211-2.432h1.529v-1.58h-5.15l6.25-1.57V461h-6.269l7.359-1.57v-.02Z" fill="#fff"/></g><defs><clipPath id="a"><path fill="#fff" d="M0 0h1024v1024H0z"/></clipPath></defs></svg>