<svg width="1024" height="1024" viewBox="0 0 1024 1024" fill="none" xmlns="http://www.w3.org/2000/svg">
<g clip-path="url(#clip0_2_2853)">
<path d="M512 1024C794.77 1024 1024 794.77 1024 512C1024 229.23 794.77 0 512 0C229.23 0 0 229.23 0 512C0 794.77 229.23 1024 512 1024Z" fill="#56595B"/>
<path d="M232.85 544.61C231.184 545.217 229.634 545.713 228.2 546.1C226.888 546.49 225.552 546.797 224.2 547.02C223.006 547.21 221.799 547.307 220.59 547.31C219.15 547.341 217.724 547.025 216.43 546.39C215.163 545.74 214.118 544.727 213.43 543.48C212.546 541.806 211.954 539.993 211.68 538.12C211.255 535.398 211.061 532.645 211.1 529.89V520.29C211.1 518.023 211.127 515.63 211.18 513.11L211.26 505.34C211.314 502.707 211.37 500.173 211.43 497.74C211.49 495.307 211.547 493.007 211.6 490.84C211.654 488.707 211.71 486.89 211.77 485.39C211.91 482.15 212.06 478.923 212.22 475.71C212.38 472.497 212.63 469.327 212.97 466.2L212.64 466.08C212.167 467.327 211.6 468.753 210.94 470.36C210.28 471.967 209.437 473.88 208.41 476.1C205.97 481.473 203.477 487.04 200.93 492.8C198.384 498.56 195.824 504.443 193.25 510.45C190.677 516.45 188.074 522.53 185.44 528.69C182.807 534.85 180.19 541 177.59 547.14L175.59 547.06C175.01 545.18 174.304 542.963 173.47 540.41C172.637 537.857 171.724 535.087 170.73 532.1C169.737 529.107 168.67 525.963 167.53 522.67C166.39 519.377 165.254 516.027 164.12 512.62C162.96 509.213 161.784 505.82 160.59 502.44C159.397 499.06 158.26 495.807 157.18 492.68C156.1 489.553 155.064 486.62 154.07 483.88C153.077 481.14 152.204 478.673 151.45 476.48C150.564 473.96 149.787 471.73 149.12 469.79C148.454 467.85 147.9 466.133 147.46 464.64L147.17 464.76V476.72C147.17 481.127 147.1 485.627 146.96 490.22C146.82 494.813 146.64 499.33 146.42 503.77C146.2 508.203 145.937 512.497 145.63 516.65C145.324 520.803 144.99 524.64 144.63 528.16C144.35 531.067 144.087 533.547 143.84 535.6C143.666 537.313 143.402 539.015 143.05 540.7C142.867 541.833 142.53 542.937 142.05 543.98C141.684 544.701 141.14 545.317 140.47 545.77C139.785 546.213 139.003 546.484 138.19 546.56C137.128 546.678 136.059 546.731 134.99 546.72H131.5L130.92 546.3C132.305 543.395 133.459 540.386 134.37 537.3C135.397 533.967 136.284 530.45 137.03 526.75C137.777 523.05 138.444 519.213 139.03 515.24C139.584 511.24 140.04 507.267 140.4 503.32C140.76 499.373 141.067 495.467 141.32 491.6C141.567 487.753 141.747 484.087 141.86 480.6C141.974 477.113 142.02 473.913 142 471C142.054 468.067 142.08 465.507 142.08 463.32C142.103 462.15 142.006 460.98 141.79 459.83C141.662 459.032 141.316 458.284 140.79 457.67C140.267 457.085 139.563 456.69 138.79 456.55C137.729 456.303 136.64 456.192 135.55 456.22C134.494 456.23 133.439 456.3 132.39 456.43C131.197 456.537 129.88 456.703 128.44 456.93L127.98 453.28C133.047 452.113 137.214 451.253 140.48 450.7C143.055 450.193 145.667 449.902 148.29 449.83C149.159 449.815 150.027 449.912 150.87 450.12C151.558 450.268 152.2 450.58 152.74 451.03C153.337 451.492 153.834 452.07 154.2 452.73C154.68 453.564 155.082 454.442 155.4 455.35C156.867 459.45 158.417 463.813 160.05 468.44C161.684 473.067 163.35 477.787 165.05 482.6C166.764 487.42 168.467 492.253 170.16 497.1C171.854 501.947 173.504 506.613 175.11 511.1C175.717 512.9 176.27 514.547 176.77 516.04C177.27 517.533 177.74 518.907 178.18 520.16C178.62 521.407 179.02 522.61 179.38 523.77C179.74 524.93 180.1 526.067 180.46 527.18H180.75C181.19 525.987 181.647 524.823 182.12 523.69C182.594 522.557 183.09 521.367 183.61 520.12C184.137 518.873 184.704 517.54 185.31 516.12C185.917 514.7 186.624 513.11 187.43 511.35C189.37 506.917 191.37 502.32 193.43 497.56C195.49 492.8 197.65 487.947 199.91 483L206.64 467.84C208.914 462.72 211.197 457.583 213.49 452.43C213.719 451.905 214.06 451.438 214.49 451.06C214.914 450.711 215.39 450.431 215.9 450.23C216.419 450.013 216.964 449.861 217.52 449.78C218.03 449.698 218.545 449.655 219.06 449.65C219.944 449.659 220.823 449.769 221.68 449.98C222.636 450.17 223.568 450.462 224.46 450.85C224.047 455.39 223.674 459.723 223.34 463.85C223.007 467.977 222.744 472.027 222.55 476C222.33 479.933 222.137 483.823 221.97 487.67C221.804 491.517 221.68 495.38 221.6 499.26C221.514 503.167 221.444 507.167 221.39 511.26C221.337 515.353 221.337 519.603 221.39 524.01C221.369 526.522 221.495 529.033 221.77 531.53C221.938 533.289 222.373 535.012 223.06 536.64C223.595 537.83 224.477 538.831 225.59 539.51C226.804 540.157 228.167 540.471 229.54 540.42H231.2C231.727 540.42 232.294 540.363 232.9 540.25C233.48 540.143 234.117 539.993 234.81 539.8C235.504 539.607 236.32 539.357 237.26 539.05L238.42 542.46C236.4 543.253 234.544 543.97 232.85 544.61ZM289.72 485.19C289.15 485.193 288.58 485.25 288.02 485.36C287.459 485.445 286.913 485.614 286.4 485.86C285.867 486.084 285.373 486.395 284.94 486.78C284.502 487.198 284.161 487.706 283.94 488.27C282.5 491.843 281.004 495.597 279.45 499.53L274.76 511.37C273.207 515.37 271.67 519.343 270.15 523.29L265.83 534.63C265.164 531.89 264.47 529.12 263.75 526.32C263.03 523.52 262.297 520.79 261.55 518.13C260.83 515.463 260.11 512.887 259.39 510.4C258.67 507.913 258.004 505.643 257.39 503.59C256.724 501.483 256.13 499.613 255.61 497.98C255.09 496.347 254.634 494.99 254.24 493.91C253.763 492.497 253.178 491.123 252.49 489.8C252.021 488.848 251.403 487.977 250.66 487.22C250.132 486.638 249.479 486.183 248.75 485.89C248.112 485.645 247.434 485.519 246.75 485.52C245.91 485.545 245.074 485.642 244.25 485.81C243.197 486.003 241.994 486.28 240.64 486.64C239.287 487 237.804 487.43 236.19 487.93C234.617 488.43 232.997 488.983 231.33 489.59L231.95 492.59C233.364 492.257 234.584 491.993 235.61 491.8C236.542 491.613 237.49 491.516 238.44 491.51C239.161 491.499 239.878 491.611 240.56 491.84C241.251 492.1 241.874 492.513 242.38 493.05C243.06 493.773 243.621 494.6 244.04 495.5C244.707 496.789 245.275 498.126 245.74 499.5C246.294 501.08 246.917 502.963 247.61 505.15C248.304 507.337 249.05 509.69 249.85 512.21C250.657 514.757 251.474 517.443 252.3 520.27C253.127 523.097 253.97 525.963 254.83 528.87C255.69 531.777 256.524 534.67 257.33 537.55C258.137 540.43 258.914 543.187 259.66 545.82L261.66 546.11L260.83 548.31C258.917 553.297 257.17 557.63 255.59 561.31C254.295 564.518 252.74 567.615 250.94 570.57C249.665 572.733 247.964 574.614 245.94 576.1C244.191 577.346 242.089 578.001 239.94 577.97C238.859 577.95 237.784 577.796 236.74 577.51C235.489 577.178 234.296 576.659 233.2 575.97C232.297 576.484 231.561 577.248 231.08 578.17C230.563 579.04 230.277 580.028 230.25 581.04C230.248 581.867 230.451 582.681 230.84 583.41C231.244 584.2 231.826 584.885 232.54 585.41C233.333 586.03 234.236 586.495 235.2 586.78C236.339 587.153 237.532 587.335 238.73 587.32C240.701 587.348 242.655 586.952 244.46 586.16C246.224 585.373 247.84 584.29 249.24 582.96C250.756 581.542 252.084 579.936 253.19 578.18C254.431 576.269 255.556 574.285 256.56 572.24C257.667 569.94 258.747 567.46 259.8 564.8C260.854 562.14 261.947 559.387 263.08 556.54C264.187 553.687 265.324 550.723 266.49 547.65C267.657 544.577 268.887 541.49 270.18 538.39C271.454 535.29 272.77 532.147 274.13 528.96C275.49 525.773 276.89 522.587 278.33 519.4C279.744 516.213 281.157 513.097 282.57 510.05C283.984 507.003 285.41 504.08 286.85 501.28C288.264 498.453 289.634 495.807 290.96 493.34C292.287 490.873 293.587 488.617 294.86 486.57C294.076 486.162 293.256 485.828 292.41 485.57C291.543 485.303 290.638 485.175 289.73 485.19H289.72ZM448.2 540.19L447.41 538.03C445.897 538.725 444.328 539.293 442.72 539.73C441.323 540.101 439.886 540.295 438.44 540.31C437.768 540.32 437.096 540.25 436.44 540.1C435.87 539.954 435.351 539.653 434.94 539.23C434.457 538.638 434.091 537.959 433.86 537.23C433.528 536.119 433.291 534.981 433.15 533.83C432.957 532.417 432.817 530.687 432.73 528.64C432.644 526.593 432.604 524.117 432.61 521.21C432.61 519.077 432.654 516.693 432.74 514.06C432.827 511.427 432.977 508.617 433.19 505.63C433.41 502.67 433.687 499.61 434.02 496.45C434.354 493.29 434.757 490.12 435.23 486.94C433.617 486.086 431.817 485.642 429.99 485.65C429.433 485.654 428.878 485.708 428.33 485.81C427.75 485.893 427.189 486.076 426.67 486.35C426.139 486.603 425.681 486.989 425.34 487.47C424.954 488.018 424.738 488.669 424.72 489.34C424.5 492.887 424.32 496.333 424.18 499.68C424.04 503.027 423.93 506.2 423.85 509.2C423.77 512.187 423.7 514.997 423.64 517.63C423.58 520.263 423.58 522.597 423.64 524.63C423.64 528.177 423.71 531.197 423.85 533.69C423.99 536.183 424.184 538.26 424.43 539.92C424.626 541.268 424.961 542.592 425.43 543.87C425.746 544.682 426.211 545.428 426.8 546.07C427.279 546.543 427.889 546.86 428.55 546.98C429.248 547.125 429.958 547.196 430.67 547.19C432.064 547.154 433.446 546.933 434.78 546.53C436.451 546.093 438.088 545.539 439.68 544.87C441.299 544.2 442.878 543.439 444.41 542.59C445.745 541.906 447.016 541.107 448.21 540.2L448.2 540.19ZM406.66 477.1C407.919 482.053 408.518 487.15 408.44 492.26C408.457 497.244 407.941 502.216 406.9 507.09C405.928 511.642 404.421 516.062 402.41 520.26C400.493 524.256 398.063 527.984 395.18 531.35C392.373 534.66 389.099 537.543 385.46 539.91C381.745 542.304 377.703 544.149 373.46 545.39C368.865 546.693 364.107 547.336 359.33 547.3C356.675 547.296 354.022 547.116 351.39 546.76C348.563 546.374 345.762 545.82 343 545.1L334.78 546.1L334 546C334.194 544.227 334.4 541.893 334.62 539C334.84 536.107 335.047 532.7 335.24 528.78C335.46 524.907 335.667 520.6 335.86 515.86C336.054 511.12 336.22 506.01 336.36 500.53C336.527 495.05 336.65 489.277 336.73 483.21C336.81 477.143 336.85 470.843 336.85 464.31C336.857 463.144 336.801 461.979 336.68 460.82C336.608 459.926 336.309 459.066 335.81 458.32C335.32 457.623 334.619 457.101 333.81 456.83C332.628 456.454 331.39 456.285 330.15 456.33C327.806 456.374 325.467 456.581 323.15 456.95L322.73 453.25C325.67 452.697 328.69 452.17 331.79 451.67C334.89 451.17 338.02 450.713 341.18 450.3C344.34 449.913 347.497 449.61 350.65 449.39C353.804 449.17 356.92 449.04 360 449C364.198 448.991 368.391 449.268 372.55 449.83C376.46 450.317 380.303 451.236 384.01 452.57C387.537 453.804 390.867 455.538 393.9 457.72C396.93 459.892 399.534 462.604 401.58 465.72C403.893 469.205 405.61 473.051 406.66 477.1ZM396.73 495.58C396.798 489.937 396.125 484.309 394.73 478.84C393.536 474.047 391.292 469.58 388.16 465.76C384.979 461.984 380.911 459.057 376.32 457.24C371.447 455.193 365.494 454.17 358.46 454.17C356.714 454.17 354.957 454.21 353.19 454.29C351.424 454.37 349.624 454.48 347.79 454.62C347.79 456.007 347.75 458.07 347.67 460.81C347.59 463.55 347.52 466.75 347.46 470.41C347.38 474.037 347.27 478.01 347.13 482.33C346.99 486.65 346.867 491.053 346.76 495.54C346.62 500.027 346.47 504.5 346.31 508.96C346.15 513.42 345.984 517.63 345.81 521.59C345.644 525.55 345.464 529.15 345.27 532.39C345.077 535.63 344.91 538.247 344.77 540.24C347.251 540.91 349.778 541.398 352.33 541.7C354.657 541.92 356.94 542.03 359.18 542.03C363.398 542.093 367.601 541.506 371.64 540.29C375.119 539.23 378.392 537.587 381.32 535.43C384.09 533.353 386.491 530.824 388.42 527.95C390.417 525.014 392.024 521.83 393.2 518.48C394.48 514.917 395.384 511.23 395.9 507.48C396.472 503.539 396.749 499.562 396.73 495.58ZM427.19 466.05C427.722 466.693 428.37 467.229 429.1 467.63C429.9 468.03 430.786 468.229 431.68 468.21C432.653 468.221 433.612 467.976 434.46 467.5C435.307 467.039 436.044 466.402 436.62 465.63C437.855 464.066 438.528 462.132 438.53 460.14C438.54 459.276 438.387 458.418 438.08 457.61C437.813 456.825 437.388 456.104 436.83 455.49C436.307 454.883 435.655 454.401 434.92 454.08C434.129 453.711 433.264 453.527 432.39 453.54C430.667 453.597 429.031 454.313 427.82 455.54C427.124 456.226 426.573 457.046 426.2 457.95C425.765 458.988 425.554 460.105 425.58 461.23C425.582 462.117 425.724 462.997 426 463.84C426.266 464.64 426.669 465.388 427.19 466.05ZM673.19 539.74C671.794 540.111 670.356 540.306 668.91 540.32C668.281 540.33 667.652 540.259 667.04 540.11C666.507 539.937 666.032 539.619 665.67 539.19C665.216 538.625 664.876 537.976 664.67 537.28C664.375 536.205 664.167 535.108 664.05 534C663.91 532.667 663.8 531 663.72 529C663.64 527 663.614 524.647 663.641 521.94C663.641 517.567 663.724 512.997 663.891 508.23C664.057 503.463 664.294 498.617 664.6 493.69C664.9 488.73 665.26 483.703 665.68 478.61C666.1 473.517 666.54 468.457 667 463.43C667.5 458.363 668.014 453.363 668.54 448.43C669.067 443.497 669.62 438.663 670.201 433.93C668.578 433.094 666.786 432.639 664.961 432.6C664.235 432.601 663.512 432.672 662.8 432.81C662.136 432.938 661.493 433.16 660.891 433.47C660.346 433.739 659.876 434.137 659.521 434.63C659.151 435.121 658.948 435.716 658.94 436.33C658.747 439.237 658.54 442.587 658.32 446.38L657.61 458.51C657.364 462.777 657.114 467.21 656.86 471.81C656.607 476.41 656.37 480.95 656.151 485.43C655.931 489.917 655.724 494.25 655.531 498.43C655.337 502.61 655.16 506.51 655 510.13C654.86 513.677 654.75 516.793 654.67 519.48C654.59 522.167 654.55 524.213 654.55 525.62C654.55 529.58 654.607 532.947 654.72 535.72C654.791 537.973 655.083 540.214 655.591 542.41C655.885 543.811 656.58 545.096 657.591 546.11C658.596 546.924 659.868 547.337 661.16 547.27C662.554 547.235 663.936 547.013 665.271 546.61C666.941 546.172 668.578 545.618 670.17 544.95C671.789 544.276 673.368 543.511 674.901 542.66C676.23 541.957 677.495 541.137 678.68 540.21L677.891 538.05C676.379 538.741 674.814 539.306 673.211 539.74H673.19ZM770.06 530.88C769.598 532.697 768.808 534.415 767.73 535.95C766.871 537.135 765.687 538.045 764.32 538.57C762.886 539.092 761.367 539.346 759.841 539.32C757.427 539.32 754.977 539.25 752.49 539.11C750.004 538.97 747.337 538.887 744.49 538.86C742.49 538.86 740.304 538.957 737.93 539.15C735.557 539.343 733.05 539.62 730.41 539.98C730.684 537.18 730.934 533.913 731.16 530.18C731.387 526.447 731.611 522.487 731.831 518.3C732.05 514.12 732.244 509.813 732.41 505.38C732.577 500.947 732.717 496.64 732.831 492.46C732.971 488.253 733.08 484.28 733.16 480.54C733.24 476.8 733.324 473.503 733.41 470.65C733.49 467.797 733.547 465.51 733.581 463.79C733.614 462.07 733.614 461.157 733.581 461.05C733.581 459.277 733.541 457.697 733.461 456.31C733.421 455.103 733.139 453.916 732.63 452.82C732.198 451.861 731.43 451.093 730.47 450.66C729.146 450.092 727.709 449.835 726.271 449.91C723.831 449.963 721.4 450.214 719 450.66C716.094 451.16 712.604 451.937 708.531 452.99L708.951 456.44C710.391 456.22 711.774 456.07 713.1 455.99C714.427 455.91 715.55 455.853 716.47 455.82C717.566 455.785 718.66 455.927 719.711 456.24C720.466 456.439 721.136 456.878 721.62 457.49C722.097 458.162 722.384 458.949 722.451 459.77C722.602 460.87 722.672 461.98 722.66 463.09V476.97C722.66 481.763 722.604 486.623 722.49 491.55C722.404 496.483 722.28 501.413 722.12 506.34C721.961 511.267 721.754 516.087 721.5 520.8C721.281 525.513 720.987 530.057 720.62 534.43C720.254 538.803 719.854 542.873 719.42 546.64L720.17 546.72C723.152 545.993 726.179 545.465 729.23 545.14C731.959 544.821 734.703 544.654 737.451 544.64C740.086 544.631 742.721 544.772 745.341 545.06C747.781 545.34 750.037 545.647 752.11 545.98C754.184 546.313 756.124 546.647 757.93 546.98C759.537 547.245 761.162 547.385 762.79 547.4C764.567 547.434 766.328 547.065 767.94 546.32C769.588 545.509 770.938 544.201 771.8 542.58C773.017 540.257 773.832 537.745 774.211 535.15C774.856 531.183 775.16 527.169 775.12 523.15L771.51 522.86C771.279 525.575 770.8 528.262 770.081 530.89L770.06 530.88ZM786.47 499.73C786.33 503.063 786.221 506.233 786.141 509.24C786.06 512.247 785.99 515.057 785.93 517.67V524.67C785.93 528.217 786 531.237 786.141 533.73C786.281 536.223 786.474 538.3 786.72 539.96C786.917 541.308 787.252 542.631 787.72 543.91C788.037 544.722 788.502 545.467 789.091 546.11C789.566 546.581 790.172 546.898 790.831 547.02C791.528 547.166 792.238 547.237 792.951 547.23C794.344 547.193 795.727 546.967 797.06 546.56C798.731 546.122 800.368 545.567 801.961 544.9C803.579 544.226 805.158 543.461 806.69 542.61C808.021 541.907 809.286 541.087 810.47 540.16L809.68 538C808.167 538.695 806.598 539.263 804.99 539.7C803.593 540.07 802.156 540.265 800.711 540.28C800.038 540.291 799.366 540.22 798.711 540.07C798.14 539.924 797.621 539.623 797.211 539.2C796.728 538.607 796.362 537.929 796.13 537.2C795.797 536.086 795.56 534.945 795.42 533.79C795.227 532.377 795.087 530.647 795 528.6C794.914 526.553 794.874 524.077 794.88 521.17C794.88 519.037 794.924 516.653 795.01 514.02C795.097 511.387 795.247 508.577 795.461 505.59C795.68 502.623 795.957 499.563 796.29 496.41C796.624 493.257 797.024 490.087 797.49 486.9C795.877 486.045 794.077 485.602 792.25 485.61C791.693 485.615 791.137 485.672 790.591 485.78C790.01 485.864 789.449 486.046 788.93 486.32C788.352 486.585 787.858 487.006 787.505 487.536C787.151 488.066 786.953 488.684 786.93 489.32C786.777 492.92 786.63 496.393 786.49 499.74L786.47 499.73ZM646.82 539.69L648.021 541.48C646.279 543.259 644.22 544.697 641.951 545.72C639.78 546.689 637.428 547.186 635.05 547.18C633.34 547.198 631.642 546.886 630.05 546.26C628.548 545.667 627.198 544.744 626.1 543.56C624.935 542.233 624.059 540.676 623.53 538.99C622.888 536.932 622.581 534.785 622.62 532.63V530.47C622.62 529.75 622.717 528.987 622.91 528.18H622.66C621.431 530.625 620.041 532.987 618.5 535.25C617.002 537.486 615.276 539.56 613.35 541.44C611.574 543.179 609.553 544.648 607.35 545.8C605.312 546.917 603.025 547.502 600.7 547.5C598.908 547.521 597.129 547.181 595.47 546.5C593.943 545.87 592.559 544.938 591.4 543.76C590.275 542.568 589.386 541.174 588.78 539.65C588.161 537.973 587.852 536.197 587.87 534.41C587.84 532.128 588.294 529.865 589.2 527.77C590.117 525.774 591.384 523.959 592.94 522.41C594.633 520.771 596.565 519.398 598.67 518.34C600.976 517.139 603.399 516.178 605.9 515.47C608.605 514.673 611.371 514.105 614.17 513.77C617.117 513.375 620.087 513.178 623.06 513.18C623.254 511.44 623.404 509.75 623.51 508.11C623.617 506.47 623.687 504.67 623.72 502.71C623.766 500.758 623.398 498.819 622.64 497.02C621.994 495.514 621.029 494.166 619.81 493.07C618.7 492.073 617.406 491.302 616 490.8C614.582 490.31 613.092 490.056 611.59 490.05C609.902 490.01 608.218 490.219 606.59 490.67C605.381 491.009 604.252 491.587 603.27 492.37C602.456 493.065 601.828 493.952 601.44 494.95C601.073 495.963 600.89 497.033 600.9 498.11C600.912 499.474 601.152 500.826 601.61 502.11C602.145 503.508 602.872 504.824 603.77 506.02L603.6 506.48C602.118 507.231 600.482 507.628 598.82 507.64C597.917 507.645 597.019 507.503 596.16 507.22C595.37 506.953 594.637 506.539 594 506C593.405 505.431 592.926 504.752 592.59 504C592.247 503.142 592.077 502.224 592.09 501.3C592.084 499.69 592.483 498.105 593.25 496.69C594.084 495.211 595.151 493.878 596.41 492.74C597.787 491.496 599.308 490.422 600.94 489.54C602.645 488.603 604.424 487.81 606.26 487.17C608.042 486.52 609.875 486.021 611.74 485.68C613.436 485.336 615.161 485.155 616.89 485.14C619.42 485.077 621.94 485.47 624.33 486.3C626.262 486.988 627.984 488.163 629.33 489.71C630.679 491.231 631.661 493.041 632.2 495C632.837 497.329 633.143 499.736 633.11 502.15C633.11 503.977 633.027 505.977 632.86 508.15C632.694 510.323 632.527 512.623 632.36 515.05C632.167 517.43 631.987 519.893 631.82 522.44C631.654 524.987 631.584 527.52 631.61 530.04C631.61 534.04 632.344 537.04 633.81 539.04C634.466 539.982 635.344 540.749 636.366 541.272C637.388 541.795 638.523 542.059 639.67 542.04C642.222 541.914 644.692 541.102 646.82 539.69ZM622.82 516.63C620.774 516.69 618.737 516.83 616.71 517.05C614.766 517.246 612.838 517.58 610.94 518.05C609.221 518.466 607.547 519.049 605.94 519.79C604.47 520.468 603.119 521.38 601.94 522.49C600.82 523.559 599.928 524.845 599.32 526.27C598.642 527.849 598.302 529.552 598.32 531.27C598.316 532.319 598.427 533.365 598.65 534.39C598.875 535.307 599.254 536.18 599.77 536.97C600.293 537.71 600.977 538.322 601.77 538.76C602.663 539.195 603.648 539.407 604.64 539.38C605.974 539.361 607.288 539.065 608.5 538.51C609.904 537.882 611.219 537.071 612.41 536.1C613.772 535.016 615.012 533.789 616.11 532.44C617.319 530.978 618.39 529.408 619.31 527.75C620.255 526.055 621.036 524.274 621.64 522.43C622.25 520.551 622.643 518.608 622.81 516.64L622.82 516.63ZM523.59 466.05C524.122 466.693 524.77 467.229 525.5 467.63C526.3 468.03 527.186 468.229 528.08 468.21C529.053 468.221 530.012 467.976 530.86 467.5C531.707 467.039 532.444 466.402 533.02 465.63C533.629 464.853 534.105 463.981 534.43 463.05C534.757 462.114 534.926 461.131 534.93 460.14C534.938 459.275 534.782 458.417 534.47 457.61C534.203 456.825 533.778 456.104 533.22 455.49C532.697 454.883 532.045 454.401 531.31 454.08C530.519 453.711 529.654 453.527 528.78 453.54C527.057 453.597 525.421 454.313 524.21 455.54C523.514 456.226 522.963 457.046 522.59 457.95C522.155 458.988 521.944 460.105 521.97 461.23C521.972 462.117 522.114 462.997 522.39 463.84C522.656 464.64 523.059 465.388 523.58 466.05H523.59ZM577.7 539.82C576.079 540.315 574.396 540.581 572.7 540.61C570.896 540.679 569.109 540.231 567.55 539.32C566.153 538.416 565.043 537.133 564.35 535.62C563.502 533.737 562.956 531.733 562.73 529.68C562.411 527.046 562.261 524.394 562.28 521.74C562.28 520.16 562.31 518.307 562.37 516.18C562.43 514.053 562.514 511.74 562.62 509.24C562.76 506.747 562.927 504.1 563.12 501.3C563.314 498.5 563.577 495.607 563.91 492.62C566.577 492.813 569.044 493.02 571.31 493.24C573.577 493.46 575.627 493.57 577.46 493.57C578.934 493.63 580.406 493.447 581.82 493.03C582.309 492.87 582.729 492.548 583.009 492.117C583.289 491.686 583.413 491.172 583.36 490.66C583.356 490.296 583.312 489.934 583.23 489.58C583.15 489.193 583.04 488.763 582.9 488.29C580.855 488.63 578.783 488.784 576.71 488.75H571.6L568.15 488.67C566.93 488.67 565.67 488.63 564.37 488.55C564.924 483.097 565.59 477.57 566.37 471.97C567.15 466.37 568.134 460.927 569.32 455.64C568.667 455.273 567.967 454.994 567.24 454.81C566.44 454.607 565.616 454.51 564.79 454.52C564.22 454.523 563.65 454.58 563.09 454.69C562.523 454.795 561.976 454.991 561.47 455.27C560.961 455.557 560.51 455.937 560.14 456.39C559.755 456.92 559.498 457.533 559.39 458.18C558.67 462.227 557.95 466.823 557.23 471.97C556.51 477.117 555.844 482.587 555.23 488.38C553.67 488.474 552.117 488.668 550.58 488.96C549.335 489.179 548.113 489.514 546.93 489.96C546.067 490.293 545.265 490.77 544.56 491.37C544.314 491.564 544.112 491.81 543.968 492.089C543.825 492.369 543.744 492.676 543.73 492.99C543.727 493.191 543.772 493.39 543.86 493.57C545.431 493.2 547.03 492.963 548.64 492.86C550.52 492.693 552.557 492.597 554.75 492.57C554.47 495.237 554.22 497.937 554 500.67C553.78 503.403 553.6 506.143 553.46 508.89C553.32 511.63 553.21 514.343 553.13 517.03C553.05 519.717 553.01 522.307 553.01 524.8C552.944 528.534 553.248 532.266 553.92 535.94C554.384 538.407 555.271 540.775 556.54 542.94C557.494 544.497 558.885 545.739 560.54 546.51C562.154 547.202 563.895 547.543 565.65 547.51C567.163 547.498 568.669 547.317 570.14 546.97C571.81 546.579 573.448 546.065 575.04 545.43C576.798 544.733 578.517 543.942 580.19 543.06C581.937 542.12 583.667 541.08 585.38 539.94C585.291 538.902 584.833 537.93 584.09 537.2C582.042 538.271 579.9 539.151 577.69 539.83L577.7 539.82ZM509.85 483.94C510.732 485.071 511.226 486.456 511.26 487.89C511.278 488.866 511.065 489.832 510.64 490.71C510.213 491.53 509.604 492.241 508.86 492.79C508.054 493.402 507.137 493.853 506.16 494.12C505.025 494.437 503.85 494.592 502.67 494.58C500.531 494.544 498.412 494.152 496.4 493.42L496.23 493.63C497.56 495.481 498.558 497.548 499.18 499.74C499.731 501.781 500.007 503.886 500 506C500 508.179 499.691 510.348 499.08 512.44C498.5 514.522 497.649 516.519 496.55 518.38C495.454 520.255 494.127 521.985 492.6 523.53C491.067 525.088 489.352 526.454 487.49 527.6C485.589 528.743 483.549 529.637 481.42 530.26C479.224 530.917 476.943 531.254 474.65 531.26C474.044 531.26 473.434 531.233 472.82 531.18L470.99 530.97C470.071 531.146 469.177 531.439 468.33 531.84C467.568 532.203 466.855 532.664 466.21 533.21C465.642 533.687 465.164 534.263 464.8 534.91C464.478 535.452 464.305 536.07 464.3 536.7C464.294 537.291 464.417 537.877 464.66 538.416C464.904 538.955 465.262 539.434 465.71 539.82C466.86 540.782 468.165 541.539 469.57 542.06C471.384 542.761 473.245 543.329 475.14 543.76L481.79 545.22C483.87 545.667 485.92 546.123 487.94 546.59C489.96 547.057 491.884 547.597 493.71 548.21C495.453 548.784 497.148 549.493 498.78 550.33C500.236 551.104 501.581 552.07 502.78 553.2C503.903 554.291 504.806 555.588 505.44 557.02C506.119 558.623 506.459 560.349 506.44 562.09C506.447 564.467 505.995 566.824 505.11 569.03C504.238 571.302 503.005 573.419 501.46 575.3C499.81 577.306 497.912 579.093 495.81 580.62C493.564 582.259 491.138 583.638 488.58 584.73C485.875 585.918 483.048 586.81 480.15 587.39C477.135 588.048 474.057 588.383 470.97 588.39C469.04 588.381 467.112 588.241 465.2 587.97C463.169 587.72 461.162 587.302 459.2 586.72C457.25 586.172 455.358 585.435 453.55 584.52C451.826 583.668 450.23 582.577 448.81 581.28C447.467 580.023 446.368 578.528 445.57 576.87C444.743 575.089 444.332 573.143 444.37 571.18C444.364 569.439 444.658 567.711 445.24 566.07C445.814 564.451 446.597 562.915 447.57 561.5C448.582 560.069 449.738 558.745 451.02 557.55C452.301 556.349 453.676 555.253 455.13 554.27C456.551 553.327 458.035 552.481 459.57 551.74C461.004 551.056 462.485 550.475 464 550L464.08 549.79C463.05 549.338 462.048 548.823 461.08 548.25C460.114 547.697 459.22 547.025 458.42 546.25C457.651 545.482 457.006 544.598 456.51 543.63C456.025 542.574 455.782 541.422 455.8 540.26C455.792 538.934 456.137 537.629 456.8 536.48C457.46 535.347 458.305 534.333 459.3 533.48C460.299 532.59 461.4 531.821 462.58 531.19C463.774 530.523 464.924 529.97 466.03 529.53C463.977 528.743 462.048 527.665 460.3 526.33C458.672 525.067 457.243 523.567 456.06 521.88C454.924 520.22 454.041 518.4 453.44 516.48C452.829 514.488 452.522 512.414 452.53 510.33C452.496 506.865 453.219 503.435 454.65 500.28C456.006 497.267 457.939 494.549 460.34 492.28C462.774 490.02 465.605 488.229 468.69 487C471.868 485.721 475.265 485.072 478.69 485.09C479.913 485.082 481.134 485.179 482.34 485.38C483.38 485.557 484.406 485.808 485.41 486.13C486.294 486.399 487.156 486.734 487.99 487.13C488.79 487.463 489.537 487.797 490.23 488.13C491.284 488.657 492.307 489.127 493.3 489.54C494.433 489.944 495.628 490.14 496.83 490.12C497.92 490.123 499.002 489.94 500.03 489.58C501.019 489.24 501.935 488.717 502.73 488.04C503.508 487.344 504.132 486.492 504.56 485.54C505.046 484.484 505.289 483.332 505.27 482.17C505.285 481.99 505.285 481.81 505.27 481.63C505.282 481.437 505.282 481.243 505.27 481.05L505.81 480.68C507.414 481.403 508.803 482.53 509.84 483.95L509.85 483.94ZM463.29 553.94C461.575 554.914 460.009 556.13 458.64 557.55C457.286 558.985 456.19 560.642 455.4 562.45C454.611 564.351 454.217 566.392 454.24 568.45C454.176 570.852 454.782 573.224 455.99 575.3C457.154 577.213 458.712 578.857 460.56 580.12C462.476 581.407 464.596 582.36 466.83 582.94C469.051 583.541 471.34 583.85 473.64 583.86C476.605 583.874 479.551 583.397 482.36 582.45C484.995 581.609 487.458 580.302 489.63 578.59C491.686 577.021 493.389 575.038 494.63 572.77C495.878 570.523 496.522 567.99 496.5 565.42C496.536 564.075 496.219 562.744 495.58 561.56C494.936 560.47 494.075 559.524 493.05 558.78C491.888 557.944 490.616 557.271 489.27 556.78C487.804 556.227 486.197 555.713 484.45 555.24C482.097 554.573 479.604 553.993 476.97 553.5C474.337 553.007 471.65 552.397 468.91 551.67C466.943 552.205 465.051 552.988 463.28 554L463.29 553.94ZM490 509.45C489.997 507.904 489.856 506.361 489.58 504.84C489.338 503.284 488.95 501.754 488.42 500.27C487.916 498.827 487.245 497.448 486.42 496.16C485.644 494.921 484.691 493.803 483.59 492.84C481.315 490.786 478.346 489.671 475.28 489.72C473.819 489.699 472.367 489.953 471 490.47C469.786 490.94 468.663 491.616 467.68 492.47C466.701 493.338 465.858 494.35 465.18 495.47C464.506 496.6 463.949 497.796 463.52 499.04C463.089 500.286 462.755 501.563 462.52 502.86C462.332 504.098 462.235 505.348 462.23 506.6C462.236 508.172 462.377 509.742 462.65 511.29C462.923 512.849 463.342 514.379 463.9 515.86C464.449 517.311 465.146 518.702 465.98 520.01C466.805 521.275 467.797 522.422 468.93 523.42C470.066 524.392 471.358 525.166 472.75 525.71C474.234 526.278 475.812 526.559 477.4 526.54C478.77 526.557 480.13 526.302 481.4 525.79C482.589 525.282 483.684 524.579 484.64 523.71C485.592 522.839 486.405 521.827 487.05 520.71C487.708 519.559 488.251 518.347 488.67 517.09C489.125 515.838 489.46 514.545 489.67 513.23C489.883 511.981 489.994 510.717 490 509.45ZM539.08 539.75C537.683 540.12 536.246 540.315 534.8 540.33C534.128 540.34 533.456 540.269 532.8 540.12C532.233 539.973 531.717 539.672 531.31 539.25C530.829 538.657 530.462 537.978 530.23 537.25C529.899 536.139 529.661 535.001 529.52 533.85C529.327 532.437 529.187 530.707 529.1 528.66C529.014 526.613 528.974 524.137 528.98 521.23C528.98 519.097 529.024 516.713 529.11 514.08C529.197 511.447 529.347 508.637 529.56 505.65C529.78 502.69 530.057 499.63 530.39 496.47C530.724 493.31 531.127 490.14 531.6 486.96C529.986 486.105 528.187 485.662 526.36 485.67C525.803 485.674 525.248 485.728 524.7 485.83C524.12 485.913 523.559 486.096 523.04 486.37C522.509 486.624 522.051 487.01 521.71 487.49C521.325 488.039 521.109 488.689 521.09 489.36C520.87 492.907 520.69 496.353 520.55 499.7C520.41 503.047 520.3 506.22 520.22 509.22C520.14 512.207 520.07 515.017 520.01 517.65C519.95 520.283 519.95 522.617 520.01 524.65C520.01 528.197 520.08 531.217 520.22 533.71C520.36 536.203 520.554 538.28 520.8 539.94C520.996 541.288 521.331 542.612 521.8 543.89C522.116 544.702 522.581 545.448 523.17 546.09C523.649 546.563 524.259 546.88 524.92 547C525.618 547.145 526.328 547.216 527.04 547.21C528.434 547.174 529.816 546.952 531.15 546.55C532.821 546.113 534.458 545.559 536.05 544.89C537.669 544.22 539.248 543.459 540.78 542.61C542.11 541.906 543.375 541.086 544.56 540.16L543.77 538C542.271 538.71 540.716 539.295 539.12 539.75H539.08ZM851.8 490.81C851.758 489.963 851.603 489.126 851.341 488.32C850.534 488.4 849.564 488.483 848.43 488.57C847.297 488.657 846.094 488.697 844.82 488.69H839.49L835.88 488.61C834.607 488.61 833.274 488.57 831.88 488.49C832.021 484.37 832.174 480.247 832.341 476.12C832.507 471.993 832.81 468.02 833.25 464.2C833.651 460.632 834.289 457.094 835.16 453.61C835.875 450.612 837.01 447.731 838.531 445.05C839.846 442.748 841.681 440.786 843.891 439.32C846.263 437.876 849.004 437.154 851.781 437.24C852.848 437.243 853.91 437.384 854.94 437.66C855.984 437.919 856.971 438.37 857.85 438.99C858.741 439.578 859.478 440.37 860 441.3C860.579 442.341 860.866 443.519 860.831 444.71C860.83 445.666 860.689 446.616 860.41 447.53C860.098 448.622 859.71 449.691 859.25 450.73L859.42 451.18C860.668 451.793 862.031 452.134 863.42 452.18C864.357 452.185 865.286 452.016 866.16 451.68C866.993 451.363 867.755 450.884 868.401 450.27C869.078 449.615 869.604 448.82 869.94 447.94C870.341 446.953 870.538 445.895 870.521 444.83C870.51 443.286 870.111 441.77 869.36 440.42C868.547 438.905 867.41 437.587 866.031 436.56C864.444 435.319 862.644 434.377 860.72 433.78C858.414 433.024 855.997 432.659 853.57 432.7C851.681 432.709 849.799 432.933 847.961 433.37C845.999 433.792 844.1 434.464 842.31 435.37C840.37 436.339 838.545 437.523 836.87 438.9C835.039 440.431 833.394 442.173 831.97 444.09C830.395 446.237 829.054 448.547 827.97 450.98C826.684 453.777 825.688 456.699 825 459.7C824.42 462.193 823.934 464.603 823.54 466.93C823.147 469.257 822.814 471.59 822.54 473.93C822.294 476.23 822.087 478.563 821.92 480.93C821.754 483.297 821.617 485.777 821.51 488.37C819.701 488.438 817.898 488.618 816.11 488.91C814.709 489.144 813.333 489.509 812 490C811.028 490.348 810.127 490.87 809.341 491.54C809.047 491.751 808.805 492.025 808.632 492.341C808.459 492.658 808.359 493.01 808.341 493.37C808.338 493.642 808.392 493.911 808.5 494.16C810.298 493.544 812.173 493.181 814.07 493.08C816.284 492.913 818.694 492.817 821.3 492.79C821.247 501.123 821.137 509.1 820.97 516.72C820.804 524.34 820.5 531.417 820.06 537.95C819.614 544.483 818.947 550.423 818.06 555.77C817.383 560.445 816.185 565.03 814.49 569.44C813.31 572.748 811.391 575.744 808.88 578.2C806.695 580.262 803.785 581.379 800.781 581.31C799.563 581.311 798.35 581.16 797.17 580.86C795.956 580.544 794.793 580.052 793.72 579.4C792.565 578.726 791.514 577.888 790.6 576.91C789.557 575.812 788.663 574.581 787.94 573.25C787.128 573.241 786.321 573.398 785.57 573.71C784.867 574.014 784.221 574.437 783.66 574.96C783.122 575.436 782.684 576.014 782.37 576.66C782.073 577.285 781.916 577.968 781.91 578.66C781.918 579.88 782.325 581.064 783.07 582.03C783.899 583.181 784.962 584.142 786.19 584.85C787.669 585.713 789.266 586.357 790.93 586.76C795.334 587.862 799.961 587.675 804.26 586.22C806.885 585.327 809.31 583.931 811.401 582.11C813.974 579.916 816.19 577.335 817.97 574.46C820.28 570.75 822.133 566.774 823.49 562.62C824.593 559.311 825.495 555.938 826.19 552.52C826.964 548.84 827.63 544.963 828.19 540.89C828.75 536.817 829.237 532.65 829.651 528.39C830.037 524.097 830.37 519.873 830.651 515.72C830.931 511.567 831.151 507.567 831.31 503.72C831.477 499.84 831.617 496.253 831.73 492.96C834.557 493.153 837.147 493.36 839.5 493.58C841.854 493.8 843.987 493.897 845.901 493.87C847.377 493.933 848.852 493.737 850.26 493.29C850.768 493.121 851.201 492.782 851.488 492.33C851.774 491.878 851.895 491.341 851.831 490.81H851.8ZM895.06 534.01C895.212 534.166 895.301 534.373 895.31 534.59C895.308 534.71 895.266 534.826 895.19 534.92C893.734 536.98 892.058 538.874 890.19 540.57C888.485 542.103 886.618 543.444 884.62 544.57C882.776 545.598 880.807 546.381 878.76 546.9C876.836 547.418 874.853 547.683 872.86 547.69C869.7 547.737 866.572 547.053 863.72 545.69C860.976 544.355 858.541 542.461 856.57 540.13C854.524 537.677 852.935 534.876 851.88 531.86C850.757 528.571 850.196 525.116 850.22 521.64C850.237 518.65 850.573 515.669 851.22 512.75C851.867 509.837 852.812 506.999 854.04 504.28C855.268 501.626 856.787 499.117 858.57 496.8C860.286 494.534 862.305 492.516 864.57 490.8C866.834 489.098 869.342 487.749 872.01 486.8C874.811 485.814 877.761 485.32 880.73 485.34C882.714 485.329 884.688 485.609 886.591 486.17C888.344 486.671 889.99 487.488 891.451 488.58C892.848 489.583 894 490.889 894.82 492.4C895.671 493.996 896.102 495.782 896.07 497.59C896.107 500.315 895.114 502.954 893.29 504.98C891.172 507.293 888.58 509.121 885.69 510.34C882.01 511.947 878.163 513.145 874.22 513.91C869.525 514.843 864.781 515.511 860.01 515.91V516.62C859.975 519.908 860.423 523.183 861.341 526.34C862.13 529.016 863.368 531.538 865 533.8C866.49 535.798 868.389 537.455 870.57 538.66C872.684 539.821 875.059 540.423 877.47 540.41C880.121 540.372 882.73 539.747 885.11 538.58C888.113 537.072 890.822 535.04 893.11 532.58C893.324 532.691 893.531 532.815 893.73 532.95C894.001 533.084 894.253 533.252 894.48 533.45C894.677 533.61 894.852 533.795 895 534L895.06 534.01ZM860.201 512.15C863.746 511.926 867.271 511.455 870.75 510.74C873.475 510.182 876.124 509.303 878.641 508.12C880.552 507.233 882.241 505.927 883.581 504.3C884.703 502.835 885.302 501.036 885.281 499.19C885.288 497.968 885.061 496.756 884.61 495.62C884.219 494.55 883.61 493.572 882.82 492.75C882.074 491.898 881.153 491.216 880.12 490.75C879.047 490.273 877.885 490.031 876.711 490.04C875.026 490.031 873.357 490.372 871.81 491.04C870.349 491.672 869.011 492.559 867.86 493.66C866.664 494.784 865.63 496.07 864.79 497.48C863.891 498.945 863.124 500.488 862.5 502.09C861.894 503.722 861.396 505.392 861.01 507.09C860.634 508.758 860.361 510.448 860.19 512.15H860.201ZM787.26 456.15H802.87C803.8 452.45 806.75 448.86 809.87 445.1C813.47 440.73 817.19 436.2 817.19 431.81C817.19 423.5 807.271 416.74 795.081 416.74C782.891 416.74 773 423.5 773 431.81C773 436.2 776.721 440.73 780.32 445.1C783.42 448.86 786.38 452.45 787.32 456.15H787.26ZM803 459.41V457.84H787.16V459.42H795.63L788.26 461V462.58H795.63L789.38 464.15V465.73H790.86C791.287 466.469 791.901 467.083 792.64 467.51C793.379 467.937 794.217 468.162 795.07 468.162C795.924 468.162 796.762 467.937 797.501 467.51C798.24 467.083 798.854 466.469 799.281 465.73H800.81V464.15H795.66L801.91 462.58V461H795.641L803 459.43V459.41Z" fill="white"/>
</g>
<defs>
<clipPath id="clip0_2_2853">
<rect width="1024" height="1024" fill="white"/>
</clipPath>
</defs>
</svg>
