<svg width="1024" height="1024" fill="none" xmlns="http://www.w3.org/2000/svg"><g clip-path="url(#a)"><path d="M512 1024c282.77 0 512-229.23 512-512S794.77 0 512 0 0 229.23 0 512s229.23 512 512 512Z" fill="#728DBE"/><path d="M432.49 410.61V590.3l-44.86-.06V479l-43.31 51.29-42.43-52.44-.43 112.75H256V410.65h47l39.79 54.29 43-54.31 46.7-.02Zm184.06 44.14.53 135.15h-50.45l-.17-61.25h-59.73c1.49 10.65 4.48 27 8.9 38 3.31 8.13 6.36 16 12.44 24.06l-36.37 24c-7.45-13.57-13.27-28.52-18.73-44.42a198.343 198.343 0 0 1-10.82-46.49c-1.81-16-2.07-31.38 2.28-47.19a83.368 83.368 0 0 1 24.77-39.81c6.68-6.25 16-10.67 23.47-14.66 7.47-3.99 15.85-5.63 23.62-7.66a158.043 158.043 0 0 1 25.41-3.9c8.49-.73 23.62-1.41 51-.6l11.63 37.31h-58.78c-12.65.17-18.73 0-28.61 4.46a47.706 47.706 0 0 0-27.26 41l56.81.7.81-38.61h49.26l-.01-.09ZM701.72 410v141.35L768 552l-9.17 37.87H656.28V409.33l45.44.67Z" fill="#fff"/></g><defs><clipPath id="a"><path fill="#fff" d="M0 0h1024v1024H0z"/></clipPath></defs></svg>