<svg width="1024" height="1024" viewBox="0 0 1024 1024" fill="none" xmlns="http://www.w3.org/2000/svg">
<g clip-path="url(#clip0_2_2859)">
<path d="M512 1024C794.77 1024 1024 794.77 1024 512C1024 229.23 794.77 0 512 0C229.23 0 0 229.23 0 512C0 794.77 229.23 1024 512 1024Z" fill="#F8C18C"/>
<path d="M546.68 712.35C519.57 712.35 518.68 626.87 525.13 588.59C525.89 588.67 531.78 589.27 533.37 589.53C539 590.014 544.669 589.337 550.025 587.539C555.382 585.741 560.312 582.862 564.51 579.08C567.76 581.53 565.68 591.6 576.62 593.64C587.2 595.64 593.78 588.39 602.69 581.99C603.21 581.61 615.9 570.68 617.94 560.67C619.68 552.11 615.32 541.07 614.48 538.55C615.65 534.09 645.14 511.08 623.48 486.79C624.48 460.05 591.54 423.79 579 424.79C576.1 396.6 548.19 382.9 539.8 385.79C533.16 388.07 534.08 374.66 514.26 375.53C502.96 375.53 498.9 378.41 495.2 378.53C482.43 378.82 482.59 384.66 477.44 384.31C455.44 382.8 463.44 392.31 452.01 395.98C452.01 395.98 435.62 402.62 436.21 414.35C425.44 417.92 414.3 434.82 412.37 445.16C399.66 454.23 385.2 486.88 394.01 492.49C397.2 494.49 388.49 507.56 386.2 513.6C386.03 514.06 380.2 523.02 398.2 534.4C402.37 537.04 387.56 543.4 388.46 551.93C388.56 552.93 389.46 570.25 405.29 574.21L409.96 576.67C409.96 576.67 414.96 590.73 430.54 593.67C445.92 596.58 451.54 590.11 455.66 590.11C460.42 590.11 461.66 596.66 468.25 594.27C472.12 592.86 478.09 585.63 484.41 585.89C487.46 586.01 496.6 586.54 496.75 586.55C505.18 638.55 500.93 716.94 470.14 710.73C378.1 692.11 308.46 610.1 308.46 511.83C308.46 399.41 399.59 308.28 512 308.28C624.41 308.28 714.43 399.41 715.54 511.83C716.62 621.14 628.44 699.86 546.68 712.35ZM291.95 511.83C291.95 403.46 376.64 308.83 483.44 302.58C330.33 288.45 233 397.16 233 511.83C233 626.5 332.6 737.34 483.45 721.08C376.64 714.84 291.95 620.19 291.95 511.83ZM540.56 302.58C647.36 308.81 732 403.45 732 511.83C732 620.21 647.31 714.83 540.5 721.08C695.28 734.69 791 626.48 791 511.83C791 397.18 695.66 289.2 540.56 302.58Z" fill="white"/>
</g>
<defs>
<clipPath id="clip0_2_2859">
<rect width="1024" height="1024" fill="white"/>
</clipPath>
</defs>
</svg>
