<svg width="1024" height="1024" viewBox="0 0 1024 1024" fill="none" xmlns="http://www.w3.org/2000/svg">
<g clip-path="url(#clip0_2_2874)">
<path d="M512 1024C794.77 1024 1024 794.77 1024 512C1024 229.23 794.77 0 512 0C229.23 0 0 229.23 0 512C0 794.77 229.23 1024 512 1024Z" fill="#54688C"/>
<path d="M668 415.5C668 432.1 598.1 445.7 512 445.7C425.9 445.7 356 432.1 356 415.5V500.5C356 517.6 425.9 531.2 512 531.2C598.1 531.2 668 517.6 668 500.5V415.5ZM512 556.4C598.1 556.4 668 542.8 668 526.2V611.7C668 628.3 598.1 641.9 512 641.9C425.9 641.9 356 628.3 356 611.7V526.2C356 542.8 425.9 556.4 512 556.4ZM668 636.9C668 653.5 598.1 667.1 512 667.1C425.9 667.1 356 653.5 356 636.9V722.4C356 739 425.9 752.6 512 752.6C598.1 752.6 668 739 668 722.4V636.9ZM668 340L512 239.4L356 340V395.4C356 409.5 425.9 420.6 512 420.6C598.1 420.6 668 409.5 668 395.4V340Z" fill="white"/>
</g>
<defs>
<clipPath id="clip0_2_2874">
<rect width="1024" height="1024" fill="white"/>
</clipPath>
</defs>
</svg>
