<svg width="1024" height="1024" fill="none" xmlns="http://www.w3.org/2000/svg"><g clip-path="url(#a)"><path d="M512 1024c282.77 0 512-229.23 512-512S794.77 0 512 0 0 229.23 0 512s229.23 512 512 512Z" fill="#54688C"/><path d="M668 415.5c0 16.6-69.9 30.2-156 30.2s-156-13.6-156-30.2v85c0 17.1 69.9 30.7 156 30.7s156-13.6 156-30.7v-85ZM512 556.4c86.1 0 156-13.6 156-30.2v85.5c0 16.6-69.9 30.2-156 30.2s-156-13.6-156-30.2v-85.5c0 16.6 69.9 30.2 156 30.2Zm156 80.5c0 16.6-69.9 30.2-156 30.2s-156-13.6-156-30.2v85.5c0 16.6 69.9 30.2 156 30.2s156-13.6 156-30.2v-85.5Zm0-296.9L512 239.4 356 340v55.4c0 14.1 69.9 25.2 156 25.2s156-11.1 156-25.2V340Z" fill="#fff"/></g><defs><clipPath id="a"><path fill="#fff" d="M0 0h1024v1024H0z"/></clipPath></defs></svg>