<svg width="1024" height="1024" fill="none" xmlns="http://www.w3.org/2000/svg"><g clip-path="url(#a)"><path d="M512 1024c282.77 0 512-229.23 512-512S794.77 0 512 0 0 229.23 0 512s229.23 512 512 512Z" fill="#FF837D"/><path d="M632.48 636.77a51.928 51.928 0 0 0 22.41 21.18 52.612 52.612 0 0 1-22.52 5.28h-69.8a51.404 51.404 0 0 1-44.52-26L391.57 387.14a51.64 51.64 0 0 0-22.16-21 50.932 50.932 0 0 1 22.68-5.28h69.39a51.488 51.488 0 0 1 44.57 26l126.43 249.91ZM420.25 468.6l-38.61-75.91c-4.75-8.92-13.24-14.95-22.39-18.86-4.64 3.75-8.89 8-11.88 13.22-4.17 7.95-99.88 196.73-103.93 204.45a51.066 51.066 0 0 0-1.604 38.192A51.067 51.067 0 0 0 334.81 637l85.44-168.4Zm360.48-36.24a51.065 51.065 0 0 0 .712-39.082 51.071 51.071 0 0 0-27.132-28.138 50.989 50.989 0 0 0-20.31-4.28l-.07-.25a51.122 51.122 0 0 0-44.7 26.32L604 555.6l38.42 75.6c4.85 9.08 13.42 15.11 22.7 19.09 5.73-4.55 10.76-10.1 13.76-16.88l101.85-201.05Z" fill="#fff"/></g><defs><clipPath id="a"><path fill="#fff" d="M0 0h1024v1024H0z"/></clipPath></defs></svg>