<svg width="1024" height="1024" fill="none" xmlns="http://www.w3.org/2000/svg"><g clip-path="url(#a)"><path d="M512 1024c282.77 0 512-229.23 512-512S794.77 0 512 0 0 229.23 0 512s229.23 512 512 512Z" fill="#FF837D"/><path d="M128 555.89h7.17v-42.94a58.502 58.502 0 0 1 .3-6.18 35.9 35.9 0 0 1 1.07-5.79 38.411 38.411 0 0 1 12.83-20.13A34.3 34.3 0 0 1 171 473c9.24.28 15.13 3.323 17.67 9.13 2.54 5.807 3.65 12.677 3.33 20.61v53.15h7.17V500.1c.213-10.513-1.707-18.827-5.76-24.94-4.053-6.113-11.523-9.24-22.41-9.38-10.667.52-19 3.62-25 9.3-6 5.68-9.73 10.85-11.19 15.51h-.34s.14-.74.34-2.09c.224-1.701.337-3.414.34-5.13v-15.48H128v88Zm93.06-23.41c.347 8.76 3.457 15.213 9.33 19.36a33.081 33.081 0 0 0 19.7 6.16c7.333-.267 13.217-2.137 17.65-5.61a36.136 36.136 0 0 0 9.5-10.39c1.92-3.473 2.833-5.343 2.74-5.61h.34s-.14.76-.34 2.18a47.271 47.271 0 0 0-.34 5.74v11.61h7.17V499c0-11.007-2.583-19.3-7.75-24.88-5.167-5.58-12.66-8.373-22.48-8.38-9.333.407-16.47 2.02-21.41 4.84-4.94 2.82-7.423 4.433-7.45 4.84l4.1 6c.087-.353 2.3-1.76 6.64-4.22s10.267-3.86 17.78-4.2c6.953-.127 12.56 1.803 16.82 5.79s6.45 10.8 6.57 20.44v3H274a139.541 139.541 0 0 0-20.48 1.2 50.397 50.397 0 0 0-22.11 7.93c-6.527 4.307-9.977 11.353-10.35 21.14v-.02Zm7.51-.53c.293-7.487 3.16-12.853 8.6-16.1a44.712 44.712 0 0 1 18.73-5.93 146.312 146.312 0 0 1 18.27-.85h5.46v4.75A45.249 45.249 0 0 1 272 539c-5.027 7.613-12.22 11.653-21.58 12.12-7.26-.213-12.717-2.243-16.37-6.09a18.523 18.523 0 0 1-5.49-13.09l.01.01Zm87.21 23.94H323v-42.94a58.502 58.502 0 0 1 .3-6.18 35.9 35.9 0 0 1 1.07-5.79 43.775 43.775 0 0 1 11.31-19.64 28.313 28.313 0 0 1 19.77-8.69c9.087.307 14.907 3.43 17.46 9.37 2.553 5.94 3.677 12.847 3.37 20.72v53.15h7.17v-42.94a58.238 58.238 0 0 1 .41-7.17 39.507 39.507 0 0 1 1.3-6.38 40.786 40.786 0 0 1 11.12-18.52 27.879 27.879 0 0 1 18.93-8.23c8.807.22 14.627 3.167 17.46 8.84s4.127 12.757 3.88 21.25v53.15h7.17V500.1c.187-10.593-1.813-18.927-6-25s-11.693-9.173-22.52-9.3a32.611 32.611 0 0 0-19.94 7.35 39.997 39.997 0 0 0-12.51 16.59h-.34c-.873-7.853-3.467-13.8-7.78-17.84-4.313-4.04-10.71-6.07-19.19-6.09-6.927.207-13.523 2.693-19.79 7.46a37.076 37.076 0 0 0-13 17.36h-.34s.14-.74.34-2.09c.224-1.701.337-3.414.34-5.13V467.9h-7.17l-.04 87.99Zm150.78-43.82c.333 14.153 4.667 25.307 13 33.46 8.333 8.153 18.687 12.31 31.06 12.47 9.333-.507 16.703-2.53 22.11-6.07 5.407-3.54 8.167-5.563 8.28-6.07l-3.93-6.16c-.08.46-2.443 2.307-7.09 5.54s-11.107 5.08-19.38 5.54a35.375 35.375 0 0 1-25.7-10.49c-6.947-6.92-10.56-16.797-10.84-29.63h68.48c0-.08.057-.63.17-1.65.113-1.02.17-2.053.17-3.1 0-10.987-2.903-20.32-8.71-28s-14.517-11.707-26.13-12.08a39.991 39.991 0 0 0-28.95 12c-8 7.92-12.183 19.35-12.55 34.29l.01-.05Zm8-8.27c1.753-10.307 5.723-18.073 11.91-23.3a32.269 32.269 0 0 1 21.39-7.85 25.687 25.687 0 0 1 18.74 7.52c5.2 5.06 8.117 12.937 8.75 23.63h-60.79Zm93.63 52h16.91v-45.91h27.15c11.22-.167 20.293-3.79 27.22-10.87 6.927-7.08 10.49-16.597 10.69-28.55-.2-11.94-3.763-21.37-10.69-28.29-6.927-6.92-16-10.453-27.22-10.6h-44.03l-.03 124.22Zm16.91-61.07v-48h24.59c7.24.053 12.907 2.143 17 6.27s6.17 9.957 6.23 17.49c-.067 7.553-2.15 13.47-6.25 17.75-4.1 4.28-9.813 6.457-17.14 6.53l-24.43-.04Zm83.42 61.07h16.56v-36.41c-.01-2.72.14-5.438.45-8.14a46.299 46.299 0 0 1 1.6-7.88c2.067-6.667 5.277-11.807 9.63-15.42a22.558 22.558 0 0 1 14.62-5.52c1.122.004 2.241.091 3.35.26.913.153 1.39.24 1.43.26v-16.88l-1.3-.18a27.337 27.337 0 0 0-3-.18 25.456 25.456 0 0 0-17.18 6.73 35.992 35.992 0 0 0-10.14 16.5h-.34s.07-.7.17-2 .16-2.83.17-4.73v-15.43h-16l-.02 89.02Zm57.71-44.7c.333 13.807 4.88 24.997 13.64 33.57 8.76 8.573 19.76 12.987 33 13.24 13.227-.253 24.227-4.667 33-13.24s13.32-19.763 13.64-33.57c-.333-13.713-4.88-24.823-13.64-33.33-8.76-8.507-19.76-12.883-33-13.13-13.227.253-24.227 4.63-33 13.13s-13.31 19.617-13.61 33.35l-.03-.02Zm16.91 0c.227-9.407 3.15-16.997 8.77-22.77a29.14 29.14 0 0 1 41.95 0c5.593 5.773 8.497 13.363 8.71 22.77-.213 9.493-3.117 17.16-8.71 23a28.896 28.896 0 0 1-41.95 0c-5.607-5.827-8.523-13.487-8.75-22.98l-.02-.02ZM832 544.91c.047.54 2.863 2.71 8.45 6.51s13.697 5.97 24.33 6.51c9.593-.153 17.17-2.617 22.73-7.39a23.751 23.751 0 0 0 8.49-18.48c-.547-9.413-4.383-16.16-11.51-20.24a140.296 140.296 0 0 0-21.38-10c-7.127-2.613-10.963-6.427-11.51-11.44.14-3.84 1.607-6.627 4.4-8.36a17.89 17.89 0 0 1 9.78-2.55c6.867.333 12.133 1.667 15.8 4 3.667 2.333 5.517 3.667 5.55 4l6.66-12.85c0-.413-2.27-2.057-6.81-4.93-4.54-2.873-11.54-4.517-21-4.93-8.847.047-16.21 2.247-22.09 6.6-5.88 4.353-8.947 10.567-9.2 18.64.547 9.333 4.383 16.057 11.51 20.17a147.06 147.06 0 0 0 21.38 10.16c7.127 2.667 10.963 6.577 11.51 11.73a9.798 9.798 0 0 1-4.48 8.25 17.546 17.546 0 0 1-9.86 2.84c-7.607-.433-13.607-2.163-18-5.19-4.393-3.027-6.643-4.757-6.75-5.19l-8 12.14Z" fill="#fff"/></g><defs><clipPath id="a"><path fill="#fff" d="M0 0h1024v1024H0z"/></clipPath></defs></svg>