<svg width="1024" height="1024" fill="none" xmlns="http://www.w3.org/2000/svg"><g clip-path="url(#a)"><path d="M512 1024c282.77 0 512-229.23 512-512S794.77 0 512 0 0 229.23 0 512s229.23 512 512 512Z" fill="#9ABEFF"/><path d="M677.59 347.08c24.56 0 44.45-20.4 44.45-45.56 0-25.16-19.9-45.52-44.45-45.52-24.55 0-44.45 20.4-44.45 45.54s19.91 45.54 44.45 45.54ZM706.48 519v191.24H582V519c0-44-34.82-79.69-77.79-79.69-42.97 0-77.78 35.69-77.78 79.69v191.24H302V519c0-114.42 90.57-207.2 202.25-207.2 111.69-.01 202.23 92.75 202.23 207.2Z" fill="#fff"/></g><defs><clipPath id="a"><path fill="#fff" d="M0 0h1024v1024H0z"/></clipPath></defs></svg>