<svg width="1024" height="1024" viewBox="0 0 1024 1024" fill="none" xmlns="http://www.w3.org/2000/svg">
<g clip-path="url(#clip0_2_2877)">
<path d="M512 1024C794.77 1024 1024 794.77 1024 512C1024 229.23 794.77 0 512 0C229.23 0 0 229.23 0 512C0 794.77 229.23 1024 512 1024Z" fill="#9ABEFF"/>
<path d="M792 439.12V627.44H729.11V468.07C729.11 439.9 726.89 435.59 716.97 438.07C708.22 440.23 708.03 453.37 707.51 473.07V627.44H649.27V327.91L707.51 314.37V427.37C707.51 428.16 707.51 429.63 708.11 429.63C708.71 429.63 708.81 427.96 708.85 427.32C711 385.08 722.6 368.58 742.3 364C774.54 356.46 792 371.85 792 439.12ZM641.79 532.33C641.79 485.89 635.08 471.58 592.36 463.18C564.27 459.23 563.29 457.08 563.29 444.18V441.56C563.29 425.44 565.1 415.01 573.76 412.79C582.76 410.48 584.89 415.39 584.89 435.58V454.77H641.79V425C641.79 368.28 627.03 347.44 574.09 359.47C521.43 371.4 506.39 392.59 506.39 443.47V454.27C506.39 499.6 510.81 512.84 555.17 522.79C584.53 528.73 584.89 530.18 584.89 543.44V556.77C584.89 572.98 583.22 577.41 575.39 577.41C565.61 577.41 563.29 571.06 563.29 552.26V533.68H506.39V554.81C506.39 611.94 523.53 629.62 574.09 629.62C627.26 629.62 641.79 610.83 641.79 558.49V532.33ZM433.16 392C383.16 403.69 364.96 425.43 364.96 476.07V480.63H422.51V459.1C422.51 448.99 425.11 441.64 432.01 440.1C438.91 438.56 441.79 446.62 441.79 460.59V485.21C412.72 494.63 361.21 485.21 361.21 550.14V572.54C361.21 613.76 372.72 629.67 402.08 629.67C424.85 629.67 436.74 621.75 440.49 596.73C440.49 596.73 440.89 594.13 441.3 594.13C441.71 594.13 441.8 596.06 441.8 596.73V627.53H499.37V450.58C499.36 396 480.88 380.86 433.16 392ZM441.8 566.33C441.8 583.53 437.65 587.43 429.02 587.43C420.96 587.43 414.11 583.2 414.11 566.33V546.83C414.11 531.36 429.11 525.42 441.8 520.83V566.33ZM354.19 627.46V479.83C354.19 438.38 347.87 412 320.59 418.48C299.41 423.48 287.96 437.61 284.41 471.53C284.26 472.78 283.24 473.08 283.24 471.53V429.25L232 441.16V627.52H283.23V505.86C283.23 484.86 287.12 476.16 294.03 474.19C301.86 471.98 304.82 482.88 304.82 500.72V627.49L354.19 627.46Z" fill="white"/>
</g>
<defs>
<clipPath id="clip0_2_2877">
<rect width="1024" height="1024" fill="white"/>
</clipPath>
</defs>
</svg>
