<svg width="1024" height="1024" fill="none" xmlns="http://www.w3.org/2000/svg"><g clip-path="url(#a)"><path d="M512 1024c282.77 0 512-229.23 512-512S794.77 0 512 0 0 229.23 0 512s229.23 512 512 512Z" fill="#98DC9A"/><path d="m368.22 447-51.01 130h43.36l6.16-17.22h48.89l6.16 17.22h43.36l-51.02-130h-45.9Zm8.41 81.62 14.54-40.63 14.54 40.63h-29.08Zm268.95 16.58h61.21V577H604.14V447h101.38v31.88h-59.94v17.53h59.3v31.24h-59.3v17.55ZM547.39 447h43.36l-51.01 130h-45.91l-51.01-130h43.36l30.61 85.53 30.6-85.53Zm-285.65 0h42.08v130h-40.17l-48.46-69.62V577h-42.08V447h40.17l48.46 69.62V447ZM818 532.41l3.95-1.65c15.12-6.33 22.8-20 22.8-37.39 0-16.43-6-28.59-17.81-36.13-11-7-25.24-10.28-44.84-10.28h-54.9V577H768v-36.31h14.66L807.54 577h43.36L818 532.41Zm-28.32-24.88h-22.31v-27.41h22.32a13.71 13.71 0 1 1 0 27.42" fill="#fff"/></g><defs><clipPath id="a"><path fill="#fff" d="M0 0h1024v1024H0z"/></clipPath></defs></svg>