<svg width="1024" height="1024" fill="none" xmlns="http://www.w3.org/2000/svg"><g clip-path="url(#a)"><path d="M512 1024c282.77 0 512-229.23 512-512S794.77 0 512 0 0 229.23 0 512s229.23 512 512 512Z" fill="#71A372"/><path d="M377.36 296.56c-78.65 0-142.36 64-142.36 142.85v75.65c0 78.85 63.75 142.85 142.36 142.85H374L505.22 820V654.18l141.21 3.73h.21c78.65 0 142.36-64 142.36-142.85v-75.62c0-78.85-63.75-142.85-142.36-142.85H377.39l-.03-.03Zm-.68 31.59h269.95c61.61 0 110.8 49.32 110.8 111.29v75.62c0 61.93-49.11 111.24-110.71 111.29l-173.06-4.57v109.08L389 626.35h-11.64c-61.61 0-110.8-49.32-110.8-111.29v-75.65c0-61.73 48.8-110.89 110.13-111.26h-.01Zm185.11 86.34c-10.773 0-19.61 3.093-26.51 9.28A30.138 30.138 0 0 0 525 447.13a35.67 35.67 0 0 0 2.57 13.75 31.923 31.923 0 0 0 7.43 10.78c3.26 2.98 9.53 6.82 18.81 11.52 9.28 4.7 15.44 8.9 18.48 12.6a18.781 18.781 0 0 1 4.47 11.85c0 8.84-6.333 13.26-19 13.26-8.227 0-16.593-2.983-25.1-8.95l-8 19.3a55.5 55.5 0 0 0 30.75 8.76c13.033 0 23.417-3.177 31.15-9.53 7.733-6.353 11.627-14.443 11.68-24.27a37.567 37.567 0 0 0-2.82-14.83 33.234 33.234 0 0 0-8.2-11.68c-3.593-3.367-9.447-7.033-17.56-11-15.413-7.52-23.117-14.75-23.11-21.69a13.48 13.48 0 0 1 4.06-10.19c2.76-2.667 6.627-4 11.6-4 8.393 0 16.373 2.707 23.94 8.12l6.55-18.56c-6.573-5.247-16.873-7.87-30.9-7.87l-.01-.01Zm-243.49 2.07V538H339v-75.21l58.91 76.8h8.78v-123H386v73.24l-57.33-73.24H318.3v-.03Zm113.26 0v121.38h21.54v-55.51h42.67v-18.31h-42.68V435.7h58.41v-19.14h-80 .06Zm185.75 0V538H638v-75.21l58.91 76.8h8.78v-123H685v73.24l-57.33-73.24h-10.36v-.03Z" fill="#fff"/></g><defs><clipPath id="a"><path fill="#fff" d="M0 0h1024v1024H0z"/></clipPath></defs></svg>