<svg width="1024" height="1024" fill="none" xmlns="http://www.w3.org/2000/svg"><g clip-path="url(#a)"><path d="M512 1024c282.77 0 512-229.23 512-512S794.77 0 512 0 0 229.23 0 512s229.23 512 512 512Z" fill="#F8C18C"/><path d="M667.69 716.49a257.004 257.004 0 0 1-311.37 0 5.714 5.714 0 0 1-2.235-3.878 5.725 5.725 0 0 1 1.235-4.302l58-70.74a5.72 5.72 0 0 1 7.81-1 154.19 154.19 0 0 0 181.69 0 5.747 5.747 0 0 1 3.4-1.11 5.68 5.68 0 0 1 4.41 2.08l58 70.74a5.738 5.738 0 0 1 1.279 4.305 5.737 5.737 0 0 1-2.219 3.905Zm48.81-360.17a5.726 5.726 0 0 0-6.155-2.055 5.721 5.721 0 0 0-2.025 1.055l-70.75 58a5.711 5.711 0 0 0-1 7.8 153.27 153.27 0 0 1 27.78 67 5.715 5.715 0 0 0 2.14 3.658 5.716 5.716 0 0 0 4.07 1.182l91-9a5.716 5.716 0 0 0 2.18-.675 5.716 5.716 0 0 0 2.775-3.508 5.718 5.718 0 0 0 .155-2.277 255.511 255.511 0 0 0-50.18-121.18h.01ZM359.64 535.87A5.73 5.73 0 0 0 354 531h-.57l-91 9a5.716 5.716 0 0 0-2.18.675 5.727 5.727 0 0 0-2.93 5.785 255.509 255.509 0 0 0 50.2 121.17 5.714 5.714 0 0 0 3.878 2.235 5.718 5.718 0 0 0 4.302-1.235l70.75-58a5.709 5.709 0 0 0 1-7.79 153.282 153.282 0 0 1-27.81-66.97Zm-4.28-220.18 58 70.74a5.72 5.72 0 0 0 7.81 1 154.19 154.19 0 0 1 181.69 0 5.72 5.72 0 0 0 7.81-1l58-70.74a5.73 5.73 0 0 0-1-8.18 257.004 257.004 0 0 0-311.37 0 5.739 5.739 0 0 0-2.203 3.891 5.725 5.725 0 0 0 1.263 4.289Zm406.23 224.36-91-9h-.57a5.731 5.731 0 0 0-5.64 4.87 153.27 153.27 0 0 1-27.78 67 5.707 5.707 0 0 0 1 7.79l70.75 58a5.721 5.721 0 0 0 4.302 1.235 5.724 5.724 0 0 0 3.878-2.235 255.509 255.509 0 0 0 50.2-121.17 5.729 5.729 0 0 0-5.14-6.49Zm-375.15-126.7-70.75-58a5.726 5.726 0 0 0-6.468-.512 5.714 5.714 0 0 0-1.712 1.512 255.509 255.509 0 0 0-50.2 121.17 5.736 5.736 0 0 0 1.186 4.313 5.696 5.696 0 0 0 1.744 1.472 5.716 5.716 0 0 0 2.18.675l91 9a5.719 5.719 0 0 0 6.21-4.84 153.27 153.27 0 0 1 27.78-67 5.71 5.71 0 0 0-.97-7.79Z" fill="#fff"/></g><defs><clipPath id="a"><path fill="#fff" d="M0 0h1024v1024H0z"/></clipPath></defs></svg>