<svg width="1024" height="1024" fill="none" xmlns="http://www.w3.org/2000/svg"><g clip-path="url(#a)"><path d="M512 1024c282.77 0 512-229.23 512-512S794.77 0 512 0 0 229.23 0 512s229.23 512 512 512Z" fill="#54688C"/><path d="M768 512a254.859 254.859 0 0 1-55 158.49c-.06 0 15.43-79.76 15.45-159.25 0-79-15.47-157.84-15.48-157.91A254.774 254.774 0 0 1 768 512ZM357.3 308a256.06 256.06 0 0 1 338.52 25.8S734.52 755 357.3 308Zm297.62 416.4a256.093 256.093 0 0 1-333.59-41.6s-29.72-439.37 333.59 41.6ZM256 512a261.088 261.088 0 0 1 43.81-144.74s-12.87 72-12.87 144 12.88 144 12.89 144C272.33 614.59 256 562.4 256 512Z" fill="#fff"/></g><defs><clipPath id="a"><path fill="#fff" d="M0 0h1024v1024H0z"/></clipPath></defs></svg>