<svg width="1024" height="1024" viewBox="0 0 1024 1024" fill="none" xmlns="http://www.w3.org/2000/svg">
<g clip-path="url(#clip0_2_2898)">
<path d="M512 1024C794.77 1024 1024 794.77 1024 512C1024 229.23 794.77 0 512 0C229.23 0 0 229.23 0 512C0 794.77 229.23 1024 512 1024Z" fill="#96DFD3"/>
<path d="M745.1 580.5H757.1V600.8H720.8V475.5H709.9V455.2H781.9C796.4 455.2 803.5 462.5 803.5 477.3V537.6C803.5 552 796.1 559.3 781.2 559.3H759.1V539H772.5C777.4 539 779.9 536.5 779.9 531.2V483.5C779.9 478.2 777.4 475.5 772.8 475.5H745.2V580.5H745.1ZM699.2 559.2H632.4C617.9 559.2 610.6 551.9 610.6 537.3V473.2H599.9V455.2H634.7V530.3C634.7 536 637.4 539 642.5 539H664V455.2H688.1V539H699.2V559.2ZM584 559.2H509.4V491.9C509.4 467.5 522.3 455.1 548.4 455.1H584.3V490H563.6V475.4H546.7C537.8 475.4 533.3 480.4 533.3 490.2V538.8H584V559.2ZM491 559.2H464.5C452.7 559.2 446.9 552.8 446.9 540.3V475.5H433.5V455.2H446.9V423.3H470.7V455.2H490.8V475.5H470.7V531.6C470.7 536.8 473.6 539.4 479.2 539.1H485.7C487.5 539.1 489.3 539.1 491.1 538.9L491 559.2ZM420.1 519.3H366.4V532.8C366.4 536.9 368.4 539 372.2 539H417.4V559.3H362.8C349.4 559.3 342.7 552.7 342.7 539.2V477.8C342.7 462.7 350.5 455.2 365.9 455.2H398.4C412.7 455.2 419.8 462.3 420 476.7V519.3H420.1ZM366.4 499.2H396.7V482.1C396.7 477.8 394.7 475.5 390.7 475.5H372.9C368.7 475.5 366.4 478 366.4 483V499.2ZM287.8 559.2V481.4C287.8 477.5 285.6 475.5 281.1 475.5H255.7V559.2H231.6V475.5H220.5V455.2H292C305.2 455.2 311.8 462.1 311.8 476V539H323V559.3H287.8V559.2Z" fill="white"/>
</g>
<defs>
<clipPath id="clip0_2_2898">
<rect width="1024" height="1024" fill="white"/>
</clipPath>
</defs>
</svg>
