<svg width="1024" height="1024" fill="none" xmlns="http://www.w3.org/2000/svg"><g clip-path="url(#a)"><path d="M512 1024c282.77 0 512-229.23 512-512S794.77 0 512 0 0 229.23 0 512s229.23 512 512 512Z" fill="#56595B"/><path d="m512 406.61 91 52.69v105.16l-91 52.69-91.27-52.69V459.31l91.27-52.7ZM655.5 700l91.27-52.46V542.11l-91.27 52.7V700ZM603 293.46 512 241l-91.27 52.46L512 346.15l91-52.69Zm-234.73 30.35-91 52.46v105.38l91 52.46V429l91.27-52.46-91.27-52.73Zm287.23 0-91 52.46 91 52.69v105.15l91.27-52.46V376.26l-91.27-52.45ZM277.23 647.5l91 52.46V594.81l-91-52.69V647.5Zm143.5-22.35v105.16L512 783l91-52.69V625.15l-91 52.69-91.27-52.69Z" fill="#fff"/></g><defs><clipPath id="a"><path fill="#fff" d="M0 0h1024v1024H0z"/></clipPath></defs></svg>