<svg width="1024" height="1024" viewBox="0 0 1024 1024" fill="none" xmlns="http://www.w3.org/2000/svg">
<g clip-path="url(#clip0_2_2904)">
<path d="M512 1024C794.77 1024 1024 794.77 1024 512C1024 229.23 794.77 0 512 0C229.23 0 0 229.23 0 512C0 794.77 229.23 1024 512 1024Z" fill="#F8C18C"/>
<path d="M775.66 510.82C752.02 484.36 711 481.86 684.08 505.03L668.43 518.49C687.06 528.82 699.43 549.17 698.17 572.34C696.6 602.24 672.03 626.19 642.13 627.13C609.25 628.07 582.33 601.77 582.33 569.21C583.9 528.51 615.21 511.29 641.04 511.29L577.01 359.59C563.23 327.03 525.35 311.69 492.32 325.15C485.43 328.12 466.65 335.95 456.16 359.75L406.06 476.22L356.9 360.06C343.28 327.5 305.24 312.16 272.21 325.62C239.02 339.08 223.37 376.34 237.14 408.75L345.16 664.4C358.94 696.96 396.82 712.3 429.85 698.84C440.03 694.3 455.68 686.47 466.01 664.24L516.11 547.77L565.27 664.09C572.63 681.47 586.87 693.99 603.62 699.78C625.22 707.61 650.58 703.85 669.06 687.88L770.03 600.68C796.8 577.35 799.3 537.12 775.67 510.82H775.66Z" fill="white"/>
</g>
<defs>
<clipPath id="clip0_2_2904">
<rect width="1024" height="1024" fill="white"/>
</clipPath>
</defs>
</svg>
