<svg width="1024" height="1024" viewBox="0 0 1024 1024" fill="none" xmlns="http://www.w3.org/2000/svg">
<g clip-path="url(#clip0_2_2907)">
<path d="M512 1024C794.77 1024 1024 794.77 1024 512C1024 229.23 794.77 0 512 0C229.23 0 0 229.23 0 512C0 794.77 229.23 1024 512 1024Z" fill="#96DFD3"/>
<path d="M626.9 433.7L626.7 433.6C626.6 433.6 626.5 433.5 626.4 433.4C626.1 433.1 626 432.6 626 432.2L636.3 369.1L684.7 417.5L634.4 438.9C634.3 439 634.1 439 634 439H633.8C633.7 439 633.7 438.9 633.5 438.8C631.7 436.7 629.4 435 626.9 433.7ZM697.1 429.8L748.9 481.6C759.6 492.4 765 497.7 767 504C767.3 504.9 767.5 505.8 767.7 506.8L644 454.3C643.9 454.3 643.9 454.2 643.8 454.2C643.3 454 642.7 453.8 642.7 453.3C642.7 452.8 643.3 452.6 643.8 452.4L644 452.3L697.1 429.8ZM765.6 523.3C762.9 528.3 757.7 533.5 748.9 542.4L690.5 600.7L615.1 585L614.7 584.9C614 584.8 613.3 584.7 613.3 584.1C612.7 577.8 609.6 572 604.6 568.2C604.3 567.9 604.4 567.4 604.5 567V566.8L618.7 479.7L618.8 479.4C618.9 478.7 619 478 619.6 478C625.7 477.2 631.3 474 635.1 469.1C635.2 469 635.3 468.8 635.5 468.7C635.9 468.5 636.4 468.7 636.9 468.9L765.6 523.3ZM677.1 614.2L581.1 710.2L597.5 609.3V609.2C597.5 609.1 597.5 608.9 597.6 608.8C597.7 608.5 598.1 608.3 598.4 608.2L598.6 608.1C602.2 606.6 605.4 604.2 607.9 601.2C608.2 600.8 608.6 600.5 609.1 600.4H609.5L677.1 614.2ZM560.9 730.4L550.1 741.2L430.5 568.4C430.5 568.3 430.4 568.3 430.4 568.2C430.2 567.9 430 567.7 430.1 567.4C430.1 567.2 430.2 567 430.4 566.8L430.5 566.6C430.9 566.1 431.2 565.5 431.5 565L431.8 564.5C432 564.2 432.2 563.9 432.5 563.7C432.8 563.6 433.2 563.6 433.5 563.7L566 591C566.4 591.1 566.7 591.2 567 591.4C567.2 591.6 567.2 591.8 567.3 592C569.2 599.1 574.3 604.9 581 607.7C581.4 607.9 581.2 608.3 581 608.7C580.9 608.9 580.8 609.1 580.8 609.3C579 619.6 564.7 706.9 560.9 730.4ZM538.3 753C530.3 760.9 525.6 765.1 520.3 766.8C515.1 768.5 509.4 768.5 504.2 766.8C498 764.8 492.6 759.5 481.8 748.7L361.8 628.6L393.2 580C393.3 579.8 393.5 579.5 393.7 579.4C394 579.2 394.5 579.3 394.9 579.4C402.1 581.6 409.8 581.2 416.8 578.3C417.2 578.2 417.5 578.1 417.8 578.3L418.2 578.7L538.3 753ZM350.2 617L322.7 589.5L377.1 566.3C377.2 566.2 377.4 566.2 377.5 566.2C378 566.2 378.2 566.7 378.5 567.1C379 567.9 379.6 568.8 380.2 569.6L380.4 569.8C380.6 570 380.5 570.3 380.3 570.5L350.2 617ZM310.4 577.2L275.5 542.3C269.6 536.4 265.3 532.1 262.3 528.4L368.3 550.4C368.4 550.4 368.6 550.4 368.7 550.5C369.4 550.6 370.1 550.7 370.1 551.3C370.1 552 369.3 552.3 368.6 552.5L368.3 552.6C368.4 552.7 310.4 577.2 310.4 577.2ZM256.3 510.6C256.4 508.4 256.8 506.1 257.5 504C259.5 497.8 264.8 492.4 275.6 481.6L320.2 437C340.7 466.8 361.3 496.6 382 526.3C382.4 526.8 382.8 527.3 382.3 527.7C380.4 529.8 378.4 532.2 377 534.8C376.9 535.1 376.6 535.4 376.3 535.6C376.1 535.7 375.9 535.7 375.7 535.6L256.3 510.6ZM332.1 425.1L392.1 365.1C397.7 367.6 418.2 376.2 436.6 384C450.5 389.9 463.1 395.2 467.1 397C467.5 397.2 467.9 397.3 468 397.7C468.1 397.9 468.1 398.2 468 398.5C466.1 407.3 468.7 416.5 475 422.9C475.4 423.3 475 423.9 474.7 424.4L474.5 424.7L413.6 519C413.4 519.3 413.3 519.5 413 519.7C412.7 519.9 412.2 519.8 411.9 519.7C409.5 519.1 407.1 518.7 404.6 518.7C402.4 518.7 400 519.1 397.6 519.5C397.3 519.5 397.1 519.6 396.9 519.4C396.7 519.2 396.5 519 396.3 518.7L332.1 425.1ZM404.2 353L481.8 275.4C492.5 264.7 497.9 259.3 504.2 257.3C509.4 255.6 515.1 255.6 520.3 257.3C526.5 259.3 531.9 264.6 542.7 275.4L559.5 292.2L504.3 377.7C504.2 377.9 504 378.2 503.8 378.3C503.5 378.5 503 378.4 502.6 378.3C493.8 375.6 484.2 377.5 477 383.2C476.6 383.6 476.1 383.4 475.7 383.2C468.3 380.1 412.2 356.4 404.2 353ZM571.2 303.9L622.2 354.9L609.9 431V431.2C609.9 431.4 609.9 431.5 609.8 431.7C609.7 432 609.4 432 609.1 432.1C606.5 432.9 604 434.1 601.8 435.7C601.7 435.8 601.6 435.8 601.5 435.9C601.4 436.1 601.2 436.2 601 436.2C600.8 436.2 600.6 436.2 600.4 436.1L522.7 403.1L522.6 403C522.1 402.8 521.5 402.6 521.5 402.1C521 397.8 519.6 393.6 517.4 389.9C517 389.3 516.6 388.6 516.9 388L571.2 303.9ZM518.7 418.8L591.5 449.6C591.9 449.8 592.3 450 592.5 450.4C592.6 450.6 592.6 450.9 592.5 451.2C592.3 452.3 592.1 453.5 592.1 454.7V456.7C592.1 457.2 591.6 457.4 591.1 457.6L591 457.7C579.5 462.6 429 526.8 428.8 526.8C428.6 526.8 428.3 526.8 428.1 526.6C427.7 526.2 428.1 525.6 428.5 525.1C428.6 525 428.6 524.9 428.7 524.8L488.5 432.1L488.6 431.9C488.9 431.3 489.3 430.7 490 430.7L490.6 430.8C492 431 493.2 431.2 494.4 431.2C503.5 431.2 511.9 426.8 517 419.2C517.1 419 517.3 418.8 517.5 418.7C517.7 418.5 518.3 418.6 518.7 418.8ZM435.3 541.5L599.3 471.6C599.3 471.6 599.5 471.6 599.8 471.8C600.7 472.7 601.5 473.3 602.2 473.9L602.6 474.1C602.9 474.3 603.3 474.5 603.3 474.8V475.1L589.3 561.4L589.2 561.7C589.1 562.4 589 563.1 588.4 563.1C580.8 563.6 573.9 567.8 570.1 574.4L570 574.5C569.8 574.8 569.6 575.1 569.3 575.3C569 575.4 568.7 575.4 568.4 575.3L437.6 548.3C437.3 548.4 435.4 541.5 435.3 541.5Z" fill="white"/>
</g>
<defs>
<clipPath id="clip0_2_2907">
<rect width="1024" height="1024" fill="white"/>
</clipPath>
</defs>
</svg>
