<svg width="1024" height="1024" fill="none" xmlns="http://www.w3.org/2000/svg"><g clip-path="url(#a)"><path d="M512 1024c282.77 0 512-229.23 512-512S794.77 0 512 0 0 229.23 0 512s229.23 512 512 512Z" fill="#F8C18C"/><path d="M486.21 417.46a4.7 4.7 0 0 1 1.3 3.24 4.343 4.343 0 0 1-1.08 3.17 3.722 3.722 0 0 1-2.88 1.44 3.529 3.529 0 0 1-1.94-.5 3.485 3.485 0 0 1-.58-.43 3.307 3.307 0 0 1-.36-.36 5.117 5.117 0 0 1-.86-1.15 5.064 5.064 0 0 1-.43-2 4.937 4.937 0 0 1 1.08-3.31 5.125 5.125 0 0 1 1-.79 3.998 3.998 0 0 1 1.87-.58 3.668 3.668 0 0 1 2.88 1.27Zm-8.64-45.81a.782.782 0 0 0 0-.36 4.502 4.502 0 0 0-1.22-3.17 3.738 3.738 0 0 0-3-1.3 3.702 3.702 0 0 0-2.81 1.37 4.897 4.897 0 0 0 .14 6.48 3.616 3.616 0 0 0 2.88 1.22 2.69 2.69 0 0 0 1.22-.22 3.188 3.188 0 0 0 1.66-1.15 4.131 4.131 0 0 0 1.13-2.87Zm3.31 27.8a3.639 3.639 0 0 0 2.23-1.37 4.462 4.462 0 0 0 1.15-3.24 4.639 4.639 0 0 0-1.3-3.17l-.36-.43v.07a3.997 3.997 0 0 0-2.59-1 3.883 3.883 0 0 0-2.45 1.08 2.783 2.783 0 0 1-.36.36 4.928 4.928 0 0 0-1.15 3.24.332.332 0 0 1 0 .22 4.932 4.932 0 0 0 1.3 3 3.732 3.732 0 0 0 3 1.22c.175.03.353.04.53.03v-.01ZM324.93 661.22c-.495-.134-1-.231-1.51-.29l-.86-.07a12.384 12.384 0 0 0-9.72 5.91 26.395 26.395 0 0 0-2.52 4.18A30.413 30.413 0 0 0 308 679c-.053.593-.1 1.193-.14 1.8a32.206 32.206 0 0 0-.14 3.17c0 .627.023 1.227.07 1.8l5.11.14c.15 1.239.391 2.466.72 3.67l-5.33-.14c.173.667.367 1.313.58 1.94l5.4.14c.317.846.702 1.665 1.15 2.45a11.76 11.76 0 0 0 4.61 4.83c.248.151.513.272.79.36a6.34 6.34 0 0 1-.86.22 9.318 9.318 0 0 1-5.83-.5 8.857 8.857 0 0 0 9.08.86c.327-.14.641-.307.94-.5.25-.126.49-.27.72-.43l.07-.07a16.792 16.792 0 0 0 3.82-3.89 27 27 0 0 0 5-14c.053-.613.077-1.213.07-1.8a22.567 22.567 0 0 0-2.67-12.25 10.785 10.785 0 0 0-6.23-5.58Zm413.53-336a22.654 22.654 0 0 1-4.9-8.86L766.41 286a15.736 15.736 0 0 1 7.27 1.66l1.08.5a23.148 23.148 0 0 0-8.07-5.76c-.613-.26-1.237-.5-1.87-.72a30.162 30.162 0 0 0-8.14-1.44 28.2 28.2 0 0 0-21.11 7.64 27.792 27.792 0 0 0-9.22 20.31 29.378 29.378 0 0 0 .86 8.28v.07a27.74 27.74 0 0 0 3.6 8.21.796.796 0 0 1 .07.14.883.883 0 0 1 .14.14 32.766 32.766 0 0 0 3.24 4.11v.07l1.15 1.15.07.07a30.44 30.44 0 0 0 6.77 5 28.685 28.685 0 0 0 12.53 3.31h.07A27.87 27.87 0 0 0 776 331.1a19.673 19.673 0 0 0 6.55-9.22L748.19 332a22.024 22.024 0 0 1-5.4-2.81l42.5-20.1c.08.3.103.013.07-.86.25-3.07-.593-6.13-2.38-8.64l-44.52 25.63ZM659.8 530.48h.07a4.5 4.5 0 0 0-3.24-1.37 4.748 4.748 0 0 0-3.24 1.37 4.58 4.58 0 0 0-1.37 3.17 4.683 4.683 0 0 0 1.37 3.31v-.07a4.356 4.356 0 0 0 3.24 1.37 4.059 4.059 0 0 0 3.17-1.3l.07-.07a4.523 4.523 0 0 0-.05-6.39l-.02-.02ZM799 312.59a43.677 43.677 0 0 1-7.42 23.48.15.15 0 0 1-.061.053.153.153 0 0 1-.079.017v.07a47.713 47.713 0 0 1-6.77 7.71 45.574 45.574 0 0 1-15.49 9.44.212.212 0 0 1-.1.066.213.213 0 0 1-.12.004l-52.54 22.47h-.07a.23.23 0 0 1-.053.087.23.23 0 0 1-.087.053 5.707 5.707 0 0 0-1 .36c0 .06 0 .08-.07.07a37.982 37.982 0 0 1-12.19 2.53 48.616 48.616 0 0 1-5.33-.14h-.07a.833.833 0 0 1-.29-.07 8617.078 8617.078 0 0 0-29.32 15.63A8308.346 8308.346 0 0 1 642.59 408l-7.85 4.11-.07.07a130.278 130.278 0 0 1 4.25 12.68 111.638 111.638 0 0 1 3.53 15.2c.4 2.5.713 4.997.94 7.49l13.76 1.73a6.002 6.002 0 0 1 3.89 1.94c0 .05.05.07.07.07v.07c.265.264.506.552.72.86.203.314.37.65.5 1 .255.592.4 1.226.43 1.87.036.069.06.143.07.22l.72 12.1c9.493.327 18.353.853 26.58 1.58a312.284 312.284 0 0 1 39.26 5.83l.5.07a.475.475 0 0 0 .22.07 55.79 55.79 0 0 1 18.51 10 67.3 67.3 0 0 1 6 5.55 83.667 83.667 0 0 1 10.66 13.76 67.065 67.065 0 0 1 2.09 3.39c.96 1.62 1.897 3.253 2.81 4.9a57.504 57.504 0 0 1 2.59 5.33c.54 1.227 1.043 2.427 1.51 3.6l1.73 3.82a26.811 26.811 0 0 1 1.94 5.47v.14c.101.52.125 1.053.07 1.58v.14a5.888 5.888 0 0 1-2.59 4.25l-16.86 12c.173 3.207.27 6.4.29 9.58a244.447 244.447 0 0 1-4.19 49.53 196.77 196.77 0 0 1-19.88 56.76A137.348 137.348 0 0 1 695 711.28l-.07.07a76.633 76.633 0 0 1-10.44 6.77 2.49 2.49 0 0 1-1.37.29h-410.7c-3.087.12-5.44.167-7.06.14a.332.332 0 0 1-.22 0 .289.289 0 0 1-.22 0h-.86l-4-.36c-9.32-1.46-17.34-7.523-24.06-18.19a.33.33 0 0 1-.07-.14A74.008 74.008 0 0 1 225 659.2c0-15.847 3.627-29.22 10.88-40.12l.22-.22c1.58-2.4 3.19-4.68 4.83-6.84a101.36 101.36 0 0 1 2.52-28.09c7.24-8.047 15.33-16.523 24.27-25.43 13.333-13.333 28.603-27.597 45.81-42.79.107-5.58.227-11.03.36-16.35.213-7.46.477-14.663.79-21.61.393-7.447.873-14.78 1.44-22 .827-9.96 1.827-19.66 3-29.1a6.145 6.145 0 0 1 2.3-4l6.48-5.11c2.953-2.3 5.907-4.58 8.86-6.84a855.693 855.693 0 0 1 19.38-14.26l8.07-5.62a809.03 809.03 0 0 1 15.13-10.16v-.07l.07.07.31-.18a29.517 29.517 0 0 1-5.72-11.2 30.753 30.753 0 0 1-.86-8.07c1.113-6.587 1.93-12.083 2.45-16.49.227-.967.49-1.967.79-3 .86-2.827 1.677-5.683 2.45-8.57l5.33-13.69.22-.07a33.624 33.624 0 0 1 5.91-2.45c2.14-.553 4.253-1.13 6.34-1.73 3-.793 5.93-1.61 8.79-2.45a.48.48 0 0 0 .22 0 6.383 6.383 0 0 1-.94-3.1 8.283 8.283 0 0 1-4.83-2.81l-.14-.07-.5-.94c-.207-1.507-.35-3.547-.43-6.12a74.113 74.113 0 0 1 .5-9.36v-.07a9.5 9.5 0 0 1 4.39-3.31c.17-.034.337-.081.5-.14a.188.188 0 0 0 0-.14 19.782 19.782 0 0 1 6.84-13 25.771 25.771 0 0 1 33.85 0 20.31 20.31 0 0 1 6 8.5 30.18 30.18 0 0 1 4.18 2.23 56.562 56.562 0 0 1-.86 9.22l1.73 2.59a88.771 88.771 0 0 1-1.44 10.66c-.28 1.4-.593 2.77-.94 4.11l-6 2.3-1.37 4 .22.14h.07v-.07l.79.29a16.846 16.846 0 0 1 3.74 1.83l.14.07a164.728 164.728 0 0 1 7.2 4.32c.833.52 1.65 1.047 2.45 1.58.067 0 .837.503 2.31 1.51a118.962 118.962 0 0 1 6.48 12.25 124.895 124.895 0 0 1 4 10.37c.03.043.054.09.07.14a.795.795 0 0 1 .11.21l122.06 18.09a6.81 6.81 0 0 1 2.52.94 110.709 110.709 0 0 1 5.55 4l.14-.07 62.45-43.94a.848.848 0 0 1 .14-.43l-.07.07a25.163 25.163 0 0 1 1.22-3 30.512 30.512 0 0 1 3.39-5.62 36.403 36.403 0 0 1 7-7.2c.753-.613 1.45-1.19 2.09-1.73h.07a.597.597 0 0 1 .29-.14 395.66 395.66 0 0 1 7.85-6.34l26.36-21.25a.482.482 0 0 1 .36-.29c2.48-2.053 4.953-4.07 7.42-6.05.086-.087.183-.161.29-.22l.86-.72h-.07a45.408 45.408 0 0 1 6.84-4.83c.136-.066.281-.113.43-.14a46 46 0 0 1 55.46 8.86l.14.14h.07l.07.07a47.26 47.26 0 0 1 4.68 6c.152.113.276.26.36.43a.789.789 0 0 1 .14.29v-.07a44.265 44.265 0 0 1 7.13 25.79Zm-205.32 64.75-135.13-19.45c-3.827-.227-5.65 1.333-5.47 4.68a224.04 224.04 0 0 1 9.87 30.68 66.65 66.65 0 0 1 .79 3.17 169.34 169.34 0 0 1 1.87 9c.313 1.767.6 3.52.86 5.26a195.3 195.3 0 0 1 .86 6.84c.033.327.057.64.07.94.34 2.993.603 5.993.79 9h.36l32.45 4.12v-.79c.1-4.36.053-8.107-.14-11.24a97.575 97.575 0 0 0-.43-5.69c-.26-2.513-.62-5.3-1.08-8.36a138.218 138.218 0 0 0-4.54-19.66 14.12 14.12 0 0 1 5.62-4.39 14.923 14.923 0 0 1 4.54-1.08l74.26 10.3L596 378.93c-.767-.54-1.54-1.07-2.32-1.59Zm-24 20-56.4-7.56h-.07c-.351.062-.69.183-1 .36a37.11 37.11 0 0 1 8 19.74 42.175 42.175 0 0 1-4.21 21.85 34.856 34.856 0 0 1-.94 1.66l32.13 3.75c5.773-19.133 9.44-29.723 11-31.77l11.49-8.03ZM446.3 303.51a.666.666 0 0 0-.36-.65l-.58-.29a2.804 2.804 0 0 1-.43-.14c-.328-.113-.662-.21-1-.29l-1.08-.36-.14-.14a3.757 3.757 0 0 0-.14-.72c-.18-.433-.3-.747-.36-.94a6.075 6.075 0 0 0-.29-1.15l-.36-1.08a2.84 2.84 0 0 0-.14-.43 8.51 8.51 0 0 0-2.81-.36 1.253 1.253 0 0 1-.29.07c-.053.069-.1.143-.14.22l-.5.65a10.76 10.76 0 0 1-.65 1l-.58.94c-.167.227-.333.467-.5.72a.31.31 0 0 1-.14.07 9.74 9.74 0 0 1-2.88.86l-3 .43c-.667.08-1.267.127-1.8.14l-.43.07c-.973.133-1.527.35-1.66.65-.133.3-.277.633-.43 1a5.896 5.896 0 0 0-.07.65c0 .073.023.147.07.22a.06.06 0 0 0 0 .07.06.06 0 0 0 0 .07.256.256 0 0 0 0 .14c.021.173.069.341.14.5.113.487.233.967.36 1.44.127.473.223.857.29 1.15.243.832.53 1.649.86 2.45a6.842 6.842 0 0 0 2.09 1.73c.78.427 1.55.833 2.31 1.22l2.52.65.79.14h1.51c.241-.009.482-.032.72-.07.288-.008.575-.031.86-.07a13.062 13.062 0 0 0 3-.72 9.286 9.286 0 0 0 2.09-1.08 2.09 2.09 0 0 0 .72-.86l.5-1.3c.307-.807.62-1.67.94-2.59.08-.207.153-.423.22-.65.158-.446.279-.904.36-1.37.133-.4.27-1.063.41-1.99ZM418 291c.313 3.26.77 5.013 1.37 5.26a32.32 32.32 0 0 0 10.66.86 5.094 5.094 0 0 0 3.17-.94l.72-.86.14-.22 1.3-1.58a2.423 2.423 0 0 1 2.3-1.37c1.5.087 2.99.23 4.47.43.406.011.798.15 1.12.396.323.245.561.586.68.974v.07l.5 1.22c.04.067.064.142.07.22l.79 2.23a.518.518 0 0 1 .07.29c1.317.272 2.674.295 4 .07.39-.399.663-.897.79-1.44v-.07a19.869 19.869 0 0 0 1.08-9.22 6.887 6.887 0 0 0-.72-1.37 80.12 80.12 0 0 0-30.69-2.81 1.85 1.85 0 0 1-.43.14 1.82 1.82 0 0 1-.43.22v.07l-.72.43a39.745 39.745 0 0 0-.24 7Zm-12.94 75.11c2-1.14 3.31-1.83 3.79-2.07a812.998 812.998 0 0 0 9.29-4.68l10.59-5.11c1.913-.9 3.833-1.79 5.76-2.67a51.711 51.711 0 0 1 23.63-4l.07.07h.11l-1.3-6.39a84.505 84.505 0 0 1-.36-11.45 29.586 29.586 0 0 0-7.13-2.59L447 332a17.17 17.17 0 0 1-11.24 4 30.344 30.344 0 0 1-11.76-2.16 33.4 33.4 0 0 1-7.56-4.18 32.262 32.262 0 0 1-3-2.38 28.835 28.835 0 0 1-3.24-3.39c-.3-.373-.587-.757-.86-1.15l-9.44 1.37a55.821 55.821 0 0 1 3.17 11.81c.38 2.993.74 5.85 1.08 8.57.423 4.238.47 8.504.14 12.75l-7.56-4.68c3.82 6.09 6.59 10.61 8.33 13.6v-.05ZM288.41 627a37.48 37.48 0 0 0-4.39-5.91l-.29-.29a25.831 25.831 0 0 0-3.6-3.17l-6.91 4.9a22.795 22.795 0 0 1 10 9.58 46.184 46.184 0 0 1 5.78 26.73 49.438 49.438 0 0 1-8.64 26.65 29.626 29.626 0 0 1-7 7.35c-.461.36-.941.694-1.44 1-.582.365-1.182.699-1.8 1a17.158 17.158 0 0 1-17.29-1.73 19.323 19.323 0 0 0 12.75.65 22.279 22.279 0 0 1-10.52-9.94 38.472 38.472 0 0 1-2.38-4.61l-10.23-.29a46.564 46.564 0 0 1-1.22-3.75l10.08.36a45.053 45.053 0 0 1-1.58-6.92l-9.72-.29a82.497 82.497 0 0 1-.29-3.53 72.56 72.56 0 0 1 .07-6 57.939 57.939 0 0 1 2.52-14.62l-5.76 4a.366.366 0 0 1 0 .14 76.35 76.35 0 0 0-1.37 10.8c-.087 2.12-.11 4.183-.07 6.19.04 1.22.087 2.42.14 3.6a50.692 50.692 0 0 0 7.06 22.33c.433.76.867 1.48 1.3 2.16 5.24 7.453 11.673 11.173 19.3 11.16h.22c8.253-.067 15.53-4.51 21.83-13.33.388-.483.749-.987 1.08-1.51.553-.8 1.08-1.64 1.58-2.52a49.792 49.792 0 0 0 3.67-7.56 64.634 64.634 0 0 0 4.32-20.53 54.666 54.666 0 0 0-7.2-32.1Zm47.9 34.57a22.58 22.58 0 0 0-2.52-3.6l-.22-.14a12.333 12.333 0 0 0-9.44-4.25c-.457 0-.915.023-1.37.07a44.024 44.024 0 0 1-3.39.72 20.398 20.398 0 0 0-8.79 7.2 35.318 35.318 0 0 0-6.05 12.89 59.283 59.283 0 0 0-.79 4.47c-.06.667-.133 1.333-.22 2a60.413 60.413 0 0 0-.14 3.75c0 .747.023 1.467.07 2.16a29.54 29.54 0 0 0 3.75 13.47l.5.94c.085.112.159.233.22.36a13.432 13.432 0 0 0 11.45 6.77h.07a16.518 16.518 0 0 0 12.75-7.13c.24-.293.48-.607.72-.94.24-.333.457-.62.65-.86.361-.509.695-1.036 1-1.58a27.467 27.467 0 0 0 2.38-4.61A38.995 38.995 0 0 0 340 681c.067-.667.113-1.333.14-2a31.335 31.335 0 0 0-3.83-17.42v-.01Zm4.61-35.15a15.657 15.657 0 0 1-2.45-2.09l-1.22-1.33a18.153 18.153 0 0 1-1.87-3l-.22.14a.664.664 0 0 0-.14-.14l-12.75 7.85 1.15 7.28 17.5-8.71Zm5-32.63a68.515 68.515 0 0 1-2.92-20.38l-52.15 36.66a35.06 35.06 0 0 1 9.58 8.64 54.05 54.05 0 0 1 2.74 3.82c6.42-4.32 12.253-8.257 17.5-11.81a7190.014 7190.014 0 0 1 25.22-16.93h.03Zm5.19-94.43c30.12-16.087 54.42-27.227 72.9-33.42 4.4-1.467 8.457-2.667 12.17-3.6a36.494 36.494 0 0 1 8.5 4.75c8.487 6.347 14.85 16.72 19.09 31.12l92.42 8.07c-.827-2.767-1.593-5.073-2.3-6.92a79.296 79.296 0 0 0-1.73-4 79.462 79.462 0 0 0-7.27-12.75 57.413 57.413 0 0 0-3.75-4.9 59.126 59.126 0 0 0-5-5.33 62.235 62.235 0 0 0-6.55-5.4 69.222 69.222 0 0 0-4.68-3.17 89.792 89.792 0 0 0-5.11-1.94 115.665 115.665 0 0 0-19.23-4.54c-5.28-.847-11.02-1.493-17.22-1.94l-3.6-.22-.94-.07-16.3-1.1-11.16-.79-10.16-.72a241.374 241.374 0 0 0-11.45 3.6c-7.493 2.573-15.13 5.6-22.91 9.08a388.629 388.629 0 0 0-59.35 34.21 1191.613 1191.613 0 0 0-11.53 8.21c5.207-2.853 10.25-5.597 15.13-8.23h.03Zm12.53 59.57-7.42 5.19c0 1.333.023 2.667.07 4 .073 1.927.193 3.8.36 5.62a78.491 78.491 0 0 0 10.73 34.65c.533.82 1.06 1.613 1.58 2.38l.58.86c8.073 11.58 18.03 17.37 29.87 17.37h.29c12-.127 22.683-6.227 32.05-18.3a39.568 39.568 0 0 0 1.8-2.38c.573-.82 1.1-1.587 1.58-2.3a70.691 70.691 0 0 0 2.52-4 79.27 79.27 0 0 0 5.69-11.74A99.874 99.874 0 0 0 450 558.5a68.24 68.24 0 0 0 .14-5.19c.047-2.313 0-4.593-.14-6.84a78.786 78.786 0 0 0-11.09-37.74 34.76 34.76 0 0 0-1.15-1.94l-9.65 6.84a43.413 43.413 0 0 1 2.3 3.53 65.3 65.3 0 0 1 8.86 29.32c.167 2.127.24 4.287.22 6.48 0 1.733-.047 3.487-.14 5.26v.29a76.268 76.268 0 0 1-13.25 40.7 46.915 46.915 0 0 1-10.8 11.31.61.61 0 0 1-.22.22 23.04 23.04 0 0 1-2 1.3 22.185 22.185 0 0 1-2.74 1.51h-.07c-10.047 3.873-18.883 3.01-26.51-2.59 4.98 2.433 11.56 2.747 19.74.94a21.302 21.302 0 0 1-2.59-1.15 36.555 36.555 0 0 1-13.76-14 64.36 64.36 0 0 1-3.6-7.06l-15.77-.5a70.825 70.825 0 0 1-1.8-5.76l15.49.5a71.58 71.58 0 0 1-2.47-10.66l-14.91-.5c-.2-1.733-.343-3.51-.43-5.33a92.531 92.531 0 0 1-.05-8.51h.03Zm29 130.59a50.017 50.017 0 0 0 4-15.2c.093-.813.167-1.63.22-2.45a37.917 37.917 0 0 0-4.25-21.32 24.194 24.194 0 0 0-3-4.32l-.22-.22a15.005 15.005 0 0 0-11.45-5.26c-.58 0-1.157.047-1.73.14a94.796 94.796 0 0 1-4.18.94 25.384 25.384 0 0 0-11.03 8.73 44.205 44.205 0 0 0-7.71 15.85 60.233 60.233 0 0 0-1.15 5.47c-.087.82-.183 1.637-.29 2.45a99.012 99.012 0 0 0-.36 4.61c0 .913.023 1.803.07 2.67a35.526 35.526 0 0 0 4.25 16.5c.213.42.43.803.65 1.15.087.16.16.303.22.43a16 16 0 0 0 13.85 8.31.154.154 0 0 0 .14 0c5.733-.033 10.99-2.94 15.77-8.72.313-.347.627-.73.94-1.15.289-.34.553-.701.79-1.08.477-.592.911-1.217 1.3-1.87a38.988 38.988 0 0 0 3.1-5.66h.07Zm151.12-161.85-77.14-5c0 8-.193 15.923-.58 23.77-.16 3.427-.353 6.837-.58 10.23-.04.6-.087 1.2-.14 1.8a267.32 267.32 0 0 1-9 52.22c-.667 2.3-1.363 4.58-2.09 6.84a208.944 208.944 0 0 1-26.72 56A135.39 135.39 0 0 1 393.15 709h78.51a96.606 96.606 0 0 0 15.63-9.44 84.798 84.798 0 0 0 9.87-8.5l-21-.29a1.65 1.65 0 0 1-1.22-.5 1.783 1.783 0 0 1-.58-1.22 1.718 1.718 0 0 1 .43-1.22l5.76-7.2c.187-.202.407-.371.65-.5.25-.115.517-.19.79-.22l23.41.43c.392-.016.776.112 1.08.36a121.354 121.354 0 0 0 9.69-14.7 224.406 224.406 0 0 0 7.42-14.62c.227-.407.443-.813.65-1.22L502 649a1.69 1.69 0 0 1-1.08-.36 1.857 1.857 0 0 1-.58-1 1.793 1.793 0 0 1 .07-1.15l3.1-7.13c.164-.342.412-.638.72-.86a2.35 2.35 0 0 1 1.08-.29l22.76 1.15c.17-.012.34.012.5.07a178.726 178.726 0 0 0 8.21-27.73c.4-1.84.807-3.69 1.22-5.55l-21.68-1.3a1.811 1.811 0 0 1-1-.36 1.886 1.886 0 0 1-.58-.86 1.479 1.479 0 0 1-.07-.94l1.44-7.28c.084-.425.314-.807.65-1.08.359-.244.786-.37 1.22-.36l21.75 1.3a.345.345 0 0 0 .22 0 270.64 270.64 0 0 0 3.53-33.57l-22.4-1.44a1.655 1.655 0 0 1-1.22-.65 1.58 1.58 0 0 1-.43-1.08 1.347 1.347 0 0 1 0-.22l.43-7.35c.046-.462.251-.893.58-1.22a2.002 2.002 0 0 1 1.37-.43l22 1.44-.05-23.08Zm6.7 5.47L669.74 544c1.473-15.613-1.623-28.22-9.29-37.82l.07.07a57.856 57.856 0 0 0-21.82-15.75 82.41 82.41 0 0 0-10.44-3.67l-73.76-7.13a78.22 78.22 0 0 1 8.57 16.86c.36.933.693 1.87 1 2.81a85.41 85.41 0 0 1 2.31 8.79c.04.116.064.237.07.36.008.12.008.24 0 .36v.43l-.07.36a2.88 2.88 0 0 1-.86 1.51l-15.2 14.77c.067 2.4.113 4.8.14 7.2v-.01Zm175.76 38.46c.18-2.2.347-4.41.5-6.63 0-.24.023-.48.07-.72a1.76 1.76 0 0 1 .5-1.08 1.92 1.92 0 0 1 1.15-.36l20.6 1.3c0-1.3-.023-2.633-.07-4a14.611 14.611 0 0 0-.07-1.66 154.803 154.803 0 0 0-.72-10.88l-64-5.83c.367 5.593.463 11.163.29 16.71v.72a247.55 247.55 0 0 1-7.77 53.92 204.604 204.604 0 0 1-14 39.26 143.907 143.907 0 0 1-1.73 3.67 157.462 157.462 0 0 1-22 33.71l-9.72 10.52-9.64 8.75h62.45A123.526 123.526 0 0 0 701 693.92l-21-.29a1.72 1.72 0 0 1-1.15-.43 1.65 1.65 0 0 1-.07-2.3c.593-.667 1.17-1.313 1.73-1.94l.07-.07.14-.14a115.163 115.163 0 0 0 4-5c.159-.202.356-.372.58-.5.233-.078.475-.125.72-.14l23.27.36c.373.024.726.176 1 .43a128.764 128.764 0 0 0 10.88-15.27 198.387 198.387 0 0 0 5.19-9.08l1.15-2.3-22.69-1.08a1.428 1.428 0 0 1-.94-.43 1.594 1.594 0 0 1-.58-.86 1.848 1.848 0 0 1 .14-1.08 315.735 315.735 0 0 0 2.16-4.47c.106-.161.203-.328.29-.5v-.07c.061-.209.16-.405.29-.58v-.07c.22-.473.437-.953.65-1.44a1.94 1.94 0 0 1 .65-.72c.292-.147.614-.222.94-.22l23.55 1.15c.169.006.336.029.5.07a179.774 179.774 0 0 0 10.08-29.24l-22.76-1.3a1.49 1.49 0 0 1-.94-.36 1.763 1.763 0 0 1-.58-.79h.07a1.47 1.47 0 0 1-.07-.86c.513-1.847.993-3.72 1.44-5.62 0 0 .06 0 .07-.07.12-.507.24-1.033.36-1.58.124-.346.351-.646.65-.86a1.932 1.932 0 0 1 1.08-.36l22.83 1.3.29.07a204.053 204.053 0 0 0 3.82-32.49l-21.18-1.37a1.463 1.463 0 0 1-1.08-.58 1.572 1.572 0 0 1-.293-.581 1.579 1.579 0 0 1-.037-.649v-.01Zm-69.94-95.3c.278.14.566.26.86.36l1.3.58a64.411 64.411 0 0 1 19.74 13.25 50.34 50.34 0 0 1 14 28.6l74.19 7.13a136.012 136.012 0 0 0-9.15-16.86A66.181 66.181 0 0 0 740 490.5a45.404 45.404 0 0 0-12.78-6.5c-16.787-3.787-39.573-6.333-68.36-7.64h-1.72l-.86-.06Zm-190.74-39.9-.14 8 7.35.5c2.667.18 4.9.347 6.7.5h.29c4.667.333 9.06.767 13.18 1.3 2.667.287 5.213.62 7.64 1a106.858 106.858 0 0 1 25.35 6.55.901.901 0 0 1 .43.14 78.067 78.067 0 0 1 9.29 5.26 72.209 72.209 0 0 1 4.75 3.39 57.918 57.918 0 0 1 5.47 4.83l.29.29c.23.228.447.469.65.72l.07.07h.07l82 8.43L635 470v.07a8.198 8.198 0 0 1 7.06-3.6l11.16.29-.36-7.64-187.32-22.72Zm140.82 4.25v.07c.24-1.127.457-2.257.65-3.39v-.07a1.09 1.09 0 0 1 0-.14c.286-1.93.43-3.879.43-5.83 0-1.607-.073-3.31-.22-5.11l-25.35 13.25a12 12 0 0 1-.36 1.37l-.07.79 23.7 3.1v-.22l.36-.94.14-.58a.94.94 0 0 1 .14-.36c.273-.88.467-1.523.58-1.93v-.01Zm9.87-9.87a48.938 48.938 0 0 1-.36 6.55 3.132 3.132 0 0 1-.07.43 36.628 36.628 0 0 1-.72 4 37.632 37.632 0 0 1-.58 2l-.58 1.94 19.88 2.52a86.229 86.229 0 0 0-.36-3.39c-.353-3.28-.667-5.613-.94-7v-.07c-.167-.913-.333-1.803-.5-2.67-.333-1.56-.693-3.097-1.08-4.61a97.47 97.47 0 0 0-4.32-13c-.153-.453-.32-.91-.5-1.37l-10.73 5.69a59.95 59.95 0 0 1 .85 8.99l.01-.01Zm56.4-72.61a31.877 31.877 0 0 1-3.24-7.71 36.388 36.388 0 0 1-1.08-7.06v-.07a40.12 40.12 0 0 1 0-4.83l-100 69.37a.883.883 0 0 1-.14.14 12.435 12.435 0 0 0-5.69 8.43c-.067.367-.113.727-.14 1.08a18.183 18.183 0 0 0-.07 2.38c.116 1.364.405 2.709.86 4 .113.287.21.55.29.79l109.2-66.48.01-.04Zm111.5-66.56a44.405 44.405 0 0 0-4.25-5.33 35.742 35.742 0 0 0-25.35-11.74 37.482 37.482 0 0 0-22 5.55l-8 6.05c-11.78 9.24-23.03 18.463-33.75 27.67l-9.87 8.5-.58.65a29.107 29.107 0 0 0-4.39 6.48 30.989 30.989 0 0 0-1.51 4v.21h-.07v.07l-.07.07a26.74 26.74 0 0 0-.79 4.18 29.968 29.968 0 0 0-.07 5.11v.07c.075 1.718.293 3.428.65 5.11l40-27.37a25.327 25.327 0 0 1 3.24-13.76c-.04.567-.017 2.057.07 4.47a42.877 42.877 0 0 0 1 7.56l-.07.07a34.568 34.568 0 0 0 4.39 9.94 40.298 40.298 0 0 0 4.32 5.62 41.525 41.525 0 0 0 5 4.54c.26.136.502.304.72.5.433.313.84.6 1.22.86l.29.14a35.372 35.372 0 0 0 18.22 5.76 36.641 36.641 0 0 0 13.18-1.66.108.108 0 0 0 .043-.027.098.098 0 0 0 .027-.043.176.176 0 0 0 .14-.07 34.924 34.924 0 0 0 12.61-7.64 33.807 33.807 0 0 0 11.38-24.85 34.93 34.93 0 0 0-5.73-20.67v-.02ZM566.24 519.82a4.582 4.582 0 0 0-3.17 1.37 4.711 4.711 0 0 0-1.37 3.24 4.57 4.57 0 0 0 1.37 3.24v-.07a4.521 4.521 0 0 0 6.39.09v-.07a4.064 4.064 0 0 0 1.37-3.17 4.315 4.315 0 0 0-1.37-3.24 4.47 4.47 0 0 0-3.22-1.39Zm62.38 6.34a4.67 4.67 0 0 0-4.61 4.61 4.257 4.257 0 0 0 1.37 3.17 4.363 4.363 0 0 0 3.24 1.37 4.678 4.678 0 0 0 4.54-4.54 4.456 4.456 0 0 0-1.37-3.24 4.26 4.26 0 0 0-3.18-1.37h.01Zm-249.95 124a13.653 13.653 0 0 0-1.87-.36l-1.15-.07c-4.38 0-8.38 2.4-12 7.2a32.366 32.366 0 0 0-3.17 5.11 36.755 36.755 0 0 0-3 9.87c-.1.747-.197 1.49-.29 2.23-.127 1.333-.2 2.63-.22 3.89v2.23l6.27.14c.14 1.55.394 3.087.76 4.6l-6.48-.22c.18.827.373 1.62.58 2.38l6.63.22c.4 1.025.858 2.026 1.37 3a14.57 14.57 0 0 0 5.55 6c.324.163.658.307 1 .43l-1.08.22c-2.401.566-4.92.363-7.2-.58a10.92 10.92 0 0 0 11.09 1.08c.423-.211.831-.452 1.22-.72a6.9 6.9 0 0 0 .86-.43.267.267 0 0 0 .07-.14 20.899 20.899 0 0 0 4.83-4.75 33.826 33.826 0 0 0 6.56-17.31c.067-.747.113-1.49.14-2.23a27.336 27.336 0 0 0-3-15 12.622 12.622 0 0 0-7.47-6.75v-.04Zm222-125.77a4.439 4.439 0 0 0-6.27-.14l-.14.14a4.345 4.345 0 0 0-1.37 3.17 4.305 4.305 0 0 0 1.37 3.24 4.328 4.328 0 0 0 3.17 1.37 4.108 4.108 0 0 0 3.17-1.37h.07a4.24 4.24 0 0 0 1.3-3.24 4.174 4.174 0 0 0-1.37-3.17h.07Z" fill="#fff"/></g><defs><clipPath id="a"><path fill="#fff" d="M0 0h1024v1024H0z"/></clipPath></defs></svg>