<svg width="1024" height="1024" viewBox="0 0 1024 1024" fill="none" xmlns="http://www.w3.org/2000/svg">
<g clip-path="url(#clip0_2_2913)">
<path d="M512 1024C794.77 1024 1024 794.77 1024 512C1024 229.23 794.77 0 512 0C229.23 0 0 229.23 0 512C0 794.77 229.23 1024 512 1024Z" fill="#F8C18C"/>
<path d="M486.21 417.46C487.043 418.333 487.509 419.493 487.51 420.7C487.548 421.274 487.473 421.849 487.287 422.393C487.102 422.937 486.811 423.439 486.43 423.87C486.089 424.31 485.652 424.669 485.154 424.918C484.655 425.167 484.107 425.301 483.55 425.31C482.869 425.334 482.195 425.161 481.61 424.81C481.402 424.687 481.208 424.543 481.03 424.38C480.901 424.27 480.781 424.149 480.67 424.02C480.331 423.679 480.041 423.292 479.81 422.87C479.532 422.24 479.386 421.559 479.38 420.87C479.326 419.672 479.71 418.496 480.46 417.56C480.759 417.256 481.095 416.991 481.46 416.77C482.026 416.425 482.668 416.225 483.33 416.19C483.874 416.175 484.415 416.281 484.913 416.501C485.411 416.72 485.854 417.048 486.21 417.46ZM477.57 371.65C477.598 371.532 477.598 371.408 477.57 371.29C477.593 370.115 477.155 368.977 476.35 368.12C475.981 367.69 475.519 367.35 475 367.125C474.48 366.9 473.916 366.795 473.35 366.82C472.81 366.83 472.279 366.958 471.794 367.195C471.308 367.431 470.881 367.771 470.54 368.19C469.77 369.102 469.36 370.263 469.386 371.456C469.411 372.65 469.872 373.792 470.68 374.67C471.038 375.076 471.483 375.396 471.982 375.607C472.48 375.818 473.019 375.915 473.56 375.89C473.978 375.913 474.396 375.837 474.78 375.67C475.443 375.477 476.026 375.073 476.44 374.52C477.173 373.745 477.578 372.717 477.57 371.65ZM480.88 399.45C481.768 399.286 482.562 398.797 483.11 398.08C483.506 397.643 483.812 397.131 484.009 396.575C484.206 396.019 484.292 395.429 484.26 394.84C484.247 393.656 483.782 392.522 482.96 391.67L482.6 391.24V391.31C481.884 390.678 480.965 390.323 480.01 390.31C479.091 390.368 478.223 390.751 477.56 391.39C477.451 391.521 477.331 391.641 477.2 391.75C476.44 392.657 476.032 393.807 476.05 394.99C476.075 395.061 476.075 395.139 476.05 395.21C476.13 396.329 476.588 397.387 477.35 398.21C477.726 398.626 478.191 398.951 478.711 399.163C479.23 399.374 479.791 399.465 480.35 399.43C480.525 399.46 480.703 399.47 480.88 399.46V399.45ZM324.93 661.22C324.435 661.086 323.93 660.989 323.42 660.93L322.56 660.86C320.586 660.997 318.673 661.605 316.982 662.634C315.291 663.662 313.87 665.08 312.84 666.77C311.873 668.082 311.029 669.482 310.32 670.95C309.179 673.514 308.398 676.223 308 679C307.947 679.593 307.9 680.193 307.86 680.8C307.76 681.887 307.713 682.943 307.72 683.97C307.72 684.597 307.743 685.197 307.79 685.77L312.9 685.91C313.05 687.149 313.291 688.376 313.62 689.58L308.29 689.44C308.463 690.107 308.657 690.753 308.87 691.38L314.27 691.52C314.587 692.366 314.972 693.185 315.42 693.97C316.458 695.992 318.059 697.669 320.03 698.8C320.278 698.951 320.543 699.072 320.82 699.16C320.539 699.253 320.252 699.327 319.96 699.38C318.013 699.844 315.969 699.668 314.13 698.88C315.423 699.833 316.952 700.417 318.551 700.568C320.15 700.72 321.761 700.433 323.21 699.74C323.537 699.6 323.851 699.433 324.15 699.24C324.4 699.114 324.64 698.97 324.87 698.81C324.87 698.81 324.87 698.81 324.94 698.74C326.417 697.66 327.707 696.346 328.76 694.85C331.704 690.743 333.436 685.893 333.76 680.85C333.813 680.237 333.837 679.637 333.83 679.05C334.115 674.796 333.189 670.549 331.16 666.8C330.545 665.502 329.678 664.34 328.608 663.382C327.538 662.424 326.288 661.689 324.93 661.22ZM738.46 325.22C736.179 322.674 734.504 319.645 733.56 316.36L766.41 286C768.931 285.963 771.425 286.532 773.68 287.66L774.76 288.16C772.518 285.68 769.765 283.715 766.69 282.4C766.077 282.14 765.453 281.9 764.82 281.68C762.186 280.829 759.447 280.344 756.68 280.24C752.826 280 748.963 280.555 745.332 281.869C741.701 283.183 738.378 285.229 735.57 287.88C732.714 290.445 730.421 293.574 728.834 297.07C727.247 300.565 726.401 304.352 726.35 308.19C726.242 310.977 726.532 313.765 727.21 316.47V316.54C727.957 319.454 729.173 322.227 730.81 324.75C730.838 324.794 730.861 324.841 730.88 324.89C730.932 324.932 730.979 324.978 731.02 325.03C731.989 326.484 733.072 327.859 734.26 329.14V329.21L735.41 330.36L735.48 330.43C737.494 332.402 739.773 334.085 742.25 335.43C746.12 337.475 750.406 338.607 754.78 338.74H754.85C758.713 339.006 762.588 338.463 766.23 337.148C769.871 335.832 773.199 333.773 776 331.1C779.039 328.734 781.316 325.528 782.55 321.88L748.19 332C746.269 331.318 744.451 330.372 742.79 329.19L785.29 309.09C785.37 309.39 785.393 309.103 785.36 308.23C785.61 305.16 784.767 302.1 782.98 299.59L738.46 325.22ZM659.8 530.48H659.87C659.449 530.046 658.946 529.701 658.389 529.466C657.833 529.231 657.234 529.11 656.63 529.11C655.415 529.135 654.255 529.625 653.39 530.48C652.537 531.317 652.046 532.455 652.02 533.65C652.02 534.265 652.141 534.873 652.376 535.441C652.611 536.009 652.956 536.525 653.39 536.96V536.89C653.805 537.331 654.308 537.68 654.866 537.916C655.424 538.152 656.025 538.269 656.63 538.26C657.221 538.288 657.812 538.186 658.359 537.962C658.907 537.737 659.399 537.395 659.8 536.96L659.87 536.89C660.71 536.036 661.177 534.883 661.168 533.685C661.159 532.486 660.674 531.341 659.82 530.5L659.8 530.48ZM799 312.59C798.83 320.966 796.254 329.117 791.58 336.07C791.565 336.093 791.544 336.111 791.519 336.123C791.495 336.136 791.468 336.141 791.44 336.14V336.21C789.467 339.016 787.197 341.601 784.67 343.92C780.191 348.073 774.924 351.283 769.18 353.36C769.154 353.391 769.119 353.414 769.08 353.426C769.041 353.439 769 353.44 768.96 353.43L716.42 375.9H716.35C716.339 375.933 716.321 375.962 716.297 375.987C716.272 376.011 716.243 376.029 716.21 376.04C715.866 376.129 715.531 376.249 715.21 376.4C715.21 376.46 715.21 376.48 715.14 376.47C711.243 377.978 707.125 378.833 702.95 379C701.172 379.051 699.393 379.004 697.62 378.86H697.55C697.45 378.854 697.352 378.831 697.26 378.79C687.473 383.983 677.7 389.193 667.94 394.42C659.513 398.953 651.063 403.48 642.59 408L634.74 412.11L634.67 412.18C636.303 416.331 637.721 420.563 638.92 424.86C640.45 429.838 641.629 434.917 642.45 440.06C642.85 442.56 643.163 445.057 643.39 447.55L657.15 449.28C658.644 449.418 660.031 450.11 661.04 451.22C661.04 451.27 661.09 451.29 661.11 451.29V451.36C661.375 451.624 661.616 451.912 661.83 452.22C662.033 452.534 662.2 452.87 662.33 453.22C662.585 453.812 662.73 454.446 662.76 455.09C662.796 455.159 662.82 455.233 662.83 455.31L663.55 467.41C673.043 467.737 681.903 468.263 690.13 468.99C703.327 470.099 716.44 472.046 729.39 474.82L729.89 474.89C729.956 474.931 730.032 474.955 730.11 474.96C736.858 477.089 743.14 480.483 748.62 484.96C750.731 486.687 752.734 488.54 754.62 490.51C758.642 494.714 762.215 499.325 765.28 504.27C766 505.363 766.697 506.493 767.37 507.66C768.33 509.28 769.267 510.913 770.18 512.56C771.093 514.207 771.957 515.983 772.77 517.89C773.31 519.117 773.813 520.317 774.28 521.49L776.01 525.31C776.853 527.058 777.503 528.892 777.95 530.78V530.92C778.051 531.44 778.075 531.973 778.02 532.5V532.64C777.925 533.495 777.643 534.318 777.196 535.052C776.749 535.786 776.146 536.414 775.43 536.89L758.57 548.89C758.743 552.097 758.84 555.29 758.86 558.47C759.15 575.079 757.746 591.675 754.67 608C750.991 627.827 744.286 646.97 734.79 664.76C725.195 683.063 711.594 698.964 695 711.28L694.93 711.35C691.639 713.886 688.148 716.15 684.49 718.12C684.071 718.346 683.595 718.446 683.12 718.41H272.42C269.333 718.53 266.98 718.577 265.36 718.55C265.289 718.575 265.211 718.575 265.14 718.55C265.07 718.579 264.991 718.579 264.92 718.55H264.06L260.06 718.19C250.74 716.73 242.72 710.667 236 700C235.966 699.96 235.942 699.912 235.93 699.86C228.427 687.651 224.63 673.526 225 659.2C225 643.353 228.627 629.98 235.88 619.08L236.1 618.86C237.68 616.46 239.29 614.18 240.93 612.02C240.457 602.585 241.305 593.13 243.45 583.93C250.69 575.883 258.78 567.407 267.72 558.5C281.053 545.167 296.323 530.903 313.53 515.71C313.637 510.13 313.757 504.68 313.89 499.36C314.103 491.9 314.367 484.697 314.68 477.75C315.073 470.303 315.553 462.97 316.12 455.75C316.947 445.79 317.947 436.09 319.12 426.65C319.338 425.068 320.163 423.634 321.42 422.65L327.9 417.54C330.853 415.24 333.807 412.96 336.76 410.7C343.22 405.807 349.68 401.053 356.14 396.44L364.21 390.82C369.27 387.34 374.313 383.953 379.34 380.66V380.59L379.41 380.66L379.72 380.48C377.031 377.201 375.08 373.381 374 369.28C373.358 366.64 373.069 363.926 373.14 361.21C374.253 354.623 375.07 349.127 375.59 344.72C375.817 343.753 376.08 342.753 376.38 341.72C377.24 338.893 378.057 336.037 378.83 333.15L384.16 319.46L384.38 319.39C386.268 318.387 388.247 317.567 390.29 316.94C392.43 316.387 394.543 315.81 396.63 315.21C399.63 314.417 402.56 313.6 405.42 312.76C405.492 312.777 405.568 312.777 405.64 312.76C405.065 311.825 404.742 310.757 404.7 309.66C402.813 309.311 401.106 308.318 399.87 306.85L399.73 306.78L399.23 305.84C399.023 304.333 398.88 302.293 398.8 299.72C398.769 296.593 398.936 293.466 399.3 290.36V290.29C400.405 288.778 401.932 287.627 403.69 286.98C403.86 286.946 404.027 286.899 404.19 286.84C404.208 286.795 404.208 286.745 404.19 286.7C404.717 281.649 407.166 276.995 411.03 273.7C415.722 269.614 421.733 267.363 427.955 267.363C434.177 267.363 440.188 269.614 444.88 273.7C447.584 275.964 449.652 278.894 450.88 282.2C452.33 282.833 453.727 283.578 455.06 284.43C455.026 287.522 454.738 290.605 454.2 293.65L455.93 296.24C455.666 299.819 455.185 303.379 454.49 306.9C454.21 308.3 453.897 309.67 453.55 311.01L447.55 313.31L446.18 317.31L446.4 317.45H446.47V317.38L447.26 317.67C448.578 318.123 449.834 318.738 451 319.5L451.14 319.57C453.567 320.943 455.967 322.383 458.34 323.89C459.173 324.41 459.99 324.937 460.79 325.47C460.857 325.47 461.627 325.973 463.1 326.98C465.496 330.934 467.66 335.024 469.58 339.23C471.073 342.643 472.407 346.1 473.58 349.6C473.61 349.643 473.634 349.69 473.65 349.74C473.697 349.804 473.734 349.875 473.76 349.95L595.82 368.04C596.714 368.183 597.571 368.502 598.34 368.98C600.153 370.2 602.003 371.533 603.89 372.98L604.03 372.91L666.48 328.97C666.487 328.817 666.535 328.668 666.62 328.54L666.55 328.61C666.892 327.585 667.299 326.583 667.77 325.61C668.695 323.62 669.831 321.736 671.16 319.99C673.15 317.278 675.505 314.855 678.16 312.79C678.913 312.177 679.61 311.6 680.25 311.06H680.32C680.402 310.988 680.502 310.939 680.61 310.92C683.183 308.787 685.8 306.673 688.46 304.58L714.82 283.33C714.851 283.255 714.9 283.19 714.963 283.139C715.026 283.088 715.101 283.054 715.18 283.04C717.66 280.987 720.133 278.97 722.6 276.99C722.686 276.903 722.783 276.829 722.89 276.77L723.75 276.05H723.68C725.806 274.233 728.096 272.616 730.52 271.22C730.656 271.154 730.801 271.107 730.95 271.08C739.875 266.225 750.156 264.461 760.189 266.064C770.222 267.666 779.442 272.546 786.41 279.94L786.55 280.08H786.62L786.69 280.15C788.409 282.021 789.974 284.028 791.37 286.15C791.522 286.263 791.646 286.41 791.73 286.58C791.796 286.666 791.844 286.765 791.87 286.87V286.8C796.85 294.455 799.341 303.464 799 312.59ZM593.68 377.34L458.55 357.89C454.723 357.663 452.9 359.223 453.08 362.57C457.102 372.546 460.401 382.8 462.95 393.25C463.243 394.317 463.507 395.373 463.74 396.42C464.447 399.413 465.07 402.413 465.61 405.42C465.923 407.187 466.21 408.94 466.47 410.68C466.797 412.953 467.083 415.233 467.33 417.52C467.363 417.847 467.387 418.16 467.4 418.46C467.74 421.453 468.003 424.453 468.19 427.46H468.55L501 431.58V430.79C501.1 426.43 501.053 422.683 500.86 419.55C500.787 417.843 500.643 415.947 500.43 413.86C500.17 411.347 499.81 408.56 499.35 405.5C498.318 398.845 496.8 392.274 494.81 385.84C496.277 383.92 498.212 382.408 500.43 381.45C501.877 380.854 503.409 380.49 504.97 380.37L579.23 390.67L596 378.93C595.233 378.39 594.46 377.86 593.68 377.34ZM569.68 397.34L513.28 389.78H513.21C512.859 389.842 512.52 389.963 512.21 390.14C516.748 395.797 519.53 402.66 520.21 409.88C520.788 417.409 519.334 424.955 516 431.73C515.707 432.283 515.393 432.837 515.06 433.39L547.19 437.14C552.963 418.007 556.63 407.417 558.19 405.37L569.68 397.34ZM446.3 303.51C446.311 303.378 446.283 303.246 446.218 303.131C446.154 303.015 446.058 302.921 445.94 302.86L445.36 302.57C445.213 302.535 445.069 302.488 444.93 302.43C444.602 302.317 444.268 302.22 443.93 302.14L442.85 301.78L442.71 301.64C442.687 301.396 442.64 301.155 442.57 300.92C442.39 300.487 442.27 300.173 442.21 299.98C442.151 299.588 442.054 299.203 441.92 298.83L441.56 297.75C441.525 297.603 441.478 297.46 441.42 297.32C440.51 297.044 439.56 296.922 438.61 296.96C438.517 296.995 438.419 297.018 438.32 297.03C438.267 297.099 438.22 297.173 438.18 297.25L437.68 297.9C437.482 298.245 437.265 298.579 437.03 298.9L436.45 299.84C436.283 300.067 436.117 300.307 435.95 300.56C435.91 300.595 435.862 300.619 435.81 300.63C434.9 301.064 433.929 301.354 432.93 301.49L429.93 301.92C429.263 302 428.663 302.047 428.13 302.06L427.7 302.13C426.727 302.263 426.173 302.48 426.04 302.78C425.907 303.08 425.763 303.413 425.61 303.78C425.575 303.995 425.551 304.212 425.54 304.43C425.54 304.503 425.563 304.577 425.61 304.65C425.603 304.66 425.599 304.672 425.599 304.685C425.599 304.698 425.603 304.71 425.61 304.72C425.603 304.73 425.599 304.742 425.599 304.755C425.599 304.768 425.603 304.78 425.61 304.79C425.597 304.836 425.597 304.884 425.61 304.93C425.631 305.103 425.679 305.271 425.75 305.43C425.863 305.917 425.983 306.397 426.11 306.87C426.237 307.343 426.333 307.727 426.4 308.02C426.643 308.852 426.93 309.669 427.26 310.47C427.834 311.18 428.545 311.769 429.35 312.2C430.13 312.627 430.9 313.033 431.66 313.42L434.18 314.07L434.97 314.21H436.48C436.721 314.201 436.962 314.178 437.2 314.14C437.488 314.132 437.775 314.109 438.06 314.07C439.085 313.949 440.092 313.708 441.06 313.35C441.8 313.08 442.502 312.717 443.15 312.27C443.464 312.054 443.713 311.757 443.87 311.41L444.37 310.11C444.677 309.303 444.99 308.44 445.31 307.52C445.39 307.313 445.463 307.097 445.53 306.87C445.688 306.424 445.809 305.966 445.89 305.5C446.023 305.1 446.16 304.437 446.3 303.51ZM418 291C418.313 294.26 418.77 296.013 419.37 296.26C422.851 297.137 426.454 297.427 430.03 297.12C431.162 297.168 432.277 296.837 433.2 296.18L433.92 295.32L434.06 295.1L435.36 293.52C435.566 293.091 435.894 292.732 436.303 292.488C436.713 292.244 437.184 292.127 437.66 292.15C439.16 292.237 440.65 292.38 442.13 292.58C442.536 292.591 442.928 292.73 443.25 292.976C443.573 293.221 443.811 293.562 443.93 293.95V294.02L444.43 295.24C444.47 295.307 444.494 295.382 444.5 295.46L445.29 297.69C445.341 297.778 445.366 297.879 445.36 297.98C446.677 298.252 448.034 298.275 449.36 298.05C449.75 297.651 450.023 297.153 450.15 296.61V296.54C451.233 293.595 451.603 290.436 451.23 287.32C451.042 286.838 450.801 286.378 450.51 285.95C440.558 283.036 430.136 282.082 419.82 283.14C419.683 283.204 419.539 283.251 419.39 283.28C419.257 283.372 419.113 283.446 418.96 283.5V283.57L418.24 284C417.954 286.322 417.874 288.664 418 291ZM405.06 366.11C407.06 364.97 408.37 364.28 408.85 364.04C411.97 362.493 415.067 360.933 418.14 359.36L428.73 354.25C430.643 353.35 432.563 352.46 434.49 351.58C441.945 348.415 450.039 347.044 458.12 347.58L458.19 347.65H458.3L457 341.26C456.621 337.456 456.501 333.63 456.64 329.81C454.384 328.644 451.988 327.774 449.51 327.22L447 332C443.852 334.634 439.864 336.053 435.76 336C431.736 336.067 427.738 335.333 424 333.84C421.31 332.78 418.769 331.375 416.44 329.66C415.394 328.927 414.392 328.132 413.44 327.28C412.27 326.24 411.186 325.106 410.2 323.89C409.9 323.517 409.613 323.133 409.34 322.74L399.9 324.11C401.386 327.919 402.449 331.879 403.07 335.92C403.45 338.913 403.81 341.77 404.15 344.49C404.573 348.728 404.62 352.994 404.29 357.24L396.73 352.56C400.55 358.65 403.32 363.17 405.06 366.16V366.11ZM288.41 627C287.144 624.891 285.674 622.911 284.02 621.09L283.73 620.8C282.631 619.634 281.426 618.573 280.13 617.63L273.22 622.53C277.466 624.609 280.961 627.957 283.22 632.11C287.801 640.232 289.816 649.551 289 658.84C288.75 668.371 285.749 677.626 280.36 685.49C278.467 688.324 276.099 690.811 273.36 692.84C272.899 693.2 272.419 693.534 271.92 693.84C271.338 694.205 270.738 694.539 270.12 694.84C267.345 696.117 264.279 696.629 261.24 696.325C258.2 696.021 255.297 694.911 252.83 693.11C256.884 694.765 261.379 694.994 265.58 693.76C261.065 691.71 257.363 688.212 255.06 683.82C254.164 682.339 253.369 680.799 252.68 679.21L242.45 678.92C242.003 677.727 241.597 676.477 241.23 675.17L251.31 675.53C250.602 673.268 250.074 670.955 249.73 668.61L240.01 668.32C239.89 667.167 239.793 665.99 239.72 664.79C239.66 662.857 239.683 660.857 239.79 658.79C240 653.829 240.847 648.915 242.31 644.17L236.55 648.17C236.559 648.216 236.559 648.264 236.55 648.31C235.837 651.873 235.379 655.482 235.18 659.11C235.093 661.23 235.07 663.293 235.11 665.3C235.15 666.52 235.197 667.72 235.25 668.9C235.828 676.792 238.246 684.44 242.31 691.23C242.743 691.99 243.177 692.71 243.61 693.39C248.85 700.843 255.283 704.563 262.91 704.55H263.13C271.383 704.483 278.66 700.04 284.96 691.22C285.348 690.737 285.709 690.233 286.04 689.71C286.593 688.91 287.12 688.07 287.62 687.19C289.054 684.778 290.282 682.249 291.29 679.63C293.838 673.068 295.298 666.133 295.61 659.1C296.563 647.915 294.049 636.707 288.41 627ZM336.31 661.57C335.589 660.291 334.745 659.085 333.79 657.97L333.57 657.83C332.399 656.48 330.948 655.4 329.318 654.666C327.688 653.932 325.918 653.562 324.13 653.58C323.673 653.58 323.215 653.603 322.76 653.65C321.533 653.957 320.403 654.197 319.37 654.37C315.817 655.889 312.769 658.386 310.58 661.57C307.709 665.411 305.651 669.797 304.53 674.46C304.217 675.9 303.953 677.39 303.74 678.93C303.68 679.597 303.607 680.263 303.52 680.93C303.433 682.21 303.387 683.46 303.38 684.68C303.38 685.427 303.403 686.147 303.45 686.84C303.604 691.565 304.89 696.185 307.2 700.31L307.7 701.25C307.785 701.362 307.859 701.483 307.92 701.61C309.076 703.636 310.74 705.325 312.748 706.512C314.756 707.699 317.038 708.343 319.37 708.38H319.44C321.97 708.249 324.435 707.537 326.646 706.301C328.857 705.065 330.754 703.336 332.19 701.25C332.43 700.957 332.67 700.643 332.91 700.31C333.15 699.977 333.367 699.69 333.56 699.45C333.921 698.941 334.255 698.414 334.56 697.87C335.497 696.412 336.294 694.868 336.94 693.26C338.62 689.367 339.653 685.226 340 681C340.067 680.333 340.113 679.667 340.14 679C340.578 672.945 339.247 666.893 336.31 661.58V661.57ZM340.92 626.42C340.034 625.81 339.213 625.109 338.47 624.33L337.25 623C336.531 622.063 335.904 621.059 335.38 620L335.16 620.14C335.121 620.087 335.073 620.039 335.02 620L322.27 627.85L323.42 635.13L340.92 626.42ZM345.92 593.79C343.926 587.182 342.941 580.312 343 573.41L290.85 610.07C294.55 612.333 297.799 615.262 300.43 618.71C301.37 619.903 302.283 621.177 303.17 622.53C309.59 618.21 315.423 614.273 320.67 610.72C331.557 603.387 339.963 597.743 345.89 593.79H345.92ZM351.11 499.36C381.23 483.273 405.53 472.133 424.01 465.94C428.41 464.473 432.467 463.273 436.18 462.34C439.213 463.537 442.072 465.134 444.68 467.09C453.167 473.437 459.53 483.81 463.77 498.21L556.19 506.28C555.363 503.513 554.597 501.207 553.89 499.36C553.357 498.027 552.78 496.693 552.16 495.36C550.135 490.895 547.702 486.627 544.89 482.61C543.729 480.911 542.477 479.275 541.14 477.71C539.585 475.832 537.915 474.052 536.14 472.38C534.082 470.433 531.894 468.629 529.59 466.98C528.103 465.88 526.543 464.823 524.91 463.81C523.31 463.143 521.607 462.497 519.8 461.87C513.531 459.811 507.098 458.292 500.57 457.33C495.29 456.483 489.55 455.837 483.35 455.39L479.75 455.17L478.81 455.1L462.51 454L451.35 453.21L441.19 452.49C437.423 453.57 433.607 454.77 429.74 456.09C422.247 458.663 414.61 461.69 406.83 465.17C386.078 474.804 366.218 486.252 347.48 499.38C343.687 502.047 339.843 504.783 335.95 507.59C341.157 504.737 346.2 501.993 351.08 499.36H351.11ZM363.64 558.93L356.22 564.12C356.22 565.453 356.243 566.787 356.29 568.12C356.363 570.047 356.483 571.92 356.65 573.74C357.472 585.969 361.147 597.836 367.38 608.39C367.913 609.21 368.44 610.003 368.96 610.77L369.54 611.63C377.613 623.21 387.57 629 399.41 629H399.7C411.7 628.873 422.383 622.773 431.75 610.7C432.377 609.933 432.977 609.14 433.55 608.32C434.123 607.5 434.65 606.733 435.13 606.02C436.003 604.733 436.843 603.4 437.65 602.02C439.866 598.27 441.769 594.343 443.34 590.28C447.279 580.121 449.528 569.386 450 558.5C450.113 556.747 450.16 555.017 450.14 553.31C450.187 550.997 450.14 548.717 450 546.47C449.554 533.155 445.738 520.17 438.91 508.73C438.543 508.063 438.16 507.417 437.76 506.79L428.11 513.63C428.917 514.743 429.683 515.92 430.41 517.16C435.646 526.093 438.683 536.142 439.27 546.48C439.437 548.607 439.51 550.767 439.49 552.96C439.49 554.693 439.443 556.447 439.35 558.22V558.51C438.909 573.063 434.311 587.186 426.1 599.21C423.158 603.558 419.507 607.381 415.3 610.52C415.247 610.611 415.171 610.687 415.08 610.74C414.436 611.208 413.769 611.641 413.08 612.04C412.203 612.607 411.288 613.112 410.34 613.55H410.27C400.223 617.423 391.387 616.56 383.76 610.96C388.74 613.393 395.32 613.707 403.5 611.9C402.612 611.575 401.747 611.19 400.91 610.75C395.133 607.425 390.374 602.584 387.15 596.75C385.806 594.473 384.604 592.115 383.55 589.69L367.78 589.19C367.113 587.343 366.513 585.423 365.98 583.43L381.47 583.93C380.376 580.445 379.55 576.881 379 573.27L364.09 572.77C363.89 571.037 363.747 569.26 363.66 567.44C363.513 564.687 363.497 561.85 363.61 558.93H363.64ZM392.64 689.52C394.766 684.696 396.116 679.566 396.64 674.32C396.733 673.507 396.807 672.69 396.86 671.87C397.555 664.501 396.077 657.09 392.61 650.55C391.77 649.005 390.764 647.557 389.61 646.23L389.39 646.01C387.977 644.355 386.221 643.028 384.244 642.119C382.267 641.211 380.116 640.744 377.94 640.75C377.36 640.75 376.783 640.797 376.21 640.89C374.697 641.263 373.303 641.577 372.03 641.83C367.604 643.643 363.781 646.669 361 650.56C357.392 655.272 354.77 660.663 353.29 666.41C352.83 668.177 352.447 670 352.14 671.88C352.053 672.7 351.957 673.517 351.85 674.33C351.69 675.917 351.57 677.453 351.49 678.94C351.49 679.853 351.513 680.743 351.56 681.61C351.617 687.373 353.076 693.036 355.81 698.11C356.023 698.53 356.24 698.913 356.46 699.26C356.547 699.42 356.62 699.563 356.68 699.69C358.044 702.179 360.046 704.261 362.48 705.721C364.913 707.181 367.692 707.968 370.53 708C370.552 708.011 370.576 708.017 370.6 708.017C370.624 708.017 370.649 708.011 370.67 708C376.403 707.967 381.66 705.06 386.44 699.28C386.753 698.933 387.067 698.55 387.38 698.13C387.669 697.79 387.933 697.429 388.17 697.05C388.647 696.458 389.081 695.833 389.47 695.18C390.658 693.382 391.695 691.489 392.57 689.52H392.64ZM543.76 527.67L466.62 522.67C466.62 530.67 466.427 538.593 466.04 546.44C465.88 549.867 465.687 553.277 465.46 556.67C465.42 557.27 465.373 557.87 465.32 558.47C464.057 576.132 461.042 593.624 456.32 610.69C455.653 612.99 454.957 615.27 454.23 617.53C448.16 637.423 439.154 656.297 427.51 673.53C418.328 687.36 406.681 699.383 393.15 709H471.66C477.156 706.354 482.39 703.193 487.29 699.56C490.793 696.984 494.093 694.142 497.16 691.06L476.16 690.77C475.933 690.775 475.708 690.733 475.498 690.647C475.288 690.561 475.098 690.433 474.94 690.27C474.594 689.955 474.386 689.517 474.36 689.05C474.339 688.603 474.493 688.165 474.79 687.83L480.55 680.63C480.737 680.428 480.957 680.259 481.2 680.13C481.45 680.015 481.717 679.94 481.99 679.91L505.4 680.34C505.792 680.324 506.176 680.452 506.48 680.7C510.062 676.041 513.3 671.128 516.17 666C518.837 661.187 521.31 656.313 523.59 651.38C523.817 650.973 524.033 650.567 524.24 650.16L502 649C501.609 649.009 501.228 648.881 500.92 648.64C500.625 648.377 500.422 648.026 500.34 647.64C500.236 647.259 500.261 646.855 500.41 646.49L503.51 639.36C503.674 639.018 503.922 638.722 504.23 638.5C504.562 638.318 504.932 638.218 505.31 638.21L528.07 639.36C528.24 639.348 528.41 639.372 528.57 639.43C532.051 630.424 534.797 621.15 536.78 611.7C537.18 609.86 537.587 608.01 538 606.15L516.32 604.85C515.958 604.833 515.61 604.707 515.32 604.49C515.05 604.263 514.849 603.965 514.74 603.63C514.615 603.333 514.59 603.003 514.67 602.69L516.11 595.41C516.194 594.985 516.424 594.603 516.76 594.33C517.119 594.086 517.546 593.96 517.98 593.97L539.73 595.27C539.802 595.294 539.879 595.294 539.95 595.27C541.824 584.164 543.003 572.953 543.48 561.7L521.08 560.26C520.842 560.246 520.609 560.181 520.399 560.069C520.188 559.957 520.004 559.8 519.86 559.61C519.585 559.318 519.431 558.932 519.43 558.53C519.424 558.457 519.424 558.383 519.43 558.31L519.86 550.96C519.906 550.498 520.111 550.067 520.44 549.74C520.828 549.432 521.316 549.279 521.81 549.31L543.81 550.75L543.76 527.67ZM550.46 533.14L669.74 544C671.213 528.387 668.117 515.78 660.45 506.18L660.52 506.25C654.586 499.358 647.11 493.962 638.7 490.5C635.306 489.044 631.818 487.818 628.26 486.83L554.5 479.7C558.028 484.953 560.906 490.614 563.07 496.56C563.43 497.493 563.763 498.43 564.07 499.37C564.995 502.257 565.767 505.191 566.38 508.16C566.42 508.276 566.444 508.397 566.45 508.52C566.458 508.64 566.458 508.76 566.45 508.88V509.31L566.38 509.67C566.256 510.25 565.955 510.777 565.52 511.18L550.32 525.95C550.387 528.35 550.433 530.75 550.46 533.15V533.14ZM726.22 571.6C726.4 569.4 726.567 567.19 726.72 564.97C726.72 564.73 726.743 564.49 726.79 564.25C726.826 563.843 727.003 563.461 727.29 563.17C727.625 562.93 728.028 562.803 728.44 562.81L749.04 564.11C749.04 562.81 749.017 561.477 748.97 560.11C748.978 559.556 748.955 559.002 748.9 558.45C748.787 554.803 748.547 551.177 748.18 547.57L684.18 541.74C684.547 547.333 684.643 552.903 684.47 558.45V559.17C683.917 575.997 681.648 592.724 677.7 609.09C677.367 610.463 677.033 611.797 676.7 613.09C673.382 626.619 668.691 639.774 662.7 652.35C662.133 653.597 661.557 654.82 660.97 656.02C655.109 668.152 647.715 679.481 638.97 689.73L629.25 700.25L619.61 709H682.06C688.852 704.605 695.196 699.555 701 693.92L680 693.63C679.577 693.633 679.167 693.48 678.85 693.2C678.541 692.901 678.361 692.494 678.348 692.064C678.335 691.635 678.49 691.217 678.78 690.9C679.373 690.233 679.95 689.587 680.51 688.96L680.58 688.89L680.72 688.75C682.113 687.103 683.447 685.437 684.72 683.75C684.879 683.548 685.076 683.378 685.3 683.25C685.533 683.172 685.775 683.125 686.02 683.11L709.29 683.47C709.663 683.494 710.016 683.646 710.29 683.9C714.283 679.081 717.919 673.978 721.17 668.63C722.983 665.643 724.713 662.617 726.36 659.55L727.51 657.25L704.82 656.17C704.464 656.149 704.129 655.996 703.88 655.74C703.596 655.526 703.392 655.223 703.3 654.88C703.237 654.514 703.286 654.138 703.44 653.8C704.173 652.313 704.893 650.823 705.6 649.33C705.706 649.169 705.803 649.002 705.89 648.83V648.76C705.951 648.551 706.05 648.355 706.18 648.18V648.11C706.4 647.637 706.617 647.157 706.83 646.67C706.982 646.379 707.206 646.131 707.48 645.95C707.772 645.803 708.094 645.728 708.42 645.73L731.97 646.88C732.139 646.886 732.306 646.909 732.47 646.95C736.664 637.511 740.036 627.728 742.55 617.71L719.79 616.41C719.444 616.403 719.112 616.275 718.85 616.05C718.586 615.847 718.385 615.573 718.27 615.26H718.34C718.231 614.987 718.207 614.687 718.27 614.4C718.783 612.553 719.263 610.68 719.71 608.78C719.71 608.78 719.77 608.78 719.78 608.71C719.9 608.203 720.02 607.677 720.14 607.13C720.264 606.784 720.491 606.484 720.79 606.27C721.106 606.044 721.482 605.919 721.87 605.91L744.7 607.21L744.99 607.28C747.131 596.57 748.408 585.705 748.81 574.79L727.63 573.42C727.419 573.407 727.213 573.349 727.026 573.249C726.84 573.149 726.677 573.009 726.55 572.84C726.413 572.669 726.313 572.471 726.257 572.259C726.2 572.048 726.187 571.827 726.22 571.61V571.6ZM656.28 476.3C656.558 476.44 656.846 476.56 657.14 476.66L658.44 477.24C665.785 480.393 672.479 484.887 678.18 490.49C685.818 498.257 690.731 508.293 692.18 519.09L766.37 526.22C763.721 520.392 760.663 514.758 757.22 509.36C752.759 502.015 746.91 495.609 740 490.5C736.111 487.67 731.797 485.476 727.22 484C710.433 480.213 687.647 477.667 658.86 476.36H657.14L656.28 476.3ZM465.54 436.4L465.4 444.4L472.75 444.9C475.417 445.08 477.65 445.247 479.45 445.4H479.74C484.407 445.733 488.8 446.167 492.92 446.7C495.587 446.987 498.133 447.32 500.56 447.7C509.247 448.836 517.761 451.036 525.91 454.25C526.063 454.259 526.211 454.308 526.34 454.39C529.553 455.929 532.657 457.687 535.63 459.65C537.297 460.743 538.88 461.873 540.38 463.04C542.303 464.533 544.13 466.147 545.85 467.87L546.14 468.16C546.37 468.388 546.587 468.629 546.79 468.88L546.86 468.95H546.93L628.93 477.38L635 470V470.07C635.777 468.922 636.832 467.99 638.066 467.361C639.301 466.731 640.675 466.425 642.06 466.47L653.22 466.76L652.86 459.12L465.54 436.4ZM606.36 440.65V440.72C606.6 439.593 606.817 438.463 607.01 437.33V437.26C607.007 437.213 607.007 437.167 607.01 437.12C607.296 435.19 607.44 433.241 607.44 431.29C607.44 429.683 607.367 427.98 607.22 426.18L581.87 439.43C581.777 439.893 581.657 440.351 581.51 440.8L581.44 441.59L605.14 444.69V444.47L605.5 443.53L605.64 442.95C605.661 442.822 605.709 442.699 605.78 442.59C606.053 441.71 606.247 441.067 606.36 440.66V440.65ZM616.23 430.78C616.257 432.969 616.136 435.157 615.87 437.33C615.857 437.475 615.833 437.618 615.8 437.76C615.634 439.106 615.394 440.441 615.08 441.76C614.907 442.427 614.713 443.093 614.5 443.76L613.92 445.7L633.8 448.22C633.693 447 633.573 445.87 633.44 444.83C633.087 441.55 632.773 439.217 632.5 437.83V437.76C632.333 436.847 632.167 435.957 632 435.09C631.667 433.53 631.307 431.993 630.92 430.48C629.787 426.051 628.343 421.707 626.6 417.48C626.447 417.027 626.28 416.57 626.1 416.11L615.37 421.8C615.879 424.771 616.163 427.776 616.22 430.79L616.23 430.78ZM672.63 358.17C671.216 355.754 670.127 353.161 669.39 350.46C668.799 348.148 668.438 345.783 668.31 343.4V343.33C668.213 341.721 668.213 340.109 668.31 338.5L568.31 407.87C568.269 407.922 568.222 407.968 568.17 408.01C566.681 408.935 565.404 410.164 564.423 411.616C563.443 413.069 562.78 414.713 562.48 416.44C562.413 416.807 562.367 417.167 562.34 417.52C562.265 418.311 562.241 419.106 562.27 419.9C562.386 421.264 562.675 422.609 563.13 423.9C563.243 424.187 563.34 424.45 563.42 424.69L672.62 358.21L672.63 358.17ZM784.13 291.61C782.852 289.727 781.431 287.945 779.88 286.28C776.659 282.721 772.755 279.848 768.4 277.831C764.044 275.814 759.327 274.694 754.53 274.54C746.8 274.073 739.114 276.011 732.53 280.09L724.53 286.14C712.75 295.38 701.5 304.603 690.78 313.81L680.91 322.31L680.33 322.96C678.582 324.912 677.105 327.092 675.94 329.44C675.345 330.737 674.841 332.073 674.43 333.44V333.65H674.36V333.72L674.29 333.79C673.916 335.16 673.652 336.558 673.5 337.97C673.331 339.668 673.308 341.378 673.43 343.08V343.15C673.505 344.868 673.723 346.578 674.08 348.26L714.08 320.89C713.832 316.089 714.956 311.316 717.32 307.13C717.28 307.697 717.303 309.187 717.39 311.6C717.498 314.145 717.833 316.675 718.39 319.16L718.32 319.23C719.25 322.754 720.732 326.109 722.71 329.17C723.982 331.167 725.428 333.047 727.03 334.79C728.571 336.437 730.243 337.955 732.03 339.33C732.29 339.466 732.532 339.634 732.75 339.83C733.183 340.143 733.59 340.43 733.97 340.69L734.26 340.83C739.69 344.385 745.993 346.378 752.48 346.59C756.938 346.844 761.405 346.282 765.66 344.93C765.676 344.925 765.691 344.915 765.703 344.903C765.716 344.891 765.725 344.876 765.73 344.86C765.757 344.86 765.784 344.853 765.808 344.841C765.832 344.829 765.854 344.811 765.87 344.79C770.569 343.17 774.868 340.565 778.48 337.15C782.002 334.028 784.833 330.205 786.792 325.926C788.752 321.647 789.797 317.006 789.86 312.3C790.165 304.98 788.161 297.749 784.13 291.63V291.61ZM566.24 519.82C565.045 519.846 563.908 520.337 563.07 521.19C562.212 522.053 561.721 523.214 561.7 524.43C561.703 525.034 561.825 525.631 562.06 526.187C562.295 526.744 562.639 527.248 563.07 527.67V527.6C563.906 528.459 565.048 528.951 566.246 528.968C567.445 528.985 568.601 528.525 569.46 527.69V527.62C569.907 527.225 570.262 526.736 570.499 526.188C570.736 525.64 570.849 525.047 570.83 524.45C570.842 523.844 570.726 523.242 570.49 522.684C570.254 522.126 569.903 521.624 569.46 521.21C569.045 520.773 568.545 520.425 567.992 520.186C567.439 519.947 566.843 519.823 566.24 519.82ZM628.62 526.16C627.402 526.176 626.239 526.666 625.378 527.527C624.516 528.389 624.026 529.552 624.01 530.77C624.005 531.365 624.124 531.954 624.359 532.5C624.595 533.046 624.943 533.537 625.38 533.94C625.796 534.38 626.298 534.73 626.856 534.965C627.414 535.201 628.015 535.319 628.62 535.31C629.813 535.275 630.948 534.785 631.791 533.941C632.635 533.097 633.125 531.963 633.16 530.77C633.163 530.165 633.044 529.566 632.808 529.009C632.573 528.452 632.226 527.949 631.79 527.53C631.385 527.092 630.893 526.743 630.346 526.507C629.798 526.271 629.207 526.153 628.61 526.16H628.62ZM378.67 650.16C378.056 649.997 377.431 649.876 376.8 649.8L375.65 649.73C371.27 649.73 367.27 652.13 363.65 656.93C362.437 658.531 361.376 660.242 360.48 662.04C359.021 665.173 358.011 668.495 357.48 671.91C357.38 672.657 357.283 673.4 357.19 674.14C357.063 675.473 356.99 676.77 356.97 678.03V680.26L363.24 680.4C363.38 681.95 363.634 683.487 364 685L357.52 684.78C357.7 685.607 357.893 686.4 358.1 687.16L364.73 687.38C365.13 688.405 365.588 689.406 366.1 690.38C367.34 692.869 369.266 694.951 371.65 696.38C371.974 696.543 372.308 696.687 372.65 696.81L371.57 697.03C369.169 697.596 366.65 697.393 364.37 696.45C365.951 697.609 367.816 698.321 369.767 698.511C371.718 698.701 373.685 698.362 375.46 697.53C375.883 697.319 376.291 697.078 376.68 696.81C376.976 696.687 377.264 696.543 377.54 696.38C377.577 696.341 377.601 696.293 377.61 696.24C379.468 694.93 381.099 693.325 382.44 691.49C386.194 686.442 388.465 680.448 389 674.18C389.067 673.433 389.113 672.69 389.14 671.95C389.588 666.766 388.547 661.563 386.14 656.95C385.425 655.372 384.393 653.959 383.108 652.797C381.823 651.636 380.312 650.752 378.67 650.2V650.16ZM600.67 524.39C599.856 523.541 598.739 523.05 597.564 523.024C596.389 522.997 595.251 523.438 594.4 524.25L594.26 524.39C593.827 524.797 593.482 525.288 593.246 525.833C593.011 526.378 592.889 526.966 592.89 527.56C592.877 528.166 592.992 528.768 593.228 529.327C593.464 529.885 593.816 530.387 594.26 530.8C594.667 531.233 595.158 531.578 595.703 531.814C596.248 532.05 596.836 532.171 597.43 532.17C598.026 532.185 598.619 532.071 599.166 531.834C599.713 531.598 600.203 531.245 600.6 530.8H600.67C601.104 530.383 601.445 529.879 601.669 529.32C601.893 528.761 601.996 528.161 601.97 527.56C601.981 526.964 601.865 526.373 601.629 525.827C601.392 525.28 601.042 524.79 600.6 524.39H600.67Z" fill="white"/>
</g>
<defs>
<clipPath id="clip0_2_2913">
<rect width="1024" height="1024" fill="white"/>
</clipPath>
</defs>
</svg>
