<svg width="1024" height="1024" viewBox="0 0 1024 1024" fill="none" xmlns="http://www.w3.org/2000/svg">
<g clip-path="url(#clip0_2_2916)">
<path d="M512 1024C794.77 1024 1024 794.77 1024 512C1024 229.23 794.77 0 512 0C229.23 0 0 229.23 0 512C0 794.77 229.23 1024 512 1024Z" fill="#728DBE"/>
<path d="M372.1 421.9L380.2 426.6L388 431.1L636 574.4V440.4L612.9 427.1L496 359.7L381.1 293.3C380.4 292.9 379.5 292.9 378.9 293.3L263.9 359.7L372.1 421.9ZM636 297.2L527.9 359.7L636 422.1V297.2ZM651.9 449.6V583.6L768 650.6V365.5C768 364.7 767.6 363.9 766.8 363.6L651.8 297.2V449.6H651.9ZM635.9 592.8L388 449.6V583.6L642.8 730.7C643.5 731.1 644.4 731.1 645 730.7L760 664.3L757.4 662.8L635.9 592.8ZM372.1 440.4L256 373.4V658.5C256 659.3 256.4 660.1 257.2 660.4L372.2 726.8V440.4H372.1ZM496 664.3L388 601.9V726.8L496 664.3Z" fill="white"/>
</g>
<defs>
<clipPath id="clip0_2_2916">
<rect width="1024" height="1024" fill="white"/>
</clipPath>
</defs>
</svg>
