<svg width="1024" height="1024" fill="none" xmlns="http://www.w3.org/2000/svg"><g clip-path="url(#a)"><path d="M512 1024c282.77 0 512-229.23 512-512S794.77 0 512 0 0 229.23 0 512s229.23 512 512 512Z" fill="#9ABEFF"/><path d="M512.46 370.87c-64.58 0-118.83 44.23-135.39 103.72-14.47-31.83-46.32-54.38-83.31-54.38a91.79 91.79 0 0 0 0 183.57c37 0 68.82-22.58 83.29-54.4 16.56 59.52 70.83 103.75 135.42 103.75 64.25 0 118.21-43.74 135.13-102.74 14.7 31.26 46.06 53.4 82.61 53.4a91.79 91.79 0 0 0 0-183.57c-36.58 0-67.94 22.16-82.64 53.4-16.89-59.01-70.86-102.77-135.11-102.75Zm0 53.86a87.279 87.279 0 0 1 48.409 14.639 87.278 87.278 0 0 1 37.272 89.346 87.269 87.269 0 0 1-118.49 64.142A87.27 87.27 0 0 1 425.22 512.8v-.8a86.847 86.847 0 0 1 25.43-61.816 86.849 86.849 0 0 1 61.81-25.444v-.01Zm-218.7 49.34a37.919 37.919 0 0 1 37.262 45.013 37.922 37.922 0 0 1-29.353 29.995 37.924 37.924 0 0 1-39.027-15.434 37.927 37.927 0 0 1-6.782-20.844v-.81a37.48 37.48 0 0 1 37.9-37.9v-.02Zm436.45 0a37.919 37.919 0 0 1 37.262 45.013 37.914 37.914 0 0 1-29.353 29.995 37.924 37.924 0 0 1-39.027-15.434 37.927 37.927 0 0 1-6.782-20.844v-.81a37.48 37.48 0 0 1 37.9-37.9v-.02Z" fill="#fff"/></g><defs><clipPath id="a"><path fill="#fff" d="M0 0h1024v1024H0z"/></clipPath></defs></svg>