<svg width="1024" height="1024" fill="none" xmlns="http://www.w3.org/2000/svg"><g clip-path="url(#a)"><path d="M512 1024c282.77 0 512-229.23 512-512S794.77 0 512 0 0 229.23 0 512s229.23 512 512 512Z" fill="#728DBE"/><path d="M484.5 395.87a129.766 129.766 0 0 0-142.15 28.44l-89.18 89.63A72.802 72.802 0 0 0 232 565.28c0 39.83 32.61 72.59 72.24 72.59.87 0 1.74 0 2.62-.05a54.647 54.647 0 0 1-34.396-40.133 54.65 54.65 0 0 1 1.328-27.26 54.651 54.651 0 0 1 14.348-23.217l74.59-74.92 7.91-8 2.68-2.69 3-3.06c1.867-1.84 3.79-3.6 5.77-5.28A168.521 168.521 0 0 1 493.4 411.4a170.96 170.96 0 0 1 19.95 1.16 129.327 129.327 0 0 0-28.9-16.71l.05.02Zm302.25 35.39c-14.93-36.89-57.4-54.94-94.13-40l-.92.38a72.073 72.073 0 0 0-23 15.56l-54.57 54.85-7.87 7.95c-.24.23-.48.47-.73.69a24.092 24.092 0 0 1-33.32-.69l-41.87-42.07a157.2 157.2 0 0 0-94.16 6.46 81.55 81.55 0 0 1 56.55 24.19l72.39 72.74a34.201 34.201 0 0 0 48.24 0l89.37-89.8a24.606 24.606 0 0 1 2.78-2.41 54.094 54.094 0 0 1 49.346-11.245A54.09 54.09 0 0 1 791.9 462.35a72.69 72.69 0 0 0-5.16-31l.01-.09Zm-45.94 6.83a41.72 41.72 0 0 0-7.29.63 24.263 24.263 0 0 1 8.887 28.144 24.26 24.26 0 0 1-5.627 8.856L648 564.94l-.57.57a79.07 79.07 0 0 1-4.85 4.5 168.629 168.629 0 0 1-112.8 43.14 170.91 170.91 0 0 1-18.57-1 130.001 130.001 0 0 0 170.23-12.4l86.66-87 2.75-2.77c1-1 1.91-2 2.82-3a42.386 42.386 0 0 0-10.409-62.222 42.386 42.386 0 0 0-22.461-6.598l.01-.07Zm-152.44 151.6a81.859 81.859 0 0 1-57.37-24.2l-72-72.4a34.607 34.607 0 0 0-24.39-10.38 33.838 33.838 0 0 0-24.17 10l-21.25 21.38-8.95 9L359.45 544l-8.62 8.67L336.6 567l-12.73 12.8-2.54 2.57a24.008 24.008 0 0 1-19.444 6.983 23.997 23.997 0 0 1-17.666-10.713 42.383 42.383 0 0 0 23.397 46.242A42.387 42.387 0 0 0 325.59 629a42.001 42.001 0 0 0 28.67-11.32l.55-.54.55-.54.73-.73 23.48-23.6 38.14-38.33a24.097 24.097 0 0 1 33.86.19L494.23 597a157.215 157.215 0 0 0 94.14-7.31Z" fill="#fff"/></g><defs><clipPath id="a"><path fill="#fff" d="M0 0h1024v1024H0z"/></clipPath></defs></svg>