<svg width="1024" height="1024" fill="none" xmlns="http://www.w3.org/2000/svg"><g clip-path="url(#a)"><path d="M512 1024c282.77 0 512-229.23 512-512S794.77 0 512 0 0 229.23 0 512s229.23 512 512 512Z" fill="#F9DE81"/><path d="M512 745.77c-128.66 0-232.26-104.27-232.26-233.77S383.34 278.23 512 278.23 744.26 382.5 744.26 512 640.66 745.77 512 745.77Zm0-511.27C359.95 234.5 236.3 359 236.3 512S359.95 789.5 512 789.5c152.05 0 275.7-124.5 275.7-277.5S664.05 234.5 512 234.5Zm128.66 362.43c-10-6.73-23.39-3.36-30.08 6.73 0 .84-30.91 48.77-98.58 48.77-66.84 0-96.91-46.25-98.58-48.77a20.577 20.577 0 0 0-13.163-9.696 20.568 20.568 0 0 0-16.077 2.966c-10 5.89-13.37 19.34-7.52 29.43 1.67 2.52 44.28 69 135.34 69s133.67-65.59 135.34-69c5.85-10.09 3.35-23.54-6.68-29.43Zm-15-82.41h-40.98v-40.36h40.94c13.37 0 21.72 7.57 21.72 20.18 0 11.77-8.34 20.18-21.72 20.18h.04Zm19.22-85.77c0 11.77-7.52 18.5-20.89 18.5h-39.31v-37H624c13.32 0 20.84 6.75 20.84 18.5h.04Zm12.53 31.11c9.19-5.89 16.71-16.82 16.71-32 0-23.55-14.2-39.52-36.76-43.73v-12.56a10.858 10.858 0 0 0-10.86-10.86 10.858 10.858 0 0 0-10.86 10.86v11.77h-16.75v-11.77a10.858 10.858 0 0 0-10.86-10.86 10.858 10.858 0 0 0-10.86 10.86v11.77h-10A12.891 12.891 0 0 0 554.61 396v132.82a12.888 12.888 0 0 0 12.53 12.61h10v14.3A10.858 10.858 0 0 0 588 566.59a10.86 10.86 0 0 0 10.86-10.86v-14.3h16.74v14.3a10.858 10.858 0 0 0 10.86 10.86 10.86 10.86 0 0 0 10.86-10.86v-15.14c24.23-3.36 39.27-20.18 39.27-45.41-.84-15.18-7.52-28.59-19.22-35.32h.04Zm-280.75 34.48c0-12.61 8.35-20.18 21.72-20.18h40.94v40.36h-40.94c-13.38 0-21.72-8.41-21.72-20.18ZM400 410.25h39.27v37H400c-13.37 0-20.89-6.73-20.89-18.5s7.57-18.5 20.89-18.5Zm-12.48 145.48a10.858 10.858 0 0 0 10.86 10.86 10.86 10.86 0 0 0 10.86-10.86v-14.3h16.71v14.3a10.858 10.858 0 0 0 10.86 10.86 10.86 10.86 0 0 0 10.86-10.86v-14.3h10a12.889 12.889 0 0 0 12.53-12.61V395.11a12.889 12.889 0 0 0-12.5-12.61h-10v-11.77a10.858 10.858 0 0 0-10.86-10.86 10.858 10.858 0 0 0-10.86 10.86v11.77h-16.74v-11.77a10.858 10.858 0 0 0-10.86-10.86 10.858 10.858 0 0 0-10.86 10.86v12.61c-22.56 4.2-36.76 20.18-36.76 43.73 0 15.14 7.52 26.07 16.71 32-11.7 7.57-18.38 20.18-18.38 35.32 0 25.23 15 42 39.27 45.41v16l-.84-.07Z" fill="#fff"/></g><defs><clipPath id="a"><path fill="#fff" d="M0 0h1024v1024H0z"/></clipPath></defs></svg>