<svg width="1024" height="1024" viewBox="0 0 1024 1024" fill="none" xmlns="http://www.w3.org/2000/svg">
<g clip-path="url(#clip0_2_2952)">
<path d="M512 1024C794.77 1024 1024 794.77 1024 512C1024 229.23 794.77 0 512 0C229.23 0 0 229.23 0 512C0 794.77 229.23 1024 512 1024Z" fill="#FF837D"/>
<path d="M324.1 569H233L369.7 295.6H574.7L540.5 375.3H415.2L324.1 569ZM699.9 455L608.8 648.6H483.5L449.3 728.3H654.3L791.1 455H699.9ZM506.3 580.4H597.4L734.1 307H643L551.9 500.6L529.1 443.6H426.6L289.9 728.4H381L483.5 523.4L506.3 580.4Z" fill="white"/>
</g>
<defs>
<clipPath id="clip0_2_2952">
<rect width="1024" height="1024" fill="white"/>
</clipPath>
</defs>
</svg>
