<svg width="1024" height="1024" fill="none" xmlns="http://www.w3.org/2000/svg"><g clip-path="url(#a)"><path d="M512 1024c282.77 0 512-229.23 512-512S794.77 0 512 0 0 229.23 0 512s229.23 512 512 512Z" fill="#FF837D"/><path d="M324.1 569H233l136.7-273.4h205l-34.2 79.7H415.2L324.1 569Zm375.8-114-91.1 193.6H483.5l-34.2 79.7h205L791.1 455h-91.2ZM506.3 580.4h91.1L734.1 307H643l-91.1 193.6-22.8-57H426.6L289.9 728.4H381l102.5-205 22.8 57Z" fill="#fff"/></g><defs><clipPath id="a"><path fill="#fff" d="M0 0h1024v1024H0z"/></clipPath></defs></svg>