<svg width="1024" height="1024" fill="none" xmlns="http://www.w3.org/2000/svg"><g clip-path="url(#a)"><path d="M512 1024c282.77 0 512-229.23 512-512S794.77 0 512 0 0 229.23 0 512s229.23 512 512 512Z" fill="#728DBE"/><path d="M304.72 663.44A258.186 258.186 0 0 1 256 512c0-142.49 114.62-258 256-258s256 115.51 256 258a258.183 258.183 0 0 1-48.729 151.45l-123-201.23-11.87 20.2 12 56.19L512 392.92l-52.27 88.94 12.17 56.76-44.29-76.28-122.89 201.1Z" fill="#fff"/></g><defs><clipPath id="a"><path fill="#fff" d="M0 0h1024v1024H0z"/></clipPath></defs></svg>