<svg width="1024" height="1024" viewBox="0 0 1024 1024" fill="none" xmlns="http://www.w3.org/2000/svg">
<g clip-path="url(#clip0_2_2961)">
<path d="M512 1024C794.77 1024 1024 794.77 1024 512C1024 229.23 794.77 0 512 0C229.23 0 0 229.23 0 512C0 794.77 229.23 1024 512 1024Z" fill="#728DBE"/>
<path d="M304.72 663.44C272.945 619.346 255.896 566.35 256 512C256 369.51 370.62 254 512 254C653.38 254 768 369.51 768 512C768.104 566.354 751.051 619.355 719.271 663.45L596.271 462.22L584.401 482.42L596.401 538.61L512 392.92L459.73 481.86L471.9 538.62L427.61 462.34L304.72 663.44Z" fill="white"/>
</g>
<defs>
<clipPath id="clip0_2_2961">
<rect width="1024" height="1024" fill="white"/>
</clipPath>
</defs>
</svg>
