<svg width="1024" height="1024" fill="none" xmlns="http://www.w3.org/2000/svg"><g clip-path="url(#a)"><path d="M512 1024c282.77 0 512-229.23 512-512S794.77 0 512 0 0 229.23 0 512s229.23 512 512 512Z" fill="#A0A5AF"/><path d="m378.67 481.29 56.57 87.27V463.52l33.94-11.31v147.06l-43.64 14.55L369 526.55V631.6l-34 9.69V494.22l43.67-12.93Zm122.82 155.15 248.89 67.88-227.87 71.11L272 707.55l229.49-71.11Zm0-387.88v377.52l2.63.72 246.3 67.2L752 295.44l-250.51-46.88ZM532 543.08a2.714 2.714 0 0 1 1.055-2.34 2.703 2.703 0 0 1 2.535-.41L663 574.45a5.108 5.108 0 0 1 3.59 4.68v12.93a2.714 2.714 0 0 1-1.055 2.341 2.713 2.713 0 0 1-2.535.409l-127.4-34.12A5.11 5.11 0 0 1 532 556v-12.92Zm166.66 95c0 1.62-1.62 3.23-3.23 1.62l-160-42-3.23-4.85V581.5c0-3.23 1.62-3.23 3.23-3.23l160 42 3.23 4.85v12.96Zm0-76-3.23 3.23-160-43.64c-1.62 0-3.23-1.62-3.23-4.85v-11.28l3.23-3.23 160 43.64 3.23 3.23v12.9Z" fill="#fff"/></g><defs><clipPath id="a"><path fill="#fff" d="M0 0h1024v1024H0z"/></clipPath></defs></svg>