<svg width="1024" height="1024" fill="none" xmlns="http://www.w3.org/2000/svg"><g clip-path="url(#a)"><path d="M512 1024c282.77 0 512-229.23 512-512S794.77 0 512 0 0 229.23 0 512s229.23 512 512 512Z" fill="#FF837D"/><path d="M697.49 290.18c7.93-.07 15.85.09 23.78-.09.32 32.56 0 65.15.13 97.72-.047 115.367-.07 230.737-.07 346.11-7.95-.15-15.9 0-23.85-.08.007-147.893.01-295.78.01-443.66Zm-235.28 73.74c-20.65 15.21-37.19 35.31-50.81 56.89v-75.88H302.91c-.147 114.26-.25 228.513-.31 342.76h108.78c.07-64.47-.1-128.94.08-193.41a245.797 245.797 0 0 1 17.11-23.85c10.12-12.52 21.52-24.2 34.86-33.33 10.85-7.45 23.17-13 36.25-15 10.8-1.56 22.48-1.33 32.22 4.13 9.37 5.12 15.54 14.56 18.89 24.48 5.76 16.63 5.5 34.46 5.4 51.82V687.7h108.56V489.83c-.13-16.27.55-32.58-1.25-48.78-2-17.68-6.7-35.25-15.42-50.85-10.29-18.53-26.16-34.09-45.39-43.16-14.35-6.87-30.2-10.18-46-10.94a149.011 149.011 0 0 0-54.06 6.86 142.595 142.595 0 0 0-40.42 20.96Z" fill="#fff"/></g><defs><clipPath id="a"><path fill="#fff" d="M0 0h1024v1024H0z"/></clipPath></defs></svg>