<svg width="1024" height="1024" viewBox="0 0 1024 1024" fill="none" xmlns="http://www.w3.org/2000/svg">
<g clip-path="url(#clip0_2_2979)">
<path d="M512 1024C794.77 1024 1024 794.77 1024 512C1024 229.23 794.77 0 512 0C229.23 0 0 229.23 0 512C0 794.77 229.23 1024 512 1024Z" fill="#56595B"/>
<path d="M579.67 262.39L302.17 282.88C279.79 284.82 272 299.45 272 316.98V621.19C272 634.85 276.85 646.53 288.55 662.15L353.78 746.97C364.5 760.63 374.24 763.55 394.7 762.58L716.95 743.07C744.2 741.13 752 728.44 752 707V364.76C752 353.68 747.62 350.48 734.73 341.02C733.99 340.49 733.25 339.95 732.51 339.42L643.95 277.02C622.52 261.44 613.76 259.47 579.67 262.39ZM401.99 359.16C375.68 360.93 369.71 361.33 354.77 349.18L316.77 318.96C312.91 315.05 314.85 310.17 324.58 309.2L591.34 289.71C613.74 287.75 625.41 295.56 634.17 302.38L679.92 335.53C681.88 336.52 686.74 342.35 680.89 342.35L405.4 358.93L401.99 359.16ZM371.32 704.07V413.54C371.32 400.85 375.21 395 386.88 394.02L703.29 375.5C714.02 374.53 718.87 381.35 718.87 394.02V682.62C718.87 695.31 716.91 706.04 699.4 707.01L396.61 724.56C379.09 725.53 371.32 719.7 371.32 704.08V704.07ZM670.21 429.12C672.15 437.9 670.21 446.67 661.43 447.68L646.84 450.57V665.08C634.17 671.9 622.5 675.8 612.75 675.8C597.17 675.8 593.28 670.92 581.61 656.31L486.18 506.16V651.43L516.37 658.27C516.37 658.27 516.37 675.82 492.01 675.82L424.86 679.71C422.9 675.8 424.86 666.05 431.66 664.11L449.2 659.25V467.18L424.86 465.21C422.9 456.43 427.77 443.76 441.41 442.78L513.46 437.93L612.76 590.02V455.47L587.45 452.56C585.49 441.81 593.28 434 603.01 433.05L670.21 429.14V429.12Z" fill="white"/>
</g>
<defs>
<clipPath id="clip0_2_2979">
<rect width="1024" height="1024" fill="white"/>
</clipPath>
</defs>
</svg>
