<svg width="1024" height="1024" fill="none" xmlns="http://www.w3.org/2000/svg"><g clip-path="url(#a)"><path d="M512 1024c282.77 0 512-229.23 512-512S794.77 0 512 0 0 229.23 0 512s229.23 512 512 512Z" fill="#FF837D"/><path d="M407.26 599.29h69.83v-34.92h69.83V424.71H407.26v174.58Zm69.83-139.66H512v69.83h-34.91v-69.83Zm97.76-34.91v139.65h69.83V459.63h34.91v104.74h34.91V459.63h34.91v104.74h34.91V424.71l-209.47.01ZM239.67 564.37h69.83V459.63h34.91v104.74h34.91V424.71H239.67v139.66Z" fill="#fff"/></g><defs><clipPath id="a"><path fill="#fff" d="M0 0h1024v1024H0z"/></clipPath></defs></svg>