<svg width="1024" height="1024" fill="none" xmlns="http://www.w3.org/2000/svg"><g clip-path="url(#a)"><path d="M512 1024c282.77 0 512-229.23 512-512S794.77 0 512 0 0 229.23 0 512s229.23 512 512 512Z" fill="#8E6F60"/><path d="M534.19 345.86a8.1 8.1 0 0 1 4.46-10.46 114.95 114.95 0 0 1 26.52-8c15.7-2.58 19.62-3.34 49.44-1.54 0 0 57.77-1.32 129.1 79.24a67.67 67.67 0 0 1 7.23 9.7c13.29 20 38.06 65.93 33.1 121.34a170.762 170.762 0 0 1-12 55.61c-4.23 10.82-11.66 25.23-17.69 31.22-4.88 4.79-10.65 8.41-16.37 3.67 0 0 7.82-20.83-3.59-52.25s-63-118.42-109.12-162.85c-43.27-41.8-61.48-66.18-91.08-65.68Zm-18.47 15.75S534 345 549.94 356a380.581 380.581 0 0 1 52.67 45.21 786.297 786.297 0 0 1 55.22 63.32c48.49 61.16 63.88 106.29 69 125.71 5.12 19.42 0 36.69-13.68 46.05s-38.79 49.4-144.91 55.71c-106.12 6.31-149.45-43.45-154.58-64.5 0 0-21.69-85.71 36.44-190.26.05-.24 27.44-49.92 65.62-75.63ZM728.4 375l17.69 18.86a49.635 49.635 0 0 1 49.64-20 81.302 81.302 0 0 1 14.55 4.29c3.67 1.65 6.56 2.27 6.28-2-.28-4.27-5.13-27.08-19.4-34-14.27-6.92-50.76 11.42-68.76 32.85ZM426.92 693.26h-92a127.728 127.728 0 0 1-108.701-194.365 127.731 127.731 0 0 1 69.261-54.765v-1a86.702 86.702 0 0 1 96.79-86.22 123.745 123.745 0 0 1 41.26-55.47 122.435 122.435 0 0 1 70.527-24.654 122.436 122.436 0 0 1 71.723 20.924 8.46 8.46 0 1 1-9.47 14 105.642 105.642 0 0 0-122.6 3.2A106.714 106.714 0 0 0 406 368.85a8.41 8.41 0 0 1-9.92 5.83 68.732 68.732 0 0 0-14-1.43 69.882 69.882 0 0 0-69.77 69.88 47.053 47.053 0 0 0 .28 6.28 8.41 8.41 0 0 1-6.08 9.11 110.769 110.769 0 0 0-44.431 190.154A110.766 110.766 0 0 0 335 676.27h91.91a8.412 8.412 0 0 1 5.947 14.357 8.412 8.412 0 0 1-5.947 2.463l.01.17Z" fill="#fff"/></g><defs><clipPath id="a"><path fill="#fff" d="M0 0h1024v1024H0z"/></clipPath></defs></svg>