<svg width="1024" height="1024" viewBox="0 0 1024 1024" fill="none" xmlns="http://www.w3.org/2000/svg">
<g clip-path="url(#clip0_2_2997)">
<path d="M512 1024C794.77 1024 1024 794.77 1024 512C1024 229.23 794.77 0 512 0C229.23 0 0 229.23 0 512C0 794.77 229.23 1024 512 1024Z" fill="#728DBE"/>
<path d="M518.4 780.2C518.4 729.8 518.6 679.4 518.2 629C518.1 618.7 520.3 610.3 528.8 604.1C531.8 601.9 535 600 538.1 598C537.3 596.9 536.5 595.7 535.7 594.6C530.2 595.3 524.8 595.9 518.8 596.6V494.3C520.8 496.1 522.5 497 523 498.3C529.1 517.8 539.4 534.6 554.9 548C556.7 549.6 560.6 550.3 562.9 549.5C600.6 536.4 629.9 512.5 651.6 479.3C671.7 448.6 679 414.5 675.6 378.4C673 351 661.4 326.7 644.9 304.8C628 282.5 606.7 265 583.3 250C580.7 248.3 578.7 245.7 576.4 243.6H582.8C589.8 246.8 596.8 249.9 603.7 253.3C622.8 262.9 642.7 271.3 660.6 282.8C678.4 294.3 695.4 307.8 710.4 322.7C728.2 340.4 742.5 361.1 754 383.9C765 405.7 772.2 428.4 777.1 452C779.4 463 780.4 474.3 782 485.4V511C779.8 509.3 777.3 508 775.6 506C760 488.1 740.1 480 717.1 478.7C696.1 519.3 660.3 552.1 595.9 573.5C611.6 573.5 630.7 573.9 649.7 573.3C660.5 573 671.4 572 681.8 569.5C701.4 564.8 720.8 559.3 740 553.2C746.7 551.1 752.8 546.8 758.9 543.1C766 538.8 772.8 533.9 780.7 528.6C779.3 537.3 778.4 545.4 776.5 553.3C769.9 581.4 756 606.3 741.2 630.6C727.5 653.1 711 673.5 691.4 691.2C686.1 696 679.9 699.9 673 705.1C672.8 701.7 672.6 701.1 672.8 700.7C673.5 699.3 674.3 697.9 675.1 696.5C683.4 680.6 691.9 664.9 690.4 646C689.4 633.3 679.3 623.3 667.2 624.6C658.6 625.5 649.9 626.4 641.4 627.8C614.3 632.3 588.1 639.3 566.1 656.7C551.9 667.9 544.2 683 547.7 701.2C550.8 717.1 561.6 723.8 581.4 728.6C587 730 592.9 730.4 597.6 731.1C581.5 738.6 564.6 745.5 548.7 754.1C538 759.9 527.8 767.5 523.3 780C521.6 780.2 520 780.2 518.4 780.2ZM506.3 780C506.3 729.6 506.1 679.2 506.5 628.8C506.6 618.5 504.4 610.1 495.9 603.9C492.9 601.7 489.7 599.8 486.6 597.8C487.4 596.7 488.2 595.5 489 594.4C494.5 595.1 499.9 595.7 505.9 596.4V494.1C503.9 495.9 502.2 496.8 501.7 498.1C495.6 517.6 485.3 534.4 469.8 547.8C468 549.4 464.1 550.1 461.8 549.3C424.1 536.2 394.8 512.3 373.1 479.1C353 448.4 345.7 414.3 349.1 378.2C351.7 350.8 363.3 326.5 379.8 304.6C396.7 282.3 418 264.8 441.4 249.8C444 248.1 446 245.5 448.3 243.4H441.9C434.9 246.6 427.9 249.7 421 253.1C401.9 262.7 382 271.1 364.1 282.6C346.3 294.1 329.3 307.6 314.3 322.5C296.5 340.2 282.2 360.9 270.7 383.7C259.7 405.5 252.5 428.2 247.6 451.8C245.3 462.8 244.3 474.1 242.7 485.2V510.8C244.9 509.1 247.4 507.8 249.1 505.8C264.7 487.9 284.6 479.8 307.6 478.5C328.6 519.1 364.4 551.9 428.8 573.3C413.1 573.3 394 573.7 375 573.1C364.2 572.8 353.3 571.8 342.9 569.3C323.3 564.6 303.9 559.1 284.7 553C278 550.9 271.9 546.6 265.8 542.9C258.7 538.6 251.9 533.7 244 528.4C245.4 537.1 246.3 545.2 248.2 553.1C254.8 581.2 268.7 606.1 283.5 630.4C297.2 652.9 313.7 673.3 333.3 691C338.6 695.8 344.8 699.7 351.7 704.9C351.9 701.5 352.1 700.9 351.9 700.5C351.2 699.1 350.4 697.7 349.6 696.3C341.3 680.4 332.8 664.7 334.3 645.8C335.3 633.1 345.4 623.1 357.5 624.4C366.1 625.3 374.8 626.2 383.3 627.6C410.4 632.1 436.6 639.1 458.6 656.5C472.8 667.7 480.5 682.8 477 701C473.9 716.9 463.1 723.6 443.3 728.4C437.7 729.8 431.8 730.2 427.1 730.9C443.2 738.4 460.1 745.3 476 753.9C486.7 759.7 496.9 767.3 501.4 779.8C503.1 780 504.7 780 506.3 780Z" fill="white"/>
</g>
<defs>
<clipPath id="clip0_2_2997">
<rect width="1024" height="1024" fill="white"/>
</clipPath>
</defs>
</svg>
