<svg width="1024" height="1024" fill="none" xmlns="http://www.w3.org/2000/svg"><g clip-path="url(#a)"><path d="M512 1024c282.77 0 512-229.23 512-512S794.77 0 512 0 0 229.23 0 512s229.23 512 512 512Z" fill="#728DBE"/><path d="M539.57 539.55a115.88 115.88 0 0 0-55.13 0 116.083 116.083 0 0 1-85 85 116.048 116.048 0 0 1 85-85c4.43-18.1 4.43-37 0-55.1a115.89 115.89 0 0 0 55.12 0 116.083 116.083 0 0 1 85-85 115.892 115.892 0 0 0-61.892-131.74 115.888 115.888 0 0 0-141.842 32.662 115.887 115.887 0 0 0-21.416 99.078 115.892 115.892 0 0 0-131.74 61.892 115.888 115.888 0 0 0 0 101.366 115.893 115.893 0 0 0 79.735 62.591 115.892 115.892 0 0 0 52.005-.699 115.892 115.892 0 0 0 61.892 131.74 115.885 115.885 0 0 0 101.366 0 115.896 115.896 0 0 0 62.591-79.735 115.892 115.892 0 0 0-.699-52.005 116.007 116.007 0 0 1-84.99-85.05Zm-55.13-55.13a115.996 115.996 0 0 1-85-85 115.996 115.996 0 0 1 85 85Zm280.23 55.05a115.888 115.888 0 0 1-140.08 85.08 115.996 115.996 0 0 0-85-85 115.88 115.88 0 0 1 0-55.13 115.996 115.996 0 0 0 85-85 115.779 115.779 0 0 1 27.55-3.32 115.898 115.898 0 0 1 91.101 44.341 115.885 115.885 0 0 1 21.419 99.029h.01Z" fill="#fff"/></g><defs><clipPath id="a"><path fill="#fff" d="M0 0h1024v1024H0z"/></clipPath></defs></svg>