<svg width="1024" height="1024" viewBox="0 0 1024 1024" fill="none" xmlns="http://www.w3.org/2000/svg">
<g clip-path="url(#clip0_2_3000)">
<path d="M512 1024C794.77 1024 1024 794.77 1024 512C1024 229.23 794.77 0 512 0C229.23 0 0 229.23 0 512C0 794.77 229.23 1024 512 1024Z" fill="#728DBE"/>
<path d="M539.57 539.55C521.461 535.115 502.549 535.115 484.44 539.55C479.38 560.127 468.783 578.926 453.8 593.91C438.816 608.893 420.017 619.49 399.44 624.55C404.497 603.972 415.093 585.171 430.077 570.187C445.061 555.203 463.862 544.607 484.44 539.55C488.87 521.45 488.87 502.55 484.44 484.45C502.546 488.883 521.454 488.883 539.56 484.45C544.62 463.873 555.217 445.074 570.2 430.09C585.184 415.107 603.983 404.51 624.56 399.45C628.73 382.392 628.969 364.609 625.259 347.445C621.549 330.281 613.987 314.185 603.144 300.372C592.301 286.559 578.46 275.39 562.668 267.71C546.876 260.03 529.545 256.04 511.985 256.04C494.424 256.04 477.094 260.03 461.302 267.71C445.51 275.39 431.669 286.559 420.826 300.372C409.983 314.185 402.421 330.281 398.711 347.445C395.001 364.609 395.24 382.392 399.41 399.45C382.352 395.28 364.569 395.041 347.405 398.751C330.241 402.461 314.144 410.023 300.331 420.866C286.518 431.709 275.35 445.55 267.67 461.342C259.99 477.134 256 494.465 256 512.025C256 529.585 259.99 546.916 267.67 562.708C275.35 578.5 286.518 592.341 300.331 603.184C314.144 614.027 330.241 621.589 347.405 625.299C364.569 629.009 382.352 628.77 399.41 624.6C395.24 641.658 395.001 659.441 398.711 676.605C402.421 693.769 409.983 709.865 420.826 723.678C431.669 737.491 445.51 748.66 461.302 756.34C477.094 764.02 494.424 768.01 511.985 768.01C529.545 768.01 546.876 764.02 562.668 756.34C578.46 748.66 592.301 737.491 603.144 723.678C613.987 709.865 621.549 693.769 625.259 676.605C628.969 659.441 628.73 641.658 624.56 624.6C603.975 619.542 585.169 608.94 570.185 593.946C555.202 578.952 544.613 560.139 539.57 539.55ZM484.44 484.42C463.859 479.368 445.056 468.774 430.071 453.789C415.086 438.804 404.492 420.001 399.44 399.42C420.021 404.472 438.824 415.066 453.809 430.051C468.794 445.036 479.388 463.839 484.44 484.42ZM764.67 539.47C761.059 554.254 754.571 568.182 745.577 580.459C736.582 592.736 725.258 603.121 712.251 611.022C699.243 618.922 684.807 624.183 669.766 626.504C654.725 628.825 639.374 628.161 624.59 624.55C619.538 603.969 608.944 585.166 593.959 570.181C578.974 555.196 560.171 544.602 539.59 539.55C535.155 521.441 535.155 502.529 539.59 484.42C560.171 479.368 578.974 468.774 593.959 453.789C608.944 438.804 619.538 420.001 624.59 399.42C633.607 397.213 642.857 396.098 652.14 396.1C669.691 396.11 687.011 400.106 702.793 407.787C718.574 415.468 732.405 426.634 743.241 440.441C754.077 454.248 761.636 470.336 765.346 487.491C769.056 504.646 768.822 522.419 764.66 539.47H764.67Z" fill="white"/>
</g>
<defs>
<clipPath id="clip0_2_3000">
<rect width="1024" height="1024" fill="white"/>
</clipPath>
</defs>
</svg>
