<svg width="1024" height="1024" fill="none" xmlns="http://www.w3.org/2000/svg"><g clip-path="url(#a)"><path d="M512 1024c282.77 0 512-229.23 512-512S794.77 0 512 0 0 229.23 0 512s229.23 512 512 512Z" fill="#56595B"/><path d="m540.48 231.94-11.68 143.9a146.647 146.647 0 0 0-16.72-.95 129.477 129.477 0 0 0-20.83 1.58l-6.63-69.74a3.824 3.824 0 0 1 2.27-3.776 3.823 3.823 0 0 1 1.52-.324h11.83l-5.68-70.53a3.787 3.787 0 0 1 2.154-3.738 3.8 3.8 0 0 1 1.476-.362h38.66a3.605 3.605 0 0 1 3.508 2.563 3.6 3.6 0 0 1 .122 1.537v-.16ZM443 239a3.771 3.771 0 0 0-1.901-2.315 3.775 3.775 0 0 0-2.989-.205l-36.29 13.25a3.692 3.692 0 0 0-2.11 2.055 3.698 3.698 0 0 0 .06 2.945l29.5 64.37-11.27 4.2a3.692 3.692 0 0 0-2.11 2.055 3.698 3.698 0 0 0 .06 2.945l30.14 63.27a135.265 135.265 0 0 1 35.18-13.41L443.13 239H443Zm-89 40.08 83.46 117.7a136.777 136.777 0 0 0-28.4 24.61l-50-49.23a3.809 3.809 0 0 1 .16-5.52l9.15-7.57-49.7-50.33a3.693 3.693 0 0 1-.667-4.326c.241-.463.577-.87.987-1.194l29.5-24.77a3.656 3.656 0 0 1 4.248-.388c.437.258.816.605 1.112 1.018h.15Zm-70.05 68.16a3.749 3.749 0 0 0-5.36 1.26L259.32 382a3.729 3.729 0 0 0 1.58 5.21l64.1 30.28-6 10.26a3.636 3.636 0 0 0-.322 3.003 3.63 3.63 0 0 0 2.062 2.207l63.74 29.19a133.568 133.568 0 0 1 18.3-32.82l-118.83-82.09Zm-47.18 90.88a3.724 3.724 0 0 1 3.054-3.062 3.722 3.722 0 0 1 1.526.062L381 471.61a138.164 138.164 0 0 0-6 37.24l-69.9-5.68a3.646 3.646 0 0 1-2.67-1.45 3.64 3.64 0 0 1-.64-2.97l2.05-11.68-70.53-6.63a3.736 3.736 0 0 1-2.638-1.487A3.738 3.738 0 0 1 230 476l6.63-38 .14.12Zm-5.21 94.35a3.748 3.748 0 0 0-2.629 1.48 3.74 3.74 0 0 0-.681 2.94L235 575a3.724 3.724 0 0 0 3.054 3.062 3.722 3.722 0 0 0 1.526-.062l68.48-17.83 2.05 11.68a3.724 3.724 0 0 0 3.054 3.062 3.722 3.722 0 0 0 1.526-.062l67.53-18.62a136.694 136.694 0 0 1-7.1-36.92l-143.73 13.2.17-.04Zm22.4 100a3.729 3.729 0 0 1 1.58-5.21l130.32-61.85a134.457 134.457 0 0 0 19.41 32.34l-57.12 40.71a3.704 3.704 0 0 1-2.922.63 3.72 3.72 0 0 1-2.438-1.73l-6-10.41-58.22 40.23a3.75 3.75 0 0 1-5.37-1.18l-19.4-33.46.16-.07Zm157.93-27.07L310.44 708.12a3.693 3.693 0 0 0-.667 4.326c.241.463.577.87.987 1.194l29.66 24.77a3.656 3.656 0 0 0 4.248.388 3.655 3.655 0 0 0 1.112-1.018l41-57.75 9.15 7.73a3.74 3.74 0 0 0 2.937.845 3.731 3.731 0 0 0 2.583-1.635l39.76-57.75A141.783 141.783 0 0 1 412 605.4h-.11Zm-20 164.88a3.692 3.692 0 0 1-2.11-2.055 3.698 3.698 0 0 1 .06-2.945L449.91 634a131.526 131.526 0 0 0 35.5 12.31l-17.67 67.84a3.716 3.716 0 0 1-3.37 2.747 3.712 3.712 0 0 1-1.52-.227l-11.2-4.1-18.78 68.32a3.771 3.771 0 0 1-1.901 2.315 3.775 3.775 0 0 1-2.989.205l-36.29-13.25.2.12ZM495.35 648l-11.67 143.9a3.787 3.787 0 0 0 2.154 3.738 3.8 3.8 0 0 0 1.476.362H526a3.605 3.605 0 0 0 3.508-2.563 3.6 3.6 0 0 0 .122-1.537l-5.68-70.53h11.83a3.823 3.823 0 0 0 3.586-2.559 3.824 3.824 0 0 0 .204-1.541l-6.63-69.74a129.477 129.477 0 0 1-20.83 1.58c-5.592.031-11.18-.336-16.72-1.1l-.04-.01Zm139.16-389.55a3.645 3.645 0 0 0-.768-4.202 3.648 3.648 0 0 0-1.282-.798l-36.29-13.25a3.774 3.774 0 0 0-2.989.205 3.782 3.782 0 0 0-1.901 2.315L572.51 311l-11.2-4.1a3.774 3.774 0 0 0-2.989.205 3.782 3.782 0 0 0-1.901 2.315l-17.67 67.84a141.155 141.155 0 0 1 35.5 12.31l60.27-131.11-.01-.01Zm79.2 57.27L612.27 418.44a137.71 137.71 0 0 0-29.19-23.82l39.76-57.75a3.84 3.84 0 0 1 2.591-1.578 3.853 3.853 0 0 1 2.929.788l9.15 7.73 41-57.75a3.65 3.65 0 0 1 1.114-1.014 3.666 3.666 0 0 1 4.246.384l29.66 24.77a3.816 3.816 0 0 1 .32 5.52h-.14Zm54.91 80.78a3.612 3.612 0 0 0 2.099-3.771 3.605 3.605 0 0 0-.519-1.439l-19.4-33.44a3.884 3.884 0 0 0-3.937-1.797 3.893 3.893 0 0 0-1.423.537l-58.22 40.23-6-10.26a3.603 3.603 0 0 0-3.968-1.764 3.594 3.594 0 0 0-1.392.664l-57.12 40.71a139.728 139.728 0 0 1 19.41 32.34l130.32-61.85.15-.16Zm20.51 52.38 6.63 38a3.807 3.807 0 0 1-1.854 3.937 3.82 3.82 0 0 1-1.456.483l-143.74 13.44a135.546 135.546 0 0 0-7.1-36.92l67.53-18.62a3.627 3.627 0 0 1 4.055 1.552c.277.439.456.933.525 1.448l2.05 11.68L784.25 446a3.722 3.722 0 0 1 4.027 1.576c.281.432.469.916.553 1.424l.3-.12Zm-6.47 139.63a3.722 3.722 0 0 0 4.027-1.576c.281-.432.469-.916.553-1.424l6.63-38a3.807 3.807 0 0 0-1.854-3.937 3.82 3.82 0 0 0-1.456-.483L720 536.46l2.05-11.68a3.807 3.807 0 0 0-1.854-3.937 3.82 3.82 0 0 0-1.456-.483l-69.9-5.68a138.164 138.164 0 0 1-6 37.24l139.63 36.45.19.14Zm-37.23 86.79a3.884 3.884 0 0 1-3.937 1.797 3.893 3.893 0 0 1-1.423-.537l-118.81-82a133.586 133.586 0 0 0 18.3-32.82l63.74 29.19a3.667 3.667 0 0 1 2.162 3.72 3.662 3.662 0 0 1-.462 1.45l-6 10.26 64.06 30.29a3.729 3.729 0 0 1 1.58 5.21l-19.21 33.44Zm-158.88-48.44L670 744.56a3.65 3.65 0 0 0 1.114 1.014 3.666 3.666 0 0 0 4.246-.384l29.5-24.77a3.816 3.816 0 0 0 .32-5.52l-49.7-50.33 9.15-7.57a3.705 3.705 0 0 0 1.322-2.724 3.697 3.697 0 0 0-1.162-2.796l-50-49.23a136.223 136.223 0 0 1-28.4 24.61h.16Zm-.79 160.3a3.774 3.774 0 0 1-2.989-.205 3.782 3.782 0 0 1-1.901-2.315l-38.18-139.16a135.265 135.265 0 0 0 35.18-13.41L608 695.34a3.606 3.606 0 0 1-.756 4.211 3.603 3.603 0 0 1-1.294.789l-11.2 4.1 29.5 64.37a3.645 3.645 0 0 1-.768 4.202 3.648 3.648 0 0 1-1.282.798l-36.29 13.25h-.16l.01.1Z" fill="#fff"/></g><defs><clipPath id="a"><path fill="#fff" d="M0 0h1024v1024H0z"/></clipPath></defs></svg>