<svg width="1024" height="1024" viewBox="0 0 1024 1024" fill="none" xmlns="http://www.w3.org/2000/svg">
<g clip-path="url(#clip0_2_3009)">
<path d="M512 1024C794.77 1024 1024 794.77 1024 512C1024 229.23 794.77 0 512 0C229.23 0 0 229.23 0 512C0 794.77 229.23 1024 512 1024Z" fill="#FF837D"/>
<path d="M747.95 343.31C716.911 312.27 675.164 294.292 631.285 293.068C587.405 291.845 544.721 307.468 512 336.73C478.673 306.859 435.003 291.176 390.286 293.02C345.569 294.865 303.339 314.092 272.586 346.607C241.833 379.122 224.987 422.357 225.634 467.108C226.281 511.858 244.37 554.588 276.05 586.2L390.55 700.7C422.76 732.909 466.445 751.004 511.995 751.004C557.546 751.004 601.231 732.909 633.44 700.7L747.94 586.2C780.151 553.992 798.247 510.308 798.249 464.757C798.251 419.206 780.158 375.521 747.95 343.31ZM363.47 546C350.118 545.996 337.068 542.033 325.968 534.612C314.869 527.191 306.219 516.646 301.112 504.309C296.006 491.972 294.673 478.398 297.281 465.304C299.889 452.209 306.321 440.182 315.764 430.743C325.207 421.304 337.237 414.877 350.333 412.275C363.429 409.672 377.002 411.012 389.337 416.124C401.671 421.235 412.213 429.89 419.629 440.993C427.045 452.096 431.002 465.148 431 478.5C430.999 487.366 429.251 496.146 425.857 504.337C422.462 512.527 417.487 519.969 411.216 526.237C404.946 532.505 397.501 537.477 389.309 540.868C381.117 544.259 372.337 546.003 363.47 546ZM447.8 438C447.8 434.65 448.794 431.374 450.655 428.589C452.517 425.803 455.162 423.632 458.258 422.349C461.353 421.067 464.759 420.732 468.045 421.385C471.331 422.039 474.35 423.653 476.719 426.022C479.088 428.391 480.701 431.409 481.355 434.695C482.008 437.981 481.673 441.387 480.391 444.483C479.109 447.578 476.937 450.224 474.152 452.085C471.366 453.946 468.091 454.94 464.74 454.94C460.252 454.924 455.953 453.134 452.779 449.961C449.606 446.787 447.816 442.488 447.8 438ZM564.11 495C558.646 503.917 550.986 511.283 541.861 516.394C532.737 521.504 522.453 524.188 511.995 524.188C501.537 524.188 491.254 521.504 482.129 516.394C473.005 511.283 465.344 503.917 459.88 495C459.486 494.359 459.222 493.647 459.104 492.904C458.985 492.161 459.014 491.402 459.188 490.671C459.363 489.939 459.68 489.249 460.121 488.64C460.562 488.03 461.119 487.514 461.76 487.12C462.401 486.726 463.113 486.462 463.856 486.343C464.599 486.225 465.358 486.253 466.09 486.428C466.821 486.603 467.511 486.92 468.121 487.361C468.73 487.802 469.246 488.359 469.64 489C474.081 496.246 480.306 502.231 487.721 506.384C495.136 510.536 503.492 512.716 511.99 512.716C520.489 512.716 528.845 510.536 536.259 506.384C543.674 502.231 549.9 496.246 554.34 489C555.136 487.706 556.413 486.781 557.891 486.428C559.369 486.075 560.926 486.324 562.22 487.12C563.514 487.916 564.44 489.193 564.792 490.671C565.145 492.148 564.896 493.706 564.1 495H564.11ZM559.25 454.92C555.899 454.918 552.624 453.922 549.84 452.059C547.055 450.195 544.885 447.548 543.605 444.451C542.325 441.354 541.992 437.948 542.648 434.662C543.305 431.376 544.921 428.358 547.292 425.991C549.664 423.624 552.684 422.013 555.971 421.362C559.258 420.712 562.665 421.051 565.759 422.336C568.854 423.622 571.497 425.796 573.356 428.584C575.214 431.372 576.204 434.649 576.2 438C576.184 442.488 574.395 446.787 571.221 449.961C568.048 453.134 563.748 454.924 559.26 454.94L559.25 454.92ZM660.53 546C647.176 546.008 634.119 542.055 623.012 534.641C611.904 527.228 603.245 516.686 598.13 504.35C593.014 492.015 591.672 478.439 594.273 465.34C596.874 452.242 603.302 440.209 612.743 430.764C622.184 421.319 634.214 414.886 647.311 412.279C660.408 409.672 673.985 411.008 686.323 416.118C698.661 421.228 709.206 429.882 716.625 440.987C724.043 452.091 728.002 465.146 728 478.5C727.998 496.396 720.889 513.559 708.238 526.216C695.586 538.873 678.426 545.989 660.53 546Z" fill="white"/>
</g>
<defs>
<clipPath id="clip0_2_3009">
<rect width="1024" height="1024" fill="white"/>
</clipPath>
</defs>
</svg>
