<svg width="1024" height="1024" fill="none" xmlns="http://www.w3.org/2000/svg"><g clip-path="url(#a)"><path d="M512 1024c282.77 0 512-229.23 512-512S794.77 0 512 0 0 229.23 0 512s229.23 512 512 512Z" fill="#FF837D"/><path d="M747.95 343.31A171.761 171.761 0 0 0 512 336.73 171.75 171.75 0 0 0 276.05 586.2l114.5 114.5a171.753 171.753 0 0 0 242.89 0l114.5-114.5a171.747 171.747 0 0 0 .01-242.89ZM363.47 546a67.51 67.51 0 1 1 .04-135.02 67.51 67.51 0 0 1-.04 135.02Zm84.33-108a16.941 16.941 0 1 1 16.94 16.94A17.004 17.004 0 0 1 447.8 438Zm116.31 57a61.126 61.126 0 0 1-52.115 29.188A61.126 61.126 0 0 1 459.88 495a5.731 5.731 0 0 1 1.88-7.88 5.734 5.734 0 0 1 4.33-.692 5.724 5.724 0 0 1 3.55 2.572 49.674 49.674 0 0 0 84.7 0 5.732 5.732 0 0 1 7.88-1.88 5.728 5.728 0 0 1 1.88 7.88h.01Zm-4.86-40.08A16.939 16.939 0 1 1 576.2 438a17 17 0 0 1-16.94 16.94l-.01-.02ZM660.53 546a67.506 67.506 0 0 1-62.4-41.65 67.506 67.506 0 0 1 49.181-92.071 67.511 67.511 0 0 1 60.927 113.937A67.515 67.515 0 0 1 660.53 546Z" fill="#fff"/></g><defs><clipPath id="a"><path fill="#fff" d="M0 0h1024v1024H0z"/></clipPath></defs></svg>