<svg width="1024" height="1024" viewBox="0 0 1024 1024" fill="none" xmlns="http://www.w3.org/2000/svg">
<g clip-path="url(#clip0_2_3012)">
<path d="M512 1024C794.77 1024 1024 794.77 1024 512C1024 229.23 794.77 0 512 0C229.23 0 0 229.23 0 512C0 794.77 229.23 1024 512 1024Z" fill="#F8C18C"/>
<path d="M378 529.26H484V554.4H406.92V594.88H479.6V616.88H406.92V661.38H484V686H378.08L378 529.26ZM264.73 572.79C262.4 616.79 360.17 569.66 360.17 627.02C360.17 630.91 360.09 635.14 360.09 639.92C360.09 684.87 339.4 685.48 313.36 685.48C287.32 685.48 260 685.63 260 685.63C260 691.28 262.67 699.36 261.6 700.27C260.53 701.18 234 681.59 234 672C234 661.61 260.35 644.93 261.24 645.62C262.13 646.31 260.49 652.99 259.72 663.99C266.84 663.99 297.06 664.54 313.06 664.14C330.53 663.7 331.23 652.14 331.23 642.63C331.23 593.07 233.87 652.63 234.65 577.01C234.65 546.54 236.09 528.01 296.42 528.01C312.8 528.01 314.01 531.01 326.99 531.01C339.97 531.01 344.49 525.24 344.49 519.41C344.483 515.841 344.128 512.28 343.43 508.78C339.35 509.59 316.5 511.31 311.13 511.2C301.78 511.01 267.35 509.41 253.45 497.46C239.55 485.51 238.58 464.84 237.88 442.87C237.88 400.26 240 367.93 249.94 355.16C259.88 342.39 271.8 341 271.8 341C271.8 341 257.31 311 259.9 309C262.49 307 293.06 336.54 293.06 336.54C309.06 335.1 319.26 336.47 328.53 337.22C328.53 337.22 319.8 305.29 321.76 303.75C321.857 303.677 321.979 303.645 322.1 303.66C326.38 304 354.04 341.74 354.04 341.74C354.04 341.74 365.36 344.61 370.53 348.07C375.7 351.53 378.1 354.23 382.78 363.99C387.46 373.75 387.67 386.11 388.38 415.21C388.8 437.09 391.29 470.28 378.11 489.66C370.19 501.45 378.11 547.29 349.57 554.1C321.03 560.91 316.23 551.91 298.86 551.91C281.49 551.91 265.88 551.08 264.73 572.79ZM324.42 370.59C324.42 373.93 326.52 376.59 329.11 376.59C331.7 376.59 333.8 373.88 333.8 370.59C333.8 367.3 331.7 364.59 329.11 364.59C326.52 364.59 324.42 367.24 324.42 370.58V370.59ZM276.42 370.59C276.42 373.93 278.52 376.59 281.11 376.59C283.7 376.59 285.8 373.88 285.8 370.59C285.8 367.3 283.7 364.59 281.11 364.59C278.52 364.59 276.39 367.24 276.39 370.58L276.42 370.59ZM353.89 449.77C353.89 449.77 340.81 433.38 338.22 433.38C335.63 433.38 329.75 440.72 326.12 440.72C322.49 440.72 316.06 432.62 316.06 432.62C316.06 432.62 322.91 435.04 326.27 434.84C329.63 434.64 335.36 420.96 338.57 420.96C341.78 420.96 350.33 429.89 354.99 431.86C355.11 423.64 352.92 384.17 352.92 384.17H274.27C271.68 392.64 271 421.05 271 429C271 434.16 270.05 467.9 279 475.63C287.95 483.36 302.54 482.91 311.5 482.91C329.17 482.89 353.86 485.08 353.86 449.76L353.89 449.77ZM581.18 366.77V511.17H612.66V335.94H560.66L512.26 469L463.88 335.94H411.88V511.21H443.36V366.81L499.36 511.21H525.2L581.18 366.77ZM714.67 442.29H758.94V458.55C758.94 473.68 751.73 484.36 718.11 484.55C684.49 484.74 672.51 477.46 672.51 456.28V396.38C672.51 365.21 685.12 362.3 719.98 362.3C754.84 362.3 757.45 375.22 757.45 388.79H789.11C789.11 341.66 769.76 335.88 717.71 335.88C665.71 335.88 639.94 349.44 639.84 391.32V456C639.84 498.82 668.65 511.22 724.25 511.22C779.85 511.22 790 494.38 790 462V418.6H714.64L714.67 442.29ZM715.22 662L673 529.26H643.09L692.73 686H737.73L787.37 529.29H757.41L715.22 662ZM605.43 620.76C627.67 620.76 632.06 637.21 632.06 646.01V686.01H603V652.65C603 643.65 597 633.48 583.83 633.48H536V686H507.35V529.26H594.3C619.3 529.26 633.24 540.03 633.24 576.52C633.24 613.01 624.31 615.7 605.43 620.76ZM588.22 554.4H536.12V608.59H584.56C603.14 608.59 603.2 594.88 603.64 581.88C604.08 568.88 602.87 554.39 588.22 554.39V554.4Z" fill="white"/>
</g>
<defs>
<clipPath id="clip0_2_3012">
<rect width="1024" height="1024" fill="white"/>
</clipPath>
</defs>
</svg>
