<svg width="1024" height="1024" fill="none" xmlns="http://www.w3.org/2000/svg"><g clip-path="url(#a)"><path d="M512 1024c282.77 0 512-229.23 512-512S794.77 0 512 0 0 229.23 0 512s229.23 512 512 512Z" fill="#98DC9A"/><path d="M854.32 464.37a41.573 41.573 0 0 0-31.26 14.11A41.67 41.67 0 0 0 750.14 506v53.58H771v-54.3a20.841 20.841 0 0 1 41.66.71v53.58h20.84v-54.28a20.841 20.841 0 0 1 41.66.71v53.58H896V506a41.677 41.677 0 0 0-41.68-41.68m-172.65 74.47a26.792 26.792 0 0 1-18.93-45.737 26.79 26.79 0 1 1 18.94 45.737m0-74.42a47.63 47.63 0 1 0 43.998 29.404 47.611 47.611 0 0 0-25.772-25.778 47.614 47.614 0 0 0-18.226-3.626ZM580.5 485.21a26.693 26.693 0 0 1 19.42 8.36l14.73-14.73a47.63 47.63 0 1 0 0 66.32l-14.73-14.73a26.78 26.78 0 1 1-19.42-45.22Zm-86.36 38.7a17.864 17.864 0 0 1 16.501 11.025 17.86 17.86 0 1 1-16.501-11.025Zm-111.59-20.84a26.797 26.797 0 0 1 25.265-17.86 26.794 26.794 0 0 1 25.265 17.86h-50.53Zm72.89 8.93a47.59 47.59 0 1 0-4.09 19.35h-25a26.802 26.802 0 0 1-44.27-11.9h72.79c.387-2.465.581-4.955.58-7.45h-.01Zm-163.72-47.63A47.63 47.63 0 0 0 244.09 512v47.63h20.84v-48.42a26.787 26.787 0 0 1 8.239-18.607 26.786 26.786 0 0 1 37.645.555A26.787 26.787 0 0 1 318.5 512v47.63h20.84v-48.57a47.629 47.629 0 0 0-47.62-46.69Zm-116.09 74.42a26.785 26.785 0 0 1-24.75-16.538 26.783 26.783 0 0 1 5.807-29.195 26.79 26.79 0 1 1 18.943 45.733Zm0-74.42a47.633 47.633 0 0 0-44.011 29.396 47.631 47.631 0 0 0 34.705 64.948 47.625 47.625 0 0 0 48.898-20.251 47.634 47.634 0 0 0-5.922-60.143 47.632 47.632 0 0 0-33.68-13.95" fill="#fff"/></g><defs><clipPath id="a"><path fill="#fff" d="M0 0h1024v1024H0z"/></clipPath></defs></svg>