<svg width="1024" height="1024" viewBox="0 0 1024 1024" fill="none" xmlns="http://www.w3.org/2000/svg">
<g clip-path="url(#clip0_2_3018)">
<path d="M512 1024C794.77 1024 1024 794.77 1024 512C1024 229.23 794.77 0 512 0C229.23 0 0 229.23 0 512C0 794.77 229.23 1024 512 1024Z" fill="#FF837D"/>
<path d="M478.3 357.3C483.2 339.3 488.9 321.7 495.3 304.8H514.5V357.2H513.2C501.2 357.2 489.5 357.2 478.3 357.3ZM428 358.3C436.6 340.2 446.5 322.4 457.6 305.2C465.2 305.1 473.2 305 481.6 304.9C475.3 321.9 469.7 339.6 464.9 357.5C452.5 357.7 440.1 358 428 358.3ZM514.6 589.6C497.1 589.5 479.6 589.3 462.4 588.9C459.2 565.6 457.5 541.8 457.3 518.1H514.6V589.6ZM495.6 716.7C488.9 699.4 483 681.7 478 664.2C489.4 664.3 501.3 664.4 513.6 664.4H514.6V716.8H506.3C502.6 716.8 499.1 716.8 495.6 716.7ZM615.7 358.7C603.1 358.3 590.7 358 578.6 357.8C573.8 339.9 568.3 322.3 562 305.3C569.9 305.4 577.9 305.6 586.2 305.8C597.3 322.8 607.1 340.6 615.7 358.7ZM565.3 357.6C552.3 357.4 539.7 357.3 527.4 357.2V304.9C534.2 304.9 541.1 305 548.3 305.1C554.7 322 560.4 339.6 565.3 357.6ZM703.7 426.5C686.6 425.1 669.7 423.9 653.2 422.9C648.6 406 642.7 389 635.7 372.2C649.9 372.7 664.3 373.3 678.7 374C689 391.3 697.4 408.9 703.7 426.5ZM384.3 585.6C367.7 584.6 351.6 583.5 336.3 582.2C329.6 560.9 325.9 539.4 325.1 518.1H377.4C377.4 540.7 379.7 563.3 384.3 585.6ZM599 505.2C598.7 481.2 596.9 457 593.7 433.1C610.8 433.6 627.1 434.3 643.1 435.2C648.8 458.6 652.2 482.1 653.1 505.3L599 505.2ZM404 649.7C391.4 649.3 378.9 648.8 366.6 648.2C356 630.8 347.4 613.1 340.8 595.5C355.9 596.7 371.5 597.7 387.1 598.6C391.4 615.7 397 632.8 404 649.7ZM439 715.9C431.4 715.7 424.3 715.5 417.8 715.3C401.4 697.4 387 679.4 375 661.4C386.3 661.9 397.9 662.3 409.6 662.7C417.9 680.7 427.7 698.6 439 715.9ZM325 505.2C325.4 483.3 329 461.2 335.6 439.4C352.2 438 369.4 436.8 387.1 435.8C381.7 458.9 378.5 482.2 377.6 505.2H325ZM339.9 426.2C346.3 408.5 354.7 390.8 365.1 373.5C379 372.8 393.3 372.2 408 371.8C400.9 388.8 395 405.9 390.4 422.9C373.2 423.8 356.3 424.9 339.9 426.2ZM373.4 360.2C385.6 341.6 400 323.5 416.2 306.3C424.1 306 432.7 305.7 442.2 305.5C431.5 322.7 421.9 340.5 413.7 358.6C400 359.1 386.5 359.6 373.4 360.2ZM403.9 422.1C408.7 405.2 414.8 388.1 422.1 371.3C434.5 370.9 447.7 370.6 461.6 370.4C457.6 386.8 454.3 403.5 451.6 420.2C435.6 420.7 419.6 421.3 403.9 422.1ZM464.8 419.8C467.5 403.1 470.9 386.5 475 370.2C487.3 370.1 500.1 370 513.4 370H514.7V419.2C498 419.2 481.3 419.4 464.8 419.8ZM578.8 419.9C561.8 419.5 544.6 419.3 527.4 419.2V370C540.7 370.1 554.5 370.2 568.7 370.4C572.7 386.6 576.1 403.2 578.8 419.9ZM527.4 518.1H586.2C586 541.8 584.3 565.5 581.1 588.8C563.3 589.3 545.3 589.5 527.4 589.6V518.1ZM457.3 505.2C457.6 481.1 459.5 456.7 462.8 432.6C479.8 432.2 497.2 431.9 514.5 431.9V505.2H457.3ZM390.5 505.2C391.4 482 394.7 458.4 400.5 435C416.7 434.2 433.2 433.5 449.9 433C446.7 456.9 444.9 481.1 444.6 505.2H390.5ZM513.9 651.6C500.3 651.6 487.2 651.5 474.6 651.4C470.4 635.1 467 618.4 464.3 601.8C480.8 602.2 497.7 602.4 514.6 602.5V651.7L513.9 651.6ZM582.3 650.9C586.3 634.6 589.7 618 592.3 601.3C609.5 600.8 626.5 600.1 643 599.2C638.6 616.1 632.8 633.1 625.6 649.7C611.4 650.2 596.8 650.6 582.3 650.9ZM449.4 588.5C432.2 588 414.8 587.2 397.5 586.3C392.7 563.9 390.2 541 390.2 518.1H444.5C444.7 541.6 446.4 565.3 449.4 588.5ZM461.3 651.1C446.6 650.9 432.1 650.5 418.1 650.1C410.9 633.4 405 616.3 400.6 599.2C417.5 600.1 434.5 600.8 451.3 601.2C453.9 618.1 457.3 634.8 461.3 651.1ZM311.6 363.9C326.3 343.1 343.8 324.8 363.9 309.1C368.1 308.8 379.6 307.9 398.2 307.1C382.8 324.4 369.3 342.5 357.7 361C337.2 362 321.6 363.1 311.6 363.9ZM277.2 432.3C283.5 413.1 292 394.7 302.6 377.5C309 377 325.2 375.7 349.8 374.3C339.9 391.8 331.9 409.6 325.9 427.4C303.5 429.3 286.9 431.1 277.2 432.3ZM384 294.9C400.1 284.7 417.1 276.4 435 270C427.8 276.4 419.4 284.3 410.5 293.6C400 294.1 391.2 294.6 384 294.9ZM466.4 292.3C479.6 273.3 490.3 261.1 494.2 256.8C496.9 256.5 499.7 256.3 502.6 256.1C498.7 264 492.9 276.2 486.6 292.1C479.5 292.1 472.8 292.2 466.4 292.3ZM429.2 293.1C447.4 275.3 461.9 264.2 465.9 261.3C468.9 260.6 471.9 260 475 259.5C468.6 267.4 460.1 278.5 450.7 292.6C443 292.7 435.9 292.9 429.2 293.1ZM264.7 505.2C265.2 485.1 268.1 465.1 273.3 445.6C280.5 444.7 297.2 442.7 321.9 440.5C315.9 461.9 312.6 483.6 312.2 505.2H264.7ZM481.9 716.7C472.3 716.6 463.3 716.5 454.8 716.3C443 699 432.7 681.2 424.1 663.2C437.5 663.6 451.1 663.9 464.7 664.1C469.5 681.6 475.3 699.2 481.9 716.7ZM500.4 292C506.1 277.9 511.2 267.3 514.6 260.6V292H500.4ZM474.8 763.8C471.9 763.3 469.1 762.7 466.2 762.1C453.6 751.2 441.7 739.9 430.5 728.5C436 728.7 441.8 728.8 448 728.9C456.2 740.6 465.2 752.3 474.8 763.8ZM604.8 715.3C616 698 625.8 680.2 634 662.3C645.4 661.9 657 661.4 668.8 660.9C656.9 678.8 642.6 696.8 626.3 714.6C619 714.8 611.9 715.1 604.8 715.3ZM659.3 585.4C663.8 563.2 666.1 540.6 666.1 518H718.4C717.6 539.2 713.9 560.7 707.3 581.8C691.1 583.3 675 584.5 659.3 585.4ZM527.4 664.4C539.7 664.3 552.5 664.2 565.5 664C560.6 681.6 554.7 699.2 548 716.5C540.9 716.6 534.1 716.7 527.4 716.7V664.4ZM527.4 292V257.5C530.7 263.8 536.5 275.7 543.2 292.2C537.8 292.1 532.6 292.1 527.4 292ZM615 293.8C607.6 293.6 600.3 293.3 593.2 293.2C583.8 279.1 575.2 267.8 568.8 259.9C572 260.5 575.1 261.2 578.3 261.9C583.1 265.3 597.3 276.4 615 293.8ZM577.5 292.7C570.5 292.6 563.7 292.4 557.1 292.3C550.7 276.2 545 263.9 541.1 256.1C543.9 256.3 546.8 256.6 549.6 256.9C553.6 261.4 564.4 273.8 577.5 292.7ZM658.7 295.4C650.2 295 641.8 294.7 633.7 294.4C625 285.3 616.7 277.4 609.5 271C626.8 277.4 643.2 285.5 658.7 295.4ZM730.6 364.1C716.2 363.2 701.5 362.3 686.2 361.6C674.7 343.1 661.2 325.1 646 307.8C656.5 308.2 667.2 308.7 678.2 309.2C698.4 324.8 715.9 343.3 730.6 364.1ZM604.6 753.8C610.3 748.4 613.4 745.6 615.4 743.7C619.4 740 619.4 740 628 731.3L632 727.2C638.5 726.9 645.9 726.7 653.5 726.5C656.6 726.4 659.8 726.4 662.9 726.3C645.9 737 626.1 746.4 604.6 753.8ZM322.2 581C297.3 578.8 279.9 576.6 272.3 575.6C267.5 556.8 264.8 537.5 264.3 518H311.9C312.6 539 316 560.1 322.2 581ZM351.2 647.4C325.6 646 308 644.4 301.2 643.8C290.9 626.6 282.6 608.4 276.5 589.3C286.5 590.5 303.8 592.4 326.7 594.3C332.9 612 341.1 629.8 351.2 647.4ZM400 714.6C380.7 713.7 368.6 712.9 364.2 712.6C342.4 695.4 324 676.6 310.4 657.6C321.1 658.4 337.8 659.5 359.3 660.6C370.7 678.6 384.3 696.7 400 714.6ZM440 754.3C420.2 747.4 401.2 738.1 383.6 726.6C391.2 727 400.7 727.5 412 727.9C420.3 736.6 430 745.5 440 754.3ZM514.4 761.1C510.5 752.3 504.9 739.7 500.6 729.6H514.4V761.1ZM503.4 767.6C500.2 767.4 496.8 767.1 494.1 766.9C483.2 754.6 473 742.1 463.8 729.6C471.1 729.7 478.7 729.8 486.8 729.9C492 742.7 497.7 755.7 503.4 767.6ZM527.4 729.5C532.4 729.5 537.5 729.4 542.8 729.4C538.1 740.4 531.6 754.2 527.4 763.1V729.5ZM539.4 768C544.3 757.5 552 740.7 556.8 729.2C564.4 729.1 572.1 728.9 580.1 728.8C570 742.8 560 755.4 549.6 767.1C546.1 767.4 542.7 767.7 539.4 768Z" fill="white"/>
</g>
<defs>
<clipPath id="clip0_2_3018">
<rect width="1024" height="1024" fill="white"/>
</clipPath>
</defs>
</svg>
