<svg width="1024" height="1024" fill="none" xmlns="http://www.w3.org/2000/svg"><g clip-path="url(#a)"><path d="M512 1024c282.77 0 512-229.23 512-512S794.77 0 512 0 0 229.23 0 512s229.23 512 512 512Z" fill="#9ABEFF"/><path d="m480.6 567.77-47.47 150.9-.86 2.74C326.28 716 242 628.34 242 521c0-110.83 89.84-200.67 200.67-200.67a199.799 199.799 0 0 1 123.47 42.48c-25.14 30.64-44.46 77.31-65.54 141.83a60.196 60.196 0 0 0-46.786-42.799 60.203 60.203 0 0 0-71.088 53.563A60.202 60.202 0 0 0 442.67 581.2h.16a59.859 59.859 0 0 0 37.77-13.43Zm221.33-246.85c-3.9.14-7.707.31-11.42.51-4.667.253-9.163.567-13.49.94-7 .6-13.59 1.37-19.89 2.34l-2.35.38a218.38 218.38 0 0 0-6.87 1.25l-2.23.46c-1.48.313-2.94.647-4.38 1l-2.15.53c-2.14.533-4.24 1.107-6.3 1.72-1.373.407-2.73.83-4.07 1.27a126.964 126.964 0 0 0-13.51 5.28 107.91 107.91 0 0 0-7.24 3.65 116.056 116.056 0 0 0-6.93 4.15l-1.69 1.12a92.138 92.138 0 0 0-3.32 2.34 126.817 126.817 0 0 0-3.25 2.48l-1.6 1.29a171.894 171.894 0 0 0-4.71 4.09 119.234 119.234 0 0 0-6.09 6 150.88 150.88 0 0 0-5.89 6.61l-.71.87a169.78 169.78 0 0 0-3.59 4.52c-.947 1.24-1.887 2.51-2.82 3.81a215.158 215.158 0 0 0-4.16 6 212.377 212.377 0 0 0-5.44 8.69c-15.26 25.67-29.37 60.44-45 107.49a1914.817 1914.817 0 0 0-9.91 30.65l-2.57 8.17c-.1.32-.2.63-.3.95l-57.38 182.19c1.58 0 3.16 0 4.74-.06h1.05c1.333-.04 2.65-.09 3.95-.15h.88c1.54-.08 3.077-.177 4.61-.29l.93-.08c1.173-.093 2.343-.197 3.51-.31l.7-.07 1.08-.11 2.63-.3 1.92-.23 1.51-.21 1.77-.25.37-.05 1.41-.22 1.77-.28.73-.12 1-.17 2.37-.42 1.13-.22 2.47-.48 1-.22 2.54-.55.92-.21 2.64-.62.64-.16 2.89-.73.47-.13 3-.83.39-.11c1.04-.293 2.073-.597 3.1-.91h.11a389.7 389.7 0 0 1 3.35-1 200.3 200.3 0 0 0 114.25-94.61l.08-.16a194.884 194.884 0 0 0 3.35-6.42l.19-.38c.487-.98.967-1.98 1.44-3a215.786 215.786 0 0 0 3.09-6.81h.22c48.56-3.58 88.06-22.69 115.47-54.29 2.813-3.247 5.5-6.623 8.06-10.13a159.999 159.999 0 0 0 10.6-16.8c1.62-2.913 3.16-5.897 4.62-8.95a177.834 177.834 0 0 0 7.82-19.11 200.23 200.23 0 0 0 5.9-20.68h-.32l-.34.08-.46.1h-.17l-.44.1h-.2l-.72.15-.81.17-.29.06-.69.14-.31.06-1 .2h-.13l-1.1.21-.42.08-.88.17-.47.09-1.31.24h-.14l-1.41.25-.5.08-1.12.19-.55.09-1.58.25h-.18l-1.67.26-.59.09-1.31.19-.64.09-1.85.26h-.16l-1.93.25-.67.09-1.48.18-.7.08-2.09.24h-.13l-2.17.23-.7.07-1.68.17-.72.07-2.28.21h-.19l-2.33.19-.76.06-1.8.13-.79.05-2.47.15h-.14l-2.52.13h-.79l-1.94.08h-.81l-2.68.08h-6.4c-1.853 0-3.723-.023-5.61-.07h-.85l-2.1-.07H710c-1.913-.08-3.837-.183-5.77-.31l-.84-.06-2.18-.17-.84-.07c-1.947-.167-3.9-.363-5.86-.59l-.85-.1-2.2-.28-.85-.11c-1.96-.267-3.92-.57-5.88-.91l-.86-.15-2.19-.4-.85-.16c-1-.19-2-.39-2.93-.6-1-.21-1.94-.43-2.9-.66l-.85-.21-2.15-.54-.86-.22c-1-.25-1.92-.52-2.87-.79a326.085 326.085 0 0 0 22.86-5.25c1.473-.393 2.933-.797 4.38-1.21 2.9-.82 5.76-1.677 8.58-2.57a275.828 275.828 0 0 0 16.41-5.75 241.744 241.744 0 0 0 7.83-3.17 237.726 237.726 0 0 0 25.45-12.59c2.28-1.333 4.52-2.667 6.72-4a195.68 195.68 0 0 0 37.63-30.21c1.667-1.72 3.29-3.47 4.87-5.25 3.16-3.547 6.16-7.193 9-10.94a175.115 175.115 0 0 0 4.13-5.68 180.117 180.117 0 0 0 3.89-5.82 175.31 175.31 0 0 0 5.37-9 181.418 181.418 0 0 0 4.83-9.28c1.52-3.14 2.947-6.327 4.28-9.56a172.607 172.607 0 0 0 2.55-6.52 189.9 189.9 0 0 0 7-23.71H743.23c-14.9.41-28.62.55-41.3 1Z" fill="#fff"/></g><defs><clipPath id="a"><path fill="#fff" d="M0 0h1024v1024H0z"/></clipPath></defs></svg>