<svg width="1024" height="1024" fill="none" xmlns="http://www.w3.org/2000/svg"><g clip-path="url(#a)"><path d="M512 1024c282.77 0 512-229.23 512-512S794.77 0 512 0 0 229.23 0 512s229.23 512 512 512Z" fill="#F8C18C"/><path d="m479.999 742.51-210.55-97.34c-17.94-8.5-17.94-21.63 0-29.36l73.31-34 136.48 63.35c17.94 8.5 46.79 8.5 64 0l136.48-63.35 73.31 34c17.94 8.5 17.94 21.63 0 29.36l-210.61 97.34c-16.42 7.73-45.24 7.73-62.42 0Zm0-119.76-210.55-97.34c-17.94-8.5-17.94-21.63 0-29.36l71.75-33.22 138.8 64.17c17.94 8.5 46.79 8.5 64 0l138.8-64.16 71.75 33.22c17.94 8.5 17.94 21.63 0 29.36l-210.55 97.33c-18 8.5-46.82 8.5-64 0Zm0 0-210.55-97.34c-17.94-8.5-17.94-21.63 0-29.36l71.75-33.22 138.8 64.17c17.94 8.5 46.79 8.5 64 0l138.8-64.16 71.75 33.22c17.94 8.5 17.94 21.63 0 29.36l-210.55 97.33c-18 8.5-46.82 8.5-64 0Zm0-116.65-210.55-97.34c-17.94-8.5-17.94-21.63 0-29.36l210.55-97.33c17.94-8.5 46.79-8.5 64 0l210.57 97.34c17.94 8.5 17.94 21.63 0 29.36l-210.57 97.34c-18 7.72-46.82 7.72-64 0v-.01Z" fill="#fff"/></g><defs><clipPath id="a"><path fill="#fff" d="M0 0h1024v1024H0z"/></clipPath></defs></svg>