<svg width="1024" height="1024" fill="none" xmlns="http://www.w3.org/2000/svg"><g clip-path="url(#a)"><path d="M512 1024c282.77 0 512-229.23 512-512S794.77 0 512 0 0 229.23 0 512s229.23 512 512 512Z" fill="#98DC9A"/><path d="m395.311 504 42.24 24.26v-54.73l115-67.23-41.55-25.65-115.69 67.93V504Zm115.69-280 95.57 55.45-251.39 149v128.26l-91.41-53.37V368.18L511.001 224Zm66.48 196.85-42.28 24.26 48.48 28.42-.68 129.62 42.24-24.26V448.58l-47.79-27.73h.03Zm182.79 233.59-95.57 56.84V426.4l-115.7-67.93 97-56.14 114.27 66.54v285.57Zm-201.53-36v-47.17l-48.48 28.42-115-67.23v47.13l115.65 67.23 47.83-28.38Zm-295 38.12v-105.4l247.26 141.4 113.58-67.93.69 109.52L513.721 800l-250-143.48.02.04Z" fill="#fff"/></g><defs><clipPath id="a"><path fill="#fff" d="M0 0h1024v1024H0z"/></clipPath></defs></svg>