<svg width="1024" height="1024" viewBox="0 0 1024 1024" fill="none" xmlns="http://www.w3.org/2000/svg">
<g clip-path="url(#clip0_2_3033)">
<path d="M512 1024C794.77 1024 1024 794.77 1024 512C1024 229.23 794.77 0 512 0C229.23 0 0 229.23 0 512C0 794.77 229.23 1024 512 1024Z" fill="#54688C"/>
<path d="M456.67 735V733.78C444.44 732.78 431.67 730.5 420.17 726.2C335.99 694.75 325.27 586.82 325.27 509.92C325.27 494.86 326.5 479.92 327.6 464.92C329.36 440.85 333.19 416.15 340.69 393.14C357.6 341.23 396.86 293.46 455.45 290.94C445.52 286.77 429.31 290.31 418.95 292.06C371.33 300.06 338.44 333.31 321.39 377.32C294.26 447.32 294.9 534.48 309.45 607.26C316.04 640.26 328.7 675.57 353.36 699.52C382.13 727.47 417.92 735 456.67 735ZM502.9 735V733.78C489.591 732.785 476.492 729.896 464 725.2C381.7 693.7 371.5 585.11 371.5 509.93C371.376 492.038 372.422 474.156 374.63 456.4C377.37 435.78 380.52 415.62 386.27 395.57C401.48 342.52 442.97 293.46 501.68 290.94C491.6 286.71 475.68 290.49 465.18 292.26C417.61 300.26 384.7 333.26 367.62 377.33C339.62 449.54 339.62 543.72 358.27 618.22C367.36 654.58 383.78 690.35 415.27 712.58C441.45 731 471.74 735 502.9 735ZM549.13 735V733.78C435 724.79 409.91 585.73 418.74 492.9C419.9 480.76 419.21 468.54 420.86 456.4C423.67 435.78 426.75 415.63 432.5 395.57C447.7 342.57 489.29 293.46 547.91 290.94C537.83 286.71 521.91 290.49 511.41 292.26C462.8 300.45 431.25 334.04 413.59 378.54C399.96 412.89 396.16 450.28 394.59 486.82C391.09 566.69 395.28 689.01 483.45 724.73C504.59 733.29 526.61 735.01 549.15 735.01M569.83 290.24C534.46 294.9 503.76 306.17 481.6 335.96C462.71 361.35 453.29 391.68 447.2 422.34C443.35 441.73 442.11 461.11 440.76 480.74C434.55 571.47 444.36 715.56 557.67 733.26C573 735.66 588.55 735.36 603.9 733.45C655.3 727.05 690.53 688.78 706.5 641.33C723.38 591.17 726.83 535.63 723.24 483.17C720.8 447.49 717.24 412.45 704.82 378.54C683.99 321.72 632.33 282.01 569.82 290.24M573.47 332.65C619.98 327.09 648.47 365.65 661.47 405.3C675.92 449.2 677.69 498.3 674.56 544C672.79 569.76 671.01 595.82 663.08 620.65C651.7 656.29 629.29 688.35 589.28 692.22C542.28 696.77 515.28 658.05 502.09 618.22C487.4 574 486.25 524.35 489.41 478.3C491.1 453.69 493.15 429.05 500.5 405.3C511.71 369.1 533.32 337.45 573.5 332.65H573.47Z" fill="white"/>
</g>
<defs>
<clipPath id="clip0_2_3033">
<rect width="1024" height="1024" fill="white"/>
</clipPath>
</defs>
</svg>
