<svg width="1024" height="1024" fill="none" xmlns="http://www.w3.org/2000/svg"><g clip-path="url(#a)"><path d="M512 1024c282.77 0 512-229.23 512-512S794.77 0 512 0 0 229.23 0 512s229.23 512 512 512Z" fill="#728DBE"/><path d="M722.5 366.2C751.2 407.6 768 457.8 768 512c0 54.2-16.8 104.4-45.5 145.8l-66.3-66.3c13-23.6 20.4-50.7 20.4-79.5 0-28.8-7.4-55.9-20.4-79.5l66.3-66.3Zm-64.7-64.7-66.3 66.3c-23.6-13-50.7-20.4-79.5-20.4-90.9 0-164.6 73.7-164.6 164.6 0 90.9 73.7 164.6 164.6 164.6 28.8 0 55.9-7.4 79.5-20.4l66.3 66.3C616.4 751.2 566.2 768 512 768c-141.4 0-256-114.6-256-256s114.6-256 256-256c54.2 0 104.4 16.8 145.8 45.5Z" fill="#fff"/></g><defs><clipPath id="a"><path fill="#fff" d="M0 0h1024v1024H0z"/></clipPath></defs></svg>