<svg width="1024" height="1024" viewBox="0 0 1024 1024" fill="none" xmlns="http://www.w3.org/2000/svg">
<g clip-path="url(#clip0_2_3045)">
<path d="M512 1024C794.77 1024 1024 794.77 1024 512C1024 229.23 794.77 0 512 0C229.23 0 0 229.23 0 512C0 794.77 229.23 1024 512 1024Z" fill="#56595B"/>
<path d="M753.36 372.75C743.24 320.08 703.88 280.75 651.21 270.6L642.68 269H381.32L372.79 270.64C320.12 280.76 280.79 320.12 270.64 372.79L269 381.29V642.65L270.64 651.18C278.34 691.24 303.19 724.32 338.84 741.93C352.853 748.802 367.961 753.168 383.48 754.83C385.06 754.98 444.19 755.07 514.88 755.03L643.4 754.95L651.59 753.31C704.46 742.76 743.24 703.83 753.36 651.18L755 642.65V381.29L753.36 372.75ZM671.06 525.1C668.95 564.45 659.16 594.18 639.86 619.79C616.4 650.92 581.32 669.34 536.86 673.88C498.86 677.76 461.95 672.41 434.12 658.98C394.86 640.03 367.94 603.77 358.66 557.32C355.32 540.62 354.66 533.44 354.66 511.96C354.66 490.96 355.27 483.68 358.36 467.74C371.07 402.06 415.91 359.89 482.77 350.74C508.04 347.28 540.18 348.83 563.1 354.64C604.4 365.09 635.22 389.72 653.76 427.08C667.07 453.85 673.06 487.81 671.06 525.1ZM503 605.26C482 601.67 469.67 591.43 461.39 570.62C458.202 562.163 455.877 553.405 454.45 544.48C451.93 527.74 452.08 495.62 454.74 479.21C458.37 456.88 465.55 440.9 476.65 430.43C485.97 421.64 496.09 418.2 512.73 418.18C524.08 418.18 530.45 419.37 538.56 423.09C555.56 430.87 567.14 451.62 571.51 482.09C573.37 495.09 573.4 532.09 571.56 544.37C568.33 566.09 560.88 582.94 550.12 592.9C539.36 602.86 519.5 608.08 503 605.26Z" fill="white"/>
</g>
<defs>
<clipPath id="clip0_2_3045">
<rect width="1024" height="1024" fill="white"/>
</clipPath>
</defs>
</svg>
