<svg width="1024" height="1024" fill="none" xmlns="http://www.w3.org/2000/svg"><g clip-path="url(#a)"><path d="M512 1024c282.77 0 512-229.23 512-512S794.77 0 512 0 0 229.23 0 512s229.23 512 512 512Z" fill="#BA6561"/><path d="M427.75 367.74c-28.33 33.41-46.63 82.84-47.91 138.24v12c1.3 55.42 19.58 104.79 47.91 138.22 36.71 47.7 91.29 78 152.3 78 37.46 0 72.53-11.46 102.55-31.38A254.469 254.469 0 0 1 512 768c-4.1 0-8.17-.09-12.16-.3C364 761.37 256 649.3 256 512c0-141.42 114.62-256 256-256h1a255.252 255.252 0 0 1 169.66 65.17c-30-19.84-65.09-31.38-102.61-31.38-61 0-115.56 30.29-152.32 78l.02-.05ZM768 512a255.205 255.205 0 0 1-85.38 190.83c-65.66 32-126.85 9.62-147.11-4.37C600 684.29 648.73 606.29 648.73 512S600 339.73 535.51 325.55c20.25-14 81.45-36.33 147.11-4.37A255.153 255.153 0 0 1 768 512Z" fill="#fff"/></g><defs><clipPath id="a"><path fill="#fff" d="M0 0h1024v1024H0z"/></clipPath></defs></svg>