<svg width="1024" height="1024" fill="none" xmlns="http://www.w3.org/2000/svg"><g clip-path="url(#a)"><path d="M512 1024c282.77 0 512-229.23 512-512S794.77 0 512 0 0 229.23 0 512s229.23 512 512 512Z" fill="#F8C18C"/><path d="m668.21 583-98.86-53.13v-36.03l98.86-52.75v35.68l-32.05 17.07h101.56v36.07H636.16L668.21 547v36Zm-98.86-17.45v36.07l66.48 35.68 32.38 17.38L703 673.37v18.27c0 .51 0 1.14-.1 1.76 0 8-4.16 11.75-8.39 13.48l-.67.26a20.317 20.317 0 0 1-4.53 1l-.8.07H321v-34.84l34.76-18.65 32.38-17.38 66.48-35.68v-36.07L286.28 656v88h400.08c27.94 0 50.92-23.25 51.32-52v-36l-168.33-90.45Zm-213.56 96.36V673h312.42v-11.1l-45.76-24.56H401.57l-45.78 24.57Zm341.74-96.32h-23.89v20.33l23.89 12.83v-33.16ZM454.65 458.41v-36.07l-66.48-35.68-32.38-17.38L321 350.63v-18.27c0-.51 0-1.14.1-1.76 0-8 4.16-11.75 8.39-13.48l.67-.26a20.317 20.317 0 0 1 4.53-1l.8-.07H703v34.94l-34.76 18.65-32.38 17.38-66.48 35.68v36.07L737.72 368v-88H337.64c-27.94 0-50.92 23.25-51.32 52v36l168.33 90.41Zm213.56-96.32V351H355.79v11.1l45.76 24.56h220.88l45.78-24.57Zm-293.44 60.64h-39.63l52.32 28.08 2.35 1.26 11.81 6.34h39.63l-11.81-6.34-21.44-11.5-21.43-11.5-11.8-6.34Zm-48.3 35.68h23.89v-20.33l-23.89-12.83v33.16ZM355.79 583l98.86-53.13v-36.03l-98.86-52.75v35.68l32.05 17.07H286.28v36.07h101.56L355.79 547v36Zm30.79 11.89L408 583.43l21.43-11.5 11.81-6.34h-39.62l-11.81 6.34-2.35 1.26-52.32 28.08h39.63l11.81-6.38Zm-60.11 3.82 23.89-12.83v-20.29h-23.89v33.12Zm311-169.53L616 440.72l-21.43 11.5-11.81 6.34h39.63l11.81-6.34 2.35-1.26 52.32-28.08h-39.64l-11.76 6.3Zm60.11-3.82-23.89 12.83v20.33h23.89v-33.16Zm-48.3 175.87h39.63l-52.32-28.08-2.35-1.26-11.81-6.34h-39.68l11.81 6.34L616 583.43l21.43 11.5 11.85 6.3Z" fill="#fff"/></g><defs><clipPath id="a"><path fill="#fff" d="M0 0h1024v1024H0z"/></clipPath></defs></svg>