<svg width="1024" height="1024" fill="none" xmlns="http://www.w3.org/2000/svg"><g clip-path="url(#a)"><path d="M512 1024c282.77 0 512-229.23 512-512S794.77 0 512 0 0 229.23 0 512s229.23 512 512 512Z" fill="#728DBE"/><path d="M749.47 330.15 512 257.27l-237.47 72.88V530C274.53 727.5 512 802.73 512 802.73s237.47-77.59 237.47-275.08v-197.5ZM514.35 668.72c-82.29 0-148.12-68.18-148.12-152.82 0-84.64 65.83-152.82 148.12-152.82 79.94 0 148.12 70.53 148.12 152.82 0 84.63-65.83 152.82-148.12 152.82ZM596.64 483 488.49 584.08 429.71 530l18.81-23.51 40 37.62 89.34-82.29L596.64 483Z" fill="#fff"/></g><defs><clipPath id="a"><path fill="#fff" d="M0 0h1024v1024H0z"/></clipPath></defs></svg>