<svg width="1024" height="1024" fill="none" xmlns="http://www.w3.org/2000/svg"><g clip-path="url(#a)"><path d="M512 1024c282.77 0 512-229.23 512-512S794.77 0 512 0 0 229.23 0 512s229.23 512 512 512Z" fill="#FF837D"/><path d="M466.88 525.07h44.19l-23.34-37.69-42.91 68.08H425.3l52.19-81.68a12.434 12.434 0 0 1 10.114-5.318 12.438 12.438 0 0 1 10.186 5.178l52.34 81.82h-19.52l-9.19-15.22h-44.71L467 525.07m202.76 15.16v-71h-16.62v77.94a7.993 7.993 0 0 0 2.46 5.8 8.379 8.379 0 0 0 6 2.52H737l9.83-15.22h-77.19m-274.12-12.71a29.143 29.143 0 0 0 26.922-17.989 29.143 29.143 0 0 0-6.317-31.756 29.145 29.145 0 0 0-20.605-8.535H323v86.17h16.56v-70.92h54.92a13.947 13.947 0 0 1 13.577 13.945 13.948 13.948 0 0 1-13.577 13.945H347.8l49.47 43h24l-33.23-27.89h7.45M221.2 555.46h50.07a43.092 43.092 0 0 0 41.777-43.07 43.09 43.09 0 0 0-41.777-43.07H221.2a43.086 43.086 0 0 0-43.46 41.988A43.092 43.092 0 0 0 219 555.46h2.24m48.94-15.16h-47.87a27.89 27.89 0 0 1 0-55.76h47.84a27.898 27.898 0 0 1 19.978 7.529 27.899 27.899 0 0 1 1.272 39.429 27.895 27.895 0 0 1-19.45 8.802h-1.8m314.57 15.16h51.12l9.68-15.16h-59.68a27.9 27.9 0 0 1-26.313-16.379 27.884 27.884 0 0 1-.689-21.339 27.903 27.903 0 0 1 14.601-15.575 27.884 27.884 0 0 1 10.601-2.467h50.37l9.8-15.22h-59.5a43.093 43.093 0 0 0-43.511 41.968 43.089 43.089 0 0 0 41.271 44.172h2.24m202.59-15.17A27.892 27.892 0 0 1 760.45 520h70.81l9.74-15.2h-80.55a27.857 27.857 0 0 1 26.85-20.3h48.6l9.71-15.22h-59.44a43.09 43.09 0 0 0 0 86.14h51.12l9.71-15.16h-59.73" fill="#fff"/></g><defs><clipPath id="a"><path fill="#fff" d="M0 0h1024v1024H0z"/></clipPath></defs></svg>