<svg width="1024" height="1024" fill="none" xmlns="http://www.w3.org/2000/svg"><g clip-path="url(#a)"><path d="M512 1024c282.77 0 512-229.23 512-512S794.77 0 512 0 0 229.23 0 512s229.23 512 512 512Z" fill="#98DC9A"/><path d="M373.7 709.3h-50.4V358.5h50.4v350.8Zm74 .2h136.9c115.6 0 186-85.4 186-175.5 0-82.8-57-175.5-186.7-175.5H447.7v351Zm50.4-45.4v-260h77.6c98.2 0 143.1 59.6 143.1 130 0 43.2-26.2 130-140.5 130h-80.2ZM348.5 252.4a33.097 33.097 0 0 0-32.464 39.558A33.1 33.1 0 0 0 381.6 285.5a32.996 32.996 0 0 0-20.418-30.607A32.996 32.996 0 0 0 348.5 252.4Z" fill="#fff"/></g><defs><clipPath id="a"><path fill="#fff" d="M0 0h1024v1024H0z"/></clipPath></defs></svg>