<svg width="1024" height="1024" fill="none" xmlns="http://www.w3.org/2000/svg"><g clip-path="url(#a)"><path d="M512 1024c282.77 0 512-229.23 512-512S794.77 0 512 0 0 229.23 0 512s229.23 512 512 512Z" fill="#54688C"/><path d="M765.78 473.78c-13.51-102.85-88.08-186.42-186.09-213.23L512 328.23a179.256 179.256 0 0 1 175.43 142.54A255.61 255.61 0 0 0 512 571.44a255.688 255.688 0 0 0-175.44-100.67c16.93-81.38 89-142.54 175.44-142.54l-67.68-67.68c-98 26.81-172.57 110.38-186.11 213.23a255.398 255.398 0 0 0 1.79 78.38 179.326 179.326 0 0 1 124.28 11.146 179.325 179.325 0 0 1 86.92 89.524A176.967 176.967 0 0 1 481.63 684a179.713 179.713 0 0 1 1 77.69c-.14.59-.29 1.16-.43 1.73h59.57c-.11-.58-.29-1.15-.41-1.73a179.543 179.543 0 0 1 1-77.69 179.113 179.113 0 0 1 144.06-135.54 178.89 178.89 0 0 1 77.58 3.7 255.082 255.082 0 0 0 1.75-78.38h.03Z" fill="#fff"/></g><defs><clipPath id="a"><path fill="#fff" d="M0 0h1024v1024H0z"/></clipPath></defs></svg>