<svg width="1024" height="1024" fill="none" xmlns="http://www.w3.org/2000/svg"><g clip-path="url(#a)"><path d="M512 1024c282.77 0 512-229.23 512-512S794.77 0 512 0 0 229.23 0 512s229.23 512 512 512Z" fill="#54688C"/><path d="m700.2 466.5 61.2-106.3c23.6 41.6 37.2 89.8 37.2 141.1 0 68.8-24.3 131.9-64.7 181.4H575.8l48.7-84.6h-64.4l75.8-131.7 64.3.1Zm-55.4-125.2L448.3 682.5l.1.2H290.1c-40.5-49.5-64.7-112.6-64.7-181.4 0-51.4 13.6-99.6 37.3-141.3l102.5 178.2 113.3-197h166.3v.1Z" fill="#fff"/></g><defs><clipPath id="a"><path fill="#fff" d="M0 0h1024v1024H0z"/></clipPath></defs></svg>