<svg width="1024" height="1024" viewBox="0 0 1024 1024" fill="none" xmlns="http://www.w3.org/2000/svg">
<g clip-path="url(#clip0_2_3069)">
<path d="M512 1024C794.77 1024 1024 794.77 1024 512C1024 229.23 794.77 0 512 0C229.23 0 0 229.23 0 512C0 794.77 229.23 1024 512 1024Z" fill="#54688C"/>
<path d="M700.2 466.5L761.4 360.2C785 401.8 798.6 450 798.6 501.3C798.6 570.1 774.3 633.2 733.9 682.7H575.8L624.5 598.1H560.1L635.9 466.4L700.2 466.5ZM644.8 341.3L448.3 682.5L448.4 682.7H290.1C249.6 633.2 225.4 570.1 225.4 501.3C225.4 449.9 239 401.7 262.7 360L365.2 538.2L478.5 341.2H644.8V341.3Z" fill="white"/>
</g>
<defs>
<clipPath id="clip0_2_3069">
<rect width="1024" height="1024" fill="white"/>
</clipPath>
</defs>
</svg>
