<svg width="1024" height="1024" viewBox="0 0 1024 1024" fill="none" xmlns="http://www.w3.org/2000/svg">
<g clip-path="url(#clip0_2_3072)">
<path d="M512 1024C794.77 1024 1024 794.77 1024 512C1024 229.23 794.77 0 512 0C229.23 0 0 229.23 0 512C0 794.77 229.23 1024 512 1024Z" fill="#728DBE"/>
<path d="M495.14 496.75C504.41 502.13 519.58 502.13 528.86 496.75L698.3 398.42C707.57 393.04 707.56 384.25 698.3 378.89L528.9 281.08C519.62 275.72 504.43 275.72 495.14 281.08L325.68 378.91C316.39 384.27 316.39 393.06 325.68 398.44L495.14 496.75ZM504.69 538.68C504.69 527.96 497.1 514.79 487.83 509.41L317.83 410.81C308.56 405.43 300.97 409.81 300.97 420.52V617.32C300.97 628.04 308.56 641.19 317.85 646.56L487.78 744.67C497.07 750.03 504.66 745.67 504.66 734.92V538.68H504.69ZM536.17 509.41C526.9 514.79 519.31 527.97 519.31 538.68V734.91C519.31 745.63 526.91 750.02 536.19 744.66L706.11 646.55C715.4 641.19 723 628 723 617.31V420.47C723 409.75 715.41 405.38 706.14 410.76L536.17 509.41Z" fill="white"/>
</g>
<defs>
<clipPath id="clip0_2_3072">
<rect width="1024" height="1024" fill="white"/>
</clipPath>
</defs>
</svg>
