<svg width="1024" height="1024" fill="none" xmlns="http://www.w3.org/2000/svg"><g clip-path="url(#a)"><path d="M512 1024c282.77 0 512-229.23 512-512S794.77 0 512 0 0 229.23 0 512s229.23 512 512 512Z" fill="#728DBE"/><path d="M495.14 496.75c9.27 5.38 24.44 5.38 33.72 0l169.44-98.33c9.27-5.38 9.26-14.17 0-19.53l-169.4-97.81c-9.28-5.36-24.47-5.36-33.76 0l-169.46 97.83c-9.29 5.36-9.29 14.15 0 19.53l169.46 98.31Zm9.55 41.93c0-10.72-7.59-23.89-16.86-29.27l-170-98.6c-9.27-5.38-16.86-1-16.86 9.71v196.8c0 10.72 7.59 23.87 16.88 29.24l169.93 98.11c9.29 5.36 16.88 1 16.88-9.75V538.68h.03Zm31.48-29.27c-9.27 5.38-16.86 18.56-16.86 29.27v196.23c0 10.72 7.6 15.11 16.88 9.75l169.92-98.11C715.4 641.19 723 628 723 617.31V420.47c0-10.72-7.59-15.09-16.86-9.71l-169.97 98.65Z" fill="#fff"/></g><defs><clipPath id="a"><path fill="#fff" d="M0 0h1024v1024H0z"/></clipPath></defs></svg>