<svg width="1024" height="1024" viewBox="0 0 1024 1024" fill="none" xmlns="http://www.w3.org/2000/svg">
<g clip-path="url(#clip0_2_3075)">
<path d="M512 1024C794.77 1024 1024 794.77 1024 512C1024 229.23 794.77 0 512 0C229.23 0 0 229.23 0 512C0 794.77 229.23 1024 512 1024Z" fill="#F8C18C"/>
<path d="M539.87 787C537.62 785.78 532.32 785.58 502.79 785.58H473.86L473.47 783.58L471.27 773.68C470.597 770.999 470.059 768.285 469.66 765.55C469.551 764.677 469.254 763.838 468.79 763.09L467.69 760.93L455.13 762.93C448.22 763.99 441.4 765.23 440 765.59C437.7 766.28 437.47 766.28 437.64 765.68C438.51 762.47 438.64 761.06 438.28 759.57C437.92 758.08 437.89 757.92 443.74 744.76C450.08 730.48 449.85 731.12 449.18 730.2C448.77 729.63 448.18 729.74 442.18 731.81C438.53 732.96 435.43 733.95 435.27 733.88C438.303 728.207 441.473 722.603 444.78 717.07C455.14 699.32 457.78 694.66 457.78 694.07C455.853 691.611 453.776 689.273 451.56 687.07C448.12 683.47 444.42 679.52 443.36 678.25C442.627 677.289 441.762 676.437 440.79 675.72C439.64 675.33 434.73 670.42 423.85 658.87C419.923 654.63 415.907 650.483 411.8 646.43C410.38 645.28 410.03 644.73 409.34 642.43C407.439 636.84 405.208 631.367 402.66 626.04L400.46 621.42V617.33C400.46 611.11 399.17 604.89 394.1 586.77L392.86 582.38L390.86 582.15C386.43 581.76 384.36 579.33 380.96 570.58C379.353 566.893 377.587 563.28 375.66 559.74C373.36 555.35 370.59 549.91 369.44 547.53L367.44 543.28L365.6 543.05C362.784 542.714 359.929 543.11 357.31 544.2C354.55 545.35 349.39 545.65 343.12 545.05L333.96 544.18L329.39 543.72L326.93 539.33C323.23 532.81 323.23 532.79 321.47 531.89C319.4 530.83 317.77 530.83 308.34 531.89L300.88 532.69L295.25 531.89C280.44 529.73 276.95 528.08 276.95 523.28C276.39 519.494 275.608 515.745 274.61 512.05C271.61 499.93 269.61 486.2 270.13 481.47C270.91 474.72 276.4 458.6 284.73 438.53L287.99 430.7L288.52 418.14C291.78 342.97 292.61 331.81 295.04 327.42C295.84 326 305.79 317.52 309.83 314.75C317.52 309.61 344.34 296.38 374.17 283.09L382.99 279.16L387.47 278.88L391.9 278.65L403.9 286.2L415.9 293.75L425.61 289.16L440.61 282C446.01 279.52 446.03 279.47 449.04 276.19C453.26 271.57 460.34 263.19 462.63 260.05C465.34 256.35 471.7 251.14 481.37 244.62C484.75 242.37 485.62 241.96 494.43 238.56L499.73 236.49H511C521.36 236.49 522.53 236.56 526 237.34C534.22 239.13 541 241.77 541.75 243.47C542.26 244.62 543.36 245.31 546.04 246.23C549.25 247.33 553.18 250.09 574.14 266.04C585.37 274.6 584.98 274.44 609.48 282.55L616.32 284.85L620.32 289.69C624.94 295.22 628.54 298.97 629.6 299.31C631.21 299.82 640.74 297.47 652.77 293.59C658.88 291.59 659.77 291.45 660.83 291.82C663.269 292.185 665.735 292.339 668.2 292.28C674.42 292.39 680 293.06 693.85 295.43C697.36 296.05 700.3 296.53 700.35 296.53C700.4 296.53 705.95 306.15 712.68 317.95C719.41 329.75 726.68 342.01 728.87 345.32C732.7 351.04 732.87 351.38 733.21 353.93C733.81 358.32 735.05 377.07 735.28 383.99L735.81 404.56C736.27 423.92 736.64 428.44 737.88 431.06C740.02 435.63 744.22 448.21 751.01 470.53L753.77 479.74L753.95 501.09L750.74 517.81L747.11 536.48L746.74 538.39L736.66 544.45L726.53 550.53L719.16 550.16C715.05 549.93 711.47 549.79 711.16 549.79C710.47 549.79 709.64 552.38 708.06 559.23C707.14 563.23 707.06 563.32 705.95 563.52L690.66 565.95C669.54 569.28 666.85 570.11 659.87 575.69C653.81 580.53 653.81 580.47 647.1 614.29C645.86 620.877 644.443 627.427 642.85 633.94C640.44 641.22 621.24 673.16 614.24 681.56L610.45 686.13L611.92 691.37C612.72 694.26 613.6 697.45 613.83 698.46C614.2 700.07 621.04 726.15 623.5 735.4L624.37 738.61L619.75 736.68L612.22 733.56C611.269 733.08 610.261 732.724 609.22 732.5C609.15 732.59 609.98 735.94 611.06 740.01C612.9 746.62 615.35 757.53 615.12 757.76C615.05 757.76 611.68 757.58 607.52 757.25C604.607 757.003 601.69 756.85 598.77 756.79L597.51 756.9L593.35 772.1C591.05 780.43 589.13 787.35 589.06 787.41C588.83 787.57 576.75 786.95 565.98 786.26C553.58 785.46 549.91 785.53 546.78 786.65C543.91 787.65 541.25 787.8 539.78 786.97L539.87 787ZM584.8 779C584.8 778.4 585.33 774.84 585.95 771.08C586.57 767.32 587.1 763.34 587.1 762.29C587.118 760.906 587.432 759.543 588.02 758.29C588.349 757.606 588.604 756.889 588.78 756.15C588.78 756.15 580.33 755.46 570.11 754.73C555.48 753.67 550.36 753.19 545.93 752.37L540.33 751.31L527 752.9C517.49 754.05 513.5 754.69 513.06 755.08C512.62 755.47 508.44 756.08 496.71 757.24C488.08 758.11 480.25 758.96 479.35 759.15L477.7 759.45L477.79 761.36C477.86 762.85 478.25 764 479.7 766.66C480.999 769.039 481.929 771.602 482.46 774.26C482.718 775.722 483.072 777.165 483.52 778.58C483.59 778.65 505.86 778.9 533.05 779.11C579.75 779.48 582.51 779.52 583.36 780.11C584.42 780.91 584.83 780.57 584.83 778.96L584.8 779ZM475 751.89C495 749.07 503.15 748.03 511.09 747.44C519.98 746.8 531.69 745.44 540 744.16C541.31 743.93 545.69 743.7 549.74 743.56L557.11 743.33L565.77 745.56L574.47 747.81L590.13 748.73C598.79 749.26 605.9 749.65 605.97 749.56C605.503 747.787 604.967 746.033 604.36 744.3C603.36 741.5 601.83 736.65 600.8 733.55L599.03 727.95L593.73 726.3L588.43 724.62L584.85 726.14L581.27 727.63L540.49 728.94L499.76 730.27L497 728.89L494.29 727.58H461.48L455.3 741.29C451.9 748.82 449.08 755.11 448.96 755.29C448.78 755.66 446.11 755.98 474.96 751.91L475 751.89ZM615.68 728.1C615.68 727.71 605.78 695.15 605.49 694.65C605.33 694.37 604.34 695.2 602.85 696.85L600.44 699.49L603.98 712.49L607.49 725.49L611.37 726.87C615.53 728.34 615.76 728.41 615.76 728.02L615.68 728.1ZM459.83 711.74L464.22 703.59L462.91 701.68C462.18 700.62 461.46 699.84 461.35 700C461.24 700.16 458.09 705.46 454.35 711.82C450.61 718.18 447.53 723.55 447.42 723.69C447.31 723.83 449.07 723.09 451.35 721.97L455.35 719.9L459.76 711.73L459.83 711.74ZM527.72 710.09C530.15 703.09 532.15 697.19 532.15 697C530.708 696.245 529.181 695.668 527.6 695.28C526.047 694.82 524.507 694.313 522.98 693.76C523.368 692.865 523.854 692.017 524.43 691.23L525.99 688.84L535.29 688.38C551.5 687.62 560.87 684.82 569.96 678.02C573.4 675.49 574.87 675.08 576.76 676.02C578.37 676.94 579.52 678.96 579.19 680.41C578.96 681.41 578.55 681.7 573.66 684.93C569.04 687.93 553.55 694.76 548.08 696.23C544.96 697.03 541.44 698.99 540.66 700.39C539.88 701.79 537.01 721.51 537.66 722.13C537.8 722.27 564.02 721.21 568.2 720.84C570.73 720.66 570.89 720.61 571.9 719.3C572.45 718.57 574.9 715.79 577.36 713.17C579.82 710.55 584.27 705.52 587.26 701.97C590.25 698.42 594.79 693.22 597.26 690.44C601.19 686.1 603.26 683.14 611.47 670.76C631.63 640.36 632.98 637.67 634.47 625.55C635.47 616.94 636.01 615.29 639.38 609.55C642.75 603.81 646.13 587.39 644.27 585.83C642.62 584.45 640.76 585.1 634.47 589.27C622.71 597.1 610.61 608.58 608.89 613.45C608.11 615.63 603.77 622.01 602.35 623.05L590.43 631.52C577.07 641.03 578.49 639.52 570.94 651.7L568.41 655.7L560.9 659.7L553.37 663.63L539.23 663.97C510.99 664.61 509.66 664.48 494.62 659.22L484.72 655.71L476.82 648.71C472.43 644.85 464.65 637.92 459.51 633.28L450.17 624.83L446.91 617.46C442.91 608.733 439.107 599.933 435.5 591.06C433.57 585.87 433.43 585.76 429.19 581.23C421.36 572.94 417.04 563.85 411.81 544.23C410.81 540.44 410.02 538.28 409.51 537.78C409 537.28 408.87 537.27 408.98 537.5C409.058 538.14 408.962 538.79 408.7 539.38C405.1 549.51 403.9 557.01 402.98 575.18C402.52 583.42 402.52 583.24 405.18 597.75C410.35 625.9 411.98 632.19 414.57 633.68C416.986 635.668 419.222 637.867 421.25 640.25C429.08 648.88 431.54 651.39 435.12 654.25C441.66 659.55 452 670.55 455.81 676.32C456.766 677.731 457.801 679.086 458.91 680.38C462.35 684.12 469.52 694.16 479.55 709.29L486.76 720.2L489.76 720.04C491.83 719.9 497.31 720.32 506.76 721.28C514.47 722.08 521.34 722.75 522.03 722.77H523.32L527.71 710.03L527.72 710.09ZM475.46 720.54C474.702 718.901 473.762 717.351 472.66 715.92C470.94 713.46 469.45 711.44 469.22 711.53C467.672 714.312 466.283 717.18 465.06 720.12C464.83 720.83 472.89 721.12 475.46 720.53V720.54ZM539 657.2C540.06 656.44 541.92 655.94 547.63 654.79C554.77 653.41 556.24 652.88 562.05 649.95C562.939 649.28 563.661 648.414 564.16 647.42C564.872 646.265 565.722 645.201 566.69 644.25C567.06 643.999 567.367 643.664 567.586 643.274C567.805 642.883 567.929 642.447 567.95 642C567.95 640.21 573.16 635.69 592.95 620.28C595.221 618.629 597.136 616.538 598.58 614.13C600.3 611.543 602.313 609.164 604.58 607.04C606.58 605.2 611.26 600.52 615.12 596.68C618.98 592.84 624.12 588.05 626.53 586.07C628.45 584.597 630.293 583.037 632.06 581.39C632.75 580.66 635.66 578.96 639.75 576.89C642.148 575.78 644.458 574.49 646.66 573.03C647.07 572.34 648.73 571.65 658.32 568.03C678.73 560.43 692.32 556.73 699.42 556.73C701.26 556.73 701.62 555.54 700.96 551.73C699.4 542.66 694.16 539.06 682.41 539.06H678.25L676.8 537.52C675.42 536.03 675.26 535.52 673.95 530.06C671.31 518.92 669.7 517.85 656.95 518.21C646.95 518.51 644.28 519.59 616.68 534.7C602.86 542.3 592.92 550.82 581.25 565.24C580.487 566.249 579.641 567.192 578.72 568.06C571.58 568.06 571.72 557.22 579.11 546.27L581.54 542.67L579.61 541.87C574.19 539.41 567.4 539.05 562.61 540.95C556 543.6 539.18 553 537 555.21C534.82 557.42 532.71 557.64 532.71 555.37C532.71 552.57 535.33 548.83 539.35 545.93C540.27 545.2 541.88 543.93 542.86 543.01C545.859 540.499 549.233 538.475 552.86 537.01C556.24 535.63 556.12 535.82 554.93 533.57C551.72 527.72 542.88 521.03 533.93 517.75C532.78 517.29 530.05 516.14 527.93 515.18C522.86 512.84 520.33 512.33 512.5 512.06C506.9 511.83 506 511.74 506.37 511.3C508.07 509.23 513.51 508.25 524.51 507.99L533.33 507.76L539 510.3C555 517.21 561.11 520.91 563.66 525.11C565.41 528.05 565.59 528.16 568.11 527.68C574.22 526.53 580 528.41 585.67 533.4C588.77 536.16 589.89 536.4 591.96 534.85C595.446 531.949 597.69 527.823 598.23 523.32C599.03 517.1 596.85 497.24 594.72 491.52C593.11 487.2 593.41 487.02 596.72 490.46C600.65 494.55 600.65 494.55 604.21 487.93C605.146 486.168 606.205 484.473 607.38 482.86C614.06 474.43 613.83 458.86 606.99 451.93C603.55 448.49 597.71 445.25 588.28 441.69C579.03 438.13 577.49 436.85 570.6 427.27C562.31 415.65 560.84 414.27 553.98 411.01C539.81 404.28 505.74 398.11 494.98 400.29C484.85 402.36 471.1 410.55 464.67 418.41C460.67 423.3 450.2 427.07 435.42 429.02C416.13 431.5 406.63 448.02 411.52 470.49C412.44 474.88 412.39 474.83 415.31 471.27C424.61 459.67 443.07 448.86 459.62 445.32C472.82 442.56 493.49 442.43 505.77 445.09L507.97 445.6H504.66C487.44 445.83 460.94 451.5 442.16 459.01L438.16 460.62L437.79 462.62C437.45 464.53 437.28 464.76 431.34 470.68C419 483 415.42 488.95 413.47 500.2C412.55 505.69 414.3 513.72 416.91 515.77C417.53 516.28 417.99 516.92 417.91 517.15C417.643 518.863 417.443 520.587 417.31 522.32C415.56 541.72 424.73 565.16 439.31 578.64L442.62 581.69L445.1 579.62C452.38 573.67 464.82 565.52 465.49 566.26C466.49 567.41 466.27 568.33 464.73 569.82C462.73 571.7 460.23 575.01 453.34 584.56L447.39 592.85L447.55 595.24C447.978 598.884 449.127 602.405 450.93 605.6C451.62 606.66 453 609.04 454.05 610.86C456.939 616 460.194 620.926 463.79 625.6C466.164 628.523 468.342 631.6 470.31 634.81C470.95 635.87 471.46 636.28 471.92 636.19C472.84 635.96 473.99 636.79 478.33 640.87C482.6 644.8 480.24 643.67 497.73 650.24C516.63 657.33 523.73 658.71 531.37 656.81C533.44 656.3 533.6 656.3 535.23 657.15C537.3 658.23 537.3 658.23 538.97 657.15V657.26L539 657.2ZM393.22 569.5C393.29 569.43 393.68 567.14 394.07 564.33C394.479 561.479 395.094 558.662 395.91 555.9L400.34 541.11C404.4 527.29 403.99 528.48 404.43 529.17C405 530.17 404.77 528.94 404.06 527.47C403.486 526.187 402.979 524.875 402.54 523.54L401.76 521.06L402.54 507.56L403.32 494.04L402.06 484.92C401.673 481.8 401.183 478.693 400.59 475.6C399.86 474.87 389.94 478.93 386.84 481.23C382.84 484.23 377.63 496.82 375.54 508.64C372.78 524.57 375.36 546.46 380.73 552.64C382.34 554.48 385.92 561.32 388.93 568.25L389.71 570.02L391.43 569.79C392.036 569.759 392.637 569.658 393.22 569.49V569.5ZM732.46 539.42C735.35 537.42 737.92 535.36 738.11 534.92C738.45 534.07 743 509.69 744.56 500.32L745.56 494.42L744.56 484.16L743.56 473.92L740.69 462.92C737.84 452.01 737.75 451.81 734.63 445.58C729.63 435.68 730.18 440.16 725.93 368.48L725.13 355.21L723.91 353.95C722.3 352.23 716.17 343.43 701.8 322.08C697.8 315.96 693.62 309.983 689.26 304.15C683.007 302.87 676.723 301.753 670.41 300.8C661.34 299.54 653.51 300.23 646.19 302.96C643.25 304.06 642.98 304.11 641.57 303.65C638.4 302.57 634.84 303.58 628.51 307.42L625.18 309.42L621.37 304.35C616.98 298.59 616.92 298.5 608.28 292.82C593.59 283.27 591.84 282.51 570.81 276.93C562.7 274.77 563.67 275.51 548.01 259.93L535.73 247.71L522.3 247.89C499.59 248.23 488.3 249.27 485.56 251.15C469.21 262.81 460.44 271.54 450.25 286.3L447.89 289.74L439.03 293.96C429.34 298.62 415.29 302.96 411.45 302.43C409.34 302.15 401.78 298.3 396.34 294.6C386.28 287.92 379.34 287.11 371.34 291.75C364.82 295.49 360.25 297.93 341.81 307.25C322.04 317.25 319.65 318.64 313.2 323.44L309.43 326.26L306.15 332.87C299.01 347.24 299.15 346.69 298.78 365.36C298.09 400.26 297.98 411.46 298.41 414.08C299.092 417.909 299.217 421.816 298.78 425.68C298.14 429.61 289.89 457.53 285.35 471.07C283.635 476.584 282.413 482.24 281.7 487.97C281.47 489.58 281.7 491.97 282.53 496.97C283.13 500.74 284.14 507.33 284.76 511.66C286.28 522.31 287.52 524.56 292.98 526.35C297.78 527.96 300.07 527.8 309.79 525.35C328 520.69 328.46 520.83 335.79 534.03C337.58 537.18 338.36 538.25 339.07 538.46C341.48 539.15 355.72 538.69 358.95 537.84L363.4 536.69L364.69 536.35L364.23 534.15C363.434 529.416 363.256 524.599 363.7 519.82C364.359 512.939 365.532 506.116 367.21 499.41C367.3 499.02 367.07 499.32 366.7 500.1L366.01 501.48L365.21 497.88C364.015 492.349 361.745 487.107 358.53 482.45C354.806 476.037 351.574 469.351 348.86 462.45L346.72 457.15L346.95 453.45C348.1 436.96 352.09 426.22 360.66 416.83C365.87 411.14 367.39 408.77 368.12 404.83C368.69 401.83 370.55 386.3 372.05 372.83L373.36 360.27L379 343.75C382 334.75 384.3 327.17 384.17 327.03C378.977 324.363 373.673 321.907 368.26 319.66C365.41 318.86 358.8 319.13 353.75 320.28C337.56 323.98 325.65 332.49 325.05 340.78C324.89 342.62 316.74 359.78 315.98 359.78C315.52 359.78 314.28 357.53 313.84 355.9C313.4 354.27 313.56 353.26 315.52 347.84C316.25 345.84 317.75 340.84 318.85 336.66C321.61 326.49 322.06 325.66 328.15 322.91L338.87 317.84C354.37 310.38 376.87 304.57 382.47 306.59C385.75 307.74 390.71 311.78 395.14 316.83L397.25 319.22L395.18 324.87C384.66 353.94 382 362 381.26 366.73C379.63 377.25 379.74 400.37 381.44 405.65C382.77 409.97 382.68 410.13 376.32 414.31C365.32 421.57 354.44 435.41 353.98 442.62C353.68 447.46 356.05 457.18 359.05 463.01C360.24 465.42 372.57 484.01 372.96 484.01C373.496 483.388 373.938 482.691 374.27 481.94C377.899 474.634 383.496 468.487 390.43 464.19C397.69 459.51 397.71 459.51 398.26 457C401.96 440.35 408.02 430.73 418.47 425.2L422.99 422.79L420.81 421.99C417.48 420.77 414.59 418.71 410.98 414.92C394.98 398.09 388.8 378.92 395.18 366.08C395.816 364.708 396.367 363.299 396.83 361.86C402.46 344.52 418.21 335.13 439.12 336.58C459.69 338.03 468.83 343.38 476.27 358.16C483.41 372.49 483.02 385.51 475.01 398.36L473.49 400.79L474.87 399.46C476.43 398.01 492.46 390.87 496.59 389.79C502.74 388.18 511.72 389.1 540.08 394.22C551.54 396.29 553.49 397.09 558.98 402.05C560.13 403.15 561.05 403.8 561.05 403.52C561.05 403.24 560.82 401.13 560.48 398.79C558.57 384.62 561.26 366.62 566.66 357.79C573.18 347.09 598.23 337.52 611.98 340.48C618.89 341.97 629.64 348.63 635.42 355.06C636.15 355.89 636.8 356.35 636.8 356.06C636.8 355.77 636.34 348.6 635.88 340.06C635.487 334.793 635.257 329.52 635.19 324.24C635.37 324.1 638.5 322.31 642.19 320.24L648.92 316.54L650.11 317.46C651.11 318.19 653.99 318.91 668.02 321.85L685.54 325.62C686.16 325.76 687.54 327.69 690.54 332.62C692.77 336.39 696.76 342.91 699.45 347.13C709.21 362.74 710.98 366.78 708.89 368.74C706.8 370.7 706.41 370.74 705.01 368.58C704.32 367.58 700.39 361.37 696.31 354.92C693.717 350.74 691.03 346.613 688.25 342.54C687.79 342.08 665.34 334.6 654.11 331.13C648.62 329.45 642.81 357.56 644.11 379.32C644.57 386.64 644.57 386.69 650.79 392.41C654.67 395.99 670.49 418.26 673.59 424.49L675.13 427.61L674.99 446.61L674.88 465.55L672.47 469.61C662.34 486.61 656.54 493.05 649.85 494.77C646.15 495.69 642.07 498.77 642.41 500.3C642.52 500.81 642.71 503.84 642.87 506.98C643.01 510.81 643.24 512.79 643.49 512.79C643.74 512.79 645.17 512.56 646.7 512.26C657.15 510.26 668.7 510.95 675.7 513.94C678.23 515.02 678.36 515.41 678.64 521.84C679.03 530.45 679.64 531.18 686.75 532.33C694.75 533.59 697.5 534.95 702.75 540.23L705.69 543.23L726.91 543.32L732.54 539.46L732.46 539.42ZM465 323.91C458.753 319.91 452.377 316.13 445.87 312.57C438.11 308.64 437.81 307.95 443.18 305.48C451.01 301.88 454.06 302.95 464.03 312.71C467.89 316.5 472.5 320.71 474.32 322.15C477.9 324.86 481.85 328.46 481.85 328.97C481.85 329.48 479.21 332.18 478.64 332.18C473.993 329.607 469.447 326.85 465 323.91ZM556.54 328.27C554.342 327.379 552.461 325.85 551.14 323.88L550.14 322.27L550.83 320.71C551.75 318.53 552.58 317.71 556.13 315.41C557.83 314.26 559.78 312.88 560.45 312.33C564.1 309.12 587.52 299.52 591.63 299.52C593.93 299.52 594.63 299.98 595.63 302.39C596.026 303.361 596.525 304.286 597.12 305.15C598.27 306.44 595.74 307.79 589.29 309.26C585.85 310.04 577.76 313.26 570.51 316.79L564.59 319.66L561.19 324.28C559.35 326.81 557.75 328.9 557.75 328.9L556.44 328.33L556.54 328.27ZM608.2 525.94C610.89 523.58 622.25 518.27 628.82 516.34C631.21 515.65 632.75 509.34 632.75 499.81V494.44L630.64 490.05C628.41 485.43 625.98 481.37 625.57 481.53C625.43 481.53 620.91 487.29 615.57 494.3L605.74 507L605.97 512.72L606.2 522.91C606.2 528.08 606.06 527.91 608.27 525.99L608.2 525.94ZM645.83 484.63L653.73 481.63L656.3 477.75C665.3 464.16 668.06 457.06 668.45 446.09L668.68 439.02L663.44 430.73C654.58 416.79 648.84 407.36 646.86 403.48C646.518 402.64 646.038 401.862 645.44 401.18C644.02 400.26 639.81 403.94 634.92 410.39C631.48 415.01 629.73 416.22 619.44 421.39C605.85 428.16 599.33 429.22 589.78 426.28C585.607 424.907 581.383 423.713 577.11 422.7C576.11 422.7 580.16 427.43 583.86 430.7C586.75 433.23 588.93 434.4 591.8 434.86C596.19 435.55 604.36 440.16 616.92 448.91C623.92 453.82 622.92 451.96 623.6 461.54L624.22 469.6L626.06 471.39C628.36 473.64 630.97 477.15 634.81 483.1C636.42 485.67 637.81 487.81 637.81 487.81L645.81 484.73L645.83 484.63ZM606.39 413C616.63 409.23 622.55 397.73 618.49 389.51C614.04 380.51 603.93 373.39 595.58 373.39C585.82 373.39 573.1 384.46 573.1 392.98C573.1 393.16 574.43 392.11 576.02 390.59C583.57 383.45 591.91 382.65 600.13 388.18C608.97 394.1 610.9 405.86 604.13 412.61C602.34 414.45 602.59 414.45 606.43 413.07L606.39 413ZM429.5 409.35C428.671 406.394 428.467 403.299 428.9 400.26C432.23 382.4 453.9 377.18 463.57 391.9L465.04 394.2L464.83 391.2C463.25 368.91 439.71 362.87 425.2 381.03C417.03 391.29 418.33 406.98 427.61 410.28C429.97 411.11 430.07 411.06 429.45 409.28L429.5 409.35ZM632.93 397.25C638.93 387.17 638.12 373.07 630.93 362.12C621.26 347.38 606.04 342.81 589.46 349.68C576.63 354.98 571.64 361.55 570.52 374.5C570.01 380.26 570.24 380.95 571.85 378.5C577.31 370.37 586.64 365.94 596.97 366.5C613.32 367.37 625.44 378.88 628.77 396.72L629.55 400.92L629.73 401.84L630.65 400.69C631.486 399.556 632.254 398.374 632.95 397.15L632.93 397.25ZM600.07 399.32C600.361 399.033 600.592 398.692 600.75 398.315C600.908 397.938 600.989 397.534 600.989 397.125C600.989 396.716 600.908 396.312 600.75 395.935C600.592 395.558 600.361 395.217 600.07 394.93C599.786 394.634 599.444 394.4 599.065 394.242C598.687 394.084 598.28 394.005 597.87 394.01C597.454 393.997 597.041 394.072 596.656 394.231C596.272 394.389 595.926 394.628 595.64 394.93C595.354 395.219 595.129 395.562 594.979 395.941C594.829 396.319 594.758 396.723 594.77 397.13C594.761 397.754 594.939 398.366 595.281 398.887C595.622 399.409 596.111 399.817 596.686 400.059C597.261 400.301 597.895 400.365 598.507 400.244C599.119 400.123 599.68 399.822 600.12 399.38V399.31L600.07 399.32ZM411.38 394.52C414.55 376.77 428.19 364.92 445.38 364.92C456.52 364.92 464.62 371.21 469.33 383.5C470.57 386.71 470.71 386.78 471.33 384.3C472.94 378.01 471.1 364.83 467.59 357.92C461.59 346.03 443.89 340.03 427.39 344.35C417.86 346.78 406.73 359.04 404.5 369.54C402.2 380.29 403.63 389.03 408.89 396.33C410.66 398.81 410.66 398.81 411.42 394.49L411.38 394.52ZM455.65 394.52C455.946 394.236 456.18 393.894 456.338 393.515C456.496 393.137 456.575 392.73 456.57 392.32C456.583 391.904 456.508 391.491 456.349 391.106C456.191 390.722 455.952 390.375 455.65 390.09C455.375 389.782 455.035 389.538 454.655 389.375C454.275 389.213 453.863 389.136 453.45 389.15C453.039 389.136 452.629 389.211 452.25 389.37C451.87 389.529 451.529 389.767 451.25 390.07C450.945 390.353 450.705 390.7 450.546 391.084C450.387 391.469 450.314 391.884 450.33 392.3C450.331 392.917 450.514 393.521 450.858 394.034C451.201 394.547 451.689 394.946 452.26 395.182C452.83 395.417 453.458 395.478 454.063 395.357C454.669 395.235 455.224 394.937 455.66 394.5L455.65 394.52Z" fill="white"/>
</g>
<defs>
<clipPath id="clip0_2_3075">
<rect width="1024" height="1024" fill="white"/>
</clipPath>
</defs>
</svg>
