<svg width="1024" height="1024" viewBox="0 0 1024 1024" fill="none" xmlns="http://www.w3.org/2000/svg">
<g clip-path="url(#clip0_2_3081)">
<path d="M512 1024C794.77 1024 1024 794.77 1024 512C1024 229.23 794.77 0 512 0C229.23 0 0 229.23 0 512C0 794.77 229.23 1024 512 1024Z" fill="#FF837D"/>
<path d="M592.93 310.51L512.42 391L552.42 431.06L350.58 633L431.09 713.51L511.6 633L471.6 593L673.44 391L592.93 310.51ZM230 512.4L431.89 310.51L512.41 391L310.51 592.91L230 512.4ZM511.59 633L713.49 431.09L794 511.6L592.11 713.49L511.59 633Z" fill="white"/>
</g>
<defs>
<clipPath id="clip0_2_3081">
<rect width="1024" height="1024" fill="white"/>
</clipPath>
</defs>
</svg>
