<svg width="1024" height="1024" fill="none" xmlns="http://www.w3.org/2000/svg"><g clip-path="url(#a)"><path d="M512 1024c282.77 0 512-229.23 512-512S794.77 0 512 0 0 229.23 0 512s229.23 512 512 512Z" fill="#FF837D"/><path d="M592.93 310.51 512.42 391l40 40.06L350.58 633l80.51 80.51L511.6 633l-40-40 201.84-202-80.51-80.49ZM230 512.4l201.89-201.89L512.41 391l-201.9 201.91L230 512.4ZM511.59 633l201.9-201.91L794 511.6 592.11 713.49 511.59 633Z" fill="#fff"/></g><defs><clipPath id="a"><path fill="#fff" d="M0 0h1024v1024H0z"/></clipPath></defs></svg>