<svg width="1024" height="1024" viewBox="0 0 1024 1024" fill="none" xmlns="http://www.w3.org/2000/svg">
<g clip-path="url(#clip0_2_3087)">
<path d="M512 1024C794.77 1024 1024 794.77 1024 512C1024 229.23 794.77 0 512 0C229.23 0 0 229.23 0 512C0 794.77 229.23 1024 512 1024Z" fill="#8C72BD"/>
<path d="M604.79 306.56L628.26 278.4C632.81 272.97 632.07 264.91 626.65 260.36L626.06 259.92C620.63 255.37 612.57 256.11 608.02 261.53L584.55 289.69C580 295.12 580.74 303.18 586.16 307.73L586.75 308.17C592.18 312.72 600.24 311.98 604.79 306.56ZM534.98 274.29L533.37 236.3C533.08 229.55 527.36 224.27 520.61 224.57H519.73C512.98 224.86 507.7 230.58 508 237.33L509.61 275.32C509.9 282.07 515.62 287.35 522.37 287.05H523.25C530 286.9 535.28 281.18 534.98 274.29ZM628.26 382.38L661.7 379.74C668.74 379.15 674.02 372.99 673.43 365.95L673.28 364.78C672.69 357.74 666.53 352.46 659.49 353.05L626.05 355.69C619.01 356.28 613.73 362.44 614.32 369.48L614.47 370.65C615.06 377.69 621.22 382.97 628.26 382.38ZM560.35 751.83C555.22 748.31 550.23 744.79 545.39 740.83C541.14 737.75 537.03 733.5 533.22 730.12C532.78 729.68 532.19 729.53 531.61 729.53C525.3 729.24 519 729.53 512.69 729.24C497.14 728.95 481.45 729.83 465.76 728.95C464.44 728.8 463.27 727.78 463.27 726.46C462.39 700.06 463.27 673.51 462.83 647.11C462.83 645.2 462.1 643.44 460.78 641.98C454.62 634.65 447.73 627.17 442.45 618.81C441.13 616.61 437.61 617.64 437.61 620.28C437.61 623.07 437.61 625.12 437.76 628.35V726.47C437.76 727.94 436.59 729.11 435.12 729.11C427.93 729.11 421.19 729.11 413.71 728.82C412.24 728.82 411.22 727.65 411.22 726.18C411.66 662.82 410.93 599.31 411.51 536.1C411.51 534.63 412.68 533.46 414.15 533.46C421.04 533.46 428.52 533.46 435.42 533.61C436.89 533.61 437.91 534.78 437.91 536.25C437.91 540.65 438.06 544.02 438.06 547.4C438.06 550.04 441.58 551.07 442.9 548.72C445.83 543.88 448.77 539.04 452.87 535.08C459.47 529.21 466.36 523.35 474.87 520.41C481.62 518.06 488.66 516.6 495.7 516.01C497.17 515.86 498.34 514.54 498.05 513.08C497.17 506.92 496.14 500.61 494.97 494.45C494.38 491.96 493.94 489.32 492.33 487.41C492.162 487.228 491.962 487.079 491.74 486.97C488.51 484.77 484.7 483.45 481.03 482.28C479.86 481.99 479.12 480.81 479.12 479.64C479.41 470.25 486.31 461.89 486.01 452.36V452.07C484.25 438.28 480.44 424.94 478.53 411.3V411.15C476.62 399.56 473.98 389 472.66 377.56C471.19 364.8 469.14 352.04 467.82 339.28C466.94 328.57 464.89 317.87 460.19 308.19C452.71 294.11 438.92 282.82 422.94 280.32C411.35 277.53 399.18 280.91 388.91 286.48C376.3 294.55 366.91 308.04 363.39 323C361.92 329.31 362.36 335.91 362.22 342.36C362.22 344.12 360.46 345.44 358.7 344.85C349.17 341.62 339.78 337.81 330.39 334.14C330.29 334.14 330.193 334.09 330.1 333.99C320.42 328.86 308.98 327.24 298.27 329.59C288.74 332.08 280.82 338.98 275.54 347.19C275.54 347.34 275.39 347.34 275.39 347.48C270.26 357.16 268.2 368.16 263.8 378.28C263.8 378.38 263.75 378.477 263.65 378.57C260.42 389.57 256.02 400.13 253.24 411.13C252.36 414.8 254.12 418.32 255.88 421.4C258.52 425.8 263.95 426.83 268.2 428.59C326.87 451.62 385.53 474.35 444.2 497.38C447.72 498.7 451.24 499.73 454.76 501.19C457.4 502.22 456.67 506.18 453.88 506.32H453.73C407.82 506.17 361.77 506.32 315.86 506.17C300.17 506.46 284.33 505.14 268.63 505.88C263.79 506.17 259.1 508.96 256.9 513.21C256.75 513.36 256.75 513.65 256.61 513.8C254.7 522.01 255.58 530.52 255.73 538.73C255.73 595.93 255.88 653.13 255.88 710.33C256.17 717.96 256.03 726.02 259.84 733.06C266.15 747.43 281.4 757.7 297.24 756.97C382.75 756.82 468.25 757.12 553.76 757.12C555.52 757.12 557.57 757.12 559.33 756.83C561.68 756.24 562.26 753.16 560.36 751.84L560.35 751.83ZM405.62 309.04C419.26 303.17 435.69 312.12 439.79 325.91C439.79 326.01 439.84 326.107 439.94 326.2C443.46 342.33 444.93 358.76 447.27 375.19C447.56 377.1 445.8 378.56 444.04 378.12C436.27 375.92 428.79 372.4 421.16 369.61C412.21 365.65 401.51 364.04 395.05 355.82C382.14 341.74 387.42 315.49 405.61 309.03L405.62 309.04ZM422.19 402.03C420.14 409.51 417.06 416.55 415 424.03C415 424.13 414.95 424.227 414.85 424.32C411.33 432.68 409.42 441.77 405.61 449.99C405.02 451.31 403.56 451.9 402.24 451.31C366.89 437.96 331.99 423.59 296.79 410.1C292.68 408.49 288.14 407.46 284.62 404.67C283.89 404.08 283.59 403.2 283.59 402.18C284.03 398.37 285.79 394.85 286.96 391.18C291.07 381.21 292.97 370.5 298.25 360.97C301.04 356.57 306.46 354.66 311.45 355.84C311.6 355.84 311.74 355.99 311.89 355.99C346.65 370.07 381.85 383.42 416.76 397.06C418.08 397.65 419.4 398.23 420.57 398.97C422.04 399.7 422.48 400.88 422.18 402.05L422.19 402.03ZM455.04 468.62C454.839 469.245 454.411 469.772 453.841 470.097C453.272 470.423 452.6 470.524 451.96 470.38C446.09 469.06 440.96 465.98 435.24 464.22C433.04 463.34 429.08 462.02 430.55 459.09C434.66 444.28 439.94 429.46 444.78 414.94C444.93 414.5 445.07 414.06 445.22 413.62C445.51 412.89 445.95 412.01 446.54 411.42C447.42 410.69 448.74 410.83 449.77 411.13L469.13 417.88C470.45 418.47 471.18 419.64 470.89 420.96C466.49 437.09 460.04 452.64 455.05 468.63L455.04 468.62ZM386.25 544.59V654.59C385.66 678.5 385.66 702.55 386.25 726.46C386.84 729.54 383.02 728.95 381.12 729.25H297.08C291.8 729.4 286.37 726.76 283.88 722.06C280.36 715.75 281.09 708.42 281.09 701.53V538.73C281.53 537.12 280.21 533.45 282.85 533.3C314.53 532.71 346.21 533.3 377.89 533.01C379.8 533.01 381.85 533.01 383.9 533.16C385.37 533.16 386.39 534.33 386.39 535.8C386.24 538.88 386.24 541.67 386.24 544.6L386.25 544.59ZM790.9 595.92C791.49 579.79 788.11 564.09 785.77 548.25C782.1 531.97 779.61 515.54 775.94 499.26C773.01 484.15 771.83 466.99 760.1 455.7C749.1 443.38 730.47 438.39 714.93 444.26C709.8 445.43 705.84 449.25 700.7 450.27C696.01 445.87 690.29 442.94 684.42 440.44C672.1 435.6 657.73 438.39 646.87 445.72C642.32 449.39 638.22 443.96 634.26 442.05C622.23 434.57 607.27 436.62 594.22 440.14C591.14 431.05 591.14 421.37 588.35 412.27C585.42 396.28 581.9 380.3 579.11 364.16C576.18 350.96 567.38 339.23 555.5 332.92C547.14 327.79 536.87 328.08 527.49 328.96C509.89 331.75 496.54 347.15 492.44 364.01C488.63 381.9 495.37 399.65 498.31 417.1C500.07 429.42 503.44 441.3 505.35 453.62C511.07 482.95 516.64 512.29 522.66 541.62C516.79 540.01 511.22 537.66 505.21 536.93C492.16 533.85 477.93 537.81 467.96 546.76C449.33 563.04 446.84 593.84 461.8 613.49C480.13 636.66 498.91 659.4 517.24 682.42C523.84 690.19 529.71 698.41 536.6 705.89C555.81 729.5 582.8 746.66 612.43 754C641.76 761.92 673.3 758.11 700.87 746.08C741.5 728.04 772.3 690.49 784.47 647.96C789.02 631.09 791.51 613.49 790.92 595.89L790.9 595.92ZM768.75 598.85C769.04 627.01 760.83 655.17 745.28 678.64C730.76 699.61 710.67 717.51 686.47 726.16C653.32 739.51 614.16 735.55 583.95 716.77C560.63 702.98 544.94 680.25 528.22 659.57C514.14 642.7 500.94 625.4 486.86 608.53C482.31 602.81 476.89 597.24 474.83 590.05C471.31 578.32 478.06 563.8 490.23 560.42C498 557.93 507.1 560.42 512.52 566.58C524.69 580.81 535.84 595.91 548.01 610.29C549.04 611.76 550.5 612.49 552.12 613.08C553 613.37 554.17 613.23 554.91 612.49C556.38 611.17 557.99 609.85 557.7 607.65C556.82 595.92 553.15 584.62 551.25 573.18C549.34 560.71 545.97 548.54 544.06 536.07C542.3 525.36 539.22 514.95 537.9 504.24C532.03 477.55 527.63 450.71 521.77 424.01C519.57 408.32 515.02 393.06 513.41 377.37C512.68 367.69 517.96 356.98 527.49 353.61C536.58 349.8 548.02 353.32 553.45 361.53C557.26 366.52 557.7 372.82 559.02 378.69C562.1 392.62 564.01 406.85 567.53 420.64C569.14 431.64 571.49 442.64 573.84 453.49C575.45 466.54 579.56 479.3 581.03 492.36C581.91 496.47 582.2 501.75 586.31 504.09C588.07 504.68 589.1 504.38 590.42 503.65C591.74 502.92 592.62 501.6 592.62 499.98C593.06 492.94 589.83 486.05 591.59 479.01C593.79 470.65 600.24 463.02 608.9 461.26C618.58 458.77 629.29 464.63 633.25 473.73C637.36 483.41 637.5 494.12 640.58 503.94C640.73 504.67 641.17 505.11 641.75 505.55C643.66 506.87 646.15 507.16 648.06 505.99C648.94 505.4 649.53 504.82 649.67 503.64C650.7 497.63 648.2 491.76 648.35 485.6C648.06 474.01 657.44 462.72 669.18 461.84C679.3 461.25 689.27 468.44 691.91 478.27C694.26 487.51 695.14 497.34 698.36 506.28C699.83 509.07 703.2 508.33 705.69 507.01C706.42 506.57 707.01 505.84 707.01 505.1C707.6 501.58 706.57 498.35 706.13 494.54C705.25 485.89 707.6 477.09 713.61 471.07C719.48 466.08 728.13 463.3 735.46 466.52C743.97 469.75 749.25 478.11 750.71 486.91C752.91 501.14 756.58 515.07 758.78 529.3C763.47 552.47 769.19 575.35 768.75 598.82V598.85Z" fill="white"/>
</g>
<defs>
<clipPath id="clip0_2_3087">
<rect width="1024" height="1024" fill="white"/>
</clipPath>
</defs>
</svg>
