<svg width="1024" height="1024" fill="none" xmlns="http://www.w3.org/2000/svg"><g clip-path="url(#a)"><path d="M512 1024c282.77 0 512-229.23 512-512S794.77 0 512 0 0 229.23 0 512s229.23 512 512 512Z" fill="#728DBE"/><path d="M674.56 310.22h-97.07c-9.75-26.94-35.3-46.44-65.49-46.44-30.19 0-55.73 19.51-65.49 46.44h-97.07a46.45 46.45 0 0 0-32.842 13.606A46.442 46.442 0 0 0 303 356.67v325.11a46.438 46.438 0 0 0 46.44 46.44h325.12A46.438 46.438 0 0 0 721 681.78V356.67a46.44 46.44 0 0 0-46.44-46.44m-162.56 0a23.22 23.22 0 1 1-23.22 23.22 23.213 23.213 0 0 1 6.797-16.425A23.226 23.226 0 0 1 512 310.22" fill="#fff"/></g><defs><clipPath id="a"><path fill="#fff" d="M0 0h1024v1024H0z"/></clipPath></defs></svg>