<svg width="1024" height="1024" fill="none" xmlns="http://www.w3.org/2000/svg"><g clip-path="url(#a)"><path d="M512 1024c282.77 0 512-229.23 512-512S794.77 0 512 0 0 229.23 0 512s229.23 512 512 512Z" fill="#FF837D"/><path d="m660.75 708.03-145.99 62.76-103.77-41.38V613.8l15.84 36.85 86.8 34.61 85.85-36.9.25-.64 110.61-64.05-49.58 124.36h-.01ZM306.29 570.35l105.86-61.31-22.23 55.77.83 1.93v154.6l-23.59-9.41-60.87-141.59v.01Zm55.19-147.56 118.21 31.51-55.15 23.71-.25.63-110.61 64.05 47.81-119.91-.01.01Zm147.74-180.25 144.11 166.62-32.45 121.71-23.71-55.15-.19-.08-101.99-216.07 14.24-17.03h-.01Zm124.86 319.02-.28-.63 32.93-123.5 50.98 118.59-105.87 61.31 22.23-55.77h.01ZM510.68 463l71.22 28.4 30.28 70.45-28.4 71.23-70.45 30.29-71.23-28.4-30.28-70.45 28.4-71.23 70.46-30.28V463Zm-.29-21.9-.63.28-136.4-36.37L480.7 276.66l88.73 187.99-59.04-23.55Zm162.78-39.95-164.2-189.84-162.35 194.14-64.12 160.78 69.38 161.39 163.17 65.06 161.39-69.37 65.06-163.17-68.34-158.98.01-.01Z" fill="#fff"/></g><defs><clipPath id="a"><path fill="#fff" d="M0 0h1024v1024H0z"/></clipPath></defs></svg>