<svg width="1024" height="1024" fill="none" xmlns="http://www.w3.org/2000/svg"><g clip-path="url(#a)"><path d="M512 1024c282.77 0 512-229.23 512-512S794.77 0 512 0 0 229.23 0 512s229.23 512 512 512Z" fill="#728DBE"/><path d="m445.13 533.84 25-158.76a15.252 15.252 0 0 1 15.07-12.88H618c24.15 0 46.2 5.63 65 15.47C727.55 401 753.64 448.2 745.52 500a149.871 149.871 0 0 1-148 126.87h-46.85a15.25 15.25 0 0 0-15.06 12.88l-21 133a15.236 15.236 0 0 1-5.128 9.202 15.236 15.236 0 0 1-9.872 3.678h-79.72a12.4 12.4 0 0 1-12.26-14.32m47.17-398.69a30.622 30.622 0 0 1 30.39-26H618a157.615 157.615 0 0 1 64 13.27c-7.8-58.23-59.36-103.63-127.95-103.63H394.72a15.25 15.25 0 0 0-15.06 12.88l-62.49 396.34a12.381 12.381 0 0 0 12.23 14.33h77" fill="#fff"/></g><defs><clipPath id="a"><path fill="#fff" d="M0 0h1024v1024H0z"/></clipPath></defs></svg>