<svg width="1024" height="1024" fill="none" xmlns="http://www.w3.org/2000/svg"><g clip-path="url(#a)"><path d="M512 1024c282.77 0 512-229.23 512-512S794.77 0 512 0 0 229.23 0 512s229.23 512 512 512Z" fill="#96DFD3"/><path d="M550.35 470.76a16.571 16.571 0 0 1-16.56 16.57h-41.57V454.2h41.56a16.559 16.559 0 0 1 16.57 16.56Zm92.14 17.67a132.002 132.002 0 0 1-261.464 25.752A132 132 0 0 1 510.49 356.43a132.004 132.004 0 0 1 93.332 38.665 132.004 132.004 0 0 1 38.658 93.335h.01Zm-52.81-17.69a56 56 0 0 0-56.06-56h-62.5A21.28 21.28 0 0 0 449.83 436v115.42a21.279 21.279 0 1 0 42.56 0v-24.56h41.22v-.08a56.05 56.05 0 0 0 56.06-56.04h.01ZM805.06 583.1a94.06 94.06 0 0 1-92.18 94v.16H358.36a139.36 139.36 0 0 1-17.51-277.62 187.316 187.316 0 0 0-17.08 78c0 1.52.14 3 .18 4.53 3.58-100.84 86.4-181.49 188.1-181.49 102 0 185 81.11 188.11 182.33.07-1.79.16-3.57.16-5.37a185.39 185.39 0 0 0-16.94-77.76 78.531 78.531 0 0 1 82.271 108.398 78.533 78.533 0 0 1-36.571 39.402 79.173 79.173 0 0 0 40.82-37.94 93.918 93.918 0 0 1 35.16 73.36Zm-143-94.45a151.531 151.531 0 0 0-258.696-107.12 151.527 151.527 0 0 0-32.817 165.148A151.528 151.528 0 0 0 510.57 640.19a151.517 151.517 0 0 0 139.989-93.543 151.522 151.522 0 0 0 11.531-57.987l-.03-.01Z" fill="#fff"/></g><defs><clipPath id="a"><path fill="#fff" d="M0 0h1024v1024H0z"/></clipPath></defs></svg>