<svg width="1024" height="1024" fill="none" xmlns="http://www.w3.org/2000/svg"><g clip-path="url(#a)"><path d="M512 1024c282.77 0 512-229.23 512-512S794.77 0 512 0 0 229.23 0 512s229.23 512 512 512Z" fill="#98DC9A"/><path d="M475.24 254.68a82 82 0 0 1 46.92-8 84.168 84.168 0 0 1 32.27 11c64.46 37.233 128.923 74.457 193.39 111.67-.047 74.507-.047 149.01 0 223.51.87 24.23-10.23 48.44-28.71 64a90.226 90.226 0 0 1-15.77 10.71c-28.07 16.29-56.28 32.32-84.35 48.59-35.7 20.55-71.27 41.35-107 61.82-22.39-13-44.87-25.82-67.2-38.9.07-34.13 0-68.26.05-102.39 22.48 12.74 44.79 25.8 67.17 38.71a78571.039 78571.039 0 0 1 147.07-84.84V420.63c-49.12-28.22-98.09-56.71-147.23-84.91a59960.347 59960.347 0 0 1-147 85v272.21a13050.661 13050.661 0 0 1-34.25-19.77c-7.75-4.67-16-8.63-23.07-14.3a82.137 82.137 0 0 1-29.61-47.94c-1.5-6.86-1.72-13.91-1.74-20.91v-46.89c.3-12.26.08-24.53.15-36.79V369.4c47.773-27.56 95.54-55.133 143.3-82.72 11.46-6.89 23.13-13.44 34.69-20.17 6.94-3.94 13.77-8.19 20.92-11.83ZM444.5 466.62c22.5-13.02 45.01-26.02 67.53-39 22.48 13 44.963 26 67.45 39v78a30519.878 30519.878 0 0 1-67.46 38.94c-22.494-13.007-45-26.007-67.52-39-.007-25.98-.007-51.96 0-77.94Z" fill="#fff"/></g><defs><clipPath id="a"><path fill="#fff" d="M0 0h1024v1024H0z"/></clipPath></defs></svg>