<svg width="1024" height="1024" viewBox="0 0 1024 1024" fill="none" xmlns="http://www.w3.org/2000/svg">
<g clip-path="url(#clip0_2_3108)">
<path d="M512 1024C794.77 1024 1024 794.77 1024 512C1024 229.23 794.77 0 512 0C229.23 0 0 229.23 0 512C0 794.77 229.23 1024 512 1024Z" fill="#98DC9A"/>
<path d="M475.24 254.68C489.745 247.433 506.073 244.649 522.16 246.68C533.554 248.107 544.536 251.85 554.43 257.68C618.89 294.913 683.353 332.137 747.82 369.35C747.773 443.857 747.773 518.36 747.82 592.86C748.69 617.09 737.59 641.3 719.11 656.86C714.246 660.977 708.96 664.567 703.34 667.57C675.27 683.86 647.06 699.89 618.99 716.16C583.29 736.71 547.72 757.51 511.99 777.98C489.6 764.98 467.12 752.16 444.79 739.08C444.86 704.95 444.79 670.82 444.84 636.69C467.32 649.43 489.63 662.49 512.01 675.4C561.003 647.067 610.026 618.787 659.08 590.56V420.63C609.96 392.41 560.99 363.92 511.85 335.72C462.883 364.127 413.883 392.46 364.85 420.72V692.93C353.423 686.357 342.006 679.767 330.6 673.16C322.85 668.49 314.6 664.53 307.53 658.86C292.316 646.871 281.828 629.891 277.92 610.92C276.42 604.06 276.2 597.01 276.18 590.01V543.12C276.48 530.86 276.26 518.59 276.33 506.33V369.4C324.103 341.84 371.87 314.267 419.63 286.68C431.09 279.79 442.76 273.24 454.32 266.51C461.26 262.57 468.09 258.32 475.24 254.68ZM444.5 466.62C467 453.6 489.51 440.6 512.03 427.62C534.51 440.62 556.993 453.62 579.48 466.62V544.62C557.013 557.627 534.526 570.607 512.02 583.56C489.526 570.553 467.02 557.553 444.5 544.56C444.493 518.58 444.493 492.6 444.5 466.62Z" fill="white"/>
</g>
<defs>
<clipPath id="clip0_2_3108">
<rect width="1024" height="1024" fill="white"/>
</clipPath>
</defs>
</svg>
