<svg width="1024" height="1024" fill="none" xmlns="http://www.w3.org/2000/svg"><g clip-path="url(#a)"><path d="M512 1024c282.77 0 512-229.23 512-512S794.77 0 512 0 0 229.23 0 512s229.23 512 512 512Z" fill="#96DFD3"/><path d="M520.46 247.54c4.973 0 9.91.137 14.81.41v123.31a141.29 141.29 0 0 0-16.93-1 139.639 139.639 0 0 0-139.61 137.32V735.3A264.271 264.271 0 0 1 256 512c0-146.06 118.4-264.46 264.46-264.46Zm-2.12 169.26a93.756 93.756 0 0 1 15.28 1.2l1.65.29v93.12a139.004 139.004 0 0 0 26.73 80.7 93.111 93.111 0 0 1-115.02-22.375 93.106 93.106 0 0 1-2.033-117.158A93.098 93.098 0 0 1 518.31 416.8h.03ZM425.25 614a139.67 139.67 0 0 0 171.37 11.57 139.689 139.689 0 0 0 165.94-6.95c-41 93-134 157.88-242.11 157.88a263.827 263.827 0 0 1-95.21-17.65l.01-144.85Zm249.66-197.21a93.095 93.095 0 0 1 73.328 35.789 93.104 93.104 0 0 1 17.692 37.948 93.104 93.104 0 0 1-.729 41.864 93.102 93.102 0 0 1-52.434 62.518 93.086 93.086 0 0 1-81.547-2.809 139.677 139.677 0 0 0 0-164.44 92.684 92.684 0 0 1 43.69-10.87Zm-78.28 42.69a93.164 93.164 0 0 1 0 100.8 93.167 93.167 0 0 1-.77-99.58l.77-1.22Zm-14.81-204.79a265.003 265.003 0 0 1 177.73 144.12 139.7 139.7 0 0 0-162.92-4.57 139.59 139.59 0 0 0-12.9-7.77l-1.91-1V254.69Z" fill="#fff"/></g><defs><clipPath id="a"><path fill="#fff" d="M0 0h1024v1024H0z"/></clipPath></defs></svg>