<svg width="1024" height="1024" viewBox="0 0 1024 1024" fill="none" xmlns="http://www.w3.org/2000/svg">
<g clip-path="url(#clip0_2_3126)">
<path d="M512 1024C794.77 1024 1024 794.77 1024 512C1024 229.23 794.77 0 512 0C229.23 0 0 229.23 0 512C0 794.77 229.23 1024 512 1024Z" fill="#728DBE"/>
<path d="M233.17 546.38H217.89V569.3H187.33V454.7C194.73 454.88 220.99 454.7 233.16 454.7C269 454.7 286.64 469.7 286.64 500.54C286.65 528.61 265.66 546.38 233.17 546.38ZM225.54 477.63C223.74 477.63 219.93 477.51 217.89 477.63V523.46H225.54C243.69 523.46 256.1 514.8 256.1 500.54C256.09 486.73 242.73 477.62 225.54 477.62V477.63ZM370.67 569.3V523.46H332.47V569.3H301.91V454.7H332.47V500.54H370.67V454.7H401.23V569.3H370.67ZM431.78 569.3V454.7H462.34V569.3H431.78ZM554.01 569.3H492.91V454.7H523.47V546.38H561.66L554.01 569.3ZM576.92 569.3V454.7H607.48V569.3H576.92ZM683.87 546.37H668.6V569.3H638V454.7C645.4 454.88 671.67 454.7 683.83 454.7C719.67 454.7 737.3 469.7 737.3 500.54C737.35 528.61 716.37 546.38 683.88 546.38L683.87 546.37ZM676.23 477.62C674.44 477.62 670.62 477.5 668.59 477.62V523.45H676.23C694.38 523.45 706.79 514.79 706.79 500.53C706.79 486.73 693.45 477.62 676.24 477.62H676.23ZM781.7 485.08C781.7 502.56 836.7 495.67 836.7 532.47C836.7 560.08 812.8 569.28 783.7 569.28C772.24 569.28 757.9 567.45 747.38 563.76L743.55 538.45C754.07 543.51 771.75 547.2 783.21 547.2C796.12 547.2 801.38 543.5 801.38 536.6C801.38 518.66 746.9 526.47 746.9 487.83C746.9 465.4 766.03 454.7 794.21 454.7C804.964 454.554 815.7 455.635 826.21 457.92L829 481.86C820.86 478.64 808.92 476.35 797.93 476.35C787.94 476.35 781.71 479.1 781.71 485.08H781.7Z" fill="white"/>
</g>
<defs>
<clipPath id="clip0_2_3126">
<rect width="1024" height="1024" fill="white"/>
</clipPath>
</defs>
</svg>
