<svg width="1024" height="1024" fill="none" xmlns="http://www.w3.org/2000/svg"><g clip-path="url(#a)"><path d="M512 1024c282.77 0 512-229.23 512-512S794.77 0 512 0 0 229.23 0 512s229.23 512 512 512Z" fill="#F8C18C"/><path d="M767 436.61c0-78.503-63.64-142.14-142.14-142.14H338.84l45.03 83.136c19.692 36.357 57.718 59.006 99.066 59.006m284.07 0c0 78.504-63.64 142.14-142.14 142.14l-93.846-.015-47.703 88.107c-20.924 38.633-61.33 62.698-105.27 62.696l-121.04-.012 126.86-233.91c19.692-36.357 57.718-59.007 99.066-59.007" fill="#fff"/></g><defs><clipPath id="a"><path fill="#fff" d="M0 0h1024v1024H0z"/></clipPath></defs></svg>