<svg width="1024" height="1024" fill="none" xmlns="http://www.w3.org/2000/svg"><g clip-path="url(#a)"><path d="M512 1024c282.77 0 512-229.23 512-512S794.77 0 512 0 0 229.23 0 512s229.23 512 512 512Z" fill="#8C72BD"/><path d="M313.18 255.06c-77.902 41.74-85.844 189.7 43.204 189.7-.04.073-.09.144-.13.214h203.08a98.385 98.385 0 0 1 97.76 98.385 98.387 98.387 0 0 1-97.76 98.385h-87.76a34.357 34.357 0 0 0-34.324 34.323v62.467a219.035 219.035 0 0 0 267.323-34.881 219.023 219.023 0 0 0 61.808-176.867 219.039 219.039 0 0 0-97.56-159.952 219.032 219.032 0 0 0-89.851-33.84 178.917 178.917 0 0 0-30.398-2.15c-153.95.013-283.81 34.983-235.4-75.785l.008.001Zm-56.573 215.38s-8.504 124.13 77.689 124.25a218.069 218.069 0 0 0 38.896 86.466v-5.078a98.497 98.497 0 0 1 98.384-98.384h87.761a34.328 34.328 0 0 0 0-68.653h-226.21c-62.769 0-76.523-38.598-76.523-38.598l.003-.003Z" fill="#fff"/></g><defs><clipPath id="a"><path fill="#fff" d="M0 0h1024v1024H0z"/></clipPath></defs></svg>