<svg width="1024" height="1024" fill="none" xmlns="http://www.w3.org/2000/svg"><g clip-path="url(#a)"><path d="M512 1024c282.77 0 512-229.23 512-512S794.77 0 512 0 0 229.23 0 512s229.23 512 512 512Z" fill="#FF837D"/><path d="M512 768c-141.38 0-256-114.62-256-256s114.62-256 256-256 256 114.62 256 256-114.62 256-256 256Zm-20.32-200.11h47c44.24 0 80.1-34.91 80.1-78s-35.86-78-80.1-78h-67.82c-25.52 0-46.21 20.14-46.21 45V632l67.03-64.11Z" fill="#fff"/></g><defs><clipPath id="a"><path fill="#fff" d="M0 0h1024v1024H0z"/></clipPath></defs></svg>