<svg width="1024" height="1024" fill="none" xmlns="http://www.w3.org/2000/svg"><g clip-path="url(#a)"><path d="M512 1024c282.77 0 512-229.23 512-512S794.77 0 512 0 0 229.23 0 512s229.23 512 512 512Z" fill="#728DBE"/><path d="M510.93 250.26c-14.18 0-28.57 2.12-42.95 6.35l-155.74 47.4c-35.55 11.85-59.25 44.01-59.25 81.25v253.92c0 37.24 23.7 69.4 59.25 81.25l157.43 47.4c27.08 8.46 55.86 8.46 84.64 0l157.43-47.4c35.55-11.85 59.25-44.01 59.25-81.25V385.26c-1.69-37.24-27.08-69.4-60.94-81.25l-157.43-47.4a139.308 139.308 0 0 0-41.68-6.35h-.01Zm102.93 150.3c15.7-.26 30.17 13.26 30.17 30.4v130.35c0 10.16-6.77 18.62-15.23 22.01l-104.95 32.16c-8.46 3.39-18.62 3.39-27.09 0l-67.71-20.31s-1.69 0-1.69 1.69v50.78c0 5.08-5.08 8.46-10.16 6.77l-35.55-10.16c-3.38-1.69-5.08-5.08-5.08-8.46V429.27c0-18.62 18.62-32.16 37.24-27.08l91.41 27.08c3.39 1.69 6.77 0 8.46 0l91.41-27.08c2.81-1.03 5.77-1.58 8.77-1.63Zm-179.74 55.8c-1.69 0-5.08 1.69-5.08 3.39v76.17c0 1.69 1.69 3.39 3.39 5.08l72.79 22c3.39 1.69 8.46 1.69 11.85 0l72.79-22.01c1.69 0 3.38-1.69 3.38-5.08v-74.48c0-1.69-1.69-3.39-5.08-3.39l-59.25 16.93c-11.85 3.39-23.7 3.39-35.55 0l-59.25-18.62.01.01Z" fill="#fff"/></g><defs><clipPath id="a"><path fill="#fff" d="M0 0h1024v1024H0z"/></clipPath></defs></svg>