<svg width="1024" height="1024" viewBox="0 0 1024 1024" fill="none" xmlns="http://www.w3.org/2000/svg">
<g clip-path="url(#clip0_2_3147)">
<path d="M512 1024C794.77 1024 1024 794.77 1024 512C1024 229.23 794.77 0 512 0C229.23 0 0 229.23 0 512C0 794.77 229.23 1024 512 1024Z" fill="#56595B"/>
<path d="M256 512C256 370.62 370.62 256 512 256C616 256 705.44 318 745.53 407L407 745.53C392.547 739.017 378.73 731.173 365.73 722.1L575.8 512H512L331 693C307.192 669.258 288.31 641.046 275.439 609.984C262.568 578.922 255.962 545.623 256 512ZM768 512.09L512.09 768C653.4 768 768 653.4 768 512.09Z" fill="white"/>
</g>
<defs>
<clipPath id="clip0_2_3147">
<rect width="1024" height="1024" fill="white"/>
</clipPath>
</defs>
</svg>
