<svg width="1024" height="1024" fill="none" xmlns="http://www.w3.org/2000/svg"><g clip-path="url(#a)"><path d="M512 1024c282.77 0 512-229.23 512-512S794.77 0 512 0 0 229.23 0 512s229.23 512 512 512Z" fill="#56595B"/><path d="M256 512c0-141.38 114.62-256 256-256 104 0 193.44 62 233.53 151L407 745.53a255.588 255.588 0 0 1-41.27-23.43L575.8 512H512L331 693a255.21 255.21 0 0 1-75-181Zm512 .09L512.09 768C653.4 768 768 653.4 768 512.09Z" fill="#fff"/></g><defs><clipPath id="a"><path fill="#fff" d="M0 0h1024v1024H0z"/></clipPath></defs></svg>