<svg width="1024" height="1024" viewBox="0 0 1024 1024" fill="none" xmlns="http://www.w3.org/2000/svg">
<g clip-path="url(#clip0_2_3159)">
<path d="M512 1024C794.77 1024 1024 794.77 1024 512C1024 229.23 794.77 0 512 0C229.23 0 0 229.23 0 512C0 794.77 229.23 1024 512 1024Z" fill="#9ABEFF"/>
<path d="M242.37 595.7C221.31 609.7 228.37 636.42 273.26 649.06C320.271 664.714 370.409 668.57 419.26 660.29C422.07 660.29 424.88 658.89 426.26 658.89V611.14L378.52 626.59C360.27 632.21 342.01 633.59 323.76 629.4C309.76 625.19 312.53 616.76 329.38 609.74L426.32 576V524L291.52 570.34C273.938 576.234 257.363 584.787 242.37 595.7ZM568.14 385.07V521.28C625.71 549.36 670.65 521.28 670.65 448.28C670.65 373.86 643.97 340.16 566.74 313.48C526.02 299.48 483.89 286.8 441.74 278.38V684.16L540.03 713.65V372.43C540.03 356.98 540.03 345.75 551.26 349.96C566.74 354.18 568.14 369.62 568.14 385.07ZM750.69 563.4C709.97 549.4 666.44 543.74 624.31 547.95C601.84 549.35 580.78 554.95 561.12 561.95L556.91 563.35V618.11L648.18 584.41C666.43 578.79 684.69 577.41 702.94 581.6C716.94 585.81 714.17 594.24 697.32 601.26L556.9 653.26V706.62L750.69 635C764.69 629.38 777.37 622.36 788.6 611.13C798.43 597.1 794.22 577.44 750.69 563.4Z" fill="white"/>
</g>
<defs>
<clipPath id="clip0_2_3159">
<rect width="1024" height="1024" fill="white"/>
</clipPath>
</defs>
</svg>
