<svg width="1024" height="1024" fill="none" xmlns="http://www.w3.org/2000/svg"><g clip-path="url(#a)"><path d="M512 1024c282.77 0 512-229.23 512-512S794.77 0 512 0 0 229.23 0 512s229.23 512 512 512Z" fill="#BD9AFF"/><path d="M714.32 417.95c18 111.54-57.79 216.56-169.33 234.58V551.44a106.41 106.41 0 1 0-76.82-3.94V794S312.93 607.41 307 458.81v-8.27C307 337.59 398.59 246 511.54 246a204.57 204.57 0 0 1 202.78 171.95Z" fill="#fff"/></g><defs><clipPath id="a"><path fill="#fff" d="M0 0h1024v1024H0z"/></clipPath></defs></svg>