<svg width="1024" height="1024" viewBox="0 0 1024 1024" fill="none" xmlns="http://www.w3.org/2000/svg">
<g clip-path="url(#clip0_2_3156)">
<path d="M512 1024C794.77 1024 1024 794.77 1024 512C1024 229.23 794.77 0 512 0C229.23 0 0 229.23 0 512C0 794.77 229.23 1024 512 1024Z" fill="#BD9AFF"/>
<path d="M714.32 417.95C732.32 529.49 656.53 634.51 544.99 652.53V551.44C568.568 543.664 588.686 527.888 601.859 506.843C615.032 485.798 620.432 460.81 617.123 436.203C613.814 411.597 602.006 388.922 583.742 372.105C565.477 355.287 541.908 345.385 517.112 344.114C492.317 342.842 467.858 350.28 447.969 365.141C428.08 380.002 414.014 401.35 408.205 425.488C402.397 449.627 405.211 475.037 416.162 497.319C427.113 519.601 445.511 537.352 468.17 547.5V794C468.17 794 312.93 607.41 307 458.81V450.54C307 337.59 398.59 246 511.54 246C560.283 245.803 607.495 263.017 644.672 294.542C681.849 326.066 706.548 369.83 714.32 417.95Z" fill="white"/>
</g>
<defs>
<clipPath id="clip0_2_3156">
<rect width="1024" height="1024" fill="white"/>
</clipPath>
</defs>
</svg>
