<svg width="1024" height="1024" fill="none" xmlns="http://www.w3.org/2000/svg"><g clip-path="url(#a)"><path d="M512 1024c282.77 0 512-229.23 512-512S794.77 0 512 0 0 229.23 0 512s229.23 512 512 512Z" fill="#F8C18C"/><path d="M391.66 256H479v512H351.81V295.86A39.86 39.86 0 0 1 391.66 256Zm151.76 0v256h88.91a39.86 39.86 0 0 0 39.86-39.86V256H543.42Zm0 512h88.91a39.86 39.86 0 0 0 39.86-39.86v-87.37H543.43L543.42 768Z" fill="#fff"/></g><defs><clipPath id="a"><path fill="#fff" d="M0 0h1024v1024H0z"/></clipPath></defs></svg>