<svg width="1024" height="1024" viewBox="0 0 1024 1024" fill="none" xmlns="http://www.w3.org/2000/svg">
<g clip-path="url(#clip0_2_3165)">
<path d="M512 1024C794.77 1024 1024 794.77 1024 512C1024 229.23 794.77 0 512 0C229.23 0 0 229.23 0 512C0 794.77 229.23 1024 512 1024Z" fill="#F9DE81"/>
<path d="M297.83 418.56C272.59 418.56 256.11 425.93 242.09 443.1V424.17H193V657.67C194.077 658.115 195.196 658.45 196.34 658.67C199.98 659.45 217.91 663.59 231.34 652.12C242.94 642.19 245.61 630.7 245.61 617.48V583.7C259.61 598.77 275.76 605.09 298.2 605.09C346.58 605.09 383.75 565.82 383.75 513.58C383.75 457.84 347.99 418.58 297.85 418.58L297.83 418.56ZM288.27 561.14C261.27 561.14 239.69 538.78 239.69 511.4C239.69 484.02 264.96 463.2 288.27 463.2C315.65 463.2 336.85 484.41 336.85 511.78C336.85 539.15 315.64 561.15 288.27 561.15V561.14ZM453.53 508.51C453.53 528.73 455.77 553.26 475.7 580.08C476.09 580.6 477.18 581.91 477.18 581.91C469.12 595.74 458.97 605.05 445.67 605.05C435.18 605.05 424.93 599.5 416.4 589.82C407.28 579.48 402.92 565.98 402.92 551.92V364H453.54V508.52L453.53 508.51ZM702.84 599.51H641.95L701.05 511.9L641.95 424.22H702.84L761.93 511.9L702.84 599.51ZM778.18 501.97L831 424.19H769.87L747.6 456.59L778.18 501.97ZM747.61 567.51L758 581.92C768 597.59 780.81 605.03 796.09 605.09C811.94 604.81 823.22 590.76 827.36 585.84C821.12 580.107 815.27 573.963 809.85 567.45C796.66 551.78 778.85 523.32 778.21 522.1L747.65 567.5L747.61 567.51ZM596.44 549.08C586.26 558.47 579.31 563.91 564.84 563.91C539.19 563.91 524.84 546.01 522.71 526.03H657.71C658.786 522.21 659.261 518.246 659.12 514.28C659.12 459.59 619.12 418.56 566.56 418.56C514 418.56 475.4 460.28 475.4 512.56C475.4 564.84 516.4 605.12 567.61 605.12C603.35 605.12 634.21 584.67 651.18 549.12H596.44V549.08ZM566.93 460C589.29 460 606.02 474.75 609.87 494H524.37C529 473.57 544.57 460 566.93 460Z" fill="white"/>
</g>
<defs>
<clipPath id="clip0_2_3165">
<rect width="1024" height="1024" fill="white"/>
</clipPath>
</defs>
</svg>
