<svg width="1024" height="1024" fill="none" xmlns="http://www.w3.org/2000/svg"><g clip-path="url(#a)"><path d="M512 1024c282.77 0 512-229.23 512-512S794.77 0 512 0 0 229.23 0 512s229.23 512 512 512Z" fill="#FF837D"/><path d="M598.2 275.16c-130.59-47.53-275.51 20-323 150.64-47.49 130.64 20 275.51 150.63 323 130.63 47.49 275.52-20 323.05-150.64 47.53-130.64-20.05-275.51-150.64-323h-.04ZM512 789.5C359 789.5 234.5 665 234.5 512S359 234.5 512 234.5 789.5 359 789.5 512 665 789.5 512 789.5ZM689.41 512 441.06 368.61v64.27l-57.09-33v224.2l57.09-33v64.27L689.41 512ZM464.83 409.78 641.87 512l-177 102.22v-36.83L578.09 512l-113.26-65.4v-36.82Zm0 140.16v-75.89L530.54 512l-65.71 37.94Zm-57.09 33V441.09l33.32 19.24v103.34l-33.32 19.27Z" fill="#fff"/></g><defs><clipPath id="a"><path fill="#fff" d="M0 0h1024v1024H0z"/></clipPath></defs></svg>