<svg width="1024" height="1024" viewBox="0 0 1024 1024" fill="none" xmlns="http://www.w3.org/2000/svg">
<g clip-path="url(#clip0_2_3171)">
<path d="M512 1024C794.77 1024 1024 794.77 1024 512C1024 229.23 794.77 0 512 0C229.23 0 0 229.23 0 512C0 794.77 229.23 1024 512 1024Z" fill="#F8C18C"/>
<path d="M727 533.55C723 541.46 708.08 546.02 694.84 547.86C710.48 558.32 725.66 576.45 724.59 603.93C723.75 625.49 707.52 642.93 691.84 659.75C670.84 682.33 658.5 697.07 670.07 714.75L656.26 724C636.88 694.33 659.68 669.87 679.79 648.28C693.4 633.68 707.47 618.58 708.05 603.28C709.25 572.66 683.38 559.43 673.28 555.42C662.49 571.83 641.6 588.16 601.19 589.66V589.82C600.14 589.82 599.19 589.76 598.19 589.73C597.19 589.7 596.19 589.82 595.19 589.82V589.66C580.79 589.14 568.87 586.72 559.02 583.08C552.68 587.86 545.2 595.08 543.53 602.91C542.53 607.7 543.8 612.42 547.53 617.31C551.26 622.2 554.91 626.71 558.53 631.11C575.64 652.11 593.34 673.79 574.03 698.17C567.81 706.01 560.71 711 554.43 715.41C540.88 724.99 531.89 731.3 535.89 762.41L519.44 764.57C514.12 723.37 529.79 712.35 544.94 701.68C550.8 697.55 556.35 693.68 561.04 687.68C571.04 675.07 565.13 665.58 545.69 641.68C541.823 637.013 538.047 632.26 534.36 627.42C527.69 618.62 525.25 608.86 527.36 599.24C529.55 589.24 536.13 580.94 542.75 574.84C512.19 554.73 511.64 521.24 511.64 520.77H528.25C528.25 522.32 529.05 549.55 557.52 564.07L559.58 565.07C569.19 569.57 581.84 572.59 598.3 572.93C666.9 571.49 668.3 522.83 668.3 520.73H684.91C684.739 524.592 684.187 528.427 683.26 532.18C691.19 531.89 705.97 529.18 711.35 526.18C708.29 515.12 688.66 478.69 670.62 448.56L675.62 436.13L677.53 435.6C674.67 422.6 669.05 396.45 666.25 379.19C602.69 369.58 557 377 530.18 401.41C504.31 425.03 505.87 456.3 505.93 457.64L496.72 458.23L489.37 458.84C489 454.54 486.03 450.01 482.42 448.31C479.14 446.77 475.36 447.51 471.18 450.49C464.7 455.11 462.39 460.95 463.92 468.92C466.57 482.87 480.4 498.19 491.05 504.75C492.67 503.75 493.84 503.11 494.32 502.84L496.73 507.45C497.07 507.56 497.46 508.82 497.46 508.82L498.2 510.25L502.1 517.64C499.306 519.203 496.632 520.971 494.1 522.93C494.1 522.93 493.27 523.93 492.99 523.8C487.07 528.53 480.72 535.19 479.19 542.33C478.19 547.12 479.46 551.82 483.19 556.73C486.92 561.64 490.56 566.11 494.19 570.51C511.3 591.51 528.99 613.22 509.7 637.6C503.48 645.43 496.37 650.43 490.11 654.84C476.53 664.41 467.56 670.72 471.57 701.84L455.11 704C449.79 662.82 465.46 651.78 480.59 641.13C486.44 636.98 491.99 633.13 496.71 627.13C506.71 614.49 500.8 605.02 481.36 581.13C477.68 576.61 473.86 571.93 470.03 566.86C463.34 558.05 460.93 548.29 463.03 538.67C465.09 529.23 471.03 521.35 477.26 515.37C463.81 505.22 450.73 488.21 447.65 472.05C444.89 457.7 449.87 445.16 461.65 436.75C470.79 430.25 480.65 428.95 489.47 433.09C490.375 433.526 491.25 434.02 492.09 434.57C496.314 417.134 505.613 401.342 518.81 389.19C549.32 361.19 599.47 352.19 667.81 362.58C683.11 342.97 689.73 313.86 663.44 289.21C639.3 266.67 597.07 260 568.12 288L554.26 283.69C549.37 260.35 522.16 248.75 498.32 245.69C462.32 241.06 415.21 252.82 397.1 289.63C373.02 338.45 403.98 363.11 405.31 364.15L399.87 379.2C364.23 377.2 340.27 383.13 328.64 396.73C313.64 414.31 319.72 444.44 324.64 468.66C328.75 488.93 332.01 504.94 323.96 514.45C314.81 525.27 303.85 529.18 293.77 529.18C287.451 529.169 281.223 527.683 275.58 524.84C261.4 517.66 253.58 503.69 256.47 490.9L272.66 494.67C271.49 499.73 275.96 506.28 283.08 509.87C286.83 511.8 300 516.99 311.33 503.58C314.11 500.3 310.66 483.27 308.33 472.01C302.68 444.21 295.66 409.6 316.03 385.79C329.03 370.65 350.7 362.79 382.08 362.12C372.35 346.59 363.73 319.62 382.18 282.17C403.93 238.06 458.68 223.7 500.39 229.07C531.97 233.13 555.94 247.57 566.17 267.9C601.38 242.58 647.46 251.48 674.69 276.98C696.29 297.21 710.63 333.9 681.75 371.83C684.75 392.94 695.22 439.42 695.33 439.9L689.96 448.9C733 521.88 729 529.69 727 533.55ZM437.35 378C443.88 386.79 453.56 391.7 463.18 391.7C466.964 391.706 470.708 390.933 474.18 389.43C489.11 382.96 492.95 377.26 502.18 363.52C508.967 353.387 516.067 343.477 523.48 333.79C531.15 323.79 539.36 318.56 547.87 318.2C561.96 317.59 573.65 330.13 573.75 330.25L586.08 319C585.41 318.23 569.24 300.66 547.35 301.48C533.67 302.04 521.22 309.48 510.41 323.6C502.757 333.527 495.45 343.707 488.49 354.14C479.66 367.14 478.1 369.55 467.6 374.08C461.43 376.75 454.42 373.08 450.68 368.01C448.39 364.9 443.9 356.7 451.73 347.17L438.94 336.48C428.58 349 428 365.36 437.35 378ZM608.88 672.7C605.17 667.78 603.88 663.09 604.88 658.3C607.33 646.85 622.24 636.62 627.76 633.64L620 618.85C617.28 620.3 593.25 633.67 588.68 654.72C586.61 664.33 589.02 674.08 595.68 682.89C599.36 687.723 603.137 692.48 607.01 697.16C626.43 721.03 632.34 730.52 622.36 743.16C617.63 749.16 612.09 753.01 606.24 757.16C591.1 767.84 575.44 778.85 580.73 820.06L597.21 817.89C593.21 786.76 602.21 780.45 615.75 770.89C622.02 766.47 629.12 761.47 635.31 753.63C654.63 729.27 636.93 707.55 619.84 686.56C616.25 682.12 612.54 677.55 608.88 672.72V672.7ZM449.24 403.63C374.99 400.84 357.52 427.77 355.95 450.84C355.26 461.15 356.05 472.46 356.95 484.42C358.78 509.76 360.67 535.96 347.42 549.28C339.21 557.56 325.42 560.84 305.1 559.33L303.85 576C307.38 576.26 310.8 576.38 314.05 576.38C334.14 576.38 348.95 571.38 359.13 561.09C377.75 542.37 375.48 510.9 373.49 483.16C372.67 471.78 371.91 461.05 372.54 451.95C374.08 429.12 399.66 418.49 448.64 420.34L449.24 403.63ZM650.65 448.86L657.3 444.73L664.04 440.73C663.64 440.03 653.68 423.56 627.81 423.56C603.58 423.56 574.65 447.23 573.43 448.25L583.35 460.47C590.46 454.58 612.3 439.34 627.81 439.34C644.4 439.31 650.4 448.46 650.66 448.86H650.65ZM623.27 464.21C623.27 469.65 628.27 474.05 634.33 474.05C640.39 474.05 645.42 469.64 645.42 464.21C645.42 458.78 640.42 454.36 634.33 454.36C628.24 454.36 623.28 458.78 623.28 464.22L623.27 464.21Z" fill="white"/>
</g>
<defs>
<clipPath id="clip0_2_3171">
<rect width="1024" height="1024" fill="white"/>
</clipPath>
</defs>
</svg>
