<svg width="1024" height="1024" fill="none" xmlns="http://www.w3.org/2000/svg"><g clip-path="url(#a)"><path d="M512 1024c282.77 0 512-229.23 512-512S794.77 0 512 0 0 229.23 0 512s229.23 512 512 512Z" fill="#F8C18C"/><path d="M510.79 503a3.002 3.002 0 0 0-1.36 4 8.84 8.84 0 0 1-1.11 9.61 3 3 0 0 0 4.56 3.77 14.764 14.764 0 0 0 1.84-16 3 3 0 0 0-3.95-1.32l.02-.06Zm33.8-244.47c-140.23-17.95-268.5 81-286.48 221-17.98 140 81.07 268 221.3 286 140.23 18 268.51-81 286.48-220.94 17.97-139.94-81.07-268.11-221.3-286.09v.03Zm52.71 159.41a18.25 18.25 0 0 0-12.64 5.34l-95 94.81-20.25-20.23c93.59-93.2 110.46-94.1 127.89-79.92ZM493.54 521.47l94.72-94.58a13.184 13.184 0 0 1 9.614-4.12 13.184 13.184 0 0 1 9.59 4.174 13.21 13.21 0 0 1 2.786 4.556 13.205 13.205 0 0 1-.656 10.439 13.193 13.193 0 0 1-3.334 4.171L506.07 534l-12.53-12.53Zm7 14.76-23.47 5.05a1.31 1.31 0 0 1-1.21-2.21l13.75-13.74 10.93 10.9Zm-59.81-9.77 25-25 18.75 18.71-42.23 9.07a1.67 1.67 0 0 1-1.53-2.82l.01.04ZM363 655.54a1.624 1.624 0 0 1-1.388-1.064 1.614 1.614 0 0 1 .388-1.706l20.18-20.15 26.06 26-45.24-3.08Zm51.74-26.79a4.872 4.872 0 0 0-2.51 5.42l4.33 18.45a2.709 2.709 0 0 1-4.51 2.51L385.87 629l80.23-80.1 38.83-8.33 18.64 18.61c-26.8 23.41-63.41 46.83-108.82 69.57h-.01Zm112.58-73-17.9-17.86L609.68 450a18.322 18.322 0 0 0 2.52-2.71c-3.2 28.71-43.29 69.12-84.84 108.43l-.04.03Zm78-137.63a38.841 38.841 0 0 1 52.45-57.17l-34.41 34.35a2.545 2.545 0 0 0 0 3.61L650 425.46a38.804 38.804 0 0 1-44.59-7.37l-.09.03Zm55 0a38.043 38.043 0 0 1-5.76 4.7l-25.77-25.73 32.71-32.65a38.762 38.762 0 0 1-1.19 53.66l.01.02Z" fill="#fff"/></g><defs><clipPath id="a"><path fill="#fff" d="M0 0h1024v1024H0z"/></clipPath></defs></svg>