<svg width="1024" height="1024" fill="none" xmlns="http://www.w3.org/2000/svg"><g clip-path="url(#a)"><path d="M512 1024c282.77 0 512-229.23 512-512S794.77 0 512 0 0 229.23 0 512s229.23 512 512 512Z" fill="#98DC9A"/><path d="m213.33 486.35-28.26 110.43L164.2 599l28.26-110.43 20.87-2.22Zm38.26-4.78-28.7 110.86 20.87-2.17L272 479.39s-20.42 3.05-20.42 2.18h.01Zm100.86 9.13a30.57 30.57 0 0 0-8.7-9.56 36.341 36.341 0 0 0-13.48-5.22 82.482 82.482 0 0 0-18.26-.43l-30 3 12.17 105.64 23-2.61-3.91-37.39 5.22-.43c8.26-.87 15.22-2.17 20-4.78 5.22-2.61 9.56-5.65 12.17-9.13a26.114 26.114 0 0 0 5.65-12.17c.794-4.449.939-8.989.43-13.48-.82-5.14-2.12-9.96-4.29-13.44Zm-44.78 3.91 5.65-.43c6.09-.43 11.3 0 14.35 2.17 3.05 2.17 5.22 6.09 5.65 11.3.43 5.21-.87 10-3.48 12.61-3 2.61-7.83 4.78-14.35 5.22l-4.35.43-3.47-31.3Zm155.21-4.35A47.718 47.718 0 0 0 452 474.18a32.001 32.001 0 0 0-16.09-9.56 61.09 61.09 0 0 0-22.17-1.3c-8.26 1.3-15.65 3.48-21.3 6.52a38.844 38.844 0 0 0-13.91 12.61 48.458 48.458 0 0 0-7 18.26 77.814 77.814 0 0 0-.43 22.61 83.019 83.019 0 0 0 5.22 22.17 47.726 47.726 0 0 0 10.87 16.09 32.001 32.001 0 0 0 16.09 9.56 61.092 61.092 0 0 0 22.17 1.3c8.7-1.3 15.65-3 21.3-6.52a38.835 38.835 0 0 0 13.95-12.62 53.654 53.654 0 0 0 7-18.69 96.731 96.731 0 0 0 .43-22.61 99.574 99.574 0 0 0-5.26-21.74h.01Zm-68.26 29.56c-.87-5.65-1.3-10.43 0-14.78a33.363 33.363 0 0 1 3-11.74 19.105 19.105 0 0 1 7-8.26c2.61-2.17 6.52-3 10.87-3.48a23.229 23.229 0 0 1 11.3 1.3 22.888 22.888 0 0 1 8.7 6.52 50.705 50.705 0 0 1 5.65 10.87 68.127 68.127 0 0 1 3 14.78 60.969 60.969 0 0 1 .43 15.22 33.342 33.342 0 0 1-3 11.74 20.528 20.528 0 0 1-7 7.83c-3 2.17-7 3-11.3 3.48A23.23 23.23 0 0 1 412 552c-3.91-1.74-6.09-3.91-8.7-6.52a36.631 36.631 0 0 1-5.65-10.87 68.115 68.115 0 0 1-3-14.78l-.03-.01Zm153.9-3.91a21.637 21.637 0 0 0-6.52-7.39 25.629 25.629 0 0 0-9.56-5.22c-3.48-.87-7.39-2.17-11.3-3.48a72.502 72.502 0 0 1-8.7-2.61c-2.17-.87-3.91-1.74-5.65-2.61a11.734 11.734 0 0 1-3.48-3c-.87-.87-1.3-2.61-1.74-4.35a10.004 10.004 0 0 1 1.3-8.7 11.538 11.538 0 0 1 8.26-4.78 21.795 21.795 0 0 1 5.22-.87c1.3-.43 3.48 0 5.22 0 1.894-.09 3.792.054 5.65.43 2.61 0 4.78.87 7 1.3l3.48-19.13c-3-.43-5.65-1.3-8.26-1.74a48.007 48.007 0 0 0-7.83-.87h-7.83c-2.631.05-5.252.342-7.83.87a32.86 32.86 0 0 0-13.48 4.35c-3.91 2.61-7.39 5.22-9.56 8.26a30.716 30.716 0 0 0-4.78 10.87 32.924 32.924 0 0 0 0 13c.87 4.35 2.17 8.69 4.78 11.74 3 3 5.22 5.65 8.26 7.39a43.504 43.504 0 0 0 9.13 4.35c3 .87 5.65 1.74 8.26 2.61a37.845 37.845 0 0 1 8.26 2.17c2.17 1.3 4.35 2.17 6.09 3a11.846 11.846 0 0 1 4.35 3.48 16.055 16.055 0 0 1 2.17 4.78v4.35a15.433 15.433 0 0 1-1.74 3.91c-.87 1.3-2.61 2.17-3.91 3a22.899 22.899 0 0 1-6.52 2.17 50 50 0 0 1-7.83.43 47.246 47.246 0 0 1-7.83-.43c-2.61 0-5.22-.87-7.83-1.3a50.53 50.53 0 0 1-7.83-1.74l3.91 20.87a54.653 54.653 0 0 0 14.35 2.17 89.96 89.96 0 0 0 15.22-1.3 62.24 62.24 0 0 0 15.22-5.22 39.852 39.852 0 0 0 10.36-8.15 25.288 25.288 0 0 0 5.22-10.87c.865-4.29.865-8.71 0-13-.83-4.39-2.14-7.87-1.7-8.74Zm50-53.47 27-2.61-1.74-18.69-77.39 8.7 2.17 18.69 27-2.61L585 553.3l23-2.61s-9.48-87.38-9.48-88.25Zm110.43 59.13-39.56 4.35-3-27.39 36.52-3.91-2.17-18.69-36.52 4.35-2.61-23.48 39.56-4.35-2.17-18.69-62.6 7 12.17 106.08 62.6-7-2.22-18.27Zm107.38-47.39c-.87-8.26-3-15.22-5.22-21.74a47.711 47.711 0 0 0-10.87-16.09 32.001 32.001 0 0 0-16.09-9.56 61.09 61.09 0 0 0-22.17-1.3c-8.26 1.3-15.65 3.48-21.3 6.52a38.844 38.844 0 0 0-13.91 12.61 48.458 48.458 0 0 0-7 18.26 77.814 77.814 0 0 0-.43 22.61 83.019 83.019 0 0 0 5.22 22.17 47.711 47.711 0 0 0 10.87 16.09 32.001 32.001 0 0 0 16.09 9.56c6.52 1.74 13.48 2.17 22.17 1.3 8.7-1.3 15.65-3 21.3-6.52a38.827 38.827 0 0 0 13.91-12.61 53.654 53.654 0 0 0 7-18.69 96.731 96.731 0 0 0 .43-22.61Zm-73.47 8.26a42.032 42.032 0 0 1 0-14.78 33.363 33.363 0 0 1 3-11.74 19.105 19.105 0 0 1 7-8.26c2.61-2.17 6.52-3 10.87-3.48 3.816-.51 7.7-.063 11.3 1.3a22.888 22.888 0 0 1 8.7 6.52 50.705 50.705 0 0 1 5.65 10.87 110.049 110.049 0 0 1 3 14.78 60.967 60.967 0 0 1 .43 15.22 33.342 33.342 0 0 1-3 11.74 20.528 20.528 0 0 1-7 7.83c-3 2.17-7 3-11.3 3.48a23.911 23.911 0 0 1-11.3-1.3c-3.91-1.74-6.09-3.91-8.7-6.52a50.658 50.658 0 0 1-5.65-10.87 68.115 68.115 0 0 1-3-14.78v-.01Zm90.86 31.74a13 13 0 1 0 26.002.018 13 13 0 0 0-26.002-.028v.01Z" fill="#fff"/></g><defs><clipPath id="a"><path fill="#fff" d="M0 0h1024v1024H0z"/></clipPath></defs></svg>