<svg width="1024" height="1024" fill="none" xmlns="http://www.w3.org/2000/svg"><g clip-path="url(#a)"><path d="M512 1024c282.77 0 512-229.23 512-512S794.77 0 512 0 0 229.23 0 512s229.23 512 512 512Z" fill="#9ABEFF"/><path d="M444.83 567.05h44.59a86.098 86.098 0 0 0 36.88-8.26 92.882 92.882 0 0 0 28.62-22 102.3 102.3 0 0 0 18.14-31.94 103.986 103.986 0 0 0 6.62-36.85 90.063 90.063 0 0 0-7.16-35.77 109.4 109.4 0 0 0-19.3-31.39A96.875 96.875 0 0 0 524 378.23a79.052 79.052 0 0 0-36.88-8.81H370V654h74.81l.02-86.95Zm0-128.82h38a20.47 20.47 0 0 1 13.74 6.61c4.41 4.4 7.16 12.11 7.16 24.21 0 12.1-2.75 19.28-6.61 23.13-3.3 3.85-7.63 6.61-12.66 6.61h-39.63v-60.56ZM283 309.3v405.4a26.285 26.285 0 0 0 7.69 18.589A26.287 26.287 0 0 0 309.27 741H714.7a26.285 26.285 0 0 0 18.589-7.69A26.287 26.287 0 0 0 741 714.73V309.3a26.285 26.285 0 0 0-7.69-18.589A26.287 26.287 0 0 0 714.73 283H309.3a26.285 26.285 0 0 0-18.589 7.69A26.287 26.287 0 0 0 283 309.27v.03ZM660.74 687h-298a26.287 26.287 0 0 1-18.58-7.711 26.285 26.285 0 0 1-7.69-18.589v-298a26.291 26.291 0 0 1 26.27-26.27h298A26.292 26.292 0 0 1 687 362.71v298A26.293 26.293 0 0 1 660.77 687h-.03Zm-182.33-86.38H654v54H478.41v-54Z" fill="#fff"/></g><defs><clipPath id="a"><path fill="#fff" d="M0 0h1024v1024H0z"/></clipPath></defs></svg>