<svg width="1024" height="1024" viewBox="0 0 1024 1024" fill="none" xmlns="http://www.w3.org/2000/svg">
<g clip-path="url(#clip0_2_3201)">
<path d="M512 1024C794.77 1024 1024 794.77 1024 512C1024 229.23 794.77 0 512 0C229.23 0 0 229.23 0 512C0 794.77 229.23 1024 512 1024Z" fill="#54688C"/>
<path d="M592.85 333.53L539 364.65L512 349.1L485.11 364.66L431.22 333.55L512 286.86L592.85 333.53ZM512 769.14L714.12 652.45V528L660.2 559.11V621.33L512 706.91L363.79 621.32V559.1L309.91 528V652.44L512 769.14ZM768 372.42V294.65L538.93 426.91L512 411.37L485 426.91L256 294.69V372.46L283 388V450.16L471.6 559.12L417.71 590.24L512 644.68L606.27 590.23L552.42 559.11L741.09 450.19V388L768 372.42Z" fill="white"/>
</g>
<defs>
<clipPath id="clip0_2_3201">
<rect width="1024" height="1024" fill="white"/>
</clipPath>
</defs>
</svg>
