<svg width="1024" height="1024" fill="none" xmlns="http://www.w3.org/2000/svg"><g clip-path="url(#a)"><path d="M512 1024c282.77 0 512-229.23 512-512S794.77 0 512 0 0 229.23 0 512s229.23 512 512 512Z" fill="#54688C"/><path d="M592.85 333.53 539 364.65l-27-15.55-26.89 15.56-53.89-31.11L512 286.86l80.85 46.67ZM512 769.14l202.12-116.69V528l-53.92 31.11v62.22L512 706.91l-148.21-85.59V559.1L309.91 528v124.44L512 769.14Zm256-396.72v-77.77L538.93 426.91 512 411.37l-27 15.54-229-132.22v77.77L283 388v62.16l188.6 108.96-53.89 31.12L512 644.68l94.27-54.45-53.85-31.12 188.67-108.92V388L768 372.42Z" fill="#fff"/></g><defs><clipPath id="a"><path fill="#fff" d="M0 0h1024v1024H0z"/></clipPath></defs></svg>