<svg width="1024" height="1024" fill="none" xmlns="http://www.w3.org/2000/svg"><g clip-path="url(#a)"><path d="M512 1024c282.77 0 512-229.23 512-512S794.77 0 512 0 0 229.23 0 512s229.23 512 512 512Z" fill="#728DBE"/><path d="M231.88 552.34v-84.73h29.52v13.84a34.102 34.102 0 0 1 27.86-16 19.604 19.604 0 0 1 3.65.33v28.52a43.592 43.592 0 0 0-10-1.33c-10 0-18.18 4.17-21.52 10.17v49.21l-29.51-.01Zm71.58-84.72H333v84.73h-29.53l-.01-84.73Zm77.05 84.72v-52.87a15.083 15.083 0 0 1 13.49-7.84c7.17 0 10.67 4.51 10.67 13.68v47h29.52v-52.84a14.647 14.647 0 0 1 13.34-7.84c7.17 0 10.67 4.51 10.67 13.68v47h29.52v-52.84c0-22.18-12.34-34-30.19-34a34.608 34.608 0 0 0-27.68 14 27.077 27.077 0 0 0-23.35-14 30.644 30.644 0 0 0-26 12.17v-10H351v84.73l29.51-.03Zm200-74.05a51.94 51.94 0 0 0-68.38 0 44.121 44.121 0 0 0 0 63.55 52.45 52.45 0 0 0 68.38 0 44.121 44.121 0 0 0 0-63.55Zm-34.19 51a18.414 18.414 0 0 1-18.7-18.11v-1.23a18.683 18.683 0 0 1 4.994-13.406 18.683 18.683 0 0 1 20.211-4.785A18.683 18.683 0 0 1 564.98 508.6v1.35a18.41 18.41 0 0 1-17.45 19.32h-1.23m242-51a51.94 51.94 0 0 0-68.38 0 44.121 44.121 0 0 0 0 63.55 52.45 52.45 0 0 0 68.38 0 44.121 44.121 0 0 0 0-63.55Zm-34.19 51a18.41 18.41 0 0 1-18.7-18.11v-1.23a18.683 18.683 0 0 1 4.994-13.407 18.696 18.696 0 0 1 20.211-4.784 18.683 18.683 0 0 1 12.155 16.841v1.35a18.41 18.41 0 0 1-17.45 19.32h-1.23m-543.81-88.43a48.138 48.138 0 0 0-34.19-12.46H128v124.28h29.52V453l18.57.09a18.238 18.238 0 0 1 13.032 5.029 18.254 18.254 0 0 1 5.658 12.771v1.22a18.43 18.43 0 0 1-17.84 19h-6.74v24.74h5.89a48.263 48.263 0 0 0 34.19-12.57 42.858 42.858 0 0 0 13.51-31.23 42.849 42.849 0 0 0-13.51-31.23Zm489 68a40.69 40.69 0 0 0-13.51-31.15 48.26 48.26 0 0 0-34.2-12.67h-5.89v24.74h5.89a18.423 18.423 0 0 1 13.14 5.245A18.435 18.435 0 0 1 670.26 508v.84a18.251 18.251 0 0 1-17.46 19h-1.22l-18.57.09v-99.6h-29.53v124.38h48.09a48.219 48.219 0 0 0 34.19-12.57 41.007 41.007 0 0 0 13.51-31.31m166.37-22.38 8.56 12.26 21.8-31.24h-32.85l-5.37 7.71 7.86 11.27Zm0 47.09-7.87 11.28 5.36 7.71H896l-21.8-31.23-8.56 12.24Zm-15.74-47.1-13.25-19H803.8L833.47 510l-29.67 42.5h32.85l13.23-19 16.44-23.5-16.42-23.56ZM333 443.32a14.759 14.759 0 0 0-17.64-14.476 14.756 14.756 0 0 0-11.596 11.596 14.756 14.756 0 0 0 14.476 17.64A14.76 14.76 0 0 0 333 443.32Z" fill="#fff"/></g><defs><clipPath id="a"><path fill="#fff" d="M0 0h1024v1024H0z"/></clipPath></defs></svg>