<svg width="1024" height="1024" fill="none" xmlns="http://www.w3.org/2000/svg"><g clip-path="url(#a)"><path d="M512 1024c282.77 0 512-229.23 512-512S794.77 0 512 0 0 229.23 0 512s229.23 512 512 512Z" fill="#98DC9A"/><path d="M485.92 359.45c0-15.84-19.15-23.77-30.34-12.58-11.19 11.19-3.28 30.36 12.56 30.36 4.716 0 9.238-1.873 12.572-5.208a17.776 17.776 0 0 0 5.208-12.572Zm70-17.76c-15.84 0-23.78 19.14-12.58 30.35 11.2 11.21 30.36 3.26 30.35-12.58a17.772 17.772 0 0 0-17.77-17.76m-19.16 47.14a36.91 36.91 0 0 1-49.43 0c-4.49-3.79-10.39 2.6-6.25 6.78a45.21 45.21 0 0 0 62 0 4.618 4.618 0 0 0 .25-6.53 4.618 4.618 0 0 0-6.53-.25m163.82 68.76v-.26a36.998 36.998 0 0 0-26.91-35.61V390a156.754 156.754 0 0 0-45.922-110.856 156.727 156.727 0 0 0-50.869-33.976 156.724 156.724 0 0 0-59.999-11.918h-6a156.75 156.75 0 0 0-110.835 45.912A156.737 156.737 0 0 0 354.18 390v30.91A37.002 37.002 0 0 0 323.77 457a52.681 52.681 0 0 0-7.27 26.69v200.98a52.904 52.904 0 0 0 39.1 51 38.685 38.685 0 0 0 35.37 23h44a38.664 38.664 0 0 0 34.48-21.13h80.65a38.668 38.668 0 0 0 34.45 21.13h44a38.711 38.711 0 0 0 34.84-21.93 52.921 52.921 0 0 0 44.17-52.15V483.74a52.649 52.649 0 0 0-7.01-26.15l.07.01ZM538.09 575.24c0 .08-.16.28-.67.7a16.372 16.372 0 0 0-3.24 3.29 5.356 5.356 0 0 0-.33 1.45L544 655.57a5.628 5.628 0 0 1-3.002 6.514 5.637 5.637 0 0 1-2.508.556h-52.67a5.621 5.621 0 0 1-5.5-7.09l10.14-73.1a8.71 8.71 0 0 0-.46-3.21 16.372 16.372 0 0 0-3.24-3.29c-.19-.15-.32-.27-.43-.37a43.34 43.34 0 1 1 51.75-.32l.01-.02Zm76.42-154.93h-22.17a36.841 36.841 0 0 0-25.82 10.51H457.77A36.82 36.82 0 0 0 432 420.31h-18.55V387.4a98.163 98.163 0 0 1 98.13-98.15h4.79a98.163 98.163 0 0 1 98.13 98.15l.01 32.91Z" fill="#fff"/></g><defs><clipPath id="a"><path fill="#fff" d="M0 0h1024v1024H0z"/></clipPath></defs></svg>