<svg width="1024" height="1024" fill="none" xmlns="http://www.w3.org/2000/svg"><g clip-path="url(#a)"><path d="M512 1024c282.77 0 512-229.23 512-512S794.77 0 512 0 0 229.23 0 512s229.23 512 512 512Z" fill="#8C72BD"/><path d="m566 399.2-43.73-25.51a29.333 29.333 0 0 0-26.38 0l-43.76 25.51c-9.37 5.55-9.54 14.58 0 20l43.73 25.8a28.291 28.291 0 0 0 26.38 0L566 419.15a10.546 10.546 0 0 0 6.61-13.4 10.428 10.428 0 0 0-6.61-6.55Zm170.59-31.58-211.4-121.49a29.333 29.333 0 0 0-26.38 0L287.44 367.61a29.69 29.69 0 0 0-9.287 9.905 29.692 29.692 0 0 0-3.903 13.005v243a29.692 29.692 0 0 0 3.903 13.005 29.69 29.69 0 0 0 9.287 9.905l211.37 121.44a29.333 29.333 0 0 0 26.38 0l211.37-121.48a29.69 29.69 0 0 0 9.287-9.905 29.692 29.692 0 0 0 3.903-13.005v-243a29.683 29.683 0 0 0-13.19-22.87l.03.01ZM642.5 424l-120.26 70.82a28.291 28.291 0 0 1-26.38 0L419.5 450c-9.37-5.73-17.35-1.21-17.35 9.72V595.3a10.936 10.936 0 0 1-.91 6.304 10.929 10.929 0 0 1-16.44 4.106l-13-6.77a28.115 28.115 0 0 1-13.54-22.56V429.22a29.692 29.692 0 0 1 3.903-13.005 29.69 29.69 0 0 1 9.287-9.905l124.26-72.19a29.333 29.333 0 0 1 26.38 0l120.26 69.42a10.59 10.59 0 0 1 .15 20.46Z" fill="#fff"/></g><defs><clipPath id="a"><path fill="#fff" d="M0 0h1024v1024H0z"/></clipPath></defs></svg>