<svg width="1024" height="1024" fill="none" xmlns="http://www.w3.org/2000/svg"><g clip-path="url(#a)"><path d="M512 1024c282.77 0 512-229.23 512-512S794.77 0 512 0 0 229.23 0 512s229.23 512 512 512Z" fill="#ABABFF"/><path d="M353.63 634.51v133.36h93.52V640.33A46.878 46.878 0 0 1 494 593.52h95.8a168.83 168.83 0 1 0 0-337.66H353.64v166.65h93.52V344h136.26a79.893 79.893 0 0 1 79.89 79.89 79.891 79.891 0 0 1-79.89 79.89h-99A131.31 131.31 0 0 0 391.91 542a131.31 131.31 0 0 0-38.28 92.48v.03Z" fill="#fff"/></g><defs><clipPath id="a"><path fill="#fff" d="M0 0h1024v1024H0z"/></clipPath></defs></svg>