<svg width="1024" height="1024" fill="none" xmlns="http://www.w3.org/2000/svg"><g clip-path="url(#a)"><path d="M512 1024c282.77 0 512-229.23 512-512S794.77 0 512 0 0 229.23 0 512s229.23 512 512 512Z" fill="#56595B"/><path d="M245.18 413.84h28.69c7.767 0 14.373-1.13 19.82-3.39a37.101 37.101 0 0 0 13.3-9 34.295 34.295 0 0 0 7.48-12.78 47.433 47.433 0 0 0 0-29.47 34.439 34.439 0 0 0-7.47-12.65 37.101 37.101 0 0 0-13.3-9c-5.453-2.26-12.06-3.39-19.82-3.39h-56v124.19h27.3v-44.51Zm0-58.42h21.21c3.014-.004 6.023.23 9 .7a21.107 21.107 0 0 1 7.65 2.7 14.708 14.708 0 0 1 5.3 5.65 23.873 23.873 0 0 1 0 19.13 14.687 14.687 0 0 1-5.3 5.65 20.99 20.99 0 0 1-7.65 2.7 56.984 56.984 0 0 1-9 .7h-21.21v-37.23Zm115.62 54.42h27.3c6.84 0 11.767 1.507 14.78 4.52s4.983 7.767 5.91 14.26a243.775 243.775 0 0 1 1.56 15.65 48.076 48.076 0 0 0 2.78 14.08h27.3a18.198 18.198 0 0 1-2.87-6.35 54.791 54.791 0 0 1-1.39-7.91c-.287-2.78-.49-5.503-.61-8.17s-.237-5-.35-7a75.396 75.396 0 0 0-1.3-9.39 31.706 31.706 0 0 0-3-8.61 23.64 23.64 0 0 0-5.39-6.78 21.061 21.061 0 0 0-8.34-4.26v-.35c6.96-2.78 11.96-6.837 15-12.17 3.04-5.333 4.577-11.667 4.61-19a34.881 34.881 0 0 0-2.52-13.3 32.072 32.072 0 0 0-7.3-10.87 34.663 34.663 0 0 0-11.47-7.39 39.995 39.995 0 0 0-15-2.7h-67v124.25h27.3v-48.51Zm0-54.42h29.91c6.26 0 10.953 1.363 14.08 4.09 3.127 2.727 4.69 7.103 4.69 13.13 0 6.26-1.563 10.78-4.69 13.56-3.127 2.78-7.82 4.17-14.08 4.17H360.8v-34.95ZM472 449c-9.213-8.113-13.82-20.633-13.82-37.56V334.2h27.3v77.2a55.995 55.995 0 0 0 .87 9.91A19.278 19.278 0 0 0 497.73 436c3.333 1.567 7.767 2.35 13.3 2.35 9.74 0 16.463-2.173 20.17-6.52 3.707-4.347 5.563-11.157 5.57-20.43v-77.2h27.3v77.2c0 16.807-4.693 29.297-14.08 37.47-9.387 8.173-22.383 12.26-38.99 12.26-16.787 0-29.787-4.043-39-12.13Zm183-16.6a12 12 0 0 0 2.43-7.74 10.894 10.894 0 0 0-3.22-8.17 25.546 25.546 0 0 0-8.43-5.22 84.376 84.376 0 0 0-11.78-3.69c-4.407-1.04-8.87-2.2-13.39-3.48a118.596 118.596 0 0 1-13.61-4.26 46.5 46.5 0 0 1-11.82-6.52 30.72 30.72 0 0 1-8.43-10 30.319 30.319 0 0 1-3.22-14.52 32.49 32.49 0 0 1 4.09-16.6 37.003 37.003 0 0 1 10.69-11.74 46.622 46.622 0 0 1 15-7 63.649 63.649 0 0 1 16.69-2.21 78.953 78.953 0 0 1 18.69 2.17 46.68 46.68 0 0 1 15.91 7 35.668 35.668 0 0 1 11 12.43c2.72 5.04 4.083 11.153 4.09 18.34h-26.44a21.986 21.986 0 0 0-2.35-9.22 15.376 15.376 0 0 0-5.3-5.74 22.436 22.436 0 0 0-7.56-3 46.524 46.524 0 0 0-9.3-.87 31.991 31.991 0 0 0-6.61.7 17.7 17.7 0 0 0-6 2.43 15.068 15.068 0 0 0-4.43 4.35 11.684 11.684 0 0 0-1.74 6.61 11.151 11.151 0 0 0 1.39 5.91c.927 1.507 2.753 2.897 5.48 4.17a69.922 69.922 0 0 0 11.3 3.83 1969.591 1969.591 0 0 0 18.87 4.87c2.32.467 5.537 1.307 9.65 2.52a46.291 46.291 0 0 1 12.26 5.82 37.074 37.074 0 0 1 10.52 10.69c2.953 4.467 4.43 10.177 4.43 17.13a37.994 37.994 0 0 1-3.3 15.82 34.409 34.409 0 0 1-9.83 12.61 47.22 47.22 0 0 1-16.17 8.26 76.474 76.474 0 0 1-22.34 3 78.534 78.534 0 0 1-19.91-2.52 49.997 49.997 0 0 1-17-7.91A39.055 39.055 0 0 1 583.53 437c-2.9-5.567-4.29-12.173-4.17-19.82h26.43a22.757 22.757 0 0 0 2.21 10.57 19.705 19.705 0 0 0 6 7 25.917 25.917 0 0 0 8.78 4 41.46 41.46 0 0 0 10.43 1.3 54.167 54.167 0 0 0 7.82-.61 27.132 27.132 0 0 0 7.82-2.35 17.072 17.072 0 0 0 6.15-4.73v.04Zm68.85-1.65h46.43l9.39 27.65H808l-46.42-124.2h-28l-46.95 124.15h27.47l9.75-27.6Zm23.3-65.9h.35l15.65 45.55H731l16.15-45.55ZM280.31 540.37h-16.82v-19.66h16.82c3.52 0 6.16.767 7.92 2.3 1.76 1.533 2.64 3.997 2.64 7.39 0 3.52-.88 6.063-2.64 7.63-1.76 1.567-4.4 2.347-7.92 2.34Zm326.86 0h-16.83v-19.66h16.82c3.52 0 6.16.767 7.92 2.3 1.76 1.533 2.64 3.997 2.64 7.39 0 3.52-.88 6.063-2.64 7.63-1.76 1.567-4.4 2.347-7.92 2.34h.01Zm-63.28 11.25h-18.1l9.1-25.62h.2l8.8 25.62Zm-326.41 61.77h589.71V472.84H217.48v140.55Zm500.2-104.61H733v26.8h28.3v-26.8h15.36v69.83H761.3v-30.12H733v30.12h-15.32v-69.83Zm-73 20.69a34.888 34.888 0 0 1 6.75-11.69 30.882 30.882 0 0 1 10.85-7.78 37.443 37.443 0 0 1 25.33-1.17 29.589 29.589 0 0 1 9.2 4.84 26.185 26.185 0 0 1 6.7 7.87 28.225 28.225 0 0 1 3.33 10.76H692a12.593 12.593 0 0 0-1.76-4.84 15.39 15.39 0 0 0-3.42-3.86 16.003 16.003 0 0 0-10.12-3.6 17.936 17.936 0 0 0-8.8 2 16.639 16.639 0 0 0-5.87 5.38 23.58 23.58 0 0 0-3.28 7.68 38.2 38.2 0 0 0-1 8.9 35.565 35.565 0 0 0 1 8.56A23.08 23.08 0 0 0 662 560a16.747 16.747 0 0 0 5.87 5.33 17.903 17.903 0 0 0 8.8 2c4.667 0 8.333-1.433 11-4.3a19.9 19.9 0 0 0 4.84-11.35h14.86a35.516 35.516 0 0 1-3 11.83 28.315 28.315 0 0 1-6.46 9 27.442 27.442 0 0 1-9.39 5.67 34.385 34.385 0 0 1-11.84 2 35.819 35.819 0 0 1-14.42-2.79 30.921 30.921 0 0 1-10.81-7.68 33.992 33.992 0 0 1-6.75-11.49 42.184 42.184 0 0 1-2.33-14.22 43.623 43.623 0 0 1 2.35-14.53h-.04ZM575 508.78h37.65a22.482 22.482 0 0 1 8.46 1.51 19.564 19.564 0 0 1 6.46 4.16 18.117 18.117 0 0 1 4.11 6.11 19.656 19.656 0 0 1 1.42 7.48 21 21 0 0 1-2.59 10.66 16.29 16.29 0 0 1-8.46 6.85v.2a11.843 11.843 0 0 1 4.69 2.4 13.247 13.247 0 0 1 3 3.81 17.793 17.793 0 0 1 1.71 4.84c.353 1.743.597 3.507.73 5.28.067 1.107.133 2.41.2 3.91s.18 3.033.34 4.6c.15 1.501.41 2.988.78 4.45a10.221 10.221 0 0 0 1.61 3.57h-15.33a27.059 27.059 0 0 1-1.56-7.92c-.193-3.067-.487-6-.88-8.8-.52-3.653-1.63-6.32-3.33-8-1.7-1.68-4.47-2.527-8.31-2.54h-15.36v27.29H575v-69.86Zm-47.73 0H543l26.11 69.83h-15.93l-5.28-15.55h-26.12l-5.48 15.55h-15.45l26.42-69.83Zm-82.25 0h52.23v12.91h-36.89v15h33.84v11.93h-33.84v17.08H498v12.91h-53l.02-69.83ZM419.43 555a14.34 14.34 0 0 0-4.74-2.93 47.36 47.36 0 0 0-6.65-2.05c-2.48-.587-4.99-1.253-7.53-2a65.908 65.908 0 0 1-7.63-2.4 26.115 26.115 0 0 1-6.65-3.67 17.26 17.26 0 0 1-4.74-5.62 17.068 17.068 0 0 1-1.81-8.17 18.295 18.295 0 0 1 2.3-9.34 20.826 20.826 0 0 1 6-6.6 26.215 26.215 0 0 1 8.41-3.91 35.766 35.766 0 0 1 9.39-1.27 44.55 44.55 0 0 1 10.51 1.22 26.273 26.273 0 0 1 8.95 4 20.086 20.086 0 0 1 6.21 7 21.478 21.478 0 0 1 2.3 10.32H418.9a12.388 12.388 0 0 0-1.32-5.18 8.682 8.682 0 0 0-3-3.23 12.685 12.685 0 0 0-4.25-1.66 26.236 26.236 0 0 0-5.23-.49c-1.25.001-2.497.131-3.72.39a9.929 9.929 0 0 0-3.37 1.37 8.45 8.45 0 0 0-2.5 2.45 6.565 6.565 0 0 0-1 3.72 6.243 6.243 0 0 0 .78 3.33 6.997 6.997 0 0 0 3.08 2.35 38.951 38.951 0 0 0 6.36 2.15 978.12 978.12 0 0 0 10.61 2.74c1.333.26 3.143.733 5.43 1.42a26.048 26.048 0 0 1 6.9 3.28 20.914 20.914 0 0 1 5.92 6 17.139 17.139 0 0 1 2.49 9.63 21.367 21.367 0 0 1-1.86 8.9 19.34 19.34 0 0 1-5.52 7.09 26.544 26.544 0 0 1-9.1 4.65 42.976 42.976 0 0 1-12.57 1.66 44.129 44.129 0 0 1-11.2-1.42 28.082 28.082 0 0 1-9.58-4.45 21.935 21.935 0 0 1-6.6-7.73 23.006 23.006 0 0 1-2.35-11.15h14.87a12.807 12.807 0 0 0 1.27 6 11.084 11.084 0 0 0 3.38 4 14.53 14.53 0 0 0 4.94 2.25 23.29 23.29 0 0 0 5.87.73A30.614 30.614 0 0 0 412 568a15.295 15.295 0 0 0 4.4-1.32 9.582 9.582 0 0 0 3.42-2.69 6.746 6.746 0 0 0 1.37-4.35 6.137 6.137 0 0 0-1.76-4.64Zm-100.88-46.22h52.23v12.91H333.9v15h33.84v11.93H333.9v17.08h37.65v12.91h-53v-69.83Zm-70.42 0h37.65a22.482 22.482 0 0 1 8.46 1.51 19.537 19.537 0 0 1 6.45 4.16 18.069 18.069 0 0 1 4.11 6.11 19.618 19.618 0 0 1 1.42 7.48 21 21 0 0 1-2.59 10.66 16.29 16.29 0 0 1-8.46 6.85v.2a11.862 11.862 0 0 1 4.69 2.4 13.309 13.309 0 0 1 3 3.81 17.781 17.781 0 0 1 1.71 4.84c.354 1.743.598 3.507.73 5.28.06 1.107.127 2.41.2 3.91.073 1.5.187 3.033.34 4.6.148 1.501.409 2.988.78 4.45a10.221 10.221 0 0 0 1.61 3.57h-15.31a27.059 27.059 0 0 1-1.56-7.92c-.193-3.067-.487-6-.88-8.8-.52-3.653-1.627-6.32-3.32-8-1.693-1.68-4.463-2.527-8.31-2.54h-15.36v27.29h-15.36v-69.86Zm-18.07 147.67a8.34 8.34 0 0 0-4.61 1.17 9.757 9.757 0 0 0-2.8 2.71v-12.24H216v34.37h6.56v-3.2a10.07 10.07 0 0 0 2.49 2.61 10.222 10.222 0 0 0 13-2.64 16.38 16.38 0 0 0 2.82-9.83 14.631 14.631 0 0 0-2.86-9.34 9.504 9.504 0 0 0-7.95-3.61Zm2.35 19.12a4.612 4.612 0 0 1-4 2.08 4.998 4.998 0 0 1-4.45-2.15 9.424 9.424 0 0 1-1.46-5.42c-.05-1.541.191-3.078.71-4.53a5.002 5.002 0 0 1 5-3.29 4.922 4.922 0 0 1 4.94 3.36c.515 1.436.755 2.955.71 4.48a9.434 9.434 0 0 1-1.46 5.47h.01ZM261 657h7.07l-8.72 25c-1.687 4.827-3.02 7.827-4 9s-2.943 1.753-5.89 1.74h-1.42l-1.61-.08v-5.32h.84c.624.031 1.25.008 1.87-.07a3.372 3.372 0 0 0 1.49-.54 3.617 3.617 0 0 0 1.09-1.66 3.987 3.987 0 0 0 .43-1.54L242.81 657h7.4l5.56 18.77L261 657Zm45-27.74h11.11v37c0 4.52-.763 8.103-2.29 10.75-2.587 4.473-7.253 6.71-14 6.71s-11.273-1.81-13.58-5.43c-2.307-3.62-3.46-8.557-3.46-14.81v-1.23h10.5v1.23c.093 4.113.517 7.007 1.27 8.68s2.373 2.51 4.86 2.51c2.46 0 4.087-.913 4.88-2.74.574-1.767.815-3.625.71-5.48v-37.19Zm46.4-1.62c-7.6 0-13.41 2.07-17.43 6.21-5.313 4.887-7.97 12.2-7.97 21.94 0 9.547 2.693 16.86 8.08 21.94 4 4.14 9.81 6.21 17.43 6.21 7.62 0 13.43-2.07 17.43-6.21 5.333-5.073 8-12.387 8-21.94 0-9.74-2.667-17.053-8-21.94-4.053-4.133-9.88-6.2-17.48-6.2l-.06-.01Zm10.48 42a12.696 12.696 0 0 1-10.48 4.87 12.834 12.834 0 0 1-10.53-4.87c-2.58-3.247-3.87-7.863-3.87-13.85 0-5.987 1.31-10.607 3.93-13.86a12.84 12.84 0 0 1 10.53-4.87 12.686 12.686 0 0 1 10.49 4.94c2.587 3.26 3.88 7.873 3.88 13.84s-1.293 10.57-3.88 13.81l-.07-.01Zm65-2.74a15.263 15.263 0 0 1-5.6 12.1c-3.753 3.213-9.06 4.82-15.92 4.82-7 0-12.507-1.58-16.52-4.74s-6.013-7.493-6-13h10.61a10.764 10.764 0 0 0 2 5.45c1.84 2.193 4.997 3.287 9.47 3.28a20.44 20.44 0 0 0 6.52-.87c3.167-1.107 4.75-3.163 4.75-6.17a4.545 4.545 0 0 0-2.33-4.08 25.228 25.228 0 0 0-7.38-2.49l-5.76-1.26c-5.66-1.247-9.547-2.607-11.66-4.08-3.587-2.453-5.38-6.29-5.38-11.51a15.29 15.29 0 0 1 5.26-11.87c3.507-3.153 8.657-4.73 15.45-4.73a23.693 23.693 0 0 1 14.52 4.46c4 2.973 6.1 7.287 6.3 12.94h-10.67a7.617 7.617 0 0 0-4.29-6.82 14.719 14.719 0 0 0-6.62-1.33 12.59 12.59 0 0 0-7 1.73 5.484 5.484 0 0 0-2.63 4.83 4.56 4.56 0 0 0 2.59 4.26 32.065 32.065 0 0 0 7.07 2.2l9.33 2.2c4.093.96 7.16 2.247 9.2 3.86 3.147 2.48 4.72 6.087 4.72 10.82h-.03Zm19 6h29.44v9.56H436v-53.19h39v9.42h-28.11V650h25.84v9.24h-25.84l-.01 13.66ZM485 629.34h37.92v9.34H496v12.23h23.6v9.24H496v22.3h-11v-53.11Zm101.35 4c-3.133-2.74-7.33-4.11-12.59-4.11h-22.84v53.19h11v-19.09H573c5.78 0 10.227-1.3 13.34-3.9 3.113-2.6 4.667-7.037 4.66-13.31 0-5.747-1.553-9.993-4.66-12.74l.01-.04Zm-8.46 18.87a8.489 8.489 0 0 1-5.91 1.91H562v-15.61h10a8.998 8.998 0 0 1 5.91 1.77c1.393 1.147 2.09 3.117 2.09 5.91s-.703 4.813-2.11 6.06v-.04Zm63.6 25.83a26.86 26.86 0 0 1-.29-4.94v-3.57c0-3.727-.51-6.5-1.53-8.32a9.922 9.922 0 0 0-5.21-4.21 10.668 10.668 0 0 0 6.31-5.18 15.917 15.917 0 0 0 1.91-7.45 14.915 14.915 0 0 0-1-5.59 16.597 16.597 0 0 0-2.68-4.47 13.136 13.136 0 0 0-5-3.72 23.167 23.167 0 0 0-8.39-1.37H600.2v53.19h10.86V661.6h10.85c3.093 0 5.203.567 6.33 1.7 1.127 1.133 1.713 3.397 1.76 6.79l.07 4.94c.022 1.538.179 3.07.47 4.58.147.72.387 1.67.72 2.85h12.27v-1.33a4.435 4.435 0 0 1-2.04-3.04v-.05Zm-13.11-26.16c-1.7.671-3.525.968-5.35.87h-12v-14.24h12.27a10.996 10.996 0 0 1 5.14.94c2 1.107 3 3.27 3 6.49.053 2.987-.97 4.983-3.07 5.99l.01-.05Zm56.34-22.66H696V662c0 5.653-.877 10.057-2.63 13.21-3.267 5.773-9.497 8.66-18.69 8.66-9.193 0-15.437-2.887-18.73-8.66-1.753-3.153-2.63-7.557-2.63-13.21v-32.73h11.29v32.66c0 3.653.433 6.32 1.3 8 1.333 2.98 4.257 4.47 8.77 4.47s7.427-1.49 8.74-4.47c.867-1.68 1.3-4.347 1.3-8v-32.71Zm63.47 37.63a15.253 15.253 0 0 1-5.65 12.15c-3.76 3.213-9.067 4.82-15.92 4.82-7 0-12.507-1.58-16.52-4.74s-6.013-7.493-6-13h10.61a10.764 10.764 0 0 0 2 5.45c1.84 2.193 4.997 3.287 9.47 3.28a20.383 20.383 0 0 0 6.52-.87c3.167-1.107 4.75-3.163 4.75-6.17a4.545 4.545 0 0 0-2.33-4.08 25.23 25.23 0 0 0-7.39-2.49l-5.73-1.3c-5.66-1.247-9.547-2.607-11.66-4.08-3.587-2.453-5.377-6.29-5.37-11.51a15.273 15.273 0 0 1 5.26-11.87c3.507-3.153 8.657-4.73 15.45-4.73a23.693 23.693 0 0 1 14.52 4.46c4 2.973 6.1 7.287 6.3 12.94h-10.7a7.617 7.617 0 0 0-4.29-6.82 14.706 14.706 0 0 0-6.62-1.33 12.607 12.607 0 0 0-7 1.73 5.484 5.484 0 0 0-2.63 4.83 4.56 4.56 0 0 0 2.59 4.26 31.959 31.959 0 0 0 7.07 2.2l9.33 2.2c4.087.96 7.153 2.247 9.2 3.86 3.153 2.507 4.73 6.127 4.73 10.86l.01-.05Zm23-37.63-19 53.19h11.62l3.6-10.93H787l3.51 10.93h12.05l-18.82-53.19h-12.55Zm-.73 33.09 6.9-20.93 6.72 20.93h-13.62Z" fill="#fff"/></g><defs><clipPath id="a"><path fill="#fff" d="M0 0h1024v1024H0z"/></clipPath></defs></svg>