<svg width="1024" height="1024" viewBox="0 0 1024 1024" fill="none" xmlns="http://www.w3.org/2000/svg">
<g clip-path="url(#clip0_2_3225)">
<path d="M512 1024C794.77 1024 1024 794.77 1024 512C1024 229.23 794.77 0 512 0C229.23 0 0 229.23 0 512C0 794.77 229.23 1024 512 1024Z" fill="#56595B"/>
<path d="M245.18 413.84H273.87C281.637 413.84 288.243 412.71 293.69 410.45C298.727 408.457 303.267 405.385 306.99 401.45C310.384 397.786 312.937 393.424 314.47 388.67C317.599 379.096 317.599 368.774 314.47 359.2C312.919 354.495 310.371 350.181 307 346.55C303.277 342.615 298.737 339.543 293.7 337.55C288.247 335.29 281.64 334.16 273.88 334.16H217.88V458.35H245.18V413.84ZM245.18 355.42H266.39C269.404 355.416 272.413 355.65 275.39 356.12C278.091 356.517 280.689 357.434 283.04 358.82C285.28 360.196 287.11 362.147 288.34 364.47C289.659 367.486 290.34 370.743 290.34 374.035C290.34 377.327 289.659 380.584 288.34 383.6C287.111 385.924 285.28 387.875 283.04 389.25C280.69 390.639 278.091 391.556 275.39 391.95C272.413 392.421 269.404 392.655 266.39 392.65H245.18V355.42ZM360.8 409.84H388.1C394.94 409.84 399.867 411.347 402.88 414.36C405.893 417.373 407.863 422.127 408.79 428.62C409.457 433.607 409.977 438.823 410.35 444.27C410.567 449.076 411.504 453.822 413.13 458.35H440.43C439.073 456.438 438.099 454.282 437.56 452C436.904 449.401 436.439 446.757 436.17 444.09C435.883 441.31 435.68 438.587 435.56 435.92C435.44 433.253 435.323 430.92 435.21 428.92C434.974 425.766 434.54 422.63 433.91 419.53C433.33 416.531 432.32 413.631 430.91 410.92C429.546 408.347 427.719 406.049 425.52 404.14C423.095 402.112 420.244 400.656 417.18 399.88V399.53C424.14 396.75 429.14 392.693 432.18 387.36C435.22 382.027 436.757 375.693 436.79 368.36C436.827 363.805 435.97 359.286 434.27 355.06C432.61 350.973 430.125 347.273 426.97 344.19C423.674 340.991 419.775 338.479 415.5 336.8C410.719 334.947 405.627 334.03 400.5 334.1H333.5V458.35H360.8V409.84ZM360.8 355.42H390.71C396.97 355.42 401.663 356.783 404.79 359.51C407.917 362.237 409.48 366.613 409.48 372.64C409.48 378.9 407.917 383.42 404.79 386.2C401.663 388.98 396.97 390.37 390.71 390.37H360.8V355.42ZM472 449C462.787 440.887 458.18 428.367 458.18 411.44V334.2H485.48V411.4C485.475 414.723 485.767 418.039 486.35 421.31C486.855 424.519 488.163 427.549 490.152 430.117C492.142 432.686 494.749 434.709 497.73 436C501.063 437.567 505.497 438.35 511.03 438.35C520.77 438.35 527.493 436.177 531.2 431.83C534.907 427.483 536.763 420.673 536.77 411.4V334.2H564.07V411.4C564.07 428.207 559.377 440.697 549.99 448.87C540.603 457.043 527.607 461.13 511 461.13C494.213 461.13 481.213 457.087 472 449ZM655 432.4C656.684 430.18 657.543 427.444 657.43 424.66C657.49 423.149 657.234 421.643 656.68 420.236C656.126 418.83 655.284 417.554 654.21 416.49C651.768 414.216 648.904 412.443 645.78 411.27C641.949 409.754 638.012 408.521 634 407.58C629.593 406.54 625.13 405.38 620.61 404.1C615.992 402.954 611.447 401.532 607 399.84C602.764 398.253 598.782 396.057 595.18 393.32C591.685 390.631 588.81 387.22 586.75 383.32C584.488 378.823 583.381 373.832 583.53 368.8C583.387 363.001 584.799 357.269 587.62 352.2C590.292 347.559 593.939 343.554 598.31 340.46C602.852 337.251 607.932 334.88 613.31 333.46C618.751 331.988 624.363 331.244 630 331.25C636.294 331.226 642.569 331.954 648.69 333.42C654.385 334.737 659.782 337.111 664.6 340.42C669.193 343.641 672.962 347.899 675.6 352.85C678.32 357.89 679.683 364.003 679.69 371.19H653.25C653.149 367.982 652.347 364.835 650.9 361.97C649.657 359.632 647.831 357.655 645.6 356.23C643.284 354.778 640.722 353.761 638.04 353.23C634.977 352.629 631.861 352.337 628.74 352.36C626.518 352.363 624.303 352.598 622.13 353.06C619.998 353.494 617.964 354.318 616.13 355.49C614.367 356.617 612.859 358.098 611.7 359.84C610.474 361.821 609.868 364.123 609.96 366.45C609.868 368.511 610.349 370.557 611.35 372.36C612.277 373.867 614.103 375.257 616.83 376.53C620.481 378.126 624.261 379.408 628.13 380.36C632.937 381.633 639.227 383.257 647 385.23C649.32 385.697 652.537 386.537 656.65 387.75C661 389.077 665.131 391.038 668.91 393.57C673.108 396.379 676.688 400.017 679.43 404.26C682.383 408.727 683.86 414.437 683.86 421.39C683.907 426.839 682.782 432.234 680.56 437.21C678.319 442.127 674.951 446.447 670.73 449.82C665.925 453.593 660.434 456.399 654.56 458.08C647.302 460.178 639.774 461.189 632.22 461.08C625.503 461.095 618.812 460.248 612.31 458.56C606.195 457.019 600.427 454.335 595.31 450.65C590.373 447.081 586.338 442.407 583.53 437C580.63 431.433 579.24 424.827 579.36 417.18H605.79C605.668 420.83 606.426 424.455 608 427.75C609.418 430.525 611.475 432.924 614 434.75C616.65 436.621 619.629 437.978 622.78 438.75C626.188 439.624 629.692 440.061 633.21 440.05C635.828 440.036 638.441 439.832 641.03 439.44C643.74 439.056 646.377 438.263 648.85 437.09C651.236 436.006 653.34 434.388 655 432.36V432.4ZM723.85 430.75H770.28L779.67 458.4H808L761.58 334.2H733.58L686.63 458.35H714.1L723.85 430.75ZM747.15 364.85H747.5L763.15 410.4H731L747.15 364.85ZM280.31 540.37H263.49V520.71H280.31C283.83 520.71 286.47 521.477 288.23 523.01C289.99 524.543 290.87 527.007 290.87 530.4C290.87 533.92 289.99 536.463 288.23 538.03C286.47 539.597 283.83 540.377 280.31 540.37ZM607.17 540.37H590.34V520.71H607.16C610.68 520.71 613.32 521.477 615.08 523.01C616.84 524.543 617.72 527.007 617.72 530.4C617.72 533.92 616.84 536.463 615.08 538.03C613.32 539.597 610.68 540.377 607.16 540.37H607.17ZM543.89 551.62H525.79L534.89 526H535.09L543.89 551.62ZM217.48 613.39H807.19V472.84H217.48V613.39ZM717.68 508.78H733V535.58H761.3V508.78H776.66V578.61H761.3V548.49H733V578.61H717.68V508.78ZM644.68 529.47C646.148 525.171 648.44 521.2 651.43 517.78C654.436 514.427 658.139 511.771 662.28 510C670.33 506.676 679.288 506.262 687.61 508.83C690.938 509.888 694.053 511.526 696.81 513.67C699.544 515.822 701.822 518.498 703.51 521.54C705.332 524.867 706.464 528.526 706.84 532.3H692C691.753 530.583 691.154 528.935 690.24 527.46C689.325 525.99 688.169 524.685 686.82 523.6C683.962 521.27 680.387 519.998 676.7 520C673.644 519.906 670.615 520.594 667.9 522C665.537 523.292 663.522 525.138 662.03 527.38C660.488 529.725 659.378 532.325 658.75 535.06C658.069 537.977 657.733 540.965 657.75 543.96C657.735 546.843 658.071 549.718 658.75 552.52C659.381 555.187 660.481 557.719 662 560C663.502 562.221 665.515 564.049 667.87 565.33C670.585 566.737 673.614 567.426 676.67 567.33C681.337 567.33 685.003 565.897 687.67 563.03C690.445 559.855 692.14 555.881 692.51 551.68H707.37C707.06 555.767 706.045 559.77 704.37 563.51C702.83 566.906 700.635 569.965 697.91 572.51C695.193 575.013 692 576.941 688.52 578.18C684.721 579.536 680.713 580.213 676.68 580.18C671.732 580.256 666.822 579.306 662.26 577.39C658.144 575.642 654.456 573.022 651.45 569.71C648.464 566.363 646.17 562.458 644.7 558.22C643.114 553.649 642.325 548.839 642.37 544C642.325 539.059 643.119 534.145 644.72 529.47H644.68ZM575 508.78H612.65C615.541 508.735 618.413 509.247 621.11 510.29C623.517 511.236 625.713 512.65 627.57 514.45C629.344 516.184 630.743 518.264 631.68 520.56C632.636 522.937 633.119 525.478 633.1 528.04C633.196 531.76 632.303 535.439 630.51 538.7C628.559 541.886 625.572 544.304 622.05 545.55V545.75C623.774 546.188 625.377 547.008 626.74 548.15C627.966 549.225 628.983 550.516 629.74 551.96C630.541 553.482 631.117 555.113 631.45 556.8C631.803 558.543 632.047 560.307 632.18 562.08C632.247 563.187 632.313 564.49 632.38 565.99C632.447 567.49 632.56 569.023 632.72 570.59C632.87 572.091 633.13 573.578 633.5 575.04C633.802 576.323 634.348 577.535 635.11 578.61H619.78C618.867 576.063 618.341 573.393 618.22 570.69C618.027 567.623 617.733 564.69 617.34 561.89C616.82 558.237 615.71 555.57 614.01 553.89C612.31 552.21 609.54 551.363 605.7 551.35H590.34V578.64H575V508.78ZM527.27 508.78H543L569.11 578.61H553.18L547.9 563.06H521.78L516.3 578.61H500.85L527.27 508.78ZM445.02 508.78H497.25V521.69H460.36V536.69H494.2V548.62H460.36V565.7H498V578.61H445L445.02 508.78ZM419.43 555C418.057 553.723 416.446 552.727 414.69 552.07C412.527 551.225 410.304 550.539 408.04 550.02C405.56 549.433 403.05 548.767 400.51 548.02C397.921 547.375 395.372 546.574 392.88 545.62C390.496 544.727 388.256 543.491 386.23 541.95C384.265 540.439 382.648 538.522 381.49 536.33C380.218 533.799 379.596 530.991 379.68 528.16C379.6 524.897 380.394 521.672 381.98 518.82C383.48 516.212 385.527 513.961 387.98 512.22C390.529 510.427 393.377 509.103 396.39 508.31C399.45 507.472 402.608 507.045 405.78 507.04C409.319 507.028 412.848 507.437 416.29 508.26C419.498 509.02 422.534 510.377 425.24 512.26C427.832 514.072 429.96 516.47 431.45 519.26C433.065 522.455 433.855 526.002 433.75 529.58H418.9C418.842 527.778 418.392 526.01 417.58 524.4C416.875 523.083 415.841 521.971 414.58 521.17C413.275 520.364 411.835 519.802 410.33 519.51C408.607 519.172 406.855 519.008 405.1 519.02C403.85 519.021 402.603 519.151 401.38 519.41C400.182 519.655 399.039 520.12 398.01 520.78C397.015 521.413 396.163 522.248 395.51 523.23C394.812 524.342 394.464 525.638 394.51 526.95C394.455 528.111 394.725 529.264 395.29 530.28C396.075 531.338 397.143 532.152 398.37 532.63C400.424 533.528 402.552 534.248 404.73 534.78C407.437 535.5 410.973 536.413 415.34 537.52C416.673 537.78 418.483 538.253 420.77 538.94C423.219 539.688 425.544 540.794 427.67 542.22C430.03 543.797 432.044 545.839 433.59 548.22C435.354 551.113 436.22 554.465 436.08 557.85C436.106 560.916 435.471 563.951 434.22 566.75C432.962 569.514 431.071 571.943 428.7 573.84C425.996 575.965 422.906 577.544 419.6 578.49C415.515 579.662 411.279 580.221 407.03 580.15C403.251 580.158 399.487 579.681 395.83 578.73C392.384 577.866 389.133 576.356 386.25 574.28C383.475 572.256 381.215 569.608 379.65 566.55C377.944 563.089 377.136 559.255 377.3 555.4H392.17C392.101 557.473 392.537 559.532 393.44 561.4C394.231 562.984 395.39 564.356 396.82 565.4C398.311 566.454 399.987 567.217 401.76 567.65C403.678 568.142 405.65 568.387 407.63 568.38C409.094 568.358 410.554 568.231 412 568C413.525 567.784 415.008 567.339 416.4 566.68C417.731 566.058 418.901 565.137 419.82 563.99C420.768 562.743 421.252 561.205 421.19 559.64C421.236 558.787 421.104 557.933 420.801 557.134C420.497 556.335 420.031 555.608 419.43 555ZM318.55 508.78H370.78V521.69H333.9V536.69H367.74V548.62H333.9V565.7H371.55V578.61H318.55V508.78ZM248.13 508.78H285.78C288.671 508.735 291.543 509.247 294.24 510.29C296.644 511.237 298.836 512.65 300.69 514.45C302.465 516.183 303.864 518.263 304.8 520.56C305.757 522.937 306.24 525.478 306.22 528.04C306.316 531.76 305.423 535.439 303.63 538.7C301.679 541.886 298.692 544.304 295.17 545.55V545.75C296.894 546.188 298.496 547.009 299.86 548.15C301.085 549.226 302.102 550.517 302.86 551.96C303.661 553.482 304.237 555.112 304.57 556.8C304.924 558.543 305.168 560.307 305.3 562.08C305.36 563.187 305.427 564.49 305.5 565.99C305.573 567.49 305.687 569.023 305.84 570.59C305.988 572.091 306.249 573.578 306.62 575.04C306.922 576.323 307.468 577.535 308.23 578.61H292.92C292.007 576.063 291.481 573.393 291.36 570.69C291.167 567.623 290.873 564.69 290.48 561.89C289.96 558.237 288.853 555.57 287.16 553.89C285.467 552.21 282.697 551.363 278.85 551.35H263.49V578.64H248.13V508.78ZM230.06 656.45C228.442 656.384 226.841 656.791 225.45 657.62C224.344 658.326 223.391 659.248 222.65 660.33V648.09H216V682.46H222.56V679.26C223.226 680.273 224.07 681.157 225.05 681.87C227.177 683.048 229.654 683.43 232.037 682.946C234.419 682.462 236.551 681.145 238.05 679.23C240.015 676.338 241.003 672.894 240.87 669.4C241.015 666.051 240.005 662.754 238.01 660.06C237.07 658.867 235.857 657.917 234.474 657.289C233.091 656.661 231.577 656.373 230.06 656.45ZM232.41 675.57C231.977 676.23 231.382 676.768 230.682 677.132C229.981 677.497 229.199 677.675 228.41 677.65C227.546 677.708 226.681 677.54 225.901 677.163C225.121 676.786 224.452 676.213 223.96 675.5C222.934 673.884 222.425 671.993 222.5 670.08C222.45 668.539 222.691 667.002 223.21 665.55C223.577 664.536 224.262 663.667 225.163 663.074C226.064 662.481 227.133 662.196 228.21 662.26C229.288 662.201 230.356 662.497 231.248 663.104C232.141 663.712 232.809 664.596 233.15 665.62C233.665 667.056 233.905 668.575 233.86 670.1C233.945 672.03 233.435 673.939 232.4 675.57H232.41ZM261 657H268.07L259.35 682C257.663 686.827 256.33 689.827 255.35 691C254.37 692.173 252.407 692.753 249.46 692.74H248.04L246.43 692.66V687.34H247.27C247.894 687.371 248.52 687.348 249.14 687.27C249.672 687.211 250.183 687.026 250.63 686.73C251.141 686.289 251.519 685.714 251.72 685.07C251.966 684.591 252.112 684.067 252.15 683.53L242.81 657H250.21L255.77 675.77L261 657ZM306 629.26H317.11V666.26C317.11 670.78 316.347 674.363 314.82 677.01C312.233 681.483 307.567 683.72 300.82 683.72C294.073 683.72 289.547 681.91 287.24 678.29C284.933 674.67 283.78 669.733 283.78 663.48V662.25H294.28V663.48C294.373 667.593 294.797 670.487 295.55 672.16C296.303 673.833 297.923 674.67 300.41 674.67C302.87 674.67 304.497 673.757 305.29 671.93C305.864 670.163 306.105 668.305 306 666.45V629.26ZM352.4 627.64C344.8 627.64 338.99 629.71 334.97 633.85C329.657 638.737 327 646.05 327 655.79C327 665.337 329.693 672.65 335.08 677.73C339.08 681.87 344.89 683.94 352.51 683.94C360.13 683.94 365.94 681.87 369.94 677.73C375.273 672.657 377.94 665.343 377.94 655.79C377.94 646.05 375.273 638.737 369.94 633.85C365.887 629.717 360.06 627.65 352.46 627.65L352.4 627.64ZM362.88 669.64C361.643 671.223 360.048 672.491 358.227 673.337C356.405 674.184 354.408 674.586 352.4 674.51C350.386 674.582 348.383 674.178 346.554 673.332C344.724 672.486 343.12 671.221 341.87 669.64C339.29 666.393 338 661.777 338 655.79C338 649.803 339.31 645.183 341.93 641.93C343.18 640.349 344.784 639.084 346.614 638.238C348.443 637.392 350.446 636.988 352.46 637.06C354.475 636.99 356.478 637.402 358.303 638.261C360.127 639.12 361.72 640.402 362.95 642C365.537 645.26 366.83 649.873 366.83 655.84C366.83 661.807 365.537 666.41 362.95 669.65L362.88 669.64ZM427.88 666.9C427.923 669.209 427.441 671.498 426.471 673.594C425.501 675.69 424.068 677.538 422.28 679C418.527 682.213 413.22 683.82 406.36 683.82C399.36 683.82 393.853 682.24 389.84 679.08C385.827 675.92 383.827 671.587 383.84 666.08H394.45C394.605 668.046 395.297 669.931 396.45 671.53C398.29 673.723 401.447 674.817 405.92 674.81C408.126 674.874 410.328 674.58 412.44 673.94C415.607 672.833 417.19 670.777 417.19 667.77C417.21 666.942 417.003 666.125 416.592 665.406C416.182 664.687 415.583 664.094 414.86 663.69C412.544 662.483 410.054 661.643 407.48 661.2L401.72 659.94C396.06 658.693 392.173 657.333 390.06 655.86C386.473 653.407 384.68 649.57 384.68 644.35C384.632 642.107 385.079 639.88 385.988 637.829C386.897 635.778 388.246 633.951 389.94 632.48C393.447 629.327 398.597 627.75 405.39 627.75C410.588 627.603 415.691 629.17 419.91 632.21C423.91 635.183 426.01 639.497 426.21 645.15H415.54C415.534 643.726 415.128 642.332 414.37 641.127C413.612 639.921 412.531 638.952 411.25 638.33C409.176 637.38 406.91 636.924 404.63 637C402.178 636.882 399.745 637.483 397.63 638.73C396.805 639.232 396.127 639.943 395.665 640.791C395.203 641.639 394.974 642.595 395 643.56C394.972 644.445 395.201 645.319 395.661 646.075C396.121 646.832 396.791 647.438 397.59 647.82C399.854 648.824 402.226 649.562 404.66 650.02L413.99 652.22C418.083 653.18 421.15 654.467 423.19 656.08C426.337 658.56 427.91 662.167 427.91 666.9H427.88ZM446.88 672.9H476.32V682.46H436V629.27H475V638.69H446.89V650H472.73V659.24H446.89L446.88 672.9ZM485 629.34H522.92V638.68H496V650.91H519.6V660.15H496V682.45H485V629.34ZM586.35 633.34C583.217 630.6 579.02 629.23 573.76 629.23H550.92V682.42H561.92V663.33H573C578.78 663.33 583.227 662.03 586.34 659.43C589.453 656.83 591.007 652.393 591 646.12C591 640.373 589.447 636.127 586.34 633.38L586.35 633.34ZM577.89 652.21C576.232 653.57 574.121 654.253 571.98 654.12H562V638.51H572C574.117 638.385 576.21 639.012 577.91 640.28C579.303 641.427 580 643.397 580 646.19C580 648.983 579.297 651.003 577.89 652.25V652.21ZM641.49 678.04C641.242 676.406 641.144 674.752 641.2 673.1V669.53C641.2 665.803 640.69 663.03 639.67 661.21C638.474 659.245 636.632 657.757 634.46 657C637.167 656.178 639.437 654.315 640.77 651.82C642.006 649.53 642.662 646.972 642.68 644.37C642.708 642.46 642.368 640.562 641.68 638.78C641.028 637.158 640.123 635.65 639 634.31C637.656 632.687 635.941 631.411 634 630.59C631.312 629.62 628.467 629.155 625.61 629.22H600.2V682.41H611.06V661.6H621.91C625.003 661.6 627.113 662.167 628.24 663.3C629.367 664.433 629.953 666.697 630 670.09L630.07 675.03C630.092 676.568 630.249 678.1 630.54 679.61C630.687 680.33 630.927 681.28 631.26 682.46H643.53V681.13C642.993 680.798 642.533 680.355 642.181 679.831C641.829 679.306 641.594 678.713 641.49 678.09V678.04ZM628.38 651.88C626.68 652.551 624.855 652.848 623.03 652.75H611.03V638.51H623.3C625.064 638.406 626.827 638.728 628.44 639.45C630.44 640.557 631.44 642.72 631.44 645.94C631.493 648.927 630.47 650.923 628.37 651.93L628.38 651.88ZM684.72 629.22H696V662C696 667.653 695.123 672.057 693.37 675.21C690.103 680.983 683.873 683.87 674.68 683.87C665.487 683.87 659.243 680.983 655.95 675.21C654.197 672.057 653.32 667.653 653.32 662V629.27H664.61V661.93C664.61 665.583 665.043 668.25 665.91 669.93C667.243 672.91 670.167 674.4 674.68 674.4C679.193 674.4 682.107 672.91 683.42 669.93C684.287 668.25 684.72 665.583 684.72 661.93V629.22ZM748.19 666.85C748.235 669.172 747.749 671.473 746.77 673.578C745.791 675.684 744.344 677.538 742.54 679C738.78 682.213 733.473 683.82 726.62 683.82C719.62 683.82 714.113 682.24 710.1 679.08C706.087 675.92 704.087 671.587 704.1 666.08H714.71C714.865 668.046 715.557 669.931 716.71 671.53C718.55 673.723 721.707 674.817 726.18 674.81C728.386 674.875 730.588 674.581 732.7 673.94C735.867 672.833 737.45 670.777 737.45 667.77C737.47 666.942 737.263 666.125 736.852 665.406C736.442 664.687 735.843 664.094 735.12 663.69C732.801 662.482 730.307 661.642 727.73 661.2L722 659.9C716.34 658.653 712.453 657.293 710.34 655.82C706.753 653.367 704.963 649.53 704.97 644.31C704.921 642.067 705.368 639.84 706.277 637.789C707.186 635.737 708.535 633.911 710.23 632.44C713.737 629.287 718.887 627.71 725.68 627.71C730.878 627.563 735.981 629.13 740.2 632.17C744.2 635.143 746.3 639.457 746.5 645.11H735.8C735.794 643.686 735.388 642.292 734.63 641.087C733.872 639.881 732.791 638.912 731.51 638.29C729.436 637.339 727.17 636.884 724.89 636.96C722.438 636.843 720.005 637.444 717.89 638.69C717.065 639.192 716.387 639.903 715.925 640.751C715.463 641.599 715.234 642.555 715.26 643.52C715.232 644.405 715.461 645.279 715.921 646.035C716.381 646.792 717.051 647.398 717.85 647.78C720.114 648.785 722.486 649.523 724.92 649.98L734.25 652.18C738.337 653.14 741.403 654.427 743.45 656.04C746.603 658.547 748.18 662.167 748.18 666.9L748.19 666.85ZM771.19 629.22L752.19 682.41H763.81L767.41 671.48H787L790.51 682.41H802.56L783.74 629.22H771.19ZM770.46 662.31L777.36 641.38L784.08 662.31H770.46Z" fill="white"/>
</g>
<defs>
<clipPath id="clip0_2_3225">
<rect width="1024" height="1024" fill="white"/>
</clipPath>
</defs>
</svg>
