<svg width="1024" height="1024" viewBox="0 0 1024 1024" fill="none" xmlns="http://www.w3.org/2000/svg">
<g clip-path="url(#clip0_2_3228)">
<path d="M512 1024C794.77 1024 1024 794.77 1024 512C1024 229.23 794.77 0 512 0C229.23 0 0 229.23 0 512C0 794.77 229.23 1024 512 1024Z" fill="#F8C18C"/>
<path d="M460.37 468.74C464.57 474.83 468.54 481.19 472.07 486.84C474.28 490.38 476.55 494.01 478.87 497.61H463C461.207 497.607 459.447 498.094 457.912 499.02C456.377 499.945 455.124 501.273 454.29 502.86C441.23 502.15 423.89 498.25 412.47 484.24C410.266 481.519 408.361 478.569 406.79 475.44C423.3 472.47 441.31 470.22 460.37 468.74ZM722.64 767.51C722.64 767.51 698.64 719.97 677.25 723.51C661.18 726.19 645.1 798.1 645.1 798.1C645.1 798.1 627.33 639.28 544 558.28L539.23 555.91H548.41C821.96 529.31 657.35 479.21 657.35 479.21C710.85 484.21 732.02 518.93 732.02 518.93C755.84 573.72 716.1 618.44 708.81 647.81C701 679 722.64 767.51 722.64 767.51ZM704.64 718.35C704.353 717.23 704.066 716.08 703.78 714.9C703.2 712.55 702.62 710.1 702.05 707.59C701.763 706.33 701.48 705.057 701.2 703.77C700.09 698.62 699.04 693.26 698.2 687.93C697.986 686.597 697.783 685.263 697.59 683.93C697.396 682.597 697.216 681.263 697.05 679.93C696.883 678.597 696.733 677.293 696.6 676.02C695.988 670.593 695.767 665.129 695.94 659.67C695.986 658.563 696.06 657.487 696.16 656.44C696.405 652.746 697.257 649.118 698.68 645.7C702.55 637.23 705.97 629.53 708.98 622.5C709.733 620.747 710.46 619.033 711.16 617.36C711.86 615.687 712.526 614.053 713.16 612.46C713.826 610.867 714.456 609.313 715.05 607.8C715.643 606.287 716.226 604.81 716.8 603.37C717.92 600.49 718.953 597.75 719.9 595.15C720.373 593.817 720.826 592.547 721.26 591.34C723.21 585.78 724.75 580.86 725.94 576.45C726.206 575.47 726.456 574.513 726.69 573.58C726.923 572.647 727.14 571.74 727.34 570.86C727.44 570.42 727.536 569.983 727.63 569.55C727.816 568.683 727.986 567.84 728.14 567.02C729.889 558.706 730.055 550.136 728.63 541.76C728.63 541.76 728.58 509.26 697.3 495.2C697.3 495.2 743.14 519.9 690.19 541.73V554.12L684.39 544L682.74 544.58V566.15L672.34 547.87C650.01 554.31 617.14 560.24 569.59 564.87H562.42L566.18 568.43C632.51 632.87 645.7 765.32 645.7 765.32C645.7 765.32 660.79 708.11 673.58 705.97C673.87 705.97 674.17 705.89 674.46 705.86H676.92L677.35 705.92L677.72 705.98L678.16 706.07L678.52 706.15L678.96 706.27L679.32 706.37L679.78 706.51L680.13 706.62L680.61 706.8L680.94 706.92L681.45 707.14L681.74 707.26L682.39 707.57L682.54 707.64L683.34 708.06L683.54 708.17L684.15 708.51L684.43 708.68L684.95 709L685.26 709.21L685.74 709.53L686.07 709.76L686.53 710.08L686.87 710.33L687.32 710.66L687.67 710.93L688.11 711.27L688.46 711.55L688.9 711.91L689.24 712.2L689.67 712.57L690.02 712.88L690.44 713.26L690.78 713.58L691.2 713.97L691.54 714.3L691.95 714.7L692.29 715.03L692.7 715.44L693.03 715.78L693.44 716.21L693.77 716.55L694.18 716.98L694.5 717.33L694.91 717.77L695.23 718.12L695.63 718.57L695.94 718.93L696.34 719.39L696.64 719.74L697.04 720.21L697.33 720.56L697.73 721.04L698.01 721.38L698.41 721.87L698.68 722.21L699.08 722.71L699.33 723.03L699.74 723.57L699.97 723.86L700.41 724.44L700.6 724.69L701.09 725.34L701.22 725.51C701.83 726.34 702.42 727.16 702.99 727.97L703.06 728.07L703.54 728.76L703.68 728.96L704.08 729.54L704.26 729.8L704.61 730.31L704.79 730.58L705.11 731.06L705.3 731.34L705.6 731.8L705.78 732.08L706.07 732.53L706.24 732.8L706.52 733.23L706.69 733.5L706.95 733.91L707.12 734.17L707.37 734.57L707.52 734.81L707.76 735.2L707.91 735.44L708.13 735.8L708.28 736.04L708.48 736.37L708.62 736.6L708.82 736.93L708.94 737.13L709.12 737.44L709.24 737.64L709.41 737.92L709.52 738.1L709.68 738.37L709.77 738.52L709.91 738.77L710 738.92L710.13 739.14L710.2 739.26L710.31 739.45L710.38 739.57L710.48 739.74V739.82L710.6 740.03L710.68 740.18V740.27C710.68 740.27 707.88 731.27 704.59 718.36L704.64 718.35ZM693.24 643.27C724.62 574.57 725.24 558.27 722.77 542.76V541.82C722.494 536.723 721.428 531.7 719.61 526.93C716.08 533.93 708.25 540.24 696.24 545.69V576.69L692.17 569.54L688.81 563.63V588.63L684.74 581.48L677.67 569.06L669.57 554.82C646.44 561.03 615.11 566.18 576.34 570.15C608.03 604.4 626.59 653.6 636.66 689.37C641.96 708.19 645.55 725.46 647.87 738.49C648.37 737.063 648.87 735.677 649.37 734.33C659.95 705.62 667.37 700.93 672.71 700.04C673.658 699.881 674.618 699.801 675.58 699.8C682.23 699.8 689.35 703.56 696.8 710.99C696.17 708.27 695.57 705.6 695.03 702.99C688.83 674.21 688.25 654.09 693.19 643.28L693.24 643.27ZM378.9 799.09C378.9 799.09 362.82 727.18 346.75 724.5C325.32 720.93 301.36 768.5 301.36 768.5C301.36 768.5 323 679.96 315.23 648.8C307.94 619.43 268.23 574.71 292.02 519.92C292.02 519.92 313.19 485.25 366.69 480.2C366.69 480.2 202.09 530.29 475.63 556.9H484.81L480 559.24C396.67 640.23 378.9 799.09 378.9 799.09ZM461.58 565.84H454.41C406.86 561.22 373.99 555.29 351.66 548.84L341.26 567.12V545.56L339.61 544.98L333.83 555.14V542.75C280.83 520.92 326.72 496.22 326.72 496.22C295.44 510.28 295.39 542.78 295.39 542.78C293.964 551.156 294.131 559.725 295.88 568.04C296.04 568.86 296.21 569.703 296.39 570.57C296.483 571.003 296.58 571.44 296.68 571.88C296.88 572.767 297.096 573.673 297.33 574.6C297.563 575.527 297.813 576.483 298.08 577.47C299.28 581.88 300.82 586.8 302.76 592.36C303.193 593.593 303.646 594.863 304.12 596.17C305.066 598.77 306.1 601.51 307.22 604.39C307.78 605.83 308.363 607.307 308.97 608.82C309.576 610.333 310.206 611.887 310.86 613.48C311.526 615.073 312.193 616.707 312.86 618.38C313.526 620.053 314.253 621.767 315.04 623.52C318.04 630.52 321.47 638.24 325.34 646.72C326.762 650.138 327.614 653.766 327.86 657.46C327.96 658.507 328.033 659.583 328.08 660.69C328.252 666.149 328.032 671.613 327.42 677.04C327.286 678.333 327.136 679.637 326.97 680.95C326.803 682.263 326.623 683.597 326.43 684.95C326.236 686.283 326.033 687.617 325.82 688.95C324.95 694.28 323.91 699.64 322.82 704.79C322.54 706.077 322.256 707.35 321.97 708.61C321.4 711.12 320.82 713.61 320.24 715.92C319.953 717.093 319.666 718.243 319.38 719.37C316.1 732.29 313.15 741.53 313.15 741.53V741.44L313.23 741.29L313.35 741.08V741L313.45 740.83L313.52 740.71L313.63 740.52L313.7 740.4L313.83 740.18L313.92 740.03L314.06 739.78L314.15 739.63L314.31 739.36L314.42 739.18L314.59 738.9L314.71 738.7L314.89 738.39L315.01 738.19L315.21 737.86L315.35 737.63L315.55 737.3L315.7 737.06L315.92 736.7L316.07 736.46L316.31 736.07L316.46 735.83L316.71 735.43L316.88 735.17L317.14 734.76L317.31 734.49L317.59 734.06L317.76 733.79L318.05 733.34L318.23 733.06L318.53 732.6L318.72 732.32L319.04 731.84L319.22 731.57L319.57 731.06L319.75 730.8L320.15 730.22L320.29 730.02L320.77 729.33L320.84 729.23C321.41 728.42 322 727.6 322.61 726.77L322.74 726.6L323.22 725.95L323.41 725.7L323.85 725.12L324.08 724.83L324.49 724.29L324.74 723.97L325.14 723.47L325.41 723.13L325.81 722.64L326.09 722.3L326.49 721.82L326.78 721.47L327.18 721L327.48 720.65L327.88 720.19L328.19 719.83L328.59 719.38L328.91 719.03L329.32 718.59L329.64 718.24L330.05 717.81L330.38 717.47L330.79 717.04L331.12 716.7L331.53 716.29L331.87 715.96L332.28 715.56L332.62 715.23L333.04 714.84L333.38 714.52L333.8 714.14L334.15 713.83L334.58 713.46L334.92 713.17L335.36 712.81L335.71 712.53L336.15 712.19L336.5 711.92L336.95 711.59L337.29 711.34L337.75 711.02L338.08 710.79L338.56 710.47L338.87 710.26L339.39 709.94L339.67 709.77L340.28 709.43L340.48 709.32L341.28 708.9L341.43 708.83L342.08 708.52L342.37 708.4L342.88 708.18L343.21 708.06L343.69 707.88L344.04 707.77L344.5 707.63L344.86 707.53L345.3 707.41L345.66 707.33L346.1 707.24L346.47 707.18L346.9 707.12H349.36C349.65 707.12 349.95 707.18 350.24 707.23C363.03 709.37 378.12 766.58 378.12 766.58C378.12 766.58 391.31 634.13 457.64 569.69L461.58 565.84ZM346.43 570.07L339.36 582.49L335.29 589.64V564.64L331.93 570.55L327.86 577.7V546.7C315.86 541.25 308.02 534.96 304.49 527.94C302.67 532.713 301.604 537.739 301.33 542.84V543.77C298.82 559.29 299.47 575.58 330.86 644.28C335.8 655.09 335.23 675.21 329.15 704.07C328.6 706.67 328.01 709.34 327.38 712.07C334.83 704.64 341.94 700.88 348.6 700.88C349.561 700.881 350.521 700.961 351.47 701.12C356.78 702.01 364.23 706.71 374.82 735.41C375.313 736.743 375.813 738.13 376.32 739.57C378.64 726.57 382.23 709.27 387.53 690.45C397.6 654.67 416.16 605.45 447.85 571.23C409.08 567.23 377.74 562.11 354.62 555.9L346.43 570.07ZM434.85 307.58C440.29 291.58 448.85 276.58 454.92 260.66C461.22 244.35 466.63 227.73 472.44 211.28C483.14 181.03 495.51 150.73 515.88 125.92C517.32 124.17 520.52 120.64 523.45 120.25C524.091 120.154 524.747 120.245 525.34 120.51C527.53 121.51 527.74 126.51 528.24 128.57C529.67 134.38 530.92 140.24 532.12 146.1C534.51 157.84 536.64 169.64 539.48 181.28C546.08 208.28 556.48 234.17 566.18 260.18C571.34 273.94 576.51 288.09 580.97 302.49C570.052 300.278 558.725 301.299 548.38 305.43C546.22 306.3 544.75 308.28 545.38 310.7C545.92 312.7 548.53 314.56 550.66 313.7C560.893 309.475 572.247 308.799 582.91 311.78C583.194 311.86 583.485 311.914 583.78 311.94C585.25 317.14 586.62 322.36 587.84 327.61L588.19 329.12L588.64 328.82C588.764 328.734 588.909 328.682 589.06 328.67L596.74 328.17L599.74 327.96L597.96 325.96L603.41 324.96L607.18 326.9L611.9 399.55L608.28 402.85L604.15 403.12V401.23L602.66 401.33L593.87 401.9C593.726 401.898 593.585 401.86 593.459 401.79C593.334 401.721 593.227 401.621 593.15 401.5L592.3 400.21L591.94 402.3C591.73 403.55 591.51 404.8 591.26 406.05C587.26 426.6 581.92 427.05 578.65 434.47L578.12 435.65C576.46 440.65 574.59 445.54 572.56 450.38C572.19 451.66 571.78 453.12 571.32 454.79C570.16 458.119 568.472 461.239 566.32 464.03C563.04 470.73 559.51 477.31 555.82 483.78C546.21 500.64 536.38 518.14 523.04 532.32C515.2 540.65 489.64 503.11 485.62 496.98C476.39 482.98 468.19 468.17 457.72 454.98C456.48 453.43 453.29 449.98 453.51 447.46L452.99 446.91C444.19 437.66 438.52 425.84 434.79 413.15L434.34 411.63L433.85 412.05C433.708 412.175 433.528 412.249 433.34 412.26L424.61 412.83L423.12 412.93L423.27 414.42V414.84L419.14 415.11L415.14 412.31L410.41 339.66L413.89 337.25L419.43 337.58L419.37 337.9L419.04 339.72L420.89 339.6L428.14 339.13L428.31 337.67C428.917 332.065 429.846 326.499 431.09 321C431.333 320.89 431.568 320.759 431.79 320.61C436.46 317.46 442.51 317.04 447.93 316.36C454.23 315.59 460.54 315.22 466.71 316.86C472.04 318.28 474.33 310.01 468.99 308.59C461.68 306.64 454.23 306.96 446.79 307.93C442.473 308.312 438.195 309.047 434 310.13C434.31 309.28 434.57 308.43 434.86 307.59L434.85 307.58ZM524.74 365.21C526.03 390.76 542.06 410.72 560.55 409.79C574.49 409.09 585.84 396.71 590.04 379.71C593.01 367.364 592.166 354.407 587.62 342.55C581.51 326.98 569.36 316.55 555.89 317.26C537.42 318.21 523.47 339.67 524.76 365.22L524.74 365.21ZM540.2 435.66C538.49 435.1 536.2 437.37 535.12 440.73C534.04 444.09 534.52 447.26 536.24 447.82C537.96 448.38 540.24 446.11 541.32 442.75C542.4 439.39 541.92 436.23 540.21 435.68L540.2 435.66ZM505.42 502C505.42 502 492.47 488.45 472.54 467.55L498.66 508.68L507.56 516.53L518.74 526.3L529.84 515.08L551.15 481.62C541.38 491.78 531.77 500.31 531.77 500.31L518.45 512.31L505.42 502ZM495.83 440.85C495.406 439.476 494.705 438.203 493.77 437.11C493.65 436.977 493.53 436.853 493.41 436.74L493.07 436.45H493.02L492.7 436.23H492.62L492.33 436.07H492.23L491.96 435.97H491.12C490.875 435.992 490.639 436.071 490.43 436.2L490.33 436.27L490.12 436.44L490.02 436.54L489.83 436.76L489.75 436.86C489.583 437.121 489.452 437.404 489.36 437.7V437.83C489.36 437.95 489.29 438.07 489.26 438.2V438.37C489.26 438.5 489.26 438.64 489.2 438.78C489.14 438.92 489.2 438.88 489.2 438.94V439.54C489.195 440.757 489.391 441.966 489.78 443.12C490.88 446.48 493.15 448.74 494.86 448.19C496.57 447.64 496.93 444.18 495.83 440.83V440.85ZM459.61 322.11C446.9 322.75 436.33 333.11 431.39 347.81C426.533 362.863 427.606 379.202 434.39 393.49C440.91 406.73 452.06 415.26 464.29 414.65C482.78 413.72 496.73 392.25 495.44 366.7C494.15 341.15 478.1 321.18 459.61 322.11ZM474.8 516.06L476.58 515.95H482.84C483.871 515.95 484.861 515.54 485.59 514.811C486.32 514.081 486.73 513.092 486.73 512.06V507.45C486.73 506.418 486.32 505.429 485.59 504.699C484.861 503.97 483.871 503.56 482.84 503.56H463C461.968 503.56 460.978 503.97 460.249 504.699C459.519 505.429 459.11 506.418 459.11 507.45V509C430.24 509 378.61 496.41 397.72 402.73L399.63 402.61L399.88 406.41C399.913 406.908 400.142 407.372 400.517 407.702C400.891 408.032 401.381 408.2 401.88 408.17L404.74 407.98L405.24 415.6L413.92 416.94L410.27 412.41L405.76 342.99L407.52 335.3L407.65 335.22L407.56 334.53H407.72L406.14 288.65L405.71 289L406.03 288.71C406.03 288.71 405.15 282.15 418.28 278.43C421.51 277.52 434.28 275.79 443.92 274.56L453.12 252.18C437.51 254.81 414.18 259.47 405.94 264.91C393.18 273.34 397.51 283.3 400.15 293.76L401.9 333.76L400.29 339.54L400.85 348.09L397.99 348.28C397.492 348.313 397.027 348.542 396.697 348.917C396.368 349.292 396.199 349.782 396.23 350.28L398.53 385.65C397.71 384.13 396.53 384.65 396.53 384.65L393.62 383.89C393.62 383.89 345.43 524.48 474.8 516.06ZM591.33 267.15C604.81 269.15 604.81 275.76 604.81 275.76L604.94 275.85L609.07 321.41H609.22V322.1L609.36 322.16L612.1 329.55L616.62 398.96L613.62 403.96L622.06 401.5L621.57 393.91L624.42 393.72C624.918 393.686 625.382 393.457 625.712 393.083C626.042 392.708 626.21 392.218 626.18 391.72L622.53 335.59C622.496 335.092 622.267 334.627 621.892 334.298C621.518 333.968 621.028 333.8 620.53 333.83L617.67 334.02L617.11 325.45L614.76 319.93L611.48 278.82C612.8 268.54 615.03 258.65 601.83 252.21C594.55 248.66 578.95 246.84 565.83 245.91L573.63 266.7C581.3 266.66 588.9 266.79 591.33 267.15ZM549 390.44C549 387.981 549.729 385.578 551.094 383.534C552.46 381.49 554.402 379.897 556.673 378.956C558.944 378.015 561.443 377.769 563.855 378.249C566.266 378.728 568.481 379.912 570.219 381.651C571.957 383.389 573.141 385.604 573.621 388.015C574.1 390.426 573.854 392.925 572.913 395.197C571.973 397.468 570.379 399.409 568.335 400.775C566.291 402.141 563.888 402.87 561.43 402.87C559.797 402.87 558.181 402.548 556.673 401.924C555.165 401.299 553.794 400.383 552.64 399.229C551.486 398.075 550.57 396.705 549.946 395.197C549.321 393.689 549 392.072 549 390.44ZM554 396.55C554 397.41 554.255 398.251 554.733 398.967C555.211 399.682 555.89 400.24 556.685 400.569C557.48 400.898 558.354 400.984 559.198 400.816C560.042 400.648 560.817 400.234 561.425 399.626C562.034 399.017 562.448 398.242 562.616 397.399C562.784 396.555 562.698 395.68 562.368 394.885C562.039 394.09 561.482 393.411 560.766 392.933C560.051 392.455 559.21 392.2 558.35 392.2C557.196 392.2 556.089 392.658 555.274 393.474C554.458 394.29 554 395.396 554 396.55ZM463.29 384C465.534 384 467.729 384.666 469.595 385.913C471.462 387.16 472.917 388.932 473.776 391.006C474.635 393.08 474.859 395.362 474.421 397.564C473.984 399.766 472.903 401.788 471.315 403.376C469.728 404.963 467.706 406.044 465.504 406.482C463.302 406.92 461.02 406.695 458.946 405.836C456.872 404.977 455.1 403.522 453.852 401.656C452.605 399.789 451.94 397.595 451.94 395.35C451.94 392.34 453.135 389.453 455.264 387.324C457.392 385.196 460.279 384 463.29 384ZM461.41 400.66C461.41 401.52 461.665 402.361 462.143 403.077C462.621 403.792 463.3 404.35 464.095 404.679C464.89 405.008 465.764 405.094 466.608 404.926C467.452 404.758 468.227 404.344 468.835 403.736C469.444 403.127 469.858 402.352 470.026 401.509C470.194 400.665 470.108 399.79 469.778 398.995C469.449 398.2 468.892 397.521 468.176 397.043C467.461 396.565 466.62 396.31 465.76 396.31C465.186 396.31 464.618 396.423 464.088 396.644C463.558 396.864 463.077 397.187 462.673 397.595C462.269 398.002 461.949 398.485 461.732 399.016C461.515 399.547 461.406 400.116 461.41 400.69V400.66ZM680 494.62C672.109 490.812 663.959 487.567 655.61 484.91L629.85 477.07C610.223 473.218 590.39 470.51 570.45 468.96C567.61 474.65 564.45 480.46 560.95 486.68L560.2 488C550.67 504.73 540.81 522 527.34 536.35C526.429 537.335 525.323 538.118 524.091 538.648C522.86 539.179 521.53 539.445 520.19 539.43C515.95 539.43 509.37 537.34 495.94 521.06C494.568 519.404 493.234 517.717 491.94 516C491.174 517.751 489.915 519.243 488.317 520.292C486.72 521.341 484.851 521.903 482.94 521.91H476.86L475.28 522.01C471.46 522.26 467.68 522.39 464.07 522.39C431.63 522.39 408.01 512.39 393.86 492.53C391.12 488.692 388.775 484.588 386.86 480.28L368.49 485.87C360.169 488.521 352.045 491.756 344.18 495.55C328.49 503.29 323.28 509.84 323.63 513.39C323.83 515.39 326.57 522.53 353.45 530.79C379.33 538.79 420.56 545.51 475.99 550.92H510.24L501.88 555L487.47 562.17L483.54 564.17C466.8 580.59 451.42 601.78 437.84 627.17C438.28 631.24 438.93 635.39 439.77 639.52C441.85 649.63 443.72 659.61 445.53 669.26C448.74 686.39 451.79 702.61 455.53 717.12L455.74 717.96L457.23 723.75C445.05 725.87 434.28 756.38 434.28 780.29C434.28 799.09 441.88 816.96 451.1 824.49L448 833.5L428.32 861.31C433.579 856.764 439.818 853.496 446.55 851.76C444.37 856.02 442.03 862.04 443.79 865.76L453.32 856.25L459.57 850.96C467.57 852.01 476.37 856.1 485.19 865.76L473.59 836.89L472.14 821.6C477.55 814.68 481.6 802.8 486.57 788.22C487.947 784.028 488.599 779.631 488.5 775.22L494.43 777.39C500.505 779.653 506.947 780.772 513.43 780.69C520.234 780.797 526.982 779.433 533.21 776.69L538.96 774.18C539.152 777.411 539.702 780.61 540.6 783.72C544.72 797.62 547.44 809.29 551.53 816.59L549.93 833.46L538.33 862.35C546.33 853.59 554.33 849.41 561.7 847.92L568.05 853.29L577.58 862.8C579.49 858.75 576.58 852.03 574.28 847.8C582.022 849.266 589.24 852.754 595.2 857.91L575.48 830.1L572.36 821C581.58 813.47 589.19 795.6 589.19 776.79C589.19 755.23 580.43 728.29 569.78 721.65L571.38 715.74L574.38 704.56L574.23 704.61C576.87 693.82 579.28 682.4 581.79 670.51C584.36 658.48 587 646 590 633.6C575.48 604.92 558.81 581.25 540.45 563.24L536.52 561.24L522.11 554.07L513.83 550H548.08C603.51 544.6 644.74 537.83 670.62 529.88C697.5 521.62 700.24 514.47 700.44 512.48C700.79 508.89 695.6 502.35 680 494.62Z" fill="white"/>
</g>
<defs>
<clipPath id="clip0_2_3228">
<rect width="1024" height="1024" fill="white"/>
</clipPath>
</defs>
</svg>
