<svg width="1024" height="1024" fill="none" xmlns="http://www.w3.org/2000/svg"><g clip-path="url(#a)"><path d="M512 1024c282.77 0 512-229.23 512-512S794.77 0 512 0 0 229.23 0 512s229.23 512 512 512Z" fill="#FF837D"/><path d="M815 440.95a27.533 27.533 0 0 1-16.55 25.22L602.11 550.9a22.697 22.697 0 0 1-29.84-11.84 22.702 22.702 0 0 1 11.84-29.84l158.16-68.28-158.15-68.27a22.7 22.7 0 1 1 18-41.68l196.33 84.73A27.526 27.526 0 0 1 815 440.95Zm-423.37 2.68c14.87 15.1 23.06 36 23.06 58.81 0 46.27-37.13 82.51-84.52 82.51H292.4v47.11a22.7 22.7 0 0 1-45.4 0V442a22.81 22.81 0 0 1 22.69-22.7h59.47c25.18-.04 46.78 8.38 62.47 24.33Zm-22.33 58.81c0-20.21-11.16-41.82-42.49-41.82H292.4v83h35.76c23.84-.04 41.15-17.34 41.15-41.18h-.01Zm202.15-39.8a21.699 21.699 0 0 0 14.917-36.8 21.699 21.699 0 0 0-14.917-6.58H439.82a21.688 21.688 0 0 0-21.69 21.69 21.688 21.688 0 0 0 21.69 21.69h43.11v169.41a22.7 22.7 0 0 0 45.4 0V462.64h43.12Z" fill="#fff"/></g><defs><clipPath id="a"><path fill="#fff" d="M0 0h1024v1024H0z"/></clipPath></defs></svg>