<svg width="1024" height="1024" fill="none" xmlns="http://www.w3.org/2000/svg"><g clip-path="url(#a)"><path d="M512 1024c282.77 0 512-229.23 512-512S794.77 0 512 0 0 229.23 0 512s229.23 512 512 512Z" fill="#8C72BD"/><path d="m247 296 12.35 18.05 4.33 6.33L260.35 728l496.34-7.78 6.53-403.85 13.78-19h-13.48v-1.2l-276.18.49L247 296Zm259.58 26.9a114.912 114.912 0 0 1 112.713 137.322 114.902 114.902 0 0 1-31.446 58.838 114.909 114.909 0 0 1-196.167-81.25 114.878 114.878 0 0 1 33.641-81.262A114.878 114.878 0 0 1 506.58 322.9Zm220.55 4L621.54 472.26a120.002 120.002 0 0 0-68.32-145.06l173.91-.31v.01Zm-267.57.48a119.999 119.999 0 0 0-70.25 135.92l-92.79-135.64 163-.29.04.01Zm272.27 32.2-5.13 317.15-145.95-109.16 151.07-208 .01.01ZM294 364.72l141.92 207.47-144.52 111 2.6-318.46v-.01Zm212.58 6.88a72.66 72.66 0 1 0 72.66 72.66 72.69 72.69 0 0 0-72.67-72.66h.01ZM457.95 404c.655.028 1.307.105 1.95.23 7.46 1.45 12.4 9 11 16.84-1.4 7.84-8.56 13-16 11.58-7.44-1.42-12.4-9-11-16.84A13.92 13.92 0 0 1 457.95 404ZM575 536.39l-69.9 96.18-64.82-94.75A119.869 119.869 0 0 0 575 536.39Zm-7.73 49.79 139.18 104.13-394.63 6.19 137.1-105.3 55.61 81.3 62.69-86.31.05-.01Z" fill="#fff"/></g><defs><clipPath id="a"><path fill="#fff" d="M0 0h1024v1024H0z"/></clipPath></defs></svg>