<svg width="1024" height="1024" fill="none" xmlns="http://www.w3.org/2000/svg"><g clip-path="url(#a)"><path d="M512 1024c282.77 0 512-229.23 512-512S794.77 0 512 0 0 229.23 0 512s229.23 512 512 512Z" fill="#728DBE"/><path d="M510.16 257.46c-129.91 0-121.8 56.34-121.8 56.34l.14 58.37h124v17.52H339.26s-83.13-9.43-83.13 121.66 72.56 126.44 72.56 126.44H372V577s-2.33-72.56 71.4-72.56h123s69.08 1.12 69.08-66.77V325.38s10.44-67.92-125.32-67.92Zm-68.36 39.25a22.303 22.303 0 0 1 20.602 13.766 22.294 22.294 0 0 1-4.834 24.302 22.294 22.294 0 0 1-34.31-3.379 22.3 22.3 0 0 1-3.758-12.389 22.27 22.27 0 0 1 6.526-15.774 22.267 22.267 0 0 1 15.774-6.526Zm72 469.84c129.91 0 121.8-56.34 121.8-56.34l-.14-58.37h-124v-17.53h173.28s83.13 9.43 83.13-121.66-72.56-126.44-72.56-126.44H652V447s2.33 72.56-71.4 72.56h-123s-69.08-1.12-69.08 66.77v112.29s-10.44 67.92 125.32 67.92l-.04.01Zm68.36-39.25a22.3 22.3 0 1 1 15.785-6.546 22.278 22.278 0 0 1-15.745 6.536l-.04.01Z" fill="#fff"/></g><defs><clipPath id="a"><path fill="#fff" d="M0 0h1024v1024H0z"/></clipPath></defs></svg>