<svg width="1024" height="1024" fill="none" xmlns="http://www.w3.org/2000/svg"><g clip-path="url(#a)"><path d="M512 1024c282.77 0 512-229.23 512-512S794.77 0 512 0 0 229.23 0 512s229.23 512 512 512Z" fill="#FF837D"/><path d="M494.89 358.52a235.72 235.72 0 0 0-164.89-70h-69l5.18 13.53c5.92 15.44 12.55 27.89 19.86 38.14a133.592 133.592 0 0 0 26.92 27l.2.19c48.18 34.07 115.84 27 198.43 102.38l.67 1.17c5 4.58 9.43 6.26 13 6.19h.82a8.778 8.778 0 0 0 7.238-4.717 8.77 8.77 0 0 0-.318-8.633 19 19 0 0 1-3.84-12.53 155.861 155.861 0 0 1 60.81 32.24l-1.5 3c-2.89 5.79-14.54 8.78-28.69 11.61-10.9 2.21-23.35 4.3-34.46 7.6v-.11c-16.75 4.86-30.34 12.29-30.74 26.5a22.883 22.883 0 0 0 14.2 21.72l16.71 6.68A408.294 408.294 0 0 1 668.8 657.9a2.171 2.171 0 0 1 0 3c-.49.143-1.01.143-1.5 0a1.507 1.507 0 0 1-1.17 0 407.813 407.813 0 0 0-177.75-82.36 426.132 426.132 0 0 0-14.23-2.5 10.857 10.857 0 0 1-9.19-9.52c-12.06-112.14-116.62-126.2-166.81-191a127.584 127.584 0 0 1-9.27-13.68l125 327.61H825L494.89 358.52Z" fill="#fff"/></g><defs><clipPath id="a"><path fill="#fff" d="M0 0h1024v1024H0z"/></clipPath></defs></svg>