<svg width="1024" height="1024" viewBox="0 0 1024 1024" fill="none" xmlns="http://www.w3.org/2000/svg">
<g clip-path="url(#clip0_2_3252)">
<path d="M512 1024C794.77 1024 1024 794.77 1024 512C1024 229.23 794.77 0 512 0C229.23 0 0 229.23 0 512C0 794.77 229.23 1024 512 1024Z" fill="#98DC9A"/>
<path d="M442.69 428.16C452.87 428.16 461.11 436.41 461.11 446.58C461.11 456.75 452.86 465 442.69 465C432.52 465 424.27 456.75 424.27 446.58C424.27 436.41 432.52 428.16 442.69 428.16ZM618.94 419.41H588.67V458.97H568.3V487.33H588.67V544.44C588.67 555.6 590.09 564.74 592.92 571.85C595.76 578.96 599.6 584.56 604.46 588.66C609.32 592.76 615.03 595.57 621.61 597.1C628.18 598.63 632.66 599.4 640.13 599.4H662.88V572.39H643.24C639.91 572.39 636.78 571.96 633.86 571.11C630.94 570.26 628.34 568.77 626.1 566.65C623.85 564.54 622.07 561.66 620.77 558.01C619.47 554.37 618.81 549.75 618.81 544.17V487.33H663.24V458.97H618.95V419.4L618.94 419.41ZM384.05 507.04C384.05 518.43 382.07 529.16 378.12 539.24C374.17 549.32 368.71 558.41 361.76 566.49L378.41 583.14C384.42 589.15 384.45 598.89 378.47 604.93C372.43 611.05 362.55 611.05 356.5 604.95L338.03 586.31C330.64 590.66 322.75 593.98 314.36 596.29C305.97 598.59 297.17 599.75 287.96 599.75C274.66 599.75 262.19 597.33 250.54 592.51C238.89 587.68 228.74 581.08 220.09 572.69C211.44 564.31 204.6 554.48 199.56 543.23C194.52 531.98 192 519.91 192 507.05C192 494.19 194.52 482 199.56 470.74C204.6 459.48 211.44 449.69 220.09 441.34C228.74 433 238.89 426.44 250.54 421.65C262.18 416.87 274.66 414.48 287.96 414.48C301.26 414.48 313.62 416.87 325.31 421.65C337 426.43 347.19 432.99 355.88 441.34C364.57 449.68 371.44 459.48 376.48 470.74C381.52 482 384.04 494.1 384.04 507.05M346.62 532.67C349.92 524.8 351.57 516.31 351.57 507.18C351.57 498.05 349.92 489.53 346.62 481.62C343.32 473.71 338.8 466.87 333.06 461.09C327.32 455.31 320.59 450.77 312.85 447.47C305.11 444.17 296.82 442.52 287.95 442.52C279.08 442.52 270.94 444.17 263.25 447.47C255.56 450.77 248.84 455.31 243.11 461.09C237.37 466.87 232.83 473.72 229.48 481.62C226.13 489.53 224.46 498.05 224.46 507.18C224.46 516.31 226.13 524.8 229.48 532.67C232.83 540.53 237.37 547.36 243.11 553.14C248.85 558.92 255.56 563.46 263.25 566.77C270.94 570.07 279.17 571.72 287.95 571.72C296.73 571.72 305.11 570.07 312.85 566.77C320.59 563.47 327.32 558.93 333.06 553.14C338.8 547.36 343.32 540.54 346.62 532.67ZM831.99 467.04V595.82H805.96L804.21 581.68C801.62 584.18 798.71 586.52 795.45 588.69C792.2 590.86 788.67 592.76 784.87 594.39C781.07 596.02 776.99 597.31 772.61 598.27C768.23 599.23 763.62 599.71 758.78 599.71C748.52 599.71 739.15 597.94 730.68 594.39C722.21 590.84 714.98 585.99 708.97 579.81C702.96 573.64 698.29 566.4 694.95 558.1C691.61 549.8 689.95 540.93 689.95 531.5C689.95 522.07 691.6 513.21 694.89 504.91C698.18 496.61 702.86 489.37 708.91 483.19C714.96 477.02 722.22 472.14 730.69 468.55C739.16 464.97 748.56 463.17 758.91 463.17C763.83 463.17 768.46 463.65 772.8 464.61C777.14 465.57 781.22 466.86 785.06 468.49C788.9 470.12 792.43 472.04 795.64 474.25C798.85 476.46 801.71 478.78 804.21 481.2L805.96 467.06H831.99V467.04ZM799.7 548.45C801.87 543.32 802.95 537.62 802.95 531.37C802.95 525.12 801.87 519.67 799.7 514.54C797.53 509.41 794.57 505.01 790.81 501.34C787.06 497.67 782.68 494.79 777.67 492.7C772.67 490.61 767.28 489.57 761.53 489.57C755.78 489.57 750.39 490.59 745.38 492.64C740.37 494.69 736.02 497.56 732.3 501.28C728.59 504.99 725.67 509.4 723.54 514.48C721.41 519.57 720.35 525.2 720.35 531.38C720.35 537.56 721.43 543.23 723.6 548.4C725.77 553.58 728.73 558.02 732.49 561.73C736.24 565.44 740.62 568.32 745.63 570.37C750.64 572.42 756.02 573.44 761.77 573.44C767.52 573.44 772.78 572.42 777.79 570.37C782.79 568.33 787.15 565.45 790.87 561.73C794.58 558.02 797.52 553.6 799.69 548.47M427.82 595.98H457.5V485.65H427.82V595.98ZM501.71 595.98H531.39V485.65H501.71V595.98ZM516.55 428.18C506.37 428.18 498.13 436.43 498.13 446.6C498.13 456.77 506.38 465.02 516.55 465.02C526.72 465.02 534.97 456.77 534.97 446.6C534.97 436.43 526.72 428.18 516.55 428.18Z" fill="white"/>
</g>
<defs>
<clipPath id="clip0_2_3252">
<rect width="1024" height="1024" fill="white"/>
</clipPath>
</defs>
</svg>
