<svg width="1024" height="1024" viewBox="0 0 1024 1024" fill="none" xmlns="http://www.w3.org/2000/svg">
<g clip-path="url(#clip0_2_3255)">
<path d="M512 1024C794.77 1024 1024 794.77 1024 512C1024 229.23 794.77 0 512 0C229.23 0 0 229.23 0 512C0 794.77 229.23 1024 512 1024Z" fill="#54688C"/>
<path d="M338.3 299.3C351.6 295.6 366.2 297 378.4 303.3C391.6 309.9 401.9 322 406.4 336.1C423.9 336.3 441.3 336.1 458.8 336.3C463.3 322.7 473.1 310.9 485.9 304.4C497.6 298.2 511.6 296.5 524.5 299.4C536.5 302.1 547.5 308.9 555.3 318.5C559.6 323.8 563 330 565.1 336.5C582.4 336.7 599.7 336.5 617 336.6C622.4 319.5 636.5 305.6 653.7 300.4C666.7 296.4 681.2 297.3 693.6 303C708.5 309.8 720.1 323.4 724.2 339.3C727.7 352.1 726.4 366 720.7 377.9C714.4 391.4 702.4 402 688.3 406.8C688 424.2 687.9 441.6 687.9 459C704.4 464.4 717.9 477.9 723.3 494.4C727.5 507.2 727 521.5 721.7 533.9C715.6 548.6 702.9 560.3 687.7 565.2C687.6 582.7 687.8 600.1 687.8 617.6C704.6 622.9 718.5 636.5 723.9 653.3C729.8 670.9 726.2 691.3 714.5 705.8C709.4 712.2 702.9 717.5 695.6 721.1C683.6 727.1 669.3 728.5 656.3 725C640.9 721 627.5 710 620.5 695.7C614.3 683.3 613.1 668.7 616.9 655.4C621.9 637.6 636.3 622.9 654 617.5C654.2 600.3 654.4 583.1 654.5 566C637.4 561.1 623.2 547.6 617.4 530.8C599.8 531.2 582.3 531.9 564.8 532.8C558.6 549.4 544 562.5 526.8 566.9C514.2 570.2 500.3 569 488.5 563.3C473 556 461.3 541.2 457.8 524.4C454.8 510.6 457.3 495.6 464.7 483.5C471.6 472.2 482.6 463.5 495.3 459.4C495.4 442 495.2 424.6 495.1 407.2C477.9 402 463.9 387.9 458.6 370.7C441.2 370.8 423.8 370.6 406.3 370.6C402.1 384 392.5 395.5 380.2 402.2C368.5 408.7 354.5 410.7 341.5 407.9C330.3 405.6 319.9 399.6 312.1 391.2C302.6 381.1 297.1 367.3 297.1 353.3C297 341.1 301.1 328.9 308.5 319.2C316 309.7 326.6 302.5 338.3 299.3ZM565.3 370.9C560 387.8 546.2 401.7 529.3 407C529.3 424.4 529.3 441.8 529.4 459.2C539.6 462.4 548.9 468.6 555.7 476.8C561.1 483.3 565 491.2 566.9 499.4C583.3 499 599.7 498.3 616.2 497.4C618.8 487.8 623.9 478.9 631 472C637.8 465.3 646.3 460.5 655.5 457.9C655.8 441.1 655.6 424.4 655.5 407.6C637.6 402.8 622.6 388.5 617 370.8C599.7 371 582.5 370.8 565.3 370.9ZM309.4 477.8C301 488.6 296.8 502.6 297.9 516.3C298.9 529.5 304.7 542.3 314.2 551.6C323.4 560.9 335.9 566.7 348.9 567.8C360.2 568.8 371.7 566.3 381.5 560.7C393.1 554.1 402.2 543.3 406.6 530.7C411 518.2 410.8 504.1 406 491.8C400.8 478.3 390.2 467.1 377.1 461.1C367.2 456.6 356 455 345.2 456.6C331.2 458.7 318.1 466.5 309.4 477.8ZM307 639.4C299.8 650.3 296.6 663.8 298.2 676.8C300.1 693.6 310.1 709.2 324.6 717.9C335.6 724.7 349.1 727.4 361.9 725.5C378.1 723.3 392.9 713.4 401.5 699.5C408.7 688 411.3 673.8 409 660.4C406.3 644.2 396 629.6 381.8 621.5C371.5 615.6 359.3 613.1 347.5 614.4C331.1 616.4 315.9 625.7 307 639.4ZM467.1 636.7C459.4 647 455.4 660 456.1 672.9C456.5 681.5 458.9 689.9 463.1 697.4C468.7 707.4 477.3 715.6 487.6 720.6C497.5 725.4 508.7 727.1 519.6 725.7C536.5 723.5 552.1 713 560.5 698.2C567.3 686.6 569.5 672.5 566.9 659.3C563.7 642.7 552.5 627.9 537.4 620.3C526.9 614.9 514.7 613.1 503 614.9C488.8 617.2 475.7 625.2 467.1 636.7Z" fill="white"/>
</g>
<defs>
<clipPath id="clip0_2_3255">
<rect width="1024" height="1024" fill="white"/>
</clipPath>
</defs>
</svg>
