<svg width="1024" height="1024" fill="none" xmlns="http://www.w3.org/2000/svg"><g clip-path="url(#a)"><path d="M512 1024c282.77 0 512-229.23 512-512S794.77 0 512 0 0 229.23 0 512s229.23 512 512 512Z" fill="#56595B"/><path d="M677.93 571.16h-45.16v-31.42h-63.82v31.42h-45.17v-92.79a23.744 23.744 0 0 1 8.84-19.15c5.89-4.42 14.24-6.38 25-6.38h86.4c10.8 0 19.15 2.45 25 6.87 5.85 4.42 8.84 10.8 8.84 19.15l.07 92.3Zm-45.16-53v-34.39h-63.82v34.36l63.82.03Zm207.66-59.4c-4.42-3.44-11.78-5.4-21.11-5.89h-85.91c-10.8 0-19.15 2.45-25 6.87a21.893 21.893 0 0 0-8.84 18.16v93.78h45.13v-30.96h73.15c20.13 0 29.95-7.85 29.95-24.06v-38.29c-.01-9.37-2.46-15.71-7.37-19.63v.02Zm-38.78 55.47h-57.44v-30.46h57.44v30.46Zm-334.81-61.39H460v68.73c-.49.49-1 1.47-2.45 1a1.736 1.736 0 0 1-1.47-1c-7.36-11.29-36.82-52-46.15-64.8l-.49-.49a14.783 14.783 0 0 0-9.82-3.44h-36.86c-4.42 0-8.35 1.47-10.8 3.93a14.062 14.062 0 0 0-3.96 10.31v104.57h42.71s0-55-.49-71.18c0-1 1-2.45 4.42-2.45 0 0 1.47 0 2 1C405 512.25 459 571.65 459 571.65h44.67V452.84h-36.83Zm-193.43 90.82c-.49-.49-1.47-1-2-1.47h-47.58v-62.35h63.33v53c19.15 5.89 31.91 13.75 40.75 20.62a37.496 37.496 0 0 0 2.45-13.25v-57.42c0-19.64-11.78-30.44-34.86-31.42h-80c-26 0-39.27 10.31-39.27 31.42v57.93c0 21.11 13.25 31.42 39.27 31.42h76.09a80.579 80.579 0 0 0 11.29-1c-6.39-9.31-18.18-19.14-29.47-27.48Zm-14.73-14.24c14.24 8.84 40.26 27 48.6 43.2h32.4c-5.39-9.81-24.05-33.86-81-43.19v-.01Z" fill="#fff"/></g><defs><clipPath id="a"><path fill="#fff" d="M0 0h1024v1024H0z"/></clipPath></defs></svg>