<svg width="1024" height="1024" viewBox="0 0 1024 1024" fill="none" xmlns="http://www.w3.org/2000/svg">
<g clip-path="url(#clip0_2_3261)">
<path d="M512 1024C794.77 1024 1024 794.77 1024 512C1024 229.23 794.77 0 512 0C229.23 0 0 229.23 0 512C0 794.77 229.23 1024 512 1024Z" fill="#98DC9A"/>
<path d="M486.51 435.24C494.63 449.78 498.59 473 498.59 505.1C498.59 537.01 494.59 559.86 486.88 573.26C478.95 586.67 463.88 593.46 441.37 593.46C418.86 593.46 403.61 586.46 395.68 572.88C387.75 559.3 383.78 536.44 383.78 504.72C383.78 472.81 387.93 449.77 396.05 435.23C404.36 420.69 419.46 413.52 441.37 413.52C463.47 413.53 478.39 420.71 486.51 435.24ZM789 308V639.17L712.15 716H235V384.83L311.85 308H789ZM500.48 612.36C514.08 603.3 523.7 590.08 529.75 572.71C535.6 555.53 538.62 532.87 538.62 504.71C538.62 462.043 531.383 430.51 516.91 410.11C502.56 389.53 477.26 379.33 441.19 379.33C405.31 379.33 379.82 389.72 365.28 410.33C350.74 430.94 343.38 462.44 343.38 504.93C343.38 547.23 350.56 578.38 364.91 598.02C379.26 617.66 404.75 627.48 441.19 627.48C451.01 627.48 458.19 626.91 462.72 625.4L493.88 676.57L529.94 659.77L500.48 612.36ZM675.14 618.59L673.44 588L644.74 589.13C636.24 589.13 630.74 586.86 628.74 582.13C626.74 577.4 625.53 567.97 625.53 553.62V476.41H673.87V443.93H625.48V393.14H587.48V443.93H560.72V476.6H587.34V558C587.34 583.3 591.12 600.48 598.48 609.55C605.84 618.62 619.48 623.15 639.27 623.15C647.57 623.12 659.47 621.61 675.14 618.59Z" fill="white"/>
</g>
<defs>
<clipPath id="clip0_2_3261">
<rect width="1024" height="1024" fill="white"/>
</clipPath>
</defs>
</svg>
