<svg width="1024" height="1024" fill="none" xmlns="http://www.w3.org/2000/svg"><g clip-path="url(#a)"><path d="M512 1024c282.77 0 512-229.23 512-512S794.77 0 512 0 0 229.23 0 512s229.23 512 512 512Z" fill="#71A372"/><path d="M416 500.68c44.7-82.31 103.58-144.62 157.08-173.54l-53.73-84.6c-4.23-6.63-11-6.63-15 0L210.36 706c-4.23 6.63-.69 8.57 7 8.57h140.25c-2.17-59.91 15.78-135.82 58.42-213.9M591.4 379.84c-28.81-15.78-91 42.64-138.9 130.56-47.9 87.92-63.22 171.83-34.41 187.72 20.92 11.32 56.13-18.52 93.75-67.57V518.29c0-11.66 7.32-18.06 12.8-7.89L556 569.62c.46-.69.69-1.26 1.14-1.94 47.9-87.91 63.22-171.94 34.3-187.83M813.64 706 695 518.86a557.488 557.488 0 0 1-45.62 109.41 614.042 614.042 0 0 1-33.5 54.3l22.41 32h168.4c7.66 0 11.2-1.94 7-8.57" fill="#fff"/></g><defs><clipPath id="a"><path fill="#fff" d="M0 0h1024v1024H0z"/></clipPath></defs></svg>