<svg width="1024" height="1024" fill="none" xmlns="http://www.w3.org/2000/svg"><g clip-path="url(#a)"><path d="M512 1024c282.77 0 512-229.23 512-512S794.77 0 512 0 0 229.23 0 512s229.23 512 512 512Z" fill="#F8C18C"/><path d="M512 235.41 272 373.59v276.83L512 788.6l102.59-59.27V623.8L512 683.28l-148.55-85.52v-171l148.55-86 148.53 86v117.85L752 491.94V373.57L512 235.4v.01Zm0 159c-34.2 19.8-68.397 39.607-102.59 59.42v118.34c34.2 19.64 68.397 39.283 102.59 58.93l102.58-59.42c-.14-39.3.29-78.93-.21-118L512 394.37v.04Zm240 149.73-91.46 53v105.65L752 650V544.14Z" fill="#fff"/></g><defs><clipPath id="a"><path fill="#fff" d="M0 0h1024v1024H0z"/></clipPath></defs></svg>