<svg width="1024" height="1024" viewBox="0 0 1024 1024" fill="none" xmlns="http://www.w3.org/2000/svg">
<g clip-path="url(#clip0_2_3270)">
<path d="M512 1024C794.77 1024 1024 794.77 1024 512C1024 229.23 794.77 0 512 0C229.23 0 0 229.23 0 512C0 794.77 229.23 1024 512 1024Z" fill="#F8C18C"/>
<path d="M512 235.41L272 373.59V650.42L512 788.6L614.59 729.33V623.8L512 683.28L363.45 597.76V426.76L512 340.76L660.53 426.76V544.61L752 491.94V373.57L512 235.4V235.41ZM512 394.41C477.8 414.21 443.603 434.017 409.41 453.83V572.17C443.61 591.81 477.807 611.453 512 631.1L614.58 571.68C614.44 532.38 614.87 492.75 614.37 453.68L512 394.37V394.41ZM752 544.14L660.54 597.14V702.79L752 650V544.14Z" fill="white"/>
</g>
<defs>
<clipPath id="clip0_2_3270">
<rect width="1024" height="1024" fill="white"/>
</clipPath>
</defs>
</svg>
