<svg width="1024" height="1024" fill="none" xmlns="http://www.w3.org/2000/svg"><g clip-path="url(#a)"><path d="M512 1024c282.77 0 512-229.23 512-512S794.77 0 512 0 0 229.23 0 512s229.23 512 512 512Z" fill="#54688C"/><path d="m317.45 412.86 293.7-95.43 95.43 293.7-293.7 95.43-12.47-38.4a326.842 326.842 0 0 1-51.28 0L381.57 768 768 642.43 642.43 256 256 381.57l60.72 186.89 4.15 1 .57.14a203.064 203.064 0 0 0 48.71 5.51l-52.7-162.25ZM470 586.57a288.794 288.794 0 0 0 131.37-84l32.51 20.32a306.655 306.655 0 0 1-150.33 102.94 307.565 307.565 0 0 1-182.8 6.77l13.55-35.22A289.128 289.128 0 0 0 470 586.57Z" fill="#fff"/></g><defs><clipPath id="a"><path fill="#fff" d="M0 0h1024v1024H0z"/></clipPath></defs></svg>