<svg width="1024" height="1024" fill="none" xmlns="http://www.w3.org/2000/svg"><g clip-path="url(#a)"><path d="M512 1024c282.77 0 512-229.23 512-512S794.77 0 512 0 0 229.23 0 512s229.23 512 512 512Z" fill="#56595B"/><path d="M256 321.35v66.27c7.92 9.2 17 17.35 25.63 25.78.367-15.207.7-30.4 1-45.58a25776.054 25776.054 0 0 1 141.48 141.64C378 556.71 330.47 602.61 284.45 650c-1.78-21.86-14.29-39.16-28.45-54.75v102.26h68.89c9.22-7.94 17.37-17 25.81-25.68-16.07-.39-32.16-.65-48.25-1A27187.005 27187.005 0 0 1 444 529.44c19.49 15.83 35.84 37 60.34 45.19 33.2 4 53-27.48 74.82-46.68 46.39 46.68 92.58 93.62 139.83 139.44-19.41 5.54-35.68 17.22-50.78 30.12H768v-63.66c-7.91-9.2-17-17.35-25.63-25.78-.367 15.18-.7 30.373-1 45.58a25669.478 25669.478 0 0 1-143.14-143.23A22732.236 22732.236 0 0 0 740 368.58c.65 23 12.62 41.61 28 57.63V321.35h-74.34c-8.86 8.2-17.29 16.82-25.78 25.39 17.893.473 35.77.91 53.63 1.31C666.57 403.66 610.69 458.39 556 514.31c-12.07 11.6-23.61 24.71-39.29 31.5-13.84 2.61-24.55-6.66-33.15-15.78a18961.982 18961.982 0 0 0-180.09-180.25c21.84-1.78 39.16-14.29 54.75-28.45H256v.02Zm173.56 0a330.268 330.268 0 0 0-24.11 25.73c23.35-3 53.6 9.72 71.44-11.08 5.64-4.81 11.05-9.87 16.72-14.65h-64.05Zm133.46 0c-8.88 8.31-17.35 17.06-25.84 25.76 21.733.18 43.467.12 65.2-.18 8.57-8.62 17.08-17.32 26-25.57l-65.36-.01ZM256 459.88v63.9c8.49 9 17.42 17.48 26.36 26-.34-19.38 1.33-39-1.25-58.25-6.11-12.06-16.73-21.18-25.11-31.65Zm485.64 11.83c.34 19.36-1.33 39 1.25 58.25 6.14 12 16.72 21.16 25.1 31.63V497.7c-8.49-9-17.42-17.48-26.36-26l.01.01Zm-287.5 199.23a192.768 192.768 0 0 0-25.47 1.52c-12 6.09-21.06 16.72-31.53 25.05H461c9-8.49 17.48-17.42 26-26.36-10.92.19-21.92-.25-32.89-.21h.03Zm136 .06c-8.559-.11-17.116.368-25.61 1.43-12 6.11-21.05 16.74-31.53 25.08h61.75c10-8.18 19.17-17.16 28.47-26.07-11.01.12-22.08-.44-33.1-.44h.02Z" fill="#fff"/></g><defs><clipPath id="a"><path fill="#fff" d="M0 0h1024v1024H0z"/></clipPath></defs></svg>