<svg width="1024" height="1024" viewBox="0 0 1024 1024" fill="none" xmlns="http://www.w3.org/2000/svg">
<g clip-path="url(#clip0_2_3285)">
<path d="M512 1024C794.77 1024 1024 794.77 1024 512C1024 229.23 794.77 0 512 0C229.23 0 0 229.23 0 512C0 794.77 229.23 1024 512 1024Z" fill="#728DBE"/>
<path d="M376.78 600.29L503.68 716.74H368C288.47 716.74 224 652.27 224 572.74C224 513.93 259.32 463.48 309.85 441.13C309.53 445.53 309.33 449.46 309.33 453.47C309.33 506.14 330.43 555.66 368.74 592.89C371.25 595.32 373.88 597.74 376.79 600.29H376.78ZM714.16 441.16C714.44 444.99 714.68 449.21 714.68 453.46C714.68 498.76 698.52 542.97 669.17 577.93C664.83 583.11 660.14 588.14 655.25 592.89C652.7 595.37 649.99 597.86 647.22 600.29L520.32 716.75H656C733.94 716.75 797.73 654.75 799.95 576.84C801.66 516.61 766.06 464.12 714.16 441.16ZM511.98 531.98C519.22 506.21 533.31 482.82 553.25 463.98C582.3 436.53 620.3 422.06 660.26 423.18C676.32 423.64 692.27 426.77 707.72 432.48C703.01 390.7 684.31 350.13 651.34 318.09C574.4 243.31 449.61 243.31 372.65 318.09C339.69 350.12 320.99 390.68 316.28 432.45C333.02 426.26 350.41 423.12 368 423.12C436.38 423.12 494.19 469.23 511.99 531.99L511.98 531.98ZM367.99 434.37C352.03 434.37 336.24 437.17 321 442.7C320.73 446.56 320.56 450.02 320.56 453.48C320.56 503.09 340.45 549.73 376.56 584.83C378.94 587.14 381.45 589.44 384.23 591.88L384.33 591.97L506.37 703.96V572.75C506.37 496.45 444.29 434.37 367.99 434.37ZM659.93 434.43C658.6 434.39 657.27 434.37 655.94 434.37C581.44 434.37 519.8 493.88 517.67 568.82L517.61 572.8V703.96L639.75 591.88C642.4 589.56 644.97 587.19 647.4 584.83C652.02 580.34 656.44 575.59 660.54 570.71C688.19 537.77 703.41 496.14 703.42 453.48C703.42 449.84 703.22 446.15 702.98 442.74C688.94 437.64 674.47 434.85 659.93 434.44V434.43Z" fill="white"/>
</g>
<defs>
<clipPath id="clip0_2_3285">
<rect width="1024" height="1024" fill="white"/>
</clipPath>
</defs>
</svg>
