<svg width="1024" height="1024" fill="none" xmlns="http://www.w3.org/2000/svg"><g clip-path="url(#a)"><path d="M512 1024c282.77 0 512-229.23 512-512S794.77 0 512 0 0 229.23 0 512s229.23 512 512 512Z" fill="#728DBE"/><path d="M655.84 463.39h-18.3l-30.32 79.69-30.07-79.69h-18.29l32.83 87a16.74 16.74 0 0 0 31.57-2l32.58-85Zm176.66 78.93h-34.33a30.315 30.315 0 0 1-28.012-18.717 30.312 30.312 0 0 1 0-23.206 30.316 30.316 0 0 1 16.409-16.409 30.315 30.315 0 0 1 11.603-2.308h34.33v-18.29h-34.33a48.614 48.614 0 1 0 0 97.23h34.33v-18.3Zm-136.32-78.93a43.63 43.63 0 0 0-43.6 43.6v53.37h18.29V507a25.562 25.562 0 0 1 25.565-25.565A25.566 25.566 0 0 1 722 507v53.88h18.29V507c-.51-24.07-20.05-43.61-44.11-43.61ZM274.44 501a38.077 38.077 0 0 0-37.59-37.84H191.5v97.23h18.29v-21.8h22.3l17.29 21.8h23.56l-20-25.31a37.607 37.607 0 0 0 21.5-34.08Zm-37.59 19.55h-27.06v-39.12h27.06a19.36 19.36 0 0 1 19.55 19.3c0 10.77-9.02 19.79-19.54 19.79l-.01.03Zm325.51 21.8h-21.8a30.048 30.048 0 0 1-30.32-30.07v-49.14H492v48.61a48.66 48.66 0 0 0 48.61 48.61h21.8l-.05-18.01Zm-123.78-79.21a43.63 43.63 0 0 0-43.6 43.6v53.37h18.29v-18.54h51.12v18.54h18.29V507a44.118 44.118 0 0 0-44.1-43.85v-.01ZM413 523.78v-17.03c0-6.779 2.693-13.28 7.486-18.074a25.563 25.563 0 0 1 36.148 0 25.563 25.563 0 0 1 7.486 18.074v17.04l-51.12-.01Zm-27.56-23.05a51.472 51.472 0 0 0-55.114-40.064 51.471 51.471 0 0 0-46.576 49.732 51.473 51.473 0 0 0 79.224 44.839A51.474 51.474 0 0 0 384.7 526h-19.3a33.166 33.166 0 0 1-29.3 19.067A33.16 33.16 0 0 1 306 527.29l79.44-26.56Zm-50.12-22.3a32.26 32.26 0 0 1 24.81 11.28L302 509.24a33.55 33.55 0 0 1 33.34-30.82l-.02.01Z" fill="#fff"/></g><defs><clipPath id="a"><path fill="#fff" d="M0 0h1024v1024H0z"/></clipPath></defs></svg>