<svg width="1024" height="1024" fill="none" xmlns="http://www.w3.org/2000/svg"><g clip-path="url(#a)"><path d="M512 1024c282.77 0 512-229.23 512-512S794.77 0 512 0 0 229.23 0 512s229.23 512 512 512Z" fill="#98DC9A"/><path d="M513 222.16c-.22.22-7 .65-15 1.08-8 .43-15.95.86-17.78 1.08-1.83.22-6.9 1.08-11.32 1.72-21 3-48 10.67-68.75 19.61a292.388 292.388 0 0 0-152.04 150.44 295.752 295.752 0 0 0-23.49 90.31c-1.4 16.38-.75 51.19 1.19 61.43.22 1.08.75 4.74 1.08 8 .54 4.85 3.34 18 6.57 30.71.32 1.19.86 3.77 1.19 5.6.33 1.83 1 3.56 1.4 3.56.4 0 .86.65.86 1.51 0 3.34 6 19.94 7.11 19.29.65-.32.75-.11.43.43-1 1.62 1.83 8.08 3 7.11.43-.54.54-.22.11.54-.43.76.54 4.63 2.69 9.16 3.66 8 16.27 31 18.21 33.41.65.75 3.13 4.42 5.5 8.19 4.1 6.47 18.1 24.35 24.25 31.14 41.92 45.37 92.14 75.11 149.15 88.47 7.44 1.72 15.84 3.45 18.64 3.88 2.533.261 5.05.658 7.54 1.19 14 2.69 70.91 2.69 81.58-.11a42.248 42.248 0 0 1 5.39-1.08c17.89-2.8 46.12-10.56 59.27-16.27 2-1 4.74-2 5.93-2.48 1.19-.48 7-3.13 12.93-5.93a289.489 289.489 0 0 0 116.5-101.43c11.53-17.13 18.64-31 26.94-52.59C785.64 611 792 590.28 793 584.9c.22-1.51.86-4.42 1.4-6.47.54-2.05 1.29-5.5 1.62-7.54.33-2.04.75-5 1.08-6.47 3.23-17 4.1-53.56 1.72-71.66-1.29-10-5.17-28-6.47-30.5-.43-.75-2.91 6.14-5.6 15.84-2.59 9.38-4.85 17-5 16.92a56.936 56.936 0 0 1-.86-6.57 218.398 218.398 0 0 0-4.31-29.1c-2.8-14.12-8.41-32.54-13.15-43.64-3.66-8.41-11.32-22.63-12.18-22.63-.43 0-.75 8.41-.75 18.54-.32 56.58-7.33 106-20.69 145.37-7 20.8-21.34 51.62-31.79 68.65a221 221 0 0 1-107.33 89.23c-9.38 3.56-30.39 9.48-38.26 10.67-31.68 5-56.79 4.42-85.35-1.72C384.22 706 317.4 637.7 301.45 554.18c-2.48-12.82-2.69-14-3.56-25.76-1.08-15.52-.54-37.39 1.29-45.91.22-1.4.75-4.42 1.08-6.57.33-2.15 1.83-8.73 3.34-14.55 1.51-5.82 2.8-11.42 3-12.29 2.26-9.7 15.63-38.58 23.49-51.19 16.38-25.86 41.49-51.08 67.78-68 24.25-15.52 58-27.91 88.26-32.33 7.76-1.08 40.73-1.4 49-.32 21.12 2.48 24 2.91 37.72 5.39 49.36 9.05 98.6 30.39 156.58 68.11 7.76 5.17 14.22 8.73 14.22 8 0-2.16-10.45-19.72-17-28.67a237.942 237.942 0 0 0-43.75-45.26c-5.17-4.2-9.27-7.65-8.84-7.65 1.583.37 3.133.875 4.63 1.51 9.7 3.66 28.56 9.38 29.53 9.05.65-.22-3.34-5-8.94-10.45-26.94-27-62-48-101.84-60.78-12.07-4-30.5-8.62-38.58-9.81-2.37-.43-8.19-1.29-12.93-2s-13.79-1.51-19.94-1.72c-6.15-.21-11.53-.43-12-.75a.996.996 0 0 0-.99-.07Z" fill="#fff"/></g><defs><clipPath id="a"><path fill="#fff" d="M0 0h1024v1024H0z"/></clipPath></defs></svg>