<svg width="1024" height="1024" fill="none" xmlns="http://www.w3.org/2000/svg"><g clip-path="url(#a)"><path d="M512 1024c282.77 0 512-229.23 512-512S794.77 0 512 0 0 229.23 0 512s229.23 512 512 512Z" fill="#8C72BD"/><path d="M551.4 272c61.1 0 108.2 17.2 140 48.6 26.7 26.7 41.3 64.3 41.3 111.1 0 77.5-41.7 126.1-102.7 148.8 7.8 11.5 47 68.6 117.4 171.5H623.8L519.6 598.5 456 505.2h88.8c51.5 0 80.8-27.4 80.8-69.1 0-45.3-31.4-68.7-83-68.7h-181l-65-95.4h254.8ZM429.3 605.3c-1 .1-1 49 0 146.7h-110V605.3c74.4-.1 111-.1 110 0Z" fill="#fff"/></g><defs><clipPath id="a"><path fill="#fff" d="M0 0h1024v1024H0z"/></clipPath></defs></svg>