<svg width="1024" height="1024" viewBox="0 0 1024 1024" fill="none" xmlns="http://www.w3.org/2000/svg">
<g clip-path="url(#clip0_2_3321)">
<path d="M512 1024C794.77 1024 1024 794.77 1024 512C1024 229.23 794.77 0 512 0C229.23 0 0 229.23 0 512C0 794.77 229.23 1024 512 1024Z" fill="#56595B"/>
<path d="M694.26 434.13L512 321.91V244L694.3 356.22L694.26 434.13ZM512 546.3L392.95 473L511.95 399.72V321.83L329.7 434.08V512L512 624.21L694.3 512V434.1L512 546.3ZM512 702.09L393 628.81L441.29 599.09L378.02 560.09L329.7 589.84V667.78L512 780L694.3 667.78V589.87L512 702.09Z" fill="white"/>
</g>
<defs>
<clipPath id="clip0_2_3321">
<rect width="1024" height="1024" fill="white"/>
</clipPath>
</defs>
</svg>
