<svg width="1024" height="1024" fill="none" xmlns="http://www.w3.org/2000/svg"><g clip-path="url(#a)"><path d="M512 1024c282.77 0 512-229.23 512-512S794.77 0 512 0 0 229.23 0 512s229.23 512 512 512Z" fill="#56595B"/><path d="M694.26 434.13 512 321.91V244l182.3 112.22-.04 77.91ZM512 546.3 392.95 473l119-73.28v-77.89L329.7 434.08V512L512 624.21 694.3 512v-77.9L512 546.3Zm0 155.79-119-73.28 48.29-29.72-63.27-39-48.32 29.75v77.94L512 780l182.3-112.22v-77.91L512 702.09Z" fill="#fff"/></g><defs><clipPath id="a"><path fill="#fff" d="M0 0h1024v1024H0z"/></clipPath></defs></svg>