<svg width="1024" height="1024" fill="none" xmlns="http://www.w3.org/2000/svg"><g clip-path="url(#a)"><path d="M512 1024c282.77 0 512-229.23 512-512S794.77 0 512 0 0 229.23 0 512s229.23 512 512 512Z" fill="#96DFD3"/><path d="M589.49 273.66h-5.58v62.72h63v-62.72h-57.42Zm-166.7 0A149.058 149.058 0 0 0 273.66 422.8v224.12h63V422a89.739 89.739 0 0 1 86.41-85.3H543.5v-63H422.8l-.01-.04ZM692.91 480.5h-5.58v63h63v-63h-57.42Zm0-103.42h-5.58v63h63v-63h-57.42Zm51.85-103.42h-57.42v62.72h63v-62.72h-5.58Zm-51.85 310.26h-5.58v63h63v-63h-57.42Zm0 103.42h-5.58v63h63v-63h-57.42Zm-103.42 0h-5.58v63h63v-63h-57.42Zm-103.42 0h-5.57v63h63v-63h-57.43Zm-103.42 0h-5.58v63h63v-63H382.65Zm-103.42 0h-5.58v63h62.72v-63h-57.14Z" fill="#fff"/></g><defs><clipPath id="a"><path fill="#fff" d="M0 0h1024v1024H0z"/></clipPath></defs></svg>