<svg width="1024" height="1024" fill="none" xmlns="http://www.w3.org/2000/svg"><g clip-path="url(#a)"><path d="M512 1024c282.77 0 512-229.23 512-512S794.77 0 512 0 0 229.23 0 512s229.23 512 512 512Z" fill="#F8C18C"/><path d="M709.85 455.54a95.146 95.146 0 0 0-18.16-5.7 141.645 141.645 0 0 0-14.78-53.21 178.506 178.506 0 0 1-19.85 34.84c-20.48 27.66-46.88 50.25-74.75 69.68-56.59 38.64-120.57 65.46-187.08 83.41-42.86 11.4-87 19.22-132.18 21.75A107.994 107.994 0 0 0 355.32 658h17.53c61.867-.213 123.737-.353 185.61-.42 32.94 0 66.09.42 99 .21 21.12-.21 38.85.21 57.86-10.35 17.95-9.92 32.73-24.92 44.34-41.6a99.66 99.66 0 0 0-49.83-150.34l.02.04Zm-322.22 94.81c64.4-11.4 128-31.67 185.18-64.19 28.51-16.26 55.53-35.9 77.28-60.39a157.683 157.683 0 0 0 23.44-35.26 145.003 145.003 0 0 0-123.922-74.519A144.997 144.997 0 0 0 422.89 385.65a75.317 75.317 0 0 0-35.47-8.65 76.35 76.35 0 0 0-76.23 73.48c-38.22 17.31-64.19 56-64.19 99 0 3.38.21 6.76.42 10.14 46.46 2.55 93.76-1.04 140.21-9.27Z" fill="#fff"/></g><defs><clipPath id="a"><path fill="#fff" d="M0 0h1024v1024H0z"/></clipPath></defs></svg>