<svg width="1024" height="1024" viewBox="0 0 1024 1024" fill="none" xmlns="http://www.w3.org/2000/svg">
<g clip-path="url(#clip0_2_3330)">
<path d="M512 1024C794.77 1024 1024 794.77 1024 512C1024 229.23 794.77 0 512 0C229.23 0 0 229.23 0 512C0 794.77 229.23 1024 512 1024Z" fill="#FF837D"/>
<path d="M574.74 285.81C574.742 298.217 571.065 310.345 564.174 320.662C557.282 330.979 547.486 339.021 536.025 343.771C524.563 348.521 511.95 349.765 499.782 347.346C487.613 344.928 476.435 338.955 467.66 330.184C458.886 321.412 452.91 310.236 450.487 298.068C448.065 285.9 449.305 273.287 454.051 261.823C458.797 250.36 466.836 240.562 477.151 233.667C487.465 226.773 499.593 223.092 512 223.09C520.238 223.089 528.395 224.71 536.006 227.861C543.618 231.012 550.534 235.632 556.36 241.456C562.186 247.28 566.807 254.195 569.961 261.805C573.115 269.415 574.739 277.572 574.74 285.81ZM395.43 687.24C394.695 686.714 393.822 686.413 392.919 686.375C392.016 686.337 391.121 686.564 390.344 687.026C389.568 687.489 388.942 688.168 388.546 688.98C388.149 689.792 387.997 690.703 388.11 691.6C391.903 721.767 406.57 749.515 429.362 769.64C452.153 789.764 481.504 800.883 511.909 800.911C542.313 800.939 571.684 789.875 594.513 769.793C617.342 749.711 632.061 721.99 635.91 691.83C636.025 690.933 635.876 690.022 635.482 689.208C635.087 688.394 634.464 687.713 633.688 687.248C632.912 686.784 632.018 686.555 631.114 686.591C630.21 686.627 629.336 686.925 628.6 687.45C602.23 705.83 559.96 717.78 512.17 717.78C464.21 717.77 421.78 705.74 395.43 687.24ZM419.58 542C418.996 541.585 418.305 541.349 417.59 541.32C416.874 541.292 416.166 541.472 415.552 541.839C414.937 542.205 414.442 542.743 414.127 543.386C413.813 544.029 413.692 544.749 413.78 545.46C416.743 569.413 428.354 591.459 446.431 607.453C464.508 623.446 487.804 632.285 511.94 632.307C536.076 632.329 559.389 623.533 577.495 607.573C595.601 591.613 607.253 569.588 610.26 545.64C610.348 544.93 610.228 544.21 609.915 543.567C609.602 542.925 609.108 542.387 608.495 542.019C607.882 541.652 607.175 541.47 606.46 541.497C605.745 541.524 605.054 541.757 604.47 542.17C583.56 556.74 550.04 566.17 512.15 566.17C474.26 566.17 440.47 556.64 419.58 542ZM445.79 414C445.358 413.693 444.847 413.519 444.318 413.498C443.789 413.477 443.265 413.61 442.81 413.881C442.356 414.153 441.99 414.55 441.757 415.026C441.524 415.501 441.435 416.034 441.5 416.56C443.73 434.224 452.324 450.468 465.673 462.249C479.022 474.031 496.209 480.54 514.013 480.557C531.817 480.574 549.017 474.098 562.388 462.343C575.76 450.587 584.386 434.359 586.65 416.7C586.715 416.175 586.627 415.643 586.395 415.168C586.164 414.692 585.799 414.294 585.346 414.022C584.893 413.75 584.37 413.615 583.842 413.634C583.314 413.653 582.802 413.826 582.37 414.13C566.93 424.9 542.16 431.89 514.17 431.89C486.18 431.89 461.22 424.76 445.79 413.93V414Z" fill="white"/>
</g>
<defs>
<clipPath id="clip0_2_3330">
<rect width="1024" height="1024" fill="white"/>
</clipPath>
</defs>
</svg>
