<svg width="1024" height="1024" fill="none" xmlns="http://www.w3.org/2000/svg"><g clip-path="url(#a)"><path d="M512 1024c282.77 0 512-229.23 512-512S794.77 0 512 0 0 229.23 0 512s229.23 512 512 512Z" fill="#FF837D"/><path d="M574.74 285.81a62.729 62.729 0 0 1-107.08 44.374 62.737 62.737 0 0 1 9.491-96.517 62.73 62.73 0 0 1 97.589 52.143ZM395.43 687.24a4.652 4.652 0 0 0-5.086-.214 4.652 4.652 0 0 0-2.234 4.574 124.893 124.893 0 0 0 123.799 109.311A124.891 124.891 0 0 0 635.91 691.83a4.652 4.652 0 0 0-7.31-4.38c-26.37 18.38-68.64 30.33-116.43 30.33-47.96-.01-90.39-12.04-116.74-30.54ZM419.58 542a3.693 3.693 0 0 0-4.028-.161 3.688 3.688 0 0 0-1.772 3.621 99.003 99.003 0 0 0 98.16 86.847 99.002 99.002 0 0 0 98.32-86.667 3.697 3.697 0 0 0-1.765-3.621 3.691 3.691 0 0 0-4.025.151c-20.91 14.57-54.43 24-92.32 24-37.89 0-71.68-9.53-92.57-24.17Zm26.21-128a2.726 2.726 0 0 0-2.98-.119 2.738 2.738 0 0 0-1.31 2.679 73.157 73.157 0 0 0 72.513 63.997A73.161 73.161 0 0 0 586.65 416.7a2.726 2.726 0 0 0-1.304-2.678 2.732 2.732 0 0 0-2.976.108c-15.44 10.77-40.21 17.76-68.2 17.76-27.99 0-52.95-7.13-68.38-17.96v.07Z" fill="#fff"/></g><defs><clipPath id="a"><path fill="#fff" d="M0 0h1024v1024H0z"/></clipPath></defs></svg>