<svg width="1024" height="1024" viewBox="0 0 1024 1024" fill="none" xmlns="http://www.w3.org/2000/svg">
<g clip-path="url(#clip0_2_3333)">
<path d="M512 1024C794.77 1024 1024 794.77 1024 512C1024 229.23 794.77 0 512 0C229.23 0 0 229.23 0 512C0 794.77 229.23 1024 512 1024Z" fill="#728DBE"/>
<path d="M128 555.6H162.1V513.08H170.1L194.34 555.6H230.45L201.86 506.44C214.4 501.62 223.42 492.16 223.42 475.21V474.55C223.42 449.47 206.03 436.85 174.77 436.85H128V555.6ZM162.1 491V462.42H173.3C184.3 462.42 190.35 466.24 190.35 475.87V476.53C190.35 486.16 184.67 490.98 173.13 490.98L162.1 491ZM280.43 557.6C306.84 557.6 322.05 546.47 324.73 526.87H296.65C295.48 532.68 291.3 537.17 281.44 537.17C270.74 537.17 264.05 530.53 263.22 519.07H324.74V511.26C324.74 480.03 304.18 466.41 280.27 466.41C253.85 466.41 233 484 233 511.92V513.25C233 541.65 253 557.59 280.43 557.59V557.6ZM263.55 502.29C265.05 491.83 271.24 486.01 280.27 486.01C289.97 486.01 295.15 491.82 295.65 502.29H263.55ZM372.63 557.6C396.87 557.6 412.25 548.3 412.25 527.7C412.25 509.1 400.55 502.79 376.31 499.8C365.61 498.47 361.6 496.8 361.6 492.66C361.6 488.66 364.94 485.85 371.46 485.85C378.31 485.85 381.46 488.67 382.66 494.49H409.74C407.74 473.73 392.69 466.42 371.12 466.42C350.89 466.42 333.68 475.72 333.68 494.99C333.68 513.09 343.54 519.9 366.95 522.89C378.95 524.55 383.16 526.54 383.16 530.7C383.16 535.02 379.82 537.84 372.46 537.84C363.93 537.84 361.09 534.35 360.09 528.04H332.51C333.18 547.3 347.72 557.59 372.63 557.59V557.6ZM459.16 557.6C464.763 557.508 470.328 556.671 475.71 555.11V532.51C472.987 533.544 470.092 534.05 467.18 534C461.5 534 458.32 531.18 458.32 524.87V489H475.54V468.73H458.33V450.63H428.41V468.73H417.88V489H428.41V527.7C428.41 548.13 439.44 557.59 459.17 557.59L459.16 557.6ZM489.36 555.6H519.28V514.41C519.28 500.41 529.28 494.81 547.53 495.31V467.57C533.99 467.4 524.8 473.05 519.28 486.01V468.73H489.37L489.36 555.6ZM602.84 557.6C629.25 557.6 644.46 546.47 647.14 526.87H619.06C617.89 532.68 613.71 537.17 603.85 537.17C593.15 537.17 586.47 530.53 585.63 519.07H647.15V511.26C647.15 480.03 626.59 466.41 602.68 466.41C576.27 466.41 555.37 484.02 555.37 511.92V513.25C555.37 541.65 575.43 557.59 602.85 557.59L602.84 557.6ZM586 502.28C587.5 491.82 593.69 486 602.72 486C612.42 486 617.6 491.81 618.1 502.28H586ZM685.39 557.59C699.39 557.59 707.12 551.78 711.3 545.47V555.6H740.39V499.29C740.39 476.2 725.01 466.4 700.94 466.4C677.04 466.4 660.49 476.7 659.15 497.63H687.23C687.9 492.15 690.91 487.33 699.1 487.33C708.63 487.33 710.63 492.81 710.63 501.12V503.12H702.27C673.18 503.12 655.8 511.12 655.8 531.52C655.76 550 669.64 557.59 685.35 557.59H685.39ZM695.75 537.49C688.75 537.49 685.39 534.33 685.39 529.35C685.39 522.21 690.74 519.88 702.78 519.88H710.64V525.2C710.59 532.68 704.24 537.5 695.71 537.5L695.75 537.49ZM757.45 555.59H787.37V505.27C787.37 495.8 792.72 490.65 800.74 490.65C807.59 490.65 811.94 494.97 811.94 503.77V555.6H841.5V505.27C841.5 495.8 846.85 490.65 854.87 490.65C861.72 490.65 866.07 494.97 866.07 503.77V555.6H896V498.8C896 477.04 884 466.41 867.41 466.41C861.779 466.293 856.204 467.547 851.166 470.065C846.128 472.582 841.778 476.287 838.49 480.86C834.31 471.39 826.29 466.41 814.75 466.41C801.21 466.41 792.02 473.72 787.33 482.02V468.73H757.42L757.45 555.59Z" fill="white"/>
</g>
<defs>
<clipPath id="clip0_2_3333">
<rect width="1024" height="1024" fill="white"/>
</clipPath>
</defs>
</svg>
