<svg width="1024" height="1024" fill="none" xmlns="http://www.w3.org/2000/svg"><g clip-path="url(#a)"><path d="M512 1024c282.77 0 512-229.23 512-512S794.77 0 512 0 0 229.23 0 512s229.23 512 512 512Z" fill="#FF837D"/><path d="M293 489.38c0-23.94-18-39.41-45.92-39.41H177.5l18.56 25.74v98.81h31.14v-46.61h6.38l25.69 46.62h35.19l-28.61-49.1A36.714 36.714 0 0 0 293 489.38Zm-47.68 16.19h-18.13V476h18.12c10.32 0 16 5.19 16 14.61.01 9.79-5.52 14.96-16 14.96h.01ZM490.19 450h33L479 574.53h-38.4L396.4 450h33.16l.12.36 30.11 91.73 30.4-92.09Zm-179.43 0h76.72v26H341.9v23h40.3v24.29h-40.3v26h45.57v25.15h-76.71V450Zm282.57-1.76c-36.52 0-64.06 27.38-64.06 63.68a62.744 62.744 0 0 0 61.44 63.88h2.61a62.37 62.37 0 0 0 63.7-61v-2.84c-.02-36.36-27.38-63.75-63.69-63.75v.03Zm0 99.05c-19.4 0-32-13.65-32.2-34.84v-.53c0-21.81 12.34-35.36 32.2-35.36 19.45 0 32 13.88 32 35.36 0 21.48-12.54 35.35-32 35.35v.02ZM846.5 450v26h-32.72v98.51h-31.14V476h-32.73v-26h96.59Zm-142.69 99.34h39.42v25.18h-70.56V450h31.14v99.34Z" fill="#fff"/></g><defs><clipPath id="a"><path fill="#fff" d="M0 0h1024v1024H0z"/></clipPath></defs></svg>