<svg width="1024" height="1024" fill="none" xmlns="http://www.w3.org/2000/svg"><g clip-path="url(#a)"><path d="M512 1024c282.77 0 512-229.23 512-512S794.77 0 512 0 0 229.23 0 512s229.23 512 512 512Z" fill="#9ABEFF"/><path d="M792.37 602.5a70.74 70.74 0 0 1-5.71 28.56 72.239 72.239 0 0 1-38.79 38.51 71.17 71.17 0 0 1-28.42 5.73 85.673 85.673 0 0 1-16.45-1.7 93.984 93.984 0 0 1-17.14-5.06 73.842 73.842 0 0 1-15.69-8.54 46.859 46.859 0 0 1-11.76-12 10.67 10.67 0 0 1-1.86-6.38 10.253 10.253 0 0 1 3.53-8 11.69 11.69 0 0 1 8-3.2c1.598.017 3.178.333 4.66.93a9.094 9.094 0 0 1 4.31 3.94 1.069 1.069 0 0 0 .37.74l1.48 1.51a41.89 41.89 0 0 0 18.51 11.76 70.772 70.772 0 0 0 21.88 3.57 49.164 49.164 0 0 0 19.63-3.94A50.78 50.78 0 0 0 765.86 622a49.058 49.058 0 0 0 4.08-19.51v-25.72a72.641 72.641 0 0 1-22.85 14.78 71.644 71.644 0 0 1-27.68 5.45 70.654 70.654 0 0 1-28.56-5.71 72.768 72.768 0 0 1-38.51-38.51 70.529 70.529 0 0 1-5.73-28.58v-59a70.937 70.937 0 0 1 5.73-28.42 73.178 73.178 0 0 1 15.5-23.2A74.289 74.289 0 0 1 690.72 398a73.082 73.082 0 0 1 57.14 0 72.627 72.627 0 0 1 44.4 67.11v137.37l.11.02Zm-22.43-137.33a49.117 49.117 0 0 0-3.94-19.62 50.628 50.628 0 0 0-74.549-22.436 50.624 50.624 0 0 0-18.661 22.436 49.502 49.502 0 0 0-3.9 19.6v58.71a49.473 49.473 0 0 0 3.9 19.79 50.9 50.9 0 0 0 10.86 16.08 50.35 50.35 0 0 0 16.1 10.83 50.491 50.491 0 0 0 55.108-10.595 50.48 50.48 0 0 0 11.052-16.315 49.095 49.095 0 0 0 4-19.79l.03-58.69ZM601.71 589.42a10.096 10.096 0 0 1-3.57 8.42 11.85 11.85 0 0 1-15.31 0 10.069 10.069 0 0 1-3.55-8.42V465.17a49.13 49.13 0 0 0-3.94-19.63 50.499 50.499 0 0 0-93.07 0 49.34 49.34 0 0 0-3.94 19.63v124.25a10.067 10.067 0 0 1-3.53 8.42 11.85 11.85 0 0 1-15.33 0 10.069 10.069 0 0 1-3.55-8.42V465.17a70.949 70.949 0 0 1 5.71-28.42 73.372 73.372 0 0 1 15.54-23.2A74.3 74.3 0 0 1 500 398a73.077 73.077 0 0 1 57.16 0 72.74 72.74 0 0 1 44.4 67.11l.15 124.31Zm-194.47 0a10.093 10.093 0 0 1-3.53 8.42 11.85 11.85 0 0 1-15.36 0 10.067 10.067 0 0 1-3.53-8.42V407.2a10.093 10.093 0 0 1 3.53-8.42 11.88 11.88 0 0 1 15.36 0 10.101 10.101 0 0 1 3.53 8.42v182.22Zm-56-171a10.738 10.738 0 0 1-3.36 7.84 11.199 11.199 0 0 1-8.24 3.29 11.666 11.666 0 0 1-7.86-3.36l-.37-.39a3.458 3.458 0 0 0-.74-.56 2.837 2.837 0 0 1-.77-.58 44.079 44.079 0 0 0-28.77-10c-13.473 0-24.013 4.6-31.62 13.8-7.607 9.2-11.41 22.29-11.41 39.27v121.66a10.081 10.081 0 0 1-3.55 8.42 11.696 11.696 0 0 1-15.31 0 10.069 10.069 0 0 1-3.55-8.42V467.77a101.174 101.174 0 0 1 4.15-29.32 70.379 70.379 0 0 1 12.29-23.92 59.057 59.057 0 0 1 20.37-16.38 64.112 64.112 0 0 1 28.56-6 71.461 71.461 0 0 1 24.67 4.85 59.697 59.697 0 0 1 21.67 13.45 11.118 11.118 0 0 1 3.78 8l.06-.03Zm64-72.56A19.16 19.16 0 0 1 396.09 365a19.146 19.146 0 0 1-13.554-5.598 19.172 19.172 0 0 1-4.16-6.211 19.176 19.176 0 0 1-1.466-7.331A19.16 19.16 0 0 1 396 326.7a19.155 19.155 0 0 1 13.548 5.612 19.16 19.16 0 0 1 5.612 13.548h.08Z" fill="#fff"/></g><defs><clipPath id="a"><path fill="#fff" d="M0 0h1024v1024H0z"/></clipPath></defs></svg>