<svg width="1024" height="1024" fill="none" xmlns="http://www.w3.org/2000/svg"><g clip-path="url(#a)"><path d="M512 1024c282.77 0 512-229.23 512-512S794.77 0 512 0 0 229.23 0 512s229.23 512 512 512Z" fill="#F8C18C"/><path d="M646.67 448.25V303.32L512 225.57l-134.67 77.75v145.24L252 520.71v155.5L386.67 754 512 681.5 637.33 754 772 676.21v-155.5l-125.33-72.46ZM512 515.11l-107-61.89 107-61.89 107 61.89-107 61.89ZM395.68 469.4l107 61.89v123.46l-107-61.89V469.4Zm125.65 61.89 107-61.89v123.47l-107 61.58V531.29Zm-125.65-217.4L512 246.72l116.32 67.18v123.46L512 370.19l-116.32 67.17V313.89ZM270.35 665.33V531l107-61.89v134l116.32 67.18-107.3 61.89-116.02-66.85Zm483.3 0-116.32 67.18L530 670.62l116.32-67.18v-134l107 61.89.33 134Z" fill="#fff"/></g><defs><clipPath id="a"><path fill="#fff" d="M0 0h1024v1024H0z"/></clipPath></defs></svg>