<svg width="1024" height="1024" fill="none" xmlns="http://www.w3.org/2000/svg"><g clip-path="url(#a)"><path d="M512 1024c282.77 0 512-229.23 512-512S794.77 0 512 0 0 229.23 0 512s229.23 512 512 512Z" fill="#8C72BD"/><path d="M247.68 467.28h.53c9.07-16.45 24.79-23.84 43.35-23.84h9.18v45.78c-6.54-3.69-12.87-4.43-20.15-4.43-26.47 0-33 17.51-33 40.61v54.11H200V445.34h47.68v21.94Zm77.74-21.94H373v134.27h-47.59l.01-134.27Zm131.11 15.19h.47c8.65-13.29 24.89-19.62 40.61-19.62 40.08 0 67.72 33.54 67.72 71.94 0 38.71-27.42 71.2-67.29 71.2-15.4 0-31.43-5.48-41.56-17.3v73.52l-47.68 20.15V445.34h47.68l.05 15.19Zm-1.58 52c0 17 11.29 30.06 30.59 30.06s30.59-13.08 30.59-30.06c0-16.45-11.29-30.38-30.59-30.38s-30.59 13.92-30.59 30.38Zm135.75-67.19h47.68v134.27h-47.69l.01-134.27ZM824 512.53c0 45.57-37.66 71.41-80.9 71.41-42.93 0-80.9-25.63-80.9-71.41s37.66-71.72 80.9-71.72c43.24 0 80.9 25.94 80.9 71.72Zm-111.49 0c0 17 11.29 30.06 30.59 30.06s30.59-13.08 30.59-30.06c0-16.45-11.29-30.38-30.59-30.38s-30.59 13.92-30.59 30.38Zm-386-130.16 46.62-18.77L373 408l-46.52 18.77.03-44.4Zm264.75 0 46.62-18.77-.15 44.4-46.52 18.77.05-44.4Z" fill="#fff"/></g><defs><clipPath id="a"><path fill="#fff" d="M0 0h1024v1024H0z"/></clipPath></defs></svg>