<svg width="1024" height="1024" viewBox="0 0 1024 1024" fill="none" xmlns="http://www.w3.org/2000/svg">
<g clip-path="url(#clip0_2_3351)">
<path d="M512 1024C794.77 1024 1024 794.77 1024 512C1024 229.23 794.77 0 512 0C229.23 0 0 229.23 0 512C0 794.77 229.23 1024 512 1024Z" fill="#F8C18C"/>
<path d="M687.16 380.56V380.7L670.2 441.58L670.14 441.8H670.07L567.28 441.58C561.14 441.58 556.53 443.72 554.99 449.41C553.63 454.47 555.3 458.41 559.99 461.73L561.9 462.94L671.74 530.23C682.18 536.57 688.23 550.74 686.42 562.16L685.95 564.41L670.2 621.72C667.31 632.78 654.89 642.26 641.91 643.34L639.47 643.44H501.19L518.11 582.2H601.45C607.59 582.2 612.2 578.29 613.35 574.72C614.73 570.56 613.94 567.26 609.29 563.78L607.6 562.61L497 494.27C486.56 487.92 480.5 473.76 482.32 462.34L482.79 460.09L498.53 402.41C501.43 391.35 513.53 381.87 526.12 380.8L528.49 380.7L687.06 380.56H687.16ZM767.83 380.56L836.5 380.7L763.58 643.44H694.14L767.51 380.7H767.79L767.83 380.56ZM482 582.58L465.25 643.45H454.08L470.72 582.58H482ZM459.67 582.58L442.31 643.45H430.31L447.82 582.7V582.58H459.67ZM505.73 582.58L488.5 643.45H476.41L493.64 582.58H505.73ZM454.94 380.58H259.84L187.5 643.44H256L273.7 579.68L319.88 558.31L336.43 621.71L337.08 623.76C341.08 634.6 353.39 643.44 366.08 643.44H420.72L437.65 582.17H403L401.48 582.06C399.561 581.782 397.755 580.983 396.259 579.748C394.764 578.514 393.636 576.892 393 575.06L381.45 529.82L434.17 505.6L436.86 504.29C442.805 501.151 448.053 496.839 452.286 491.616C456.519 486.393 459.65 480.367 461.49 473.9L479.58 409.78L480.09 407.71C483.19 392.62 472.22 380.56 454.93 380.56L454.94 380.58ZM399.34 448.27C398.19 451.86 395.52 456.17 387.87 459.77L295 503.58L311.82 441.42H390.57C396.65 441.42 400.86 443.58 399.33 448.25L399.34 448.27ZM755.56 380.58L738.8 441.45H727.64L744.51 380.58H755.56ZM731.83 380.58L715.09 441.45H703.91L720.83 380.58H731.83ZM709.23 380.58V380.72H709.54L692.26 441.23L692.2 441.45H680.2L680.26 441.23L697.26 380.72V380.58H709.23Z" fill="white"/>
</g>
<defs>
<clipPath id="clip0_2_3351">
<rect width="1024" height="1024" fill="white"/>
</clipPath>
</defs>
</svg>
