<svg width="1024" height="1024" fill="none" xmlns="http://www.w3.org/2000/svg"><g clip-path="url(#a)"><path d="M512 1024c282.77 0 512-229.23 512-512S794.77 0 512 0 0 229.23 0 512s229.23 512 512 512Z" fill="#F8C18C"/><path d="M687.16 380.56v.14l-16.96 60.88-.06.22h-.07l-102.79-.22c-6.14 0-10.75 2.14-12.29 7.83-1.36 5.06.31 9 5 12.32l1.91 1.21 109.84 67.29c10.44 6.34 16.49 20.51 14.68 31.93l-.47 2.25-15.75 57.31c-2.89 11.06-15.31 20.54-28.29 21.62l-2.44.1H501.19l16.92-61.24h83.34c6.14 0 10.75-3.91 11.9-7.48 1.38-4.16.59-7.46-4.06-10.94l-1.69-1.17L497 494.27c-10.44-6.35-16.5-20.51-14.68-31.93l.47-2.25 15.74-57.68c2.9-11.06 15-20.54 27.59-21.61l2.37-.1 158.57-.14h.1Zm80.67 0 68.67.14-72.92 262.74h-69.44l73.37-262.74h.28l.04-.14ZM482 582.58l-16.75 60.87h-11.17l16.64-60.87H482Zm-22.33 0-17.36 60.87h-12l17.51-60.75v-.12h11.85Zm46.06 0-17.23 60.87h-12.09l17.23-60.87h12.09Zm-50.79-202h-195.1L187.5 643.44H256l17.7-63.76 46.18-21.37 16.55 63.4.65 2.05c4 10.84 16.31 19.68 29 19.68h54.64l16.93-61.27H403l-1.52-.11a10.583 10.583 0 0 1-8.48-7l-11.55-45.24 52.72-24.22 2.69-1.31a49.769 49.769 0 0 0 24.63-30.39l18.09-64.12.51-2.07c3.1-15.09-7.87-27.15-25.16-27.15l.01.02Zm-55.6 67.69c-1.15 3.59-3.82 7.9-11.47 11.5L295 503.58l16.82-62.16h78.75c6.08 0 10.29 2.16 8.76 6.83l.01.02Zm356.22-67.69-16.76 60.87h-11.16l16.87-60.87h11.05Zm-23.73 0-16.74 60.87h-11.18l16.92-60.87h11Zm-22.6 0v.14h.31l-17.28 60.51-.06.22h-12l.06-.22 17-60.51v-.14h11.97Z" fill="#fff"/></g><defs><clipPath id="a"><path fill="#fff" d="M0 0h1024v1024H0z"/></clipPath></defs></svg>