<svg width="1024" height="1024" fill="none" xmlns="http://www.w3.org/2000/svg"><g clip-path="url(#a)"><path d="M512 1024c282.77 0 512-229.23 512-512S794.77 0 512 0 0 229.23 0 512s229.23 512 512 512Z" fill="#98DC9A"/><path d="M716 656c28.27 0 52 25.09 52 56s-23.73 56-52 56H308c-28.27 0-52-25.07-52-56s23.73-56 52-56h408Zm52-332v232c0 37.16-30.79 68-68 68H324c-37.14 0-68-30.86-68-68V324c0-37.16 30.84-68 68-68h376c37.16 0 68 30.84 68 68Zm-56 24a36 36 0 0 0-36-36H348a36 36 0 0 0-36 36v184a36 36 0 0 0 36 36h328a36 36 0 0 0 36-36V348Zm-107.88 36.24a54.613 54.613 0 0 1 38.615 93.225 54.611 54.611 0 0 1-84.022-8.275 54.612 54.612 0 0 1 45.407-84.95Zm-181.39 0a54.613 54.613 0 0 1 38.615 93.225 54.611 54.611 0 0 1-84.022-8.275 54.612 54.612 0 0 1 45.407-84.95Z" fill="#fff"/></g><defs><clipPath id="a"><path fill="#fff" d="M0 0h1024v1024H0z"/></clipPath></defs></svg>