<svg width="1024" height="1024" viewBox="0 0 1024 1024" fill="none" xmlns="http://www.w3.org/2000/svg">
<g clip-path="url(#clip0_2_3366)">
<path d="M512 1024C794.77 1024 1024 794.77 1024 512C1024 229.23 794.77 0 512 0C229.23 0 0 229.23 0 512C0 794.77 229.23 1024 512 1024Z" fill="#F8C18C"/>
<path d="M677.52 597.2L660.19 488.34L596.49 596.34H584.39C577.13 583.84 574.31 565.7 574.31 554.41C574.31 535.87 575.52 517.72 575.52 493.94C575.52 462.49 566.25 445.94 541.65 439.94V439.13C593.65 431.87 617.44 397.2 617.44 348.82C617.44 279.88 571.44 264.96 511.44 264.96H349.76L281.23 589.13H367.1L392.1 471.01H449.35C479.99 471.01 492.49 485.93 492.49 514.55C492.49 536.32 490.07 553.66 490.07 570.18C490.07 576.18 491.28 590.74 495.71 596.38L557.79 662.09L504.17 777L618.67 708.87L704.14 774.58L688.41 666.13L786.78 597.19L677.52 597.2ZM475.14 410.54H406.6L423.13 332.33H486.83C509.41 332.33 533.19 338.33 533.19 365.79C533.19 400.86 506.18 410.54 475.14 410.54Z" fill="white"/>
</g>
<defs>
<clipPath id="clip0_2_3366">
<rect width="1024" height="1024" fill="white"/>
</clipPath>
</defs>
</svg>
