<svg width="1024" height="1024" fill="none" xmlns="http://www.w3.org/2000/svg"><g clip-path="url(#a)"><path d="M512 1024c282.77 0 512-229.23 512-512S794.77 0 512 0 0 229.23 0 512s229.23 512 512 512Z" fill="#FF837D"/><path d="M318.28 270.47c-20.1.22-40.03 3.82-58.94 10.65a13.448 13.448 0 0 0-5.38 3.69 13.527 13.527 0 0 0-3 5.79c-.51 2.15-.48 4.39.09 6.52s1.65 4.09 3.16 5.71c19.38 20.33 51.56 60.41 43.67 96.71A157.13 157.13 0 0 0 250.5 509.1c.61 41.59 17.64 81.24 47.38 110.32 7.9 36.38-24.2 76.4-43.59 96.73-5.06 5.39-4.79 13.85.6 18.91 1.31 1.23 2.85 2.18 4.54 2.8a179.504 179.504 0 0 0 143.71-9.51 221.162 221.162 0 0 0 45.82-34.17 373.312 373.312 0 0 0 66.64 5.93 329.793 329.793 0 0 0 181.03-50.4 203.163 203.163 0 0 0 59.74-59.44c32.18-49.06 32.18-112.54 0-161.6l-.02.06c-15.58-23.77-35.97-44-59.86-59.4a329.912 329.912 0 0 0-181.03-50.42c-22.35-.03-44.65 1.96-66.64 5.92a220.478 220.478 0 0 0-45.78-34.15 179.497 179.497 0 0 0-84.75-20.2l-.01-.01Zm194.43 101.71c118.98 0 215.51 62.89 215.51 140.49 0 77.6-96.51 140.51-215.51 140.51a316.246 316.246 0 0 1-82.75-10.74l-18.61 18.1a170.232 170.232 0 0 1-34.37 25.66 133.908 133.908 0 0 1-48.6 13.82c.91-1.66 1.74-3.34 2.62-4.99a119.79 119.79 0 0 0 15.1-93.45 115.355 115.355 0 0 1-48.82-88.91c0-77.58 96.45-140.49 215.43-140.49ZM409.59 480.36a31.903 31.903 0 0 0-17.73 5.31 31.851 31.851 0 0 0-4.96 49.03 31.785 31.785 0 0 0 16.31 8.75 31.857 31.857 0 0 0 32.749-13.525 31.872 31.872 0 0 0 5.381-17.715c.01-8.43-3.32-16.53-9.27-22.51a31.83 31.83 0 0 0-22.47-9.36l-.01.02Zm102.29 0c-17.6-.06-31.92 14.16-31.98 31.75a31.881 31.881 0 0 0 7.185 20.26 31.879 31.879 0 0 0 18.415 11.09c17.26 3.46 34.05-7.73 37.5-24.99.41-2.06.62-4.15.62-6.25.03-17.56-14.18-31.83-31.74-31.86Zm102.17 0c-17.6-.09-31.93 14.1-32.03 31.69-.08 15.24 10.65 28.41 25.6 31.41 17.25 3.47 34.05-7.71 37.51-24.96.42-2.07.62-4.17.62-6.28a31.79 31.79 0 0 0-9.26-22.49 31.85 31.85 0 0 0-22.45-9.37h.01Z" fill="#fff"/></g><defs><clipPath id="a"><path fill="#fff" d="M0 0h1024v1024H0z"/></clipPath></defs></svg>