<svg width="1024" height="1024" viewBox="0 0 1024 1024" fill="none" xmlns="http://www.w3.org/2000/svg">
<g clip-path="url(#clip0_2_3369)">
<path d="M512 1024C794.77 1024 1024 794.77 1024 512C1024 229.23 794.77 0 512 0C229.23 0 0 229.23 0 512C0 794.77 229.23 1024 512 1024Z" fill="#9ABEFF"/>
<path d="M512 273.8C426.5 273.8 355 338.7 346.9 423.8L282.2 461.1L375.7 515.1C333.9 439.9 361.1 345 436.3 303.3C459.4 290.4 485.5 283.7 512 283.7C598.1 283.7 667.8 353.5 667.8 439.5C667.8 465.9 661.1 491.9 648.3 515L741.7 461.1L677.1 423.8C669 338.7 597.5 273.8 512 273.8ZM272.3 466.9V614.7L507 750.2V602.5L272.3 466.9ZM751.7 466.9L636.3 533.6L531.5 594.1L529.3 595.4L517 602.5V750.3L751.7 614.7V466.9Z" fill="white"/>
</g>
<defs>
<clipPath id="clip0_2_3369">
<rect width="1024" height="1024" fill="white"/>
</clipPath>
</defs>
</svg>
