<svg width="1024" height="1024" fill="none" xmlns="http://www.w3.org/2000/svg"><g clip-path="url(#a)"><path d="M512 1024c282.77 0 512-229.23 512-512S794.77 0 512 0 0 229.23 0 512s229.23 512 512 512Z" fill="#9ABEFF"/><path d="M512 273.8c-85.5 0-157 64.9-165.1 150l-64.7 37.3 93.5 54c-41.8-75.2-14.6-170.1 60.6-211.8 23.1-12.9 49.2-19.6 75.7-19.6 86.1 0 155.8 69.8 155.8 155.8 0 26.4-6.7 52.4-19.5 75.5l93.4-53.9-64.6-37.3c-8.1-85.1-79.6-150-165.1-150ZM272.3 466.9v147.8L507 750.2V602.5L272.3 466.9Zm479.4 0-115.4 66.7-104.8 60.5-2.2 1.3-12.3 7.1v147.8l234.7-135.6V466.9Z" fill="#fff"/></g><defs><clipPath id="a"><path fill="#fff" d="M0 0h1024v1024H0z"/></clipPath></defs></svg>