<svg width="1024" height="1024" fill="none" xmlns="http://www.w3.org/2000/svg"><g clip-path="url(#a)"><path d="M512 1024c282.77 0 512-229.23 512-512S794.77 0 512 0 0 229.23 0 512s229.23 512 512 512Z" fill="#FF837D"/><path d="m512 218.318-256.156 146.84v293.684L512 805.682l256.156-146.84V365.158L512 218.318Zm0 54.82 207.209 119.43v238.21L512 750.208 304.791 630.777V392.568L512 273.138ZM409.21 411.17l.327.652-.326-.326-72.441 72.442 175.882 175.556 72.442-72.115 103.441-103.442-72.441-72.44v-.327H409.21Z" fill="#fff"/></g><defs><clipPath id="a"><path fill="#fff" d="M0 0h1024v1024H0z"/></clipPath></defs></svg>