<svg width="1024" height="1024" fill="none" xmlns="http://www.w3.org/2000/svg"><g clip-path="url(#a)"><path d="M512 1024c282.77 0 512-229.23 512-512S794.77 0 512 0 0 229.23 0 512s229.23 512 512 512Z" fill="#9ABEFF"/><path d="M348.78 272.27c-73.48 0-133 59.48-133 132.87A132.323 132.323 0 0 0 226.67 458a115.68 115.68 0 0 0-57.17 100.05c0 63.81 51.19 115.53 114.34 115.52 7.897.002 15.773-.819 23.5-2.45a123.159 123.159 0 0 0 229 5.57 108.001 108.001 0 0 0 141.45-44.41 147.034 147.034 0 0 0 29.1 2.89c81.55 0 147.66-66.69 147.66-149s-66.11-149-147.66-149a145.992 145.992 0 0 0-59.74 12.7c-21-37.44-60.47-62.66-105.67-62.66a120.073 120.073 0 0 0-86.86 37.29 132.828 132.828 0 0 0-105.78-52.29l-.06.06Zm219.65 167.41a30.997 30.997 0 0 1 5.4.41c1.327.237 2.64.55 3.93.94a1.061 1.061 0 0 1 .73 1.38l-3 8.34c-.25.63-.42 1-1.72.61a17.907 17.907 0 0 0-5.29-.82 13.465 13.465 0 0 0-4.26.62 8.132 8.132 0 0 0-3.33 2.05 11.587 11.587 0 0 0-2.79 4.24 54.892 54.892 0 0 0-2.1 9h12.69c1.07 0 1.41.49 1.3 1.28l-1.48 8.26a1.33 1.33 0 0 1-1.33 1.15h-13.12l-8.94 50.62a78.036 78.036 0 0 1-3.49 13.24 26.236 26.236 0 0 1-5.17 8.89 18.197 18.197 0 0 1-7.33 5.11 28.589 28.589 0 0 1-9.74 1.53 23.923 23.923 0 0 1-5.82-.56 31.406 31.406 0 0 1-3.63-1.06 1.193 1.193 0 0 1-.638-.667 1.194 1.194 0 0 1 .038-.923c.27-.79 2.62-7.22 2.94-8.07a1.099 1.099 0 0 1 1.44-.63 9.392 9.392 0 0 0 2.13.68c1.051.21 2.119.327 3.19.35a14.613 14.613 0 0 0 4.68-.67 7.21 7.21 0 0 0 3.63-2.79 20.422 20.422 0 0 0 2.78-5.66 62.482 62.482 0 0 0 2.37-9.78l8.9-49.69h-8.77c-1 0-1.41-.49-1.29-1.29l1.47-8.26a1.348 1.348 0 0 1 1.35-1.15h9l.49-2.68c1.35-8 4-14 8-18s9.64-6 16.81-6h-.03Zm-179.72 1.27h10.53a1.148 1.148 0 0 1 .828.355 1.124 1.124 0 0 1 .312.845v84.74a1.133 1.133 0 0 1-.308.852 1.154 1.154 0 0 1-.832.358h-10.52a1.128 1.128 0 0 1-.821-.358 1.143 1.143 0 0 1-.309-.842v-84.76a1.155 1.155 0 0 1 .07-.447 1.16 1.16 0 0 1 .608-.646c.14-.061.29-.094.442-.097Zm-95.07 24a39.945 39.945 0 0 1 20.14 5.4 1.309 1.309 0 0 1 .67 1.59l-2.85 7.69c-.5 1.31-1.87.44-1.87.44a40.531 40.531 0 0 0-17.85-4.58c-5.45 0-9 2.89-9 6.82v.25c0 4.58 6 6.53 13 8.8l1.2.37c9.24 2.92 19.1 7 19.1 18.09v.23c0 12-8.74 19.49-22.78 19.49a41.667 41.667 0 0 1-20.48-4.77 43.204 43.204 0 0 1-3.91-2.36c-.13-.2-.73-.43-.3-1.55l2.77-7.7a1.12 1.12 0 0 1 1.84-.64c.77.46 1.33.87 2.32 1.45a33.235 33.235 0 0 0 18.09 5.21c6.11 0 9.91-3.24 9.91-7.6v-.23c0-4.75-5.84-6.55-12.6-8.62l-1.5-.48c-9.27-2.64-19.18-6.45-19.18-18.18v-.24c0-11.13 9-18.9 21.84-18.9h1.41l.03.02Zm205.7 0a39.996 39.996 0 0 1 20.15 5.4 1.34 1.34 0 0 1 .67 1.59c-.26.68-2.6 7-2.85 7.69-.52 1.31-1.87.44-1.87.44a40.531 40.531 0 0 0-17.85-4.58c-5.45 0-9 2.89-9 6.82v.25c0 4.58 6 6.53 13 8.8l1.2.37c9.24 2.92 19.09 7 19.09 18.09v.23c0 12-8.73 19.49-22.77 19.49a41.621 41.621 0 0 1-20.48-4.77 44.117 44.117 0 0 1-3.92-2.36c-.13-.2-.73-.43-.29-1.55l2.78-7.7a1.188 1.188 0 0 1 .754-.798 1.192 1.192 0 0 1 1.086.158c.76.47 1.33.87 2.32 1.45a33.284 33.284 0 0 0 18.12 5.21c6.09 0 9.89-3.24 9.89-7.6v-.23c0-4.75-5.84-6.55-12.59-8.62l-1.5-.48c-9.28-2.64-19.2-6.45-19.2-18.18v-.24c0-11.13 9-18.9 21.85-18.9h1.4l.01.02Zm-149.28.13c7.93 0 14.06 1.84 18.23 5.49 4.17 3.65 6.31 9.57 6.31 17.52v36.32a1.227 1.227 0 0 1-.92 1.29s-1.46.41-2.77.71-6.11 1.28-10 1.94a72.946 72.946 0 0 1-12.06 1 47.539 47.539 0 0 1-10.51-1.07 21.88 21.88 0 0 1-8.08-3.51 16.427 16.427 0 0 1-5.17-6.21 20.581 20.581 0 0 1-1.84-9.07 18.55 18.55 0 0 1 7.9-15.7 25.682 25.682 0 0 1 8.28-3.84c3.192-.84 6.48-1.26 9.78-1.25 2.49 0 4.58.05 6.2.18 0 0 3.13.28 6.55.77V488c0-5.3-1.1-7.79-3.27-9.46-2.17-1.67-5.51-2.54-9.79-2.54 0 0-9.66-.12-17.31 4a5.227 5.227 0 0 1-.64.33.997.997 0 0 1-1.105-.288 1.015 1.015 0 0 1-.195-.352l-2.81-7.55a1.245 1.245 0 0 1 .35-1.58c3.57-2.79 12.23-4.47 12.23-4.47a65.242 65.242 0 0 1 10.64-1v-.01Zm357.82 0c2.944-.02 5.885.174 8.8.58a47.252 47.252 0 0 1 7.83 2 1.06 1.06 0 0 1 .73 1.39c-1.11 3.12-1.86 5.16-2.89 8-.45 1.21-1.36.81-1.36.81a39.174 39.174 0 0 0-12.39-1.77c-5.81 0-10.17 1.93-13 5.72s-4.49 8.81-4.51 15.45c0 7.29 1.8 12.69 5 16 3.2 3.31 7.74 5 13.42 5a41.919 41.919 0 0 0 6.43-.45 26.484 26.484 0 0 0 5.45-1.57 1.129 1.129 0 0 1 1.5.73l2.87 8a1.082 1.082 0 0 1-.47 1.4 48.391 48.391 0 0 1-16.61 3c-10.17 0-18-2.93-23.17-8.71-5.17-5.78-7.81-13.61-7.81-23.34a40.337 40.337 0 0 1 1.93-12.62 28.866 28.866 0 0 1 5.7-10.19 27.085 27.085 0 0 1 9.45-6.85 32.002 32.002 0 0 1 13.07-2.51l.03-.07Zm-266.93.05a28.844 28.844 0 0 1 11.37 2.31 22.985 22.985 0 0 1 7.54 5.74 24.646 24.646 0 0 1 5.07 9.3 42.496 42.496 0 0 1 1.19 17.1 1.172 1.172 0 0 1-1.15 1h-39.71c.25 6 1.69 10.3 4.62 13.2 2.93 2.9 7.42 4.66 13.58 4.67 9.43 0 13.46-1.87 16.31-2.93a1.143 1.143 0 0 1 .89.032 1.158 1.158 0 0 1 .6.658l2.59 7.27c.52 1.22.11 1.65-.33 1.9-2.5 1.37-8.54 3.93-20 4a39.464 39.464 0 0 1-14.41-2.32 25.432 25.432 0 0 1-15.74-16.71 42.568 42.568 0 0 1-1.81-12.68 44.764 44.764 0 0 1 1.76-12.67 29.093 29.093 0 0 1 5.38-10.32 26.138 26.138 0 0 1 9.14-7 31.086 31.086 0 0 1 13.11-2.56v.01Zm158.73 0a29.482 29.482 0 0 1 12.57 2.52 25.798 25.798 0 0 1 9 6.85 28.107 28.107 0 0 1 5.32 10.19 46.902 46.902 0 0 1 0 25.19 28.22 28.22 0 0 1-5.32 10.2 25.346 25.346 0 0 1-9 6.79 33.214 33.214 0 0 1-25.14 0 25.363 25.363 0 0 1-9-6.79 28.436 28.436 0 0 1-5.33-10.19 46.939 46.939 0 0 1 0-25.2 28.461 28.461 0 0 1 5.32-10.19 25.786 25.786 0 0 1 9-6.85 29.5 29.5 0 0 1 12.57-2.52h.01Zm159.26 0c3.905-.009 7.77.777 11.36 2.31a23.13 23.13 0 0 1 7.55 5.74 24.787 24.787 0 0 1 5.08 9.3 42.21 42.21 0 0 1 1.18 17.1 1.156 1.156 0 0 1-1.15 1h-39.7c.25 6 1.69 10.3 4.62 13.2 2.93 2.9 7.42 4.66 13.59 4.67 9.42 0 13.45-1.87 16.3-2.93a1.161 1.161 0 0 1 1.5.69l2.58 7.27c.52 1.22.1 1.65-.34 1.9-2.49 1.37-8.52 3.93-20 4a39.531 39.531 0 0 1-14.41-2.32 25.502 25.502 0 0 1-15.75-16.71 42.823 42.823 0 0 1-1.79-12.68 44.47 44.47 0 0 1 1.75-12.67 28.941 28.941 0 0 1 5.37-10.32 26.066 26.066 0 0 1 9.15-7 31.006 31.006 0 0 1 13.11-2.56v.01Zm-92.29.67c.56 0 1.15.02 1.77.06 2.252.157 4.483.535 6.66 1.13a1.08 1.08 0 0 1 .6 1.4c-.37 1.09-2.3 6.53-3 8.33-.26.69-.67 1.16-1.45 1.08a22.838 22.838 0 0 0-4.36-.52 19 19 0 0 0-5.32.75 11.886 11.886 0 0 0-4.9 2.94 14.646 14.646 0 0 0-3.48 5.84 34.91 34.91 0 0 0-1.32 10.41v29.58a1.187 1.187 0 0 1-.344.852 1.204 1.204 0 0 1-.846.358h-10.43a1.208 1.208 0 0 1-1.23-1.2v-59.14a1.173 1.173 0 0 1 .322-.843 1.167 1.167 0 0 1 .828-.357h10.17a1.149 1.149 0 0 1 1.15 1.2v4.84a17.946 17.946 0 0 1 6.71-4.94 18.528 18.528 0 0 1 8.46-1.71l.01-.06ZM440 475.7c-5.21 0-8.92 2-11.36 5.76a23.306 23.306 0 0 0-3.22 9.37h28.34c-.3-3.64-1-6.91-2.64-9.37-2.47-3.72-5.92-5.76-11.13-5.76h.01Zm318 0c-5.21 0-8.92 2-11.37 5.76a23.327 23.327 0 0 0-3.2 9.37h28.33c-.29-3.64-1-6.91-2.64-9.37-2.49-3.72-5.92-5.76-11.12-5.76Zm-158.32.25c-5.21 0-8.93 1.8-11.37 5.51-2.44 3.71-3.7 9.09-3.7 15.88 0 6.79 1.25 12.17 3.72 15.94 2.47 3.77 6.14 5.58 11.36 5.58s9-1.83 11.43-5.58c2.43-3.75 3.76-9.16 3.76-15.94 0-6.78-1.26-12.14-3.76-15.88s-6.22-5.51-11.43-5.51h-.01Zm-248.46 22.81c-8.08-.1-11.53 2.88-11.51 2.87-2.38 1.69-3.54 4.2-3.54 7.68a9.4 9.4 0 0 0 1.2 5.18 7.642 7.642 0 0 0 2.28 2.35s3.56 2.81 11.64 2.31a81.118 81.118 0 0 0 10.71-1.43v-18.05a82.618 82.618 0 0 0-10.78-.92v.01Z" fill="#fff"/></g><defs><clipPath id="a"><path fill="#fff" d="M0 0h1024v1024H0z"/></clipPath></defs></svg>