<svg width="1024" height="1024" viewBox="0 0 1024 1024" fill="none" xmlns="http://www.w3.org/2000/svg">
<g clip-path="url(#clip0_2_3387)">
<path d="M512 1024C794.77 1024 1024 794.77 1024 512C1024 229.23 794.77 0 512 0C229.23 0 0 229.23 0 512C0 794.77 229.23 1024 512 1024Z" fill="#728DBE"/>
<path d="M321.78 465.77L337.78 555.97H313.12L302.89 485.73H300.44L290.21 556H265.58L281.58 465.8L321.78 465.77ZM438.56 556H461.56L457.87 465.8H419.3L412.49 515.64H410.49L403.68 465.8H365.11L361.42 556H384.42L385.56 488.17H387.83L399.37 556H423.59L435.16 488.17H437.43L438.56 556ZM580.17 536.1V537.63L580.3 539.11L580.52 540.54L580.83 541.92L581.22 543.26L581.69 544.54L582.24 545.78L582.86 546.97L583.55 548.11L584.31 549.2L585.14 550.2L586.03 551.2L586.98 552.15L587.98 553.05L589.04 553.9L590.15 554.7L591.3 555.45L592.5 556.15L593.74 556.81L595.02 557.42L596.33 557.98L597.68 558.49L599.05 558.95L600.45 559.37L601.88 559.74L603.33 560.06L606.27 560.55L609.27 560.85L612.27 560.96L615.27 560.87L618.27 560.59L621.21 560.12L622.66 559.81L624.08 559.45L625.49 559.04L626.86 558.59L628.21 558.09L629.53 557.54L630.81 556.94L632.05 556.3L633.25 555.61L634.4 554.87L635.51 554.08L636.57 553.24L637.57 552.35L638.52 551.42L639.41 550.42L640.24 549.42L641 548.34L641.69 547.21L642.32 546.03L642.87 544.81L643.34 543.54L643.73 542.22L644.04 540.86L644.26 539.45L644.4 537.99V465.77H619.2V536.35L619.14 536.7L619 537L618.91 537.34L618.8 537.67L618.67 537.99L618.52 538.31L618.36 538.62L618.19 538.92L618 539.21L617.8 539.49L617.58 539.76L617.35 540.02L617.11 540.27L616.86 540.5L616.6 540.72L616.32 540.92L616.03 541.11L615.74 541.29L615.43 541.45L615.12 541.6L614.79 541.73L614.46 541.85L614.12 541.95L613.77 542.03L613.42 542.1H611.27L610.92 542.03L610.57 541.95L610.23 541.85L609.9 541.73L609.58 541.6L609.27 541.45L608.96 541.29L608.66 541.11L608.37 540.92L608.1 540.72L607.83 540.5L607.58 540.27L607.34 540.02L607.11 539.76L606.9 539.49L606.7 539.21L606.51 538.92L606.34 538.62L606.18 538.31L606 538L605.87 537.68L605.76 537.35L605.66 537.01L605.58 536.66L605.52 536.31V465.77H580.1L580.18 536.07L580.17 536.1ZM752 465.77H730.09V522.19H729.57L704 465.77H677V556H698.93V503.3H699.45L723.37 556H752V465.8V465.77ZM488.39 538.2V539.41L488.46 540.01L488.55 540.59L488.66 541.17L488.79 541.74L488.94 542.3L489.11 542.85L489.3 543.39L489.51 543.92L489.73 544.44L489.98 544.95L490.24 545.46L490.52 545.95L491.13 546.95L491.81 547.87L492.55 548.76L493.35 549.61L494.21 550.43L495.12 551.21L496.12 551.95L497.12 552.65L498.18 553.31L499.29 553.93L500.44 554.52L501.63 555.07L502.86 555.58L505.42 556.48L508.1 557.22L510.87 557.8L513.71 558.23L516.6 558.5L519.52 558.61L522.44 558.55L525.35 558.33L528.22 557.95L531.03 557.4L533.77 556.68L535.1 556.26L536.4 555.8L537.67 555.29L538.91 554.74L540.11 554.15L541.27 553.51L542.39 552.83L543.47 552.11L544.47 551.35L545.47 550.54L546.4 549.69L547.27 548.79L548.09 547.85L548.85 546.85L549.54 545.85L550.17 544.78L550.73 543.66L551.22 542.5L551.63 541.3L552 540L552.26 538.71L552.43 537.37L552.71 533.86L552.82 530.62L552.76 527.62L552.54 524.88L552.37 523.6L552.17 522.37L551.93 521.2L551.65 520.08L551.34 519.01L551 518.01L550.63 517.01L550.23 516.08L549.8 515.2L549.34 514.36L548.85 513.56L548.34 512.8L547.8 512.07L547.24 511.38L546.65 510.72L546.04 510.09L545.41 509.49L544.76 508.92L544.09 508.38L543.4 507.86L541.97 506.86L540.49 505.96L538.95 505.12L537.37 504.33L534.11 502.84L527.42 499.84L525.76 498.99L524.12 498.08L522.51 497.08L521 496.06L519.48 494.87L518 493.56L517.29 492.86L516.59 492.12L515.92 491.34L515.26 490.52L514.93 489.83L514.66 489.16L514.44 488.51L514.27 487.89L514.14 487.29L514.06 486.72V484.41L514.12 484.18L514.18 483.96L514.26 483.74L514.34 483.53L514.43 483.32L514.52 483.12L514.62 482.92L514.72 482.73L514.83 482.55L514.95 482.37L515.07 482.2L515.33 481.87L515.61 481.56L515.9 481.27L516.21 481L516.53 480.75L516.86 480.52L517.2 480.31L517.54 480.13L518 480L518.35 479.86L518.69 479.74L519.03 479.64L519.36 479.56L519.69 479.5H521.14L521.92 479.56L522.64 479.65L523.3 479.77L523.91 479.92L524.19 480.01L524.46 480.1L524.72 480.2L524.97 480.31L525.21 480.43L525.43 480.55L525.64 480.68L525.84 480.82L526.03 480.96L526.21 481.11L526.38 481.26L526.54 481.42L526.69 481.59L526.83 481.76L526.96 481.94L527.08 482.13L527.19 482.32L527.3 482.52L527.4 482.72L527.49 482.93L527.57 483.15L527.65 483.37L527.78 483.83L527.88 484.31L527.96 484.81L528.02 485.33L528.09 486.42V487.58L527.89 492.81H550.89V479.28L550.84 478.8L550.77 478.32L550.68 477.85L550.57 477.39L550.44 476.93L550.29 476.48L550.13 476.03L549.95 475.59L549.75 475.16L549.53 474.73L549.3 474.31L549.05 473.89L548.5 473.08L547.89 472.29L547.22 471.53L546.5 470.8L545.72 470.09L544.89 469.41L544.01 468.76L543.08 468.14L542.08 467.54L541.08 466.97L540.02 466.43L537.8 465.43L535.45 464.57L532.99 463.83L530.44 463.22L527.81 462.74L525.13 462.39L522.42 462.18L519.7 462.11L516.98 462.19L514.29 462.41L511.65 462.78L509.07 463.31L506.57 463.99L505.36 464.39L504.18 464.83L503.03 465.31L501.91 465.83L500.83 466.4L499.83 467.01L498.83 467.66L497.83 468.35L496.92 469.09L496.05 469.87L495.23 470.69L494.46 471.56L493.75 472.47L493.1 473.47L492.51 474.47L491.98 475.47L491.51 476.56L491.11 477.7L490.78 478.89L490.53 480.12L490.28 481.79L490.09 483.61L489.97 485.55V489.65L490.09 491.79L490.3 493.95L490.61 496.1L491.03 498.21L491.56 500.21L491.87 501.21L492.21 502.21L492.58 503.14L492.99 504.04L493.43 504.91L493.91 505.74L494.42 506.53L494.97 507.27L495.55 507.96L495.86 508.29L496.18 508.6L496.51 508.9L496.84 509.18L497.18 509.45L497.54 509.7L499.95 511.7L502.33 513.43L504.67 514.96L506.96 516.32L511.33 518.61L515.33 520.52L518.93 522.25L520.54 523.11L522.01 524.01L522.69 524.48L523.33 524.96L523.93 525.47L524.49 526L525.01 526.56L525.25 526.85L525.48 527.15L525.7 527.46L525.9 527.78L526.1 528.11L526.28 528.45L526.62 529.16L526.91 529.85L527.15 530.53L527.34 531.19L527.48 531.83L527.58 532.46L527.64 533.07V534.23L527.58 534.78L527.49 535.31L527.36 535.82L527.2 536.31L527.01 536.78L526.8 537.23L526.56 537.65L526.3 538.05L526.02 538.43L525.72 538.78L525.41 539.11L525.08 539.41L524.74 539.69L524.39 539.94L524.03 540.17L523.66 540.37L523.28 540.54L522.91 540.68L522.54 540.8H521.08L520.27 540.74L519.52 540.64L518.83 540.51L518.19 540.35L517.89 540.26L517.6 540.16L517.33 540.05L517.06 539.93L516.81 539.8L516.57 539.67L516.34 539.53L516.12 539.38L515.91 539.22L515.71 539.05L515.52 538.88L515.35 538.7L515.18 538.52L515.02 538.33L514.88 538.13L514.74 537.93L514.61 537.72L514.49 537.5L514.38 537.28L514.27 537.05L514.17 536.82L514.08 536.58L513.92 536.09L513.79 535.58L513.68 535.05L513.59 534.5L513.53 533.93L513.45 532.75V531.51L513.62 526.12H488.39V538.2ZM210.34 462.06L206.42 462.31L202.82 462.78L201.14 463.09L199.54 463.45L198.01 463.86L196.56 464.31L195.18 464.81L193.87 465.35L192.63 465.93L191.46 466.55L190.36 467.21L189.36 467.9L188.36 468.63L187.45 469.39L186.6 470.18L185.81 471L185.08 471.84L184.4 472.71L183.78 473.6L183.21 474.51L182.69 475.44L182.23 476.44L181.81 477.44L181.44 478.44L181.12 479.44L180.84 480.44L180.61 481.44L180.42 482.44L180.27 483.44L180.16 484.44L180.05 486.52V488.6L180.2 490.66L180.47 492.66L180.84 494.66L181.3 496.59L181.84 498.45L182.45 500.22L183.12 501.89L183.83 503.45L184.58 504.89L185.35 506.18L186.13 507.32L186.52 507.83L186.91 508.3L187.29 508.72L187.67 509.09L188.04 509.41L188.22 509.55L188.4 509.68L190.81 511.68L193.19 513.41L195.53 514.94L197.82 516.3L202.19 518.59L206.19 520.5L209.79 522.23L211.4 523.09L212.87 523.99L213.55 524.46L214.19 524.94L214.79 525.45L215.35 525.98L215.86 526.54L216.1 526.83L216.33 527.13L216.55 527.44L216.76 527.76L216.95 528.09L217.13 528.43L217.47 529.14L217.76 529.83L218 530.51L218.19 531.17L218.33 531.81L218.43 532.44L218.49 533.05V534.21L218.43 534.76L218.34 535.29L218.21 535.8L218.05 536.29L217.86 536.76L217.65 537.21L217.41 537.63L217.15 538.03L216.87 538.41L216.57 538.76L216.26 539.09L215.93 539.39L215.59 539.67L215.24 539.92L214.88 540.15L214.51 540.35L214.14 540.52L213.77 540.66L213.39 540.78H212L211.19 540.72L210.44 540.62L209.74 540.49L209.1 540.33L208.8 540.24L208.51 540.14L208.23 540.03L207.97 539.91L207.72 539.78L207.48 539.65L207.25 539.51L207.03 539.36L206.82 539.2L206.62 539.03L206.43 538.86L206.25 538.68L206.08 538.5L205.92 538.31L205.77 538.11L205.63 537.91L205.5 537.7L205.38 537.48L205.27 537.26L205.17 537.03L205 537L204.91 536.76L204.75 536.27L204.62 535.76L204.51 535.23L204.43 534.68L204.37 534.11L204.29 532.93V531.69L204.47 526.3H179.25V539.41L179.32 540.01L179.41 540.59L179.52 541.17L179.65 541.74L179.8 542.3L179.97 542.85L180.16 543.39L180.37 543.92L180.59 544.44L180.83 544.95L181.09 545.46L181.37 545.95L181.98 546.95L182.66 547.87L183.4 548.76L184.2 549.61L185.06 550.43L185.97 551.21L186.97 551.95L187.97 552.65L189.04 553.31L190.15 553.93L191.3 554.52L192.49 555.07L193.72 555.58L196.28 556.48L198.95 557.22L201.72 557.8L204.56 558.23L207.45 558.5L210.37 558.61L213.29 558.55L216.2 558.33L219.07 557.95L221.88 557.4L224.61 556.68L225.94 556.26L227.24 555.8L228.51 555.29L229.75 554.74L230.95 554.15L232.11 553.51L233.23 552.83L234.31 552.11L235.31 551.35L236.31 550.54L237.24 549.69L238.11 548.79L238.93 547.85L239.69 546.85L240.38 545.85L241.01 544.78L241.57 543.66L242.06 542.5L242.47 541.3L242.81 540.05L243.07 538.76L243.25 537.42L243.53 533.91L243.64 530.67L243.58 527.67L243.36 524.93L243.19 523.65L242.99 522.42L242.75 521.25L242.48 520.13L242.17 519.06L241.83 518.06L241.46 517.06L241.06 516.13L240.63 515.25L240.17 514.41L239.68 513.61L239.17 512.85L238.63 512.12L238.07 511.43L237.48 510.77L236.87 510.14L236.24 509.54L235.59 508.97L234.92 508.43L234.23 507.91L232.8 506.91L231.31 506.01L229.77 505.17L228.19 504.38L225 502.91L218.31 499.91L216.65 499.06L215.01 498.15L213.4 497.15L211.83 496.07L210.3 494.88L208.83 493.57L208.12 492.87L207.42 492.13L206.74 491.35L206.08 490.53L205.75 489.84L205.48 489.17L205.26 488.52L205.09 487.9L204.96 487.3L204.88 486.73V484.65L204.93 484.42L204.99 484.19L205.06 483.97L205.13 483.75L205.21 483.54L205.3 483.33L205.39 483.13L205.49 482.93L205.6 482.74L205.71 482.56L205.83 482.38L205.95 482.21L206.21 481.88L206.49 481.57L206.79 481.28L207.1 481.01L207.42 480.76L207.75 480.53L208.09 480.32L208.43 480.14L208.78 479.98L209.13 479.84L209.47 479.72L209.81 479.62L210.14 479.54L210.47 479.48H211.93L212.71 479.54L213.43 479.63L214.09 479.75L214.7 479.9L214.99 479.99L215.26 480.08L215.52 480.18L215.77 480.29L216.01 480.41L216.23 480.53L216.44 480.66L216.64 480.8L216.83 480.94L217.01 481.09L217.18 481.24L217.34 481.4L217.49 481.57L217.63 481.74L217.76 481.92L217.88 482.11L218 482.3L218.11 482.5L218.21 482.7L218.3 482.91L218.38 483.13L218.45 483.35L218.58 483.81L218.68 484.29L218.76 484.79L218.82 485.31L218.89 486.4V487.56L218.69 492.79H241.69V478.94L241.62 478.3L241.53 477.67L241.41 477.06L241.27 476.46L241.1 475.88L240.91 475.32L240.7 474.77L240.47 474.23L240.22 473.71L239.95 473.2L239.66 472.71L239.35 472.23L239.02 471.76L238.67 471.31L238.3 470.87L237.91 470.44L237.51 470.03L237.09 469.63L236.2 468.87L235.25 468.16L234.25 467.49L233.2 466.87L232.1 466.3L230.96 465.77L229.78 465.28L228.56 464.83L226.04 464.05L223.44 463.42L220.79 462.92L218.12 462.54L215.46 462.27L210.33 462.03L210.34 462.06ZM816.1 561.88L818.98 561.95L821.66 561.9L824.15 561.73L826.46 561.45L828.59 561.07L830.59 560.59L831.51 560.32L832.39 560.02L833.23 559.7L834.03 559.36L834.79 559L835.52 558.62L836.21 558.22L836.87 557.8L837.49 557.37L838.08 556.92L838.64 556.46L839.16 555.98L839.66 555.48L840.13 554.97L840.57 554.45L840.98 553.92L841.36 553.38L841.72 552.83L842.05 552.27L842.36 551.7L842.64 551.12L842.9 550.54L843.36 549.35L843.74 548.14L844.05 546.92L844.3 545.69L844.49 544.46L844.62 543.23L844.71 542.01L844.79 539.63V537.36L844.73 533.36V508.77H814.95V521.85H821V538.3L820.94 538.62L820.87 538.94L820.78 539.25L820.68 539.55L820.56 539.85L820.43 540.14L820.29 540.42L820.13 540.69L819.96 540.95L819.78 541.21L819.59 541.46L819.39 541.69L819.18 541.92L818.95 542.13L818.71 542.33L818.46 542.52L818.21 542.7L817.95 542.87L817.68 543.03L817.4 543.17L817.11 543.3L816.81 543.42L816.51 543.52L816.2 543.61L815.88 543.68L815.56 543.73H813.57L813.25 543.68L812.93 543.61L812.62 543.52L812.32 543.42L812.03 543.3L811.74 543.17L811.46 543.03L811.19 542.87L810.92 542.7L810.67 542.52L810.42 542.33L810.19 542.13L809.96 541.92L809.74 541.69L809.54 541.46L809.35 541.21L809.17 540.95L809 540.69L808.84 540.42L808.7 540.14L808.57 539.85L808.46 539.55L808.36 539.25L808.27 538.94L808.2 538.62L808.14 538.3V485.99L808.2 485.67L808.27 485.36L808.36 485.05L808.46 484.75L808.58 484.45L808.71 484.16L808.85 483.88L809.01 483.61L809.18 483.35L809.36 483.1L809.55 482.85L809.75 482.62L809.97 482.39L810.2 482.18L810.43 481.97L810.68 481.78L810.93 481.6L811.2 481.43L811.47 481.27L811.75 481.13L812 481L812.29 480.88L812.59 480.78L812.9 480.69L813.22 480.62L813.54 480.56H815.53L815.85 480.62L816.17 480.69L816.48 480.78L816.78 480.88L817.08 481L817.37 481.13L817.65 481.27L817.92 481.43L818.18 481.6L818.43 481.78L818.68 481.97L818.92 482.18L819.15 482.39L819.36 482.62L819.56 482.85L819.75 483.1L819.93 483.35L820.1 483.61L820.26 483.88L820.4 484.16L820.53 484.45L820.65 484.75L820.75 485.05L820.84 485.36L820.91 485.67L820.97 485.99V495.3H844.64V483.7L844.58 483.07L844.5 482.45L844.4 481.84L844.28 481.24L844.14 480.65L844 480L843.83 479.43L843.63 478.87L843.42 478.32L843.19 477.78L842.94 477.25L842.67 476.73L842.08 475.73L841.42 474.73L840.7 473.8L839.92 472.91L839.08 472.06L838.18 471.25L837.18 470.49L836.18 469.77L835.18 469.09L834.09 468.45L832.96 467.85L831.79 467.29L830.58 466.77L829.34 466.29L828.07 465.85L825.44 465.1L822.72 464.52L819.94 464.1L817.11 463.84L814.26 463.75L811.41 463.82L808.58 464.06L805.8 464.46L803.08 465.02L800.45 465.75L799.18 466.18L797.94 466.65L796.73 467.16L795.56 467.71L794.43 468.3L793.34 468.93L792.34 469.6L791.34 470.31L790.34 471.06L789.44 471.85L788.6 472.68L787.82 473.55L787.1 474.47L786.44 475.47L785.85 476.47L785.58 476.98L785.33 477.5L785 478L784.78 478.54L784.59 479.09L784.41 479.65L784.26 480.22L784.12 480.8L784 481.4L783.9 482.01L783.82 482.62L783.76 483.25V542.89L783.82 543.7L783.92 544.49L784.04 545.26L784.18 546L784.35 546.72L784.55 547.42L784.77 548.1L785.02 548.76L785.29 549.4L785.58 550.02L785.9 550.62L786.24 551.2L786.6 551.76L786.98 552.3L787.38 552.82L787.8 553.33L788.23 553.82L788.68 554.29L789.15 554.74L789.63 555.17L790.63 555.99L791.7 556.74L792.82 557.43L793.99 558.06L795.2 558.63L796.45 559.15L797.73 559.62L799.04 560.03L800.37 560.4L803.07 560.99L805.79 561.42L808.49 561.7L811.12 561.85H816.03L816.1 561.88Z" fill="white"/>
</g>
<defs>
<clipPath id="clip0_2_3387">
<rect width="1024" height="1024" fill="white"/>
</clipPath>
</defs>
</svg>
