<svg width="1024" height="1024" fill="none" xmlns="http://www.w3.org/2000/svg"><g clip-path="url(#a)"><path d="M512 1024c282.77 0 512-229.23 512-512S794.77 0 512 0 0 229.23 0 512s229.23 512 512 512Z" fill="#98DC9A"/><path d="M465.79 672 828.5 441.77 671.78 672H465.79ZM224 534.66 269.07 672h177.27L224 534.66Zm221.74 124.85-173.1-207.8-48.24 71.07 221.34 136.73Zm12.67-.91 222.87-358.31-327.72 232.5 104.85 125.82v-.01Zm252.31-223.69c24.26 0 44.26-19.73 44.57-43.98.15-11.9-4.34-23.15-12.65-31.68-8.31-8.52-19.45-13.3-31.35-13.46h-.58c-24.28 0-44.27 19.72-44.57 43.98-.16 11.91 4.33 23.17 12.64 31.68 8.32 8.53 19.45 13.3 31.35 13.46h.6-.01Zm-14.77-138.68L832 427.32 472.47 655.54l223.48-359.31Zm14.76 114.47c11.24 0 20.36-9.11 20.36-20.34S721.96 370 710.71 370s-20.37 9.11-20.37 20.36 9.11 20.34 20.37 20.34Zm26.39-46.03c6.87 7.04 10.57 16.34 10.45 26.18-.27 20.04-16.78 36.34-36.83 36.34h-.49c-9.84-.13-19.04-4.09-25.91-11.13-6.86-7.05-10.58-16.34-10.45-26.18.26-20.03 16.79-36.34 36.84-36.34h.49c9.83.13 19.04 4.09 25.91 11.13h-.01Z" fill="#fff"/></g><defs><clipPath id="a"><path fill="#fff" d="M0 0h1024v1024H0z"/></clipPath></defs></svg>