<svg width="1024" height="1024" viewBox="0 0 1024 1024" fill="none" xmlns="http://www.w3.org/2000/svg">
<g clip-path="url(#clip0_2_3396)">
<path d="M512 1024C794.77 1024 1024 794.77 1024 512C1024 229.23 794.77 0 512 0C229.23 0 0 229.23 0 512C0 794.77 229.23 1024 512 1024Z" fill="#98DC9A"/>
<path d="M465.79 672L828.5 441.77L671.78 672H465.79ZM224 534.66L269.07 672H446.34L224 534.66ZM445.74 659.51L272.64 451.71L224.4 522.78L445.74 659.51ZM458.41 658.6L681.28 300.29L353.56 532.79L458.41 658.61V658.6ZM710.72 434.91C734.98 434.91 754.98 415.18 755.29 390.93C755.44 379.03 750.95 367.78 742.64 359.25C734.33 350.73 723.19 345.95 711.29 345.79H710.71C686.43 345.79 666.44 365.51 666.14 389.77C665.98 401.68 670.47 412.94 678.78 421.45C687.1 429.98 698.23 434.75 710.13 434.91H710.73H710.72ZM695.95 296.23L832 427.32L472.47 655.54L695.95 296.23ZM710.71 410.7C721.95 410.7 731.07 401.59 731.07 390.36C731.07 379.13 721.96 370 710.71 370C699.46 370 690.34 379.11 690.34 390.36C690.34 401.61 699.45 410.7 710.71 410.7ZM737.1 364.67C743.97 371.71 747.67 381.01 747.55 390.85C747.28 410.89 730.77 427.19 710.72 427.19H710.23C700.39 427.06 691.19 423.1 684.32 416.06C677.46 409.01 673.74 399.72 673.87 389.88C674.13 369.85 690.66 353.54 710.71 353.54H711.2C721.03 353.67 730.24 357.63 737.11 364.67H737.1Z" fill="white"/>
</g>
<defs>
<clipPath id="clip0_2_3396">
<rect width="1024" height="1024" fill="white"/>
</clipPath>
</defs>
</svg>
