<svg width="1024" height="1024" fill="none" xmlns="http://www.w3.org/2000/svg"><g clip-path="url(#a)"><path d="M512 1024c282.77 0 512-229.23 512-512S794.77 0 512 0 0 229.23 0 512s229.23 512 512 512Z" fill="#728DBE"/><path d="m627.2 512.2-57.1-57.1-58.2-58.3c-32.1-32.2-32.1-84.4 0-116.6L395.5 396.8c-32.2 32.2-32.2 84.4 0 116.6l56.9 57.1 58.2 58.2c32.2 32.2 32.2 84.4 0 116.6L627 628.7c32.2-32.2 32.2-84.4 0-116.6l.2.1ZM512.7 736.6c-4.8 8.9-11.9 16.5-20.4 21.9-31.2 16.4-70.6 11.4-96.6-14.7-31.5-31.6-32.2-82.6-1.5-115l44.1-44 58.2 58.2c25.3 25.3 30.7 63 16.2 93.6Zm-1.2-449.2c4.8-8.9 11.9-16.5 20.4-21.9 31.2-16.4 70.6-11.4 96.6 14.7 31.5 31.6 32.2 82.6 1.5 115l-44.1 44-58.3-58.2c-25.3-25.3-30.6-63-16.1-93.6Z" fill="#fff"/></g><defs><clipPath id="a"><path fill="#fff" d="M0 0h1024v1024H0z"/></clipPath></defs></svg>