<svg width="1024" height="1024" fill="none" xmlns="http://www.w3.org/2000/svg"><g clip-path="url(#a)"><path d="M512 1024c282.77 0 512-229.23 512-512S794.77 0 512 0 0 229.23 0 512s229.23 512 512 512Z" fill="#F9DE81"/><path d="M346.61 726.33c-4.66-16.5.59-39.25 12.47-54.07 4-5 12.16-13.14 22.83-13.14h1.17c7.77.43 13.48 2.67 17 6.64 4.51 5.15 4.11 11.94 4.09 12.17a6.38 6.38 0 0 0 12.16 3.2c.08-.17 8.28-17.54 21-16.17 11.52 1.27 11.93 23.74 11.93 24a6.376 6.376 0 0 0 4.833 6.17 6.38 6.38 0 0 0 7.167-3.17c3.6-6.67 12.19-2.74 13.88-1.88 9.46 4.8 20.17 19 10.91 38.46-16.19 34-63.82 40-80.82 39.41-19.09-.62-50.9-14.3-58.62-41.62ZM641 653.69c-7.83.44-13.57 2.71-17 6.75-4.44 5.16-4 12-4 12a6.378 6.378 0 0 1-9.08 6.368 6.383 6.383 0 0 1-3.08-3.128c-.13-.27-8.27-17.58-21-16.19-11.43 1.28-11.94 23.73-11.94 24a6.376 6.376 0 0 1-4.833 6.17 6.38 6.38 0 0 1-7.167-3.17 7 7 0 0 0-6.58-3.78 17.609 17.609 0 0 0-7.3 1.94c-9.45 4.8-20.15 19-10.9 38.43 16.18 34 63.82 39.94 80.82 39.38 19.1-.64 50.93-14.31 58.6-41.63 4.64-16.52-.64-39.27-12.54-54.1-4.13-5.11-12.75-13.67-24-13.04ZM514.56 642h.26c12.46-.37 21.86-23.23 25.75-36.23-9.94-4.43-19.92-11.29-26-19.78-6.27 7.12-15.93 13.92-25.24 18.53C493.41 619.27 503 642 514.56 642Zm19.74-87.85c-.74-7.17-10.45-13-21.64-13-11.19 0-20.87 5.85-21.66 12.95 0 .34-.07.69-.07.91 0 6.48 7.57 12.33 17.61 13.6l1 .11c1.19.11 2.16.16 3.08.16a31.766 31.766 0 0 0 7.44-.88l.34-.09.2-.05c8.22-2.15 13.73-7.31 13.73-12.85 0-.18 0-.47-.06-.79l.03-.07Zm-84.9-44.26a75.81 75.81 0 0 0 5.24-13.51c7.85-27.87-1.21-55.81-20.51-68.87a17.146 17.146 0 0 0-2-.13c-15.35 0-27.8 20.72-27.8 46.28 0 25.56 12.45 46.28 27.8 46.28 6.52 0 12.52-3.77 17.27-10.05Zm317.52 85c-1.72 2.32-8.68 2.78-23.06-2.85a6.388 6.388 0 0 0-3.684-.295 6.385 6.385 0 0 0-4.506 8.755c.15.34 14.57 34.06 19.5 58.67a22.992 22.992 0 0 1-7 21.54c-21.44 19.23-41.57 31-56.46 33.08 1.66-18.58-4.58-39.91-16.72-55.05-9.79-12.2-22.1-18.54-34.64-17.84-11.43.64-20.18 4.39-26 11.16a27.9 27.9 0 0 0-3.65 5.41c-5.7-6.15-14.14-11.92-25.25-10.68-13.23 1.53-19.45 13.21-21.96 24.43-5.92-2.12-13.13-1.52-20.25 2.1-16.77 8.53-28.3 30.8-16.64 55.29.67 1.4 1.39 2.75 2.14 4.08l-31 .95c11.35-24.35-.14-46.44-16.83-54.91-7.13-3.62-14.34-4.21-20.26-2.07-2.48-11.18-8.74-22.89-21.93-24.34-11.11-1.24-19.55 4.54-25.26 10.68a27.805 27.805 0 0 0-3.65-5.42c-5.83-6.77-14.58-10.53-26-11.16-12.55-.69-24.87 5.65-34.66 17.86-11 13.66-17.09 32.37-17 49.55-15-2.12-35.08-13.84-56.32-33a22.999 22.999 0 0 1-7-21.6c4.94-24.5 19.35-58.32 19.5-58.66a6.378 6.378 0 0 0-4.511-8.742 6.37 6.37 0 0 0-3.679.292c-14.38 5.63-21.34 5.16-23.06 2.84-1.93-2.6-8.33-20.32 55-114.1 34-50.38 71.29-97.68 71.67-98.15a6.378 6.378 0 0 0-1.7-9.421 6.387 6.387 0 0 0-3.44-.919c-29.1.66-60.17-28.14-73.21-56.27-10.37-22.36-11.78-63.81 1.94-83.75 6-8.68 14.07-12.55 24.81-11.81 28.84 2 32.74 25.53 35.72 64.08.79 10.23 1.61 20.81 3.42 30.45 8.32 44.22 39.52 46.21 40.84 46.27a6.432 6.432 0 0 0 2.41-.35c98.09-34.32 193.69-.38 194.64 0 .796.291 1.643.42 2.49.38 1.32-.06 32.49-2.08 40.83-46.26 1.82-9.62 2.64-20.19 3.45-30.4 3-38.63 7-62.22 35.84-64.17 10.75-.72 18.89 3.16 24.88 11.89 13.72 20 12.3 61.41 1.93 83.71-13.09 28.13-44.09 56.85-73.22 56.27a6.387 6.387 0 0 0-5.852 3.539 6.38 6.38 0 0 0 .712 6.801c.37.47 37.66 47.77 71.66 98.16 63.35 93.72 56.95 111.43 55.02 114.03v-.05Zm-204-216.57a6.374 6.374 0 0 0 2.396 4.256 6.39 6.39 0 0 0 4.704 1.314c13.18-1.61 32.19 12.22 38.41 17.68a6.38 6.38 0 1 0 8.43-9.58c-2.72-2.4-27.18-23.32-48.38-20.77a6.373 6.373 0 0 0-4.271 2.411 6.379 6.379 0 0 0-1.299 4.729l.01-.04Zm-30.6 63.21a6.372 6.372 0 0 0 3.711 3.22 6.369 6.369 0 0 0 4.898-.372 6.385 6.385 0 0 0 3.462-6.233 6.4 6.4 0 0 0-.701-2.405C536.37 421.41 537 412 537 411.72a6.377 6.377 0 0 0-5.675-7.015 6.381 6.381 0 0 0-7.015 5.675c-.12 1.31-1.12 13.27 8.01 31.2v-.05Zm-26.91-1.44a6.38 6.38 0 1 0 12.76 0v-30.41a6.377 6.377 0 0 0-1.869-4.511 6.377 6.377 0 0 0-9.022 0 6.377 6.377 0 0 0-1.869 4.511v30.41Zm-22.68 4.23a6.38 6.38 0 0 0 8.58-2.79c9.13-17.93 8.13-29.89 8-31.19a6.334 6.334 0 0 0-7-5.61 6.412 6.412 0 0 0-5.73 6.94c0 .09.73 9.54-6.66 24.07a6.382 6.382 0 0 0 2.81 8.63v-.05Zm-88.33-39.61a6.38 6.38 0 0 0 9 .58c6.22-5.46 25.24-19.29 38.42-17.68a6.378 6.378 0 0 0 5.367-10.07 6.382 6.382 0 0 0-3.837-2.54c-21.15-2.55-45.66 18.37-48.38 20.77a6.382 6.382 0 0 0-.58 8.98l.01-.04Zm-74.54 238.6 12.38-25.09a10.212 10.212 0 0 0-4.464-14.044 10.214 10.214 0 0 0-13.846 5.044l-12.38 25.09a10.212 10.212 0 0 0 4.464 14.044 10.214 10.214 0 0 0 13.846-5.044Zm36.38-33.66a10.21 10.21 0 0 0-13.67 4.64l-12.38 25.09a10.204 10.204 0 0 0 1.314 11.455 10.198 10.198 0 0 0 7.137 3.506 10.213 10.213 0 0 0 9.869-5.961l12.38-25.09a10.21 10.21 0 0 0-4.64-13.64h-.01ZM434.52 546c15.47-10.45 27-26.83 32.41-46.12 11.33-40.21-7.55-80.84-42.07-90.56-34.52-9.72-71.86 15.04-83.15 55.25-5.43 19.29-4.17 39.27 3.57 56.26 7.9 17.36 21.57 29.54 38.5 34.3a56.868 56.868 0 0 0 15.46 2.14c12.09.01 24.23-3.83 35.28-11.27Zm166.36 29.18a6.392 6.392 0 0 0-7.51-5c-2.38.48-6.07-.43-9.92-1.9a68.384 68.384 0 0 1-11.63-5.87 6.383 6.383 0 0 0-6.91 10.73 82.62 82.62 0 0 0 9.52 5.2c-1.73 8.72-5.81 20.06-11.43 20.27a34.987 34.987 0 0 1-11.75-2.15 6.32 6.32 0 0 0-1.58-.62h-.28C537.7 591.37 525 582.43 522 573c10.34-2.7 17.73-9.74 17.73-18a13.963 13.963 0 0 0-.1-1.43c15.37-4.17 25.76-11.8 25.76-20.57 0-13.22-23.61-23.94-52.74-23.94-29.13 0-52.74 10.72-52.74 23.94 0 7.38 7.35 14 18.89 18.38 2.27.8 4.58 1.5 6.9 2.14-.064.494-.1.992-.11 1.49 0 9.46 9.62 17.3 22.28 18.9-3.4 6-16.65 16-27.71 20.9a6.3 6.3 0 0 0-1.57.66 25.793 25.793 0 0 1-8.76 2.18c-4.3 0-9.94-9.65-13.2-19.63a51.139 51.139 0 0 0 6.23-6.17 6.386 6.386 0 0 0 .858-7.055 6.384 6.384 0 0 0-6.202-3.472 6.38 6.38 0 0 0-4.356 2.237 34.592 34.592 0 0 1-7.6 6.77l-.2.13c-5.33 3.35-9.3 3.27-9.67 3.26a6.38 6.38 0 0 0-1.12 12.71c.21 0 .66.05 1.31.05a28.067 28.067 0 0 0 9.52-1.86c3.65 10.15 11.39 25.78 24.42 25.78h.18a29.814 29.814 0 0 0 7.34-1.22c4.16 14.55 15.57 45.54 37.17 45.54h.67c21.76-.64 33.28-30.79 37.46-44.78a42.202 42.202 0 0 0 9.86 1.37h.92c14.85-.55 20.87-18.28 23.15-28.88 1.801.367 3.632.561 5.47.58a19.433 19.433 0 0 0 3.82-.36 6.366 6.366 0 0 0 2.301-.951 6.363 6.363 0 0 0 2.717-4.059 6.382 6.382 0 0 0 .002-2.49v.03ZM676 517.76c7.72-16.94 9-36.87 3.58-56.11-5.42-19.24-16.89-35.59-32.31-46-15.76-10.66-33.73-13.91-50.61-9.17-16.88 4.74-30.52 16.89-38.41 34.21-7.72 16.94-9 36.87-3.58 56.11 9.63 34.24 38.13 57.29 67.69 57.28a56.132 56.132 0 0 0 15.23-2.1c16.91-4.76 30.56-16.91 38.41-34.22Zm16.37 125-18.25-37a10.2 10.2 0 0 0-5.848-5.474 10.209 10.209 0 0 0-12.462 14.474l18.25 37a10.208 10.208 0 0 0 18.561-1.386 10.208 10.208 0 0 0-.251-7.614Zm31-7-18.25-37a10.21 10.21 0 0 0-18.31 9l18.25 37a10.208 10.208 0 0 0 18.561-1.386 10.208 10.208 0 0 0-.251-7.614ZM591 427.37a19.004 19.004 0 0 0-11.56 4.19c-9.58 7.31-16.24 23.4-16.24 42.09 0 15.22 4.41 28.72 11.22 37.15 4.63 5.73 10.36 9.13 16.58 9.13 15.35 0 27.8-20.72 27.8-46.28 0-25.56-12.47-46.28-27.8-46.28Z" fill="#fff"/></g><defs><clipPath id="a"><path fill="#fff" d="M0 0h1024v1024H0z"/></clipPath></defs></svg>