<svg width="1024" height="1024" fill="none" xmlns="http://www.w3.org/2000/svg"><g clip-path="url(#a)"><path d="M512 1024c282.77 0 512-229.23 512-512S794.77 0 512 0 0 229.23 0 512s229.23 512 512 512Z" fill="#8C72BD"/><path d="M610.24 493v122a37.758 37.758 0 0 1-32.85 36.05h-85.34a30.508 30.508 0 0 1-27.95-26 23.225 23.225 0 0 1 0-3.84 29.232 29.232 0 0 1 29.23-29h37.12a21.331 21.331 0 0 0 21.33-21.33v-77.23A29.874 29.874 0 0 1 577 464h3.63a29.23 29.23 0 0 1 29.65 28.8.582.582 0 0 0-.04.2Zm-137.81 37.13v-76.58a21.333 21.333 0 0 1 21.33-21.33h39.47A29.232 29.232 0 0 0 562.45 403a21.36 21.36 0 0 0 0-3.63 30.932 30.932 0 0 0-30.08-25.6h-84.48a38.61 38.61 0 0 0-33.71 35.41v121.6A29.231 29.231 0 0 0 443.41 560h4.48a29.874 29.874 0 0 0 24.54-29.87Zm256-91.52v244A96.639 96.639 0 0 1 639.89 768h-161.7a182.823 182.823 0 0 1-182.61-182.83V352.86a96.87 96.87 0 0 1 7.369-37.066 96.867 96.867 0 0 1 20.994-31.424A96.846 96.846 0 0 1 392.43 256H545.6a182.61 182.61 0 0 1 182.61 182.61h.22Zm-58.45 0a124.37 124.37 0 0 0-124.17-124.15H392.43a38.18 38.18 0 0 0-27.073 11.044 38.185 38.185 0 0 0-11.327 26.956v232.71A124.368 124.368 0 0 0 478.19 708.9H636.9a38.188 38.188 0 0 0 32.85-31.57l.23-238.72Z" fill="#fff"/></g><defs><clipPath id="a"><path fill="#fff" d="M0 0h1024v1024H0z"/></clipPath></defs></svg>