<svg width="1024" height="1024" fill="none" xmlns="http://www.w3.org/2000/svg"><g clip-path="url(#a)"><path d="M512 1024c282.77 0 512-229.23 512-512S794.77 0 512 0 0 229.23 0 512s229.23 512 512 512Z" fill="#BD9AFF"/><path d="M582.12 250.3c-144.53-38.73-293.1 47-331.82 191.58-38.72 144.58 47 293.1 191.58 331.82 144.58 38.72 293.1-47 331.82-191.58C812.42 437.54 726.66 289 582.12 250.3Zm-114.6 478.38.36.94a16.905 16.905 0 0 0 21.72 10l63.91-23.49a16.906 16.906 0 0 1 12.933.499 16.886 16.886 0 0 1 8.787 9.501l.25.74a16.91 16.91 0 0 1-7.55 20.42 243.842 243.842 0 0 1-287.767-160.931A243.843 243.843 0 0 1 415.8 285.84a17.762 17.762 0 0 1 15 11.58A17.832 17.832 0 0 0 453.63 308l20.79-7.67a16.906 16.906 0 0 1 12.933.499 16.88 16.88 0 0 1 5.339 3.876 16.876 16.876 0 0 1 3.448 5.625l.25.74a16.91 16.91 0 0 1-10 21.72L341.7 386.14a16.91 16.91 0 0 0-10 21.72l.25.74a16.908 16.908 0 0 0 21.72 10l105.81-39a16.906 16.906 0 0 1 12.933.499 16.886 16.886 0 0 1 8.787 9.501l.25.74a16.909 16.909 0 0 1-10 21.71l-168.99 62.32a16.912 16.912 0 0 0-9.501 8.787 16.905 16.905 0 0 0-.499 12.933l.25.74a16.896 16.896 0 0 0 21.71 10l207.8-76.26a16.906 16.906 0 0 1 12.933.499 16.886 16.886 0 0 1 8.787 9.501l.62 1.68a16.91 16.91 0 0 1-10 21.72l-149.34 54.9a16.912 16.912 0 0 0-9.501 8.787 16.905 16.905 0 0 0-.499 12.933l.25.74a16.896 16.896 0 0 0 21.71 10l68.46-25.19a16.91 16.91 0 0 1 21.72 10l.25.74a16.91 16.91 0 0 1-10 21.72L359.77 602a16.91 16.91 0 0 0-10 21.72l.25.74a16.91 16.91 0 0 0 21.72 10l159.54-58.62a16.91 16.91 0 0 1 21.72 10l.25.74a16.91 16.91 0 0 1-10 21.72l-99.06 36.4a16.912 16.912 0 0 0-9.501 8.787 16.905 16.905 0 0 0-.499 12.933l.25.74a16.905 16.905 0 0 0 21.72 10l124.43-45.64a16.924 16.924 0 0 1 21.409 10.042 16.92 16.92 0 0 1-9.539 21.638l-114.94 43.87a16.895 16.895 0 0 0-11.041 15.211 16.898 16.898 0 0 0 1.041 6.519v-.12Z" fill="#fff"/></g><defs><clipPath id="a"><path fill="#fff" d="M0 0h1024v1024H0z"/></clipPath></defs></svg>