<svg width="1024" height="1024" viewBox="0 0 1024 1024" fill="none" xmlns="http://www.w3.org/2000/svg">
<g clip-path="url(#clip0_2_3414)">
<path d="M512 1024C794.77 1024 1024 794.77 1024 512C1024 229.23 794.77 0 512 0C229.23 0 0 229.23 0 512C0 794.77 229.23 1024 512 1024Z" fill="#BD9AFF"/>
<path d="M582.12 250.3C437.59 211.57 289.02 297.3 250.3 441.88C211.58 586.46 297.3 734.98 441.88 773.7C586.46 812.42 734.98 726.7 773.7 582.12C812.42 437.54 726.66 289 582.12 250.3ZM467.52 728.68L467.88 729.62C468.649 731.703 469.821 733.615 471.329 735.245C472.836 736.875 474.651 738.193 476.668 739.121C478.685 740.05 480.866 740.572 483.085 740.658C485.304 740.743 487.518 740.391 489.6 739.62L553.51 716.13C555.593 715.359 557.807 715.007 560.026 715.092C562.245 715.178 564.426 715.7 566.443 716.629C568.46 717.557 570.274 718.874 571.782 720.505C573.29 722.135 574.462 724.047 575.23 726.13L575.48 726.87C576.828 730.618 576.81 734.721 575.429 738.457C574.047 742.192 571.392 745.32 567.93 747.29C508.526 761.357 446.006 752.63 392.724 722.833C339.443 693.036 299.277 644.336 280.163 586.359C261.049 528.381 264.378 465.342 289.491 409.7C314.605 354.058 359.677 309.86 415.8 285.84C419.139 286.158 422.318 287.414 424.973 289.464C427.627 291.513 429.647 294.271 430.8 297.42C432.433 301.844 435.752 305.441 440.031 307.424C444.309 309.407 449.199 309.614 453.63 308L474.42 300.33C476.503 299.559 478.717 299.207 480.936 299.292C483.155 299.378 485.336 299.9 487.353 300.829C489.37 301.757 491.184 303.074 492.692 304.705C494.2 306.335 495.372 308.246 496.14 310.33L496.39 311.07C497.944 315.276 497.763 319.927 495.888 324.001C494.013 328.074 490.596 331.235 486.39 332.79L341.7 386.14C337.494 387.695 334.078 390.856 332.203 394.929C330.327 399.002 330.147 403.654 331.7 407.86L331.95 408.6C333.505 412.806 336.667 416.222 340.74 418.098C344.813 419.973 349.464 420.154 353.67 418.6L459.48 379.6C461.563 378.829 463.777 378.477 465.996 378.562C468.215 378.648 470.396 379.17 472.413 380.099C474.43 381.027 476.244 382.344 477.752 383.975C479.26 385.605 480.432 387.517 481.2 389.6L481.45 390.34C483.001 394.545 482.819 399.194 480.944 403.265C479.068 407.335 475.654 410.495 471.45 412.05L302.46 474.37C300.377 475.139 298.466 476.31 296.835 477.818C295.205 479.326 293.888 481.14 292.959 483.157C292.03 485.175 291.508 487.355 291.423 489.574C291.337 491.793 291.69 494.007 292.46 496.09L292.71 496.83C293.479 498.912 294.65 500.823 296.158 502.452C297.665 504.082 299.478 505.398 301.494 506.327C303.51 507.255 305.689 507.778 307.907 507.864C310.125 507.95 312.338 507.599 314.42 506.83L522.22 430.57C524.303 429.799 526.517 429.447 528.736 429.532C530.955 429.618 533.136 430.14 535.153 431.069C537.17 431.997 538.984 433.314 540.492 434.945C542 436.575 543.172 438.487 543.94 440.57L544.56 442.25C546.114 446.456 545.933 451.107 544.058 455.181C542.183 459.254 538.766 462.415 534.56 463.97L385.22 518.87C383.137 519.639 381.226 520.81 379.595 522.318C377.965 523.826 376.648 525.64 375.719 527.657C374.79 529.675 374.268 531.855 374.183 534.074C374.097 536.293 374.45 538.507 375.22 540.59L375.47 541.33C376.239 543.412 377.41 545.323 378.918 546.952C380.425 548.582 382.238 549.898 384.254 550.827C386.27 551.755 388.449 552.278 390.667 552.364C392.885 552.45 395.098 552.099 397.18 551.33L465.64 526.14C469.847 524.586 474.498 524.767 478.571 526.642C482.644 528.518 485.806 531.934 487.36 536.14L487.61 536.88C489.164 541.086 488.983 545.737 487.108 549.811C485.233 553.884 481.816 557.045 477.61 558.6L359.77 602C355.564 603.555 352.148 606.716 350.273 610.789C348.397 614.862 348.217 619.514 349.77 623.72L350.02 624.46C351.575 628.666 354.737 632.082 358.81 633.957C362.883 635.833 367.534 636.014 371.74 634.46L531.28 575.84C535.487 574.286 540.138 574.467 544.211 576.342C548.284 578.218 551.446 581.634 553 585.84L553.25 586.58C554.804 590.786 554.623 595.438 552.748 599.511C550.873 603.584 547.456 606.745 543.25 608.3L444.19 644.7C442.107 645.469 440.196 646.64 438.565 648.148C436.935 649.656 435.618 651.47 434.689 653.487C433.76 655.505 433.238 657.685 433.153 659.904C433.067 662.123 433.42 664.337 434.19 666.42L434.44 667.16C435.209 669.243 436.381 671.155 437.889 672.785C439.396 674.415 441.211 675.733 443.228 676.661C445.245 677.59 447.426 678.112 449.645 678.198C451.864 678.283 454.078 677.931 456.16 677.16L580.59 631.52C584.764 630.067 589.34 630.304 593.34 632.18C597.341 634.057 600.449 637.424 601.999 641.562C603.55 645.7 603.42 650.28 601.637 654.324C599.855 658.367 596.561 661.553 592.46 663.2L477.52 707.07C475.436 707.839 473.523 709.011 471.892 710.519C470.261 712.028 468.943 713.843 468.015 715.861C467.086 717.88 466.564 720.061 466.479 722.281C466.394 724.502 466.748 726.717 467.52 728.8V728.68Z" fill="white"/>
</g>
<defs>
<clipPath id="clip0_2_3414">
<rect width="1024" height="1024" fill="white"/>
</clipPath>
</defs>
</svg>
