<svg width="1024" height="1024" viewBox="0 0 1024 1024" fill="none" xmlns="http://www.w3.org/2000/svg">
<g clip-path="url(#clip0_2_3417)">
<path d="M512 1024C794.77 1024 1024 794.77 1024 512C1024 229.23 794.77 0 512 0C229.23 0 0 229.23 0 512C0 794.77 229.23 1024 512 1024Z" fill="#F9DE81"/>
<path d="M221.2 466C221.2 456.4 228.9 448.8 238.4 448.8C243.2 448.8 247 450.7 249.9 453.6V448.8C249.9 416.2 275.8 390.3 308.4 390.3C317 390.3 324.7 392.2 332.4 395.1V390.3C332.4 341.4 371.7 302.1 420.6 302.1C468.5 302.1 507.8 341.4 508.8 389.3C492.5 403.7 480.1 420.9 472.4 441C457.1 431.4 437.9 425.7 418.7 425.7C377.5 425.7 342 448.7 325.7 484.2H238.5C228.8 483.3 221.2 475.6 221.2 466ZM684 413.3C662 391.3 632.3 377.8 598.7 377.8C538.3 377.8 487.5 422.8 479.9 481.3C464.6 461.2 440.6 448.7 413.8 448.7C368.8 448.7 331.4 485.1 331.4 531.1C331.4 544.5 334.3 557 340 567.5C311.3 573.2 290.2 595.3 290.2 622.1C290.2 652.8 318.9 677.7 354.4 677.7C369.7 677.7 384.1 672.9 395.6 664.3L527.8 535C542.2 521.6 561.3 513.9 583.4 513.9C628.4 513.9 663.9 549.4 665.8 593.4C666.8 606.8 660.1 619.3 646.6 626.9C629.4 637.4 607.3 631.7 597.7 615.4C588.1 598.2 594.8 577.1 612.1 566.5C615.9 564.6 620.7 562.7 624.6 561.7C620.8 560.7 616.9 560.7 613.1 560.7C580.5 560.7 554.6 586.6 554.6 619.2C554.6 651.8 580.5 677.7 613.1 677.7H733.8C769.3 675.8 802.8 644.2 802.8 603.9C802.8 563.7 768.3 530.1 728.1 530.1C721.4 541.6 713.7 548.3 704.1 556C713.7 538.8 719.4 519.6 719.4 498.5C719.5 465.1 706.1 435.4 684 413.3Z" fill="white"/>
</g>
<defs>
<clipPath id="clip0_2_3417">
<rect width="1024" height="1024" fill="white"/>
</clipPath>
</defs>
</svg>
