<svg width="1024" height="1024" viewBox="0 0 1024 1024" fill="none" xmlns="http://www.w3.org/2000/svg">
<g clip-path="url(#clip0_2_3423)">
<path d="M512 1024C794.77 1024 1024 794.77 1024 512C1024 229.23 794.77 0 512 0C229.23 0 0 229.23 0 512C0 794.77 229.23 1024 512 1024Z" fill="#9ABEFF"/>
<path d="M442.32 483.19C442.32 483.19 431.08 419.48 429.2 404.49C427.33 389.5 410.46 314.55 408.59 301.43C406.72 288.31 401.09 269.57 384.23 267.7C367.37 265.83 359.87 269.57 354.25 284.56C348.63 299.55 382.36 436.34 387.98 451.33C393.6 466.32 404.84 509.42 408.59 515.04C412.34 520.66 419.83 530.03 432.95 526.28C446.07 522.53 447.94 511.29 442.32 483.18V483.19ZM487.29 228.35C504.15 226.66 513.52 237.72 515.4 245.21C517.27 252.71 526.64 376.38 526.64 410.11C526.64 443.84 530.39 492.56 524.77 501.93C519.15 511.3 517.27 513.17 506.03 513.17C494.79 513.17 489.17 501.93 487.29 488.81C485.1 473.52 481.67 458.83 477.92 425.1C477.26 419.22 462.93 269.57 462.93 256.45C462.93 243.33 468.55 230.22 487.29 228.34V228.35ZM607.22 262.08C627.83 260.71 631.58 278.94 631.58 290.19C631.58 297.69 624.08 355.77 622.21 368.89C620.34 382.01 608.91 445.3 607.22 458.83C605.35 473.82 599.42 502.51 595.98 509.42C594.11 513.17 588.48 520.66 579.12 518.79C569.76 516.92 564.13 516.92 564.13 500.05C564.13 483.18 571.63 396.99 571.63 387.62C571.63 378.25 579.13 318.29 581 310.79C582.87 303.29 579.13 263.94 607.23 262.07L607.22 262.08ZM700.91 333.29C715.9 334.55 721.52 346.41 719.65 353.9C717.78 361.4 708.41 398.87 704.66 411.99C700.91 425.11 678.43 500.06 676.55 503.81C674.67 507.56 667.18 530.04 665.31 533.79C663.64 537.14 655.94 539.41 650.32 537.54C644.7 535.67 637.2 533.79 640.95 515.05C644.7 496.31 652.19 458.83 654.07 451.34C655.94 443.84 669.06 382.01 674.68 368.89C680.3 355.77 678.43 331.41 700.91 333.29ZM304.01 472.72C303.96 472.14 304.03 471.55 304.23 471C304.43 470.45 304.74 469.95 305.15 469.54C305.56 469.13 306.06 468.81 306.61 468.6C307.16 468.4 307.74 468.32 308.32 468.37C326.12 470.08 344.05 476.17 354.23 503.8C367.35 539.4 353.57 645.09 373.91 675.26C404.83 721.17 440.43 747.4 515.38 747.4C610.95 747.4 653.11 712.73 653.11 649.02C653.11 585.31 587.53 583.44 574.41 585.31C561.29 587.18 548.83 592.81 550.05 615.29C551.23 637.06 583.48 633.69 585.65 620.91C587.26 611.54 580.03 607.79 587.52 604.05C595.02 600.3 610.01 607.8 610.01 626.54C610.01 645.28 606.26 703.37 535.06 705.24C463.85 707.11 460.65 645.28 460.11 635.91C459.17 619.98 471.35 592.81 465.73 590.94C460.11 589.07 451.83 586.29 430.13 605.93C410.45 623.73 397.34 629.35 390.78 622.79C383.28 615.29 379.54 605.93 387.03 598.43C394.53 590.93 437.62 544.09 501.33 536.59C565.04 529.09 635.07 543.37 673.72 585.31C717.76 633.09 699.24 753.81 604.39 782.06C462.92 824.22 328 766.13 315.82 652.77C309.36 592.43 310.29 549.41 304.01 472.71V472.72Z" fill="white"/>
</g>
<defs>
<clipPath id="clip0_2_3423">
<rect width="1024" height="1024" fill="white"/>
</clipPath>
</defs>
</svg>
