<svg width="1024" height="1024" fill="none" xmlns="http://www.w3.org/2000/svg"><g clip-path="url(#a)"><path d="M512 1024c282.77 0 512-229.23 512-512S794.77 0 512 0 0 229.23 0 512s229.23 512 512 512Z" fill="#9ABEFF"/><path d="M290.5 591.72h141.78V733.5H290.5V591.72Zm292.39 0H441.11V733.5h141.78V591.72Zm-292.39-8.83h141.78V441.11H290.5v141.78Zm150.61 0h141.78V441.11H441.11v141.78Zm150.61-150.61H733.5V290.5H591.72v141.78Zm141.78 8.82H591.72v141.79H733.5V441.1Zm-292.39-8.82h141.78V290.5H441.11v141.78Z" fill="#fff"/></g><defs><clipPath id="a"><path fill="#fff" d="M0 0h1024v1024H0z"/></clipPath></defs></svg>