<svg width="1024" height="1024" fill="none" xmlns="http://www.w3.org/2000/svg"><g clip-path="url(#a)"><path d="M512 1024c282.77 0 512-229.23 512-512S794.77 0 512 0 0 229.23 0 512s229.23 512 512 512Z" fill="#56595B"/><path d="m346 396.16 102.81 105.93L346 605.54V396.16Zm333.11-2.85-103.2 108.57 103.35 105.41-.15-213.98ZM664.39 626l-111.5-119h-81.76L359.62 626h304.77ZM512 266.69c-135.95 0-246.55 110-246.55 245.31S376.05 757.31 512 757.31c135.95 0 246.55-110.04 246.55-245.31 0-135.27-110.6-245.31-246.55-245.31Zm0-33.45C666.64 233.23 792 358 792 512S666.64 790.77 512 790.77 232 666 232 512s125.36-278.77 280-278.77v.01Z" fill="#fff"/></g><defs><clipPath id="a"><path fill="#fff" d="M0 0h1024v1024H0z"/></clipPath></defs></svg>