<svg width="1024" height="1024" viewBox="0 0 1024 1024" fill="none" xmlns="http://www.w3.org/2000/svg">
<g clip-path="url(#clip0_2_3435)">
<path d="M512 1024C794.77 1024 1024 794.77 1024 512C1024 229.23 794.77 0 512 0C229.23 0 0 229.23 0 512C0 794.77 229.23 1024 512 1024Z" fill="#9ABEFF"/>
<path d="M290.5 591.72H432.28V733.5H290.5V591.72ZM582.89 591.72H441.11V733.5H582.89V591.72ZM290.5 582.89H432.28V441.11H290.5V582.89ZM441.11 582.89H582.89V441.11H441.11V582.89ZM591.72 432.28H733.5V290.5H591.72V432.28ZM733.5 441.1H591.72V582.89H733.5V441.1ZM441.11 432.28H582.89V290.5H441.11V432.28Z" fill="white"/>
</g>
<defs>
<clipPath id="clip0_2_3435">
<rect width="1024" height="1024" fill="white"/>
</clipPath>
</defs>
</svg>
