<svg width="1024" height="1024" fill="none" xmlns="http://www.w3.org/2000/svg"><g clip-path="url(#a)"><path d="M512 1024c282.77 0 512-229.23 512-512S794.77 0 512 0 0 229.23 0 512s229.23 512 512 512Z" fill="#BD9AFF"/><path d="M473.27 224v463.89h77.58V224h-77.58Zm-115.24 22.04s-77.4 94.28-77.4 162.02v234.68A91.688 91.688 0 0 0 322 720.8l36.03 22.34v-497.1Zm307.94 0v497.28L702 720.98a91.863 91.863 0 0 0 41.37-78.07V408.05c.18-67.74-77.41-162.02-77.41-162.02l.01.01Zm-96.32 69.72v484l77.52-48.04V350.1a193.514 193.514 0 0 0-77.53-34.35l.01.01Zm-115.36.24a193.238 193.238 0 0 0-77.58 34.11v401.86l77.58 48.04V316Z" fill="#fff"/></g><defs><clipPath id="a"><path fill="#fff" d="M0 0h1024v1024H0z"/></clipPath></defs></svg>