<svg width="1024" height="1024" fill="none" xmlns="http://www.w3.org/2000/svg"><g clip-path="url(#a)"><path d="M512 1024c282.77 0 512-229.23 512-512S794.77 0 512 0 0 229.23 0 512s229.23 512 512 512Z" fill="#BD9AFF"/><path d="M552.74 279.17a47.874 47.874 0 0 0-41-23.161 47.87 47.87 0 0 0-41 23.161L403.29 394.7A330.168 330.168 0 0 1 585.23 668h-47.35A283.729 283.729 0 0 0 379.4 435.08L317 543a163.187 163.187 0 0 1 94.61 124.75H302.83a7.803 7.803 0 0 1-3.631-1.194 7.79 7.79 0 0 1-2.729-10.186l30.14-51.25a110.087 110.087 0 0 0-34.44-19.48l-29.83 51.25a46.54 46.54 0 0 0 16.76 63.64l.56.32a47.777 47.777 0 0 0 23.17 6.15h148.94a198.865 198.865 0 0 0-82-177.44l23.68-41A244.675 244.675 0 0 1 499 707h126.21A367.785 367.785 0 0 0 457 381.06l47.87-82a7.886 7.886 0 0 1 10.76-2.77c5.43 3 208 356.41 211.78 360.51a7.787 7.787 0 0 1-7 11.58h-48.77a414.83 414.83 0 0 1 0 39.05h49a47.008 47.008 0 0 0 43.671-28.744A46.993 46.993 0 0 0 768 660.7v-.51a45.99 45.99 0 0 0-6.36-23.37l-208.9-357.65Z" fill="#fff"/></g><defs><clipPath id="a"><path fill="#fff" d="M0 0h1024v1024H0z"/></clipPath></defs></svg>