<svg width="1024" height="1024" fill="none" xmlns="http://www.w3.org/2000/svg"><g clip-path="url(#a)"><path d="M512 1024c282.77 0 512-229.23 512-512S794.77 0 512 0 0 229.23 0 512s229.23 512 512 512Z" fill="#98DC9A"/><path d="M596.68 279.63s-6 1.71-15.78 4.69a124.83 124.83 0 0 0-7.68-18.77c-11.09-21.33-27.73-32.85-47.35-32.85a16.02 16.02 0 0 0-4.27.43c-.43-.85-1.28-1.28-1.71-2.13-8.53-9.38-19.62-13.65-32.85-13.22-25.59.85-51.19 19.2-71.67 52-14.5 23-25.59 52-28.58 74.65-29.43 9-49.91 15.36-50.34 15.78-14.93 4.69-15.36 5.12-17.06 19.2-1.28 10.66-40.53 311-40.53 311l322.5 55.88V279.2a44.444 44.444 0 0 0-4.68.43Zm-74.65 23c-17.06 5.12-35.83 11.09-54.18 16.64 5.12-20 15.36-40.1 27.3-53.32 4.69-4.69 11.09-10.24 18.34-13.65 7.25 15.38 8.96 36.29 8.51 50.36l.03-.03Zm-35-67.4a29.312 29.312 0 0 1 15.36 3.84c-6.83 3.41-13.65 9-20 15.36-16.21 17.49-28.58 44.79-33.7 70.81-15.36 4.69-30.71 9.38-44.79 13.65 9.35-40.89 43.9-102.77 83.1-103.63l.03-.03Zm-49.47 234.65c1.71 27.3 73.8 33.27 78.06 97.69 3 50.76-26.87 85.32-70 87.88-52 3.41-80.62-27.3-80.62-27.3l11.09-46.92s28.58 21.76 51.62 20c14.93-.85 20.48-13.22 20-21.76-2.13-35.83-61-33.7-64.84-92.57-3.41-49.48 29-99.39 100.67-104.09 27.73-1.71 41.8 5.12 41.8 5.12l-16.21 61.43s-18.34-8.53-40.1-6.83c-31.47 2.18-31.89 22.23-31.47 27.35Zm101.53-172.34c0-12.8-1.71-31.14-7.68-46.5 19.62 3.84 29 25.59 33.27 38.82-7.673 2.14-16.203 4.7-25.59 7.68Zm72.09-13.22c8.53 8.53 31.57 30.71 31.57 30.71s37.54.85 39.67.85a5.003 5.003 0 0 1 4.69 4.27c.43 2.56 58 392 58 392l-133.93 33.3V284.32Z" fill="#fff"/></g><defs><clipPath id="a"><path fill="#fff" d="M0 0h1024v1024H0z"/></clipPath></defs></svg>