<svg width="1024" height="1024" fill="none" xmlns="http://www.w3.org/2000/svg"><g clip-path="url(#a)"><path d="M512 1024c282.77 0 512-229.23 512-512S794.77 0 512 0 0 229.23 0 512s229.23 512 512 512Z" fill="#9ABEFF"/><path d="M729 403.5A108.5 108.5 0 0 0 620.5 295h-217a108.173 108.173 0 0 0-76.72 31.77 108.521 108.521 0 0 0 0 153.45l38.64 38.64A108.518 108.518 0 0 0 403.5 729h217a108.146 108.146 0 0 0 76.72-31.78 108.508 108.508 0 0 0 0-153.45l-38.64-38.64a108.53 108.53 0 0 0 51.096-39.808A108.532 108.532 0 0 0 729 403.5Zm-372.44 264a66.406 66.406 0 0 1-14.909-71.068 66.406 66.406 0 0 1 59.079-42.222l132.73 132.71h-130a66 66 0 0 1-46.94-19.46l.04.04Zm310.9-93.91a66.385 66.385 0 0 1 19.451 46.952 66.38 66.38 0 0 1-5.053 25.41 66.39 66.39 0 0 1-61.344 40.994A66.415 66.415 0 0 1 573.56 667.5l-217-217a66.407 66.407 0 0 1 .606-93.304 66.413 66.413 0 0 1 93.304-.606l216.99 217Zm0-123.1a65.931 65.931 0 0 1-44.17 19.38L490.55 337.09h130a66.412 66.412 0 0 1 46.94 113.36l-.03.04Z" fill="#fff"/></g><defs><clipPath id="a"><path fill="#fff" d="M0 0h1024v1024H0z"/></clipPath></defs></svg>