<svg width="1024" height="1024" fill="none" xmlns="http://www.w3.org/2000/svg"><g clip-path="url(#a)"><path d="M512 1024c282.77 0 512-229.23 512-512S794.77 0 512 0 0 229.23 0 512s229.23 512 512 512Z" fill="#F8C18C"/><path d="M678 317.8a255.616 255.616 0 0 0-166-61c-141.54 0-256 114.21-256 255.44a254.408 254.408 0 0 0 61.16 165.65L678 317.8ZM344.25 704.89A255.898 255.898 0 0 0 512 767.23c141.54 0 256-114.21 256-255.44a254.702 254.702 0 0 0-62.47-167.39L344.25 704.89Z" fill="#fff"/></g><defs><clipPath id="a"><path fill="#fff" d="M0 0h1024v1024H0z"/></clipPath></defs></svg>