<svg width="1024" height="1024" viewBox="0 0 1024 1024" fill="none" xmlns="http://www.w3.org/2000/svg">
<g clip-path="url(#clip0_2_3468)">
<path d="M512 1024C794.77 1024 1024 794.77 1024 512C1024 229.23 794.77 0 512 0C229.23 0 0 229.23 0 512C0 794.77 229.23 1024 512 1024Z" fill="#F8C18C"/>
<path d="M678 317.8C631.687 278.363 572.829 256.734 512 256.8C370.46 256.8 256 371.01 256 512.24C255.956 572.988 277.65 631.746 317.16 677.89L678 317.8ZM344.25 704.89C390.841 745.182 450.403 767.317 512 767.23C653.54 767.23 768 653.02 768 511.79C768.072 450.281 745.882 390.823 705.53 344.4L344.25 704.89Z" fill="white"/>
</g>
<defs>
<clipPath id="clip0_2_3468">
<rect width="1024" height="1024" fill="white"/>
</clipPath>
</defs>
</svg>
