<svg width="1024" height="1024" fill="none" xmlns="http://www.w3.org/2000/svg"><g clip-path="url(#a)"><path d="M512 1024c282.77 0 512-229.23 512-512S794.77 0 512 0 0 229.23 0 512s229.23 512 512 512Z" fill="#FF837D"/><path d="m332.62 341-.09.09h.18l-.09-.09Zm419 .09H332.53l-5.29 5.47-.9 1c-4 4.21-8.25 8.25-12.46 12.06a268.441 268.441 0 0 1-112.64 62.84c-1.21.36-2.38.63-3.59 1l-5.29 1.3-1.21 5.24c-.45 1.93-.81 3.85-1.21 5.87a223.191 223.191 0 0 0-3.94 41.32 219.258 219.258 0 0 0 130.93 200.68c.9.45 1.93.9 2.91 1.3 2.2 1 4.39 1.84 6.59 2.73l2.64 1 .36.09.18-.09c.201.074.416.104.63.09h421.3A16.433 16.433 0 0 0 768 666.57V357.42a16.216 16.216 0 0 0-9.912-15.047 16.212 16.212 0 0 0-6.198-1.273l-.27-.01Zm-28.46 26.27-175.4 152.9a9.539 9.539 0 0 1-12.55-.09L478 469.48a208.335 208.335 0 0 0-3.94-36.31c-.18-.987-.36-2.017-.54-3.09l-1.21-5.29-5.31-1.39c-1.3-.27-2.56-.63-3.85-.9a261.907 261.907 0 0 1-81.45-38.32l-19-16.76h360.48l-.02-.06Zm-236.07 144.3-14.39 12.73a222.184 222.184 0 0 0 3.85-22.05l10.54 9.32ZM329.8 664.38a211.156 211.156 0 0 1-15.91-7.31 203.121 203.121 0 0 1-110.27-179.79 195.917 195.917 0 0 1 3.68-38.06 284.703 284.703 0 0 0 106.58-54.72c6.5-5.2 12.73-10.8 18.74-16.67a285.2 285.2 0 0 0 103.5 64.5c6.95 2.56 14 4.75 21.25 6.68.81 4.57 1.57 9.23 2 13.9a209.468 209.468 0 0 1 1.3 22.59c0 4.12-.09 8.25-.45 12.37a197.95 197.95 0 0 1-12.55 58.68A202.49 202.49 0 0 1 329.8 664.38Zm51.14-6.77a219.635 219.635 0 0 0 72.93-82l52.62-46.48L535 554.69a9.562 9.562 0 0 0 12.64 0l29.09-25.82 146 128.56-341.79.18Zm215.69-146 146.13-129.89.27 259-146.4-129.11Zm-227.39 104a144.191 144.191 0 0 0 19.41-17.12l-19.41 17.12Zm65.13-150.52c-.45-3.68-1-7.31-1.66-11-5.78-1.57-11.43-3.41-17-5.47a.09.09 0 0 1-.064-.026.09.09 0 0 1-.026-.064c-1.48-.45-2.82-1.08-4.3-1.66-3.18-1.3-6.41-2.64-9.59-4.21-2.2-1-4.48-2-6.68-3.18a59.871 59.871 0 0 1-4.75-2.47c-5-2.64-10-5.6-14.84-8.7-3-1.84-6-3.85-8.79-5.87a1.61 1.61 0 0 1-.67-.44c-3.09-2.11-6.14-4.39-9.14-6.68-6-4.57-11.7-9.41-17.3-14.57-2.38-2.11-4.75-4.3-7-6.59-6 5.78-12.217 11.337-18.65 16.67a224.636 224.636 0 0 1-82.07 43.48A163.022 163.022 0 0 0 228.9 485a165.85 165.85 0 0 0 85 144.38 161.176 161.176 0 0 0 16.36 7.8c3.27-1.3 6.59-2.64 9.77-4.12a.31.31 0 0 0 .18-.09c2.64-1.21 5.29-2.47 7.89-3.85a76.558 76.558 0 0 0 6.95-3.94 18.769 18.769 0 0 0 2.2-1.3c1.21-.72 2.38-1.48 3.5-2.2.275-.127.521-.311.72-.54a70.233 70.233 0 0 0 6-4.12 7.612 7.612 0 0 0 1.84-1.39l19.41-17.12c.18 0 .18 0 .18-.09a166.349 166.349 0 0 0 40.7-71.72 161.83 161.83 0 0 0 5.87-43.21 180.437 180.437 0 0 0-1.1-18.4Zm-94.49 94L325 574.06h-.09l-61.81-61.77 19-19.14L325 536l14.93-14.93L392 468.94 411 488l-71.12 71.09Z" fill="#fff"/></g><defs><clipPath id="a"><path fill="#fff" d="M0 0h1024v1024H0z"/></clipPath></defs></svg>