<svg width="1024" height="1024" fill="none" xmlns="http://www.w3.org/2000/svg"><g clip-path="url(#a)"><path d="M512 1024c282.77 0 512-229.23 512-512S794.77 0 512 0 0 229.23 0 512s229.23 512 512 512Z" fill="#56595B"/><path d="M380.359 726.51c4.47 1.82 9.5 3.45 13.68 5 2.47.58 5.13 1.44 7.6 2.11l6.56 1.38 6.65 1.15a156.004 156.004 0 0 0 23.09 1.73 151.841 151.841 0 0 0 54.82-12 150.453 150.453 0 0 0 80.76-84.34l1.62-4.22c0-1.44 1.62-5.18 2.09-6.52.85-3.45 2.09-7.57 2.76-11 0-1.25.76-3.16 1-4.41a182.126 182.126 0 0 0 2.19-20v-7.86a129.132 129.132 0 0 1-14.63-1.25 152.23 152.23 0 0 1-98.75-54.28 154.904 154.904 0 0 1 12.65-210.47 155.922 155.922 0 0 1 169.45-28.62 246.186 246.186 0 0 0-48.84-24.06 256.648 256.648 0 0 0-251.87 42.65c-2.19 1.63-8 7-10.26 8.91a100.24 100.24 0 0 0-9.5 9.58 112.121 112.121 0 0 1-9.5 9.58c-3 2.78-6.75 8-8.74 10.45l-6.84 9c-1.81 2.49-6 8.72-7.7 11.21-1.7 2.49-2.85 4.77-3.65 5.87-.8 1.1-2.47 4-2.95 4.79s-4.94 9-6.08 10.93c-1.14 1.93-4.56 9.58-5.89 12.27l-4.47 10.45c0 1.15-3.42 9.58-4 10.64-.58 1.06-2 6.13-2.76 8.63-1.62 4.79-3 10.35-4.37 15.24-.76 3-2.28 10.35-2.95 13.32v2.3a262.074 262.074 0 0 0 30.69 177.6c3.14 5.18 7.41 12.27 11 17.16 1.33 2 3.71 5.46 5.23 7.38l5.51 7.28 8.74 10.35 9.5 9.58c1.81 1.63 4.66 4.7 6.56 6.23l3.42 3 .85.67.85.67 1.71 1.44c2.19 1.82 4.94 3.74 7.22 5.37l1.81 1.25 1.9 1.25c2 1.34 5.51 3.55 7.7 4.7 2.19 1.15 2.85 1.72 3.9 2.2l6 3c1.96.89 4.43 1.95 6.24 2.71Zm188.5-453.16h2.28l6.56.58c3.61 0 7.22 1 10.83 1.44h-19.53a190.264 190.264 0 0 0-48.69 9.63 176.664 176.664 0 0 0-69.89 43 179.648 179.648 0 0 0-20.42 229.06V557a156.132 156.132 0 0 0 28.5 31.34 104.736 104.736 0 0 0 96.72 19.17 100.76 100.76 0 0 1-86.12-2.51 119.821 119.821 0 0 1-36-27.41 182.937 182.937 0 0 1-47.213-142.764 182.948 182.948 0 0 1 75.713-129.916c2.09-1.53 5.32-3.55 7.6-5 4.18-2.78 9.5-5.46 13.59-7.86a76.226 76.226 0 0 1 10.17-4.79 174.224 174.224 0 0 1 60.52-13.9h15.39l-.01-.01Zm-8.93-6.42a226.139 226.139 0 0 0-35.06 3.16 206.883 206.883 0 0 0-91.82 39.82 204.38 204.38 0 0 0-80 184 206.862 206.862 0 0 0 37.65 100c1.62 2 4.28 5.85 6 7.86 2.85 3.55 6.46 7.86 9.5 11.21a114.168 114.168 0 0 0 138.91 26.12c-42.47 30.19-103.47 21.76-140.81-13.1l-1.71-1.82-1-.86-6.37-6.52a210.357 210.357 0 0 1-56.505-152.916 210.346 210.346 0 0 1 69.715-147.364 205.335 205.335 0 0 1 20.43-15.91c4-2.68 8.93-5.94 13.11-8.24s9.5-5.08 13.68-7.28c1.62-.86 3.14-1.34 4.66-2.11 1.52-.77 5.7-2.59 7.13-3.07a199.048 199.048 0 0 1 52-13c2.66 0 7.41-.77 10.07-.86h7.6c7.618-.135 15.237.162 22.82.89v-.01ZM355.649 654a237.26 237.26 0 0 1-36.737-271.319 237.262 237.262 0 0 1 61.157-74.781c1.9-1.63 4.94-3.74 6.84-5.18a231.33 231.33 0 0 1 23.75-15.62 227.402 227.402 0 0 1 85.51-27.7l11.12-1h22.33l-11.12.86-11 1.44-10.93 1.82a231.165 231.165 0 0 0-92 39 234.676 234.676 0 0 0-97.46 170.33 236.174 236.174 0 0 0 12.58 99.89 231.508 231.508 0 0 0 40.47 70.73l1.71 2.11.86 1.05.95 1a178.634 178.634 0 0 0 15.11 15.53A132.109 132.109 0 0 0 521.259 683a132.077 132.077 0 0 1-149-13.13 187.321 187.321 0 0 1-16.61-15.87Zm376.06-272.62c-3.14-5.27-7.41-12.27-11-17.25-1.33-2-3.71-5.46-5.23-7.38l-5.48-7.19c-1.9-2.2-6.94-8.34-8.84-10.45a127.778 127.778 0 0 0-9.5-9.58c-1.71-1.63-4.66-4.7-6.46-6.23l-3.42-2.88-.86-.77-.92-.65-1.81-1.44c-2.09-1.82-4.85-3.74-7.13-5.37l-1.9-1.25-1.81-1.25c-2.09-1.34-5.51-3.55-7.7-4.7-2.19-1.15-2.85-1.73-3.9-2.2l-6-3-6.12-2.79c-4.47-1.82-9.5-3.45-13.68-5l-7.6-2-6.56-1.53-6.65-1.15a155.994 155.994 0 0 0-23.09-1.73 151.846 151.846 0 0 0-54.82 12 149.71 149.71 0 0 0-48.83 33.94 151.241 151.241 0 0 0-31.93 50.47l-1.62 4.31c-.47 1.34-1.62 5.08-2.09 6.42-.95 3.45-2.09 7.57-2.76 11 0 1.25-.76 3.16-.95 4.41a162.24 162.24 0 0 0-2.38 20.32v8.34h.38v.26a87.15 87.15 0 0 1 12.26.86l-5.89-.73a149.357 149.357 0 0 1 100.75 46.56 153.412 153.412 0 0 1 42.06 110.3 158.185 158.185 0 0 1-21.14 72.53 156.565 156.565 0 0 1-52.26 54.19 154.638 154.638 0 0 1-145.13 10.34 251.972 251.972 0 0 0 48.84 24.15A256.931 256.931 0 0 0 672.799 712c2.09-1.63 8-7 10.26-8.91l9.5-9.58 9.5-9.58c2.19-2.59 6.75-7.86 8.74-10.45l6.84-9c1.81-2.49 6-8.72 7.7-11.21l3.61-5.85c.57-.77 2.47-4 2.95-4.79s4.94-8.91 6-10.93c1.06-2.02 4.66-9.58 6-12.27 1.34-2.69 3.14-7.38 4.47-10.45 0-1.05 3.42-9.58 3.9-10.64.48-1.06 2.09-6.13 2.85-8.63 1.62-4.79 3-10.35 4.37-15.24.76-3 2.19-10.35 2.95-13.32V559a261.871 261.871 0 0 0-30.73-177.62Zm-219.38 354-.09-.38 7.89-3.36 7.7-3.74c2.95-1.44 6.46-3.55 9.5-5.18l9-5.65c2.57-1.82 6.18-4.31 8.65-6.23a178.907 178.907 0 0 0 43.23-237.22l-4.66-7.09-5-6.81-5.34-6.72a131.41 131.41 0 0 0-17.86-17.83 104.93 104.93 0 0 0-96.54-19.17 103.008 103.008 0 0 1 102.33 11.6 142.989 142.989 0 0 1 26.51 24.92 182.46 182.46 0 0 1-8.07 243.89 179.513 179.513 0 0 1-74.5 46.42 169.593 169.593 0 0 1-79 5.27 191.549 191.549 0 0 0 76.25-12.77v.05Zm-47.89 21.28a231.032 231.032 0 0 0 39.9-4.22 207.058 207.058 0 0 0 88.57-40.84 209.41 209.41 0 0 0 60.41-77 206.998 206.998 0 0 0-23.32-209.04c-1.71-2.4-4.28-5.37-6.08-7.67-1.8-2.3-5.61-6.33-8.17-9.58a114.148 114.148 0 0 0-137.2-23.77c40.19-28.75 97.86-23 135.39 7.57l-.1-.38c3 2.4 6.08 5.27 8.93 7.86a209.39 209.39 0 0 1-58.91 341l-4.75 2-1.14.48-1.23.48-2.38 1c-2.47.86-7 2.68-9.5 3.45a194.858 194.858 0 0 1-80.42 8.61v.05ZM732.139 538a237.39 237.39 0 0 1-72.93 164.7c-2.28 2.11-6 5.75-8.46 7.67l-4.36 3.63-2.28 1.92-1 .86-5.7 4.31a232.997 232.997 0 0 1-23.94 15.53l-10.07 5.37a222.664 222.664 0 0 1-109.07 23.2 237.314 237.314 0 0 0 160.48-75A234.155 234.155 0 0 0 670.329 390c-2-2.88-4.66-5.85-6.84-8.53l-1.71-2.11-.85-1.05-.86-1.05a132.25 132.25 0 0 0-157.72-36.71 132.09 132.09 0 0 1 149.55 12.84 203.385 203.385 0 0 1 16.82 15.91 237.63 237.63 0 0 1 63.42 168.7Z" fill="#fff"/></g><defs><clipPath id="a"><path fill="#fff" d="M0 0h1024v1024H0z"/></clipPath></defs></svg>