<svg width="1024" height="1024" fill="none" xmlns="http://www.w3.org/2000/svg"><g clip-path="url(#a)"><path d="M512 1024c282.77 0 512-229.23 512-512S794.77 0 512 0 0 229.23 0 512s229.23 512 512 512Z" fill="#8C72BD"/><path d="M363.56 579.52a53.779 53.779 0 1 1-53.76-53.76h53.76v53.76Zm27.11 0a53.778 53.778 0 0 1 53.78-53.78 53.778 53.778 0 0 1 53.78 53.78V714.2a53.78 53.78 0 0 1-107.56 0V579.52Zm53.78-216a53.784 53.784 0 0 1-49.688-33.204 53.775 53.775 0 0 1 11.667-58.611 53.778 53.778 0 0 1 82.747 8.171 53.78 53.78 0 0 1 9.054 29.884v53.76h-53.78Zm0 27.11a53.778 53.778 0 0 1 53.78 53.78 53.78 53.78 0 0 1-53.78 53.78H309.8a53.78 53.78 0 0 1 0-107.56h134.65Zm215.94 53.78a53.802 53.802 0 0 1 64.284-52.789 53.798 53.798 0 0 1 42.281 42.266 53.805 53.805 0 0 1-52.765 64.303h-53.8v-53.78Zm-27.05 0a53.787 53.787 0 0 1-53.79 53.79 53.787 53.787 0 0 1-53.79-53.79V309.8a53.787 53.787 0 0 1 53.79-53.79 53.787 53.787 0 0 1 53.79 53.79v134.61Zm-53.82 215.98a53.808 53.808 0 0 1 29.901 9.047 53.804 53.804 0 0 1 8.196 82.781 53.803 53.803 0 0 1-82.787-8.134 53.796 53.796 0 0 1-9.07-29.894v-53.8h53.76Zm0-27.05a53.787 53.787 0 0 1-53.79-53.79 53.787 53.787 0 0 1 53.79-53.79H714.2a53.787 53.787 0 0 1 53.79 53.79 53.787 53.787 0 0 1-53.79 53.79H579.52Z" fill="#fff"/></g><defs><clipPath id="a"><path fill="#fff" d="M0 0h1024v1024H0z"/></clipPath></defs></svg>