<svg width="1024" height="1024" fill="none" xmlns="http://www.w3.org/2000/svg"><g clip-path="url(#a)"><path d="M512 1024c282.77 0 512-229.23 512-512S794.77 0 512 0 0 229.23 0 512s229.23 512 512 512Z" fill="#96DFD3"/><path d="m651.84 216.47-4.74 11.86-32.77 81.07a5.761 5.761 0 0 1-1.29-1.08 158.714 158.714 0 0 0-40.32-20.91l28.89-71.15h50.24l-.01.21ZM444 731.78l-26.1 64.47h-50.24l4.74-11.86L403.67 707A158.238 158.238 0 0 0 444 731.78Zm-68.14-312.21c0-73.52 68.35-117.29 134.11-117.29 74.6 0 128.07 44.85 133.25 111.47.43 5 .43 14.66.43 14.66h-62.31a90.015 90.015 0 0 0-1.08-13.41s-.65-3.23-.65-3.45c-.22-.86-.43-1.94-.65-2.8a15.795 15.795 0 0 0-.86-3c-.22-1.08-.65-1.94-.86-2.8a56.13 56.13 0 0 0-19.62-26.09 17.907 17.907 0 0 0-2.59-1.72c-.86-.43-1.51-1.08-2.37-1.51a8.734 8.734 0 0 0-1.94-1.08c-.43-.22-1.08-.65-1.51-.86-1.29-.65-2.8-1.29-4.1-1.94a25.657 25.657 0 0 0-4.31-1.75 81.385 81.385 0 0 0-21.35-4.74 79.677 79.677 0 0 0-10.35-.43c-34.93 0-70.94 21.13-70.94 56.49 0 8.62 0 33.2 39.46 47.65l-22.42 55.67c-52.61-19.64-79.34-54.12-79.34-103.07Zm279.43 194.49C647.53 679 591.9 722.73 517.08 722.73c-37.52 0-72.88-12.29-99.61-34.71-25.66-21.35-42.26-51.32-44.63-80.64a102.16 102.16 0 0 1 0-15.09h61a69.86 69.86 0 0 0 4.1 21.13c.27.458.418.978.43 1.51a34.49 34.49 0 0 0 2.59 5.82c.256.485.473.99.65 1.51.251.523.538 1.027.86 1.51 1.08 1.72 2.16 3.67 3.45 5.39a16.59 16.59 0 0 0 1.72 2.37 76.037 76.037 0 0 0 15.09 14.88c.465.41.971.772 1.51 1.08.465.41.971.772 1.51 1.08a89.323 89.323 0 0 0 26.3 12.07 91.91 91.91 0 0 0 24.8 3.23c33 0 70.51-14.45 76.76-55.2 3-39.24-29.32-56.71-54.77-64.47l22.42-55.63c30.62 9.92 54.33 24.36 70.29 42.48 19.86 22.42 27.84 50.45 23.74 83.01Zm-94.65-169.69-5.17 12.51-41 101.34-28 69.43c-1.29-.65-2.37-1.51-3.45-2.16a3.123 3.123 0 0 0-.86-.43l-1.3-1.06c-25-17.68-21.35-50.24-20.27-56.49.04-.666.185-1.32.43-1.94l6.9-17 40.76-100.97 24.58-60.6 4.74 2.16c24.58 12.95 22.64 55.21 22.64 55.21Z" fill="#fff"/></g><defs><clipPath id="a"><path fill="#fff" d="M0 0h1024v1024H0z"/></clipPath></defs></svg>