<svg width="1024" height="1024" fill="none" xmlns="http://www.w3.org/2000/svg"><g clip-path="url(#a)"><path d="M512 1024c282.77 0 512-229.23 512-512S794.77 0 512 0 0 229.23 0 512s229.23 512 512 512Z" fill="#9ABEFF"/><path d="M599.73 545.27a69.285 69.285 0 0 0 68.162 35.782 69.29 69.29 0 1 0-68.162-35.782Zm-.1 148.48a69.285 69.285 0 0 0 68.162 35.782 69.29 69.29 0 1 0-68.162-35.782Zm-87.39-230.9c-27.72 0-51.47 21.78-49.49 49.49 0 13.86 4 25.74 13.86 35.63 9.9 7.92 21.78 13.86 35.63 13.86a49 49 0 0 0 49.49-49.49c0-13.86-4-25.74-13.86-35.63-9.9-7.92-21.78-13.86-35.63-13.86Zm69.29 49.49c0 37.61-31.67 69.29-69.29 69.29-37.62 0-69.24-31.63-69.24-69.29 0-37.66 31.67-69.29 69.29-69.29 37.62 0 69.24 31.68 69.24 69.29Zm79.19-198c-27.72 0-51.47 21.78-49.49 49.49 0 13.86 4 25.74 13.86 35.63 9.9 7.92 21.78 13.86 35.63 13.86a49 49 0 0 0 49.49-49.49c0-13.86-4-25.74-13.86-35.63-9.9-7.92-21.78-13.86-35.63-13.86ZM730 363.87c0 37.61-31.67 69.29-69.29 69.29-37.62 0-69.29-31.67-69.29-69.29 0-37.62 31.67-69.29 69.29-69.29 37.62 0 69.29 31.68 69.29 69.29ZM335.24 575.14a69.286 69.286 0 0 0 75.869-13.135 69.29 69.29 0 1 0-75.869 13.135ZM484 426.73a69.29 69.29 0 1 0 56.13-126.704A69.29 69.29 0 0 0 484 426.73Zm-148.59-.18a69.29 69.29 0 1 0-35.29-91.41 69.285 69.285 0 0 0 13.198 75.853 69.288 69.288 0 0 0 22.112 15.557h-.02Zm148.24 297.37a69.29 69.29 0 1 0 56.13-126.704 69.29 69.29 0 0 0-56.13 126.704Zm-119.88-112.6c-27.72 0-51.47 21.78-49.49 49.49a49.5 49.5 0 1 0 99 0c0-13.86-4-25.74-13.86-35.63-9.9-7.92-21.78-13.86-35.63-13.86m69.29 49.49c0 37.61-31.67 69.29-69.29 69.29-37.62 0-69.29-31.67-69.29-69.29 0-37.62 31.67-69.29 69.29-69.29 37.62 0 69.26 31.68 69.26 69.3l.03-.01Z" fill="#fff"/></g><defs><clipPath id="a"><path fill="#fff" d="M0 0h1024v1024H0z"/></clipPath></defs></svg>