<svg width="1024" height="1024" viewBox="0 0 1024 1024" fill="none" xmlns="http://www.w3.org/2000/svg">
<g clip-path="url(#clip0_2_3504)">
<path d="M512 1024C794.77 1024 1024 794.77 1024 512C1024 229.23 794.77 0 512 0C229.23 0 0 229.23 0 512C0 794.77 229.23 1024 512 1024Z" fill="#728DBE"/>
<path d="M381.43 472C388.49 481.27 392.43 496.39 392.43 514.1C392.43 534.19 386.06 550.7 374.72 559.8C366.13 566.67 353.07 570.45 337.61 570.45C315.61 570.45 298.26 563.22 289.32 550.35C282.61 540.9 279.32 528.35 279.32 513.06C279.32 491.06 285.32 474.4 296.69 465.47C305.61 458.26 319.69 454.3 335.86 454.3C356.31 454.3 372.64 460.67 381.39 472.01M311.46 485.24C307.84 490.91 306.13 500 306.13 512.24C306.13 539.04 315.4 551.24 336.03 551.24C356.3 551.24 365.59 539.03 365.59 512.58C365.59 485.76 356.48 473.74 336.03 473.74C324.86 473.74 316.09 477.87 311.46 485.26M431.42 570.4H407V455.79H464.22C484.31 455.79 491.37 457.85 498.92 466.28C505.64 473.577 509.326 483.161 509.23 493.08C509.23 505.08 504.43 516.27 496.52 522.98C489.82 528.64 483.62 530.36 470.58 530.36H431.42V570.4ZM464.58 509.93C471.11 509.93 474.88 509.07 477.46 506.66C480.55 504.08 482.46 498.59 482.46 492.23C482.46 484.67 479.38 479.18 474.05 477.28C471.141 476.479 468.124 476.141 465.11 476.28H431.42V509.96L464.58 509.93ZM616.44 455.8H592V502.71H547.89V455.8H523.49V570.4H547.89V523.15H592V570.4H616.4L616.44 455.8ZM733.31 472C740.37 481.27 744.31 496.39 744.31 514.1C744.31 534.19 737.96 550.7 726.61 559.8C718 566.62 705 570.4 689.49 570.4C667.49 570.4 650.15 563.17 641.22 550.3C634.51 540.85 631.22 528.3 631.22 513.01C631.22 491.01 637.22 474.35 648.58 465.42C657.51 458.21 671.58 454.25 687.77 454.25C708.21 454.25 724.53 460.62 733.29 471.96M663.37 485.19C659.76 490.86 658.04 499.95 658.04 512.19C658.04 538.99 667.31 551.19 687.92 551.19C708.2 551.19 717.47 538.98 717.47 512.53C717.47 485.71 708.37 473.69 687.92 473.69C676.76 473.69 667.99 477.82 663.36 485.21M164.16 570.4H225.94C243.28 570.4 250.63 569.34 256.41 565.68C265.51 560.08 271.29 548.51 271.29 536.08C271.29 525.93 267.79 515.6 262.54 510.34C255.71 503.34 246.43 500.71 229.26 500.71H210.53C202.13 500.71 195.93 500.35 192.44 498.79C188.24 496.85 185.79 492.65 185.79 487.4C185.79 481.27 188.79 476.71 193.67 475.48C197.35 474.62 201.61 474.62 212.67 474.48H267.98V453.6H207C193.34 453.6 187.21 454.12 182 456.05C169.92 460.25 161.68 473.21 161.68 488.05C161.68 498.22 165.68 507.68 172.68 513.8C178.81 519.05 187.92 521.5 201.92 521.5H226.85C232.46 521.5 237 522.2 239.47 523.6C241.79 524.739 243.733 526.521 245.069 528.734C246.404 530.946 247.074 533.497 247 536.08C247.056 538.211 246.551 540.318 245.537 542.193C244.523 544.067 243.034 545.642 241.22 546.76C238.22 548.7 233.16 549.57 223.89 549.57H164.16V570.4ZM755.16 570.4H817C834.34 570.4 841.69 569.34 847.48 565.68C856.58 560.08 862.35 548.51 862.35 536.08C862.35 525.93 858.86 515.6 853.61 510.34C846.76 503.34 837.49 500.71 820.31 500.71H801.58C793.16 500.71 786.96 500.35 783.47 498.79C779.25 496.85 776.8 492.65 776.8 487.4C776.8 481.27 779.8 476.71 784.69 475.48C788.36 474.62 792.64 474.62 803.69 474.48H859V453.6H798.1C784.43 453.6 778.31 454.12 773.1 456.05C761.01 460.25 752.78 473.21 752.78 488.05C752.78 498.22 756.78 507.68 763.78 513.8C769.91 519.05 779.02 521.5 793.03 521.5H817.96C823.57 521.5 828.13 522.2 830.57 523.6C832.884 524.732 834.825 526.506 836.16 528.71C837.495 530.913 838.168 533.454 838.1 536.03C838.155 538.159 837.651 540.266 836.639 542.139C835.626 544.013 834.141 545.589 832.33 546.71C829.33 548.65 824.28 549.52 814.98 549.52H755.2L755.16 570.4Z" fill="white"/>
</g>
<defs>
<clipPath id="clip0_2_3504">
<rect width="1024" height="1024" fill="white"/>
</clipPath>
</defs>
</svg>
