<svg width="1024" height="1024" viewBox="0 0 1024 1024" fill="none" xmlns="http://www.w3.org/2000/svg">
<g clip-path="url(#clip0_2_3507)">
<path d="M512 1024C794.77 1024 1024 794.77 1024 512C1024 229.23 794.77 0 512 0C229.23 0 0 229.23 0 512C0 794.77 229.23 1024 512 1024Z" fill="#56595B"/>
<path d="M491 394.23C506.089 413.035 525.524 427.889 547.632 437.511C569.739 447.132 593.855 451.233 617.9 449.46C618.868 449.353 619.846 449.524 620.72 449.953C621.594 450.382 622.328 451.052 622.835 451.883C623.342 452.714 623.602 453.673 623.583 454.647C623.564 455.62 623.268 456.569 622.73 457.38C609.515 477.547 601.4 500.625 599.085 524.625C596.77 548.625 600.323 572.828 609.44 595.15C609.797 596.034 609.901 597 609.739 597.94C609.577 598.88 609.155 599.755 608.522 600.469C607.889 601.182 607.069 601.704 606.156 601.976C605.242 602.248 604.27 602.26 603.35 602.01C580.055 595.651 555.562 595.06 531.987 600.287C508.412 605.514 486.465 616.402 468.04 632.01C467.305 632.62 466.415 633.013 465.469 633.148C464.524 633.283 463.559 633.153 462.683 632.773C461.807 632.392 461.053 631.777 460.505 630.995C459.957 630.212 459.637 629.293 459.58 628.34C458.421 604.264 451.426 580.831 439.199 560.059C426.971 539.287 409.878 521.798 389.39 509.1C388.583 508.59 387.933 507.865 387.512 507.008C387.091 506.151 386.917 505.194 387.007 504.243C387.097 503.292 387.448 502.385 388.023 501.622C388.597 500.859 389.371 500.27 390.26 499.92C412.826 491.387 432.977 477.491 448.974 459.432C464.971 441.372 476.333 419.691 482.08 396.26C482.309 395.337 482.79 394.496 483.471 393.831C484.151 393.166 485.003 392.704 485.932 392.496C486.86 392.288 487.828 392.343 488.726 392.655C489.625 392.967 490.419 393.522 491.02 394.26L491 394.23ZM512 296C562.041 295.944 610.552 313.243 649.266 344.951C687.979 376.658 714.498 420.81 724.303 469.882C734.107 518.953 726.589 569.905 703.031 614.054C679.474 658.203 641.334 692.815 595.113 711.992C548.892 731.168 497.451 733.721 449.559 719.215C401.666 704.71 360.287 674.044 332.473 632.444C304.66 590.845 292.134 540.887 297.032 491.086C301.929 441.286 323.946 394.725 359.33 359.34C399.809 318.821 454.725 296.037 512 296ZM512 238C448.609 238.001 387.179 259.983 338.177 300.198C289.176 340.414 255.635 396.377 243.269 458.55C230.903 520.724 240.478 585.261 270.361 641.167C300.245 697.073 348.588 740.887 407.154 765.145C465.721 789.403 530.886 792.603 591.548 774.2C652.209 755.798 704.613 716.931 739.83 664.223C775.048 611.514 790.9 548.225 784.685 485.139C778.471 422.053 750.575 363.074 705.75 318.25C680.306 292.807 650.1 272.625 616.856 258.855C583.613 245.086 547.982 237.999 512 238Z" fill="white"/>
</g>
<defs>
<clipPath id="clip0_2_3507">
<rect width="1024" height="1024" fill="white"/>
</clipPath>
</defs>
</svg>
