<svg width="1024" height="1024" fill="none" xmlns="http://www.w3.org/2000/svg"><g clip-path="url(#a)"><path d="M512 1024c282.77 0 512-229.23 512-512S794.77 0 512 0 0 229.23 0 512s229.23 512 512 512Z" fill="#F8C18C"/><path d="M569.58 471.57c-.44-2.62 3.93-3.93 5.68-.87 7.87 14.86 15.73 35 15.73 55.94v.44c0 45-34.09 81.73-76 81.73s-76-36.71-76-81.73v-.44c0-73.86 59.44-85.66 56.38-132.86a4.485 4.485 0 0 1 2.346-4.554 4.478 4.478 0 0 1 5.084.624c15.73 14.42 45.45 52.45 45.45 135.92-.08 48.95 35.75 9.61 21.33-54.2ZM462.5 700.15l29.28-29.72c2.62-3.06 2.62-7.87 0-10.49L339.26 507a9.765 9.765 0 0 1-2.188-10.8 9.765 9.765 0 0 1 2.188-3.2L532 299.81a7.079 7.079 0 0 0 1.75-7.87 6.891 6.891 0 0 0-6.56-4.37h-59a9.154 9.154 0 0 0-4.81 1.75L258 494.74c-2.62 3.06-2.62 7.87 0 10.49l194.45 194.48a8.058 8.058 0 0 0 5.24 2.19 9.16 9.16 0 0 0 4.81-1.75Zm34.09 36.27h58.56a7.25 7.25 0 0 0 5.24-2.19l205.42-205.4a7.38 7.38 0 0 0 2.184-5.245 7.388 7.388 0 0 0-2.184-5.245l-194-194.49c-1.31-1.31-2.62-2.62-4.81-2.62a7.231 7.231 0 0 0-5.24 2.19L532 353.13c-2.62 3.06-2.62 7.87 0 10.49l153 153a8.706 8.706 0 0 1 3.06 7 10.308 10.308 0 0 1-3.06 7L491.79 723.75a7.083 7.083 0 0 0-1.75 7.87 6.887 6.887 0 0 0 6.56 4.37l-.01.43Z" fill="#fff"/></g><defs><clipPath id="a"><path fill="#fff" d="M0 0h1024v1024H0z"/></clipPath></defs></svg>