<svg width="1024" height="1024" fill="none" xmlns="http://www.w3.org/2000/svg"><g clip-path="url(#a)"><path d="M512 1024c282.77 0 512-229.23 512-512S794.77 0 512 0 0 229.23 0 512s229.23 512 512 512Z" fill="#56595B"/><path d="M512 256c-141.42 0-256 114.58-256 256 0 141.42 114.58 256 256 256 141.42 0 256-114.58 256-256 0-141.42-114.58-256-256-256Zm0 462.45c-114.06 0-206.45-92.39-206.45-206.45 0-114.06 92.39-206.45 206.45-206.45 114.06 0 206.45 92.39 206.45 206.45 0 114.06-92.39 206.45-206.45 206.45Z" fill="#fff"/></g><defs><clipPath id="a"><path fill="#fff" d="M0 0h1024v1024H0z"/></clipPath></defs></svg>