<svg width="1024" height="1024" fill="none" xmlns="http://www.w3.org/2000/svg"><g clip-path="url(#a)"><path d="M512 1024c282.77 0 512-229.23 512-512S794.77 0 512 0 0 229.23 0 512s229.23 512 512 512Z" fill="#728DBE"/><path d="M518.82 560.23h-.06V753h224.16V560.23h-.06a112.077 112.077 0 0 0-112-107.846 112.083 112.083 0 0 0-112 107.846h-.04Zm30.68-207.88a81.351 81.351 0 0 1 97.221-79.787A81.35 81.35 0 0 1 630.85 433.7a81.376 81.376 0 0 1-57.514-23.836A81.376 81.376 0 0 1 549.5 352.35Zm-200.35 26.34c-65.16 0-118.07 49.82-118.07 111.17S284 601 349.15 601H386a118.124 118.124 0 0 0 83.404-34.596A118.124 118.124 0 0 0 504 483V378.69H349.15Zm-12.39 130.93c0 2.893-.667 5.083-2 6.57a6.72 6.72 0 0 1-5.27 2.23c-4.767 0-7.15-2.93-7.15-8.79V485.2c0-4.627-.69-8.183-2.07-10.67s-3.993-3.73-7.84-3.73a11.748 11.748 0 0 0-7 2.2 13.231 13.231 0 0 0-4.63 6c-.78 2.153-1.17 5.983-1.17 11.49v19.12c0 2.86-.643 5.04-1.93 6.54a6.71 6.71 0 0 1-5.38 2.25c-4.767 0-7.15-2.93-7.15-8.79v-62.7c0-2.927.627-5.123 1.88-6.59a6.556 6.556 0 0 1 5.27-2.2 6.749 6.749 0 0 1 5.38 2.22c1.287 1.487 1.93 3.677 1.93 6.57v21.45a30.876 30.876 0 0 1 5.38-5 19.38 19.38 0 0 1 5.8-2.78 24.305 24.305 0 0 1 6.83-.93 20 20 0 0 1 9.77 2.33 18.097 18.097 0 0 1 8.77 12.58 45.7 45.7 0 0 1 .53 7.39l.05 27.67Zm28.36-8.37a13.29 13.29 0 0 0 12.21 7.57 17.32 17.32 0 0 0 4.74-.61 15.45 15.45 0 0 0 4.16-1.9 31.968 31.968 0 0 0 3.71-2.78c1.127-.987 2.59-2.32 4.39-4a4.746 4.746 0 0 1 3.18-1 5.228 5.228 0 0 1 3.6 1.22 4.354 4.354 0 0 1 1.38 3.44 9.408 9.408 0 0 1-1.53 4.58 18.202 18.202 0 0 1-4.64 5 26.388 26.388 0 0 1-7.79 4 33.516 33.516 0 0 1-10.78 1.59c-9.287 0-16.507-2.65-21.66-7.95-5.153-5.3-7.73-12.483-7.73-21.55a36.002 36.002 0 0 1 1.9-11.89 26.21 26.21 0 0 1 5.56-9.4 24.092 24.092 0 0 1 9-6 32.345 32.345 0 0 1 11.86-2.09 28.14 28.14 0 0 1 14.54 3.57 23.519 23.519 0 0 1 9.08 9.24 24.298 24.298 0 0 1 3 11.54c0 3.633-1.04 5.99-3.12 7.07s-5.01 1.617-8.79 1.61h-28.25a19.209 19.209 0 0 0 1.98 8.74Zm95.2-32.41a42.453 42.453 0 0 1-1.17 3.76L440.3 522a57.545 57.545 0 0 1-4.77 10.22 15.69 15.69 0 0 1-6.17 5.69c-2.56 1.333-6.01 2-10.35 2-4.24 0-7.417-.46-9.53-1.38a5.002 5.002 0 0 1-3.18-5 4.877 4.877 0 0 1 1.51-3.84 6.522 6.522 0 0 1 4.47-1.35c.771 0 1.539.107 2.28.32.779.195 1.577.302 2.38.32a8.607 8.607 0 0 0 3.92-.74 6.876 6.876 0 0 0 2.57-2.57 39.363 39.363 0 0 0 2.62-5.38l1.33-3.23-17.79-44.8a16.765 16.765 0 0 1-1.64-5.61 6.574 6.574 0 0 1 1-3.44 7.093 7.093 0 0 1 2.62-2.54 6.89 6.89 0 0 1 3.47-1 5.669 5.669 0 0 1 4.71 2 18.341 18.341 0 0 1 2.81 5.69l12.23 35.59 11.6-33.1a57.215 57.215 0 0 1 2.49-6.3 7.414 7.414 0 0 1 2.36-3.07 6.535 6.535 0 0 1 3.52-.8c1.11.006 2.198.31 3.15.88a6.088 6.088 0 0 1 2.33 2.36c.509.946.771 2.006.76 3.08-.14.667-.367 1.613-.68 2.84Zm-75 4.42c2.313 2.453 3.647 6.153 4 11.1h-26.18c.493-4.873 1.897-8.54 4.21-11a11.566 11.566 0 0 1 8.87-3.73 12.003 12.003 0 0 1 9.13 3.63h-.03Z" fill="#fff"/></g><defs><clipPath id="a"><path fill="#fff" d="M0 0h1024v1024H0z"/></clipPath></defs></svg>