<svg width="1024" height="1024" viewBox="0 0 1024 1024" fill="none" xmlns="http://www.w3.org/2000/svg">
<g clip-path="url(#clip0_2_3522)">
<path d="M512 1024C794.77 1024 1024 794.77 1024 512C1024 229.23 794.77 0 512 0C229.23 0 0 229.23 0 512C0 794.77 229.23 1024 512 1024Z" fill="#728DBE"/>
<path d="M695.85 507.03C695.85 604.82 622.08 686.82 524.29 696.76C524.29 699.09 247.95 736 247.95 736L278.39 626.46L502.65 592.5V591.93C547.12 589.03 579.94 551.55 577.56 508.17C576.99 500.56 575.8 493.57 572.9 485.96H694.66C695.85 492.95 695.85 499.99 695.85 507.03ZM328.71 516.97C328.71 419.18 403.1 337.18 500.27 327.24C500.27 324.34 776.04 288 776.04 288L745.03 397.54L520.77 432.07V432.64C477.44 434.97 444.1 472.45 447 515.83C447.57 523.44 448.76 530.43 451.71 537.47H329.9C329.33 530.43 328.71 524.01 328.71 516.97Z" fill="white"/>
</g>
<defs>
<clipPath id="clip0_2_3522">
<rect width="1024" height="1024" fill="white"/>
</clipPath>
</defs>
</svg>
