<svg width="1024" height="1024" fill="none" xmlns="http://www.w3.org/2000/svg"><g clip-path="url(#a)"><path d="M512 1024c282.77 0 512-229.23 512-512S794.77 0 512 0 0 229.23 0 512s229.23 512 512 512Z" fill="#728DBE"/><path d="M671.19 516.71s-.31-1.22-.76-3.35c-5.17-23.54-10.18-76.41 23.85-99.2 33.72-22.48 67 3.79 72 17.78 7.29 20.21-9.26 29.47-38.28 37.22-45.72 12.16-56.06 41.63-56.81 47.55Zm9.87 36.61c-68.05-33.12-60.61-88-69.12-115.45C563.65 268.49 467.18 256.34 456.08 256c-26.73-.76-73.83 11.39-77.33 65.31-5 76.72 102.84 71.7 142.64 102.84 27.19 21.26 46.18 68.51-3.94 58.18-60.61-22.64-131.55-16.1-160.88-3.79-49.68 20.82-67.15 47.86-72.16 53.47-5.01 5.61-66.38 91.3 8.51 161.78 58.94 55.44 139 16.25 170.6-28 19-26.43 32.36-52.57 47.25-75.65 58.63-71.86 129.12-24.76 147.5 8.51 28.4 51 48.3 76.72 73.83 59.55 25.53-16.93 22.03-69.33-51.03-104.88h-.01Z" fill="#fff"/></g><defs><clipPath id="a"><path fill="#fff" d="M0 0h1024v1024H0z"/></clipPath></defs></svg>