<svg width="1024" height="1024" fill="none" xmlns="http://www.w3.org/2000/svg"><g clip-path="url(#a)"><path d="M512 1024c282.77 0 512-229.23 512-512S794.77 0 512 0 0 229.23 0 512s229.23 512 512 512Z" fill="#FF837D"/><path d="M609.64 417.66c-19.89 0-36.06 15.87-36.06 35.39a109.157 109.157 0 0 0 27.77 72.66 113.216 113.216 0 0 0 24.71 20.86 131.59 131.59 0 0 0 13.75-26.66 129.47 129.47 0 0 0 5.27-73.43c-.15-.75-.34-1.5-.52-2.25a36.002 36.002 0 0 0-34.89-26.58l-.03.01ZM387.16 519.91a130.267 130.267 0 0 0 13.78 26.66 113.81 113.81 0 0 0 24.68-20.86A109.051 109.051 0 0 0 453.41 453c0-19.51-16.17-35.39-36.09-35.39a36.001 36.001 0 0 0-34.89 26.57c-.15.75-.36 1.5-.52 2.25a131.04 131.04 0 0 0-3 27.8 129.218 129.218 0 0 0 8.28 45.65l-.03.03Zm400.46-17.31L822 519.5c-24.86 48.67-76.15 82.13-135.44 82.13a153.92 153.92 0 0 1-49.75-8.24 175.336 175.336 0 0 1-123.335 50.71 175.336 175.336 0 0 1-123.335-50.71 153.54 153.54 0 0 1-49.76 8.24c-61.7 0-114.79-36.24-138.38-88.21L237.19 498a113.171 113.171 0 0 0 103.18 65.83 115.09 115.09 0 0 0 24.44-2.64A167.47 167.47 0 0 1 344.15 439c.36-1.65.75-3.23 1.15-4.85 8.49-31.21 37.5-54.18 72-54.18h2c2.1.06 4.19.19 6.26.42 37.29 4 66.25 35 66.25 72.68 0 50.59-25.79 95.25-65.14 122.05a136.148 136.148 0 0 0 173.56 0c-39.36-26.81-65.14-71.48-65.14-122.05 0-37.65 29-68.65 66.22-72.69 2.07-.21 4.15-.34 6.26-.4h2.05c34.5 0 63.5 23 72 54.21.4 1.6.79 3.2 1.15 4.84a167.469 167.469 0 0 1-20.67 122.28 114.94 114.94 0 0 0 24.41 2.64 113.326 113.326 0 0 0 101-61.28l.11-.07Z" fill="#fff"/></g><defs><clipPath id="a"><path fill="#fff" d="M0 0h1024v1024H0z"/></clipPath></defs></svg>