<svg width="1024" height="1024" fill="none" xmlns="http://www.w3.org/2000/svg"><g clip-path="url(#a)"><path d="M512 1024c282.77 0 512-229.23 512-512S794.77 0 512 0 0 229.23 0 512s229.23 512 512 512Z" fill="#56595B"/><path d="M337.12 499.74 499.36 337.5a94.277 94.277 0 0 1 133.19 0l12.64 12.65-25.28 25.28-12.64-12.65a58.5 58.5 0 0 0-82.63 0L362.41 525l-25.29-25.26ZM579 416.35l-25.28-25.28-162.27 162.24a58.428 58.428 0 0 1-82.625-.005 58.426 58.426 0 0 1 .005-82.625l140-140-25.28-25.28-140 140a94.179 94.179 0 0 0 66.766 160.161 94.179 94.179 0 0 0 66.414-26.971L579 416.35Zm161.49 29a94.291 94.291 0 0 0-133.19 0L445 607.65l25.28 25.28 162.27-162.24a58.428 58.428 0 0 1 99.423 41.409 58.43 58.43 0 0 1-16.793 41.221l-140 140 25.28 25.28 140-140a94.3 94.3 0 0 0 0-133.21M661.6 499 499.36 661.21a58.5 58.5 0 0 1-82.63 0l-12.64-12.65-25.28 25.28 12.64 12.64a94.282 94.282 0 0 0 133.19 0l162.24-162.21L661.6 499Z" fill="#fff"/></g><defs><clipPath id="a"><path fill="#fff" d="M0 0h1024v1024H0z"/></clipPath></defs></svg>