<svg width="1024" height="1024" fill="none" xmlns="http://www.w3.org/2000/svg"><g clip-path="url(#a)"><path d="M512 1024c282.77 0 512-229.23 512-512S794.77 0 512 0 0 229.23 0 512s229.23 512 512 512Z" fill="#8C72BD"/><path d="M511.35 255.75c-141.38 0-256 114.62-256 256s114.61 256 256 256 256-114.61 256-256-114.61-256-256-256Zm146.48 359.36-146.48 36.62-146.48-36.62v-36.62l146.48 36.62 146.48-36.62v36.62Zm0-85.05-146.48 36.62-146.48-36.62v-36.62l146.48 36.62 146.48-36.62v36.62Zm0-85.05-146.48 36.61L364.87 445v-36.62l146.48-36.62 146.48 36.62v36.63Z" fill="#fff"/></g><defs><clipPath id="a"><path fill="#fff" d="M0 0h1024v1024H0z"/></clipPath></defs></svg>