<svg width="1024" height="1024" fill="none" xmlns="http://www.w3.org/2000/svg"><g clip-path="url(#a)"><path d="M512 1024c282.77 0 512-229.23 512-512S794.77 0 512 0 0 229.23 0 512s229.23 512 512 512Z" fill="#728DBE"/><path d="M562.08 611.1v-111c0-27.86-23.17-50.45-51.74-50.45s-51.74 22.59-51.74 50.45v111h-41.4v-111c0-50.15 41.7-90.81 93.14-90.81s93.14 40.66 93.14 90.81v111h-41.4ZM654.2 275H369.8a94.802 94.802 0 0 0-94.8 94.8v284.4a94.802 94.802 0 0 0 94.8 94.8h284.4a94.802 94.802 0 0 0 94.8-94.8V369.8a94.802 94.802 0 0 0-94.8-94.8Zm53.33 379.2a53.33 53.33 0 0 1-53.33 53.32H369.8a53.326 53.326 0 0 1-37.709-15.614A53.306 53.306 0 0 1 316.47 654.2V369.8a53.306 53.306 0 0 1 15.621-37.706A53.308 53.308 0 0 1 369.8 316.48h284.4a53.33 53.33 0 0 1 53.33 53.32v284.4Z" fill="#fff"/></g><defs><clipPath id="a"><path fill="#fff" d="M0 0h1024v1024H0z"/></clipPath></defs></svg>