<svg width="1024" height="1024" fill="none" xmlns="http://www.w3.org/2000/svg"><g clip-path="url(#a)"><path d="M512 1024c282.77 0 512-229.23 512-512S794.77 0 512 0 0 229.23 0 512s229.23 512 512 512Z" fill="#728DBE"/><path d="M724 374.9v-34.7c0-22.2-18-40.2-40.2-40.2H340.2c-22.2 0-40.2 18-40.2 40.2V374c15.7 15.3 162.3 154 212.7 154 53.6 0 194.7-136.9 211.3-153.1Zm-75.4 126.2c-57.8 52.2-103.6 78.6-135.9 78.6-73.1 0-197-110.5-212.7-125.3v229.3c0 22.2 18 40.2 40.2 40.2h343.5c22.2 0 40.2-18 40.2-40.2V424.8c-7.3 8.4-37.8 42.6-75.3 76.3Z" fill="#fff"/></g><defs><clipPath id="a"><path fill="#fff" d="M0 0h1024v1024H0z"/></clipPath></defs></svg>