<svg width="1024" height="1024" fill="none" xmlns="http://www.w3.org/2000/svg"><g clip-path="url(#a)"><path d="M512 1024c282.77 0 512-229.23 512-512S794.77 0 512 0 0 229.23 0 512s229.23 512 512 512Z" fill="#56595B"/><path d="M511.55 256c-134.42 0-244.64 103.68-255.07 235.45l137.21 56.7a72.26 72.26 0 0 1 40.79-12.59c1.34 0 2.67.09 4 .13l61-88.36v-1.26A96.51 96.51 0 1 1 596 542.68h-2.24l-87 62.1c0 1.11.09 2.24.09 3.39a72.385 72.385 0 0 1-65.22 72.136 72.387 72.387 0 0 1-78.16-57.866l-98.24-40.68C295.73 689.21 394.37 768 511.55 768c141.37 0 256-114.62 256-256s-114.65-256-256-256Zm-94.7 388.47-31.42-13a54.274 54.274 0 0 0 79.728 21.294A54.27 54.27 0 0 0 484.54 628.8a54.297 54.297 0 0 0-38.241-73.928 54.3 54.3 0 0 0-31.089 2.208l32.49 13.44a40.08 40.08 0 0 1 21.585 52.415 40.08 40.08 0 0 1-52.415 21.585l-.02-.05ZM660.37 446a64.323 64.323 0 0 0-39.705-59.424 64.322 64.322 0 0 0-87.699 46.876 64.32 64.32 0 0 0 63.084 76.868A64.402 64.402 0 0 0 660.37 446Zm-112.49-.11a48.333 48.333 0 0 1 57.757-47.412 48.333 48.333 0 0 1 35.223 65.902 48.328 48.328 0 0 1-44.66 29.83 48.31 48.31 0 0 1-48.32-48.3v-.02Z" fill="#fff"/></g><defs><clipPath id="a"><path fill="#fff" d="M0 0h1024v1024H0z"/></clipPath></defs></svg>