<svg width="1024" height="1024" viewBox="0 0 1024 1024" fill="none" xmlns="http://www.w3.org/2000/svg">
<g clip-path="url(#clip0_2_3564)">
<path d="M512 1024C794.77 1024 1024 794.77 1024 512C1024 229.23 794.77 0 512 0C229.23 0 0 229.23 0 512C0 794.77 229.23 1024 512 1024Z" fill="#728DBE"/>
<path d="M512 800.11C485.72 800.11 464.33 779.16 463.62 753.05L327.43 674.43C272.36 702.83 226.72 624.42 279.05 590.63V433.38C226.7 399.55 272.38 321.19 327.43 349.58L463.62 270.96C466.18 209.04 557.87 209.14 560.38 270.96L696.56 349.59C751.63 321.18 797.27 399.6 744.94 433.39V590.64C797.29 624.47 751.61 702.83 696.56 674.44L560.37 753.06C559.69 779.18 538.18 800.15 511.99 800.12L512 800.11ZM512 295.34C512.14 295.34 512.65 295.34 512.78 295.33H512.62C512.83 295.33 513.04 295.33 513.25 295.31L512.78 295.33C513.01 295.33 513.24 295.31 513.46 295.3H513.25C513.46 295.3 513.67 295.29 513.89 295.27L513.47 295.3C513.68 295.29 513.88 295.27 514.09 295.25L513.89 295.27C514.08 295.25 514.26 295.24 514.45 295.22L514.09 295.26C514.32 295.24 514.54 295.22 514.77 295.19L514.45 295.23C514.66 295.21 514.87 295.18 515.08 295.15L514.77 295.19C514.96 295.17 515.15 295.14 515.34 295.11L515.08 295.15C515.32 295.12 515.55 295.08 515.79 295.04L515.35 295.11L515.92 295.02L515.79 295.04C515.99 295.01 516.19 294.97 516.39 294.93L515.93 295.01C516.14 294.97 516.35 294.94 516.56 294.89L516.4 294.92C516.65 294.87 516.91 294.82 517.16 294.76L516.56 294.89C517.16 294.77 517.75 294.63 518.33 294.46L517.98 294.56C518.17 294.51 518.37 294.45 518.56 294.4L518.34 294.47L518.85 294.32L518.56 294.41C543.5 287.43 538.3 248.98 512.02 249.26C485.72 249 480.55 287.49 505.53 294.43L505.18 294.32C505.36 294.37 505.53 294.43 505.71 294.48L505.53 294.43C505.72 294.49 505.91 294.54 506.1 294.59L505.71 294.48C505.91 294.54 506.12 294.59 506.33 294.65L506.11 294.59C506.63 294.73 507.17 294.85 507.7 294.95L507.48 294.91C507.69 294.95 507.91 294.99 508.13 295.03L507.7 294.95C507.88 294.98 508.06 295.02 508.23 295.05L508.12 295.03L508.7 295.12L508.23 295.05C508.47 295.09 508.71 295.13 508.95 295.16L508.71 295.13C508.9 295.16 509.08 295.18 509.27 295.2L508.95 295.16C509.16 295.19 509.37 295.21 509.59 295.24L509.27 295.2C509.5 295.23 509.72 295.25 509.95 295.27L509.59 295.24C509.78 295.26 509.96 295.28 510.15 295.29L509.95 295.27C510.16 295.29 510.36 295.3 510.57 295.32L510.15 295.29C510.36 295.31 510.57 295.32 510.78 295.33H510.57C510.8 295.33 511.02 295.34 511.25 295.35L510.78 295.33C511.2 295.35 511.61 295.36 512.03 295.36L512 295.34ZM586.92 453.51L672.66 404.01C671.89 400.97 671.42 397.86 671.25 394.74V394.85C671.21 393.99 671.18 393.13 671.18 392.27V392.59C671.1 383.98 673.37 375.4 677.66 367.95L553.91 296.5C547.67 307.36 537.07 315.61 524.99 318.93V412.14C551.47 415.41 574.21 431.19 586.91 453.52L586.92 453.51ZM441.49 455.48C453.34 433.23 474.76 417.47 499.65 412.88V319.1C487.3 315.9 476.43 307.55 470.08 296.49L346.33 367.94C351.43 376.76 353.64 387.19 352.54 397.32V397.29C352.318 399.384 351.961 401.462 351.47 403.51L441.49 455.48ZM731.12 412.11C742.14 405.75 745.92 391.65 739.56 380.63C726.95 358.17 691.65 371.85 696.99 396.64L696.94 396.37C696.97 396.54 697.01 396.72 697.04 396.89L696.99 396.65C697.03 396.87 697.08 397.09 697.13 397.31L697.04 396.89C697.09 397.12 697.14 397.35 697.2 397.59L697.13 397.31C697.17 397.49 697.22 397.67 697.26 397.86L697.19 397.59C697.24 397.79 697.29 397.99 697.34 398.18L697.25 397.85C697.31 398.07 697.36 398.28 697.43 398.49L697.34 398.17C697.39 398.35 697.44 398.54 697.5 398.72L697.43 398.49C697.65 399.26 697.92 400.03 698.22 400.78L698.11 400.5C698.19 400.71 698.28 400.92 698.37 401.13L698.23 400.78L698.47 401.35L698.37 401.13C698.44 401.31 698.52 401.48 698.6 401.65L698.47 401.35C698.57 401.58 698.67 401.8 698.78 402.02L698.61 401.65C698.69 401.84 698.78 402.02 698.87 402.21L698.78 402.03C698.87 402.21 698.96 402.4 699.05 402.58L698.87 402.21C698.98 402.44 699.09 402.66 699.21 402.88L699.05 402.57C699.56 403.58 700.15 404.56 700.8 405.48L700.65 405.26C700.94 405.68 701.24 406.09 701.56 406.49L701.42 406.31C701.53 406.45 701.64 406.59 701.75 406.72L701.56 406.49C701.71 406.68 701.86 406.86 702.02 407.05L701.75 406.73C701.88 406.88 702 407.04 702.13 407.19L702.02 407.06L702.37 407.47L702.13 407.2C702.97 408.18 703.9 409.09 704.89 409.92L704.51 409.6C704.66 409.73 704.82 409.86 704.97 409.99L704.89 409.93C712.1 415.91 722.55 417.1 731.13 412.14L731.12 412.11ZM320.39 408.77C320.72 408.45 321.05 408.12 321.36 407.78L321.27 407.88C321.41 407.73 321.55 407.57 321.69 407.42L321.36 407.78C321.51 407.62 321.66 407.45 321.81 407.28L321.69 407.41C321.83 407.25 321.97 407.08 322.11 406.92L321.8 407.28C321.93 407.14 322.05 406.99 322.17 406.84L322.1 406.92C322.22 406.78 322.33 406.64 322.45 406.49L322.17 406.84C322.33 406.65 322.49 406.45 322.64 406.25L322.45 406.49C322.58 406.33 322.71 406.16 322.83 405.99L322.64 406.24C322.76 406.09 322.87 405.94 322.98 405.78L322.83 405.98C322.95 405.82 323.07 405.65 323.19 405.48L322.98 405.77L323.36 405.24L323.19 405.48C323.67 404.8 324.13 404.08 324.54 403.34L324.36 403.66C324.7 403.08 325 402.49 325.29 401.88L325.12 402.23C325.19 402.09 325.25 401.96 325.32 401.82L325.29 401.88C325.41 401.63 325.52 401.38 325.63 401.12L325.56 401.29C325.95 400.38 326.29 399.46 326.56 398.52L326.51 398.68C326.57 398.48 326.63 398.28 326.68 398.08L326.56 398.52L326.74 397.88L326.69 398.08L326.84 397.51L326.75 397.88C326.88 397.39 326.98 396.9 327.08 396.41L327.04 396.59C332.36 371.81 297.07 358.15 284.46 380.6C271.06 403.29 301.93 427.01 320.4 408.74L320.39 408.77ZM338.16 597.15L393.06 565.45C367.56 536.49 376.64 485.09 409.82 466.48L339.27 425.75C330.28 435.16 317.41 440.59 304.41 440.57V583.46C316.88 583.44 329.24 588.43 338.16 597.16V597.15ZM686.23 596.79C688.99 594.15 692.07 591.86 695.37 589.95L695.1 590.1C700.141 587.149 705.673 585.134 711.43 584.15L710.79 584.26C713.69 583.72 716.64 583.45 719.6 583.44V440.55C706.77 440.57 694.09 435.3 685.1 426.11L597.76 476.53C625.57 480.02 647.15 503.54 647.61 532.18C647.84 545.44 643.44 557.93 635.92 567.73L686.23 596.78V596.79ZM509.02 564.83H590.57C632.22 564.12 632.22 502.15 590.57 501.45H573.11C576.57 434.19 487.26 411.09 460.97 473.75L457.84 481.86C394.74 472.53 381.83 559.45 444.97 564.83C446.11 564.83 506.66 564.85 507.76 564.83C508.11 564.82 508.67 564.84 509.03 564.83H509.02ZM470.08 727.52C476.43 716.46 487.3 708.11 499.65 704.92V590.19C478.43 589.02 432.56 594.58 414.04 582.62L351.07 618.98C352.21 623.08 352.79 627.32 352.81 631.57V631.26C352.837 633.887 352.653 636.512 352.26 639.11L352.33 638.64C352.01 640.92 351.52 643.18 350.87 645.4L350.93 645.2C349.842 648.996 348.297 652.646 346.33 656.07L470.08 727.52ZM553.92 727.52L677.67 656.07C676.99 654.88 676.35 653.67 675.77 652.42L675.84 652.56C672.695 645.901 671.105 638.614 671.19 631.25V631.56C671.21 627.14 671.84 622.72 673.07 618.47L614.77 584.81C607.42 588.26 599.22 590.18 590.57 590.18H525V705.09C537.08 708.41 547.68 716.66 553.92 727.52ZM315.93 651.83C324.7 646.77 328.88 636.81 327.02 627.4L327.06 627.6C326.658 625.48 325.961 623.427 324.99 621.5L325.1 621.72C325.02 621.56 324.94 621.39 324.85 621.23L324.99 621.5C324.468 620.467 323.869 619.475 323.2 618.53L323.36 618.76C323.25 618.59 323.13 618.43 323.01 618.27L323.2 618.53C323.08 618.36 322.95 618.18 322.82 618.01L323.01 618.26C322.87 618.07 322.73 617.89 322.59 617.7L322.82 618C322.71 617.85 322.6 617.71 322.48 617.56L322.58 617.69C322.45 617.52 322.31 617.35 322.17 617.18L322.47 617.55L322.08 617.07L322.17 617.18C304.81 595.74 270.36 619.26 284.42 643.37C290.78 654.39 304.88 658.17 315.9 651.8L315.93 651.83ZM739.55 643.39C753.26 620.03 720.73 596.4 702.75 616.13L702.92 615.95L702.56 616.34L702.76 616.13C702.63 616.27 702.5 616.42 702.37 616.56L702.57 616.34C702.43 616.49 702.3 616.65 702.16 616.8L702.37 616.56L701.96 617.03L702.15 616.8C702.02 616.96 701.88 617.11 701.75 617.27L701.95 617.03C701.49 617.58 701.05 618.16 700.64 618.75L700.77 618.56C700.2 619.36 699.68 620.22 699.21 621.1L699.32 620.89C699.21 621.1 699.1 621.3 699 621.51L699.21 621.1C699.11 621.3 699.01 621.49 698.91 621.69L699 621.51C698.91 621.68 698.83 621.86 698.75 622.03L698.91 621.69C698.81 621.9 698.71 622.1 698.61 622.31L698.74 622.03C698.51 622.52 698.3 623.01 698.1 623.51L698.17 623.32C697.79 624.26 697.48 625.22 697.23 626.19L697.31 625.87L697.16 626.46L697.23 626.19C697.18 626.38 697.14 626.57 697.09 626.76L697.16 626.46C697.11 626.68 697.06 626.9 697.01 627.13L697.09 626.76C697.04 626.96 697 627.17 696.96 627.37L697.01 627.12C696.97 627.3 696.94 627.48 696.9 627.66L696.96 627.37C691.63 652.16 726.93 665.82 739.53 643.38L739.55 643.39ZM512 774.77C537.26 775.1 543.61 738.7 520.26 730.2L520.45 730.28L519.97 730.1L520.26 730.21C520.07 730.14 519.89 730.07 519.7 730L519.98 730.1C519.8 730.03 519.62 729.97 519.44 729.91L519.7 730C519.51 729.93 519.32 729.87 519.13 729.81L519.44 729.91C519.24 729.84 519.04 729.78 518.84 729.71L519.13 729.8C518.93 729.74 518.73 729.67 518.53 729.62L518.83 729.71C518.66 729.66 518.48 729.6 518.3 729.55L518.52 729.61C518.33 729.55 518.14 729.5 517.94 729.45L518.29 729.55C518.08 729.49 517.87 729.43 517.66 729.38L517.93 729.45C517.36 729.3 516.79 729.17 516.21 729.06L516.51 729.12C516.328 729.081 516.145 729.048 515.96 729.02L516.21 729.06C516 729.02 515.79 728.99 515.59 728.95L515.97 729.01C515.75 728.97 515.53 728.94 515.3 728.9L515.59 728.94C515.44 728.92 515.3 728.9 515.15 728.87L515.3 728.89L514.61 728.8L515.14 728.87C514.94 728.84 514.73 728.82 514.53 728.79H514.61C514.42 728.78 514.22 728.76 514.03 728.74L514.54 728.79C514.32 728.77 514.1 728.74 513.88 728.73H514.04C513.82 728.73 513.61 728.71 513.39 728.69L513.89 728.73C513.68 728.71 513.47 728.7 513.26 728.69H513.4C513.19 728.69 512.99 728.68 512.78 728.67L513.26 728.69C512.6 728.65 511.87 728.65 511.21 728.67H511.37C511.16 728.67 510.94 728.67 510.73 728.69L511.21 728.67C511 728.67 510.8 728.69 510.59 728.7H510.73C510.52 728.7 510.31 728.72 510.1 728.74L510.6 728.7C510.38 728.71 510.16 728.73 509.95 728.75H510.11C509.89 728.75 509.67 728.78 509.45 728.8L509.96 728.75L509.38 728.81H509.46C509.25 728.82 509.05 728.85 508.84 728.88L509.38 728.81C509.16 728.84 508.93 728.86 508.71 728.9L508.84 728.88C508.69 728.9 508.54 728.92 508.39 728.95L508.71 728.9C508.48 728.93 508.25 728.97 508.02 729.01L508.38 728.95L507.83 729.04L508.02 729.01C507.83 729.04 507.65 729.08 507.46 729.12L507.83 729.05C507.24 729.16 506.66 729.29 506.09 729.44L506.31 729.38C506.1 729.43 505.9 729.49 505.69 729.55L506.08 729.44C505.89 729.49 505.7 729.54 505.51 729.6L505.68 729.55C505.5 729.6 505.31 729.66 505.13 729.71L505.5 729.6C505.29 729.66 505.08 729.73 504.87 729.79L505.12 729.71C504.93 729.77 504.74 729.83 504.55 729.9L504.87 729.79C504.67 729.85 504.48 729.92 504.29 729.99L504.55 729.9C504.37 729.96 504.19 730.02 504.01 730.09L504.29 729.99L503.72 730.2L504.01 730.09C503.86 730.15 503.7 730.2 503.55 730.26L503.71 730.2C480.36 738.7 486.74 775.11 511.98 774.77H512Z" fill="white"/>
</g>
<defs>
<clipPath id="clip0_2_3564">
<rect width="1024" height="1024" fill="white"/>
</clipPath>
</defs>
</svg>
