<svg width="1024" height="1024" fill="none" xmlns="http://www.w3.org/2000/svg"><g clip-path="url(#a)"><path d="M512 1024c282.77 0 512-229.23 512-512S794.77 0 512 0 0 229.23 0 512s229.23 512 512 512Z" fill="#F8C18C"/><path d="M512 363a59.601 59.601 0 0 1-59.59-59.6H661a59.581 59.581 0 0 1 42.133 17.46A59.602 59.602 0 0 1 720.58 363v208.59A59.59 59.59 0 0 1 661 512V392.8a29.803 29.803 0 0 0-29.8-29.8H512Zm89.39 89.4a29.803 29.803 0 0 0-29.8-29.8H333.21a29.797 29.797 0 0 0-29.79 29.8v238.39a29.801 29.801 0 0 0 29.79 29.8h238.38c7.903 0 15.483-3.14 21.072-8.728a29.804 29.804 0 0 0 8.728-21.072V452.41" fill="#fff"/></g><defs><clipPath id="a"><path fill="#fff" d="M0 0h1024v1024H0z"/></clipPath></defs></svg>