<svg width="1024" height="1024" viewBox="0 0 1024 1024" fill="none" xmlns="http://www.w3.org/2000/svg">
<g clip-path="url(#clip0_2_3579)">
<path d="M512 1024C794.77 1024 1024 794.77 1024 512C1024 229.23 794.77 0 512 0C229.23 0 0 229.23 0 512C0 794.77 229.23 1024 512 1024Z" fill="#54688C"/>
<path d="M352.9 361.4C340.2 358.7 331.1 356.3 326 355.1C319.7 353.3 314.8 350.9 312.4 347.5V333.6C316.6 327 326.9 322.7 341.1 322.7C360.7 322.7 374.3 327.2 395.8 344.2L420.9 314C395.5 292.8 373.8 285.3 342.3 285.3C306 285.3 281 300.1 271 321.3V367.2C278.9 382.6 297 391.4 333.2 399.2C346.2 402.2 355 404.3 360.1 405.2C366.7 407.3 372.8 410 376.1 414.9V430.9C371.6 438.2 360.7 442.1 346.5 442.1C336.2 442.4 326.3 440.3 316.9 436.4C307.8 432.8 297.3 425.8 284 414.9L257.1 444.8C286.1 470.5 310.6 479.2 345.3 479.2C382.5 479.2 408.8 465 418.7 442.3V396.1C410.3 378.9 390 369.9 352.9 361.4ZM754.4 291.3V473.8H711.8V454.5C702.1 470.2 684.3 479.3 658.3 479.3C615.1 479.3 593.6 456.9 593.6 421.3V291.3H640.1V408.8C640.1 427.8 650.4 439 670.3 439C693.6 439 707.8 425.7 707.8 401.2V291.2H754.4V291.3ZM531.8 606.9V734.4H485.3V620.8C485.3 599 476.5 585.7 456.3 585.7C436.1 585.7 424.3 600.8 424.3 622V734.4H377.8V620.8C377.8 597.5 368.1 585.7 348.8 585.7C328.3 585.7 316.8 600.8 316.8 622V734.4H270.3V551.9H313.5V572.1C324.1 554.6 341.6 545.8 365.5 545.8C388.8 545.8 406.3 555.5 416.3 572.7C428.7 554.9 447.1 545.8 471 545.8C509.8 545.9 531.8 569.2 531.8 606.9ZM671.6 544.1C629.6 544.1 596.7 566.8 583.1 603V679.8C596.4 716.1 629.6 738.7 671.6 738.7C713.6 738.7 746.2 716 759.5 680.1V602.7C746 566.8 713 544.1 671.6 544.1ZM714.6 668.3C707.3 687.6 691.9 699.1 671.4 699.1C651.2 699.1 635.1 687.6 627.9 668.3V614.5C635.2 595.2 650.6 583.4 671.4 583.4C691.9 583.4 707.1 595.2 714.3 614.5L714.6 668.3Z" fill="white"/>
</g>
<defs>
<clipPath id="clip0_2_3579">
<rect width="1024" height="1024" fill="white"/>
</clipPath>
</defs>
</svg>
