<svg width="1024" height="1024" fill="none" xmlns="http://www.w3.org/2000/svg"><g clip-path="url(#a)"><path d="M512 1024c282.77 0 512-229.23 512-512S794.77 0 512 0 0 229.23 0 512s229.23 512 512 512Z" fill="#A0A5AF"/><path d="M582 410.81 552.75 423l1.84 3.85a20.506 20.506 0 0 1 7-1.78c1.522-.026 3 .512 4.15 1.51 1.09.92 1.91 2.67 2.37 5.27.46 2.6.72 9.55.72 20.87v90.08c0 6.22-.43 10.4-1.38 12.54a9.714 9.714 0 0 1-3.89 4.68c-1.75 1-4.84 1.48-9.42 1.48v4h48.76v-4c-5.07 0-8.59-.56-10.54-1.58a9.548 9.548 0 0 1-4.15-4.68c-.86-2-1.32-6.16-1.32-12.45v-132l-4.89.02ZM196.07 422c-10.87 0-20 1.65-27.66 4.84a38.272 38.272 0 0 0-17.58 14.36 35.655 35.655 0 0 0-6.09 20.15c0 11.13 4.31 20.64 12.94 28.45 6.06 5.5 16.69 10.17 31.87 13.89 11.79 3 19.33 5 22.65 6.29a23.011 23.011 0 0 1 10.21 6 13.004 13.004 0 0 1 2.9 8.53c0 5.1-2.3 9.58-6.91 13.5s-11.52 5.79-20.68 5.79c-8.627 0-15.487-2.163-20.58-6.49-5.08-4.31-8.4-11.13-10.14-20.31l-27.53 2.6c1.846 15.807 7.513 27.837 17 36.09 9.486 8.253 23.153 12.403 41 12.45 12.22 0 22.39-1.78 30.62-5.14a41.582 41.582 0 0 0 25.71-38.49 42.474 42.474 0 0 0-5.63-22.52 39.613 39.613 0 0 0-15.54-14.39c-6.59-3.52-16.73-6.91-30.52-10.21-13.79-3.3-22.49-6.35-26-9.42a10.722 10.722 0 0 1-4.198-8.701 10.73 10.73 0 0 1 4.498-8.549c4.61-3.46 11.06-5.14 19.29-5.14 7.9 0 13.89 1.61 17.85 4.77 3.96 3.16 6.55 8.43 7.8 15.51l28.45-.92c-.43-13-5.07-23.38-14-31.25-8.93-7.87-22.18-11.69-39.8-11.69h.07Zm217.77 39.28c-13.5 0-24.76 5.6-33.68 16.92v-15h-24.83v102.26h26.8v-46.13c0-11.46.72-19.2 2.07-23.48a19.197 19.197 0 0 1 7.7-10.08 21.934 21.934 0 0 1 12.68-3.89 16.533 16.533 0 0 1 9.45 2.7 14.565 14.565 0 0 1 5.6 7.54c1.22 3.26 1.78 10.34 1.78 21.27v52.06h26.87v-63.34a83.678 83.678 0 0 0-1.52-18.11 30.459 30.459 0 0 0-5.27-11.29 27.33 27.33 0 0 0-11.23-8.23 42.32 42.32 0 0 0-16.42-3.19v-.01Zm87.25 0a56.001 56.001 0 0 0-27.2 6.59 45.771 45.771 0 0 0-18.8 19.29 55.44 55.44 0 0 0-6.65 26.11c0 11.72 2.24 21.63 6.65 29.76a43.106 43.106 0 0 0 19.36 18.64 59.34 59.34 0 0 0 26.8 6.39c15.15 0 27.69-5.14 37.67-15.24 9.98-10.1 15-23 15-38.42 0-15.42-4.94-28-14.85-38.06-9.91-10.06-22.49-15-38-15l.02-.06Zm240.85 1.65c-11.56 0-21.07 3.56-28.48 10.63a34.489 34.489 0 0 0-6.22 42.93A34 34 0 0 0 721.16 529c-7.34 6.16-12.05 11-14.13 14.49a18.1 18.1 0 0 0-3 8.92 8.999 8.999 0 0 0 2.34 6.06c1.51 1.84 4.18 3.82 7.9 6.16a319.908 319.908 0 0 0-10.83 11.69c-3.72 4.77-6.26 8.33-7.44 11.06a13.5 13.5 0 0 0-1.12 5.17c0 4 2.67 7.64 8.1 11.29 9.58 6.26 21.37 9.35 35.26 9.35 18.106 0 32.773-5.237 44-15.71 7.64-7.11 11.52-14.82 11.52-22.85a20.183 20.183 0 0 0-6-14.82 27.593 27.593 0 0 0-16.13-7.47 279.303 279.303 0 0 0-28.91-1.75c-5.063-.023-10.12-.32-15.15-.89-3.46-.49-5.83-1.32-7-2.47a5.047 5.047 0 0 1-1.84-3.69c.144-1.85.708-3.642 1.65-5.24a28.57 28.57 0 0 1 6.12-7.3 49.99 49.99 0 0 0 15.11 2.3c11.853 0 21.336-3.303 28.45-9.91a31.488 31.488 0 0 0 10.63-23.77c0-8.133-2.054-14.827-6.16-20.08h13c3.19 0 4.94-.07 5.5-.33.236-.054.459-.155.657-.295.197-.141.364-.319.493-.525a9.518 9.518 0 0 0 .59-4 7.008 7.008 0 0 0-.66-3.46 2.739 2.739 0 0 0-1.09-.92 27.277 27.277 0 0 0-5.47-.26h-21a43.003 43.003 0 0 0-24.56-6.91l-.05.09Zm-90.61 0a46.39 46.39 0 0 0-23.51 6.39 47.307 47.307 0 0 0-18 20.08 59.781 59.781 0 0 0-6.75 27.16 55.692 55.692 0 0 0 11.19 33.91 42.472 42.472 0 0 0 35.89 17.88 46.512 46.512 0 0 0 25-6.95c7.57-4.61 13.47-11.52 17.78-20.64a62.998 62.998 0 0 0 6.39-27 52.544 52.544 0 0 0-11.66-33.65 44.251 44.251 0 0 0-36.38-17.19l.05.01Zm-401.1.3 38.65 102.5a39.29 39.29 0 0 1-6.88 14.19c-3 3.69-7.57 5.5-13.8 5.5a54.672 54.672 0 0 1-11.33-1.32l2.21 21.24a71.938 71.938 0 0 0 15.25 1.66 53.361 53.361 0 0 0 13.76-1.71 34.246 34.246 0 0 0 10.21-4.54 28.396 28.396 0 0 0 7.38-7.7 72.467 72.467 0 0 0 6.75-13.63l6.57-17.91 35.72-98.28h-27.81l-23.77 72.57-24.36-72.57h-28.55Zm547.58 2.57v4a27.674 27.674 0 0 1 8.07 3 29.559 29.559 0 0 1 4.48 5.17 61.964 61.964 0 0 1 5.2 8.4l35.82 74.91-7 17.32c-2.6 6.39-5.2 10.73-7.77 12.94-2.57 2.21-4.94 3.42-7.14 3.42a28.903 28.903 0 0 1-5.5-1.65 30.422 30.422 0 0 0-9.88-2.3c-3.46 0-6.26.82-8.23 2.77a9.422 9.422 0 0 0-3 7.24 10.996 10.996 0 0 0 4.15 8.46 15 15 0 0 0 10.6 3.69c5.93 0 12.05-2.37 18.44-7.34 6.39-4.97 11.52-12.18 15.44-21.86l40.37-99.24a52.707 52.707 0 0 1 3.72-8.36 18.097 18.097 0 0 1 4.77-4.81 15.564 15.564 0 0 1 6.19-1.75v-4H874.3v4c2.19-.114 4.385.143 6.49.76a5.66 5.66 0 0 1 2.73 1.88 4.82 4.82 0 0 1 .76 2.86 23.428 23.428 0 0 1-1.84 8.92l-22.22 55-24.27-50.38c-2.44-4.94-3.62-8.82-3.62-11.72a6.916 6.916 0 0 1 2.44-5.27 11.391 11.391 0 0 1 7.38-2.07h2.24v-4l-46.58.01Zm-57.72 2.63c5.76 0 10.4 2.44 14.16 7.14 4.94 6.45 7.38 15.34 7.38 26.83 0 8.727-1.757 15.137-5.27 19.23a16.993 16.993 0 0 1-13.5 6.19 17.384 17.384 0 0 1-14.16-7.11c-4.91-6.26-7.34-15.08-7.34-26.41 0-8.82 1.78-15.18 5.37-19.43a16.992 16.992 0 0 1 13.37-6.49l-.01.05ZM648 470.21c8 0 14.49 3.36 19.69 10.27 7.57 10.14 11.39 23.94 11.39 41.58 0 14.13-2.3 24-6.88 29.8a21.273 21.273 0 0 1-17.38 8.69c-9.42 0-17-5.3-22.75-15.71s-8.66-22.88-8.66-37.37c0-9 1.22-16.23 3.62-22a24.07 24.07 0 0 1 9.38-11.89 21.998 21.998 0 0 1 11.59-3.37Zm-147 13a23.155 23.155 0 0 1 17.88 8.13c4.74 5.33 7.11 13.07 7.11 23.15 0 10.24-2.37 18.11-7.11 23.44a23.618 23.618 0 0 1-27.679 6.025 23.614 23.614 0 0 1-8.041-6.025c-4.84-5.3-7.24-13.1-7.24-23.31 0-10.21 2.4-17.94 7.24-23.28a23.19 23.19 0 0 1 17.84-8.13Zm219.28 82.25c8.73 1.19 21.3 2.14 37.6 2.63 11.19.23 18.64 1.12 22.39 2.73 3.75 1.61 5.6 4.28 5.6 7.94 0 5.167-3.094 10.017-9.28 14.55-6.26 4.54-15.8 6.85-28.78 6.85-13.63 0-24.1-2.3-31.31-6.72-4.21-2.57-6.26-5.53-6.26-9.12a17.584 17.584 0 0 1 2.5-8.56 49.691 49.691 0 0 1 7.51-10.31l.03.01Z" fill="#fff"/></g><defs><clipPath id="a"><path fill="#fff" d="M0 0h1024v1024H0z"/></clipPath></defs></svg>