<svg width="1024" height="1024" viewBox="0 0 1024 1024" fill="none" xmlns="http://www.w3.org/2000/svg">
<g clip-path="url(#clip0_2_3666)">
<path d="M512 1024C794.77 1024 1024 794.77 1024 512C1024 229.23 794.77 0 512 0C229.23 0 0 229.23 0 512C0 794.77 229.23 1024 512 1024Z" fill="#FF837D"/>
<path d="M407.31 588.14H312.11V492.94H407.11V588.14H407.31ZM312.11 274V435.86H340.65V431.16C340.65 354.93 383.46 307.42 464.39 307.42H469.09V650.1C469.09 697.62 450.09 716.76 402.43 716.76H388.17V750H635.66V716.75H621.39C573.87 716.75 554.73 697.75 554.73 650.09V307.24H559.43C640.36 307.24 683.17 354.76 683.17 430.98V435.68H711.71V274H312.11ZM616.69 588.14H711.89V492.94H616.89V588.14H616.69Z" fill="white"/>
</g>
<defs>
<clipPath id="clip0_2_3666">
<rect width="1024" height="1024" fill="white"/>
</clipPath>
</defs>
</svg>
