<svg width="1024" height="1024" viewBox="0 0 1024 1024" fill="none" xmlns="http://www.w3.org/2000/svg">
<g clip-path="url(#clip0_2_3603)">
<path d="M512 1024C794.77 1024 1024 794.77 1024 512C1024 229.23 794.77 0 512 0C229.23 0 0 229.23 0 512C0 794.77 229.23 1024 512 1024Z" fill="#FF837D"/>
<path d="M554.09 264.5C526.57 253.17 495.81 253.17 469.9 264.5C408.38 290.4 301.53 340.59 301.53 374.59V683.81L471.53 768L461.82 557.53L363.05 530V457.16L512 466.87L660.95 457.16V530L562.19 557.52L552.47 768L722.47 683.81V374.59C722.46 340.59 615.61 290.4 554.09 264.5Z" fill="white"/>
</g>
<defs>
<clipPath id="clip0_2_3603">
<rect width="1024" height="1024" fill="white"/>
</clipPath>
</defs>
</svg>
