<svg width="1024" height="1024" fill="none" xmlns="http://www.w3.org/2000/svg"><g clip-path="url(#a)"><path d="M512 1024c282.77 0 512-229.23 512-512S794.77 0 512 0 0 229.23 0 512s229.23 512 512 512Z" fill="#FF837D"/><path d="M554.09 264.5c-27.52-11.33-58.28-11.33-84.19 0-61.52 25.9-168.37 76.09-168.37 110.09v309.22l170 84.19-9.71-210.47L363.05 530v-72.84L512 466.87l148.95-9.71V530l-98.76 27.52L552.47 768l170-84.19V374.59c-.01-34-106.86-84.19-168.38-110.09Z" fill="#fff"/></g><defs><clipPath id="a"><path fill="#fff" d="M0 0h1024v1024H0z"/></clipPath></defs></svg>