<svg width="1024" height="1024" fill="none" xmlns="http://www.w3.org/2000/svg"><g clip-path="url(#a)"><path d="M512 1024c282.77 0 512-229.23 512-512S794.77 0 512 0 0 229.23 0 512s229.23 512 512 512Z" fill="#98DC9A"/><path d="M512 456.56a54.447 54.447 0 0 1 50.299 33.622 54.443 54.443 0 0 1-11.814 59.337 54.444 54.444 0 0 1-59.341 11.792A54.443 54.443 0 0 1 457.54 511a54.43 54.43 0 0 1 4.149-20.836 54.436 54.436 0 0 1 29.473-29.463A54.462 54.462 0 0 1 512 456.56Zm0 163.35a54.45 54.45 0 1 1 .002 108.9 54.45 54.45 0 0 1-.002-108.9ZM348.64 456.56a54.452 54.452 0 0 1 53.403 65.076 54.446 54.446 0 0 1-42.786 42.779 54.448 54.448 0 0 1-55.895-23.162 54.445 54.445 0 0 1 6.78-68.749 54.45 54.45 0 0 1 38.498-15.944Zm0 163.35a54.45 54.45 0 1 1 .002 108.9 54.45 54.45 0 0 1-.002-108.9Zm326.71-163.35a54.447 54.447 0 0 1 50.299 33.622 54.443 54.443 0 0 1-11.814 59.337 54.444 54.444 0 0 1-59.341 11.792A54.443 54.443 0 0 1 620.89 511a54.43 54.43 0 0 1 4.149-20.836 54.436 54.436 0 0 1 29.473-29.463 54.462 54.462 0 0 1 20.838-4.141Zm3.34-161.37H345.31a51.152 51.152 0 0 0-36.171 14.978 51.146 51.146 0 0 0-14.979 36.172v4a51.146 51.146 0 0 0 14.982 36.168 51.146 51.146 0 0 0 36.168 14.982h333.38a51.15 51.15 0 0 0 51.15-51.15v-4a51.156 51.156 0 0 0-14.985-36.172 51.151 51.151 0 0 0-36.175-14.978h.01Zm-3.34 324.72a54.45 54.45 0 1 1 .002 108.9 54.45 54.45 0 0 1-.002-108.9Z" fill="#fff"/></g><defs><clipPath id="a"><path fill="#fff" d="M0 0h1024v1024H0z"/></clipPath></defs></svg>