<svg width="1024" height="1024" viewBox="0 0 1024 1024" fill="none" xmlns="http://www.w3.org/2000/svg">
<g clip-path="url(#clip0_2_3606)">
<path d="M512 1024C794.77 1024 1024 794.77 1024 512C1024 229.23 794.77 0 512 0C229.23 0 0 229.23 0 512C0 794.77 229.23 1024 512 1024Z" fill="#98DC9A"/>
<path d="M512 456.56C522.769 456.562 533.296 459.757 542.249 465.742C551.202 471.727 558.18 480.232 562.299 490.182C566.419 500.132 567.495 511.081 565.392 521.642C563.289 532.204 558.101 541.905 550.485 549.519C542.869 557.133 533.166 562.317 522.603 564.416C512.04 566.515 501.092 565.434 491.144 561.311C481.195 557.188 472.692 550.208 466.711 541.252C460.73 532.297 457.538 521.769 457.54 511C457.541 503.849 458.951 496.769 461.689 490.164C464.426 483.558 468.438 477.556 473.495 472.501C478.552 467.446 484.556 463.436 491.162 460.701C497.769 457.966 504.85 456.559 512 456.56ZM512 619.91C522.769 619.91 533.297 623.103 542.251 629.086C551.205 635.069 558.184 643.573 562.305 653.523C566.427 663.472 567.505 674.42 565.404 684.983C563.303 695.545 558.117 705.247 550.502 712.862C542.887 720.477 533.185 725.663 522.623 727.764C512.061 729.865 501.112 728.786 491.163 724.665C481.214 720.544 472.71 713.565 466.727 704.611C460.744 695.656 457.55 685.129 457.55 674.36C457.55 659.919 463.287 646.069 473.498 635.858C483.71 625.647 497.559 619.91 512 619.91ZM348.64 456.56C359.41 456.56 369.938 459.754 378.892 465.737C387.846 471.721 394.825 480.225 398.946 490.175C403.067 500.125 404.145 511.074 402.043 521.636C399.941 532.199 394.755 541.901 387.139 549.515C379.523 557.13 369.82 562.315 359.257 564.415C348.694 566.515 337.745 565.435 327.796 561.312C317.847 557.19 309.344 550.209 303.362 541.253C297.38 532.298 294.188 521.77 294.19 511C294.193 496.561 299.931 482.714 310.142 472.504C320.353 462.295 334.201 456.56 348.64 456.56ZM348.64 619.91C359.409 619.91 369.937 623.103 378.891 629.086C387.845 635.069 394.824 643.573 398.945 653.523C403.067 663.472 404.145 674.42 402.044 684.983C399.943 695.545 394.757 705.247 387.142 712.862C379.527 720.477 369.825 725.663 359.263 727.764C348.701 729.865 337.752 728.786 327.803 724.665C317.854 720.544 309.35 713.565 303.367 704.611C297.384 695.656 294.19 685.129 294.19 674.36C294.19 659.919 299.927 646.069 310.138 635.858C320.35 625.647 334.199 619.91 348.64 619.91ZM675.35 456.56C686.119 456.562 696.646 459.757 705.599 465.742C714.552 471.727 721.53 480.232 725.649 490.182C729.769 500.132 730.845 511.081 728.742 521.642C726.639 532.204 721.451 541.905 713.835 549.519C706.219 557.133 696.516 562.317 685.953 564.416C675.39 566.515 664.442 565.434 654.494 561.311C644.545 557.188 636.042 550.208 630.061 541.252C624.08 532.297 620.888 521.769 620.89 511C620.891 503.849 622.301 496.769 625.039 490.164C627.776 483.558 631.788 477.556 636.845 472.501C641.902 467.446 647.906 463.436 654.512 460.701C661.119 457.966 668.2 456.559 675.35 456.56ZM678.69 295.19H345.31C338.593 295.189 331.941 296.511 325.734 299.081C319.528 301.651 313.889 305.419 309.139 310.168C304.389 314.918 300.621 320.558 298.051 326.764C295.481 332.971 294.159 339.622 294.16 346.34V350.34C294.16 363.906 299.549 376.916 309.142 386.508C318.734 396.101 331.744 401.49 345.31 401.49H678.69C692.256 401.49 705.266 396.101 714.859 386.508C724.451 376.916 729.84 363.906 729.84 350.34V346.34C729.84 339.622 728.517 332.97 725.946 326.763C723.374 320.557 719.606 314.918 714.855 310.168C710.104 305.418 704.464 301.651 698.257 299.081C692.051 296.511 685.398 295.189 678.68 295.19H678.69ZM675.35 619.91C686.119 619.91 696.647 623.103 705.601 629.086C714.555 635.069 721.534 643.573 725.655 653.523C729.777 663.472 730.855 674.42 728.754 684.983C726.653 695.545 721.467 705.247 713.852 712.862C706.237 720.477 696.535 725.663 685.973 727.764C675.411 729.865 664.462 728.786 654.513 724.665C644.564 720.544 636.06 713.565 630.077 704.611C624.094 695.656 620.9 685.129 620.9 674.36C620.9 659.919 626.637 646.069 636.848 635.858C647.06 625.647 660.909 619.91 675.35 619.91Z" fill="white"/>
</g>
<defs>
<clipPath id="clip0_2_3606">
<rect width="1024" height="1024" fill="white"/>
</clipPath>
</defs>
</svg>
