<svg width="1024" height="1024" fill="none" xmlns="http://www.w3.org/2000/svg"><g clip-path="url(#a)"><path d="M512 1024c282.77 0 512-229.23 512-512S794.77 0 512 0 0 229.23 0 512s229.23 512 512 512Z" fill="#BD9AFF"/><path d="m771.3 589.11-53.23-45.32 1-6.16a194.091 194.091 0 0 0 1.48-25.57c0-10.65-.55-21.59-2.46-31.71l53.23-45.27 1.18-1a9.83 9.83 0 0 0 2.07-11c-10.87-32.78-29.62-64-52.69-89.86-3.25-3.71-7.87-5.05-12.19-3.18l-67.09 22.91-5.6-4.33a208.694 208.694 0 0 0-49.8-27.39L573.92 253l-.39-1.41a11.157 11.157 0 0 0-8.85-7.39 269 269 0 0 0-105.33 0 11.144 11.144 0 0 0-6.003 2.948A11.145 11.145 0 0 0 450.11 253l-13.29 68.2-6 2.41a194.989 194.989 0 0 0-49.37 29.3L314.35 330l-1.48-.48a10.605 10.605 0 0 0-10.76 3.69c-23.11 25.88-41.81 57.09-52.66 89.87a9.778 9.778 0 0 0 3.25 12l53.23 45.29-1 6.14a194.459 194.459 0 0 0-1.46 25.55 174.505 174.505 0 0 0 2.46 31.73l-53.21 45.32-1.18 1a9.844 9.844 0 0 0-2.07 11c10.85 32.8 29.57 64 52.66 89.81 3.28 3.73 7.89 5.07 12.22 3.21l67.06-22.93 4.89 3.94a201.776 201.776 0 0 0 50.5 27.78l13.29 68.25.36 1.41a11.184 11.184 0 0 0 8.87 7.39 277.257 277.257 0 0 0 105.35 0 11.19 11.19 0 0 0 9.24-8.8l13.31-68.25 6.64-2.68a204.63 204.63 0 0 0 48.73-29l67.06 22.93 1.46.5c3.89 1 7.85-.39 10.76-3.71 23.09-25.84 41.81-57 52.66-89.81a9.784 9.784 0 0 0-3.23-12.04ZM512 671.75c-88.4 0-160.06-71.52-160.06-159.74 0-88.22 71.6-159.74 160.06-159.75 88.42 0 160.07 71.53 160.07 159.74 0 88.21-71.67 159.75-160.07 159.75ZM410.7 442.26h202.6v47.55h-77.19V604h-48.22V489.81H410.7v-47.55Z" fill="#fff"/></g><defs><clipPath id="a"><path fill="#fff" d="M0 0h1024v1024H0z"/></clipPath></defs></svg>