<svg width="1024" height="1024" viewBox="0 0 1024 1024" fill="none" xmlns="http://www.w3.org/2000/svg">
<g clip-path="url(#clip0_2_3615)">
<path d="M512 1024C794.77 1024 1024 794.77 1024 512C1024 229.23 794.77 0 512 0C229.23 0 0 229.23 0 512C0 794.77 229.23 1024 512 1024Z" fill="#54688C"/>
<path d="M765.8 539.4L697.5 336.7C692.6 322.1 680.1 311.1 664.9 308.2L451.8 266.6C436.9 263.7 421.5 268.9 411.4 280.2L266.9 442.2C256.6 453.7 253.3 470 258.2 484.6L326.5 687.3C331.4 702 343.9 712.9 359.1 715.8L572.2 757.4C574.9 757.9 577.6 758.2 580.4 758.2C592.6 758.2 604.4 753 612.6 743.8L757.1 581.8C767.4 570.3 770.7 554.1 765.8 539.4ZM683.3 341.5L728.2 474.8L632.8 324.3C630.7 321 628.2 318.2 625.4 315.8L662.1 323C671.9 324.8 680.1 332 683.3 341.5ZM612.9 693.1L529.7 697.3L664.2 619.4C664.4 619.3 664.6 619.2 664.8 619L632.4 680.5C628.7 687.9 621.2 692.7 612.9 693.1ZM403.9 691.7L356.9 617.6C357.8 618.2 358.7 618.8 359.7 619.4L495.3 697.9C495.9 698.3 496.6 698.6 497.2 698.9L424.9 702.6C416.5 703 408.4 698.9 403.9 691.7ZM411.1 331L494.3 326.8L359.8 404.7C359.6 404.8 359.4 404.9 359.2 405.1L391.6 343.6C395.3 336.2 402.8 331.4 411.1 331ZM620.1 332.3L667.1 406.4C666.2 405.8 665.3 405.2 664.3 404.6L528.7 326.1C528.1 325.7 527.4 325.4 526.8 325.1L599.1 321.4C607.5 321 615.6 325.2 620.1 332.3ZM665.9 590.6C665.9 597.1 662.4 603.2 656.8 606.5L521.2 685C515.5 688.3 508.5 688.3 502.8 685L367.2 606.5C361.6 603.2 358.1 597.2 358.1 590.6V433.5C358.1 427 361.6 420.9 367.2 417.6L502.8 339.1C505.6 337.4 508.8 336.6 512 336.6C515.2 336.6 518.4 337.4 521.2 339.1L656.8 417.6C662.4 420.9 665.9 426.9 665.9 433.5V590.6ZM343.6 596.6L304.2 534.5C299.7 527.4 299.4 518.4 303.3 511L343 435.5V590.6C343.1 592.6 343.3 594.6 343.6 596.6ZM680.4 427.4L719.8 489.5C724.3 496.6 724.6 505.6 720.7 513L680.9 588.5V433.5C680.9 431.4 680.7 429.4 680.4 427.4ZM422.7 290.2C428.1 284.2 435.8 280.8 443.7 280.8C445.5 280.8 447.2 281 449 281.3L582 307.3L410.3 316C405.5 316.2 401 317.4 396.7 319.3L422.7 290.2ZM278.1 452.2L373.7 345.1L290 504C287.5 508.8 286.1 514 285.7 519.2L272.4 479.8C269.2 470.3 271.4 459.7 278.1 452.2ZM340.7 682.5L295.8 549.2L391.2 699.7C393.3 702.9 395.8 705.8 398.6 708.2L361.9 701C352.1 699.2 344 692.1 340.7 682.5ZM601.4 733.9C594.8 741.3 584.7 744.7 575 742.8L442 716.8L613.7 708.1C618.5 707.9 623 706.7 627.3 704.8L601.4 733.9ZM745.9 571.9L650.3 679L734 520C736.5 515.2 737.9 510 738.3 504.8L751.6 544.2C754.8 553.8 752.6 564.4 745.9 571.9Z" fill="white"/>
</g>
<defs>
<clipPath id="clip0_2_3615">
<rect width="1024" height="1024" fill="white"/>
</clipPath>
</defs>
</svg>
