<svg width="1024" height="1024" fill="none" xmlns="http://www.w3.org/2000/svg"><g clip-path="url(#a)"><path d="M512 1024c282.77 0 512-229.23 512-512S794.77 0 512 0 0 229.23 0 512s229.23 512 512 512Z" fill="#FF837D"/><path d="m512 781 72-404.57c68.57 0 90.19 7.52 93.32 38.21 0 0 46-17.15 69.2-52C655.95 320.71 565 318.82 565 318.82l-53.08 64.65h.08l-53-64.66s-91 1.89-181.48 43.84c23.18 34.83 69.19 52 69.19 52 3.14-30.69 24.74-38.21 92.85-38.26L512 781Zm0-480.85c73.18-.56 156.94 11.32 242.69 48.69 11.46-20.63 14.41-29.74 14.41-29.74C675.36 282 587.58 269.32 512 269c-75.59.32-163.36 13-257.09 50.09 0 0 4.18 11.23 14.4 29.74C355 311.47 438.81 299.59 512 300.15Z" fill="#fff"/></g><defs><clipPath id="a"><path fill="#fff" d="M0 0h1024v1024H0z"/></clipPath></defs></svg>