<svg width="1024" height="1024" viewBox="0 0 1024 1024" fill="none" xmlns="http://www.w3.org/2000/svg">
<g clip-path="url(#clip0_2_3633)">
<path d="M512 1024C794.77 1024 1024 794.77 1024 512C1024 229.23 794.77 0 512 0C229.23 0 0 229.23 0 512C0 794.77 229.23 1024 512 1024Z" fill="#BA6561"/>
<path d="M362.78 669.07C358.05 667.07 352.88 665.73 348.5 662.77C351.58 673.16 353.86 682.26 359.63 693.23C362.92 699.48 368.63 684.41 362.79 669.07M348.4 494.45L348.76 494.81C348.69 508.91 309.07 529.14 292.1 538.24C318.34 547.3 343.17 522.93 340.2 528.86C336.64 535.77 304.6 563.41 290.64 578.19C301.53 581.19 311.5 572.43 319.39 565.71C328 558.38 342.39 539.96 340.2 549.1C316.92 577.83 298.58 637.53 309.88 641.34C316.35 627.82 343.13 558.85 344.82 559.16C346.51 559.47 342.71 577.37 342.12 589.16C340.81 615.16 340.63 627.47 346.25 653.05C349.14 649.05 351.92 649.18 356.51 649.5C357.08 647.02 356.91 647.65 354.03 643.85C346.59 634 355.14 620.55 351.56 612.36C348.56 605.51 346.89 610.99 345.56 603.87C347.66 601.97 353.2 601.39 355.47 601.04C357.9 574.34 366.83 560.76 363.47 577.6C361.76 586.11 359.17 600.26 360.41 600.69C361.249 600.93 362.057 601.266 362.82 601.69C363.31 601.94 407.68 528.97 383.08 579.54C379.85 586.18 366.75 604.05 366.75 604.05C370.21 607.58 373.47 611.72 373.88 614.24C373.99 614.91 433.34 536.13 392.88 599.62C390.4 603.51 378.27 616.52 375.16 620.29C374.75 620.8 376.29 635.05 376.29 635.05C383.432 629.78 389.853 623.597 395.39 616.66C394.84 608.6 396.73 609.66 397.17 601.79C399.05 600.59 401.51 603.95 404.48 606.61C405.89 607.86 445.21 539.4 420.55 590.76C416.55 599.01 407.83 608.76 407.44 609.56C409.1 611.34 411.57 616.98 414.39 623.56C414.5 623.81 466.99 547.85 435.09 605.25C432.57 609.78 416.77 628.79 416.98 629.25C420.86 638.74 424.25 648 424.24 647.98C423.24 640.57 421.77 625.98 437.14 613.98C439.14 627.15 442.67 627.7 447.24 631.73C449.24 633.51 453 641.03 453.44 634.63C454.74 615.9 448.66 616.35 444.13 608.4C443.05 606.49 443.25 602.21 444.13 602.47C481.93 603.6 480.67 639.01 486.98 638.98C484.1 629.98 483.33 621.08 486.73 613.82C476.6 606.64 479.13 594.36 481.07 589.04C469.69 577.26 476.23 552.24 481.66 546.96C474.34 536.31 483.37 529.04 481.43 522.51C478.35 499.38 457.74 506.26 453.12 484.27C449.9 488.18 443.94 501.52 446.74 505.95C449.94 511.03 456.82 511.47 457.23 515.19C457.4 516.77 457.92 521.19 456.78 522.14C452.88 522.84 450.22 519.26 446.22 517.67C438.22 514.5 418.83 527.77 417.67 516.07C416.94 508.7 420.2 514.01 419.84 507.18C419.51 500.18 415.97 505.1 415.93 496.02C415.93 489.37 423.93 487.28 424.5 484.6C425.92 478 437.9 494.31 444.94 477.01C440.86 477.59 432.57 474.72 433.35 470.7C435.45 459.87 435.61 433.7 411.12 439.33C402.33 441.33 377.85 454.24 374.45 440.23C365.62 455.85 383.08 453.13 388.35 452.79C386.27 454.25 383.64 456.6 377.14 455.19C363.35 464.27 312.95 496.29 298.4 504.35C317.91 513.45 347.97 494.47 348.4 494.47M395.7 623.88C388.86 630.71 386.49 630.88 386.86 633.88C388.4 638.05 391.41 640.99 394.62 644.56C398.62 647.86 400.15 650.82 397.19 641.21C395.36 634.83 395.82 630.21 395.71 623.92M505.71 474.67C504.508 471.767 502.295 469.397 499.48 468C487.23 462.17 463.77 474.77 464.03 456.41C464.03 456.41 455.64 462.64 459.47 469.16C468.2 484.06 492.54 465.56 505.71 474.66M321.41 291.08C300.9 291.08 300.47 322.48 321.41 322.48C342.02 322.48 342.02 291.08 321.41 291.08ZM321.41 353.81C299.99 353.81 299.99 385.21 321.41 385.21C342.14 385.21 342.02 353.81 321.41 353.81ZM342.89 317.45H361.15V299.45H342.89V317.45ZM342.89 380.01H361.15V362.01H342.89V380.01ZM392.66 360.39C384.46 365.39 385.92 370.96 388.66 374.39C390.14 373.39 395.44 369.77 397.6 367.6C396.35 366.85 393.6 362.6 392.7 360.42M411.7 332.64C411.694 331.21 411.608 329.781 411.44 328.36C411.66 326.75 408.6 323.04 407.75 322.99C406.9 322.94 404.75 324.83 403.53 326.68C403.166 327.557 403.029 328.511 403.13 329.454C403.231 330.398 403.568 331.301 404.11 332.08C406.71 335.02 407.92 335.08 411.7 332.65M411.76 341.5V334.37C409.21 335.95 408.18 337.16 405.55 335.6C401.25 339.08 407.81 341.22 409.2 342.4C410.021 342.006 410.888 341.714 411.78 341.53M445.13 291.19C446.58 290.13 450.02 286.19 452.25 284.05C450.99 283.29 448.73 281.73 447.84 279.53C443.9 282.67 443.16 284.85 445.13 291.19ZM474.27 294.97C471.86 296.87 469.72 298.58 468.57 299.57C469.44 301.22 475.01 305.25 478.13 303.82C481.25 302.39 482.66 299.35 479.82 297.74C478.027 296.706 476.174 295.781 474.27 294.97ZM476.64 290.09L479.89 287.48C477.73 285.48 474.11 283.48 472.47 283.3C470.83 283.12 467.57 284.54 468.85 286.23C470.13 287.92 471.37 289.85 474.04 290.23C474.909 290.317 475.786 290.27 476.64 290.09ZM485.18 371.24C485.342 369.404 485.342 367.557 485.18 365.72C485.44 364.09 480.39 361.04 479.57 361.04C478.57 361.04 478.57 361.61 477.32 363.53C476.72 364.53 477.21 367.66 477.73 368.11C480.49 370.52 482.64 371.29 485.15 371.24M478.51 371.69C474.15 375.33 479.06 378.69 480.4 379.86C481.997 379.231 483.63 378.697 485.29 378.26C485.029 377.681 484.867 377.063 484.81 376.43C484.81 375.78 484.92 374.33 485.04 372.77C482.13 373.06 480.81 373.26 478.51 371.7M468.86 377.4L466.17 380.4L463.6 383.01C461.6 381.01 460.19 380.6 459.84 379.01L459.74 366.01L455.67 363.9C453.77 365.48 452.33 364.79 453.96 363.37L460.11 357.61L461.6 357.41L465.53 363.18L465.63 375.48C467.23 376.95 465.82 376.91 468.85 377.48M467.5 337.65C465.42 331.89 469.19 326.52 471.03 324.97C473.297 323.007 475.664 321.161 478.12 319.44C480.26 320.74 481.89 321.67 482.99 322.17C482.6 323.23 482.12 325.33 479.86 325.43C476.43 325.53 473.77 324.61 471.91 326.61C470.05 328.61 471.5 334.22 473.81 336.36C475.52 338.01 480.27 340.12 481.14 338.19C482.28 335.69 483.96 337 482.32 339.19C480.771 341.264 479.368 343.442 478.12 345.71C475.744 345.591 473.46 344.758 471.565 343.32C469.67 341.882 468.254 339.906 467.5 337.65ZM472.5 378.19C472.5 375 474.13 372.46 476.35 370.19C476.224 370.069 476.083 369.965 475.93 369.88C475.29 369.34 474.23 363.73 475.05 362.55C476.12 361.01 481.05 356.24 484.42 355.9C486.71 355.65 490.1 360.61 492.08 362.81C491.53 363.45 492.77 377.1 492.77 378.39C493.46 379.51 495.84 380.3 496.56 379.22C497.5 378.02 498.39 379.29 497.5 380.22C496.61 381.15 493.18 383.82 492.12 385.11C490.58 383.91 488.03 382.57 486.36 380.57C482.96 381.21 479.45 383.67 476.7 385.68C473.62 384.31 472.61 381.28 472.5 378.25M500.15 343.55L497.4 346.55L493.93 349.55C491.93 347.55 490.55 346.96 490.22 345.36L490.1 331.96L486.91 329.96C485.06 331.61 483.56 330.9 485.22 329.41L491.41 323.7L492.84 323.51L495.53 327.51L495.41 341.74C497.06 343.22 497.06 343 500.14 343.58M496.79 299.74C489.35 298.97 491.27 296.63 492.55 296.74C499.5 297.16 497.95 299.88 496.79 299.74ZM496.91 295.31C489.49 295.59 491.42 292.2 492.65 292.31C498.92 292.66 498.07 295.31 496.91 295.31ZM490.91 311.31L494.1 314.61V318.02L491.72 320.18H489.72L487.72 318.18L487.66 314.18L490.91 311.31ZM487.61 284.15C485.402 286.276 483.064 288.263 480.61 290.1C481.145 290.171 481.663 290.337 482.14 290.59C487.54 293.75 489.38 298.19 484.08 302.39C481.17 304.73 476.46 307.39 471.35 307.46C467.98 307.54 461.97 304.7 460.87 303.46C463.62 300.88 466.58 298.06 468.72 296.25C465.38 293.68 462.24 290.25 464.81 286.25C466.74 283.25 472.65 278.52 477.91 278.74C483.17 278.96 485.48 282.59 487.64 284.08M459.51 301.36C458.05 302.08 455.1 305.14 452.74 305.14C445.66 304.85 436.74 299.71 438.05 290.19C439.42 280.28 447.23 276.49 450.57 276.39C454.41 276.67 455.3 279.97 457.46 281.97C454.2 284.66 448.83 289.97 445.67 293.15C446.45 294.82 450.1 301.09 457.91 299.15C461.47 298.36 462.64 299.87 459.51 301.4M436 285.49C434.284 286.934 432.481 288.269 430.6 289.49C429.09 288.6 427.23 285.89 426.29 285.17C425.612 285.69 424.886 286.142 424.12 286.52C424.12 288.3 424.2 304.42 424.02 306.26C422.081 306.478 420.123 306.454 418.19 306.19C418.01 303.83 418.35 290.98 418.19 288.9C418 286.33 415.75 286.17 412.76 285.3C414.662 283.278 416.758 281.449 419.02 279.84C421.59 281.84 423.16 281.84 424.45 283.32C426.489 282.209 428.447 280.956 430.31 279.57C431.51 280.99 433.78 283.32 434.66 284.38C435.84 283.24 437.27 284.19 435.94 285.5M411.29 318.79C413.55 318.54 415.46 323.15 417.48 325.34C416.9 325.97 416.9 339.6 416.9 340.89C417.37 341.67 418.97 342.56 419.62 341.96C420.73 340.89 421.43 341.96 420.49 342.85C419.55 343.74 415.17 347.57 414.05 348.85C412.5 347.67 411.94 345.92 411.73 343.56C408.92 344.165 406.452 345.831 404.84 348.21C401.84 346.83 399.44 344.21 399.35 341.21C399.26 338.21 401.35 336.37 403.6 334.3C403.21 334 402.87 333.73 402.42 333.3C401.79 332.76 400.96 327.83 401.55 326.47C403.01 323.04 407.9 319.08 411.29 318.76M406.8 311.57C405.8 310.1 405.55 308.8 403.49 309.37C398.29 310.88 392.58 312.44 388.49 310.02C384.08 307.31 380.29 306.47 380.18 296.42C380.08 290.31 385.48 285.42 389.01 283.42C393.01 281.12 399.9 282.6 403.01 283.53C404.5 284 405.66 283.83 405.76 281.88C405.76 280.81 407.46 281.07 407.42 281.88C407.38 282.69 407.36 295.12 407.36 296.11C407.36 297.1 405.36 297.17 405.36 296.24C405.195 294.13 404.861 292.037 404.36 289.98C403.67 286.72 395.15 280.73 389.01 288.78C388.87 289.17 386.38 293.4 386.71 296.68C386.91 299.12 387.31 302.57 388.95 304.83C393.78 311.67 400.64 309.37 404.24 303.83C405.54 301.83 405.32 299.33 405.42 297.83C405.42 296.96 407.36 296.83 407.36 297.83C407.36 298.83 407.26 307.07 407.26 307.83C407.411 308.861 407.892 309.815 408.63 310.55C409.85 312.39 408.49 313.84 406.8 311.55M380.8 324.74C383.21 321.16 388.8 317.74 392.67 316.35C393.89 317.78 395.34 319.96 397.14 322.35C395.427 323.704 393.847 325.217 392.42 326.87C391.59 325.93 386.99 319.07 383.76 323.87C381.99 326.44 380.14 333.93 386.13 338.57C387.529 339.657 389.15 340.425 390.877 340.819C392.605 341.213 394.398 341.224 396.13 340.85C394.668 342.596 393.428 344.518 392.44 346.57C386.65 347.57 384.3 345.75 381.44 343.38C375.44 338.47 377.31 330.08 380.79 324.76M383.27 370.76C384.73 360.81 394.36 356.76 397.27 354.76C397.79 357.64 401.12 362.67 403.27 364.7C400.01 367.37 392.5 373.65 389.61 375.83C391.19 378.72 397.15 380.83 399.15 378.6C400.63 377.12 402.45 377.6 400.8 379.6C398.675 382.143 396.837 384.913 395.32 387.86C390.98 386.01 381.96 380.32 383.25 370.76M406.25 362.45C408.371 360.709 410.4 358.86 412.33 356.91C413.96 359.49 414.69 361.91 416.16 363C418.16 361.34 421.36 359.29 422.82 357.68C424.25 358.39 426.75 359.88 426.93 364.98C427.11 370.08 427.74 377.98 427.74 379.78C427.74 380.71 427.99 380.43 429.49 380.11C430.99 379.79 431.43 380.44 430.36 381.36C429.29 382.28 424.27 385.73 422.93 387.22C422.114 385.902 421.572 384.432 421.339 382.899C421.105 381.366 421.184 379.802 421.57 378.3C422.15 375.63 421.65 368.38 421.65 366.73C421.65 365.08 419.16 364.54 418.1 363.62C417.027 364.373 416.023 365.22 415.1 366.15C415.1 368.34 414.82 383.61 415.1 385.61C411.66 385.74 412.02 385.54 410.02 385.54C409.86 382.54 409.96 370.81 409.79 368.28C409.62 365.75 407.43 363.91 406.17 362.45M432.9 344.6C431.43 345.9 428.19 343.84 427 341.87C425.15 338.74 425.72 331.34 426 325.37C426.24 325.37 424.94 323.89 423.69 323.65C422.11 323.25 421.84 322.65 424.28 321.65C427.28 320.47 431.93 313.26 432.59 311.65C433.25 310.04 434.07 311.57 433.19 313.12C431.34 316.7 432.09 320.84 432.41 322.12C432.6 322.67 438.26 321.89 439.48 321.89C440.27 321.89 440.18 324.3 439.48 324.24C438.48 324.24 431.09 325.14 431.09 325.14C430.57 325.4 431.68 337.06 432.44 337.95C432.54 338.08 434.87 340.12 435.76 339.24C436.88 338.24 437.96 339.31 436.64 340.4C435.95 340.95 434.64 343.27 432.97 344.64M436.07 362.1C438.36 360.44 442.25 353.25 442.77 351.62C443.29 349.99 444.22 350.52 444.05 352.31C443.85 354.85 442.67 360.51 443.12 361.67C443.34 362.24 446.94 362.2 448.12 362.2C448.9 362.2 448.98 364.54 448.22 364.54C447.22 364.54 443.22 365.13 443.22 365.13C442.65 365.38 442.96 373.78 443.74 374.66C445.37 376.21 446.61 377.29 448.81 374.95C449.88 373.85 451 374.87 449.73 375.95C449.04 376.59 446 380.31 445.31 382.14C444.62 383.97 440.59 382.56 439.31 380.67C437.31 377.67 438.14 371.45 437.99 365.46C438.36 365.57 434.12 363.55 436.08 362.08M463.54 350.92C461.67 352.69 460.18 354.36 458.54 356.17C456.733 354.868 455 353.466 453.35 351.97C455.553 351.06 457.358 349.393 458.44 347.27C458.922 348.247 459.637 349.09 460.52 349.726C461.404 350.363 462.431 350.773 463.51 350.92M451.19 321.28C455.5 322.65 461.88 321.64 463.91 327.37C466.07 333.37 462.14 341.18 457.13 341.53C452.91 341.88 449.13 340.47 446.76 340.66C445.66 340.76 444.87 341.09 444.69 342.27C444.51 343.45 442.86 344.1 442.53 342.43C442.055 338.952 441.775 335.45 441.69 331.94C441.69 329.94 443.53 329.74 443.88 331.94C444.146 334.02 445.079 335.957 446.54 337.46C447.82 338.93 456.08 340.96 459.11 338.54C461.55 336.54 460.98 332.28 458.42 330.62C455.86 328.96 445.67 326.62 443.92 323.62C440.92 318.62 446.26 314.46 448.59 313.09C452.24 311.09 456.48 311.71 457.94 311.74C459.4 311.77 461.26 312.22 461.37 310.66C461.48 309.1 462.65 309.26 462.8 310.86C463.28 315.33 463.7 312.64 463.58 317.39C463.58 319.57 462.8 319.59 461.87 317.92C461.27 316.82 454.97 311.56 449.87 314.84C445.55 317.68 447.18 320.16 451.15 321.25M467.15 399.08C489.59 400.57 508.69 410.94 508.69 410.94V266.31C508.69 266.31 475.69 243.22 422.13 263.89C406.38 269.96 368.01 264.89 368.01 264.89V412.69C401.66 414.97 445.47 397.69 467.16 399.09M519.96 446.65C519.96 448.58 517.49 451.26 517.49 451.26L526.43 446.74C524.64 445.56 519.61 442.74 517.49 442.12C517.49 442.12 519.95 444.03 519.96 446.65ZM533.26 446.51C525.03 448.1 518.88 457.11 509.52 453.25C508.3 452.46 505.76 451.77 506.1 449.91C508.028 450.859 510.099 451.484 512.23 451.76C512.23 451.76 507.23 447.61 511.63 442.47C505.98 446.02 504.01 445.06 504.01 443.18C504.01 442.32 511.4 436.94 518.38 439.58C523.38 441.49 527.75 445.35 533.27 446.13V446.49L533.26 446.51ZM510.2 429.51C505.58 430.03 499.95 432.76 498.54 437.65C495.72 440.43 495.85 432.97 490.12 436.24C487.69 439.55 494.05 446.85 492.53 447.3C486.29 449.2 487.07 437.94 483.53 437.65C478.4 439.47 465.48 451.27 478.18 460.65C477.78 454.34 489.73 447.46 493.68 461.41C505.68 460.49 509.68 467.77 511.18 471.88C528.85 475.02 523.76 486.73 523.26 486.73C521.59 484.21 513.99 472.51 501.55 480.59C498.67 482.46 493.67 484.29 491.22 481.82C491.46 485.75 496.42 489.29 499.81 488.35C510.87 485.35 513.66 495.61 505.19 498.43C507.01 501.25 510.49 501.08 513.69 499.13C518.45 496.24 519 493.65 520.69 491.92C523.69 506.32 505.46 507.72 499.64 508.59C500.53 511.65 502.49 512.32 506.17 513.41C486.91 514.06 483.17 532.12 484.28 542.54C488.63 542.87 495.28 533.45 494.72 538.84C481 553.29 476.45 572.64 483.63 585C487.05 583.62 488.1 579.85 489.31 576.77C489.83 576.41 496.82 579.52 485.64 592.94C484.86 596.43 480.93 606.94 489.55 609.47C492.84 605.59 492.36 602.21 493.08 598.23C495.58 597.23 497.23 605.35 496.27 607.82C485.02 612.47 486.42 646.95 499.45 665.48C493.45 652.02 494.22 634.73 499.45 620.92C503.45 610.26 512.31 586.28 512.54 586.56C517.54 592.71 523.88 619.15 523.88 630.1C530.88 623.98 532.29 617.29 538.04 612.77C540.77 622.37 541.87 628.7 544.04 637.18C546.83 628.91 554.22 619.56 543.65 592.73C545.82 590.73 549.82 602.03 551.08 601.49C552.08 601.12 553.48 595.49 549.89 584.99C542.48 578.07 540.82 567.9 541.99 567.14C542.99 566.51 546.28 577.67 550.22 578.24C551.01 569.57 553.12 560.72 552.47 554C552.33 552.24 549.47 543.31 541.22 535.9C536.49 531.62 534.64 522.69 535.08 520.9C539.67 525.13 538.67 528.22 542.56 529.9C544.19 526.26 543.08 512.79 538.34 506.9C535.63 502.43 536.92 503.05 540.15 505.76C544.38 510.76 542.34 510.38 545.99 512.49C553.99 493.63 546.72 489.96 547.28 488.62C547.84 487.28 553.47 497.42 558.28 493.62C550.4 489.47 550.62 483.14 549.74 476.31C549.05 470.91 545.57 468.89 546.91 467.58C554.76 473.51 556.91 466.94 557.17 465.58C555.66 466.45 548.67 467.36 547.81 456.5C547.47 452.21 540.9 450.32 540.91 450.33C544.91 449.56 557.91 448.84 554.81 435.99C553.24 438.99 549.39 443.79 541.35 441.92C542.81 441.505 544.058 440.551 544.842 439.253C545.627 437.954 545.891 436.406 545.58 434.92C533.19 441.92 523.1 427.67 510.11 429.51M620.05 296.21C622.12 297.92 627.82 300.61 630.72 301.64C630.787 299.637 630.713 297.633 630.5 295.64C630.69 294 624.89 290.9 623.98 290.9C623.07 290.9 621.44 292.54 620.11 294.5C619.44 295.56 619.5 295.81 620.04 296.25M626.04 311.79C627.506 310.999 629.12 310.518 630.78 310.38C630.68 309.571 630.633 308.756 630.64 307.94C630.64 307.22 630.7 305.23 630.74 303.03C627.76 302.05 624.877 300.795 622.13 299.28C622.53 299.53 622.97 299.75 623.38 300C620.38 305.55 624.46 310.5 626.04 311.79ZM626.2 342.25C627.46 345.51 632.99 349.76 634.5 350.51C636.81 347.74 638.04 342.67 637.5 338.38C637.13 335.08 632.86 331.49 629.21 330.14C624.54 332.98 624.54 337.84 626.21 342.24M552.64 373.24C549.91 378.43 552.17 379.5 553.7 380.77C555.433 379.965 557.105 379.033 558.7 377.98C558.7 377.04 558.76 375.28 558.77 373.33C555.66 373.67 554.65 374.33 552.65 373.25M558.78 371.82C558.835 369.918 558.768 368.014 558.58 366.12C558.77 364.43 555.14 361.94 554.18 361.88C553.22 361.82 552.31 362.28 551.01 364.25C550.36 365.25 550.52 369.43 551.08 369.87C554.14 372.46 556.08 372.15 558.78 371.81M563.3 385.14C561.3 383.62 559.63 383.26 558.99 380.88C553.87 382.88 551.99 385.82 548.87 387.95C546.788 385.889 545.587 383.099 545.52 380.17C545.46 377.17 548.46 373.02 550.14 371.43C549.94 371.24 549.83 371.23 549.59 371C548.92 370.45 547.98 366 548.88 364.8C550.01 363.17 554.56 356.92 558.15 356.63C560.62 356.4 562.53 359.46 564.63 361.7C564.1 362.3 564.33 373.2 564.24 374.54C566.53 377 567.47 377.54 568.84 376.65C570.21 375.76 570.77 376.65 569.84 377.57C568.91 378.49 564.53 383.84 563.32 385.16M575.72 363.46C576.08 363.56 570.66 361.4 572.99 360.26C577.07 358.26 581.08 354.02 581.71 352.26C582.34 350.5 583.88 351.36 583.07 353.03C582.26 354.7 581.71 358.77 582.17 360.03C582.35 360.57 585.43 360.86 586.82 360.89C587.6 360.89 587.55 363.32 586.76 363.32H581.92C581.37 363.58 581.78 376.99 582.1 378.13C582.42 379.27 585.7 380.01 586.86 378.91C588.02 377.81 589.26 378.91 587.86 380.01C587.14 380.64 584.7 384.44 582.79 385.2C580.88 385.96 577.79 384.68 576.54 382.74C574.44 379.55 575.68 369.52 575.76 363.39M584.83 345.05C581.994 343.23 579.536 340.881 577.59 338.13C574.48 342.13 573.74 345.5 568.06 346.97C571.35 344.22 574.37 338.13 574.13 332.31C573.88 327.06 571.02 324.51 568.52 323.53C566.35 324.53 564.52 325.99 563.35 326.47C562.18 326.95 561.83 325.09 562.69 324.68C566.125 322.7 569.363 320.396 572.36 317.8C574.94 318.26 578.12 320.49 578.57 322.57C580.57 321.38 583.98 317.57 585.01 316.75C586.19 318.75 589.67 321.34 593.54 322.75C590 328.75 582.14 325.16 581 323.68C579.72 325.79 579.43 327.06 580.7 329.74C582.31 333.35 588.78 336.74 592.13 337.66C591.13 338.74 586.46 343.96 584.82 345.05M590.26 366.5C592.61 363.89 595.13 362.21 596.56 360.76C598.455 362.091 600.038 363.818 601.2 365.82C601.2 369.14 600.45 376.2 600.67 378.66C600.89 381.12 610.33 382.66 610.75 379.13C611.018 375.762 611.018 372.378 610.75 369.01C610.57 367.4 606.82 366.64 604.91 366.9C607.48 364.2 609.65 362.23 611.28 360.75C613.57 362.507 615.562 364.62 617.18 367.01C617.12 370.6 616.49 378.94 617 381.15C617.51 383.36 617.42 383.59 619.14 384.75C617.38 386.39 616.07 387.11 614.88 388.41C613.09 387.89 610.05 385.19 610.24 382.79C606.779 384.785 603.106 386.388 599.29 387.57C596.97 385.15 595.2 384.57 595.04 381.57C594.88 378.57 595.71 370.73 594.76 368.88C593.81 367.03 592.19 366.62 590.26 366.47M620.54 341.47C620.77 333.85 625.81 327.39 633.99 324.47C640.43 326.63 643.13 333.14 643.35 337.54C643.51 341.12 641.13 345.81 639.54 348.72C636.856 350.65 634.346 352.812 632.04 355.18C624.19 355.12 620.38 345.93 620.54 341.46M621.54 370.84C623.54 369.73 628.1 365.5 629.72 364.41C631.805 366.082 633.718 367.958 635.43 370.01C637.502 368.85 639.47 367.511 641.31 366.01C643.445 367.483 645.434 369.158 647.25 371.01C648.48 369.87 650.01 370.77 648.6 372.18C647.19 373.59 644.19 376.12 643.02 377.02C641.31 376.1 638.37 372.72 637.4 372.02C636.666 372.532 635.894 372.986 635.09 373.38C635.09 375.23 635.09 390.48 634.97 392.38C632.891 392.638 630.789 392.638 628.71 392.38C628.55 389.96 628.81 376.74 628.71 374.6C628.58 372 624.37 371.08 621.56 371.01M652.22 343.88C650.554 343.79 648.901 343.545 647.28 343.15C645.61 342.64 646.28 340.8 647.69 340.8C649.187 340.871 650.669 341.133 652.1 341.58C653.1 341.97 653.45 344.04 652.22 343.88ZM652.34 339.33C650.653 339.253 648.978 339.009 647.34 338.6C645.67 338.15 646.34 336.24 647.73 336.24C649.26 336.284 650.775 336.546 652.23 337.02C653.23 337.41 653.61 339.45 652.31 339.33M640.23 310.2L634.35 316.63C633.521 316.102 632.807 315.413 632.248 314.604C631.69 313.795 631.3 312.882 631.1 311.92C626.6 312.8 623.54 315.47 621.47 317.09C619.6 315.42 616.81 310.91 616.79 307.83C616.77 304.75 619.14 300.22 620.79 298.64C620.956 298.715 621.117 298.802 621.27 298.9C620.357 298.38 619.485 297.791 618.66 297.14C618.291 296.667 618.091 296.085 618.091 295.485C618.091 294.885 618.291 294.303 618.66 293.83C619.82 292.29 623.48 287.71 627.07 287.16C628.97 286.91 632.19 287.4 636.61 291.35C636.04 292.04 636.04 304.9 636.04 306.25C637.305 307.708 638.701 309.046 640.21 310.25M601.29 333.44C600.35 338.21 604.46 342.1 607.6 343.76C610.13 345.07 614.46 344.34 615.55 344.17C616.64 344 616.3 343.7 617.08 342.98C617.86 342.26 618.8 342.91 618.16 343.64C617.52 344.37 611.08 350.46 609.32 351.64C607.998 351.938 606.621 351.871 605.334 351.449C604.047 351.026 602.898 350.263 602.01 349.24C598.24 344.51 595.51 342.8 596.69 334.17C597.52 328.34 607.26 323.28 609.5 322.03C610.39 322.91 614.82 327.57 616.76 329.14C616 330.14 613.56 331.21 611.2 331.14C608.84 331.07 607.2 329.14 605.58 327.35C604.46 328.35 601.99 329.84 601.29 333.35M613.96 286.44C612.86 286.44 601.88 287.76 601.88 287.76C601.3 288.02 602.45 301.63 602.88 302.76C603.31 303.89 604.28 305.59 605.52 304.51C606.76 303.43 607.95 305.24 606.62 306.34C605.85 306.95 603.43 311.77 602.31 312.47C600.58 313.58 598.06 309.98 597.25 307.75C595.93 304.04 595.05 294.75 595.06 288.57C595.45 288.68 589.92 286.38 592.41 285.41C597.24 283.33 601.89 276.92 602.48 275.26C603.07 273.6 604.61 274.26 603.83 275.96C602.23 279.32 602.4 281.74 603.08 283.73C603.32 284.26 612.61 284.07 614 284.07C614.76 284.07 614.72 286.48 614 286.48M588.36 303.28L583.82 309.18H579.59C577.49 307.08 576.1 305.45 575.69 303.75L575.46 289.59L570.19 286.59C569.19 287.91 567.26 287.91 568.01 286.81L575.28 280.43L576.87 280.25L581.51 284.89L581.43 299.52C583.71 302.13 585.07 302.75 588.37 303.31M582.46 274.49L579.91 276.71H577.8L575.69 274.61L575.61 270.5L579.03 267.6L582.47 270.94V274.49H582.46ZM567.83 274.19C565.3 274.94 563.49 277.45 562.83 280.03C562.17 282.61 553.74 307.58 552.73 309.22C550.67 301.44 542.06 282.92 539.31 278.98C536.94 275.5 534.67 276.14 532.49 276.08C530.31 276.02 531.18 274.08 532.91 274.23C535.31 274.53 548.91 275.72 552.76 276.23C554.14 276.51 554.18 277.76 552.36 278.33C551.42 278.57 549.24 279.63 549.24 280.69C549.24 282.16 554.18 293.01 555.54 295.05C556.7 292.26 561.36 280.39 560.42 277.78C559.48 275.17 559.04 274.78 557.1 274.58C555.16 274.38 555.16 273.22 557.5 272.86C561.049 272.349 564.634 272.125 568.22 272.19C570.16 272.36 570.4 273.47 567.8 274.19M537.01 318.98C541.29 316.64 550.87 315.16 554.17 316.2C555.83 316.65 557.52 316.2 557.52 315.43C557.52 314.31 559.06 314.61 559.06 315.43C559.06 316.25 559.06 326.75 558.94 327.74C558.82 328.73 557.42 328.64 557.42 327.74C557.42 326.22 557.42 325.74 556.11 323.74C552.28 317.97 541.67 317.48 536.42 324.43C534.61 326.75 533.95 330.82 535.97 331.5C537.99 332.18 545.48 331.56 547.97 331.11C550.46 330.66 556.47 329.66 557.17 329.17C557.87 328.68 558.81 328.17 558.81 329.36C558.81 330.55 558.81 334.59 558.75 335.8C558.69 337.01 557.75 336.44 557.16 335.97C556.57 335.5 550.75 334.97 548.28 334.83C544.16 334.48 537.94 333.19 535.9 333.83C533.86 334.47 535.45 337.61 537.24 340C542.42 347 552.1 347.23 555.97 341.51C557.39 339.44 557.39 339.01 557.39 337.51C557.39 336.58 558.97 336.41 558.97 337.51C558.97 338.61 558.89 347.17 558.89 348.01C558.89 348.85 557.28 349.11 557.28 348.01C557.35 346.17 556.2 346.29 554.06 346.91C548.44 348.4 540.95 348.91 536.48 346.38C531.77 343.67 527.65 342.79 527.53 332.43C527.42 326.17 533.26 321.17 537.06 318.99M529.34 350.83C530.75 350.96 534.96 351.05 536.46 351.05C536.28 354.19 536.28 376.05 536.46 378.25C536.64 380.45 538.6 381.25 540.55 380.25C541.55 379.86 542.4 380.55 541.14 381.6C538.98 383.19 536.38 386.97 535.19 388.43C532.72 386.76 530.04 384.62 530.19 382.61C530.49 379.08 529.42 353.73 529.3 350.78M561 399.22C575.87 399.22 634.35 415.22 662.53 413.35V266.12C662.53 266.12 621.03 271.98 585.13 258.73C555.81 247.92 515.5 266.81 515.5 266.81V411.06C515.5 411.06 530.32 399.06 561 399.06M667.77 354.6V382.6C667.77 382.6 683.41 382.47 700.77 371.3C705.97 367.94 713.67 369.3 717.5 372.36C721.33 375.42 715.16 354.03 699.63 356.29C671.05 360.46 667.75 354.59 667.75 354.59M717.48 314.05C717.73 315.84 717.9 317.12 718.02 317.94C717.91 317.11 717.73 315.84 717.5 314.05C717.5 314.05 716.61 297.55 698.93 297.55C693.16 297.55 686.16 304.55 668.26 296.8V324.8C675.52 326.94 695.42 315.58 703.37 312.11C709.04 309.63 717.09 311.24 717.48 314.05ZM697.94 608.2C696.77 563.89 669.59 514.76 676.94 523.9C695.45 546.77 701.39 596.34 714.08 639.02C714.08 639.02 722.23 643.17 720.5 589.02C720.13 578.02 715.66 563.45 710.24 553.28C699.47 533.17 677.71 499.28 678.34 499.01C683.59 494.75 696.34 524.01 707.48 535.49C714.69 542.93 734.72 550.23 736.11 549.26C720.04 518.13 681.11 488.8 685.2 485.18C713.85 512.02 722.88 513.3 724.07 511.88L698.27 486.88C691 477.11 681.35 469.6 682.7 469.88C694.2 472.43 676.7 460.32 663.17 456.62C660.74 455.96 656.82 455.75 656.69 454.52C656.47 452.44 659.87 453.32 662.69 452.44C663.745 452.203 664.69 451.619 665.373 450.781C666.057 449.944 666.439 448.901 666.46 447.82C661.29 448.95 656.01 447.76 651.57 445.75C642.45 441.51 626.11 436.6 618.57 439.56C614.16 441.29 613.33 441.04 608.57 444.7C606.49 443.83 600.73 440.15 592.57 449.97C590.05 452.97 587.02 456.56 586.87 459.16C586.52 465.74 587.01 459.5 588.63 465.74C589.28 468.35 586.32 473.15 574.31 477.18C573.053 477.562 571.992 478.412 571.346 479.555C570.7 480.699 570.519 482.047 570.84 483.32C573.14 482.21 576.78 479.62 582.39 482.25C593.39 487.39 595.5 479.25 602.32 473.48C602.32 473.48 600.44 480.77 602.32 481.15C610.83 482.91 607.99 489.3 606.92 490.27C596.18 499.86 600.68 503.47 596.84 509.38C593.24 514.97 587.66 517.08 579.34 516.81C567.88 516.45 594.34 499.13 569.03 491.93C573.03 498.55 574.61 503.93 565.75 509.03C560.16 512.27 563 528.74 548.69 521.11C548.69 521.11 547.52 533.31 545.88 533.84C565.32 550.84 554.45 560.17 555.44 584.47C561.52 599.96 554.84 607.33 553.32 608.18C554.32 618.67 555.32 624.41 561.82 632.94C566.58 639.14 561.39 648.66 566.23 655.28C570.69 639.48 575.47 646.07 576.76 624.11C578.54 620.42 585.92 613.92 590.13 613.5C590.07 626.75 594.96 638.8 593.91 644.38C593.91 644.38 605.09 642.38 608.53 643.57C611.28 644.51 613.4 648.11 613.48 650.31C609.69 652.69 609.67 651.77 603.94 655.97C593.94 663.27 589.3 678.17 589.3 678.18C589.3 678.19 612.87 659.38 614.57 655.97C616.145 652.376 617.439 648.665 618.44 644.87C618.57 644.41 606.29 637.23 602.92 630.67C592.37 610.16 619.25 642.81 619.92 639.97C621.5 632.89 626.42 626.2 626.42 626.2C624.71 624.2 620.49 622.92 614.08 611.6C599.38 585.71 631.08 622.6 631.08 622.6C639.5 617.78 639.55 624.21 640.61 631.03C640.72 631.67 654.89 642.12 655.61 642.8C659.177 639.262 662.071 635.104 664.15 630.53C664.37 630.06 638.53 607.15 634.15 599.59C598.55 538.59 662.96 626.69 666 624.27C667.7 619.49 668.29 612.93 668.08 604.03C668.08 603.81 655.96 595.46 648.22 582.65C618.31 533.25 667.85 597.39 667.83 596.93C667.24 586.34 658.58 540.47 664.57 554.26C667.64 561.34 677.29 590.65 675.5 620.5C678.86 615.07 692.66 609.55 697.9 608.19M641.79 656.89C641.79 656.89 637.03 653.29 636.79 653.99C635.852 656.448 634.784 658.855 633.59 661.2C632.35 663.69 636.08 661.91 641.82 656.89M639.92 638.46C639.33 642.46 639.33 645.61 638.07 650.17C637.95 650.62 642.59 652.48 644.69 654.29C647.69 651.52 650.3 650.12 653.42 646.23C652.72 645.8 640.34 635.02 640.32 635.49C640.252 636.498 640.119 637.5 639.92 638.49M678.28 664C683.8 659.36 686.95 651.46 694.03 649.11C688.67 644.21 683.43 653.98 680.7 650.58C685.61 642.8 688.7 636.89 689.27 627.18C689.55 621.93 695.62 617.05 697.05 614.18C691.21 615.04 675.59 624.24 672.43 629.53C661.93 643.4 662.48 656.42 618.57 675.8C616.39 675.8 626.69 668.3 629.63 659.63C631.01 655.57 636.8 636.75 632.81 627.63C623.73 636.84 625.6 639.85 623.03 646.63C616.49 664.63 612.9 666.28 596.51 677.36C594.33 678.83 581.78 698.23 565.51 699.17C567.16 698.71 566.22 694.68 571.72 691.08C589.97 679.13 583.02 653.31 606.84 649.08C594.98 644.86 586.84 656.4 584.67 655.25C594.27 641.95 585.83 630.71 587.22 619.84C584.02 621.55 580.81 625.44 580.51 628.64C578.72 647.99 569.7 651.35 568.78 659.64C570.69 673.43 559.62 684.17 551.5 693.85C549.93 685.85 552.03 678.68 562.16 672.03C567.75 668.37 561.63 657.37 561.63 657.37C559.37 669.37 552.63 673.1 548.37 673.69C544.71 674.22 561.29 656.84 559.37 640.96C558.51 633.89 556.49 637.03 555.37 629.1C541.05 644.98 551.53 654.85 536.87 673.17C529.92 681.85 527.31 697.17 526.39 697.52C526.55 674.77 527.28 681.42 537.39 662.94C545.71 647.74 536.93 633.57 535.8 624.4C517.59 636.92 519.11 661.12 518.64 655.88C518.17 650.64 515.92 641.67 518.36 633.46C522.36 619.84 513.82 599.08 513.82 599.08C488.34 639.08 509.71 685.75 508.12 685.17C497.05 667.86 489 667.17 486.58 653.89C485.27 646.66 472.14 607.08 448.02 606.38C460.18 616.86 457.23 618.29 458.02 635.45C450.28 678.4 510.36 682.85 506.34 705.12C498.1 691.92 485.53 686.36 466.6 676.05C458.21 669.4 448.74 666.46 448.23 656.05C449.23 648.5 449.68 650.05 448.37 640.23C447.43 633.23 440.53 637.46 435.46 622.82C424.61 632.62 428.58 643.74 429.46 650.07C429.71 651.86 430.95 658.55 429.28 662.43C425.41 659.77 422.75 654.29 418.43 648.81C410.65 638.81 410.75 626.76 406.83 618.35C405.02 614.45 402.45 609.16 400.92 609.09L400.64 609.25C398.74 624.87 399.64 638.5 406.75 650.25C406.75 650.25 404.75 653.61 403.22 654.48C396.47 652.68 386.92 647 383 636C374.63 643 380.57 652.11 380.17 652C361.36 642.37 380.39 605 353.6 606.12C360.2 613.31 356.03 622.56 355.45 631.18C355.31 645.18 373.09 656.07 373.09 656.07C353.24 649.36 349.16 658.66 349.4 658.66C349.4 658.66 378.63 671.35 424.79 676.15C430.72 676.78 439.18 683.75 437.79 683.75C431.86 683.28 420.14 675.65 403.21 690.66C413.21 690.92 419.99 707.13 436.21 697.84C477.97 686.03 493.45 706.75 500.21 712.09C498.75 714.7 468.12 692.85 443.8 707.33C430.87 715.04 410.1 708.06 393.8 695.89C400.38 712.65 428.34 731.55 437.58 731.57C448.92 731.57 463.41 716.77 479.85 717.57C506.19 718.87 509.85 742.39 506.93 740.57C506.93 740.57 486.2 706.3 459.58 742.91C472.02 737.2 488.68 738.67 503.25 745.57C505.25 746.51 499.67 752.63 495.76 757.1C493.21 759.99 482.09 776.47 470.07 760.26C468.28 757.85 462.54 742.8 424.97 746C439.16 752.39 454.82 769.19 462.56 776.85C482.25 796.34 512.01 753.2 513.15 758.01C513.15 767.69 518.15 772.41 520.75 777.65C527.34 790.84 512.37 788.65 504.25 785.25C504.25 785.25 519.79 809.46 532.79 795.98C547.29 781.1 514 769.84 524.6 758C530.55 751.32 551.44 772.95 560.91 773C586.45 775.84 585.12 751.6 598.6 752.3C585.92 739.45 572.43 746.45 569.6 749.73C561.1 759.65 551.23 752.99 544.41 747.65C540.65 742.74 534.41 741.98 528.84 743.47C526.19 743.69 534.2 734.09 544.6 736.11C568.1 740.67 591.65 732.24 597.43 729C606.88 723.68 612.18 714.67 622.76 704.61C619.46 705.25 599.93 716.11 593.64 719.29C574.8 728.77 563.04 716.47 560.92 716.53C557.31 716.64 558.23 713.8 563.92 711.97C583.22 707.67 596.57 690.63 614.98 683.97C635.3 674.83 661.08 680.97 678.28 663.97M670.89 697C678.59 686 683.01 674.13 685.61 661.34C681.02 667.34 674.952 672.046 668 675C663.35 689.72 665.54 704.9 670.94 697.07M740.94 575.62C721.68 782 548.94 817.06 512.14 823.77C510.14 824.13 304.14 798.01 283.37 575.64V247.54C283.37 247.54 480.14 222.13 740.83 247.54V575.54L740.94 575.62ZM752.94 577.51V235.8C478.43 209.33 271.25 235.8 271.25 235.8V577.53C293 809.16 510 836.37 512 836C550.75 829 732.64 792.44 752.83 577.47" fill="white"/>
</g>
<defs>
<clipPath id="clip0_2_3633">
<rect width="1024" height="1024" fill="white"/>
</clipPath>
</defs>
</svg>
