<svg width="1024" height="1024" fill="none" xmlns="http://www.w3.org/2000/svg"><g clip-path="url(#a)"><path d="M512 1024c282.77 0 512-229.23 512-512S794.77 0 512 0 0 229.23 0 512s229.23 512 512 512Z" fill="#F9DE81"/><path d="M400.82 246.67a11.902 11.902 0 0 0-10.36 5.95L280.29 444a11.912 11.912 0 0 0 0 12l52.22 89.89a11.906 11.906 0 0 0 21.792-2.974c.803-3.053.36-6.3-1.232-9.026L304.36 450l103.32-179.54H617.2l103.49 179.67-46.11 84a11.895 11.895 0 0 0 .968 13.349 11.91 11.91 0 0 0 3.597 3.038 11.904 11.904 0 0 0 9.179.953 11.901 11.901 0 0 0 4.144-2.233 11.907 11.907 0 0 0 2.952-3.667l49.33-89.89a11.91 11.91 0 0 0-.11-11.67L634.43 252.63a11.898 11.898 0 0 0-4.358-4.355 11.902 11.902 0 0 0-5.952-1.595l-223.3-.01Zm52 72.79a14.5 14.5 0 0 0-13.18 20.21l17.4 40.6a14.505 14.505 0 0 0 26.797-.33 14.503 14.503 0 0 0-.137-11.1l-17.4-40.6a14.497 14.497 0 0 0-13.48-8.79v.01Zm119 0a14.505 14.505 0 0 0-13.31 8.79l-17.4 40.6a14.498 14.498 0 0 0 7.62 19 14.5 14.5 0 0 0 19-7.62l17.4-40.6a14.502 14.502 0 0 0-7.62-19 14.502 14.502 0 0 0-5.73-1.17h.04Zm-58 69.6c-31.9 0-58 29-55.1 52.2 0 29 46.4 29 55.1 29 8.7 0 55.1 0 55.1-29 .08-23.2-26.01-52.2-55.01-52.2h-.09ZM540 508l31.9 81.2c2.9 0 2.9 2.9 2.9 5.8l23.2 58 14.5 37.7c8.7 20.3 29 34.8 52.2 34.8 5.8 0 14.5-2.9 20.3-5.8 29-11.6 43.5-43.5 31.9-72.5C685 571.77 592.22 516.67 540 508Zm-55.11 0c-49.31 5.8-145 60.9-174 136.3-14.5 29 0 60.9 29 72.5 5.8 5.8 11.6 5.8 20.3 5.8 20.3 0 40.6-14.5 49.3-34.8l14.5-37.7 60.9-142.1Zm26.1 26.1-17.4 43.5h34.8l-17.4-43.5Zm-31.9 81.2-8.7 26.1h81.2l-8.7-26.1h-63.8ZM453 676.17l-11.6 26.1h136.3l-8.7-26.1H453Zm-20.3 60.9c11.6 43.5 40.6 69.6 78.3 69.6 37.7 0 66.7-26.1 81.2-69.6H432.7Z" fill="#fff"/></g><defs><clipPath id="a"><path fill="#fff" d="M0 0h1024v1024H0z"/></clipPath></defs></svg>