<svg width="1024" height="1024" viewBox="0 0 1024 1024" fill="none" xmlns="http://www.w3.org/2000/svg">
<g clip-path="url(#clip0_2_3642)">
<path d="M512 1024C794.77 1024 1024 794.77 1024 512C1024 229.23 794.77 0 512 0C229.23 0 0 229.23 0 512C0 794.77 229.23 1024 512 1024Z" fill="#728DBE"/>
<path d="M196.69 662.33C183.93 657.39 184.75 653.27 201.63 631.05C209.45 620.76 216.45 609.23 216.45 605.53C216.86 601.83 217.27 594.83 217.68 590.3C218.09 585.77 225.5 570.95 234.56 557.37C247.73 537.2 251.44 527.37 253.49 505.09C258.84 456.09 293.83 398.89 332.49 376.25C353.49 364.31 404.49 352.79 414.4 358.14C428.4 365.55 481.49 361.84 541.59 349.08L602.51 336.73L632.51 348.67C648.97 355.26 670.38 362.25 679.85 363.49C688.91 365.14 700.02 370.08 704.14 374.6C712.78 384.07 718.14 384.48 718.14 376.25C718.14 365.55 725.55 369.66 730.49 383.66C733.37 390.66 736.25 394.36 737.49 391.89C740.78 383.25 746.96 385.72 746.96 396.01C747.37 400.95 751.49 410.42 756.84 417.01C765.48 427.3 768.78 428.54 781.95 426.48C792.65 424.83 796.36 425.24 795.12 428.95C786.89 449.12 787.3 449.95 802.12 435.95C821.88 417.84 829.29 403.43 829.7 383.67C829.7 371.32 830.52 369.67 833.4 376.26C841.63 395.61 835.46 437.18 818.99 468.88C814.87 477.11 813.23 486.17 814.87 493.99C818.57 509.63 806.23 526.92 784.87 536.39C768.82 543.8 768.41 543.39 748.65 533.51C737.54 528.16 722.31 521.98 715.31 520.34C707.9 519.1 698.43 513.34 693.91 507.99C687.74 499.76 685.27 498.93 679.5 503.05C672.91 507.99 673.33 509.22 682.79 519.51C688.55 525.68 694.32 537.21 695.96 545.44C698.02 557.79 696.78 561.9 687.32 571.78C681.15 578.37 671.27 584.54 665.09 586.19C657.85 588.588 651.14 592.36 645.33 597.3C636.69 605.12 635.86 605.53 633.39 598.95C629.27 587.84 637.09 566.02 647.39 561.49C652.33 559.43 656.45 556.14 656.45 554.9C656.45 551.2 607.06 529.38 604.17 531.85C602.11 533.91 601.7 564.37 602.94 627.35C603.76 663.57 603.35 664.35 593.88 665.63C583.59 666.87 564.24 654.52 557.66 642.17C555.19 636.82 556.42 630.23 562.19 619.12L570.42 603.89L556.84 577.55C547.78 559.03 541.61 551.62 537.5 553.26C534.62 554.5 519.39 557.38 504.57 559.43C478.64 563.13 460.94 561.08 438.71 552.43C430.48 549.14 426.36 551.2 408.25 568.89L387.67 588.65L405.37 606.76C425.95 627.76 425.54 637.63 403.72 637.63C379.43 637.63 369.14 631.46 367.5 616.23C366.68 605.12 363.38 601.41 351.04 595.23C332.52 586.59 331.28 578.77 345.69 559.01L356.39 545.01L345.28 536L333.75 526.94L320.17 539.29C312.35 545.88 303.71 551.23 300.41 551.23C281.06 551.23 236.61 618.32 236.61 647.14C236.61 666.07 220.97 671.84 196.68 662.37L196.69 662.33Z" fill="white"/>
</g>
<defs>
<clipPath id="clip0_2_3642">
<rect width="1024" height="1024" fill="white"/>
</clipPath>
</defs>
</svg>
