<svg width="1024" height="1024" viewBox="0 0 1024 1024" fill="none" xmlns="http://www.w3.org/2000/svg">
<g clip-path="url(#clip0_2_3645)">
<path d="M512 1024C794.77 1024 1024 794.77 1024 512C1024 229.23 794.77 0 512 0C229.23 0 0 229.23 0 512C0 794.77 229.23 1024 512 1024Z" fill="#9ABEFF"/>
<path d="M609.66 246L351.22 465.43L356.1 475.18H521.89L326.84 572.71L331.71 582.46H492.63L214.69 748.25L219.56 758L658.42 572.71L673.05 519.07L549.19 519.67L692.55 441.05L702.3 411.79H521.89L741.31 246H609.66Z" fill="white"/>
</g>
<defs>
<clipPath id="clip0_2_3645">
<rect width="1024" height="1024" fill="white"/>
</clipPath>
</defs>
</svg>
