<svg width="1024" height="1024" viewBox="0 0 1024 1024" fill="none" xmlns="http://www.w3.org/2000/svg">
<g clip-path="url(#clip0_2_3648)">
<path d="M512 1024C794.77 1024 1024 794.77 1024 512C1024 229.23 794.77 0 512 0C229.23 0 0 229.23 0 512C0 794.77 229.23 1024 512 1024Z" fill="#56595B"/>
<path d="M732.63 380.26V467.42C687.43 467.42 645.55 452.96 611.36 428.42V605.56C611.36 694.02 539.39 765.99 450.93 765.99C416.74 765.99 385.05 755.21 358.99 736.91C317.62 707.86 290.5 659.83 290.5 605.55C290.5 517.09 362.47 445.11 450.93 445.11C458.27 445.11 465.47 445.71 472.55 446.68V535.66C465.71 533.52 458.47 532.27 450.93 532.27C410.53 532.27 377.66 565.14 377.66 605.54C377.66 633.67 393.62 658.12 416.94 670.39C427.11 675.74 438.66 678.81 450.93 678.81C490.4 678.81 522.59 647.41 524.06 608.3L524.2 258.98H611.36C611.36 266.54 612.09 273.92 613.42 281.1C619.57 314.31 639.28 342.8 666.59 360.61C685.61 373.01 708.28 380.25 732.63 380.25V380.26Z" fill="white"/>
</g>
<defs>
<clipPath id="clip0_2_3648">
<rect width="1024" height="1024" fill="white"/>
</clipPath>
</defs>
</svg>
