<svg width="1024" height="1024" fill="none" xmlns="http://www.w3.org/2000/svg"><g clip-path="url(#a)"><path d="M512 1024c282.77 0 512-229.23 512-512S794.77 0 512 0 0 229.23 0 512s229.23 512 512 512Z" fill="#73ADA4"/><path d="M272 272v239.06h59.06l.19-29.81.28-29.72 29.72-.28 29.81-.19.19-29.81.28-29.72h60.94l.28 29.72.19 29.81 29.81.19 29.72.28.28 29.72.19 29.81 29.81.19 29.72.28.28 29.72.19 29.81h58.12l.19-29.81.28-29.72 29.72-.28 29.81-.19.19-29.81.28-29.72 30.28-.28 30.19-.19V271.99H272v.01Zm120.94 180.94-.19 29.72-.28 29.81-29.72.28-29.81.19-.19 29.81-.28 29.72-30.19.28-30.28.19v179.07h480V512.95h-59.06l-.19 29.72-.28 29.81-29.72.28-29.81.19-.19 29.81-.28 29.72h-60.94l-.28-29.72-.19-29.81-29.81-.19-29.72-.28-.28-29.72-.19-29.81-29.81-.19-29.72-.28-.28-29.81-.19-29.72h-58.12v-.01Z" fill="#fff"/></g><defs><clipPath id="a"><path fill="#fff" d="M0 0h1024v1024H0z"/></clipPath></defs></svg>