<svg width="1024" height="1024" fill="none" xmlns="http://www.w3.org/2000/svg"><g clip-path="url(#a)"><path d="M512 1024c282.77 0 512-229.23 512-512S794.77 0 512 0 0 229.23 0 512s229.23 512 512 512Z" fill="#9ABEFF"/><path d="M405.12 404.16c-16 0-27.52-13.12-27.52-29.12s11.52-29.12 27.52-29.12S432.64 359 432.64 375c0 16-11.52 29.16-27.52 29.16Zm178.24 198.08c5.76 0 10.24-4.48 9.92-9.92V465c0-28.16-17.92-46.72-45.76-46.72-19.2 0-34.88 8-49 23.36L496 429.76c-1-5.12-4.16-9-10.24-9h-21.44a9.999 9.999 0 0 0-9.92 9.92V592a10 10 0 0 0 9.92 9.92h28.16a9.999 9.999 0 0 0 9.92-9.92v-96.64c0-21.44 11.52-36.8 27.52-36.8 11.52 0 15.36 6.72 15.36 15.68v118.08a10 10 0 0 0 9.92 9.92h28.16Zm105.28 75.84c34.24 0 79.36-14.4 79.36-61.76 0-33.6-23.36-49.92-59.84-49.92h-34.88c-5.76 0-11.84-.64-11.84-7 0-3.2 1-4.48 2.24-7a75.242 75.242 0 0 0 17.32 1.84c44.8 0 72-26.56 72-67.84 0-12.16-4.8-21.44-10.24-30.72l9.6-2.24c5.12-1.28 7-2.56 7-10.88v-11.84c0-6.72-2.88-10.56-11.52-10.56h-44.16c-7.68 0-15-1.6-23-1.6-43.52 0-71.68 24.32-71.68 67.52 0 23 9.28 41.28 24.64 52.8-8.32 7.68-14.72 17.6-14.72 29.44 0 27.84 24.64 33.92 44.16 33.92h38.72c18.24 0 23 3.52 23 16.32 0 12.16-11.2 21.76-35.2 21.76-15.36 0-30.4-3.84-34.24-18.88-1.6-5.44-3.2-9-9.28-9.28l-26.56-1c-5.44-.32-9.92 5.12-9.92 10.56 1.28 43.2 39.36 56.32 79 56.32l.04.04Zm18.24-192.32c0 27.2-12.8 32.64-25.28 32.64-13.76 0-25-4.16-25-32.64 0-26.88 10.88-31 25-31 13.4-.04 24.96 3.8 25.28 31Zm-287-65h-86.76v-53.08a9.783 9.783 0 0 0-2.86-7.06 9.773 9.773 0 0 0-7.06-2.86H295a9.983 9.983 0 0 0-3.882.684 9.993 9.993 0 0 0-6.358 9.236v52.8h-18.84a10.467 10.467 0 0 0-9.92 10.24V447a10 10 0 0 0 9.92 9.92h18.88V558.4c0 28.48 12.16 46.08 43.2 46.08 13.12 0 27.2-2.24 35.84-5.12 4.8-1.6 7-5.12 6.4-9.92l-4.48-23.36c-1-6.08-4.8-8.32-10.56-6.72a59.89 59.89 0 0 1-10.88 1c-6.72 0-11.2-4.48-11.2-14.4v-88.68h48.64v135a10 10 0 0 0 9.92 9.92h28.16a9.999 9.999 0 0 0 9.92-9.92V430.72c.32-5.44-4.16-9.92-9.92-9.92l.04-.04Z" fill="#fff"/></g><defs><clipPath id="a"><path fill="#fff" d="M0 0h1024v1024H0z"/></clipPath></defs></svg>