<svg width="1024" height="1024" fill="none" xmlns="http://www.w3.org/2000/svg"><g clip-path="url(#a)"><path d="M512 1024c282.77 0 512-229.23 512-512S794.77 0 512 0 0 229.23 0 512s229.23 512 512 512Z" fill="#9ABEFF"/><path d="M304.7 268.44c34.34.07 68.68-.09 103 .08a126607.24 126607.24 0 0 0 99.64 233.16c.36 1.11 1.36 2.34.49 3.5-40.4 83.6-80.797 167.207-121.19 250.82h-99.08c44.06-84.267 88.093-168.557 132.1-252.87A157069.61 157069.61 0 0 0 304.7 268.44Zm295.47 37.76c-28.154 65.867-56.31 131.747-84.47 197.64a179480.09 179480.09 0 0 1 121.65 251.77c33.033-.04 66.063-.04 99.09 0-44-84.267-88.02-168.513-132.06-252.74 38.326-78.28 76.66-156.56 115-234.84-34.34.11-68.69-.15-103 .12-5.23 12.75-10.86 25.34-16.21 38.04v.01Z" fill="#fff"/></g><defs><clipPath id="a"><path fill="#fff" d="M0 0h1024v1024H0z"/></clipPath></defs></svg>