<svg width="1024" height="1024" fill="none" xmlns="http://www.w3.org/2000/svg"><g clip-path="url(#a)"><path d="M512 1024c282.77 0 512-229.23 512-512S794.77 0 512 0 0 229.23 0 512s229.23 512 512 512Z" fill="#F8C18C"/><path d="M345.5 290h333a55.659 55.659 0 0 1 55.5 55.5v333a55.659 55.659 0 0 1-55.5 55.5h-333a55.659 55.659 0 0 1-55.5-55.5v-74.57l.78.46c18.94 11 63.71 37.1 74.68 43.29 6.64 3.75 13 3.65 19.39 0l88.24-50.79.21-.12.84-.49 90.39-52c3.85-2.22 4-9-.27-11.49l-3-1.72c-4.39-2.5-10.06-5.73-12.49-7.15a14.15 14.15 0 0 0-13.84.17c-2.15 1.24-145.71 83.78-150.5 86.51a18.723 18.723 0 0 1-18.57 0c-4.52-2.62-75.82-44-75.82-44v-37.48l.79.46c18.94 11 63.71 37.1 74.68 43.29 6.64 3.75 13 3.65 19.39 0L473.19 522l.33-.19.26-.15.15-.09 90.6-52.14c3.85-2.22 4-9-.27-11.49l-3-1.72c-4.39-2.5-10.09-5.74-12.51-7.16a14.162 14.162 0 0 0-13.84.17c-2.15 1.24-145.71 83.78-150.5 86.51a18.723 18.723 0 0 1-18.57 0c-4.52-2.62-75.82-44-75.82-44v-37.43l.78.45c18.93 11 63.72 37.11 74.69 43.3 6.64 3.75 13 3.65 19.39 0l88.44-50.9.11-.07 91.13-52.45c3.85-2.22 4-9-.27-11.49l-3-1.72c-4.39-2.5-10.08-5.74-12.5-7.16a14.153 14.153 0 0 0-13.84.17c-2.15 1.24-145.71 83.78-150.5 86.51a18.713 18.713 0 0 1-18.57 0c-4.52-2.62-75.82-44-75.82-44V345.5A55.662 55.662 0 0 1 345.5 290Z" fill="#fff"/></g><defs><clipPath id="a"><path fill="#fff" d="M0 0h1024v1024H0z"/></clipPath></defs></svg>