<svg width="1024" height="1024" fill="none" xmlns="http://www.w3.org/2000/svg"><g clip-path="url(#a)"><path d="M512 1024c282.77 0 512-229.23 512-512S794.77 0 512 0 0 229.23 0 512s229.23 512 512 512Z" fill="#FF837D"/><path d="M684.11 281.5v55.38a20.33 20.33 0 0 1-6.111 14.328A20.318 20.318 0 0 1 663.54 357h-12.71c-8.64 0-18.29-5.33-19.05-11.43-.76-6.1-8.89-15.5-25.4-15.24-25.4 0-41.41 14-41.16 26.67v21.34h-74.69v-22.66c0-23.37-25.4-25.4-25.4-25.4a172.5 172.5 0 0 0-113.3 45.47l-11.94-11.43C411.28 248.73 486.73 256.1 512.13 256.1H566c13.21 0 25.4 25.4 45.22 27.44a32.52 32.52 0 0 0 22.1-8.13 18.001 18.001 0 0 1 19.05-15.5H664a20.58 20.58 0 0 1 20.07 20.83m-194.3 127.78 74.23 2.29 10.67 330.26a27.447 27.447 0 0 1-17.431 25.047A27.43 27.43 0 0 1 546.69 768h-40.15a27.436 27.436 0 0 1-25.081-17.345 27.435 27.435 0 0 1-1.919-10.535c0-.447.016-.89.05-1.33l10.18-330.27Z" fill="#fff"/></g><defs><clipPath id="a"><path fill="#fff" d="M0 0h1024v1024H0z"/></clipPath></defs></svg>