<svg width="1024" height="1024" fill="none" xmlns="http://www.w3.org/2000/svg"><g clip-path="url(#a)"><path d="M512 1024c282.77 0 512-229.23 512-512S794.77 0 512 0 0 229.23 0 512s229.23 512 512 512Z" fill="#FF837D"/><path d="M459.64 260.41a116.728 116.728 0 0 1 93.69-4.85c8.45 3.08 16.27 7.56 24 12.11l120.92 69.83c7.54 4.27 15.07 8.64 21.78 14.17a116.22 116.22 0 0 1 43.35 92v148.671c0 4.74.13 9.499-.26 14.229a116.366 116.366 0 0 1-46.64 85.081c-7.63 5.76-16.17 10.12-24.36 15l-94.39 54.74c-8.27 4.659-16.3 9.77-24.78 14a11.316 11.316 0 0 1-13-4.571 9.867 9.867 0 0 1-1.6-5.83c-.14-78 0-155.939-.07-233.899-.38-2.88 3.13-5.3 5.59-3.56l33.36 20.74c2.42 1.47 4.77 3.069 7.31 4.329a46.7 46.7 0 0 0 46.31-81 96010.3 96010.3 0 0 0-110.12-68.47c-3.44-2.1-6.79-4.41-10.52-6a46.935 46.935 0 0 0-35-1.07c-6.46 2.3-12 6.48-17.81 9.95l-105.13 65.45a46.704 46.704 0 0 0-14.397 63.661A46.7 46.7 0 0 0 421.18 551c12.61-7.81 25.19-15.669 37.8-23.479a3.644 3.644 0 0 1 3.63-.053 3.636 3.636 0 0 1 1.87 3.113V765.04c.13 6.62-7 11.78-13.29 10.291-2.69-.68-5-2.321-7.46-3.56l-106-61.74c-7.68-4.53-15.47-8.89-23.08-13.531a116.27 116.27 0 0 1-54-99.849V439.84a116.3 116.3 0 0 1 57.87-98.17l116.39-67.21c8.23-4.64 16.31-9.66 24.73-14.05Z" fill="#fff"/></g><defs><clipPath id="a"><path fill="#fff" d="M0 0h1024v1024H0z"/></clipPath></defs></svg>