<svg width="1024" height="1024" viewBox="0 0 1024 1024" fill="none" xmlns="http://www.w3.org/2000/svg">
<g clip-path="url(#clip0_2_3699)">
<path d="M512 1024C794.77 1024 1024 794.77 1024 512C1024 229.23 794.77 0 512 0C229.23 0 0 229.23 0 512C0 794.77 229.23 1024 512 1024Z" fill="#FF837D"/>
<path d="M819.9 487.55C807.9 526.32 768.56 545 716.35 550.55C642.35 558.55 477.47 535.88 420.02 530.12C428.23 568.54 435.56 607.48 438.88 624.07C443.07 644.85 429.8 657.6 412.34 658.99C399.94 659.99 389.46 652.53 386.34 641.53C385.34 638.21 369.23 588.45 362.94 569.76C352.46 539.03 344.78 522.96 303.39 515.63C280.34 511.44 265.15 511.09 236.68 508.99C216.6 507.59 200.01 489.61 200.01 467.6C200.01 441.76 223.23 414.17 256.94 419.23C314.94 427.79 389.48 442.8 456.18 455.03C471.07 457.74 488.95 460.8 508.45 463.84H508.34L515.61 464.96H515.79L522.96 466.04L523.43 466.11L530.57 467.11L531.17 467.2L538.34 468.2L538.98 468.29L546.27 469.29L546.8 469.36L554.29 470.36H554.64L562.39 471.36L570.39 472.36C618.6 478.22 668.01 481.97 702.73 479.19C728.05 476.92 749.88 473.95 749.88 465.05C749.88 460.51 745.34 454.57 737.88 449.33C724.26 440.6 699.11 432.39 664.54 434.14C661.12 434.33 657.79 434.6 654.54 434.94C618.88 438.65 594.2 450.94 579.46 463.34C550.46 459.96 522.46 455.83 499.83 452.21C529.83 396.71 589.18 368.85 653.15 362.95C656.47 362.64 659.8 362.38 663.15 362.19C679.569 361.287 696.035 361.695 712.39 363.41C755.52 367.95 786.6 384.71 804.59 406.72C823.74 430.45 828.46 460.14 819.9 487.55ZM738.7 592.5C722.81 597.74 697.31 606.64 656.8 603.5C629.26 601.43 583.73 589.2 567.43 556.1C539.07 553.52 511.01 550.47 486.08 547.65C497.83 609.43 541.08 641.72 587.99 654.31C647.36 670.2 711.99 659.9 753.36 640.51C761.22 636.67 772.04 629.51 772.04 614.14C772.23 600.36 760 585.51 738.7 592.5Z" fill="white"/>
</g>
<defs>
<clipPath id="clip0_2_3699">
<rect width="1024" height="1024" fill="white"/>
</clipPath>
</defs>
</svg>
