<svg width="1024" height="1024" fill="none" xmlns="http://www.w3.org/2000/svg"><g clip-path="url(#a)"><path d="M512 1024c282.77 0 512-229.23 512-512S794.77 0 512 0 0 229.23 0 512s229.23 512 512 512Z" fill="#54688C"/><path d="M663.33 296.79c23-6.12 46.77-9.63 70.56-8.2 21.33 1.12 42.67 8 59.64 21.18a65.38 65.38 0 0 1 17.116 19.831 65.374 65.374 0 0 1 7.954 24.959 81.608 81.608 0 0 1-4.17 35.37 74.668 74.668 0 0 1-29.58 35c5.87 11 10.21 22.88 11.7 35.27 1.65 17.21-.5 35-7.26 50.95a95.349 95.349 0 0 1-43.8 47.1c-19.41 8.88-41 12.56-62.23 12.26-17.61-.53-35.32-3.2-51.88-9.36 18.84 0 38.28-4.45 53.48-16.07a64.219 64.219 0 0 0 24.47-36.42c4.24-16.81 1.24-34.87-6.47-50.23-7.6-16.05-22.65-27.56-39-33.7-20.29-7.63-42.45-8.85-63.88-7.07a273.034 273.034 0 0 0-74.83 18.12C488 450.28 452.73 469 418.87 489.86c-38.54 26.12-79.41 49.29-123.25 65.32-19.67 7-39.92 13-60.79 14.92 8.42-17.813 16.847-35.626 25.28-53.44 1.36-2.76 2.42-5.7 4.16-8.25 41.85-4.33 82.3-17.29 121.06-33.23 14.81-6.5 29.75-12.72 44.29-19.83 28.23-13.77 55.83-28.85 83.09-44.44C544.06 392.46 577.84 378 613.12 369a214.133 214.133 0 0 1 87.45-1.42c15.61 3.26 31.4 7.61 44.87 16.44a116.81 116.81 0 0 1 31.72 28.88 50.84 50.84 0 0 0 .87-44.51c-6.47-14.38-20.25-24-34.61-29.39-18.82-7-39.2-8.8-59.12-7.87-25 .53-49.46 6.89-73 15a422.912 422.912 0 0 0-49.59 21.07c-7.86 3.83-15.25 8.52-22.93 12.69-29 16.15-58.21 32-87.42 47.73-38 19.41-78.59 33.59-120.07 43.46a477.722 477.722 0 0 1-54.34 9.9c9-19.24 18.26-38.38 27.2-57.67 43.06-2.82 85.91-10.44 127-23.77a598.174 598.174 0 0 0 90.39-37.88 12843.686 12843.686 0 0 0 81.73-41.59 302.161 302.161 0 0 1 60.06-23.28ZM436.09 499.54c-33.36 20.7-63.09 46.85-97.57 65.79-37.11 20.32-78 34.17-120 39.31-11.2 23.607-22.37 47.234-33.51 70.88 32.64-2.15 65.33-10.16 94.08-26.07A436.51 436.51 0 0 0 371.14 579c16.34-15.08 33.61-29.26 52.53-41 13.83-8.49 28.69-15.85 44.75-18.88-24.55 52.21-49.37 104.32-74 156.51 59 0 118-.06 177 .05a50695.444 50695.444 0 0 0 102-215.35c-8.56.06-17.11 0-25.65 0-28.793 60.967-57.63 121.92-86.51 182.86h-88.49c28.78-61.06 57.84-122 86.53-183.1-26.37-1.21-52.18 6.21-76.58 15.48-16.42 6.24-31.83 14.68-46.63 23.97Z" fill="#fff"/></g><defs><clipPath id="a"><path fill="#fff" d="M0 0h1024v1024H0z"/></clipPath></defs></svg>