<svg width="1024" height="1024" fill="none" xmlns="http://www.w3.org/2000/svg"><g clip-path="url(#a)"><path d="M512 1024c282.77 0 512-229.23 512-512S794.77 0 512 0 0 229.23 0 512s229.23 512 512 512Z" fill="#96DFD3"/><path d="M579.77 256a189.57 189.57 0 0 0-134.552 55.444A189.58 189.58 0 0 0 389.61 445.93v40.46h106.2v-40.46c0-45.55 36.93-82.42 84-82.42 46.53 0 78.91 32.75 78.91 81.39 0 48.14-34.9 83.47-81.46 83.47h-39.98v107.5h39.95c103.72 0 187.68-85.48 187.68-191 0-109.54-78.4-188.9-185.13-188.9M259.09 612.34c0 13.31 11.12 26.62 26.29 26.62h101.17v102.42c0 13.31 11.12 26.62 26.29 26.62h86.5V524.79H259.09v87.55Z" fill="#fff"/></g><defs><clipPath id="a"><path fill="#fff" d="M0 0h1024v1024H0z"/></clipPath></defs></svg>