<svg width="1024" height="1024" viewBox="0 0 1024 1024" fill="none" xmlns="http://www.w3.org/2000/svg">
<g clip-path="url(#clip0_2_3708)">
<path d="M512 1024C794.77 1024 1024 794.77 1024 512C1024 229.23 794.77 0 512 0C229.23 0 0 229.23 0 512C0 794.77 229.23 1024 512 1024Z" fill="#9ABEFF"/>
<path d="M289.3 381.2H218.7C216 381.2 214.8 382.4 214.8 385.1V396.9C214.8 399.3 216.4 400.8 218.7 400.8H243V487.1C243 489.5 244.2 491 246.9 491H261C263.4 491 264.9 489.4 264.9 487.1V400.8H289.2C291.6 400.8 293.1 399.2 293.1 396.9V385.1C293.2 382.4 291.6 381.2 289.3 381.2ZM343 429.8H327.7V400.8H343C356.3 400.8 361.8 404.7 361.8 415.3C361.8 425.9 356.3 429.8 343 429.8ZM365.5 446.1C381.2 440.3 384.2 427.7 384.2 415.3C384.2 398.4 378.7 381.2 343 381.2H309.7C306.9 381.2 305.8 382.8 305.8 385.1V487C305.8 489.4 307 490.9 309.7 490.9H323.8C326.2 490.9 327.7 489.3 327.7 487V449.4H344.1L360.2 487.8C361 490.1 362.6 490.9 364.5 490.9H379C382.1 490.9 383.3 488.9 382.1 486.2L365.5 446.1ZM430.8 406.8L446.1 440.8C446.9 443.2 448.4 443.9 450.4 443.9H465C468.1 443.9 469.3 441.9 468.1 439.2L443.4 384.3C442.6 382 441 381.2 439.1 381.2H422.6C420.6 381.2 419.1 382 418.3 384.3L393.6 439.2C392.4 441.9 393.6 443.9 396.7 443.9H411.2C413.2 443.9 414.7 443.1 415.5 440.8L430.8 406.8ZM540.2 453.7C540.2 468.2 534.7 471.3 521.4 471.3H506.1V400.7H521.4C534.7 400.7 540.2 403.8 540.2 418.3V453.7ZM521.4 381.2H488.1C485.4 381.2 484.2 382.8 484.2 385.1V487C484.2 489.4 485.4 490.9 488.1 490.9H521.4C557.1 490.9 562.6 475.6 562.6 454.8V417.2C562.6 396.5 557.1 381.2 521.4 381.2ZM604.1 487.1V385.1C604.1 382.4 602.5 381.2 600.2 381.2H586.1C583.4 381.2 582.2 382.8 582.2 385.1V487C582.2 489.4 583.4 490.9 586.1 490.9H600.2C602.6 491 604.1 489.4 604.1 487.1ZM685.7 385.1V429L687.1 451L648.8 384C647.6 382 646.4 381.3 644.1 381.3H629.2C626.5 381.3 625.3 382.9 625.3 385.2V487.1C625.3 489.5 626.5 491 629.2 491H643.3C645.7 491 647.2 489.4 647.2 487.1V443.2L645.8 421.2L684 488.3C685.2 490.3 686.4 491 688.7 491H703.6C706 491 707.5 489.8 707.5 487.1V385.1C707.5 382.4 705.9 381.2 703.6 381.2H689.5C686.9 381.2 685.7 382.4 685.7 385.1ZM805.3 432.2H772C769.3 432.2 768.1 433.4 768.1 436.1V447.9C768.1 450.2 769.3 451.8 772 451.8H786.9V455.7C786.9 470.2 781.4 473.3 768.1 473.3C754.8 473.3 749.3 470.2 749.3 455.7V416.5C749.3 402 754.8 398.9 768.1 398.9C780.3 398.9 785.7 401.6 786.9 412.6C786.9 415.4 788.1 416.5 790.8 416.5H805.3C807.7 416.5 809.2 414.9 809.2 412.6C808.4 392.6 801.4 379.3 768 379.3C732.3 379.3 726.8 394.6 726.8 415.4V457C726.8 477.8 732.3 493.1 768 493.1C803.7 493.1 809.2 477.8 809.2 457V436.2C809.2 433.4 807.6 432.2 805.3 432.2ZM775.4 603.7C802 596.1 809.2 587.6 809.2 564.2C809.2 546.9 801.5 530 768.9 530C738.3 530 729.8 543.7 728.6 564.2C728.6 566.6 730.2 568.2 732.6 568.2H747.5C750.3 568.2 751.5 567 751.9 564.2C753.1 552.9 759.9 550.1 768.8 550.1C778.5 550.1 786.1 553.3 786.1 564.2C786.1 579.1 780.5 580.3 756.7 587.6C731.7 594.8 724.5 606.1 724.5 624.6V640.7C724.5 643.1 725.7 644.7 728.5 644.7H801C803.4 644.7 805 643.5 805 640.7V628.6C805 625.8 803.4 624.6 801 624.6H747.5C747.6 613.8 753.2 610.5 775.4 603.7ZM696.4 624.6V534.8C696.4 532 694.4 530.8 691.6 531.6L656.2 544.9C654.2 545.7 653 547.3 653 549.3V563.4C653 566.2 655 567.4 657.8 566.6L673.9 560.5V624.6H653C650.2 624.6 649 626.2 649 628.6V640.7C649 643.1 650.2 644.7 653 644.7H709.4C711.8 644.7 713.4 643.5 713.4 640.7V628.6C713.4 625.8 711.8 624.6 709.4 624.6H696.4ZM607.4 603.7C634 596.1 641.2 587.6 641.2 564.2C641.2 546.9 633.5 530 600.9 530C570.3 530 561.8 543.7 560.6 564.2C560.6 566.6 562.2 568.2 564.6 568.2H579.5C582.3 568.2 583.5 567 583.9 564.2C585.1 552.9 592 550.1 600.8 550.1C610.5 550.1 618.1 553.3 618.1 564.2C618.1 579.1 612.5 580.3 588.7 587.6C563.7 594.8 556.5 606.1 556.5 624.6V640.7C556.5 643.1 557.7 644.7 560.5 644.7H633C635.4 644.7 637 643.5 637 640.7V628.6C637 625.8 635.4 624.6 633 624.6H579.5C579.6 613.8 585.2 610.5 607.4 603.7Z" fill="white"/>
</g>
<defs>
<clipPath id="clip0_2_3708">
<rect width="1024" height="1024" fill="white"/>
</clipPath>
</defs>
</svg>
