<svg width="1024" height="1024" viewBox="0 0 1024 1024" fill="none" xmlns="http://www.w3.org/2000/svg">
<g clip-path="url(#clip0_2_3717)">
<path d="M512 1024C794.77 1024 1024 794.77 1024 512C1024 229.23 794.77 0 512 0C229.23 0 0 229.23 0 512C0 794.77 229.23 1024 512 1024Z" fill="#9ABEFF"/>
<path d="M243.51 521.64C242.94 535.82 241.81 537.52 225.37 538.07H220.83C207.22 537.5 203.25 534.67 203.25 522.76V489.32H254.25V477.41H203.25V461.53H187.94V478H171.5V489.91H187.94V527.33C187.94 533 189.64 539.24 194.18 543.21C198.72 547.75 206.65 550.01 218.56 550.01H225.36C239.54 550.01 246.91 547.17 251.44 542.64C255.44 538.09 255.98 531.3 255.98 524.5V516H242.98V521.67L243.51 521.64ZM345 482.51C339.9 478.51 331.39 476.84 319.48 476.84H307.59C299.65 476.84 290.59 478.54 285.48 485.35V477.41H271.3V548.29H286.61V504.06C286.61 495.55 292.28 488.75 305.32 488.75H313.26C335.94 489.32 338.21 490.45 338.78 507.46V511.46H352.96V501.82C352.38 493.29 350.11 486.48 345 482.51ZM443.67 529C443.67 533 441.97 534.67 436.87 536.37C431.77 538.07 423.87 538.07 412.49 538.07H395.49C377.91 537.5 376.21 535.23 376.21 528.43V526.16C376.21 518.22 379.61 517.09 396.06 516.52H415.91C425.55 516.52 432.91 516.52 437.46 518.22C442.01 519.92 443.7 521.62 443.7 526.16L443.67 529ZM417.59 476.83H397.18C385.84 476.83 377.33 477.96 372.23 481.37C366.56 484.21 364.29 489.31 364.29 496.11V500.65H379.6V496.11C379.6 491.01 381.3 488.17 397.74 488.17H416.45C436.3 488.17 443.67 489.87 443.67 501.17V511.38C439.13 506.28 431.76 505.14 417.59 505.14H397.18C385.84 505.14 377.33 505.71 371.1 507.98C364.87 510.25 361.46 515.35 361.46 523.86V528.4C361.46 535.2 362.59 540.32 366.56 544.28C370.53 548.24 376.76 550 387 550H417.62C434.06 550 440.3 548.88 443.7 544.33V548.88H459V501.23C459 479.68 441.41 476.84 417.59 476.84V476.83ZM563.32 483.63C558.22 479.09 549.71 476.26 537.8 476.26H518.52C504.34 476.26 494.14 477.96 488.47 486.47V477.4H474.29V548.28H489.6V508C489.6 492.69 495.27 488.15 525.32 488.15H528.72C553.67 488.72 555.37 493.82 555.37 503.46V548.26H570.68V501.23C570.12 494.42 568.42 488.18 563.32 483.65V483.63ZM672.75 510.3C666.5 507.46 658.57 506.9 648.93 506.9H614.93C601.32 506.33 600.75 504.06 600.75 498.96V496.69C600.75 492.69 601.32 491.59 604.15 490.45C606.98 489.31 612.66 488.75 621.73 488.75H643.84C650.64 488.75 656.31 488.75 659.72 489.88C663.13 491.01 664.82 492.72 664.82 497.82V499.52H679V495C679 489.9 677.87 484.79 672.76 482C667.66 478.6 659.15 476.9 644.98 476.9H625.12C609.24 476.9 599.6 478.6 593.37 481.44C587.7 484.28 585.43 489.38 585.43 495.05V499.05C585.43 505.85 587.13 510.96 591.67 513.79C596.21 517.19 602.44 518.33 611.52 518.33H650.64C665.95 518.9 666.52 521.17 667.08 527.4V527.98C667.08 533.08 665.95 534.78 662.54 536.49C659.14 537.61 652.9 538.18 643.26 538.18H615.48C602.48 538.18 599.04 535.34 598.48 527.41V522.87H584.3V527.97C584.3 538.74 588.84 544.41 596.21 547.25C603 550 612.65 550 621.72 550H645.54C660.85 550 681.83 549.42 681.83 529C682.39 518.8 678.42 513.13 672.75 510.3ZM718.68 451.3H734V463.8H718.68V451.3ZM718.68 477.38H734V548.26H718.68V477.38ZM836.62 520.47C836.62 535.78 829.25 538.05 813.94 538.05H791.26C777.65 538.05 768.01 535.78 767.44 519.91V506.91C767.44 495.57 773.11 488.2 789.55 488.2H815.07C832.65 488.77 836.62 493.87 836.62 506.91V520.47ZM840.62 482.47C833.82 477.93 824.74 476.8 815.67 476.8H791.26C781.05 476.8 771.98 479.64 766.88 485.87V477.36H752.7V572.62H768V542.62C771.4 547.72 778.21 549.99 789.55 549.99H813.93C826.93 549.99 836.61 548.29 843.42 543.19C849.66 538.09 852.49 530.19 852.49 518.81V506.9C851.93 494.42 847.4 487.05 840.59 482.51L840.62 482.47Z" fill="white"/>
</g>
<defs>
<clipPath id="clip0_2_3717">
<rect width="1024" height="1024" fill="white"/>
</clipPath>
</defs>
</svg>
