<svg width="1024" height="1024" fill="none" xmlns="http://www.w3.org/2000/svg"><g clip-path="url(#a)"><path d="M512 1024c282.77 0 512-229.23 512-512S794.77 0 512 0 0 229.23 0 512s229.23 512 512 512Z" fill="#54688C"/><path d="M512 768c141.38 0 256-114.62 256-256S653.38 256 512 256 256 370.62 256 512s114.62 256 256 256Zm-39.52-322.94h-72.63a8.045 8.045 0 0 1-5.83-2.36 8.059 8.059 0 0 1-2.36-5.83v-48.42a8.045 8.045 0 0 1 2.36-5.83 8.059 8.059 0 0 1 5.83-2.36h207.22a24.619 24.619 0 0 1 24.57 24.56v31.69a8.045 8.045 0 0 1-2.36 5.83 8.059 8.059 0 0 1-5.83 2.36h-73v204.73a8.045 8.045 0 0 1-2.36 5.83 8.059 8.059 0 0 1-5.83 2.36H497a24.62 24.62 0 0 1-24.57-24.57l.05-187.99Z" fill="#fff"/></g><defs><clipPath id="a"><path fill="#fff" d="M0 0h1024v1024H0z"/></clipPath></defs></svg>