<svg width="1024" height="1024" fill="none" xmlns="http://www.w3.org/2000/svg"><g clip-path="url(#a)"><path d="M512 1024c282.77 0 512-229.23 512-512S794.77 0 512 0 0 229.23 0 512s229.23 512 512 512Z" fill="#728DBE"/><path d="M680.9 290.4H343.1c-29.1 0-52.7 23.6-52.7 52.7v337.8c0 29.1 23.6 52.7 52.7 52.7h337.8c29.1 0 52.7-23.6 52.7-52.7V343.1c0-29.1-23.6-52.7-52.7-52.7ZM481.3 609.6c0 9.7-7.8 17.5-17.5 17.5h-74c-9.7 0-17.5-7.8-17.5-17.5V389.7c0-9.7 7.8-17.5 17.5-17.5h74c9.7 0 17.5 7.8 17.5 17.5v219.9Zm170.5-100.9c.2 9.7-7.5 17.7-17.2 17.9h-74.4c-9.7 0-17.5-7.8-17.5-17.5V389.7c0-9.7 7.8-17.5 17.5-17.5h74c9.7 0 17.5 7.8 17.5 17.5v119h.1Z" fill="#fff"/></g><defs><clipPath id="a"><path fill="#fff" d="M0 0h1024v1024H0z"/></clipPath></defs></svg>