<svg width="1024" height="1024" viewBox="0 0 1024 1024" fill="none" xmlns="http://www.w3.org/2000/svg">
<g clip-path="url(#clip0_2_3726)">
<path d="M512 1024C794.77 1024 1024 794.77 1024 512C1024 229.23 794.77 0 512 0C229.23 0 0 229.23 0 512C0 794.77 229.23 1024 512 1024Z" fill="#728DBE"/>
<path d="M512 241.92L278.75 377V647L512 782.08L745.25 647V377L512 241.92ZM327.86 405.27L512 298.67L592.44 345.23L327.86 497.23V405.27ZM696.14 618.72L512 725.33L327.86 618.72V553.86L641.55 373.66L696.15 405.27L696.14 618.72Z" fill="white"/>
</g>
<defs>
<clipPath id="clip0_2_3726">
<rect width="1024" height="1024" fill="white"/>
</clipPath>
</defs>
</svg>
