<svg width="1024" height="1024" fill="none" xmlns="http://www.w3.org/2000/svg"><g clip-path="url(#a)"><path d="M512 1024c282.77 0 512-229.23 512-512S794.77 0 512 0 0 229.23 0 512s229.23 512 512 512Z" fill="#728DBE"/><path d="M512 241.92 278.75 377v270L512 782.08 745.25 647V377L512 241.92ZM327.86 405.27 512 298.67l80.44 46.56-264.58 152v-91.96Zm368.28 213.45L512 725.33 327.86 618.72v-64.86l313.69-180.2 54.6 31.61-.01 213.45Z" fill="#fff"/></g><defs><clipPath id="a"><path fill="#fff" d="M0 0h1024v1024H0z"/></clipPath></defs></svg>