<svg width="1024" height="1024" fill="none" xmlns="http://www.w3.org/2000/svg"><g clip-path="url(#a)"><path d="M512 1024c282.77 0 512-229.23 512-512S794.77 0 512 0 0 229.23 0 512s229.23 512 512 512Z" fill="#BA6561"/><path d="M302.53 477.34A47.94 47.94 0 0 0 280 464.45a55.959 55.959 0 0 0-17.77-1l-2.4.39C245.56 466 233 475.48 226 487.94a48.438 48.438 0 0 0 .13 47.38 50.988 50.988 0 0 0 12.47 14.469 46.832 46.832 0 0 0 24.61 9.771c8 .59 16.16-.17 23.58-3.3a48.065 48.065 0 0 0 28.89-34.45 47.464 47.464 0 0 0-.82-23.57 51.338 51.338 0 0 0-12.33-20.9ZM283.79 545a36.931 36.931 0 0 1-47.37-15 35.938 35.938 0 0 1-4.72-22 36.858 36.858 0 0 1 23.73-31 34.98 34.98 0 0 1 7.53-1.9c5.84-.5 11.88-.4 17.45 1.64a36.543 36.543 0 0 1 18.34 14 37.327 37.327 0 0 1 6.43 21.32 40.305 40.305 0 0 1-4.18 16.52A37.09 37.09 0 0 1 283.79 545Zm558.05-83.7a25.362 25.362 0 0 1 3.71-8c-4.45.41-8.94.14-13.4.21-59.45-.09-118.89.07-178.34-.06-22.06.08-44.13 0-66.19 0 .68-20.18 1.41-40.35 1.88-60.53.42-9.37.21-18.77.61-28.14.25-15.24.6-30.48.52-45.72-.05-9.5.09-19-.29-28.52 0-7.45-.54-14.89-.64-22.34l-.17-.26c0-3.26-.34-6.5-.59-9.76-.59-6-1-12-2.77-17.8-.13-.54-.42-1.38-1.15-1.2-11 .89-21.89 2.19-32.76 3.84-10.26 1.49-20.51 3.16-30.67 5.3-31.74 6.49-63 15.85-92.34 29.74-29.34 13.89-57.06 32.52-79.06 56.74-11.89 13.17-22.2 28-29.1 44.37-1.11 2.6-1.83 5.34-2.87 8-2.24.41-4.53.55-6.76 1.08-15.38 3.41-30.52 7.8-45.65 12.17-9.19 2.73-18.4 5.35-27.49 8.4a104.855 104.855 0 0 1-9.93 13.17c-4 4.76-8.25 9.38-12.67 13.79-5.85 5.89-11.61 11.87-17.83 17.37-4.65 4-9 8.36-13.86 12.17a4.7 4.7 0 0 0-2 4c1.62-.27 2.58-1.7 3.75-2.71 4.3-3.81 8.59-7.65 13.12-11.18 14-10.64 29.37-19.85 46.26-25a106.253 106.253 0 0 1 19.21-4c3.26-.147 6.52-.28 9.78-.4 2.36.36 4.78.15 7.15.42 1.94.31 3.9.49 5.83.87 17.4 3.17 33.28 12.41 46 24.5a139.925 139.925 0 0 1 13 13.9c11.82.15 23.65-.05 35.46-.1 4.59-.36 9.21-.11 13.81-.23 12.32-.09 24.64-.08 37-.18a7.105 7.105 0 0 1 2.89 0c1.54.08 3.07-.2 4.62-.1a12.645 12.645 0 0 1 2.49.1h1.33c1.658-.24 3.342-.24 5 0l1.72-.13c1.396.149 2.804.149 4.2 0 7.4.21 14.82 0 22.23.1 27.56.05 55.12.22 82.67.23 12.55.39 25.12.09 37.68-.08a3150.965 3150.965 0 0 0-15.16 31.84c-3.66 7.49-7 15.119-10.83 22.549 3.37.19 6.75.001 10.13.061 5.27-.05 10.55.12 15.82-.09 0-1.31-.43-2.56-.54-3.86a45.603 45.603 0 0 1 .93-16 53.227 53.227 0 0 1 20.36-31.84 50.925 50.925 0 0 1 23-9.38 55.336 55.336 0 0 1 27.34 2.95 54.199 54.199 0 0 1 34.08 58.15c4 .13 8 0 12 0 3.83-.05 7.66.13 11.49-.12a34.034 34.034 0 0 1-.42-4.65c-.11-5.49-.05-11.091 1.54-16.391a56.461 56.461 0 0 1 10.39-20.609 55.458 55.458 0 0 1 22-16.29 55.98 55.98 0 0 1 27.12-3.17 53.78 53.78 0 0 1 38.45 24.92c4.58-2 9-4.25 13.56-6.31a9.6 9.6 0 0 0 3.47-2 28.046 28.046 0 0 1-.88-6.32 34.423 34.423 0 0 1 .76-7.5v.03Zm-395.15-55.59c-1.29 1.52-3.43 1.17-5.2 1.28-4.91 0-9.81.11-14.72 0a4.41 4.41 0 0 1-3.458-1.618 4.408 4.408 0 0 1-.892-3.712 10.64 10.64 0 0 1 1.84-2.61c1.91-.63 3.93-.44 5.9-.5 4.61 0 9.23-.08 13.84.16a3.782 3.782 0 0 1 3.33 1.79c.67 1.72.77 3.86-.64 5.21Zm3.34-17.2a58.22 58.22 0 0 1-7.76 1c-4.3.6-8.62 1.07-12.93 1.56-10.11 1.48-20.26 2.58-30.39 3.93-12.13 1.49-24.24 3.12-36.37 4.58-1.1.23-2.22.3-3.31.51-2.24.26-4.47.52-6.7.84a28.236 28.236 0 0 0-3.78.43c-1.2.13-2.4.18-3.6.21.5-6.73 1.07-13.52 3-20 4.67-16.13 13.58-30.86 24.91-43.19 16.71-18.39 38-32 60.53-42.25 5.4-2.61 11-4.68 16.52-7.11-.02 33.16-.07 66.323-.15 99.49h.03Zm-267.27 69.74c-.29-4.59.31-9.16.51-13.74.48-4.57.53-9.19 1.47-13.7.31-1.86.73-4.18 2.78-4.88 6.84-3.05 14-5.4 21.06-7.79 6.72-2.21 13.44-4.44 20.2-6.52-.522.806-1.1 1.574-1.73 2.3-2.71 2.75-5 5.89-7.57 8.75a379.053 379.053 0 0 1-34.9 33.88c-.58.56-1.21 1.13-1.82 1.7Zm392.46 33.07c-5.82 12.16-11.69 24.279-17.43 36.479-25.34.161-50.69 0-76 .071-46.287 0-92.573.026-138.86.08-4.22-.06-8.46.17-12.67-.091a86.603 86.603 0 0 0-2-10.739 123.268 123.268 0 0 0-9.34-26.75 76.114 76.114 0 0 0-12.19-18.41 49.36 49.36 0 0 0-20-13.35c-1.8-.57-3.61-1.08-5.44-1.55-2.09-.49-4.25-.48-6.36-.79a131.182 131.182 0 0 0-13.91 0c-1.5.31-3 .23-4.55.5a51.446 51.446 0 0 0-22.52 9 55.252 55.252 0 0 0-8.79 7.94 71.652 71.652 0 0 0-12.84 22.53 113.518 113.518 0 0 0-6 29.71c.08.93-1.22.85-1.85 1-5 0-10 .359-15.07.209a16.677 16.677 0 0 1-10.26-6 20.81 20.81 0 0 1-3.6-12.329c0-7.28.62-14.56.49-21.84-.18-1.8 1.55-2.88 2.56-4.11a187.017 187.017 0 0 1 35-30c13.4-8.9 28.32-15.88 44.24-18.73 1-.2 1.94-.3 2.91-.43 1.61-.33 3.27-.22 4.88-.6 4-.17 8-.16 12 0 2.35.39 4.75.47 7.11.87 14.66 2.53 28.14 9.82 39.42 19.36 6.07 5.12 11.36 11 16.69 16.9 1.75 1.17 3.6 3 5.88 2.39 21.13-.25 42.27-.18 63.4-.31 2.38 0 4.75-.22 7.13-.08 18.74-.07 37.48 0 56.22 0 7.7-.06 15.39.08 23.08.11 3.51-.23 7 .16 10.54 0 25.73.17 51.48 0 77.22.29-3.24 6.07-6.03 12.44-9.09 18.67Zm102.44-13.16a44.613 44.613 0 0 0-19.24-9.43 52.411 52.411 0 0 0-14.69-.48 41.89 41.89 0 0 0-25.23 12.32 44.12 44.12 0 0 0-12.11 21.86 49.97 49.97 0 0 0-.4 15.25c2 15.79 13.57 29.82 28.56 35.09.94.35 1.9.64 2.86 1 1.13.23 2.25.5 3.37.839.72.09 1.46.171 2.19.271 1.116.224 2.251.345 3.39.36 1.691.251 3.403.328 5.11.229v-.269c1.195.041 2.39-.063 3.56-.31.72-.12 1.46-.201 2.19-.291a44.994 44.994 0 0 0 16.91-7A43.702 43.702 0 0 0 691.5 500a44.694 44.694 0 0 0-13.84-21.84Zm4.76 49.54c-6.29 13.36-21.39 22-36.1 20.43-8.75-.42-17.07-4.63-23.23-10.75a35.924 35.924 0 0 1-10.39-29.61l-.11-.17a37.527 37.527 0 0 1 11.85-23.22 34.815 34.815 0 0 1 24.73-9.5 35.712 35.712 0 0 1 23.31 8A36.612 36.612 0 0 1 685 502.5a38.275 38.275 0 0 1-2.58 25.19v.01Zm126.32-48.84a43.376 43.376 0 0 0-21.07-10.32c-9.2-1.33-19-.56-27.35 3.72a43.647 43.647 0 0 0-23.035 28.105 43.67 43.67 0 0 0-.795 18.58 43.67 43.67 0 0 0 7.01 17.224 44.641 44.641 0 0 0 18.21 15.321l.85.38 1.57.609a16.04 16.04 0 0 0 3.59 1.091v.19c1.67.22 3.25.88 4.94 1 1.715.335 3.464.466 5.21.39l-.11.29h1l-.1-.45 1 .419h1.14l-.08-.319a36.41 36.41 0 0 0 10.39-1.44c1.78-.6 3.61-1.06 5.34-1.83a43.778 43.778 0 0 0 26.314-33.13 43.762 43.762 0 0 0-14.014-39.92l-.01.09Zm7.26 38.77a36.586 36.586 0 0 1-33 30.49c-3.44.549-6.92 0-10.33-.42l-1.73-.401c-.9-.2-1.79-.45-2.67-.7a38.827 38.827 0 0 1-19.84-15.409 36.106 36.106 0 0 1-5.57-17.5l-.18-.26a38.337 38.337 0 0 1 8.69-25.49A37.07 37.07 0 0 1 768 476.55c5.11-1.82 10.62-1.86 16-1.53a36.722 36.722 0 0 1 22.51 11.17 38.627 38.627 0 0 1 9.4 18.18c.731 4.387.761 8.863.09 13.26Zm-139-8.07a27.65 27.65 0 0 1-32.4 29.07 27.768 27.768 0 0 1-19.44-14.29 26.995 26.995 0 0 1-1.89-21.4c3.26-9.55 12-17.17 22-18.581a27.614 27.614 0 0 1 21.79 6.071 28.692 28.692 0 0 1 9.94 19.13Zm128-8.9a25.932 25.932 0 0 1 1.82 14.74 27.383 27.383 0 0 1-10.38 17.6c-7.22 5.34-17.11 7.299-25.64 4.19-10.84-3.55-18.88-14.52-18.63-26-.49-13.73 11.29-26.531 25-27.331a27.21 27.21 0 0 1 15.73 3.211 26.621 26.621 0 0 1 12.1 13.59Zm-511.78 5.23A25.418 25.418 0 0 1 275.37 536c-1.53.43-3.1.65-4.66.94a25.235 25.235 0 0 1-17.21-4.63 25.868 25.868 0 0 1-10.68-19.35c-.303-4.9.875-9.778 3.38-14a25.444 25.444 0 0 1 15.35-11.94c6.51-1.52 13.78-1 19.58 2.52a25.878 25.878 0 0 1 12.09 16.35Zm305.15-118c.07-29 .27-57.92.25-86.88 0-18.88 0-37.77.08-56.65a83.366 83.366 0 0 1 .14-8.38 11.4 11.4 0 0 1 3.08-4.11c.327-.287.66-.557 1-.81l.54-.37a17.673 17.673 0 0 1 2.85-1.53c1-.39 1.95-.74 2.95-1a27.22 27.22 0 0 1 6.14-1.14h1.56c.52 0 1.04.02 1.56.06a5.743 5.743 0 0 1 4.54 2.76c.229.359.42.741.57 1.14.06.206.113.416.16.63.047.213.083.426.11.64a9.21 9.21 0 0 1 0 2.59 9.01 9.01 0 0 1-1.38 3.6c-.24.353-.508.688-.8 1a7.893 7.893 0 0 1-1 .88 56.06 56.06 0 0 1-5.28 3.44c-1.09.64-2.19 1.25-3.29 1.87a2.217 2.217 0 0 0-.69.55 2.123 2.123 0 0 0-.17.24c0 1.84-.04 3.68-.12 5.52-.08 1.84-.137 3.66-.17 5.46-.35 11-.87 22.08-1 33.13-.147 5.74-.307 11.483-.48 17.23L609 325c-.32 7.65-.57 15.3-.79 23-.073 2.553-.143 5.103-.21 7.65-.133 5.1-.27 10.2-.41 15.3-.14 5.1-.3 10.2-.48 15.3-.33 10.4-.59 20.81-.85 31.21-.133 5.2-.27 10.4-.41 15.6-.14 5.2-.297 10.4-.47 15.6h-1.67a46.33 46.33 0 0 1-5 0c0-16.47-.27-32.93-.23-49.39.05-3.83-.19-7.6-.11-11.38ZM702.47 448l28.66-.52c6.53.16 13.07.09 19.61.16 2.734.09 5.472.033 8.2-.17 2.4-.26 3.48-2.7 4.25-4.67-6-.32-11.94-.14-17.9-.38-11.88-.08-23.77 0-35.65 0-7.06-.06-14.12.22-21.18.1a38.991 38.991 0 0 0-.34 5.56c4.78-.21 9.57-.08 14.35-.08Zm25.76-4.33v3.06h-5c-4.29 0-8.57 0-12.85-.12-1.64.13-2.71-1.58-3.21-2.91l21.06-.03ZM404.82 586a141.38 141.38 0 0 1 17 0c3.73.25 7.61.61 11 2.4a9.235 9.235 0 0 1 4.57 5.6c1 3.65.59 7.509.13 11.219-.6 4.41-1.61 8.741-2.52 13.091l-4.86 22.83H405l6.4-30.541c.18-.85-.62-1.5-1.39-1.609a5.996 5.996 0 0 0-3.68.39c-1.05.75-1.14 2.179-1.4 3.339-5.467 25.92-10.94 51.84-16.42 77.76a1.347 1.347 0 0 0 .73 1.701 6.11 6.11 0 0 0 3.7.07 2.243 2.243 0 0 0 1.39-1.531 31.693 31.693 0 0 0 1.09-4.389 46263.6 46263.6 0 0 0 5.71-26.731h25.1c-1.493 7.007-2.99 14.007-4.49 21-1.42 6.45-2.57 13.001-4.78 19.241a27.007 27.007 0 0 1-4.91 9.079 16.55 16.55 0 0 1-6.49 4.521c-3.63 1.46-7.57 1.759-11.43 2.05a143 143 0 0 1-18-.081c-3.73-.3-7.63-.729-10.91-2.659a9.087 9.087 0 0 1-4.19-6.57c-.75-4.75.12-9.571 1-14.25 5.76-27 11.44-54.06 17.23-81.071a73.316 73.316 0 0 1 4.06-13 18.002 18.002 0 0 1 7.72-8.69c4.23-2.329 9.1-2.81 13.78-3.169Zm245.13.52a122.84 122.84 0 0 1 18.67-.74 54.205 54.205 0 0 1 11.59 1.22c2.565.56 4.865 1.97 6.53 4 1.68 2.22 2.07 5.099 2.1 7.799a65.761 65.761 0 0 1-1.52 12.37c-1.19 5.75-2.42 11.5-3.63 17.25h-25.58l3.64-17.659a1.334 1.334 0 0 0-.6-1.52 4.759 4.759 0 0 0-2.59-.37 3.09 3.09 0 0 0-1.234.2 3.092 3.092 0 0 0-1.056.67 7.456 7.456 0 0 0-1 3l-2.36 11.22c-.36 1.83-1 3.76-.36 5.61.56 1.66 2.11 2.66 3.46 3.64 4 2.62 8 5.19 11.82 8a39.437 39.437 0 0 1 6.61 5.86 12.63 12.63 0 0 1 2.86 6.12c.6 3.57 0 7.19-.64 10.71-1 5.4-2.24 10.76-3.35 16.13-1.12 5.13-2.06 10.31-3.48 15.37a48.828 48.828 0 0 1-3.72 9.93 17.096 17.096 0 0 1-7.3 7.2c-4.24 2.18-9.08 2.57-13.76 2.9-5.469.303-10.951.303-16.42 0a33.132 33.132 0 0 1-9.92-1.69 10.16 10.16 0 0 1-4.78-3.511 12.995 12.995 0 0 1-2-7.109c-.15-4.701.86-9.33 1.68-13.93 1.78-8.52 3.573-17.037 5.38-25.55h25.42l-5.6 27c-.22 1.08 1 1.67 1.87 1.69 1.14 0 2.52.13 3.42-.71a10.565 10.565 0 0 0 1.38-4.071l4.24-20A9.478 9.478 0 0 0 650 663c-.5-1.54-1.89-2.521-3.17-3.38-4-2.47-8-5-11.77-7.68a38.512 38.512 0 0 1-6.64-5.81 13.557 13.557 0 0 1-3.15-6c-.523-3.286-.4-6.642.36-9.88.83-4.43 1.81-8.83 2.69-13.24 1.17-5.69 2.22-11.44 4.32-16.88a21.418 21.418 0 0 1 6.19-9.2 21.815 21.815 0 0 1 11.12-4.391v-.019Zm-457.43.81h51L239 608.859h-12.37L204.27 714.12H178c7.453-35.087 14.907-70.177 22.36-105.271H188c1.513-7.16 3.02-14.326 4.52-21.5v-.019Zm57.11 0h21.24c5.06 0 10.12-.09 15.18.16 3.707.04 7.392.588 10.95 1.63a10.413 10.413 0 0 1 5.78 4.27 14.464 14.464 0 0 1 1.58 7.62c-.15 5.4-1.48 10.66-2.55 15.93-.78 3.71-1.52 7.419-2.33 11.12a22.855 22.855 0 0 1-6.63 11.83 16.742 16.742 0 0 1-7.8 3.79l-.16.619c3 1 6.2 3.001 7.07 6.221 1.12 4.09.61 8.4-.06 12.51-.8 4.56-1.87 9.07-2.79 13.6l-7.92 37.479h-26.25c4-18.899 7.977-37.8 11.93-56.7a7.352 7.352 0 0 0 .27-1.699 1.706 1.706 0 0 0-1.63-1.231c-1.32-.14-2.65 0-4-.07l-12.71 59.69h-26.04l26.87-126.769ZM271 609.659c-1.713 8.127-3.43 16.254-5.15 24.38h4a2.299 2.299 0 0 0 1.8-.82 10.12 10.12 0 0 0 1-3c1.3-6.27 2.64-12.539 3.92-18.819.15-.85-.68-1.46-1.43-1.56a36.932 36.932 0 0 0-4.14-.181Zm46.49-22.31h26.07l-21.56 102c-.11.79-.61 1.721 0 2.421a3.64 3.64 0 0 0 2.77.67c.87-.06 2-.17 2.44-1a15.633 15.633 0 0 0 1.31-4.44l21.15-99.641h25.42l-21 98.821a103.094 103.094 0 0 1-3.66 13.88 24.434 24.434 0 0 1-5.57 9.57 20.17 20.17 0 0 1-11 5.15 97.318 97.318 0 0 1-14.77 1c-3.8 0-7.61-.09-11.39-.46-3.78-.37-7.6-1.14-10.45-3.68-2.34-2.09-3-5.36-3.12-8.37a66.01 66.01 0 0 1 1.68-13.94c7.26-34.007 14.497-68.001 21.71-101.981h-.03Zm133.85 0h26.39L468.27 632h.8c5-15 10.54-29.85 16.25-44.61h26.23a7839.962 7839.962 0 0 0-12.44 29.909c-3.16 7.541-6.17 15.141-9.52 22.591-.083.367-.11.744-.08 1.12 0 6.45-.2 12.899-.28 19.349-.43 17.94-1.25 35.86-1.81 53.8h-26.88c1-20.89 2.6-41.749 4.34-62.589h-.8l-13.19 62.58h-26.38l26.83-126.801Zm68.37 0h39.9L555.1 608.7h-13.79l-1.93 9.3h13.19l-4.35 20.549H535l-11.42 53.271h14l-4.67 22.31h-40.03l26.83-126.781Zm47.95 0H588c5.81 0 11.62-.119 17.42.231 3.211.081 6.398.582 9.48 1.49a11.355 11.355 0 0 1 5 3.07c2.41 2.73 2.63 6.63 2.44 10.1-.32 5.23-1.62 10.32-2.65 15.45-.75 3.51-1.43 7-2.22 10.55a22.843 22.843 0 0 1-6.56 11.63 16.74 16.74 0 0 1-7.82 3.81l-.16.619a12.453 12.453 0 0 1 5.76 3.631 10.702 10.702 0 0 1 1.87 5.789c.35 4.45-.5 8.871-1.37 13.211-3.333 15.726-6.667 31.456-10 47.19H573c4.06-19.334 8.123-38.667 12.19-58 .19-.891-.68-1.551-1.47-1.63a38.792 38.792 0 0 0-4.12-.09c-4.24 19.9-8.477 39.796-12.71 59.69h-26.07l26.84-126.741Zm21.39 22.31L583.95 634c1.76-.12 3.65.31 5.33-.41 1-.77 1.14-2.17 1.47-3.31l3.92-18.79c.32-1-.66-1.75-1.56-1.8-1.34-.1-2.68.009-4.02-.031h-.04ZM701.56 587h34.83c-1.28 10.41-2.65 20.819-4 31.219-1.69 12.9-3.66 25.761-5.72 38.601l.62-.07c2.42-8.71 4.72-17.46 7.19-26.17a4365.932 4365.932 0 0 1 12.69-43.59H782c-9.053 42.739-18.11 85.48-27.17 128.22h-20.72c5.587-26.254 11.173-52.504 16.76-78.75-.43-.08-.68.07-.76.43l-24.61 78.32h-21.66l8.78-79.57c-.46-.087-.707.073-.74.48a518492.5 518492.5 0 0 1-16.83 79.09h-20.67c9.08-42.76 18.14-85.497 27.18-128.21Zm91.61 0h23.23c5.56 0 11.13-.091 16.67.349 2.935.134 5.836.693 8.61 1.661 1.918.673 3.6 1.888 4.84 3.5a11.848 11.848 0 0 1 1.93 6.089 50.323 50.323 0 0 1-1.35 12.731c-2.26 10.55-4.49 21.109-6.77 31.649a57.86 57.86 0 0 1-4.11 12.49 17.674 17.674 0 0 1-7.72 8c-4.39 2.29-9.43 2.7-14.29 3-3.86.24-7.73.241-11.59.231-3.42 16.18-6.837 32.356-10.25 48.529H766L793.17 587Zm14 58.43c1.37 0 2.74.06 4.1-.05a2.467 2.467 0 0 0 1.95-.93c.532-.993.894-2.068 1.07-3.18 2.06-10 4.14-20 6.18-29.93a1.489 1.489 0 0 0-.331-1.119 1.477 1.477 0 0 0-1.039-.531 33.97 33.97 0 0 0-4.28-.12c-2.547 11.92-5.093 23.86-7.64 35.82l-.01.04Z" fill="#fff"/></g><defs><clipPath id="a"><path fill="#fff" d="M0 0h1024v1024H0z"/></clipPath></defs></svg>