<svg width="1024" height="1024" viewBox="0 0 1024 1024" fill="none" xmlns="http://www.w3.org/2000/svg">
<g clip-path="url(#clip0_2_3732)">
<path d="M512 1024C794.77 1024 1024 794.77 1024 512C1024 229.23 794.77 0 512 0C229.23 0 0 229.23 0 512C0 794.77 229.23 1024 512 1024Z" fill="#BA6561"/>
<path d="M302.53 477.34C296.348 471.053 288.552 466.593 280 464.45C274.168 463.171 268.169 462.833 262.23 463.45L259.83 463.84C245.56 466 233 475.48 226 487.94C221.962 495.187 219.854 503.35 219.877 511.646C219.899 519.943 222.053 528.094 226.13 535.32C229.338 540.885 233.569 545.795 238.6 549.789C245.693 555.346 254.238 558.738 263.21 559.56C271.21 560.15 279.37 559.39 286.79 556.26C294.049 553.308 300.476 548.626 305.512 542.621C310.547 536.617 314.038 529.472 315.68 521.81C317.394 514.009 317.112 505.902 314.86 498.24C312.479 490.388 308.251 483.221 302.53 477.34ZM283.79 545C275.443 548.84 265.964 549.431 257.205 546.657C248.446 543.884 241.035 537.944 236.42 530C232.532 523.36 230.878 515.649 231.7 508C232.356 501.129 234.929 494.58 239.124 489.1C243.319 483.619 248.969 479.427 255.43 477C257.862 476.089 260.387 475.452 262.96 475.1C268.8 474.6 274.84 474.7 280.41 476.74C287.875 479.304 294.309 484.215 298.75 490.74C303.012 497.026 305.256 504.464 305.18 512.06C304.98 517.801 303.555 523.434 301 528.58C297.222 535.794 291.174 541.564 283.79 545ZM841.84 461.3C842.6 458.437 843.856 455.729 845.55 453.3C841.1 453.71 836.61 453.44 832.15 453.51C772.7 453.42 713.26 453.58 653.81 453.45C631.75 453.53 609.68 453.45 587.62 453.45C588.3 433.27 589.03 413.1 589.5 392.92C589.92 383.55 589.71 374.15 590.11 364.78C590.36 349.54 590.71 334.3 590.63 319.06C590.58 309.56 590.72 300.06 590.34 290.54C590.34 283.09 589.8 275.65 589.7 268.2L589.53 267.94C589.53 264.68 589.19 261.44 588.94 258.18C588.35 252.18 587.94 246.18 586.17 240.38C586.04 239.84 585.75 239 585.02 239.18C574.02 240.07 563.13 241.37 552.26 243.02C542 244.51 531.75 246.18 521.59 248.32C489.85 254.81 458.59 264.17 429.25 278.06C399.91 291.95 372.19 310.58 350.19 334.8C338.3 347.97 327.99 362.8 321.09 379.17C319.98 381.77 319.26 384.51 318.22 387.17C315.98 387.58 313.69 387.72 311.46 388.25C296.08 391.66 280.94 396.05 265.81 400.42C256.62 403.15 247.41 405.77 238.32 408.82C235.361 413.464 232.041 417.867 228.39 421.99C224.39 426.75 220.14 431.37 215.72 435.78C209.87 441.67 204.11 447.65 197.89 453.15C193.24 457.15 188.89 461.51 184.03 465.32C183.391 465.768 182.874 466.369 182.525 467.067C182.176 467.765 182.006 468.539 182.03 469.32C183.65 469.05 184.61 467.62 185.78 466.61C190.08 462.8 194.37 458.96 198.9 455.43C212.9 444.79 228.27 435.58 245.16 430.43C251.426 428.507 257.857 427.168 264.37 426.43C267.63 426.283 270.89 426.15 274.15 426.03C276.51 426.39 278.93 426.18 281.3 426.45C283.24 426.76 285.2 426.94 287.13 427.32C304.53 430.49 320.41 439.73 333.13 451.82C337.774 456.153 342.117 460.797 346.13 465.72C357.95 465.87 369.78 465.67 381.59 465.62C386.18 465.26 390.8 465.51 395.4 465.39C407.72 465.3 420.04 465.31 432.4 465.21C433.353 465.012 434.337 465.012 435.29 465.21C436.83 465.29 438.36 465.01 439.91 465.11C440.741 465.061 441.575 465.095 442.4 465.21H443.73C445.388 464.97 447.072 464.97 448.73 465.21L450.45 465.08C451.846 465.229 453.254 465.229 454.65 465.08C462.05 465.29 469.47 465.08 476.88 465.18C504.44 465.23 532 465.4 559.55 465.41C572.1 465.8 584.67 465.5 597.23 465.33C592.117 475.916 587.063 486.53 582.07 497.17C578.41 504.66 575.07 512.289 571.24 519.719C574.61 519.909 577.99 519.72 581.37 519.78C586.64 519.73 591.92 519.9 597.19 519.69C597.19 518.38 596.76 517.13 596.65 515.83C596.013 510.483 596.328 505.066 597.58 499.83C600.244 487.083 607.487 475.755 617.94 467.99C624.715 463.013 632.617 459.79 640.94 458.61C650.156 457.277 659.56 458.292 668.28 461.56C679.691 465.981 689.27 474.135 695.458 484.693C701.646 495.251 704.079 507.593 702.36 519.71C706.36 519.84 710.36 519.71 714.36 519.71C718.19 519.66 722.02 519.84 725.85 519.59C725.604 518.051 725.463 516.497 725.43 514.94C725.32 509.45 725.38 503.849 726.97 498.549C728.977 491.037 732.515 484.021 737.36 477.94C743.217 470.757 750.781 465.156 759.36 461.65C768 458.371 777.317 457.282 786.48 458.48C794.328 459.546 801.844 462.333 808.491 466.641C815.138 470.949 820.751 476.671 824.93 483.4C829.51 481.4 833.93 479.15 838.49 477.09C839.774 476.675 840.957 475.993 841.96 475.09C841.427 473.023 841.132 470.903 841.08 468.77C841.058 466.249 841.313 463.734 841.84 461.27V461.3ZM446.69 405.71C445.4 407.23 443.26 406.88 441.49 406.99C436.58 406.99 431.68 407.1 426.77 406.99C426.109 406.997 425.455 406.855 424.856 406.575C424.257 406.295 423.73 405.884 423.312 405.372C422.894 404.86 422.597 404.26 422.442 403.617C422.288 402.975 422.28 402.306 422.42 401.66C422.899 400.702 423.519 399.822 424.26 399.05C426.17 398.42 428.19 398.61 430.16 398.55C434.77 398.55 439.39 398.47 444 398.71C444.663 398.69 445.32 398.846 445.904 399.16C446.488 399.474 446.98 399.936 447.33 400.5C448 402.22 448.1 404.36 446.69 405.71ZM450.03 388.51C447.469 389.017 444.876 389.351 442.27 389.51C437.97 390.11 433.65 390.58 429.34 391.07C419.23 392.55 409.08 393.65 398.95 395C386.82 396.49 374.71 398.12 362.58 399.58C361.48 399.81 360.36 399.88 359.27 400.09C357.03 400.35 354.8 400.61 352.57 400.93C351.302 400.988 350.039 401.132 348.79 401.36C347.59 401.49 346.39 401.54 345.19 401.57C345.69 394.84 346.26 388.05 348.19 381.57C352.86 365.44 361.77 350.71 373.1 338.38C389.81 319.99 411.1 306.38 433.63 296.13C439.03 293.52 444.63 291.45 450.15 289.02C450.13 322.18 450.08 355.343 450 388.51H450.03ZM182.76 458.25C182.47 453.66 183.07 449.09 183.27 444.51C183.75 439.94 183.8 435.32 184.74 430.81C185.05 428.95 185.47 426.63 187.52 425.93C194.36 422.88 201.52 420.53 208.58 418.14C215.3 415.93 222.02 413.7 228.78 411.62C228.258 412.426 227.68 413.194 227.05 413.92C224.34 416.67 222.05 419.81 219.48 422.67C208.584 434.699 196.927 446.015 184.58 456.55C184 457.11 183.37 457.68 182.76 458.25ZM575.22 491.32C569.4 503.48 563.53 515.599 557.79 527.799C532.45 527.96 507.1 527.799 481.79 527.87C435.503 527.87 389.217 527.896 342.93 527.95C338.71 527.89 334.47 528.12 330.26 527.859C329.82 524.241 329.152 520.654 328.26 517.12C326.185 507.873 323.051 498.898 318.92 490.37C315.773 483.673 311.666 477.471 306.73 471.96C301.265 465.929 294.395 461.343 286.73 458.61C284.93 458.04 283.12 457.53 281.29 457.06C279.2 456.57 277.04 456.58 274.93 456.27C270.297 456.024 265.653 456.024 261.02 456.27C259.52 456.58 258.02 456.5 256.47 456.77C248.353 457.933 240.632 461.018 233.95 465.77C230.744 468.094 227.797 470.756 225.16 473.71C219.546 480.376 215.194 488.011 212.32 496.24C209.001 505.83 206.983 515.823 206.32 525.95C206.4 526.88 205.1 526.8 204.47 526.95C199.47 526.95 194.47 527.309 189.4 527.159C185.359 526.487 181.707 524.351 179.14 521.159C176.67 517.532 175.41 513.216 175.54 508.83C175.54 501.55 176.16 494.27 176.03 486.99C175.85 485.19 177.58 484.11 178.59 482.88C188.975 471.475 200.731 461.398 213.59 452.88C226.99 443.98 241.91 437 257.83 434.15C258.83 433.95 259.77 433.85 260.74 433.72C262.35 433.39 264.01 433.5 265.62 433.12C269.62 432.95 273.62 432.96 277.62 433.12C279.97 433.51 282.37 433.59 284.73 433.99C299.39 436.52 312.87 443.81 324.15 453.35C330.22 458.47 335.51 464.35 340.84 470.25C342.59 471.42 344.44 473.25 346.72 472.64C367.85 472.39 388.99 472.46 410.12 472.33C412.5 472.33 414.87 472.11 417.25 472.25C435.99 472.18 454.73 472.25 473.47 472.25C481.17 472.19 488.86 472.33 496.55 472.36C500.06 472.13 503.55 472.52 507.09 472.36C532.82 472.53 558.57 472.36 584.31 472.65C581.07 478.72 578.28 485.09 575.22 491.32ZM677.66 478.16C672.108 473.5 665.504 470.264 658.42 468.73C653.57 467.881 648.625 467.719 643.73 468.25C634.153 469.332 625.243 473.683 618.5 480.57C612.441 486.537 608.236 494.128 606.39 502.43C605.477 507.462 605.342 512.606 605.99 517.68C607.99 533.47 619.56 547.5 634.55 552.77C635.49 553.12 636.45 553.41 637.41 553.77C638.54 554 639.66 554.27 640.78 554.609C641.5 554.699 642.24 554.78 642.97 554.88C644.086 555.104 645.221 555.225 646.36 555.24C648.051 555.491 649.763 555.568 651.47 555.469V555.2C652.665 555.241 653.86 555.137 655.03 554.89C655.75 554.77 656.49 554.689 657.22 554.599C663.277 553.449 669.032 551.066 674.13 547.599C681.611 542.453 687.303 535.104 690.416 526.573C693.529 518.043 693.908 508.755 691.5 500C689.139 491.515 684.324 483.917 677.66 478.16ZM682.42 527.7C676.13 541.06 661.03 549.7 646.32 548.13C637.57 547.71 629.25 543.5 623.09 537.38C619.231 533.551 616.291 528.898 614.492 523.769C612.692 518.64 612.079 513.169 612.7 507.77L612.59 507.6C613.639 498.692 617.842 490.455 624.44 484.38C631.11 478.078 639.997 474.664 649.17 474.88C657.643 474.696 665.905 477.532 672.48 482.88C678.676 487.884 683.072 494.772 685 502.5C687.023 510.946 686.113 519.829 682.42 527.69V527.7ZM808.74 478.86C802.798 473.55 795.508 469.979 787.67 468.54C778.47 467.21 768.67 467.98 760.32 472.26C754.687 475.015 749.714 478.952 745.739 483.802C741.764 488.652 738.881 494.301 737.285 500.365C735.689 506.43 735.418 512.766 736.49 518.945C737.563 525.123 739.954 530.998 743.5 536.169C748.072 542.83 754.366 548.125 761.71 551.49L762.56 551.87L764.13 552.479C765.28 552.982 766.485 553.348 767.72 553.57V553.76C769.39 553.98 770.97 554.64 772.66 554.76C774.375 555.095 776.124 555.226 777.87 555.15L777.76 555.44H778.76L778.66 554.99L779.66 555.409H780.8L780.72 555.09C784.235 555.114 787.734 554.629 791.11 553.65C792.89 553.05 794.72 552.59 796.45 551.82C803.279 548.971 809.274 544.439 813.876 538.645C818.478 532.852 821.536 525.986 822.764 518.69C823.993 511.394 823.352 503.905 820.901 496.924C818.45 489.943 814.27 483.697 808.75 478.77L808.74 478.86ZM816 517.63C814.674 525.658 810.709 533.016 804.733 538.538C798.756 544.06 791.108 547.432 783 548.12C779.56 548.669 776.08 548.12 772.67 547.7L770.94 547.299C770.04 547.099 769.15 546.849 768.27 546.599C760.132 543.803 753.153 538.383 748.43 531.19C745.096 525.934 743.177 519.905 742.86 513.69L742.68 513.43C742.399 504.162 745.486 495.106 751.37 487.94C755.755 482.68 761.511 478.738 768 476.55C773.11 474.73 778.62 474.69 784 475.02C792.583 475.98 800.553 479.935 806.51 486.19C811.221 491.294 814.468 497.575 815.91 504.37C816.641 508.757 816.671 513.233 816 517.63ZM677 509.56C677.279 513.744 676.603 517.937 675.022 521.822C673.442 525.707 670.998 529.181 667.877 531.982C664.755 534.783 661.037 536.837 657.004 537.988C652.972 539.14 648.73 539.359 644.6 538.63C640.493 537.864 636.612 536.181 633.246 533.707C629.88 531.233 627.116 528.031 625.16 524.34C623.397 521.092 622.32 517.517 621.995 513.836C621.67 510.155 622.104 506.446 623.27 502.94C626.53 493.39 635.27 485.77 645.27 484.359C649.125 483.776 653.059 484.015 656.815 485.062C660.57 486.108 664.062 487.937 667.06 490.43C672.734 495.272 676.299 502.133 677 509.56ZM805 500.66C807.031 505.29 807.663 510.414 806.82 515.4C805.761 522.386 802.041 528.692 796.44 533C789.22 538.34 779.33 540.299 770.8 537.19C759.96 533.64 751.92 522.67 752.17 511.19C751.68 497.46 763.46 484.659 777.17 483.859C782.617 483.323 788.099 484.442 792.9 487.07C798.404 490.038 802.688 494.849 805 500.66ZM293.22 505.89C294.669 512.24 293.624 518.904 290.303 524.506C286.982 530.109 281.636 534.223 275.37 536C273.84 536.43 272.27 536.65 270.71 536.94C264.601 537.541 258.482 535.895 253.5 532.31C250.401 530.073 247.836 527.178 245.99 523.832C244.143 520.487 243.06 516.773 242.82 512.96C242.517 508.06 243.695 503.182 246.2 498.96C249.534 493.104 255.054 488.811 261.55 487.02C268.06 485.5 275.33 486.02 281.13 489.54C284.144 491.308 286.77 493.668 288.847 496.478C290.925 499.288 292.413 502.489 293.22 505.89ZM598.37 387.89C598.44 358.89 598.64 329.97 598.62 301.01C598.62 282.13 598.62 263.24 598.7 244.36C598.606 241.566 598.653 238.769 598.84 235.98C599.541 234.393 600.594 232.988 601.92 231.87C602.247 231.583 602.58 231.313 602.92 231.06L603.46 230.69C604.361 230.094 605.315 229.582 606.31 229.16C607.31 228.77 608.26 228.42 609.26 228.16C611.256 227.546 613.316 227.163 615.4 227.02H616.96C617.48 227.02 618 227.04 618.52 227.08C619.443 227.141 620.338 227.423 621.128 227.904C621.918 228.384 622.581 229.048 623.06 229.84C623.289 230.199 623.48 230.581 623.63 230.98C623.69 231.186 623.743 231.396 623.79 231.61C623.837 231.823 623.873 232.036 623.9 232.25C624.022 233.109 624.022 233.981 623.9 234.84C623.705 236.125 623.235 237.353 622.52 238.44C622.28 238.793 622.012 239.128 621.72 239.44C621.412 239.761 621.078 240.055 620.72 240.32C619.026 241.565 617.263 242.713 615.44 243.76C614.35 244.4 613.25 245.01 612.15 245.63C611.886 245.765 611.651 245.952 611.46 246.18C611.398 246.256 611.341 246.336 611.29 246.42C611.29 248.26 611.25 250.1 611.17 251.94C611.09 253.78 611.033 255.6 611 257.4C610.65 268.4 610.13 279.48 610 290.53C609.853 296.27 609.693 302.013 609.52 307.76C609.347 313.506 609.173 319.253 609 325C608.68 332.65 608.43 340.3 608.21 348C608.137 350.553 608.067 353.103 608 355.65C607.867 360.75 607.73 365.85 607.59 370.95C607.45 376.05 607.29 381.15 607.11 386.25C606.78 396.65 606.52 407.06 606.26 417.46C606.127 422.66 605.99 427.86 605.85 433.06C605.71 438.26 605.553 443.46 605.38 448.66H603.71C602.045 448.75 600.375 448.75 598.71 448.66C598.71 432.19 598.44 415.73 598.48 399.27C598.53 395.44 598.29 391.67 598.37 387.89ZM702.47 448L731.13 447.48C737.66 447.64 744.2 447.57 750.74 447.64C753.474 447.73 756.212 447.673 758.94 447.47C761.34 447.21 762.42 444.77 763.19 442.8C757.19 442.48 751.25 442.66 745.29 442.42C733.41 442.34 721.52 442.42 709.64 442.42C702.58 442.36 695.52 442.64 688.46 442.52C688.214 444.362 688.101 446.22 688.12 448.08C692.9 447.87 697.69 448 702.47 448ZM728.23 443.67V446.73H723.23C718.94 446.73 714.66 446.73 710.38 446.61C708.74 446.74 707.67 445.03 707.17 443.7L728.23 443.67ZM404.82 586C410.481 585.659 416.158 585.659 421.82 586C425.55 586.25 429.43 586.61 432.82 588.4C433.919 588.977 434.891 589.771 435.676 590.734C436.461 591.696 437.044 592.807 437.39 594C438.39 597.65 437.98 601.509 437.52 605.219C436.92 609.629 435.91 613.96 435 618.31C433.38 625.916 431.76 633.526 430.14 641.14H405L411.4 610.599C411.58 609.749 410.78 609.099 410.01 608.99C408.773 608.729 407.485 608.865 406.33 609.38C405.28 610.13 405.19 611.559 404.93 612.719C399.463 638.639 393.99 664.559 388.51 690.479C388.392 690.803 388.402 691.158 388.538 691.474C388.674 691.79 388.925 692.042 389.24 692.18C390.436 692.585 391.729 692.61 392.94 692.25C393.277 692.125 393.58 691.921 393.822 691.654C394.064 691.388 394.238 691.067 394.33 690.719C394.797 689.284 395.162 687.817 395.42 686.33C397.327 677.416 399.23 668.506 401.13 659.599H426.23C424.737 666.606 423.24 673.606 421.74 680.599C420.32 687.049 419.17 693.6 416.96 699.84C415.922 703.154 414.255 706.237 412.05 708.919C410.284 710.929 408.057 712.479 405.56 713.44C401.93 714.9 397.99 715.199 394.13 715.49C388.134 715.841 382.122 715.814 376.13 715.409C372.4 715.109 368.5 714.68 365.22 712.75C364.078 712.034 363.11 711.073 362.385 709.936C361.661 708.8 361.198 707.517 361.03 706.18C360.28 701.43 361.15 696.609 362.03 691.93C367.79 664.93 373.47 637.87 379.26 610.859C380.207 606.41 381.566 602.057 383.32 597.859C384.861 594.189 387.576 591.133 391.04 589.169C395.27 586.84 400.14 586.359 404.82 586ZM649.95 586.52C656.146 585.8 662.387 585.552 668.62 585.78C672.516 585.769 676.402 586.178 680.21 587C682.775 587.56 685.075 588.97 686.74 591C688.42 593.22 688.81 596.099 688.84 598.799C688.726 602.962 688.217 607.104 687.32 611.169C686.13 616.919 684.9 622.669 683.69 628.419H658.11L661.75 610.76C661.833 610.476 661.82 610.172 661.711 609.896C661.602 609.621 661.405 609.39 661.15 609.24C660.338 608.877 659.441 608.749 658.56 608.87C658.139 608.852 657.719 608.92 657.326 609.07C656.932 609.219 656.573 609.447 656.27 609.74C655.726 610.657 655.385 611.68 655.27 612.74L652.91 623.96C652.55 625.79 651.91 627.72 652.55 629.57C653.11 631.23 654.66 632.23 656.01 633.21C660.01 635.83 664.01 638.4 667.83 641.21C670.246 642.91 672.463 644.875 674.44 647.07C675.931 648.812 676.92 650.928 677.3 653.19C677.9 656.76 677.3 660.38 676.66 663.9C675.66 669.3 674.42 674.66 673.31 680.03C672.19 685.16 671.25 690.34 669.83 695.4C668.954 698.835 667.707 702.165 666.11 705.33C664.471 708.42 661.923 710.933 658.81 712.53C654.57 714.71 649.73 715.1 645.05 715.43C639.581 715.733 634.099 715.733 628.63 715.43C625.256 715.375 621.911 714.805 618.71 713.74C616.803 713.071 615.139 711.849 613.93 710.229C612.59 708.103 611.895 705.633 611.93 703.12C611.78 698.419 612.79 693.79 613.61 689.19C615.39 680.67 617.183 672.153 618.99 663.64H644.41L638.81 690.64C638.59 691.72 639.81 692.31 640.68 692.33C641.82 692.33 643.2 692.46 644.1 691.62C644.834 690.372 645.304 688.986 645.48 687.549L649.72 667.549C650.182 666.078 650.278 664.516 650 663C649.5 661.46 648.11 660.479 646.83 659.62C642.83 657.15 638.83 654.62 635.06 651.94C632.631 650.264 630.403 648.314 628.42 646.13C626.879 644.429 625.795 642.364 625.27 640.13C624.747 636.844 624.87 633.488 625.63 630.25C626.46 625.82 627.44 621.42 628.32 617.01C629.49 611.32 630.54 605.57 632.64 600.13C633.86 596.573 635.995 593.4 638.83 590.93C642.055 588.459 645.907 586.939 649.95 586.539V586.52ZM192.52 587.33H243.52L239 608.859H226.63L204.27 714.12H178C185.453 679.033 192.907 643.943 200.36 608.849H188C189.513 601.689 191.02 594.523 192.52 587.349V587.33ZM249.63 587.33H270.87C275.93 587.33 280.99 587.24 286.05 587.49C289.757 587.53 293.442 588.078 297 589.12C299.372 589.812 301.421 591.326 302.78 593.39C303.993 595.737 304.539 598.373 304.36 601.01C304.21 606.41 302.88 611.67 301.81 616.94C301.03 620.65 300.29 624.359 299.48 628.06C298.518 632.583 296.206 636.708 292.85 639.89C290.628 641.816 287.938 643.124 285.05 643.68L284.89 644.299C287.89 645.299 291.09 647.3 291.96 650.52C293.08 654.61 292.57 658.92 291.9 663.03C291.1 667.59 290.03 672.1 289.11 676.63L281.19 714.109H254.94C258.94 695.21 262.917 676.309 266.87 657.409C267.026 656.855 267.117 656.285 267.14 655.71C267.037 655.356 266.822 655.046 266.529 654.825C266.235 654.603 265.878 654.482 265.51 654.479C264.19 654.339 262.86 654.479 261.51 654.409L248.8 714.099H222.76L249.63 587.33ZM271 609.659C269.287 617.786 267.57 625.913 265.85 634.039H269.85C270.192 634.045 270.531 633.975 270.843 633.833C271.154 633.691 271.43 633.481 271.65 633.219C272.138 632.278 272.476 631.266 272.65 630.219C273.95 623.949 275.29 617.68 276.57 611.4C276.72 610.55 275.89 609.94 275.14 609.84C273.764 609.702 272.382 609.642 271 609.659ZM317.49 587.349H343.56L322 689.349C321.89 690.139 321.39 691.07 322 691.77C322.393 692.062 322.84 692.273 323.316 692.388C323.792 692.503 324.287 692.52 324.77 692.44C325.64 692.38 326.77 692.27 327.21 691.44C327.865 690.033 328.306 688.536 328.52 687L349.67 587.359H375.09L354.09 686.18C353.194 690.886 351.971 695.524 350.43 700.06C349.33 703.634 347.425 706.908 344.86 709.63C341.81 712.436 337.969 714.234 333.86 714.78C328.969 715.488 324.032 715.822 319.09 715.78C315.29 715.78 311.48 715.69 307.7 715.32C303.92 714.95 300.1 714.18 297.25 711.64C294.91 709.55 294.25 706.28 294.13 703.27C294.193 698.576 294.756 693.903 295.81 689.33C303.07 655.323 310.307 621.329 317.52 587.349H317.49ZM451.34 587.349H477.73L468.27 632H469.07C474.07 617 479.61 602.15 485.32 587.39H511.55C507.383 597.35 503.237 607.319 499.11 617.299C495.95 624.84 492.94 632.44 489.59 639.89C489.507 640.257 489.48 640.634 489.51 641.01C489.51 647.46 489.31 653.909 489.23 660.359C488.8 678.299 487.98 696.219 487.42 714.159H460.54C461.54 693.269 463.14 672.41 464.88 651.57H464.08L450.89 714.15H424.51L451.34 587.349ZM519.71 587.349H559.61L555.1 608.7H541.31L539.38 618H552.57L548.22 638.549H535L523.58 691.82H537.58L532.91 714.13H492.88L519.71 587.349ZM567.66 587.349H588C593.81 587.349 599.62 587.23 605.42 587.58C608.631 587.661 611.818 588.162 614.9 589.07C616.807 589.638 618.531 590.696 619.9 592.14C622.31 594.87 622.53 598.77 622.34 602.24C622.02 607.47 620.72 612.56 619.69 617.69C618.94 621.2 618.26 624.69 617.47 628.24C616.491 632.683 614.206 636.733 610.91 639.87C608.685 641.807 605.987 643.121 603.09 643.68L602.93 644.299C605.15 644.951 607.145 646.208 608.69 647.93C609.86 649.638 610.51 651.649 610.56 653.719C610.91 658.169 610.06 662.59 609.19 666.93C605.857 682.656 602.523 698.386 599.19 714.12H573C577.06 694.786 581.123 675.453 585.19 656.12C585.38 655.229 584.51 654.569 583.72 654.49C582.349 654.387 580.974 654.357 579.6 654.4C575.36 674.3 571.123 694.196 566.89 714.09H540.82L567.66 587.349ZM589.05 609.659L583.95 634C585.71 633.88 587.6 634.31 589.28 633.59C590.28 632.82 590.42 631.42 590.75 630.28L594.67 611.49C594.99 610.49 594.01 609.74 593.11 609.69C591.77 609.59 590.43 609.699 589.09 609.659H589.05ZM701.56 587H736.39C735.11 597.41 733.74 607.819 732.39 618.219C730.7 631.119 728.73 643.98 726.67 656.82L727.29 656.75C729.71 648.04 732.01 639.29 734.48 630.58C738.633 616.033 742.863 601.503 747.17 586.99H782C772.947 629.729 763.89 672.47 754.83 715.21H734.11C739.697 688.956 745.283 662.706 750.87 636.46C750.44 636.38 750.19 636.53 750.11 636.89L725.5 715.21H703.84L712.62 635.64C712.16 635.553 711.913 635.713 711.88 636.12C706.273 662.479 700.663 688.843 695.05 715.21H674.38C683.46 672.45 692.52 629.713 701.56 587ZM793.17 587H816.4C821.96 587 827.53 586.909 833.07 587.349C836.005 587.483 838.906 588.042 841.68 589.01C843.598 589.683 845.28 590.898 846.52 592.51C847.709 594.325 848.376 596.431 848.45 598.599C848.544 602.883 848.09 607.161 847.1 611.33C844.84 621.88 842.61 632.439 840.33 642.979C839.439 647.285 838.06 651.476 836.22 655.469C834.574 658.897 831.867 661.702 828.5 663.469C824.11 665.759 819.07 666.169 814.21 666.469C810.35 666.709 806.48 666.71 802.62 666.7C799.2 682.88 795.783 699.056 792.37 715.229H766L793.17 587ZM807.17 645.43C808.54 645.43 809.91 645.49 811.27 645.38C811.644 645.383 812.015 645.301 812.352 645.14C812.69 644.979 812.987 644.743 813.22 644.45C813.752 643.457 814.114 642.382 814.29 641.27C816.35 631.27 818.43 621.27 820.47 611.34C820.493 611.14 820.476 610.938 820.419 610.746C820.362 610.554 820.267 610.375 820.139 610.221C820.011 610.066 819.853 609.94 819.674 609.848C819.495 609.757 819.3 609.703 819.1 609.69C817.677 609.56 816.248 609.52 814.82 609.57C812.273 621.49 809.727 633.43 807.18 645.39L807.17 645.43Z" fill="white"/>
</g>
<defs>
<clipPath id="clip0_2_3732">
<rect width="1024" height="1024" fill="white"/>
</clipPath>
</defs>
</svg>
