<svg width="1024" height="1024" viewBox="0 0 1024 1024" fill="none" xmlns="http://www.w3.org/2000/svg">
<g clip-path="url(#clip0_2_3735)">
<path d="M512 1024C794.77 1024 1024 794.77 1024 512C1024 229.23 794.77 0 512 0C229.23 0 0 229.23 0 512C0 794.77 229.23 1024 512 1024Z" fill="#F8C18C"/>
<path d="M595.59 426.93C596.27 426.5 596.92 426.04 597.56 425.57C598.54 424.86 599.53 424.15 600.64 423.57C602.18 422.77 603.77 422.09 605.36 421.41C605.73 421.25 606.11 421.09 606.48 420.93C612.61 418.32 619.01 416.45 625.58 415.44C624.53 411.59 623.2 407.82 621.29 404.23C620.17 402.12 618.91 400.14 617.57 398.21C615.85 395.79 613.91 393.58 611.87 391.52C609.956 389.608 607.904 387.84 605.73 386.23C600.31 382.23 594.17 379.18 587.56 377.44C583.368 376.328 579.056 375.737 574.72 375.68C574.54 375.68 574.36 375.66 574.19 375.64C574.02 375.62 573.85 375.6 573.67 375.6C566.56 375.6 559.6 377.39 553.03 380.12C552.79 380.21 552.55 380.3 552.32 380.38C551.98 380.5 551.64 380.61 551.32 380.76C550.94 380.93 550.55 381.06 550.15 381.19C549.61 381.37 549.07 381.55 548.57 381.82C547.49 382.37 546.55 383.05 545.6 383.74C545.21 384.02 544.82 384.3 544.41 384.58C540.5 387.13 536.97 390.06 533.94 393.39C532.34 395.18 530.93 397.06 529.55 399.01C529.59 399.1 529.61 399.18 529.61 399.25V399.27C530.32 402.1 531.09 404.96 531.86 407.82L532.19 409.06C538.79 432.42 547.87 456.45 559.46 481.09H559.51C562.4 463.51 571.07 447.19 584.67 434.92C588.03 431.95 591.67 429.34 595.54 426.89L595.57 426.91L595.59 426.93ZM690.88 552.62C686.04 556.95 680.87 560.93 674.97 564C663.55 570.07 650.72 573.24 637.83 573.24C627.72 573.24 618 571.24 608.94 567.72V567.84C619.97 584.47 632.05 601.36 645.08 618.46C646.04 619.71 647.02 620.97 648.01 622.24L650.42 625.34L651.56 626.77C652.07 627.44 652.57 628.1 653.09 628.75C653.51 629.27 653.91 629.8 654.33 630.37C654.92 630.44 655.52 630.46 656.12 630.48C656.47 630.49 656.81 630.5 657.15 630.52L657.88 630.6C659.14 630.73 660.37 630.86 661.66 630.86C664.9 630.86 668.12 630.26 671.3 629.68L671.48 629.65L672.35 629.49C673.56 629.27 674.74 629.05 675.96 628.74C679.2 627.83 682.4 626.65 685.47 625.12C685.67 625.02 685.89 624.94 686.11 624.87C686.33 624.8 686.56 624.73 686.76 624.62C687.03 624.48 687.28 624.29 687.52 624.11C687.77 623.93 688.01 623.75 688.28 623.6C696.389 618.967 703.138 612.284 707.85 604.22C709.89 600.76 711.62 597.13 712.81 593.32C713.82 590.23 714.47 587 714.91 583.72C716.15 573.7 714.57 563.3 709.86 553.63C709.75 553.39 709.66 553.15 709.57 552.9C709.46 552.6 709.35 552.29 709.19 552.01C707.95 549.63 706.52 547.44 704.97 545.33C703.89 543.83 702.68 542.42 701.44 541.07C701.09 541.55 700.75 542.05 700.42 542.54C699.86 543.38 699.29 544.22 698.64 544.97C696.3 547.75 693.61 550.21 690.92 552.61L690.89 552.63L690.88 552.62ZM643.27 431.16C643.39 431.16 643.51 431.17 643.63 431.18H643.65C664.77 433.16 683.56 445.43 693.62 464.4C698.73 474.08 700.9 484.65 700.64 495.31C700.547 498.644 700.186 501.964 699.56 505.24L699.32 506.65C699 508.58 698.68 510.5 698.09 512.38C697.86 513.19 697.51 513.94 697.16 514.68C696.91 515.21 696.66 515.75 696.45 516.31C696.42 516.37 696.4 516.43 696.37 516.48C696.33 516.57 696.29 516.65 696.26 516.76C696.07 517.24 695.88 517.72 695.7 518.2C694.93 520.18 694.17 522.16 693.15 524.02C691.97 526.19 690.49 528.19 689.04 530.15L688.63 530.71C687.49 532.31 686.38 533.85 685.1 535.34C682.85 537.87 680.49 540.32 677.85 542.48C674.87 544.88 671.58 547.04 668.14 548.92C667.98 549.01 667.85 549.11 667.71 549.21C667.57 549.31 667.43 549.41 667.28 549.5C658.19 554.28 648.02 556.83 637.83 556.83C629.53 556.83 621.52 555.14 614.09 552.14C611.55 551.08 609.09 549.9 606.69 548.57C604.28 547.18 601.98 545.68 599.77 543.98C592.54 538.53 586.44 531.55 582.03 523.3C578.11 515.875 575.71 507.743 574.97 499.38C574.76 496.82 574.9 494.24 575.03 491.69C575.04 491.46 575.05 491.23 575.07 491C575.19 488.2 575.51 485.49 575.99 482.77C578.18 470.77 583.74 459.6 592.3 450.58C596.9 445.72 602.11 441.38 608.34 438.08C610.18 437.1 612.11 436.29 614.06 435.51L616.76 434.48C620.19 433.26 623.68 432.39 627.25 431.79C629.97 431.34 632.69 431.03 635.43 430.93C635.63 430.92 635.83 430.9 636.03 430.89C636.6 430.85 637.19 430.81 637.75 430.81C638.99 430.81 640.19 430.91 641.39 431.02C641.82 431.06 642.24 431.09 642.67 431.13C642.88 431.16 643.07 431.17 643.27 431.18V431.16ZM545.33 272C561.47 308.71 550.5 345.07 538.83 368.69C534.79 370.99 531.04 373.66 527.63 376.61C519.75 352.28 513.38 309.71 545.33 272ZM271.77 452.92C270.93 452.6 269.96 452.42 268.89 452.42C259.75 452.42 244.46 463.88 234.08 485.1C226.49 500.62 214.18 537.92 237.61 584.71C240.51 560.84 253.08 533.19 275.61 501.16C281.1 467.31 276.15 454.72 271.76 452.93L271.77 452.92ZM296.76 543.64L297.03 540.59C294.17 532.99 291.31 527.02 288.37 522.08C287.18 520.15 285.99 518.27 284.79 516.67C283.18 519.02 281.75 521.34 280.32 523.66C279.86 524.4 279.41 525.14 278.95 525.88C271.11 538.36 264.96 550.07 260.77 560.91C259.42 565.26 257.91 569.86 256.36 574.51C253.37 585.99 252.55 596.36 254.2 605.6C254.77 608.8 255.63 611.92 256.79 614.9C257.06 615.62 257.44 616.33 257.82 617.04C258.01 617.39 258.19 617.73 258.36 618.08C266.05 634.1 282.98 646.67 309.09 655.54C296.6 629.35 292.38 591.93 296.76 543.65V543.64ZM322.45 560.93L329.32 564.98C339.35 570.9 349.78 590.65 360.77 611.64C372.4 633.66 385.62 658.58 403.01 676.55C378.15 684.64 356.9 682.93 341.56 671.25C339.16 669.44 336.89 667.42 334.79 665.14C334 664.27 333.29 663.29 332.59 662.32C332.28 661.89 331.97 661.46 331.66 661.05C326.74 654.64 322.66 646.81 319.55 637.53C315.84 626.39 313.44 613.16 312.33 598.14C311.5 586.72 311.38 574.29 312.07 560.84C312.13 559.92 312.16 559.03 312.19 558.13C312.21 557.4 312.24 556.66 312.28 555.89C314.7 556.98 317.43 558.29 320.23 559.74C320.51 559.89 320.8 560.05 321.1 560.22H321.11C321.55 560.46 322 560.72 322.44 560.94L322.45 560.93ZM448.51 614.18C428.77 585.11 410.08 557.69 379.43 548.32C363.89 548.62 353.55 553.29 347.17 557.58L347.07 557.63C346.87 557.73 346.64 557.85 346.48 557.96C353.33 565.01 359.62 575.16 366.07 586.74C369.1 592.21 372.2 597.92 375.39 603.98L376.92 606.85C379.48 611.67 382.07 616.57 384.74 621.43C390.92 632.65 397.47 643.68 404.71 653.31C408.67 658.55 412.85 663.38 417.3 667.58C419.83 670 422.43 672.23 425.16 674.22C434.03 680.73 443.88 684.68 455.06 684.68C467.25 684.68 480.77 680 495.47 670.81C476.63 655.54 462.42 634.69 448.5 614.22L448.52 614.2L448.51 614.18ZM583.45 359.86C604.16 344.72 627.47 320.09 631.57 283.89C588.85 299.19 572.04 334.65 565.3 359.69C568.07 359.35 570.86 359.18 573.63 359.18C576.95 359.18 580.21 359.43 583.45 359.87V359.86ZM710.03 627.43C718.92 618.86 725.41 608.38 728.8 596.86C737.14 594.71 746.06 593.36 755.53 593.36C770.6 593.36 785.5 596.72 800 603.29C780.3 620 755.82 628.48 727.05 628.48C721.12 628.48 715.47 628.03 710.04 627.43H710.03ZM686.38 642.74C680.94 644.81 675.25 646.14 669.48 646.82C682.43 667.37 706.53 694.91 745.26 699.39C733.02 666.63 707.81 650.67 686.39 642.75L686.38 642.74ZM641.72 412.84C640.37 407.26 638.55 401.76 635.79 396.56C633.38 391.98 630.41 387.87 627.15 384.06C642.19 364.57 664.82 346.36 698.7 340.28C689.55 375.72 665.13 398.56 641.71 412.84H641.72ZM798.68 503.45C786.09 498.97 773.41 496.72 760.82 496.72C744.07 496.72 729.05 500.81 716 506.4L715.83 507.45C715.3 510.73 714.77 514.02 713.76 517.26C712.97 519.83 711.86 522.23 710.74 524.64C710.46 525.24 710.18 525.85 709.91 526.46C713.28 529.66 716.38 533.13 719.06 537C751.7 535.4 778.47 524.2 798.68 503.46V503.45ZM635.47 633.12C622.76 616.61 610.93 600.27 600.03 584.2C597.84 580.96 595.69 577.72 593.57 574.53L591.59 571.55C574.46 545.23 559.74 519.53 547.55 494.35C545.58 490.32 543.72 486.28 541.89 482.28C539.51 477.1 537.31 471.95 535.14 466.81C529.36 453.05 524.33 439.5 520.11 426.11C518.3 420.41 516.68 414.76 515.15 409.14C513.99 404.74 512.86 400.36 511.86 396.03C509.53 386.07 507.57 376.19 506.14 366.47C486.5 388.56 448.85 436.89 443.37 486.52C443.35 486.68 443.32 486.84 443.28 487.01C443.24 487.21 443.2 487.42 443.18 487.63C451 489.31 458.44 492.84 465.68 497.79C471.46 501.71 477.05 506.74 482.65 512.29C497.74 527.39 512.44 547.62 528.23 569.49C546.73 595.15 566.44 622.34 589.04 643.61C596.1 650.23 603.39 656.29 611.04 661.56C616.24 665.12 621.64 668.21 627.17 670.94L628.35 671.59C629.94 672.35 631.56 673.06 633.21 673.75C646.25 679.31 660.18 682.43 675.28 682.03C664.935 669.944 654.816 657.665 644.93 645.2C641.71 641.17 638.54 637.13 635.44 633.13L635.47 633.12ZM514.97 579.1C487.93 541.55 462.33 506.29 436.2 503.39C418.65 505.37 404.67 515.05 393.79 532.67C393.56 533.04 393.32 533.41 393.07 533.78C392.74 534.28 392.39 534.78 392.08 535.34C397.57 537.56 402.57 540.43 407.37 543.55C413.73 547.62 419.58 552.31 425.01 557.57C439.22 571.31 450.81 588.28 462.13 604.99C476.65 626.4 490.9 646.87 509.77 660.7C512.08 662.41 514.37 664.07 516.83 665.56C519.39 667.1 522.09 668.37 524.84 669.64C535.65 674.69 547.82 677.77 562.35 677.77C573.22 677.77 585.21 676.04 598.11 672.75C565.54 649.1 539.25 612.77 514.96 579.09L514.97 579.1Z" fill="white"/>
</g>
<defs>
<clipPath id="clip0_2_3735">
<rect width="1024" height="1024" fill="white"/>
</clipPath>
</defs>
</svg>
