<svg width="1024" height="1024" fill="none" xmlns="http://www.w3.org/2000/svg"><g clip-path="url(#a)"><path d="M512 1024c282.77 0 512-229.23 512-512S794.77 0 512 0 0 229.23 0 512s229.23 512 512 512Z" fill="#9ABEFF"/><path d="M780 468.41v114.21L535.48 723.86v-114.2L780 468.41ZM488.69 609.66v114.21L244 582.62V468.41l110.57 63.79c.122.097.257.177.4.24l133.72 77.22ZM611 512l-98.91 57.15-99-57.15 99-57.15L611 512Zm145.7-84.09-99 57.15-122.22-70.64V300.13L756.7 427.91Zm-268-127.81v114.32L366.3 485l-99-57.06L488.7 300.1Z" fill="#fff"/></g><defs><clipPath id="a"><path fill="#fff" d="M0 0h1024v1024H0z"/></clipPath></defs></svg>