<svg width="1024" height="1024" viewBox="0 0 1024 1024" fill="none" xmlns="http://www.w3.org/2000/svg">
<g clip-path="url(#clip0_2_3741)">
<path d="M512 1024C794.77 1024 1024 794.77 1024 512C1024 229.23 794.77 0 512 0C229.23 0 0 229.23 0 512C0 794.77 229.23 1024 512 1024Z" fill="#FF837D"/>
<path d="M553.23 561.05V517.94L542.3 526.38L535.09 516.52L554.4 502.34H567.09V561.04H553.24M610.11 531.52C610.11 529.7 610 527.68 609.79 525.46C609.57 523.26 609.16 521.19 608.54 519.28C607.93 517.37 607.06 515.77 605.93 514.47C604.79 513.18 603.32 512.52 601.49 512.52C599.66 512.52 598.18 513.17 597.02 514.47C595.85 515.76 594.95 517.37 594.32 519.28C593.69 521.18 593.26 523.25 593.04 525.46C592.82 527.68 592.7 529.69 592.7 531.52C592.7 533.35 592.81 535.45 593.04 537.7C593.26 539.94 593.69 542.01 594.32 543.91C594.96 545.82 595.85 547.42 597.02 548.72C598.18 550.03 599.67 550.67 601.49 550.67C603.31 550.67 604.79 550.02 605.93 548.72C607.06 547.42 607.94 545.82 608.54 543.91C609.15 542.01 609.56 539.94 609.79 537.7C610 535.46 610.11 533.4 610.11 531.52ZM624.37 531.52C624.37 535.67 623.96 539.62 623.12 543.38C622.3 547.14 620.97 550.44 619.15 553.28C617.32 556.13 614.97 558.4 612.06 560.08C609.16 561.76 605.63 562.61 601.48 562.61C597.33 562.61 593.8 561.76 590.87 560.08C587.94 558.4 585.55 556.13 583.7 553.28C581.86 550.44 580.51 547.14 579.68 543.38C578.86 539.62 578.45 535.67 578.45 531.52C578.45 527.37 578.86 523.43 579.68 519.71C580.52 515.98 581.86 512.71 583.7 509.92C585.56 507.13 587.95 504.91 590.87 503.24C593.8 501.59 597.34 500.76 601.48 500.76C605.62 500.76 609.16 501.58 612.06 503.24C614.919 504.874 617.349 507.163 619.15 509.92C620.97 512.71 622.3 515.98 623.12 519.71C623.96 523.43 624.37 527.37 624.37 531.52ZM702.18 561.04V517.93L691.25 526.37L684.02 516.51L703.34 502.33H716.03V561.03H702.18M759.05 531.51C759.05 529.69 758.94 527.67 758.73 525.45C758.5 523.25 758.1 521.18 757.48 519.27C756.87 517.36 756 515.76 754.87 514.46C753.73 513.17 752.26 512.51 750.43 512.51C748.6 512.51 747.12 513.16 745.96 514.46C744.79 515.75 743.89 517.36 743.26 519.27C742.63 521.17 742.2 523.24 741.98 525.45C741.76 527.67 741.64 529.68 741.64 531.51C741.64 533.34 741.75 535.44 741.98 537.69C742.2 539.93 742.63 542 743.26 543.9C743.89 545.81 744.79 547.41 745.96 548.71C747.12 550.02 748.61 550.66 750.43 550.66C752.25 550.66 753.73 550.01 754.87 548.71C756 547.41 756.88 545.81 757.48 543.9C758.09 542 758.5 539.93 758.73 537.69C758.94 535.45 759.05 533.39 759.05 531.51ZM773.31 531.51C773.31 535.66 772.9 539.61 772.06 543.37C771.24 547.13 769.91 550.43 768.09 553.27C766.26 556.12 763.91 558.39 761 560.07C758.1 561.75 754.57 562.6 750.42 562.6C746.27 562.6 742.74 561.75 739.81 560.07C736.88 558.39 734.49 556.12 732.64 553.27C730.78 550.43 729.45 547.13 728.62 543.37C727.8 539.61 727.39 535.66 727.39 531.51C727.39 527.36 727.8 523.42 728.62 519.7C729.46 515.97 730.79 512.7 732.64 509.91C734.49 507.12 736.89 504.9 739.81 503.23C742.74 501.58 746.27 500.75 750.42 500.75C754.57 500.75 758.09 501.57 761 503.23C763.859 504.864 766.289 507.153 768.09 509.91C769.91 512.7 771.24 515.97 772.06 519.7C772.9 523.42 773.31 527.36 773.31 531.51ZM551.95 653.42V610.31L541 618.77L533.79 608.91L553.11 594.72H565.8V653.42H551.95ZM600.75 653.42V610.31L589.8 618.77L582.59 608.91L601.91 594.72H614.6V653.42H600.75ZM649.34 653.42V610.31L638.39 618.77L631.19 608.91L650.49 594.72H663.18V653.42H649.33M708.72 623.9C708.72 622.08 708.61 620.07 708.39 617.86C708.194 615.763 707.781 613.692 707.16 611.68C706.55 609.77 705.68 608.17 704.55 606.87C703.41 605.56 701.93 604.92 700.11 604.92C698.29 604.92 696.8 605.57 695.63 606.87C694.47 608.17 693.57 609.77 692.94 611.68C692.31 613.59 691.88 615.64 691.66 617.86C691.43 620.06 691.32 622.08 691.32 623.9C691.32 625.72 691.43 627.84 691.66 630.08C691.88 632.32 692.31 634.39 692.94 636.29C693.57 638.2 694.47 639.8 695.63 641.1C696.8 642.41 698.28 643.05 700.11 643.05C701.94 643.05 703.41 642.4 704.55 641.1C705.68 639.8 706.56 638.2 707.16 636.29C707.76 634.38 708.18 632.32 708.39 630.08C708.61 627.84 708.72 625.78 708.72 623.9ZM722.98 623.9C722.98 628.05 722.57 632 721.73 635.76C720.89 639.52 719.57 642.82 717.74 645.67C715.92 648.51 713.56 650.78 710.65 652.46C707.75 654.15 704.24 654.99 700.09 654.99C695.94 654.99 692.41 654.16 689.48 652.46C686.55 650.78 684.16 648.51 682.31 645.67C680.45 642.82 679.12 639.52 678.29 635.76C677.47 632 677.05 628.05 677.05 623.9C677.05 619.75 677.47 615.82 678.29 612.09C679.13 608.35 680.46 605.1 682.31 602.31C684.17 599.51 686.56 597.29 689.48 595.62C692.41 593.97 695.94 593.14 700.09 593.14C704.24 593.14 707.75 593.97 710.65 595.62C713.55 597.29 715.92 599.51 717.74 602.31C719.57 605.1 720.89 608.35 721.73 612.09C722.57 615.81 722.98 619.76 722.98 623.9ZM579.99 719.22V687.93L572.04 694.06L566.81 686.91L580.84 676.61H590.04V719.22H579.99ZM650.45 719.22V687.93L642.5 694.06L637.26 686.91L651.28 676.61H660.5V719.22H650.45ZM551.83 697.8C551.83 696.48 551.76 695.01 551.59 693.4C551.43 691.81 551.13 690.31 550.68 688.92C550.24 687.54 549.61 686.38 548.79 685.43C547.97 684.5 546.9 684.02 545.58 684.02C544.26 684.02 543.16 684.49 542.33 685.43C541.48 686.38 540.84 687.53 540.37 688.92C539.9 690.31 539.6 691.81 539.44 693.4C539.28 695.01 539.19 696.48 539.19 697.8C539.19 699.12 539.28 700.66 539.44 702.28C539.6 703.9 539.9 705.42 540.37 706.8C540.83 708.18 541.48 709.34 542.33 710.29C543.16 711.24 544.25 711.7 545.58 711.7C546.91 711.7 547.97 711.24 548.79 710.29C549.61 709.34 550.25 708.19 550.68 706.8C551.13 705.42 551.43 703.9 551.59 702.28C551.75 700.66 551.83 699.17 551.83 697.8ZM562.18 697.8C562.18 700.81 561.88 703.68 561.28 706.41C560.68 709.14 559.71 711.54 558.39 713.6C557.101 715.641 555.333 717.336 553.24 718.54C551.14 719.76 548.57 720.37 545.57 720.37C542.57 720.37 539.99 719.76 537.86 718.54C535.73 717.32 534 715.67 532.65 713.6C531.3 711.55 530.34 709.14 529.74 706.41C529.13 703.68 528.83 700.82 528.83 697.8C528.83 694.78 529.13 691.93 529.74 689.23C530.34 686.52 531.31 684.15 532.65 682.12C534 680.1 535.73 678.48 537.86 677.27C539.99 676.07 542.56 675.47 545.57 675.47C548.58 675.47 551.14 676.08 553.24 677.27C555.34 678.48 557.05 680.1 558.39 682.12C559.71 684.15 560.68 686.52 561.28 689.23C561.88 691.93 562.18 694.8 562.18 697.8ZM622.69 697.8C622.69 696.48 622.61 695.01 622.45 693.4C622.29 691.81 621.99 690.31 621.54 688.92C621.11 687.54 620.47 686.38 619.65 685.43C618.83 684.5 617.76 684.02 616.44 684.02C615.12 684.02 614.02 684.49 613.19 685.43C612.35 686.38 611.68 687.53 611.24 688.92C610.76 690.31 610.46 691.81 610.31 693.4C610.15 695.01 610.06 696.48 610.06 697.8C610.06 699.12 610.15 700.66 610.31 702.28C610.46 703.9 610.77 705.42 611.24 706.8C611.69 708.18 612.35 709.34 613.19 710.29C614.03 711.24 615.11 711.7 616.44 711.7C617.77 711.7 618.83 711.24 619.65 710.29C620.47 709.34 621.11 708.19 621.54 706.8C621.99 705.42 622.29 703.9 622.45 702.28C622.61 700.66 622.69 699.17 622.69 697.8ZM633.04 697.8C633.04 700.81 632.74 703.68 632.14 706.41C631.53 709.14 630.57 711.54 629.25 713.6C627.962 715.638 626.198 717.333 624.11 718.54C622.01 719.76 619.44 720.37 616.44 720.37C613.44 720.37 610.86 719.76 608.73 718.54C606.6 717.32 604.87 715.67 603.52 713.6C602.17 711.55 601.2 709.14 600.61 706.41C600 703.68 599.7 700.82 599.7 697.8C599.7 694.78 600 691.93 600.61 689.23C601.21 686.52 602.18 684.15 603.52 682.12C604.87 680.1 606.6 678.48 608.73 677.27C610.86 676.07 613.42 675.47 616.44 675.47C619.46 675.47 622.01 676.08 624.11 677.27C626.21 678.48 627.92 680.1 629.25 682.12C630.57 684.15 631.53 686.52 632.14 689.23C632.74 691.93 633.04 694.8 633.04 697.8ZM767.75 719.22V687.93L759.8 694.06L754.55 686.91L768.58 676.61H777.8V719.22H767.75ZM739.99 697.8C739.99 696.48 739.91 695.01 739.75 693.4C739.59 691.81 739.29 690.31 738.84 688.92C738.41 687.54 737.77 686.38 736.95 685.43C736.13 684.5 735.06 684.02 733.74 684.02C732.42 684.02 731.32 684.49 730.49 685.43C729.65 686.38 729 687.53 728.52 688.92C728.055 690.376 727.747 691.878 727.6 693.4C727.44 695.01 727.35 696.48 727.35 697.8C727.35 699.12 727.44 700.66 727.6 702.28C727.76 703.9 728.08 705.42 728.52 706.8C729 708.18 729.64 709.34 730.49 710.29C731.33 711.24 732.41 711.7 733.74 711.7C735.07 711.7 736.13 711.24 736.95 710.29C737.77 709.34 738.41 708.19 738.84 706.8C739.29 705.42 739.59 703.9 739.75 702.28C739.91 700.66 739.99 699.17 739.99 697.8ZM750.34 697.8C750.34 700.81 750.04 703.68 749.44 706.41C748.83 709.14 747.87 711.54 746.55 713.6C745.262 715.638 743.498 717.333 741.41 718.54C739.31 719.76 736.74 720.37 733.74 720.37C730.74 720.37 728.16 719.76 726.03 718.54C723.9 717.32 722.17 715.67 720.82 713.6C719.47 711.55 718.51 709.14 717.91 706.41C717.3 703.68 717 700.82 717 697.8C717 694.78 717.3 691.93 717.91 689.23C718.51 686.52 719.48 684.15 720.82 682.12C722.17 680.1 723.9 678.48 726.03 677.27C728.16 676.07 730.73 675.47 733.74 675.47C736.75 675.47 739.31 676.08 741.41 677.27C743.51 678.48 745.22 680.1 746.55 682.12C747.87 684.15 748.83 686.52 749.44 689.23C750.04 691.93 750.34 694.8 750.34 697.8ZM729.08 769.43V738.14L721.13 744.28L715.88 737.11L729.91 726.82H739.13V769.43H729.08ZM701.32 748.01C701.32 746.69 701.24 745.22 701.08 743.61C700.92 742.02 700.62 740.52 700.17 739.13C699.73 737.75 699.1 736.59 698.28 735.64C697.46 734.71 696.39 734.23 695.07 734.23C693.75 734.23 692.65 734.7 691.82 735.64C690.98 736.59 690.33 737.74 689.87 739.13C689.41 740.52 689.1 742.02 688.94 743.61C688.78 745.22 688.69 746.69 688.69 748.01C688.69 749.33 688.78 750.87 688.94 752.49C689.1 754.11 689.42 755.63 689.87 757.01C690.33 758.39 690.98 759.55 691.82 760.5C692.66 761.45 693.74 761.91 695.07 761.91C696.4 761.91 697.46 761.45 698.28 760.5C699.1 759.55 699.74 758.4 700.17 757.01C700.62 755.63 700.92 754.11 701.08 752.49C701.24 750.87 701.32 749.38 701.32 748.01ZM711.67 748.01C711.67 751.02 711.37 753.89 710.77 756.62C710.17 759.35 709.2 761.75 707.88 763.82C706.591 765.855 704.827 767.547 702.74 768.75C700.64 769.97 698.07 770.58 695.07 770.58C692.07 770.58 689.49 769.97 687.36 768.75C685.252 767.549 683.465 765.858 682.15 763.82C680.8 761.75 679.84 759.35 679.24 756.62C678.64 753.89 678.33 751.03 678.33 748.01C678.33 744.99 678.64 742.14 679.24 739.44C679.84 736.72 680.81 734.36 682.15 732.33C683.5 730.31 685.23 728.69 687.36 727.49C689.49 726.29 692.06 725.68 695.07 725.68C698.08 725.68 700.64 726.29 702.74 727.49C704.84 728.7 706.56 730.31 707.88 732.33C709.2 734.36 710.17 736.73 710.77 739.44C711.37 742.14 711.67 745.01 711.67 748.01ZM565.94 768.82V747.14L560.43 751.39L556.81 746.42L566.52 739.3H572.91V768.83H565.94M546.71 753.98C546.71 753.06 546.65 752.05 546.55 750.93C546.43 749.82 546.23 748.79 545.92 747.83C545.62 746.87 545.18 746.06 544.61 745.42C544.04 744.76 543.29 744.44 542.38 744.44C541.47 744.44 540.71 744.76 540.13 745.42C539.55 746.07 539.1 746.88 538.77 747.83C538.45 748.79 538.23 749.82 538.12 750.93C538.01 752.05 537.96 753.06 537.96 753.98C537.96 754.9 538.01 755.96 538.12 757.08C538.23 758.21 538.44 759.25 538.77 760.21C539.1 761.17 539.54 761.98 540.13 762.63C540.72 763.29 541.46 763.62 542.38 763.62C543.3 763.62 544.04 763.29 544.61 762.63C545.18 761.98 545.62 761.17 545.92 760.21C546.23 759.25 546.43 758.22 546.55 757.08C546.65 755.96 546.71 754.91 546.71 753.98ZM553.88 753.98C553.88 756.06 553.67 758.05 553.25 759.94C552.83 761.82 552.17 763.49 551.24 764.92C550.32 766.35 549.13 767.48 547.67 768.33C546.21 769.18 544.45 769.61 542.36 769.61C540.27 769.61 538.49 769.18 537.02 768.33C535.55 767.48 534.34 766.35 533.41 764.92C532.48 763.49 531.8 761.82 531.39 759.94C530.97 758.05 530.77 756.06 530.77 753.98C530.77 751.9 530.97 749.91 531.39 748.04C531.8 746.16 532.47 744.51 533.41 743.11C534.34 741.72 535.55 740.58 537.02 739.76C538.49 738.93 540.27 738.5 542.36 738.5C544.45 738.5 546.21 738.92 547.67 739.76C549.14 740.58 550.32 741.72 551.24 743.11C552.16 744.52 552.82 746.16 553.25 748.04C553.66 749.91 553.88 751.89 553.88 753.98ZM652.63 806.75V785.07L647.13 789.32L643.5 784.36L653.22 777.22H659.6V806.75H652.64M633.41 791.9C633.41 790.98 633.35 789.97 633.23 788.85C633.12 787.74 632.92 786.71 632.61 785.75C632.3 784.79 631.86 783.98 631.3 783.33C630.73 782.67 629.98 782.35 629.06 782.35C628.14 782.35 627.39 782.67 626.82 783.33C626.23 783.98 625.77 784.79 625.46 785.75C625.13 786.71 624.92 787.74 624.81 788.85C624.7 789.97 624.63 790.98 624.63 791.9C624.63 792.82 624.69 793.88 624.81 795C624.92 796.13 625.13 797.17 625.46 798.14C625.77 799.1 626.23 799.9 626.82 800.56C627.39 801.21 628.15 801.53 629.06 801.53C629.97 801.53 630.73 801.21 631.3 800.56C631.86 799.9 632.29 799.1 632.61 798.14C632.92 797.17 633.12 796.13 633.23 795C633.34 793.88 633.41 792.85 633.41 791.9ZM640.58 791.9C640.58 793.98 640.37 795.97 639.95 797.87C639.54 799.76 638.87 801.42 637.96 802.85C637.04 804.28 635.86 805.43 634.39 806.28C632.93 807.13 631.16 807.54 629.07 807.54C626.98 807.54 625.21 807.13 623.74 806.28C622.26 805.43 621.06 804.28 620.13 802.85C619.2 801.42 618.52 799.76 618.11 797.87C617.69 795.98 617.48 793.98 617.48 791.9C617.48 789.82 617.69 787.82 618.11 785.96C618.52 784.08 619.19 782.44 620.13 781.04C621.06 779.63 622.26 778.51 623.74 777.68C625.21 776.84 626.99 776.43 629.07 776.43C631.15 776.43 632.93 776.84 634.39 777.68C635.86 778.51 637.04 779.63 637.96 781.04C638.87 782.44 639.54 784.08 639.95 785.96C640.37 787.83 640.58 789.82 640.58 791.9ZM771.65 748.01C771.65 746.69 771.57 745.22 771.41 743.61C771.25 742.02 770.95 740.52 770.5 739.13C770.06 737.75 769.43 736.59 768.61 735.64C767.79 734.71 766.72 734.23 765.4 734.23C764.08 734.23 762.98 734.7 762.15 735.64C761.3 736.59 760.65 737.74 760.2 739.13C759.74 740.52 759.43 742.02 759.27 743.61C759.11 745.22 759.03 746.69 759.03 748.01C759.03 749.33 759.1 750.87 759.27 752.49C759.43 754.11 759.74 755.63 760.2 757.01C760.66 758.39 761.31 759.55 762.15 760.5C762.99 761.45 764.08 761.91 765.4 761.91C766.72 761.91 767.79 761.45 768.61 760.5C769.43 759.55 770.07 758.4 770.5 757.01C770.95 755.63 771.25 754.11 771.41 752.49C771.57 750.87 771.65 749.38 771.65 748.01ZM782.01 748.01C782.01 751.02 781.7 753.89 781.1 756.62C780.5 759.35 779.53 761.75 778.21 763.82C776.921 765.855 775.157 767.547 773.07 768.75C770.97 769.97 768.41 770.58 765.4 770.58C762.39 770.58 759.82 769.97 757.69 768.75C755.584 767.547 753.798 765.856 752.48 763.82C751.13 761.75 750.16 759.35 749.57 756.62C748.97 753.89 748.66 751.03 748.66 748.01C748.66 744.99 748.97 742.14 749.57 739.44C750.17 736.72 751.14 734.36 752.48 732.33C753.83 730.31 755.57 728.69 757.69 727.49C759.82 726.29 762.38 725.68 765.4 725.68C768.42 725.68 770.97 726.29 773.07 727.49C775.17 728.7 776.89 730.31 778.21 732.33C779.53 734.36 780.5 736.73 781.1 739.44C781.7 742.14 782.01 745.01 782.01 748.01ZM752.24 460.35C742.41 412.34 699.65 377.48 650.56 377.48C643.09 377.48 635.74 378.33 628.57 379.87C616.64 309.88 555.6 256.42 482.26 256.42C408.92 256.42 349.02 308.9 336.3 377.93C283.5 382.74 242 427.23 242 481.26C242 538.48 288.56 585.03 345.78 585.03H501.05C508.97 585.03 515.4 578.61 515.4 570.68C515.4 562.75 508.97 556.33 501.05 556.33H345.78C304.38 556.33 270.7 522.65 270.7 481.26C270.7 439.87 304.38 406.18 345.78 406.18C360.83 406.18 375.34 410.6 387.74 418.99C394.32 423.42 403.23 421.7 407.67 415.14C412.11 408.57 410.37 399.64 403.81 395.21C392.09 387.29 379 381.99 365.26 379.38C376.98 325.56 424.97 285.13 482.26 285.13C543.29 285.13 593.76 331.02 601.07 390.09C597.22 392.18 593.46 394.47 589.86 397.08C583.43 401.72 581.99 410.68 586.62 417.11C591.27 423.54 600.24 424.98 606.66 420.35C619.49 411.08 634.67 406.19 650.55 406.19C686.07 406.19 717 431.39 724.1 466.13C725.5 472.92 731.48 477.6 738.15 477.6C739.09 477.6 740.07 477.5 741.04 477.3C748.8 475.72 753.81 468.13 752.23 460.36" fill="white"/>
</g>
<defs>
<clipPath id="clip0_2_3741">
<rect width="1024" height="1024" fill="white"/>
</clipPath>
</defs>
</svg>
