<svg width="1024" height="1024" viewBox="0 0 1024 1024" fill="none" xmlns="http://www.w3.org/2000/svg">
<g clip-path="url(#clip0_2_3747)">
<path d="M512 1024C794.77 1024 1024 794.77 1024 512C1024 229.23 794.77 0 512 0C229.23 0 0 229.23 0 512C0 794.77 229.23 1024 512 1024Z" fill="#54688C"/>
<path d="M206.169 565.34C183.949 565.34 167.389 553.91 167.389 526.56V482.76H147.199V459.05C169.419 453.28 178.709 434.16 179.779 417.6H202.849V455.2H229.769V482.76H202.849V520.9C202.849 532.33 208.619 536.28 217.849 536.28H230.849V565.34H206.169ZM288.739 566.62C301.339 566.62 315.869 561.17 323.739 551.45V565.34H365.289V541.73H354.759V455.2H304.559V479.2H318.869V520.9C318.869 524.21 316.089 538.21 297.289 538.21C285.219 538.21 282.969 530.95 282.969 521.76V455.2H245.999V523.2C245.999 540.23 253.699 566.62 288.739 566.62ZM378.579 565.34H439.359V541.73H426.999V500.6C426.999 494.6 432.129 482.33 447.719 482.33C460.319 482.33 462.889 490.02 462.889 499.1V541.72H450.579V565.33H510.929V541.73H498.329V500.6C498.329 494.6 502.919 482.33 518.629 482.33C531.339 482.33 534.439 490.02 534.439 499.1V541.72H522.359V565.33H582.359V541.73H570.109V503.27C570.109 480.62 561.559 453.92 527.809 453.92C511.149 453.92 497.469 461.82 491.699 471.55C484.439 460.55 473.429 453.92 456.979 453.92C443.979 453.92 429.629 459.47 421.979 470.05V455.2H376.339V479.2H391.079V541.69H378.579V565.34ZM659.519 566.62C690.279 566.62 706.839 543.55 706.839 508.94C706.839 475.72 691.459 453.94 660.159 453.94C649.159 453.94 638.159 458.11 631.529 463.23V417.6H580.689V441.42H595.429V565.34H629.289V555.62C637.724 562.788 648.45 566.691 659.519 566.62ZM651.829 539.81C641.039 539.81 630.459 532.97 630.459 511.4C630.459 485.4 642.959 480.85 651.609 480.85C661.609 480.85 670.519 488.97 670.519 509.16C670.519 538.21 657.489 539.17 651.829 539.81ZM713.469 565.34H774.679V541.73H761.679V417.6H711.219V441.42H725.999V541.72H713.499L713.469 565.34ZM788.029 565.34H848.169V541.73H835.889V511C835.889 490.07 850.629 485.47 861.889 485.47H876.889V453.92H864.729C851.059 453.92 838.449 460.54 832.789 471.12V455.2H786.999V479.2H800.249V541.69H787.999L788.029 565.34Z" fill="white"/>
</g>
<defs>
<clipPath id="clip0_2_3747">
<rect width="1024" height="1024" fill="white"/>
</clipPath>
</defs>
</svg>
