<svg width="1024" height="1024" fill="none" xmlns="http://www.w3.org/2000/svg"><g clip-path="url(#a)"><path d="M512 1024c282.77 0 512-229.23 512-512S794.77 0 512 0 0 229.23 0 512s229.23 512 512 512Z" fill="#FF837D"/><path d="M512 256c-141.653 0-256 114.347-256 256 0 141.653 114.347 256 256 256 141.653 0 256-114.347 256-256 0-141.653-114.347-256-256-256Zm0 443.733c-104.107 0-187.733-83.626-187.733-187.733S407.893 324.267 512 324.267 699.733 407.893 699.733 512 616.107 699.733 512 699.733Zm116.053-250.88c0 29.014-23.893 52.907-52.906 52.907-29.014 0-52.907-23.893-52.907-52.907 0-29.013 23.893-52.906 52.907-52.906 29.013 0 52.906 23.893 52.906 52.906Zm0 126.294c0 29.013-23.893 52.906-52.906 52.906-29.014 0-52.907-23.893-52.907-52.906 0-29.014 23.893-52.907 52.907-52.907 29.013 0 52.906 23.893 52.906 52.907Zm-126.293 0c0 29.013-23.893 52.906-52.907 52.906-29.013 0-52.906-23.893-52.906-52.906 0-29.014 23.893-52.907 52.906-52.907 29.014 0 52.907 23.893 52.907 52.907Zm0-126.294c0 29.014-23.893 52.907-52.907 52.907-29.013 0-52.906-23.893-52.906-52.907 0-29.013 23.893-52.906 52.906-52.906 29.014 0 52.907 23.893 52.907 52.906Z" fill="#fff"/></g><defs><clipPath id="a"><path fill="#fff" d="M0 0h1024v1024H0z"/></clipPath></defs></svg>