<svg width="1024" height="1024" fill="none" xmlns="http://www.w3.org/2000/svg"><g clip-path="url(#a)"><path d="M512 1024c282.77 0 512-229.23 512-512S794.77 0 512 0 0 229.23 0 512s229.23 512 512 512Z" fill="#BD9AFF"/><path d="M692.9 535 617 607h-76l-66.5 63v-63H389V337.2h303.9V535ZM370 301.2l-95 89.9v323.8h114v89.9l95-89.9h76L730.9 553V301.2H370ZM636 403h-38v107.9h38V403Zm-142.5-.5h38v107.9h-38V402.5Z" fill="#fff"/></g><defs><clipPath id="a"><path fill="#fff" d="M0 0h1024v1024H0z"/></clipPath></defs></svg>