<svg width="1024" height="1024" viewBox="0 0 1024 1024" fill="none" xmlns="http://www.w3.org/2000/svg">
<g clip-path="url(#clip0_2_3768)">
<path d="M512 1024C794.77 1024 1024 794.77 1024 512C1024 229.23 794.77 0 512 0C229.23 0 0 229.23 0 512C0 794.77 229.23 1024 512 1024Z" fill="#56595B"/>
<path d="M783.3 418.1C782 420.1 779.3 422.1 775.2 424.2C768.7 427.3 762.1 430.7 755.2 434.1C748.4 437.6 741.1 441.4 733.4 445.5C732.6 450.2 731.7 455.3 730.9 460.7C730.1 466.1 729.1 471.6 728.1 477C733.4 474.3 738.9 471.8 744.4 469.5L745.7 469C749.4 467.6 752.4 467 754.7 467.3C757 467.6 759.2 469 761.1 471.6V471.4C763.1 473.7 764.6 476 765.7 478.3C766.8 480.6 767.8 483 768.9 485.4L768.7 485.3C769.5 487 770 488.4 770.2 489.5C770.6 491.6 770.1 493.6 768.9 495.5C767.7 497.4 765.9 499.1 763.7 500.8C761.5 502.4 758.9 504.1 755.8 505.7C752.8 507.3 749.6 509 746.4 510.8L746.6 510.7C741.9 513.5 737.4 516.2 733 518.8C728.6 521.4 724.2 524 720 526.7C719.4 529.6 718.8 532.7 718.3 536C717.8 539.3 717.6 542.2 717.7 544.5C722.4 541.8 727.2 539.1 732.2 536.4C737.2 533.7 742.6 531.2 748.3 529.1C751.7 527.8 754.6 527.4 756.9 527.9C759.2 528.4 761.2 530 762.8 532.5V532.3C764.8 534.7 766.7 537.5 768.5 540.7C770.3 543.9 771.5 547.1 772 550.3C772.5 553.2 772.1 555.4 770.9 557.1C769.7 558.8 767.3 560.7 763.8 562.8C756 567.7 747.9 572.6 739.7 577.7C731.5 582.8 723.5 587.7 715.8 592.5L716 592.2C712.6 594.4 709.7 596 707.3 596.9C704.5 598 702 598.5 699.8 598.6C697.6 598.6 695.5 598.3 693.5 597.5C691.5 596.7 689.4 595.7 687.2 594.5C685 593.3 682.7 591.8 680.1 590.1V590.3C678 589.1 676.3 587.6 674.9 585.7C673.5 583.8 672.6 581.3 672 578C671.7 576.1 671.6 574.2 671.6 572.2L684.1 435L686.1 431.4C691 428.2 696.3 424.8 702.1 421.2C707.9 417.6 714 414 720.3 410.3C726.6 406.7 733.2 403.1 739.8 399.6C746.5 396.1 753.2 393 759.8 390.1L760.7 389.7C764.8 388.1 768 387.8 770.5 388.5C773 389.3 775.1 391.1 776.7 393.9V393.7C778.4 396.1 779.7 398.1 780.5 399.8C781.3 401.5 782.1 403.3 782.8 405.3L782.6 405.2C783.4 406.6 783.9 408.2 784.2 410C785 413.5 784.6 416.2 783.3 418.1ZM665.6 490.7C665.4 491 665.3 491.3 665.2 491.6C664.8 493.8 664.1 495.7 663.3 497.1C662.5 498.6 660.5 499.8 657.5 500.8C656.9 501 656.3 501.2 655.6 501.5C654.9 501.7 654.1 501.9 653.3 501.9C649.3 502.4 645.8 502.5 643 502.1C640.2 501.7 637.8 500.8 635.8 499.4C633.8 498.1 632.2 496.3 631 494C629.7 491.7 628.7 489 628 485.9C627.7 483.7 627.5 481.4 627.4 479C627.3 476.6 627.1 474.6 626.9 472.8C626.7 471.5 626.5 470.4 626.1 469.3C625.7 468.3 625.2 467.6 624.6 467.3C622.9 468 620.9 470.5 618.5 474.8C616.2 479.1 613.8 484.2 611.5 490.2C609.2 496.1 607 502.5 605 509.3C603 516.1 601.4 522.4 600.2 528.2C598.7 535.7 597.8 543.1 597.4 550.3C597 557.5 597.1 563.7 597.8 568.9C598.2 572.3 598.9 575 599.7 577.1C600.6 579.2 601.7 580.3 603.2 580.4L603.9 580.2C607.5 579 612.7 572.6 619.5 561C624.5 552.9 630.7 547.6 638.2 544.9C639.8 544.3 641.5 543.9 643.2 543.6C644.9 543.3 646.7 543.1 648.6 543.1C651.7 543 654.1 543.6 655.6 544.8C657.1 546 658.1 547.8 658.4 550.2C658.6 551.8 658.5 553.7 658 555.7C657.5 557.8 657 560 656.3 562.3C652.8 573.8 647.5 584 640.3 592.8C633.1 601.7 624 608 612.9 611.9C612 612.2 611.2 612.5 610.5 612.7C609.8 612.9 609.2 613.1 608.6 613.2L608.8 613.1C603.5 614.3 598.7 614.9 594.4 615C590.1 615 586.1 615 582.6 614.8L582.8 614.7C581 614.8 579.1 614.6 577.1 614C575.1 613.4 573.1 612.5 571.2 611.3C569.3 610.1 567.6 608.7 566 607.1C564.4 605.4 563.1 603.7 562.2 601.8V602.2C560.4 599.3 558.9 595.8 557.7 591.9C556.5 588 555.7 583.7 555.1 579.1C554.2 571.9 554 563.7 554.7 554.5C555.3 545.3 556.7 535.7 558.8 525.8C560.9 515.9 563.7 506 567.1 496.3C570.6 486.5 574.6 477.5 579.3 469.2C584 460.9 589.2 453.7 595.1 447.7C601 441.6 607.3 437.4 614.3 435C614.9 434.8 615.5 434.6 616 434.4C616.7 434.2 617.3 434 617.9 433.9L617.7 434C620.6 433.4 623.7 432.8 626.9 432.5C630.1 432.1 633.2 432 636.2 432C639.2 432.1 642.1 432.3 644.9 432.8C647.7 433.3 650.1 433.9 652.1 434.8C657.3 436.9 660.9 439.7 662.8 443.2C664.7 446.7 665.9 450.9 666.6 455.7C666.9 458.3 667.2 461.1 667.3 464.2C667.4 467.3 667.5 470.4 667.4 473.5C667.3 476.6 667.1 479.6 666.8 482.6C666.5 485.6 666.1 488.3 665.6 490.7ZM537.6 619C534.5 619.8 531.7 620.5 529.1 621C526.5 621.5 523.7 621.5 520.8 621L521 621.1C517.5 620.9 515.1 620 513.8 618.4C512.4 616.8 511.5 613.7 511 609.1C510.4 603.5 509.8 596.9 509.4 589.3L508.9 585.9C501.5 589.1 494.3 592.3 487.2 595.5C480.1 598.7 473.9 601.8 468.5 604.8C466.9 608.5 465.5 612.5 464.1 616.7C462.7 620.9 461.3 624.9 459.8 628.5C458.3 632.2 456.9 635.3 455.3 637.8C453.8 640.3 452 641.9 450.1 642.4C448.4 642.9 446.4 642.9 444.3 642.6L442.3 642.1L436.9 640.6C435.1 640 433.5 639.3 432 638.5C430.6 637.6 429.4 636.6 428.4 635.4C427.4 634.2 426.9 632.6 426.8 630.8C426.7 629.5 426.8 628.1 427 626.5C427.2 624.9 427.6 623 428.3 620.8C431.5 610.9 435.5 599.6 440.1 587C444.8 574.3 449.7 561.3 454.9 548.1C460.1 534.9 465.3 521.9 470.5 509.4C475.7 496.8 480.6 485.8 485 476.3C486.7 472.8 488.8 469.6 491.2 466.9C493.7 464.2 497.1 462.2 501.6 460.9C509.1 458.8 515.5 457.8 520.6 457.7C525.8 457.6 530.3 457.8 534.2 458.1L537.2 458.2C540.7 458.6 543 459.5 544.3 461.1C545.6 462.7 546.3 465 546.5 468C546.5 468.6 546.6 469.2 546.6 469.9C546.6 470.5 546.6 471.1 546.5 471.7V471.5C546.1 479.4 545.8 488.8 545.7 499.6C545.6 510.4 545.6 521.8 545.6 533.9C545.7 545.9 545.8 558.2 546.1 570.8C546.4 583.3 546.6 595.2 546.9 606.5C547.1 610.2 546.6 613 545.4 614.7C544.3 616.5 541.7 617.9 537.6 619ZM507.4 509.3C504.4 516.4 501.1 523.9 497.8 531.9C494.4 539.9 491 548.1 487.6 556.6C491 555.1 494.3 553.7 497.5 552.5L507.4 548.9C507.4 542.2 507.3 535.5 507.3 528.9C507.3 522.3 507.3 515.8 507.4 509.3ZM510.4 388V387.9C508.2 393.6 504.6 399.3 499.7 404.9C494.8 410.5 489 416.2 482.2 421.8C483.5 423.4 484.9 425.2 486.4 426.9C487.9 428.7 489.4 430.4 491 432.1C492.6 433.8 494.1 435.5 495.6 437C497.1 438.5 498.6 439.9 499.9 441.1V441C501.3 442.2 502 443.6 502 445.2C502 446.3 501.7 447.4 501 448.5C500.3 449.6 499.5 450.6 498.6 451.5C497.7 452.4 496.8 453.1 495.8 453.8C494.9 454.5 494.2 454.9 493.6 455.1L493.7 455C492.9 455.4 492.2 455.8 491.5 456.2C490.8 456.6 490 456.9 489.2 457.1C488 457.4 486.7 457.5 485.3 457.4C483.9 457.3 482.4 456.8 480.9 455.9C479.6 455 478.2 453.9 476.6 452.5C475 451.2 473.4 449.7 471.7 448C470 446.4 468.3 444.6 466.7 442.8C465 441 463.5 439.1 462 437.1C460.9 441.6 459.9 445.9 458.8 450.1C457.8 454.3 456.8 458.5 455.8 462.8C455.4 464.4 454.9 465.6 454.2 466.5C453.5 467.4 452.6 468.1 451.3 468.4C450.5 468.6 449.7 468.7 448.9 468.6C447.4 468.5 445.9 468.4 444.5 468.3C443.1 468.2 441.8 468 440.8 467.6C439.7 467.2 438.9 466.5 438.2 465.5C437.6 464.5 437.2 463 437.2 461C437.2 460 437.3 458.8 437.5 457.5C437.9 455 438.6 451.3 439.5 446.4C440.4 441.5 441.4 436 442.5 430.1C443.6 424.2 444.8 418 446.1 411.6C447.4 405.2 448.8 399.3 450.1 393.8C451.5 388.3 452.9 383.6 454.3 379.7C455.7 375.8 457 373.3 458.3 372.3C460.7 370.4 463.1 368.5 465.7 366.6C468.3 364.7 470.8 362.9 473.4 361.3C476 359.7 478.5 358.2 481.1 357C483.6 355.7 486 354.8 488.3 354.2C491 353.5 493.6 353.3 496 353.6C498.5 353.9 500.6 355 502.4 356.9C503.5 358.1 504.6 359.4 505.7 360.8C506.8 362.2 507.8 363.9 508.8 365.7C509.7 367.5 510.5 369.6 511.1 371.9C511.7 374.2 512 376.7 512 379.5C512 381.1 511.9 382.6 511.6 384C511.3 385.3 510.9 386.7 510.4 388ZM491.5 379.2C491.2 378.3 489.7 378.2 487.2 378.9C485.7 379.3 484.1 379.9 482.2 380.9C480.3 381.8 478.4 383 476.4 384.6C475.5 387.4 474.6 390.4 473.8 393.6C472.9 396.8 472 400.1 471.1 403.6V403.5C471 404 470.8 404.5 470.7 404.9C470.6 405.4 470.4 405.9 470.3 406.4C473.6 403.9 476.5 401.3 479.2 398.6C481.9 395.9 484.1 393.3 485.9 390.8C487.7 388.3 489.1 386.1 490.1 384C491.1 382 491.6 380.4 491.6 379.3V379.2H491.5ZM445.2 388.8C444.5 389.8 443.1 390.7 441 391.5C437.8 392.7 434.4 394 431 395.4C427.6 396.8 423.9 398.3 420.1 400C419.4 402.6 418.6 405.4 417.8 408.3C417 411.3 416.2 414.3 415.3 417.2C418 416.1 420.7 415.2 423.4 414.4L424.1 414.2C425.9 413.7 427.3 413.7 428.4 414C429.5 414.4 430.3 415.4 431 417C431.7 418.5 432.3 419.9 432.6 421.3L433.5 425.5L433.4 425.4C433.6 426.4 433.8 427.2 433.8 427.9C433.8 429.1 433.4 430.2 432.7 431.2C432 432.2 431.1 433 429.9 433.7C428.7 434.4 427.4 435.1 425.9 435.8C424.4 436.5 422.8 437.2 421.2 437.9H421.3C418.9 439.1 416.6 440.3 414.4 441.3L407.8 444.6C407.3 446.2 406.8 447.9 406.3 449.7C405.8 451.5 405.5 453.1 405.4 454.4C407.8 453.3 410.2 452.1 412.7 451C415.2 449.9 417.9 449 420.7 448.2C422.4 447.7 423.7 447.8 424.8 448.2C425.8 448.7 426.6 449.7 427.2 451.3V451.2C427.9 452.7 428.6 454.4 429.2 456.4C429.8 458.3 430.1 460.2 430.1 462.1C430.1 463.8 429.8 465 429.1 465.8C428.4 466.6 427.2 467.5 425.4 468.4C421.4 470.5 417.3 472.6 413.1 474.8C408.9 477 404.8 479.1 400.9 481.2L401 481.1C399.3 482.1 397.8 482.7 396.6 483C395.2 483.4 394 483.5 393 483.3C392 483.1 391 482.8 390.2 482.2C389.3 481.6 388.4 480.9 387.5 480C386.6 479.1 385.6 478.1 384.6 477V477.1C383.7 476.3 383 475.2 382.5 474.1C382 472.9 381.8 471.4 381.8 469.6C381.8 468.5 381.9 467.4 382.1 466.3L398 390L399.2 388.2C401.7 386.8 404.4 385.3 407.4 383.8C410.4 382.2 413.4 380.7 416.6 379.2C419.8 377.7 423.1 376.2 426.4 374.8C429.8 373.4 433.1 372.2 436.4 371.1L436.9 371C438.9 370.5 440.4 370.5 441.5 371.2C442.6 371.8 443.4 373 444 374.7V374.6C444.6 376.1 445.1 377.3 445.3 378.3C445.5 379.3 445.8 380.4 446 381.6L445.9 381.5C446.2 382.4 446.3 383.3 446.3 384.3C446.3 386.3 445.9 387.8 445.2 388.8ZM380 434.8C378.9 436.1 377.7 437.5 376.6 438.8C375.5 440.1 374.2 441.5 372.8 442.9C374.6 444.2 376.1 446.1 377.2 448.6C378.3 451.1 378.9 453.8 378.9 456.5C378.9 459.8 378.3 462.8 377.1 465.5C375.9 468.2 374.1 471 371.8 474H371.9C370.3 476.3 368.3 478.6 366 480.8C363.7 483 361.3 485.2 358.8 487.2C356.3 489.2 353.8 491.1 351.2 492.9C348.7 494.7 346.3 496.2 344 497.6H344.1C342 499 340.2 499.9 338.8 500.3C337.7 500.6 336.8 500.6 335.9 500.5C335 500.3 334 499.9 333 499.3C331.3 498.8 329.6 498.1 327.9 497.1C326.2 496.2 324.7 494.7 323.3 492.8L323.4 492.9C322.6 491.8 321.9 490.9 321.5 490C321 489.1 320.8 487.9 320.8 486.4C320.8 485.7 320.8 485 320.9 484.4C321 483.7 321.1 483 321.2 482.2C321.9 477.3 322.8 472 324 466.2C325.2 460.4 326.3 454.5 327.5 448.4C328.7 442.3 329.8 436.2 330.9 430.2C332 424.1 332.9 418.4 333.5 412.9C335.6 411.1 338 409.3 340.6 407.5C343.2 405.7 345.9 404 348.7 402.5C351.5 400.9 354.3 399.5 357.1 398.3C360 397.1 362.7 396.1 365.3 395.4C368.7 394.5 371.8 394.1 374.7 394.2C377.6 394.3 379.8 395.1 381.4 396.7C382.3 397.7 383.3 398.7 384.1 399.9C385 401.1 385.8 402.3 386.5 403.8C387.2 405.2 387.8 406.8 388.2 408.5C388.6 410.2 388.8 412 388.8 414C388.8 417.7 387.9 421.4 386.2 425C384.6 428.3 382.5 431.7 380 434.8ZM344.7 462C344.1 464.5 343.5 467 343 469.2C342.4 471.5 341.9 473.8 341.3 476.1C343.8 474.5 346 472.9 348.1 471.3C350.1 469.6 351.9 468 353.3 466.5C354.7 464.9 355.9 463.5 356.7 462.1C357.5 460.7 357.9 459.5 357.9 458.5C357.8 458 357.3 457.7 356.5 457.5C355.7 457.4 354.5 457.5 353 457.9C350.7 458.5 348 459.9 344.7 462ZM366.4 416.2C365 416.6 363.3 417.3 361.4 418.4C359.5 419.5 357.3 420.9 355 422.7C354.4 424.7 353.8 426.8 353.3 428.9C352.7 431.1 352.2 433.3 351.6 435.7C351.3 436.6 351.1 437.4 350.9 438.1C353.7 436 356.3 433.9 358.6 431.7C360.9 429.5 362.9 427.4 364.5 425.4C366.1 423.4 367.4 421.6 368.2 420C369.1 418.4 369.5 417.2 369.5 416.3C369.4 415.6 368.4 415.6 366.4 416.2ZM327 423.5C325.1 433.4 323.1 442.7 321.1 451.4C319.1 460.1 317 468 314.8 475C312.6 482.1 310.2 488.2 307.6 493.5C305 498.8 302.2 502.9 299.1 506C297.3 507.6 295.4 508.9 293.6 510C291.7 511 289.7 511.8 287.5 512.4C281.8 513.9 277.1 514.1 273.2 512.8C269.4 511.6 266.5 508.6 264.7 503.8C263.6 500.8 263.1 497 263.1 492.3C263.1 488.1 263.5 483.3 264.3 478C265.1 472.7 266.2 467.2 267.6 461.6C268.9 455.9 270.4 450.3 272.1 444.5C273.8 438.7 275.4 433.4 277 428.2C277.6 426.5 278.2 425.1 278.9 424.3C279.6 423.4 280.5 422.8 281.7 422.5C283.1 422.1 284.6 422.1 286.3 422.4C288 422.7 289.6 423.2 291.1 424C292.6 424.8 293.9 425.9 294.9 427.2C295.9 428.5 296.4 430 296.4 431.8C296.4 433.1 296.1 434.5 295.6 436.1L295.7 436C294.4 440.1 293 444.7 291.5 449.8C290 454.9 288.7 459.9 287.4 465C286.1 470.1 285.1 474.9 284.2 479.4C283.4 483.9 283 487.6 283 490.5C283 492 283.1 493.2 283.3 494.1C283.5 495 283.9 495.3 284.5 495.2C285.8 494.9 287.1 493.3 288.5 490.5C289.9 487.7 291.3 484.1 292.7 479.8C294.1 475.5 295.5 470.6 296.9 465.2C298.3 459.8 299.6 454.4 300.9 448.9C302.2 443.4 303.3 438.1 304.4 433C305.5 427.9 306.4 423.4 307.1 419.5L307 419.7C307.3 417.8 307.9 416.3 308.8 415.4C309.7 414.4 310.8 413.8 312 413.4C312.9 413.2 313.8 413.1 314.8 413.2C315.8 413.3 316.8 413.5 317.9 413.7C319 413.9 320 414.3 321.1 414.6C322.2 415 323.1 415.3 324.1 415.7C325.4 416.3 326.2 416.9 326.7 417.6C327.2 418.3 327.4 419.2 327.4 420.3C327.4 420.8 327.4 421.3 327.3 421.8C327.3 422.2 327.2 422.8 327 423.5ZM265.1 555.4C267.5 550.7 270.2 546.2 273.3 541.7C276.4 537.2 279.7 533 283.2 528.9C286.7 524.8 290.2 521.4 293.5 518.5L293.2 518.7C294.9 516.8 297.2 515.1 300.1 513.5C302.9 511.9 306 510.8 309.4 510.1C311.7 509.6 314.2 509.5 317 509.8C319.8 510 322.7 510.6 325.6 511.4C328.5 512.2 331.3 513.3 333.9 514.8C336.5 516.2 338.8 517.8 340.7 519.6C343.6 522.4 345.4 525.4 346.1 528.7C346.8 532 347.2 535.2 347.1 538.3L347 542.4C346.6 545.1 346 548.3 345.2 552C344.4 555.7 343.5 559.5 342.5 563.4C341.5 567.3 340.3 571 339.1 574.7C337.9 578.4 336.7 581.6 335.5 584.4C334.4 586.5 333.4 588.1 332.3 589.4C331.2 590.6 329.9 591.4 328.3 591.8C327 592.1 325.4 592 323.6 591.4L323.7 591.5C311.8 588.8 306 582.8 306.1 573.4C306.1 572.3 306.4 570.6 307 568.3C307.5 566 308.2 563.4 308.9 560.7C309.6 558 310.3 555.2 310.9 552.4C311.5 549.6 312 547.3 312.2 545.4C312.1 545.5 312 545.6 311.9 545.6L311.8 545.8C310.1 547.1 308.1 549.1 306 551.7C303.9 554.3 301.9 557.2 300 560.3C298.1 563.4 296.5 566.8 295.2 570.2C293.9 573.7 293.3 576.9 293.2 580C293.2 583.4 294 586.1 295.8 588.1V587.9C299.2 591.4 303 594.6 307.2 597.2C311.5 599.9 315.4 602.6 319.2 605.3C322.9 608 326.1 611 328.7 614.2C331.3 617.4 332.5 621.4 332.5 626C332.5 629.2 331.7 632.5 330.2 636.1V635.9C329 639 327.4 642.3 325.4 645.9C323.4 649.5 320.8 653 317.5 656.4C314.3 659.8 310.4 663 305.8 665.9C301.2 668.8 295.9 670.9 289.6 672.3L287.7 672.7C279.9 674.3 272.4 673.8 265.4 671.1C258.4 668.5 251.5 663.1 244.9 655C241 650.8 239 647.2 239 644.1V643.8C239.2 640.3 240.8 637.3 243.7 634.9L244 634.7C247.4 632.3 251 630.7 254.8 629.9C257.3 629.4 259.6 629.3 261.8 629.5C264 629.8 265.9 630.5 267.6 631.7C272.6 634.9 277.2 637.2 281.2 638.5C285.3 639.8 288.8 640.1 291.8 639.5C294 639.1 295.7 638.2 297 636.8C296.8 635.5 295.4 633.9 292.6 631.8C289.9 629.7 286.7 627.5 283 625.1C279.6 622.9 276.2 620.6 272.9 618.4C269.6 616.2 266.7 613.6 264.1 610.7C261.5 607.8 259.5 604.4 257.9 600.6C256.4 596.7 255.7 592.2 255.7 587C255.8 581.6 257 575.4 259.5 568.5L259.4 568.7C261 564.4 262.7 560.1 265.1 555.4ZM340 624.2C341.5 617.3 343.1 609.5 344.7 600.8C346.3 592.1 348 583.1 349.7 573.7C351.4 564.4 353.1 555.7 354.7 547.7C356.3 539.7 357.9 533 359.5 527.4C361.1 521.9 362.5 518.6 363.8 517.5C367.6 514.6 371.7 511.6 376.1 508.5C380.5 505.4 385.1 502.5 389.8 499.7C394.5 496.9 399.2 494.5 403.9 492.5C408.6 490.4 413 489 417.3 488.1C421.5 487.3 425.3 487.1 428.7 487.7C432.1 488.3 435.1 489.9 437.7 492.5C439.3 494.2 440.9 496.2 442.6 498.5C444.3 500.8 445.8 503.4 447.2 506.2C448.6 509 449.7 512.1 450.6 515.5C451.5 518.9 451.9 522.5 451.9 526.5C451.8 532.5 450.4 538.1 447.8 543.3C445.1 548.5 442 553.6 438.3 558.6C434.8 563.3 430.6 567.9 425.9 572.7C421.1 577.4 416 582 410.5 586.4C405 590.8 399.2 595 393.2 598.9C387.2 602.9 381.2 606.5 375.2 609.7C373.4 616.8 371.7 623.8 370 630.6C368.3 637.4 366.7 644.2 365.2 650.9C364.3 653.3 363.3 655.2 362.3 656.5C361.3 657.8 359.8 658.7 357.7 659.1C356.4 659.4 355.1 659.5 353.8 659.4C351.4 659 349.1 658.6 346.7 658.1C344.3 657.7 342.2 657 340.4 656.2C338.6 655.3 337.1 654.1 336 652.5C334.9 650.9 334.4 648.7 334.4 645.9C334.4 644.2 334.9 641.9 335.7 639.1C337 636.1 338.4 631.1 340 624.2ZM401.1 555.4C405.2 551.6 408.6 547.9 411.4 544.4C414.2 540.9 416.3 537.6 417.8 534.5C419.3 531.4 420 528.9 420 526.7C420 526.5 420.1 526.2 420.2 525.9C420.3 525.6 420.2 525.3 420 525.1C419.8 524.9 419.2 524.8 418.4 524.8C417.6 524.8 416.3 525 414.5 525.3C412.2 525.8 409.5 526.6 406.5 527.9C403.4 529.2 400.2 531 397 533.2C395.5 538.2 393.9 543.5 392.3 548.9C390.7 554.3 389 560.1 387.3 566.2C392.3 562.9 397 559.2 401.1 555.4Z" fill="white"/>
</g>
<defs>
<clipPath id="clip0_2_3768">
<rect width="1024" height="1024" fill="white"/>
</clipPath>
</defs>
</svg>
