<svg width="1024" height="1024" viewBox="0 0 1024 1024" fill="none" xmlns="http://www.w3.org/2000/svg">
<g clip-path="url(#clip0_2_3771)">
<path d="M512 1024C794.77 1024 1024 794.77 1024 512C1024 229.23 794.77 0 512 0C229.23 0 0 229.23 0 512C0 794.77 229.23 1024 512 1024Z" fill="#728DBE"/>
<path d="M645.89 342.55H690.52V387.16H750.01V446.65H690.52V387.18H645.89V342.55ZM631.04 506.24V446.64V446.66H690.53V506.15H750V525.01C750 546.81 748.15 572.63 743.89 592.91C741.5 604.25 737.88 615.51 733.64 626.33C729.29 637.4 724.28 648 718.83 657.5C711.653 670.083 703.316 681.968 693.93 693L693.42 693.59L692.59 694.56C690.3 697.25 688.03 699.92 685.53 702.51C682.62 705.58 679.62 708.58 676.55 711.49C638.48 748.15 588.88 771.05 537.02 776.31C530.78 776.95 518.25 777.61 512 777.61C505.73 777.59 493.22 776.95 486.98 776.31C435.12 771.05 385.51 748.13 347.46 711.49C344.38 708.58 341.39 705.58 338.48 702.51C335.86 699.8 333.5 697.02 331.12 694.21C328.74 691.4 330.09 693 330.09 693C320.706 681.965 312.37 670.081 305.19 657.5C299.74 647.98 294.73 637.4 290.38 626.33C286.14 615.51 282.52 604.25 280.13 592.91C275.87 572.61 274.02 546.8 274.02 525.01V301.64H392.98V506.24C392.98 506.24 392.98 521.93 393.18 527.06L393.22 528.26C393.47 534.91 393.71 541.41 394.41 547.88C396.37 566.25 400.43 583.68 408.81 598.43C411.23 602.69 413.69 606.82 416.63 610.74C434.53 634.6 461.76 652.52 495.73 657.51C499.77 658.1 507.93 658.61 512.02 658.61C516.11 658.61 524.26 658.09 528.31 657.51C562.28 652.52 589.51 634.61 607.41 610.74C610.37 606.82 612.81 602.69 615.23 598.43C623.6 583.69 627.67 566.26 629.63 547.88C630.32 541.39 630.57 534.88 630.82 528.23L630.86 527.06C631.06 521.93 631.06 506.24 631.06 506.24H631.04ZM735.13 297.91H705.38V327.66H735.13V297.91Z" fill="white"/>
</g>
<defs>
<clipPath id="clip0_2_3771">
<rect width="1024" height="1024" fill="white"/>
</clipPath>
</defs>
</svg>
