<svg width="1024" height="1024" viewBox="0 0 1024 1024" fill="none" xmlns="http://www.w3.org/2000/svg">
<g clip-path="url(#clip0_2_3774)">
<path d="M512 1024C794.77 1024 1024 794.77 1024 512C1024 229.23 794.77 0 512 0C229.23 0 0 229.23 0 512C0 794.77 229.23 1024 512 1024Z" fill="#56595B"/>
<path d="M758.6 511.8C753.1 249.5 404.3 151.7 270 397.5C276 401.9 284.1 407.7 290.1 411.8C280.2 432.6 273.2 454.6 269.3 477.2C266.7 491.8 265.4 506.6 265.4 521.4C265.4 657.4 375.9 767.9 512.2 767.9C648.5 767.9 758.7 657.6 758.7 521.4V511.8H758.6ZM326.2 555.7C323 582.3 325 590.6 325 593.9L319 596C316.7 591.6 311.1 576.1 308.6 555.3C302.1 476 356.2 404.5 438.8 391.1C514.4 380 586.8 426.9 603.7 492.6L597.7 494.7C595.8 492.8 592.8 487.5 581.3 476C489.9 384.6 346.5 426.4 326.2 555.7ZM560.9 600.1C548.3 618.2 527.7 629 505.6 629C468.5 629 438.3 599 438.3 561.9V561.7C438.4 526.5 465.6 497.2 500.7 494.6C522.4 493.7 542.8 505.5 552.3 524.4C562.7 545.3 558.9 570.5 542.6 587.3C548.9 591.8 554.9 595.9 560.9 600.1ZM701.3 602.6C665.7 683.3 592.4 725.6 514.2 724.5C364.1 717.1 320.4 543.9 420.8 481.5L425.2 485.9C423.6 488.2 417.6 492.8 408.3 511.1C397.4 533.3 394 555.5 395.4 569.4C403.3 690.4 572.8 715.1 631 595.3C705.2 431.3 508.2 264.6 333.4 392L329.5 388.1C375.5 316 465.5 283.8 551.3 305.3C682.3 338.3 752.9 475 701.3 602.6Z" fill="white"/>
</g>
<defs>
<clipPath id="clip0_2_3774">
<rect width="1024" height="1024" fill="white"/>
</clipPath>
</defs>
</svg>
