<svg width="1024" height="1024" viewBox="0 0 1024 1024" fill="none" xmlns="http://www.w3.org/2000/svg">
<g clip-path="url(#clip0_2_3777)">
<path d="M512 1024C794.77 1024 1024 794.77 1024 512C1024 229.23 794.77 0 512 0C229.23 0 0 229.23 0 512C0 794.77 229.23 1024 512 1024Z" fill="#F8C18C"/>
<path d="M325.16 423.51C339.827 423.51 354.166 427.859 366.361 436.008C378.557 444.157 388.062 455.739 393.675 469.29C399.288 482.841 400.757 497.752 397.895 512.138C395.034 526.523 387.97 539.737 377.599 550.109C367.228 560.48 354.014 567.543 339.628 570.405C325.242 573.266 310.331 571.798 296.78 566.185C283.229 560.572 271.647 551.066 263.498 538.871C255.349 526.675 251 512.337 251 497.67C251 478.001 258.813 459.138 272.721 445.231C286.629 431.323 305.492 423.51 325.16 423.51ZM634 260.89C648.667 260.89 663.006 265.239 675.201 273.388C687.397 281.537 696.902 293.119 702.515 306.67C708.128 320.221 709.597 335.132 706.735 349.518C703.874 363.903 696.81 377.117 686.439 387.489C676.068 397.86 662.854 404.923 648.468 407.785C634.082 410.646 619.171 409.178 605.62 403.565C592.069 397.952 580.487 388.446 572.338 376.251C564.189 364.055 559.84 349.717 559.84 335.05C559.84 315.381 567.653 296.518 581.561 282.611C595.469 268.703 614.332 260.89 634 260.89ZM492.42 688.53C466.208 682.989 441.557 671.685 420.254 655.439C398.951 639.193 381.529 618.411 369.25 594.6C349.404 603.608 327.276 606.326 305.84 602.39C320.667 639.052 344.273 671.51 374.584 696.912C404.894 722.314 440.98 739.881 479.67 748.07C496.975 751.778 514.632 753.595 532.33 753.49C518.718 735.639 511.117 713.932 510.62 691.49C504.5 690.81 498.4 689.82 492.42 688.53ZM617.31 614.78C631.977 614.78 646.316 619.129 658.511 627.278C670.707 635.427 680.212 647.009 685.825 660.56C691.438 674.111 692.907 689.022 690.045 703.408C687.184 717.793 680.12 731.007 669.749 741.379C659.378 751.75 646.164 758.813 631.778 761.675C617.392 764.536 602.481 763.068 588.93 757.455C575.379 751.842 563.797 742.336 555.648 730.141C547.499 717.945 543.15 703.607 543.15 688.94C543.15 669.271 550.963 650.408 564.871 636.501C578.779 622.593 597.642 614.78 617.31 614.78ZM720.51 661.7C752.306 621.593 770.604 572.458 772.788 521.323C774.972 470.188 760.93 419.672 732.67 377C724.116 397.172 709.57 414.229 691 425.86C705.827 453.873 713.074 485.275 712.021 516.953C710.969 548.63 701.654 579.482 685 606.45C702.369 620.659 714.799 639.998 720.51 661.7ZM319.44 391.32C321.32 391.22 323.203 391.17 325.09 391.17C344.959 391.178 364.432 396.718 381.33 407.17C397.682 383.554 419.424 364.172 444.755 350.629C470.087 337.086 498.28 329.771 527 329.29C528.2 307.419 536.05 286.437 549.5 269.15C456.21 261.76 365.59 309.88 319.44 391.32Z" fill="white"/>
</g>
<defs>
<clipPath id="clip0_2_3777">
<rect width="1024" height="1024" fill="white"/>
</clipPath>
</defs>
</svg>
