<svg width="1024" height="1024" fill="none" xmlns="http://www.w3.org/2000/svg"><g clip-path="url(#a)"><path d="M512 1024c282.77 0 512-229.23 512-512S794.77 0 512 0 0 229.23 0 512s229.23 512 512 512Z" fill="#F8C18C"/><path d="M325.16 423.51a74.158 74.158 0 0 1 72.735 88.628 74.164 74.164 0 0 1-58.267 58.267 74.165 74.165 0 0 1-76.13-31.534A74.16 74.16 0 0 1 325.16 423.51ZM634 260.89a74.158 74.158 0 0 1 72.735 88.628 74.164 74.164 0 0 1-58.267 58.267 74.165 74.165 0 0 1-76.13-31.534A74.16 74.16 0 0 1 634 260.89ZM492.42 688.53a180.607 180.607 0 0 1-123.17-93.93 106.768 106.768 0 0 1-63.41 7.79 241.434 241.434 0 0 0 173.83 145.68 244.419 244.419 0 0 0 52.66 5.42 106.125 106.125 0 0 1-21.71-62c-6.12-.68-12.22-1.67-18.2-2.96Zm124.89-73.75a74.158 74.158 0 0 1 72.735 88.628 74.164 74.164 0 0 1-58.267 58.267 74.165 74.165 0 0 1-76.13-31.534A74.16 74.16 0 0 1 617.31 614.78Zm103.2 46.92A242.628 242.628 0 0 0 732.67 377 106.893 106.893 0 0 1 691 425.86a181.812 181.812 0 0 1-6 180.59 106.351 106.351 0 0 1 35.51 55.25ZM319.44 391.32c1.88-.1 3.763-.15 5.65-.15a106.992 106.992 0 0 1 56.24 16A180.872 180.872 0 0 1 527 329.29a107.529 107.529 0 0 1 22.5-60.14c-93.29-7.39-183.91 40.73-230.06 122.17Z" fill="#fff"/></g><defs><clipPath id="a"><path fill="#fff" d="M0 0h1024v1024H0z"/></clipPath></defs></svg>