<svg width="1024" height="1024" viewBox="0 0 1024 1024" fill="none" xmlns="http://www.w3.org/2000/svg">
<g clip-path="url(#clip0_2_3780)">
<path d="M512 1024C794.77 1024 1024 794.77 1024 512C1024 229.23 794.77 0 512 0C229.23 0 0 229.23 0 512C0 794.77 229.23 1024 512 1024Z" fill="#56595B"/>
<path d="M821.36 547.98C819.81 545.98 818.36 545.72 816.21 547.06C810.28 550.76 803.06 553.14 791.54 553.14C778.61 553.14 772.88 548.91 770.49 541.51C769.67 539 771.55 536.41 774.2 536.41H818.84C823.68 536.41 828.92 530.81 828.92 525.97V507.65C828.92 502.1 825.68 496.74 822.13 492.47C816.39 485.58 806.92 481.41 791.4 481.41C753.91 481.41 745.85 502.63 745.85 527.11C745.85 551.59 753.59 572.81 791.55 572.81C808.9 572.81 820.05 569.4 831.36 560.88L821.37 547.98V548.01L821.36 547.98ZM769.38 515.15V511.44C769.38 506.06 773.74 501.69 779.13 501.69H798.52C803.9 501.69 808.27 506.05 808.27 511.44V519.04H773.28C770.52 519.04 769.38 517.9 769.38 515.14V515.15ZM300.1 479.52V543.84C300.1 563.36 306.91 571.42 330.62 571.42C334.96 571.42 341.47 571.42 345.03 571.11V554.76C345.03 552 343.89 550.86 341.13 550.86C339.28 550.85 337.43 550.83 335.58 550.82C325.19 550.82 324.27 547.1 324.27 540.29V508.09C324.27 505.33 325.41 504.19 328.17 504.19H341.14C343.9 504.19 345.04 503.05 345.04 500.29V487.32C345.04 484.56 343.9 483.42 341.14 483.42H328.17C325.41 483.42 324.27 482.28 324.27 479.52V460.22C324.27 457.46 323.13 456.32 320.37 456.32H304C301.24 456.32 300.1 457.46 300.1 460.22V479.53V479.52ZM232.76 527.26V460.21C232.76 457.45 231.62 456.31 228.86 456.31H212.03C209.27 456.31 208.13 457.45 208.13 460.21V524.01C208.13 541.67 203.64 550.81 180.55 550.81C157.46 550.81 153.13 541.05 153.13 524.01V460.21C153.13 457.45 151.99 456.31 149.23 456.31H131.63C128.87 456.31 127.73 457.45 127.73 460.21V527.26C127.73 549.25 131.75 573.27 180.25 573.27C228.75 573.27 232.77 549.25 232.77 527.26H232.76ZM891.83 505.73C894.59 505.73 895.73 504.59 895.73 501.83V487.1C895.73 484.37 894.6 483.23 891.87 483.2C888.03 483.16 884.16 483.72 880.53 484.95C875.71 486.61 871.31 489.5 867.69 493.02C867.12 490.79 866.53 488.56 865.96 486.35C865.42 484.23 864.37 483.43 862.18 483.43H850.2C847.44 483.43 846.3 484.57 846.3 487.33V567.21C846.3 569.97 847.44 571.11 850.2 571.11H870.63V525.22C870.63 514.45 879.36 505.73 890.12 505.73H891.82H891.83ZM387.08 571.11V487.33C387.08 484.57 385.94 483.43 383.18 483.43H366.81C364.05 483.43 362.91 484.57 362.91 487.33V567.21C362.91 569.97 364.05 571.11 366.81 571.11H387.08ZM278.43 571.41V460.21C278.43 457.45 277.29 456.31 274.53 456.31H258.31C255.55 456.31 254.41 457.45 254.41 460.21V567.52C254.41 570.28 255.55 571.42 258.31 571.42H278.43V571.41ZM374.99 475.28C381.75 475.28 387.22 469.8 387.22 463.05C387.22 456.3 381.74 450.82 374.99 450.82C368.24 450.82 362.76 456.3 362.76 463.05C362.76 469.8 368.24 475.28 374.99 475.28ZM598.91 481.41C588.13 481.41 578.37 483.64 570.87 486.32C567.65 487.48 564.83 488.71 562.55 489.89C562.06 490.143 561.63 490.497 561.287 490.928C560.945 491.36 560.698 491.859 560.562 492.393C560.427 492.927 560.407 493.484 560.503 494.027C560.599 494.569 560.81 495.085 561.12 495.54C563.7 499.35 566.29 503.15 568.87 506.96C570.26 509 571.66 509.37 573.86 508.25C579.34 505.48 587.38 502.79 596.29 502.79C610.05 502.79 613 506.11 613.54 512.6C613.66 514.07 613.08 514.71 611.6 514.71H583.08C566.93 514.71 553.84 527.8 553.84 543.95V545.38C553.84 560.71 559.73 572.48 586.84 572.48H637.04V516.26C637.04 491.47 630.53 481.41 598.93 481.41H598.92H598.91ZM613.63 552.97C604.64 552.94 595.65 552.92 586.66 552.87C581.28 552.87 576.91 548.51 576.91 543.12V541.18C576.91 535.8 581.27 531.43 586.66 531.43H609.73C612.49 531.43 613.63 532.57 613.63 535.33V552.96V552.97ZM684.24 549.33L692.61 539.37C693.72 538.05 694.81 538.12 695.75 539.57L714.71 569.3C715.54 570.59 716.46 571.11 718 571.11H742.82C732.63 554.61 722.42 538.09 712.22 521.59C711.16 519.86 711.24 518.63 712.52 517.06C719.99 507.98 727.47 498.89 734.93 489.81C737.02 487.27 735.21 483.44 731.91 483.44H715.52C714.21 483.44 713.34 483.85 712.52 484.85C704.09 495.07 695.66 505.28 687.23 515.5C685.76 517.28 683.78 516.56 683.78 514.26V460.2C683.78 457.44 682.64 456.3 679.88 456.3H663.66C660.9 456.3 659.76 457.44 659.76 460.2V567.2C659.76 569.9 660.86 571.03 663.56 571.1H683.77V550.59C683.77 550.09 683.91 549.72 684.24 549.34H684.22L684.24 549.33ZM436.28 504.22C444.93 525.7 453.57 547.17 462.22 568.66C462.93 570.43 463.93 571.11 465.84 571.11H479.79C481.71 571.11 482.7 570.44 483.41 568.66C492.06 547.16 500.7 525.64 509.35 504.14C510.29 501.8 513.18 502.4 513.1 504.93L513.25 567.21C513.25 569.97 514.39 571.11 517.15 571.11H538.04V466.05C538.04 460.67 533.68 456.3 528.29 456.3H511.63C506.79 456.3 504.29 458.01 502.54 462.53C493.58 485.11 484.62 507.7 475.67 530.27C474.85 532.32 473.02 532.36 472.09 530.37C463.13 507.72 454.17 485.08 445.22 462.45C443.45 457.99 440.96 456.31 436.17 456.31H419.38C414 456.31 409.63 460.67 409.63 466.06V567.21C409.63 569.97 410.77 571.11 413.53 571.11H432.56V504.96C432.56 502.46 435.39 501.9 436.31 504.23H436.3L436.28 504.22Z" fill="white"/>
</g>
<defs>
<clipPath id="clip0_2_3780">
<rect width="1024" height="1024" fill="white"/>
</clipPath>
</defs>
</svg>
