<svg width="1024" height="1024" viewBox="0 0 1024 1024" fill="none" xmlns="http://www.w3.org/2000/svg">
<g clip-path="url(#clip0_2_3783)">
<path d="M512 1024C794.77 1024 1024 794.77 1024 512C1024 229.23 794.77 0 512 0C229.23 0 0 229.23 0 512C0 794.77 229.23 1024 512 1024Z" fill="#54688C"/>
<path d="M523.77 423.14L524.66 422.84C525.215 422.81 525.751 422.632 526.214 422.324C526.676 422.016 527.048 421.59 527.29 421.09C527.475 420.63 527.703 420.188 527.97 419.77C527.563 419.949 527.146 420.103 526.72 420.23L524.66 420.82L522.9 421.68L520.57 423.44L520.45 424.23L520.29 425.23L522.62 423.48C523.016 423.435 523.403 423.334 523.77 423.18M435.77 390.92L436.63 391.79L439.83 392.95L441.59 392.62L445.07 390.3C445.94 389.74 445.94 389.17 445.94 389.17L447.37 388.88L448.57 388.59L450.85 388.28L452.04 385.69V381.92L451.47 380.15L447 381.28L442.71 380.12C438.32 378.96 440.33 380.12 440.33 380.12L439.46 382.12V383L439.16 384.45L438 385.65L436.55 385.35H435.42L434.23 385.06L432.78 385.65L431.65 386.81L430.73 388.24L432.16 390.24L435.77 390.92ZM392.46 301.12L394.52 299.95L395.67 299.09C396.034 298.262 396.515 297.49 397.1 296.8C398.3 295.31 399.17 297.06 399.17 297.06L401.17 296.8C401.41 296.797 401.646 296.738 401.859 296.627C402.072 296.517 402.256 296.358 402.397 296.164C402.538 295.97 402.632 295.745 402.67 295.508C402.709 295.272 402.692 295.029 402.62 294.8L404.38 293.93C406.09 293.07 406.38 292.48 406.38 292.48C407.67 292.076 408.933 291.588 410.16 291.02C412.79 289.86 409.29 291.02 409.29 291.02C409.29 291.02 408.42 291.02 406.09 291.29C403.76 291.56 406.09 291.29 400.93 290.43C395.77 289.57 400.93 290.43 397.93 290.43H397.06C397.06 290.43 392.72 295.68 391.8 297.1L391 298.5L389.24 300.5L387.79 301.37L387.49 302.82C388.156 302.61 388.851 302.506 389.55 302.51L392.46 301.12ZM497.95 417.62L496.45 418.78L495.88 419.94L495.62 421.94L493.62 422.23L493.27 421.37L492.14 420.5V422L493.9 423.46H495L496.45 422.86L498.21 421.7C498.937 421.166 499.625 420.581 500.27 419.95L501.16 419.08L501.72 418.19L499.09 417.64H497.96L497.95 417.62ZM622.58 382.16C623.5 383.65 620.82 381.6 624.34 384.79L627.87 387.97C627.957 388.241 628.103 388.488 628.299 388.694C628.495 388.9 628.734 389.059 629 389.16C630.35 389.36 631.715 389.45 633.08 389.43L632.77 388.27L631.06 386.27L630.45 385.4C629.871 384.709 629.476 383.884 629.3 383C629 381.55 628.74 381.87 628.74 380.38V377.47C628.567 376.689 628.659 375.873 629 375.15C629.473 374.422 629.871 373.648 630.19 372.84L631.39 370.84L631.65 369.07L634.85 364.73C636.85 363.86 637.43 364.14 637.74 363.27C638.05 362.4 638.61 361.82 638.61 360.98C638.61 360.14 639.18 359.21 638.31 359.21C637.44 359.21 637.18 358.94 636.55 359.78C635.92 360.62 636.85 359.21 635.98 360.64C635.11 362.07 636.55 362.1 635.11 362.1C633.67 362.1 635.42 362.39 633.68 362.1L631.91 361.81L630.48 363.26L629.62 364.72L628.42 365.88L627 367.6C626.734 368.162 626.523 368.748 626.37 369.35C626.1 370.55 626.37 371.12 625.8 371.99L624.67 373.71C624.357 374.994 623.973 376.259 623.52 377.5C623.21 378.287 622.696 378.978 622.03 379.5C622.03 379.5 620.83 379.79 621.72 380.95C622.61 382.11 621.72 380.66 622.59 382.11M477.29 332.11C477.59 332.98 477.59 333.27 477.86 334.11C478.13 334.95 478.73 336.11 478.73 336.11L480.2 338L485.11 338.63L486.31 338.9L488.07 340.33L491.54 339.74H492.74L493.6 338.61C494.49 337.44 493.87 337.72 494.49 336.83C494.891 336.245 495.072 335.536 495 334.83C495.042 334.241 494.953 333.65 494.74 333.1C494.48 332.23 493.59 332.51 492.98 331.32C492.37 330.13 492.98 331.32 489.78 329.03C486.58 326.74 488.65 327.87 487.78 326.67C486.91 325.47 487.78 326.67 487.78 325.82C487.714 324.924 487.522 324.042 487.21 323.2C486.9 322.34 485.4 323.77 485.4 323.77V324.64C485.395 325.171 485.212 325.685 484.88 326.1L482.55 326.37H481.36C481.353 326.705 481.238 327.03 481.03 327.293C480.822 327.557 480.535 327.745 480.21 327.83C479.08 328.1 479.35 328.4 477.02 329.58C474.69 330.76 477.02 331.33 477.29 332.22M451 396.73L449.91 396.1L448.22 395L447.35 395.55V397L446.22 398.45H443.89C443.667 398.471 443.443 398.428 443.243 398.328C443.043 398.227 442.876 398.072 442.76 397.88L440.95 398.74L441.56 399.61L441.83 400.77L443 402.5L444.45 403.05C445.9 403.68 445.02 404.51 445.02 404.51H442.75L439.75 403.68C439.111 403.33 438.442 403.038 437.75 402.81C437.266 402.633 436.734 402.633 436.25 402.81H435.43L431.71 404L434.55 405.75L437.18 407.5L438.05 407.19L442.13 409.26L443 410.09L444.71 411.55L446.47 413.55L447.67 414.71C448.213 415.345 448.898 415.842 449.67 416.16L451.74 415.59L451.43 413.84L451.12 412.69C463.31 414.41 458.4 407.69 458.4 407.69L457.27 406.23L458.14 404.46V403L459.29 401.58L461 399.83L461.61 398.11C461.372 397.94 461.172 397.722 461.022 397.471C460.873 397.22 460.776 396.94 460.74 396.65C460.827 395.986 461.133 395.37 461.61 394.9L462.76 394.03C463.95 393.13 463.06 392.87 463.32 390.83C463.42 390.23 463.42 389.92 463.49 389.75L464.83 387.63L465.65 386.76L467.15 385.9L469.15 385.31C471.15 384.74 469.15 385.31 470.92 384.15C471.154 384.042 471.363 383.887 471.535 383.694C471.706 383.502 471.836 383.277 471.917 383.032C471.998 382.787 472.027 382.528 472.003 382.272C471.98 382.015 471.904 381.766 471.78 381.54L471.17 380.67C470.6 379.8 470.91 379.51 470.91 379.51L471.47 378.35L472.34 378.06H473.21L475.5 377L475.24 375.25C475.24 375.25 470.59 375.85 469.7 376.14L467.94 376.69L466.81 376.14L465.36 376.69L465.05 377.56L463.62 378.15L461.29 378.75L459.53 379.6L462.16 379.89L461.59 381.05L460.72 381.95L457.53 383.95L459.29 384.81L458.4 386.56L456.91 386.85C455.52 387.14 455.2 387.72 455.2 387.72L454.93 388.59L456.93 389.16L457.56 390.62L456.67 391.19C455.8 391.76 456.11 392.02 456.11 392.02V394.66L454.66 396.38H452.3C451.02 396.38 450.87 396.61 451.02 396.76M555.46 517.31C555.46 517.31 555.73 517.06 555.25 517.22L555.46 517.31ZM485 555.49L484.18 554.7C483.918 554.302 483.514 554.019 483.05 553.91C482.443 553.661 481.91 553.262 481.5 552.75L480.93 552.39C480.528 552.064 480.19 551.667 479.93 551.22L477.25 550.28L475.07 549.08C474.988 549.548 475.066 550.031 475.29 550.45C475.978 551.375 476.837 552.159 477.82 552.76C478.183 553.037 478.494 553.376 478.74 553.76L479.74 554.76L480.93 556.66L484.19 557.09L485.58 557.44C485.78 557.089 485.855 556.679 485.79 556.28C485.63 555.951 485.351 555.694 485.01 555.56M548.23 515L547.66 514.14C547.03 513.29 547.66 512.98 547.66 511.81C547.684 511.507 547.613 511.203 547.457 510.942C547.302 510.68 547.068 510.473 546.79 510.35L543.59 510.65C542.621 510.462 541.637 510.362 540.65 510.35H538.93C538.07 510.35 538.63 511.21 538.63 511.21C538.63 511.21 539.83 512.37 540.63 512.08C541.43 511.79 541.82 514.08 541.82 514.08L540.37 516.41C540.413 516.92 540.565 517.415 540.815 517.862C541.065 518.309 541.408 518.697 541.82 519C543.27 520.2 541.82 519 542.69 519L545.32 520.2L548.79 519.33C549.867 519.305 550.94 519.195 552 519C553.71 518.73 552 519 554 517.85L555.25 517.19L552.57 516.4L548.23 515ZM476.6 541.35C477.38 540.75 477.23 540.53 477.38 539.97C477.635 539.278 477.846 538.569 478.01 537.85C478.36 536.33 479.51 538.62 480.69 537.85C481.318 537.438 481.782 536.819 482 536.1L476.78 532.62C476.78 532.62 475.59 531.25 475.02 530.68C474.846 530.51 474.633 530.385 474.399 530.317C474.165 530.249 473.918 530.24 473.68 530.29H472.13C471.858 530.836 471.666 531.419 471.56 532.02C471.782 533.008 471.782 534.032 471.56 535.02C471.16 537.13 470.78 535.94 470.43 536.77C470.08 537.6 470.59 537.71 470.59 537.71L472.59 538.07C472.59 538.07 472.38 539.26 472.19 540.81C472 542.36 472.4 540.45 473.58 540.22C474.76 539.99 474.31 540.44 474.71 541.22C474.944 541.902 475.062 542.619 475.06 543.34C475.483 542.626 476.004 541.977 476.61 541.41M434.29 482.48C434.29 482.48 432.84 482.21 432.39 482.04C431.94 481.87 431.39 480.91 431.39 480.91L430.26 483.65C430.26 483.65 430.1 485.54 430 486C429.764 486.674 429.427 487.308 429 487.88C428.444 488.752 427.707 489.496 426.84 490.06C425.64 490.82 426.27 491.25 426.27 491.25L427.27 492.55C427.573 492.188 427.908 491.853 428.27 491.55C428.69 491.28 429.42 492.87 429.42 493.3L431.07 492.43L434.38 488.38C434.864 487.794 435.4 487.252 435.98 486.76C435.98 486.76 436.28 484.88 436.38 484.44C436.48 484 436.08 482.98 436.08 482.98L434.29 482.48ZM442.41 511.55C441.58 510.69 440.96 510.39 440.69 509.8C440.42 509.21 440.39 508.21 439.82 508.21C439.251 508.117 438.706 507.91 438.22 507.6C437.655 507.378 437.063 507.233 436.46 507.17V510.17C436.826 510.469 437.161 510.804 437.46 511.17C437.754 511.733 437.995 512.322 438.18 512.93C438.35 513.33 438.75 513.52 438.91 514.25C439.293 515.161 439.898 515.962 440.67 516.58C440.961 516.944 441.172 517.366 441.289 517.818C441.406 518.269 441.427 518.74 441.35 519.2C441.427 519.617 441.587 520.015 441.82 520.37L443 519.2C443 519.2 444 519.76 444.15 518.74C444.3 517.72 444.31 517.58 444.61 517.16C444.91 516.74 442.75 517.3 445.48 516.27L448.22 515.27L448.95 513.95C447.441 513.146 445.892 512.418 444.31 511.77C443.87 511.77 443.24 512.34 442.38 511.48M437.17 481L437.8 481.13L440.08 479.54C440.616 478.903 441.113 478.235 441.57 477.54C441.84 476.91 442.57 475.33 442.57 475.33H441.84C441.11 475.33 441.11 475.2 440.54 474.91C439.97 474.62 439.81 474.45 439.35 474.74C439.041 475.005 438.766 475.308 438.53 475.64C438.53 475.64 438.22 476.64 437.9 477.36C437.512 478.167 437.178 478.999 436.9 479.85C436.59 480.91 437.16 481.04 437.16 481.04M536.84 411.29L536.58 410.1L535.08 409.84L534.82 411.56L535.95 412.75L536.84 411.29ZM555.13 368.47C555.236 368.413 555.336 368.346 555.43 368.27C555.43 368.27 552.76 367.67 555.13 368.47ZM552.34 431.62V431.52C552.34 431.52 552.03 432.07 552.34 431.62ZM673.48 687.33C673.48 687.33 673.74 687.49 674.05 687.63C673.69 685.73 673.48 687.33 673.48 687.33ZM482 263.49L481.9 263.58C481.9 263.58 482.46 263.33 482 263.49ZM678.7 330.14L678.49 330.19C678.96 330.69 678.7 330.14 678.7 330.14ZM538.61 424.61C538.793 424.04 538.894 423.448 538.91 422.85L536.59 422.28L535.39 423.45L534.26 424.01L537.15 424.31C537.15 424.31 538.3 425.44 538.61 424.61ZM528.17 419.36C528.17 419.36 528.12 419.36 527.96 419.79C528.38 419.48 528.17 419.36 528.17 419.36ZM516 572.52L517.45 572.81H520.6L521.79 571.38L524.42 570.23H520.34L517.76 569.33L513.37 569.06L513.63 571.06L516 572.52ZM565.09 512.06L563.33 511.79L563.63 514.12C563.63 514.12 565.39 516.12 563.33 516.12H559L557.81 515.82L556.1 516.12L557.55 518.44L557.24 519.89C557.158 520.188 557.144 520.5 557.197 520.805C557.251 521.109 557.371 521.398 557.55 521.65C558.11 522.48 558.11 523.07 558.68 523.96C559.066 524.526 559.559 525.012 560.13 525.39C560.322 526.097 560.74 526.722 561.32 527.17C562.322 528.045 563.118 529.131 563.65 530.35C563.95 531.21 564.22 531.82 564.52 532.68C564.82 533.54 565.39 533.24 565.97 534.1C566.55 534.96 564.77 532.97 566.54 535C568.31 537.03 567.73 535.85 568.6 538.2C569.147 539.78 569.441 541.438 569.47 543.11L568.23 544.87C567.742 545.365 567.161 545.76 566.52 546.03C565.835 546.275 565.167 546.566 564.52 546.9L562.46 547.76L561.01 548.09L558.38 546.02C558.38 546.02 556.38 542.35 556.83 546.79L556.26 546.52L554.36 545.73C554.36 545.73 553.94 545.38 552.81 544.58C551.68 543.78 552.03 542.66 550.91 542.66C549.79 542.66 550.13 542.24 548.58 541.5C547.03 540.76 546.98 541.5 545.84 539.5C544.7 537.5 546.62 539.11 544.64 537.56C542.66 536.01 542.31 535.64 541.17 535.23C540.225 534.91 539.309 534.512 538.43 534.04L534.96 532.53H533.41C532.21 532.53 532.21 532.15 530.31 532.15H528.31C528.31 532.15 528.94 531.77 525.63 532.53L522.37 533.29C522.37 533.29 519.06 531.94 517.88 531.57C516.7 531.2 516.53 530.2 515.76 529.84C514.99 529.48 514.94 528.84 514.16 528.26C513.38 527.68 512.81 527.26 512.26 526.89C511.71 526.52 511.9 526.15 511.9 526.15L511.12 525.15L510.51 524.15L510.34 522.96V522.19L510.51 520.47L510.34 519.84L509.94 518.69L510.34 517.69L511.49 516.92L512.68 516.31L513.25 515.14C513.623 514.909 514.023 514.725 514.44 514.59C514.96 514.39 515.59 514.2 515.59 514.2L517.35 513.84L517.92 512.06L518.69 510.9L518.91 509.77L520 508.4L520.78 507.81L521.78 507.63C521.78 507.63 522.56 507.99 523.68 508.4C524.62 508.71 524.68 508.76 524.68 508.79L525.68 508.4V507.24L524.68 505.89L526.22 504.35V503.35L527.61 502.8C528.064 502.533 528.583 502.398 529.11 502.41C529.717 502.416 530.317 502.549 530.87 502.8L532.06 501.46L532.63 500.67H535.73L536.86 499.32L538.92 503.98L540.07 502.49L540.94 503.98V505.4L541.24 506.27L541.51 507.46L543.57 509.18L544.44 509.49L545.31 509.18L546.76 508.61L548.21 508.32H549.08L551.08 508.61C552.128 508.324 553.199 508.127 554.28 508.02C555.15 508.02 553.65 508.32 555.15 508.02C556.65 507.72 555.72 507.47 558.3 508.02L560.93 508.61L564.45 509.5C564.45 509.5 564.71 509.77 565.58 509.77H566.47C566.47 509.77 571.11 508.02 569.66 509.77C568.928 510.533 568.333 511.415 567.9 512.38H565.9C565.9 512.38 566.77 512.38 565.07 512.09M582.23 572.5L581.36 571.68V571.45L582.23 572.5ZM608.12 536.8C608.12 536.8 607.2 536.8 608.94 537.66L610.7 538.53L611.9 541.44V544.64L613.9 546.64L615.03 546.91L616.23 549.27L614.79 553L614.49 554.2L615.36 556.2C615.36 556.2 615.92 558.2 615.05 559.12C614.18 560.04 615.05 557.12 614.23 559.99C613.41 562.86 617.14 564.91 617.14 564.91C617.14 567.23 616.27 567.83 616.27 567.83V569.02L617.4 570.75C617.222 571.212 617.133 571.704 617.14 572.2C617.034 573.095 616.822 573.974 616.51 574.82L615.94 577.74V580.05L615.38 580.94L614.81 582.69L613.05 583.29C612.578 583.504 612.094 583.691 611.6 583.85C610.73 584.15 612.47 584.15 609.27 584.15C606.53 584.15 603.85 583.92 603.07 583.85C602.782 583.128 602.42 582.437 601.99 581.79L600.84 580.06C600.84 580.06 600.84 580.67 598.78 578.63L596.78 576.63C596.78 576.63 595.01 574.31 595.01 573.14C595.01 571.97 594.71 572.28 595.01 571.14C595.413 569.951 595.897 568.792 596.46 567.67L598.79 566.21L599.09 563.27C599.09 563.27 599.66 562.7 600.54 561.85C601.42 561 601.41 560.68 602.6 560.68H603.75C603.75 560.68 605.51 560.41 604.31 559.49C603.695 559.021 603.023 558.631 602.31 558.33C602.31 558.33 602.01 557.77 601.44 556.87C600.87 555.97 601.14 556.04 600.87 554.87C600.6 553.7 600 552.87 599.68 551.67C599.411 550.748 599.032 549.861 598.55 549.03C598.55 549.03 596.22 547.3 595.91 545.29C595.6 543.28 595.65 544.43 595.65 543.23C595.614 542.261 595.514 541.296 595.35 540.34C595.35 540.34 594.48 539.79 595.65 539.18C596.428 538.734 597.108 538.135 597.65 537.42L597.04 536.98L596.78 536.85C596.61 536.75 596.36 536.56 595.89 536.28L594.1 535L593.84 533.57L594.41 532.68L596.41 530.92C596.41 530.92 597.28 532.68 598.17 530.35L599.04 528.03L599.91 525.12L601.36 526.29L603.69 526.56L604.88 525.11L606 524L608.58 523.73C608.58 523.73 605.11 523.12 609.19 522.84L613.27 522.54L619.63 522.84C619.63 522.84 619.63 521.98 619.93 524.3C620.23 526.62 620.5 525.17 619.93 528.08C619.36 530.99 621.64 532.08 619.06 532.08H616.43L613.85 532.71C613.85 532.71 612.98 532.08 612.98 533.87V535.63L611.85 537.92C610.91 536.21 611.22 535.63 610.91 536.21C610.6 536.79 607.72 535.04 607.72 535.04L608.12 536.8ZM550.24 275.8C550.29 276.06 549.61 275.45 548.79 274.73C549.47 275.06 550.14 275.45 550.24 275.8ZM740.35 627.55C698 710.79 611.57 768 512 768C489.671 768.012 467.437 765.087 445.87 759.3L450.26 759.99C452.405 760.118 454.542 760.365 456.66 760.73C457.788 761.065 458.964 761.21 460.14 761.16C461.78 761.16 463.66 761.42 465.56 761.42C467.46 761.42 467.42 761.9 468 761.16C468.58 760.42 468.63 760.39 469.6 759.16C470.489 758.182 471.317 757.15 472.08 756.07C472.24 755.65 471.21 754.92 471.08 754.49C470.95 754.06 470.26 753.34 470.26 752.59C470.19 751.954 470.294 751.311 470.56 750.73C471.134 749.972 471.755 749.25 472.42 748.57C472.42 748.57 467.42 746.51 473.29 744.91C479.16 743.31 480.1 742.46 480.1 742.46C480.795 742.089 481.526 741.788 482.28 741.56C483.01 741.43 488.95 740.14 488.95 740.14C488.95 740.14 511.38 736.65 512.66 735.94C513.94 735.23 520.52 734.59 522.12 734.18C523.72 733.77 542.59 725.32 545.12 723.42C547.65 721.52 552.51 719.37 553.54 718.33C554.57 717.29 557.15 715.27 557.15 715.27C557.15 715.27 559.33 712.98 559.78 712.56C560.577 711.717 561.44 710.938 562.36 710.23C563.14 709.6 563.14 708.72 563.81 708.03C564.457 707.32 565.012 706.53 565.46 705.68L561.59 705.3L560.59 705.89L558.27 706.07L555.94 706.25L553.61 706.84L551.28 707.06L548.75 706.84L547.97 707.23L546.21 706.84C546.21 706.84 546.21 705.49 544.5 705.69C543.695 705.731 542.905 705.921 542.17 706.25L540.17 706.84L537.69 707.06L536.09 706.49L534.19 705.9C533.27 705.96 532.355 706.077 531.45 706.25C529.33 706.65 530.3 707.47 528.75 706.84C527.2 706.21 524.88 705.11 524.88 705.11C524.6 704.573 524.265 704.067 523.88 703.6C523.31 702.79 522.53 701.45 522.53 701.45L519.59 700.25L522.73 699.31C523.144 698.89 523.417 698.352 523.51 697.77C523.51 697 523.3 696.56 523.3 696C523.3 695.44 523.09 695.39 522.38 694.31C521.508 692.98 520.714 691.601 520 690.18C519.388 689.058 518.62 688.028 517.72 687.12C517.095 686.365 516.427 685.648 515.72 684.97C514.9 684.4 512.98 683.45 512.62 682.86C512.26 682.27 513.35 684.97 511.43 681.69C509.51 678.41 509.67 677.64 509.67 676.62V672.37C509.67 671.82 510.28 669.86 509.88 669.06C509.516 668.138 508.991 667.289 508.33 666.55C507.55 665.79 508.96 665.98 506.62 664.47C504.28 662.96 503.31 661.94 503.68 661.37C504.204 660.137 504.541 658.833 504.68 657.5C505.108 655.901 505.68 654.345 506.39 652.85C506.896 651.151 507.231 649.406 507.39 647.64C507.6 646.08 508.02 645.86 507.6 644.92C507.102 643.781 506.531 642.675 505.89 641.61L503.36 639.12L504.51 636.98C504.836 635.955 505.093 634.909 505.28 633.85C505.233 632.492 505.116 631.136 504.93 629.79C504.72 629.23 504.15 626.51 504.15 626.51L503.52 618.16C503.457 617.191 503.34 616.226 503.17 615.27C502.801 614.345 502.728 613.328 502.96 612.36C503.36 611.19 503.74 610.8 503.74 610.03C503.74 609.26 503.52 609.22 502.82 608.03C502.121 607.187 501.644 606.184 501.43 605.11C501.43 604.56 501.27 600.89 501.27 600.28C501.317 599.753 501.435 599.235 501.62 598.74C501.62 598.74 501.83 598.13 502.25 596.82C502.67 595.51 502.98 590.82 502.98 590.82L499.1 586.34H497.39L493.87 585.94C493.87 585.94 495.21 586.76 491.19 586.34C487.17 585.92 488.81 588.48 486.68 585.57C485.349 583.766 483.789 582.142 482.04 580.74L473.3 575.09C473.3 575.09 472.74 574.32 472.38 573.74C472.02 573.16 468.72 569.66 468.72 569.66L466.72 568.66L464.26 565.96L464.09 564.21C464.09 564.21 463.27 561.49 463.09 560.9C462.91 560.31 455.55 554.11 449.15 559.56C448.652 560.1 448.307 560.763 448.15 561.48C448.15 562.26 446.81 563.97 446.81 563.97C446.81 563.97 442.16 566.15 441.17 565.73C440.18 565.31 438.07 562.26 438.07 562.26C437.794 560.618 437.416 558.995 436.94 557.4C436.52 556.8 430.94 556.46 428.42 551.02C425.9 545.58 429.55 545.25 428.58 542.9C427.735 541.14 426.556 539.561 425.11 538.25C424.294 537.079 423.377 535.982 422.37 534.97C421.8 534.59 419.06 532.62 418.49 531.26C417.992 530.079 417.421 528.93 416.78 527.82C416.395 526.857 416.133 525.849 416 524.82C416 524.82 415.6 523.09 415.37 522.47C415.14 521.85 413.47 518.81 413.47 518.81C413.47 518.81 421.42 520.58 422.37 515.71C423.32 510.84 423.19 509.33 423.19 509.33C423.554 508.977 424.034 508.767 424.54 508.74C425.32 508.74 427.64 508.35 427.64 508.35C427.64 508.35 425.31 507.35 425.11 506.79C424.937 506.097 424.867 505.383 424.9 504.67C424.9 504.08 419.26 501.19 419.26 501.19C418.117 500.881 417.021 500.42 416 499.82C415.305 499.035 414.67 498.2 414.1 497.32L409 495.43C409 495.43 404.7 493.5 404.35 492.71C403.907 491.575 403.372 490.478 402.75 489.43C402.172 488.624 401.552 487.849 400.89 487.11L394.08 483.61C394.08 483.61 389.22 479.55 387.72 480.12C386.22 480.69 385.96 480.93 385.14 479.94C384.32 478.95 385.77 477.94 381.67 477.79C377.57 477.64 377.23 478.95 376.81 477.61C376.53 476.534 376.151 475.487 375.68 474.48C375.38 473.855 374.993 473.276 374.53 472.76C373.92 472.19 371.59 469.66 371.59 469.66C371.59 469.66 370.04 463.47 370.81 463.07C371.58 462.67 369.81 461.51 369.81 461.51L367.48 463.51L362.62 465.41L358.75 465.81C358.75 465.81 356.05 464.81 355.28 464.68C354.51 464.55 352.18 464.08 352.18 464.08L349.65 465.08C349.65 465.08 342.88 467.78 342.88 468.36C342.88 468.94 340.98 470.87 340.35 471.67C339.72 472.47 337.67 474.17 337.09 474.17C336.054 474.271 335.011 474.065 334.09 473.58C332.19 472.81 329.86 473.58 328.67 472.24C327.48 470.9 326.96 470.24 325.99 470.24C324.834 470.456 323.718 470.847 322.68 471.4C321.68 471.8 321.13 472.78 320.15 472.78C319.17 472.78 316.27 472.78 312.82 476.09C312.82 476.09 306.05 475.69 302.18 479.95C301.874 479.99 301.564 479.939 301.288 479.801C301.011 479.664 300.782 479.448 300.63 479.18C300.02 478.18 298.12 483.02 298.12 483.82C298.12 484.62 290.93 503.36 284.01 503.82L282.81 503.12C282.81 503.12 284.11 506.61 283.38 507.93C282.77 509.242 282.285 510.608 281.93 512.01L284.11 517.1L280.8 512.44L280.02 515.36L281.21 518.28L280.02 518.85L281.67 522.34L283.06 527.56L280.39 525C280.39 525 281.74 536.17 281.54 536.74C281.34 537.31 280.54 541.53 280.39 542.25C280.119 543.227 279.984 544.236 279.99 545.25C280.09 545.85 282.32 557.16 282.43 557.93C282.54 558.7 283.06 562.54 283.3 563.12C283.54 563.7 287.07 576.81 287.38 577.4C287.679 578.385 288.227 579.277 288.97 579.99C290.271 581.267 291.48 582.634 292.59 584.08C296.36 588.57 296.2 588.84 297.4 590.29C298.178 591.271 298.899 592.297 299.56 593.36L300.76 592.04L301.16 594.63C301.16 594.63 300.48 597.29 302.16 598.86C303.194 599.934 304.3 600.936 305.47 601.86C307.28 603.19 311.16 605.04 313.34 606.35C315.52 607.66 318.46 608.55 320.34 610.55C322.22 612.55 327.88 617.69 327.88 617.69C327.88 617.69 329.48 627.57 329.59 629.02C329.7 630.47 332.07 633.41 333.37 634.4C334.67 635.39 338.58 638.49 338.58 638.49L339.36 637L340.09 639.62L341.38 641.11L341.54 642.96C341.54 642.96 344.02 645.16 344.02 645.71V647.71C343.787 648.854 343.497 649.985 343.15 651.1L341.7 652.34L340.27 652.95L341.09 655.31L338.91 655.7L341.54 659.2L338.54 657.34L337.54 657.44L336.11 657.65C335.94 658.269 335.997 658.929 336.27 659.51C336.67 660.84 339.16 667.35 340.2 668.77C341.24 670.19 343.2 674.31 343.2 674.31L345.78 680.98L346.65 683.66C347.38 685.26 348.021 686.899 348.57 688.57C348.73 689.43 350.33 692.52 349.29 692.36C348.797 692.273 348.293 692.273 347.8 692.36C347.8 692.36 351.88 698.16 350.01 699.46C349.59 699.835 349.039 700.029 348.477 699.999C347.915 699.969 347.387 699.718 347.01 699.3H345.71L343 701.58V704L343.47 704.44C289.93 657.52 256 588.66 256 512C256 414.94 310.31 330.32 390.15 286.94V287.73L389.58 288.59V289.76L389.89 291.21L391.6 290.94L393.03 290.08L394.23 289.48C394.23 289.48 397.43 286.87 397.43 285.99C397.43 285.11 398.3 285.42 398.3 285.42L401.5 284.29C401.5 284.29 402.63 283.96 403.5 283.68C404.37 283.4 404.63 282.22 404.63 282.22L405.83 281.65C406.402 281.818 406.994 281.908 407.59 281.92H409.92C409.92 281.92 411.92 279.01 411.92 278.17C411.933 277.571 412.037 276.977 412.23 276.41L412.06 276.33C412.79 276.02 413.56 275.73 414.34 275.42L415.34 276.68L416.21 276.97L415.65 278.97C415.65 278.97 413.58 280.72 412.45 281.88C411.32 283.04 410.74 283.64 409.87 284.5C409 285.36 409.56 285.67 409.56 285.67L410.13 287.42L413.07 289.75L418 288.3L419.45 287.71L422.36 285.96L424.12 284.8H426.18L427.89 283.34L429.34 281.59L433.16 279.84L435.49 278.12C437.82 276.36 438.07 277.81 438.07 277.81L439.52 277.52C440.97 277.22 446.82 275.52 446.82 275.52C446.82 275.52 448.58 274.69 459.01 274.06C469.44 273.43 460.46 272.9 460.46 272.9L456.94 272.34C453.47 271.74 456.12 272.34 455.23 272.34C454.34 272.34 454.36 272.34 453.23 271.74C452.1 271.14 452.93 270.91 452.93 270.02C452.93 269.13 454.38 269.16 454.38 269.16C455.091 268.726 455.879 268.431 456.7 268.29C458.245 268.117 459.805 268.117 461.35 268.29C461.35 268.29 463.98 267.96 468.02 267.42C472.06 266.88 468.89 267.42 471.22 267.16C473.55 266.9 475.91 266.56 476.74 265.97C477.948 265.277 479.212 264.688 480.52 264.21L482.07 263.55L483.41 261.88C483.41 261.88 480.26 262.21 479.41 262.21H475C474.126 262.278 473.248 262.166 472.42 261.88C472.036 261.74 471.636 261.649 471.23 261.61L466.89 261.31L463.69 261.61L462.49 261.88L460.49 262.47L459.62 262.8C459.041 262.936 458.439 262.936 457.86 262.8H456.39L455.26 262.47V262.42C472.716 258.479 490.536 256.371 508.43 256.13L510.19 257.21L510.76 258.4L512.52 259.27L506.11 258.07L503.22 257.5H501.77L498.25 257.83V258.66L493.91 259.53L495.91 259.82L499.43 260.41H506.73C512.83 260.41 507.88 260.98 507.88 260.98L508.74 261.57C508.74 261.57 509.89 262.17 510.74 262.76C511.262 263.084 511.748 263.463 512.19 263.89L520.35 264.18L522.11 264.75V265.92L522.68 267.92L517.47 267.66H512.82C509.88 267.66 510.19 268.25 510.19 268.25C510.19 268.25 505.55 267.92 503.52 267.66C501.49 267.4 502.02 267.66 502.02 267.66C502.02 267.66 500.89 267.37 499.44 267.11L496.86 266.21L494.54 264.46L495.92 262.74L493.03 262.97L491.03 263.6H490.16L489.29 264.46L486.96 265.92H485.83L484.33 265.62H482.33L475 268.5L473.62 268.8L470.36 270.55L469.79 272.01L471.85 271.42L478.21 267.63L478.51 269.09L477.08 269.95H476.21L473.01 271.67H477.92L483.18 271.41L484.05 271.12L486.63 270.53L488.7 270.26L489.83 271.12L489.26 272.28L488.39 272.58L487.26 273.17C486.561 273.174 485.866 273.264 485.19 273.44C484.731 273.611 484.249 273.712 483.76 273.74H481.13L484.07 274.87L486.07 275.17H487.83L491.6 274.61L494.18 273.74L495.94 272.84L501.48 273.17L509.34 273.44H515.44L522.74 271.12H525.94L528.52 269.37L529.15 268.21H534.93L539.01 268.48C543.09 268.78 542.21 268.48 542.21 268.48L541.6 267.62L541.33 266.46L530.84 262.93L532.03 263.15C532.03 263.15 532.85 263.25 538.14 263.55C538.86 263.55 539.43 263.63 539.9 263.65C542.9 263.78 541.61 263.55 541.61 263.55L543.1 262.7L540.73 262.11L539.01 261.51L538.15 261.21L536.93 260.94L533.99 260.67L533.17 259.77H535.17L539.56 259.48L540.71 258.61L541.22 257.68C542.22 257.8 543.22 257.93 544.22 258.07L543.91 259.78V261.24L545.41 262.14L547.74 263.57L549.19 264.13C549.19 264.13 549.19 264.43 550.62 264.7C551.109 264.768 551.594 264.868 552.07 265C552.834 265.18 553.615 265.277 554.4 265.29V266.16C554.052 266.399 553.63 266.505 553.21 266.46H550.51C549.973 266.229 549.422 266.032 548.86 265.87L546.23 265H541.5L543.26 267.88L544.13 268.78H545.32L549.32 267.62L550.19 268.48L546.77 270C546.77 270 547.64 270 545.85 270.3C544.675 270.505 543.515 270.792 542.38 271.16H541.51L541.81 272.03L545.33 273.78H546.15C546.89 274.005 547.618 274.268 548.33 274.57C548.94 275.1 549.67 275.82 550.54 276.67C559.86 285.67 554.01 280.75 554.01 280.75L545.59 279.89L543.83 280.5L542.4 279.89L541.25 279.6L540.38 281.06C540.022 281.581 539.517 281.985 538.93 282.22C538.07 282.55 535.74 283.38 535.74 283.38L528.74 285.13L522.92 286L521.47 285.43L517.12 284.54L515.06 284.28L512.78 283.95L511.91 284.52L510.72 285.41L508.72 286.87H505.83L502.31 287.16L503.5 286.57L504.32 285.71L505.52 284.54L505.21 283.68L503.5 283.39L500.87 284.29L499.1 286L494.76 286.87L491.56 285.11L490.43 284.52H487.8L486.6 284.82H484L479.61 283.95L475.27 285.71L468.6 287.71L463.6 288.01L459 289.46C459 289.46 459 290.33 457.57 291.46C456.656 292.156 455.512 292.477 454.37 292.36L452 294.08L451.74 295.25C451.74 295.25 459.54 290.05 449.11 297.31C438.68 304.57 447.04 301.09 447.04 301.09L452.88 301.95L457.53 300.79L464.53 299.92C468.87 301.09 471.2 301.67 471.2 301.67L476.2 300.22H477.33L480.27 301.97L479.97 303.43L480.84 305.18C481.99 306.04 482.84 306.64 482.84 306.64L488.1 307.5H494.77C494.949 307.966 495.037 308.461 495.03 308.96C495.03 309.82 497.1 313.61 497.1 313.61C499.68 315.61 499.68 315.93 500.87 316.2C502.009 316.56 503.168 316.857 504.34 317.09L506.1 317.39C506.1 317.39 507.55 320.86 507.3 317.39L506.99 313.9V312.14C507.083 311.894 507.247 311.68 507.46 311.526C507.673 311.371 507.927 311.282 508.19 311.27C508.973 311.232 509.752 311.135 510.52 310.98C510.52 310.98 510.78 311.27 511.65 311.27C512.52 311.27 512.22 311.27 514.23 310.4C516.24 309.53 516.86 310.4 516.61 311.27C516.339 312.107 515.934 312.893 515.41 313.6C514.85 314.47 517.17 311.27 514.85 314.47C512.53 317.67 503.79 317.08 512.52 317.65C521.25 318.22 522.7 317.65 522.7 317.65C522.7 317.65 520.94 315.92 520.94 315.03C520.971 314.355 521.071 313.685 521.24 313.03C521.24 313.03 520.63 313.3 522.11 311.87L523.56 310.41C523.56 310.41 523.82 308.41 524.43 309.84C524.766 310.865 524.859 311.953 524.7 313.02C524.75 312.92 524.91 312.59 526.13 313.63C526.957 314.284 527.837 314.87 528.76 315.38H529.96L531.67 313.93H533.67C533.67 313.93 533.41 313.63 534.54 314.5L535.74 315.36L538.93 314.17L539.82 313.31L546.49 311.88L546.79 311.01L553.15 308.38L554.58 309.53C555.115 309.92 555.709 310.22 556.34 310.42C557.13 310.711 557.823 311.216 558.34 311.88C558.34 311.88 553.69 311.01 552.86 312.74L551.99 314.5L558.99 316.22L560.75 317.11L562.75 318.24C562.75 318.24 563.05 317.98 563.62 319.14L565.07 322.02L566.26 324.94L568.26 326.1C568.558 326.174 568.868 326.185 569.171 326.134C569.474 326.082 569.763 325.969 570.02 325.8C570.665 325.423 571.358 325.134 572.08 324.94H579.08L580.84 325.23L583.43 324.37L586.9 326.37L592.02 328.79C592.441 329.271 592.888 329.728 593.36 330.16C595.94 332.79 597.14 332.79 597.14 332.79L598.59 332.49L599.72 331.88L602.35 330.75H603.8L606.13 329.29L608.71 330.75L611.65 332.21C613.41 335.68 612.22 334.52 613.41 335.68C614.6 336.84 613.41 336.57 614.56 336.84L615.69 337.14L618.07 335.98C618.07 335.98 619.2 335.68 622.98 337.75C626.76 339.82 627.06 338.64 626.75 339.75C626.691 340.064 626.558 340.36 626.361 340.613C626.165 340.865 625.911 341.066 625.62 341.2C625.785 341.683 625.785 342.207 625.62 342.69C625.392 343.345 625.202 344.013 625.05 344.69L627.96 342.69L628.83 342.95L632.3 346.45L635.19 347.31C635.19 347.31 636.95 347.9 635.82 346.45C634.69 345 632.3 342.37 632.3 342.37L634.06 341.8C634.06 341.8 633.19 343.8 634.93 341.8L636.64 339.8C636.64 339.8 637.83 338.34 638.14 339.21C638.45 340.08 637.51 339.21 638.14 341.21C638.362 341.866 638.549 342.534 638.7 343.21C638.964 344.453 639.456 345.636 640.15 346.7C640.519 347.212 641.02 347.613 641.6 347.86C642.821 348.355 644.082 348.743 645.37 349.02L644.81 347.27L644.18 346.11C644.071 345.596 643.878 345.102 643.61 344.65C643.191 343.928 642.897 343.14 642.74 342.32C642.28 340.57 644.34 340.52 644.97 340.57C644.92 340.57 645.27 340.87 647.97 342.03L651.97 343.78L653.73 345.53L657.51 349.32C657.51 349.32 659.89 349.87 659.89 350.78C659.89 351.69 661.32 353.69 661.32 353.69L662.47 353.39L663.66 352.53L665.99 353.1L667.12 353.39L667.69 354.82C667.69 354.82 667.43 353.95 668.56 355.72C669.69 357.49 670.32 358.34 670.32 358.34L671.77 359.19L672.64 358.58L673.77 355.73V354.83C673.77 354.83 673.51 353.4 674.92 354.54C676.33 355.68 675.53 355.13 676.98 356.6L678.43 358.06L679.06 356.87C679.06 356.87 680.49 358.34 678.75 355.41L676.99 352.53L674.66 349.03L672.9 346.42L672.65 344.36L674.41 345.81C674.89 346.313 675.473 346.705 676.12 346.96C676.99 347.26 676.42 348.15 676.99 347.26C677.25 346.83 677.72 347.18 677.86 347.35C677.76 347.18 677.3 346.74 676.41 345.51C673.78 342.02 674.41 344.35 673.78 342.02C673.543 340.946 673.253 339.885 672.91 338.84C673.088 338.263 673.088 337.647 672.91 337.07C672.65 336.2 671.78 332.43 671.78 332.43L672.91 332.14L678.55 330.14C678.34 329.87 677.87 329.14 677 327.77C674.67 323.98 673.53 323.11 673.53 323.11L672.64 321.98L670.58 320.23L668.25 316.45C669.44 315.88 672.07 316.45 672.07 316.45H673.52V313.52C676.987 316.347 680.38 319.257 683.7 322.25L683.96 322.85H681.96L683.41 324.85L684.28 325.71L684.84 327.71C685.03 328.275 685.134 328.865 685.15 329.46C685.229 330.247 685.421 331.018 685.72 331.75C685.72 331.75 687.48 334.12 687.48 334.95C687.48 335.78 685.72 335.25 688.04 337.59C690.36 339.93 689.8 339.01 690.37 339.9C690.94 340.79 689.8 338.77 690.94 340.77C692.08 342.77 693.52 344.85 693.52 344.85L692.7 346.01C692.7 346.01 692.4 346.31 692.7 347.17C692.921 347.777 693.195 348.362 693.52 348.92C693.52 348.92 694.44 350.38 693.52 350.68C692.986 350.848 692.43 350.939 691.87 350.95L688.87 348.63L686 347.52L685.43 347.27C685.822 348.508 686.113 349.775 686.3 351.06C686.248 351.686 686.038 352.288 685.69 352.81L684.24 354.24L682.79 355.73L681.92 361.24V363.24C681.92 365 682.18 366.77 682.18 367.58C682.18 368.39 679.91 365.86 679.91 365.86L679.55 364.7C679.245 363.609 678.867 362.54 678.42 361.5C678.198 361.026 678.008 360.539 677.85 360.04C677.613 359.352 677.322 358.683 676.98 358.04L675.85 357.74L676.11 365.57L674.66 364.12C674.66 364.12 675.23 364.99 673.79 363.25C672.35 361.51 671.21 360.05 671.21 360.05L669.45 358.58C669.45 358.58 668.26 359.77 667.45 357.47L666.58 355.12L665.71 356.31L664.26 356.58C664.013 357.265 663.723 357.933 663.39 358.58C662.784 359.673 662.377 360.865 662.19 362.1C662.19 362.97 661.06 363.26 662.19 364.72C662.802 365.415 663.308 366.196 663.69 367.04C664.56 368.47 663.96 366.47 664.56 368.47C665.16 370.47 666.01 369.33 665.13 370.54L664.26 371.67L661.63 372.86L660.18 374.58L660.75 376.58L661.94 377.45C661.94 377.45 661.37 376.88 663.39 378.04C664.591 378.734 665.672 379.619 666.59 380.66C666.59 380.66 666.28 380.07 667.15 381.53C668.02 382.99 667.15 381.23 668.02 382.98C668.789 384.397 669.655 385.761 670.61 387.06C670.61 387.06 667.81 386.12 670.87 388.28C671.22 388.51 671.6 388.78 672.11 389.1C672.62 389.42 673.11 389.76 673.56 390.1L677.03 392.33C677.03 392.33 668.13 387.54 667.83 386.17C667.546 384.738 666.806 383.436 665.72 382.46C665.015 381.921 664.347 381.337 663.72 380.71L661.39 380.12L660.2 379.25H658.13C658.164 379.843 658.268 380.431 658.44 381C658.74 382.16 659.07 383.33 659.07 383.33L659.63 384.19L660.78 386.81L659.63 388.24C659.63 388.24 659.07 387.94 659.07 390.01C659.07 392.08 657.87 389.41 659.07 392.01L660.2 394.65C660.2 394.65 659.63 395.21 661.39 395.21H663L668.84 397.53C668.866 398.206 668.97 398.877 669.15 399.53C669.526 400.516 670.109 401.409 670.86 402.15C670.86 402.15 670.56 402.45 672.31 403.61C673.237 404.185 674.102 404.855 674.89 405.61L669.67 402.7L666.8 399L665.35 397.84C665.35 397.84 664.22 397.25 663.92 398.17C663.62 399.09 663.35 400.17 663.35 400.17L664.22 403.37L665.67 404.83L664.52 407.45C664.52 407.45 664.79 409.78 663.65 410.04C662.285 410.15 660.91 410.062 659.57 409.78L660.44 408.32C660.607 407.751 660.698 407.163 660.71 406.57C660.71 405.7 661.01 403.66 661.01 403.66L660.44 401.66C660.094 401.106 659.803 400.52 659.57 399.91C659.237 399.143 658.946 398.359 658.7 397.56C658.4 396.4 657.83 396.73 656.94 394.68C656.469 393.639 656.091 392.558 655.81 391.45C655.51 390.62 653.74 385.08 653.74 385.08L651.42 379.84L649.14 377.84H648.27C647.839 378.322 647.612 378.954 647.64 379.6V382.51C647.64 382.51 647.94 382.51 647.64 383.7C647.472 384.553 647.385 385.42 647.38 386.29L647.94 388.01L649.94 392.66V394.44C649.94 394.44 646.47 391.82 650.51 395.29C654.55 398.76 654.28 396.78 654.59 398.78L654.9 400.78L652.27 401.37L643 395.2L641.8 394.35L635.11 390L636.87 394.08L637.74 395.8L638.94 397.8L638.63 398.96C638.63 398.96 640.4 398.96 637.76 399.25L635.13 399.54H629.92L628.16 399.84L625.25 396.05L623.54 397.8C623.009 398.289 622.396 398.682 621.73 398.96C620.86 399.25 619.45 399.83 619.45 399.83L614.81 403C614.81 403 615.38 404.46 613.36 404.19C611.34 403.92 611.93 408.83 610.1 403.9L608.4 399L610.4 397.84H611.9V396.73C611.568 396.089 611.043 395.568 610.4 395.24C609.58 394.98 607.49 394.11 607.49 394.11L607.19 395.54L607 397C606.666 397.519 606.47 398.114 606.43 398.73C606.43 399.6 607 400.19 607 401.06C606.95 401.942 606.847 402.82 606.69 403.69L605.56 405.11C605.56 405.11 605.26 405.72 603.8 405.44C602.936 405.243 602.055 405.132 601.17 405.11L598.26 405.72L597.86 406.53L597.13 405.72V407.72L596.26 409.18L595.39 411.47H594.19L592.7 410L591.55 409.74L590.68 408.28C590.15 407.396 589.473 406.608 588.68 405.95C588.68 405.95 588.38 405.95 588.38 406.81C588.38 407.67 588.07 405.04 588.38 407.68C588.69 410.32 589.51 413.76 589.51 413.76C589.51 413.76 590.38 414.92 589.2 414.63C588.02 414.34 584.04 412.87 584.04 412.87L583.43 410.54C583.43 410.54 583.12 407.36 583.12 406.54V404.2C583.157 403.342 583.481 402.522 584.04 401.87C584.61 401.01 584.04 400.71 583.74 398.96L584.04 397.21C584.04 397.21 588.69 400.41 590.4 401.57C592.11 402.73 591.85 402.14 591.85 402.14C592.735 402.134 593.617 402.033 594.48 401.84C595.67 401.57 595.67 401.57 599.12 400.09C602.57 398.61 599.99 396.62 599.99 396.62L598.8 394.62L597.09 392.55L596.22 391.72C595.979 390.97 595.568 390.286 595.02 389.72C594.481 389.183 594.002 388.59 593.59 387.95L592.72 387.1C591.85 386.24 591.85 385.65 591.85 385.65L590.4 383.9L587.2 380.98C585.978 381.089 584.755 380.783 583.73 380.11C581.73 378.95 583.73 380.11 582.86 378.95C582.734 378.831 582.639 378.683 582.582 378.518C582.525 378.354 582.509 378.179 582.535 378.007C582.56 377.836 582.627 377.673 582.729 377.532C582.83 377.392 582.965 377.278 583.12 377.2L583.43 376.33C583.73 375.44 582.86 375.44 581.98 374.87C581.1 374.3 581.11 374.04 580.22 373.12C579.33 372.2 579.35 372.86 579.35 372.86C578.652 372.31 577.984 371.723 577.35 371.1L575.35 369.04L572.44 368.47L570.38 369.94C570.38 369.94 573.27 373.43 561.65 370.21C558.17 369.28 556.27 368.7 555.24 368.39C554.16 369.02 550.54 371.23 550.08 371.97C549.45 372.84 549.77 372.84 548.88 373.69C547.99 374.54 544.24 373.42 544.24 373.42L541.33 374.57C538.39 375.76 541.33 374.57 540.46 375.43C539.59 376.29 540.16 376.59 540.16 376.59C540.16 376.59 534.62 378.35 532.62 378.94C530.62 379.53 531.43 378.94 530.62 378.94C530.33 378.959 530.049 379.047 529.801 379.196C529.552 379.346 529.342 379.553 529.19 379.8L527.12 380.67C526.625 381.302 525.912 381.727 525.12 381.86C523.67 382.12 519.02 382.41 519.02 382.41L518.39 381.55L517.57 380.68L514.68 381.55L509.98 380.68L507.4 382.43L505.64 384.43C504.872 384.275 504.093 384.178 503.31 384.14C502.42 384.14 502.11 385.9 502.11 385.9L501.85 387.63C501.64 388.91 501.75 389.09 501.8 389.09C500.6 389.466 499.438 389.955 498.33 390.55L497.51 392.87L494.62 393.44C494.781 394.2 494.868 394.973 494.88 395.75C494.88 396.92 496.94 398.95 496.94 398.95L497.76 400.11C499.279 400.503 500.841 400.702 502.41 400.7H506.18L507.63 400.41L509.96 399.54V401.54C509.96 402.7 509.39 402.96 508.51 404.15C507.63 405.34 506.8 408.79 506.18 409.69C505.842 410.202 505.648 410.797 505.62 411.41L505.05 414.32L503.81 417L503.24 418.11L501.24 419.88L500 421L502.63 423.59L503.5 424.5H504.32C505.56 423.951 506.742 423.281 507.85 422.5L509.85 422.77H511.35L514.55 421.61C514.55 421.61 515.98 420.45 518.02 418.43C520.06 416.41 518.02 418.43 518.58 417.54C519.14 416.65 520.03 416.37 521.21 415.23C521.656 414.874 522.169 414.61 522.719 414.456C523.268 414.301 523.844 414.258 524.41 414.33C524.961 414.518 525.538 414.619 526.12 414.63C527.01 414.63 528.19 413.2 528.19 413.2L531.34 409.97V405.97C531.34 405.97 531.64 404.21 531.9 403.03C532.045 402.567 532.146 402.092 532.2 401.61C533.11 400.762 534.083 399.983 535.11 399.28C536.042 398.781 536.923 398.191 537.74 397.52L540.37 395.77C541.515 395.517 542.674 395.327 543.84 395.2C546.17 394.94 543.84 395.2 546.48 394.94C549.12 394.68 547.67 394.64 548.54 394.07C549.41 393.5 551.38 391.74 551.38 391.74C551.38 391.74 554.01 390.58 555.46 389.99C556.081 389.775 556.672 389.482 557.22 389.12L558.67 389.39L561.87 391.74V394L561 396L556.09 397.45C551.09 398.91 556.09 397.45 554.9 397.75C553.913 397.975 552.941 398.263 551.99 398.61C550.54 399.2 549.99 398.61 549.99 398.61L546.79 400.61C545.755 401.309 544.863 402.198 544.16 403.23C543.29 404.69 544.16 403.23 543.85 404.69C543.749 405.378 543.561 406.05 543.29 406.69C542.872 407.512 542.387 408.298 541.84 409.04C540.97 410.17 540.97 410.46 540.97 410.46V413.66L541.27 415.98L543.27 416.57H544.14L545.33 417.14C546.587 417.814 547.934 418.305 549.33 418.6C552.53 419.46 549.33 418.6 553.97 418.87C558.61 419.14 559.19 420.87 559.19 420.87L559.49 422.33C559.8 423.78 560.94 423.46 560.94 423.46C561.721 424.576 562.409 425.753 563 426.98C563.57 428.41 563.87 427.24 563.87 427.24C564.198 426.597 564.472 425.928 564.69 425.24C565.006 424.315 565.112 423.331 565 422.36V419.44C565 418.58 565.87 419.44 565.87 419.44L567.87 419.73L568.74 420.62L569.61 421.48L570.91 422.22L570.81 424.1L569.61 426.69L567.85 427.55L566.14 428.16L563.66 428.64C563.2 427.73 562.53 427.95 562.53 427.95L561.4 426.79C560.2 425.63 560.61 426.01 559.63 426.01H555.55C552.08 426.01 555.2 426.79 555.2 426.79L554.01 428.79L553 430.58C552.7 431.02 552.49 431.3 552.37 431.44V432.31L552.59 433.31L551.39 434.12C550.955 433.711 550.575 433.247 550.26 432.74C549.69 431.74 550.26 431.97 550.47 430.82C550.68 429.67 550.47 430.82 550.63 430.23C550.79 429.64 551.41 429.45 552.39 428.3C553.37 427.15 553.18 427.3 553.94 427.14C554.7 426.98 553.59 426.37 553.59 426.37C552.968 425.957 552.38 425.495 551.83 424.99C550.48 423.83 550.91 424.6 548.73 423.06C546.55 421.52 548.73 423.06 548.17 422.66C547.027 422.267 545.843 422.008 544.64 421.89C543.64 421.69 543.86 422.07 543.15 422.07C542.44 422.07 542.32 423.07 542.32 423.07L540.61 423.62V425.37C540.61 426.37 541.18 426.37 541.18 426.37L542.31 427.14L541.75 428.49L539.85 430.82C538.65 432.17 539.63 431.82 539.63 432.36C539.63 432.9 538.44 433.52 536.74 432.95C535.04 432.38 536.74 432.95 536.53 432.36C536.32 431.77 536.11 431.79 535.96 431.2C535.729 430.456 535.588 429.687 535.54 428.91C535.38 427.33 535.14 427.33 535.14 427.33L531.88 428.33L529.53 430L528.34 430.55C528.34 430.55 529.53 430 527.61 431.55C525.69 433.1 526.79 432.9 526.79 432.9C526.503 433.848 526.312 434.823 526.22 435.81C526.225 436.418 526.369 437.016 526.64 437.56L523.12 439.12C522.683 438.893 522.232 438.692 521.77 438.52C520.77 438.14 520.99 438.32 520.42 437.78C519.85 437.24 519.86 437.38 519.08 437.38C518.3 437.38 519.08 437.38 519.08 438.15C519.046 438.675 519.1 439.203 519.24 439.71C519.312 439.875 519.335 440.056 519.306 440.233C519.278 440.411 519.199 440.576 519.08 440.71L516.08 439.71C513.19 438.77 516.08 439.71 514.54 439.12C513 438.53 514.54 439.12 514.37 438.33C514.2 437.54 514.11 437.78 513.76 436.4C513.41 435.02 513.54 435.83 513.54 435.24V434.67H510.65C508.65 434.67 510.65 434.67 508.94 434.27C507.23 433.87 507.75 433.5 506.36 433.11C505.097 432.876 503.809 432.816 502.53 432.93H500.8C500.23 432.93 500.23 432.93 499.25 433.69L498.9 435.45L498.63 436.04C498.523 436.365 498.523 436.715 498.63 437.04L497.71 436.86L497.93 435.49L497.51 432.6C497.41 431.81 497.35 431.41 497.3 431.21C497.3 431.21 497.35 431.13 497.35 431.04C497.35 430.334 497.404 429.628 497.51 428.93C497.515 428.515 497.586 428.103 497.72 427.71L497.37 426.97L495.61 427.18L492.87 426.97C492.68 426.983 492.49 426.983 492.3 426.97C491.514 426.204 490.668 425.502 489.77 424.87L489.2 422.55C488.64 420.22 488.9 421.09 488.9 421.09C488.9 421.09 489.2 419.63 489.53 417.89C489.86 416.15 489.53 417.89 490.96 416.73C491.191 416.528 491.455 416.365 491.74 416.25L491.84 416.43L492.11 417.89L492.41 418.76H493.6C493.92 418.016 494.096 417.219 494.12 416.41L493.66 415.91C494.522 415.231 495.268 414.417 495.87 413.5C497.07 411.74 495.87 413.5 497.94 413.5C500.01 413.5 497.94 413.5 497.94 412.65C497.897 412.048 497.985 411.444 498.2 410.88C498.5 410.01 499.07 410.01 499.07 410.01C499.07 410.01 499.94 409.18 500.83 408.29C501.72 407.4 500.26 406.83 500.26 406.83L498.5 407.7L497.63 407.41L496.44 405.96L494.99 405.67L493.6 406.83L495.31 407.1L495.88 408.29L495.31 409.45L494.12 410L492.74 409.17L491.29 408.84L490.66 409.74L490.09 410.87L488.35 412L487.79 413.16V414.29L487.48 415.45L486.61 417.45L486.35 418.9C486.05 420.36 483.72 420.07 483.72 420.07L482.99 421.23C482.69 420.8 482.57 421.23 480.36 421.97C478.15 422.71 480.36 421.97 479.49 420.97C478.62 419.97 479.49 420.97 478.62 418.97C477.75 416.97 478.62 418.97 476.44 420.73C474.26 422.49 475.92 421.16 475.14 420.89C474.36 420.62 474.88 420.15 474.27 417.82C473.66 415.49 474.01 417.1 472.11 417.39C470.21 417.68 471.95 417.98 469.11 420.39C466.27 422.8 468.11 420.69 466.95 420.55C465.79 420.41 466.95 420.55 467.25 418.93C467.55 417.31 467.93 417.34 467.82 416.61C467.71 415.88 466.82 417.18 465.18 418.2C463.54 419.22 464.62 418.66 463.42 419.1C462.22 419.54 462.86 419.37 462.13 420.23C461.4 421.09 461.86 420.97 461.56 422.43C461.26 423.89 460.56 422.43 460.06 422.27C459.56 422.11 460.06 421.11 460.06 421.11C459.341 420.794 458.573 420.601 457.79 420.54C456.79 420.54 457.01 420.54 455.21 419.8C453.41 419.06 454.74 419.64 453.14 418.64C451.54 417.64 452.41 418.64 451.54 419.5C450.67 420.36 450.54 419.79 449.06 421.26C447.58 422.73 447.63 421.26 445.7 421.39C443.77 421.52 445.7 421.39 444.7 420.39C443.7 419.39 444.7 420.39 443.7 420.23C442.7 420.07 443.23 420.97 442.97 421.85C442.71 422.73 442.51 422.01 440.64 420.98C438.77 419.95 439.91 420.55 438.88 418.66C437.85 416.77 438.88 418.2 439.04 416.66C439.2 415.12 438.64 415.83 437.61 415.5C436.58 415.17 437.04 416.36 436.61 417.83C436.18 419.3 436.45 418.26 434.85 419.29C433.25 420.32 434.45 419.29 433.98 418.99C432.93 418.402 431.927 417.733 430.98 416.99C429.38 415.66 430.71 416.08 430.41 414.79C430.11 413.5 429.41 414.24 427.97 413.63C426.53 413.02 427.34 412.74 426.52 412.29C425.7 411.84 426.06 413.05 425.23 414.23C424.4 415.41 424.87 415.66 425.01 416.08C425.235 416.607 425.535 417.098 425.9 417.54C426.272 417.996 426.606 418.481 426.9 418.99C427.9 420.45 427 419.45 427 423.07C427 423.89 427.1 424.39 427.1 424.69C427.05 424.69 427 424.69 426.89 424.82C425.89 425.55 426.58 425.38 425.29 427C424 428.62 425.29 428.45 425.45 429.48C425.61 430.51 425.87 430.33 425.19 431.66C424.51 432.99 424.19 432.38 423.54 433.55C422.89 434.72 423.54 434.42 422.81 435.88C422.08 437.34 421.94 435.29 421.05 435.62C420.628 435.708 420.234 435.897 419.9 436.17C419.18 436.64 419.18 437.5 418.71 438.37C418.24 439.24 419.18 439.52 414.27 440.37C409.36 441.22 413.75 441.37 411.89 442.26C410.03 443.15 410.89 441.5 409.15 440.07C407.41 438.64 408.84 438.48 408.84 438.48H407.41C406.52 438.48 406.41 437.32 405.96 436.48C405.525 435.832 405.273 435.079 405.23 434.3C405.23 433.44 404.66 433.69 402.03 429.96C399.4 426.23 400.27 427.61 399.85 426.76C399.43 425.91 397.95 424.58 397.22 423.67C396.49 422.76 396.09 423.57 395.32 423.41C394.646 423.338 394.003 423.086 393.46 422.68C392.33 421.94 392.89 422.37 392.46 422.68C392.03 422.99 391.99 424.27 390.46 426.45C388.93 428.63 389.17 427.02 389.17 427.02C388.542 427.502 387.953 428.034 387.41 428.61C386.99 429.2 385.08 431.97 385.08 431.97C385.08 431.97 382.6 433.69 381.3 434.72C380.515 435.234 379.685 435.675 378.82 436.04C378.21 436.47 376.96 436.63 375.05 437.34C373.14 438.05 374.18 438.83 374.18 439.34C374.18 439.85 374.64 440.34 374.64 441.34C374.64 442.34 372.88 443.34 371.55 445C370.22 446.66 370.98 446.26 370.68 447C370.38 447.74 370.16 448.16 370.68 448.92C371.2 449.68 370.68 448.92 372.89 450.64C375.1 452.36 373.31 451.1 373.16 456.64C373.01 462.18 372.59 458.23 372.34 459.22C372.09 460.21 372.34 460.55 372.34 460.55L376.83 461.71L377.83 462.54C378.378 463.564 378.999 464.546 379.69 465.48C380.327 466.471 381.223 467.27 382.28 467.79C382.89 468.09 383.47 468.55 384.49 469.11C384.742 469.279 385.05 469.342 385.349 469.288C385.647 469.234 385.913 469.066 386.09 468.82L387.48 468.25C387.893 468.086 388.349 468.07 388.772 468.205C389.195 468.34 389.558 468.617 389.8 468.99C389.8 468.99 390.43 470.29 391.57 468.99C392.71 467.69 396.83 467.52 396.83 467.52L397.83 467.68C398.081 466.886 398.222 466.062 398.25 465.23C398.41 463.34 398.65 464.6 398.98 464.03C399.6 463.374 400.413 462.933 401.3 462.77C402.217 462.226 403.24 461.885 404.3 461.77C406.01 461.61 405.49 461.04 405.9 460.91C406.736 460.686 407.552 460.395 408.34 460.04C409.21 459.61 409.12 460.04 409.99 460.5C410.56 460.823 411.196 461.015 411.85 461.06C412.672 461.097 413.48 461.291 414.23 461.63C414.74 462.05 415.36 461.63 418.57 461.63C421.78 461.63 419.86 461.06 420.9 460.33C421.94 459.6 422.03 458.58 422.76 456.71C423.49 454.84 423.06 456.12 423.63 456.12C424.2 456.12 425.96 456.41 426.83 456.55C427.481 456.7 428.108 456.942 428.69 457.27C428.966 457.365 429.216 457.521 429.422 457.728C429.629 457.934 429.785 458.184 429.88 458.46L430.15 459.46H431.44C431.91 459.46 431.6 459.89 431.6 460.78C431.65 461.419 431.809 462.045 432.07 462.63C432.239 463.343 432.533 464.02 432.94 464.63C433.51 465.7 433.1 465.11 434.39 465.39C435.68 465.67 434.95 465.12 437.39 464.39C439.83 463.66 437.96 464.55 440.39 465.81C442.82 467.07 441.39 465.98 444.47 465.71C447.55 465.44 445.2 465.4 446.07 465.4C446.604 465.422 447.114 465.623 447.52 465.97L448.65 468.45C448.65 468.45 449.22 470.17 449.65 471.65C450.08 473.13 449.65 472.37 449.19 473.53C448.956 474.245 448.766 474.973 448.62 475.71C448.455 476.424 448.16 477.102 447.75 477.71C447.18 478.87 447.96 478.87 447.96 480.16C447.96 480.91 448.103 481.653 448.38 482.35C448.54 483.08 448.54 483.78 448.64 484.7C448.69 485.307 448.85 485.9 449.11 486.45C449.41 487.04 448.8 488.45 448.8 488.45V488.87C449.06 489.789 449.44 490.67 449.93 491.49C450.377 492.068 450.879 492.6 451.43 493.08C452.43 494.08 452.16 493.67 452.63 494.54C452.967 495.149 453.106 495.848 453.03 496.54C453.038 497.35 453.233 498.147 453.6 498.87C454.06 500.03 454.17 498.87 454.17 498.87L454.63 499.87C454.713 500.397 454.767 500.927 454.79 501.46C454.79 502.05 454.49 502.18 454.33 502.89C454.17 503.6 454.33 503.49 454.79 504.08C455.01 504.454 455.287 504.791 455.61 505.08C456.24 505.54 455.51 506.83 455.51 507.37C455.51 507.91 455.21 509.14 455.21 509.57C455.21 510 454.79 510.31 454.06 511.19C453.33 512.07 453.6 511.76 452.87 512.06C452.14 512.36 452.4 512.61 452 513.06C451.6 513.51 451.74 513.76 451 514.51C450.26 515.26 451 514.51 450.18 514.91C449.36 515.31 450.18 514.91 449.87 515.34C449.56 515.77 450.29 516.69 450.29 516.69L451.79 516.82C452.029 516.502 452.329 516.235 452.672 516.034C453.016 515.833 453.396 515.703 453.79 515.65C454.98 515.65 455.79 514.2 455.79 514.2C455.79 514.2 457.56 513.05 458.42 512.47C459.28 511.89 458.42 510.47 458.42 510.47C459.049 509.853 459.624 509.184 460.14 508.47C460.75 507.6 461.01 507.88 461.9 507.88H463.09L464.54 508.78L464.24 510.51C463.97 512.24 464.24 510.51 464.54 511.94C464.84 513.37 464.54 511.94 465.67 511.94C465.826 511.947 465.982 511.922 466.128 511.866C466.274 511.811 466.407 511.726 466.519 511.618C466.632 511.509 466.721 511.379 466.781 511.235C466.841 511.091 466.872 510.936 466.87 510.78V508.78C466.87 508.78 466.56 507.88 466.3 507.01C466.04 506.14 465.67 506.15 465.67 506.15L464.85 504.69L463.98 503.23L463.35 502.37L462.22 500.37L461.65 497.75L463.1 496.59L462.23 496.02C461.884 495.739 461.476 495.543 461.04 495.45C461.04 495.45 460.17 495.45 459.33 494C458.49 492.55 459.33 494 458.44 493.13C457.55 492.26 458.18 491.97 457.83 490.81C457.614 489.958 457.526 489.078 457.57 488.2C457.604 487.108 457.81 486.028 458.18 485C458.44 483.81 459 483.25 459 482.37C458.983 481.775 458.882 481.186 458.7 480.62C458.368 480.058 458.077 479.474 457.83 478.87C457.569 477.934 457.481 476.958 457.57 475.99C457.57 474.22 458.18 474.22 458.43 473.08C458.68 471.94 458.7 471.62 460.15 471.01C461.6 470.4 460.45 469.58 460.45 469.58V469.45C461.23 469.5 462.26 469.58 462.73 469.58H464.44C465.285 469.768 466.139 469.909 467 470C468.19 470 467 470 467.35 471C467.7 472 466.43 472 465.45 473.18C464.47 474.36 465.45 473.18 464.45 475.68C463.45 478.18 464.85 476.46 465.58 475.86C466.31 475.26 466.58 475.47 468.16 474.86C469.74 474.25 469.08 474.86 469.08 474.86L470.08 476.23L469.08 478.56C468.16 480.87 468.73 479.3 468.87 480.08C469.009 481.321 468.89 482.577 468.52 483.77C468.16 485.12 468.52 484.93 468.52 486.68C468.52 488.43 468.73 487.49 469.52 489.22C470.31 490.95 469.68 489.77 470.86 490.76C472.04 491.75 471.86 492.28 472.78 492.69C473.7 493.1 472.78 493.26 473.18 494.63C473.58 496 473.75 495.79 474.33 496.19C474.91 496.59 475.52 498.3 475.52 498.3C475.52 498.3 475.92 501.21 475.92 502.56C475.92 503.91 475.92 503.15 476.84 504.71C477.76 506.27 477.06 505.47 476.84 506.08C476.62 506.69 475.65 507 475.65 507L475.3 508.77L474.15 508.97L473.94 510.89C473.396 511.196 472.799 511.396 472.18 511.48C470.99 511.66 471.97 512.67 471.97 513.25C472.107 514.095 472.311 514.927 472.58 515.74C472.752 516.444 472.873 517.159 472.94 517.88L473.15 520.62L473.31 522.13L474.13 524.28L473.57 524.48H472.37C472.218 524.471 472.067 524.501 471.93 524.567C471.793 524.634 471.676 524.735 471.59 524.86C471.741 525.489 472.006 526.085 472.37 526.62L473.92 528.73L474.7 529.32C474.7 529.32 475.05 529.72 476.25 529.72C477.45 529.72 476.81 530.08 478.01 530.51C479.21 530.94 478.93 531.25 479.72 531.86C479.939 532 480.114 532.2 480.225 532.435C480.337 532.67 480.38 532.932 480.35 533.19L483.03 535.33L484.03 533.39V532.26C484.03 532.26 488.26 534.36 482.48 529.16C476.7 523.96 482.48 527.23 482.48 527.23C482.924 526.975 483.253 526.56 483.4 526.07C483.611 525.308 483.611 524.502 483.4 523.74C483.4 523.13 484.03 523.34 484.03 522.74C484.084 522.138 484.205 521.545 484.39 520.97C484.6 519.97 485 520.62 486.15 521.19C487.3 521.76 486.15 521.96 486.15 521.96L489.62 523.89C489.961 523.361 490.171 522.757 490.23 522.13C490.238 521.909 490.319 521.697 490.46 521.527C490.601 521.357 490.794 521.238 491.01 521.19L492.16 521.35L493.71 521.75C494.123 521.913 494.521 522.11 494.9 522.34C495.47 522.74 496.25 522.13 496.25 522.13L496.86 521.95C497.43 521.74 497.43 522.51 497.43 522.51L497.78 523.51L499.9 523.71C500.274 524.366 500.538 525.079 500.68 525.82C501.03 527.38 501.03 526.82 501.03 526.82L503.21 528.57L504.21 527.41H505L505.35 526.06C505.642 526.315 505.982 526.509 506.35 526.63C508.11 527.952 509.735 529.446 511.2 531.09C511.611 531.564 512.149 531.911 512.75 532.09L512.35 532.25L511.78 532.46L511 533.02C511 533.02 508.67 533.38 508.26 532.64C507.85 531.9 507.48 532.03 506.91 531.09L506.35 530.09C506.152 530.526 506.03 530.993 505.99 531.47V532L504.39 530.66L503.26 530.07L501.91 529.07L500.57 528.86C500.57 528.86 499.94 528.65 499.75 529.47L499.59 530.21L496.89 531.41L496.49 532.56C496.49 532.56 495.49 532.74 495.49 533.32C495.49 533.9 494.57 534.91 495.84 535.07L497.23 535.28C497.23 535.28 497.79 533.14 498.15 534.54C498.445 535.269 498.634 536.037 498.71 536.82C498.636 537.672 498.519 538.52 498.36 539.36L496.25 538.55C496.25 538.55 495.68 538.37 495.68 538.95C495.889 539.829 496.198 540.681 496.6 541.49C496.6 541.49 497.23 542.99 497 543.6C496.87 543.976 496.815 544.373 496.84 544.77V546.29C497.132 547.231 497.521 548.139 498 549C498.16 549.59 497.78 549.59 498.35 550.37C498.819 550.896 499.222 551.477 499.55 552.1C500.072 553.108 500.659 554.08 501.31 555.01C501.66 555.62 501.87 557.52 503.42 558.32C504.97 559.12 505.32 559.67 506.1 559.48C506.88 559.29 504.97 558.48 507.87 558.48C510.77 558.48 509.63 557.1 511.74 558.48C513.85 559.86 513.09 559.05 515 560.98C516.91 562.91 519.91 566.43 521.41 567.17C522.91 567.91 520.26 568.37 523.57 567.4C525.324 566.919 527.005 566.206 528.57 565.28C529.079 565.152 529.611 565.152 530.12 565.28C531.613 566.077 533.044 566.987 534.4 568L533.62 569.34C533.62 569.34 533.22 569.16 533.01 570.34C532.8 571.52 531.86 577.73 531.29 578.34C530.825 578.726 530.306 579.043 529.75 579.28C528.903 579.721 528.105 580.251 527.37 580.86C526.64 581.63 525.09 582.02 524.06 582.97C523.357 583.81 522.595 584.598 521.78 585.33C520.23 586.68 520.23 586.1 519.1 587.64C518.243 588.731 517.328 589.776 516.36 590.77C515.879 591.591 515.286 592.341 514.6 593C514.045 593.393 513.452 593.728 512.83 594C512.83 594 512.83 594.57 510.93 594.21C509.03 593.85 510.53 593.82 508.19 593.04C505.85 592.26 505.71 591.67 505.09 591.88C504.47 592.09 504.74 591.49 504.17 593.04C503.81 593.772 503.548 594.549 503.39 595.35C503.18 596.12 502.99 595.74 503.18 597.1C503.315 597.869 503.386 598.649 503.39 599.43C503.591 600.536 503.711 601.656 503.75 602.78C503.75 604.68 503.53 604.68 503.96 605.63C504.39 606.58 503.39 604.89 504.31 607.63C505.23 610.37 504.94 610.12 505.31 610.94C505.68 611.76 503.55 612.84 506.31 612.09C509.07 611.34 510.75 610.94 510.75 609.74C510.75 608.54 508.63 610.12 511.38 607.41L514.06 604.71C514.06 604.71 515.4 605.28 514.46 606.06C513.52 606.84 512.46 609.13 511.93 610.5C511.4 611.87 510.74 610.71 511.15 612.27C511.346 613.132 511.607 613.977 511.93 614.8C511.93 614.8 514.21 619.03 514.21 619.63C513.98 620.509 513.98 621.431 514.21 622.31C514.63 624.64 515.4 627.73 515.6 629.11C515.774 629.792 515.907 630.483 516 631.18C516 632 516.16 632.38 515.6 633.18C515.04 633.98 513.84 633.73 514.97 634.93C515.964 635.961 516.895 637.049 517.76 638.19C517.76 638.19 517.13 634.32 518.49 639.56C519.85 644.8 520.25 645.96 520.25 646.93C520.25 647.9 521.4 645.93 520.25 648.49C519.1 651.05 518.7 650.97 518.7 651.94V654C518.7 654.59 518.3 654 519.12 655.56C519.94 657.12 519.64 657.07 520.25 658.06C520.86 659.05 518.7 654.75 521.8 659.61C524.9 664.47 524.9 664.44 524.9 665.43C524.796 666.069 524.796 666.721 524.9 667.36C525.028 668.006 525.216 668.639 525.46 669.25C525.68 669.89 525.11 668.87 526.24 671.05C526.776 671.977 527.24 672.943 527.63 673.94C527.63 673.94 527.99 672.57 528.36 675.07C528.73 677.57 529.75 673.32 528.57 678.98C528.067 681.679 527.361 684.337 526.46 686.93C526.46 686.93 526.04 686.77 526.04 688.09C526.046 689.531 525.929 690.969 525.69 692.39C525.47 693.13 523.16 692.74 525.47 694.49C527.78 696.24 520.47 696.81 528.57 696.81C536.67 696.81 529.14 696.81 537.72 696.18C546.3 695.55 542.53 695.44 547.6 695.44C552.67 695.44 555.5 695.82 557.25 695.44C559 695.06 556.33 697 560 694.65C562.304 693.209 564.5 691.601 566.57 689.84C566.57 689.84 565.57 689.63 567.76 689.63C569.95 689.63 573.76 690.2 574.76 690.2C575.76 690.2 574.92 690.79 575.68 690.2C576.44 689.61 579.35 687.69 579.35 687.69C579.35 687.69 580.13 687.12 583.06 686.78C584.458 686.531 585.871 686.374 587.29 686.31C589.62 686.15 586.89 688.09 592.72 685.98C598.55 683.87 595.25 682.88 595.25 682.88C595.25 682.88 594.05 682.48 596.38 681.88C598.71 681.28 598.76 681.31 599.48 680.88C600.2 680.45 598.75 680.53 601.24 679.71C603.73 678.89 602.24 679.33 604.55 678.36C606.86 677.39 607.08 677.44 607.81 676.8C608.638 676.283 609.325 675.568 609.81 674.72C610.16 673.93 610.59 672.72 610.59 672.72L611.59 671.2L613.14 669.44C613.723 669.531 614.311 669.591 614.9 669.62C615.47 669.62 613.51 672.13 618.21 667.11C622.91 662.09 621.82 662.86 622.81 662.11C623.8 661.36 624.36 661.54 624.36 660.56C624.36 659.58 622.81 658.25 622.81 658.25L622.25 656.71C621.98 656.66 621.43 656.46 620.13 656.07C616.82 655.13 610.48 652.27 612.03 646.59C613.58 640.91 612.95 641.95 612.95 641.95L611.6 643.08C611.6 643.08 610.97 643.33 610.05 644.85C609.27 646.13 608.34 648.08 607.99 648.69C607.841 648.792 607.684 648.882 607.52 648.96C606.453 649.477 605.346 649.909 604.21 650.25C603.726 650.461 603.274 650.74 602.87 651.08C602.26 651.523 601.618 651.921 600.95 652.27C599.782 652.707 598.518 652.825 597.29 652.61C596.66 652.39 599 652.39 596.09 652.39H592.01C590.25 652.39 590.81 653.18 589.53 652.26C588.25 651.34 590.45 652.01 587.77 651.07C585.09 650.13 583.48 651.07 585.02 650.07C586.56 649.07 586.22 649.46 587.2 648.47C587.919 647.771 588.556 646.992 589.1 646.15C589.52 645.56 589.1 647.35 589.52 645.56C589.803 644.286 589.99 642.992 590.08 641.69C590.08 641.13 587.76 641.69 587.76 641.69C587.627 642.159 587.435 642.609 587.19 643.03C586.79 643.6 585.43 645.78 585.43 645.78C585.43 645.78 584.43 646.78 584.08 645.44C583.73 644.1 583.68 644.8 583.68 644.05V642.7C583.68 641.91 583.47 641.5 583.89 640.94C584.326 640.378 584.639 639.73 584.81 639.04C584.81 638.44 583.68 638.22 583.47 637.42C583.215 636.682 582.88 635.974 582.47 635.31C582.12 634.53 581.75 633.55 581.75 633.55C581.109 632.993 580.629 632.275 580.36 631.47C579.79 629.85 580.57 630.08 580.36 629.31C580.15 628.54 580.99 629.7 580 627.73C579.454 626.82 579.005 625.854 578.66 624.85C578.45 624.24 577.27 622.91 577.27 622.34C577.27 621.77 575.16 622.91 577.27 621.78C578.349 621.186 579.384 620.518 580.37 619.78C581 619.43 581.92 619 581.92 619L586.21 617.29L587.34 617.64C587.34 617.64 588.12 616.64 589.52 619.22C590.92 621.8 590.81 620.93 591.42 623.05C592.03 625.17 592.2 624.82 592.2 626.18C592.212 627.55 592.329 628.918 592.55 630.27C592.77 630.79 592.55 630.63 592.97 631.27C593.39 631.91 592.97 631.65 594.1 632.62C595.23 633.59 599.53 636.87 600.31 637.25C601.09 637.63 595.31 636.08 601.69 638.45C608.07 640.82 605.36 639.97 606.69 639.77C608.02 639.57 608.04 639.77 608.81 639.22C609.857 638.492 611.065 638.029 612.33 637.87C614.33 637.45 612.9 637.45 615.01 636.87C617.12 636.29 617.01 634.76 617.39 636.87C617.651 638.219 617.841 639.581 617.96 640.95C617.96 641.51 615.58 641.33 618.17 642.33C620.76 643.33 612.53 641.33 620.65 643.33C628.77 645.33 626.29 645.09 630.15 645.49C634.01 645.89 636.77 646.02 637.9 646.21C639.03 646.4 638.32 646.6 640.02 646.21C641.72 645.82 642.55 645.27 643.54 645.27C645.891 645.072 648.228 644.738 650.54 644.27C651.05 644.09 651.46 645.27 654.76 643.66C656.31 642.96 657.25 642.57 657.76 642.31L657.5 644.5L658.69 644.76L660.14 645.09V648.28L660.44 649.1L661.89 648.28L664.8 646.82L669.19 645.35C671.19 643.88 669.19 644.76 671.19 643.88C671.875 643.643 672.544 643.359 673.19 643.03C674.093 642.593 674.971 642.105 675.82 641.57C675.82 641.57 676.95 643.03 676.08 643.89C675.245 644.844 674.467 645.845 673.75 646.89C673.75 646.89 674.38 646.89 672.88 647.48L671.43 648.04C670.71 648.353 669.943 648.542 669.16 648.6L667.4 648.04L665.95 649.17C665.677 649.107 665.391 649.13 665.132 649.235C664.872 649.341 664.651 649.524 664.5 649.76C664.104 650.397 663.81 651.092 663.63 651.82L665.63 652.69C665.63 652.69 663.87 654.47 667.06 652.95C670.25 651.43 669.39 652.69 670.26 651.5C671.13 650.31 672.59 649.5 672.02 650.68C671.402 651.678 670.714 652.631 669.96 653.53C669.393 654.148 668.714 654.653 667.96 655.02C667.02 655.455 666.055 655.832 665.07 656.15C665.07 656.15 664.2 656.15 665.07 657.35C665.94 658.55 664.5 657.35 665.94 658.48C667.38 659.61 668.22 660.25 668.22 660.25H669.65C670.916 660.222 672.144 659.818 673.18 659.09L674.61 657.93L676.94 655.01L678.39 653.25C678.39 653.25 680.15 655.6 679.89 656.45C679.63 657.3 678.69 657.58 678.39 658.78C678.193 659.578 677.918 660.355 677.57 661.1C677.158 662.424 676.866 663.783 676.7 665.16C676.39 666.06 676.07 666.06 675.83 667.16C675.78 667.37 675.73 667.42 675.73 667.46C675.73 667.5 675.94 667.06 675.51 669.78C675.191 671.616 674.988 673.469 674.9 675.33V678.52C674.752 679.575 674.752 680.645 674.9 681.7C675.262 683.212 675.466 684.756 675.51 686.31C675.51 687.86 674.69 687.74 674.08 687.53C674.219 688.099 674.319 688.677 674.38 689.26C674.9 693.62 674.9 694.76 674.9 694.76C674.53 695.27 674.347 695.891 674.38 696.52C674.377 697.195 674.465 697.868 674.64 698.52C674.64 698.52 673.21 700.85 675.51 698.79C677.81 696.73 676.96 698.52 677.84 696.79C678.72 695.06 678.71 694.47 679.91 693.61C680.971 692.952 681.943 692.158 682.8 691.25C683.343 690.37 684.018 689.577 684.8 688.9C686.57 687.19 686.8 686.9 688 685.75C688.963 684.771 689.827 683.699 690.58 682.55C691.404 681.164 692.097 679.705 692.65 678.19C692.578 677.784 692.591 677.368 692.687 676.967C692.784 676.566 692.962 676.189 693.21 675.86C694.1 674.71 690.89 678.19 694.98 672.12C699.07 666.05 696.98 668.03 699.06 666.01C701.14 663.99 697.29 666.84 702.53 662.23C707.77 657.62 705.42 660.48 706.61 658.73C707.8 656.98 707.18 656.4 709.2 654.4C711.22 652.4 713.28 650.02 714.46 648.85C715.64 647.68 721.74 641.54 721.74 641.54C721.74 641.54 722.31 639.79 722.89 638.39C723.47 636.99 723.76 637.78 724.34 634.87C724.778 632.68 725.655 630.601 726.92 628.76L727.79 627.59C728.255 626.97 728.857 626.467 729.55 626.12C730.371 625.834 731.153 625.447 731.88 624.97C732.383 624.514 732.861 624.03 733.31 623.52C734.18 622.629 734.961 621.654 735.64 620.61L737.4 618.29C737.609 618.96 737.713 619.658 737.71 620.36C737.723 621.127 737.81 621.89 737.97 622.64L739.21 623.83L740.36 624.96V627.46L740.35 627.55ZM396.35 283.71C396.17 284.152 396.036 284.611 395.95 285.08L393.62 286.24V285.38H393.11C394.19 284.79 395.27 284.27 396.35 283.71ZM640.73 290.85C640.99 291.48 641.51 292.95 638.92 290.32L637.62 289.08C638.68 289.67 639.7 290.25 640.73 290.85ZM653.13 298.58L652.56 299.04L651.37 298.48L650.95 297.15C651.68 297.63 652.45 298.09 653.13 298.58ZM512 249.5C367.21 249.5 249.5 367.26 249.5 512C249.5 656.74 367.21 774.5 512 774.5C656.79 774.5 774.5 656.76 774.5 512C774.5 367.24 656.74 249.5 512 249.5Z" fill="white"/>
</g>
<defs>
<clipPath id="clip0_2_3783">
<rect width="1024" height="1024" fill="white"/>
</clipPath>
</defs>
</svg>
