<svg width="1024" height="1024" fill="none" xmlns="http://www.w3.org/2000/svg"><g clip-path="url(#a)"><path d="M512 1024c282.77 0 512-229.23 512-512S794.77 0 512 0 0 229.23 0 512s229.23 512 512 512Z" fill="#56595B"/><path d="M738.88 375.13 531.33 256v91.6l.53.3v.22l81 46.59a4 4 0 0 1 1.27 1.2 4.5 4.5 0 0 1-.415 5.08 4.51 4.51 0 0 1-1.385 1.14L516 457.73a9.102 9.102 0 0 1-9 0l-95.83-55.59a4.5 4.5 0 0 1 0-7.94l81-46.59V256L285.65 375.13v.87l-.53-.31v238.76l79.42-45.53v-.23l.53-.3v-93.72a4.391 4.391 0 0 1 1.11-2.83 4.232 4.232 0 0 1 5.25-.35l96.36 55.59a9.836 9.836 0 0 1 4.77 7.94v111.2c-.41 2.06-2.76 3.78-5.27 3.7a4.576 4.576 0 0 1-1.08-.52l-81-46.59-.53.3-.53-.3-79.42 45.53 206.48 119.13v-.61l.53.31v.83l206.49-119.13-.19-.11.72-.42-79.42-45.54-81 46.59c-2.65 1.59-6.88-.53-6.88-3.71V534.5a9 9 0 0 1 2.41-6.13 8.395 8.395 0 0 1 1.83-1.28L652 471.5c2.65-1.59 6.88.53 6.88 3.71v93.72l79.42 45.53v-238.8l-.19-.11.77-.42Z" fill="#fff"/></g><defs><clipPath id="a"><path fill="#fff" d="M0 0h1024v1024H0z"/></clipPath></defs></svg>