<svg width="1024" height="1024" viewBox="0 0 1024 1024" fill="none" xmlns="http://www.w3.org/2000/svg">
<g clip-path="url(#clip0_2_3786)">
<path d="M512 1024C794.77 1024 1024 794.77 1024 512C1024 229.23 794.77 0 512 0C229.23 0 0 229.23 0 512C0 794.77 229.23 1024 512 1024Z" fill="#56595B"/>
<path d="M283.3 328.2H394.7V538.3C394.7 584.6 410.9 602.8 457 602.8H567.3C613.2 602.8 629.7 584.6 629.7 538.3V328.2H741V562.1C741 652.5 694.4 695.9 591.8 695.9H432.2C329.5 695.9 283 652.7 283 562.1L283.3 328.2Z" fill="white"/>
</g>
<defs>
<clipPath id="clip0_2_3786">
<rect width="1024" height="1024" fill="white"/>
</clipPath>
</defs>
</svg>
