<svg width="1024" height="1024" fill="none" xmlns="http://www.w3.org/2000/svg"><g clip-path="url(#a)"><path d="M512 1024c282.77 0 512-229.23 512-512S794.77 0 512 0 0 229.23 0 512s229.23 512 512 512Z" fill="#FF837D"/><path d="M498 429.92h27.64v163.73H498V429.92ZM256 593.65h-27.65V429.92H256v163.73Zm107.17 19.56h27.63v62.51h-27.64l.01-62.51ZM295.54 543h27.64v101.26h-27.64V543Zm134.81 0H458v101.26h-27.65V543ZM768 429.92h27.64v163.73H768V429.92Zm-107.16-19.13H633.2v-62.52h27.64v62.52Zm67.62 69.74h-27.64V379.74h27.64v100.79Zm-135.23 0h-27.65V379.74h27.64l.01 100.79Z" fill="#fff"/></g><defs><clipPath id="a"><path fill="#fff" d="M0 0h1024v1024H0z"/></clipPath></defs></svg>