<svg width="1024" height="1024" fill="none" xmlns="http://www.w3.org/2000/svg"><g clip-path="url(#a)"><path d="M512 1024c282.77 0 512-229.23 512-512S794.77 0 512 0 0 229.23 0 512s229.23 512 512 512Z" fill="#728DBE"/><path d="M784.35 265.52v-18L676.6 328.37v-89.78l-125.72 69.14v114.94L425.16 517V376.87L317.4 436.14v143.68c0 5.853.277 11.636.83 17.35l-108.38 81.27-.21.15h.07L325 631.73a179.62 179.62 0 0 0 351.6-51.91v-90.93l107.76-43.77v-18L676.6 474.3v-14.6l107.76-50.5v-18L676.6 445.11v-14.58l107.76-57.25v-18L676.6 415.94v-14.6l107.76-64v-18l-107.76 67.4v-14.59l107.76-70.71v-18L676.6 357.56V343l107.75-77.48ZM322.43 622.2l-112.5 56.24 111.77-59.37c.24 1.047.483 2.09.73 3.13Zm-3.87-21.89c.12 1.047.247 2.093.38 3.14l-109 74.9 108.62-78.04Zm-108.82 78.23h-.05.06l.1-.07 109.52-71.87c.153 1.046.32 2.09.5 3.13l-110.11 68.79 110.67-65.7c.193 1.047.397 2.09.61 3.13l-111.25 62.57 113.44-53.16c.28 1.06.567 2.117.86 3.17l-114.35 50.01Zm341.13-98.72a62.864 62.864 0 0 1-57.415 62.701 62.86 62.86 0 0 1-67.375-51.851L550.88 540l-.01 39.82Zm0-50.52-125.56 54.93c-.1-1.46-.15-2.93-.15-4.41v-2.25l125.72-58.93-.01 10.66Zm0-21.33-125.71 62.86v-6.73l125.72-66.78-.01 10.65Zm0-21.32-125.71 70.72v-6.74L550.88 476l-.01 10.65Zm0-21.34-125.71 78.58v-6.73l125.72-82.51-.01 10.66Zm0-21.33-125.71 86.44v-6.73l125.72-90.36-.01 10.65Z" fill="#fff"/></g><defs><clipPath id="a"><path fill="#fff" d="M0 0h1024v1024H0z"/></clipPath></defs></svg>