<svg width="1024" height="1024" fill="none" xmlns="http://www.w3.org/2000/svg"><g clip-path="url(#a)"><path d="M512 1024c282.77 0 512-229.23 512-512S794.77 0 512 0 0 229.23 0 512s229.23 512 512 512Z" fill="#728DBE"/><path d="M615.9 484.23H569l13.53-41.63h-41.64L495.8 581.39h86.67a46.265 46.265 0 0 0 44-32l11.34-34.82a23.153 23.153 0 0 0-21.91-30.38v.04Zm-19.37 29.18-9.38 28.85a23.132 23.132 0 0 1-22 16H545l16.54-50.9h30.64a4.606 4.606 0 0 1 4.553 3.86 4.605 4.605 0 0 1-.153 2.14l-.05.05Zm92.41-70.81-9 27.77h41.65l9-27.77h-41.65Zm-45.1 138.79h41.65L717 484.23h-41.59l-31.57 97.16Zm135.65-74h28l7.51-23.16h-28l13.53-41.63h-41.65l-35.25 108.5a23.143 23.143 0 0 0 3.291 20.744 23.157 23.157 0 0 0 18.709 9.546h46.22l7.53-23.13h-30.1a4.587 4.587 0 0 1-3.698-1.896 4.587 4.587 0 0 1-.652-4.104l14.56-44.87ZM327.88 491l45.54-48.44h-48.78l-37.58 115.7h-31.25a4.639 4.639 0 0 1-3.676-1.912 4.63 4.63 0 0 1-.674-4.088L287 442.61h-41.61l-35.25 108.54a23.108 23.108 0 0 0 11.502 27.738 23.114 23.114 0 0 0 10.498 2.512h89.06l31.55-97.16-24.87 6.76Zm154.06-48.44H386.2L400.47 491 380 484.26l-31.68 97.14H390l15-46.26h45a46.265 46.265 0 0 0 44-32l9.86-30.31a23.125 23.125 0 0 0-3.301-20.725 23.126 23.126 0 0 0-18.699-9.525l.08-.02Zm-19.32 29.16L454.74 496a23.132 23.132 0 0 1-22 16h-20.19l15-46.26h30.66a4.585 4.585 0 0 1 4.534 3.865 4.586 4.586 0 0 1-.164 2.135l.04-.02Z" fill="#fff"/></g><defs><clipPath id="a"><path fill="#fff" d="M0 0h1024v1024H0z"/></clipPath></defs></svg>