<svg width="1024" height="1024" fill="none" xmlns="http://www.w3.org/2000/svg"><g clip-path="url(#a)"><path d="M512 1024c282.77 0 512-229.23 512-512S794.77 0 512 0 0 229.23 0 512s229.23 512 512 512Z" fill="#8C72BD"/><path d="M835 589.81a50.811 50.811 0 0 1-50.7 50.73h-362v-132h23.63V616.9h338.58a27.087 27.087 0 0 0 19.152-46.237 27.087 27.087 0 0 0-19.152-7.933H469.79v-23.65H784.3a50.811 50.811 0 0 1 50.7 50.73ZM212.63 512a26.99 26.99 0 0 1 16.698-25.037 26.998 26.998 0 0 1 10.372-2.043H551a50.732 50.732 0 0 0 35.872-86.602A50.735 50.735 0 0 0 551 383.46H422.52v54.17h23.63V407.1H551a27.087 27.087 0 0 1 19.152 46.237A27.087 27.087 0 0 1 551 461.27H239.7a50.84 50.84 0 0 0 0 101.67h159V539.3h-159a27.278 27.278 0 0 1-27.07-27.3Z" fill="#fff"/></g><defs><clipPath id="a"><path fill="#fff" d="M0 0h1024v1024H0z"/></clipPath></defs></svg>