<svg width="1024" height="1024" fill="none" xmlns="http://www.w3.org/2000/svg"><g clip-path="url(#a)"><path d="M512 1024c282.77 0 512-229.23 512-512S794.77 0 512 0 0 229.23 0 512s229.23 512 512 512Z" fill="#98DC9A"/><path d="M559.72 734.61a16.955 16.955 0 0 1 6.69-.582 16.937 16.937 0 0 1 14.46 12.462 17.699 17.699 0 0 1-11.5 21.86 192.207 192.207 0 0 1-56.08 8.65H511a191.998 191.998 0 0 1-56.43-8.76c-9-2.76-14.15-12.56-11.47-21.87a17 17 0 0 1 21.17-11.85 159.117 159.117 0 0 0 46.73 7.3h2.25a159.399 159.399 0 0 0 46.47-7.21Zm124.66-358.08-.06-.16a1.634 1.634 0 0 1 0-.14c0-.1-.08-.19-.11-.29C660 298.79 590.85 247 512 247c-79.07 0-148.35 52.06-172.4 129.53-16.16 48.63-10.39 113.89 15.48 174.68 35.3 83 99.36 140.57 156.09 140.57h1.62c56.73 0 120.79-57.63 156.09-140.57 25.89-60.78 31.66-126.05 15.5-174.68ZM512 276.32a149.575 149.575 0 0 1 89.15 29.44c-28.67-1.23-59.93 11.44-89.13 36.7-29.2-25.27-60.47-38-89.15-36.72A149.541 149.541 0 0 1 512 276.32ZM422.34 608a281.952 281.952 0 0 1-41.27-68.62C358 485.1 352.52 427.67 366.53 385.82c7.4-22.1 19.82-37.85 35.92-45.54 25.15-12 57.67-3.49 88.9 22.58-20 22.35-37.16 49.77-50.12 80.25-24.84 58.33-30.36 118.41-18.89 164.89Zm113.09 49.1a53.9 53.9 0 0 1-46.86 0c-48.4-23.1-58.18-115.69-21.38-202.19 11.67-27.44 27-52.06 44.77-72 17.77 19.94 33.15 44.53 44.84 72 36.82 86.5 27.03 179.09-21.37 202.19Zm107.5-117.69A281.98 281.98 0 0 1 601.67 608c11.46-46.51 5.94-106.58-18.88-164.91-13-30.49-30.17-57.9-50.13-80.25 31.23-26.08 63.76-34.59 88.9-22.58 16.11 7.69 28.53 23.43 35.92 45.54 14 41.87 8.52 99.29-14.55 153.61Z" fill="#fff"/></g><defs><clipPath id="a"><path fill="#fff" d="M0 0h1024v1024H0z"/></clipPath></defs></svg>