<svg width="1024" height="1024" viewBox="0 0 1024 1024" fill="none" xmlns="http://www.w3.org/2000/svg">
<g clip-path="url(#clip0_2_3810)">
<path d="M512 1024C794.77 1024 1024 794.77 1024 512C1024 229.23 794.77 0 512 0C229.23 0 0 229.23 0 512C0 794.77 229.23 1024 512 1024Z" fill="#98DC9A"/>
<path d="M324.6 356.8V438.1C324.6 447.2 322.7 455.3 318.7 462.1C314.7 468.9 309.2 474 301.7 477.6C294.3 481.2 285.6 482.9 275.6 482.9C260.5 482.9 248.4 478.9 239.7 471C231 463.2 226.5 452.3 226.3 438.8V356.9H256.4V439.4C256.8 453 263 459.8 275.3 459.8C281.5 459.8 286.1 458.1 289.3 454.7C292.5 451.3 294.2 445.8 294.2 438.2V356.9H324.6V356.8ZM430.4 435.8C430.4 450.2 427.2 461.7 420.6 470.2C414.2 478.7 405.3 483.1 394.5 483.1C386 483.1 379 479.9 373.5 473.8V516.9H344.6V388.9H371.5L372.3 397.4C377.8 390.6 385 387.2 394.2 387.2C405.7 387.2 414.4 391.4 420.7 399.7C427.1 408 430.2 419.6 430.2 434.3L430.4 435.8ZM401.6 433.8C401.6 417.5 396.7 409.2 387.2 409.2C380.4 409.2 375.7 411.7 373.6 416.6V452.9C376.1 458 380.8 460.5 387.4 460.5C396.5 460.5 401.2 452.7 401.6 436.7V433.8ZM479.2 365.7V388.6H494.5V408.5H479.2V450.7C479.2 454.1 479.8 456.6 481.1 457.9C482.4 459.2 484.9 460 488.5 460C491.3 460 493.8 459.8 495.7 459.6V480.2C490.6 481.9 485.1 482.7 479.6 482.7C469.6 482.7 462.4 480.4 457.7 475.7C453 471 450.7 464 450.7 454.5V408.7H438.8V388.8H450.7V365.7H479.2ZM508.1 364.9C508.1 360.9 509.6 357.5 512.6 354.7C515.6 352.2 519.4 350.7 524.1 350.7C528.8 350.7 532.6 352 535.6 354.7C538.6 357.2 540.1 360.6 540.1 364.9C540.1 368.9 538.6 372.3 535.6 375.1C532.6 377.6 528.8 379.1 524.1 379.1C519.4 379.1 515.6 377.8 512.6 375.1C509.6 372.4 508.1 368.9 508.1 364.9ZM538.6 481.2H509.7V388.9H538.6V481.2ZM586.1 388.9L586.9 399.7C593.5 391.4 602.2 387.2 613.2 387.2C624.9 387.2 632.7 391.9 636.7 401.2C643.1 391.9 652 387.2 663.9 387.2C682.6 387.2 692.3 398.4 692.8 421.1V481.1H664V422.8C664 418.1 663.2 414.7 661.7 412.4C660 410.3 657.2 409.2 653 409.2C647.3 409.2 643 411.7 640.3 416.8V481.1H611.4V423C611.4 418.1 610.6 414.7 609.1 412.6C607.6 410.5 604.6 409.4 600.4 409.4C594.9 409.4 590.6 411.9 587.7 417V481.3H558.8V388.8H586.1V388.9ZM758.6 482.9C744.4 482.9 732.9 478.7 724.2 470.2C715.5 461.7 711 450.7 711 437.1V435C711 425.5 712.7 417.2 716.3 410C719.7 402.8 725 397.3 731.6 393.2C738.4 389.2 746.2 387.3 755.6 387.3C768.5 387.3 778.7 391.3 786.4 399.4C793.8 407.5 797.6 418.7 797.6 433.1V444.3H740.3C741.4 449.4 743.5 453.6 747.1 456.6C750.5 459.6 755.2 461.1 760.7 461.1C769.8 461.1 776.8 457.9 782.1 451.6L795.3 467.1C791.7 472 786.6 476 780 479C773.3 481.4 766.3 482.9 758.6 482.9ZM755.4 409.2C746.9 409.2 742 414.7 740.3 426H769.4V423.9C769.6 419.2 768.3 415.6 765.8 413.3C763.5 410.5 759.9 409.2 755.4 409.2ZM352.6 619.6C360 616.2 365.3 611.5 368.9 605.8C372.5 600.1 374.2 593.1 374.2 584.4C374.2 572.3 370 563.2 361.7 556.6C353.4 550 341.8 546.8 327.1 546.8H278.1V671.1H308V627.2H324.1L346.4 671.1H378.4V669.8L352.6 619.6ZM339.6 599.7C336.6 602.7 332.4 604.2 326.7 604.2H307.8V570H326.7C332.2 570 336.5 571.7 339.4 574.7C342.4 577.7 343.9 581.9 343.9 587.2C343.9 592.5 342.6 596.7 339.6 599.7ZM466.5 590.2C458.7 581.5 447.6 577.3 433.8 577.3C424.9 577.3 417 579.2 410.3 583C403.5 586.8 398.4 592.3 394.8 599.5C391.2 606.7 389.5 615 389.5 624.1L389.3 629.4C389.9 642.8 394.2 653.6 402.2 661.4C410 669.2 420.7 673.3 433.8 673.3C447.4 673.3 458.2 669.1 466.3 660.6C474.4 652.1 478.4 640.7 478.4 626.2V625.1C478.4 610.3 474.6 598.6 466.5 590.2ZM449.9 627.3C449.7 643 444.4 650.8 434.2 650.8C428.9 650.8 425.1 648.9 422.3 644.9C419.5 640.9 418.3 634.5 418.3 626V620.9C419.1 606.7 424.5 599.5 434 599.5C444.6 599.5 449.9 607.8 449.9 624.3V627.3ZM570.4 589.5C564 581.2 555.1 577.2 543.7 577.2C535.2 577.2 528.2 580.2 522.9 586.3V540.1H494V671.4H520L521.3 661.9C527 669.3 534.7 673.1 544 673.1C555.5 673.1 564.2 668.9 570.5 660.8C576.7 652.5 579.8 640.9 579.8 625.8V624.3C579.8 609.5 576.8 597.8 570.4 589.5ZM549.4 640.9C547.5 647.5 543.2 650.9 536.5 650.9C529.9 650.9 525.5 648.4 522.9 643.5V606.8C525.4 601.9 529.9 599.4 536.5 599.4C541.4 599.4 545 601.3 547.3 605.1C549.6 608.7 550.9 615.1 550.9 624C550.9 632 550.5 637.7 549.4 640.9ZM668.5 590.2C660.7 581.5 649.6 577.3 635.8 577.3C626.9 577.3 619 579.2 612.3 583C605.5 586.8 600.4 592.3 596.8 599.5C593.2 606.7 591.5 615 591.5 624.1L591.3 629.4C591.9 642.8 596.2 653.6 604.2 661.4C612 669.2 622.7 673.3 635.8 673.3C649.4 673.3 660.2 669.1 668.3 660.6C676.4 652.1 680.4 640.7 680.4 626.2V625.1C680.3 610.3 676.5 598.6 668.5 590.2ZM651.7 627.3C651.5 643 646.2 650.8 636 650.8C630.7 650.8 626.9 648.9 624.1 644.9C621.3 640.9 620.1 634.5 620.1 626V620.9C620.9 606.7 626.3 599.5 635.8 599.5C646.4 599.5 651.7 607.8 651.7 624.3V627.3ZM700.9 555.8V578.9H689V598.8H700.9V644.6C700.9 654.1 703.2 661.1 707.9 665.8C712.6 670.5 719.8 672.8 729.8 672.8C735.3 672.8 740.8 672 745.9 670.3V649.7C744 649.9 741.4 650.1 738.7 650.1C735.1 650.1 732.5 649.3 731.3 648C730.1 646.7 729.4 644.2 729.4 640.8V598.6H744.7V578.7H729.4V555.8H700.9Z" fill="white"/>
</g>
<defs>
<clipPath id="clip0_2_3810">
<rect width="1024" height="1024" fill="white"/>
</clipPath>
</defs>
</svg>
