<svg width="1024" height="1024" fill="none" xmlns="http://www.w3.org/2000/svg"><g clip-path="url(#a)"><path d="M512 1024c282.77 0 512-229.23 512-512S794.77 0 512 0 0 229.23 0 512s229.23 512 512 512Z" fill="#96DFD3"/><path d="m734.66 406.26-2.47-5.64-3.26-5.23c-25.26-40.56-56.9-71.94-94-93.26C597 280.37 554 269.35 507 269.35s-90 11.08-127.75 32.94c-37.07 21.48-68.44 53.08-93.24 93.91l-3.5 5.77-2.51 6.25C258.46 461 248 507.33 248 550c0 51.57 15.35 96 45.61 132 50.34 59.87 138.65 72.7 205.08 72.7h3.13a525.94 525.94 0 0 0 104.39-11.13c37.12-7.88 68.49-19.16 93.24-33.53C728 693.4 776 652.84 776 567.59c0-44.97-13.52-97.74-41.34-161.33ZM656.8 636.49c-68.45 39.72-246.81 51.83-298.15-9.23-34.227-40.707-34.227-103.04 0-187 34.807-57.334 84.273-86 148.4-86 64.127 0 114.047 28.666 149.76 86 45.62 104.34 45.617 169.75-.01 196.23Zm-75.25-156.08c21 49.5 24.34 75.52 24.47 86.5-17.77 7.39-52.33 16.23-96.46 17.62-49.59 1.56-79.12-7.8-86.71-13C421 569 418 563.32 418 550c0-12.93 3-35.53 16.74-71 18.63-28.14 40-39.74 72.35-39.74 33 .04 54.91 12.03 74.46 41.15Z" fill="#fff"/></g><defs><clipPath id="a"><path fill="#fff" d="M0 0h1024v1024H0z"/></clipPath></defs></svg>