<svg width="1024" height="1024" fill="none" xmlns="http://www.w3.org/2000/svg"><g clip-path="url(#a)"><path d="M512 1024c282.77 0 512-229.23 512-512S794.77 0 512 0 0 229.23 0 512s229.23 512 512 512Z" fill="#9ABEFF"/><path d="m307.65 345.59 64.5-64.5a48.744 48.744 0 0 1 3.65-3.3 47.856 47.856 0 0 1 23.46-10.29c1.1-.16 2.2-.28 3.3-.36 1.1-.08 2.3-.127 3.6-.14 1.54 0 3.077.073 4.61.22a47.91 47.91 0 0 1 29.41 13.87l64.5 64.5-7.68 7.66-90.83 90.85-98.52-98.51ZM527 353.25l90.86 90.85 98.51-98.51-64.5-64.5A47.884 47.884 0 0 0 631.53 269a45.762 45.762 0 0 0-3.37-.87 48.322 48.322 0 0 0-8.59-1.08h-1.73c-1.153 0-2.307.04-3.46.12a48.359 48.359 0 0 0-8 1.25 47.675 47.675 0 0 0-4.46 1.32c-.733.26-1.463.537-2.19.83a44.992 44.992 0 0 0-4.27 2 55.016 55.016 0 0 0-4.1 2.42c-.667.44-1.333.9-2 1.38a48.682 48.682 0 0 0-5.57 4.78l-64.5 64.5 7.71 7.6Zm-22.64 7.32-90.86 90.85.34.34 7.32 7.32L512 549.94l90.85-90.86 7.32-7.32.34-.34-90.86-90.85-7.32-7.32-.34-.34-.34.34-7.29 7.32Zm-113.17 98.51 7.32-7.32.34-.34-98.51-98.51-.34.34-7.32 7.32-64.5 64.5a48.11 48.11 0 0 0 0 68l64.5 64.5 98.51-98.52v.03Zm113.15 98.52.34-.34-45.43-45.43-45.42-45.43-7.32-7.32-.34-.34-.34.34-7.32 7.32L300 564.92l7.66 7.66 90.85 90.85L497 564.92l7.34-7.32Zm305.49-101.4a48.255 48.255 0 0 0-1.29-8.57c-.187-.753-.39-1.5-.61-2.24a47.856 47.856 0 0 0-2.48-6.56 51.284 51.284 0 0 0-2.2-4.19 47.875 47.875 0 0 0-2.64-4 33.28 33.28 0 0 0-1.49-1.92 48.548 48.548 0 0 0-3.3-3.65l-64.5-64.5-7.32-7.32-.34-.34-98.51 98.51.34.34 7.32 7.32 98.51 98.52 64.5-64.5a48.548 48.548 0 0 0 4.79-5.57 47.627 47.627 0 0 0 2.64-4 39.493 39.493 0 0 0 2.2-4.19 47.856 47.856 0 0 0 2.48-6.56c.22-.747.423-1.493.61-2.24a48.255 48.255 0 0 0 1.29-8.57 46.159 46.159 0 0 0 0-5.77Zm-184.34 10.2-7.32-7.32-.15-.15-.19-.19-.34.34-7.32 7.32-90.85 90.86.34.34 7.32 7.32 98.52 98.52 90.85-90.85 7.66-7.66-98.52-98.53Zm-7.32 204.35-98.52-98.52-7.32-7.32-.34-.34-.34.34-7.32 7.32-98.51 98.52.29.29 7.32 7.32 64.5 64.5a48.043 48.043 0 0 0 9.57 7.43c1.333.807 2.73 1.54 4.19 2.2a48.004 48.004 0 0 0 15.65 4.24 48.273 48.273 0 0 0 9.22 0 47.997 47.997 0 0 0 15.65-4.24 51.284 51.284 0 0 0 4.19-2.2 48.043 48.043 0 0 0 9.57-7.43l64.5-64.5 7.32-7.32.33-.33.05.04Z" fill="#fff"/></g><defs><clipPath id="a"><path fill="#fff" d="M0 0h1024v1024H0z"/></clipPath></defs></svg>