<svg width="1024" height="1024" viewBox="0 0 1024 1024" fill="none" xmlns="http://www.w3.org/2000/svg">
<g clip-path="url(#clip0_2_3819)">
<path d="M512 1024C794.77 1024 1024 794.77 1024 512C1024 229.23 794.77 0 512 0C229.23 0 0 229.23 0 512C0 794.77 229.23 1024 512 1024Z" fill="#54688C"/>
<path d="M491 244C480.4 244 477.86 253.81 477.86 253.81L450 364.52L335.84 299.06C335.84 299.06 323.49 290.69 310.61 290.69C297.73 290.69 287 299.38 287 299.38L288.23 341.73C288.23 341.73 297.75 334.05 310.64 334.05C323.53 334.05 335.87 342.44 335.87 342.44L476.26 422.92L508 287.39L519.82 337.32L681.36 429.94C681.36 429.94 694.06 438.28 706.54 438.28C719.02 438.28 730.21 429.56 730.21 429.56L729 387.25C729 387.25 718.87 394.93 706.56 394.93C694.25 394.93 681.38 386.57 681.38 386.57L556.38 314.9L547.76 282.75C547.779 282.264 547.954 281.798 548.261 281.421C548.568 281.044 548.989 280.777 549.46 280.66L570.61 274.16C571.793 274.155 572.93 274.617 573.773 275.447C574.616 276.277 575.097 277.407 575.11 278.59L576.22 280.9C577.01 281.29 580.22 279.76 580.41 279.64V267C580.41 264.899 579.993 262.82 579.183 260.882C578.373 258.944 577.186 257.186 575.691 255.71C574.196 254.235 572.423 253.071 570.474 252.286C568.526 251.502 566.441 251.112 564.34 251.14H543.19C542.072 248.922 540.342 247.071 538.205 245.806C536.068 244.54 533.612 243.914 531.13 244H491ZM310.61 346.06C298.71 346.06 286.97 354.73 286.97 354.73L288.19 397.06C288.19 397.06 298.77 389.37 310.61 389.37C322.45 389.37 335.84 397.75 335.84 397.75L464.84 471.75L473.79 433.52L335.84 354.36C335.84 354.36 322.51 346.06 310.61 346.06ZM523 351L534.79 401.17L681.37 485.17C681.37 485.17 694.5 493.54 706.55 493.54C718.6 493.54 730.22 484.82 730.22 484.82L729 442.57C722.506 447.419 714.653 450.105 706.55 450.25C693.48 450.25 681.37 441.9 681.37 441.9L523 351ZM310.61 401.36C298.71 401.36 287 410 287 410L288.22 452.33C288.22 452.33 298.8 444.65 310.64 444.65C322.48 444.65 335.87 453.02 335.87 453.02L453.4 520.43L462.34 482.17L335.85 409.68C335.85 409.68 322.52 401.37 310.62 401.37L310.61 401.36ZM538 415L549.82 465.18L681.4 540.56C681.4 540.56 694.53 548.93 706.58 548.93C718.63 548.93 730.25 540.2 730.25 540.2L729 497.88C722.516 502.742 714.664 505.437 706.56 505.58C693.49 505.58 681.38 497.24 681.38 497.24L538 415ZM310.61 456.71C298.71 456.71 286.97 465.39 286.97 465.39L288.19 507.7C288.19 507.7 298.77 500 310.61 500C322.45 500 335.84 508.38 335.84 508.38L441.92 569.22L450.92 530.99L335.84 465C335.84 465 322.51 456.69 310.61 456.69V456.71ZM553.09 479L564.86 529.1L681.4 595.89C681.4 595.89 694.51 604.26 706.58 604.26C718.65 604.26 730.25 595.54 730.25 595.54L729 553.24C722.507 558.08 714.658 560.759 706.56 560.9C693.49 560.9 681.38 552.54 681.38 552.54L553.09 479ZM461.8 615.8C440.23 615.8 413.16 626.64 413.16 656.33C413.16 676.91 428.58 686.62 439.11 691.65C444.69 694.31 451.48 697.29 457.11 700.25C459.99 701.79 471.45 705.58 471.45 717.75C471.45 730.8 456.92 735.23 450.4 735.23C427.14 735.23 411.31 724.84 411.31 724.84L413.71 751C413.71 751 423.22 755.72 451.66 755.79C478.79 755.7 498.36 738.59 498.36 715.02C498.36 696.88 485.75 686.14 474.99 681.02C466.52 676.96 461.61 674.73 454.24 671.32C446.87 667.91 439.24 662.05 439.24 652.95C439.24 643.17 448.35 636.15 461.77 636.15C481.52 636.15 489.46 644.92 494.29 647.65V623.22C494.29 623.22 479.06 615.81 461.77 615.81L461.8 615.8ZM545.45 617.52L550 628.85L502.64 753H528.5L536.77 729.36H585.77L594 753H642.87L651.18 729.36H700.18L708.37 753H737L688.42 617.53H659.81L664.38 628.85L619.93 745.27L574.09 617.53L545.45 617.52ZM288.45 617.72V701.45C288.45 748.23 317.55 755.99 341.94 755.99C377.94 755.99 394.69 732.61 394.69 700.99V617.73H370.8V703.83C370.8 714.69 367.19 734.99 341.92 734.58C318.92 734.21 314.71 713.47 314.71 700.14V617.73L288.45 617.72ZM562.26 657.94L579.26 710.94H543.26L562.26 657.94ZM676.58 657.94L693.58 710.94H657.58L676.58 657.94Z" fill="white"/>
</g>
<defs>
<clipPath id="clip0_2_3819">
<rect width="1024" height="1024" fill="white"/>
</clipPath>
</defs>
</svg>
