<svg width="1024" height="1024" viewBox="0 0 1024 1024" fill="none" xmlns="http://www.w3.org/2000/svg">
<g clip-path="url(#clip0_2_3825)">
<path d="M512 1024C794.77 1024 1024 794.77 1024 512C1024 229.23 794.77 0 512 0C229.23 0 0 229.23 0 512C0 794.77 229.23 1024 512 1024Z" fill="#56595B"/>
<path d="M333.9 435.8H383.5L381.5 440.9C380.4 443.7 367.6 478.6 352.8 518.3L326 590.5L299.6 590.7L273.1 591L244.1 514.3C228.2 472.1 215 437.1 214.8 436.7C214.6 436.2 226 435.8 240 435.8H265.5L268.9 446.8C270.9 452.9 278.5 477.5 286 501.5C293.6 525.5 299.8 544.7 300.1 544.2C300.4 543.7 308 519.2 317.2 489.5L333.9 435.8ZM420.4 434.3C402.2 437.2 388.9 446.9 382.8 461.4C379.7 469 376.8 481.4 378 482.6C378.8 483.4 420.1 486.8 421.2 486.1C421.6 485.9 421.9 484.6 421.9 483.4C421.9 479.7 425.6 470.7 428.1 468.4C431.1 465.5 436.9 463.3 441.3 463.3C448.4 463.4 455.9 468.3 458.2 474.4C462.3 485.1 455.3 495.2 430.5 514.2C403.2 535 389.5 549.1 382.4 563.9C378.6 571.7 375.2 581.9 374.6 587.1L374.3 590.5H503.9L504.2 573L504.4 555.6H470.8L437.1 555.5L442.5 550.7C445.4 548 451.4 543.3 455.8 540.2C477.6 524.8 488.3 515.4 494.3 506.1C503.5 492.1 505.3 473.9 498.6 459.9C492.8 447.6 482.7 439.8 467.4 435.8C457 433 432.9 432.2 420.4 434.3ZM782.9 549.9C769 528.7 757.6 511.1 757.6 510.8C757.6 510.4 768.2 493.6 781.2 473.5C794.2 453.3 804.8 436.5 804.8 436.2C804.8 435.9 792.9 435.7 778.5 435.7H752.2L739.5 458.3C732.6 470.8 726.6 481.1 726.2 481.4C725.9 481.6 719.6 471.4 712.4 458.8L699.2 435.7H672.5C657.8 435.7 645.7 435.9 645.7 436.1C645.7 436.3 656.4 452.8 669.5 472.7C682.6 492.5 693.2 509.3 693.2 510C693.2 510.7 682.4 527.4 669.2 547.2L645.2 583.2L644.9 569.4L644.6 555.5L603.7 555.3L562.8 555V525.5L599.9 525.2L636.9 525L636.7 509L636.4 493.1L599.4 492.8L562.3 492.6V469H642.8V435.6H514.1V590.7L604.6 590.5L695.1 590.2L709.6 566.6C717.7 553.6 724.4 542.9 724.9 542.8C725.3 542.6 732.2 553.3 740.3 566.6L754.9 590.6H782.3C803.9 590.6 809.5 590.3 808.9 589.3C808.6 589 796.9 571.1 782.9 549.9Z" fill="white"/>
</g>
<defs>
<clipPath id="clip0_2_3825">
<rect width="1024" height="1024" fill="white"/>
</clipPath>
</defs>
</svg>
