<svg width="1024" height="1024" viewBox="0 0 1024 1024" fill="none" xmlns="http://www.w3.org/2000/svg">
<g clip-path="url(#clip0_2_3828)">
<path d="M512 1024C794.77 1024 1024 794.77 1024 512C1024 229.23 794.77 0 512 0C229.23 0 0 229.23 0 512C0 794.77 229.23 1024 512 1024Z" fill="#728DBE"/>
<path d="M508.37 560.28V784.53L460.93 747.62C381.32 685.74 318.52 590.74 283.67 480.23C269.973 436.24 260.703 390.992 256 345.16C305.701 313.32 360.911 291.042 418.79 279.47C419.385 330.625 427.44 381.42 442.7 430.25C443.53 433.39 444.61 436.77 445.7 440.05C446.53 441.96 447.18 444.05 447.8 445.98C449.28 449.98 450.54 453.72 452.01 457.54C452.84 459.6 453.67 461.54 454.31 463.37C456.81 469.45 459.22 475.57 462.05 481.45C463.05 483.95 464.35 486.36 465.39 488.99C465.83 489.82 466.26 490.65 466.66 491.49C467.74 493.99 468.96 496.4 470.23 498.9C481.022 520.493 493.79 541.041 508.37 560.28ZM716.13 544.57C743.496 481.147 760.989 413.908 768 345.19C718.298 313.357 663.088 291.086 605.21 279.52C603.51 387.52 570.63 488.24 515.89 559.91V784.16L559.07 750.7L563.28 747.42C569.553 742.373 575.697 737.186 581.71 731.86L582.47 731.18C584.203 729.64 585.927 728.09 587.64 726.53C588.46 725.79 589.26 725.03 590.07 724.28C591.21 723.23 592.35 722.18 593.48 721.12C595.06 719.633 596.627 718.136 598.18 716.63L599.18 715.63C649.27 667.05 689.046 608.867 716.13 544.56V544.57Z" fill="white"/>
</g>
<defs>
<clipPath id="clip0_2_3828">
<rect width="1024" height="1024" fill="white"/>
</clipPath>
</defs>
</svg>
