<svg width="1024" height="1024" fill="none" xmlns="http://www.w3.org/2000/svg"><g clip-path="url(#a)"><path d="M512 1024c282.77 0 512-229.23 512-512S794.77 0 512 0 0 229.23 0 512s229.23 512 512 512Z" fill="#728DBE"/><path d="M508.37 560.28v224.25l-47.44-36.91c-79.61-61.88-142.41-156.88-177.26-267.39A691.922 691.922 0 0 1 256 345.16a474.086 474.086 0 0 1 162.79-65.69 525.998 525.998 0 0 0 23.91 150.78c.83 3.14 1.91 6.52 3 9.8.83 1.91 1.48 4 2.1 5.93 1.48 4 2.74 7.74 4.21 11.56.83 2.06 1.66 4 2.3 5.83 2.5 6.08 4.91 12.2 7.74 18.08 1 2.5 2.3 4.91 3.34 7.54.44.83.87 1.66 1.27 2.5 1.08 2.5 2.3 4.91 3.57 7.41a391.146 391.146 0 0 0 38.14 61.38Zm207.76-15.71A676.601 676.601 0 0 0 768 345.19a474.082 474.082 0 0 0-162.79-65.67c-1.7 108-34.58 208.72-89.32 280.39v224.25l43.18-33.46 4.21-3.28a509.185 509.185 0 0 0 18.43-15.56l.76-.68a570.63 570.63 0 0 0 5.17-4.65c.82-.74 1.62-1.5 2.43-2.25 1.14-1.05 2.28-2.1 3.41-3.16a434.823 434.823 0 0 0 4.7-4.49l1-1a518.867 518.867 0 0 0 116.95-171.07v.01Z" fill="#fff"/></g><defs><clipPath id="a"><path fill="#fff" d="M0 0h1024v1024H0z"/></clipPath></defs></svg>