<svg width="1024" height="1024" viewBox="0 0 1024 1024" fill="none" xmlns="http://www.w3.org/2000/svg">
<g clip-path="url(#clip0_2_3831)">
<path d="M512 1024C794.77 1024 1024 794.77 1024 512C1024 229.23 794.77 0 512 0C229.23 0 0 229.23 0 512C0 794.77 229.23 1024 512 1024Z" fill="#9ABEFF"/>
<path d="M776.34 554.33C775.3 551.93 767.01 553.35 766.3 550.71C765.9 549.69 764.16 548.84 762.43 548.84C757.79 548.6 760.27 546.02 754.43 546.35C748.24 546.89 749.98 542.95 745.13 542.61C731.75 538.21 755.04 539.85 755.1 537.01C753.73 534.15 783.74 535.99 782.14 532.86C786.9 526.48 782.51 526.47 780.46 523.31C780.46 522.28 779.68 521.44 778.73 521.44C776.19 521.3 776.14 517.41 773.04 517.7C771.62 517.7 770.51 516.88 770.51 515.83C770.45 513.19 766.97 514.55 766.33 512.09C765.86 509.8 762.13 510.81 761.79 509C761.74 507.28 755.28 506.67 755.57 504.49C755.57 503.53 754.73 502.76 753.7 502.76C752.67 502.76 751.83 502.2 751.83 501.51C751.72 499.67 745.15 500.95 745.61 498.39C745.7 495.84 741.78 497.21 741.87 494.65C741.8 492.01 738.34 493.37 737.68 490.91C737.16 488.39 730.56 489.9 730.66 487.17C730.75 484.62 726.83 485.99 726.92 483.43C725.59 480.25 721.94 480.78 727.54 476.08C731.16 473.92 729.66 471.46 732.52 469.9C734.99 469.32 733.6 464.19 736.26 464.12C737.28 464.12 738.13 463.28 738.13 462.25C743.47 457.49 748.08 448.36 753.69 442.49C756.07 442.1 754.93 435.73 757.01 435.47C762.3 433.94 767.07 422.59 770.51 419.9C770.43 417.37 773.08 418.7 773 416.16C773 415.14 773.84 414.29 774.87 414.29C777.61 414.61 775.87 407.75 778.61 408.07C781.25 408 779.89 404.54 782.35 403.89C788.37 400.67 778.17 393.06 775.03 395.6C774.33 396.29 772.45 396.86 770.86 396.86C766.71 396.89 767.54 400.91 762.92 400.6C756.91 400.6 761.69 404.99 754.33 404.34C750.74 404.34 749.35 404.86 749.35 406.21C750.07 408.96 739.31 407.55 738.82 409.23C738.38 410.58 730.8 411.55 730.67 413.16C729.1 416.55 719.9 411.99 726.99 410.57C729.77 410.99 734.51 404.58 736.72 404.35C738.74 404.26 737.55 400.43 740.01 400.61C741.03 400.61 741.88 399.77 741.88 398.74C741.79 396.2 745.71 397.55 745.62 395C746.77 392.43 753.05 390.67 751.84 383.17H667.15V269.83C664.83 269.99 656.74 269.09 657.18 271.7C656.85 274.61 652.98 272.6 653.44 276.72C653.61 280.88 649.62 280.24 649.7 284.28C649.7 286.1 648.98 287.26 647.83 287.26C644.98 286.75 646.95 295.25 644.09 294.73C642.96 294.73 642.22 295.9 642.22 297.71C642.34 301.71 638.35 301.12 638.48 305.15C638.58 309.23 634.58 308.59 634.74 312.76C634.74 314.49 634.18 315.91 633.5 315.91C631.68 316.19 632.66 319.59 630.48 320.06C628.17 320.71 628.48 326.14 626.33 326.82C620.56 320.08 630.34 319.4 628.51 307.34C628.33 293.69 634.03 294.62 631.75 280.49C630.58 275.84 622.71 275.8 621.54 280.42C620.98 284.57 616.59 282.55 615.25 285.4C614.59 287.86 611.13 286.5 611.06 289.14C597.61 302.85 576.95 321.6 563.82 332.25C563.61 329.75 557.15 325.15 557.5 322.21C557.79 318.87 553.88 320.5 553.76 317.79C553.76 316.76 552.92 315.92 551.89 315.92C549.04 316.43 551.01 307.94 548.15 308.45C545.6 308.54 546.97 304.62 544.41 304.71C541.93 305.21 543.01 298.73 541.61 298.47C540.39 298.55 536.01 286.87 534.3 287.27C532.43 287.48 531.72 280.99 530.06 281.05C529.39 281.05 528.84 280.19 528.84 279.14C528.61 276.27 524.77 276.41 525.1 272.82C525.1 270.14 524.56 269.84 519.74 269.84C511.99 269.84 511.39 270.97 511.39 285.66C512.44 305.11 507.99 291.69 507.65 305.92C508.14 317.02 503.56 313.6 503.91 305.2C504.32 293.68 499.52 303.27 500.17 291.01C500.82 278.7 495.99 288.39 496.43 276.69C496.43 272.92 495.87 269.84 495.19 269.84C493.39 268.98 494.39 256.6 492.07 255.69C489.39 253.73 491.01 241.46 488.33 239.5C484.56 235.88 489.9 227.03 480.86 228.74C475.28 228.74 475.25 228.76 475.25 233.1C473.75 236.67 471.62 251.73 470.14 255.6C468.44 255.64 470.02 275.33 467.16 273.58C464.17 271.33 466.4 293.26 463.42 291.01C460.44 288.76 462.66 310.7 459.68 308.45C458.2 308.45 457.81 310.23 457.81 317.04C458.56 329.64 454.07 322.62 454.07 333.18C454.26 351.7 444.11 343.04 438.5 337.09C435.94 337.18 437.32 333.26 434.76 333.35C434.265 333.348 433.791 333.15 433.441 332.8C433.091 332.45 432.893 331.976 432.89 331.48C432.83 328.84 429.36 330.19 428.71 327.74C419.33 324.75 369 268.45 371.16 293.49C377.42 308.63 382.13 331.84 390.56 347.13C391.24 358.81 366 311.69 361.91 309.02C362.04 299.43 338.77 291.17 346.35 305.94C349.14 306.9 347.29 323.66 350.09 324.62C352.85 324.28 350.78 344.65 353.83 343.3C357.88 350.27 356.33 373.27 360.42 381.62C362.68 381.26 361.05 401.12 363.79 400.14C366.7 399.67 364.77 420.54 367.53 420.52C371.45 422.93 368.01 428.36 365.21 423.63C346.71 419.51 327.74 411.68 306.5 411.18C306.55 413.66 304.8 422.37 307.67 421.76C310.34 421.29 308.98 427.81 310.85 427.99C311.54 427.99 312.1 428.85 312.1 429.9C312.13 432.59 316.07 432.6 315.84 435.64C315.58 438.65 319.48 438.67 319.58 441.2C319.58 442.16 320.42 442.94 321.45 442.94C325.84 448.03 330.78 458.26 336.05 464.11C337.48 464.35 336.54 468.15 338.88 467.85C341.69 467.96 340.11 474.31 342.92 475.17C346.47 477.16 343.52 478.41 339.08 476.81C338.63 474.72 296.03 476.43 297.96 473.45C300.3 469.62 253.06 473.66 255.07 469.59C250.01 460.4 245.83 483.01 252.63 481.32C254.6 481.54 256.06 482.48 256.06 483.49C255.51 486 263.48 484.68 263.53 486.52C263.57 491.3 271.97 491.74 273.49 494.61C273.49 495.64 274.33 496.48 275.36 496.48C278.19 496.85 276.83 499.15 280.97 499.6C285.11 500.17 283.71 502.13 286.44 502.72C287.4 502.72 288.5 503.56 288.89 504.59C289.49 507.08 294.59 505.66 294.67 508.33C294.67 509.57 295.92 510.2 298.41 510.2C303.29 509.69 300.91 513.32 304.01 513.94C305.04 513.94 305.88 514.78 305.88 515.81C306.93 518.8 311.49 517.36 314.09 520.79C316.65 524.36 322.26 522.69 323.32 525.77C323.32 526.79 324.09 527.64 325.03 527.64C355.19 539.1 300.17 535.02 296.54 533.86C261.61 531.39 341.63 579.99 348.23 586.8C347.97 589.19 351.78 588.14 351.97 589.82C351.6 591.35 357.86 592.04 352.9 592.26C348.6 592.17 350.59 594.77 346.98 594.9C345.6 594.9 344.49 595.73 344.49 596.77C344.49 597.81 343.38 598.64 341.96 598.64C338.75 598.44 332.81 606.31 329.59 606.11C325.82 606.16 328.26 610.21 323.9 609.85C320.22 609.46 320.28 613.23 317.58 613.59C314.93 613.97 316.31 616.06 312.73 616.59C309.08 617.1 310.55 619.5 307.75 619.81C306.73 619.81 305.88 620.65 305.88 621.68C306.4 624.53 297.9 622.57 298.41 625.42C298.34 628.08 293.23 626.69 292.63 629.16C291.78 631.69 288.5 630.36 287.65 632.9C287.25 633.93 285.8 634.77 284.41 634.77C281.14 634.61 276.82 641.19 273.52 641C272.09 641 270.61 641.84 270.21 642.87C269.38 645.4 264.82 644.07 263.99 646.61C263.35 649.05 259.86 647.72 259.8 650.35C260.36 653.12 251.98 651.35 252.33 653.94C252.33 654.89 251.34 656 250.15 656.42C236.05 660.78 236.41 679.66 248.14 671.52C246.91 668.63 267.81 670.81 266.03 667.78C286.71 661.62 317.23 660.18 340.47 653.7C340.33 651.47 358.51 653.09 357.74 650.35C356.95 647.47 376.87 649.49 376.08 646.61C379.46 640.07 386.04 649.2 381.83 652.42C380.67 654.32 377.24 668.19 376.87 671.36C377.13 678.99 372.87 677.75 373.13 685.4C373.31 694.3 368.79 689.15 369.39 699.04C369.92 710.25 365.13 701.26 365.65 712.48C366.18 722.71 361.59 717.01 361.91 726.77C361.91 735.54 354.3 738.29 360 746.83C368.88 751.52 371.57 739.19 378.15 736.9C378.81 736.9 379.35 736.06 379.35 735.03C379.25 732.46 383.18 733.86 383.09 731.29C396.58 717.54 413.95 701.24 427.3 687.07C428.47 687.07 429.17 688.25 429.17 690.23C429.46 695.22 433.44 693.43 432.91 699.67C432.64 707.76 437.23 701.29 436.65 710.12C436.08 719.01 440.73 712.42 440.39 720.75C440.02 728.11 444.43 724.82 444.13 732.05C444.13 735.45 444.67 736.9 445.94 736.9C448.43 736.31 448.19 747.32 448.5 749.98C451.99 749.73 463.28 752.47 461.58 747.69C461.58 746.02 462.42 744.32 463.45 743.93C465.98 743.11 464.65 737.27 467.19 736.46C469.52 736.09 468.5 729.8 470.3 729.44C470.99 729.44 471.55 728.04 471.55 726.32C471.46 721.49 475.73 724.91 475.29 719.47C475.29 715.11 476.79 714.74 480.27 718.22C483.85 719.26 481.38 733.09 484.63 733.17C487.62 732.04 485.38 745.51 488.37 744.38C491.39 742.82 489.09 759.63 492.11 758.08C495.25 768.51 499.95 782.79 500.2 795.44H515.15C514.12 783.11 518.84 777.27 521.38 766.83C521.04 758.5 525.68 765.11 525.11 756.2C524.52 747.38 529.12 753.83 528.85 745.75C528.47 738.8 532.81 741.66 532.59 734.98C539.42 708.55 537.33 722.52 551.89 733.17C554.45 733.08 553.07 736.99 555.63 736.9C556.65 736.9 557.5 737.74 557.5 738.77C557.41 741.32 561.32 739.95 561.24 742.51C561.04 744.94 564.86 743.8 564.98 745.72C565.01 749.43 570.66 749.72 571.21 752.47C571.12 755.03 575.04 753.65 574.94 756.21C574.94 757.24 575.78 758.08 576.81 758.08C579.37 757.99 577.99 761.91 580.55 761.82C581.71 761.82 582.42 762.99 582.42 764.88C582.42 768.53 589.09 770.48 593.5 768.12C596.04 766.76 596.12 765.9 596.12 739.36C596.29 704.81 594.87 709.16 607.33 717.75C606.97 720.08 613.48 718.97 613.55 720.64C616.23 723.09 624.87 729.07 628.49 729.44C633.29 728.89 631.06 732.5 633.96 733.18C636.47 733.27 636.55 737.18 639.53 736.92C642.97 737 642.56 740.94 646.51 740.66C648.48 740.66 649.66 741.36 649.66 742.53C652.69 746.11 656.4 748.69 663.83 747.44C672.06 743.41 662.45 742.01 663.37 735.51C657.71 719.68 654.21 700.99 647.49 684.72C643.32 682.59 649.95 683.2 650.12 685.24C651.15 688.01 660.01 686.5 661.67 688.98C664.08 690.09 677.18 694.49 679.51 694.59C686.56 694.29 683.44 698.68 690.59 698.32C697.51 697.91 694.75 702.23 701.24 702.06C703.62 702.06 705.91 702.62 706.34 703.31C706.8 705.14 717.63 703.62 716.92 706.43C715.8 709.43 729.26 707.17 728.13 710.17C727.29 712.88 739.12 711.84 741.83 712.04C741.7 709.64 742.54 701.69 739.96 702.07C738.93 702.07 738.09 701.23 738.09 700.2C738.18 697.63 734.26 699.03 734.35 696.46C730.69 692.69 723.83 680.36 718.78 677.16C716.26 677.27 717.57 673.4 715.19 673.43C714.24 673.43 713.14 672.45 712.73 671.25C712.77 666.58 702.14 661.31 707.56 659.73C710.4 660.28 708.9 662.48 713.17 662.22C718 661.61 715.72 665.33 718.65 665.96C721.35 666.34 721.29 670.05 724.97 669.7C729.54 669.41 726.7 673.63 731.1 673.44C732.74 673.44 734.4 674.28 734.8 675.31C735.62 677.84 741.45 676.52 742.27 679.05C750.86 685.88 754.69 673.74 749.29 667.37C749.25 664.06 745.3 662.6 745.56 658.97C745.56 657.17 744.83 656.01 743.69 656.01C740.84 656.51 742.8 648.03 739.95 648.54C737.1 649.04 739.06 640.56 736.21 641.07C734.9 641.07 734.34 639.75 734.34 636.67C734.74 630.76 730.59 632.56 730.6 627.24C731.02 622 726.78 625.28 726.86 620.6C727.06 616.77 724.39 617.05 724.36 613.56C724.36 612.21 723.52 610.78 722.49 610.38C719.9 609.91 721.54 602.26 718.75 602.46C716.08 602.67 715.37 588.61 720.62 591.25C726.01 591.14 723.2 588.91 729.34 588.28C735.24 587.71 732.77 585.35 737.48 585.02C741.91 585.04 740.94 581.01 745.71 581.28C747.79 581.28 749.65 580.48 750.07 579.41C750.33 576.69 759.63 578.57 759.24 575.67C758.73 572.82 767.22 574.78 766.71 571.93C765.64 569.26 776.6 570.59 776.67 569.09C786.74 563.09 787.49 559.5 776.3 554.37L776.34 554.33ZM551.1 459.84L551.51 459.3C555.7 454.67 557.73 454.75 563.05 457.54C575.93 464.26 592.34 464.34 602.08 457.74L602.99 457.12L604.09 457.09C610.25 456.93 616.15 457.4 617.52 461.66C618.39 464.38 616.97 467.03 613.29 469.53C606.91 473.88 590.77 479.74 579.16 479.74C575.48 479.74 572.26 479.15 569.95 477.74C564.31 476.82 553.53 473.43 550.63 467.39C549.44 464.92 549.61 462.23 551.09 459.84H551.1ZM496.2 478.5L496.16 478.47C498.79 474.66 501.59 473.19 504.5 474.1C510.89 476.11 511.99 488.28 511.87 521.57C511.86 525.77 511.84 529.59 511.91 532.34C514.17 532.45 517.14 532.48 520.23 532.52C537.85 532.72 545.79 533.3 547.8 538.02C548.15 538.84 548.7 540.83 547.22 543.12L546.61 549.41L540.16 549.55C530.99 549.77 523.79 549.88 518.1 549.88C497.63 549.88 496.97 548.52 495.88 546.29L494.83 544.13L495.52 543.18C493.72 530.28 492.61 485.18 496.21 478.52L496.2 478.5ZM425.53 466.61C424.48 463.65 425.42 460.71 428.12 458.52C430.2 456.83 432.9 456.05 435.45 456.36C437.71 456.64 439.66 457.73 440.94 459.43C444.19 463.74 465.45 464.34 477.45 457.72L479 457.26C486.51 456.74 490.43 457.74 492.13 460.64C492.64 461.5 493.62 463.83 491.73 466.72C487.95 472.53 472.51 479.23 460.68 479.23C459.6 479.23 458.55 479.17 457.54 479.05C444.5 478.75 428.27 474.34 425.53 466.6V466.61ZM619.87 559.04C602.63 601.73 557.93 628.25 511.21 628.26C496.89 628.26 482.38 625.77 468.41 620.49C457.22 616.26 453.26 614.77 452.01 610.97C450.93 607.71 452.77 604.86 455.3 600.92L456.95 598.37L459.99 599.14C462.53 600.11 464.73 601.05 466.98 602.01C472.5 604.36 478.21 606.8 490.05 610.17C518.42 616.07 546.82 610.26 569.75 593.75C595.09 575.51 611.91 545.66 615.9 511.86L616.24 508.95L619.15 508.59C622.69 508.16 625.71 509.32 627.62 511.87C635.4 522.24 621.49 555.3 619.87 559.04Z" fill="white"/>
</g>
<defs>
<clipPath id="clip0_2_3831">
<rect width="1024" height="1024" fill="white"/>
</clipPath>
</defs>
</svg>
