<svg width="1024" height="1024" fill="none" xmlns="http://www.w3.org/2000/svg"><g clip-path="url(#a)"><path d="M512 1024c282.77 0 512-229.23 512-512S794.77 0 512 0 0 229.23 0 512s229.23 512 512 512Z" fill="#9ABEFF"/><path d="M455 432.69h27.68L478 454.94h-27.44l4.44-22.25Zm-21.25 107.1a31.243 31.243 0 0 0-.78 6.47c0 10.09 6.73 12.93 14 12.93a28.007 28.007 0 0 0 10.61-2.07l17.59-88h-27.45s-8.54 43.25-13.97 70.67Zm287.39-72.43c-18.37 0-25.61 10.61-29 17.33h-.26l1-15.26h-27.09a223.413 223.413 0 0 1-3.1 23s-6.21 31.82-7.5 38c-.78 4.66-2.59 11.64-2.59 15.52 0 8.54 4.4 13.45 14 13.45a31.2 31.2 0 0 0 10.86-2.07l9.05-45.79c2.59-12.68 11.64-21 22.51-21 8.8 0 12.93 6.47 12.93 11.64a62.8 62.8 0 0 1-2.07 14L716 535.91a54.736 54.736 0 0 0-1.55 10.35c0 8.8 4.91 12.93 14.23 12.93a29.002 29.002 0 0 0 10.61-2.07l8.24-41.12c1.81-9.31 2.33-14.23 2.33-20.18 0-16.82-9.86-28.46-28.72-28.46Zm-76.31 39.06c0 33.37-22.76 52.77-54.06 52.77-29.49 0-43.72-17.59-43.72-40.1 0-30.78 21.21-51.74 54.06-51.74 28.46.01 43.72 17.08 43.72 39.07Zm-28.2 0c0-9.05-4.91-17.85-18.11-17.85-15.26 0-23.8 15.78-23.8 29.75 0 11.64 5.43 19.66 17.59 19.66 13.69.02 24.58-11.64 24.33-31.56h-.01Zm-88.21-37.25 1-5.17c2.07-9.83 6.47-14.23 14.49-14.23 3.741.054 7.466.486 11.12 1.29l4.14-20.18c-1.81-.52-9.57-2.33-21.21-2.33-18.62 0-30.78 11.38-34.4 29.49l-2.33 11.12h-14l-4.14 21.47h14s-5.69 27.42-9.57 47.34a48.714 48.714 0 0 0-1 8c0 10.09 6.73 13.19 14 13.19a26.66 26.66 0 0 0 10.61-2.07l13.19-66.74h21.47l4.14-21.21-21.51.03Zm-104.25-1.81c-13.71 0-21.47 9.57-24.32 17.33h-.26l1-15.26h-27.37c-.26 5.17-1.29 14.23-4.14 28.2-2.85 14.23-5.43 28.45-8.28 42.16a31.623 31.623 0 0 0-.78 6.73c0 7.24 3.62 12.93 14.23 12.93a26.66 26.66 0 0 0 10.61-2.07l8-40.87c2.85-15.52 8.28-25.87 23.54-25.87a74.986 74.986 0 0 1 15 1.81l4.66-23.54a38.899 38.899 0 0 0-11.88-1.55h-.01Zm424.75 54.58h-62.33c-.26 6.47 5.17 17.59 26.9 17.59 9.83 0 20.69-3.62 22.51-4.4v2.33c0 12.42-11.9 21.73-32.85 21.73-29 0-43.2-18.11-43.2-40.1 0-21.99 14.49-51.74 49.93-51.74 23.54 0 41.13 11.64 41.13 38.28a87.317 87.317 0 0 1-2.08 16.31h-.01Zm-39.06-33.37c-12.93 0-18.62 8.8-21.21 16.3h34.92c1.56-8.02-3.09-16.3-13.7-16.3h-.01Zm-456.3 17.07a66.876 66.876 0 0 1-2.33 16.3h-62.34c-.26 6.47 5.17 17.59 26.9 17.59 9.83 0 20.69-3.62 22.51-4.4v2.33c0 12.42-11.9 21.73-32.85 21.73-29 0-43.2-18.11-43.2-40.1 0-21.99 14.49-51.74 50.18-51.74 23.57.01 41.13 11.65 41.13 38.29Zm-41.39-17.07c-12.93 0-18.62 8.8-21.21 16.3h35.18c1.29-8.02-3.36-16.3-13.97-16.3Zm-111.49 38.28v-87.43H173v94.68c0 15 7.76 25.09 22.25 25.09 13.71 0 19.66-5.69 24.32-12.68a6.338 6.338 0 0 1-1.81.26c-10.61 0-17.08-6.77-17.08-19.92Zm57.94-87.43-50.44 78.38v9.05c0 8.8 4.91 12.16 10.09 12.16 5.43 0 8.28-3.62 10.86-7.76 4.4-7 58.2-91.83 58.2-91.83h-28.71Z" fill="#fff"/></g><defs><clipPath id="a"><path fill="#fff" d="M0 0h1024v1024H0z"/></clipPath></defs></svg>