<svg width="1024" height="1024" viewBox="0 0 1024 1024" fill="none" xmlns="http://www.w3.org/2000/svg">
<g clip-path="url(#clip0_2_3837)">
<path d="M512 1024C794.77 1024 1024 794.77 1024 512C1024 229.23 794.77 0 512 0C229.23 0 0 229.23 0 512C0 794.77 229.23 1024 512 1024Z" fill="#73ADA4"/>
<path d="M355.5 443.9H362.7C379.9 445.6 396.1 454.3 407.1 467.6C416.3 478.6 421.4 492.8 422 507.1C422.2 510 422.3 513 422 515.9H295.2C294.9 508.4 295.3 500.9 297.1 493.6C299.6 483.2 304.7 473.5 311.8 465.6C323.1 453.3 338.9 445.1 355.5 443.9ZM339.1 476.7C334.1 480.6 330 485.8 327.9 491.8H375.6C380.7 491.7 385.7 491.9 390.8 491.7C388 484.6 382.9 478.5 376.4 474.5C371.3 471.4 365.3 469.7 359.3 469.8C351.9 469.8 344.8 472.3 339.1 476.7ZM559.6 457.4C552 462.1 546.2 469.7 544.2 478.4C543 482.9 542.9 487.6 543.2 492.3C543.6 496.9 545 501.4 547.4 505.3C549.7 509.1 553 512.3 556.6 514.9C562.7 519.1 569.7 521.8 576.8 524.1C583.3 526.2 589.9 527.8 596.4 530.2C599.2 531.3 602 532.5 604.2 534.6C605.8 536.1 606.9 538.2 606.7 540.4C606.8 543.4 604.7 546 602.1 547.3C598 549.4 593.2 549.1 588.7 548.9C574.6 547.6 561.1 542 549.5 533.9C549.2 534.3 548.8 534.7 548.6 535.2C545.1 542.4 541.5 549.5 538 556.7C537.7 557.4 537.1 558.1 537.3 558.9C540.9 561.7 544.8 564.1 548.8 566.2C562.6 573.2 578.1 576.3 593.5 576C601.9 576 610.4 574.6 618.3 571.6C623.9 569.4 629.2 566.3 633.5 562.1C638.6 557.1 642 550.5 643.1 543.5C644.4 535.6 643.7 527.2 639.6 520.2C636.9 515.5 632.9 511.7 628.4 508.8C622.3 504.9 615.5 502.4 608.7 500.2C601.8 498 594.6 496.3 587.8 493.6C585.2 492.5 582.5 491.2 580.5 489C578.2 486.4 578.5 482.2 580.6 479.6C582.2 477.7 584.7 476.8 587.1 476.3C591.4 475.6 595.7 476 599.9 476.8C610.5 478.8 620.5 483.3 630 488.2C633.8 480.9 637.6 473.7 641.4 466.4C642 465.2 642.8 464.1 643 462.7C631 455.9 617.6 451.2 603.8 449.7C595.3 448.7 586.7 448.8 578.2 450.3C571.8 451.5 565.3 453.7 559.6 457.4ZM485.3 467.7C484.9 468.3 484.5 468.9 484 469.5C483.7 466.7 483.9 463.8 483.9 461C483.9 457.5 483.8 454.1 484 450.6C472 450.7 460 450.6 448.1 450.6V574.5C460.1 574.5 472.1 574.6 484.1 574.5V511.8C484.7 505.4 487.5 499.1 492 494.6C495.9 490.5 501 487.8 506.3 486.2C512.2 484.3 518.5 484.3 524.7 484.6C524.7 473.1 524.8 461.5 524.6 450C514.2 450 503.3 451.9 494.6 458C491 460.6 487.6 463.8 485.3 467.7ZM774.8 454C782.6 451.2 791 450 799.3 449.7C808.1 449.5 816.9 450.4 825.4 452.9C837.2 456.3 848.2 463.2 855.9 472.9C864.1 483.1 868.1 496.2 868.6 509.2V516.8C868.1 523.4 866.9 530.1 864.6 536.3C860.3 548.1 852 558.3 841.3 564.9C829.4 572.5 815 575.3 801.1 575.3C793.4 575.1 785.6 574.3 778.2 572C766 568.4 754.7 561.2 747 550.9C738.7 540.1 734.9 526.3 735 512.8C734.8 499.7 738.1 486.3 745.7 475.5C752.7 465.5 763.1 458 774.8 454ZM797.6 480.4C791.6 481.2 785.9 484.1 781.9 488.6C776.5 494.4 774 502.3 773.6 510.1C773.2 517.2 774.2 524.5 777.5 530.8C780.1 535.8 784.1 540.2 789.2 542.7C795.1 545.7 802.1 546.3 808.5 544.8C814.6 543.4 820.1 539.6 823.7 534.5C828.2 528 830 520 829.8 512.1C829.9 502.3 826.3 492.1 818.6 485.8C812.8 481.1 805 479.3 797.6 480.4ZM155.5 451.7C155.8 452.3 156.1 452.9 156.3 453.6C170.2 491.1 184.1 528.6 198 566.2C199 568.8 199.8 571.5 201 574H240.5C241.3 572.3 241.9 570.5 242.6 568.7C252.8 541.2 263 513.7 273.2 486.1C277.4 474.4 281.9 462.9 286 451.2C273.8 451.1 261.7 451.2 249.5 451.2C248.7 451 248.4 451.8 248.2 452.5C239.5 480.5 230.7 508.5 222 536.5C221.8 537.1 221.6 537.6 221.4 538.1C212.4 509.2 203.4 480.2 194.5 451.2C181.5 451.1 168.6 451.2 155.6 451.1V451.7H155.5ZM673.7 573.9C676.2 574 678.7 573.9 681.2 574C690.8 574 700.4 574.1 710 574V451.3C697.9 451.3 685.8 451.2 673.6 451.3C673.7 492.1 673.7 533 673.7 573.9ZM305 542.2C303.3 543.2 301.5 544.1 299.9 545.3C302.4 550.4 306 554.9 309.8 559.1C319.7 569.7 333.1 576.8 347.3 579.2C349.3 579.5 351.4 579.7 353.4 580.1H363.4C376.8 579 389.9 574.1 400.3 565.6C405.3 561.6 409.8 556.9 413.5 551.7C414.9 549.6 416.3 547.6 417.3 545.3C414.6 543.4 411.7 542 408.9 540.3C405.5 538.4 402.1 536.4 398.7 534.5C396.9 533.5 395.2 532.3 393.3 531.6C391.4 535.5 388.7 538.9 385.7 541.9C378.5 548.9 368.3 552.3 358.3 552.1C350.9 552.2 343.3 550.3 337 546.3C332.4 543.5 328.6 539.5 325.7 534.9C325.1 533.9 324.6 532.8 323.9 531.9C323.8 531.9 323.6 531.8 323.5 531.8C322.2 532.1 321.1 533 319.9 533.7C315 536.5 310 539.3 305 542.2Z" fill="white"/>
</g>
<defs>
<clipPath id="clip0_2_3837">
<rect width="1024" height="1024" fill="white"/>
</clipPath>
</defs>
</svg>
