<svg width="1024" height="1024" fill="none" xmlns="http://www.w3.org/2000/svg"><g clip-path="url(#a)"><path d="M512 1024c282.77 0 512-229.23 512-512S794.77 0 512 0 0 229.23 0 512s229.23 512 512 512Z" fill="#9ABEFF"/><path d="M333.91 410.53c.227-6.06 3.797-11.893 10.71-17.5a35.768 35.768 0 0 1 23-8.39 15.56 15.56 0 0 1 12.38 5.78c3.28 3.854 4.803 7.757 4.57 11.71-.233 5.834-3.163 11.434-8.79 16.8a31.425 31.425 0 0 1-22.5 9.09c-13.38-.013-19.837-5.843-19.37-17.49Zm528 92.69C860.97 524.754 853 543.347 838 559c-15 15.654-33.633 23.494-55.9 23.52-18.513 0-32.573-5.97-42.18-17.91a49.986 49.986 0 0 1-5.59-8.85c-2.52 1.56-5.15 3.13-7.93 4.69-24.84 14.28-50.033 21.417-75.58 21.41-18.987 0-32.583-6.333-40.79-19-.6-.89-1.16-1.8-1.7-2.73l-.75.67c-15.707 13.58-31.407 20.37-47.1 20.37-15.247 0-22.63-8.43-22.15-25.29.227-7.5 1.69-16.5 4.39-27 2.7-10.5 4.167-18.696 4.4-24.59.24-8.9-2.467-13.353-8.12-13.36-6.113 0-13.4 7.267-21.86 21.8-8.94 15.24-13.763 29.997-14.47 44.27-.473 10.087.527 17.824 3 23.21-16.353.474-27.8-2.22-34.34-8.08-5.853-5.16-8.54-13.713-8.06-25.66a94.822 94.822 0 0 1 3.45-22.5 90.252 90.252 0 0 0 3.45-20c.473-8.666-2.693-13-9.5-13-5.873 0-12.207 6.667-19 20a102.119 102.119 0 0 0-11.26 41.83c-.473 13.127.367 22.267 2.52 27.42-16.087.474-27.51-2.916-34.27-10.17a28.118 28.118 0 0 1-6.49-12.91 188.551 188.551 0 0 1-4.05 3.7c-15.707 13.58-31.407 20.37-47.1 20.37-7.273 0-12.84-2.333-16.7-7-3.86-4.666-5.677-10.756-5.45-18.27.227-7.726 2.627-19.67 7.2-35.83 4.573-16.16 6.86-24.826 6.86-26 0-6.08-2.11-9.123-6.33-9.13-1.333 0-4.95 2.184-10.85 6.55-4.46 13.334-14.167 29.617-29.12 48.85-21.287 27.674-39.287 41.51-54 41.51-9.12 0-16.84-8.426-23.16-25.28l-12.64-46.35c-4.667-16.846-9.693-25.273-15.08-25.28-1.173 0-5.27 2.46-12.29 7.38l-7.46-9.5a2123.13 2123.13 0 0 0 22.85-20.38c10.307-8.906 18.04-13.593 23.2-14.06 12.187-1.173 19.687 7.16 22.5 25 3.04 19.24 5.15 31.207 6.33 35.9 3.513 15.967 7.38 23.947 11.6 23.94 3.28 0 8.2-5.176 14.76-15.53 6.56-10.353 10.073-18.236 10.54-23.65.933-8.94-2.58-13.413-10.54-13.42a29.332 29.332 0 0 0-11.59 2.57c7.693-25.213 22.39-37.466 44.09-36.76 14.487.427 22.077 8.934 22.77 25.52l10.49-9.52c10.08-8.906 17.583-13.593 22.51-14.06 7.727-.666 13.393 1.61 17 6.83 3.607 5.22 4.94 12.05 4 20.49-3.007 14.247-6.267 32.337-9.78 54.27-.233 10.047 3.4 15.067 10.9 15.06 3.28 0 9.14-3.47 17.58-10.41l.31-.26c.54-4.893 1.407-10.706 2.6-17.44a197.585 197.585 0 0 0 3.24-25.42c.46-4.2-.593-6.303-3.16-6.31-1.407 0-5.407 2.37-12 7.11l-8.43-9.49c1.173-.926 8.557-7.72 22.15-20.38 9.84-9.133 16.507-13.816 20-14.05 6.093-.473 11.013 2.044 14.76 7.55a33.23 33.23 0 0 1 5.63 19.16 31.18 31.18 0 0 1-.7 6.68A64.731 64.731 0 0 1 448 467.74c10.78-9.366 22.85-14.64 36.21-15.82 11.487-.933 19.693 1.76 24.62 8.08 4 5.16 5.873 12.544 5.62 22.15 1.64-1.4 3.4-2.93 5.28-4.57a93.386 93.386 0 0 1 15.81-15.11c8.667-6.326 17.69-9.843 27.07-10.55 11.247-.933 19.333 1.75 24.26 8.05 4.213 5.134 6.09 12.487 5.63 22.06-.233 6.547-1.817 16.064-4.75 28.55-2.933 12.487-4.4 19.664-4.4 21.53-.233 4.914.237 8.3 1.41 10.16 1.17 1.87 4 2.79 8.43 2.79 2 0 4.967-1.296 8.9-3.89a63.85 63.85 0 0 1-.47-9.2c.227-18.973 8.663-37.016 25.31-54.13 18.28-18.74 39.84-28.113 64.68-28.12 22.973 0 35.16 9.354 36.56 28.06.933 11.914-5.627 24.187-19.68 36.82-15.007 13.8-33.877 22.567-56.61 26.3 4.213 5.847 10.547 8.767 19 8.76 16.867 0 35.267-4.29 55.2-12.87l2.63-1.13c-.16-1.43-.28-2.88-.36-4.37-1.18-20.126 6.087-38.616 21.8-55.47 16.867-18.72 38.073-28.08 63.62-28.08 16.4 0 28.82 5.5 37.26 16.5 7.98 10.08 11.61 23.074 10.89 38.98h-.01Zm-185.77 5.05c6.78-7.46 10.29-13.523 10.53-18.19.227-6.286-2.35-9.433-7.73-9.44-7.027 0-14.163 4.84-21.41 14.52s-10.983 18.96-11.21 27.84c-.13 0-.13 1.52 0 4.55a79.096 79.096 0 0 0 29.83-19.28h-.01Zm143.4-23.81c-2-5.28-4.87-7.923-8.61-7.93-11.96 0-21.8 6.46-29.52 19.38a68 68 0 0 0-10.55 33.81 30.172 30.172 0 0 0 3.16 15.5c2.567 5.167 6.2 7.75 10.9 7.75 10.54 0 19.563-6.223 27.07-18.67a66.636 66.636 0 0 0 10.19-32.4 44.26 44.26 0 0 0-2.63-17.44h-.01Z" fill="#fff"/></g><defs><clipPath id="a"><path fill="#fff" d="M0 0h1024v1024H0z"/></clipPath></defs></svg>