<svg width="1024" height="1024" viewBox="0 0 1024 1024" fill="none" xmlns="http://www.w3.org/2000/svg">
<g clip-path="url(#clip0_2_3852)">
<path d="M512 1024C794.77 1024 1024 794.77 1024 512C1024 229.23 794.77 0 512 0C229.23 0 0 229.23 0 512C0 794.77 229.23 1024 512 1024Z" fill="#FF837D"/>
<path d="M652.26 541C652.48 540.18 652.7 539.333 652.92 538.46L653.07 537.85C653.27 537.043 653.463 536.22 653.65 535.38L653.74 535C653.95 534.06 654.16 533.08 654.37 532.09L654.52 531.38C654.73 530.38 654.93 529.32 655.14 528.25C654.89 530.25 654.62 532.25 654.35 534.14L654.24 534.93C653.98 536.757 653.71 538.55 653.43 540.31L653.27 541.31C652.99 543.043 652.703 544.75 652.41 546.43L652.26 547.29C651.95 549.01 651.64 550.7 651.32 552.35L651.24 552.74C650.926 554.34 650.593 555.907 650.24 557.44L650.1 558.08C649.77 559.61 649.43 561.08 649.1 562.59L648.89 563.48L647.89 567.69L647.66 568.56C647.3 569.94 646.93 571.3 646.55 572.63L646.37 573.24C646.003 574.507 645.633 575.747 645.26 576.96L645.1 577.47C644.71 578.72 644.3 579.94 643.9 581.14L643.63 581.94C643.236 583.087 642.833 584.207 642.42 585.3L642.11 586.12C641.7 587.21 641.28 588.28 640.85 589.32L640.58 589.97C640.16 590.97 639.74 591.97 639.32 592.91L639.12 593.35C638.68 594.35 638.24 595.25 637.79 596.17L637.47 596.82C637.02 597.72 636.57 598.59 636.11 599.45L635.74 600.13C635.28 600.97 634.816 601.787 634.35 602.58L634 603.16C633.52 603.96 633 604.75 632.53 605.5L632.3 605.84C631.833 606.54 631.363 607.207 630.89 607.84L630.57 608.29C630.07 608.97 629.57 609.63 629.05 610.29L628.65 610.79C628.143 611.41 627.633 612.01 627.12 612.59L626.73 613.02C626.2 613.6 625.66 614.17 625.12 614.7L624.84 614.97C624.326 615.47 623.806 615.953 623.28 616.42L623.01 616.66C622.45 617.15 621.89 617.6 621.32 618.04L620.93 618.34C620.37 618.76 619.806 619.16 619.24 619.54L618.84 619.8C618.26 620.18 617.68 620.54 617.09 620.87L616.78 621.04C616.19 621.37 615.6 621.68 615 621.96L614.85 622.03C614.23 622.32 613.6 622.59 612.97 622.84L612.63 622.97C612.02 623.2 611.4 623.41 610.78 623.6L610.41 623.71C609.79 623.89 609.16 624.06 608.53 624.2L608.22 624.27C607.56 624.41 606.89 624.54 606.22 624.63H606.15C605.48 624.73 604.81 624.79 604.15 624.85H603.88C603.22 624.85 602.56 624.92 601.88 624.92H601.55C600.676 624.92 599.8 624.883 598.92 624.81H598.72C597.78 624.73 596.833 624.61 595.88 624.45C594.94 624.29 593.99 624.09 593.04 623.86L592.81 623.8C591.916 623.573 591.016 623.317 590.11 623.03L589.83 622.94C588.923 622.647 588.016 622.313 587.11 621.94L586.88 621.85C585.913 621.463 584.94 621.047 583.96 620.6C582.966 620.14 581.966 619.647 580.96 619.12L580.8 619.03C579.853 618.523 578.906 617.99 577.96 617.43L577.71 617.28C576.776 616.72 575.84 616.133 574.9 615.52L574.67 615.37C573.69 614.703 572.706 614.037 571.72 613.37H571.66C570.646 612.637 569.63 611.873 568.61 611.08L568.54 611.03C567.553 610.257 566.553 609.457 565.54 608.63L565.34 608.46C564.386 607.653 563.43 606.823 562.47 605.97L562.25 605.78C561.27 604.9 560.29 603.993 559.31 603.06L559.21 602.97C557.21 601.03 555.18 598.983 553.12 596.83L552.96 596.66C552 595.633 551.04 594.587 550.08 593.52L549.87 593.29C548.91 592.217 547.95 591.12 546.99 590L546.84 589.83C544.84 587.477 542.84 585.033 540.84 582.5L540.72 582.34C539.773 581.127 538.83 579.897 537.89 578.65L537.66 578.35C536.733 577.117 535.813 575.867 534.9 574.6L534.7 574.33L531.84 570.33V570.27C530.873 568.877 529.91 567.463 528.95 566.03L528.85 565.88C527.93 564.507 527.016 563.12 526.11 561.72L525.88 561.37C525.006 560.037 524.136 558.667 523.27 557.26L523.02 556.86C522.14 555.447 521.266 554.02 520.4 552.58L520.25 552.33C520.25 552.33 520.19 552.25 520.18 552.21C518.226 548.95 516.306 545.637 514.42 542.27L514.37 542.2C512.45 538.76 510.57 535.28 508.74 531.74L508.68 531.65C508.06 530.46 507.44 529.27 506.83 528.07L506.7 527.83L505.8 526.1L505.5 525.53L505.05 524.68L504.75 524.11C504.46 523.59 504.16 523.11 503.87 522.52L503.28 521.52L502.98 520.99L502.04 519.35L501.74 518.82L501.41 518.26V518.2L501.36 518.11L500.56 516.76L500.32 516.36L499.26 514.61L498.9 514.03L497.59 511.92V511.86L496.27 509.78L495.88 509.17L494.73 507.41L494.46 506.99L493.12 504.99L493.01 504.83L492.71 504.39L491.56 502.69L491.18 502.14L489.72 500.04L489.4 499.58L488 497.65L487.56 497.03L486.05 494.94L485.97 494.83L484.5 492.83L484.03 492.2L482.77 490.53L482.44 490.09L480.9 488.09L480.45 487.51L479.26 486L478.82 485.44L477.26 483.44L476.89 482.98L475.62 481.42L475.13 480.82L473.59 479L473.38 478.75L471.93 477L471.43 476.42L470.58 475.42L470.32 475.12L470.15 474.93L469.79 474.52L469.13 473.78L468.8 473.4L468.23 472.76L467.76 472.24L467.61 472.08L467.34 471.78L466.56 470.92L466.1 470.41L465.89 470.18L464.57 468.76L464.42 468.6L464.04 468.2L463.13 467.2L462.78 466.84L462.47 466.53L461.75 465.8L461.15 465.19L460.96 465L460.79 464.83L460.38 464.42L459.78 463.82L459.4 463.44L458.93 462.98L457.93 462.03L457.74 461.85L457.43 461.55L457.26 461.39L456.57 460.75L455.97 460.2L455.77 460.02L455.26 459.56L454.68 459.04L453.97 458.42L453.42 457.95L452.7 457.34L452.59 457.25L452.27 456.99L451.07 455.99L450.72 455.71L450.37 455.43L449.68 454.9L449.36 454.65L449.25 454.57L449.18 454.52L448.51 454.03L448.01 453.67L447.77 453.5L447.36 453.22L446.86 452.88L446.23 452.45L445.8 452.18L444.97 451.66L444.74 451.53H444.66L444.14 451.22L443.68 450.96L443.44 450.83L443.09 450.64L442.58 450.38L442.29 450.24L442.06 450.13L441.59 449.91L441.14 449.72L440.87 449.61L440.64 449.52L439.77 449.22L439.46 449.13L438.88 448.97H438.51L438.01 448.88H436L435.53 448.94H435.24L434.78 449.08L434.64 449.13C434.425 449.221 434.218 449.328 434.02 449.45L433.89 449.54C433.726 449.647 433.569 449.764 433.42 449.89H433.37L433.26 449.98C433.068 450.163 432.891 450.36 432.73 450.57L432.62 450.71L432.4 451.03V451.09L432.2 451.43L432.11 451.61C431.962 451.899 431.832 452.196 431.72 452.5V452.72C431.633 452.98 431.553 453.257 431.48 453.55L431.42 453.79C431.333 454.15 431.26 454.533 431.2 454.94V455.22C431.14 455.64 431.09 456.08 431.06 456.55V460.42C431.06 461 431.14 461.6 431.2 462.24V462.34C431.26 462.96 431.34 463.61 431.43 464.28L431.49 464.71C431.583 465.377 431.693 466.08 431.82 466.82L431.9 467.28C432.03 468.05 432.18 468.83 432.35 469.65V469.71C432.52 470.53 432.7 471.37 432.9 472.24L433.01 472.74C433.21 473.6 433.426 474.487 433.66 475.4L433.8 475.94C434.05 476.94 434.3 477.88 434.58 478.94C433.98 477.55 433.41 476.16 432.86 474.78C432.69 474.35 432.53 473.91 432.36 473.48C431.993 472.527 431.636 471.573 431.29 470.62L430.78 469.18C430.453 468.247 430.14 467.317 429.84 466.39C429.7 465.96 429.55 465.52 429.42 465.09C429.033 463.857 428.666 462.627 428.32 461.4L428.23 461.1C427.86 459.79 427.53 458.49 427.23 457.19C427.13 456.78 427.04 456.38 426.95 455.98C426.74 455.08 426.54 454.19 426.36 453.31C426.266 452.85 426.173 452.393 426.08 451.94C425.913 451.087 425.76 450.237 425.62 449.39C425.55 448.97 425.47 448.55 425.41 448.13C425.243 447.07 425.093 446.017 424.96 444.97C424.96 444.79 424.91 444.61 424.89 444.44C424.75 443.24 424.63 442.05 424.53 440.88C424.53 440.5 424.48 440.12 424.45 439.75C424.39 438.94 424.34 438.14 424.31 437.35V432.62C424.31 431.73 424.31 430.86 424.39 429.99V429.32C424.45 428.26 424.53 427.22 424.64 426.19C424.64 425.84 424.72 425.5 424.76 425.19C424.84 424.49 424.93 423.8 425.03 423.12L425.21 421.96C425.316 421.293 425.433 420.663 425.56 420.07C425.63 419.71 425.7 419.34 425.78 418.98C425.94 418.26 426.11 417.56 426.29 416.87C426.35 416.63 426.41 416.39 426.47 416.16C426.716 415.26 426.983 414.383 427.27 413.53C427.37 413.24 427.48 412.95 427.58 412.66C427.79 412.08 428 411.51 428.22 410.94C428.35 410.61 428.49 410.29 428.62 409.94C428.84 409.42 429.07 408.91 429.31 408.41C429.45 408.11 429.6 407.8 429.75 407.5C430.03 406.94 430.33 406.4 430.63 405.86C430.75 405.65 430.86 405.43 430.98 405.23C431.4 404.517 431.836 403.827 432.29 403.16C432.44 402.94 432.6 402.73 432.76 402.51C433.09 402.05 433.42 401.61 433.76 401.17L434.36 400.44C434.686 400.047 435.02 399.667 435.36 399.3L435.99 398.63C436.39 398.23 436.8 397.84 437.21 397.46L437.71 397C438.29 396.493 438.886 396.017 439.5 395.57L440.07 395.18C440.52 394.86 440.98 394.56 441.45 394.27L442.21 393.83C442.65 393.583 443.093 393.347 443.54 393.12L444.32 392.74C444.83 392.5 445.32 392.29 445.89 392.08L446.51 391.83C447.243 391.563 447.993 391.327 448.76 391.12L449.36 390.98C449.95 390.83 450.54 390.7 451.15 390.59L452.01 390.45C452.556 390.363 453.113 390.293 453.68 390.24L454.57 390.16C455.2 390.16 455.84 390.09 456.48 390.08H457.76C458.286 390.08 458.82 390.103 459.36 390.15L460.06 390.2C460.613 390.247 461.17 390.307 461.73 390.38L462.26 390.44C462.986 390.54 463.72 390.663 464.46 390.81L465.06 390.94C465.62 391.053 466.186 391.18 466.76 391.32L467.55 391.52C468.12 391.67 468.69 391.83 469.27 392.01L469.92 392.2C470.693 392.447 471.476 392.713 472.27 393L472.92 393.25C473.52 393.477 474.123 393.717 474.73 393.97L475.59 394.34C476.183 394.593 476.776 394.86 477.37 395.14L478.12 395.49C478.94 395.883 479.766 396.3 480.6 396.74L481.26 397.1C481.926 397.447 482.576 397.807 483.21 398.18L484.13 398.72C484.75 399.087 485.37 399.463 485.99 399.85L486.81 400.36C487.676 400.913 488.553 401.49 489.44 402.09L490.06 402.53C490.766 403.017 491.473 403.52 492.18 404.04L493.13 404.74C493.796 405.227 494.463 405.727 495.13 406.24L495.99 406.91C496.91 407.64 497.83 408.39 498.76 409.17L499.29 409.62C500.063 410.287 500.843 410.953 501.63 411.62L502.63 412.47C503.296 413.09 503.99 413.723 504.71 414.37L505.6 415.2C506.6 416.11 507.53 417.04 508.51 418.01L508.9 418.41C509.76 419.263 510.623 420.14 511.49 421.04L512.44 422.04C513.166 422.8 513.893 423.577 514.62 424.37L515.53 425.37C516.53 426.47 517.53 427.6 518.53 428.76L518.75 429.02C519.696 430.107 520.65 431.223 521.61 432.37L522.55 433.5C523.31 434.413 524.07 435.343 524.83 436.29L525.76 437.45C526.76 438.76 527.85 440.08 528.9 441.45L532.34 445.94L533.19 447.06L536.31 451.15L536.54 451.45L539.83 455.78L540.63 456.84L543.49 460.63L543.87 461.14L547.04 465.35L547.74 466.28L550.44 469.87L550.91 470.5L553.98 474.59L554.52 475.32L557.21 478.92L557.63 479.48L564.37 488.48L566.64 491.48L567.54 492.69L569.35 495.12L570.35 496.4L572.85 499.73L573.4 500.47L575.4 503.19L576.17 504.19L578.61 507.42L579.02 507.97L581.02 510.67L581.75 511.67L584.07 514.67L584.31 514.99L586.44 517.76L587.1 518.62L589.18 521.31L589.4 521.59L591.6 524.4L592.21 525.17L594.08 527.54L594.42 527.96L596.52 530.58L597.06 531.25L598.81 533.4L599.19 533.87L601.19 536.29L601.68 536.87L603.32 538.81L603.74 539.3L605.64 541.5L606.07 541.99L607.62 543.74L608.05 544.22L609.85 546.22L610.22 546.62L611.7 548.2L612.13 548.65C612.71 549.257 613.283 549.847 613.85 550.42L614.14 550.71L615.58 552.14L616 552.55C616.55 553.08 617.1 553.55 617.64 554.09L617.84 554.27C618.32 554.71 618.796 555.137 619.27 555.55L619.67 555.9C620.19 556.35 620.67 556.79 621.23 557.21L621.32 557.28C621.8 557.67 622.32 558.04 622.75 558.4L623.13 558.69C623.61 559.05 624.13 559.4 624.56 559.69C625.04 560.02 625.56 560.33 625.99 560.62L626.35 560.84C626.78 561.1 627.2 561.34 627.61 561.57L627.75 561.65C628.2 561.89 628.65 562.12 629.1 562.32L629.44 562.47C629.82 562.64 630.2 562.8 630.58 562.94L630.78 563.02C631.21 563.18 631.63 563.31 632.04 563.43L632.34 563.51C632.686 563.603 633.02 563.68 633.34 563.74H633.58C633.98 563.81 634.38 563.85 634.77 563.87H636.24C636.612 563.844 636.982 563.797 637.35 563.73L637.6 563.68C637.937 563.611 638.271 563.524 638.6 563.42H638.71C639.05 563.298 639.384 563.158 639.71 563L639.96 562.88C640.302 562.711 640.636 562.524 640.96 562.32L641.04 562.26L641.14 562.19H641.21C641.436 562.037 641.663 561.873 641.89 561.7L641.98 561.63L642.2 561.45L642.62 561.08L642.77 560.94L643.13 560.6L643.31 560.42L643.48 560.25L644.02 559.65L644.13 559.53L644.28 559.35L644.72 558.8L644.88 558.59L645.15 558.23L645.36 557.92L645.41 557.84L645.55 557.64C645.73 557.38 645.91 557.1 646.09 556.82L646.26 556.55C646.46 556.223 646.656 555.89 646.85 555.55L647.07 555.15L647.29 554.74C647.54 554.27 647.78 553.74 648.02 553.28L648.11 553.1C648.37 552.54 648.63 551.96 648.88 551.36L649.09 550.87C649.34 550.26 649.59 549.63 649.84 548.98L649.94 548.69C650.16 548.09 650.38 547.47 650.59 546.84L650.77 546.3C651.01 545.59 651.24 544.86 651.47 544.1L651.61 543.62C651.81 542.953 652.01 542.26 652.21 541.54L652.26 541ZM483.62 675.68L483.48 675.83C482.86 676.497 482.246 677.11 481.64 677.67L481.37 677.93C480.803 678.477 480.24 679.007 479.68 679.52L479.35 679.82C478.81 680.307 478.276 680.777 477.75 681.23L477.4 681.53C476.88 681.97 476.363 682.397 475.85 682.81L475.51 683.08C474.983 683.493 474.463 683.89 473.95 684.27L473.67 684.48C473.116 684.88 472.57 685.263 472.03 685.63L471.87 685.74C470.181 686.881 468.417 687.907 466.59 688.81L466.43 688.89C465.93 689.13 465.43 689.36 464.95 689.57L464.54 689.74C464.14 689.91 463.74 690.07 463.35 690.21L462.83 690.39L461.77 690.75L461.21 690.92L460.21 691.19L459.63 691.33L458.71 691.53L458.12 691.64L457.23 691.77L456.64 691.85L455.78 691.93H453.83C453.12 691.93 452.42 691.93 451.73 691.82H451.4C450.733 691.747 450.066 691.647 449.4 691.52L449.06 691.45C448.393 691.317 447.76 691.157 447.16 690.97L446.88 690.88C446.24 690.68 445.62 690.47 445 690.22L444.84 690.15C444.226 689.903 443.623 689.633 443.03 689.34L442.91 689.29C442.32 689 441.74 688.68 441.17 688.35L440.93 688.21C440.39 687.89 439.85 687.55 439.33 687.21L439.05 687.02C438.536 686.673 438.033 686.313 437.54 685.94L437.27 685.73C436.776 685.35 436.293 684.963 435.82 684.57L435.6 684.39C435.11 683.98 434.6 683.56 434.17 683.13L434.08 683.04C433.62 682.613 433.17 682.187 432.73 681.76L432.59 681.63C432.15 681.203 431.723 680.773 431.31 680.34L431.11 680.13L430 678.9L429.78 678.66L428.67 677.44L428.47 677.21L427.38 676L427.04 675.61L426.23 674.68C362.42 601.88 360.4 511.61 368.23 435.16L368.3 434.43C368.806 429.503 369.35 424.64 369.93 419.84C370.096 418.44 370.266 417.047 370.44 415.66C372.15 401.87 374.04 388.66 375.78 376.23C376.08 374.11 376.373 372.01 376.66 369.93L377.17 366.23C377.47 364.05 377.76 361.897 378.04 359.77C378.46 356.583 378.853 353.463 379.22 350.41C379.586 347.357 379.92 344.47 380.22 341.75L380.28 341.18C380.56 338.453 380.806 335.787 381.02 333.18V332.75C381.3 329.177 381.506 325.74 381.64 322.44V322.26C381.7 320.6 381.736 318.977 381.75 317.39V314.95C381.744 310.542 381.45 306.139 380.87 301.77C380.59 299.77 380.23 297.853 379.79 296.02C379.496 294.807 379.163 293.64 378.79 292.52C378.269 290.897 377.634 289.313 376.89 287.78C375.973 285.876 374.835 284.087 373.5 282.45C372.853 281.665 372.155 280.923 371.41 280.23C370.664 279.54 369.872 278.902 369.04 278.32C368.19 277.727 367.302 277.192 366.38 276.72C365.409 276.228 364.406 275.801 363.38 275.44C359.885 274.246 356.222 273.618 352.53 273.58H348.8C309.53 274.58 266.09 306.18 242.21 360.67C241.836 361.523 241.466 362.383 241.1 363.25C240.74 364.11 240.383 364.973 240.03 365.84V365.91C239.683 366.77 239.35 367.633 239.03 368.5V368.6C238.696 369.46 238.363 370.327 238.03 371.2V371.33C237.71 372.19 237.396 373.053 237.09 373.92L237.03 374.09C236.723 374.95 236.423 375.817 236.13 376.69L236.07 376.88C235.776 377.747 235.49 378.617 235.21 379.49L235.14 379.71C234.86 380.577 234.586 381.447 234.32 382.32L234.24 382.57C233.973 383.437 233.71 384.31 233.45 385.19L233.37 385.47C233.116 386.337 232.87 387.207 232.63 388.08L232.54 388.39C232.3 389.25 232.066 390.117 231.84 390.99L231.74 391.36C231.513 392.22 231.293 393.083 231.08 393.95L230.98 394.34C230.766 395.2 230.56 396.067 230.36 396.94L230.26 397.36C230.06 398.22 229.863 399.087 229.67 399.96L229.57 400.41C229.383 401.27 229.2 402.137 229.02 403.01L228.92 403.5C228.746 404.36 228.576 405.227 228.41 406.1L228.31 406.62C228.15 407.48 227.993 408.343 227.84 409.21L227.74 409.77C227.593 410.63 227.45 411.49 227.31 412.35L227.21 412.94C227.07 413.8 226.936 414.66 226.81 415.52L226.72 416.14C226.593 417 226.473 417.863 226.36 418.73L226.27 419.38C226.156 420.233 226.05 421.09 225.95 421.95L225.86 422.65C225.76 423.503 225.663 424.357 225.57 425.21L225.49 425.94C225.403 426.787 225.32 427.64 225.24 428.5L225.17 429.27C225.09 430.117 225.016 430.967 224.95 431.82C224.95 432.09 224.95 432.36 224.89 432.62C224.823 433.467 224.763 434.317 224.71 435.17C224.71 435.45 224.71 435.73 224.65 436.01C224.596 436.85 224.546 437.697 224.5 438.55V439.43C224.46 440.27 224.423 441.113 224.39 441.96V442.88C224.39 443.72 224.363 444.563 224.31 445.41V456.93C224.31 457.77 224.31 458.6 224.36 459.44V460.51C224.36 461.34 224.41 462.18 224.45 463.01V464.13C224.45 464.96 224.53 465.78 224.57 466.61C224.57 467 224.57 467.38 224.63 467.77C224.63 468.59 224.73 469.42 224.78 470.24C224.78 470.64 224.78 471.04 224.86 471.44L225.04 473.9C225.04 474.31 225.1 474.72 225.13 475.14L225.34 477.6C225.34 478.02 225.41 478.45 225.45 478.87L225.69 481.34C225.69 481.77 225.77 482.19 225.82 482.62C225.91 483.44 226 484.27 226.1 485.1C226.1 485.53 226.2 485.96 226.25 486.4C226.35 487.22 226.45 488.05 226.56 488.87C226.62 489.32 226.67 489.76 226.73 490.21C226.84 491.02 226.95 491.84 227.07 492.65C227.14 493.12 227.2 493.58 227.27 494.05L227.63 496.47C227.7 496.95 227.77 497.47 227.85 497.91C227.98 498.71 228.11 499.52 228.24 500.33C228.32 500.82 228.4 501.33 228.48 501.79C228.62 502.6 228.76 503.42 228.91 504.23C229 504.72 229.08 505.23 229.17 505.7C229.32 506.51 229.47 507.33 229.63 508.14C229.73 508.64 229.82 509.14 229.92 509.64C230.08 510.45 230.24 511.26 230.41 512.07C230.51 512.58 230.61 513.07 230.72 513.6C230.89 514.4 231.06 515.21 231.24 516.01C231.35 516.54 231.46 517.06 231.58 517.59C231.76 518.39 231.94 519.19 232.12 520C232.24 520.53 232.36 521.07 232.49 521.6C232.68 522.4 232.87 523.21 233.07 524.01C233.2 524.55 233.33 525.09 233.46 525.64C233.66 526.45 233.87 527.27 234.07 528.08C234.21 528.62 234.34 529.16 234.48 529.7C234.69 530.51 234.91 531.32 235.12 532.14C235.27 532.69 235.41 533.24 235.56 533.79C235.78 534.6 236.01 535.41 236.23 536.23C236.39 536.79 236.54 537.34 236.69 537.9C236.92 538.71 237.16 539.52 237.39 540.33C237.56 540.9 237.72 541.47 237.89 542.04C238.13 542.84 238.38 543.65 238.62 544.46C238.8 545.04 238.97 545.62 239.15 546.2C239.4 547.01 239.66 547.83 239.92 548.65C240.1 549.23 240.28 549.8 240.47 550.38C240.73 551.2 241.01 552.03 241.28 552.86C241.47 553.44 241.65 554.01 241.85 554.59C242.13 555.44 242.43 556.3 242.72 557.15L243.29 558.82C243.6 559.7 243.91 560.58 244.22 561.47L244.79 563.08C245.11 563.97 245.44 564.87 245.79 565.76L246.37 567.36C246.7 568.25 247.04 569.15 247.37 570.04L247.98 571.66C248.35 572.66 248.73 573.6 249.12 574.57L249.67 575.98C250.13 577.13 250.6 578.29 251.07 579.45L251.42 580.33C252.013 581.783 252.62 583.24 253.24 584.7C254.046 586.613 254.856 588.507 255.67 590.38L256.4 592.05C256.97 593.35 257.53 594.65 258.1 595.93L259.1 598.06C259.6 599.17 260.1 600.28 260.59 601.38L261.59 603.66C262.06 604.66 262.53 605.66 263 606.72L264.1 609.05L265.47 611.94L266.61 614.3L267.94 617.05L269.1 619.4L270.42 622.06L271.6 624.4L272.9 626.95L274.11 629.28L275.4 631.75L276.62 634.03L277.91 636.43L279.14 638.69L280.42 641L281.67 643.24L282.94 645.47L284.2 647.67L285.46 649.83L286.74 652.01L287.98 654.09L289.28 656.24L290.51 658.24L291.83 660.36L293.05 662.29L294.38 664.37L295.59 666.23L296.94 668.29L298.13 670.07L299.5 672.07L300.67 673.77L302.06 675.77L303.19 677.37L304.63 679.37L305.7 680.84L307.19 682.84L308.19 684.14L309.79 686.26L310.48 687.14C312.66 689.967 314.84 692.693 317.02 695.32L317.4 695.78C317.99 696.49 318.58 697.18 319.18 697.87L319.98 698.8L321.63 700.68L322.56 701.74L324.15 703.49L325.15 704.58L326.7 706.23L327.7 707.32L329.22 708.89L330.27 709.97L331.78 711.48L332.85 712.54L334.34 713.98L335.43 714.98L336.91 716.36L338 717.36L339.47 718.68L340.57 719.68L342.03 720.95L343.13 721.89L344.58 723.1L345.69 724.01L347.14 725.17L348.25 726.04L349.7 727.15L350.81 727.98L352.25 729.04L353.36 729.83L354.8 730.83L355.91 731.59L357.35 732.59L358.46 733.31L359.89 734.23L360.99 734.91L362.43 735.78L363.52 736.42L364.96 737.25L366.05 737.85L367.49 738.64L368.56 739.2L370.01 739.95L371.01 740.45L372.5 741.18L373.34 741.56C374.54 742.113 375.736 742.64 376.93 743.14L377.44 743.36L378.8 743.9L379.94 744.35L381 745L382.21 745.44L383.46 745.86L384.69 746.27L385.92 746.65L387.17 747.03L388.38 747.37L389.64 747.71L390.84 748.01L392.1 748.31L393.28 748.57L394.54 748.83L395.71 749.05L396.98 749.28L398.13 749.46L399.4 749.65L400.55 749.8L401.81 749.95L402.95 750.07L404.21 750.18L405.33 750.26L406.59 750.33H413.69L414.98 750.27L416.12 750.2L417.39 750.1L418.54 749.99L419.79 749.85L420.93 749.71L422.18 749.53L423.32 749.35L424.54 749.13L425.68 748.92L426.89 748.67L428.03 748.42L429.22 748.13L430.36 747.84L431.53 747.52L432.67 747.2L433.82 746.85L434.96 746.49L436.07 746.11L437.24 745.71L438.3 745.31L439.49 744.86L440.49 744.45L441.73 743.94L442.58 743.56C444.333 742.787 446.066 741.953 447.78 741.06L448.21 740.84L449.64 740.06L450.35 739.67L451.69 738.89L452.47 738.43L453.75 737.64L454.56 737.14L455.82 736.32L456.63 735.79L457.87 734.94L458.69 734.37L459.9 733.49L460.71 732.89L461.91 731.97L462.71 731.35L463.9 730.4L464.69 729.76L465.86 728.76L466.64 728.09L467.8 727.09L468.57 726.4L469.72 725.34L470.47 724.64L471.6 723.55L472.34 722.83L473.47 721.7L474.18 720.97L475.3 719.8L475.99 719.05L477.1 717.84L477.77 717.09L478.88 715.83L479.53 715.07L480.63 713.76L481.25 713L482.35 711.65L482.94 710.9L484.04 709.48L484.58 708.76L485.7 707.26L486.19 706.59L487.33 705L487.74 704.41C488.14 703.84 488.54 703.26 488.93 702.68L489.17 702.32C491.17 699.373 493.083 696.317 494.91 693.15C495.28 692.51 495.65 691.86 496.01 691.21L496.35 690.6C496.67 690.02 496.99 689.44 497.35 688.86L497.81 688.01L498.68 686.35L499.18 685.35L499.99 683.73L500.52 682.66L501.29 681.07L501.83 679.94L502.56 678.37L503.11 677.18L503.81 675.62L504.35 674.38L505.01 672.82L505.55 671.53L506.18 669.98L506.72 668.64L507.32 667.1L507.85 665.72L508.43 664.18L508.95 662.77L509.5 661.22L510 659.78L510.53 658.22L511.02 656.75L511.53 655.19L512.01 653.68L512.49 652.12L512.95 650.56L513.4 649.02C513.55 648.49 513.7 647.95 513.85 647.41C514 646.87 514.14 646.41 514.27 645.88C514.4 645.35 514.56 644.78 514.71 644.23C514.86 643.68 514.98 643.23 515.11 642.7C515.24 642.17 515.39 641.58 515.53 641.01C515.67 640.44 515.78 640.01 515.91 639.49C516.04 638.97 516.18 638.33 516.32 637.75C516.46 637.17 516.55 636.75 516.67 636.27C516.79 635.79 516.94 635.04 517.08 634.43C517.22 633.82 517.29 633.48 517.39 633.01C517.53 632.36 517.66 631.71 517.79 631.06C517.88 630.61 517.98 630.16 518.06 629.71C518.21 628.97 518.34 628.23 518.48 627.49L518.69 626.39C518.89 625.29 519.083 624.187 519.27 623.08C505.73 648.37 493.94 665.06 483.62 675.68ZM598.71 451.89V449.61C598.71 449.08 598.71 448.61 598.65 448.05V441.53C598.65 440.59 598.693 439.677 598.78 438.79V438.59C598.934 436.067 599.241 433.556 599.7 431.07V431C600.079 428.926 600.637 426.888 601.37 424.91C601.596 424.323 601.833 423.76 602.08 423.22C602.546 422.216 603.102 421.255 603.74 420.35V420.3C604.023 419.905 604.327 419.524 604.65 419.16L604.73 419.07C605.043 418.718 605.377 418.384 605.73 418.07C605.956 417.877 606.186 417.693 606.42 417.52L606.56 417.42L606.72 417.31L606.82 417.24L607.15 417.04L607.36 416.91L607.88 416.63L608.01 416.56L608.17 416.49L608.68 416.27L608.98 416.15L609.18 416.08L609.36 416.03H609.48L609.82 415.93L610.3 415.82H610.59C610.84 415.82 611.1 415.74 611.36 415.72H613.45L613.94 415.77H614.18L614.8 415.86L615.14 415.92L615.9 416.09H616.02L616.42 416.19H616.59C617.07 416.33 617.59 416.49 618.06 416.68L618.43 416.82C618.89 417 619.35 417.19 619.82 417.41L619.99 417.49C620.51 417.73 620.99 418 621.57 418.29L621.96 418.51C622.45 418.79 622.96 419.08 623.46 419.39L623.63 419.49C624.18 419.84 624.75 420.22 625.32 420.61L625.74 420.9C626.27 421.28 626.8 421.67 627.34 422.09L627.51 422.22C628.1 422.68 628.7 423.16 629.3 423.67L629.74 424.04C630.3 424.52 630.87 425.04 631.45 425.54L631.61 425.69C632.23 426.26 632.87 426.85 633.51 427.47L633.97 427.91L635.14 429.07L635.25 429.18L635.79 429.73L635.94 429.89L636.46 430.43L636.58 430.56L637.81 431.86L637.88 431.94L637.94 432L638.41 432.52C639.05 433.22 639.69 433.93 640.33 434.67L640.47 434.83L641.3 435.83L641.97 436.61L642.55 437.3L642.93 437.75L643.53 438.47L643.97 439.01L644.71 439.92L645.07 440.37L645.19 440.52C645.91 441.42 646.64 442.36 647.37 443.31L647.87 443.97C648.57 444.89 649.28 445.83 649.99 446.8L650.1 446.95C650.85 447.95 651.61 449.02 652.37 450.09L652.89 450.82C653.62 451.82 654.36 452.92 655.11 454L655.21 454.14C655.99 455.27 656.77 456.44 657.56 457.63L658.09 458.43C658.85 459.59 659.62 460.76 660.4 461.97L660.49 462.1C661.29 463.35 662.1 464.63 662.91 465.93L663.46 466.81C664.25 468.09 665.05 469.38 665.85 470.71L665.92 470.83C666.74 472.19 667.58 473.59 668.41 475.01L668.98 476.01C669.8 477.4 670.61 478.81 671.44 480.25L671.5 480.36C672.35 481.84 673.2 483.36 674.05 484.89L674.64 485.95C675.48 487.46 676.32 488.95 677.17 490.55L677.22 490.65C678.09 492.25 678.96 493.88 679.83 495.53L680.44 496.68C681.3 498.31 682.16 499.96 683.03 501.68V501.77C683.91 503.48 684.8 505.23 685.69 507L686.32 508.24C687.2 509.99 688.08 511.75 688.96 513.54L689.01 513.64C689.91 515.47 690.81 517.33 691.72 519.21L692.37 520.55C693.27 522.42 694.17 524.32 695.07 526.24V526.3C695.98 528.24 696.9 530.22 697.82 532.22L698.49 533.68C699.4 535.68 700.32 537.68 701.24 539.73C702.179 541.816 703.109 543.906 704.03 546L704.72 547.57C705.65 549.69 706.58 551.82 707.51 553.99C708.45 556.17 709.39 558.39 710.34 560.63L711.03 562.28C711.98 564.53 712.92 566.79 713.87 569.1C714.82 571.39 715.77 573.72 716.72 576.1L717.44 577.89C718.44 580.25 719.35 582.64 720.31 585.05C720.74 586.15 721.19 587.2 721.65 588.23L721.83 588.63C722.27 589.63 722.71 590.54 723.17 591.45L723.42 591.94C723.873 592.827 724.336 593.687 724.81 594.52L725.07 594.97C725.55 595.81 726.07 596.62 726.54 597.4L726.73 597.69C727.23 598.457 727.736 599.2 728.25 599.92L728.38 600.1C728.9 600.82 729.44 601.51 729.98 602.17L730.27 602.53C730.79 603.163 731.316 603.77 731.85 604.35L732.19 604.72C732.723 605.287 733.263 605.83 733.81 606.35L734.13 606.65C734.7 607.18 735.27 607.65 735.84 608.16L736.03 608.31C736.59 608.763 737.153 609.193 737.72 609.6L737.96 609.78C738.54 610.19 739.13 610.57 739.72 610.93L740.07 611.15C740.65 611.497 741.233 611.83 741.82 612.15L742.19 612.34C742.79 612.63 743.39 612.91 743.99 613.16L744.29 613.28C744.92 613.53 745.56 613.77 746.2 613.97H746.27C746.91 614.17 747.55 614.34 748.19 614.5L748.46 614.57C749.09 614.71 749.72 614.83 750.35 614.93L750.69 614.98C751.316 615.067 751.943 615.137 752.57 615.19H752.9C753.54 615.19 754.17 615.25 754.81 615.25H755.15C755.696 615.25 756.24 615.227 756.78 615.18H757.34C757.893 615.127 758.446 615.06 759 614.98H759.3C759.95 614.88 760.59 614.75 761.23 614.61L761.73 614.49C762.236 614.37 762.74 614.237 763.24 614.09L763.75 613.94C764.39 613.74 765.03 613.53 765.66 613.29L766 613C766.58 612.78 767.15 612.54 767.73 612.29L768.24 612.06C768.766 611.82 769.286 611.567 769.8 611.3L770.13 611.13C770.75 610.803 771.366 610.47 771.98 610.13L772.37 609.89C772.87 609.583 773.366 609.25 773.86 608.89L774.31 608.59C775.516 607.757 776.7 606.857 777.86 605.89L778.27 605.54C778.756 605.127 779.236 604.697 779.71 604.25L780.01 603.98C780.576 603.447 781.136 602.893 781.69 602.32L781.92 602.08C782.393 601.587 782.86 601.08 783.32 600.56L783.67 600.16C784.73 598.94 785.753 597.66 786.74 596.32L787.03 595.92C787.443 595.347 787.85 594.76 788.25 594.16L788.5 593.79C788.973 593.07 789.436 592.337 789.89 591.59L789.97 591.45C790.383 590.783 790.783 590.08 791.17 589.34L791.43 588.86C791.823 588.127 792.206 587.383 792.58 586.63L792.64 586.52C793.033 585.707 793.416 584.88 793.79 584.04L793.97 583.62C794.276 582.907 794.573 582.183 794.86 581.45L795.04 580.98C795.706 579.267 796.306 577.503 796.84 575.69L797 575.14C797.233 574.327 797.456 573.503 797.67 572.67L797.75 572.38C797.983 571.44 798.2 570.49 798.4 569.53L798.49 569.1C798.656 568.28 798.81 567.453 798.95 566.62L799.05 566.03C799.356 564.09 799.593 562.113 799.76 560.1V559.45C799.82 558.597 799.87 557.733 799.91 556.86V556.36C799.943 555.333 799.943 554.297 799.91 553.25V552.81C799.91 551.917 799.886 551.017 799.84 550.11V549.37C799.79 548.37 799.72 547.37 799.63 546.3V546.22C799.53 545.15 799.41 544.08 799.27 543C799.27 542.75 799.2 542.5 799.17 542.25C799.05 541.377 798.913 540.5 798.76 539.62C798.76 539.38 798.68 539.15 798.64 538.91C798.446 537.823 798.23 536.733 797.99 535.64L797.89 535.22C797.676 534.267 797.446 533.31 797.2 532.35L796.97 531.48C796.71 530.527 796.436 529.567 796.15 528.6L796.02 528.15C795.68 527.05 795.313 525.947 794.92 524.84L794.63 524.04C794.31 523.16 793.976 522.28 793.63 521.4L793.28 520.53C792.83 519.42 792.36 518.3 791.85 517.19L791.71 516.88C791.25 515.867 790.766 514.85 790.26 513.83L789.78 512.88C789.32 511.967 788.84 511.053 788.34 510.14L787.97 509.45C787.356 508.337 786.713 507.22 786.04 506.1L785.55 505.3C785.01 504.413 784.453 503.527 783.88 502.64L783.26 501.64C782.51 500.51 781.75 499.39 780.95 498.26L778.2 494.43L777.3 493.2L775.46 490.68L774.37 489.2L772.76 487L771.6 485.45L770 483.38L768.8 481.81L767.29 479.81L766.07 478.23L764.59 476.32L763.37 474.76L761.9 472.89L760.68 471.36L759.21 469.53L758 468L756.55 466.21L755.34 464.73L753.93 463L752.72 461.54L751.29 459.83L750.09 458.41L748.65 456.73L747.45 455.34L746 453.73L744.82 452.38L743.37 450.74L742.22 449.45L740.76 447.83L739.62 446.57L738.17 445L737.08 443.82L735.55 442.18L734.55 441.07L732.96 439.4L731.96 438.4L730.18 436.56L729.43 435.78C727.743 434.053 726.076 432.37 724.43 430.73L723.74 430.06L721.94 428.31L721.05 427.45L719.47 425.94L718.47 425.03L717 423.6L716 422.66L714.58 421.36L713.58 420.43L712.18 419.18L711.18 418.26L709.82 417.07L708.76 416.15L707.33 415L706.33 414.11L705 413L704 412.14L702.68 411.06L701.68 410.22L700.37 409.22L699.37 408.41L698.08 407.41L697.08 406.62L695.79 405.62L694.79 404.87L693.5 403.87L692.5 403.15L691.21 402.22L690.21 401.53L688.91 400.62L687.98 399.97L686.63 399.06L685.76 398.47L684.36 397.55L683.56 397.03L682 396.03L681.38 395.64C679.926 394.733 678.49 393.863 677.07 393.03L676.55 392.73L674.95 391.82L674.22 391.41L672.86 390.66L672.03 390.22L670.78 389.56L669.91 389.12L668.73 388.52L667.85 388.09L666.7 387.53L665.81 387.11L664.69 386.59L663.8 386.19L662.71 385.71L661.82 385.33L660.75 384.88L659.86 384.52L658.8 384.1L657.93 383.77L656.93 383.38L656.06 383.07L655.06 382.71L654.21 382.42L653.21 382.09L652.36 381.82L651.36 381.52L650.53 381.28L649.53 381.01L648.72 380.8L647.72 380.55L646.94 380.36L645.94 380.14L645 380L644 379.8L643.3 379.67L642.19 379.49L641.59 379.39L640.14 379.19H639.91L638.2 379H637.68L636.57 378.91H633.05C632.17 378.91 631.29 378.91 630.44 378.99H630.29C629.4 379.05 628.53 379.12 627.68 379.23C626.83 379.34 625.99 379.47 625.17 379.63H624.99C624.2 379.78 623.43 379.96 622.67 380.16L622.41 380.23C621.67 380.43 620.95 380.65 620.24 380.89L619.93 380.99C619.263 381.23 618.596 381.49 617.93 381.77L617.61 381.91C616.943 382.197 616.3 382.5 615.68 382.82L615.36 382.99C614.733 383.317 614.12 383.65 613.52 383.99L613.22 384.18C612.62 384.56 612.033 384.957 611.46 385.37L611.2 385.56C610.62 385.99 610.06 386.43 609.51 386.9L609.31 387.08C608.75 387.56 608.21 388.08 607.68 388.59L607.55 388.72C607.01 389.26 606.49 389.82 605.99 390.4V390.46C605.49 391.05 604.99 391.66 604.53 392.29L604.41 392.45C603.96 393.06 603.53 393.69 603.11 394.34L602.94 394.59C602.54 395.23 602.15 395.88 601.77 396.59L601.59 396.91C601.223 397.577 600.89 398.263 600.59 398.97L600.42 399.34C600.093 400.04 599.783 400.76 599.49 401.5L599.33 401.9C599.036 402.647 598.76 403.407 598.5 404.18L598.37 404.58C598.11 405.367 597.87 406.173 597.65 407L597.55 407.39C597.33 408.23 597.12 409.09 596.93 409.96L596.86 410.3C596.67 411.21 596.49 412.13 596.34 413.07V413.3C596.18 414.273 596.04 415.273 595.92 416.3V416.38C595.8 417.38 595.7 418.43 595.63 419.49V419.74C595.56 420.74 595.5 421.8 595.47 422.86V426.9V426.79V426.86C595.47 427.913 595.496 428.983 595.55 430.07V430.6C595.603 431.68 595.673 432.777 595.76 433.89V434.44C595.853 435.56 595.963 436.693 596.09 437.84L596.15 438.39C596.283 439.55 596.436 440.727 596.61 441.92L596.69 442.42C596.87 443.64 597.07 444.873 597.29 446.12L597.37 446.53C597.603 447.817 597.853 449.12 598.12 450.44L598.18 450.7C598.466 452.08 598.773 453.473 599.1 454.88C599.04 454.11 598.99 453.35 598.94 452.6C598.73 452.27 598.72 452.08 598.71 451.89ZM520.92 564C513.982 553.163 507.598 541.982 501.79 530.5C493.89 514.95 480.46 495.45 466.73 479.6C449.83 460.09 439.97 454.6 436.87 454.31C436.44 455.37 435.38 459.64 438.45 472.45C441.52 485.26 440.32 481.35 440.67 483.8C442.73 498.09 447.48 532.7 447.75 548.97C449.75 582.85 445.21 622.97 424.2 663.5C426.2 665.99 428.27 668.5 430.42 670.92L430.9 671.47C436.39 677.74 443.9 686.33 453.9 686.33C465.37 686.33 485.15 674.89 514.26 620.4L520.81 608.13C521.585 593.431 521.622 578.703 520.92 564ZM654 483.79C653 476.39 651.61 469.05 650 461.61C649.034 457.113 647.237 452.836 644.7 449C629.51 428.68 618.34 421.12 612.55 421.12C611.865 421.104 611.186 421.241 610.561 421.521C609.936 421.801 609.382 422.218 608.94 422.74C607.26 424.55 603.76 430.4 604.14 447.17C604.44 452.17 604.58 454.59 604.65 455.71C604.65 455.97 604.65 456.25 604.7 456.56C604.95 461.45 604.81 473.14 600.97 495.78C600.68 497.78 600.31 499.78 599.86 501.88C598.577 507.789 596.697 513.551 594.25 519.08C600.33 526.88 605.85 533.67 610.91 539.39C622.08 552.02 630.28 558.39 635.28 558.39C636.22 558.39 638.72 558.39 641.89 552.68C644.79 547.47 647.38 538.91 649.59 527.22C649.59 527.22 652.59 516.72 654.24 496.69C654.49 492.39 654.41 488.078 654 483.79Z" fill="white"/>
</g>
<defs>
<clipPath id="clip0_2_3852">
<rect width="1024" height="1024" fill="white"/>
</clipPath>
</defs>
</svg>
