<svg width="1024" height="1024" viewBox="0 0 1024 1024" fill="none" xmlns="http://www.w3.org/2000/svg">
<g clip-path="url(#clip0_2_3858)">
<path d="M512 1024C794.77 1024 1024 794.77 1024 512C1024 229.23 794.77 0 512 0C229.23 0 0 229.23 0 512C0 794.77 229.23 1024 512 1024Z" fill="#FF837D"/>
<path d="M640 442.62C640.77 451.1 639.23 458.81 635.37 464.97C603.75 519.71 572.14 575.2 540.52 629.94C534.35 639.96 525.86 646.13 514.3 646.9C501.19 647.67 491.16 642.27 484.23 630.71C464.18 596.02 444.13 561.33 424.86 527.41C412.52 506.59 400.96 485.78 388.61 464.2C376.27 442.62 390.16 417.17 414.83 415.64C427.94 414.87 437.97 421.04 444.13 431.83C453.39 447.25 461.87 462.67 470.35 478.08C476.52 488.87 482.69 500.43 489.62 511.22C498.87 527.41 512.76 535.89 531.26 537.43C557.48 538.98 582.15 519.7 585.23 491.95C585.23 489.64 586 488.1 586 486.55C586 477.3 584.45 469.59 580.6 462.65C570.57 443.38 581.37 421.02 602.19 416.4C619.15 412.55 637.66 425.65 639.97 442.61H639.98L640 442.62ZM768 512C768 623.78 768 686.21 727.14 727.08C686.28 767.93 623.81 767.93 512 767.93C400.19 767.93 337.74 767.93 296.86 727.08C256 686.23 256 623.78 256 512C256 400.22 256 337.79 296.86 296.92C337.72 256.07 400.19 256.07 512 256.07C623.81 256.07 686.26 256.07 727.14 296.92C768 337.77 768 400.22 768 512ZM646.94 377.09C572.15 302.32 451.09 302.32 376.29 377.09C301.5 451.86 301.5 573.66 376.29 648.44C451.08 723.21 572.14 723.21 646.94 648.44C721.73 572.9 721.73 451.87 646.94 377.09Z" fill="white"/>
</g>
<defs>
<clipPath id="clip0_2_3858">
<rect width="1024" height="1024" fill="white"/>
</clipPath>
</defs>
</svg>
