<svg width="1024" height="1024" fill="none" xmlns="http://www.w3.org/2000/svg"><g clip-path="url(#a)"><path d="M512 1024c282.77 0 512-229.23 512-512S794.77 0 512 0 0 229.23 0 512s229.23 512 512 512Z" fill="#9ABEFF"/><path d="M718.69 305.31c-33.81-33.81-88.23-33.81-197.07-33.81h-19.24c-108.84 0-163.26 0-197.07 33.81s-33.81 88.23-33.81 197.07v19.24c0 108.84 0 163.26 33.81 197.07s88.23 33.81 197.07 33.81h19.24c108.84 0 163.26 0 197.07-33.81s33.81-88.23 33.81-197.07v-19.24c0-108.84 0-163.26-33.81-197.07ZM616.62 618c-12.23-38.08-42.69-67.54-83-71.55V618h-6.21c-109.63 0-172.16-75.16-174.76-200.22h54.91c1.8 91.79 42.29 130.67 74.35 138.69V417.81h51.71V497c31.67-3.41 64.93-39.48 76.15-79.16h51.71c-8.62 48.9-44.69 85-70.35 99.81 25.65 12 66.74 43.49 82.37 100.41l-56.88-.06Z" fill="#fff"/></g><defs><clipPath id="a"><path fill="#fff" d="M0 0h1024v1024H0z"/></clipPath></defs></svg>