<svg width="1024" height="1024" viewBox="0 0 1024 1024" fill="none" xmlns="http://www.w3.org/2000/svg">
<g clip-path="url(#clip0_2_3861)">
<path d="M512 1024C794.77 1024 1024 794.77 1024 512C1024 229.23 794.77 0 512 0C229.23 0 0 229.23 0 512C0 794.77 229.23 1024 512 1024Z" fill="#9ABEFF"/>
<path d="M718.69 305.31C684.88 271.5 630.46 271.5 521.62 271.5H502.38C393.54 271.5 339.12 271.5 305.31 305.31C271.5 339.12 271.5 393.54 271.5 502.38V521.62C271.5 630.46 271.5 684.88 305.31 718.69C339.12 752.5 393.54 752.5 502.38 752.5H521.62C630.46 752.5 684.88 752.5 718.69 718.69C752.5 684.88 752.5 630.46 752.5 521.62V502.38C752.5 393.54 752.5 339.12 718.69 305.31ZM616.62 618C604.39 579.92 573.93 550.46 533.62 546.45V618H527.41C417.78 618 355.25 542.84 352.65 417.78H407.56C409.36 509.57 449.85 548.45 481.91 556.47V417.81H533.62V497C565.29 493.59 598.55 457.52 609.77 417.84H661.48C652.86 466.74 616.79 502.84 591.13 517.65C616.78 529.65 657.87 561.14 673.5 618.06L616.62 618Z" fill="white"/>
</g>
<defs>
<clipPath id="clip0_2_3861">
<rect width="1024" height="1024" fill="white"/>
</clipPath>
</defs>
</svg>
