<svg width="1024" height="1024" fill="none" xmlns="http://www.w3.org/2000/svg"><g clip-path="url(#a)"><path d="M512 1024c282.77 0 512-229.23 512-512S794.77 0 512 0 0 229.23 0 512s229.23 512 512 512Z" fill="#56595B"/><path d="M197.75 460.11a13.874 13.874 0 0 0-5.38 1.31 13.578 13.578 0 0 0-6.83 18.58l31.09 67.63c4.89 10.39 10.39 16.18 19.7 16.18 9.31 0 14.81-6 19.67-16.18l27.41-59.73a4.004 4.004 0 0 1 3.94-2.52 4.38 4.38 0 0 1 4.3 4.38v57.87a14.623 14.623 0 0 0 8.66 14.7 14.617 14.617 0 0 0 16.695-3.518 14.623 14.623 0 0 0 3.765-11.182v-47.27a14.502 14.502 0 0 1 4.369-10.993 14.51 14.51 0 0 1 11.101-4.087A14.21 14.21 0 0 1 351 500.33v47.27a14.502 14.502 0 0 0 3.588 11.367 14.514 14.514 0 0 0 10.892 4.843 14.71 14.71 0 0 0 10.894-4.851 14.727 14.727 0 0 0 3.726-11.329v-47.27a14.514 14.514 0 0 1 9.443-14.2 14.507 14.507 0 0 1 5.967-.88 14.208 14.208 0 0 1 10.781 4.218 14.203 14.203 0 0 1 4.059 10.842v47.26a14.61 14.61 0 0 0 25.398 11.332 14.597 14.597 0 0 0 3.032-5.277c.63-1.952.841-4.015.62-6.055v-53.77a33.72 33.72 0 0 0-10.386-24.255 33.708 33.708 0 0 0-24.674-9.345 45 45 0 0 0-31.15 13.27 34.447 34.447 0 0 0-29.92-13.2 49.455 49.455 0 0 0-29.35 13.2 35.186 35.186 0 0 0-26.26-13.2A32.174 32.174 0 0 0 256 481.78l-19.92 46.89-25.49-60.19.3-.11a13.79 13.79 0 0 0-5.311-6.159 13.791 13.791 0 0 0-7.859-2.091l.03-.01Zm503.61 1.64a7.375 7.375 0 0 0-6.751 4.649 7.37 7.37 0 0 0-.519 2.831h.06v85.87a7.38 7.38 0 1 0 14.62 0v-33.4c0-28.34 15.6-42.63 34.7-44.9a7.258 7.258 0 0 0 6.5-7.48 7.05 7.05 0 0 0-7.27-7.32 40.004 40.004 0 0 0-33.94 24v-16.77a7.273 7.273 0 0 0-7.41-7.48h.01Zm-184 .21a7.464 7.464 0 0 0-6.83 5.93l-24.92 71.78-24.65-71.6a7.663 7.663 0 0 0-7.49-6 7.266 7.266 0 0 0-5.118 1.995 7.264 7.264 0 0 0-2.262 5.005 13.11 13.11 0 0 0 .93 3.93l29.78 83 .55-.2a8.706 8.706 0 0 0 8.14 6.62 8.207 8.207 0 0 0 8-6.62l24.68-70.58 24.48 70.58a8.21 8.21 0 0 0 8 6.62h.49a8.724 8.724 0 0 0 8-6.62l30-83c.489-1.259.793-2.583.9-3.93a7.014 7.014 0 0 0-4.527-6.383 6.995 6.995 0 0 0-2.713-.447 7.146 7.146 0 0 0-7 5.71l-25.09 71.86-24.7-71.75a7.793 7.793 0 0 0-7.6-5.93h-1l-.05.03Zm277.84.22a47.813 47.813 0 0 0-43.532 31.804A47.8 47.8 0 0 0 749 512.76a48.244 48.244 0 0 0 2.895 19.184A48.236 48.236 0 0 0 797 563.53l-.21.35a48.734 48.734 0 0 0 36.34-14.73 6.164 6.164 0 0 0 2.221-4.255 6.146 6.146 0 0 0-5.838-6.636 6.155 6.155 0 0 0-4.503 1.661 39.208 39.208 0 0 1-12.782 8.439 39.21 39.21 0 0 1-15.038 2.901 33.799 33.799 0 0 1-33.88-33h69.82a6.748 6.748 0 0 0 6.72-6.75c0-25.82-16.2-49.35-44.74-49.35l.09.02Zm-157 .05c-1.44 0-2.88 0-4.31.16a65.144 65.144 0 0 0-29.45 5.61 6 6 0 0 0-3.91 6.07 6.548 6.548 0 0 0 6.42 6.25c.9-.05 1.782-.271 2.6-.65a49.759 49.759 0 0 1 22.79-4.43c18.88 0 29.24 9.13 29.24 26.75v3.42a103.703 103.703 0 0 0-30.14-4.1c-24.38 0-41.54 10.93-41.54 31.7l-.09-.11c0 20.12 18.34 30.52 36.62 30.52a43.004 43.004 0 0 0 35.47-16.94v9.38a6.743 6.743 0 0 0 2.014 4.894 6.763 6.763 0 0 0 4.926 1.936 6.93 6.93 0 0 0 5.026-2.088 6.971 6.971 0 0 0 1.505-2.334 6.96 6.96 0 0 0 .469-2.738v-54.18a38.708 38.708 0 0 0-10.36-28.58 42.922 42.922 0 0 0-27.33-10.52l.05-.02ZM794.48 474c19.51 0 29.65 15.44 31.12 33.17h-62.24A33.387 33.387 0 0 1 794.48 474Zm-160.81 37.75c9.776.01 19.501 1.417 28.88 4.18v9.48c0 15.58-14.72 26.59-32.79 26.59-13.25 0-24.7-7.13-24.7-19.48 0-12.76 10.24-20.76 28.61-20.76v-.01Z" fill="#fff"/></g><defs><clipPath id="a"><path fill="#fff" d="M0 0h1024v1024H0z"/></clipPath></defs></svg>