<svg width="1024" height="1024" viewBox="0 0 1024 1024" fill="none" xmlns="http://www.w3.org/2000/svg">
<g clip-path="url(#clip0_2_3867)">
<path d="M512 1024C794.77 1024 1024 794.77 1024 512C1024 229.23 794.77 0 512 0C229.23 0 0 229.23 0 512C0 794.77 229.23 1024 512 1024Z" fill="#54688C"/>
<path d="M480.91 753.2C350.96 705.85 284.34 562.69 331.69 432.74C379.04 302.79 522.2 236.17 652.15 283.52C657.11 285.17 662.06 287.37 666.47 289.03L681.34 247.73C676.38 245.53 671.98 243.88 667.02 242.22C514.5 186.06 345.46 264.8 289.85 417.87C234.24 570.94 312.98 739.43 465.5 795.04C470.46 796.69 475.41 798.34 480.37 800L495.24 758.7C490.84 756.5 485.88 754.85 480.92 753.19L480.91 753.2ZM448.42 659.04C370.78 593.52 360.32 477.89 425.84 400.25C491.36 322.61 606.99 312.15 684.63 377.67C688.48 380.97 692.34 384.28 696.19 388.13L724.82 353.99C720.97 350.69 717.11 346.83 713.26 343.53C616.35 262.59 472.64 275.25 391.7 371.61C310.76 467.97 323.42 611.68 419.78 692.62C423.63 695.92 428.04 699.23 431.89 701.98L460.52 667.84C456.12 665.64 452.26 662.33 448.41 659.03L448.42 659.04ZM507.34 619.95C451.18 587.46 431.91 515.88 464.39 459.17C466.04 455.87 468.24 453.11 469.9 450.36L431.36 428.34C429.71 431.09 427.51 434.4 425.85 437.15C381.25 514.79 407.68 613.35 485.32 657.95C488.07 659.6 491.38 661.25 494.68 662.91L516.7 624.37C513.95 623.27 510.64 622.17 507.34 619.97V619.95Z" fill="white"/>
</g>
<defs>
<clipPath id="clip0_2_3867">
<rect width="1024" height="1024" fill="white"/>
</clipPath>
</defs>
</svg>
