<svg width="1024" height="1024" fill="none" xmlns="http://www.w3.org/2000/svg"><g clip-path="url(#a)"><path d="M512 1024c282.77 0 512-229.23 512-512S794.77 0 512 0 0 229.23 0 512s229.23 512 512 512Z" fill="#9ABEFF"/><path d="M259.94 357.38a25.6 25.6 0 0 1 21.66-39.25h131.13a25.563 25.563 0 0 1 21.65 12l181.91 288.49a25.599 25.599 0 0 1 0 27.3l-65.57 104a25.596 25.596 0 0 1-21.66 11.954 25.594 25.594 0 0 1-21.66-11.954L259.94 357.38Zm395.23 158.15a25.61 25.61 0 0 0 43.32 0l22.58-35.81 43-68.19a25.633 25.633 0 0 0 0-27.32l-34.13-54.13a25.572 25.572 0 0 0-21.66-12H577.13a25.606 25.606 0 0 0-25.592 26.344 25.6 25.6 0 0 0 3.932 12.906l99.7 158.2Z" fill="#fff"/></g><defs><clipPath id="a"><path fill="#fff" d="M0 0h1024v1024H0z"/></clipPath></defs></svg>