<svg width="1024" height="1024" fill="none" xmlns="http://www.w3.org/2000/svg"><g clip-path="url(#a)"><path d="M512 1024c282.77 0 512-229.23 512-512S794.77 0 512 0 0 229.23 0 512s229.23 512 512 512Z" fill="#BA6561"/><path d="M512 256c-141 0-255.74 114.2-255.74 255.74C256.26 653.28 370.46 768 512 768c141.54 0 255.74-115.26 255.74-256.27S653.54 256 512 256Zm104.55 435.34c12.87-45 18.23-91.15 16.08-144.22 13.4 3.75 20.91 5.9 34.31 10.19-15.55-39.14-32.17-74.52-54.15-110.45-19.3 37-45.57 71.84-71.84 99.19l42.89-2.68c-37 65.95-89 98.12-154.95 107.23-15-74.52-3.75-196.23 80.42-253.06l8.58 40.75c16.63-26.29 48.8-61.13 72.92-85.29a228.564 228.564 0 0 0-124.92-11.8c7 5.9 15.55 13.4 22.52 19.3-94.9 40.25-146.91 106.2-181.22 182.86a202.03 202.03 0 0 1-2.14-31.1c0-114.74 92.75-207.49 207-207.49a207.385 207.385 0 0 1 200.276 153.27 207.394 207.394 0 0 1-95.776 233.3Z" fill="#fff"/></g><defs><clipPath id="a"><path fill="#fff" d="M0 0h1024v1024H0z"/></clipPath></defs></svg>