<svg width="1024" height="1024" fill="none" xmlns="http://www.w3.org/2000/svg"><g clip-path="url(#a)"><path d="M512 1024c282.77 0 512-229.23 512-512S794.77 0 512 0 0 229.23 0 512s229.23 512 512 512Z" fill="#98DC9A"/><path d="M693 331c-100-100-262-100-362 0s-100 262 0 362 262 100 362 0 100-262 0-362Zm27.66 157.78-110.23-100-112.78 106.47-59.2 55.7v-83l89.78-85.32 67.06-63.36a210.537 210.537 0 0 1 125.39 169.49l-.02.02Zm-2 60.38a208.626 208.626 0 0 1-22 62.86l-62.8-57.28v-83l84.8 77.42ZM544.11 304.4l-47.44 44.83-58.38 55.37v-89.24a210.297 210.297 0 0 1 105.89-10.94l-.07-.02Zm-151.74 248-87-78.11a208.669 208.669 0 0 1 22.86-63.89l64.16 57.6-.02 84.4Zm0-212.9v66.68L355 372.71a210.598 210.598 0 0 1 37.36-33.17l.01-.04ZM303.12 534l112.76 101.17L587.76 473.4V555L429.2 705a210.46 210.46 0 0 1-126.07-171h-.01Zm177.36 185.68L587.8 618.21v89.66A208.785 208.785 0 0 1 512 722a212.35 212.35 0 0 1-31.58-2.34l.06.02Zm153.28-36.6v-66.33l36.6 33.14a212.414 212.414 0 0 1-36.49 33.21l-.11-.02Z" fill="#fff"/></g><defs><clipPath id="a"><path fill="#fff" d="M0 0h1024v1024H0z"/></clipPath></defs></svg>