<svg width="1024" height="1024" fill="none" xmlns="http://www.w3.org/2000/svg"><g clip-path="url(#a)"><path d="M512 1024c282.77 0 512-229.23 512-512S794.77 0 512 0 0 229.23 0 512s229.23 512 512 512Z" fill="#F8C18C"/><path d="M577.21 391.86c24.15 0 48.31-.05 72.45 0 12.66 10.43 25.13 21.11 37.72 31.64l183.35 154.26c3 2.62 6.22 5 9 7.79h-72.35A95185.278 95185.278 0 0 0 756 542.43c-17.14 14.38-34.273 28.757-51.4 43.13h-60.8c-3.41-3.65-6.53-7.65-9.76-11.5v.09c-6.54-7.85-13.13-15.65-19.68-23.48-33.65 0-67.31.05-101 0 8.45-10.18 17-20.27 25.49-30.44h49.82c-12.64-15.2-25.4-30.29-38.09-45.45-44.2 52.473-88.38 104.957-132.54 157.45h-60.88c12.89-15.63 26.08-31 39.07-46.58h-64.66a68418.095 68418.095 0 0 0-34.27-94.2c-6.46 17.21-12.61 34.54-18.93 51.8-5.153 14.14-10.3 28.277-15.44 42.41h-65.55c-16.173-44.667-32.4-89.28-48.68-133.84-1.57-4.43-3.3-8.81-4.75-13.27h49.54c12.31 33.53 24.38 67.16 36.73 100.68a33481.257 33481.257 0 0 1 36.62-100.66h60.86c12.2 33.36 24.383 66.77 36.55 100.23 6.3-16.86 12.33-33.81 18.53-50.71l18-49.64h49.67c-17.633 48.593-35.3 97.17-53 145.73 40.9-48.553 81.783-97.127 122.65-145.72h61a67567.97 67567.97 0 0 1 93.5 111.4c15-12.64 30.1-25.2 45.09-37.88-47.52-40.027-95.013-80.067-142.48-120.12Zm207.46 65.5c-4.14 3.56-8.49 6.88-12.48 10.59 5.32 4.78 10.95 9.23 16.39 13.89 6.587 5.513 13.17 11.033 19.75 16.56a23155.414 23155.414 0 0 0 42.1-35.25c9.87-8.2 19.61-16.57 29.57-24.66v-.17c-6-.27-12 .21-18 .11h-53.7a2.268 2.268 0 0 0-1.76.64 7053.97 7053.97 0 0 1-21.87 18.29Z" fill="#fff"/></g><defs><clipPath id="a"><path fill="#fff" d="M0 0h1024v1024H0z"/></clipPath></defs></svg>