<svg width="1024" height="1024" viewBox="0 0 1024 1024" fill="none" xmlns="http://www.w3.org/2000/svg">
<g clip-path="url(#clip0_2_3891)">
<path d="M512 1024C794.77 1024 1024 794.77 1024 512C1024 229.23 794.77 0 512 0C229.23 0 0 229.23 0 512C0 794.77 229.23 1024 512 1024Z" fill="#728DBE"/>
<path d="M506.7 258.91C507.247 257.904 507.854 256.932 508.52 256C545.9 311.86 583.34 367.683 620.84 423.47C536.227 488.423 451.613 553.373 367 618.32C343.75 618.26 320.5 618.32 297.24 618.32C323.04 573.8 348.893 529.307 374.8 484.84C395.52 449.18 416.13 413.5 437 378L506.7 258.91ZM277.2 590.23C308.4 536.743 339.573 483.207 370.72 429.62L371.26 428.37C332.787 401.317 294.367 374.193 256 347C263.1 428.08 270.167 509.157 277.2 590.23ZM744.8 620.16C752.547 531.213 760.28 442.26 768 353.3C652.193 442.227 536.413 531.183 420.66 620.17L744.8 620.16ZM276.6 706.22H744.36V650.14H276.63C276.603 668.833 276.59 687.53 276.59 706.23L276.6 706.22Z" fill="white"/>
</g>
<defs>
<clipPath id="clip0_2_3891">
<rect width="1024" height="1024" fill="white"/>
</clipPath>
</defs>
</svg>
