<svg width="1024" height="1024" fill="none" xmlns="http://www.w3.org/2000/svg"><g clip-path="url(#a)"><path d="M512 1024c282.77 0 512-229.23 512-512S794.77 0 512 0 0 229.23 0 512s229.23 512 512 512Z" fill="#728DBE"/><path d="M506.7 258.91a28.049 28.049 0 0 1 1.82-2.91c37.38 55.86 74.82 111.683 112.32 167.47A7171754.888 7171754.888 0 0 1 367 618.32c-23.25-.06-46.5 0-69.76 0 25.8-44.52 51.653-89.013 77.56-133.48C395.52 449.18 416.13 413.5 437 378l69.7-119.09ZM277.2 590.23c31.2-53.487 62.373-107.023 93.52-160.61l.54-1.25A37807.177 37807.177 0 0 1 256 347a300428.7 300428.7 0 0 1 21.2 243.23Zm467.6 29.93c7.747-88.947 15.48-177.9 23.2-266.86a794685.256 794685.256 0 0 0-347.34 266.87l324.14-.01Zm-468.2 86.06h467.76v-56.08H276.63c-.027 18.693-.04 37.39-.04 56.09l.01-.01Z" fill="#fff"/></g><defs><clipPath id="a"><path fill="#fff" d="M0 0h1024v1024H0z"/></clipPath></defs></svg>