<svg width="1024" height="1024" fill="none" xmlns="http://www.w3.org/2000/svg"><g clip-path="url(#a)"><path d="M512 1024c282.77 0 512-229.23 512-512S794.77 0 512 0 0 229.23 0 512s229.23 512 512 512Z" fill="#8C72BD"/><path d="M767.9 741.7v-1.5c-.4-.6-1.1-1.4-2.2-2.4C653.9 646.7 668 456 699.7 279c1.3-7.1 2.1-11.9-3.5-12.5-36.1-4.2-156.5 15.4-191 24.8-9 2.5-9.8 5-9.9 10.7-9.5 354.2 208.4 428.4 267.6 440 1.2.3 4.2.6 5-.3ZM453.4 401.5c-44.3 8.6-85.4 25.5-120.9 40.6-3.1.9-8.1 6.2-6.8 12.8 14 71.6 82.3 273.4 343.6 289.1 6 .3 12.1-.8 7.3-3.8-35.2-27.1-160.5-54.9-211.7-328.6-.6-2.7-.5-13.4-11.5-10.1Zm-125.3 168c-15.6 9.4-55.7 35.7-70.1 49.2-2.9 2.7-2.3 4.6-1 9.2 11.6 42.4 80.2 116.6 250.5 110.9 8-.3 8.1-2.7 3.9-5.8-2.7-2-56.6-19.3-105.8-64.6-24.6-22.7-49.7-57.1-66.5-89.8-4.2-8.9-6.3-11.9-11-9.1Z" fill="#fff"/></g><defs><clipPath id="a"><path fill="#fff" d="M0 0h1024v1024H0z"/></clipPath></defs></svg>