<svg width="1024" height="1024" fill="none" xmlns="http://www.w3.org/2000/svg"><g clip-path="url(#a)"><path d="M512 1024c282.77 0 512-229.23 512-512S794.77 0 512 0 0 229.23 0 512s229.23 512 512 512Z" fill="#F9DE81"/><path d="M326.53 413.06a130.644 130.644 0 0 1 25.92-7.27C482 390.27 537.95 390.27 682 396.48c-1-11.41-56-10.37-74.61-15.55-18.61-5.18-160.61-7.25-203.12 4.14l-56 10.37c-8.28 2.07-12.42-9.34-11.39-14.51 1.03-5.17-8.3-1 9.32-8.28 17.62-7.28 48.71-9.34 66.33-11.41a966.273 966.273 0 0 1 260.11 6.21s22.79 3.13 28 11.41a23.742 23.742 0 0 1 1 14.51c-1 3.11-12.47 8.28-4.14 6.21 8.33-2.07 24.89-2 31.1 9.34 6.21 11.34-4.12 13.43-7.25 16.56-3.13 3.13-1.06 10.37-7.27 13.48-6.21 3.11-22.79-4.14-30.06-4.14l-25.9-3.11a541.714 541.714 0 0 0-100.51-2.07 722.352 722.352 0 0 0-95.34 6.21c-28 5.18-59.09 7.25-87.06 16.58-10.37 3.11-45.61 5.2-44.57-4.14 1.04-9.34 14.49-10.37 19.69-12.44 5.2-2.07 9.34 1 13.48-4.14 4.14-5.14-17.62-1-22.79 0-5.17 1-12.44 5.18-17.62 3.11-14.49-5.18-8.26-18.66 3.13-21.76Zm187.57-68.4c5.2 1 45.61 2.07 47.68-13.48a46.672 46.672 0 0 0-9.34-25.9c-4.14-3.11-11.39 20.72-13.46-2.07a53.736 53.736 0 0 0-2.07-13.48c-1.06-2.07-2.09-3.11-4.16-3.11h-2.07a9.357 9.357 0 0 0-3.11 5.18c-3.11 6.23-4.14 28-9.32 28-5.18 0-6.23-13.48-5.2-17.62h-1a37.907 37.907 0 0 0-8.28 6.21c-6.23 6.23-13.48 20.72-9.34 28a24.862 24.862 0 0 0 19.69 9.32l-.02-1.05ZM791.74 662.8c1-1 1-3.11 2.07-5.18a6.14 6.14 0 0 0-1-4.14 13.475 13.475 0 0 0-3.11-8.3c-7.25-10.35-42.48-16.58-42.48-16.58-17.62-4.14-38.34-7.25-61.14-10.35a228.611 228.611 0 0 0-1-53.89 577.971 577.971 0 0 0-1.08-74.62 42.444 42.444 0 0 0-8.28-24.86c-4.14-6.23-5.18-12.44-15.55-11.41-10.37 1.03-12.42 13.48-10.35 20.72l4.14 15.55c1 3.11 5.18 102.58 4.14 111.92v13.48l-75.54-5.2h1c12.44-10.35 8.3-23.83 6.21-38.34-2.09-14.51-1-90.14-3.11-98.44-2.11-8.3-7.25-9.32-12.42-14.51a12.473 12.473 0 0 0-17.31-3.19 12.332 12.332 0 0 0-2.38 2.2c-6.23 6.23 2.07 90.16 2.07 126.43a96.141 96.141 0 0 0 2.07 24.91h-74.63c0-1-1-3.11-1-4.14a80.252 80.252 0 0 1-5.2-14.51 141.017 141.017 0 0 1-2.07-21.76c-1-15.55 1-62.17 2.07-74.61 1.07-12.44 9.34-37.31-14.49-32.13a61.223 61.223 0 0 0-17.66 4.15c-4.14 3.06-4.14 11.34-4.14 15.5s-2.07 66.31-2.07 78.75a116.908 116.908 0 0 0 5.2 33.17 42.458 42.458 0 0 0 16.56 16.56H431.2l-54.93 4.16c-3.11-8.3 1-43.54 8.28-109.85 2.07-15.55-1-15.55-10.35-24.89a12.488 12.488 0 0 0-17.31-3.19 12.97 12.97 0 0 0-2.38 2.2c-6.23 5.2-5.2 11.41-6.23 18.65-3.11 23.85-8.28 63.23-10.35 88.09a117.457 117.457 0 0 0 2.07 32.11v2.07l-30.06 4.14c-26.93 4.14-49.73 5.18-65.28 12.44-15.55 7.26-10.37 5.18-12.44 9.32l-2.07 4.12a24.227 24.227 0 0 1 1 4.14 11.594 11.594 0 0 0 8.3 9.32h9.32a75.684 75.684 0 0 0 44.55-9.32c86-34.2 331.62-23.83 385.51-13.48 23.83 5.18 60.1 9.34 81.88 22.79l10.39 4.2h4.14c2.739.55 5.561.55 8.3 0h3.11a10.373 10.373 0 0 0 5.18-4.16" fill="#fff"/></g><defs><clipPath id="a"><path fill="#fff" d="M0 0h1024v1024H0z"/></clipPath></defs></svg>