<svg width="1024" height="1024" viewBox="0 0 1024 1024" fill="none" xmlns="http://www.w3.org/2000/svg">
<g clip-path="url(#clip0_2_3903)">
<path d="M512 1024C794.77 1024 1024 794.77 1024 512C1024 229.23 794.77 0 512 0C229.23 0 0 229.23 0 512C0 794.77 229.23 1024 512 1024Z" fill="#728DBE"/>
<path d="M399.57 494.6C399.57 483.21 388.5 471.12 369.33 471.12C347.81 471.12 324.17 486.91 320.56 518.4C316.87 550.21 336.66 564.35 356.56 564.35C376.46 564.35 386.95 556.57 397.64 546.21C388.45 534.66 376.64 540.01 374.31 541.21C370.546 543.304 366.285 544.341 361.98 544.21C354.28 544.21 346.43 540.75 346.43 526.38C395.8 521.46 399.57 506 399.57 494.6ZM375.14 496.48C374.83 500.01 373.41 506.06 348.44 509.48C353.7 490.79 363.76 489.37 368.39 489.37C369.319 489.332 370.246 489.493 371.107 489.842C371.969 490.191 372.746 490.721 373.387 491.395C374.027 492.07 374.515 492.873 374.82 493.752C375.124 494.631 375.236 495.564 375.15 496.49L375.14 496.48ZM291.57 499.54C291.57 499.54 280.97 532.84 280.1 535.54C279.8 532.77 272 473 272 473C253.94 473 244.28 485.88 239.17 499.47C239.17 499.47 226.29 532.85 225.17 535.68C225.09 533.09 223.17 499.87 223.17 499.87C222.07 483.22 206.83 473.09 194.5 473.09L209.42 563.65C228.35 563.57 238.56 550.77 243.9 537.18C243.9 537.18 255.29 507.73 255.76 506.39C255.84 507.65 263.93 563.65 263.93 563.65C282.93 563.65 293.15 551.65 298.64 538.52L325.26 473.1C306.58 473.08 296.68 485.89 291.58 499.55L291.57 499.54ZM469.31 471C457.61 471 448.65 477.36 441.11 486.71V486.63L447.86 432.2C432.31 432.2 419.66 445.71 417.23 465.81L405.45 562.96C414.45 562.96 423.91 560.37 429.01 553.77C431.487 557.13 434.735 559.846 438.479 561.69C442.224 563.535 446.357 564.454 450.53 564.37C476.76 564.37 494.75 533.9 494.75 505.31C494.6 479.21 482 471 469.31 471ZM466.88 517.73C464.13 533.67 455.26 544.51 446.7 544.51C438.14 544.51 434.37 540.66 434.37 540.66C436.02 526.66 437.04 518.12 440.18 510.74C443.32 503.36 450.78 491.58 458.56 491.58C466.17 491.54 469.63 501.67 466.88 517.69V517.73ZM560.26 473.12H542L542.08 472.18C543.34 460.24 546.16 453.96 555.51 452.94C561.87 452.31 564.7 449.01 565.41 445.4C565.96 442.57 567.69 432.76 567.69 432.76C530.93 432.52 519.39 448.39 516.4 472.58L516.32 473.13H515.93C509.93 473.13 503.36 479.88 502.26 488.45L501.87 491.59H514.12L503.83 576.59L500.69 591.83C501.08 591.83 501.55 591.91 501.95 591.91C519.15 591.28 530.15 577.69 532.58 557.98L540.58 491.61H546.31C551.96 491.61 558.56 485.96 559.74 476.53L560.26 473.12ZM655.45 471.55C634.32 471.55 614.37 487.1 608.25 511.55C602.13 536 611.39 564.88 642.49 564.88C673.59 564.88 691.42 534.8 691.42 509.75C691.42 484.79 674.54 471.51 655.45 471.51V471.55ZM664.01 516.95C662.91 528.02 658.01 544.83 644.69 544.83C631.37 544.83 633.14 525.2 634.48 515.83C635.89 505.83 641.48 491.64 653.48 491.64C664.25 491.62 665.27 504.42 664 516.91L664.01 516.95ZM795.8 499.55C795.8 499.55 785.2 532.85 784.33 535.55C784.02 532.72 776.24 472.95 776.24 472.95C758.18 472.95 748.52 485.83 743.41 499.42C743.41 499.42 730.53 532.8 729.41 535.63C729.33 533.04 727.41 499.82 727.41 499.82C726.31 483.17 711.07 473.04 698.74 473.04L713.58 563.6C732.51 563.52 742.72 550.72 748.06 537.13C748.06 537.13 759.45 507.68 759.84 506.34C760 507.6 768.01 563.6 768.01 563.6C787.01 563.6 797.23 551.6 802.72 538.47L829.34 473.05C810.72 473.08 800.83 485.89 795.8 499.55ZM577.54 432.71L562.15 556.89L559 572.2C559.39 572.2 559.86 572.28 560.26 572.28C576.83 572.04 588.61 557.51 590.81 539.21L599.69 468C602.36 446.22 589.4 432.71 577.54 432.71Z" fill="white"/>
</g>
<defs>
<clipPath id="clip0_2_3903">
<rect width="1024" height="1024" fill="white"/>
</clipPath>
</defs>
</svg>
