<svg width="1024" height="1024" fill="none" xmlns="http://www.w3.org/2000/svg"><g clip-path="url(#a)"><path d="M512 1024c282.77 0 512-229.23 512-512S794.77 0 512 0 0 229.23 0 512s229.23 512 512 512Z" fill="#FF837D"/><path d="M311.16 645.16 228.5 378.81h76.96l48.79 191.49 53.05-191.49h77.19l53.02 191.49 48.79-191.49h76.94L579.6 645.16h-82l-51.7-192.3-52.74 192.3h-82Zm484.34-41.65c0-24.7-20.02-44.72-44.72-44.72s-44.72 20.02-44.72 44.72 20.02 44.72 44.72 44.72 44.72-20.02 44.72-44.72Zm0-183.03c0-24.7-20.02-44.72-44.72-44.72s-44.72 20.02-44.72 44.72 20.02 44.72 44.72 44.72 44.72-20.02 44.72-44.72Z" fill="#fff"/></g><defs><clipPath id="a"><path fill="#fff" d="M0 0h1024v1024H0z"/></clipPath></defs></svg>