<svg width="1024" height="1024" viewBox="0 0 1024 1024" fill="none" xmlns="http://www.w3.org/2000/svg">
<g clip-path="url(#clip0_2_3915)">
<path d="M512 1024C794.77 1024 1024 794.77 1024 512C1024 229.23 794.77 0 512 0C229.23 0 0 229.23 0 512C0 794.77 229.23 1024 512 1024Z" fill="#FF837D"/>
<path d="M311.16 645.16L228.5 378.81H305.46L354.25 570.3L407.3 378.81H484.49L537.51 570.3L586.3 378.81H663.24L579.6 645.16H497.6L445.9 452.86L393.16 645.16H311.16ZM795.5 603.51C795.5 578.81 775.48 558.79 750.78 558.79C726.08 558.79 706.06 578.81 706.06 603.51C706.06 628.21 726.08 648.23 750.78 648.23C775.48 648.23 795.5 628.21 795.5 603.51ZM795.5 420.48C795.5 395.78 775.48 375.76 750.78 375.76C726.08 375.76 706.06 395.78 706.06 420.48C706.06 445.18 726.08 465.2 750.78 465.2C775.48 465.2 795.5 445.18 795.5 420.48Z" fill="white"/>
</g>
<defs>
<clipPath id="clip0_2_3915">
<rect width="1024" height="1024" fill="white"/>
</clipPath>
</defs>
</svg>
