<svg width="1024" height="1024" viewBox="0 0 1024 1024" fill="none" xmlns="http://www.w3.org/2000/svg">
<g clip-path="url(#clip0_2_3918)">
<path d="M512 1024C794.77 1024 1024 794.77 1024 512C1024 229.23 794.77 0 512 0C229.23 0 0 229.23 0 512C0 794.77 229.23 1024 512 1024Z" fill="#56595B"/>
<path d="M644.65 502.31C644.65 517.44 650.47 529.07 659.78 539.55C667.93 547.7 683.05 553.55 697.02 553.55C710.76 553.64 724.323 550.448 736.58 544.24C748.22 538.42 757.53 540.75 763.34 550.06C770.34 560.53 761.01 574.5 752.87 583.81C737.74 600.1 708.65 611.74 671.42 611.74C595.78 609.41 551.57 558.21 551.57 490.74C551.57 418.59 602.77 375.54 669.1 375.54C728.45 375.54 768.01 405.79 768.01 447.69C768.01 487.25 734.26 512.85 697.01 512.85C676.06 512.85 660.94 509.36 650.46 501.21C647 497.65 644.65 498.82 644.65 502.31ZM509.65 382.46C480.56 376.64 439.83 374.31 396.78 374.31C353.73 374.31 313 376.64 283.91 381.31C261.82 385.95 256 397.58 256 417.36C256 437.14 260.65 460.41 270 499.98C277.335 528.148 286.669 555.758 297.93 582.6C306.08 600.05 313.06 605.87 328.18 605.87C343.3 605.87 350.29 596.56 358.43 583.76L379.35 550C385.17 543 389.82 538.36 396.8 538.36C403.78 538.36 408.44 541.85 413.09 550L434 583.76C442.15 596.56 449.13 605.87 464.25 605.87C479.37 605.87 487.52 600.05 494.5 582.6C506.473 556.036 515.841 528.373 522.47 500C532.94 460.44 537.6 437.16 537.6 417.38C537.6 397.6 531.78 385.95 509.67 382.45L509.65 382.46Z" fill="white"/>
</g>
<defs>
<clipPath id="clip0_2_3918">
<rect width="1024" height="1024" fill="white"/>
</clipPath>
</defs>
</svg>
