<svg width="1024" height="1024" fill="none" xmlns="http://www.w3.org/2000/svg"><g clip-path="url(#a)"><path d="M512 1024c282.77 0 512-229.23 512-512S794.77 0 512 0 0 229.23 0 512s229.23 512 512 512Z" fill="#56595B"/><path d="M644.65 502.31c0 15.13 5.82 26.76 15.13 37.24 8.15 8.15 23.27 14 37.24 14a86.304 86.304 0 0 0 39.56-9.31c11.64-5.82 20.95-3.49 26.76 5.82 7 10.47-2.33 24.44-10.47 33.75-15.13 16.29-44.22 27.93-81.45 27.93-75.64-2.33-119.85-53.53-119.85-121 0-72.15 51.2-115.2 117.53-115.2 59.35 0 98.91 30.25 98.91 72.15 0 39.56-33.75 65.16-71 65.16-20.95 0-36.07-3.49-46.55-11.64-3.46-3.56-5.81-2.39-5.81 1.1Zm-135-119.85c-29.09-5.82-69.82-8.15-112.87-8.15-43.05 0-83.78 2.33-112.87 7-22.09 4.64-27.91 16.27-27.91 36.05 0 19.78 4.65 43.05 14 82.62a612.615 612.615 0 0 0 27.93 82.62c8.15 17.45 15.13 23.27 30.25 23.27s22.11-9.31 30.25-22.11L379.35 550c5.82-7 10.47-11.64 17.45-11.64 6.98 0 11.64 3.49 16.29 11.64L434 583.76c8.15 12.8 15.13 22.11 30.25 22.11s23.27-5.82 30.25-23.27a450.38 450.38 0 0 0 27.97-82.6c10.47-39.56 15.13-62.84 15.13-82.62s-5.82-31.43-27.93-34.93l-.02.01Z" fill="#fff"/></g><defs><clipPath id="a"><path fill="#fff" d="M0 0h1024v1024H0z"/></clipPath></defs></svg>