<svg width="1024" height="1024" fill="none" xmlns="http://www.w3.org/2000/svg"><g clip-path="url(#a)"><path d="M512 1024c282.77 0 512-229.23 512-512S794.77 0 512 0 0 229.23 0 512s229.23 512 512 512Z" fill="#FF837D"/><path d="M492.31 522.07h-61.73a4.407 4.407 0 0 0-4.333 3.253 4.416 4.416 0 0 0-.087 1.927l.26 1.78a34.34 34.34 0 0 0 2 7 24.711 24.711 0 0 0 6.89 9.26c3.06 2.72 7.4 4 12.93 4 5.53 0 9.78-1.36 12.93-4a26.345 26.345 0 0 0 5.78-7 4.464 4.464 0 0 1 3.85-2.29h17.26a4.541 4.541 0 0 1 2.062.514A4.526 4.526 0 0 1 492.31 542a34.153 34.153 0 0 1-2.81 6.2 46.78 46.78 0 0 1-6.46 9.09 37.692 37.692 0 0 1-7.57 6.37 58.776 58.776 0 0 1-7.82 4.16 54.138 54.138 0 0 1-43.54-2 51.132 51.132 0 0 1-8.76-6.11 36.68 36.68 0 0 1-7.65-9.34 52.035 52.035 0 0 1-5.36-13.5 83.475 83.475 0 0 1 0-36.69 54 54 0 0 1 5.36-13.59 37.645 37.645 0 0 1 7.65-9.51 47.427 47.427 0 0 1 8.76-6.2c6.89-3.74 14.8-5.69 23.72-6h.51a58.695 58.695 0 0 1 20.49 4.59 45.128 45.128 0 0 1 8.16 4.76 40.56 40.56 0 0 1 7.65 7.22 44.529 44.529 0 0 1 6.21 10.28 52.318 52.318 0 0 1 3.91 13.76c.25 2 .51 4.08.68 6.2.17 2.12.34 4.42.34 6.88.11-.16.62 3.5-3.47 3.5Zm-29.42-16.73a4.44 4.44 0 0 0 4.08-6.28.073.073 0 0 0-.003-.036.081.081 0 0 0-.019-.031.073.073 0 0 0-.031-.019.077.077 0 0 0-.037-.004 20.356 20.356 0 0 0-10.37-10 21.581 21.581 0 0 0-8.42-1.53 21.29 21.29 0 0 0-8.42 1.53 18.561 18.561 0 0 0-6.21 4.16 22.015 22.015 0 0 0-4.25 5.86v.09a4.483 4.483 0 0 0 4.08 6.37h29.59l.01-.11ZM388 422a24.517 24.517 0 0 0-24.58 24.54v71.09a83.65 83.65 0 0 1-.51 9.09 23.064 23.064 0 0 1-2.55 8.41 16.853 16.853 0 0 1-6.12 6.37c-2.72 1.7-6.63 2.55-11.56 2.55-4.93 0-8.84-.85-11.56-2.55a16.868 16.868 0 0 1-6.12-6.37 23.102 23.102 0 0 1-2.55-8.41 82.652 82.652 0 0 1-.51-9.09v-73.28a24.517 24.517 0 0 0-24.58 24.54v48.66a83.398 83.398 0 0 1-.51 9.09 23.064 23.064 0 0 1-2.55 8.41 16.853 16.853 0 0 1-6.12 6.37c-2.72 1.7-6.63 2.55-11.56 2.55-4.93 0-8.84-.85-11.56-2.55a16.868 16.868 0 0 1-6.12-6.37 23.102 23.102 0 0 1-2.55-8.41 82.652 82.652 0 0 1-.51-9.09v-50.86a24.571 24.571 0 0 0-24.58 24.54v26.33a73.808 73.808 0 0 0 2 18.34 61.422 61.422 0 0 0 5.1 13.59 38.393 38.393 0 0 0 7.23 9.51 45.045 45.045 0 0 0 8.33 6.2 47.831 47.831 0 0 0 22.53 6 48.58 48.58 0 0 0 22.79-6 41.896 41.896 0 0 0 8.25-6.2c.68-.68 1.36-1.36 2-2.12.68.76 1.36 1.44 2 2.12a45.045 45.045 0 0 0 8.33 6.2 47.834 47.834 0 0 0 22.53 6 48.58 48.58 0 0 0 22.79-6 41.896 41.896 0 0 0 8.25-6.2 38.37 38.37 0 0 0 7.23-9.51 53.971 53.971 0 0 0 5.1-13.59 78.05 78.05 0 0 0 1.87-18.34L388 422Zm182.29 143a4.857 4.857 0 0 1-4.59 3.31h-25.85a4.94 4.94 0 0 1-4.59-3.31l-30-92a4.772 4.772 0 0 1 4.59-6.28h14.54a4.926 4.926 0 0 1 4.59 3.31l19.22 58.69c.31.963.918 1.803 1.736 2.398a4.776 4.776 0 0 0 5.629 0 4.773 4.773 0 0 0 1.735-2.398L568.33 495l18.54-56.73a23.544 23.544 0 0 1 29.68-15L570.29 565Zm118.54-79a37.619 37.619 0 0 0-7.65-9.51 47.313 47.313 0 0 0-8.76-6.2 52.698 52.698 0 0 0-23.64-6c-8.42 0-15.56 1.27-21.43 3.74a37.583 37.583 0 0 0-14.54 10.62 43.413 43.413 0 0 0-8.33 16.82 90.385 90.385 0 0 0-2.64 22.51V596a5.912 5.912 0 0 0 6 5.94h11.9a5.914 5.914 0 0 0 6-5.94v-39.29a27.988 27.988 0 0 0 4.25 4.67 35.847 35.847 0 0 0 10.2 6.37 38.695 38.695 0 0 0 11.57 2.55h.94a45.071 45.071 0 0 0 21.6-5.61 44.465 44.465 0 0 0 8.16-6.11 39.03 39.03 0 0 0 7.06-9.34 55.945 55.945 0 0 0 5-13.42 77.327 77.327 0 0 0 1.87-18.26 69.044 69.044 0 0 0-2.13-18.26 53.202 53.202 0 0 0-5.43-13.3Zm-17.94 41.36a28.984 28.984 0 0 1-3.23 9.68 20.67 20.67 0 0 1-6.89 7.47c-3 2-7 3-11.91 3s-8.93-1-11.9-3a22.755 22.755 0 0 1-7.06-7.51 27.258 27.258 0 0 1-3.32-9.68 66.938 66.938 0 0 1-.77-9.6c.016-3.577.243-7.15.68-10.7a28.903 28.903 0 0 1 3-9.6 16.786 16.786 0 0 1 6.89-6.88c3.06-1.7 7.23-2.63 12.41-2.63 4.93 0 8.93 1 11.91 3a20.612 20.612 0 0 1 6.89 7.47 31.749 31.749 0 0 1 3.23 9.68c.487 3.177.744 6.386.77 9.6a56.314 56.314 0 0 1-.7 9.67v.03Zm118.79-32.19a47.755 47.755 0 0 0-7.91-15.17 37.313 37.313 0 0 0-10.46-9.17 49.01 49.01 0 0 0-10.63-4.67 39.367 39.367 0 0 0-8.76-1.7c-2.47-.17-3.91-.17-4.34-.17-.43 0-2 .08-4.42.17a39.004 39.004 0 0 0-8.59 1.7 53.57 53.57 0 0 0-10.57 4.69 37.328 37.328 0 0 0-10.51 9.15 48.791 48.791 0 0 0-7.91 15.12c-2 6.11-3.15 13.59-3.15 22.51V563a5.354 5.354 0 0 0 .403 2.053 5.321 5.321 0 0 0 4.957 3.297h13.69a5.333 5.333 0 0 0 4.958-3.297 5.335 5.335 0 0 0 .402-2.053v-45.27c.007-3.016.264-6.027.77-9a25.377 25.377 0 0 1 3-8.41 17.57 17.57 0 0 1 6.21-6.28c2.64-1.7 6.21-2.46 10.63-2.46 4.42 0 8 .85 10.63 2.46a18.26 18.26 0 0 1 6.21 6.28 25.332 25.332 0 0 1 3 8.41c.503 2.974.761 5.984.77 9V563a5.354 5.354 0 0 0 .403 2.053 5.321 5.321 0 0 0 4.957 3.297h14a5.333 5.333 0 0 0 4.958-3.297 5.335 5.335 0 0 0 .402-2.053v-45.27c-.03-9-1.06-16.47-3.1-22.59v.03Z" fill="#fff"/></g><defs><clipPath id="a"><path fill="#fff" d="M0 0h1024v1024H0z"/></clipPath></defs></svg>