<svg width="1024" height="1024" fill="none" xmlns="http://www.w3.org/2000/svg"><g clip-path="url(#a)"><path d="M512 1024c282.77 0 512-229.23 512-512S794.77 0 512 0 0 229.23 0 512s229.23 512 512 512Z" fill="#54688C"/><path d="M659.54 289.15c-54.16 0-98.17 44.01-98.17 98.17H442.89l98.17-98.17h-119.6c-54.16 0-98.17 44.01-98.17 98.17h-1.13c-54.16 0-98.17 44.01-98.17 98.17h99.29v73.34c0 98.17 80.11 177.15 177.15 177.15h180.53V386.19l98.17-98.17-119.6 1.13h.01ZM556.86 548.67c-14.67-14.67-14.67-38.36 0-53.03l53.03 53.03c-14.67 14.67-38.36 14.67-53.03 0Z" fill="#fff"/></g><defs><clipPath id="a"><path fill="#fff" d="M0 0h1024v1024H0z"/></clipPath></defs></svg>