<svg width="1024" height="1024" viewBox="0 0 1024 1024" fill="none" xmlns="http://www.w3.org/2000/svg">
<g clip-path="url(#clip0_2_3924)">
<path d="M512 1024C794.77 1024 1024 794.77 1024 512C1024 229.23 794.77 0 512 0C229.23 0 0 229.23 0 512C0 794.77 229.23 1024 512 1024Z" fill="#54688C"/>
<path d="M659.54 289.15C605.38 289.15 561.37 333.16 561.37 387.32H442.89L541.06 289.15H421.46C367.3 289.15 323.29 333.16 323.29 387.32H322.16C268 387.32 223.99 431.33 223.99 485.49H323.28V558.83C323.28 657 403.39 735.98 500.43 735.98H680.96V386.19L779.13 288.02L659.53 289.15H659.54ZM556.86 548.67C542.19 534 542.19 510.31 556.86 495.64L609.89 548.67C595.22 563.34 571.53 563.34 556.86 548.67Z" fill="white"/>
</g>
<defs>
<clipPath id="clip0_2_3924">
<rect width="1024" height="1024" fill="white"/>
</clipPath>
</defs>
</svg>
