<svg width="1024" height="1024" fill="none" xmlns="http://www.w3.org/2000/svg"><g clip-path="url(#a)"><path d="M512 1024c282.77 0 512-229.23 512-512S794.77 0 512 0 0 229.23 0 512s229.23 512 512 512Z" fill="#F8C18C"/><path d="m455.349 431.36-32.99 122.34a68.851 68.851 0 0 1-9.16 20.28c-4.01 6.06-9 11.4-14.78 15.81a68.52 68.52 0 0 1-19.13 10.19 66.63 66.63 0 0 1-21.99 3.67h-180.76l46.05-172.97c.72-2.98 2.46-5.62 4.93-7.45 2.46-1.89 5.49-2.9 8.59-2.86h24.51a8.42 8.42 0 0 1 6.99 3.44 8.213 8.213 0 0 1 1.706 3.59 8.212 8.212 0 0 1-.176 3.97l-34.17 127.38h46.51l34.36-128.07c.72-2.98 2.46-5.62 4.93-7.45 2.39-1.86 5.33-2.87 8.36-2.86h24.74c2.72-.09 5.31 1.2 6.87 3.44a8.405 8.405 0 0 1 1.37 7.56l-34.14 127.38h27.95c5.34.05 10.54-1.68 14.78-4.93 4.28-3.18 7.32-7.76 8.59-12.94l29.55-110.2c.72-2.98 2.46-5.62 4.93-7.45 2.46-1.89 5.49-2.9 8.59-2.86h24.51a8.42 8.42 0 0 1 6.99 3.44 8.219 8.219 0 0 1 1.49 7.56v-.01Zm31.84 103.09-15.81 58.88c-.72 2.98-2.46 5.62-4.93 7.45-2.46 1.89-5.49 2.9-8.59 2.86h-24.51a8.138 8.138 0 0 1-6.76-3.44 7.837 7.837 0 0 1-1.49-7.33l43.3-162.2c.72-2.98 2.46-5.62 4.93-7.45 2.46-1.89 5.49-2.9 8.59-2.86h35.51l-18.1 69.19h57.27l15.81-58.88c.71-2.98 2.46-5.62 4.93-7.45 2.39-1.87 5.33-2.87 8.36-2.86h35.97l-46.51 172.97c-.72 2.98-2.46 5.62-4.93 7.45a13.53 13.53 0 0 1-8.36 2.86h-24.74c-2.72.09-5.31-1.2-6.87-3.44a7.93 7.93 0 0 1-1.37-7.33l15.58-58.42h-57.28Zm101.49 58.19 46.28-172.28h144.79a65.195 65.195 0 0 1 30.62 7.22 68.035 68.035 0 0 1 35.58 46.39 64.525 64.525 0 0 1-.91 31.39l-23.6 87.97c-.72 2.98-2.46 5.62-4.93 7.45-2.46 1.89-5.49 2.9-8.59 2.86h-24.51a8.344 8.344 0 0 1-6.99-3.44 8.192 8.192 0 0 1-1.53-7.56l25.01-92.56c2.07-8.32.26-17.12-4.93-23.94a28.533 28.533 0 0 0-9.39-7.9 26.32 26.32 0 0 0-12.49-2.98h-10.54l-34.36 128.07c-.72 2.98-2.46 5.62-4.93 7.45a13.53 13.53 0 0 1-8.36 2.86h-24.75c-2.72.09-5.31-1.2-6.87-3.44a8.341 8.341 0 0 1-1.37-7.56l34.14-127.38h-46.51l-34.36 128.07c-.71 2.98-2.45 5.62-4.92 7.45-2.46 1.89-5.49 2.9-8.59 2.86h-24.51a8.344 8.344 0 0 1-6.99-3.44 8.154 8.154 0 0 1-1.49-7.56Z" fill="#fff"/></g><defs><clipPath id="a"><path fill="#fff" d="M0 0h1024v1024H0z"/></clipPath></defs></svg>