<svg width="1024" height="1024" fill="none" xmlns="http://www.w3.org/2000/svg"><g clip-path="url(#a)"><path d="M512 1024c282.77 0 512-229.23 512-512S794.77 0 512 0 0 229.23 0 512s229.23 512 512 512Z" fill="#98DC9A"/><path d="M128 437.39h27.64l34.68 108.78 35.19-109.29H248l35.32 109.29L318 437.39h26.8L297.57 585.2H271l-34.6-105.45-32.76 105.45h-27.39L128 437.39Zm229.34 146.79h25.08v-61.94h64v61.94h25.08V437.39h-25.09v61h-64v-61h-25.07v146.79Zm131.31 0h25.59v-108.4l46.46 65.27L606 475.4v108.78h27.26V437.39h-30.08l-42.87 61.17-42.75-61.17h-28.92l.01 146.79ZM763.41 463l4.38-13.71c-.6-.05-1.21-.09-1.82-.09a20.005 20.005 0 0 0-14.19 5.88 20.261 20.261 0 0 0-2.45 3 20.087 20.087 0 0 0 0 22.44 20.21 20.21 0 0 0 3.15 3.67 20.002 20.002 0 0 0 24.089 2.383A20.004 20.004 0 0 0 785.31 464l-16.4 4.53a55.858 55.858 0 0 0-5.5-5.53ZM753 532.22a37.996 37.996 0 0 1-30.507 15.357 37.991 37.991 0 0 1-30.515-15.341 38.003 38.003 0 0 1 2.945-48.821 38.006 38.006 0 0 1 14.697-9.595l.23-8.66.09-3.35 3.23-.88 9.56-2.59-7.53-7.23-2.63-2.52 1.92-3.09 5-8.06 1.76-2.84 3.22.86 7 1.86-1.9-7.75-14.57-.25-5 19.2a62.88 62.88 0 0 0-8 2.18l-13.69-14.21-12.8 7 5.37 19.71a67.548 67.548 0 0 0-5.25 5.25l-19.45-5.37-7.68 12.41 14.72 14.33a48.448 48.448 0 0 0-1.92 7.42l-19.07 5.37-.38 14.59 19.58 5.25a53.906 53.906 0 0 0 2.18 7.81l-15 12.93 6.91 12.8 20.22-5.5a45.747 45.747 0 0 0 5 5L676 575.73l12.41 7 14.72-14.33a58.508 58.508 0 0 0 6.78 1.79l4.74 19.84h14.59l4.86-19.84a77.796 77.796 0 0 0 7.81-2l13.44 14.46 12.93-7.17-5.37-19.2a59.91 59.91 0 0 0 5.76-5.63l18.81 5.63 7.42-12.54-11.77-11.52H753Zm66.45-83.14-2.64 2.39-7.36 6.66.18.66 10.37 2.65 3.38.87v6.32c3.64-5.1 11.57-9.62 27.5-9.62a55.424 55.424 0 0 1 35.58 12.54v-26.48s-20.6-9.85-39.29-9.85c-9 0-21.34 1-31.66 6.56l2.32 4.19 1.62 3.11Zm32.22 47.82c-23.63-6.28-29.84-10.83-30.91-17.45l-1 .22-10 2.18 6.44 6.35 2.51 2.47-1.8 3-4.86 8.19-1.8 3-3.38-1-3.6-1.1c18.72 22.39 65.44 14.47 65.44 41.07 0 13.44-12.8 17.92-31.1 17.66-20.22-.26-42-14.85-42-14.85v27.56a108.125 108.125 0 0 0 47.1 12.16c25 0 53.24-12.29 53.24-41.34 0-29.05-17.74-41.08-44.23-48.12h-.05Zm-128.31-57.08 9.39 2.49 3.15.84a40.873 40.873 0 0 1 3.33-3.33L735.9 427l8.32-4.48 9 9.21a35.27 35.27 0 0 1 5.25-1.41l3.33-12.42 9.47.26 2.94 12.29c1.66.38 3.33.77 5 1.28l9.6-8.83 8.19 4.86-3.84 12a47.235 47.235 0 0 1 3.58 3.58l12.54-3.58 2.38 4.3 2.23 4-9.47 8.57a48.177 48.177 0 0 1 1.54 5.76l12.92 3.33v9.47l-13.63 3a26.393 26.393 0 0 1-1.21 4.15l9.09 9-4.86 8.19-8.78-2.68-3.38-1a50.725 50.725 0 0 1-3.71 3.71l3.26 12.44-8.19 4.74-8.7-9.34c-1.66.51-3.33 1-5.12 1.41l-3.2 12.93H761l-3-12.94a28.703 28.703 0 0 1-4.48-1.15l-9.43 9.35-8.09-4.49 3.07-13.05a40.873 40.873 0 0 1-3.33-3.33l-13.05 3.58-4.22-8.06 9.73-8.45a33.569 33.569 0 0 1-1.41-5.12l-12.67-3.33.06-2.26.19-7.21 12.31-3.28a34.043 34.043 0 0 1 1.32-4.9l-9.6-9.21 4.96-8.07Zm45.83 5.08a24.942 24.942 0 0 0-3.22-.22 24.486 24.486 0 0 0-17.37 7.19 24.571 24.571 0 0 0-7.202 17.375 24.56 24.56 0 0 0 8.052 18.185 24.57 24.57 0 0 0 40.96-20.71 24.581 24.581 0 0 0-21.22-21.82Z" fill="#fff"/></g><defs><clipPath id="a"><path fill="#fff" d="M0 0h1024v1024H0z"/></clipPath></defs></svg>