<svg width="1024" height="1024" fill="none" xmlns="http://www.w3.org/2000/svg"><g clip-path="url(#a)"><path d="M512 1024c282.77 0 512-229.23 512-512S794.77 0 512 0 0 229.23 0 512s229.23 512 512 512Z" fill="#9ABEFF"/><path d="M763.32 583.71A481.968 481.968 0 0 0 712.76 562v-93.9H720l-17.54-39.21-17.54 39.21h7.22v86.68A622.678 622.678 0 0 0 625 537.27V434.08h7.22l-17.54-39.21-17.54 39.21h7.22v99.06c-23.7-4.094-49.487-7.187-77.36-9.28-1-22.7-2.06-43.34-2.06-57.79 0-23.73 1-36.12 1-36.12 1-1 1-2.06 2.06-3.1 1-3.1 2.06-5.16 2.06-8.25v-3.1h9.29v-1l-26.83-58.82-28.89 57.79v1H493v3.1a19.416 19.416 0 0 0 2.06 8.26c1 1 1 2.06 2.06 3.1 0 0 1 12.38 1 36.12 0 13.41 0 35.08-2.06 57.79-27.86 2.066-53.657 5.163-77.39 9.29V433h7.22l-17.54-39.21L390.81 433H398v103.24a693.567 693.567 0 0 0-67.07 17.54V467.1h7.22l-17.54-39.21-17.51 39.21h7.22V561c-22.7 9.29-40.24 16.51-50.56 21.67-13.42-124.86 13.42-233.21 13.42-233.21 126.92-4.13 239.4-71.2 239.4-71.2S625 346.37 750.94 350.5c0 0 27.86 108.35 12.38 233.21Zm-49.53 98h28.89c4.13-13.41 8.26-27.86 10.32-41.28a195.539 195.539 0 0 0 7.22-33v-1c-5.16-5.16-21.67-13.42-46.43-22.7v97.98Zm-87.71-1h68.11V575.45c-19.607-6.194-42.31-12.384-68.11-18.57v123.83ZM532.18 560c4.13 32 12.38 81.52 21.67 120.73h51.59v-128c-23.73-4.13-48.5-7.22-75.33-9.29 0 .02 2.07 14.47 2.07 16.56ZM419.7 680.7h51.59C479.55 641.49 488.84 592 493 560c0-2.06 2.06-15.48 2.06-16.51a715.079 715.079 0 0 0-75.33 9.29l-.03 127.92Zm-88.74 0h68.1V556.88c-26.827 6.193-49.527 12.383-68.1 18.57V680.7Zm-69.14-74.3c1 8.25 4.13 19.61 7.22 33s6.19 27.86 10.32 41.28h28.89v-98c-22.7 10.32-39.21 18.57-46.43 22.7v1.02Z" fill="#fff"/></g><defs><clipPath id="a"><path fill="#fff" d="M0 0h1024v1024H0z"/></clipPath></defs></svg>