<svg width="1024" height="1024" fill="none" xmlns="http://www.w3.org/2000/svg"><g clip-path="url(#a)"><path d="M512 1024c282.77 0 512-229.23 512-512S794.77 0 512 0 0 229.23 0 512s229.23 512 512 512Z" fill="#56595B"/><path d="M512 271.36a239.452 239.452 0 0 1 134.53 41.09 241.384 241.384 0 0 1 87.2 105.89 240.312 240.312 0 0 1-22.18 228.2 241.384 241.384 0 0 1-105.89 87.2 240.312 240.312 0 0 1-228.2-22.18 241.384 241.384 0 0 1-87.2-105.89 240.312 240.312 0 0 1 22.18-228.2 241.384 241.384 0 0 1 105.89-87.2A239.117 239.117 0 0 1 512 271.36Zm0-15.36c-141.39 0-256 114.61-256 256s114.61 256 256 256 256-114.62 256-256-114.61-256-256-256ZM298.67 512A213.354 213.354 0 0 0 418.9 704L317.14 425.17A212.5 212.5 0 0 0 298.67 512ZM656 501.23c0-26.37-9.47-44.63-17.59-58.83-10.82-17.58-21-32.45-21-50 0-19.61 14.87-37.86 35.82-37.86.95 0 1.84.11 2.76.17a213.286 213.286 0 0 0-256.756-23.81 213.286 213.286 0 0 0-65.554 63.95c5 .16 9.73.26 13.73.26 22.31 0 56.86-2.71 56.86-2.71 11.49-.67 12.85 16.22 1.36 17.58 0 0-11.56 1.35-24.41 2L459 643.05l46.69-140L472.43 412c-11.49-.67-22.37-2-22.37-2-11.5-.68-10.15-18.25 1.35-17.58 0 0 35.22 2.71 56.18 2.71 22.31 0 56.86-2.71 56.86-2.71 11.5-.67 12.85 16.22 1.36 17.58 0 0-11.57 1.35-24.41 2l77.1 229.32 22-69.74c9.78-30.48 15.51-52.07 15.51-70.32m-140.26 29.39-64 186a213.43 213.43 0 0 0 131.12-3.4 19.389 19.389 0 0 1-1.53-2.94l-65.59-179.66Zm183.46-121a163.778 163.778 0 0 1 1.43 21.93c0 21.64-4.05 46-16.23 76.41l-65.15 188.39a213.364 213.364 0 0 0 79.95-286.73Z" fill="#fff"/></g><defs><clipPath id="a"><path fill="#fff" d="M0 0h1024v1024H0z"/></clipPath></defs></svg>