<svg width="1024" height="1024" fill="none" xmlns="http://www.w3.org/2000/svg"><g clip-path="url(#a)"><path d="M512 1024c282.77 0 512-229.23 512-512S794.77 0 512 0 0 229.23 0 512s229.23 512 512 512Z" fill="#96DFD3"/><path d="M443.4 723.7h135.9v-103l-32.9-32.9h-70.1l-32.9 32.9v103Zm175.9-278.9-32.9 32.9v71.5l32.9 32.9h103V446.2h-103v-1.4Zm-40.1-144.5H443.4v103l32.9 32.9h70.1l32.9-32.9v-103h-.1Zm144.5 423.4v-103l-32.9-32.9h-103v135.9h135.9ZM333.2 300.3l-32.9 32.9v103h135.9V300.3h-103Zm254.6 0v103l32.9 32.9h103V300.3H587.8ZM512 532c-10 0-18.6-8.6-18.6-18.6 0-10 8.6-18.6 18.6-18.6 10 0 18.6 8.6 18.6 18.6 0 10-8.6 18.6-18.6 18.6Zm-75.8-87.2H300.3v135.9h103l32.9-32.9v-103Zm0 175.9-32.9-32.9h-103v135.9h103l32.9-32.9v-70.1Z" fill="#fff"/></g><defs><clipPath id="a"><path fill="#fff" d="M0 0h1024v1024H0z"/></clipPath></defs></svg>