<svg width="1024" height="1024" viewBox="0 0 1024 1024" fill="none" xmlns="http://www.w3.org/2000/svg">
<g clip-path="url(#clip0_2_3969)">
<path d="M512 1024C794.77 1024 1024 794.77 1024 512C1024 229.23 794.77 0 512 0C229.23 0 0 229.23 0 512C0 794.77 229.23 1024 512 1024Z" fill="#96DFD3"/>
<path d="M389.09 431.6L327.18 564.67L304.08 513.84L294.84 493.51L266.19 431.6H246.78L284.67 513.85L261.57 564.68L200.57 431.61H181.17L252.32 585L256.02 592.39H269L272.7 585L295.8 534.17L318.86 585L322.56 592.39H335.5L339.2 585L408.5 431.6H389.09ZM530.48 431.6L483.35 514.77L436.22 431.6H415.89L474.11 535.1V592.4H491.67V535.1L550.81 431.6H530.48ZM705.14 518.47H842.83V501.83H705.14V518.47ZM705.14 518.47H842.83V501.83H705.14V518.47ZM561 431.6V449.16H661.71L554.51 592.4H690.35V574.84H589.63L696.82 431.6H561ZM705.16 448.23H842.83V431.6H705.14L705.16 448.23ZM705.16 592.39H842.83V575.76H705.14L705.16 592.39Z" fill="white"/>
</g>
<defs>
<clipPath id="clip0_2_3969">
<rect width="1024" height="1024" fill="white"/>
</clipPath>
</defs>
</svg>
