<svg width="1024" height="1024" fill="none" xmlns="http://www.w3.org/2000/svg"><g clip-path="url(#a)"><path d="M512 1024c282.77 0 512-229.23 512-512S794.77 0 512 0 0 229.23 0 512s229.23 512 512 512Z" fill="#728DBE"/><path d="m235 511.47 35.9 52.33h-17.26l-26.17-40-26.27 40h-17.28l35.9-51.71-32.22-47.17H205l22.43 36m4.2-6.52 18.27-29.5h17.27l-27.88 40.3m49.87.56c0-2.22 0-4.26.18-6.22v-.72c.56-8.76 2.22-14.71 5-17.73 3.48-3.76 11.083-5.64 22.81-5.64 11.727 0 19.31 1.606 22.75 4.82 3.26 3 5 9.19 5.22 18.55h14.57c-.893-13.007-3.607-21.864-8.14-26.57-5.667-5.867-17.593-8.794-35.78-8.78-16.667 0-27.873 3.376-33.62 10.13-5.747 6.753-8.58 19.993-8.5 39.72 0 21.333 2.847 35.333 8.54 42 5.693 6.666 17.633 10 35.82 10 15.647 0 26.593-2.054 32.84-6.16 6.247-4.107 9.37-11.297 9.37-21.57l-.1-3.6h-14.79v3.1c0 6.753-1.74 11.15-5.22 13.19-3.48 2.04-11.05 3.02-22.71 2.94-12.26 0-20.063-2.134-23.41-6.4-3.347-4.267-5.013-14.2-5-29.8h71.16v-11.29h-71l.01.03Zm132.45-30.31c9.23 0 15.47 1.48 18.71 4.4 3.24 2.92 4.86 8.64 4.86 17.13v1.84h14.57c0-13.71-2.56-23-7.48-27.92-4.92-4.92-14.57-7.44-28.7-7.44-17.527 0-28.493 5.07-32.9 15.21l-.42-.32.42-13.45h-14v33.92h14.83c1.77-15.61 11.8-23.35 30.11-23.35v-.02Zm-45 30.32h14.49v58h-14.5l.01-58Zm68.58 0h14.49v58h-14.5l.01-58Zm50.95-20.37v-49.33h70.64v-13.43H480.2v76.2h82.49a86.935 86.935 0 0 1 2.12-13.43l-68.67-.01Zm-15.95 20.37h15.93v58h-15.94l.01-58Zm165.81 8.6c0 17.566-1.533 28.44-4.6 32.62-3.067 4.18-11.067 6.266-24 6.26-12.833 0-20.777-2.087-23.83-6.26-3.053-4.174-4.577-15.047-4.57-32.62 0-3.08 0-6 .14-8.58H574c-.12 2.72-.18 5.56-.18 8.58 0 21.24 2.72 35.026 8.16 41.36 5.44 6.333 17.293 9.51 35.56 9.53 18.267 0 30.127-3.177 35.58-9.53 5.453-6.354 8.173-20.14 8.16-41.36 0-3 0-5.86-.16-8.58h-15.27c.15 2.66.15 5.44.15 8.58Zm-52.37-32.64c3.053-4.16 10.997-6.247 23.83-6.26 12.833-.014 20.833 2.073 24 6.26 2 2.76 3.4 8.48 4 17.11h15.13c-1.02-12.56-3.523-21.174-7.51-25.84-5.44-6.327-17.3-9.497-35.58-9.51-18.28-.014-30.113 3.156-35.5 9.51-4 4.666-6.52 13.283-7.56 25.85h15.13c.69-8.63 2.05-14.36 4.1-17.12h-.04Zm81.21 24.05h14.49v58h-14.46l-.03-58Zm38.7-31.14c11.033 0 16.543 5.07 16.53 15.21 0 .9-.1 2.66-.3 5.26l-.44 3.72h14.27l.24-8c0-18.76-9.107-28.134-27.32-28.12-13.167 0-22.613 4.666-28.34 14l-.3-.3 1.48-11.41h-14.47v34h14.75c1.46-16.27 9.36-24.35 23.93-24.35l-.03-.01ZM832 473c-5.44-6.327-17.293-9.497-35.56-9.51-18.267-.014-30.107 3.156-35.52 9.51-4 4.666-6.527 13.283-7.58 25.85h15.15c.68-8.62 2-14.35 4-17.11 3.08-4.16 11.03-6.247 23.85-6.26 12.82-.014 20.82 2.073 24 6.26 3.053 4.173 4.587 15.053 4.6 32.64.013 17.586-1.517 28.46-4.59 32.62-3.067 4.173-11.067 6.26-24 6.26s-20.887-2.087-23.86-6.26c-3.053-4.16-4.587-15.034-4.6-32.62 0-3.08 0-6 .14-8.58h-15.18c-.1 2.72-.16 5.56-.16 8.58 0 21.24 2.72 35.026 8.16 41.36 5.44 6.333 17.267 9.51 35.48 9.53 18.267 0 30.12-3.177 35.56-9.53 5.44-6.354 8.167-20.14 8.18-41.36.007-21.234-2.683-35.027-8.07-41.38Z" fill="#fff"/></g><defs><clipPath id="a"><path fill="#fff" d="M0 0h1024v1024H0z"/></clipPath></defs></svg>