<svg width="1024" height="1024" fill="none" xmlns="http://www.w3.org/2000/svg"><g clip-path="url(#a)"><path d="M512 1024c282.77 0 512-229.23 512-512S794.77 0 512 0 0 229.23 0 512s229.23 512 512 512Z" fill="#9ABEFF"/><path d="M512 256c-141.4 0-256 114.62-256 256s114.59 256 256 256 256-114.63 256-256-114.65-256-256-256Zm-92.81 313.14a8.36 8.36 0 0 1-6-2.65l-42.94-43.28-43.17 43.49a8.323 8.323 0 0 1-9.119 1.778 8.317 8.317 0 0 1-5.081-7.778 8.317 8.317 0 0 1 2.57-6l43-43.44-43-43.39a8.477 8.477 0 0 1-2.51-6 8.317 8.317 0 0 1 5.079-7.768 8.325 8.325 0 0 1 9.111 1.768l43.18 43.39 43-43.31a8.244 8.244 0 0 1 5.92-2.51 8.392 8.392 0 0 1 8.36 8.4 8.234 8.234 0 0 1-2.44 5.89l-43 43.53 43 43.52a8.406 8.406 0 0 1 1.81 9.139 8.404 8.404 0 0 1-7.73 5.201l-.04.02Zm117.61-56.82c-2.91 3.62-7.6 5.69-13.2 5.81H443v.62c.412 2.188.98 4.343 1.7 6.45 5 13 17.73 27 38.54 27.19a40 40 0 0 0 18.84-4.83 42.386 42.386 0 0 0 11.07-9c.95-1.1 1.77-2.2 2.56-3.27l.29-.29c2.41-3.17 5.07-3.83 6.88-3.83a8.84 8.84 0 0 1 5.36 1.93 8.127 8.127 0 0 1 3 5.55 9.847 9.847 0 0 1-2.08 7.26l-.32.34c-4.91 6.23-9.57 10.69-14.64 14a56.877 56.877 0 0 1-17.27 7.4 54.171 54.171 0 0 1-13.93 1.88 56.493 56.493 0 0 1-6.73-.41 58.314 58.314 0 0 1-48.9-43.42 57.413 57.413 0 0 1-1.73-14 58.724 58.724 0 0 1 24.27-47.7 57.546 57.546 0 0 1 64.16-1.73c13.26 8.45 22.08 21.58 25.51 38a14.669 14.669 0 0 1-2.78 12.05ZM589.13 471c-16.58 2.07-18.23 10.14-18.23 29.45V560a8.3 8.3 0 1 1-16.6 0v-96.92a8.29 8.29 0 0 1 16.19-2.57 32.782 32.782 0 0 1 19.6-6.4h2.36a8.402 8.402 0 0 1 8.36 8.41c0 4.58-3.54 8-8.42 8.21-1.091.03-2.179.12-3.26.27Zm122.53 39.68c0 32-25.77 58-57.44 58-31.67 0-57.47-26-57.47-58s25.78-58 57.47-58c31.69 0 57.44 26.01 57.44 57.97v.03Zm-189.18-9.39h-78.83a40.6 40.6 0 0 1 78.83 0Zm91.45 9.39a40.263 40.263 0 0 0 11.566 28.885 40.28 40.28 0 0 0 28.699 12.02 40.28 40.28 0 0 0 28.699-12.02 40.283 40.283 0 0 0 11.566-28.885c0-22.42-18.05-40.67-40.24-40.67a40.518 40.518 0 0 0-40.29 40.64v.03Zm54.93 0a14.662 14.662 0 0 1-9.13 13.467 14.659 14.659 0 0 1-19.057-19.226 14.656 14.656 0 0 1 13.547-9.011 14.717 14.717 0 0 1 14.64 14.74v.03Z" fill="#fff"/></g><defs><clipPath id="a"><path fill="#fff" d="M0 0h1024v1024H0z"/></clipPath></defs></svg>