<svg width="1024" height="1024" fill="none" xmlns="http://www.w3.org/2000/svg"><g clip-path="url(#a)"><path d="M512 1024c282.77 0 512-229.23 512-512S794.77 0 512 0 0 229.23 0 512s229.23 512 512 512Z" fill="#56595B"/><path d="M662.09 498.3c-68.36 0-123.84 56.08-123.84 125.19s55.48 125.19 123.84 125.19c68.36 0 123.84-56.08 123.84-125.19S730.45 498.3 662.09 498.3Zm0 145.82a20.631 20.631 0 0 1-4.326-40.846 20.627 20.627 0 0 1 21.243 8.732 20.63 20.63 0 0 1 3.493 11.484 20.49 20.49 0 0 1-20.41 20.63ZM526 628.89H424a20.483 20.483 0 0 1-19.62 15.22c-9.51 0-20.21-9.21-20.21-20.43a20.408 20.408 0 0 1 20.21-20.43c11.1 0 17.24 6.41 19.42 15h101.77a2.418 2.418 0 0 0 2.38-2.4c-4.16-70.71-66.18-125.39-138.7-116.58-56.07 6.81-101.45 53.08-107.79 109.77-6.74 61.29 28.93 118.58 81.44 131.6 32.3 8.81 65.59 3.41 83.62-11a1.256 1.256 0 0 1 1.309-.118 1.251 1.251 0 0 1 .691 1.118v16a2.209 2.209 0 0 0 2.18 2.2h75.1a2.214 2.214 0 0 0 2.18-2.2V631.5a2.208 2.208 0 0 0-2.18-2.2l.2-.4v-.01Zm-.67-321.11-69.35-70.31a2.391 2.391 0 0 0-3.17 0l-50.53 51.08-50.53-51.08a2.391 2.391 0 0 0-3.17 0L279 307.78a2.45 2.45 0 0 0 0 3.2l50.53 51.08L279 413.14a2.45 2.45 0 0 0 0 3.2l69.55 70.31a2.387 2.387 0 0 0 3.17 0l50.53-51.08 50.53 51.08a2.387 2.387 0 0 0 3.17 0l69.55-70.31a2.445 2.445 0 0 0 0-3.2L475 362.06 525.5 311a2.445 2.445 0 0 0 0-3.2h-.2l.03-.02Z" fill="#fff"/></g><defs><clipPath id="a"><path fill="#fff" d="M0 0h1024v1024H0z"/></clipPath></defs></svg>