<svg width="1024" height="1024" fill="none" xmlns="http://www.w3.org/2000/svg"><g clip-path="url(#a)"><path d="M512 1024c282.77 0 512-229.23 512-512S794.77 0 512 0 0 229.23 0 512s229.23 512 512 512Z" fill="#F8C18C"/><path d="M512 256c-85 0-154.54 5.44-202.82 53.67C260.9 357.9 256 427.37 256 512.26s4.91 154.35 53.21 202.6S427 768 512 768c85 0 154.52-4.91 202.79-53.14C763.06 666.63 768 597.12 768 512.26s-5-154.52-53.38-202.75C666.24 261.28 596.86 256 512 256ZM360.66 414h120c31.36 0 64.15 1.45 80.3 17.64 15.91 15.91 17.64 47.64 17.71 78.42v96.85a3.203 3.203 0 0 1-3.27 3.09h-41.53a3.21 3.21 0 0 1-2.275-.909 3.213 3.213 0 0 1-.965-2.251v-98.5c0-17.19-1-34.86-9.9-43.75-7.64-7.68-21.89-9.41-36.69-9.77H408.7a3.202 3.202 0 0 0-3.22 3.14v148.93a3.196 3.196 0 0 1-2.012 2.932 3.21 3.21 0 0 1-1.228.228h-41.58a3.203 3.203 0 0 1-3.2-3.16V417.15c.013-.84.356-1.641.955-2.23a3.196 3.196 0 0 1 2.245-.92Zm258.79 0H661a3.2 3.2 0 0 1 3.2 3.2v189.7a3.2 3.2 0 0 1-3.2 3.1h-41.54a3.203 3.203 0 0 1-3.22-3.16V417.15a3.211 3.211 0 0 1 .951-2.257 3.203 3.203 0 0 1 2.269-.923l-.01.03Zm-173.16 75.56h43.65a3.162 3.162 0 0 1 2.25.907 3.164 3.164 0 0 1 .95 2.233v114.17a3.202 3.202 0 0 1-3.2 3.16h-43.65a3.21 3.21 0 0 1-2.275-.909 3.197 3.197 0 0 1-.965-2.251V492.69a3.199 3.199 0 0 1 3.24-3.13Z" fill="#fff"/></g><defs><clipPath id="a"><path fill="#fff" d="M0 0h1024v1024H0z"/></clipPath></defs></svg>