<svg width="1024" height="1024" viewBox="0 0 1024 1024" fill="none" xmlns="http://www.w3.org/2000/svg">
<g clip-path="url(#clip0_2_3987)">
<path d="M512 1024C794.77 1024 1024 794.77 1024 512C1024 229.23 794.77 0 512 0C229.23 0 0 229.23 0 512C0 794.77 229.23 1024 512 1024Z" fill="#73ADA4"/>
<path d="M644 256C633 256 628.19 262.93 624.22 270.08C624.22 270.08 465.22 552.19 459.91 561.43C460.23 561.94 564.85 753.92 564.85 753.92C568.48 760.49 574.15 768 585.48 768H659.17C663.67 768 667.17 766.34 669.05 763.31C670.95 760.09 670.95 755.93 668.86 751.88L564.78 561.66C564.738 561.589 564.715 561.508 564.715 561.425C564.715 561.342 564.738 561.261 564.78 561.19L728.3 272.13C730.3 268.06 730.37 263.87 728.43 260.72C726.49 257.57 723.08 256.01 718.64 256.01L644 256ZM333.83 357.12C329.33 357.12 325.62 358.7 323.74 361.73C321.86 364.76 322.08 368.96 324.17 373.06L374.09 459.46C374.18 459.67 374.18 459.8 374.09 459.91L295.69 598.43C293.58 602.43 293.69 606.56 295.69 609.72C297.5 612.72 300.79 614.72 305.29 614.72H379.12C390.17 614.72 395.46 607.3 399.28 600.49L478.94 459.49L428.21 370.85C424.54 364.13 418.95 356.79 407.69 356.79H333.83V357.12Z" fill="white"/>
</g>
<defs>
<clipPath id="clip0_2_3987">
<rect width="1024" height="1024" fill="white"/>
</clipPath>
</defs>
</svg>
