<svg width="1024" height="1024" viewBox="0 0 1024 1024" fill="none" xmlns="http://www.w3.org/2000/svg">
<g clip-path="url(#clip0_2_3990)">
<path d="M512 1024C794.77 1024 1024 794.77 1024 512C1024 229.23 794.77 0 512 0C229.23 0 0 229.23 0 512C0 794.77 229.23 1024 512 1024Z" fill="#728DBE"/>
<path d="M745.45 475.09L653.45 541.01L541.1 621.54V461L745.45 313.5V475.09ZM278.55 710.53L482.9 563V402.46L278.55 548.87V710.53ZM653.55 546.53L545 624.35L745.45 768V607.43L657.36 543.83L656.12 544.72L653.55 546.53ZM278.55 256V416.57L366.65 480.14L479 399.65L278.55 256Z" fill="white"/>
</g>
<defs>
<clipPath id="clip0_2_3990">
<rect width="1024" height="1024" fill="white"/>
</clipPath>
</defs>
</svg>
