<svg width="1024" height="1024" fill="none" xmlns="http://www.w3.org/2000/svg"><g clip-path="url(#a)"><path d="M512 1024c282.77 0 512-229.23 512-512S794.77 0 512 0 0 229.23 0 512s229.23 512 512 512Z" fill="#728DBE"/><path d="m745.45 475.09-92 65.92-112.35 80.53V461l204.35-147.5v161.59Zm-466.9 235.44L482.9 563V402.46L278.55 548.87v161.66Zm375-164L545 624.35 745.45 768V607.43l-88.09-63.6-1.24.89-2.57 1.81ZM278.55 256v160.57l88.1 63.57L479 399.65 278.55 256Z" fill="#fff"/></g><defs><clipPath id="a"><path fill="#fff" d="M0 0h1024v1024H0z"/></clipPath></defs></svg>