<svg width="1024" height="1024" fill="none" xmlns="http://www.w3.org/2000/svg"><g clip-path="url(#a)"><path d="M512 1024c282.77 0 512-229.23 512-512S794.77 0 512 0 0 229.23 0 512s229.23 512 512 512Z" fill="#8C72BD"/><path d="M256 390.61h101.45l59.06 151 59.83-151H575L426.38 748.15H327l40.66-94.74L256 390.61Zm332.7 143.54a61.357 61.357 0 0 0-60.169 73.34 61.357 61.357 0 0 0 48.218 48.203 61.368 61.368 0 0 0 62.986-26.102 61.366 61.366 0 0 0-7.644-77.477A61.352 61.352 0 0 0 588.7 534.15ZM768 275.85H657.83l-98.09 235.67h110.55L768 275.85Z" fill="#fff"/></g><defs><clipPath id="a"><path fill="#fff" d="M0 0h1024v1024H0z"/></clipPath></defs></svg>