<svg width="1024" height="1024" viewBox="0 0 1024 1024" fill="none" xmlns="http://www.w3.org/2000/svg">
<g clip-path="url(#clip0_2_3996)">
<path d="M512 1024C794.77 1024 1024 794.77 1024 512C1024 229.23 794.77 0 512 0C229.23 0 0 229.23 0 512C0 794.77 229.23 1024 512 1024Z" fill="#FF837D"/>
<path d="M390.3 542.51C390.3 551.843 390.757 561.197 391.67 570.57H365.13C364.046 567.634 363.354 564.567 363.07 561.45H361.93C356.67 566.93 349.8 572.17 333.79 572.17C312.79 572.17 298.56 559.17 298.56 535.9C298.56 512.63 317.09 498.9 358.73 498.9H363.08V492.51C363.08 480.19 357.13 475.63 344.08 475.63C330.08 475.63 314.08 481.56 306.79 487.04V464.48C319.151 457.529 333.109 453.917 347.29 454C376.12 454 390.29 464.49 390.29 492.33L390.3 542.51ZM363.07 517H359.18C335.84 517 326.47 521.79 326.47 535.25C326.47 545.52 332.19 552.36 343.63 552.36C353.24 552.36 359.63 548.25 363.08 543.23L363.07 517ZM439.71 570.61H412.49V455.82H439L439.69 465.4H441.06C446.55 459.92 456.16 453.99 472.4 453.99C494.59 453.99 503.74 463.99 503.74 486.84V570.57H476.54V489.57C476.54 480.9 472.19 476.79 462.54 476.79C452.7 476.79 444.7 482.04 439.66 488.2L439.71 570.61ZM522.07 514C522.07 475.67 540.37 453.54 566.68 453.54C578.58 453.54 588.68 459.02 595.51 469.28V412H622.73V570.57H597.56L596.19 555.74C588.87 566.92 578.35 572.85 565.54 572.85C539.92 572.85 522.07 551.85 522.07 513.99M550.21 513.99C550.21 539.99 557.53 551.4 572.4 551.4C587.73 551.4 595.51 539.77 595.51 513.07C595.51 486.61 588.19 474.97 573.51 474.97C557.95 474.97 550.18 486.83 550.18 513.97M694.53 572.83C659.76 572.83 640.08 553.44 640.08 513.51C640.08 478.83 655.87 453.51 689.08 453.51C716.3 453.51 733.92 468.57 733.92 508.51V522.88H668.25C669.39 542.04 676.94 551.4 696.85 551.4C710.12 551.4 724.3 546.4 732.77 540.68V562.81C724.77 568.28 711.95 572.81 694.57 572.81M668.26 502.81H706.26V500.53C706.26 486.16 702.14 474.98 688.64 474.98C675.64 474.98 668.97 484.56 668.28 502.81M790.9 531.81L767.79 570.59H740.08L776.23 510.82L741.46 455.82H772.11L794.11 490.5L813.78 455.82H841L808.51 511.49L846 570.57H815.35L790.9 531.81ZM258.3 570.57V551.18C258.3 524.94 253.72 513.08 243.2 490.27L207.28 412H178L220.32 503.48C229.01 522.19 231.53 532.91 231.53 554.58V570.58L258.3 570.57ZM276.37 488.67L310.23 412H282.09L248.69 488.66L276.37 488.67Z" fill="white"/>
</g>
<defs>
<clipPath id="clip0_2_3996">
<rect width="1024" height="1024" fill="white"/>
</clipPath>
</defs>
</svg>
