<svg width="1024" height="1024" viewBox="0 0 1024 1024" fill="none" xmlns="http://www.w3.org/2000/svg">
<g clip-path="url(#clip0_2_3999)">
<path d="M512 1024C794.77 1024 1024 794.77 1024 512C1024 229.23 794.77 0 512 0C229.23 0 0 229.23 0 512C0 794.77 229.23 1024 512 1024Z" fill="#73ADA4"/>
<path d="M256 422.5C268.3 422.5 280.6 422.4 292.9 422.9C302.6 448 319.5 470.3 323.8 497.3C328.4 470.4 344.3 447.3 354.8 422.5C365.6 422.5 376.3 422.5 387.1 422.4C372.2 451.6 357 480.6 341.8 509.5C339.7 513.8 337.2 518.1 337.4 523.1C337.2 540.8 337.5 558.5 337.4 576.4H307.2C306.7 557.6 308.1 538.8 306.6 520.1C290.7 487.2 273 454.9 256 422.5ZM431.6 465.4C450.1 461.6 471.8 464.8 484.4 479.9C497 494.8 498.6 515.7 496.5 534.4C494.8 551.5 484.6 568.5 468.2 575C447.5 583.1 420.5 580.3 405.9 562.3C392.6 544.7 391.6 520.5 396.6 499.9C400.4 482.9 414.4 468.6 431.6 465.4ZM438.2 489.4C427 492.8 424.3 505.8 423.5 515.9C422.9 527.5 423.6 541 432.1 549.7C441.3 559.5 459.6 555.7 464.2 543.2C469.3 529.5 469.1 513.6 464 499.9C460.4 489.9 447.8 485.2 438.2 489.4ZM517.5 423.8C538.9 421.4 560.6 419.5 582.3 422.1C593.4 423.6 605.2 427.2 612.8 436.2C622.1 446.3 622.3 461.9 617.9 474.3C614.2 484.6 604.2 489.9 595.7 495.4C604.4 498.8 614.2 502.2 619.5 510.7C632.1 530.3 624.6 559.7 603.4 569.7C576.9 582.9 546.1 578.3 517.7 575.6C516.9 524.9 517.5 474.4 517.5 423.8ZM547.2 446.9C546.5 460.3 546.5 473.9 546.8 487.3C559.3 487.1 573.6 488.3 583.5 479C593.2 472 592.3 454.7 580.9 449.9C570.4 444.9 558.4 447 547.2 446.9ZM546.7 511.1C546.6 524.7 546.6 538.2 546.7 551.8C560.1 552.4 575.5 554.9 587 546.2C596.9 539.1 596.9 521.6 585.9 515.7C574 509.2 559.8 511.5 546.7 511.1ZM653.9 422.7C664.3 417.7 680.8 422.2 682.1 435.2C682.5 452.2 656.2 457.1 647.6 443.9C642.7 436.8 646.2 426.1 653.9 422.7ZM708.5 446.4C718.2 443.8 727.7 441.1 737.3 438.5C737.3 448 737.4 457.4 737.4 466.8C746.3 466.8 755.4 466.9 764.3 467.3C764.2 475.1 764.1 482.9 763.9 490.6C755.1 490.7 746.2 490.7 737.4 490.7C738 509.5 735.7 528.5 738.7 547.2C742.1 557.7 755.2 551.7 762.8 550.7C764.5 558 766.2 565.4 767.9 572.6C753.7 577.6 737.7 582.4 723.1 576.5C713 572.7 709.2 561.3 708.7 551.6C707.4 531.4 708.5 511.2 708.2 490.9C703.2 490.9 698.4 490.9 693.4 491C693 482.9 693 475 693 466.9C698 466.8 703 466.8 708 466.7C708.2 459.9 708.2 453.1 708.5 446.4ZM649.1 466.9C658.9 466.8 668.5 466.8 678.3 466.9V576.4H649.1V466.9Z" fill="white"/>
</g>
<defs>
<clipPath id="clip0_2_3999">
<rect width="1024" height="1024" fill="white"/>
</clipPath>
</defs>
</svg>
