<svg width="1024" height="1024" fill="none" xmlns="http://www.w3.org/2000/svg"><g clip-path="url(#a)"><path d="M512 1024c282.77 0 512-229.23 512-512S794.77 0 512 0 0 229.23 0 512s229.23 512 512 512Z" fill="#8C72BD"/><path d="M338.19 611.43c87.487-92.993 174.99-185.973 262.51-278.94 8.793 8.273 17.58 16.553 26.36 24.84-3.11 6.69-5.13 14.35-3.44 21.7a17.238 17.238 0 0 0 13.15 13c7.75 1.55 15.7-.82 22.65-4.21 9.073 8.487 18.12 17 27.14 25.54L424 692.28c-9.32-8.72-18.56-17.53-27.9-26.23 2.2-6.68 3.11-14.14.66-20.88-2.14-6-7.27-11.14-13.66-12.39-6.39-1.25-12.8.71-18.38 3.67-8.833-8.3-17.677-16.64-26.53-25.02Zm285.75-279c.7.667 1.397 1.333 2.09 2l14 13.07c12.73-13.48 25.38-27 38.14-40.47-28.51-27.09-57.23-54-85.83-80.94a691761.807 691761.807 0 0 0-262.53 278.86 99729.451 99729.451 0 0 0 45.88 43.23c13.08-13.63 25.89-27.51 38.89-41.21a611815.106 611815.106 0 0 1 169.6-180.23c3-3 5.68-7 9.93-8.46a17.991 17.991 0 0 1 7.16-1.4c3.52.09 6.13.77 8.5 2.75a51.542 51.542 0 0 1 7.23 6.3l6.94 6.5ZM400.06 691.61c-.7-.667-1.397-1.334-2.09-2l-14-13.07c-12.73 13.48-25.38 27-38.14 40.47 28.51 27.09 57.23 54 85.83 80.94a949775.717 949775.717 0 0 0 262.53-278.9 99729.451 99729.451 0 0 0-45.88-43.23c-13.08 13.63-25.89 27.51-38.89 41.21a611815.106 611815.106 0 0 1-169.6 180.23c-3 3-5.68 7-9.93 8.46a18.009 18.009 0 0 1-7.16 1.4c-3.52-.09-6.13-.77-8.5-2.75a51.542 51.542 0 0 1-7.23-6.3l-6.94-6.46Z" fill="#fff"/></g><defs><clipPath id="a"><path fill="#fff" d="M0 0h1024v1024H0z"/></clipPath></defs></svg>