<svg width="1024" height="1024" fill="none" xmlns="http://www.w3.org/2000/svg"><g clip-path="url(#a)"><path d="M512 1024c282.77 0 512-229.23 512-512S794.77 0 512 0 0 229.23 0 512s229.23 512 512 512Z" fill="#728DBE"/><path d="m763 546.42-76.84 46.1V398L763 351.9v194.52ZM346.03 699.48 507.9 796.6v-92.48L346.03 607v92.48ZM677.97 607 516.1 704.12v92.48l161.87-97.12V607ZM516.1 300.88v121.58l101.34-60.78-101.34-60.81v.01ZM346.04 470.94v121.58l50.69-30.4 50.69-30.4-101.37-60.79-.01.01Zm277.38 98.42-50.69-30.4v121.58l101.37-60.79-50.69-30.4.01.01Zm-115.51-146.9V300.88l-101.34 60.81 101.34 60.78v-.01Zm-158 177.3 101.37 60.79V538.97l-50.69 30.4-50.69 30.4.01-.01Zm282.55-34.53 45.51 27.29V470.94L576.6 531.73l55.86 33.5ZM390.64 361.68l-.03-.02 113.43-68.03-77.07-46.24-162.1 97.26 77.07 46.24 48.7-29.22v.01ZM261.01 546.41l76.84 46.1V397.99l-76.84-46.1v194.52Zm258.96-252.78 113.43 68.03-.03.02 48.7 29.22 77.07-46.24-162.1-97.26-77.07 46.24v-.01Z" fill="#fff"/></g><defs><clipPath id="a"><path fill="#fff" d="M0 0h1024v1024H0z"/></clipPath></defs></svg>