<svg width="1024" height="1024" fill="none" xmlns="http://www.w3.org/2000/svg"><g clip-path="url(#a)"><path d="M512 1024c282.77 0 512-229.23 512-512S794.77 0 512 0 0 229.23 0 512s229.23 512 512 512Z" fill="#98DC9A"/><path d="M512 238.46c-151.2 0-274 122.8-274 274s122.8 273.08 274 273.08 273.08-121.88 274-273.08c0-151.21-122.8-274-274-274Zm-60.54 403.19-38.88-38.87 38.87-38.88 38.88 38.87-38.87 38.88Zm154-154.85L586.23 506 567 525.29l-19.24 20.16-38.49 38.49-98.07-98.06 38.49-38.49L509.25 506l96.22-96.22 39.4 38.49-39.41 38.53Z" fill="#fff"/></g><defs><clipPath id="a"><path fill="#fff" d="M0 0h1024v1024H0z"/></clipPath></defs></svg>