<svg width="1024" height="1024" fill="none" xmlns="http://www.w3.org/2000/svg"><g clip-path="url(#a)"><path d="M512 1024c282.77 0 512-229.23 512-512S794.77 0 512 0 0 229.23 0 512s229.23 512 512 512Z" fill="#98DC9A"/><path d="M312.68 343.34c-2.63-4.66-6.09-7.76-10.27-9.19a17.493 17.493 0 0 0-6.68-1.19H203l92.5 160.3L347.3 403c-19-32.58-30.43-52.4-34.61-59.68l-.01.02Zm415.94 187.52L676.83 621c18.86 32.58 30.31 52.4 34.49 59.68 3.94 6.92 9.55 10.38 16.95 10.38H821l-92.38-160.2ZM461 600.32l-51-88.21L513.43 333H409.24l-103 179.16c52.393 90.713 80.68 139.77 84.86 147.17 6.8 12.06 14.92 20.65 24.35 25.54 8.12 4.18 18.5 6.33 31 6.21 9.19 0 23.39 0 42.49-.12l52.4-90.59-80.34-.05Zm171.9-235.49c-6.8-12.17-14.92-20.65-24.35-25.54a50.109 50.109 0 0 0-16.11-5.13 83.98 83.98 0 0 0-14.92-1.16c-9.19 0-23.39.12-42.49.24l-52.39 90.59H563l51 88.05L510.57 691h104.19c34.253-59.68 68.587-119.4 103-179.16-52.507-90.687-80.793-139.69-84.86-147.01Z" fill="#fff"/></g><defs><clipPath id="a"><path fill="#fff" d="M0 0h1024v1024H0z"/></clipPath></defs></svg>