<svg width="1024" height="1024" fill="none" xmlns="http://www.w3.org/2000/svg"><g clip-path="url(#a)"><path d="M512 1024c282.77 0 512-229.23 512-512S794.77 0 512 0 0 229.23 0 512s229.23 512 512 512Z" fill="#F8C18C"/><path d="m317.9 543.29-.1-.33 65.09-59.58v-28.71H278.46v28.71h62.37l.1.28-64.45 59.64V572h107.45v-28.71H317.9ZM448 451.93c-12.047 0-21.863 1.816-29.45 5.45a38.647 38.647 0 0 0-17.09 15 54.523 54.523 0 0 0-7.14 21.62l31.68 4.47c1.147-6.754 3.44-11.537 6.88-14.35a20.995 20.995 0 0 1 13.62-4.21c6.427 0 11.093 1.72 14 5.16 2.87 3.44 4.33 8.2 4.33 14.47v3.13h-30.48c-15.507 0-26.647 3.436-33.42 10.31-6.773 6.873-10.153 15.95-10.14 27.23 0 11.553 3.38 20.15 10.14 25.79 6.76 5.64 15.263 8.443 25.51 8.41 12.707 0 22.483-4.374 29.33-13.12a48.766 48.766 0 0 0 8.48-18.07h1.15l4.37 28.71h28.71v-72.7c0-15.027-3.96-26.667-11.88-34.92-7.92-8.254-20.787-12.38-38.6-12.38Zm10 89.62c-4.56 3.8-10.52 5.69-17.95 5.69-6.12 0-10.373-1.07-12.76-3.21a10.496 10.496 0 0 1-3.59-8.17 10.721 10.721 0 0 1 3-7.93 11.055 11.055 0 0 1 8.17-3h30v2a18.236 18.236 0 0 1-6.81 14.61l-.06.01Zm214-86.88h-33.86V572h33.92L672 454.67Zm200.25 0c-9.58 0-17.133 3.38-22.66 10.14-3.967 4.86-6.967 12.04-9 21.54h-1l-4.43-31.68h-29V572h33.92v-60.17c0-7.587 1.777-13.404 5.33-17.45 3.553-4.047 10.11-6.07 19.67-6.07H878v-33.64h-5.75Zm-99.73 3.84c-7.92-4.714-17.92-7.047-30-7-18.98 0-33.833 5.403-44.56 16.21-10.727 10.806-16.047 25.686-15.96 44.64a71.235 71.235 0 0 0 7.31 33.16 52.665 52.665 0 0 0 20.8 21.92c8.987 5.193 19.673 7.793 32.06 7.8 10.713 0 19.663-1.65 26.85-4.95a43.177 43.177 0 0 0 17.09-13.5 58.843 58.843 0 0 0 9.28-19.19l-29.22-8.18a26.999 26.999 0 0 1-6.88 11.9c-3.333 3.333-8.863 5-16.59 5-9.227 0-16.103-2.644-20.63-7.93-3.28-3.82-5.35-9.27-6.26-16.33h80c.33-3.3.5-6.07.5-8.3v-7.31a65.137 65.137 0 0 0-5.93-28.47 44.552 44.552 0 0 0-17.8-19.48l-.06.01Zm-30.94 20.92c13.753 0 21.553 6.766 23.4 20.3h-48.59a27.921 27.921 0 0 1 5.45-12.39c4.453-5.287 11.053-7.927 19.8-7.92l-.06.01Zm-86.17-72.05a18.998 18.998 0 0 0-13.87 5.33 18.374 18.374 0 0 0-5.45 13.75 18.667 18.667 0 0 0 1.282 7.5 18.661 18.661 0 0 0 10.537 10.531 18.666 18.666 0 0 0 7.501 1.279 18.34 18.34 0 0 0 13.75-5.45 18.925 18.925 0 0 0 5.31-13.86 18.24 18.24 0 0 0-19-19.06l-.06-.02Zm-70.06 44.08c-11.553 0-20.837 3.626-27.85 10.88-5.193 5.373-9.003 13.396-11.43 24.07H545l-4.43-31.68h-29v151h33.92v-62.2h1.24a63.399 63.399 0 0 0 4.33 12 34.162 34.162 0 0 0 13.5 15.09 39.644 39.644 0 0 0 20 4.83c14.2 0 25.013-5.53 32.44-16.59 7.427-11.06 11.14-26.494 11.14-46.3 0-19.127-3.593-34.1-10.78-44.92-7.187-10.82-17.837-16.217-31.95-16.19l-.06.01Zm3.44 85c-3.953 5.733-10.143 8.6-18.57 8.6a21.876 21.876 0 0 1-18.19-8.3c-4.393-5.514-6.583-13.06-6.57-22.64v-2.22c0-9.734 2.19-17.184 6.57-22.35 4.38-5.167 10.443-7.724 18.19-7.67 8.573 0 14.803 2.723 18.69 8.17 3.887 5.446 5.83 13.04 5.83 22.78 0 10.073-1.97 17.96-5.91 23.66l-.04-.03Zm-325.5 6.81H146V572h117.35l-.06-28.73Z" fill="#fff"/></g><defs><clipPath id="a"><path fill="#fff" d="M0 0h1024v1024H0z"/></clipPath></defs></svg>