<svg width="1024" height="1024" fill="none" xmlns="http://www.w3.org/2000/svg"><g clip-path="url(#a)"><path d="M512 1024c282.77 0 512-229.23 512-512S794.77 0 512 0 0 229.23 0 512s229.23 512 512 512Z" fill="#FF837D"/><path d="M512 1024c282.77 0 512-229.23 512-512S794.77 0 512 0 0 229.23 0 512s229.23 512 512 512Z" fill="#BD9AFF"/><path d="M183.5 422.4v44.55h124.67v5.64l-124.67 62.7v66.31h203v-44.54h-125v-5.64L386 489.21V422.4H183.5Zm216.21 0v179.2h133.37c16.387 0 29.72-2 40-6 10.28-4 17.83-10 22.65-18a52.02 52.02 0 0 0 3.33-9.31 43.618 43.618 0 0 0 1.28-10.89 48.132 48.132 0 0 0-1.13-11.05 37.349 37.349 0 0 0-3.72-9.44 41.358 41.358 0 0 0-18.17-16.38c-7.86-3.726-19.21-5.606-34.05-5.64v-6.14c14.667-.153 26.017-2.213 34.05-6.18 8.033-3.966 14.09-9.17 18.17-15.61a33.212 33.212 0 0 0 3.72-9.31 48.684 48.684 0 0 0 1.16-10.89 45.683 45.683 0 0 0-1.29-10.88 50.326 50.326 0 0 0-3.33-9.6c-4.773-7.84-12.327-13.77-22.66-17.79s-23.69-6.02-40.07-6l-133.31-.09Zm210.13 0v179.2h122.6c17.753 0 33.5-2.263 47.24-6.79 13.74-4.526 25.347-11.01 34.82-19.45A78.326 78.326 0 0 0 835.6 545a129.67 129.67 0 0 0 3.59-16 107.993 107.993 0 0 0 1.31-17 96.48 96.48 0 0 0-1.41-16.89 303.026 303.026 0 0 0-3.19-15.61c-6.487-17.92-18.82-31.92-37-42-18.18-10.08-40.327-15.113-66.44-15.1H609.84Zm-142.27 40.7h40.2c3.91-.078 7.805.489 11.53 1.68a9.687 9.687 0 0 1 6.4 5.76 7.377 7.377 0 0 1 1.4 3.19c.278 1.477.409 2.978.39 4.48a15.142 15.142 0 0 1-.55 4 11.99 11.99 0 0 1-1.27 3.19 13.112 13.112 0 0 1-6.66 5.51 29.38 29.38 0 0 1-11.27 1.92h-40.17V463.1Zm213.18 5.42h44c10.067 0 18.513 2.26 25.34 6.78A38.427 38.427 0 0 1 765 494.11a70.32 70.32 0 0 1 2.14 8.29c.602 3.164.89 6.38.86 9.6a37.219 37.219 0 0 1-.51 6.28c-.35 2-.68 3.93-1 5.89a34.012 34.012 0 0 1-1.54 5.76 38.707 38.707 0 0 1-15.11 18.69c-7 4.607-15.36 6.924-25.08 6.95h-44l-.01-87.05Zm-213.18 62.42h40.2a28.444 28.444 0 0 1 11.4 2.06c3.153 1.334 5.243 3.12 6.27 5.36a27.024 27.024 0 0 1 1.41 3.47c.431 1.29.648 2.641.64 4a22.572 22.572 0 0 1-.42 4.47 7.368 7.368 0 0 1-1.4 3.21 10.529 10.529 0 0 1-6.52 5.76 34.579 34.579 0 0 1-11.4 1.66h-40.18v-29.99Z" fill="#fff"/></g><defs><clipPath id="a"><path fill="#fff" d="M0 0h1024v1024H0z"/></clipPath></defs></svg>