<svg width="1024" height="1024" fill="none" xmlns="http://www.w3.org/2000/svg"><g clip-path="url(#a)"><path d="M512 1024c282.77 0 512-229.23 512-512S794.77 0 512 0 0 229.23 0 512s229.23 512 512 512Z" fill="#73ADA4"/><path d="M495.12 432.74V680H290.34l204.78-247.26Zm0-88.74a102.394 102.394 0 0 1-174.799 72.404A102.394 102.394 0 0 1 290.33 344h204.79Zm33.75 336a102.394 102.394 0 0 1 174.799-72.404A102.394 102.394 0 0 1 733.66 680H528.87Zm0-88.75V344h204.79L528.87 591.25Z" fill="#fff"/></g><defs><clipPath id="a"><path fill="#fff" d="M0 0h1024v1024H0z"/></clipPath></defs></svg>