<svg width="1024" height="1024" fill="none" xmlns="http://www.w3.org/2000/svg"><g clip-path="url(#a)"><path d="M512 1024c282.77 0 512-229.23 512-512S794.77 0 512 0 0 229.23 0 512s229.23 512 512 512Z" fill="#FF837D"/><path d="M381.41 768a75.858 75.858 0 0 1-47.05-135.38l336.07-265.54c18.47-14.6 19.64-35.38 14.57-50-5.07-14.62-18.86-30.08-42.41-30.08H381.41c-23.55 0-37.35 15.58-42.42 30.16s-3.9 35.36 14.57 50l42.14 33.3a15.481 15.481 0 0 1-9.61 27.54 15.326 15.326 0 0 1-9.59-3.34l-42.14-33.29A75.86 75.86 0 0 1 381.41 256h261.18a75.857 75.857 0 0 1 72.843 97.1 75.862 75.862 0 0 1-25.793 38.28L353.56 656.92c-18.47 14.59-19.64 35.38-14.57 50 5.07 14.62 18.87 30.08 42.42 30.08h261.18c23.55 0 37.35-15.58 42.42-30.16s3.9-35.36-14.57-50l-43.49-34.36a15.481 15.481 0 0 1 9.61-27.63 15.338 15.338 0 0 1 9.6 3.34l43.49 34.36a75.864 75.864 0 0 1 24.714 84.487A75.856 75.856 0 0 1 642.59 768H381.41Zm-29-219.78a15.338 15.338 0 0 0 9.59-3.34l207.09-163.66a19.683 19.683 0 0 0-.787-31.49 19.681 19.681 0 0 0-11.413-3.64H454.77a15.5 15.5 0 1 0 0 31h69.64L342.75 520.58a15.48 15.48 0 0 0 9.62 27.63l.04.01Zm113.24 128h96.22a15.5 15.5 0 1 0 0-31h-63.78l181.66-143.53a15.486 15.486 0 0 0 2.54-21.75 15.486 15.486 0 0 0-21.75-2.54L453.4 641.06a19.68 19.68 0 0 0 12.21 35.13l.04.03Z" fill="#fff"/></g><defs><clipPath id="a"><path fill="#fff" d="M0 0h1024v1024H0z"/></clipPath></defs></svg>