<svg width="1024" height="1024" fill="none" xmlns="http://www.w3.org/2000/svg"><g clip-path="url(#a)"><path d="M512 1024c282.77 0 512-229.23 512-512S794.77 0 512 0 0 229.23 0 512s229.23 512 512 512Z" fill="#BD9AFF"/><path d="M621.57 508.38 519.51 234l207.67 274.38H621.57Zm-211.51 0h203.87L512 234.35l-101.94 274v.03Zm203.86 7.16H410.06L512 789.64l101.92-274.1Zm-211.51-7.16L504.49 234 296.82 508.38h105.59Zm0 7.16H296.83L504.51 790 402.42 515.54h-.01Zm219.15 0L519.53 790l207.65-274.46H621.56Z" fill="#fff"/></g><defs><clipPath id="a"><path fill="#fff" d="M0 0h1024v1024H0z"/></clipPath></defs></svg>