<svg width="1024" height="1024" viewBox="0 0 1024 1024" fill="none" xmlns="http://www.w3.org/2000/svg">
<g clip-path="url(#clip0_2_4036)">
<path d="M512 1024C794.77 1024 1024 794.77 1024 512C1024 229.23 794.77 0 512 0C229.23 0 0 229.23 0 512C0 794.77 229.23 1024 512 1024Z" fill="#56595B"/>
<path d="M761.5 310.2V264.5H262.5V310.2H489.1V337.3C402.4 348.7 335.5 422.8 335.5 512.5C335.5 602.2 402.4 676.2 489.1 687.7V759.7H532.2V688C620.7 678.2 689.5 603.3 689.5 512.4C689.5 421.4 620.7 346.6 532.2 336.8V310.2H761.5ZM379.4 512.4C379.4 447 426.8 392.6 489.1 381.5V643.2C426.8 632.2 379.4 577.8 379.4 512.4ZM645.6 512.4C645.6 579.1 596.3 634.4 532.2 643.9V380.9C596.4 390.4 645.6 445.7 645.6 512.4Z" fill="white"/>
</g>
<defs>
<clipPath id="clip0_2_4036">
<rect width="1024" height="1024" fill="white"/>
</clipPath>
</defs>
</svg>
