<svg width="1024" height="1024" viewBox="0 0 1024 1024" fill="none" xmlns="http://www.w3.org/2000/svg">
<g clip-path="url(#clip0_2_4033)">
<path d="M512 1024C794.77 1024 1024 794.77 1024 512C1024 229.23 794.77 0 512 0C229.23 0 0 229.23 0 512C0 794.77 229.23 1024 512 1024Z" fill="#728DBE"/>
<path d="M726.1 297.9V515C709.3 473.9 687.6 435.9 661.5 402C626.7 356.9 586.1 321.9 541.7 297.9H726.1ZM395.7 321C361.5 321 328.7 328.3 297.9 341.8V726.1H707.3C704.1 502 565.5 321 395.7 321Z" fill="white"/>
</g>
<defs>
<clipPath id="clip0_2_4033">
<rect width="1024" height="1024" fill="white"/>
</clipPath>
</defs>
</svg>
