<svg width="1024" height="1024" fill="none" xmlns="http://www.w3.org/2000/svg"><g clip-path="url(#a)"><path d="M512 1024c282.77 0 512-229.23 512-512S794.77 0 512 0 0 229.23 0 512s229.23 512 512 512Z" fill="#56595B"/><path d="m567.22 477.29 68.89-148.45a24.432 24.432 0 0 0-10.552-31.777 24.428 24.428 0 0 0-11.808-2.933h-216a24.861 24.861 0 0 0-22.58 14.62l-78.51 168.54A24.432 24.432 0 0 0 319 512h115.45a24.668 24.668 0 0 1 24.539 22.945 24.67 24.67 0 0 1-2.179 11.995l-69.13 148.22a24.64 24.64 0 0 0 1.841 23.501 24.658 24.658 0 0 0 20.739 11.209h216a24.877 24.877 0 0 0 22.58-14.62l78.47-168.31a24.654 24.654 0 0 0-1.693-23.649A24.656 24.656 0 0 0 704.77 512h-115.2a24.437 24.437 0 0 1-24.564-22.748 24.443 24.443 0 0 1 2.204-11.962h.01Z" fill="#fff"/></g><defs><clipPath id="a"><path fill="#fff" d="M0 0h1024v1024H0z"/></clipPath></defs></svg>