<svg width="1024" height="1024" fill="none" xmlns="http://www.w3.org/2000/svg"><g clip-path="url(#a)"><path d="M512 1024c282.77 0 512-229.23 512-512S794.77 0 512 0 0 229.23 0 512s229.23 512 512 512Z" fill="#FF837D"/><path d="M716.17 553.46c-5.28-6.34-8-15.06-8-26.24 0-11.4 2.67-20.25 7.92-26.64 5.25-6.39 12.45-9.58 21.72-9.58s16.25 3.18 21.52 9.57c5.27 6.39 7.92 15.23 7.92 26.63 0 11.13-2.66 19.84-7.92 26.2-5.26 6.36-12.33 9.55-21.52 9.6-9.19.05-16.35-3.2-21.64-9.54Zm-45.1-99.84h135.81v145.55H671.07v-35.69L666.21 577 648 448.7l10-28.86 13 100.27.07-66.49ZM684 527.2a60.48 60.48 0 0 0 4 22.29A55.567 55.567 0 0 0 700 568a49.682 49.682 0 0 0 17 11.57 54.685 54.685 0 0 0 20.9 3.91 53.557 53.557 0 0 0 20.49-3.91A52.13 52.13 0 0 0 775.51 568a55.672 55.672 0 0 0 12.08-18.49 63 63 0 0 0 0-44.63 54.996 54.996 0 0 0-12.08-18.37 51.802 51.802 0 0 0-17.16-11.76 52.923 52.923 0 0 0-20.54-3.95 53.746 53.746 0 0 0-20.7 3.95A50.8 50.8 0 0 0 700 486.53a53.182 53.182 0 0 0-12 18.3 61.158 61.158 0 0 0-4 22.37Zm8.64-98.75-20 21.79H807.8l19-21.89-134.16.1Zm117.65 24.11v144.92L829 578.73v-147.8l-18.71 21.63Zm-165.45-2.13 18.5 130.24-131.69 18.5-14-98.48-43.88 99.64L355.59 547v-.09l53.31-121 104.83 47.3 13.36 6 .69-1.53-.52-2.09-4.83-2.18-113-51-11.75-39.81 120.06 55 1.73 6.89 2.84-9.55 133.37-18.54L645 447l-120.57 16.44.23 1.67.19.77.22.88 119.77-16.33Zm-149.62 57.15a57.352 57.352 0 0 0-3.61-20 51.315 51.315 0 0 0-10.88-17.85A50.37 50.37 0 0 0 463.61 458a51.142 51.142 0 0 0-20.16-4.24h-.31a50.21 50.21 0 0 0-20.39 4.58 55.333 55.333 0 0 0-18.32 12.82 69.25 69.25 0 0 0-18 42.57c-.04.86-.06 1.72-.06 2.58a58.09 58.09 0 0 0 3.45 19.7 49.136 49.136 0 0 0 10.78 17.59 51.813 51.813 0 0 0 17.47 11.8 50.924 50.924 0 0 0 20.09 4.2h.17a51.799 51.799 0 0 0 20.35-4.38 58.158 58.158 0 0 0 18.47-13 68.21 68.21 0 0 0 18-42.53c.047-.68.07-1.384.07-2.11Zm141.72 58.75a22.644 22.644 0 0 0-.25-3.27l-13.13-89.26c-.6-4.1-2-7.22-4.27-9.27a9.607 9.607 0 0 0-6.65-2.46c-.67.005-1.338.059-2 .16a10.348 10.348 0 0 0-7.74 4.75 12.852 12.852 0 0 0-1.76 6.88c.005 1.074.089 2.147.25 3.21l4.87 34.32-38.39 5.61-4.87-34.3c-.59-4-2-7.08-4.2-9.19a9.327 9.327 0 0 0-6.6-2.57c-.616.001-1.231.048-1.84.14-3.61.52-6.36 2.09-8 4.7a12.494 12.494 0 0 0-1.79 6.89c.008 1.098.095 2.194.26 3.28l13.12 89.26c.6 4.1 2 7.22 4.4 9.24a10.136 10.136 0 0 0 6.79 2.36 15.549 15.549 0 0 0 2.25-.17 9.75 9.75 0 0 0 7.39-4.72 13.104 13.104 0 0 0 1.64-6.72 22.23 22.23 0 0 0-.25-3.25l-5.36-35.27 38.34-5.64 5.36 35.27c.59 4.05 2 7.15 4.34 9.19a9.884 9.884 0 0 0 6.72 2.44c.686 0 1.371-.05 2.05-.15a10.183 10.183 0 0 0 7.67-4.71 12.839 12.839 0 0 0 1.65-6.75Zm-181.49-89.08a29.083 29.083 0 0 0-11.45-2.5 24.883 24.883 0 0 0-12.15 3.25c-7.38 4.06-13.4 11.49-18 22.36-3.007 7.093-4.507 13.613-4.5 19.56a31.854 31.854 0 0 0 1.14 8.57c2.26 8.1 7.48 13.84 15.86 17.41 3.55 1.567 7.38 2.4 11.26 2.45a25.006 25.006 0 0 0 12.18-3.24c7.37-4 13.33-11.33 17.84-22 3.107-7.334 4.653-14.03 4.64-20.09a32.003 32.003 0 0 0-1.08-8.41c-2.24-8.07-7.41-13.82-15.74-17.36ZM357.6 534l48.66-110.48-11.67-39.41-43.71 103.8-12.23-81.79-8.1 42.25 19 124.79 7.22-37.26.83-1.9Zm-162.25-66.93 132.05-20.22 8.72-45.49-131.83 21.13-6.67 33.28-2.26 11.29-.01.01Zm151.56 111.32-130.66 20.49-21-128.38 132.15-20.23 19.51 128.12Zm-30.06-14.14a12.86 12.86 0 0 0-.2-2.19 9.509 9.509 0 0 0-2-4.6 9.295 9.295 0 0 0-4.16-2.76 19.472 19.472 0 0 0-6.39-.91 48.372 48.372 0 0 0-8.1.78l-34.93 6c.37-2.69 1.71-6.23 4.06-10.54a144.028 144.028 0 0 1 11.64-17.38l4-5.39c.67-.83 1.6-2 2.8-3.65 8-10.48 12.93-19 14.83-25.71a53.827 53.827 0 0 0 2-11.48c.067-1.054.1-2.1.1-3.14a48.282 48.282 0 0 0-.68-8.16A22.3 22.3 0 0 0 298 469a8.623 8.623 0 0 0-3.09-3.64 11.73 11.73 0 0 0-6-1.24 47.468 47.468 0 0 0-7.79.78l-40.36 6.91c-4.89.84-8.5 2.28-10.8 4.44a8.599 8.599 0 0 0-2.77 6.49c.001.693.061 1.386.18 2.07a9.006 9.006 0 0 0 5.24 7.22 14.932 14.932 0 0 0 6.15 1.13c1.808-.02 3.611-.19 5.39-.51L277.9 487c.06.6.1 1.19.1 1.78a18.114 18.114 0 0 1-1.1 6.2c-1 2.8-3.51 6.79-7.5 11.87a676.922 676.922 0 0 0-5.2 6.48c-9.113 11.033-15.64 20.456-19.58 28.27a61.024 61.024 0 0 0-5.82 15.92 43.98 43.98 0 0 0-.94 8.78c-.006 1.956.155 3.91.48 5.84a23.65 23.65 0 0 0 2 6.7 8.776 8.776 0 0 0 3.46 3.85c1.32.71 3.25 1 5.92 1a86.221 86.221 0 0 0 13.7-1.48l36.62-6.26c6.48-1.12 11-2.66 13.62-4.82a8.534 8.534 0 0 0 3.19-6.88Z" fill="#fff"/></g><defs><clipPath id="a"><path fill="#fff" d="M0 0h1024v1024H0z"/></clipPath></defs></svg>