<svg width="1024" height="1024" fill="none" xmlns="http://www.w3.org/2000/svg"><g clip-path="url(#a)"><path d="M512 1024c282.77 0 512-229.23 512-512S794.77 0 512 0 0 229.23 0 512s229.23 512 512 512Z" fill="#FF837D"/><path d="M598.39 800 451.26 523.28l69.62-37.02 147.13 276.72L598.39 800ZM470.11 600.94l-179.42 34.88 15.05 77.42 179.42-34.88-15.05-77.42Zm263.21-174.02-387.05-75.23-15.05 77.41 387.05 75.23 15.05-77.42v.01Zm-106.66-134.9c0-37.57-30.45-68.02-68.02-68.02-37.57 0-68.01 30.45-68.01 68.02 0 37.57 30.45 68.02 68.01 68.02s68.02-30.46 68.02-68.02Z" fill="#fff"/></g><defs><clipPath id="a"><path fill="#fff" d="M0 0h1024v1024H0z"/></clipPath></defs></svg>