<svg width="1024" height="1024" viewBox="0 0 1024 1024" fill="none" xmlns="http://www.w3.org/2000/svg">
<g clip-path="url(#clip0_2_4045)">
<path d="M512 1024C794.77 1024 1024 794.77 1024 512C1024 229.23 794.77 0 512 0C229.23 0 0 229.23 0 512C0 794.77 229.23 1024 512 1024Z" fill="#FF837D"/>
<path d="M598.39 800L451.26 523.28L520.88 486.26L668.01 762.98L598.39 800ZM470.11 600.94L290.69 635.82L305.74 713.24L485.16 678.36L470.11 600.94ZM733.32 426.92L346.27 351.69L331.22 429.1L718.27 504.33L733.32 426.91V426.92ZM626.66 292.02C626.66 254.45 596.21 224 558.64 224C521.07 224 490.63 254.45 490.63 292.02C490.63 329.59 521.08 360.04 558.64 360.04C596.2 360.04 626.66 329.58 626.66 292.02Z" fill="white"/>
</g>
<defs>
<clipPath id="clip0_2_4045">
<rect width="1024" height="1024" fill="white"/>
</clipPath>
</defs>
</svg>
