<svg width="1024" height="1024" fill="none" xmlns="http://www.w3.org/2000/svg"><g clip-path="url(#a)"><path d="M512 1024c282.77 0 512-229.23 512-512S794.77 0 512 0 0 229.23 0 512s229.23 512 512 512Z" fill="#9ABEFF"/><path d="M458.74 467.28A62.933 62.933 0 0 0 414 448.79a63.211 63.211 0 0 0-55.679 93.044A63.21 63.21 0 1 0 458.72 467.28h.02Zm-17.86 71.59a37.881 37.881 0 1 1 0-53.57 37.77 37.77 0 0 1 .01 53.56l-.01.01Zm150.6-71.59a63.252 63.252 0 0 0-97.319 9.579 63.255 63.255 0 0 0 0 70.282 63.254 63.254 0 0 0 64.934 26.893 63.252 63.252 0 0 0 32.385-17.314 62.917 62.917 0 0 0 13.815-68.947 62.928 62.928 0 0 0-13.805-20.493h-.01Zm-17.86 71.59a37.881 37.881 0 1 1 0-53.57 37.77 37.77 0 0 1 .01 53.56l-.01.01Zm-336.27 17.38-.32-6.32 75.85-75.85H256l-6.32-.32c-10.27-.63-17.86-8.38-18.65-18.65l-.32-6.32h94.82l6.32.32a19.1 19.1 0 0 1 18.65 18.65l.32 6.32L275 549.93h56.89l6.32.32c10.43.63 17.86 8.22 18.65 18.65l.32 6.32h-94.87l-6.31-.32a19.333 19.333 0 0 1-18.65-18.65Zm429.52-82.18a25.165 25.165 0 0 0-21.81 12.64c-2.21 3.63-2.84 7.9-3.16 12.64l-.32 6.32v44.25l-.32 6.32c-.47 10.43-8.06 18-18.65 18.65l-6.32.32V448.79c6.32 0 17.38 3.16 22.28 8.69a49.894 49.894 0 0 1 28.29-8.69 50.628 50.628 0 0 1 37.93 17.07 50.6 50.6 0 0 1 88.5 33.5v75.85l-6.29-.31a19.333 19.333 0 0 1-18.65-18.65l-.32-6.32v-44.25l-.32-6.32c-.16-4.58-.79-8.85-3-12.64a25.428 25.428 0 0 0-22-12.64 25.004 25.004 0 0 0-21.81 12.48c-2.21 3.79-2.84 8.06-3.16 12.8l-.32 6.32v69.53l-6.32-.32a19.444 19.444 0 0 1-12.972-5.678 19.444 19.444 0 0 1-5.678-12.972l-.32-6.32v-44.24l-.32-6.32c-.32-4.74-.95-8.85-3.16-12.64a24.997 24.997 0 0 0-21.78-12.65Z" fill="#fff"/></g><defs><clipPath id="a"><path fill="#fff" d="M0 0h1024v1024H0z"/></clipPath></defs></svg>